<svg width="98" height="32" viewBox="0 0 98 32" fill="none" xmlns="http://www.w3.org/2000/svg">
<path d="M18.2785 24.1186V20.5908L21.3959 18.832L24.5132 20.601V24.1237L21.3959 25.8825L18.2785 24.1186ZM10.8489 24.1186V20.5908L13.9662 18.8269L17.0836 20.5959V24.1237L13.9662 25.8825L10.8489 24.1186ZM7.13402 17.843V14.2744L10.2514 12.5207L13.3687 14.2948V17.843L10.2514 19.6069L7.13402 17.843ZM14.5585 17.843V14.2744L17.6759 12.5207L20.7932 14.2948V17.843L17.6759 19.6069L14.5585 17.843ZM21.9778 17.843V14.3254L25.0951 12.5615L28.2125 14.3305V17.843L25.0951 19.5967L21.9778 17.843ZM10.8385 11.5215V8.00387L13.9558 6.24506L17.0732 8.01406V11.5419L13.9558 13.2956L10.8385 11.5215ZM18.2682 11.5215V8.00387L21.3855 6.24506L24.5028 8.01406V11.5368L21.3855 13.2956L18.2682 11.5215ZM17.6759 7.00976L13.961 4.9043L9.66427 7.33603V11.5317L5.97021 13.6218V18.4904L9.69025 20.6061V24.7864L13.9818 27.2232L17.6759 25.1229L21.3803 27.2232L25.6822 24.7966V20.5908L29.3815 18.5006V13.632L25.6822 11.5215V7.34623L21.3959 4.9043L17.6759 7.00976Z" fill="white"/>
<path d="M10.6206 15.8292L10.4907 20.0504L13.8419 18.1947L13.7795 14.1367L10.6206 15.8292Z" fill="#F0E5C4"/>
<path d="M17.1981 15.8292L17.328 20.0504L13.9717 18.1947L14.0392 14.1367L17.1981 15.8292Z" fill="#E1C782"/>
<path d="M14.6619 18.4854L10.6873 20.081L13.7734 22.3343L17.5246 20.6265L14.6619 18.4854Z" fill="#C39E3A"/>
<path d="M17.0889 16.3799V19.245L14.5587 17.8074V14.9474L17.0889 16.3799ZM10.8542 16.3799L13.3844 14.9423V17.8431L10.8594 19.2858L10.8542 16.3799ZM11.4413 20.2442L13.9612 18.8066L16.4914 20.234L13.9612 21.6716L11.4413 20.2442ZM18.2527 15.707L13.9715 13.2549L9.6748 15.7121V20.5807L10.2619 20.9171L13.9612 23.0073L18.2579 20.5705L18.2527 15.707Z" fill="white"/>
<path d="M24.7413 16.2424L24.8712 12.0264L21.5149 13.8769L21.5824 17.9349L24.7413 16.2424Z" fill="#F0E5C4"/>
<path d="M18.1638 16.2424L18.0339 12.0264L21.3851 13.8769L21.3227 17.9349L18.1638 16.2424Z" fill="#E1C782"/>
<path d="M20.695 13.5863L24.6749 11.9906L21.5835 9.7373L17.8323 11.4451L20.695 13.5863Z" fill="#C39E3A"/>
<path d="M18.273 15.6918V12.8268L20.7928 14.2746V17.1346L18.273 15.6918ZM24.5077 15.6918L21.9774 17.1295V14.2746L24.5025 12.8319L24.5077 15.6918ZM23.9102 11.8276L21.3799 13.255L18.8497 11.8276L21.3799 10.3899L23.9102 11.8276ZM17.0884 16.3648L21.3903 18.7965L25.6871 16.3597V11.4911L25.0948 11.1546L21.3903 9.06445L17.0936 11.5013L17.0884 16.3648Z" fill="white"/>
<mask id="mask0_1132_319990" style="mask-type:luminance" maskUnits="userSpaceOnUse" x="5" y="4" width="89" height="24">
<path d="M93.5571 4.76172H5.94922V27.2234H93.5571V4.76172Z" fill="white"/>
</mask>
<g mask="url(#mask0_1132_319990)">
<path d="M78.6981 20.5658C78.4008 20.6357 78.1191 20.7584 77.8668 20.9277C77.6253 21.0862 77.4243 21.2973 77.2797 21.5446C77.1238 21.8164 77.0465 22.1249 77.0562 22.4367C77.0428 22.7328 77.1207 23.0259 77.2797 23.2779C77.4249 23.4837 77.6125 23.6574 77.8304 23.7877C78.0558 23.9252 78.2986 24.0332 78.5526 24.1088C78.8124 24.1904 79.0721 24.272 79.2748 24.3586C79.4736 24.4281 79.661 24.5261 79.8307 24.6492C79.9004 24.702 79.9564 24.7701 79.9943 24.848C80.0322 24.9259 80.0509 25.0115 80.0489 25.0979C80.0528 25.1565 80.0409 25.2152 80.0145 25.268C79.988 25.3207 79.9479 25.3658 79.8982 25.3986C79.7788 25.4655 79.6457 25.5056 79.5086 25.5159C79.3363 25.5402 79.1613 25.5402 78.989 25.5159C78.7945 25.4829 78.6033 25.4334 78.4175 25.368C78.238 25.3081 78.0642 25.2331 77.8979 25.1437C77.7592 25.0698 77.633 24.9752 77.5239 24.8633L76.7653 26.1378C77.1497 26.4661 77.6069 26.7018 78.1006 26.8261C78.5768 26.9516 79.0674 27.0167 79.5605 27.0198C79.8953 27.0206 80.2287 26.9795 80.5529 26.8974C80.85 26.827 81.1316 26.7044 81.3842 26.5355C81.621 26.3763 81.8167 26.1651 81.9557 25.9186C82.1031 25.6384 82.1763 25.3264 82.1687 25.0112C82.1796 24.706 82.1079 24.4035 81.9609 24.1343C81.83 23.9049 81.6533 23.7038 81.4413 23.543C81.2232 23.377 80.9817 23.2431 80.7243 23.1453C80.4765 23.0436 80.2233 22.9551 79.9658 22.8802C79.7216 22.7987 79.5034 22.7171 79.3111 22.6406C79.1189 22.5642 79.0202 22.4571 79.0202 22.3399C79.0135 22.274 79.0233 22.2076 79.0487 22.1464C79.074 22.0851 79.1142 22.0308 79.1657 21.9881C79.2713 21.9139 79.3949 21.8682 79.5241 21.8555C79.6977 21.8402 79.8726 21.8488 80.0437 21.881C80.2196 21.9123 80.3931 21.9549 80.5633 22.0085C80.7205 22.0559 80.8749 22.112 81.0257 22.1767L81.3322 22.3246L82.0804 21.1214C81.7103 20.8939 81.3075 20.722 80.8854 20.6116C80.4937 20.5097 80.0905 20.4566 79.6852 20.4536C79.3629 20.4542 79.0418 20.4936 78.7292 20.5709M76.6094 20.4689C76.1807 20.4551 75.7535 20.5244 75.3521 20.6728C75.0694 20.7846 74.8037 20.9338 74.5624 21.1163C74.3467 21.2978 74.17 21.5196 74.0428 21.7689L73.7103 20.6218H72.0321V26.872H74.2143V24.2159C74.2202 23.9939 74.2516 23.7733 74.3078 23.5583C74.3692 23.2992 74.4861 23.0559 74.6507 22.8446C74.8274 22.6141 75.067 22.4374 75.3417 22.3348C75.7178 22.223 76.1191 22.223 76.4951 22.3348L76.6094 20.4689ZM66.7067 23.1249C66.708 22.9784 66.729 22.8327 66.769 22.6916C66.8061 22.5418 66.8713 22.4 66.9612 22.2736C67.0572 22.1399 67.1835 22.03 67.3301 21.9524C67.5104 21.8685 67.7073 21.825 67.9068 21.825C68.1063 21.825 68.3033 21.8685 68.4835 21.9524C68.6322 22.0312 68.7617 22.1408 68.8628 22.2736C68.9596 22.398 69.0303 22.5401 69.0706 22.6916C69.1107 22.8327 69.1316 22.9784 69.133 23.1249H66.7067ZM69.2213 26.9331C69.4846 26.8821 69.7236 26.8261 69.9383 26.7649C70.1531 26.7037 70.3262 26.6476 70.4579 26.5967C70.5269 26.5774 70.592 26.5463 70.6501 26.5049V25.0316C70.4756 25.137 70.2912 25.2258 70.0994 25.2967C69.8843 25.3712 69.6637 25.4291 69.4395 25.47C69.1594 25.5277 68.8737 25.555 68.5875 25.5516C68.2976 25.5578 68.009 25.5129 67.7354 25.419C67.5296 25.3439 67.3382 25.2353 67.1691 25.0979C67.0324 24.9896 66.9208 24.8541 66.8417 24.7002C66.7814 24.5911 66.7426 24.4717 66.7274 24.3485H71.1385V23.7469C71.1378 23.3545 71.0854 22.9638 70.9826 22.5846C70.8801 22.2017 70.7038 21.8418 70.4631 21.5242C70.1833 21.1909 69.8272 20.9271 69.424 20.7544C68.4211 20.3734 67.3095 20.3734 66.3066 20.7544C65.906 20.9317 65.551 21.1947 65.2675 21.5242C65.0065 21.8373 64.8105 22.1975 64.6908 22.5846C64.5738 22.9613 64.5142 23.353 64.5141 23.7469C64.515 24.1407 64.5745 24.5323 64.6908 24.9092C64.8165 25.2925 65.0318 25.6416 65.3194 25.9288C65.6593 26.2648 66.071 26.5225 66.5248 26.6833C67.1412 26.8989 67.7932 26.9991 68.4472 26.979C68.7244 26.9793 69.001 26.9537 69.2733 26.9025M64.2336 20.5912H61.7345C61.5734 20.8156 61.4331 21.0144 61.3188 21.1877C61.2045 21.361 61.0746 21.5446 60.9396 21.7434L60.5499 22.294L60.1291 22.9414H59.677V19.0058H57.5053V26.872H59.677V24.792H60.1394L61.7345 26.872H64.1764C63.9998 26.6476 63.8266 26.408 63.6569 26.1531C63.4646 25.8931 63.2672 25.6433 63.0646 25.368C62.8619 25.0928 62.6697 24.8583 62.4723 24.5881C62.2748 24.3179 62.093 24.0783 61.9215 23.8539L64.2336 20.5912ZM51.8733 25.1182C51.5902 24.7275 51.4611 24.2494 51.5096 23.7724C51.4621 23.2811 51.5907 22.7889 51.8733 22.3806C52.0041 22.24 52.1653 22.13 52.3451 22.0585C52.5249 21.987 52.7188 21.956 52.9124 21.9677C53.1105 21.9571 53.3087 21.9885 53.4934 22.0597C53.6781 22.131 53.845 22.2404 53.9827 22.3806C54.2793 22.7831 54.416 23.278 54.3672 23.7724C54.4168 24.2533 54.2775 24.7348 53.9775 25.1182C53.6962 25.3754 53.3226 25.5129 52.9384 25.5006C52.7475 25.5127 52.5561 25.4849 52.377 25.419C52.1978 25.353 52.035 25.2505 51.8993 25.1182M52.1642 20.5301C51.5825 20.6157 51.0272 20.8263 50.538 21.1469C50.2792 21.3159 50.0509 21.5261 49.8626 21.7689C49.6621 22.0287 49.5043 22.3176 49.395 22.6253C49.2727 22.9957 49.2131 23.3831 49.2183 23.7724C49.1969 24.328 49.3279 24.8791 49.5976 25.368C49.8222 25.7614 50.1348 26.0996 50.512 26.3571C50.879 26.5973 51.2874 26.7701 51.7174 26.8669C52.1126 26.9582 52.5168 27.006 52.9228 27.0096C53.3304 27.0055 53.7363 26.9576 54.1334 26.8669C54.5714 26.77 54.9883 26.5974 55.3647 26.3571C55.7558 26.1045 56.0813 25.7658 56.3155 25.368C56.5875 24.8799 56.7186 24.3282 56.6948 23.7724C56.7247 23.2584 56.6179 22.7455 56.3847 22.2843C56.1515 21.8231 55.8 21.4294 55.3647 21.1418C54.9899 20.8987 54.5724 20.7259 54.1334 20.632C53.7365 20.5398 53.3306 20.4902 52.9228 20.4842C52.6598 20.4846 52.3974 20.5068 52.1383 20.5505M49.0209 20.4842C48.2815 20.4522 47.555 20.6819 46.9738 21.1316C46.7581 21.3131 46.5815 21.5349 46.4543 21.7842L46.1218 20.6371H44.4384V26.872H46.6205V24.2159C46.627 23.9943 46.6566 23.7739 46.7089 23.5583C46.77 23.2981 46.8889 23.0544 47.057 22.8446C47.2318 22.6122 47.472 22.4351 47.748 22.3348C48.124 22.2227 48.5254 22.2227 48.9014 22.3348L49.0209 20.4842ZM38.9778 25.2967V23.5889H39.8455H40.3651C40.5147 23.5955 40.6622 23.6265 40.8015 23.6806C40.9267 23.73 41.0323 23.8176 41.1028 23.9304C41.1839 24.0734 41.2217 24.2361 41.212 24.3994C41.2209 24.5654 41.1851 24.7307 41.108 24.8786C41.0452 24.995 40.9472 25.0894 40.8275 25.1488C40.6993 25.2118 40.5599 25.2499 40.417 25.261C40.2544 25.2715 40.0913 25.2715 39.9286 25.261L38.9778 25.2967ZM43.4928 24.4708C43.5126 24.1444 43.4111 23.8219 43.2071 23.5634C43.0323 23.3538 42.8169 23.1805 42.5732 23.0536C42.283 22.9196 41.9723 22.8335 41.6536 22.7987C41.934 22.7659 42.2055 22.6811 42.4537 22.5489C42.6683 22.4273 42.857 22.2663 43.0096 22.0748C43.1898 21.8236 43.2777 21.5198 43.259 21.2132C43.2653 20.8473 43.1816 20.4853 43.0148 20.1579C42.8671 19.882 42.6508 19.6471 42.3861 19.4748C42.1048 19.2978 41.7933 19.1717 41.4665 19.1026C41.1015 19.0234 40.7286 18.9841 40.3547 18.9854H36.7178V26.872H40.2248C40.6313 26.8721 41.0368 26.8328 41.4354 26.7547C41.8032 26.6816 42.155 26.5452 42.4745 26.352C42.7774 26.1679 43.0319 25.9164 43.2174 25.6178C43.4135 25.2835 43.5106 24.9022 43.498 24.5167L43.4928 24.4708ZM38.9778 20.6167H39.965C40.0953 20.6171 40.2255 20.6256 40.3547 20.6422C40.4695 20.6553 40.5806 20.6899 40.682 20.7442C40.776 20.7975 40.8533 20.875 40.9054 20.9685C40.9684 21.0862 40.9989 21.218 40.9937 21.3508C40.999 21.4804 40.9685 21.609 40.9054 21.723C40.8524 21.8155 40.7776 21.8942 40.6872 21.9524C40.5935 22.0101 40.4895 22.0499 40.3807 22.0697C40.2623 22.0904 40.1424 22.1006 40.0222 22.1002H38.9778V20.6167Z" fill="#7D7D7D"/>
<path d="M93.5574 8.32023C93.0062 8.30254 92.4569 8.39265 91.9415 8.58533C91.5772 8.73177 91.2375 8.93112 90.9336 9.17669C90.6597 9.41002 90.4354 9.69415 90.2737 10.0128L89.8477 8.53945H87.6864V16.5637H90.492V13.1429C90.5009 12.8591 90.541 12.5771 90.6115 12.3018C90.6898 11.9683 90.8404 11.6553 91.0531 11.3841C91.2853 11.0948 91.5946 10.8742 91.9467 10.7469C92.4299 10.6059 92.9443 10.6059 93.4275 10.7469L93.5574 8.32023ZM83.6598 13.2551C83.6605 13.4744 83.6089 13.6909 83.5091 13.8872C83.4063 14.0824 83.265 14.2557 83.0935 14.397C82.9039 14.55 82.6872 14.6675 82.4544 14.7437C82.1927 14.8272 81.919 14.8685 81.6439 14.866C81.4188 14.8664 81.2025 14.7804 81.0412 14.6264C80.9504 14.5395 80.8797 14.4344 80.834 14.3183C80.7882 14.2022 80.7685 14.0778 80.7762 13.9535C80.7691 13.8398 80.7877 13.7259 80.8308 13.6201C80.874 13.5143 80.9405 13.4192 81.0256 13.3417C81.2223 13.194 81.4521 13.0944 81.6958 13.0512C82.0023 12.9923 82.3136 12.9616 82.6259 12.9594H83.665L83.6598 13.2551ZM86.3407 11.3178C86.368 10.7729 86.2089 10.2345 85.8887 9.78845C85.6002 9.40378 85.225 9.08973 84.7924 8.87081C84.3678 8.64874 83.9102 8.49389 83.4364 8.412C83.032 8.33685 82.6217 8.29592 82.2102 8.28964C81.8618 8.29093 81.5141 8.32163 81.1711 8.38141C80.8126 8.44258 80.4853 8.50886 80.1943 8.58533C79.9034 8.6618 79.6748 8.72297 79.4566 8.78415C79.352 8.81293 79.2496 8.8487 79.15 8.89121V10.808C79.2838 10.7452 79.4208 10.689 79.5605 10.6398C79.8047 10.548 80.08 10.4563 80.4281 10.3594C80.7839 10.2654 81.1447 10.1905 81.5088 10.1351C81.8532 10.0832 82.2036 10.0832 82.5479 10.1351C82.8464 10.1768 83.1261 10.3025 83.3532 10.4971C83.468 10.6151 83.556 10.7556 83.6115 10.9093C83.667 11.0631 83.6888 11.2266 83.6754 11.3892V11.4351C83.2961 11.4351 82.896 11.3994 82.47 11.3943C82.0483 11.389 81.6266 11.4094 81.2075 11.4555C80.8042 11.5053 80.4072 11.5959 80.0229 11.7257C79.6621 11.8361 79.3243 12.0087 79.0253 12.2355C78.731 12.4647 78.4976 12.7603 78.3447 13.097C78.1717 13.5085 78.0937 13.9525 78.1161 14.397C78.1042 14.7533 78.1923 15.106 78.3707 15.4166C78.5344 15.7055 78.7659 15.9519 79.0461 16.1354C79.3469 16.3352 79.681 16.4819 80.0333 16.5688C80.4159 16.6706 80.811 16.7203 81.2075 16.7166C81.7216 16.7302 82.2309 16.6162 82.6882 16.3852C83.1408 16.1235 83.5237 15.7601 83.8053 15.3249L84.091 16.5484H86.3459L86.3407 11.3178ZM72.7854 8.52925C72.4659 8.65012 72.1692 8.82241 71.9074 9.03905C71.7251 9.18228 71.5688 9.35463 71.445 9.54884L71.2735 9.83943C71.2735 9.87002 71.2268 9.80884 71.1436 9.6559C71.0252 9.46821 70.882 9.29678 70.7176 9.1461C70.4815 8.92029 70.2117 8.73118 69.9175 8.58533C69.5203 8.3947 69.0812 8.30362 68.6394 8.32023C68.1388 8.30275 67.6404 8.39324 67.1794 8.58533C66.8459 8.73045 66.5402 8.93045 66.2754 9.17669C66.0312 9.41975 65.8294 9.70047 65.6779 10.0077L65.3921 8.53435H63.0593V16.5637H65.9117V12.8523C65.9117 12.6229 65.9117 12.3833 65.9532 12.1233C65.9756 11.8759 66.0369 11.6334 66.1351 11.4045C66.2279 11.1875 66.3765 10.9978 66.5663 10.8539C66.8003 10.6991 67.0795 10.6238 67.3612 10.6398C67.5565 10.6259 67.7517 10.6664 67.9245 10.7566C68.0973 10.8467 68.2407 10.983 68.338 11.1496C68.5644 11.5346 68.6743 11.9749 68.6549 12.419V16.5637H71.4606V12.8676C71.4597 12.624 71.4736 12.3806 71.5021 12.1386C71.5304 11.8894 71.6007 11.6465 71.7099 11.4198C71.8162 11.2036 71.9728 11.015 72.1672 10.8692C72.4057 10.7159 72.6877 10.641 72.9725 10.6551C73.1677 10.6412 73.3629 10.6817 73.5357 10.7718C73.7085 10.862 73.8519 10.9983 73.9492 11.1649C74.1756 11.5499 74.2855 11.9902 74.2662 12.4343V16.5637H77.0562V11.8633C77.0562 11.4895 77.0406 11.0969 77.0094 10.6857C76.9836 10.2879 76.8758 9.89945 76.6925 9.54375C76.5079 9.18018 76.2213 8.87596 75.8664 8.66689C75.3476 8.40912 74.7689 8.28958 74.1882 8.32023C73.7155 8.30705 73.2445 8.3832 72.801 8.54454M60.9135 5.15949C60.7869 5.03144 60.6349 4.93012 60.467 4.86174C60.299 4.79336 60.1186 4.75937 59.9368 4.76184C59.746 4.76034 59.5569 4.79676 59.3808 4.8689C59.2136 4.93844 59.0606 5.03686 58.9288 5.15949C58.8025 5.2799 58.7019 5.42373 58.6327 5.58262C58.5578 5.74256 58.5188 5.91641 58.5184 6.09242C58.5163 6.27575 58.5515 6.45765 58.6221 6.62743C58.6926 6.79721 58.797 6.95145 58.9291 7.0811C59.0613 7.21074 59.2185 7.31318 59.3915 7.3824C59.5645 7.45161 59.7499 7.48621 59.9368 7.48416C60.1154 7.48242 60.292 7.44603 60.4563 7.37711C60.7877 7.23239 61.0512 6.97019 61.1941 6.643C61.2696 6.47745 61.312 6.29917 61.3188 6.11791C61.322 5.94044 61.2872 5.76428 61.2164 5.60091C61.1457 5.43754 61.0407 5.29061 60.9083 5.16968M61.3344 8.52925H58.4976V16.5637H61.3188L61.3344 8.52925ZM51.894 14.5449C51.6836 14.4883 51.4909 14.3815 51.3329 14.2339C51.1493 14.0592 51.0104 13.8443 50.9276 13.6068C50.8148 13.2786 50.762 12.9335 50.7718 12.5872C50.7616 12.2326 50.8143 11.879 50.9276 11.5422C51.0145 11.2995 51.1547 11.0785 51.3381 10.8947C51.495 10.7413 51.6875 10.6275 51.8992 10.5633C52.0908 10.5039 52.2905 10.4729 52.4915 10.4716C52.6891 10.4733 52.8852 10.5043 53.0734 10.5633C53.2708 10.6321 53.4488 10.7457 53.593 10.8947C53.7748 11.0788 53.9131 11.2998 53.9982 11.5422C54.1115 11.879 54.1643 12.2326 54.1541 12.5872C54.1638 12.9335 54.111 13.2786 53.9982 13.6068C53.9158 13.8445 53.7769 14.0594 53.593 14.2339C53.4477 14.3769 53.2695 14.4836 53.0734 14.5449C52.8844 14.5999 52.6886 14.6291 52.4915 14.6315C52.2909 14.6295 52.0916 14.6003 51.8992 14.5449M52.2941 8.51905C52.0019 8.64004 51.7233 8.79038 51.4628 8.96768C51.1983 9.14753 50.965 9.36784 50.7718 9.62022V6.67868H47.9298V16.5637H50.2938L50.7042 15.4982C50.9025 15.7304 51.1294 15.9376 51.3796 16.115C51.6376 16.2867 51.9148 16.4286 52.2057 16.5382C52.5808 16.6762 52.9795 16.7419 53.3799 16.7319C53.9422 16.7433 54.4999 16.6301 55.0113 16.4005C55.4636 16.1918 55.8643 15.8891 56.1855 15.5135C56.5099 15.1272 56.7535 14.682 56.9025 14.2033C57.0704 13.691 57.1546 13.1559 57.1519 12.6178C57.1536 12.0731 57.0695 11.5314 56.9025 11.012C56.7505 10.5143 56.5076 10.0479 56.1855 9.63551C55.8744 9.22916 55.4728 8.89787 55.0113 8.66689C54.5054 8.41912 53.9453 8.2966 53.3799 8.31004C53.0063 8.30368 52.6352 8.3713 52.2889 8.50886M40.3962 12.5108C40.4585 12.2865 40.5209 12.0774 40.578 11.8939C40.6352 11.7104 40.6975 11.4963 40.7755 11.2567C40.8534 11.0171 40.9261 10.7775 41.0093 10.5328C41.2015 9.95668 41.4041 9.29395 41.6223 8.54964C41.7003 8.74846 41.7782 8.97787 41.8613 9.24806C41.9445 9.51826 42.0276 9.79865 42.1055 10.0892C42.1835 10.3798 42.2614 10.6806 42.3341 10.9712C42.4069 11.2618 42.4692 11.5269 42.5212 11.7512C42.5731 11.9755 42.6355 12.2304 42.6978 12.5108H40.3962ZM44.2565 16.5892H47.3323L43.4824 6.44927H39.7311L36.0942 16.5637H38.9466L39.8299 14.4123H43.3732L44.2565 16.5892Z" fill="#7D7D7D"/>
</g>
</svg>
