<svg width="183" height="61" viewBox="0 0 183 61" fill="none" xmlns="http://www.w3.org/2000/svg">
<path d="M34.1324 45.976V39.2511L39.9535 35.8984L45.7747 39.2705V45.9857L39.9535 49.3384L34.1324 45.976ZM20.2586 45.976V39.2511L26.0797 35.8887L31.9009 39.2608V45.9857L26.0797 49.3384L20.2586 45.976ZM13.3217 34.0131V27.2105L19.1428 23.8675L24.964 27.2493V34.0131L19.1428 37.3755L13.3217 34.0131ZM27.1858 34.0131V27.2105L33.0069 23.8675L38.8281 27.2493V34.0131L33.0069 37.3755L27.1858 34.0131ZM41.0401 34.0131V27.3077L46.8613 23.9452L52.6825 27.3174V34.0131L46.8613 37.3561L41.0401 34.0131ZM20.2392 21.9627V15.2573L26.0603 11.9046L31.8815 15.2767V22.0016L26.0603 25.3446L20.2392 21.9627ZM34.113 21.9627V15.2573L39.9341 11.9046L45.7553 15.2767V21.9919L39.9341 25.3446L34.113 21.9627ZM33.0069 13.3623L26.07 9.34875L18.0465 13.9842V21.9822L11.1484 25.9666V35.2473L18.095 39.2802V47.249L26.1088 51.8942L33.0069 47.8904L39.9244 51.8942L47.9576 47.2685V39.2511L54.8654 35.2667V25.986L47.9576 21.9627V14.0037L39.9535 9.34875L33.0069 13.3623Z" fill="white"/>
<path d="M19.8324 30.1745L19.5898 38.221L25.8476 34.6837L25.7312 26.9481L19.8324 30.1745Z" fill="#F0E5C4"/>
<path d="M32.1148 30.1745L32.3573 38.221L26.0898 34.6837L26.216 26.9481L32.1148 30.1745Z" fill="#E1C782"/>
<path d="M27.379 35.2375L19.957 38.2793L25.72 42.5747L32.7248 39.3191L27.379 35.2375Z" fill="#C39E3A"/>
<path d="M31.9111 31.224V36.6855L27.1862 33.945V28.4932L31.9111 31.224ZM20.2687 31.224L24.9936 28.4835V34.0131L20.2784 36.7633L20.2687 31.224ZM21.3651 38.5902L26.0705 35.8498L30.7954 38.5708L26.0705 41.3113L21.3651 38.5902ZM34.0843 29.9412L26.0899 25.2668L18.0664 29.9509V39.2316L19.1627 39.873L26.0705 43.8574L34.094 39.2122L34.0843 29.9412Z" fill="white"/>
<path d="M46.2007 30.9616L46.4432 22.9248L40.1758 26.4524L40.3019 34.188L46.2007 30.9616Z" fill="#F0E5C4"/>
<path d="M33.9183 30.9616L33.6758 22.9248L39.9335 26.4524L39.8171 34.188L33.9183 30.9616Z" fill="#E1C782"/>
<path d="M38.6446 25.8985L46.0763 22.8568L40.3036 18.5614L33.2988 21.8169L38.6446 25.8985Z" fill="#C39E3A"/>
<path d="M34.1222 29.9121V24.4506L38.8276 27.2105V32.6623L34.1222 29.9121ZM45.7645 29.9121L41.0397 32.6526V27.2105L45.7548 24.4603L45.7645 29.9121ZM44.6488 22.5459L39.924 25.2669L35.1991 22.5459L39.924 19.8054L44.6488 22.5459ZM31.9102 31.1949L39.9434 35.8304L47.9669 31.1852V21.9045L46.8609 21.2631L39.9434 17.2787L31.9199 21.9239L31.9102 31.1949Z" fill="white"/>
<mask id="mask0_811_1025832" style="mask-type:luminance" maskUnits="userSpaceOnUse" x="11" y="9" width="164" height="43">
<path d="M174.704 9.07666H11.1094V51.8942H174.704V9.07666Z" fill="white"/>
</mask>
<g mask="url(#mask0_811_1025832)">
<path d="M146.956 39.2025C146.401 39.3358 145.875 39.5697 145.404 39.8924C144.953 40.1946 144.578 40.597 144.308 41.0683C144.017 41.5866 143.872 42.1746 143.89 42.769C143.865 43.3333 144.011 43.8921 144.308 44.3724C144.579 44.7649 144.929 45.0959 145.336 45.3442C145.757 45.6064 146.21 45.8123 146.685 45.9565C147.17 46.112 147.655 46.2675 148.033 46.4327C148.404 46.5652 148.754 46.7518 149.071 46.9866C149.201 47.0871 149.306 47.2169 149.377 47.3655C149.448 47.5141 149.483 47.6772 149.479 47.8418C149.486 47.9536 149.464 48.0654 149.414 48.166C149.365 48.2667 149.29 48.3525 149.197 48.4151C148.974 48.5426 148.726 48.619 148.47 48.6387C148.148 48.685 147.821 48.685 147.5 48.6387C147.136 48.5758 146.779 48.4815 146.432 48.3568C146.097 48.2426 145.773 48.0995 145.462 47.9292C145.203 47.7883 144.967 47.608 144.764 47.3948L143.347 49.8243C144.065 50.45 144.919 50.8993 145.84 51.1362C146.73 51.3755 147.646 51.4996 148.567 51.5055C149.192 51.507 149.815 51.4287 150.42 51.2722C150.975 51.138 151.501 50.9043 151.972 50.5823C152.414 50.2788 152.78 49.8762 153.039 49.4064C153.315 48.8723 153.451 48.2775 153.437 47.6766C153.457 47.0949 153.324 46.5181 153.049 46.0051C152.805 45.5677 152.475 45.1843 152.079 44.8778C151.672 44.5615 151.221 44.3061 150.74 44.1198C150.277 43.9259 149.804 43.7572 149.323 43.6144C148.867 43.459 148.46 43.3035 148.101 43.1577C147.742 43.0119 147.558 42.8078 147.558 42.5843C147.545 42.4589 147.564 42.3323 147.611 42.2155C147.658 42.0987 147.733 41.9951 147.829 41.9138C148.027 41.7724 148.257 41.6853 148.499 41.6611C148.823 41.6318 149.149 41.6482 149.469 41.7097C149.797 41.7693 150.121 41.8505 150.439 41.9527C150.733 42.043 151.021 42.1501 151.303 42.2734L151.875 42.5552L153.272 40.2617C152.581 39.8279 151.829 39.5003 151.041 39.2899C150.309 39.0957 149.556 38.9944 148.8 38.9887C148.198 38.9899 147.598 39.065 147.014 39.2122M143.056 39.0178C142.255 38.9916 141.458 39.1236 140.708 39.4065C140.18 39.6196 139.684 39.904 139.233 40.252C138.831 40.5979 138.501 41.0208 138.263 41.4959L137.642 39.3094H134.509V51.2236H138.583V46.1606C138.594 45.7374 138.653 45.3169 138.758 44.9069C138.873 44.4131 139.091 43.9493 139.398 43.5464C139.728 43.1071 140.176 42.7702 140.689 42.5746C141.391 42.3616 142.14 42.3616 142.843 42.5746L143.056 39.0178ZM124.564 44.0809C124.567 43.8016 124.606 43.5239 124.681 43.2549C124.75 42.9693 124.872 42.699 125.04 42.458C125.219 42.2032 125.454 41.9936 125.728 41.8458C126.065 41.6859 126.433 41.6029 126.805 41.6029C127.178 41.6029 127.546 41.6859 127.882 41.8458C128.16 41.9959 128.402 42.2048 128.59 42.458C128.771 42.6953 128.903 42.9661 128.978 43.2549C129.053 43.5239 129.092 43.8016 129.095 44.0809H124.564ZM129.26 51.3403C129.751 51.2431 130.198 51.1362 130.599 51.0196C131 50.903 131.323 50.7961 131.569 50.6989C131.698 50.6621 131.819 50.6029 131.928 50.524V47.7154C131.602 47.9165 131.258 48.0857 130.899 48.2208C130.498 48.3628 130.086 48.4732 129.667 48.5512C129.144 48.6611 128.611 48.7132 128.076 48.7067C127.535 48.7186 126.996 48.633 126.485 48.454C126.101 48.3108 125.743 48.1038 125.428 47.8418C125.172 47.6355 124.964 47.3771 124.816 47.0838C124.704 46.8758 124.631 46.6482 124.603 46.4132H132.84V45.2665C132.839 44.5185 132.741 43.7737 132.549 43.0508C132.357 42.3211 132.028 41.6349 131.579 41.0295C131.056 40.3941 130.391 39.8914 129.638 39.562C127.766 38.8359 125.69 38.8359 123.817 39.562C123.069 39.9001 122.406 40.4015 121.877 41.0295C121.389 41.6263 121.023 42.313 120.8 43.0508C120.581 43.769 120.47 44.5157 120.47 45.2665C120.472 46.0172 120.583 46.7637 120.8 47.4822C121.035 48.2128 121.437 48.8784 121.974 49.4258C122.608 50.0663 123.377 50.5575 124.225 50.8641C125.375 51.2749 126.593 51.4661 127.814 51.4277C128.332 51.4283 128.848 51.3795 129.357 51.282M119.946 39.2511H115.279C114.979 39.6786 114.717 40.0576 114.503 40.3881C114.29 40.7185 114.047 41.0683 113.795 41.4473L113.067 42.4969L112.281 43.7311H111.437V36.2287H107.382V51.2236H111.437V47.2587H112.301L115.279 51.2236H119.839C119.509 50.7961 119.186 50.3393 118.869 49.8534C118.51 49.3578 118.141 48.8816 117.763 48.3568C117.385 47.8321 117.026 47.385 116.657 46.87C116.288 46.3549 115.949 45.8982 115.629 45.4706L119.946 39.2511ZM96.865 47.8807C96.3365 47.1358 96.0953 46.2244 96.1859 45.3151C96.0972 44.3785 96.3374 43.4403 96.865 42.6621C97.1093 42.3941 97.4103 42.1842 97.7461 42.048C98.0819 41.9118 98.4438 41.8526 98.8054 41.8749C99.1755 41.8547 99.5455 41.9145 99.8904 42.0504C100.235 42.1862 100.547 42.3948 100.804 42.6621C101.358 43.4293 101.613 44.3727 101.522 45.3151C101.615 46.2319 101.354 47.1496 100.794 47.8807C100.269 48.3709 99.5715 48.6329 98.8539 48.6095C98.4974 48.6326 98.1401 48.5795 97.8056 48.4539C97.4711 48.3282 97.167 48.1328 96.9136 47.8807M97.4083 39.1344C96.322 39.2977 95.2851 39.6992 94.3716 40.3103C93.8883 40.6325 93.462 41.0332 93.1104 41.4959C92.736 41.9911 92.4414 42.542 92.2372 43.1285C92.0089 43.8345 91.8975 44.5731 91.9073 45.3151C91.8672 46.3742 92.1118 47.4247 92.6156 48.3568C93.0349 49.1067 93.6188 49.7513 94.3231 50.2421C95.0084 50.7001 95.7711 51.0294 96.574 51.2139C97.3119 51.388 98.0668 51.4793 98.8248 51.486C99.586 51.4782 100.344 51.387 101.085 51.2139C101.903 51.0293 102.682 50.7002 103.385 50.2421C104.115 49.7606 104.723 49.1151 105.16 48.3568C105.668 47.4263 105.913 46.3747 105.868 45.3151C105.924 44.3352 105.725 43.3577 105.289 42.4785C104.854 41.5993 104.198 40.8487 103.385 40.3006C102.685 39.8372 101.905 39.5077 101.085 39.3288C100.344 39.1529 99.5863 39.0584 98.8248 39.047C98.3338 39.0478 97.8438 39.09 97.3598 39.1733M91.5387 39.047C90.158 38.9859 88.8013 39.424 87.7161 40.2812C87.3133 40.627 86.9835 41.0499 86.7459 41.5251L86.125 39.3385H82.9816V51.2236H87.0564V46.1606C87.0683 45.7381 87.1236 45.3181 87.2213 44.9069C87.3354 44.4111 87.5574 43.9465 87.8713 43.5464C88.1979 43.1036 88.6463 42.7658 89.1617 42.5746C89.8638 42.361 90.6134 42.361 91.3155 42.5746L91.5387 39.047ZM72.7848 48.2208V44.9652H74.405H75.3752C75.6547 44.9779 75.9301 45.037 76.1902 45.1402C76.4239 45.2343 76.6212 45.4013 76.7529 45.6164C76.9042 45.8889 76.9749 46.1991 76.9566 46.5104C76.9734 46.8267 76.9065 47.1418 76.7626 47.4239C76.6453 47.6457 76.4623 47.8256 76.2387 47.939C75.9994 48.0591 75.7391 48.1316 75.4722 48.1528C75.1686 48.1729 74.8639 48.1729 74.5603 48.1528L72.7848 48.2208ZM81.2158 46.6465C81.2528 46.0242 81.0632 45.4096 80.6822 44.9167C80.356 44.5172 79.9536 44.1869 79.4985 43.9449C78.9567 43.6895 78.3765 43.5254 77.7813 43.459C78.305 43.3965 78.812 43.2349 79.2754 42.9828C79.6761 42.751 80.0285 42.4441 80.3135 42.079C80.65 41.6002 80.8141 41.0211 80.7792 40.4367C80.791 39.7391 80.6346 39.049 80.3232 38.425C80.0473 37.8991 79.6436 37.4512 79.1493 37.1228C78.6238 36.7854 78.0422 36.5451 77.432 36.4134C76.7503 36.2624 76.054 36.1874 75.3558 36.1899H68.5645V51.2236H75.1133C75.8723 51.2239 76.6295 51.149 77.3738 51.0001C78.0607 50.8607 78.7176 50.6008 79.3142 50.2324C79.8799 49.8815 80.3552 49.4021 80.7016 48.833C81.0676 48.1957 81.249 47.4688 81.2255 46.7339L81.2158 46.6465ZM72.7848 39.2996H74.6282C74.8715 39.3003 75.1145 39.3166 75.3558 39.3482C75.5701 39.3731 75.7777 39.4391 75.967 39.5426C76.1426 39.6441 76.2869 39.7921 76.3842 39.9702C76.5019 40.1945 76.5588 40.4458 76.5492 40.699C76.5591 40.9461 76.5021 41.1912 76.3842 41.4085C76.2853 41.5848 76.1456 41.7348 75.9767 41.8458C75.8017 41.9557 75.6075 42.0316 75.4043 42.0693C75.1834 42.1088 74.9593 42.1283 74.7349 42.1276H72.7848V39.2996Z" fill="#7D7D7D"/>
<path d="M174.704 15.8598C173.675 15.8261 172.649 15.9979 171.687 16.3652C171.006 16.6443 170.372 17.0243 169.804 17.4925C169.293 17.9372 168.874 18.4789 168.572 19.0862L167.777 16.2777H163.741V31.5739H168.98V25.0531C168.997 24.5121 169.071 23.9745 169.203 23.4496C169.349 22.8139 169.63 22.2173 170.028 21.7004C170.461 21.1488 171.039 20.7284 171.696 20.4856C172.599 20.2169 173.559 20.2169 174.461 20.4856L174.704 15.8598ZM156.222 25.2669C156.223 25.685 156.127 26.0977 155.94 26.4719C155.748 26.8441 155.485 27.1744 155.164 27.4437C154.81 27.7353 154.406 27.9593 153.971 28.1045C153.482 28.2637 152.971 28.3425 152.457 28.3378C152.037 28.3384 151.633 28.1745 151.332 27.881C151.162 27.7153 151.03 27.515 150.945 27.2937C150.86 27.0723 150.823 26.8351 150.837 26.5982C150.824 26.3815 150.859 26.1644 150.939 25.9627C151.02 25.7611 151.144 25.5798 151.303 25.4321C151.67 25.1504 152.099 24.9606 152.554 24.8782C153.127 24.766 153.708 24.7074 154.291 24.7032H156.231L156.222 25.2669ZM161.228 21.574C161.279 20.5351 160.982 19.509 160.384 18.6586C159.845 17.9254 159.145 17.3267 158.337 16.9094C157.544 16.4861 156.689 16.1909 155.805 16.0348C155.049 15.8915 154.283 15.8135 153.515 15.8015C152.864 15.804 152.215 15.8625 151.575 15.9764C150.905 16.0931 150.294 16.2194 149.751 16.3652C149.207 16.5109 148.78 16.6276 148.373 16.7442C148.178 16.799 147.986 16.8672 147.8 16.9483V20.6022C148.05 20.4824 148.306 20.3754 148.567 20.2815C149.023 20.1066 149.537 19.9317 150.187 19.747C150.852 19.5678 151.525 19.4251 152.205 19.3194C152.848 19.2206 153.503 19.2206 154.146 19.3194C154.703 19.3989 155.225 19.6386 155.649 20.0094C155.864 20.2344 156.028 20.5022 156.132 20.7953C156.235 21.0884 156.276 21.4002 156.251 21.7101V21.7975C155.543 21.7975 154.796 21.7295 154 21.7198C153.213 21.7097 152.425 21.7486 151.642 21.8364C150.889 21.9314 150.148 22.104 149.43 22.3515C148.757 22.562 148.126 22.891 147.568 23.3233C147.018 23.7602 146.582 24.3236 146.297 24.9656C145.974 25.75 145.828 26.5963 145.87 27.4437C145.848 28.123 146.012 28.7952 146.345 29.3873C146.651 29.938 147.083 30.4077 147.606 30.7576C148.168 31.1384 148.792 31.4179 149.45 31.5836C150.164 31.7777 150.902 31.8725 151.642 31.8654C152.603 31.8913 153.554 31.6741 154.407 31.2337C155.253 30.7348 155.968 30.042 156.493 29.2124L157.027 31.5447H161.238L161.228 21.574ZM135.916 16.2583C135.319 16.4887 134.765 16.8171 134.276 17.2301C133.936 17.5031 133.644 17.8317 133.412 18.2019L133.092 18.7558C133.092 18.8141 133.005 18.6975 132.85 18.406C132.629 18.0482 132.361 17.7214 132.054 17.4342C131.613 17.0037 131.11 16.6432 130.56 16.3652C129.818 16.0018 128.998 15.8282 128.173 15.8598C127.239 15.8265 126.308 15.999 125.447 16.3652C124.824 16.6418 124.253 17.0231 123.759 17.4925C123.303 17.9558 122.926 18.4909 122.643 19.0765L122.11 16.268H117.754V31.5739H123.08V24.4991C123.08 24.0618 123.08 23.6051 123.158 23.1095C123.199 22.6379 123.314 22.1756 123.497 21.7392C123.67 21.3255 123.948 20.9639 124.302 20.6897C124.739 20.3945 125.261 20.2511 125.787 20.2815C126.151 20.255 126.516 20.3321 126.839 20.5041C127.161 20.676 127.429 20.9357 127.611 21.2533C128.033 21.9873 128.239 22.8266 128.203 23.6731V31.5739H133.442V24.5283C133.44 24.0639 133.466 23.5999 133.519 23.1386C133.572 22.6635 133.703 22.2005 133.907 21.7684C134.106 21.3563 134.398 20.9967 134.761 20.7188C135.206 20.4266 135.733 20.2837 136.265 20.3107C136.629 20.2842 136.994 20.3613 137.317 20.5332C137.639 20.7052 137.907 20.9649 138.089 21.2825C138.512 22.0164 138.717 22.8557 138.681 23.7023V31.5739H143.891V22.6139C143.891 21.9012 143.861 21.1529 143.803 20.369C143.755 19.6108 143.554 18.8702 143.211 18.1922C142.867 17.4991 142.332 16.9192 141.669 16.5207C140.7 16.0293 139.619 15.8014 138.535 15.8598C137.652 15.8347 136.773 15.9799 135.945 16.2874M113.747 9.83466C113.51 9.59057 113.226 9.39743 112.913 9.26708C112.599 9.13674 112.262 9.07194 111.923 9.07666C111.566 9.0738 111.213 9.14322 110.885 9.28073C110.572 9.41329 110.286 9.60091 110.04 9.83466C109.805 10.0642 109.617 10.3384 109.487 10.6413C109.348 10.9461 109.275 11.2775 109.274 11.6131C109.27 11.9625 109.336 12.3093 109.468 12.6329C109.599 12.9566 109.794 13.2506 110.041 13.4977C110.288 13.7449 110.581 13.9401 110.904 14.0721C111.228 14.204 111.574 14.27 111.923 14.2661C112.256 14.2627 112.586 14.1934 112.893 14.062C113.512 13.7861 114.004 13.2863 114.271 12.6626C114.412 12.347 114.491 12.0072 114.503 11.6616C114.509 11.3233 114.444 10.9876 114.312 10.6761C114.18 10.3647 113.984 10.0846 113.737 9.8541M114.532 16.2583H109.235V31.5739H114.503L114.532 16.2583ZM96.904 27.7255C96.5112 27.6177 96.1512 27.414 95.8562 27.1327C95.5133 26.7997 95.254 26.3901 95.0995 25.9374C94.8888 25.3118 94.7902 24.6538 94.8084 23.9938C94.7894 23.3179 94.8878 22.6438 95.0995 22.0016C95.2618 21.539 95.5234 21.1177 95.8659 20.7674C96.1589 20.4749 96.5185 20.2581 96.9137 20.1358C97.2716 20.0224 97.6444 19.9634 98.0198 19.9608C98.3887 19.9642 98.755 20.0232 99.1064 20.1358C99.4749 20.2669 99.8073 20.4833 100.077 20.7674C100.416 21.1183 100.674 21.5396 100.833 22.0016C101.045 22.6438 101.143 23.3179 101.124 23.9938C101.143 24.6538 101.044 25.3118 100.833 25.9374C100.679 26.3904 100.42 26.8001 100.077 27.1327C99.8053 27.4054 99.4725 27.6087 99.1064 27.7255C98.7535 27.8305 98.3878 27.886 98.0198 27.8907C97.6453 27.8868 97.2731 27.8313 96.9137 27.7255M97.6511 16.2388C97.1056 16.4695 96.5853 16.756 96.0988 17.094C95.605 17.4369 95.1693 17.8568 94.8084 18.3379V12.7306H89.5014V31.5739H93.9158L94.6823 29.5428C95.0526 29.9855 95.4762 30.3804 95.9435 30.7187C96.4252 31.0458 96.9428 31.3165 97.4861 31.5253C98.1865 31.7883 98.931 31.9137 99.6788 31.8946C100.729 31.9164 101.77 31.7005 102.725 31.2629C103.57 30.865 104.318 30.288 104.918 29.572C105.523 28.8355 105.978 27.9869 106.257 27.0744C106.57 26.0979 106.727 25.0779 106.722 24.0521C106.726 23.0138 106.568 21.9812 106.257 20.9909C105.973 20.0423 105.519 19.1532 104.918 18.3671C104.337 17.5925 103.587 16.961 102.725 16.5207C101.78 16.0483 100.734 15.8148 99.6788 15.8404C98.9811 15.8283 98.2882 15.9572 97.6414 16.2194M75.4336 23.848C75.55 23.4205 75.6665 23.022 75.7732 22.6722C75.8799 22.3223 75.9963 21.9142 76.1419 21.4574C76.2874 21.0007 76.4232 20.5439 76.5784 20.0775C76.9374 18.9793 77.3158 17.716 77.7233 16.2971C77.8688 16.6761 78.0143 17.1135 78.1696 17.6285C78.3248 18.1436 78.48 18.6781 78.6255 19.232C78.7711 19.7859 78.9166 20.3593 79.0524 20.9132C79.1883 21.4671 79.3047 21.9725 79.4017 22.4001C79.4987 22.8277 79.6152 23.3136 79.7316 23.848H75.4336ZM82.6422 31.6225H88.3857L81.1966 12.2933H74.1918L67.4004 31.5739H72.7268L74.3761 27.4729H80.9928L82.6422 31.6225Z" fill="#7D7D7D"/>
</g>
</svg>
