<svg width="63" height="58" viewBox="0 0 63 58" fill="none" xmlns="http://www.w3.org/2000/svg">
<path d="M41.8154 11.3795C43.7516 11.3795 45.3213 10.0255 45.3213 8.35528C45.3213 6.68504 43.7516 5.33105 41.8154 5.33105C39.8792 5.33105 38.3096 6.68504 38.3096 8.35528C38.3096 10.0255 39.8792 11.3795 41.8154 11.3795Z" fill="#2776EA"/>
<path d="M41.2416 22.651C43.3538 22.651 45.0661 21.174 45.0661 19.3519C45.0661 17.5298 43.3538 16.0527 41.2416 16.0527C39.1293 16.0527 37.417 17.5298 37.417 19.3519C37.417 21.174 39.1293 22.651 41.2416 22.651Z" fill="#2776EA"/>
<path d="M47.7438 16.6041C49.504 16.6041 50.9309 15.3732 50.9309 13.8548C50.9309 12.3364 49.504 11.1055 47.7438 11.1055C45.9836 11.1055 44.5566 12.3364 44.5566 13.8548C44.5566 15.3732 45.9836 16.6041 47.7438 16.6041Z" fill="#2776EA"/>
<path d="M17.2745 27.4893C19.3515 27.4893 21.0353 26.0368 21.0353 24.2451C21.0353 22.4534 19.3515 21.001 17.2745 21.001C15.1974 21.001 13.5137 22.4534 13.5137 24.2451C13.5137 26.0368 15.1974 27.4893 17.2745 27.4893Z" fill="#2776EA"/>
<path d="M21.6083 52.5634C23.791 52.5634 25.5603 51.037 25.5603 49.1542C25.5603 47.2714 23.791 45.7451 21.6083 45.7451C19.4256 45.7451 17.6562 47.2714 17.6562 49.1542C17.6562 51.037 19.4256 52.5634 21.6083 52.5634Z" fill="#2776EA"/>
<path d="M13.1936 45.3059C15.165 45.3059 16.7632 43.9273 16.7632 42.2267C16.7632 40.5261 15.165 39.1475 13.1936 39.1475C11.2222 39.1475 9.62402 40.5261 9.62402 42.2267C9.62402 43.9273 11.2222 45.3059 13.1936 45.3059Z" fill="#2776EA"/>
<path d="M3.50585 39.0377C5.44207 39.0377 7.0117 37.6837 7.0117 36.0135C7.0117 34.3432 5.44207 32.9893 3.50585 32.9893C1.56962 32.9893 0 34.3432 0 36.0135C0 37.6837 1.56962 39.0377 3.50585 39.0377Z" fill="#2776EA"/>
<path d="M3.50603 27.1062C5.33664 27.1062 6.82065 25.8261 6.82065 24.247C6.82065 22.6678 5.33664 21.3877 3.50603 21.3877C1.67541 21.3877 0.191406 22.6678 0.191406 24.247C0.191406 25.8261 1.67541 27.1062 3.50603 27.1062Z" fill="#2776EA"/>
<path d="M17.72 19.133C19.6914 19.133 21.2896 17.7544 21.2896 16.0538C21.2896 14.3532 19.6914 12.9746 17.72 12.9746C15.7486 12.9746 14.1504 14.3532 14.1504 16.0538C14.1504 17.7544 15.7486 19.133 17.72 19.133Z" fill="#2776EA"/>
<path d="M3.95205 6.37613C5.74746 6.37613 7.20293 5.12062 7.20293 3.57186C7.20293 2.0231 5.74746 0.767578 3.95205 0.767578C2.15664 0.767578 0.701172 2.0231 0.701172 3.57186C0.701172 5.12062 2.15664 6.37613 3.95205 6.37613Z" fill="#2776EA"/>
<path d="M61.9585 38.5425C60.7474 35.6283 59.4725 32.714 58.2614 29.9098C58.7076 28.755 59.4725 27.7103 59.4725 26.7206C59.345 23.4214 59.4725 19.9573 58.5164 16.8231C55.0743 5.33108 42.1345 -1.26722 26.39 0.822245C26.39 3.46157 26.39 6.15587 26.39 8.74021C27.9199 10.1149 29.386 11.4345 30.7883 12.6992C33.2743 12.6992 35.6327 12.6992 37.8637 12.6992C38.5649 12.1493 39.1386 11.7094 39.6485 11.2696C43.5368 11.4345 45.0667 10.5547 45.0667 8.3553C45.0667 6.59576 43.4731 5.22111 41.4971 5.2761C39.0748 5.33108 37.8637 7.03564 38.2462 10.1149C36.3339 11.8744 33.8479 10.8847 32.2544 10.9946C30.5333 9.78494 29.2585 8.96015 28.3023 8.24533C28.3023 6.0459 28.3023 4.23137 28.3023 2.41683C40.7322 0.712274 52.1421 6.92567 54.1819 12.8641C53.2257 12.8641 52.2696 12.8641 51.4409 12.8641C49.3374 10.6097 47.0427 10.1698 45.3854 11.5445C43.6006 12.9741 44.0468 14.9536 46.724 17.0431C46.724 19.5724 46.724 22.1018 46.724 25.016C43.8555 25.016 41.1146 25.016 38.055 25.016C38.055 27.1055 38.055 28.865 38.055 30.7345C37.0988 30.6796 36.5889 30.6246 35.824 30.5696C35.824 28.5901 35.824 26.7206 35.824 24.961C34.6129 24.0263 33.5292 23.2015 32.5093 22.3767C32.5093 20.3972 32.5093 18.4727 32.5093 16.4382C34.5491 16.4932 36.5889 15.7234 37.8 17.7029C37.4175 20.3972 38.3099 21.7718 40.4772 22.1018C42.7719 22.4317 43.983 21.4419 44.7479 18.9126C43.6006 16.2733 42.9631 15.9433 39.2661 16.1633C38.5012 15.6684 37.8637 15.1735 37.4813 14.8986C34.9316 14.8986 32.7006 14.8986 30.4058 14.8986C30.4058 17.8129 30.4058 20.3972 30.4058 23.0365C31.5532 23.9163 32.6368 24.8511 33.7205 25.6209C33.7205 27.3804 33.7205 28.975 33.7205 30.6246C31.9994 30.7345 30.5333 30.7895 29.6409 30.8445C26.39 33.5938 23.5216 35.9582 20.5895 38.3776C20.5895 40.7969 20.5895 43.2713 20.5895 45.8007C18.9321 46.7904 17.4661 47.8901 18.1035 49.8146C18.6134 51.3542 19.952 52.0141 21.6731 52.124C25.8164 50.8044 26.0713 48.7149 22.5655 45.7457C22.5655 43.5462 22.5655 41.2918 22.5655 39.5323C25.3702 37.0029 27.8561 34.8035 30.5971 32.3841C36.7164 32.3841 43.0906 32.3841 49.4649 32.3841C50.9947 29.3599 53.6082 26.8855 52.907 23.3664C54.5643 23.3664 55.9029 23.3664 57.5602 23.3664C57.369 24.961 57.5602 26.4456 56.9865 27.6553C56.0941 29.3049 56.3491 30.7345 57.0503 32.3291C58.3251 35.0234 59.4088 37.7727 60.6836 40.742C59.4088 40.742 58.5164 40.687 57.624 40.742C56.7953 40.687 56.0304 40.9069 55.0105 41.0719C55.3292 41.9516 55.5205 42.5565 55.7117 43.1613C55.9029 43.7112 56.0304 44.316 56.2216 44.9209C55.2017 45.3058 54.3731 45.6907 53.2257 46.1856C53.7994 47.1203 54.3093 48.0001 54.8193 48.8799C54.3093 49.3747 53.8631 49.8146 53.3532 50.3645C53.3532 50.9693 53.4169 51.5742 53.3532 52.179C53.162 54.8183 51.8234 55.9181 48.8275 55.5331C42.262 54.6534 36.3976 52.5089 31.7444 48.275C30.0871 46.7354 29.131 44.9209 29.2585 42.7764C29.2585 42.3365 29.386 41.7867 29.131 41.4018C28.876 41.0169 28.3023 40.7969 27.6012 40.3021C26.5175 45.1408 28.4298 48.44 32.1906 51.0793C36.3339 54.0485 41.1784 55.8631 46.4053 56.9078C47.6801 57.1827 49.0824 57.3477 50.421 57.3477C52.907 57.2927 54.8193 55.7531 55.138 53.6086C55.2655 52.7839 55.2655 51.9041 55.3292 50.6944C55.9029 50.3645 56.7316 49.8696 57.5602 49.4297C56.9865 48.44 56.6678 47.7801 56.2854 47.0653C57.0503 46.6254 57.8152 46.2405 58.5801 45.8007C58.2614 44.7009 58.0064 43.7662 57.6877 42.5565C58.3251 42.5015 58.7076 42.4465 59.0263 42.4465C62.7234 42.2816 63.2333 41.5118 61.9585 38.5425ZM41.8158 6.32083C43.1544 6.32083 44.1743 7.25559 44.1743 8.3553C44.1743 9.45502 43.0906 10.3898 41.8158 10.3898C40.5409 10.3898 39.4573 9.51001 39.4573 8.3553C39.4573 7.25559 40.5409 6.32083 41.8158 6.32083ZM40.9234 17.208C42.1345 17.208 43.0906 18.0328 43.0906 19.0775C43.0906 20.1223 42.1345 21.002 40.9234 21.002C39.7123 21.002 38.7561 20.1773 38.7561 19.1325C38.7561 18.0878 39.7123 17.208 40.9234 17.208ZM24.0316 49.3198C24.0316 50.4745 22.9479 51.4092 21.6093 51.4092C20.2707 51.4092 19.1871 50.4195 19.1871 49.3198C19.1871 48.22 20.2707 47.2303 21.6093 47.2303C22.9479 47.2303 24.0316 48.1651 24.0316 49.3198ZM46.0228 13.8539C46.0228 12.8641 46.9152 12.0943 48.0626 12.0943C49.2099 12.0943 50.1023 12.8641 50.1023 13.8539C50.1023 14.8436 49.2099 15.6134 48.0626 15.6134C46.9152 15.6134 46.0228 14.8436 46.0228 13.8539ZM50.9947 21.4969C51.1222 24.906 50.6123 28.0402 47.9988 30.6796C45.5766 30.6796 43.0269 30.6796 40.2222 30.6796C40.2222 29.4149 40.2222 28.2052 40.2222 26.6656C42.8994 26.6656 45.6403 26.6656 48.5725 26.6656C48.5725 23.2565 48.5725 20.1773 48.5725 17.373C49.8474 16.3832 50.8035 15.6134 52.0784 14.6237C52.8433 14.6237 54.1181 14.6237 55.5205 14.6237C56.7953 16.7132 57.2415 18.9126 57.369 21.4969C55.2017 21.4969 53.2257 21.4969 50.9947 21.4969Z" fill="#2776EA"/>
<path d="M14.2151 31.2845C13.1315 30.1848 12.1754 29.195 11.3467 28.3702C11.3467 21.7169 11.3467 15.3386 11.3467 8.63032C13.259 9.56507 14.7251 10.3349 16.1912 11.0497C16.1912 11.8195 16.1912 12.4243 16.1912 12.9192C13.5777 14.6788 13.1315 16.5483 14.8526 18.0879C16.1912 19.2976 18.5496 19.3526 19.8882 18.0879C21.6093 16.5483 21.1631 14.7337 18.5496 12.8092C18.4222 11.9845 18.3584 11.1597 18.2309 10.1149C15.5537 8.79527 12.8128 7.42063 9.3707 5.77105C9.30696 9.67505 9.24322 12.9742 9.17947 16.7682C7.39468 15.4486 6.18357 14.6238 5.0362 13.799C5.0362 11.3246 5.0362 9.01522 5.0362 6.65083C6.75725 5.6061 8.15959 4.45139 7.26719 2.41692C6.50228 0.822328 5.4824 0.437427 2.55023 0.712356C-0.318188 2.80182 -0.254445 4.23145 2.99643 6.87077C2.99643 9.34513 2.99643 11.9845 2.99643 14.6238C5.16368 16.1634 7.20345 17.648 9.24322 19.1326C9.24322 22.4867 9.24322 25.7309 9.24322 28.9201C10.3268 30.0198 11.283 31.0645 12.2391 32.0543C12.2391 34.4737 12.2391 36.7831 12.2391 39.0925C9.56193 41.2919 9.05199 43.1064 10.7093 44.5361C12.0479 45.6908 14.4701 45.6908 15.8087 44.4811C17.466 42.9415 17.0198 41.3469 14.1514 39.0925C14.2151 36.5081 14.2151 33.8688 14.2151 31.2845ZM19.5695 16.0534C19.5695 17.1531 18.5496 17.9779 17.3385 17.9779C16.1274 17.9779 15.0438 17.1531 15.0438 16.0534C15.0438 14.9537 16.0637 14.1289 17.2748 14.1289C18.4859 14.1289 19.5695 15.0087 19.5695 16.0534ZM1.65784 3.57162C1.65784 2.4719 2.67772 1.59213 3.95257 1.59213C5.22743 1.59213 6.24731 2.4719 6.24731 3.57162C6.24731 4.67134 5.16368 5.55111 3.95257 5.55111C2.74146 5.55111 1.65784 4.67134 1.65784 3.57162ZM15.3625 42.6665C15.3625 43.7113 14.4064 44.5361 13.1953 44.5361C11.9842 44.5361 11.028 43.7113 11.028 42.6665C11.028 41.6218 11.9842 40.797 13.1953 40.797C14.4064 40.742 15.3625 41.6218 15.3625 42.6665Z" fill="#2776EA"/>
<path d="M28.0472 28.4244C28.0472 23.3657 28.0472 18.5819 28.0472 13.8532C26.6449 12.5885 25.37 11.4338 24.0952 10.2241C24.0952 8.84944 24.2227 7.47479 24.0315 6.21012C23.904 5.05542 24.8601 3.46083 22.3104 2.58105C21.8642 5.66026 21.9917 8.40955 22.2467 11.5437C23.4578 12.3685 24.8601 13.3583 26.0712 14.1831C26.0712 18.8569 26.0712 23.2007 26.0712 26.9398C23.1391 29.4141 20.7168 31.4486 18.5496 33.3731C18.5496 31.7785 18.5496 29.909 18.5496 28.0395C21.0993 26.17 21.6092 24.4104 20.0157 22.8708C18.7408 21.6611 16.3186 21.6062 14.9162 22.7609C13.1314 24.2455 13.5139 25.7851 16.3186 28.3144C16.3186 29.799 16.1911 31.3386 16.3823 32.8783C16.5098 34.3629 15.6812 35.9575 17.2747 37.4971C21.2268 34.5828 24.6689 31.3936 28.0472 28.4244ZM15.3624 24.6304C15.3624 23.6956 16.1911 22.9808 17.2747 22.9808C18.3584 22.9808 19.187 23.6956 19.187 24.6304C19.187 25.5651 18.3584 26.2799 17.2747 26.2799C16.1911 26.2799 15.3624 25.5101 15.3624 24.6304Z" fill="#2776EA"/>
<path d="M4.46191 27.2152C7.20284 25.1808 7.71278 23.3662 5.92799 21.8816C4.27068 20.507 2.10343 20.7819 0.254887 22.7064C-0.38254 24.6859 0.31863 26.1705 2.29465 27.1053C2.29465 29.1397 2.29465 31.0642 2.29465 32.9888C1.9122 33.2637 1.52974 33.4836 1.21103 33.7586C0.828572 34.0885 0.509858 34.4734 0.254887 34.6933C-8.33441e-05 37.3876 0.509858 38.4324 2.42214 38.9822C3.82448 39.3671 5.60927 38.8173 6.43793 37.7175C7.5853 36.1779 7.07536 34.9682 4.46191 32.6588C4.46191 30.8443 4.46191 29.0848 4.46191 27.2152ZM1.33851 24.246C1.33851 23.2563 2.23091 22.4315 3.37828 22.4315C4.52565 22.4315 5.48179 23.2563 5.48179 24.246C5.48179 25.2357 4.52565 26.0605 3.37828 26.0605C2.23091 26.0605 1.33851 25.2357 1.33851 24.246ZM5.41805 36.013C5.41805 36.8927 4.58939 37.6076 3.56951 37.6076C2.54962 37.6076 1.72097 36.8927 1.72097 36.013C1.72097 35.1332 2.54962 34.4184 3.56951 34.4184C4.52565 34.4184 5.41805 35.1332 5.41805 36.013Z" fill="#2776EA"/>
<path d="M5.48214 24.2452C5.48214 23.2555 4.526 22.4307 3.37863 22.4307C2.23126 22.4307 1.33887 23.2555 1.33887 24.2452C1.33887 25.2349 2.29501 26.0597 3.44238 26.0597C4.58975 26.0597 5.48214 25.2349 5.48214 24.2452Z" fill="white"/>
<path d="M1.6582 36.0135C1.6582 36.8933 2.48686 37.6081 3.50674 37.6081C4.52662 37.6081 5.35528 36.8933 5.35528 36.0135C5.35528 35.1338 4.52662 34.4189 3.50674 34.4189C2.48686 34.4189 1.6582 35.1338 1.6582 36.0135Z" fill="white"/>
<path d="M19.1869 24.631C19.1869 23.6963 18.3582 22.9814 17.2746 22.9814C16.191 22.9814 15.3623 23.6963 15.3623 24.631C15.3623 25.5658 16.191 26.2806 17.2746 26.2806C18.3582 26.2806 19.1869 25.5108 19.1869 24.631Z" fill="white"/>
<path d="M17.273 17.9779C18.5051 17.9779 19.504 17.1163 19.504 16.0534C19.504 14.9905 18.5051 14.1289 17.273 14.1289C16.0408 14.1289 15.042 14.9905 15.042 16.0534C15.042 17.1163 16.0408 17.9779 17.273 17.9779Z" fill="white"/>
<path d="M6.18393 3.57031C6.18393 2.47059 5.16405 1.59082 3.8892 1.59082C2.61434 1.59082 1.6582 2.47059 1.6582 3.57031C1.6582 4.67003 2.67809 5.5498 3.95294 5.5498C5.22779 5.5498 6.18393 4.67003 6.18393 3.57031Z" fill="white"/>
<path d="M40.9221 21.0027C42.1191 21.0027 43.0894 20.1657 43.0894 19.1332C43.0894 18.1007 42.1191 17.2637 40.9221 17.2637C39.7252 17.2637 38.7549 18.1007 38.7549 19.1332C38.7549 20.1657 39.7252 21.0027 40.9221 21.0027Z" fill="white"/>
<path d="M41.8145 10.444C43.1531 10.444 44.173 9.50919 44.173 8.40948C44.173 7.25477 43.0894 6.375 41.8145 6.375C40.5397 6.375 39.4561 7.25477 39.4561 8.35449C39.4561 9.50919 40.5397 10.444 41.8145 10.444Z" fill="white"/>
<path d="M48.0613 15.6128C49.1878 15.6128 50.101 14.8251 50.101 13.8533C50.101 12.8815 49.1878 12.0938 48.0613 12.0938C46.9347 12.0938 46.0215 12.8815 46.0215 13.8533C46.0215 14.8251 46.9347 15.6128 48.0613 15.6128Z" fill="white"/>
<path d="M11.0273 42.6659C11.0273 43.7106 11.9835 44.5354 13.1946 44.5354C14.4057 44.5354 15.3618 43.7106 15.3618 42.6659C15.3618 41.6212 14.4057 40.7964 13.1946 40.7964C11.9835 40.7414 11.0273 41.6212 11.0273 42.6659Z" fill="white"/>
<path d="M21.6087 51.4094C22.9465 51.4094 24.031 50.4739 24.031 49.3199C24.031 48.166 22.9465 47.2305 21.6087 47.2305C20.271 47.2305 19.1865 48.166 19.1865 49.3199C19.1865 50.4739 20.271 51.4094 21.6087 51.4094Z" fill="white"/>
</svg>
