<svg width="60" height="61" viewBox="0 0 60 61" fill="none" xmlns="http://www.w3.org/2000/svg">
<path d="M31.0074 28.2773C32.6679 28.6492 34.2268 28.8858 35.7179 29.3592C36.7006 29.6803 37.6156 30.2889 38.4628 30.8975C39.2253 31.4384 39.632 32.2668 39.6659 33.2642C39.6828 33.5346 39.9031 33.8896 40.1403 34.0418C42.5125 35.4956 44.4442 37.3551 45.8505 39.7725C46.003 40.043 46.3927 40.229 46.7316 40.3473C48.9005 41.0742 50.561 42.359 51.1541 44.6411C51.8319 47.2783 50.2391 49.983 47.3755 51.048C46.5452 51.3523 45.8675 51.6566 45.41 52.5018C45.2066 52.8737 44.5289 53.0428 44.0205 53.178C43.5292 53.2964 43.2581 53.4823 43.0378 53.9726C42.0211 56.2716 40.1234 57.7254 37.8867 58.6721C32.6679 60.9035 27.3982 60.9035 22.1794 58.689C19.8241 57.6916 17.8925 56.1702 16.842 53.7021C16.7403 53.4485 16.2828 53.2626 15.9609 53.2118C15.1475 53.0935 14.6053 52.7216 14.2325 51.9947C14.08 51.6904 13.6734 51.4876 13.3514 51.3185C12.6228 50.9297 11.7926 50.693 11.1317 50.2197C7.45483 47.5487 8.09872 42.5449 12.4026 40.753C13.5548 40.2628 14.3173 39.6204 14.9781 38.6061C16.1981 36.7297 17.8756 35.2927 19.7903 34.1432C20.1969 33.9066 20.4003 33.6699 20.3833 33.1458C20.3664 32.047 21.0102 31.2694 21.8405 30.6439C23.7213 29.207 25.941 28.7844 28.2116 28.5308C28.4657 28.497 28.7199 28.4801 28.974 28.4463C29.1604 27.787 29.1096 27.3982 28.3641 27.1277C26.1274 26.3332 24.8566 24.068 25.2802 21.8027C25.7038 19.5037 27.6863 17.847 30.0076 17.8301C32.346 17.8301 34.3284 19.4529 34.769 21.752C35.2095 24.0003 33.9557 26.3163 31.736 27.1108C30.9735 27.3644 30.8379 27.7194 31.0074 28.2773ZM29.9229 52.5864C34.2607 52.6202 38.5645 52.2314 42.8514 51.5045C43.6817 51.3692 44.1392 51.0142 44.495 50.2535C46.308 46.3316 45.6641 41.8518 42.5972 38.5216C38.717 34.2954 33.7354 32.8585 28.1607 33.3318C23.8738 33.7037 20.0783 35.3266 17.2486 38.6737C14.3003 42.1392 13.6395 46.0273 15.5034 50.2704C15.8253 51.0142 16.2997 51.3354 17.0792 51.4706C21.3322 52.2145 25.6191 52.6202 29.9229 52.5864ZM19.1125 53.8542C21.8236 57.3535 25.653 58.3171 29.7874 58.3678C34.0743 58.4185 38.0562 57.4719 40.9028 53.8542C33.6168 54.7502 26.3816 54.7502 19.1125 53.8542ZM29.9907 19.7065C28.4149 19.7065 27.0932 21.0082 27.0763 22.5803C27.0593 24.1863 28.3979 25.5387 30.0076 25.5387C31.6173 25.5387 32.9559 24.1694 32.9221 22.5803C32.8882 21.0082 31.5665 19.7065 29.9907 19.7065ZM22.5013 32.7401C27.5338 30.8806 32.4646 30.8806 37.497 32.7401C35.2095 29.5958 24.8058 29.5958 22.5013 32.7401ZM47.223 48.9687C48.6294 48.2925 49.4766 46.9909 49.3749 45.5878C49.2733 44.2692 48.2905 43.0182 47.223 42.6801C47.223 44.7594 47.223 46.8725 47.223 48.9687ZM12.7753 49.0195C12.7753 46.8556 12.7753 44.7256 12.7753 42.6125C11.5892 43.2718 10.6573 44.2354 10.6234 45.7568C10.5895 47.329 11.5215 48.3264 12.7753 49.0195Z" fill="#2776EA"/>
<path d="M0 9.12369C0 6.72321 0 4.32273 0 1.90534C0 0.56986 0.321941 0.299384 1.67748 0.519146C5.15105 1.09391 8.62463 1.66867 12.1151 2.24344C12.4201 2.29415 12.7421 2.29415 13.0471 2.24344C16.5037 1.68558 19.9434 1.11081 23.4 0.519146C24.8233 0.282479 25.1622 0.552956 25.1622 2.00677C25.1622 6.72321 25.1622 11.4566 25.1622 16.173C25.1622 17.4916 25.0436 17.6437 23.7728 17.8635C20.2145 18.4552 16.6562 19.1482 13.081 19.6047C11.7932 19.7568 10.4207 19.368 9.09907 19.1482C6.47271 18.7256 3.84635 18.2523 1.20304 17.8466C0.304997 17.7113 0 17.2887 0 16.4097C0.0169443 13.9754 0 11.5411 0 9.12369ZM23.1967 2.49701C19.9265 3.03796 16.7579 3.56201 13.5893 4.10297C13.5893 8.63346 13.5893 13.0963 13.5893 17.6268C16.6223 17.1197 19.5537 16.6125 22.485 16.1561C23.1289 16.0547 23.2645 15.8011 23.2475 15.2094C23.2306 11.2368 23.2306 7.24726 23.2306 3.27463C23.2475 3.05487 23.2136 2.83511 23.1967 2.49701ZM11.539 17.6268C11.539 13.0625 11.539 8.58274 11.539 4.08606C8.31963 3.56201 5.168 3.03796 2.03331 2.51391C1.96553 2.64915 1.93165 2.69987 1.93165 2.75058C1.9147 7.01059 1.89776 11.2706 1.93165 15.5306C1.93165 15.7166 2.25359 16.0547 2.47386 16.0885C5.45605 16.6294 8.43824 17.1197 11.539 17.6268Z" fill="#2776EA"/>
<path d="M56.1701 11.0008C56.1701 11.7277 56.1701 12.3025 56.1701 12.9956C57.0512 12.9956 57.8984 13.0125 58.7456 12.9956C59.4403 12.9787 59.9825 13.1815 59.9656 13.9761C59.9487 14.7199 59.4064 14.9058 58.7625 14.8889C57.9323 14.8889 57.102 14.8889 56.1192 14.8889C56.1192 15.7849 56.1023 16.6301 56.1192 17.4753C56.1362 18.1515 55.9498 18.7263 55.1704 18.7263C54.374 18.7263 54.2045 18.1515 54.2215 17.4753C54.2384 16.647 54.2215 15.8356 54.2215 14.9565C53.5437 14.9565 52.9507 14.9565 52.2221 14.9565C52.2221 15.8018 52.2051 16.647 52.2221 17.5092C52.239 18.1854 52.0526 18.7601 51.2562 18.7432C50.4768 18.7263 50.3074 18.1515 50.3243 17.4753C50.3413 16.647 50.3243 15.8356 50.3243 14.9565C49.6465 14.9565 49.0535 14.9565 48.3588 14.9565C48.3588 15.8356 48.3588 16.6977 48.3588 17.543C48.3588 18.1854 48.1724 18.7263 47.4268 18.7432C46.6305 18.7601 46.4441 18.2192 46.4441 17.5261C46.461 16.6977 46.4441 15.8694 46.4441 14.9058C45.5291 14.9058 44.6819 14.8889 43.8347 14.9058C43.1399 14.9227 42.5808 14.7199 42.5808 13.9422C42.5808 13.1646 43.1569 12.9787 43.8347 12.9956C44.6649 13.0125 45.4782 12.9956 46.3763 12.9956C46.3763 12.3194 46.3763 11.7277 46.3763 11.0177C45.5799 11.0177 44.7835 11.0177 43.9872 11.0177C43.0213 11.0177 42.513 10.6796 42.5638 10.0541C42.6486 9.2258 43.2416 9.10747 43.9363 9.12437C44.7327 9.14128 45.5291 9.12437 46.3763 9.12437C46.3763 8.43127 46.3763 7.85651 46.3763 7.16341C45.4782 7.16341 44.631 7.18032 43.7838 7.16341C42.9874 7.14651 42.4961 6.7746 42.5638 6.16603C42.6486 5.45603 43.123 5.25317 43.7838 5.27008C44.6141 5.28698 45.4444 5.27008 46.4271 5.27008C46.4271 4.6615 46.4441 4.10364 46.4271 3.54579C46.3424 1.56792 46.6474 1.51721 47.3591 1.41578C48.1046 1.31435 48.3249 1.87221 48.3249 3.5965C48.3249 4.10364 48.3249 4.62769 48.3249 5.20246C48.9688 5.20246 49.5618 5.20246 50.2904 5.20246C50.2904 4.35722 50.3074 3.51198 50.2904 2.68364C50.2735 1.99054 50.4938 1.43268 51.2393 1.41578C52.0696 1.39887 52.256 1.97364 52.256 2.64983C52.239 3.47817 52.256 4.3065 52.256 5.18555C52.9168 5.18555 53.5098 5.18555 54.2554 5.18555C54.2554 4.35722 54.2723 3.51198 54.2554 2.66673C54.2384 1.97364 54.4248 1.41578 55.2043 1.41578C55.9667 1.41578 56.187 1.97364 56.1701 2.66673C56.1531 3.49507 56.1701 4.32341 56.1701 5.27008C57.0851 5.27008 57.9323 5.27008 58.7795 5.27008C59.4573 5.27008 60.0164 5.45603 59.9995 6.25056C59.9825 6.99437 59.4573 7.18032 58.7964 7.16341C57.9662 7.14651 57.1359 7.16341 56.2379 7.16341C56.2379 7.78889 56.2379 8.38056 56.2379 9.10747C57.0512 9.10747 57.8984 9.09056 58.7456 9.12437C59.0675 9.14128 59.4911 9.19199 59.6945 9.41175C59.8978 9.64842 60.0334 10.1218 59.9317 10.3922C59.83 10.6627 59.4064 10.9501 59.1184 10.9839C58.1356 11.0515 57.1867 11.0008 56.1701 11.0008ZM54.1876 7.21413C52.2051 7.21413 50.3243 7.21413 48.4435 7.21413C48.4435 9.15818 48.4435 11.0177 48.4435 12.928C50.3751 12.928 52.2559 12.928 54.1876 12.928C54.1876 11.0177 54.1876 9.14128 54.1876 7.21413Z" fill="#2776EA"/>
<path d="M44.0721 31.3196C44.5466 32.0465 44.716 32.6213 44.0721 33.0608C43.4622 33.5004 43.0047 33.0946 42.581 32.6551C42.0558 32.1311 41.5136 31.607 41.0052 31.0661C40.5477 30.5927 40.5477 30.0856 41.0052 29.6292C41.5644 29.0544 42.1405 28.4965 42.6997 27.9218C43.0894 27.5161 43.5469 27.2625 44.0721 27.6344C44.6144 28.0232 44.5974 28.5303 44.2585 29.0713C44.2246 29.1389 44.2077 29.2234 44.1738 29.3249C44.9363 29.3249 45.6649 29.3249 46.4952 29.3249C46.4952 27.4315 46.4952 25.6058 46.4952 23.7801C46.4952 23.4082 46.4952 23.0363 46.4952 22.6644C46.4952 22.0389 46.851 21.667 47.4441 21.667C48.0371 21.667 48.376 22.0727 48.376 22.6813C48.3929 23.966 48.376 25.2508 48.376 26.5525C48.376 27.702 48.376 28.8346 48.376 29.9842C48.376 30.9646 48.071 31.2689 47.1052 31.2858C46.1393 31.3365 45.1735 31.3196 44.0721 31.3196Z" fill="#2776EA"/>
<path d="M15.8604 31.3195C14.776 31.3195 13.7932 31.3364 12.8274 31.3195C11.9463 31.3026 11.6244 30.9814 11.6244 30.1192C11.6074 27.6849 11.6244 25.2506 11.6074 22.8164C11.6074 22.174 11.8955 21.7175 12.5394 21.7006C13.2341 21.6837 13.5221 22.1571 13.5221 22.8333C13.5052 24.6421 13.5221 26.434 13.5221 28.2428C13.5221 28.5809 13.5221 28.919 13.5221 29.3247C14.3354 29.3247 15.0641 29.3247 15.8435 29.3247C15.7418 29.088 15.5554 28.8514 15.5724 28.6485C15.6063 28.3104 15.7079 27.8709 15.9452 27.7018C16.1824 27.5328 16.7415 27.499 16.9449 27.668C17.7243 28.3273 18.4698 29.0711 19.1476 29.8318C19.5204 30.2545 19.3679 30.7447 18.9782 31.1335C18.419 31.7083 17.8429 32.2661 17.2668 32.8409C16.8601 33.2466 16.3857 33.4495 15.8943 33.0438C15.4029 32.6549 15.4368 32.1647 15.7418 31.6745C15.7757 31.5899 15.7757 31.5054 15.8604 31.3195Z" fill="#2776EA"/>
<path d="M29.9913 39.0961C32.3127 39.0961 34.634 39.0623 36.9554 39.113C38.7854 39.1468 40.1917 40.4315 40.5645 42.2235C40.9034 43.9139 40.0731 45.7904 38.4126 46.3651C37.2943 46.7539 36.0065 46.6863 34.7865 46.7032C34.5493 46.7032 34.0918 46.0778 34.1427 45.8073C34.1935 45.4692 34.6171 45.0466 34.9729 44.9282C35.4643 44.7761 36.0574 44.8944 36.5996 44.8775C37.8873 44.8437 38.7684 44.0323 38.7345 42.9166C38.7007 41.8008 37.8534 41.0063 36.6335 41.0063C32.211 40.9894 27.8055 40.9894 23.383 41.0063C22.1461 41.0063 21.2989 41.8177 21.265 42.9166C21.2481 44.0323 22.1292 44.8775 23.4 44.8775C25.7214 44.8944 28.0427 44.8775 30.3641 44.8775C30.6013 44.8775 30.8216 44.8606 31.0588 44.8775C31.6349 44.9282 32.0585 45.1818 32.0755 45.8242C32.0924 46.4666 31.6688 46.7878 31.0927 46.7878C28.3477 46.8047 25.5858 46.8723 22.8408 46.737C20.7397 46.6356 19.2656 44.793 19.3673 42.7644C19.4689 40.7189 21.0956 39.1806 23.1967 39.113C23.2475 39.113 23.3153 39.113 23.3661 39.113C25.5689 39.0792 27.7716 39.0792 29.9913 39.0961Z" fill="#2776EA"/>
<path d="M21.2487 7.43391C21.0792 7.5861 20.8081 7.97503 20.4353 8.0934C19.2323 8.46543 18.0123 8.73599 16.7754 9.02347C16.1654 9.15875 15.674 8.98965 15.5215 8.33015C15.4029 7.72138 15.7248 7.34936 16.3009 7.19716C17.5548 6.87587 18.7917 6.55458 20.0456 6.28401C20.7403 6.13182 21.2148 6.50384 21.2487 7.43391Z" fill="#2776EA"/>
<path d="M20.4351 10.9668C20.6723 11.2035 21.1468 11.4572 21.1637 11.7616C21.1976 12.1167 20.9096 12.7424 20.6385 12.8269C19.2829 13.2666 17.8935 13.6048 16.4871 13.8584C16.216 13.9092 15.6568 13.4864 15.5891 13.1989C15.5043 12.8946 15.7755 12.252 16.0296 12.1674C17.419 11.7278 18.8254 11.3896 20.4351 10.9668Z" fill="#2776EA"/>
<path d="M8.82791 9.15722C7.23515 8.75138 5.81183 8.43009 4.4224 7.97351C4.16824 7.88896 3.8463 7.22946 3.94796 6.97581C4.06657 6.65451 4.62573 6.23176 4.91379 6.28249C6.30322 6.51923 7.65876 6.85744 8.99735 7.28019C9.28541 7.38165 9.57346 7.99042 9.55651 8.34553C9.53957 8.64992 9.06513 8.92048 8.82791 9.15722Z" fill="#2776EA"/>
<path d="M8.82782 13.9941C7.23506 13.5882 5.81174 13.2669 4.42231 12.8104C4.15121 12.7258 3.86315 12.1001 3.93093 11.7957C3.99871 11.5083 4.55787 11.0686 4.81203 11.1024C6.23535 11.3561 7.65867 11.7112 9.0481 12.1339C9.3192 12.2185 9.59031 12.8273 9.53948 13.1486C9.52254 13.4868 9.08198 13.7404 8.82782 13.9941Z" fill="#2776EA"/>
</svg>
