<svg width="66" height="61" viewBox="0 0 66 61" fill="none" xmlns="http://www.w3.org/2000/svg">
<path d="M9.69789 26.8894C9.69789 25.1761 9.69789 23.5883 9.69789 21.8751C8.53605 21.8751 7.37421 21.8751 6.21237 21.8751C6.06714 21.8751 5.8735 22.1258 5.77668 22.2929C4.95371 23.6301 3.06571 24.1315 1.51659 23.3793C0.0642945 22.669 -0.468216 20.9976 0.451575 19.7022C1.0809 18.8665 2.0007 18.4068 3.16254 18.4486C4.32438 18.4904 5.24416 18.95 5.72826 19.8275C5.97031 20.2036 6.21237 20.329 6.69647 20.2872C7.56785 20.2454 8.39082 20.2872 9.2622 20.2454C9.45584 20.2454 9.7463 20.0365 9.7463 19.9529C9.79471 18.574 9.79471 17.195 9.79471 15.8161C9.79471 15.649 9.7463 15.4818 9.7463 15.2311C8.58446 15.2311 7.42262 15.2311 6.26078 15.2311C6.11555 15.2311 5.97032 15.44 5.8735 15.6072C5.19576 16.7354 3.88869 17.2786 2.4848 17.0279C1.17772 16.7772 0.161115 15.8161 0.0642948 14.6461C-0.0325252 13.3925 0.742035 12.3479 2.09752 11.93C3.453 11.5122 5.09894 12.0136 5.77668 13.1836C5.97032 13.5597 6.21237 13.685 6.69647 13.6432C7.47103 13.6015 8.294 13.6015 9.06856 13.6432C9.69789 13.685 9.89153 13.4761 9.84312 12.9747C9.79471 12.6404 9.84312 12.2643 9.89153 11.8882C10.1336 10.2168 11.7311 9.00501 13.6675 8.96322C14.1516 8.96322 14.6841 8.96322 15.265 8.96322C15.265 7.91858 15.265 6.91572 15.2166 5.91285C15.2166 5.7875 14.8778 5.62035 14.6357 5.53678C13.377 4.99357 12.7961 3.90713 13.0866 2.73713C13.377 1.60891 14.3937 0.814979 15.7975 0.689621C17.2014 0.564264 18.6053 1.3582 18.9926 2.48641C19.4283 3.73999 18.8958 5.03535 17.5403 5.62035C17.1046 5.82928 16.9594 6.03821 16.9594 6.45607C17.0078 7.29179 16.9594 8.12751 16.9594 9.04679C18.8958 9.04679 20.7838 9.04679 22.7686 9.04679C22.7686 8.04393 22.7686 7.04108 22.7202 6.03822C22.7202 5.91286 22.3813 5.74571 22.1877 5.62035C20.687 4.91 20.1544 3.28035 21.0258 1.98498C21.8972 0.731409 23.7368 0.271762 25.2375 1.02391C26.2541 1.52534 26.7382 2.31927 26.7382 3.32213C26.7382 4.36678 26.2057 5.16071 25.1407 5.62035C24.705 5.82928 24.5598 6.03821 24.5598 6.45607C24.6082 7.33357 24.5598 8.16929 24.5598 9.08858C26.4962 9.08858 28.3841 9.08858 30.3206 9.08858C30.3206 8.08572 30.3206 7.04108 30.3206 6.03822C30.3206 5.91286 30.0301 5.7875 29.8849 5.70392C28.2873 4.95178 27.7064 3.28035 28.6746 1.9432C29.5944 0.647836 31.6276 0.313551 33.0315 1.14927C34.5322 2.06856 34.8227 3.82356 33.6124 5.03535C33.3704 5.28607 32.9831 5.53678 32.6442 5.70392C32.3054 5.87107 32.1601 5.99643 32.1601 6.33071C32.1601 7.25 32.1601 8.16929 32.1601 9.17215C32.5474 9.17215 32.9831 9.21394 33.3704 9.17215C35.5972 9.00501 37.4852 10.4257 37.5821 12.3479C37.5821 12.8075 37.5821 13.2254 37.5821 13.7686C38.7923 13.7686 40.0026 13.7686 41.1644 13.7686C41.3096 13.7686 41.4548 13.5179 41.5517 13.3925C42.2778 12.2225 43.7301 11.7211 45.1824 12.0554C46.5379 12.3897 47.5061 13.5597 47.4093 14.7297C47.264 16.0668 46.199 17.0279 44.6499 17.195C43.4881 17.3204 42.181 16.7772 41.6485 15.7743C41.4549 15.3982 41.1644 15.3147 40.7287 15.3147C39.8089 15.3565 38.8407 15.3147 37.9209 15.3147C37.8725 15.3147 37.7757 15.3565 37.7273 15.3565C37.5821 15.8579 37.6305 16.1922 38.3082 16.4011C40.9223 17.2786 42.2294 19.0754 42.7619 21.4154C42.8587 21.8751 42.9072 22.3347 42.9072 22.7526C42.9072 33.1155 42.9072 43.4783 42.9072 53.8412C42.9072 55.7634 42.2778 57.4766 40.6803 58.8973C37.9209 61.3209 33.8545 61.0702 31.5308 58.3541C30.4174 57.1005 29.9333 55.6798 29.8849 54.092C29.8849 53.883 29.8849 53.6323 29.8849 53.507C29.0135 53.298 28.1905 53.2145 27.4159 52.922C24.7534 51.9609 23.059 49.3284 23.2043 46.5287C23.2527 45.7348 23.4947 44.9826 23.64 44.1887C23.6884 44.0216 23.64 43.7291 23.4947 43.6037C20.2997 41.0966 20.0092 36.2076 23.059 33.3662C23.1075 33.3244 23.1559 33.2408 23.3011 33.1155C22.6718 33.1155 22.0908 33.1155 21.5583 33.1155C20.2513 33.1155 18.9442 33.1155 17.6371 33.1155C17.2014 33.1155 17.0562 33.2408 17.0562 33.5751C17.0562 34.2855 17.1046 34.9958 17.0562 35.7062C17.0562 36.124 17.153 36.333 17.6371 36.5419C19.0894 37.1687 19.6703 38.7148 18.9926 39.9683C18.3149 41.2637 16.5237 41.8487 15.023 41.3055C13.5223 40.7623 12.7961 39.2998 13.3286 37.9626C13.5707 37.294 14.1032 36.7926 14.7809 36.5001C15.2166 36.333 15.265 36.124 15.265 35.748C15.265 34.8705 15.265 34.0347 15.265 33.0737C11.3438 33.3244 9.50425 31.7783 9.84312 28.3937C8.58446 28.3937 7.47103 28.3937 6.30919 28.4354C6.16396 28.4354 5.97031 28.7279 5.82508 28.8951C5.05052 30.0651 3.50141 30.5665 2.04911 30.1069C0.645215 29.6472 -0.177755 28.3937 0.112705 27.0983C0.403165 25.8029 1.75865 24.8836 3.25936 24.9672C4.4212 25.009 5.29257 25.5104 5.82508 26.4297C6.01872 26.764 6.26078 26.8894 6.69647 26.8476C7.61626 26.8894 8.63287 26.8894 9.69789 26.8894ZM25.4311 33.7005C25.0439 33.993 24.705 34.2019 24.4145 34.4526C21.752 36.918 22.3329 41.2637 25.3343 42.8516C25.528 42.9769 25.7216 43.1441 25.9152 43.3112C26.9319 44.0634 27.9969 44.8155 29.0619 45.5676C29.546 44.8155 29.8849 44.1887 30.2721 43.6037C31.434 41.9741 32.8863 40.7205 35.2584 40.5951C35.8393 40.5533 36.1782 40.6369 36.2266 41.2219C36.275 41.7233 36.0329 42.0158 35.4036 42.0994C35.0163 42.1412 34.5806 42.183 34.1934 42.3501C32.3538 43.1858 31.4824 44.6901 30.7078 46.3198C32.4506 47.0301 34.2418 47.3644 36.0813 47.4062C36.7107 47.4062 37.0979 47.6987 37.0979 48.1584C37.0979 48.618 36.7107 48.9523 36.1297 48.9523C35.5004 48.9523 34.9195 48.9523 34.2902 48.8687C30.9983 48.5344 28.1905 47.2391 25.7216 45.4005C25.5764 45.2751 25.4311 45.1916 25.1891 45.0244C24.6082 47.0301 24.8986 48.7851 26.3025 50.373C27.5128 51.7102 29.4976 52.128 31.0951 51.5848C32.0149 51.2505 33.1283 51.1669 34.1449 51.2087C36.0329 51.2923 37.4852 52.1698 38.5987 53.507C38.9375 53.9248 38.8891 54.3845 38.4534 54.6352C38.0177 54.8859 37.5336 54.8023 37.1464 54.3845C37.0495 54.3009 36.9527 54.1755 36.8559 54.092C35.5972 52.8384 33.9997 52.4623 32.1117 52.922C31.9181 52.9637 31.676 53.2145 31.6276 53.3816C31.434 54.9277 31.8213 56.3484 32.9347 57.5602C34.8227 59.6077 37.8725 59.5241 39.6637 57.4348C40.4866 56.5155 40.8739 55.4291 40.9223 54.3009C40.9707 52.6712 40.9223 51.0416 40.9223 49.3702C40.9223 40.5533 40.9223 31.6947 40.9223 22.8779C40.9223 21.5826 40.5835 20.4125 39.7121 19.3679C37.9693 17.2786 34.9195 17.1533 33.0315 19.0336C32.2085 19.8693 31.7729 20.8304 31.5792 21.8751C31.434 22.7943 31.5308 23.7136 32.1117 24.5494C32.499 25.0508 32.7895 25.6358 32.9831 26.179C33.2252 26.9311 33.6608 27.1401 34.5322 27.1401C35.7909 27.0983 37.0495 27.3908 38.163 27.9758C38.7439 28.2683 38.9375 28.6862 38.6471 29.104C38.3566 29.5219 37.8725 29.6054 37.2916 29.3547C37.1948 29.3129 37.0979 29.2712 37.0011 29.2294C36.0329 28.8533 35.0647 28.6444 33.9513 28.7697C33.9997 28.9369 33.9997 29.0204 33.9997 29.104C34.1449 30.0233 34.3386 30.9426 34.4354 31.8619C34.4838 32.4887 34.1449 32.823 33.564 32.823C33.0315 32.823 32.6926 32.5305 32.6442 31.9454C32.6442 31.8619 32.6442 31.7365 32.6442 31.6529C32.4506 29.3547 31.6276 27.1819 30.4174 25.1344C30.369 24.7583 30.2237 24.7165 29.8849 24.7583C28.8198 25.009 27.9485 25.5104 27.3191 26.3044C25.3827 28.519 25.6732 31.8619 27.9 34.0347C29.4492 35.539 31.434 36.2076 33.6608 36.4165C34.2418 36.4583 34.5806 36.709 34.5806 37.2105C34.5806 37.7119 34.0965 37.879 33.6608 37.879C33.0315 37.8373 32.4506 37.7119 31.8213 37.6701C30.5626 37.5448 29.4976 37.0015 28.4326 36.4583C27.1255 35.8315 26.2057 34.8287 25.4311 33.7005ZM29.8364 23.1704C29.8364 22.7108 29.8849 22.2929 29.8849 21.9168C30.2237 18.95 32.6442 16.5683 35.3552 16.1922C35.5004 16.1504 35.7425 15.8997 35.7425 15.7743C35.7909 14.6461 35.7909 13.5597 35.7425 12.4315C35.6941 11.5122 35.0163 10.8436 33.9997 10.7182C33.0315 10.6347 32.0633 10.6764 31.0951 10.6764C25.3827 10.6764 19.6703 10.6764 13.958 10.6764C12.312 10.6764 11.4891 11.345 11.4891 12.7657C11.4891 18.365 11.4891 23.9643 11.4891 29.5219C11.4891 30.859 12.312 31.5694 13.8611 31.5694C17.153 31.5694 20.3965 31.5694 23.6884 31.5694C23.882 31.5694 24.1241 31.5694 24.3177 31.5694C23.4463 27.349 26.1089 23.839 29.8364 23.1704ZM23.64 4.40856C24.3177 4.40856 24.8986 3.94892 24.8986 3.36392C24.8986 2.77892 24.3661 2.27748 23.6884 2.2357C23.059 2.19391 22.4297 2.69534 22.4297 3.28034C22.4297 3.86535 22.9622 4.36678 23.64 4.40856ZM17.3467 3.32213C17.3467 2.73713 16.8142 2.2357 16.1364 2.19391C15.4587 2.19391 14.8293 2.73713 14.8293 3.32213C14.8293 3.90713 15.4103 4.40856 16.088 4.40856C16.7657 4.40856 17.3467 3.94892 17.3467 3.32213ZM17.3951 38.9237C17.3951 38.3387 16.8142 37.8373 16.1364 37.8373C15.4587 37.8373 14.8293 38.3805 14.8778 38.9655C14.8778 39.5087 15.5071 40.0519 16.1848 40.0101C16.8142 39.9683 17.3951 39.5087 17.3951 38.9237ZM31.2403 4.40856C31.9181 4.40856 32.499 3.94892 32.499 3.36392C32.499 2.77892 31.9665 2.27748 31.3372 2.2357C30.6594 2.19391 30.0301 2.69534 30.0301 3.28034C30.0301 3.86535 30.5626 4.36678 31.2403 4.40856ZM3.11413 15.649C3.79187 15.649 4.32438 15.1475 4.32438 14.5625C4.32438 13.9775 3.74346 13.5179 3.06572 13.5179C2.33957 13.5179 1.80705 14.0193 1.80705 14.6461C1.85546 15.1893 2.43639 15.649 3.11413 15.649ZM44.3595 15.649C45.0372 15.649 45.6181 15.1475 45.5697 14.5625C45.5697 13.9357 44.9888 13.4761 44.2626 13.5179C43.5849 13.5597 43.0524 14.0193 43.0524 14.6461C43.1008 15.1893 43.6817 15.649 44.3595 15.649ZM3.06572 22.2093C3.74346 22.2093 4.32438 21.7497 4.37279 21.1647C4.37279 20.5797 3.84028 20.0783 3.16254 20.0365C2.43639 19.9947 1.85547 20.4961 1.85547 21.1229C1.80706 21.7079 2.33957 22.2093 3.06572 22.2093ZM3.06572 28.7697C3.74346 28.7697 4.32438 28.2683 4.32438 27.7251C4.32438 27.1401 3.79187 26.6386 3.11413 26.6386C2.38798 26.6386 1.80705 27.0983 1.80705 27.7251C1.80705 28.2683 2.38798 28.7697 3.06572 28.7697Z" fill="#2776EA"/>
<path d="M57.0902 23.1305C61.5924 24.0498 63.4804 28.2701 62.3669 31.7384C62.2701 32.0309 62.1733 32.2398 62.609 32.4905C65.3199 34.1202 66.2397 36.4184 65.9493 39.1763C65.7556 40.9313 64.9327 42.4356 63.3835 43.6473C63.2383 43.7727 63.2383 44.0652 63.2867 44.2741C64.2065 46.9066 63.7708 49.3302 61.7376 51.5031C60.6242 52.6731 59.656 53.0074 57.1386 53.3834C57.0418 54.1356 56.9934 54.9295 56.7998 55.6399C56.4609 57.0188 55.7348 58.1888 54.5245 59.1499C51.6199 61.4899 47.2146 60.7795 45.133 57.6874C44.3584 56.5174 44.0195 55.2638 44.0195 53.9684C44.0195 43.5638 44.0195 33.1591 44.0195 22.7126C44.0195 21.4173 44.3584 20.1637 45.133 19.0355C46.3916 17.2387 48.1344 16.0687 50.6517 16.1105C53.1206 16.1522 54.815 17.3222 55.9768 19.0773C56.8482 20.3308 57.0902 21.7098 57.0902 23.1305ZM61.4955 33.7441C61.3019 33.9948 61.1083 34.2455 60.9146 34.4544C59.0266 36.6691 56.4125 37.7137 53.3143 37.9645C52.7333 38.0062 52.3461 37.7137 52.3461 37.2541C52.3461 36.7945 52.6365 36.502 53.169 36.4184C53.4595 36.3766 53.7984 36.3348 54.0888 36.293C58.4941 35.708 61.4471 32.4069 60.8178 28.7298C60.4789 26.933 59.4623 25.4705 57.3323 24.8019C56.8482 24.6348 56.5093 24.7183 56.2673 25.178C55.1054 27.3091 54.2825 29.5237 54.1372 31.9055C54.0888 32.4069 53.7015 32.7412 53.169 32.6994C52.6849 32.6577 52.3461 32.3234 52.3461 31.8219C52.3945 31.3205 52.4429 30.8191 52.4913 30.3176C52.5881 29.7744 52.6849 29.2312 52.8302 28.6462C51.6199 28.5626 50.6033 28.7716 49.5867 29.2312C48.9089 29.5237 48.4248 29.4819 48.1344 29.0641C47.8439 28.6044 48.0376 28.1448 48.7153 27.8523C49.974 27.2673 51.3294 27.0584 52.7333 27.0584C53.169 27.0584 53.3627 26.9748 53.5563 26.5987C53.992 25.6794 54.4761 24.8019 54.9602 23.9244C55.057 23.7155 55.2022 23.4648 55.2022 23.2141C55.3475 21.7515 54.9602 20.4144 53.9436 19.2026C52.2008 17.1969 49.2962 17.0715 47.3598 18.9519C46.5853 19.704 46.1496 20.5398 45.9559 21.5426C45.8591 22.0858 45.8107 22.6708 45.8107 23.2141C45.8107 33.368 45.8107 43.5638 45.8107 53.7177C45.8107 55.0967 46.198 56.3085 47.1662 57.4367C48.7637 59.2752 51.4747 59.526 53.4111 57.9381C54.9118 56.6845 55.3959 55.0549 55.2022 53.2999C55.2022 53.1327 54.9118 52.882 54.6697 52.8402C52.927 52.4642 51.3779 52.7149 50.1192 53.8849C49.9256 54.0938 49.7319 54.3027 49.5383 54.4699C49.1994 54.7624 48.8121 54.8042 48.4248 54.5534C48.0376 54.3027 47.9407 53.9684 48.1344 53.5924C48.2312 53.4252 48.3764 53.2581 48.4733 53.1327C50.3612 51.127 53.0238 50.542 55.9768 51.5031C56.8966 51.7956 57.8164 51.7956 58.7362 51.5031C61.3019 50.6256 62.8026 47.2409 61.6408 44.9845C61.3987 45.1516 61.2051 45.3188 60.963 45.4441C58.01 47.4916 54.7666 48.8706 50.8938 48.8288C50.1676 48.8288 49.7803 48.5363 49.7803 48.0349C49.7803 47.5752 50.1676 47.3245 50.8453 47.2827C51.5715 47.2409 52.3461 47.2409 53.0722 47.1156C54.1372 46.9066 55.1538 46.6141 56.2189 46.3216C55.6863 45.1098 55.057 44.107 54.1856 43.2713C53.4595 42.5609 52.6365 42.0595 51.5231 42.0177C50.9422 41.9759 50.6517 41.6834 50.6517 41.182C50.7001 40.6805 51.0874 40.388 51.6199 40.4716C52.3945 40.597 53.2174 40.7223 53.8952 41.0566C55.3475 41.7252 56.2673 42.8116 56.9934 44.0234C57.2839 44.4831 57.5259 44.9427 57.8164 45.4859C58.2037 45.277 58.5425 45.1098 58.8814 44.8591C59.7528 44.2323 60.5758 43.4802 61.4955 42.8952C63.6256 41.5998 64.4001 39.8448 64.2065 37.7137C64.0129 36.0841 63.1899 34.7052 61.4955 33.7441Z" fill="#2776EA"/>
</svg>
