<svg width="115" height="31" viewBox="0 0 115 31" fill="none" xmlns="http://www.w3.org/2000/svg">
<g clip-path="url(#clip0_1308_341262)">
<path d="M19.088 25.7027C19.0886 24.0735 18.8155 22.4564 18.2807 20.9221L22.4303 17.3666V23.4419C26.7587 17.6032 28.9627 10.4002 28.6624 3.07503L14.5536 15.1869C13.6857 14.3802 12.7226 13.6882 11.6866 13.127L5.27354 15.2526L9.57029 11.5271C9.73623 10.9787 10.0062 10.4693 10.3647 10.028C10.7232 9.58675 11.1631 9.22226 11.6594 8.95551C12.1556 8.68877 12.6984 8.52495 13.2565 8.47351C13.8146 8.42202 14.3772 8.48392 14.912 8.65564L16.0437 9.06527L24.8334 1.51757C17.149 -0.93264 7.69539 -0.414773 0.765532 3.06343C0.263804 14.1318 5.66965 24.7519 14.7234 30.8891C16.2803 29.8316 17.7411 28.6326 19.088 27.3065V25.7027ZM15.5684 16.2497L23.9356 9.06915V14.0932L17.6922 19.5037C17.1337 18.3242 16.419 17.2292 15.5684 16.2497Z" fill="#01B3A2"/>
<path d="M48.9223 18.0236H45.2627L44.4665 20.4413H42.499L45.9907 10.4321H48.2113L51.6876 20.4413H49.7198L48.9223 18.0236ZM48.4185 16.4642L47.1476 12.604H47.0361L45.7743 16.4642H48.4185Z" fill="#01B3A2"/>
<path d="M56.0052 20.4403H54.1689V10.4312H56.0052V20.4403Z" fill="#01B3A2"/>
<path d="M64.8393 20.4403L62.801 16.5357H61.2083V20.4403H59.4075V10.4312H63.2754C65.23 10.4312 66.4315 11.6171 66.4315 13.3766C66.4315 14.7346 65.7049 15.7352 64.5465 16.1972L66.7948 20.4443L64.8393 20.4403ZM61.2083 14.9334H63.0659C64.0152 14.9334 64.5886 14.3182 64.5886 13.4747C64.5886 12.5882 64.0152 12.0308 63.0659 12.0308H61.2083V14.9334Z" fill="#01B3A2"/>
<path d="M76.1893 17.7083C76.1893 19.4383 75.072 20.4403 73.2144 20.4403H69.626V10.4312H73.1869C75.0445 10.4312 75.9414 11.4318 75.9414 12.9187C75.9414 14.1906 75.2858 14.8058 74.5592 15.1496V15.2208C75.3383 15.5216 76.1893 16.2067 76.1893 17.7083ZM70.8691 14.7534H73.0337C74.0947 14.7534 74.6812 14.0953 74.6812 13.0946C74.6812 12.094 74.0398 11.507 73.0753 11.507H70.8691V14.7534ZM74.9055 17.6412C74.9055 16.5828 74.2063 15.8252 73.1032 15.8252H70.8734V19.3711H73.1217C74.2366 19.3671 74.9055 18.6807 74.9055 17.6371V17.6412Z" fill="#01B3A2"/>
<path d="M79.0166 15.4356C79.0166 12.5036 81.0837 10.2874 83.8491 10.2874C86.5865 10.2874 88.6669 12.5036 88.6669 15.4356C88.6669 18.3677 86.6139 20.5826 83.8491 20.5826C81.0837 20.5826 79.0166 18.3812 79.0166 15.4356ZM87.3812 15.4356C87.3812 13.2046 85.8599 11.4881 83.8491 11.4881C81.8382 11.4881 80.3075 13.2046 80.3075 15.4356C80.3075 17.6666 81.8288 19.3818 83.8491 19.3818C85.8689 19.3818 87.3812 17.6653 87.3812 15.4356Z" fill="#01B3A2"/>
<path d="M98.2861 19.2677V20.4403H92.0166V10.4312H93.2574V19.2677H98.2861Z" fill="#01B3A2"/>
<path d="M106.218 11.6037H103.399V20.4403H102.128V11.6037H99.3075V10.4312H106.218V11.6037Z" fill="#01B3A2"/>
<path d="M111.896 10.1719C110.335 10.1719 109.058 11.4555 109.058 13.0781C109.058 14.7008 110.335 15.9844 111.896 15.9844C113.449 15.9844 114.734 14.7008 114.734 13.0781C114.734 11.4555 113.449 10.1719 111.896 10.1719ZM111.888 15.5161C110.595 15.5161 109.531 14.4182 109.531 13.0781C109.531 11.738 110.595 10.6401 111.888 10.6401C113.189 10.6401 114.261 11.738 114.261 13.0781C114.261 14.4182 113.189 15.5161 111.888 15.5161ZM112.874 12.513C112.874 11.9964 112.55 11.6653 112.014 11.6653H110.973V14.4909H111.47V13.393H111.88L112.471 14.4909H113.015L112.361 13.288C112.676 13.1589 112.874 12.8763 112.874 12.513ZM111.47 12.1094H111.927C112.211 12.1094 112.369 12.2708 112.369 12.5211C112.369 12.7714 112.211 12.9489 111.927 12.9489H111.47V12.1094Z" fill="#01B3A2"/>
</g>
<defs>
<clipPath id="clip0_1308_341262">
<rect width="114" height="31" fill="white" transform="translate(0.733398)"/>
</clipPath>
</defs>
</svg>
