<svg width="160" height="90" viewBox="0 0 160 90" fill="none" xmlns="http://www.w3.org/2000/svg">
<path d="M41.3546 55.7027C41.3552 54.0735 41.0821 52.4564 40.5473 50.9221L44.6969 47.3666V53.4419C49.0253 47.6032 51.2293 40.4002 50.929 33.075L36.8202 45.1869C35.9523 44.3802 34.9892 43.6882 33.9532 43.127L27.5401 45.2526L31.8369 41.5271C32.0028 40.9787 32.2728 40.4693 32.6313 40.028C32.9898 39.5868 33.4297 39.2223 33.926 38.9555C34.4222 38.6888 34.965 38.525 35.5231 38.4735C36.0812 38.422 36.6438 38.4839 37.1786 38.6556L38.3103 39.0653L47.1 31.5176C39.4156 29.0674 29.962 29.5852 23.0321 33.0634C22.5304 44.1318 27.9362 54.7519 36.99 60.8891C38.547 59.8316 40.0077 58.6326 41.3546 57.3065V55.7027ZM37.835 46.2497L46.2022 39.0691V44.0932L39.9588 49.5037C39.4003 48.3242 38.6856 47.2292 37.835 46.2497Z" fill="#7A7A7A"/>
<path d="M71.1884 48.0236H67.5289L66.7327 50.4413H64.7651L68.2568 40.4321H70.4774L73.9537 50.4413H71.9859L71.1884 48.0236ZM70.6846 46.4642L69.4137 42.604H69.3022L68.0404 46.4642H70.6846Z" fill="#7A7A7A"/>
<path d="M78.2711 50.4403H76.4348V40.4312H78.2711V50.4403Z" fill="#7A7A7A"/>
<path d="M87.1059 50.4403L85.0676 46.5357H83.4749V50.4403H81.6741V40.4312H85.542C87.4966 40.4312 88.6981 41.6171 88.6981 43.3766C88.6981 44.7346 87.9715 45.7352 86.8131 46.1972L89.0614 50.4443L87.1059 50.4403ZM83.4749 44.9334H85.3325C86.2818 44.9334 86.8552 44.3182 86.8552 43.4747C86.8552 42.5882 86.2818 42.0308 85.3325 42.0308H83.4749V44.9334Z" fill="#7A7A7A"/>
<path d="M98.4568 47.7083C98.4568 49.4383 97.3395 50.4403 95.482 50.4403H91.8936V40.4312H95.4545C97.3121 40.4312 98.209 41.4318 98.209 42.9187C98.209 44.1906 97.5533 44.8058 96.8268 45.1496V45.2208C97.6059 45.5216 98.4568 46.2067 98.4568 47.7083ZM93.1367 44.7534H95.3013C96.3623 44.7534 96.9488 44.0953 96.9488 43.0946C96.9488 42.094 96.3074 41.507 95.3429 41.507H93.1367V44.7534ZM97.173 47.6412C97.173 46.5828 96.4739 45.8252 95.3708 45.8252H93.1409V49.3711H95.3892C96.5042 49.3671 97.173 48.6807 97.173 47.6371V47.6412Z" fill="#7A7A7A"/>
<path d="M101.283 45.4356C101.283 42.5036 103.35 40.2874 106.115 40.2874C108.853 40.2874 110.933 42.5036 110.933 45.4356C110.933 48.3677 108.88 50.5826 106.115 50.5826C103.35 50.5826 101.283 48.3812 101.283 45.4356ZM109.647 45.4356C109.647 43.2046 108.126 41.4881 106.115 41.4881C104.104 41.4881 102.574 43.2046 102.574 45.4356C102.574 47.6666 104.095 49.3818 106.115 49.3818C108.135 49.3818 109.647 47.6653 109.647 45.4356Z" fill="#7A7A7A"/>
<path d="M120.552 49.2677V50.4403H114.283V40.4312H115.523V49.2677H120.552Z" fill="#7A7A7A"/>
<path d="M128.485 41.6037H125.665V50.4403H124.394V41.6037H121.574V40.4312H128.485V41.6037Z" fill="#7A7A7A"/>
<path d="M134.162 40.1719C132.601 40.1719 131.324 41.4555 131.324 43.0781C131.324 44.7008 132.601 45.9844 134.162 45.9844C135.715 45.9844 137 44.7008 137 43.0781C137 41.4555 135.715 40.1719 134.162 40.1719ZM134.154 45.5161C132.861 45.5161 131.797 44.4182 131.797 43.0781C131.797 41.738 132.861 40.6401 134.154 40.6401C135.455 40.6401 136.527 41.738 136.527 43.0781C136.527 44.4182 135.455 45.5161 134.154 45.5161ZM135.14 42.513C135.14 41.9964 134.816 41.6653 134.28 41.6653H133.239V44.4909H133.736V43.393H134.146L134.738 44.4909H135.282L134.627 43.288C134.942 43.1589 135.14 42.8763 135.14 42.513ZM133.736 42.1094H134.194C134.477 42.1094 134.635 42.2708 134.635 42.5211C134.635 42.7714 134.477 42.9489 134.194 42.9489H133.736V42.1094Z" fill="#7A7A7A"/>
</svg>
