<svg width="65" height="66" viewBox="0 0 65 66" fill="none" xmlns="http://www.w3.org/2000/svg">
<path d="M39.0368 61.989C37.2647 62.3794 35.4607 62.6079 33.6472 62.6719V50.9213C34.4316 51.0401 35.3754 50.8069 35.4432 49.8717C35.5143 48.8228 34.5117 48.5217 33.6472 48.6V33.6774H49.2404C49.1184 34.4731 49.4052 35.4116 50.3428 35.4405C51.3401 35.5186 51.6555 34.4963 51.562 33.6774L62.6416 33.6774C62.5773 35.4912 62.3484 37.2953 61.9577 39.0676C61.8938 39.3669 61.9508 39.6793 62.1161 39.9369C62.2814 40.1945 62.5417 40.3764 62.8404 40.443C63.1392 40.5097 63.4521 40.4557 63.7112 40.2928C63.9704 40.1299 64.1547 39.8713 64.2242 39.5733C64.7386 37.2562 64.9971 34.8898 64.9952 32.5163C65.3165 14.7414 49.5495 -0.670275 31.8162 0.0224891C2.11143 0.760562 -11.1916 37.6678 11.2786 57.1363C17.0003 62.0773 24.269 64.8631 31.8274 65.0117C34.4204 65.0745 37.0112 64.8201 39.5425 64.2543C39.6915 64.2214 39.8325 64.1594 39.9575 64.0718C40.0825 63.9843 40.189 63.873 40.2709 63.7442C40.3528 63.6155 40.4086 63.4719 40.4349 63.3216C40.4613 63.1713 40.4577 63.0173 40.4245 62.8683C40.3912 62.7194 40.3289 62.5785 40.2412 62.4537C40.1534 62.3289 40.0419 62.2226 39.913 62.1409C39.7841 62.0592 39.6404 62.0037 39.49 61.9777C39.3397 61.9516 39.1857 61.9555 39.0368 61.989ZM62.6415 31.3554H51.556C51.49 25.0509 50.2022 18.819 47.7639 13.0047C49.5081 12.1967 51.194 11.2686 52.8095 10.2268C55.7715 12.9175 58.1667 16.1721 59.855 19.8001C61.5433 23.4282 62.4906 27.3566 62.6415 31.3554ZM50.9291 8.66703C49.5907 9.49622 48.2032 10.2435 46.7744 10.9047C45.4175 8.18678 43.5753 5.7397 41.3386 3.68402C44.8101 4.7524 48.0593 6.44064 50.9291 8.66703ZM33.6472 2.40549C37.796 2.93492 41.7302 6.30308 44.6334 11.8133C41.1261 13.1906 37.4124 13.9691 33.6472 14.1164V2.40549ZM33.6472 16.4386C37.7559 16.2889 41.8086 15.4361 45.6292 13.9174C47.9465 19.4425 49.1708 25.3644 49.2342 31.3554H33.6472V16.4386ZM23.6285 3.68849C21.3941 5.74324 19.5537 8.18876 18.1979 10.9047C16.769 10.2435 15.3816 9.49624 14.0432 8.66703C16.9113 6.44207 20.1588 4.7553 23.6285 3.68849ZM12.1631 10.227C13.7785 11.2687 15.4644 12.1969 17.2086 13.0047C14.7703 18.819 13.4825 25.0509 13.4164 31.3554H2.33075C2.48179 27.3566 3.42921 23.4282 5.11753 19.8002C6.80585 16.1723 9.20117 12.9176 12.1631 10.227ZM2.33075 33.6774H13.4163C13.4822 39.9874 14.7723 46.2246 17.2149 52.043C15.4712 52.8476 13.7862 53.7738 12.1724 54.8147C9.20766 52.1238 6.81002 48.8681 5.12003 45.2385C3.43005 41.6089 2.48176 37.6784 2.33075 33.6774ZM14.0484 56.3698C15.3873 55.5433 16.7756 54.7996 18.2054 54.143C19.5614 56.8552 21.401 59.2971 23.6337 61.3488C20.1644 60.281 16.9169 58.5942 14.0484 56.3698ZM31.3251 62.6274C27.179 62.0983 23.247 58.7343 20.3443 53.2304C23.8475 51.8437 27.5603 51.0607 31.3251 50.9148V62.6274ZM31.3251 48.5927C27.2167 48.7411 23.1649 49.5991 19.3489 51.1287C17.0277 45.6 15.8014 39.6734 15.7381 33.6774H31.3251V48.5927ZM31.3251 31.3554H15.7381C15.8017 25.3644 17.0259 19.4425 19.3432 13.9175C23.1639 15.4362 27.2165 16.2889 31.3251 16.4386V31.3554ZM31.3251 14.1164C27.5599 13.9691 23.8462 13.1906 20.3389 11.8133C23.2406 6.30446 27.1751 2.93559 31.3251 2.4056V14.1164Z" fill="#2776EA"/>
<path d="M51.0617 46.4488C49.8372 46.4598 48.6666 46.9539 47.8046 47.8237C46.9426 48.6934 46.459 49.8684 46.459 51.093C46.459 52.3175 46.9426 53.4925 47.8046 54.3623C48.6667 55.232 49.8373 55.7261 51.0618 55.7371C52.2863 55.7261 53.4569 55.232 54.3189 54.3622C55.1809 53.4925 55.6646 52.3175 55.6645 51.0929C55.6645 49.8683 55.1809 48.6934 54.3189 47.8236C53.4569 46.9539 52.2862 46.4597 51.0617 46.4488ZM51.0617 53.415C50.452 53.4057 49.8703 53.157 49.4424 52.7226C49.0145 52.2881 48.7746 51.7027 48.7746 51.0929C48.7747 50.4831 49.0145 49.8977 49.4425 49.4633C49.8704 49.0288 50.4521 48.7801 51.0618 48.7709C51.6716 48.7801 52.2532 49.0289 52.6811 49.4633C53.109 49.8978 53.3489 50.4832 53.3489 51.093C53.3489 51.7028 53.109 52.2882 52.6811 52.7226C52.2531 53.1571 51.6715 53.4058 51.0617 53.415Z" fill="#2776EA"/>
<path d="M63.8324 49.9319H62.3802C62.1094 47.3303 60.9522 44.9009 59.1027 43.0514C57.2531 41.2018 54.8237 40.0446 52.2221 39.7739V38.3216C52.2211 38.0143 52.0984 37.7199 51.8808 37.503C51.6631 37.286 51.3684 37.1642 51.0611 37.1642C50.7538 37.1642 50.459 37.286 50.2414 37.503C50.0238 37.7199 49.901 38.0143 49.9 38.3216V39.7739C47.2984 40.0446 44.869 41.2018 43.0195 43.0514C41.1699 44.9009 40.0127 47.3303 39.742 49.9319H38.2897C38.1369 49.9314 37.9856 49.9611 37.8443 50.0192C37.703 50.0774 37.5746 50.1628 37.4664 50.2707C37.3582 50.3785 37.2723 50.5067 37.2137 50.6478C37.1551 50.7889 37.125 50.9402 37.125 51.0929C37.125 51.2457 37.1551 51.397 37.2137 51.5381C37.2723 51.6792 37.3582 51.8074 37.4664 51.9152C37.5746 52.0231 37.703 52.1085 37.8443 52.1667C37.9856 52.2248 38.1369 52.2545 38.2897 52.254H39.742C40.0127 54.8556 41.1699 57.285 43.0195 59.1345C44.869 60.9841 47.2984 62.1413 49.9 62.412V63.8643C49.8996 64.0171 49.9292 64.1685 49.9874 64.3098C50.0455 64.451 50.1309 64.5795 50.2388 64.6877C50.3467 64.7959 50.4748 64.8817 50.6159 64.9403C50.757 64.9989 50.9083 65.029 51.0611 65.029C51.2139 65.029 51.3651 64.9989 51.5062 64.9403C51.6473 64.8817 51.7755 64.7959 51.8834 64.6877C51.9912 64.5795 52.0767 64.451 52.1348 64.3098C52.1929 64.1685 52.2226 64.0171 52.2221 63.8643V62.412C54.8237 62.1413 57.2531 60.9841 59.1027 59.1345C60.9522 57.285 62.1094 54.8556 62.3802 52.254H63.8324C64.1364 52.248 64.4259 52.123 64.6387 51.9059C64.8515 51.6889 64.9708 51.397 64.9708 51.0929C64.9708 50.7889 64.8515 50.497 64.6387 50.28C64.4259 50.0629 64.1364 49.9379 63.8324 49.9319ZM58.724 52.254H60.0338C59.7748 54.235 58.8685 56.075 57.4557 57.4877C56.043 58.9004 54.2031 59.8067 52.222 60.0657V58.7553C52.2225 58.6025 52.1928 58.4512 52.1347 58.3099C52.0766 58.1686 51.9911 58.0402 51.8833 57.932C51.7754 57.8238 51.6473 57.7379 51.5062 57.6793C51.3651 57.6208 51.2138 57.5906 51.061 57.5906C50.9082 57.5906 50.757 57.6208 50.6158 57.6793C50.4747 57.7379 50.3466 57.8238 50.2387 57.932C50.1309 58.0402 50.0454 58.1686 49.9873 58.3099C49.9292 58.4512 49.8995 58.6025 49.9 58.7553V60.0657C47.9189 59.8067 46.079 58.9004 44.6663 57.4877C43.2536 56.075 42.3472 54.235 42.0882 52.254H43.398C43.5508 52.2545 43.7022 52.2248 43.8435 52.1667C43.9847 52.1085 44.1132 52.0231 44.2214 51.9152C44.3296 51.8074 44.4154 51.6792 44.474 51.5381C44.5326 51.397 44.5627 51.2457 44.5627 51.0929C44.5627 50.9402 44.5326 50.7889 44.474 50.6478C44.4154 50.5067 44.3296 50.3785 44.2214 50.2707C44.1132 50.1628 43.9847 50.0774 43.8435 50.0192C43.7022 49.9611 43.5508 49.9314 43.398 49.9319H42.0882C42.3472 47.9509 43.2536 46.1109 44.6663 44.6982C46.079 43.2855 47.9189 42.3792 49.9 42.1202V43.4306C49.9009 43.7379 50.0237 44.0322 50.2413 44.2492C50.459 44.4661 50.7537 44.588 51.061 44.588C51.3683 44.588 51.6631 44.4661 51.8807 44.2492C52.0983 44.0322 52.2211 43.7379 52.222 43.4306V42.1202C54.2031 42.3792 56.043 43.2855 57.4557 44.6982C58.8685 46.111 59.7748 47.9509 60.0338 49.9319H58.724C58.4167 49.9329 58.1223 50.0557 57.9054 50.2733C57.6884 50.4909 57.5666 50.7857 57.5666 51.093C57.5666 51.4003 57.6884 51.695 57.9054 51.9126C58.1223 52.1303 58.4167 52.253 58.724 52.254Z" fill="#2776EA"/>
</svg>
