<svg width="85" height="23" viewBox="0 0 85 23" fill="none" xmlns="http://www.w3.org/2000/svg">
<g clip-path="url(#clip0_1132_320022)">
<path d="M13.6855 18.5683C13.6859 17.3913 13.4823 16.2231 13.0835 15.1147L16.1775 12.5461V16.935C19.4049 12.717 21.0482 7.51338 20.8242 2.22148L10.3045 10.9714C9.65745 10.3886 8.93928 9.88871 8.16684 9.48332L3.38519 11.0189L6.58891 8.32745C6.71264 7.9313 6.91392 7.56328 7.18123 7.2445C7.4485 6.92572 7.77655 6.6624 8.14656 6.4697C8.51658 6.27699 8.92126 6.15865 9.33741 6.12149C9.75356 6.08429 10.173 6.12901 10.5717 6.25306L11.4156 6.54899L17.9693 1.09633C12.2397 -0.673763 5.19096 -0.299643 0.0239595 2.21311C-0.350136 10.2092 3.68054 17.8815 10.4311 22.3151C11.592 21.5512 12.6812 20.6849 13.6855 19.727V18.5683ZM11.0612 11.7392L17.2999 6.55179V10.1813L12.6448 14.09C12.2283 13.2379 11.6954 12.4468 11.0612 11.7392Z" fill="#01B3A2"/>
<path d="M35.9299 13.0204H33.2013L32.6076 14.767H31.1406L33.7441 7.53613H35.3998L37.9918 14.767H36.5245L35.9299 13.0204ZM35.5543 11.8939L34.6067 9.10516H34.5236L33.5827 11.8939H35.5543Z" fill="#01B3A2"/>
<path d="M41.211 14.767H39.8418V7.53613H41.211V14.767Z" fill="#01B3A2"/>
<path d="M47.7981 14.767L46.2783 11.9462H45.0908V14.767H43.748V7.53613H46.6321C48.0894 7.53613 48.9852 8.39292 48.9852 9.66403C48.9852 10.645 48.4435 11.3679 47.5797 11.7017L49.2561 14.7699L47.7981 14.767ZM45.0908 10.7887H46.4758C47.1837 10.7887 47.6111 10.3442 47.6111 9.73489C47.6111 9.09445 47.1837 8.69176 46.4758 8.69176H45.0908V10.7887Z" fill="#01B3A2"/>
<path d="M56.2613 12.7933C56.2613 14.0431 55.4283 14.767 54.0432 14.767H51.3677V7.53613H54.0228C55.4078 7.53613 56.0765 8.25901 56.0765 9.33317C56.0765 10.252 55.5877 10.6965 55.046 10.9449V10.9963C55.6268 11.2136 56.2613 11.7085 56.2613 12.7933ZM52.2946 10.6586H53.9085C54.6996 10.6586 55.1369 10.1832 55.1369 9.46027C55.1369 8.73739 54.6587 8.31335 53.9395 8.31335H52.2946V10.6586ZM55.3041 12.7448C55.3041 11.9802 54.7828 11.4329 53.9604 11.4329H52.2977V13.9946H53.9741C54.8054 13.9917 55.3041 13.4958 55.3041 12.7419V12.7448Z" fill="#01B3A2"/>
<path d="M58.3687 11.1509C58.3687 9.03269 59.9099 7.43164 61.9718 7.43164C64.0129 7.43164 65.564 9.03269 65.564 11.1509C65.564 13.2691 64.0333 14.8692 61.9718 14.8692C59.9099 14.8692 58.3687 13.2788 58.3687 11.1509ZM64.6054 11.1509C64.6054 9.53917 63.4711 8.29911 61.9718 8.29911C60.4725 8.29911 59.3312 9.53917 59.3312 11.1509C59.3312 12.7626 60.4654 14.0017 61.9718 14.0017C63.4778 14.0017 64.6054 12.7616 64.6054 11.1509Z" fill="#01B3A2"/>
<path d="M72.7362 13.9199V14.767H68.0615V7.53613H68.9866V13.9199H72.7362Z" fill="#01B3A2"/>
<path d="M78.6509 8.3832H76.5485V14.767H75.6008V8.3832H73.498V7.53613H78.6509V8.3832Z" fill="#01B3A2"/>
<path d="M82.8838 7.34863C81.7199 7.34863 80.7676 8.27593 80.7676 9.44818C80.7676 10.6204 81.7199 11.5477 82.8838 11.5477C84.0417 11.5477 84.9999 10.6204 84.9999 9.44818C84.9999 8.27593 84.0417 7.34863 82.8838 7.34863ZM82.8778 11.2095C81.9138 11.2095 81.1203 10.4163 81.1203 9.44818C81.1203 8.48005 81.9138 7.68691 82.8778 7.68691C83.8477 7.68691 84.6472 8.48005 84.6472 9.44818C84.6472 10.4163 83.8477 11.2095 82.8778 11.2095ZM83.6128 9.03993C83.6128 8.6667 83.3715 8.42756 82.9719 8.42756H82.196V10.4688H82.5663V9.67564H82.8721L83.313 10.4688H83.7186L83.2305 9.59981C83.4657 9.50652 83.6128 9.30237 83.6128 9.03993ZM82.5663 8.74833H82.9074C83.119 8.74833 83.2365 8.86496 83.2365 9.04577C83.2365 9.22658 83.119 9.35486 82.9074 9.35486H82.5663V8.74833Z" fill="#01B3A2"/>
</g>
<defs>
<clipPath id="clip0_1132_320022">
<rect width="85" height="22.3952" fill="white"/>
</clipPath>
</defs>
</svg>
