<svg width="60" height="75" viewBox="0 0 60 75" fill="none" xmlns="http://www.w3.org/2000/svg">
<path d="M23.7809 6.56026H32.0155C32.6194 6.56026 33.1088 6.07086 33.1088 5.46688C33.1088 4.8629 32.6194 4.3735 32.0155 4.3735H23.7809C23.177 4.3735 22.6875 4.8629 22.6875 5.46688C22.6875 6.07086 23.1769 6.56026 23.7809 6.56026Z" fill="#2776EA"/>
<path d="M57.2215 36.2091C56.8751 33.2729 56.065 30.4507 54.8091 27.7906V6.56026C54.8091 2.94293 51.8661 0 48.2488 0H11.7512C8.13385 0 5.19092 2.94293 5.19092 6.56026V27.7829C3.96181 30.3916 3.13129 33.2263 2.77849 36.2091C1.20607 36.459 0 37.8243 0 39.4661C0 41.1078 1.20607 42.4729 2.77849 42.7228C3.13129 45.7052 3.96167 48.5395 5.19048 51.148V60.0818C5.19048 60.6858 5.68002 61.1752 6.28385 61.1752C6.88769 61.1752 7.37723 60.6858 7.37723 60.0818V54.9604C11.735 61.3156 18.7013 65.736 26.743 66.6864C26.9924 68.2594 28.3578 69.4659 30.0001 69.4659C31.6422 69.4659 33.0074 68.2594 33.2569 66.6864C41.2986 65.7359 48.2647 61.3156 52.6226 54.9606V68.0809C52.6226 70.4925 50.6607 72.4544 48.2491 72.4544H11.7507C9.33919 72.4544 7.37723 70.4925 7.37723 68.0809V65.1842C7.37723 64.5802 6.88769 64.0908 6.28385 64.0908C5.68002 64.0908 5.19048 64.5802 5.19048 65.1842V68.0809C5.19048 71.6983 8.13341 74.6412 11.7507 74.6412H48.2491C51.8664 74.6412 54.8094 71.6983 54.8094 68.0809V51.1482C56.0382 48.5397 56.8686 45.7053 57.2214 42.7228C58.7939 42.4729 60 41.1076 60 39.4658C59.9999 37.8241 58.7939 36.4592 57.2215 36.2091ZM7.37767 6.56026C7.37767 4.14871 9.33962 2.18675 11.7512 2.18675H48.2488C50.6604 2.18675 52.6223 4.14871 52.6223 6.56026V23.9747C51.1066 21.7614 49.2786 19.7888 47.1643 18.0894C46.6938 17.7111 46.0057 17.786 45.6272 18.2566C45.2489 18.7274 45.3238 19.4155 45.7944 19.7938C50.8476 23.8553 54.1714 29.7826 55.0107 36.1677H53.0014C52.294 31.2327 49.9748 26.5943 46.4229 23.0427C42.8713 19.4914 38.2331 17.1727 33.298 16.4651V14.4552C36.2077 14.8338 38.9999 15.7079 41.6095 17.0621C41.7705 17.1456 41.9425 17.1853 42.1122 17.1853C42.5074 17.1853 42.8889 16.9702 43.0836 16.5951C43.3616 16.0592 43.1527 15.3993 42.6166 15.1211C39.6826 13.5985 36.5369 12.6321 33.2567 12.2448C33.0069 10.6721 31.6417 9.46602 29.9998 9.46602C28.3578 9.46602 26.9926 10.6724 26.743 12.2454C18.7014 13.1959 11.7354 17.6161 7.37767 23.9708V6.56026ZM50.7954 42.7217C50.0815 47.2766 47.8581 51.4756 44.5569 54.6499C44.3353 53.0095 43.5639 51.4661 42.3619 50.3102C41.2484 49.2396 39.8523 48.555 38.324 48.3302L36.5332 48.0667C35.8479 47.966 35.269 47.5288 34.9848 46.897L34.4038 45.6056C36.6033 44.4106 38.2774 42.3353 38.9233 39.7746L40.15 35.9301C40.4223 35.0782 40.5603 34.1908 40.5603 33.2924C40.5603 31.777 40.1613 30.2816 39.406 28.9673C37.6471 25.9071 34.3618 24.006 30.8322 24.006H29.128C27.5556 24.006 25.9861 24.3876 24.5893 25.1092C24.0528 25.3863 23.8426 26.046 24.1199 26.5823C24.397 27.1188 25.0566 27.3287 25.5932 27.0519C26.681 26.4899 27.9034 26.1926 29.128 26.1926H30.8322C33.5812 26.1926 36.14 27.6734 37.5101 30.0568C38.075 31.0398 38.3736 32.1587 38.3736 33.2923C38.3736 33.9642 38.2705 34.6277 38.0669 35.2646L37.4579 37.1729C36.521 35.796 35.9166 34.3817 35.5467 33.3126C35.2935 32.5802 34.7692 31.991 34.0705 31.6538C33.3697 31.3156 32.5793 31.2719 31.8464 31.5302C30.6702 31.9432 29.3671 31.9476 28.1874 31.5414C26.6635 30.9647 24.9463 31.7622 24.4179 33.3015C24.048 34.3736 23.4429 35.7921 22.5026 37.1732L21.8939 35.2655C21.356 33.5745 21.5372 31.7155 22.3915 30.1651C22.6829 29.6361 22.4902 28.9713 21.9613 28.6799C21.4324 28.3889 20.7675 28.5813 20.476 29.1099C19.3338 31.1835 19.0911 33.6687 19.8104 35.9295L21.0367 39.773C21.6856 42.3409 23.3738 44.4205 25.5922 45.6144L25.015 46.8968C24.7307 47.5287 24.1518 47.9659 23.4665 48.0666L21.6757 48.33C20.1474 48.5548 18.7511 49.2394 17.6376 50.3101C16.4345 51.467 15.6628 53.0124 15.4423 54.6547C12.1158 51.4699 9.90803 47.235 9.20215 42.722C10.7733 42.4708 11.9777 41.1064 11.9777 39.4657C11.9777 37.825 10.7733 36.4606 9.20215 36.2096C9.88704 31.8407 11.9691 27.7428 15.1232 24.589C18.277 21.4356 22.3749 19.3539 26.7437 18.6689C26.9952 20.2396 28.3594 21.4437 30.0001 21.4437C31.6406 21.4437 33.0047 20.2397 33.2561 18.6689C37.625 19.3538 41.723 21.4356 44.8767 24.589C48.0309 27.7429 50.1128 31.8409 50.7977 36.2097C49.2267 36.4609 48.0223 37.8253 48.0223 39.4661C48.0221 41.106 49.2254 42.4697 50.7954 42.7217ZM27.0092 47.7944L27.6293 46.4163C28.3887 46.6153 29.1835 46.7212 29.9999 46.7212C30.8159 46.7212 31.6104 46.6142 32.3691 46.4136L32.9905 47.7946C33.3556 48.6058 33.9544 49.2623 34.6943 49.6963C32.0492 52.2064 27.9616 52.2089 25.3054 49.6963C26.0453 49.2622 26.6441 48.6057 27.0092 47.7944ZM23.2997 39.7284C24.9704 37.7686 25.9493 35.5681 26.4851 34.0154C26.622 33.6103 27.0892 33.4343 27.475 33.6092C28.2892 33.8896 29.1389 34.0316 30.0001 34.0316C30.8784 34.0316 31.7435 33.8842 32.5721 33.5933C32.7532 33.5295 32.9478 33.5403 33.1204 33.6235C33.2908 33.7056 33.4187 33.8492 33.4804 34.0275C34.0167 35.5776 34.9953 37.7737 36.6615 39.7285C35.7189 42.5841 33.055 44.5341 30.0002 44.5341C26.9254 44.5343 24.2458 42.5841 23.2997 39.7284ZM28.8886 18.146V12.7639C28.8886 12.1512 29.3872 11.6528 30.0001 11.6528C30.6128 11.6528 31.1112 12.1512 31.1112 12.7639V18.146C31.1112 18.7586 30.6127 19.257 29.9998 19.257C29.3871 19.257 28.8886 18.7586 28.8886 18.146ZM26.7019 14.4549V16.4652C21.7669 17.1729 17.1285 19.4916 13.577 23.0428C10.025 26.5944 7.70583 31.2328 6.99849 36.1679H4.98813C6.46186 24.8618 15.3963 15.9276 26.7019 14.4549ZM2.18675 39.4658C2.18675 38.8531 2.68519 38.3546 3.29792 38.3546H8.67981C9.29254 38.3546 9.79097 38.8532 9.79097 39.4661C9.79097 40.0788 9.29254 40.5773 8.67981 40.5773H3.29792C2.68519 40.5773 2.18675 40.0787 2.18675 39.4658ZM26.7019 64.4769C15.3963 63.004 6.462 54.0701 4.98828 42.764H6.99863C7.70612 47.6989 10.0252 52.3373 13.5771 55.8888C17.1287 59.44 21.7669 61.7589 26.702 62.4665V64.4769H26.7019ZM31.1112 66.168C31.1112 66.7807 30.6127 67.2791 29.9998 67.2791C29.3871 67.2791 28.8886 66.7807 28.8886 66.168V60.7861C28.8886 60.1733 29.3872 59.6749 30.0001 59.6749C30.6128 59.6749 31.1112 60.1733 31.1112 60.7861V66.168ZM33.298 64.4769V62.4664C34.4998 62.2945 35.685 62.0302 36.8296 61.6761C37.4065 61.4973 37.7294 60.8851 37.5508 60.3082C37.3721 59.7313 36.7598 59.4086 36.1829 59.587C35.2331 59.881 34.2519 60.1066 33.2559 60.2621C33.0039 58.6919 31.64 57.4881 29.9998 57.4881C28.3594 57.4881 26.9953 58.6922 26.7438 60.2628C23.429 59.7431 20.2706 58.4187 17.5618 56.4327V55.6253C17.5618 54.222 18.1419 52.8592 19.1535 51.8866C19.9368 51.1334 20.9189 50.6518 21.9939 50.4936L22.838 50.3694L23.7255 51.2126C25.4162 52.8527 27.6445 53.7559 29.9999 53.7559C32.3554 53.7559 34.5835 52.8527 36.2718 51.2148L37.1503 50.3675L38.0058 50.4933C39.0808 50.6515 40.0629 51.1332 40.8462 51.8863C41.8577 52.8589 42.4379 54.2217 42.4379 55.625V56.4327C41.8584 56.8592 41.2563 57.2593 40.6305 57.6269C40.1099 57.9328 39.9357 58.6027 40.2415 59.1236C40.4452 59.4702 40.8102 59.6632 41.1853 59.6632C41.3735 59.6632 41.5642 59.6147 41.7381 59.5125C47.8351 55.9312 52.0074 49.7071 53.0025 42.7637H55.0117C53.538 54.0701 44.6035 63.0042 33.298 64.4769ZM56.7019 40.5773H51.32C50.7073 40.5773 50.2089 40.0787 50.2089 39.4658C50.2089 38.8531 50.7073 38.3546 51.32 38.3546H56.7019C57.3147 38.3546 57.8131 38.8532 57.8131 39.4661C57.8131 40.0788 57.3147 40.5773 56.7019 40.5773Z" fill="#2776EA"/>
<path d="M36.2184 6.56026C36.8222 6.56026 37.3118 6.07074 37.3118 5.46688C37.3118 4.86303 36.8222 4.3735 36.2184 4.3735C35.6145 4.3735 35.125 4.86303 35.125 5.46688C35.125 6.07074 35.6145 6.56026 36.2184 6.56026Z" fill="#2776EA"/>
</svg>
