<svg width="65" height="65" viewBox="0 0 65 65" fill="none" xmlns="http://www.w3.org/2000/svg">
<path d="M32.5 0C14.5737 0 0 14.5737 0 32.5C0 50.4263 14.5737 65 32.5 65C50.4263 65 65 50.4263 65 32.5C65 14.5737 50.4263 0 32.5 0ZM32.5 62.9474C15.7095 62.9474 2.05263 49.2905 2.05263 32.5C2.05263 15.7095 15.7095 2.05263 32.5 2.05263C49.2905 2.05263 62.9474 15.7095 62.9474 32.5C62.9474 49.2905 49.2905 62.9474 32.5 62.9474Z" fill="#2776EA"/>
<path d="M52.0123 29.1747L48.5365 27.9158C48.1944 26.6979 47.7018 25.5211 47.086 24.4126L48.646 21.06C48.8239 20.6632 48.7418 20.1979 48.4407 19.8968L45.1155 16.5716C44.8144 16.2705 44.3492 16.1884 43.9523 16.3663L40.5997 17.94C39.4913 17.3242 38.3144 16.8316 37.0965 16.4895L35.8376 13.0137C35.6871 12.6032 35.3039 12.3432 34.866 12.3432H30.1586C29.7207 12.3432 29.3376 12.6168 29.1871 13.0137L27.9281 16.4895C26.7102 16.8316 25.5334 17.3242 24.425 17.94L21.0723 16.3663C20.6755 16.1884 20.2102 16.2705 19.9092 16.5716L16.5839 19.8968C16.2828 20.1979 16.2007 20.6632 16.3786 21.06L17.9386 24.4126C17.3228 25.5211 16.8302 26.6979 16.4881 27.9158L13.0123 29.1747C12.6018 29.3253 12.3418 29.7084 12.3418 30.1463V34.8537C12.3418 35.2916 12.6155 35.6747 13.0123 35.8253L16.4881 37.0842C16.8302 38.3021 17.3228 39.479 17.9386 40.5874L16.3786 43.94C16.2007 44.3368 16.2828 44.8021 16.5839 45.1032L19.9092 48.4284C20.2102 48.7295 20.6755 48.8116 21.0723 48.6337L24.425 47.0737C25.5334 47.6895 26.7102 48.1821 27.9281 48.5242L29.1871 52C29.3376 52.4105 29.7207 52.6705 30.1586 52.6705H34.866C35.3039 52.6705 35.6871 52.3968 35.8376 52L37.0965 48.5242C38.3144 48.1821 39.4913 47.6895 40.5997 47.0737L43.9523 48.6337C44.3492 48.8116 44.8144 48.7295 45.1155 48.4284L48.4407 45.1032C48.7418 44.8021 48.8239 44.3368 48.646 43.94L47.086 40.5874C47.7018 39.479 48.1944 38.3021 48.5365 37.0842L52.0123 35.8253C52.4228 35.6747 52.6828 35.2916 52.6828 34.8537V30.1463C52.6828 29.7084 52.4092 29.3253 52.0123 29.1747ZM50.6302 34.1421L47.3186 35.3463C47.0039 35.4695 46.7576 35.7295 46.6755 36.0579C46.3334 37.4537 45.7723 38.7811 45.0334 40.0126C44.8555 40.3 44.8418 40.6695 44.9786 40.9705L46.4702 44.159L44.1576 46.4716L40.9692 44.98C40.6544 44.8295 40.2986 44.8568 40.0113 45.0347C38.7797 45.7737 37.4386 46.3211 36.0565 46.6768C35.7281 46.759 35.4544 47.0053 35.345 47.32L34.1407 50.6316H30.8565L29.6523 47.32C29.5428 47.0053 29.2692 46.759 28.9407 46.6768C27.545 46.3347 26.2176 45.7737 24.986 45.0347C24.6986 44.8568 24.3292 44.8432 24.0281 44.98L20.8397 46.4716L18.5271 44.159L20.0186 40.9705C20.1692 40.6558 20.1418 40.3 19.9639 40.0126C19.225 38.7811 18.6776 37.44 18.3218 36.0579C18.2397 35.7295 17.9934 35.4558 17.6786 35.3463L14.3671 34.1421V30.8579L17.6786 29.6537C17.9934 29.5442 18.2397 29.2705 18.3218 28.9421C18.6639 27.5463 19.225 26.219 19.9639 24.9874C20.1418 24.7 20.1555 24.3305 20.0186 24.0295L18.5271 20.8411L20.8397 18.5284L24.0281 20.02C24.3292 20.1568 24.6986 20.1432 24.986 19.9653C26.2176 19.2263 27.545 18.679 28.9407 18.3232C29.2692 18.2411 29.5428 17.9947 29.6523 17.68L30.8565 14.3684H34.1271L35.3313 17.68C35.4407 17.9947 35.7144 18.2411 36.0428 18.3232C37.4386 18.6653 38.766 19.2263 39.9976 19.9653C40.285 20.1432 40.6544 20.1568 40.9555 20.02L44.1439 18.5284L46.4565 20.8411L44.965 24.0295C44.8144 24.3442 44.8418 24.7 45.0197 24.9874C45.7586 26.219 46.306 27.56 46.6618 28.9421C46.7439 29.2705 46.9902 29.5442 47.305 29.6537L50.6165 30.8579V34.1421H50.6302Z" fill="#2776EA"/>
<path d="M39.2989 30.4474H38.861V28.08C38.861 24.5768 36.0147 21.7305 32.5116 21.7305C29.0084 21.7305 26.1621 24.5768 26.1621 28.08V30.4474H25.7242C24.78 30.4474 24.0273 31.2137 24.0273 32.1442V40.1905C24.0273 41.1347 24.7937 41.8874 25.7242 41.8874H39.3263C40.2705 41.8874 41.0231 41.121 41.0231 40.1905V32.1442C40.9958 31.2137 40.2294 30.4474 39.2989 30.4474ZM33.5242 38.6305H31.4716V35.921H33.5242V38.6305ZM36.7947 30.4474H28.1873V28.08C28.1873 25.7126 30.1168 23.7832 32.4842 23.7832C34.8516 23.7832 36.781 25.7126 36.781 28.08V30.4474H36.7947Z" fill="#2776EA"/>
</svg>
