<svg width="167" height="44" viewBox="0 0 167 44" fill="none" xmlns="http://www.w3.org/2000/svg">
<g clip-path="url(#clip0_1086_918923)">
<path d="M26.8879 36.4812C26.8887 34.1688 26.4887 31.8736 25.7053 29.6959L31.7841 24.6493V33.2723C38.1249 24.9851 41.3535 14.7616 40.9135 4.36455L20.2454 21.5556C18.974 20.4106 17.5631 19.4284 16.0454 18.6319L6.6509 21.6489L12.9453 16.361C13.1884 15.5827 13.5838 14.8596 14.109 14.2333C14.6341 13.607 15.2786 13.0897 16.0056 12.7111C16.7326 12.3324 17.5277 12.0999 18.3453 12.0269C19.1629 11.9538 19.987 12.0417 20.7704 12.2854L22.4282 12.8668L35.3044 2.15396C24.0474 -1.32375 10.1987 -0.58871 0.0470733 4.3481C-0.687914 20.0581 7.23117 35.1318 20.4941 43.8426C22.7749 42.3417 24.9148 40.6398 26.8879 38.7577V36.4812ZM21.732 23.0641L33.9891 12.8723V20.0033L24.8432 27.6827C24.025 26.0085 22.9781 24.4543 21.732 23.0641Z" fill="#01B3A2"/>
<path d="M70.5912 25.5817H65.2302L64.0639 29.0133H61.1816L66.2967 14.8068H69.5497L74.6421 29.0133H71.7595L70.5912 25.5817ZM69.8532 23.3684L67.9914 17.8894H67.8281L65.9796 23.3684H69.8532Z" fill="#01B3A2"/>
<path d="M80.9674 29.0119H78.2773V14.8054H80.9674V29.0119Z" fill="#01B3A2"/>
<path d="M93.9102 29.0119L90.9243 23.47H88.5912V29.0119H85.9531V14.8054H91.6193C94.4826 14.8054 96.2427 16.4888 96.2427 18.9861C96.2427 20.9135 95.1783 22.3338 93.4813 22.9896L96.7749 29.0176L93.9102 29.0119ZM88.5912 21.1957H91.3124C92.7031 21.1957 93.543 20.3225 93.543 19.1253C93.543 17.8671 92.7031 17.0759 91.3124 17.0759H88.5912V21.1957Z" fill="#01B3A2"/>
<path d="M110.537 25.1343C110.537 27.5898 108.9 29.0119 106.179 29.0119H100.922V14.8054H106.138C108.86 14.8054 110.173 16.2257 110.173 18.3361C110.173 20.1414 109.213 21.0146 108.149 21.5026V21.6036C109.29 22.0306 110.537 23.003 110.537 25.1343ZM102.743 20.9402H105.914C107.468 20.9402 108.327 20.0061 108.327 18.5858C108.327 17.1655 107.388 16.3324 105.975 16.3324H102.743V20.9402ZM108.656 25.039C108.656 23.5367 107.632 22.4615 106.016 22.4615H102.749V27.4944H106.043C107.676 27.4887 108.656 26.5145 108.656 25.0332V25.039Z" fill="#01B3A2"/>
<path d="M114.678 21.9085C114.678 17.7469 117.706 14.6013 121.757 14.6013C125.767 14.6013 128.815 17.7469 128.815 21.9085C128.815 26.0703 125.807 29.2139 121.757 29.2139C117.706 29.2139 114.678 26.0893 114.678 21.9085ZM126.931 21.9085C126.931 18.742 124.703 16.3056 121.757 16.3056C118.811 16.3056 116.569 18.742 116.569 21.9085C116.569 25.0751 118.797 27.5096 121.757 27.5096C124.716 27.5096 126.931 25.0732 126.931 21.9085Z" fill="#01B3A2"/>
<path d="M142.905 27.3476V29.0119H133.721V14.8054H135.538V27.3476H142.905Z" fill="#01B3A2"/>
<path d="M154.526 16.4697H150.396V29.0119H148.534V16.4697H144.402V14.8054H154.526V16.4697Z" fill="#01B3A2"/>
<path d="M162.843 14.4375C160.557 14.4375 158.686 16.2594 158.686 18.5625C158.686 20.8656 160.557 22.6875 162.843 22.6875C165.118 22.6875 167.001 20.8656 167.001 18.5625C167.001 16.2594 165.118 14.4375 162.843 14.4375ZM162.831 22.0229C160.938 22.0229 159.378 20.4646 159.378 18.5625C159.378 16.6604 160.938 15.1021 162.831 15.1021C164.737 15.1021 166.308 16.6604 166.308 18.5625C166.308 20.4646 164.737 22.0229 162.831 22.0229ZM164.276 17.7604C164.276 17.0271 163.802 16.5573 163.016 16.5573H161.492V20.5677H162.22V19.0094H162.82L163.687 20.5677H164.483L163.524 18.8604C163.987 18.6771 164.276 18.276 164.276 17.7604ZM162.22 17.1875H162.89C163.305 17.1875 163.536 17.4166 163.536 17.7719C163.536 18.1271 163.305 18.3791 162.89 18.3791H162.22V17.1875Z" fill="#01B3A2"/>
</g>
<defs>
<clipPath id="clip0_1086_918923">
<rect width="167" height="44" fill="white"/>
</clipPath>
</defs>
</svg>
