<svg width="65" height="75" viewBox="0 0 65 75" fill="none" xmlns="http://www.w3.org/2000/svg">
<path d="M26.0393 41.1082L20.6654 33.1047C20.3405 32.6207 20.4694 31.965 20.9533 31.6401C21.4377 31.3152 22.0933 31.4442 22.4179 31.9279L27.1475 38.9719L41.4572 27.3522C41.9094 26.9846 42.5744 27.0537 42.9417 27.5062C43.3093 27.9586 43.2403 28.6232 42.7878 28.9907L27.5809 41.339C27.3917 41.4928 27.1565 41.5751 26.9157 41.5751C26.8637 41.5751 26.8116 41.5714 26.7594 41.5635C26.4658 41.5196 26.2047 41.3544 26.0393 41.1082ZM42.2503 18.9772C39.1098 16.981 35.4186 15.9919 31.6467 16.1683C27.1119 16.3799 22.845 18.2656 19.6323 21.4781C13.4663 27.6443 12.5406 37.3485 17.4312 44.5523C17.6353 44.8529 17.9673 45.015 18.3052 45.015C18.5094 45.015 18.7156 44.9559 18.8972 44.8326C19.3793 44.5052 19.5049 43.8489 19.1775 43.3666C14.8549 36.9995 15.6739 28.4217 21.1248 22.9708C26.5207 17.5747 34.7807 16.7438 41.062 20.7202L39.4712 20.7836C38.8889 20.8067 38.4356 21.2978 38.4588 21.8802C38.4814 22.4483 38.9491 22.8936 39.5125 22.8936C39.5267 22.8936 39.5409 22.8933 39.5554 22.8927L44.0204 22.7146C44.3359 22.7021 44.6292 22.5487 44.8199 22.297C45.0105 22.0452 45.0783 21.7211 45.0048 21.4142L43.9635 17.069C43.8278 16.502 43.2573 16.1532 42.6913 16.2885C42.1244 16.4243 41.775 16.9941 41.9107 17.5607L42.2503 18.9772ZM43.8749 45.7205C38.4791 51.1162 30.2193 51.9473 23.9377 47.9711L25.5285 47.9076C26.1108 47.8845 26.5641 47.3935 26.5409 46.811C26.5177 46.2287 26.0342 45.7748 25.4443 45.7986L20.9792 45.9766C20.6636 45.9892 20.3704 46.1425 20.1796 46.3943C19.9891 46.6462 19.9212 46.9701 19.9948 47.2772L21.0362 51.6223C21.172 52.1891 21.7412 52.5378 22.3086 52.4027C22.8753 52.2669 23.2247 51.6971 23.089 51.1304L22.7494 49.714C25.652 51.5589 29.0252 52.5431 32.4963 52.543C32.7811 52.543 33.0673 52.5363 33.3533 52.5231C37.8881 52.3115 42.155 50.4258 45.3677 47.2133C51.5337 41.0471 52.4594 31.3429 47.5688 24.1391C47.2413 23.6569 46.585 23.5309 46.1028 23.8588C45.6207 24.1861 45.4951 24.8425 45.8226 25.3248C50.1448 31.6918 49.3259 40.2696 43.8749 45.7205ZM65 9.72714V37.2006C65 41.572 63.9481 45.976 61.8737 50.29C60.0099 54.166 57.3688 57.885 54.024 61.3435C47.9685 67.6049 40.0241 72.5031 32.7733 74.4459C32.6837 74.4701 32.5917 74.482 32.4999 74.482C32.4081 74.482 32.3161 74.4701 32.2267 74.4461C24.9757 72.5031 17.0315 67.6051 10.976 61.3436C7.63109 57.8852 4.99014 54.1662 3.12628 50.2901C1.05179 45.9762 0 41.5721 0 37.2007V9.72714C0 9.17681 0.42307 8.71876 0.971734 8.67504C10.1093 7.94816 17.8176 3.66304 22.6749 0.196458C22.8538 0.0686019 23.0682 0 23.288 0H41.7117C41.9315 0 42.1459 0.0686019 42.3248 0.196458C47.1821 3.66304 54.8904 7.94816 64.028 8.67504C64.5769 8.71861 65 9.17666 65 9.72714ZM62.8892 10.6888C55.676 9.91952 48.2651 6.96678 41.3755 2.11083H23.6244C16.7348 6.96678 9.32382 9.91952 2.11083 10.6888V37.2006C2.11083 54.4534 19.9794 68.8391 32.5001 72.3326C45.0207 68.8391 62.8893 54.4534 62.8893 37.2006V10.6888H62.8892ZM41.0804 3.99805C47.2875 8.22121 53.7381 10.9457 60.2535 12.0958C60.7578 12.1849 61.1254 12.623 61.1254 13.1352V37.2012C61.1254 41.0902 60.1493 45.0345 58.2243 48.9246C56.5437 52.3203 54.1856 55.5994 51.2156 58.6705C45.976 64.088 39.0969 68.4902 32.8137 70.4465C32.7115 70.4783 32.6058 70.4942 32.4999 70.4942C32.3941 70.4942 32.2884 70.4783 32.1862 70.4465C25.903 68.4901 19.0238 64.0878 13.7844 58.6705C10.8142 55.5994 8.45612 52.3204 6.7756 48.9246C4.85038 45.0345 3.87442 41.0902 3.87442 37.2012V13.1351C3.87442 12.623 4.24201 12.1847 4.74634 12.0956C11.2617 10.9455 17.7124 8.22106 23.9194 3.9979C24.0945 3.87879 24.3013 3.81502 24.5132 3.81502H40.4868C40.6985 3.81517 40.9054 3.87894 41.0804 3.99805ZM59.0146 14.0115C52.5963 12.7456 46.2601 10.0287 40.1633 5.92599H24.8366C18.7396 10.0287 12.4035 12.7456 5.98525 14.0115V37.2012C5.98525 43.8875 9.29381 50.9909 15.3018 57.2031C20.2187 62.2871 26.6241 66.4278 32.4999 68.3315C38.3759 66.4278 44.7812 62.2871 49.6982 57.2031C55.706 50.9909 59.0146 43.8875 59.0146 37.2012V14.0115Z" fill="#2776EA"/>
</svg>
