<svg width="65" height="65" viewBox="0 0 65 65" fill="none" xmlns="http://www.w3.org/2000/svg">
<path d="M59.3446 18.3619H53.4465V6.78687C53.4465 3.04465 50.402 0 46.6596 0H19.5572C15.815 0 12.7704 3.04452 12.7704 6.78687V17.3817C5.63334 17.9522 0 23.9422 0 31.2237C0 38.505 5.63334 44.4951 12.7704 45.0656V57.3396C12.7704 61.0818 15.8149 64.1264 19.5572 64.1264H46.6596C50.4018 64.1264 53.4465 61.0819 53.4465 57.3396V43.7016H59.3446C62.4629 43.7016 65 41.1646 65 38.0462V24.0173C65 20.8988 62.4629 18.3619 59.3446 18.3619ZM2.23307 31.2237C2.23307 24.7977 7.46097 19.5698 13.8869 19.5698C20.3129 19.5698 25.5408 24.7977 25.5408 31.2237C25.5408 37.6496 20.3129 42.8775 13.8869 42.8775C7.46097 42.8775 2.23307 37.6496 2.23307 31.2237ZM51.2136 57.3394C51.2136 59.8504 49.1707 61.8932 46.6598 61.8932H19.5572C17.0463 61.8932 15.0035 59.8504 15.0035 57.3394V45.0655C22.1406 44.4949 27.7738 38.505 27.7738 31.2235C27.7738 23.942 22.1406 17.9521 15.0035 17.3815V6.78687C15.0035 4.27592 17.0463 2.23307 19.5572 2.23307H46.6596C49.1706 2.23307 51.2134 4.27592 51.2134 6.78687V18.362H45.3153C42.197 18.362 39.6599 20.8989 39.6599 24.0174V38.0465C39.6599 41.1649 42.197 43.7019 45.3153 43.7019H51.2134V57.3394H51.2136ZM62.7669 38.0462C62.7669 39.9333 61.2317 41.4686 59.3446 41.4686H45.3153C43.4282 41.4686 41.893 39.9333 41.893 38.0462V24.0173C41.893 22.1302 43.4282 20.5949 45.3153 20.5949H59.3446C61.2317 20.5949 62.7669 22.1302 62.7669 24.0173V38.0462ZM56.7475 36.0223C56.7475 36.6389 56.2476 37.1388 55.631 37.1388C51.375 37.1388 47.9125 33.6763 47.9125 29.4203C47.9125 28.0302 48.2885 26.6641 49 25.47C49.3157 24.9402 50.001 24.7666 50.5308 25.0823C51.0606 25.3979 51.2341 26.0831 50.9185 26.6129C50.4129 27.4616 50.1456 28.4323 50.1456 29.4203C50.1456 32.445 52.6063 34.9057 55.631 34.9057C56.2476 34.9057 56.7475 35.4055 56.7475 36.0223ZM37.4779 56.2455C37.4779 56.8621 36.978 57.362 36.3614 57.362H29.8555C29.2389 57.362 28.7389 56.8621 28.7389 56.2455C28.7389 55.6289 29.2389 55.129 29.8555 55.129H36.3614C36.978 55.129 37.4779 55.6289 37.4779 56.2455ZM37.4779 7.88079C37.4779 8.4974 36.978 8.99733 36.3614 8.99733H29.8555C29.2389 8.99733 28.7389 8.4974 28.7389 7.88079C28.7389 7.26419 29.2389 6.76426 29.8555 6.76426H36.3614C36.978 6.76426 37.4779 7.26405 37.4779 7.88079ZM14.6534 32.0354L11.0526 35.4354C10.8368 35.639 10.5612 35.74 10.2862 35.74C9.98979 35.74 9.69391 35.6227 9.47437 35.39C9.05106 34.9417 9.07116 34.2351 9.51959 33.8116L12.7704 30.7422V23.6382C12.7704 23.0216 13.2703 22.5217 13.8869 22.5217C14.5035 22.5217 15.0035 23.0216 15.0035 23.6382V31.2235C15.0035 31.5308 14.8769 31.8245 14.6534 32.0354Z" fill="#2776EA"/>
</svg>
