<svg width="66" height="66" viewBox="0 0 66 66" fill="none" xmlns="http://www.w3.org/2000/svg">
<path d="M35.6789 65.3527C37.552 65.3507 39.3479 64.6058 40.6725 63.2812C41.997 61.9567 42.742 60.1608 42.7439 58.2876V7.41912C42.742 5.54594 41.997 3.75004 40.6725 2.42551C39.3479 1.10097 37.552 0.355995 35.6789 0.35405H7.41858C5.54541 0.355995 3.74951 1.10097 2.42497 2.42551C1.10044 3.75004 0.355461 5.54594 0.353516 7.41912V58.2876C0.355461 60.1608 1.10044 61.9567 2.42497 63.2812C3.74951 64.6058 5.54541 65.3507 7.41858 65.3527H35.6789ZM3.17954 58.2876V7.41912C3.18081 6.29524 3.62783 5.21777 4.42253 4.42307C5.21723 3.62837 6.29471 3.18135 7.41858 3.18008H35.6789C36.8027 3.18135 37.8802 3.62837 38.6749 4.42307C39.4696 5.21777 39.9166 6.29524 39.9179 7.41912V58.2876C39.9166 59.4115 39.4696 60.489 38.6749 61.2837C37.8802 62.0784 36.8027 62.5254 35.6789 62.5266H7.41858C6.29471 62.5254 5.21723 62.0784 4.42253 61.2837C3.62783 60.489 3.18081 59.4115 3.17954 58.2876Z" fill="#2776EA"/>
<path d="M15.8975 8.83227H27.2016C27.4639 8.83195 27.7211 8.75875 27.9443 8.62083C28.1675 8.4829 28.348 8.28568 28.4656 8.05115L31.2917 2.3991C31.3747 2.2331 31.4241 2.05238 31.4373 1.86725C31.4504 1.68213 31.427 1.49624 31.3683 1.32018C31.3095 1.14412 31.2167 0.981348 31.0951 0.841156C30.9735 0.700964 30.8255 0.586098 30.6595 0.503116C30.4935 0.420134 30.3128 0.370661 30.1276 0.357521C29.9425 0.344382 29.7566 0.367833 29.5806 0.426537C29.4045 0.48524 29.2417 0.578046 29.1016 0.699656C28.9614 0.821265 28.8465 0.969297 28.7635 1.1353L26.328 6.00624H16.771L14.3355 1.1353C14.1679 0.800043 13.874 0.545094 13.5184 0.426537C13.1629 0.307979 12.7748 0.335526 12.4395 0.503116C12.1043 0.670706 11.8493 0.964612 11.7308 1.32018C11.6122 1.67574 11.6398 2.06384 11.8073 2.3991L14.6334 8.05115C14.751 8.28568 14.9315 8.4829 15.1547 8.62083C15.3779 8.75875 15.6351 8.83195 15.8975 8.83227Z" fill="#2776EA"/>
<path d="M41.3309 54.0487C41.7057 54.0487 42.0651 53.8998 42.3301 53.6348C42.5951 53.3698 42.7439 53.0104 42.7439 52.6357C42.7439 52.2609 42.5951 51.9015 42.3301 51.6365C42.0651 51.3715 41.7057 51.2227 41.3309 51.2227H1.76653C1.39177 51.2227 1.03237 51.3715 0.767378 51.6365C0.502386 51.9015 0.353516 52.2609 0.353516 52.6357C0.353516 53.0104 0.502386 53.3698 0.767378 53.6348C1.03237 53.8998 1.39177 54.0487 1.76653 54.0487H41.3309Z" fill="#2776EA"/>
<path d="M44.1572 46.9836C47.6345 47.0002 51.0518 46.0776 54.0483 44.313C57.8196 42.1357 60.7671 38.7747 62.4336 34.7515C64.1 30.7282 64.3924 26.2675 63.2653 22.0612C62.1382 17.8548 59.6547 14.1379 56.1998 11.4869C52.745 8.8359 48.5119 7.39897 44.1572 7.39897C39.8025 7.39897 35.5694 8.8359 32.1146 11.4869C28.6597 14.1379 26.1762 17.8548 25.0491 22.0612C23.922 26.2675 24.2144 30.7282 25.8808 34.7515C27.5473 38.7747 30.4948 42.1357 34.2661 44.313C37.2625 46.0776 40.6798 47.0002 44.1572 46.9836Z" fill="white"/>
<path d="M44.1565 48.3966C47.8812 48.4087 51.5409 47.4214 54.7541 45.5376C58.7945 43.2053 61.9526 39.6051 63.7386 35.2953C65.5246 30.9854 65.8388 26.2067 64.6324 21.7002C63.426 17.1936 60.7665 13.211 57.0662 10.3698C53.3659 7.52862 48.8315 5.98766 44.1663 5.98586C39.501 5.98405 34.9655 7.52151 31.263 10.3598C27.5605 13.1981 24.8979 17.1787 23.6881 21.6844C22.4782 26.19 22.7887 30.9689 24.5713 35.2801C26.354 39.5913 29.5093 43.194 33.5479 45.5294C36.7638 47.4173 40.4274 48.4075 44.1565 48.3966ZM25.7873 27.2014C25.7823 23.1568 27.1124 19.2236 29.5711 16.012C32.0299 12.8005 35.4798 10.4903 39.3857 9.43982C43.2916 8.38934 47.4349 8.65736 51.1729 10.2023C54.9109 11.7472 58.0345 14.4827 60.059 17.9842C62.0835 21.4857 62.8957 25.5575 62.3696 29.5678C61.8436 33.5781 60.0086 37.3027 57.1495 40.1636C54.2904 43.0245 50.567 44.8617 46.557 45.3903C42.547 45.9189 38.4747 45.1092 34.9719 43.0868C32.1842 41.4749 29.8687 39.1592 28.2569 36.3715C26.645 33.5837 25.7935 30.4216 25.7873 27.2014Z" fill="#2776EA"/>
<path d="M52.1635 23.9035C52.1633 22.3198 51.6934 20.7717 50.8133 19.4551C49.9333 18.1385 48.6826 17.1123 47.2194 16.5065C45.7562 15.9006 44.1461 15.7422 42.5929 16.0514C41.0397 16.3605 39.613 17.1233 38.4933 18.2432C37.3736 19.3631 36.6111 20.7899 36.3022 22.3432C35.9933 23.8965 36.152 25.5065 36.7581 26.9696C37.3642 28.4327 38.3906 29.6832 39.7074 30.563C41.0242 31.4428 42.5723 31.9124 44.156 31.9124C46.2794 31.9105 48.3152 31.066 49.8165 29.5644C51.3179 28.0628 52.162 26.0269 52.1635 23.9035ZM38.9745 23.9035C38.9747 22.8787 39.2789 21.8771 39.8484 21.0252C40.4179 20.1732 41.2273 19.5093 42.1741 19.1174C43.1209 18.7254 44.1627 18.623 45.1677 18.8231C46.1727 19.0232 47.0959 19.5168 47.8204 20.2415C48.5449 20.9662 49.0382 21.8895 49.2381 22.8945C49.4379 23.8996 49.3352 24.9414 48.943 25.8881C48.5507 26.8348 47.8866 27.644 47.0345 28.2133C46.1825 28.7825 45.1807 29.0864 44.156 29.0864C42.7819 29.0851 41.4645 28.5386 40.493 27.5669C39.5215 26.5951 38.9754 25.2775 38.9745 23.9035Z" fill="#2776EA"/>
<path d="M54.7677 45.5294C54.9792 45.4043 55.1545 45.2263 55.2762 45.0129C55.3979 44.7994 55.4619 44.5579 55.4617 44.3122V40.3905C55.4617 37.3925 54.2708 34.5172 52.1508 32.3973C50.0309 30.2774 47.1557 29.0864 44.1576 29.0864C41.1596 29.0864 38.2843 30.2774 36.1644 32.3973C34.0445 34.5172 32.8535 37.3925 32.8535 40.3905V44.3122C32.8534 44.5579 32.9173 44.7994 33.0391 45.0129C33.1608 45.2263 33.3361 45.4043 33.5476 45.5294C36.7682 47.4072 40.4295 48.3967 44.1576 48.3967C47.8857 48.3967 51.547 47.4072 54.7677 45.5294ZM35.6795 40.3905C35.6795 38.142 36.5728 35.9856 38.1627 34.3956C39.7527 32.8057 41.9091 31.9124 44.1576 31.9124C46.4062 31.9124 48.5626 32.8057 50.1525 34.3956C51.7425 35.9856 52.6357 38.142 52.6357 40.3905V43.487C50.0174 44.8495 47.1092 45.5609 44.1576 45.5609C41.206 45.5609 38.2979 44.8495 35.6795 43.487V40.3905Z" fill="#2776EA"/>
<path d="M63.9391 38.891C63.9391 37.2905 63.4645 35.7258 62.5753 34.395C61.6861 33.0642 60.4222 32.0269 58.9434 31.4144C57.4647 30.8019 55.8375 30.6417 54.2677 30.9539C52.6979 31.2662 51.256 32.0369 50.1242 33.1687C48.9924 34.3005 48.2217 35.7424 47.9094 37.3122C47.5972 38.882 47.7574 40.5092 48.3699 41.9879C48.9824 43.4667 50.0197 44.7306 51.3505 45.6198C52.6813 46.509 54.246 46.9836 55.8465 46.9836C57.9928 46.9836 60.0511 46.1309 61.5688 44.6133C63.0864 43.0956 63.9391 41.0373 63.9391 38.891Z" fill="white"/>
<path d="M65.3531 38.8919C65.3532 37.0118 64.7959 35.1739 63.7515 33.6107C62.7071 32.0474 61.2227 30.8289 59.4858 30.1093C57.7489 29.3897 55.8376 29.2013 53.9937 29.5679C52.1497 29.9345 50.4559 30.8397 49.1264 32.169C47.7969 33.4983 46.8915 35.192 46.5246 37.0359C46.1577 38.8798 46.3458 40.7911 47.0651 42.5281C47.7845 44.2651 49.0027 45.7497 50.5659 46.7943C52.129 47.8389 53.9668 48.3965 55.8469 48.3966C58.367 48.394 60.7831 47.3917 62.5653 45.6099C64.3474 43.828 65.35 41.412 65.3531 38.8919ZM49.1681 38.8919C49.1679 37.5707 49.5596 36.2791 50.2935 35.1806C51.0274 34.082 52.0706 33.2257 53.2911 32.72C54.5117 32.2144 55.8548 32.082 57.1506 32.3397C58.4464 32.5974 59.6367 33.2336 60.5709 34.1678C61.5051 35.102 62.1413 36.2923 62.399 37.5881C62.6567 38.8839 62.5244 40.227 62.0187 41.4476C61.513 42.6682 60.6568 43.7114 59.5582 44.4453C58.4596 45.1792 57.168 45.5708 55.8469 45.5706C54.0762 45.5684 52.3788 44.864 51.1267 43.612C49.8747 42.36 49.1704 40.6625 49.1681 38.8919Z" fill="#2776EA"/>
<path d="M54.9478 42.1017C55.1334 42.1018 55.3172 42.0653 55.4886 41.9943C55.66 41.9232 55.8157 41.819 55.9468 41.6877L59.5426 38.0915C59.6776 37.9612 59.7852 37.8053 59.8593 37.6329C59.9334 37.4605 59.9723 37.2751 59.974 37.0875C59.9756 36.8998 59.9398 36.7138 59.8688 36.5401C59.7978 36.3665 59.6928 36.2087 59.5602 36.076C59.4275 35.9434 59.2697 35.8384 59.0961 35.7674C58.9224 35.6963 58.7363 35.6606 58.5487 35.6622C58.3611 35.6638 58.1757 35.7028 58.0033 35.7769C57.8309 35.8509 57.675 35.9586 57.5446 36.0935L54.9464 38.6904L54.1475 37.8929C54.0169 37.7589 53.861 37.6522 53.6889 37.579C53.5168 37.5058 53.3318 37.4674 53.1447 37.4662C52.9577 37.465 52.7722 37.501 52.5992 37.572C52.4261 37.643 52.2689 37.7477 52.1366 37.88C52.0043 38.0123 51.8996 38.1695 51.8285 38.3425C51.7575 38.5156 51.7215 38.701 51.7227 38.8881C51.7239 39.0751 51.7622 39.2601 51.8354 39.4322C51.9086 39.6044 52.0153 39.7603 52.1492 39.8909L53.9485 41.6877C54.0796 41.8191 54.2354 41.9233 54.4069 41.9943C54.5784 42.0654 54.7622 42.1019 54.9478 42.1017Z" fill="#2776EA"/>
</svg>
