<svg width="64" height="49" viewBox="0 0 64 49" fill="none" xmlns="http://www.w3.org/2000/svg">
<path d="M8.07443 42.3665C7.0718 44.6743 8.59651 46.9881 6.78703 48.667C4.86483 48.1568 5.32165 46.6736 5.32165 45.4871C5.29199 36.9855 5.30385 28.4839 5.30385 19.9883C5.30385 14.2691 5.30385 8.54997 5.30385 2.42147C3.98678 2.42147 2.81804 2.55792 1.70862 2.36807C1.09162 2.26128 0.563608 1.60868 0 1.19933C0.599205 0.819632 1.19248 0.422141 1.80948 0.0721106C1.9578 -0.0109475 2.1951 0.0602436 2.39682 0.0543109C7.32098 -0.129603 7.32098 -0.129604 7.98544 4.89541C8.98214 4.89541 10.0382 4.89541 11.0942 4.89541C26.4125 4.89541 41.7367 4.89541 57.055 4.90134C58.0398 4.90134 59.0484 4.87168 60.0035 5.06153C62.5012 5.55988 63.9547 7.26257 63.9666 9.8433C64.0081 19.0331 64.0141 28.2288 63.9666 37.4186C63.9547 40.5867 62.2224 42.3012 58.9831 42.3368C52.9555 42.4021 46.9219 42.3605 40.8942 42.3605C37.2397 42.3605 33.5792 42.3665 29.9246 42.3546C29.2364 42.3546 28.5304 42.3487 27.8719 42.1944C27.5812 42.1292 27.1363 41.6308 27.1778 41.4232C27.2668 41.0316 27.6049 40.4799 27.9372 40.4027C28.6906 40.2248 29.5034 40.2604 30.2925 40.2544C38.9898 40.2485 47.6872 40.2485 56.3846 40.2485C57.0787 40.2485 57.7728 40.2782 58.461 40.2366C60.9053 40.0942 61.6113 39.4238 61.6291 36.9796C61.6647 31.5452 61.641 26.1049 61.641 20.6705C61.641 17.3126 61.6706 13.9487 61.6291 10.5908C61.5994 7.95076 60.929 7.24477 58.289 7.2329C51.1697 7.19137 44.0564 7.22104 36.9371 7.22104C28.2397 7.22104 19.5424 7.22104 10.845 7.22104C10.0678 7.22104 9.29657 7.22104 8.28208 7.22104C8.28208 18.2381 8.28208 29.0416 8.28208 40.2485C11.4146 40.2485 14.553 40.1654 17.6795 40.29C18.8838 40.3375 21.0256 39.501 21.0374 41.3876C21.0434 42.9775 18.9728 42.2953 17.81 42.3309C14.5589 42.4258 11.3137 42.3665 8.07443 42.3665Z" fill="#0274BA"/>
<path d="M16.8726 10.134C18.1481 10.134 19.4296 10.0925 20.7051 10.1459C22.7875 10.2289 23.2265 10.6739 23.3867 12.8037C23.4401 13.486 23.4282 14.1801 23.3986 14.8683C23.2918 17.1168 22.7994 17.6804 20.5983 17.7457C18.1422 17.8169 15.6801 17.8287 13.2299 17.7397C11.1772 17.6686 10.6847 17.0812 10.572 15.0522C10.311 10.4544 10.6076 10.134 15.1046 10.134C15.692 10.134 16.2852 10.134 16.8726 10.134ZM12.9154 12.5783C13.0104 13.6699 13.0816 14.4886 13.1468 15.2539C15.8996 15.2539 18.4032 15.2539 21.1441 15.2539C21.0729 14.2335 21.0136 13.4267 20.9543 12.5783C18.2371 12.5783 15.7987 12.5783 12.9154 12.5783Z" fill="#0274BA"/>
<path d="M32.0961 10.1459C33.4725 10.1459 34.8548 10.1162 36.2312 10.1518C37.6313 10.1933 38.3907 10.9646 38.4678 12.3647C38.4975 12.952 38.4856 13.5453 38.4856 14.1386C38.4678 17.2651 38.0347 17.716 34.92 17.7516C32.7546 17.7753 30.5891 17.8109 28.4237 17.7397C26.2167 17.6686 25.6887 17.0931 25.5641 14.892C25.5226 14.2038 25.5226 13.5097 25.5701 12.8275C25.7125 10.7925 26.2583 10.2349 28.2695 10.1459C29.545 10.0925 30.8265 10.134 32.1079 10.134C32.0961 10.1399 32.0961 10.1399 32.0961 10.1459ZM35.9939 12.7029C33.1462 12.7029 30.5595 12.7029 27.7711 12.7029C27.9016 13.7411 28.0084 14.5479 28.0974 15.2836C30.8799 15.2836 33.3835 15.2836 35.9939 15.2836C35.9939 14.37 35.9939 13.6165 35.9939 12.7029Z" fill="#0274BA"/>
<path d="M22.6514 25.1616C19.9935 25.1616 17.3297 25.1675 14.6718 25.1557C14.0845 25.1497 13.4734 25.1616 12.9217 24.9955C12.6251 24.9065 12.192 24.4141 12.2394 24.2005C12.3284 23.8089 12.6666 23.3047 13.0166 23.1741C13.5446 22.9784 14.1794 23.0377 14.7668 23.0377C19.9876 23.0317 25.2084 23.0317 30.4292 23.0377C31.0165 23.0377 31.6454 22.9961 32.1793 23.186C32.5412 23.3165 33.0158 23.8327 32.9921 24.1471C32.9743 24.4734 32.4522 24.9836 32.0903 25.037C31.1233 25.1853 30.1266 25.1438 29.1477 25.1497C26.9882 25.1675 24.8227 25.1616 22.6514 25.1616Z" fill="#0274BA"/>
<path d="M56.5805 22.0766C52.5581 22.0766 48.5298 22.1122 44.5074 22.0291C44.0269 22.0172 43.5523 21.3706 43.0776 21.0205C43.5701 20.6409 44.0565 19.9467 44.5549 19.9349C48.1976 19.8459 51.8462 19.834 55.483 19.9586C56.0406 19.9764 56.5746 20.801 57.1204 21.2519C56.9424 21.5248 56.7644 21.7977 56.5805 22.0766Z" fill="#0274BA"/>
<path d="M57.12 34.1793C56.5327 34.5709 55.9513 35.2769 55.3521 35.2947C51.8103 35.4015 48.2684 35.4074 44.7266 35.3006C44.163 35.2828 43.6172 34.5234 43.0654 34.1081C43.5934 33.7996 44.1215 33.242 44.6554 33.2301C48.6719 33.153 52.6883 33.1886 56.7048 33.1886C56.8412 33.5149 56.9777 33.8471 57.12 34.1793Z" fill="#0274BA"/>
<path d="M28.2869 31.4918C27.7055 31.7291 27.1241 32.1681 26.5427 32.1741C22.3304 32.2334 18.1123 32.2512 13.8941 32.1622C13.3186 32.1503 12.7609 31.4621 12.1914 31.0884C12.7135 30.7561 13.2296 30.151 13.7636 30.1391C17.9758 30.062 22.194 30.062 26.4121 30.1273C27.0588 30.1391 27.6936 30.6078 28.3343 30.8689C28.3165 31.0765 28.2987 31.2842 28.2869 31.4918Z" fill="#0274BA"/>
<path d="M50.3035 26.5617C52.0715 26.5617 53.8394 26.5024 55.6015 26.6032C56.0523 26.627 56.4676 27.1787 56.9007 27.4931C56.4617 27.8847 56.0286 28.6144 55.5777 28.6263C51.852 28.7212 48.1203 28.7093 44.3946 28.6441C43.9555 28.6382 43.5224 28.0746 43.0894 27.766C43.5343 27.3626 43.9555 26.6448 44.4183 26.6151C46.3702 26.4846 48.3398 26.5617 50.3035 26.5617C50.3035 26.5558 50.3035 26.5558 50.3035 26.5617Z" fill="#0274BA"/>
</svg>
