<svg width="106" height="26" viewBox="0 0 106 26" fill="none" xmlns="http://www.w3.org/2000/svg">
<mask id="mask0_1127_956363" style="mask-type:luminance" maskUnits="userSpaceOnUse" x="0" y="0" width="26" height="26">
<rect width="25.8727" height="25.8071" rx="10" fill="white"/>
</mask>
<g mask="url(#mask0_1127_956363)">
<rect width="25.8727" height="25.8071" fill="white"/>
</g>
<g clip-path="url(#clip0_1127_956363)">
<mask id="mask1_1127_956363" style="mask-type:luminance" maskUnits="userSpaceOnUse" x="2" y="3" width="24" height="19">
<path d="M25.8729 3.62915H2.02148V21.7748H25.8729V3.62915Z" fill="white"/>
</mask>
<g mask="url(#mask1_1127_956363)">
<path d="M10.7126 14.901L13.8415 9.47034L15.2445 11.9026C16.2564 11.3739 17.2124 11.0193 18.0692 10.9571L13.8352 3.62915L5.32397 18.4094C6.91324 17.7002 8.79429 16.3006 10.7126 14.901Z" fill="#232327"/>
<mask id="mask2_1127_956363" style="mask-type:luminance" maskUnits="userSpaceOnUse" x="16" y="12" width="6" height="6">
<path d="M21.4526 12.8979H16.511V17.2959H21.4526V12.8979Z" fill="white"/>
</mask>
<g mask="url(#mask2_1127_956363)">
<path d="M16.5481 14.1732L18.3174 17.24H21.6884L19.2176 12.9602C18.4416 13.1095 17.5352 13.5574 16.5481 14.1732Z" fill="#232327"/>
</g>
<mask id="mask3_1127_956363" style="mask-type:luminance" maskUnits="userSpaceOnUse" x="2" y="11" width="20" height="11">
<path d="M21.4528 11.9026H2.02148V21.7748H21.4528V11.9026Z" fill="white"/>
</mask>
<g mask="url(#mask3_1127_956363)">
<path d="M21.6823 16.0579C19.1804 2.37252 3.11392 27.9083 1.13354 17.103C3.7906 31.6282 19.9564 6.62122 21.6823 16.0579Z" fill="#FF3901"/>
</g>
</g>
</g>
<g clip-path="url(#clip1_1127_956363)">
<path d="M35.6727 8.53271H36.4983L40.0697 16.378H39.1185L38.2026 14.3187H33.935L33.0074 16.378H32.1013L35.6727 8.53271ZM37.8555 13.5309L36.0728 9.55652L34.2822 13.5309H37.8535H37.8555Z" fill="#232327"/>
<path d="M43.6821 10.6254H44.5411V11.6258C44.7373 11.3158 44.9922 11.0505 45.306 10.8341C45.6178 10.6137 46.0258 10.5045 46.5239 10.5045C46.875 10.5045 47.1868 10.5611 47.4594 10.6703C47.732 10.7814 47.9634 10.9413 48.1537 11.1461C48.3439 11.3489 48.489 11.5927 48.591 11.8735C48.691 12.1563 48.742 12.4663 48.742 12.8076V16.3783H47.8791V13.0182C47.8791 12.4858 47.7399 12.0627 47.4614 11.7506C47.1848 11.4406 46.7906 11.2826 46.2768 11.2826C46.0317 11.2826 45.8002 11.3255 45.5865 11.4133C45.3746 11.4971 45.1883 11.62 45.0314 11.7799C44.8765 11.9378 44.7549 12.129 44.6686 12.3532C44.5843 12.5755 44.5411 12.8193 44.5411 13.0845V16.3802H43.6821V10.6254Z" fill="#232327"/>
<path d="M55.3511 18.1831C54.8667 18.1831 54.4038 18.1148 53.9625 17.9803C53.5232 17.8477 53.1094 17.6488 52.7211 17.3835L53.1133 16.7127C53.4487 16.9506 53.7978 17.132 54.1626 17.2568C54.5313 17.3835 54.9235 17.4479 55.3393 17.4479C55.9826 17.4479 56.4925 17.2743 56.871 16.9272C57.2515 16.582 57.4437 16.0731 57.4437 15.4003V14.7216C57.1907 15.0551 56.8788 15.3418 56.5121 15.5797C56.1473 15.8156 55.7002 15.9327 55.1726 15.9327C54.8215 15.9327 54.4823 15.8703 54.1587 15.7454C53.8331 15.6187 53.5448 15.4393 53.2918 15.2053C53.0388 14.9732 52.8348 14.6904 52.6779 14.3609C52.525 14.0313 52.4485 13.6588 52.4485 13.2434V13.2181C52.4485 12.7949 52.525 12.4186 52.6779 12.0851C52.8329 11.7497 53.0368 11.4649 53.2918 11.2309C53.5448 10.9989 53.8351 10.8195 54.1626 10.6947C54.4921 10.5679 54.8294 10.5035 55.1726 10.5035C55.4432 10.5035 55.6904 10.5347 55.9159 10.5971C56.1454 10.6595 56.3493 10.7434 56.5337 10.8487C56.7161 10.9521 56.8808 11.0749 57.0279 11.2153C57.177 11.3557 57.3123 11.5059 57.4319 11.6619V10.6264H58.2948V15.3749C58.2948 15.8215 58.2301 16.2135 58.1026 16.5489C57.9771 16.8863 57.7947 17.1749 57.5555 17.4147C57.2966 17.6741 56.9808 17.8672 56.6082 17.992C56.2336 18.1187 55.8159 18.1831 55.353 18.1831H55.3511ZM55.3393 15.176C55.6139 15.176 55.8786 15.1312 56.1316 15.0376C56.3866 14.9459 56.6141 14.8133 56.8102 14.6397C57.0083 14.4642 57.1671 14.2575 57.2848 14.0215C57.4045 13.7836 57.4652 13.5204 57.4652 13.2298V13.2044C57.4652 12.91 57.4045 12.6428 57.2848 12.4088C57.1671 12.1709 57.0083 11.9661 56.8102 11.7945C56.6141 11.6229 56.3866 11.4922 56.1316 11.4006C55.8786 11.307 55.6139 11.2582 55.3393 11.2582C55.0647 11.2582 54.8059 11.305 54.5627 11.4006C54.3195 11.4922 54.1057 11.6229 53.9214 11.7906C53.739 11.9564 53.5958 12.1592 53.4918 12.3951C53.3879 12.6311 53.3369 12.8983 53.3369 13.1947V13.2142C53.3369 13.5048 53.3899 13.77 53.4958 14.0098C53.6036 14.2517 53.7507 14.4564 53.9331 14.628C54.1155 14.7996 54.3273 14.9322 54.5705 15.0298C54.8117 15.1253 55.0687 15.1721 55.3393 15.1721V15.176Z" fill="#232327"/>
<path d="M64.9609 16.5118C64.5628 16.5118 64.1882 16.4397 63.8371 16.2973C63.488 16.1511 63.184 15.9463 62.9212 15.683C62.6604 15.4217 62.4525 15.1058 62.2995 14.7372C62.1466 14.3687 62.0701 13.963 62.0701 13.5184V13.4989C62.0701 13.0816 62.1368 12.6916 62.274 12.3288C62.4133 11.9661 62.6055 11.6502 62.8506 11.3772C63.0977 11.1061 63.3919 10.8936 63.7292 10.7395C64.0685 10.5835 64.4412 10.5035 64.8452 10.5035C65.2708 10.5035 65.6493 10.5835 65.9846 10.7434C66.322 10.9033 66.6063 11.1198 66.8378 11.3928C67.0692 11.6678 67.2437 11.9876 67.3614 12.3561C67.481 12.7228 67.5418 13.1186 67.5418 13.5418V13.6842C67.5418 13.7232 67.5379 13.768 67.534 13.8187H62.9448C62.9742 14.1308 63.0487 14.4077 63.1664 14.6475C63.286 14.8893 63.437 15.0941 63.6194 15.2618C63.8018 15.4276 64.0077 15.5524 64.2411 15.6401C64.4725 15.724 64.7197 15.7669 64.9805 15.7669C65.3825 15.7669 65.7277 15.6928 66.0141 15.5465C66.3023 15.3983 66.5671 15.1994 66.8064 14.9537L67.3418 15.4334C67.0496 15.761 66.7181 16.0243 66.3455 16.2213C65.9709 16.4163 65.51 16.5138 64.9609 16.5138V16.5118ZM66.673 13.1849C66.6475 12.9256 66.5926 12.6779 66.5063 12.442C66.422 12.204 66.3023 11.9954 66.1513 11.816C65.9984 11.6366 65.812 11.4942 65.5924 11.3889C65.3747 11.2816 65.1197 11.227 64.8275 11.227C64.5745 11.227 64.3392 11.2777 64.1215 11.3772C63.9058 11.4786 63.7155 11.6151 63.5488 11.7926C63.386 11.9661 63.2507 12.1728 63.1487 12.4108C63.0448 12.6467 62.9781 12.9061 62.9487 13.1869H66.675L66.673 13.1849Z" fill="#232327"/>
<path d="M71.3489 8.25623H72.2118V16.3784H71.3489V8.25623Z" fill="#232327"/>
<path d="M76.7525 11.3804H75.9602V10.6374H76.7525V10.1342C76.7525 9.4829 76.9192 8.98757 77.2546 8.65605C77.5547 8.36159 77.9685 8.21338 78.496 8.21338C78.698 8.21338 78.8706 8.22508 79.0158 8.24653C79.1629 8.26798 79.306 8.30503 79.4492 8.35574V9.10263C79.2943 9.05778 79.1511 9.02073 79.0236 8.99732C78.8942 8.97002 78.7588 8.95637 78.6118 8.95637C77.9391 8.95637 77.6017 9.36395 77.6017 10.1791V10.6471H79.4355V11.3823H77.6135V16.3805H76.7506V11.3823L76.7525 11.3804Z" fill="#232327"/>
<path d="M82.8279 8.25623H83.6908V16.3784H82.8279V8.25623Z" fill="#232327"/>
<path d="M90.5497 16.5109C90.1163 16.5109 89.7182 16.4309 89.3534 16.271C88.9886 16.1111 88.6709 15.8966 88.4022 15.6255C88.1315 15.3544 87.9217 15.0385 87.7726 14.6797C87.6255 14.3209 87.551 13.9367 87.551 13.5291V13.5038C87.551 13.0982 87.6255 12.714 87.7726 12.3493C87.9217 11.9827 88.1315 11.6648 88.4022 11.3899C88.6728 11.1168 88.9905 10.9004 89.3593 10.7405C89.7299 10.5806 90.1339 10.5006 90.5732 10.5006C91.0126 10.5006 91.4067 10.5806 91.7755 10.7405C92.1461 10.9004 92.4658 11.1168 92.7364 11.386C93.0071 11.657 93.215 11.9729 93.3621 12.3318C93.5111 12.6886 93.5876 13.0728 93.5876 13.4823V13.5018C93.5876 13.9114 93.5111 14.2975 93.3581 14.6602C93.2052 15.0229 92.9953 15.3427 92.7247 15.6197C92.458 15.8946 92.1383 16.1111 91.7637 16.269C91.3891 16.429 90.9871 16.5089 90.5536 16.5089L90.5497 16.5109ZM90.5693 15.7425C90.8811 15.7425 91.1694 15.684 91.4322 15.5631C91.6931 15.4441 91.9167 15.2842 92.103 15.0834C92.2913 14.8825 92.4364 14.6505 92.5403 14.3852C92.6462 14.1161 92.6992 13.8314 92.6992 13.5272V13.5018C92.6992 13.1918 92.6443 12.8992 92.5364 12.6282C92.4266 12.3571 92.2756 12.1212 92.0834 11.9164C91.8892 11.7136 91.6617 11.5537 91.4009 11.4328C91.14 11.3138 90.8557 11.2534 90.5517 11.2534C90.2477 11.2534 89.9515 11.3138 89.6887 11.4328C89.4279 11.5517 89.2043 11.7116 89.0219 11.9125C88.8395 12.1134 88.6944 12.3493 88.5885 12.6204C88.4846 12.8914 88.4336 13.1781 88.4336 13.4823V13.5018C88.4336 13.8139 88.4885 14.1044 88.5963 14.3755C88.7042 14.6466 88.8533 14.8825 89.0415 15.0834C89.2318 15.2842 89.4593 15.4441 89.7201 15.5631C89.981 15.6821 90.2653 15.7425 90.5693 15.7425Z" fill="#232327"/>
<path d="M96.8577 10.6253H97.7775L99.2974 15.2451L100.855 10.6019H101.57L103.139 15.2451L104.659 10.6253H105.554L103.518 16.423H102.767L101.214 11.8812L99.6445 16.423H98.8836L96.8577 10.6253Z" fill="#232327"/>
</g>
<defs>
<clipPath id="clip0_1127_956363">
<rect width="23.8514" height="18.1456" fill="white" transform="translate(2.02148 3.62915)"/>
</clipPath>
<clipPath id="clip1_1127_956363">
<rect width="73.451" height="9.97093" fill="white" transform="translate(32.1013 8.21143)"/>
</clipPath>
</defs>
</svg>
