<svg width="60" height="68" viewBox="0 0 60 68" fill="none" xmlns="http://www.w3.org/2000/svg">
<path d="M10.0341 61.0186L11.1514 61.2968C11.1988 61.3086 11.2487 61.3206 11.3001 61.3329C11.4674 61.3732 11.6511 61.4173 11.8192 61.4715C12.7317 61.7385 13.6409 62.0074 14.5486 62.2758C16.5063 62.8548 18.4572 63.4317 20.4192 63.9836L20.4192 63.9836C21.0723 64.1674 21.7234 64.3523 22.3732 64.5369C25.1426 65.3236 27.8895 66.104 30.6682 66.7566L10.0341 61.0186ZM10.0341 61.0186V62.1701C10.0341 62.3173 10.0357 62.4391 10.0372 62.5469C10.0398 62.7351 10.0418 62.8804 10.0332 63.0428M10.0341 61.0186L10.0332 63.0428M10.0332 63.0428C10.0185 63.2978 9.94717 63.3993 9.91185 63.4357C9.88083 63.4677 9.79506 63.536 9.55773 63.548C8.9451 63.5783 8.34261 63.5847 7.72028 63.5913C7.42684 63.5945 7.12899 63.5976 6.82359 63.6034C6.74898 63.6046 6.7242 63.5903 6.71859 63.587L6.71826 63.5868C6.70931 63.5817 6.67156 63.558 6.61565 63.4695L6.6148 63.4682C3.91365 59.2133 2.15207 54.6141 1.42145 49.637L1.42144 49.6369C1.27261 48.6235 1.16723 47.6165 1.05782 46.5712C1.03672 46.3696 1.01547 46.1665 0.993732 45.9617C3.59808 45.897 6.20256 45.8374 8.80704 45.7778L8.84585 45.7769L8.84604 45.7769C9.38728 45.7644 9.49577 45.8686 9.49874 45.8714L9.49876 45.8715C9.50261 45.8752 9.61225 45.9814 9.62579 46.5282L9.62583 46.5294C9.63045 46.7065 9.64065 46.8927 9.65108 47.083C9.65606 47.174 9.66109 47.2659 9.6656 47.3582L9.70736 48.2143H10.5645C10.6466 48.2143 10.7292 48.2147 10.8114 48.215C10.9773 48.2158 11.1419 48.2165 11.2991 48.2142L10.0332 63.0428ZM34.9011 52.4391C32.1777 52.2317 29.4834 51.6671 26.9767 50.2224L27.4262 49.4426L26.9767 50.2224C24.4841 48.7856 21.7132 48.1742 18.7954 48.1232L18.7952 48.1231C17.0773 48.0927 15.3692 48.1304 13.6402 48.1687C12.8649 48.1858 12.0855 48.203 11.2991 48.2142L34.9011 52.4391ZM34.9011 52.4391C36.6752 52.5742 38.4517 52.66 40.2129 52.7451L40.4375 52.7559L40.4376 52.7559C41.5029 52.8073 42.2059 53.5194 42.2544 54.4384L34.9011 52.4391ZM27.5085 60.3304C26.4676 60.3566 25.3728 59.7454 25.3041 58.5232L25.3041 58.523C25.2926 58.3168 25.3061 58.0658 25.4054 57.8121C25.512 57.5399 25.6955 57.3212 25.9325 57.1651C26.341 56.8959 26.8652 56.8466 27.3097 56.834L27.3102 56.834C28.4996 56.801 29.6827 56.7708 30.8647 56.7405C32.2595 56.7048 33.6529 56.6692 35.0532 56.6292L35.0537 56.6292C35.5485 56.6153 36.0389 56.6046 36.5261 56.5939C37.9322 56.5631 39.3114 56.5328 40.6936 56.4298C41.2246 56.3901 41.6085 56.1666 41.8616 55.8493C42.1213 55.5237 42.2858 55.0435 42.2544 54.4386L40.947 59.9271C40.9471 59.9271 40.9473 59.9271 40.9474 59.9271C40.1316 60.0117 39.299 60.029 38.5119 60.0453C38.2886 60.0499 38.0689 60.0545 37.8544 60.0605L37.8538 60.0605C34.4047 60.1548 30.957 60.2437 27.5085 60.3304ZM27.5085 60.3304L27.4858 59.4306L27.5085 60.3304ZM44.6601 57.9372L44.6596 57.9375C44.5865 57.9664 44.4666 58.0476 44.3284 58.1908L43.681 57.5657L44.3294 58.1898C43.4363 59.1177 42.3188 59.7856 40.9477 59.927L44.6601 57.9372ZM44.6601 57.9372C48.566 56.3857 52.4722 54.8414 56.3864 53.3212L56.3868 53.3211M44.6601 57.9372L56.3868 53.3211M56.3868 53.3211C56.8672 53.1343 57.4055 53.0137 57.9706 52.9292C58.5661 52.8403 58.8618 53.063 59.0014 53.3467L59.0016 53.3471M56.3868 53.3211L59.0016 53.3471M59.0016 53.3471C59.1732 53.6952 59.1439 54.1016 58.7106 54.525L58.7102 54.5254M59.0016 53.3471L58.7102 54.5254M58.7102 54.5254C58.5655 54.6671 58.3929 54.7952 58.2139 54.8941M58.7102 54.5254L58.2139 54.8941M58.2139 54.8941C56.0031 56.1126 53.789 57.3285 51.5742 58.5448C47.3023 60.8908 43.0277 63.2382 38.7688 65.6089C36.1862 67.0458 33.4778 67.416 30.6683 66.7567L58.2139 54.8941Z" stroke="#0274BA" stroke-width="1.8"/>
<path d="M30.7032 29.8623L30.7032 29.8624C31.4803 34.6626 32.5273 39.3772 34.1161 43.945L30.7032 29.8623ZM30.7032 29.8623C30.1766 26.6102 29.8075 23.3573 29.736 20.0854L30.7032 29.8623ZM34.6749 6.84009L34.6748 6.84022C31.3282 10.6476 29.6264 15.0209 29.736 20.0852L34.6749 6.84009ZM34.6749 6.84009C36.0597 5.26395 37.427 3.67166 38.79 2.08439C39.0139 1.82366 39.2377 1.56307 39.4614 1.3027L39.4616 1.30251M34.6749 6.84009L39.4616 1.30251M39.4616 1.30251C39.6292 1.10728 39.7584 1.00079 39.8479 0.946274M39.4616 1.30251L39.8479 0.946274M46.1391 7.94948L46.1391 7.94943C44.94 6.46039 43.692 5.03113 42.4302 3.58618C41.7735 2.8341 41.1131 2.07776 40.4539 1.30653L46.1391 7.94948ZM46.1391 7.94948C48.5344 10.9236 49.8747 14.3405 50.1238 18.1651C50.3446 21.558 49.9219 24.9343 49.4371 28.3856L49.4371 28.3856M46.1391 7.94948L49.4371 28.3856M49.4371 28.3856C48.8251 32.7449 47.9194 37.0433 46.6717 41.2603M49.4371 28.3856L46.6717 41.2603M46.6717 41.2603C46.3951 42.1942 46.089 43.1226 45.7651 44.049L46.6717 41.2603ZM44.3905 45.0273C44.7852 45.0237 45.0614 44.926 45.2584 44.7856C45.4549 44.6457 45.6358 44.4185 45.7651 44.0492L44.3905 45.0273ZM44.3905 45.0273C43.3595 45.0363 42.3313 45.0343 41.2975 45.0323C40.8522 45.0314 40.4058 45.0305 39.9578 45.0305H39.0578V45.0333C38.9227 45.0335 38.7876 45.0336 38.6526 45.0338C37.6435 45.0352 36.6385 45.0366 35.6309 45.0305C35.1481 45.0275 34.8571 44.9238 34.663 44.7849C34.4689 44.6461 34.2759 44.4037 34.1163 43.9454L44.3905 45.0273ZM39.8479 0.946274C39.8905 0.920304 39.9193 0.909108 39.9349 0.904324M39.8479 0.946274L39.9349 0.904324M39.9349 0.904324C39.9491 0.899956 39.9553 0.899993 39.9564 0.9M39.9349 0.904324L39.9564 0.9M39.9564 0.9L39.9565 0.9M39.9564 0.9L39.9565 0.9M39.9565 0.9L39.9565 0.9M39.9565 0.9L39.9565 0.9M39.9565 0.9C39.9576 0.900003 39.9641 0.900016 39.9789 0.904658M39.9565 0.9L39.9789 0.904658M39.9789 0.904658C39.995 0.90972 40.0242 0.921366 40.0672 0.947887M39.9789 0.904658L40.0672 0.947887M40.0672 0.947887C40.1574 1.0035 40.2867 1.11106 40.4537 1.30633L40.0672 0.947887ZM39.9455 24.3176C43.422 24.3315 46.2127 21.5499 46.224 18.0695C46.2354 14.6291 43.3976 11.7634 39.9645 11.771C36.5316 11.7786 33.6795 14.6164 33.6655 18.0455C33.6516 21.4908 36.4875 24.3037 39.9455 24.3176Z" stroke="#0274BA" stroke-width="1.8"/>
<path d="M28.3079 38.3445C26.351 37.9038 24.395 37.4607 22.4377 37.0173L22.0847 36.9373C22.0574 36.9311 22.0159 36.9206 21.965 36.9076C21.8119 36.8688 21.5742 36.8084 21.3849 36.7805L21.2538 37.6709M28.3079 38.3445L28.4996 39.3102C26.4123 38.8405 24.3264 38.368 22.2399 37.8953L21.8856 37.815C21.8144 37.7989 21.7435 37.7808 21.6726 37.7626C21.5339 37.7272 21.3951 37.6917 21.2538 37.6709M28.3079 38.3445C28.0243 36.9152 27.7416 35.4905 27.459 34.0662C27.2059 32.7903 26.9528 31.5146 26.6991 30.2363M21.2538 37.6709C20.6686 37.5831 20.2428 37.2981 20.0531 36.7216C19.857 36.1267 20.0347 35.625 20.466 35.1947C21.4189 34.2433 22.3712 33.2914 23.3235 32.3397C23.7996 31.8638 24.2757 31.3879 24.7518 30.9122M21.2538 37.6709L21.3873 36.7808C21.2018 36.753 21.1024 36.703 21.0492 36.6626C21.0042 36.6284 20.9511 36.5713 20.9081 36.4404L20.9079 36.4398C20.8616 36.2995 20.8698 36.2117 20.8884 36.148C20.9097 36.075 20.9645 35.9687 21.1016 35.8319L21.1019 35.8316C22.0548 34.8802 23.0073 33.9281 23.9595 32.9764C24.4358 32.5004 24.9119 32.0245 25.388 31.5488L25.3891 31.5477C25.8263 31.1094 26.2637 30.6717 26.6991 30.2363M24.7518 30.9122L24.7519 30.9122L24.7518 30.9122ZM24.7518 30.9122C25.3321 30.3304 25.9128 29.7497 26.4884 29.1744C26.5587 29.5286 26.6289 29.8826 26.6991 30.2363" stroke="#0274BA" stroke-width="1.8"/>
<path d="M53.2189 30.2251C54.6851 31.6961 56.1476 33.1628 57.61 34.6295L57.6101 34.6296C57.7239 34.7437 57.8402 34.8616 57.9586 34.9816C58.2472 35.2742 58.5477 35.5789 58.8519 35.8689L58.8521 35.8691C58.968 35.9794 59.0076 36.0694 59.0231 36.1375C59.0397 36.2106 59.0421 36.3206 58.9903 36.4835L58.9898 36.4849C58.9626 36.571 58.9289 36.608 58.8832 36.6408C58.819 36.6871 58.7 36.7433 58.4802 36.7935L58.4793 36.7937C57.5491 37.0074 56.6234 37.2353 55.7054 37.4618L55.6253 37.4815C54.7322 37.7018 53.8464 37.9203 52.9587 38.1259L52.9586 38.1259C52.5068 38.2306 52.0601 38.3138 51.6005 38.3944C51.8547 37.1117 52.1075 35.8355 52.3599 34.5613C52.6462 33.1157 52.9321 31.6725 53.2189 30.2251Z" stroke="#0274BA" stroke-width="1.8"/>
</svg>
