<svg width="127" height="31" viewBox="0 0 127 31" fill="none" xmlns="http://www.w3.org/2000/svg">
<mask id="mask0_731_117389" style="mask-type:luminance" maskUnits="userSpaceOnUse" x="0" y="0" width="32" height="31">
<rect width="31.0215" height="31" rx="10" fill="white"/>
</mask>
<g mask="url(#mask0_731_117389)">
<rect width="31.0215" height="31" fill="white"/>
</g>
<g clip-path="url(#clip0_731_117389)">
<mask id="mask1_731_117389" style="mask-type:luminance" maskUnits="userSpaceOnUse" x="2" y="4" width="30" height="23">
<path d="M31.0218 4.35938H2.42383V26.1562H31.0218V4.35938Z" fill="white"/>
</mask>
<g mask="url(#mask1_731_117389)">
<path d="M12.8448 17.8993L16.5963 11.3759L18.2785 14.2976C19.4918 13.6625 20.6381 13.2365 21.6653 13.1618L16.5888 4.35938L6.38379 22.1137C8.28933 21.2619 10.5447 19.5806 12.8448 17.8993Z" fill="#232327"/>
<mask id="mask2_731_117389" style="mask-type:luminance" maskUnits="userSpaceOnUse" x="19" y="15" width="7" height="6">
<path d="M25.7219 15.4932H19.7969V20.7761H25.7219V15.4932Z" fill="white"/>
</mask>
<g mask="url(#mask2_731_117389)">
<path d="M19.8413 17.025L21.9627 20.7089H26.0045L23.042 15.5679C22.1116 15.7472 21.0248 16.2852 19.8413 17.025Z" fill="#232327"/>
</g>
<mask id="mask3_731_117389" style="mask-type:luminance" maskUnits="userSpaceOnUse" x="2" y="14" width="24" height="13">
<path d="M25.722 14.2976H2.42383V26.1562H25.722V14.2976Z" fill="white"/>
</mask>
<g mask="url(#mask3_731_117389)">
<path d="M25.9974 19.2892C22.9977 2.84996 3.73386 33.524 1.35938 20.5445C4.5452 37.9925 23.9281 7.95358 25.9974 19.2892Z" fill="#FF3901"/>
</g>
</g>
</g>
<g clip-path="url(#clip1_731_117389)">
<path d="M42.7718 10.2496H43.7618L48.0439 19.6736H46.9034L45.8052 17.1999H40.6884L39.5761 19.6736H38.4897L42.7718 10.2496ZM45.389 16.2535L43.2515 11.4795L41.1046 16.2535H45.3867H45.389Z" fill="#232327"/>
<path d="M52.375 12.7634H53.405V13.9651C53.6401 13.5926 53.9458 13.2741 54.322 13.014C54.6959 12.7493 55.185 12.6182 55.7823 12.6182C56.2032 12.6182 56.5771 12.6861 56.904 12.8173C57.2308 12.9508 57.5083 13.1429 57.7364 13.3889C57.9645 13.6325 58.1385 13.9253 58.2608 14.2626C58.3807 14.6023 58.4419 14.9747 58.4419 15.3847V19.6738H57.4072V15.6377C57.4072 14.9982 57.2402 14.4898 56.9063 14.115C56.5748 13.7426 56.1021 13.5528 55.486 13.5528C55.1921 13.5528 54.9146 13.6044 54.6583 13.7098C54.4043 13.8105 54.1809 13.9581 53.9928 14.1502C53.8071 14.3399 53.6613 14.5695 53.5578 14.8389C53.4567 15.1059 53.405 15.3987 53.405 15.7173V19.6762H52.375V12.7634Z" fill="#232327"/>
<path d="M66.3664 21.8419C65.7856 21.8419 65.2307 21.7599 64.7016 21.5983C64.1748 21.439 63.6787 21.2 63.2131 20.8815L63.6834 20.0756C64.0855 20.3614 64.5041 20.5793 64.9414 20.7292C65.3835 20.8815 65.8538 20.9588 66.3523 20.9588C67.1236 20.9588 67.735 20.7503 68.1889 20.3333C68.645 19.9187 68.8755 19.3073 68.8755 18.4991V17.6839C68.5721 18.0845 68.1983 18.4288 67.7585 18.7146C67.3211 18.9981 66.785 19.1386 66.1525 19.1386C65.7315 19.1386 65.3247 19.0637 64.9367 18.9137C64.5464 18.7615 64.2007 18.546 63.8974 18.2649C63.594 17.9861 63.3495 17.6464 63.1614 17.2506C62.9779 16.8547 62.8862 16.4073 62.8862 15.9083V15.8778C62.8862 15.3695 62.9779 14.9174 63.1614 14.5168C63.3471 14.1139 63.5917 13.7719 63.8974 13.4908C64.2007 13.2121 64.5487 12.9966 64.9414 12.8466C65.3365 12.6944 65.7409 12.6171 66.1525 12.6171C66.477 12.6171 66.7733 12.6545 67.0437 12.7295C67.3188 12.8045 67.5634 12.9052 67.7844 13.0317C68.0031 13.1558 68.2006 13.3034 68.377 13.4721C68.5557 13.6407 68.7179 13.8211 68.8614 14.0085V12.7646H69.896V18.4687C69.896 19.0051 69.8184 19.4759 69.6656 19.8789C69.5151 20.2841 69.2964 20.6308 69.0095 20.9189C68.6991 21.2305 68.3205 21.4624 67.8738 21.6123C67.4246 21.7646 66.9237 21.8419 66.3688 21.8419H66.3664ZM66.3523 18.2297C66.6815 18.2297 66.999 18.1758 67.3023 18.0634C67.608 17.9533 67.8808 17.794 68.116 17.5855C68.3535 17.3747 68.5439 17.1264 68.685 16.843C68.8285 16.5572 68.9014 16.2409 68.9014 15.8919V15.8614C68.9014 15.5077 68.8285 15.1868 68.685 14.9057C68.5439 14.6199 68.3535 14.374 68.116 14.1678C67.8808 13.9617 67.608 13.8047 67.3023 13.6946C66.999 13.5822 66.6815 13.5236 66.3523 13.5236C66.0231 13.5236 65.7127 13.5798 65.4211 13.6946C65.1296 13.8047 64.8732 13.9617 64.6522 14.1631C64.4335 14.3622 64.2619 14.6059 64.1372 14.8893C64.0126 15.1727 63.9515 15.4937 63.9515 15.8497V15.8732C63.9515 16.2222 64.0149 16.5408 64.1419 16.8289C64.2713 17.1194 64.4476 17.3653 64.6663 17.5715C64.885 17.7776 65.139 17.9369 65.4305 18.054C65.7198 18.1688 66.0278 18.225 66.3523 18.225V18.2297Z" fill="#232327"/>
<path d="M77.8885 19.8344C77.4111 19.8344 76.962 19.7477 76.5411 19.5767C76.1225 19.401 75.758 19.155 75.4429 18.8388C75.1302 18.5249 74.8809 18.1454 74.6975 17.7027C74.5141 17.2599 74.4224 16.7727 74.4224 16.2386V16.2152C74.4224 15.7139 74.5023 15.2454 74.6669 14.8097C74.8339 14.374 75.0643 13.9945 75.3583 13.6665C75.6545 13.3409 76.0073 13.0856 76.4117 12.9005C76.8185 12.7131 77.2653 12.6171 77.7497 12.6171C78.26 12.6171 78.7138 12.7131 79.1159 12.9052C79.5204 13.0973 79.8614 13.3573 80.1388 13.6853C80.4163 14.0155 80.6256 14.3997 80.7667 14.8425C80.9101 15.2828 80.983 15.7584 80.983 16.2667V16.4377C80.983 16.4846 80.9783 16.5384 80.9736 16.5993H75.4711C75.5064 16.9741 75.5958 17.3068 75.7368 17.5949C75.8803 17.8854 76.0614 18.1313 76.28 18.3328C76.4987 18.5319 76.7456 18.6818 77.0255 18.7872C77.3029 18.888 77.5992 18.9395 77.912 18.9395C78.394 18.9395 78.8079 18.8505 79.1512 18.6748C79.4969 18.4968 79.8143 18.2578 80.1012 17.9627L80.7432 18.5389C80.3928 18.9325 79.9954 19.2487 79.5486 19.4853C79.0995 19.7196 78.5469 19.8367 77.8885 19.8367V19.8344ZM79.9413 15.838C79.9108 15.5265 79.8449 15.229 79.7414 14.9455C79.6403 14.6597 79.4969 14.4091 79.3158 14.1936C79.1324 13.9781 78.909 13.8071 78.6456 13.6806C78.3846 13.5517 78.0789 13.4861 77.7286 13.4861C77.4252 13.4861 77.143 13.547 76.882 13.6665C76.6234 13.7883 76.3953 13.9523 76.1954 14.1655C76.0002 14.374 75.838 14.6223 75.7157 14.908C75.5911 15.1915 75.5111 15.503 75.4758 15.8404H79.9437L79.9413 15.838Z" fill="#232327"/>
<path d="M85.5479 9.91748H86.5825V19.674H85.5479V9.91748Z" fill="#232327"/>
<path d="M92.0267 13.6703H91.0767V12.7778H92.0267V12.1735C92.0267 11.3911 92.2265 10.7961 92.6286 10.3978C92.9884 10.0441 93.4846 9.86609 94.1171 9.86609C94.3593 9.86609 94.5663 9.88014 94.7403 9.90591C94.9167 9.93168 95.0883 9.97619 95.26 10.0371V10.9343C95.0742 10.8804 94.9025 10.8359 94.7497 10.8078C94.5945 10.775 94.4322 10.7586 94.2559 10.7586C93.4493 10.7586 93.0449 11.2482 93.0449 12.2273V12.7895H95.2435V13.6727H93.059V19.6765H92.0243V13.6727L92.0267 13.6703Z" fill="#232327"/>
<path d="M99.311 9.91748H100.346V19.674H99.311V9.91748Z" fill="#232327"/>
<path d="M108.57 19.8332C108.05 19.8332 107.573 19.7371 107.135 19.545C106.698 19.3529 106.317 19.0953 105.995 18.7697C105.67 18.444 105.419 18.0646 105.24 17.6335C105.063 17.2025 104.974 16.741 104.974 16.2514V16.221C104.974 15.7338 105.063 15.2723 105.24 14.8342C105.419 14.3938 105.67 14.012 105.995 13.6817C106.319 13.3538 106.7 13.0937 107.142 12.9017C107.587 12.7096 108.071 12.6135 108.598 12.6135C109.125 12.6135 109.597 12.7096 110.039 12.9017C110.484 13.0937 110.867 13.3538 111.191 13.677C111.516 14.0026 111.765 14.3821 111.942 14.8131C112.12 15.2418 112.212 15.7033 112.212 16.1952V16.2187C112.212 16.7106 112.12 17.1744 111.937 17.6101C111.753 18.0458 111.502 18.43 111.177 18.7626C110.858 19.0929 110.474 19.3529 110.025 19.5427C109.576 19.7348 109.094 19.8308 108.574 19.8308L108.57 19.8332ZM108.593 18.9102C108.967 18.9102 109.313 18.8399 109.628 18.6947C109.94 18.5518 110.209 18.3597 110.432 18.1184C110.658 17.8772 110.832 17.5984 110.956 17.2798C111.083 16.9565 111.147 16.6145 111.147 16.2491V16.2187C111.147 15.8462 111.081 15.4948 110.952 15.1692C110.82 14.8436 110.639 14.5602 110.408 14.3142C110.176 14.0706 109.903 13.8785 109.59 13.7332C109.277 13.5904 108.936 13.5177 108.572 13.5177C108.207 13.5177 107.852 13.5904 107.537 13.7332C107.225 13.8761 106.956 14.0682 106.738 14.3095C106.519 14.5508 106.345 14.8342 106.218 15.1598C106.093 15.4854 106.032 15.8298 106.032 16.1952V16.2187C106.032 16.5935 106.098 16.9425 106.227 17.2681C106.357 17.5937 106.536 17.8772 106.761 18.1184C106.989 18.3597 107.262 18.5518 107.575 18.6947C107.888 18.8376 108.229 18.9102 108.593 18.9102Z" fill="#232327"/>
<path d="M116.133 12.7633H117.236L119.058 18.3128L120.925 12.7352H121.783L123.665 18.3128L125.487 12.7633H126.559L124.118 19.7276H123.218L121.355 14.2719L119.474 19.7276H118.562L116.133 12.7633Z" fill="#232327"/>
</g>
<defs>
<clipPath id="clip0_731_117389">
<rect width="28.598" height="21.7969" fill="white" transform="translate(2.42383 4.35938)"/>
</clipPath>
<clipPath id="clip1_731_117389">
<rect width="88.0682" height="11.9773" fill="white" transform="translate(38.4897 9.86365)"/>
</clipPath>
</defs>
</svg>
