<svg width="172" height="42" viewBox="0 0 172 42" fill="none" xmlns="http://www.w3.org/2000/svg">
<mask id="mask0_741_181825" style="mask-type:luminance" maskUnits="userSpaceOnUse" x="0" y="0" width="43" height="42">
<rect width="42.0292" height="42" rx="10" fill="white"/>
</mask>
<g mask="url(#mask0_741_181825)">
<rect width="42.0292" height="42" fill="white"/>
</g>
<g clip-path="url(#clip0_741_181825)">
<mask id="mask1_741_181825" style="mask-type:luminance" maskUnits="userSpaceOnUse" x="3" y="5" width="40" height="31">
<path d="M42.0298 5.90625H3.28418V35.4375H42.0298V5.90625Z" fill="white"/>
</mask>
<g mask="url(#mask1_741_181825)">
<path d="M17.4025 24.2507L22.4852 15.4125L24.7644 19.371C26.4082 18.5104 27.9612 17.9334 29.3529 17.8321L22.4751 5.90625L8.64893 29.9605C11.2306 28.8064 14.2863 26.5285 17.4025 24.2507Z" fill="#232327"/>
<mask id="mask2_741_181825" style="mask-type:luminance" maskUnits="userSpaceOnUse" x="26" y="20" width="9" height="9">
<path d="M34.8492 20.9907H26.8218V28.1483H34.8492V20.9907Z" fill="white"/>
</mask>
<g mask="url(#mask2_741_181825)">
<path d="M26.8818 23.0662L29.756 28.0572H35.232L31.2183 21.092C29.9577 21.335 28.4853 22.0639 26.8818 23.0662Z" fill="#232327"/>
</g>
<mask id="mask3_741_181825" style="mask-type:luminance" maskUnits="userSpaceOnUse" x="3" y="19" width="32" height="17">
<path d="M34.8495 19.371H3.28418V35.4375H34.8495V19.371Z" fill="white"/>
</mask>
<g mask="url(#mask3_741_181825)">
<path d="M35.2223 26.1336C31.1582 3.86116 5.05883 45.4195 1.8418 27.8344C6.15807 51.4736 32.4188 10.7758 35.2223 26.1336Z" fill="#FF3901"/>
</g>
</g>
</g>
<g clip-path="url(#clip1_741_181825)">
<path d="M57.949 13.8867H59.2902L65.0918 26.6546H63.5466L62.0588 23.3032H55.1263L53.6193 26.6546H52.1475L57.949 13.8867ZM61.4949 22.021L58.5989 15.5529L55.6902 22.021H61.4917H61.4949Z" fill="white"/>
<path d="M70.96 17.2925H72.3554V18.9206C72.674 18.416 73.0881 17.9843 73.5979 17.6321C74.1044 17.2734 74.7671 17.0957 75.5763 17.0957C76.1466 17.0957 76.6532 17.1877 77.096 17.3655C77.5388 17.5464 77.9148 17.8066 78.2238 18.1399C78.5328 18.4699 78.7686 18.8666 78.9343 19.3237C79.0967 19.7839 79.1796 20.2885 79.1796 20.8439V26.655H77.7778V21.1866C77.7778 20.3202 77.5516 19.6315 77.0992 19.1237C76.65 18.6191 76.0096 18.362 75.1749 18.362C74.7767 18.362 74.4007 18.4318 74.0535 18.5747C73.7094 18.7111 73.4067 18.9111 73.1519 19.1713C72.9002 19.4284 72.7026 19.7394 72.5625 20.1044C72.4255 20.4662 72.3554 20.8629 72.3554 21.2945V26.6581H70.96V17.2925Z" fill="white"/>
<path d="M89.9158 29.5923C89.1289 29.5923 88.377 29.4812 87.6602 29.2622C86.9466 29.0464 86.2743 28.7227 85.6435 28.291L86.2807 27.1993C86.8255 27.5865 87.3926 27.8816 87.9852 28.0847C88.5841 28.291 89.2213 28.3958 89.8967 28.3958C90.9417 28.3958 91.77 28.1133 92.3849 27.5484C93.0029 26.9866 93.3152 26.1583 93.3152 25.0633V23.9589C92.9042 24.5016 92.3976 24.9681 91.8019 25.3553C91.2093 25.7394 90.4829 25.9298 89.6259 25.9298C89.0556 25.9298 88.5045 25.8282 87.9788 25.6251C87.4499 25.4188 86.9816 25.1268 86.5706 24.746C86.1596 24.3683 85.8283 23.9081 85.5734 23.3718C85.3249 22.8354 85.2007 22.2292 85.2007 21.5532V21.5119C85.2007 20.8232 85.3249 20.2107 85.5734 19.668C85.8251 19.1221 86.1565 18.6588 86.5706 18.2779C86.9816 17.9002 87.4531 17.6083 87.9852 17.4051C88.5204 17.1988 89.0684 17.0941 89.6259 17.0941C90.0655 17.0941 90.467 17.1449 90.8333 17.2465C91.2061 17.348 91.5374 17.4845 91.8369 17.6559C92.1332 17.8241 92.4008 18.024 92.6398 18.2525C92.8819 18.481 93.1017 18.7254 93.296 18.9793V17.2941H94.6978V25.0221C94.6978 25.7489 94.5927 26.3868 94.3856 26.9327C94.1817 27.4817 93.8854 27.9514 93.4968 28.3418C93.0762 28.7639 92.5633 29.0781 91.958 29.2812C91.3495 29.4875 90.6709 29.5923 89.919 29.5923H89.9158ZM89.8967 24.6984C90.3427 24.6984 90.7728 24.6254 91.1838 24.473C91.598 24.3239 91.9675 24.1081 92.2861 23.8256C92.6079 23.54 92.866 23.2035 93.0571 22.8195C93.2514 22.4323 93.3502 22.0039 93.3502 21.531V21.4897C93.3502 21.0105 93.2514 20.5757 93.0571 20.1948C92.866 19.8077 92.6079 19.4744 92.2861 19.1951C91.9675 18.9158 91.598 18.7032 91.1838 18.554C90.7728 18.4017 90.3427 18.3223 89.8967 18.3223C89.4507 18.3223 89.0301 18.3985 88.6351 18.554C88.24 18.7032 87.8928 18.9158 87.5933 19.1888C87.297 19.4585 87.0644 19.7886 86.8956 20.1726C86.7267 20.5567 86.6439 20.9915 86.6439 21.4739V21.5056C86.6439 21.9785 86.7299 22.4101 86.902 22.8005C87.0772 23.194 87.3161 23.5273 87.6124 23.8066C87.9087 24.0858 88.2528 24.3017 88.6478 24.4603C89.0397 24.6159 89.457 24.692 89.8967 24.692V24.6984Z" fill="white"/>
<path d="M105.526 26.8724C104.879 26.8724 104.271 26.7549 103.701 26.5233C103.133 26.2852 102.64 25.952 102.213 25.5235C101.789 25.0983 101.451 24.5841 101.203 23.9843C100.954 23.3844 100.83 22.7243 100.83 22.0007V21.969C100.83 21.2898 100.938 20.655 101.161 20.0647C101.388 19.4744 101.7 18.9603 102.098 18.5159C102.499 18.0748 102.977 17.7289 103.525 17.4781C104.077 17.2242 104.682 17.0941 105.338 17.0941C106.029 17.0941 106.644 17.2242 107.189 17.4845C107.737 17.7447 108.199 18.097 108.575 18.5413C108.951 18.9888 109.234 19.5093 109.426 20.1092C109.62 20.7058 109.719 21.3501 109.719 22.0388V22.2705C109.719 22.3339 109.712 22.4069 109.706 22.4895H102.251C102.299 22.9973 102.42 23.4479 102.611 23.8383C102.805 24.2318 103.051 24.5651 103.347 24.838C103.643 25.1078 103.978 25.3109 104.357 25.4537C104.733 25.5902 105.134 25.66 105.558 25.66C106.211 25.66 106.772 25.5394 107.237 25.3014C107.705 25.0602 108.135 24.7365 108.524 24.3366L109.394 25.1173C108.919 25.6505 108.381 26.0789 107.775 26.3995C107.167 26.7169 106.418 26.8755 105.526 26.8755V26.8724ZM108.307 21.458C108.266 21.0359 108.177 20.6328 108.037 20.2488C107.9 19.8616 107.705 19.522 107.46 19.23C107.211 18.9381 106.909 18.7064 106.552 18.535C106.198 18.3604 105.784 18.2716 105.309 18.2716C104.898 18.2716 104.516 18.3541 104.163 18.5159C103.812 18.681 103.503 18.9031 103.232 19.192C102.968 19.4744 102.748 19.8108 102.582 20.198C102.413 20.582 102.305 21.0041 102.257 21.4612H108.311L108.307 21.458Z" fill="white"/>
<path d="M115.904 13.4366H117.306V26.6552H115.904V13.4366Z" fill="white"/>
<path d="M124.682 18.5212H123.395V17.312H124.682V16.4932C124.682 15.4332 124.952 14.627 125.497 14.0875C125.985 13.6083 126.657 13.3671 127.514 13.3671C127.842 13.3671 128.122 13.3861 128.358 13.421C128.597 13.4559 128.83 13.5162 129.062 13.5987V14.8143C128.811 14.7413 128.578 14.681 128.371 14.6429C128.161 14.5985 127.941 14.5763 127.702 14.5763C126.609 14.5763 126.061 15.2396 126.061 16.5662V17.3279H129.04V18.5244H126.08V26.6586H124.678V18.5244L124.682 18.5212Z" fill="white"/>
<path d="M134.551 13.4366H135.953V26.6552H134.551V13.4366Z" fill="white"/>
<path d="M147.094 26.8708C146.39 26.8708 145.744 26.7407 145.151 26.4804C144.558 26.2202 144.042 25.8711 143.606 25.4299C143.166 24.9888 142.825 24.4746 142.583 23.8907C142.344 23.3067 142.223 22.6815 142.223 22.0182V21.9769C142.223 21.3168 142.344 20.6915 142.583 20.098C142.825 19.5014 143.166 18.9841 143.606 18.5366C144.045 18.0923 144.562 17.74 145.161 17.4797C145.763 17.2195 146.419 17.0894 147.133 17.0894C147.846 17.0894 148.487 17.2195 149.086 17.4797C149.688 17.74 150.207 18.0923 150.647 18.5302C151.086 18.9714 151.424 19.4855 151.663 20.0695C151.905 20.6503 152.029 21.2755 152.029 21.942V21.9737C152.029 22.6402 151.905 23.2686 151.657 23.8589C151.408 24.4492 151.067 24.9697 150.628 25.4204C150.194 25.8679 149.675 26.2202 149.066 26.4772C148.458 26.7375 147.805 26.8676 147.101 26.8676L147.094 26.8708ZM147.126 25.6203C147.633 25.6203 148.101 25.5251 148.528 25.3284C148.952 25.1348 149.315 24.8745 149.618 24.5476C149.923 24.2207 150.159 23.843 150.328 23.4114C150.5 22.9734 150.586 22.5101 150.586 22.015V21.9737C150.586 21.4691 150.497 20.993 150.322 20.5519C150.143 20.1107 149.898 19.7267 149.586 19.3935C149.27 19.0634 148.901 18.8032 148.477 18.6064C148.053 18.4128 147.591 18.3144 147.098 18.3144C146.604 18.3144 146.123 18.4128 145.696 18.6064C145.272 18.8 144.909 19.0602 144.613 19.3871C144.316 19.714 144.081 20.0981 143.908 20.5392C143.74 20.9803 143.657 21.4469 143.657 21.942V21.9737C143.657 22.4815 143.746 22.9544 143.921 23.3956C144.096 23.8367 144.339 24.2207 144.644 24.5476C144.953 24.8745 145.323 25.1348 145.747 25.3284C146.17 25.522 146.632 25.6203 147.126 25.6203Z" fill="white"/>
<path d="M157.342 17.2922H158.836L161.305 24.8108L163.835 17.2542H164.998L167.546 24.8108L170.015 17.2922H171.468L168.161 26.7277H166.941L164.418 19.3361L161.869 26.7277H160.633L157.342 17.2922Z" fill="white"/>
</g>
<defs>
<clipPath id="clip0_741_181825">
<rect width="38.7456" height="29.5312" fill="white" transform="translate(3.28418 5.90625)"/>
</clipPath>
<clipPath id="clip1_741_181825">
<rect width="119.318" height="16.2273" fill="white" transform="translate(52.1475 13.3638)"/>
</clipPath>
</defs>
</svg>
