<svg width="101" height="45" viewBox="0 0 101 45" fill="none" xmlns="http://www.w3.org/2000/svg">
<path d="M27.1906 34.8634V34.8626C27.1911 34.4029 27.1884 33.9382 27.1857 33.4704C27.1795 32.387 27.1732 31.2869 27.2059 30.1942L27.1906 34.8634ZM27.1906 34.8634C27.1906 35.3195 27.1901 35.7764 27.1895 36.2337C27.1882 37.3799 27.1868 38.5289 27.194 39.6774L27.194 39.6779M27.1906 34.8634L27.194 39.6779M27.194 39.6779C27.194 39.6905 27.194 39.7024 27.1939 39.7138C26.0026 39.6859 24.8268 39.6872 23.6618 39.6884C21.1303 39.6912 18.6503 39.6938 16.1754 39.3974C8.61326 38.4922 2.20451 32.0936 1.00075 24.4937L1.00075 24.4937M27.194 39.6779L1.00075 24.4937M19.0714 13.4996C21.7249 13.4714 24.3783 13.4764 27.0318 13.5063L19.0714 13.4996ZM19.0714 13.4996C15.8027 13.5361 12.9319 15.5328 11.7329 18.5478L19.0714 13.4996ZM1.00075 24.4937C-0.49742 15.0372 4.88268 7.0232 12.8982 4.10298L1.00075 24.4937ZM27.2023 3.23023L27.2023 3.2295C27.2034 3.13904 27.1991 3.07483 27.1935 3.0309C27.1393 3.02379 27.0595 3.01886 26.9443 3.02041L27.2023 3.23023ZM27.2023 3.23023C27.1657 6.35977 27.1724 9.48795 27.199 12.6154L27.199 12.6163M27.2023 3.23023L27.199 12.6163M27.199 12.6163C27.1995 12.673 27.1976 12.7175 27.1948 12.7518C27.1566 12.755 27.1063 12.7571 27.041 12.7563L27.0403 12.7563M27.199 12.6163L27.0403 12.7563M27.0403 12.7563C24.3821 12.7264 21.7231 12.7214 19.0634 12.7497L19.063 12.7497M27.0403 12.7563L19.063 12.7497M19.063 12.7497C15.4874 12.7896 12.3464 14.9756 11.036 18.2707L11.0359 18.2709M19.063 12.7497L11.0359 18.2709M11.0359 18.2709C9.80008 21.3806 10.5738 25.0782 12.9867 27.4346C14.6202 29.0302 16.6061 29.9245 18.9435 29.93C19.5058 29.9314 20.0688 29.9335 20.6324 29.9357C22.7223 29.9437 24.8201 29.9517 26.9166 29.9216L26.9167 29.9216M11.0359 18.2709L26.9167 29.9216M26.9167 29.9216C27.0529 29.9196 27.1406 29.9282 27.1944 29.9384M26.9167 29.9216L27.1944 29.9384M27.1944 29.9384C27.2027 29.9882 27.2095 30.0692 27.2059 30.194L27.1944 29.9384ZM27.9395 36.2375C27.9382 37.3825 27.9368 38.5272 27.9439 39.6728L27.9556 30.2165C27.9232 31.2953 27.9295 32.3734 27.9357 33.4506C27.9384 33.9217 27.9411 34.3926 27.9406 34.8634C27.9406 35.3215 27.9401 35.7795 27.9395 36.2375ZM12.8985 4.1029C14.7586 3.42594 16.6739 3.04684 18.6432 3.04204L12.8985 4.1029ZM18.6437 3.04204C19.4894 3.04052 20.3371 3.04149 21.186 3.04247C23.1021 3.04468 25.0245 3.04689 26.9441 3.02041L18.6437 3.04204Z" stroke="#0274BA" stroke-width="1.5"/>
<path d="M60.5487 17.8039L60.5489 17.8044C60.6885 18.1052 60.8654 18.2773 61.0643 18.3839C61.2747 18.4967 61.5618 18.5634 61.9524 18.5607C61.9526 18.5607 61.9527 18.5607 61.9529 18.5607L61.9581 19.3107L60.5487 17.8039ZM60.5487 17.8039C60.4086 17.5024 60.3862 17.2452 60.4309 17.014M60.5487 17.8039L60.4309 17.014M63.9173 12.6425L63.9172 12.6426C63.3345 13.3267 62.7472 14.0114 62.161 14.695C61.7221 15.2066 61.2839 15.7176 60.8485 16.2272L63.9173 12.6425ZM63.9173 12.6425C64.2664 12.2325 64.7176 12.0555 65.3313 12.0555L65.3323 12.0555M63.9173 12.6425L65.3323 12.0555M65.3323 12.0555C67.2773 12.053 69.2221 12.0534 71.1682 12.0537M65.3323 12.0555L71.1682 12.0537M60.4309 17.014C60.4774 16.774 60.6066 16.5108 60.8484 16.2273L60.4309 17.014ZM71.1682 12.0537C71.8167 12.0538 72.4654 12.0539 73.1143 12.0539M71.1682 12.0537L73.1143 12.0539M73.1143 12.0539C73.7222 12.0539 74.1827 12.2589 74.5734 12.7204L73.1143 12.0539Z" stroke="#0274BA" stroke-width="1.5"/>
<path d="M69.1753 40.7736H69.1753C69.5274 40.7733 69.8795 40.773 70.2317 40.7728C72.3353 40.7712 74.44 40.7695 76.5409 40.7752C76.9078 40.7758 77.1841 40.7092 77.3865 40.5985C77.5777 40.4939 77.744 40.3285 77.8682 40.0477C78.1149 39.49 78.0522 38.9999 77.6407 38.5218L77.6407 38.5218C77.3272 38.1574 77.0242 37.7956 76.7251 37.4384C75.9995 36.5721 75.2964 35.7324 74.5185 34.9465L74.5183 34.9462C74.1766 34.6007 73.6194 34.3316 73.246 34.3194L73.2456 34.3194C70.5606 34.2304 67.8691 34.2304 65.1844 34.321L65.1835 34.321C64.805 34.3334 64.2485 34.5988 63.9025 34.9434L69.1753 40.7736ZM69.1753 40.7736C68.4333 40.7741 67.6894 40.7728 66.9444 40.7715C65.3143 40.7687 63.6789 40.7659 62.0472 40.7819L62.0469 40.7819M69.1753 40.7736L62.0469 40.7819M62.0469 40.7819C61.6351 40.7861 61.3279 40.723 61.0999 40.6082M62.0469 40.7819L61.0999 40.6082M61.0999 40.6082C60.8863 40.5007 60.6984 40.3266 60.5495 40.0174M61.0999 40.6082L60.5495 40.0174M60.5495 40.0174C60.3946 39.6958 60.3819 39.432 60.4405 39.191M60.5495 40.0174L60.4405 39.191M60.4405 39.191C60.5038 38.9311 60.6642 38.6447 60.9413 38.3249M60.4405 39.191L60.9413 38.3249M60.9413 38.3249C61.268 37.9486 61.5794 37.5767 61.8855 37.211C62.5482 36.4195 63.1863 35.6574 63.9023 34.9436L60.9413 38.3249Z" stroke="#0274BA" stroke-width="1.5"/>
<path d="M84.2619 28.017L84.2624 28.017C85.9838 28.0028 87.7063 28.0055 89.4248 28.0082C90.1109 28.0093 90.7965 28.0104 91.4811 28.0104C92.2193 28.0104 92.9585 28.0093 93.6981 28.0082C95.3909 28.0058 97.0861 28.0033 98.7788 28.0137L84.2619 28.017ZM84.2619 28.017C83.8593 28.0206 83.5567 27.964 83.3331 27.8571C83.1275 27.7588 82.9511 27.601 82.8144 27.3146L82.8141 27.3139M84.2619 28.017L82.8141 27.3139M82.8141 27.3139C82.6616 26.9952 82.6318 26.7257 82.6733 26.4876C82.7158 26.2432 82.844 25.973 83.1016 25.6788L83.1018 25.6785M82.8141 27.3139L83.1018 25.6785M83.1018 25.6785C84.0833 24.5561 85.071 23.4215 86.0234 22.2565L86.0238 22.256M83.1018 25.6785L86.0238 22.256M86.0238 22.256C86.4259 21.7634 86.8762 21.542 87.4501 21.5383M86.0238 22.256L87.4501 21.5383M84.2686 28.767C85.9861 28.7528 87.7028 28.7555 89.4198 28.7582C90.1068 28.7593 90.7939 28.7604 91.4811 28.7604C92.2217 28.7604 92.9622 28.7593 93.7025 28.7582C95.3941 28.7558 97.0848 28.7533 98.7748 28.7637L84.2686 28.767ZM84.2686 28.767C83.3349 28.7753 82.5555 28.5133 82.1375 27.6376L84.2686 28.767ZM100.106 27.2819C100.239 26.9842 100.271 26.7251 100.237 26.4969C100.202 26.2679 100.094 26.0208 99.8697 25.7603L99.8695 25.7601C99.6242 25.4748 99.3776 25.1891 99.1304 24.9028C98.3664 24.0178 97.5971 23.1266 96.8452 22.2236L100.106 27.2819ZM100.106 27.2819C99.9778 27.5664 99.8115 27.7332 99.6228 27.8378C99.4241 27.9478 99.1508 28.0157 98.779 28.0137L100.106 27.2819ZM87.4501 21.5383C90.127 21.5268 92.8046 21.5301 95.4834 21.5384C96.0248 21.5407 96.4558 21.756 96.8451 22.2235L87.4501 21.5383Z" stroke="#0274BA" stroke-width="1.5"/>
<path d="M37.5457 34.1001H37.5361V34.8501C37.5361 35.1001 37.5387 35.342 37.5412 35.5792C37.5465 36.0814 37.5515 36.5627 37.5318 37.0556L37.5317 37.0564C37.4783 38.4279 36.5546 39.4797 35.2661 39.6116C34.0525 39.7357 32.8252 39.7166 31.5503 39.6969C31.4131 39.6947 31.2753 39.6926 31.137 39.6906C31.1201 37.6759 31.1182 35.6649 31.1164 33.6507C31.1152 32.4163 31.1141 31.1807 31.1095 29.9423C31.6002 29.9457 32.075 29.9414 32.5429 29.9372C33.3265 29.9302 34.0907 29.9234 34.8784 29.9527L34.8789 29.9527C36.3747 30.0073 37.5051 31.1743 37.5396 32.7159L37.5396 32.7165C37.5503 33.1778 37.5484 33.6337 37.5457 34.1001ZM31.1387 39.8917L31.1387 39.8917L31.1387 39.8917Z" stroke="#0274BA" stroke-width="1.5"/>
<path d="M35.7412 3.25236L35.7419 3.25244C36.7706 3.39232 37.5029 4.36306 37.531 5.67305L37.531 5.67364C37.5639 7.1546 37.5672 8.63539 37.531 10.1147L37.531 10.1148C37.4959 11.5611 36.3658 12.6963 34.9233 12.7366C33.9388 12.7638 32.9587 12.7551 31.9628 12.7463C31.6943 12.7439 31.4246 12.7415 31.1533 12.7398V12.7192V12.6975V12.6758V12.6542V12.6325V12.6108V12.5892V12.5675V12.5458V12.5242V12.5025V12.4809V12.4592V12.4376V12.4159V12.3943V12.3726V12.351V12.3293V12.3077V12.286V12.2644V12.2428V12.2211V12.1995V12.1779V12.1562V12.1346V12.113V12.0913V12.0697V12.0481V12.0264V12.0048V11.9832V11.9616V11.94V11.9183V11.8967V11.8751V11.8535V11.8319V11.8103V11.7887V11.7671V11.7454V11.7238V11.7022V11.6806V11.659V11.6374V11.6158V11.5942V11.5726V11.551V11.5294V11.5079V11.4863V11.4647V11.4431V11.4215V11.3999V11.3783V11.3567V11.3352V11.3136V11.292V11.2704V11.2489V11.2273V11.2057V11.1841V11.1626V11.141V11.1194V11.0979V11.0763V11.0547V11.0332V11.0116V10.9901V10.9685V10.9469V10.9254V10.9038V10.8823V10.8607V10.8392V10.8176V10.7961V10.7745V10.753V10.7314V10.7099V10.6883V10.6668V10.6453V10.6237V10.6022V10.5807V10.5591V10.5376V10.5161V10.4945V10.473V10.4515V10.43V10.4084V10.3869V10.3654V10.3439V10.3223V10.3008V10.2793V10.2578V10.2363V10.2148V10.1932V10.1717V10.1502V10.1287V10.1072V10.0857V10.0642V10.0427V10.0212V9.99969V9.97819V9.95669V9.9352V9.9137V9.8922V9.87071V9.84922V9.82773V9.80624V9.78475V9.76326V9.74177V9.72029V9.69881V9.67732V9.65584V9.63436V9.61288V9.5914V9.56993V9.54845V9.52698V9.5055V9.48403V9.46256V9.44109V9.41962V9.39816V9.37669V9.35523V9.33376V9.3123V9.29084V9.26938V9.24792V9.22646V9.20501V9.18355V9.1621V9.14064V9.11919V9.09774V9.07629V9.05484V9.0334V9.01195V8.99051V8.96906V8.94762V8.92618V8.90474V8.8833V8.86186V8.84042V8.81899V8.79755V8.77612V8.75469V8.73326V8.71183V8.6904V8.66897V8.64754V8.62612V8.60469V8.58327V8.56185V8.54043V8.51901V8.49759V8.47617V8.45476V8.43334V8.41193V8.39051V8.3691V8.34769V8.32628V8.30487V8.28346V8.26206V8.24065V8.21925V8.19784V8.17644V8.15504V8.13364V8.11224V8.09084V8.06945V8.04805V8.02666V8.00526V7.98387V7.96248V7.94109V7.9197V7.89831V7.87692V7.85554V7.83415V7.81277V7.79138V7.77V7.74862V7.72724V7.70586V7.68448V7.66311V7.64173V7.62036V7.59898V7.57761V7.55624V7.53487V7.5135V7.49213V7.47076V7.4494V7.42803V7.40667V7.38531V7.36394V7.34258V7.32122V7.29986V7.2785V7.25715V7.23579V7.21444V7.19308V7.17173V7.15038V7.12903V7.10768V7.08633V7.06498V7.04363V7.02228V7.00094V6.9796V6.95825V6.93691V6.91557V6.89423V6.87289V6.85155V6.83021V6.80888V6.78754V6.76621V6.74487V6.72354V6.70221V6.68088V6.65955V6.63822V6.61689V6.59557V6.57424V6.55292V6.53159V6.51027V6.48895V6.46763V6.44631V6.42499V6.40367V6.38235V6.36104V6.33972V6.31841V6.29709V6.27578V6.25447V6.23316V6.21185V6.19054V6.16923V6.14792V6.12662V6.10531V6.08401V6.0627V6.0414V6.0201V5.9988V5.9775V5.9562V5.9349V5.91361V5.89231V5.87102V5.84972V5.82843V5.80713V5.78584V5.76455V5.74326V5.72197V5.70069V5.6794V5.65811V5.63683V5.61554V5.59426V5.57297V5.55169V5.53041V5.50913V5.48785V5.46657V5.4453V5.42402V5.40274V5.38147V5.36019V5.33892V5.31765V5.29638V5.2751V5.25383V5.23256V5.2113V5.19003V5.16876V5.1475V5.12623V5.10497V5.0837V5.06244V5.04118V5.01992V4.99866V4.9774V4.95614V4.93488V4.91363V4.89237V4.87112V4.84986V4.82861V4.80735V4.7861V4.76485V4.7436V4.72235V4.7011V4.67986V4.65861V4.63736V4.61612V4.59487V4.57363V4.55238V4.53114V4.5099V4.48866V4.46742V4.44618V4.42494V4.4037V4.38247V4.36123V4.33999V4.31876V4.29753V4.27629V4.25506V4.23383V4.2126V4.19137V4.17014V4.14891V4.12768V4.10645V4.08523V4.064V4.04278V4.02155V4.00033V3.97911V3.95789V3.93666V3.91544V3.89422V3.87301V3.85179V3.83057V3.80935V3.78814V3.76692V3.74571V3.72449V3.70328V3.68207V3.66085V3.63964V3.61843V3.59722V3.57601V3.55481V3.5336V3.51239V3.49119V3.46998V3.44878V3.42757V3.40637V3.38516V3.36396V3.34276V3.32156V3.30036V3.27916V3.25796V3.23676V3.21557V3.19484C31.5008 3.18789 31.8406 3.17735 32.1745 3.16699C33.415 3.12852 34.5736 3.09258 35.7412 3.25236Z" stroke="#0274BA" stroke-width="1.5"/>
<path d="M65.5024 26.6636V26.6636C65.5038 28.7161 67.1578 30.3535 69.2648 30.3438C71.3054 30.3341 72.9026 28.722 72.8999 26.6403L65.5024 26.6636ZM65.5024 26.6636C65.5011 24.6885 67.2135 22.9737 69.2019 22.9696M65.5024 26.6636L69.2019 22.9696M69.2019 22.9696C71.2262 22.9654 72.8971 24.6276 72.8999 26.6403L69.2019 22.9696Z" stroke="#0274BA" stroke-width="1.5"/>
<path d="M65.505 4.46067L65.505 4.46076C65.4886 6.4606 67.134 8.11544 69.1917 8.12098M65.505 4.46067L72.8908 4.49927C72.8755 6.56574 71.2944 8.12654 69.1917 8.12098M65.505 4.46067C65.5216 2.41206 67.2232 0.736285 69.2725 0.750085L69.2729 0.750087M65.505 4.46067L69.2729 0.750087M69.1917 8.12098L69.1896 8.87098L69.1917 8.12098ZM69.2729 0.750087C71.2398 0.762347 72.9045 2.46049 72.8908 4.49886L69.2729 0.750087Z" stroke="#0274BA" stroke-width="1.5"/>
<path d="M87.7316 13.9044L87.7316 13.9048C87.7125 15.9214 89.4147 17.6207 91.4804 17.6055C93.5218 17.5902 95.1881 15.8927 95.154 13.9172L95.154 13.917C95.1192 11.8667 93.4071 10.1846 91.4659 10.2047L87.7316 13.9044ZM87.7316 13.9044C87.7494 11.9182 89.4444 10.227 91.4656 10.2047L87.7316 13.9044Z" stroke="#0274BA" stroke-width="1.5"/>
<path d="M57.2821 3.43786L57.2823 3.4377C57.3644 3.38184 57.45 3.27846 57.542 3.12674C57.5836 3.05808 57.6205 2.99013 57.6592 2.91881L57.6666 2.90506L57.6696 2.89963C57.6806 2.87925 57.6929 2.85661 57.7061 2.83293C57.6688 2.38056 57.4717 2.11816 57.2682 1.99617C57.0451 1.86245 56.7207 1.83973 56.3641 2.05065L57.2821 3.43786ZM57.2821 3.43786C56.01 4.30543 54.706 5.12611 53.3928 5.95256C53.1869 6.08211 52.9808 6.21181 52.7746 6.34185C52.5814 6.46371 52.4121 6.4868 52.2423 6.46084C52.055 6.43219 51.8446 6.33953 51.5972 6.18594L57.2821 3.43786ZM41.3483 6.56545L41.3486 6.56608C41.4513 6.79198 41.5831 6.90996 41.7176 6.97107C41.858 7.03484 42.0505 7.05853 42.3033 7.00643C42.5035 6.9651 42.7012 6.85384 42.9785 6.69779C43.0038 6.68352 43.0299 6.66887 43.0566 6.65387C43.4776 6.41744 43.9007 6.17474 44.3261 5.93071C45.2437 5.40429 46.1721 4.87167 47.1142 4.38237C47.357 4.2558 47.6478 4.2131 47.9001 4.21648C48.1532 4.21986 48.441 4.27061 48.679 4.39971C48.6791 4.39978 48.6793 4.39986 48.6794 4.39993L48.4409 4.83936C49.1512 5.22359 49.8336 5.65871 50.5159 6.09377L41.3483 6.56545ZM41.3483 6.56545C41.2401 6.32857 41.2231 6.12553 41.2582 5.97358C41.2911 5.83132 41.3775 5.6959 41.5593 5.58712C43.5704 4.39041 45.5951 3.22456 47.6572 2.13911L47.658 2.13866M41.3483 6.56545L47.658 2.13866M47.658 2.13866C47.6879 2.12284 47.8047 2.09526 48.0225 2.12853C48.2224 2.15908 48.4291 2.22941 48.5763 2.30669M47.658 2.13866L48.5763 2.30669M48.5763 2.30669C49.5381 2.81333 50.4545 3.41454 51.3913 4.02905C51.4264 4.0521 51.4616 4.07516 51.4968 4.09823L51.4972 4.09849C51.7539 4.26655 52.0343 4.37933 52.3484 4.37174C52.6589 4.36423 52.9308 4.24051 53.1743 4.07685L52.8954 3.66189M48.5763 2.30669L52.8954 3.66189M52.8954 3.66189L53.1732 4.07761C54.2238 3.37551 55.2836 2.69109 56.364 2.05071L52.8954 3.66189Z" stroke="#0274BA"/>
<path d="M48.3839 39.3326C48.8433 40.417 49.2249 41.531 49.5887 42.6321L49.5887 42.6322C49.6809 42.9115 49.8033 43.0958 49.9424 43.2163C50.0782 43.3339 50.2613 43.4179 50.5251 43.446L50.5256 43.4461C51.7623 43.5791 52.999 43.7019 54.289 43.8299C54.7906 43.8797 55.3004 43.9303 55.8213 43.9826C56.2639 43.9852 56.6328 43.6778 56.6778 43.2228C56.7051 42.9446 56.631 42.7357 56.5045 42.5886C56.3755 42.4387 56.1539 42.3093 55.8116 42.2689L55.8115 42.2689C54.64 42.1303 53.4661 42.013 52.2895 41.9106L52.3329 41.4125L52.2902 41.9106C51.955 41.8819 51.616 41.8024 51.3246 41.5952C51.0244 41.3817 50.8305 41.073 50.7138 40.6914M48.3839 39.3326C48.384 39.3329 48.3841 39.3331 48.3842 39.3334L47.9231 39.5268L48.3835 39.3318C48.3836 39.332 48.3838 39.3323 48.3839 39.3326ZM48.3839 39.3326C48.2816 39.0892 48.0931 38.8778 47.9051 38.7245C47.7173 38.5713 47.4713 38.4285 47.2106 38.3789L47.2103 38.3789C46.1522 38.1781 45.0777 38.0098 44.0125 37.8428C43.3846 37.7445 42.7599 37.6466 42.1436 37.5428L42.1434 37.5428C41.7657 37.4794 41.5341 37.3302 41.4094 37.1717C41.2898 37.0198 41.2301 36.8119 41.283 36.5365C41.3361 36.2598 41.468 36.0846 41.6396 35.9804C41.8194 35.8712 42.0947 35.8094 42.475 35.8683L42.4751 35.8683C43.0671 35.9599 43.6601 36.0531 44.2536 36.1465C45.6746 36.3699 47.0995 36.5939 48.5257 36.7978L48.526 36.7979C48.8604 36.8454 49.0915 36.947 49.2597 37.0856C49.4273 37.2237 49.5681 37.4278 49.673 37.7406L49.6731 37.7406C49.8168 38.1688 49.9736 38.5932 50.1274 39.0091C50.1551 39.0843 50.1828 39.1591 50.2103 39.2337C50.3911 39.7245 50.5648 40.2058 50.7138 40.6914M50.7138 40.6914L51.1919 40.5451L50.7139 40.6918C50.7138 40.6916 50.7138 40.6915 50.7138 40.6914ZM50.4721 43.9432C49.7723 43.8686 49.3394 43.4722 49.1139 42.7889L55.7923 44.4822C55.2654 44.4293 54.7495 44.3781 54.2415 44.3276C52.9507 44.1995 51.711 44.0765 50.4721 43.9432ZM42.0606 38.0359C41.122 37.8784 40.6377 37.2449 40.7919 36.4422C40.9462 35.6395 41.6195 35.2299 42.5515 35.3742C43.1462 35.4662 43.7407 35.5596 44.335 35.6531C45.7545 35.8763 47.1739 36.0995 48.5965 36.3029C49.4008 36.4173 49.8917 36.8203 50.1471 37.5815L42.0606 38.0359Z" stroke="#0274BA"/>
<path d="M50.413 16.6099L50.4135 16.61C51.6551 16.753 52.8977 16.8764 54.145 17.0002C54.5936 17.0447 55.0429 17.0893 55.4928 17.1349C55.9513 17.1491 56.2415 17.0576 56.4095 16.9373C56.561 16.8288 56.6653 16.6607 56.6814 16.3745C56.6981 16.0704 56.612 15.8755 56.4734 15.7406C56.3225 15.5937 56.0506 15.4618 55.5999 15.4149L55.5994 15.4148C55.3513 15.3888 55.1047 15.3621 54.859 15.3354C53.9526 15.2372 53.0596 15.1404 52.1613 15.0849L52.1921 14.5859L52.1619 15.085C51.8525 15.0663 51.546 14.9979 51.2844 14.806C51.0188 14.6111 50.8628 14.3357 50.762 14.0293C50.746 13.9809 50.7301 13.9326 50.7141 13.8843C50.3658 12.829 50.0249 11.7962 49.5891 10.8118C49.5245 10.6665 49.4068 10.4885 49.2672 10.343C49.1167 10.1861 49.003 10.1313 48.9616 10.1235L48.9616 10.1235C46.699 9.69607 44.4181 9.34452 42.1304 9.06888L42.1303 9.06887C42.094 9.06448 41.9639 9.08301 41.7766 9.18921C41.5995 9.28964 41.464 9.41661 41.406 9.50497L41.4059 9.50514C41.377 9.54922 41.3313 9.68653 41.3301 9.88206C41.3289 10.0807 41.3743 10.2008 41.3929 10.2275C41.5568 10.4577 41.9706 10.6884 42.3677 10.7668C43.893 11.0639 45.4395 11.2895 46.9922 11.4844L50.413 16.6099ZM50.413 16.6099C50.0282 16.5659 49.7758 16.3319 49.6061 15.8458L50.413 16.6099ZM47.9084 11.8106C48.1897 12.0188 48.3644 12.3102 48.4759 12.659L47.9084 11.8106ZM47.9084 11.8106C47.6357 11.6088 47.3154 11.5249 46.9922 11.4844L47.9084 11.8106ZM49.6061 15.8457C49.456 15.4143 49.3029 14.9968 49.1514 14.5838C48.9163 13.9431 48.6852 13.3133 48.4759 12.6592L49.6061 15.8457Z" stroke="#0274BA"/>
<path d="M47.502 28.4917C47.822 28.3242 48.4323 28.4801 48.8038 28.6808M47.502 28.4917C45.4041 29.5929 43.331 30.7488 41.3161 31.996C40.9827 32.2016 40.7837 32.991 40.8865 33.4239C40.9568 33.72 41.252 33.9616 41.5453 34.2017C41.6741 34.3072 41.8026 34.4124 41.9114 34.5217M47.502 28.4917L47.7343 28.9344C45.6447 30.0313 43.5834 31.1808 41.5821 32.4193M47.502 28.4917L47.7338 28.9347C47.7334 28.9349 47.7334 28.9349 47.7338 28.9348C47.7369 28.9336 47.7605 28.9246 47.815 28.9217C47.875 28.9184 47.953 28.9237 48.0448 28.9402C48.2311 28.9738 48.4264 29.0452 48.5662 29.1207L48.5674 29.1213C49.5406 29.6436 50.4797 30.2448 51.4086 30.8756L51.6895 30.4619M48.8038 28.6808L41.9114 34.5217M48.8038 28.6808C49.7989 29.2148 50.7541 29.8267 51.6895 30.4619M48.8038 28.6808L41.5821 32.4193M41.9114 34.5217L42.2658 34.169C42.184 34.0868 42.0959 34.0094 42.0118 33.9386C41.9218 33.9752 41.8237 34.0157 41.7158 34.0616L41.9114 34.5217ZM41.5821 32.4193C41.582 32.4193 41.581 32.42 41.5792 32.4211M41.5821 32.4193L41.5792 32.4211M41.5821 32.4193C41.5811 32.4199 41.5802 32.4205 41.5792 32.4211M41.5821 32.4193L41.5788 32.4213L41.5792 32.4211M51.6895 30.4619C52.1472 30.7737 52.4872 30.7704 52.9432 30.4569M51.6895 30.4619L51.408 30.8752C51.6817 31.0616 51.9805 31.1956 52.3196 31.1939C52.6579 31.1921 52.955 31.0555 53.2262 30.8691L52.9432 30.4569M52.9432 30.4569C53.9433 29.7704 54.9731 29.1252 56.0113 28.4967M52.9432 30.4569L53.2264 30.869M56.0113 28.4967L53.2264 30.869M56.0113 28.4967C56.8322 27.9992 57.5337 28.1236 57.9765 28.7819M56.0113 28.4967L53.2264 30.869M53.2264 30.869C54.2153 30.1901 55.236 29.5506 56.2703 28.9244L56.2704 28.9243C56.6154 28.7152 56.8773 28.672 57.0598 28.7001C57.2308 28.7263 57.4032 28.8257 57.5614 29.0606M57.9765 28.7819L57.5613 29.0605C57.5613 29.0605 57.5613 29.0605 57.5614 29.0606M57.9765 28.7819C58.4293 29.4569 58.2502 30.2447 57.4525 30.772L57.9765 28.7819ZM57.5614 29.0606C57.7172 29.2929 57.7482 29.5142 57.6987 29.7096C57.6477 29.911 57.4955 30.1442 57.1767 30.355L57.1765 30.3551C56.2449 30.9718 55.3049 31.5687 54.3603 32.1685C53.8857 32.4699 53.41 32.772 52.9336 33.0777M57.5614 29.0606L52.9336 33.0777M52.9336 33.0777C52.695 33.2307 52.4875 33.2764 52.2954 33.264C52.095 33.2511 51.87 33.172 51.6102 33.008C51.2676 32.791 50.9301 32.5852 50.5969 32.3821C50.0179 32.029 49.4518 31.6838 48.8941 31.3016L48.8937 31.3013C48.5833 31.089 48.2569 30.9579 47.897 30.9588C47.543 30.9598 47.2224 31.0887 46.9229 31.2687C45.6765 32.0169 44.4027 32.724 43.1216 33.4352C43.0519 33.474 42.9821 33.5127 42.9123 33.5515L52.9336 33.0777Z" stroke="#0274BA"/>
</svg>
