<svg width="60" height="67" viewBox="0 0 60 67" fill="none" xmlns="http://www.w3.org/2000/svg">
<path d="M51.8274 10.41C49.2632 10.41 47.2131 10.41 45.0728 10.41C44.7878 11.0354 44.5168 11.6261 44.1972 12.321C32.3904 12.321 20.5975 12.321 8.59621 12.321C8.24875 11.7651 7.85264 11.1118 7.42874 10.4308C5.37176 10.4308 3.32869 10.4308 1.07018 10.4308C1.07018 28.0888 1.07018 45.6217 1.07018 63.5925C15.1493 63.5925 29.0548 63.5925 42.9532 63.5925C42.9532 63.8357 42.9463 64.072 42.9463 64.3152C28.7282 64.3152 14.51 64.3152 0 64.3152C0 46.1221 0 27.8942 0 9.27028C2.50173 9.27028 4.97566 9.27028 7.7345 9.27028C7.87349 7.23416 7.98468 5.56634 8.12366 3.53716C10.2432 3.53716 12.2585 3.53716 14.4475 3.53716C14.7115 2.2446 14.9061 1.27171 15.1632 0C22.4599 0 29.8053 0 37.4147 0C37.5884 0.896452 37.7969 1.96663 38.0401 3.2036C40.1388 3.30784 42.1888 3.40513 44.4821 3.51632C44.5863 5.30922 44.6906 6.99093 44.8087 8.99926C47.4008 8.99926 49.8955 8.99926 52.6891 8.99926C52.6891 22.1194 52.6891 34.8991 52.6891 47.6787C51.5495 44.8365 51.9039 41.8344 51.8413 38.881C51.7788 35.7538 51.8205 32.6267 51.8205 29.4995C51.8205 26.3724 51.8274 23.2452 51.8274 20.118C51.8274 16.9978 51.8274 13.8846 51.8274 10.41ZM9.31893 11.1049C20.8338 11.1049 32.0221 11.1049 43.4327 11.1049C43.4327 8.79774 43.4327 6.65042 43.4327 4.35022C41.1951 4.23904 39.159 4.14175 37.1437 4.03751C36.9005 2.82834 36.7059 1.8485 36.4974 0.84086C29.6524 0.84086 22.9811 0.84086 16.3446 0.84086C16.1153 2.00833 15.9138 2.98817 15.7053 4.04446C13.5163 4.16259 11.4801 4.27378 9.31893 4.38497C9.31893 6.67822 9.31893 8.72129 9.31893 11.1049Z" fill="#2776EA"/>
<path d="M59.9996 58.2555C59.9649 62.7725 56.3096 66.4834 51.8829 66.4834C47.4632 66.4834 43.7384 62.7447 43.7106 58.2694C43.6828 53.5162 47.3034 49.9234 52.0497 50.0068C56.6848 50.0763 60.0344 53.5648 59.9996 58.2555ZM51.9594 65.3229C55.7814 65.2951 59.0267 62.1332 59.1171 58.3459C59.2074 54.5168 55.7953 50.9588 51.9524 50.8963C48.0608 50.8338 44.6905 54.2041 44.6766 58.1721C44.6627 62.1541 47.9218 65.3577 51.9594 65.3229Z" fill="#2776EA"/>
<path d="M47.6509 57.7899C48.4084 58.4501 49.1589 59.1172 50.1318 59.965C52.1193 58.3389 54.1067 56.7058 56.0942 55.0797C56.261 55.2534 56.4278 55.4272 56.5876 55.6009C54.8503 57.8108 52.3903 59.3049 50.0901 61.4661C48.9852 60.4028 47.9914 59.4299 46.9907 58.464C47.2131 58.2416 47.4355 58.0192 47.6509 57.7899Z" fill="#2776EA"/>
<rect x="5.5" y="18.5" width="6" height="7" stroke="#2776EA"/>
<rect x="5.5" y="34.5" width="6" height="7" stroke="#2776EA"/>
<rect x="5.5" y="50.5" width="6" height="7" stroke="#2776EA"/>
<rect x="16" y="19" width="27" height="1" rx="0.5" fill="#2776EA"/>
<rect x="16" y="43" width="27" height="1" rx="0.5" fill="#2776EA"/>
<rect x="16" y="31" width="27" height="1" rx="0.5" fill="#2776EA"/>
<rect x="16" y="22" width="21" height="1" rx="0.5" fill="#2776EA"/>
<rect x="16" y="34" width="21" height="1" rx="0.5" fill="#2776EA"/>
<rect x="16" y="46" width="21" height="1" rx="0.5" fill="#2776EA"/>
<rect x="51" y="9" width="2" height="39" fill="#2776EA"/>
<rect y="64" width="43" height="1" fill="#2776EA"/>
</svg>
