<svg width="60" height="72" viewBox="0 0 60 72" fill="none" xmlns="http://www.w3.org/2000/svg">
<path d="M0 35.8985C0 28.6938 0 21.489 0 14.2842C0 12.4298 1.1485 10.8879 2.84301 10.4691C3.1066 10.4027 3.37646 10.3761 3.64633 10.3761C13.6879 10.3694 23.7231 10.3694 33.7647 10.3761C35.729 10.3761 37.3733 12.0576 37.3922 14.138C37.4173 16.9827 37.4047 19.8274 37.3984 22.6721C37.3984 22.8781 37.4424 23.0177 37.6118 23.1373C37.9005 23.35 38.1767 23.5893 38.4528 23.8285C38.5658 23.9282 38.6474 23.9415 38.7854 23.8751C39.3879 23.5893 39.9904 23.3234 40.6055 23.0642C40.7372 23.011 40.7875 22.9512 40.8 22.805C40.8377 22.3663 40.8816 21.9343 40.9444 21.5023C41.0887 20.4588 41.9234 19.6745 42.9213 19.6612C43.9945 19.6479 45.0677 19.6413 46.1408 19.6546C47.258 19.6679 48.0927 20.4987 48.2056 21.6751C48.2433 22.0473 48.2935 22.4195 48.3312 22.7917C48.3437 22.9313 48.4002 22.9977 48.532 23.0576C49.1721 23.3301 49.806 23.6225 50.4462 23.895C50.5277 23.9282 50.6595 23.915 50.7286 23.8618C51.0361 23.6225 51.3248 23.3633 51.626 23.1174C52.4921 22.3929 53.6532 22.4594 54.4377 23.2835C55.1594 24.0412 55.8749 24.7989 56.5966 25.5566C57.4062 26.4074 57.4815 27.6237 56.7786 28.5741C56.5276 28.9131 56.2828 29.2521 56.0255 29.5844C55.9376 29.6974 55.9125 29.7904 55.9753 29.9433C56.2075 30.5282 56.4271 31.1197 56.6405 31.7113C56.6907 31.8508 56.7472 31.924 56.8978 31.9372C57.2995 31.9705 57.7012 32.0369 58.1028 32.0835C59.1823 32.1965 59.9731 33.107 59.9793 34.2635C59.9856 35.3203 59.9605 36.3771 59.9982 37.4339C60.0421 38.617 59.2953 39.7136 57.9459 39.82C57.5505 39.8532 57.1552 39.9064 56.766 39.9728C56.6845 39.9861 56.5715 40.0725 56.5401 40.1589C56.3267 40.6707 56.1322 41.1958 55.9188 41.7142C55.8623 41.8471 55.8623 41.9335 55.9564 42.0465C56.2326 42.3988 56.4962 42.7577 56.766 43.1166C57.5192 44.1202 57.4627 45.31 56.6091 46.2139C55.9062 46.9649 55.2033 47.7093 54.5004 48.4604C53.7097 49.3045 52.5674 49.3776 51.6762 48.6398C51.3248 48.3474 50.9671 48.0616 50.6219 47.7559C50.5152 47.6628 50.4336 47.6562 50.3081 47.716C49.7935 47.9619 49.2726 48.1945 48.7454 48.4139C48.6199 48.467 48.5634 48.5335 48.5508 48.6797C48.5006 49.2114 48.4441 49.7498 48.3688 50.2749C48.2182 51.3383 47.3835 52.1093 46.3731 52.1226C45.325 52.1359 44.2769 52.1425 43.2288 52.1359C42.0489 52.1226 41.2268 51.3117 41.1075 50.0688C41.0636 49.6302 41.0197 49.1981 40.9569 48.7661C40.9444 48.6864 40.8628 48.58 40.7937 48.5468C40.1975 48.2809 39.595 48.0217 38.9863 47.7758C38.9109 47.7426 38.7729 47.7758 38.7038 47.829C38.3022 48.1414 37.9131 48.467 37.5302 48.806C37.4612 48.8725 37.4235 49.0187 37.4235 49.1317C37.4173 51.8966 37.4173 54.6615 37.4173 57.4265C37.4173 58.8821 36.8524 60.0186 35.7039 60.8162C35.1014 61.2349 34.4362 61.4144 33.7082 61.4144C23.7482 61.4077 13.782 61.4144 3.82206 61.4077C3.50199 61.4077 3.17564 61.3944 2.86811 61.3147C1.15478 60.8959 0.0188271 59.3606 0.0188271 57.4797C0.0188271 52.6144 0.0188271 47.7426 0.0188271 42.8773C-7.65687e-07 40.5511 0 38.2248 0 35.8985ZM35.9299 35.8985C35.9299 28.7469 35.9173 21.5953 35.9424 14.4504C35.9487 12.935 34.8567 11.9114 33.5638 11.9181C29.5598 11.9579 25.5557 11.9314 21.5454 11.9314C15.6146 11.9314 9.68381 11.9247 3.74675 11.9446C3.38902 11.9446 2.99363 12.0244 2.67356 12.1906C1.83885 12.6226 1.44975 13.3869 1.44975 14.364C1.44975 20.924 1.44975 27.4841 1.44975 34.0442C1.44975 41.8405 1.44975 49.6302 1.44975 57.4265C1.44975 58.8621 2.39114 59.8591 3.74047 59.8591C13.7255 59.8591 23.7168 59.8591 33.7019 59.8524C34.0157 59.8524 34.3483 59.7793 34.6307 59.6398C35.5282 59.2011 35.9236 58.4102 35.9236 57.3733C35.9299 50.2151 35.9299 43.0568 35.9299 35.8985ZM37.4047 46.9051C37.7938 46.5794 38.1516 46.2936 38.4905 45.9879C38.6285 45.8616 38.7352 45.855 38.8858 45.9547C39.8461 46.5528 40.8628 46.9982 41.9485 47.264C42.2058 47.3238 42.2811 47.4501 42.3062 47.7027C42.3753 48.4604 42.4631 49.2114 42.5573 49.9691C42.6012 50.3679 42.8209 50.5806 43.2037 50.5806C44.233 50.5873 45.2622 50.5806 46.2977 50.5673C46.6555 50.5607 46.8814 50.3347 46.9191 49.9625C47.0069 49.145 47.1011 48.3275 47.1764 47.5099C47.1952 47.3438 47.2454 47.264 47.4023 47.2175C48.463 46.925 49.4608 46.4731 50.396 45.8683C50.5529 45.7686 50.6407 45.7951 50.7725 45.9081C51.3499 46.4 51.9398 46.8852 52.5235 47.3704C52.8687 47.6562 53.1637 47.6495 53.4649 47.3238C54.1678 46.5861 54.8644 45.8417 55.5611 45.0973C55.8811 44.7517 55.8937 44.4659 55.605 44.0804C55.1406 43.4556 54.6699 42.8308 54.1992 42.2127C54.1239 42.113 54.0611 42.0332 54.1427 41.887C54.7075 40.89 55.1217 39.8266 55.4104 38.71C55.4293 38.6369 55.536 38.5438 55.6176 38.5305C56.3518 38.4309 57.0924 38.3378 57.833 38.2514C58.3225 38.1916 58.5233 37.9789 58.5233 37.4538C58.5233 36.4103 58.517 35.3602 58.5108 34.3167C58.5108 33.9112 58.3225 33.6786 57.9459 33.6255C57.2367 33.5324 56.5213 33.446 55.8058 33.3729C55.6113 33.3529 55.5109 33.2931 55.4607 33.0738C55.2159 31.9107 54.8017 30.8206 54.2306 29.7971C54.1427 29.6376 54.1678 29.5379 54.2682 29.3983C54.7013 28.8333 55.1155 28.2617 55.5422 27.6901C55.8686 27.2581 55.856 26.9723 55.492 26.5868C54.8079 25.869 54.1301 25.1445 53.4461 24.4267C53.1197 24.0878 52.8436 24.0678 52.4858 24.3669C51.9461 24.8122 51.4127 25.2642 50.8792 25.7228C50.7662 25.8158 50.6846 25.8424 50.5466 25.756C49.511 25.0648 48.3939 24.5663 47.2015 24.2606C47.0446 24.2207 46.9881 24.1409 46.9693 23.9681C46.9002 23.2769 46.8249 22.579 46.7371 21.8878C46.668 21.3561 46.4798 21.1832 45.9651 21.1832C45.0049 21.1832 44.0384 21.1899 43.0782 21.1965C42.62 21.1965 42.4129 21.4159 42.3627 21.9077C42.2937 22.5923 42.2121 23.2769 42.1493 23.9615C42.1305 24.1476 42.0552 24.234 41.8857 24.2805C40.7749 24.5729 39.7205 25.0316 38.7478 25.6763C38.5469 25.8092 38.4214 25.8025 38.2457 25.6364C37.9947 25.3971 37.7185 25.1844 37.411 24.9319C37.4047 32.2962 37.4047 39.5674 37.4047 46.9051Z" fill="#2776EA"/>
<path d="M19.2865 3.95586C14.9623 3.95586 10.6382 3.95586 6.30778 3.95586C6.18854 3.95586 6.0693 3.95586 5.95005 3.94921C5.56094 3.92262 5.26597 3.61024 5.2597 3.2048C5.24715 2.81266 5.51701 2.48034 5.88729 2.42052C5.98771 2.40723 6.08812 2.40723 6.18854 2.40723C14.9435 2.40723 23.6922 2.40723 32.4472 2.40723C33.0183 2.40723 33.3697 2.78607 33.2881 3.31115C33.2316 3.67006 32.9806 3.92262 32.6354 3.94921C32.5413 3.95586 32.4472 3.95586 32.3593 3.95586C28.01 3.95586 23.6483 3.95586 19.2865 3.95586Z" fill="#2776EA"/>
<path d="M29.843 63.4287C33.9726 63.4287 38.1084 63.4287 42.238 63.4287C42.7903 63.4287 43.1041 63.7411 43.079 64.2529C43.0602 64.5985 42.8342 64.8843 42.5142 64.9507C42.4012 64.9707 42.2819 64.9773 42.1627 64.9773C33.9789 64.9773 25.7887 64.9773 17.6049 64.9773C17.4668 64.9773 17.335 64.984 17.2032 64.964C16.8329 64.9109 16.5631 64.5653 16.5756 64.1798C16.5944 63.781 16.8706 63.4686 17.2471 63.442C17.3413 63.4354 17.4354 63.4354 17.5233 63.4354C21.6278 63.4287 25.7322 63.4287 29.843 63.4287Z" fill="#2776EA"/>
<path d="M33.5755 68.0463C37.1904 68.0463 40.8054 68.0463 44.4203 68.0463C44.5647 68.0463 44.709 68.0397 44.8471 68.0795C45.1672 68.1593 45.3806 68.485 45.368 68.8439C45.3555 69.2028 45.1358 69.5019 44.8032 69.5684C44.6965 69.5883 44.5835 69.5949 44.4768 69.5949C37.203 69.5949 29.9292 69.5949 22.6553 69.5949C22.0214 69.5949 21.6512 69.143 21.8143 68.5847C21.9022 68.2789 22.147 68.0795 22.4482 68.053C22.5423 68.0463 22.6365 68.0463 22.7244 68.0463C26.3456 68.0463 29.9605 68.0463 33.5755 68.0463Z" fill="#2776EA"/>
<path d="M13.2544 8.03593C9.94071 8.03593 6.63329 8.03593 3.31958 8.03593C2.81123 8.03593 2.48488 7.7169 2.5037 7.23835C2.51626 6.88609 2.74847 6.587 3.07482 6.52054C3.20033 6.49395 3.32586 6.4873 3.45137 6.4873C10.0035 6.4873 16.5619 6.4873 23.114 6.4873C23.729 6.4873 24.0867 6.84621 24.0114 7.39122C23.9612 7.74349 23.6976 8.00935 23.365 8.03593C23.2897 8.04258 23.2144 8.04258 23.1391 8.04258C19.8442 8.03593 16.5493 8.03593 13.2544 8.03593Z" fill="#2776EA"/>
<path d="M34.9589 8.03417C32.3042 8.03417 29.6557 8.03417 27.001 8.03417C26.5993 8.03417 26.3546 7.87465 26.2353 7.54898C26.0721 7.10366 26.3169 6.61182 26.7625 6.51877C26.8629 6.49883 26.9633 6.49219 27.0637 6.49219C32.3167 6.49219 37.576 6.49219 42.829 6.49219C43.4189 6.49219 43.7829 6.87768 43.695 7.40275C43.626 7.80154 43.3499 8.04082 42.9419 8.04082C41.9503 8.04082 40.965 8.04082 39.9734 8.04082C38.3103 8.03417 36.6346 8.03417 34.9589 8.03417Z" fill="#2776EA"/>
<path d="M50.5334 0C52.1902 0 53.527 1.4157 53.527 3.17037C53.527 4.93833 52.1902 6.36068 50.5208 6.36068C48.8577 6.36732 47.5146 4.94498 47.5146 3.17037C47.5209 1.40905 48.8577 0 50.5334 0ZM50.5208 4.81205C51.3806 4.81205 52.071 4.08094 52.0647 3.17702C52.0584 2.27974 51.3744 1.55528 50.5334 1.55528C49.6799 1.54863 48.9832 2.28639 48.9895 3.19031C48.9895 4.08094 49.6736 4.81205 50.5208 4.81205Z" fill="#2776EA"/>
<path d="M53.5349 68.8155C53.5412 70.5635 52.2044 71.9925 50.5538 71.9992C48.8782 72.0058 47.5351 70.6034 47.5288 68.8354C47.5226 67.0608 48.8593 65.6385 50.5225 65.6318C52.1856 65.6318 53.5287 67.0409 53.5349 68.8155ZM50.5225 67.1871C49.6815 67.1871 48.9911 67.9182 48.9911 68.8089C48.9849 69.7128 49.6878 70.4505 50.535 70.4439C51.3823 70.4372 52.0664 69.7128 52.0664 68.8221C52.0726 67.9182 51.376 67.1871 50.5225 67.1871Z" fill="#2776EA"/>
<path d="M51.2495 14.4153C51.2495 16.2032 51.2495 17.9911 51.2495 19.779C51.2495 20.324 50.8918 20.6696 50.4149 20.5965C50.0822 20.5433 49.8375 20.2708 49.8061 19.9119C49.7998 19.8521 49.7998 19.7856 49.7998 19.7258C49.7998 16.1633 49.7998 12.6074 49.7998 9.04493C49.7998 8.55309 50.032 8.23406 50.4211 8.18089C50.8855 8.11443 51.2433 8.46669 51.2433 8.99176C51.2496 10.7996 51.2495 12.6074 51.2495 14.4153Z" fill="#2776EA"/>
<path d="M49.7998 58.1504C49.7998 56.4223 49.7998 54.6942 49.7998 52.9728C49.7998 52.3879 50.2077 52.029 50.7035 52.1619C51.0173 52.2417 51.2244 52.5075 51.2433 52.8532C51.2496 53.0393 51.2495 53.232 51.2495 53.4181C51.2495 56.728 51.2433 60.038 51.2558 63.3479C51.2558 63.9661 50.7286 64.3449 50.258 64.1455C49.963 64.0192 49.7998 63.7667 49.7998 63.3878C49.7998 62.3842 49.7998 61.3806 49.7998 60.3836C49.7998 59.6392 49.7998 58.8948 49.7998 58.1504Z" fill="#2776EA"/>
<path d="M8.07779 64.9772C6.54646 64.9772 5.0214 64.9772 3.49007 64.9772C2.96916 64.9772 2.64909 64.6715 2.65536 64.193C2.66164 63.7942 2.93778 63.4751 3.30806 63.4419C3.48379 63.4286 3.66579 63.4353 3.84152 63.4353C6.79122 63.4353 9.74092 63.4353 12.6906 63.4353C13.1739 63.4353 13.45 63.6479 13.5253 64.0733C13.6006 64.492 13.3433 64.8908 12.9479 64.9639C12.8412 64.9839 12.7283 64.9839 12.6216 64.9839C11.1028 64.9772 9.5903 64.9772 8.07779 64.9772Z" fill="#2776EA"/>
<path d="M41.2768 3.9536C39.9652 3.9536 38.6598 3.9536 37.3481 3.9536C36.9025 3.9536 36.6012 3.66781 36.5699 3.24908C36.5385 2.81041 36.8083 2.46479 37.2226 2.41827C37.2916 2.41162 37.3544 2.41162 37.4234 2.41162C39.984 2.41162 42.5383 2.41162 45.0989 2.41162C45.5194 2.41162 45.7955 2.59107 45.9022 2.9234C46.0654 3.43518 45.739 3.94031 45.2181 3.9536C44.6031 3.9669 43.988 3.96025 43.3667 3.96025C42.6764 3.9536 41.9735 3.9536 41.2768 3.9536Z" fill="#2776EA"/>
<path d="M12.6655 32.0843C12.3705 32.3768 12.0881 32.6626 11.7931 32.955C11.7618 32.9284 11.7053 32.8819 11.6488 32.8287C10.5003 31.7985 9.19488 31.4862 7.77024 32.0179C6.3456 32.5496 5.49207 33.6463 5.21592 35.2148C4.80799 37.5145 6.40208 39.7145 8.62377 39.987C10.9522 40.2661 13.042 38.2589 12.9228 35.7931C12.8977 35.3012 13.0169 34.9822 13.3496 34.6898C13.5316 34.5302 13.6822 34.3375 13.8516 34.1514C14.5294 35.7997 14.2031 38.7308 11.9249 40.3725C9.67186 42.0009 6.59664 41.4625 4.95861 39.1429C3.32059 36.8366 3.69087 33.5333 5.79959 31.7121C7.97107 29.8312 10.9584 30.2233 12.6655 32.0843Z" fill="#2776EA"/>
<path d="M13.8704 19.1942C14.5858 21.1283 14.0335 24.086 11.6299 25.5881C9.3203 27.0304 6.35805 26.3259 4.82672 23.9797C3.32049 21.6667 3.7598 18.4764 5.82459 16.7084C7.92704 14.9072 10.8893 15.193 12.634 17.0674C12.339 17.3532 12.0503 17.6456 11.7428 17.9447C11.2156 17.4063 10.5378 17.0275 9.74079 16.8613C7.58814 16.416 5.41666 18.1042 5.18445 20.4105C4.93341 22.9561 6.73461 25.0631 9.1383 25.0365C11.0274 25.0165 12.7093 23.4014 12.8976 21.4075C12.929 21.0818 12.8913 20.7495 12.9039 20.4172C12.9101 20.2975 12.9478 20.1513 13.0231 20.0716C13.2993 19.7658 13.588 19.4867 13.8704 19.1942Z" fill="#2776EA"/>
<path d="M12.6516 47.0486C12.363 47.3278 12.068 47.6136 11.8044 47.8661C11.3902 47.6069 10.9697 47.2679 10.4927 47.0619C7.95095 45.9519 5.15188 47.9525 5.1456 50.8703C5.13932 53.0703 6.77735 54.8649 8.91117 54.9911C10.8755 55.1108 12.6893 53.4558 12.9027 51.3356C12.9341 51.0365 12.9215 50.7308 12.9027 50.425C12.8901 50.2389 12.9215 50.106 13.0533 49.9797C13.3294 49.7138 13.5868 49.4347 13.8504 49.1622C14.4842 50.6178 14.2646 53.4691 12.1496 55.1772C9.94043 56.9585 6.77735 56.5531 5.06401 54.2733C3.31929 51.9604 3.63309 48.5906 5.75437 46.7296C7.9635 44.7822 10.9948 45.2142 12.6516 47.0486Z" fill="#2776EA"/>
<path d="M24.9537 32.7648C27.4704 32.7648 29.987 32.7648 32.5037 32.7648C33.0434 32.7648 33.3823 33.1636 33.2945 33.6887C33.238 34.0144 33.0058 34.2537 32.6732 34.3068C32.579 34.3201 32.4912 34.3201 32.397 34.3201C27.4202 34.3201 22.4433 34.3201 17.4728 34.3201C16.9707 34.3201 16.682 34.1141 16.5941 33.6954C16.5 33.2367 16.8075 32.8047 17.2531 32.7715C17.3975 32.7582 17.5418 32.7648 17.6862 32.7648C20.1024 32.7648 22.5249 32.7648 24.9537 32.7648Z" fill="#2776EA"/>
<path d="M24.9717 48.2461C27.4821 48.2461 29.9925 48.2461 32.4966 48.2461C33.0363 48.2461 33.3815 48.6515 33.2937 49.17C33.2309 49.5156 32.9673 49.7681 32.6284 49.8014C32.5719 49.808 32.5092 49.8014 32.4527 49.8014C27.4319 49.8014 22.4174 49.8014 17.3967 49.8014C16.8255 49.8014 16.4615 49.3494 16.5996 48.8177C16.6875 48.4654 16.9699 48.2527 17.3653 48.2527C18.5326 48.2527 19.6999 48.2527 20.861 48.2527C22.2354 48.2461 23.6036 48.2461 24.9717 48.2461Z" fill="#2776EA"/>
<path d="M24.9455 17.2876C27.4559 17.2876 29.96 17.2876 32.4704 17.2876C33.0415 17.2876 33.3804 17.6731 33.2925 18.2048C33.236 18.5371 32.9976 18.7831 32.6775 18.8229C32.5833 18.8362 32.4892 18.8362 32.4013 18.8362C27.4245 18.8362 22.4477 18.8362 17.4771 18.8362C16.9437 18.8362 16.6675 18.6302 16.5922 18.1982C16.5169 17.7728 16.7868 17.3607 17.1947 17.3075C17.3265 17.2876 17.4646 17.2942 17.5964 17.2942C20.044 17.2876 22.4916 17.2876 24.9455 17.2876Z" fill="#2776EA"/>
<path d="M21.797 21.9868C23.2467 21.9868 24.7027 21.9868 26.1525 21.9868C26.7299 21.9868 27.0939 22.5318 26.8805 23.0635C26.7487 23.3826 26.5102 23.5421 26.1839 23.5421C25.7446 23.5421 25.3052 23.5421 24.8659 23.5421C22.3995 23.5421 19.933 23.5421 17.4666 23.5421C16.9896 23.5421 16.6695 23.2563 16.6444 22.8243C16.6193 22.3391 16.9457 21.9935 17.4352 21.9935C18.6088 21.9935 19.7824 21.9935 20.956 21.9935C21.2447 21.9868 21.5208 21.9868 21.797 21.9868Z" fill="#2776EA"/>
<path d="M21.8002 52.9513C23.2248 52.9513 24.6557 52.9513 26.0804 52.9513C26.5385 52.9513 26.7958 53.1307 26.9088 53.5029C27.0343 53.9349 26.777 54.4002 26.3565 54.4799C26.2687 54.4999 26.1745 54.4999 26.0804 54.4999C23.2185 54.4999 20.3567 54.4999 17.4949 54.4999C16.9928 54.4999 16.679 54.2274 16.6539 53.7821C16.6288 53.35 16.9112 52.9911 17.3191 52.9646C17.6204 52.9446 17.9279 52.9513 18.2292 52.9513C19.4153 52.9513 20.6077 52.9513 21.8002 52.9513Z" fill="#2776EA"/>
<path d="M21.7749 39.0159C20.3252 39.0159 18.8692 39.0159 17.4194 39.0159C16.9424 39.0159 16.6286 38.6703 16.6537 38.1918C16.6726 37.8727 16.8797 37.5869 17.1747 37.5072C17.2939 37.4739 17.4257 37.4673 17.5512 37.4673C20.3942 37.4673 23.2435 37.4673 26.0865 37.4673C26.6702 37.4673 27.0467 37.8993 26.9275 38.4244C26.8396 38.8032 26.5635 39.0226 26.1618 39.0226C24.6933 39.0226 23.2309 39.0159 21.7749 39.0159Z" fill="#2776EA"/>
<path d="M8.46486 52.2129C8.97949 51.6879 9.48784 51.1894 9.97109 50.671C10.9627 49.6142 11.948 48.5375 12.9333 47.474C13.3476 47.0287 13.8747 47.1616 14.0505 47.7598C14.1258 48.019 14.0128 48.2251 13.8434 48.4112C12.9459 49.3816 12.0484 50.3519 11.151 51.3223C10.4167 52.1132 9.68867 52.9108 8.95438 53.7018C8.63431 54.0474 8.39582 54.0474 8.06947 53.7018C7.34774 52.9374 6.626 52.1664 5.91054 51.3954C5.6093 51.0764 5.61557 50.9435 5.9231 50.6111C5.96075 50.5713 5.99213 50.5314 6.02979 50.4982C6.29965 50.2124 6.48793 50.2057 6.76407 50.4849C7.25987 50.9834 7.7494 51.4885 8.23893 51.9936C8.32679 52.0734 8.40837 52.1531 8.46486 52.2129Z" fill="#2776EA"/>
<path d="M8.44672 37.2076C9.05549 36.5961 9.66425 36.0112 10.2416 35.3997C11.1642 34.4293 12.0679 33.439 12.978 32.4553C13.2604 32.1562 13.5302 32.1296 13.7687 32.3689C14.1516 32.7611 14.1829 33.0535 13.8629 33.3991C12.2248 35.1804 10.5805 36.955 8.94252 38.7296C8.65383 39.042 8.39023 39.042 8.09526 38.7229C7.36725 37.952 6.63924 37.1743 5.91751 36.4033C5.62881 36.0976 5.62881 35.9514 5.91123 35.639C5.95516 35.5925 5.99282 35.5459 6.03675 35.5061C6.30662 35.2136 6.48862 35.207 6.77104 35.4928C7.29194 36.0178 7.80657 36.5496 8.3212 37.0746C8.37768 37.1477 8.44044 37.2076 8.44672 37.2076Z" fill="#2776EA"/>
<path d="M8.41525 22.2005C9.30643 21.3099 10.1788 20.4525 11.0323 19.5752C11.6913 18.8973 12.3252 18.1861 12.9653 17.4882C13.2415 17.1891 13.5302 17.1559 13.7624 17.3885C14.1515 17.774 14.1891 18.0797 13.8753 18.4187C12.2248 20.2133 10.5679 22.0012 8.91732 23.7891C8.66628 24.0616 8.39014 24.0616 8.1391 23.7957C7.37971 22.9915 6.62032 22.1873 5.8672 21.383C5.64127 21.1371 5.64127 20.9643 5.8672 20.7117C6.3379 20.18 6.43204 20.1734 6.92157 20.6785C7.44875 21.2169 7.96965 21.7486 8.41525 22.2005Z" fill="#2776EA"/>
<path d="M38.6266 35.9511C38.5513 32.495 41.0868 29.5173 44.5072 29.4708C47.7393 29.4243 50.3564 32.0829 50.5133 35.4327C50.6765 38.942 48.1347 41.9197 44.8963 42.0659C41.5199 42.2188 38.7647 39.5336 38.6266 35.9511ZM44.5762 40.5173C47.0427 40.5173 49.051 38.397 49.0573 35.7983C49.0636 33.1663 47.0615 31.0261 44.5762 31.0194C42.1286 31.0062 40.0952 33.1663 40.0889 35.7783C40.0889 38.3837 42.1035 40.5173 44.5762 40.5173Z" fill="#2776EA"/>
</svg>
