<svg width="62" height="62" viewBox="0 0 62 62" fill="none" xmlns="http://www.w3.org/2000/svg">
<path d="M19.8947 33.6856L19.8947 33.6856C19.9279 39.4707 24.9079 44.1976 30.9463 44.2165C37.0044 44.2354 41.9792 39.5517 42.0124 33.7472C42.0456 27.9201 37.1842 23.1844 31.1445 23.1026L31.1445 23.1026C25.0086 23.0208 19.8615 27.8341 19.8947 33.6856ZM40.3416 33.6946L40.3416 33.6949C40.3102 38.5686 36.1754 42.5281 31.0559 42.5521C25.8393 42.5762 21.6047 38.5489 21.6172 33.6171C21.6298 28.764 25.7498 24.8215 30.9036 24.7854L30.9038 24.7854C36.2111 24.7433 40.3793 28.7091 40.3416 33.6946Z" fill="#2776EA" stroke="#2776EA" stroke-width="0.5"/>
<path d="M13.0058 58.1418V58.1407C13.0322 51.7487 16.9303 46.9599 23.1292 46.0473L23.1292 46.0473C24.6883 45.8178 26.4305 46.118 27.9174 46.5859C29.9987 47.2385 31.96 47.4881 33.8535 46.5805L33.8538 46.5803C36.2445 45.4387 38.5758 45.7014 40.8614 46.4959L40.862 46.4961C43.6769 47.4827 45.8742 49.1562 47.287 51.4542C48.6992 53.7514 49.3151 56.6525 49.004 60.0742L49.0038 60.0762C48.9808 60.3085 48.8576 60.5097 48.746 60.6683C48.6972 60.7377 48.6518 60.7979 48.6094 60.8542C48.5414 60.9444 48.4811 61.0245 48.4263 61.1162L48.2155 61.4693L47.999 61.1196C47.952 61.0435 47.8951 60.9652 47.8311 60.88C47.8178 60.8622 47.804 60.8439 47.79 60.8253C47.7391 60.7579 47.6849 60.6861 47.6349 60.6147C47.5101 60.4363 47.377 60.2145 47.3546 59.9629L47.3545 59.9617C47.3082 59.4132 47.3083 58.8638 47.3108 58.3255C47.3109 58.2957 47.311 58.266 47.3112 58.2363C47.3136 57.7256 47.316 57.2255 47.283 56.729L47.2829 56.7282C47.0058 52.3253 43.4023 48.3482 38.8341 47.6631L13.0058 58.1418ZM13.0058 58.1418C13.0058 58.3301 13.0028 58.5224 12.9996 58.7171C12.9917 59.2163 12.9834 59.731 13.0261 60.233L13.0261 60.233L13.0265 60.2367C13.0467 60.4384 13.1585 60.6103 13.2517 60.7372C13.2873 60.7856 13.3263 60.8353 13.3622 60.8808C13.3747 60.8967 13.3868 60.9121 13.3982 60.9268C13.4451 60.9869 13.4847 61.04 13.5165 61.0905L13.7031 61.3867L13.9227 61.1141C13.9659 61.0605 14.021 61.0042 14.0863 60.9409C14.1049 60.923 14.1248 60.9039 14.1455 60.8842C14.1929 60.8389 14.2439 60.7902 14.2898 60.7434C14.4115 60.6193 14.5805 60.4309 14.5982 60.1945C14.6489 59.5952 14.6589 58.9912 14.6687 58.3972C14.6697 58.3373 14.6707 58.2774 14.6717 58.2177C14.6831 57.5621 14.6992 56.9186 14.772 56.2851L14.7721 56.2847C15.4839 49.9972 21.7385 46.1907 27.9436 48.2812L27.9441 48.2813C30.2568 49.0558 32.4691 48.797 34.7305 48.0665L34.7307 48.0665M13.0058 58.1418L34.7307 48.0665M34.7307 48.0665C36.0145 47.6508 37.521 47.4666 38.834 47.6631L34.7307 48.0665Z" fill="#2776EA" stroke="#2776EA" stroke-width="0.5"/>
<path d="M12.3369 21.8481L12.3369 21.8481C14.3202 22.8851 16.2637 23.9773 18.1985 25.0866C18.3787 25.188 18.4697 25.3562 18.4958 25.5267C18.521 25.6914 18.4879 25.8613 18.4253 26.0064C18.3101 26.2735 18.019 26.5951 17.6157 26.5189C17.5477 26.5061 17.4788 26.4849 17.4123 26.4512L17.4114 26.4507C15.4232 25.433 13.4458 24.3771 11.5191 23.2464M12.3369 21.8481L8.77085 23.2318C8.77081 23.2319 8.77077 23.2319 8.77073 23.2319L8.63107 23.0246L8.77096 23.2318C9.32648 22.8576 9.76379 22.7309 10.1698 22.7506C10.5837 22.7707 11.0018 22.9442 11.5191 23.2464M12.3369 21.8481C11.9973 21.6706 11.6868 21.5029 11.433 21.3185C10.9901 20.9965 10.8834 20.4827 10.8608 19.8005M12.3369 21.8481L10.8608 19.8005M11.5191 23.2464C11.519 23.2464 11.5189 23.2464 11.5189 23.2463L11.6454 23.0307L11.5193 23.2466C11.5192 23.2465 11.5191 23.2465 11.5191 23.2464ZM10.8608 19.8005C10.8557 19.6438 10.8549 19.4835 10.8541 19.3178M10.8608 19.8005L10.8541 19.3178M10.8541 19.3178L10.8539 19.2828M10.8541 19.3178L10.8539 19.2828M10.8539 19.2828C10.8531 19.1061 10.8518 18.9239 10.8444 18.7422M10.8539 19.2828L10.8444 18.7422M10.8444 18.7422C10.8296 18.3799 10.7899 18.0054 10.6722 17.6523M10.8444 18.7422L10.6722 17.6523M10.6722 17.6523C10.1328 16.0341 8.92792 14.921 7.2278 14.4661L10.6722 17.6523ZM9.35869 19.4613L9.35868 19.4614C9.21536 21.1847 7.47107 22.6496 5.67184 22.5348C3.84889 22.4139 2.38269 20.7828 2.49613 19.0302C2.61566 17.2154 4.17278 15.9013 6.13135 16.0228C8.01592 16.1446 9.50072 17.7648 9.35869 19.4613ZM1.59981 16.9932L1.38397 16.867C1.38393 16.8671 1.38389 16.8671 1.38385 16.8672C1.3838 16.8673 1.38376 16.8674 1.38372 16.8674L1.59981 16.9932Z" fill="#2776EA" stroke="#2776EA" stroke-width="0.5"/>
<path d="M17.6235 39.8035L17.5752 39.5584C17.9785 39.479 18.2827 39.7944 18.4087 40.0625C18.4769 40.2077 18.5164 40.3791 18.495 40.5467C18.4727 40.7215 18.3821 40.8938 18.1982 40.9975C18.198 40.9976 18.1979 40.9977 18.1977 40.9977L18.0751 40.7799L17.6235 39.8035ZM17.6235 39.8035L17.5752 39.5584M17.6235 39.8035L17.5752 39.5584M12.3314 42.377C11.6199 42.8043 11.0145 43.089 10.3932 43.151C9.78202 43.212 9.12379 43.0599 8.30483 42.5458L12.3314 42.377ZM12.3314 42.377C13.9692 41.3866 15.6638 40.4901 17.3738 39.6264M12.3314 42.377L17.3738 39.6264M17.3738 39.6264C17.4396 39.5931 17.5079 39.5717 17.5752 39.5584M17.3738 39.6264L17.5752 39.5584M11.061 46.2669L11.061 46.2669L8.30475 42.5457C5.70217 40.9107 2.34505 42.3013 1.1887 45.0253C0.0621288 47.6624 1.55898 50.5185 4.44456 51.3939L4.44466 51.3939C6.20514 51.9271 7.87192 51.5992 9.09572 50.649C10.3187 49.6994 11.0778 48.1453 11.061 46.2669ZM2.60663 46.7337L2.60663 46.7336C2.6246 44.9087 4.17707 43.4493 6.06762 43.5125C7.95503 43.5761 9.494 45.1609 9.42274 46.8994C9.34517 48.6532 7.72694 50.0493 5.78331 49.9623C3.92946 49.8756 2.58869 48.5 2.60663 46.7337Z" fill="#2776EA" stroke="#2776EA" stroke-width="0.5"/>
<path d="M61.2499 19.2238V19.2236C61.243 16.6322 58.9709 14.4195 56.2863 14.3291L56.286 14.3291C54.9124 14.284 53.5743 14.7585 52.6028 15.5768C51.6292 16.3969 51.0142 17.5728 51.1256 18.9183L51.1256 18.9187C51.2091 19.9088 51.016 20.555 50.6396 21.0449C50.2542 21.5465 49.6542 21.9153 48.8534 22.3012L48.8532 22.3013C47.1217 23.1383 45.4638 24.1106 43.8275 25.0839L43.8266 25.0844C43.784 25.11 43.7452 25.1393 43.71 25.171C43.5539 25.3116 43.5014 25.4997 43.51 25.6734C43.5183 25.8424 43.5833 26.0066 43.6734 26.1405C43.7634 26.2744 43.8909 26.3965 44.0448 26.4672C44.2034 26.54 44.398 26.5598 44.586 26.4642L44.586 26.4642L44.5881 26.4632C44.6975 26.4063 44.807 26.3494 44.9165 26.2925C46.7147 25.3584 48.5223 24.4193 50.2614 23.3753L50.2618 23.3751C50.8475 23.0223 51.3201 22.8289 51.7946 22.8085C52.2646 22.7883 52.7727 22.9366 53.4296 23.3428C56.8519 25.4598 61.2567 23.0613 61.2499 19.2238ZM56.0164 16.0118L56.0164 16.0118C57.9284 15.9829 59.4577 17.4126 59.4756 19.1959C59.4935 20.9809 57.9794 22.5064 56.1316 22.5352L56.1316 22.5352C54.3089 22.5639 52.7019 21.0524 52.6596 19.299C52.624 17.5089 54.0924 16.0407 56.0164 16.0118Z" fill="#2776EA" stroke="#2776EA" stroke-width="0.5"/>
<path d="M45.4885 40.0936L45.4884 40.0936C45.2819 39.9932 45.0715 40.0058 44.8952 40.0907C44.726 40.1721 44.596 40.3151 44.5142 40.4706C44.3581 40.7675 44.3293 41.2431 44.7371 41.4978C44.755 41.509 44.7732 41.5201 44.7914 41.531C46.3911 42.4944 48.0513 43.3695 49.6999 44.2384C49.7451 44.2622 49.7903 44.286 49.8354 44.3098C50.1918 44.4989 50.5014 44.6757 50.7262 44.8814C51.0397 45.1684 51.0943 45.5815 51.0693 46.1366C51.0634 46.2693 51.0533 46.4049 51.0428 46.5458L51.0421 46.5562C51.0314 46.6995 51.0205 46.8479 51.0142 46.9962C51.0018 47.2919 51.0069 47.6015 51.0742 47.9001C51.3785 49.2512 52.1936 50.3379 53.6293 51.0699L53.6302 51.0704C55.535 52.0323 57.4323 51.8289 59.1276 50.6195C59.9498 50.0329 60.5025 49.3211 60.8047 48.5102C61.1062 47.7011 61.1525 46.8094 60.9881 45.8697C60.4212 42.6036 56.5311 40.7511 53.5397 42.6136C52.7879 43.0811 52.197 43.2305 51.6536 43.1881C51.1023 43.145 50.5646 42.9024 49.9198 42.5133L49.9198 42.5132C48.4847 41.6474 47.0033 40.8305 45.4885 40.0936ZM59.4312 46.6439L59.4313 46.645C59.5143 48.4027 57.995 49.9276 56.0741 49.9627C54.1083 49.9915 52.5954 48.5787 52.5892 46.7744C52.5895 44.9833 54.1536 43.4903 56.0425 43.5133C57.8287 43.5363 59.3597 44.9695 59.4312 46.6439Z" fill="#2776EA" stroke="#2776EA" stroke-width="0.5"/>
<path d="M30.939 0.750212L30.939 0.750211C33.313 0.730886 35.181 2.04032 35.8692 4.22734L35.8692 4.22741C36.5254 6.31476 35.7845 8.76611 33.6044 9.66541C32.7284 10.0281 32.2798 10.46 32.0453 10.9572C31.8049 11.4668 31.77 12.083 31.8053 12.8606C31.8899 14.7131 31.8508 16.5756 31.7795 18.4199L30.939 0.750212ZM30.939 0.750212C28.6345 0.769522 26.5987 2.23131 26.0423 4.30537L26.0423 4.30537M30.939 0.750212L26.0423 4.30537M26.0423 4.30537L26.042 4.30632M26.0423 4.30537L26.042 4.30632M26.042 4.30632C25.4816 6.42853 26.2903 8.84287 28.4469 9.72128C29.2662 10.0553 29.708 10.4463 29.9485 10.9031C30.1932 11.3679 30.2509 11.9395 30.2191 12.6824C30.1384 14.5276 30.1822 16.3775 30.2257 18.2124C30.2278 18.2988 30.2298 18.3851 30.2319 18.4714M26.042 4.30632L31.7795 18.4202C31.7765 18.4999 31.7604 18.5753 31.7368 18.6455C31.609 19.026 31.2008 19.1279 30.9159 19.1012C30.7621 19.0869 30.601 19.0351 30.4715 18.9353C30.3371 18.8317 30.236 18.6738 30.2319 18.4714M30.2319 18.4714C30.2319 18.4713 30.2319 18.4711 30.2319 18.471L30.4818 18.466L30.2319 18.4719C30.2319 18.4717 30.2319 18.4716 30.2319 18.4714ZM34.3717 5.53272L34.3717 5.53329C34.4075 7.35385 32.921 8.81466 30.9928 8.81466C29.0816 8.81466 27.5327 7.30219 27.5622 5.53303C27.5982 3.78514 29.2505 2.27107 31.1006 2.33435C32.9104 2.39781 34.3418 3.81366 34.3717 5.53272Z" fill="#2776EA" stroke="#2776EA" stroke-width="0.5"/>
<path d="M5.15347 28.4057L5.15346 28.4057L5.15334 28.4078C5.09314 29.4487 5.10528 30.4972 5.1173 31.5365C5.12219 31.9584 5.12705 32.3787 5.12705 32.7964C5.12705 33.2649 5.12352 33.7355 5.11998 34.2072C5.11084 35.4264 5.10163 36.6535 5.15315 37.8712L5.15314 37.8712L5.15325 37.8734C5.16519 38.1065 5.28382 38.2846 5.44833 38.3961C5.60577 38.5028 5.79852 38.5456 5.97893 38.5421C6.32053 38.5354 6.76581 38.3442 6.83558 37.8787C6.8408 37.8438 6.84514 37.8087 6.84849 37.7732L6.84857 37.7724C6.9192 36.9965 6.90561 36.2042 6.89233 35.4298C6.88711 35.1256 6.88194 34.8242 6.88194 34.5276C6.88194 33.9936 6.88521 33.4582 6.88849 32.922C6.89741 31.4615 6.90637 29.9944 6.84941 28.5296L6.84941 28.5296L6.84938 28.5289C6.84777 28.4907 6.84507 28.4527 6.84139 28.415C6.79398 27.9301 6.3412 27.732 5.99457 27.7265C5.81144 27.7237 5.61632 27.7687 5.45673 27.8774C5.29077 27.9904 5.1691 28.17 5.15347 28.4057Z" fill="#2776EA" stroke="#2776EA" stroke-width="0.5"/>
<path d="M56.613 38.456C56.4534 38.9218 55.4928 38.9246 55.4822 38.4323C55.4434 34.8406 55.4434 31.2489 55.4822 27.6571L56.613 38.456ZM56.89 27.7388C56.89 27.7378 56.89 27.7369 56.89 27.736L56.6401 27.7434L56.89 27.7388Z" fill="#2776EA" stroke="#2776EA" stroke-width="0.5"/>
<path d="M50.3932 13.4336C49.9846 13.375 49.5647 13.2576 49.1884 13.0718C46.1031 11.5563 43.0159 10.0338 39.9606 8.46167L50.3932 13.4336ZM50.3932 13.4336C50.5802 13.4635 50.7415 13.3916 50.8439 13.2565C50.9343 13.1371 50.9662 12.987 50.971 12.8567C50.9802 12.6037 50.8896 12.2724 50.6597 12.0848C50.5275 11.977 50.3891 11.8762 50.2322 11.7984C47.0181 10.1785 43.8024 8.56392 40.5603 6.99842C40.3612 6.89925 40.1591 6.92415 39.9968 7.0156C39.8427 7.10249 39.7266 7.24607 39.6532 7.3956C39.5793 7.54603 39.5372 7.72522 39.5547 7.9011C39.5727 8.08167 39.6559 8.26675 39.8372 8.38865C39.8764 8.41498 39.9174 8.43947 39.9605 8.46163L50.3932 13.4336Z" fill="#2776EA" stroke="#2776EA" stroke-width="0.5"/>
<path d="M23.0399 7.31009L23.04 7.31009L23.0396 7.30606C23.0257 7.14009 22.9454 7.00872 22.8302 6.91842C22.7218 6.8335 22.5909 6.79054 22.4697 6.77006C22.2289 6.72936 21.9525 6.76489 21.7438 6.84039C21.5973 6.8934 21.4544 6.94856 21.3137 7.0141L21.3136 7.01404L21.3085 7.01658C20.8307 7.2525 20.3527 7.48819 19.8746 7.72391C17.1953 9.04489 14.5138 10.3669 11.8604 11.7378L11.8604 11.7378L11.8592 11.7384C11.6585 11.8436 11.5579 12.0243 11.5411 12.2154C11.5253 12.3946 11.5822 12.5734 11.6679 12.7189C11.8277 12.9904 12.1896 13.2881 12.6088 13.1413C12.6599 13.1234 12.7107 13.103 12.7606 13.0795L12.7606 13.0795L12.7621 13.0788C14.6724 12.1666 16.5582 11.2188 18.4431 10.2715C18.9159 10.0338 19.3887 9.79618 19.8618 9.55915C20.795 9.09626 21.7238 8.61996 22.6342 8.11211L22.6342 8.11212L22.6364 8.11084C22.7791 8.02928 22.8804 7.88465 22.9424 7.75541C23.0055 7.62367 23.0502 7.46136 23.0399 7.31009ZM22.7905 7.32699C22.8035 7.51797 22.6741 7.80137 22.5124 7.89378L11.9752 11.9599C14.6263 10.5902 17.3054 9.26935 19.9847 7.94834C20.4629 7.71257 20.9411 7.4768 21.4192 7.24074C21.5502 7.17972 21.6852 7.12744 21.8289 7.07547C22.1753 6.95013 22.7597 6.95988 22.7905 7.32699Z" fill="#2776EA" stroke="#2776EA" stroke-width="0.5"/>
</svg>
