<svg width="60" height="60" viewBox="0 0 60 60" fill="none" xmlns="http://www.w3.org/2000/svg">
<path d="M29.863 59.9985C13.0604 59.8343 -0.18077 46.3678 0.00186676 29.6533C0.184504 13.1213 13.7727 -0.162719 30.3561 0.00150643C46.9396 0.165732 60.1808 13.7964 59.9981 30.4927C59.7972 46.8605 46.209 60.1627 29.863 59.9985ZM53.4597 33.467C51.7612 32.2444 50.3184 31.1861 48.6929 30.0182C50.3366 28.8322 51.7977 27.7738 53.4232 26.606C53.4963 27.5914 53.5511 28.2848 53.6058 28.9599C55.14 28.9599 56.5646 28.9599 57.9709 28.9599C57.8248 13.8512 44.2731 1.86273 31.0136 2.11819C31.0136 3.54147 31.0136 4.96476 31.0136 6.44279C31.7625 6.47928 32.4382 6.51578 33.4427 6.57052C32.2008 8.28576 31.1597 9.72729 29.9909 11.3695C28.7855 9.6908 27.7444 8.24927 26.5573 6.58877C27.5983 6.51578 28.2923 6.46104 28.9498 6.42454C28.9498 4.89177 28.9498 3.46848 28.9498 2.06345C13.1883 2.3554 1.73692 16.4058 2.08393 28.9964C3.5085 28.9964 4.9148 28.9964 6.41243 28.9964C6.44896 28.2483 6.48548 27.5731 6.54027 26.6243C8.2388 27.8468 9.68163 28.8869 11.2888 30.0547C9.62684 31.2591 8.16574 32.3174 6.54027 33.4852C6.48548 32.4999 6.43069 31.7882 6.39416 31.0401C4.87828 31.0401 3.47197 31.0401 1.90129 31.0401C2.33962 39.0324 5.40792 45.6744 11.3071 50.9661C16.3114 55.4549 22.1923 57.8271 28.9864 58.0825C28.9864 56.495 28.9864 55.1082 28.9864 53.6667C28.2558 53.5937 27.5618 53.5207 26.6121 53.4295C27.7992 51.769 28.8585 50.3274 30.0091 48.7217C31.178 50.3822 32.219 51.8237 33.3879 53.466C32.4017 53.539 31.7259 53.5937 31.0319 53.6302C31.0319 55.1082 31.0319 56.5315 31.0319 57.9366C44.8027 58.0825 58.0074 45.6196 57.9526 31.0583C56.5098 31.0583 55.0487 31.0583 53.5693 31.0583C53.5328 31.7882 53.4963 32.4634 53.4597 33.467Z" fill="#2776EA"/>
<path d="M42.52 41.1292C42.52 42.1693 42.6113 43.2093 42.4835 44.2312C42.4287 44.6509 41.9173 45.0158 41.6068 45.399C41.3146 44.9976 40.7849 44.6144 40.7484 44.1947C40.6388 42.5707 40.7302 40.9284 40.6936 39.2862C40.6388 35.8739 38.6298 33.2646 35.3058 32.4252C34.7762 32.2975 34.0456 32.4435 33.5891 32.7354C31.3426 34.2317 28.6578 34.2317 26.3931 32.6989C25.9913 32.4252 25.3521 32.261 24.8955 32.3705C21.5533 33.0821 19.3799 35.801 19.3434 39.2132C19.3251 40.8007 19.3251 42.4065 19.3434 44.0122C19.3434 44.7056 19.2155 45.399 18.3754 45.3808C17.517 45.3625 17.4805 44.6509 17.4805 43.9757C17.4987 42.1875 17.4439 40.381 17.4987 38.5928C17.6266 34.2134 21.7907 30.2173 26.1375 30.272C26.4297 30.272 26.7767 30.5275 27.0141 30.7465C28.9501 32.4982 31.0687 32.48 32.9863 30.7282C33.2238 30.5093 33.5891 30.2538 33.8813 30.2903C38.155 30.6735 41.5885 33.3923 42.3739 37.3337C42.6113 38.5745 42.52 39.8701 42.5748 41.1474C42.5565 41.1292 42.5383 41.1292 42.52 41.1292Z" fill="#2776EA"/>
<path d="M29.9543 14.6191C33.6801 14.6191 36.2552 16.9913 36.6205 21.0239C36.8762 23.8158 36.1639 26.4069 34.2645 28.56C31.8354 31.3154 28.2192 31.3701 25.8084 28.6148C23.3245 25.75 22.6488 22.3925 23.8542 18.7795C24.7126 16.2067 27.1416 14.6191 29.9543 14.6191ZM25.1874 22.3742C25.2605 23.907 25.7536 25.7682 27.1234 27.301C28.8767 29.2534 31.2145 29.2534 32.8947 27.228C34.7576 24.9836 35.2142 22.3742 34.4289 19.6006C34.0271 18.1774 33.0408 17.2103 31.598 16.7541C28.0914 15.6227 25.1692 17.9766 25.1874 22.3742Z" fill="#2776EA"/>
</svg>
