<svg width="61" height="81" viewBox="0 0 61 81" fill="none" xmlns="http://www.w3.org/2000/svg">
<path d="M38.6553 48.4963C38.4283 49.9521 38.1257 51.1781 38.0879 52.4424C37.9366 56.2735 35.0998 58.8021 30.5986 58.1508C30.5986 57.1164 30.5986 56.082 30.5986 55.0475C30.7499 55.0092 30.8634 54.9326 30.9768 54.9326C34.2676 54.7028 34.3811 54.5878 34.835 51.2164C35.0241 49.8372 35.1754 48.4963 35.3645 47.1171C35.6671 44.895 38.0501 43.8606 39.8657 45.2015C41.4165 46.3126 42.8917 47.5002 44.4425 48.6112C45.842 49.6456 46.6742 49.6073 47.9224 48.3814C48.7167 47.6151 49.511 46.8489 50.2675 46.0444C51.2131 45.0483 51.251 44.1671 50.4188 43.0561C49.2841 41.5619 48.1115 40.1061 47.0146 38.6503C45.4259 36.5815 46.2959 34.3211 48.8302 33.938C50.6458 33.6698 52.4992 33.4399 54.3148 33.2101C56.0169 32.9802 56.6221 32.3289 56.6599 30.6049C56.6978 29.5322 56.6978 28.4594 56.6599 27.3867C56.6221 26.0841 56.0169 25.2796 54.693 25.1263C52.8774 24.8582 51.024 24.59 49.2084 24.3984C47.998 24.2835 47.0146 23.9387 46.485 22.6744C45.9177 21.3718 46.3716 20.3757 47.1659 19.3796C48.2628 18.0387 49.3219 16.6595 50.381 15.2803C51.3266 14.016 51.2888 13.2115 50.1919 12.1005C49.3975 11.2576 48.5654 10.4531 47.7333 9.68686C46.6742 8.69076 45.842 8.61414 44.6694 9.4953C43.1186 10.6063 41.6435 11.794 40.0926 12.905C37.9366 14.4758 35.7428 13.518 35.3267 10.9128C35.0619 9.30374 34.835 7.65635 34.608 6.00896C34.3054 3.82521 33.8137 3.36547 31.6199 3.32716C31.2794 3.32716 30.939 3.28885 30.5229 3.25054C30.5229 2.17782 30.5229 1.18172 30.5229 0.185627C34.608 -0.657224 37.4827 1.41159 38.0123 5.54922C38.1636 6.89012 38.3905 8.19271 38.6175 9.76348C39.7144 8.92063 40.6978 8.23102 41.6435 7.46479C45.2746 4.66806 47.6198 4.82131 50.9105 8.03946C51.5157 8.61414 52.1209 9.22712 52.6883 9.80179C54.7687 11.9855 54.9578 14.744 53.1044 17.1959C52.1588 18.4219 51.2131 19.6478 50.1162 21.0653C51.7805 21.2952 53.2179 21.5251 54.693 21.6783C58.0973 22.0614 59.9885 24.1302 60.0263 27.6166C60.0263 28.7659 60.0642 29.9536 60.0263 31.1029C59.9507 33.8997 58.0973 36.0068 55.3739 36.3899C53.7474 36.6581 52.0831 36.8496 50.1162 37.1178C51.0618 38.3438 51.8562 39.3399 52.6505 40.3743C55.1848 43.6308 55.0335 46.121 52.0831 49.0327C51.4023 49.7223 50.7214 50.4119 50.0028 51.0632C47.8467 53.017 45.1233 53.2086 42.7404 51.5229C41.4543 50.6034 40.1683 49.6073 38.6553 48.4963Z" fill="#2776EA"/>
<path d="M24.7026 58.1495C20.6553 58.1495 16.6459 58.1495 12.5608 58.1495C12.3717 56.5404 12.3717 54.8547 11.9178 53.3222C11.3126 51.2534 10.5561 49.1846 9.49701 47.3073C7.9462 44.4723 6.05495 41.8288 4.35283 39.0704C-0.715699 30.9867 -1.43437 22.4815 2.83984 13.9381C7.15187 5.27973 14.4142 0.79729 23.9461 0.145996C24.1731 0.145996 24.3622 0.184308 24.6648 0.184308C24.6648 0.988848 24.6648 1.75508 24.6648 2.44468C22.5466 2.86611 20.3906 3.09598 18.348 3.70896C4.20153 7.96152 -1.81262 25.0484 6.35755 37.4613C8.17314 40.2197 9.87526 43.0165 11.6152 45.7749C13.3173 48.495 14.3764 51.445 14.7168 54.6248C14.7925 55.4294 15.0951 55.6592 15.8516 55.6592C18.7641 55.6209 21.6388 55.6592 24.627 55.6592C24.7026 56.5404 24.7026 57.3066 24.7026 58.1495Z" fill="#2776EA"/>
<path d="M27.504 66.6943C31.4756 66.6943 35.4094 66.7326 39.381 66.6943C40.4023 66.6943 40.7805 67.0391 40.7427 68.0735C40.6292 71.6365 41.2344 71.1001 37.7546 71.1385C30.4922 71.1768 23.2298 71.1001 15.9674 71.1768C14.6436 71.1768 14.1897 70.7937 14.2653 69.4528C14.3788 66.4262 13.8871 66.7326 16.9509 66.7326C20.4686 66.6943 23.9863 66.6943 27.504 66.6943Z" fill="#2776EA"/>
<path d="M27.4986 64.7796C23.527 64.7796 19.5932 64.7413 15.6216 64.8179C14.6003 64.8179 14.2221 64.5114 14.2599 63.4387C14.3734 59.9907 13.806 60.4504 17.1724 60.4504C24.4726 60.4121 31.7728 60.4887 39.073 60.4121C40.3969 60.4121 40.8129 60.7569 40.7751 62.1361C40.6616 65.201 41.1155 64.7796 38.203 64.7796C34.6097 64.7796 31.0541 64.7796 27.4986 64.7796Z" fill="#2776EA"/>
<path d="M16.4209 72.8252C23.948 72.8252 31.1348 72.8252 38.6619 72.8252C36.0898 75.3921 34.3121 78.342 30.7943 79.4914C26.331 80.9472 22.7377 79.6063 19.636 76.3498C18.6147 75.2771 17.6313 74.1661 16.4209 72.8252Z" fill="#2776EA"/>
<path d="M27.5771 37.3863C32.9483 36.3519 35.7473 33.5168 35.7473 29.1876C35.7473 24.8585 32.9483 22.0234 27.5771 20.989C27.5771 20.0312 27.5771 19.0734 27.5771 17.9624C31.5866 18.0773 34.7639 19.6481 37.0334 22.9046C39.5298 26.5442 39.7946 30.4519 37.7142 34.3597C35.596 38.3441 32.1161 40.183 27.615 40.4512C27.5771 39.3785 27.5771 38.3824 27.5771 37.3863Z" fill="#2776EA"/>
</svg>
