<svg width="61" height="61" viewBox="0 0 61 61" fill="none" xmlns="http://www.w3.org/2000/svg">
<path d="M18.6079 52.0985C18.7684 52.4553 19.0666 52.8121 19.0895 53.1927C19.1354 54.6675 19.0895 56.166 19.1124 57.6408C19.1354 59.2821 19.6399 59.8054 21.2453 59.8054C33.3313 59.8054 45.4174 59.8054 57.5034 59.8054C59.0858 59.8054 59.4069 59.401 59.4069 57.4981C59.4069 46.5562 59.4069 35.5905 59.4069 24.6486C59.4069 18.0359 59.4069 11.4232 59.4069 4.81048C59.4069 2.47938 58.9712 2.02743 56.7466 2.02743C48.3299 2.02743 39.9133 2.02743 31.4966 2.02743C30.9921 2.02743 30.5105 2.07501 29.8454 2.09879C29.8454 5.1435 29.8454 8.09305 29.8454 11.0426C29.8454 13.1596 29.8454 13.1596 27.8731 13.1596C25.0293 13.1596 22.1856 13.1596 19.1812 13.1596C19.1583 13.8257 19.1124 14.3728 19.1124 14.9436C19.1124 17.9645 19.1124 20.9855 19.0895 23.9826C19.0895 24.2918 18.7226 24.5773 18.5391 24.8865C18.3786 24.601 18.0804 24.3394 18.0804 24.054C18.0575 20.4146 18.0346 16.7514 18.0804 13.1121C18.0804 12.6125 18.4474 12.0179 18.8143 11.6373C21.9562 8.30713 25.1211 5.02456 28.3318 1.76578C28.7905 1.31383 29.5473 0.980817 30.1894 0.980817C39.2253 0.933244 48.2382 0.933244 57.2741 0.957031C59.4528 0.957031 60.4389 2.00365 60.4389 4.28717C60.4619 22.1748 60.4619 40.0386 60.4389 57.9263C60.4389 59.9719 59.5904 60.8283 57.641 60.8283C45.5091 60.852 33.3543 60.852 21.2223 60.8283C19.0666 60.8283 18.1263 59.8768 18.0575 57.6884C18.0116 56.0947 18.0575 54.5248 18.0575 52.9311C18.0575 52.717 18.1263 52.5267 18.1492 52.3126C18.3098 52.2412 18.4703 52.1699 18.6079 52.0985ZM20.3738 12.0179C23.0112 12.0179 25.8549 12.0179 28.7446 12.0179C28.7446 9.02073 28.7446 6.09497 28.7446 3.28813C25.9467 6.2139 23.1258 9.13967 20.3738 12.0179Z" fill="#2776EA"/>
<path d="M12.0468 48.435C11.611 49.0772 10.602 49.2675 11.1065 50.3855C11.1982 50.5996 10.8313 51.1229 10.5561 51.4083C8.81313 53.2637 7.04724 55.0952 5.25841 56.903C3.99706 58.1875 2.46051 58.2351 1.31382 57.0933C0.121271 55.904 0.167138 54.2627 1.47436 52.8831C3.21732 51.0277 4.98321 49.1961 6.79497 47.4121C7.09311 47.1267 7.66645 47.198 8.05632 46.984C8.5838 46.6985 9.11127 46.3417 9.59288 46.0563C5.96936 38.9203 6.95551 32.5454 12.1844 28.6206C16.9546 25.0526 23.6054 25.671 27.6646 30.0716C31.7468 34.4959 32.0449 41.3465 28.3756 46.1752C25.0502 50.5758 18.3535 52.7879 12.0468 48.435ZM8.35446 38.5872C8.37739 44.8194 13.1476 49.7432 19.1562 49.7194C25.1878 49.6957 29.9121 44.748 29.8892 38.5159C29.8662 32.26 25.119 27.3837 19.0874 27.4075C13.0788 27.4075 8.35446 32.3313 8.35446 38.5872ZM7.55178 48.0544C5.67122 50.0049 3.85946 51.8602 2.09357 53.7394C1.29089 54.5957 1.29089 55.571 2.02477 56.2608C2.78158 56.9982 3.63012 57.022 4.34107 56.3084C6.22163 54.4054 8.03339 52.4311 9.86808 50.5044C9.11127 49.6957 8.40033 48.9345 7.55178 48.0544ZM11.3358 47.7689C10.8084 47.317 10.5102 47.0791 10.1892 46.7937C9.77635 47.2456 9.45528 47.6024 9.04247 48.0544C9.36354 48.435 9.61581 48.7442 9.95982 49.1248C10.4873 48.6015 10.8313 48.2685 11.3358 47.7689Z" fill="#2776EA"/>
<path d="M43.2794 26.6959C44.9077 24.9594 46.3526 23.4847 47.7286 21.9147C48.5083 21.0108 49.0129 21.2249 49.655 22.0575C52.2465 25.34 51.9025 30.5493 48.8753 33.4513C45.6645 36.5436 40.7797 36.5198 37.6378 33.4275C34.6105 30.4304 34.2894 25.3162 36.9039 22.0337C37.5919 21.1773 38.0964 21.0822 38.8532 21.9623C40.2293 23.5084 41.6741 24.9832 43.2794 26.6959ZM38.0506 22.4856C35.3673 25.673 35.6655 30.1212 38.5322 32.8091C41.4677 35.5683 46.0085 35.2591 48.6689 32.143C51.0081 29.4076 50.9622 24.9357 48.4395 22.5808C47.0406 24.0793 45.5957 25.5541 44.2197 27.1002C43.5546 27.8614 43.0501 27.909 42.3621 27.124C40.9861 25.5779 39.5413 24.0793 38.0506 22.4856Z" fill="#2776EA"/>
<path d="M37.8231 41.157C37.8231 42.7745 37.8231 44.1541 37.8231 45.5099C37.8231 49.1017 37.8461 52.6935 37.8461 56.2853C37.8461 58.4975 37.8461 58.4975 35.782 58.4975C34.9106 58.4975 34.0391 58.4737 33.1905 58.4975C32.4108 58.5213 32.0897 58.1407 32.0897 57.3557C32.0897 52.3367 32.0668 47.3177 32.1127 42.2987C32.1127 41.9181 32.5713 41.2045 32.8465 41.2045C34.4748 41.0856 36.0802 41.157 37.8231 41.157ZM33.2593 42.3463C33.2593 47.4129 33.2593 52.313 33.2593 57.2844C34.4748 57.2844 35.6215 57.2844 36.7682 57.2844C36.7682 52.2654 36.7682 47.3415 36.7682 42.3463C35.5986 42.3463 34.4978 42.3463 33.2593 42.3463Z" fill="#2776EA"/>
<path d="M47.2973 51.408C47.2973 53.3585 47.2744 55.309 47.2973 57.2595C47.3202 58.1158 46.9762 58.5202 46.1277 58.4964C44.9581 58.4726 43.7885 58.4726 42.6188 58.4964C41.7474 58.5202 41.4722 58.0683 41.4722 57.2357C41.4951 53.3823 41.4722 49.5288 41.4492 45.6754C41.4492 44.6763 41.7932 44.2244 42.7794 44.2719C43.8343 44.3195 44.9122 44.3195 45.9901 44.2719C46.9992 44.2244 47.3202 44.7239 47.2973 45.6992C47.2514 47.6021 47.2973 49.505 47.2973 51.408ZM42.6647 45.4851C42.6647 49.5526 42.6647 53.4298 42.6647 57.2833C43.9031 57.2833 45.0039 57.2833 46.1506 57.2833C46.1506 53.2871 46.1506 49.4337 46.1506 45.4851C44.9351 45.4851 43.8343 45.4851 42.6647 45.4851Z" fill="#2776EA"/>
<path d="M56.6738 53.0014C56.6738 54.4286 56.6509 55.8558 56.6738 57.2592C56.6738 58.0917 56.3527 58.5199 55.5042 58.4961C54.3346 58.4485 53.165 58.4723 51.9953 58.4961C51.2385 58.4961 50.8945 58.1869 50.8945 57.3781C50.9175 54.4761 50.9175 51.5742 50.8945 48.696C50.8945 47.8159 51.1927 47.4353 52.0412 47.4591C53.165 47.4828 54.2658 47.5066 55.3895 47.4591C56.2839 47.4353 56.6967 47.8159 56.6738 48.7435C56.6509 50.1707 56.6738 51.5742 56.6738 53.0014ZM51.9953 57.3306C53.2338 57.3306 54.3116 57.3306 55.4583 57.3306C55.4583 54.381 55.4583 51.5504 55.4583 48.696C54.2199 48.696 53.142 48.696 51.9953 48.696C51.9953 51.6217 51.9953 54.381 51.9953 57.3306Z" fill="#2776EA"/>
<path d="M42.3429 25.2672C42.1594 23.6735 41.976 22.0798 41.8154 20.4861C41.7237 19.5346 41.7008 18.5831 41.5632 17.6554C41.4256 16.6326 41.8842 16.2996 42.7557 16.3472C44.7509 16.4423 46.5627 17.037 48.0305 18.4642C48.3057 18.7258 48.4891 19.5584 48.3057 19.7249C46.5856 21.5802 44.7968 23.388 43.0309 25.172C42.9621 25.2434 42.7557 25.1958 42.3429 25.2672ZM42.664 17.5603C42.8245 19.5346 42.9851 21.3899 43.1456 23.2453C44.5904 21.8419 45.9206 20.5574 47.3195 19.2254C45.9894 18.0122 44.5675 17.4176 42.664 17.5603Z" fill="#2776EA"/>
<path d="M48.0966 10.5202C46.3078 10.5202 44.5419 10.5678 42.7531 10.4964C42.3403 10.4726 41.9504 10.1156 41.5605 9.92519C41.9275 9.75858 42.2944 9.42535 42.6614 9.42535C46.3308 9.37775 49.9772 9.37775 53.6466 9.42535C53.9906 9.42535 54.3346 9.80618 54.6786 9.9966C54.3117 10.1632 53.9447 10.4964 53.5778 10.4964C51.766 10.544 49.9313 10.5202 48.0966 10.5202Z" fill="#2776EA"/>
<path d="M41.1504 5.8337C41.7696 5.50079 42.0677 5.19166 42.3888 5.19166C46.1958 5.16788 50.0257 5.16788 53.8327 5.19166C54.1079 5.19166 54.4061 5.57213 54.6813 5.76236C54.4061 5.90504 54.1308 6.19039 53.8556 6.19039C49.934 6.21417 46.0353 6.21417 42.1136 6.19039C41.9301 6.19039 41.7467 6.04771 41.1504 5.8337Z" fill="#2776EA"/>
<path d="M41.5176 13.8259C41.9763 13.7783 42.412 13.7069 42.8477 13.7069C46.3566 13.7069 49.8654 13.7069 53.3743 13.7069C53.6724 13.7069 53.9935 13.6831 54.2916 13.7545C54.4522 13.7783 54.6815 14.0164 54.6586 14.1116C54.6127 14.3258 54.4522 14.6352 54.3146 14.659C53.81 14.7304 53.3055 14.7304 52.8009 14.7304C49.4985 14.7304 46.196 14.7542 42.8936 14.7304C42.3432 14.7304 41.5864 15.016 41.5176 13.8259Z" fill="#2776EA"/>
<path d="M37.3658 10.5211C37.0676 10.4973 36.7236 10.5687 36.4713 10.4497C36.2649 10.3545 36.1273 10.0451 35.9668 9.83084C36.4025 9.68803 36.8383 9.4024 37.297 9.4262C37.8015 9.4262 38.2831 9.68803 38.7876 9.83084C38.6271 10.0451 38.4895 10.3545 38.2831 10.4497C38.0079 10.5687 37.6868 10.5211 37.3658 10.5211Z" fill="#2776EA"/>
<path d="M37.2281 6.18943C36.9759 6.18943 36.7007 6.23703 36.4713 6.16563C36.2879 6.09422 36.1273 5.88 35.9668 5.73719C36.1503 5.54678 36.3337 5.23735 36.5401 5.18975C37.0217 5.11834 37.5492 5.09454 38.0538 5.18975C38.329 5.23735 38.5354 5.54678 38.7876 5.71339C38.5124 5.88 38.2831 6.07042 37.985 6.18943C37.7556 6.26083 37.4804 6.21323 37.2281 6.18943Z" fill="#2776EA"/>
<path d="M38.7637 13.8262C38.7866 15.134 37.8922 14.706 37.3877 14.706C36.8602 14.706 35.9658 15.134 35.9887 13.8262C36.9061 13.8262 37.8234 13.8262 38.7637 13.8262Z" fill="#2776EA"/>
<path d="M27.0673 38.6109C27.0214 43.1304 23.352 46.8649 18.9946 46.7935C14.706 46.7222 11.1284 42.9401 11.1743 38.5158C11.2201 34.0676 14.7978 30.3569 19.0864 30.3331C23.4438 30.3093 27.1132 34.1152 27.0673 38.6109ZM19.1552 31.4511C15.3253 31.4273 12.2292 34.6147 12.2292 38.5633C12.2292 42.4168 15.2794 45.628 19.0176 45.7231C22.7787 45.8183 25.9665 42.5833 26.0353 38.6347C26.1041 34.7099 23.008 31.4749 19.1552 31.4511Z" fill="#2776EA"/>
</svg>
