<svg width="63" height="65" viewBox="0 0 63 65" fill="none" xmlns="http://www.w3.org/2000/svg">
<path d="M40.2465 47.152C41.5678 45.5209 42.8009 44.0091 43.9901 42.4973C44.6067 41.7415 45.1792 40.9856 45.8398 40.1103C43.6818 37.9223 42.2284 35.4955 42.4046 32.5117C42.6248 29.528 44.1222 27.1808 46.7647 25.311C44.3424 22.4068 42.0082 19.622 39.674 16.7973C34.6532 19.7015 30.0288 19.3037 25.5366 15.763C23.7309 17.6328 21.9692 19.423 20.0313 21.3724C21.6609 23.282 22.3656 25.8281 22.0132 28.7323C24.2153 29.2495 26.3293 29.8463 28.4874 30.2441C28.9718 30.3237 29.6765 29.8463 30.205 29.4882C31.5703 28.5732 32.9796 28.3743 34.477 29.0506C35.8864 29.6871 36.6351 30.7613 36.6351 32.2333C36.6351 33.9439 35.2698 35.3761 33.4641 35.6546C31.5703 35.9331 29.5444 35.0579 29.192 33.4268C28.8837 31.915 27.9589 31.5569 26.5936 31.2785C25.1842 31 23.7749 30.6419 22.3656 30.3237C22.1894 30.2839 21.9692 30.3237 21.6609 30.3237C19.2826 34.7794 15.407 37.0868 9.81365 36.2514C5.67372 35.6546 2.37058 32.4322 1.66592 28.8517C0.829121 24.396 2.85504 21.0939 8.44835 18.1102C7.91985 17.235 7.39135 16.3995 6.86285 15.5641C6.2903 14.6888 5.71776 13.8534 5.18926 13.0179C1.70996 12.6201 0.388704 11.8244 0.0363694 9.87505C-0.18384 8.40307 0.608913 6.97087 2.06229 6.25478C3.55971 5.53868 5.49755 5.81716 6.68668 6.89131C8.1841 8.28372 8.1841 9.71592 6.55455 12.3018C7.69964 14.0523 8.84473 15.8823 10.0779 17.7919C13.2049 17.5134 16.0235 18.15 18.622 20.0198C20.5158 18.0704 22.3215 16.2006 24.3034 14.1319C23.3785 12.4212 22.5417 10.2331 23.1143 7.76654C23.9951 3.78821 27.2542 0.844249 31.7465 0.167933C35.9745 -0.468599 40.3346 1.40122 42.3165 4.94193C43.0212 6.21499 43.902 6.81174 45.3554 7.09022C47.1611 7.48806 48.9228 8.00524 50.7285 8.48264C53.5912 6.49348 55.0446 6.25477 56.8062 7.44827C58.2156 8.36329 58.7441 9.9944 58.1715 11.4664C57.599 12.9384 56.0135 13.8932 54.2959 13.8136C52.2699 13.734 51.0368 12.5803 50.3761 9.91484C48.3062 9.35787 46.1041 8.80091 43.6377 8.12459C43.6818 10.989 43.0212 13.5351 40.775 15.763C43.1973 18.7069 45.5756 21.5713 48.0419 24.5551C51.0808 23.4809 54.0756 23.2422 57.0705 24.5551C59.0524 25.4303 60.6379 26.7034 61.6949 28.4538C63.8089 31.8752 63.3244 36.1718 60.4617 39.1158C57.2467 42.4576 52.8865 43.0941 47.029 41.0254C46.1481 42.1393 45.1792 43.293 44.2543 44.4069C43.3294 45.5607 42.4046 46.7542 41.3476 48.0272C44.2103 50.5733 45.2673 53.6764 44.5186 57.3365C46.7647 57.8537 48.7906 58.4504 50.9046 58.7687C51.6093 58.8881 52.4461 58.2913 53.0627 57.8935C54.9124 56.7795 57.2907 57.0978 58.5679 58.7289C59.8451 60.36 59.3607 62.5481 57.5109 63.662C55.7052 64.7362 53.1508 64.2986 52.0938 62.5879C51.6974 61.9514 51.5212 61.1955 51.1689 60.36C49.231 59.8826 47.1611 59.4052 45.1352 58.8881C44.1222 58.6493 43.8139 59.2063 43.3735 59.8031C41.9201 61.9911 39.7621 63.4233 37.0315 64.0599C29.8086 65.7308 23.1143 60.1213 24.3474 53.4377C24.4355 52.8808 24.6117 52.3636 24.7879 51.5679C22.8941 50.5733 21.0003 49.4594 18.9743 48.5444C18.5339 48.3455 17.7412 48.7433 17.1246 48.9422C15.451 49.4992 13.6453 49.1411 12.5883 47.9874C11.4872 46.7939 11.3551 45.2822 12.1919 43.9693C13.0287 42.6167 14.7463 41.9802 16.464 42.2984C18.1816 42.6167 19.5469 43.9693 19.4148 45.68C19.3267 46.9133 19.9433 47.4702 21.0003 47.9477C22.4536 48.624 23.863 49.4196 25.4925 50.2949C27.1661 48.2659 29.192 46.6348 32.0107 45.9983C34.9175 45.322 37.5159 45.8391 40.2465 47.152ZM38.1766 15.763C41.5678 13.6147 42.7569 10.1933 41.6118 6.93109C40.3786 3.5893 37.0315 1.40122 33.1558 1.441C29.2361 1.48078 25.8449 3.86778 24.7879 7.32892C23.8189 10.5116 25.1402 13.8136 28.135 15.5243C28.1791 14.9275 28.2231 14.4103 28.2231 13.8534C28.3112 11.8244 29.192 11.0686 31.3941 10.989C32.5833 10.9492 33.7283 10.9492 34.9175 10.989C37.1636 11.0288 38.0444 11.7847 38.1325 13.8136C38.1766 14.4103 38.1766 14.9275 38.1766 15.763ZM16.6842 33.5461C20.2956 31 21.3966 27.6582 20.0313 24.3164C18.7101 21.0939 15.0987 18.9059 11.3111 19.1446C7.43539 19.3833 4.22034 21.81 3.29546 25.1916C2.41463 28.3743 3.73588 31.5967 6.73072 33.2676C6.77476 32.5117 6.77476 31.8354 6.86285 31.1989C7.03902 29.6076 7.87581 28.8915 9.68152 28.8119C11.0468 28.7721 12.4562 28.7721 13.8215 28.8119C15.8033 28.8915 16.6401 29.6473 16.6842 31.5172C16.6842 32.0343 16.6842 32.6311 16.6842 33.5461ZM29.5444 61.4342C29.5444 60.5192 29.5003 59.9224 29.5444 59.2859C29.6765 57.5354 30.6014 56.7 32.5833 56.6204C33.9486 56.5806 35.3579 56.5408 36.7232 56.6204C38.4408 56.7398 39.3216 57.5752 39.4097 59.1665C39.4538 59.8428 39.4097 60.559 39.4097 61.4342C43.5056 59.1665 44.7388 53.3582 41.0393 49.6981C37.604 46.2768 31.6584 46.237 28.135 49.6185C24.6117 53.0001 25.0521 58.2117 29.5444 61.4342ZM47.6455 39.1555C47.6896 38.5588 47.7336 38.0416 47.7336 37.4846C47.8217 35.4955 48.7025 34.6998 50.9487 34.6203C52.1378 34.5805 53.2829 34.5805 54.472 34.6203C56.7182 34.6998 57.599 35.4955 57.6871 37.4846C57.7311 38.0416 57.7752 38.6384 57.8192 39.3147C61.1223 37.1266 62.3115 33.6655 61.0342 30.4032C59.713 27.0614 56.3218 24.9927 52.4021 25.112C48.5704 25.2314 45.2673 27.5786 44.2543 31C43.3294 34.1429 44.6507 37.4449 47.6455 39.1555ZM15.2308 32.5117C15.0987 31.5967 15.6712 30.2043 13.7334 30.085C12.4121 30.0054 11.0909 29.9656 9.81365 30.1247C9.28515 30.2043 8.53643 30.7215 8.44835 31.1591C7.6556 33.9042 8.53644 34.9385 11.7074 34.9385C12.1038 34.9385 12.5442 34.8987 12.9406 34.859C15.0546 34.66 15.1867 34.5407 15.2308 32.5117ZM29.9848 16.678C31.7465 17.4737 33.5081 17.3543 35.3138 17.1156C35.7102 17.0758 36.3268 16.8371 36.3708 16.6382C36.503 15.4845 36.6791 14.291 36.4589 13.1373C36.2387 12.1029 35.0056 12.3814 34.1688 12.4212C30.0288 12.5007 29.5444 11.3868 29.9848 16.678ZM55.7933 40.548C55.9694 40.0706 56.0135 40.0308 56.0135 39.9512C56.3658 35.9729 56.3658 35.9729 52.0497 35.9729C49.3632 35.9729 49.3191 36.0127 49.3191 38.3201C49.3191 40.4684 49.5834 40.7469 52.0057 40.8264C53.2829 40.8662 54.6042 40.6275 55.7933 40.548ZM34.5651 58.0526C33.8605 58.0526 33.1558 57.9333 32.4952 58.0924C32.0107 58.2117 31.3501 58.6096 31.218 59.0074C30.2931 61.832 31.306 62.9459 34.5651 62.9062C35.3138 62.9062 36.1066 62.8664 36.7672 62.5879C37.2076 62.4288 37.7361 61.9116 37.8242 61.474C38.3527 58.4504 37.9123 58.0526 34.5651 58.0526ZM32.7594 34.2622C33.9926 34.2622 35.0936 33.2278 35.0936 32.1139C35.0936 31 33.9485 30.0054 32.7154 30.0054C31.4822 30.0054 30.3812 31.0398 30.3812 32.1537C30.3812 33.3074 31.5263 34.302 32.7594 34.2622ZM57.6871 60.8374C57.7311 59.6439 56.6741 58.6494 55.3969 58.6494C54.1637 58.6494 53.1508 59.4848 53.0627 60.6385C52.9746 61.832 53.9435 62.8664 55.2648 62.9459C56.542 62.9459 57.6871 61.9911 57.6871 60.8374ZM1.62187 9.35787C1.62187 10.5514 2.67888 11.546 3.95609 11.5062C5.14522 11.5062 6.20222 10.5514 6.24626 9.47722C6.2903 8.28372 5.27734 7.24936 4.00013 7.20957C2.67888 7.16979 1.62187 8.16437 1.62187 9.35787ZM17.9173 45.7596C17.9614 44.5661 16.9044 43.5715 15.6272 43.5715C14.35 43.5715 13.2489 44.5661 13.2929 45.7596C13.2929 46.8337 14.3059 47.7885 15.495 47.8681C16.7723 47.9079 17.8733 46.9531 17.9173 45.7596ZM54.428 12.3814C55.7492 12.3814 56.8503 11.4664 56.8503 10.3127C56.8503 9.15896 55.7492 8.20416 54.428 8.20416C53.1948 8.24394 52.1819 9.07939 52.1378 10.1933C52.0497 11.3868 53.0627 12.3416 54.428 12.3814Z" fill="#2776EA"/>
<path d="M37.1194 6.69187C37.1634 8.68103 35.4017 10.3121 33.2437 10.3519C31.1737 10.3519 29.4121 8.84017 29.368 6.89079C29.324 4.90162 31.0416 3.27051 33.2437 3.27051C35.3577 3.27051 37.0753 4.78227 37.1194 6.69187ZM33.2877 4.70271C31.9665 4.70271 30.8654 5.6575 30.9095 6.81122C30.9535 7.88537 31.9665 8.84017 33.1556 8.91973C34.4328 8.9993 35.622 8.00472 35.666 6.89079C35.666 5.73707 34.5649 4.70271 33.2877 4.70271Z" fill="#2776EA"/>
<path d="M11.7916 20.9355C13.9496 20.9355 15.7554 22.5667 15.7113 24.516C15.6673 26.4256 13.7735 28.0965 11.7035 28.017C9.63355 27.9772 7.91592 26.3859 7.87188 24.516C7.82784 22.6064 9.63355 20.9355 11.7916 20.9355ZM9.50143 24.1978C9.32526 25.3913 10.2501 26.4654 11.5274 26.5848C12.8486 26.7041 13.9937 25.8289 14.0818 24.6752C14.1699 23.5215 13.3771 22.5667 12.1439 22.4473C10.7786 22.2484 9.63355 23.0043 9.50143 24.1978Z" fill="#2776EA"/>
<path d="M34.569 55.9062C32.411 55.9062 30.7374 54.474 30.6493 52.5246C30.6052 50.5354 32.2788 48.9043 34.525 48.9043C36.7271 48.9043 38.5328 50.5354 38.4887 52.445C38.4447 54.3944 36.683 55.9062 34.569 55.9062ZM32.2348 52.3654C32.1908 53.5589 33.2478 54.5933 34.525 54.5933C35.7141 54.5933 36.8151 53.7181 36.9032 52.6439C36.9913 51.4902 35.9783 50.4161 34.7011 50.3365C33.468 50.2171 32.2788 51.1719 32.2348 52.3654Z" fill="#2776EA"/>
<path d="M56.6283 30.365C56.6283 32.3541 54.8226 33.9455 52.6645 33.9057C50.5946 33.8659 48.921 32.3144 48.877 30.365C48.877 28.336 50.5946 26.8243 52.8407 26.864C54.9988 26.9436 56.6283 28.4554 56.6283 30.365ZM52.6645 28.2565C51.4314 28.2962 50.3303 29.3704 50.4184 30.4843C50.4625 31.5983 51.6516 32.5531 52.8848 32.5133C54.1179 32.4735 55.219 31.3993 55.1309 30.2854C55.0428 29.1715 53.8977 28.2167 52.6645 28.2565Z" fill="#2776EA"/>
</svg>
