<svg width="1160" height="431" viewBox="0 0 1160 431" fill="none" xmlns="http://www.w3.org/2000/svg">
<path fill-rule="evenodd" clip-rule="evenodd" d="M857.244 0.0136719C843.161 0.0136719 831.744 11.4304 831.744 25.5137V145.178H834.744V25.5137C834.744 13.0873 844.818 3.01367 857.244 3.01367H1134.24C1146.67 3.01367 1156.74 13.0873 1156.74 25.5137V191.504V403.45C1156.74 415.876 1146.67 425.95 1134.24 425.95H857.244C844.818 425.95 834.744 415.876 834.744 403.45V270.01H831.744V403.45C831.744 417.533 843.161 428.95 857.244 428.95H1134.24C1148.33 428.95 1159.74 417.533 1159.74 403.45V191.504V25.5137C1159.74 11.4304 1148.33 0.0136719 1134.24 0.0136719H857.244Z" fill="#8A8A8A"/>
<path d="M330.557 195.235V31C330.557 17.7451 319.812 7 306.557 7H26C12.7452 7 2 17.7452 2 31V405C2 418.255 12.7452 429 26 429H306.557C319.812 429 330.557 418.255 330.557 405V236.903C330.557 223.649 341.302 212.903 354.557 212.903H414M414 212.903L385.689 184.362M414 212.903L385.689 240.765" stroke="#2776EA" stroke-width="3"/>
<path fill-rule="evenodd" clip-rule="evenodd" d="M443.082 4C428.999 4 417.582 15.4167 417.582 29.5V148H420.582V29.5C420.582 17.0736 430.656 7 443.082 7H724.172C736.599 7 746.672 17.0736 746.672 29.5V193.951H749.672V29.5C749.672 15.4168 738.255 4 724.172 4H443.082ZM420.582 271.82H417.582V403.984C417.582 418.067 428.999 429.484 443.082 429.484H724.172C738.255 429.484 749.672 418.067 749.672 403.984V235.639C749.672 223.213 759.746 213.139 772.172 213.139H828.087L802.342 238.463L804.446 240.602L832.802 212.709L833.877 211.652L832.815 210.583L804.458 182.009L802.329 184.122L828.149 210.139H772.172C758.089 210.139 746.672 221.556 746.672 235.639V403.984C746.672 416.41 736.599 426.484 724.172 426.484H443.082C430.656 426.484 420.582 416.41 420.582 403.984V271.82Z" fill="#F9D00D"/>
</svg>
