<svg width="64" height="57" viewBox="0 0 64 57" fill="none" xmlns="http://www.w3.org/2000/svg">
<path d="M63.276 56.9846H0.723982C0.324344 56.9846 0 56.6603 0 56.2606V47.0501C0 46.6505 0.324344 46.3262 0.723982 46.3262H63.276C63.6757 46.3262 64 46.6505 64 47.0501V56.2606C64 56.6603 63.6757 56.9846 63.276 56.9846ZM1.44796 55.5367H62.552V47.7741H1.44796V55.5367Z" fill="#0274BA"/>
<path d="M61.542 47.7727C61.1424 47.7727 60.818 47.4483 60.818 47.0487V8.09556H42.6461C42.2465 8.09556 41.9221 7.77122 41.9221 7.37158C41.9221 6.97194 42.2465 6.6476 42.6461 6.6476H61.542C61.9417 6.6476 62.266 6.97194 62.266 7.37158V47.0487C62.266 47.4483 61.9417 47.7727 61.542 47.7727ZM2.4564 47.7727C2.05677 47.7727 1.73242 47.4483 1.73242 47.0487V7.37158C1.73242 6.97194 2.05677 6.6476 2.4564 6.6476H21.3538C21.7534 6.6476 22.0778 6.97194 22.0778 7.37158C22.0778 7.77122 21.7534 8.09556 21.3538 8.09556H3.18039V47.0487C3.18039 47.4483 2.85604 47.7727 2.4564 47.7727Z" fill="#0274BA"/>
<path d="M57.9004 47.7727C57.5007 47.7727 57.1764 47.4483 57.1764 47.0487V11.7401H45.8041C45.4045 11.7401 45.0801 11.4157 45.0801 11.0161C45.0801 10.6165 45.4045 10.2921 45.8041 10.2921H57.9004C58.3 10.2921 58.6244 10.6165 58.6244 11.0161V47.0487C58.6244 47.4483 58.3 47.7727 57.9004 47.7727ZM6.10093 47.7727C5.7013 47.7727 5.37695 47.4483 5.37695 47.0487V11.0161C5.37695 10.6165 5.7013 10.2921 6.10093 10.2921H18.1871C18.5867 10.2921 18.9111 10.6165 18.9111 11.0161C18.9111 11.4157 18.5867 11.7401 18.1871 11.7401H6.82492V47.0487C6.82492 47.4483 6.50057 47.7727 6.10093 47.7727Z" fill="#0274BA"/>
<path d="M43.2345 52.3786H20.765C20.3654 52.3786 20.041 52.0543 20.041 51.6547V47.0487C20.041 46.6491 20.3654 46.3247 20.765 46.3247C21.1646 46.3247 21.489 46.6491 21.489 47.0487V50.9307H42.5105V47.0487C42.5105 46.6491 42.8349 46.3247 43.2345 46.3247C43.6341 46.3247 43.9585 46.6491 43.9585 47.0487V51.6547C43.9585 52.0543 43.6341 52.3786 43.2345 52.3786Z" fill="#0274BA"/>
<path d="M32.0008 36.9158C22.5717 36.9158 14.9004 29.2445 14.9004 19.8154C14.9004 10.3862 22.5717 2.71494 32.0008 2.71494C41.43 2.71494 49.1013 10.3862 49.1013 19.8154C49.1013 29.2445 41.43 36.9158 32.0008 36.9158ZM32.0008 4.1629C23.3695 4.1629 16.3484 11.1841 16.3484 19.8154C16.3484 28.4467 23.3695 35.4679 32.0008 35.4679C40.6322 35.4679 47.6533 28.4467 47.6533 19.8154C47.6533 11.1855 40.6322 4.1629 32.0008 4.1629Z" fill="#0274BA"/>
<path d="M31.9994 6.87783C31.5997 6.87783 31.2754 6.55348 31.2754 6.15385V0.723982C31.2754 0.324344 31.5997 0 31.9994 0C32.399 0 32.7234 0.324344 32.7234 0.723982V6.15385C32.7234 6.55493 32.399 6.87783 31.9994 6.87783Z" fill="#0274BA"/>
<path d="M51.0913 20.5394H45.6615C45.2618 20.5394 44.9375 20.215 44.9375 19.8154C44.9375 19.4157 45.2618 19.0914 45.6615 19.0914H51.0913C51.491 19.0914 51.8153 19.4157 51.8153 19.8154C51.8153 20.215 51.491 20.5394 51.0913 20.5394Z" fill="#0274BA"/>
<path d="M31.9994 39.6308C31.5997 39.6308 31.2754 39.3064 31.2754 38.9068V33.4769C31.2754 33.0773 31.5997 32.7529 31.9994 32.7529C32.399 32.7529 32.7234 33.0773 32.7234 33.4769V38.9068C32.7234 39.3079 32.399 39.6308 31.9994 39.6308Z" fill="#0274BA"/>
<path d="M18.3394 20.5394H12.9095C12.5099 20.5394 12.1855 20.215 12.1855 19.8154C12.1855 19.4157 12.5099 19.0914 12.9095 19.0914H18.3394C18.739 19.0914 19.0634 19.4157 19.0634 19.8154C19.0634 20.215 18.739 20.5394 18.3394 20.5394Z" fill="#0274BA"/>
<path d="M32.0002 30.6867C26.0056 30.6867 21.1289 25.81 21.1289 19.8154C21.1289 13.8208 26.0056 8.94408 32.0002 8.94408C37.9948 8.94408 42.8715 13.8208 42.8715 19.8154C42.8715 25.81 37.9948 30.6867 32.0002 30.6867ZM32.0002 10.392C26.8049 10.392 22.5769 14.6186 22.5769 19.8154C22.5769 25.0121 26.8035 29.2387 32.0002 29.2387C37.197 29.2387 41.4236 25.0121 41.4236 19.8154C41.4236 14.6186 37.197 10.392 32.0002 10.392Z" fill="#0274BA"/>
<path d="M31.9994 12.6697C31.5997 12.6697 31.2754 12.3453 31.2754 11.9457V9.66806C31.2754 9.26842 31.5997 8.94408 31.9994 8.94408C32.399 8.94408 32.7234 9.26842 32.7234 9.66806V11.9443C32.7234 12.3453 32.399 12.6697 31.9994 12.6697Z" fill="#0274BA"/>
<path d="M37.5661 14.9748C37.3808 14.9748 37.1955 14.9039 37.0536 14.7634C36.7712 14.4811 36.7712 14.0221 37.0536 13.7397L38.6637 12.1296C38.946 11.8472 39.4051 11.8472 39.6874 12.1296C39.9698 12.4119 39.9698 12.871 39.6874 13.1533L38.0773 14.7634C37.9368 14.9039 37.7515 14.9748 37.5661 14.9748Z" fill="#0274BA"/>
<path d="M42.1467 20.5394H39.8705C39.4708 20.5394 39.1465 20.215 39.1465 19.8154C39.1465 19.4157 39.4708 19.0914 39.8705 19.0914H42.1467C42.5463 19.0914 42.8706 19.4157 42.8706 19.8154C42.8706 20.215 42.5463 20.5394 42.1467 20.5394Z" fill="#0274BA"/>
<path d="M39.1743 27.7155C38.989 27.7155 38.8036 27.6445 38.6617 27.5041L37.0516 25.8939C36.7693 25.6116 36.7693 25.1526 37.0516 24.8702C37.334 24.5879 37.793 24.5879 38.0753 24.8702L39.6855 26.4804C39.9678 26.7627 39.9678 27.2217 39.6855 27.5041C39.545 27.6445 39.3597 27.7155 39.1743 27.7155Z" fill="#0274BA"/>
<path d="M31.9994 30.6867C31.5997 30.6867 31.2754 30.3624 31.2754 29.9627V27.6865C31.2754 27.2869 31.5997 26.9625 31.9994 26.9625C32.399 26.9625 32.7234 27.2869 32.7234 27.6865V29.9627C32.7234 30.3624 32.399 30.6867 31.9994 30.6867Z" fill="#0274BA"/>
<path d="M24.8259 27.7155C24.6406 27.7155 24.4552 27.6445 24.3133 27.5041C24.031 27.2217 24.031 26.7627 24.3133 26.4804L25.9235 24.8702C26.2058 24.5879 26.6648 24.5879 26.9472 24.8702C27.2295 25.1526 27.2295 25.6116 26.9472 25.8939L25.337 27.5041C25.1966 27.6445 25.0112 27.7155 24.8259 27.7155Z" fill="#0274BA"/>
<path d="M24.1291 20.5394H21.8529C21.4533 20.5394 21.1289 20.215 21.1289 19.8154C21.1289 19.4157 21.4533 19.0914 21.8529 19.0914H24.1291C24.5287 19.0914 24.8531 19.4157 24.8531 19.8154C24.8531 20.215 24.5302 20.5394 24.1291 20.5394Z" fill="#0274BA"/>
<path d="M26.4341 14.9748C26.2487 14.9748 26.0634 14.9039 25.9215 14.7634L24.3114 13.1533C24.029 12.871 24.029 12.4119 24.3114 12.1296C24.5937 11.8472 25.0527 11.8472 25.3351 12.1296L26.9452 13.7397C27.2276 14.0221 27.2276 14.4811 26.9452 14.7634C26.8048 14.9039 26.6194 14.9748 26.4341 14.9748Z" fill="#0274BA"/>
<path d="M32 24.2563C29.5515 24.2563 27.5605 22.2639 27.5605 19.8168C27.5605 17.3698 29.5529 15.3774 32 15.3774C34.4471 15.3774 36.4395 17.3698 36.4395 19.8168C36.4395 22.2639 34.4485 24.2563 32 24.2563ZM32 16.8239C30.3508 16.8239 29.0085 18.1662 29.0085 19.8154C29.0085 21.4646 30.3508 22.8069 32 22.8069C33.6492 22.8069 34.9915 21.4646 34.9915 19.8154C34.9915 18.1662 33.6492 16.8239 32 16.8239Z" fill="#0274BA"/>
<path d="M49.1579 43.3549H14.8412C14.4415 43.3549 14.1172 43.0306 14.1172 42.6309C14.1172 42.2313 14.4415 41.907 14.8412 41.907H49.1579C49.5576 41.907 49.8819 42.2313 49.8819 42.6309C49.8819 43.0306 49.5576 43.3549 49.1579 43.3549Z" fill="#0274BA"/>
<path d="M13.1699 34.2328H9.61656C9.21692 34.2328 8.89258 33.9084 8.89258 33.5088C8.89258 33.1091 9.21692 32.7848 9.61656 32.7848H13.1699C13.5695 32.7848 13.8938 33.1091 13.8938 33.5088C13.8938 33.9084 13.5709 34.2328 13.1699 34.2328Z" fill="#0274BA"/>
<path d="M15.6053 37.4125H9.61656C9.21692 37.4125 8.89258 37.0881 8.89258 36.6885C8.89258 36.2889 9.21692 35.9645 9.61656 35.9645H15.6068C16.0064 35.9645 16.3308 36.2889 16.3308 36.6885C16.3308 37.0881 16.005 37.4125 15.6053 37.4125Z" fill="#0274BA"/>
</svg>
