<svg width="66" height="69" viewBox="0 0 66 69" fill="none" xmlns="http://www.w3.org/2000/svg">
<path d="M13.9754 19.7231C13.9754 30.2188 22.5133 38.7461 32.9985 38.7461C43.4837 38.7461 52.0215 30.2083 52.0215 19.7231C52.0215 9.23783 43.4837 0.7 32.9985 0.7C22.5132 0.7 13.9754 9.23783 13.9754 19.7231ZM15.6063 19.7127C15.6063 10.1211 23.4069 2.3205 32.9985 2.3205C42.5899 2.3205 50.3906 10.1314 50.3906 19.7127C50.3906 29.3042 42.59 37.1048 32.9985 37.1048C23.4069 37.1048 15.6063 29.3042 15.6063 19.7127Z" fill="#0274BA" stroke="#0274BA" stroke-width="0.6"/>
<path d="M17.8602 19.7231C17.8602 28.0736 24.6486 34.862 32.9991 34.862C41.3496 34.862 48.138 28.0736 48.138 19.7231C48.138 11.3726 41.3496 4.58416 32.9991 4.58416C24.6486 4.58416 17.8602 11.3726 17.8602 19.7231ZM19.4911 19.7231C19.4911 12.2661 25.5528 6.20466 32.9991 6.20466C40.4453 6.20466 46.5071 12.2661 46.5071 19.7231C46.5071 27.1695 40.4455 33.2311 32.9991 33.2311C25.5527 33.2311 19.4911 27.1695 19.4911 19.7231Z" fill="#0274BA" stroke="#0274BA" stroke-width="0.6"/>
<path d="M19.9467 7.63455L19.9467 7.63456L19.9491 7.63507C20.886 7.8352 21.5841 8.50255 22.1043 9.87123C22.224 10.2073 22.5415 10.4012 22.865 10.4012C22.9573 10.4012 23.0581 10.3863 23.1515 10.3493C23.5698 10.1873 23.7905 9.71528 23.6234 9.29415C22.922 7.47169 21.8365 6.37754 20.2822 6.04852L20.2822 6.04847L20.2767 6.04741C19.8523 5.96579 19.4228 6.22727 19.3235 6.67145C19.2222 7.1135 19.5128 7.53812 19.9467 7.63455Z" fill="#0274BA" stroke="#0274BA" stroke-width="0.6"/>
<path d="M14.1071 20.1681L14.1071 20.1681L14.1105 20.1732C14.3541 20.5304 14.8467 20.6507 15.2292 20.4021C16.0394 19.8836 16.9953 19.8651 18.3338 20.4633C18.4519 20.5206 18.5739 20.5333 18.6695 20.5333C18.9808 20.5333 19.2788 20.3535 19.4123 20.0532L19.4127 20.0522C19.5926 19.6432 19.4136 19.1632 18.9997 18.9804C17.2193 18.1821 15.6791 18.1712 14.3403 19.0449L14.3402 19.0448L14.3352 19.0483C13.9777 19.292 13.8575 19.7854 14.1071 20.1681Z" fill="#0274BA" stroke="#0274BA" stroke-width="0.6"/>
<path d="M23.1622 30.6355L23.1622 30.6355L23.1634 30.635C23.5829 30.4737 23.8045 30.0008 23.637 29.579C23.4748 29.1602 23.0136 28.9412 22.5835 29.1066L22.6912 29.3866L22.585 29.106C20.7612 29.7967 19.6665 30.882 19.3367 32.4356C19.2375 32.8732 19.5219 33.2932 19.9489 33.3944C20.0242 33.4155 20.1012 33.4148 20.1249 33.4146C20.1268 33.4146 20.1284 33.4145 20.1296 33.4145C20.4906 33.4145 20.8354 33.1592 20.9212 32.7987L20.9213 32.7988L20.9228 32.7919C21.1231 31.8542 21.7913 31.1558 23.1622 30.6355Z" fill="#0274BA" stroke="#0274BA" stroke-width="0.6"/>
<path d="M43.9012 29.5717L43.9012 29.5717L43.9007 29.5705C43.7392 29.1504 43.2773 28.9305 42.8466 29.0962C42.4274 29.2574 42.2058 29.7297 42.3726 30.1512C43.062 31.9701 44.1443 33.0633 45.6925 33.3952C45.7668 33.4155 45.842 33.4148 45.8654 33.4146C45.8673 33.4146 45.8688 33.4145 45.87 33.4145C46.2467 33.4145 46.5842 33.1551 46.6809 32.7842L46.6811 32.7842L46.683 32.7759C46.7851 32.3334 46.4943 31.9081 46.06 31.8116L46.06 31.8116L46.0576 31.8111C45.1199 31.6108 44.4215 30.9426 43.9012 29.5717Z" fill="#0274BA" stroke="#0274BA" stroke-width="0.6"/>
<path d="M47.6583 18.9703L47.6583 18.9703L47.6565 18.9695C47.2472 18.7894 46.7667 18.9689 46.5842 19.3836C46.4044 19.7922 46.5831 20.2718 46.9962 20.4549C47.8679 20.8529 48.6807 21.054 49.4517 21.054C50.2488 21.054 50.9838 20.8394 51.6591 20.3892L51.6591 20.3892L51.6617 20.3875C52.0193 20.1437 52.1394 19.6504 51.8898 19.2676L51.8898 19.2676L51.8864 19.2625C51.6428 18.9053 51.1503 18.7851 50.7677 19.0337C49.9565 19.5527 48.9993 19.5707 47.6583 18.9703Z" fill="#0274BA" stroke="#0274BA" stroke-width="0.6"/>
<path d="M42.8478 8.82105L42.8478 8.82105L42.8466 8.82152C42.4285 8.98231 42.207 9.45256 42.3713 9.87327C42.4916 10.2081 42.8085 10.4012 43.1313 10.4012C43.2222 10.4012 43.3358 10.3866 43.4518 10.3195C45.2595 9.62835 46.3451 8.54608 46.6732 7.0001C46.7734 6.55868 46.483 6.13504 46.0496 6.03874L46.0497 6.03862L46.0412 6.03699C45.6105 5.95416 45.1867 6.23331 45.0883 6.65984L45.0882 6.65983L45.0872 6.66463C44.8869 7.60232 44.2187 8.30073 42.8478 8.82105Z" fill="#0274BA" stroke="#0274BA" stroke-width="0.6"/>
<path d="M33.8217 19.7234L33.8219 19.7234V19.7127C33.8219 19.2658 33.4585 18.9024 33.0116 18.9024C31.3654 18.9024 30.021 17.558 30.021 15.9118C30.021 14.2656 31.3654 12.9212 33.0116 12.9212C34.6578 12.9212 36.0022 14.2656 36.0022 15.9118C36.0022 16.3587 36.3656 16.7221 36.8125 16.7221C37.2593 16.7221 37.6227 16.3587 37.6227 15.9118C37.6227 13.3615 35.5515 11.2903 33.0012 11.2903C30.4509 11.2903 28.3797 13.3615 28.3797 15.9118C28.3797 18.4621 30.4509 20.5333 33.0012 20.5333C33.4537 20.5333 33.8058 20.1663 33.8217 19.7234Z" fill="#0274BA" stroke="#0274BA" stroke-width="0.6"/>
<path d="M37.6123 23.5337C37.6119 20.9836 35.5409 18.9128 32.9908 18.9128C32.5439 18.9128 32.1805 19.2762 32.1805 19.7231C32.1805 20.1699 32.5439 20.5333 32.9908 20.5333C34.637 20.5333 35.9814 21.8777 35.9814 23.5239C35.9814 25.1701 34.637 26.5145 32.9908 26.5145C31.3446 26.5145 30.0002 25.1701 30.0002 23.5239C30.0002 23.0771 29.6368 22.7137 29.1899 22.7137C28.7431 22.7137 28.3797 23.0771 28.3797 23.5239C28.3797 26.0742 30.4509 28.1454 33.0012 28.1454C35.5506 28.1454 37.6231 26.075 37.6123 23.5337ZM37.6123 23.5337C37.6123 23.5339 37.6123 23.5341 37.6123 23.5343H37.3123L37.6123 23.533C37.6123 23.5332 37.6123 23.5335 37.6123 23.5337Z" fill="#0274BA" stroke="#0274BA" stroke-width="0.6"/>
<path d="M32.1902 12.111C32.1902 12.5578 32.5536 12.9212 33.0005 12.9212C33.4473 12.9212 33.8107 12.5578 33.8107 12.111V9.85128C33.8107 9.40444 33.4473 9.04103 33.0005 9.04103C32.5536 9.04103 32.1902 9.40444 32.1902 9.85128V12.111Z" fill="#0274BA" stroke="#0274BA" stroke-width="0.6"/>
<path d="M32.1902 29.5949C32.1902 30.0417 32.5536 30.4051 33.0005 30.4051C33.4473 30.4051 33.8107 30.0417 33.8107 29.5949V27.3352C33.8107 26.8883 33.4473 26.5249 33.0005 26.5249C32.5536 26.5249 32.1902 26.8883 32.1902 27.3352V29.5949Z" fill="#0274BA" stroke="#0274BA" stroke-width="0.6"/>
<path d="M65.2988 65.8153H65.2989V65.8122V54.0036C65.2989 52.8163 64.3304 51.8604 63.1557 51.8604H51.3471C50.1598 51.8604 49.2039 52.8289 49.2039 54.0036V65.8018C49.2039 66.9891 50.1724 67.945 51.3471 67.945H63.1557C64.3321 67.945 65.2868 66.9881 65.2988 65.8153ZM50.8348 53.9932C50.8348 53.7463 51.0111 53.5392 51.2442 53.4913H51.3471H63.1557C63.4378 53.4913 63.668 53.7215 63.668 54.0036V65.8018C63.668 66.0839 63.4378 66.3141 63.1557 66.3141H51.3471C51.065 66.3141 50.8348 66.0839 50.8348 65.8018V53.9932Z" fill="#0274BA" stroke="#0274BA" stroke-width="0.6"/>
<path d="M2.33091 53.9932C2.33091 53.7463 2.50719 53.5392 2.74029 53.4913H2.84315H14.6518C14.9339 53.4913 15.164 53.7215 15.164 54.0036V65.8018C15.164 66.0839 14.9339 66.3141 14.6518 66.3141H2.84315C2.56106 66.3141 2.33091 66.0839 2.33091 65.8018V53.9932ZM2.84315 67.945H14.6518C15.8254 67.945 16.795 66.9902 16.795 65.8122V54.0036C16.795 52.8163 15.8265 51.8604 14.6518 51.8604H2.84315C1.65586 51.8604 0.7 52.8289 0.7 54.0036V65.8018C0.7 66.9891 1.66848 67.945 2.84315 67.945Z" fill="#0274BA" stroke="#0274BA" stroke-width="0.6"/>
<path d="M56.9933 52.6707C56.9933 53.1175 57.3567 53.4809 57.8035 53.4809C58.2504 53.4809 58.6138 53.1175 58.6138 52.6707V43.3404C58.6138 42.8935 58.2504 42.5301 57.8035 42.5301H8.74658C8.29973 42.5301 7.93633 42.8935 7.93633 43.3404V52.6707C7.93633 53.1175 8.29973 53.4809 8.74658 53.4809C9.19342 53.4809 9.55683 53.1175 9.55683 52.6707V44.1506H56.9933V52.6707Z" fill="#0274BA" stroke="#0274BA" stroke-width="0.6"/>
<path d="M32.2 43.3404C32.2 43.7872 32.5634 44.1506 33.0102 44.1506C33.4571 44.1506 33.8205 43.7872 33.8205 43.3404V37.9255C33.8205 37.4786 33.4571 37.1152 33.0102 37.1152C32.5634 37.1152 32.2 37.4786 32.2 37.9255V43.3404Z" fill="#0274BA" stroke="#0274BA" stroke-width="0.6"/>
</svg>
