<svg width="60" height="68" viewBox="0 0 60 68" fill="none" xmlns="http://www.w3.org/2000/svg">
<path d="M1.92844 65.8509C16.7041 65.8509 31.4419 65.8509 46.2554 65.8509C46.2554 65.652 46.2554 65.4687 46.2554 65.2846C46.2562 60.5999 46.2562 55.9145 46.2579 51.2298C46.2579 50.6413 46.5045 50.2779 46.964 50.1686C47.5295 50.0338 48.0729 50.4267 48.1337 51.0219C48.1493 51.1706 48.1362 51.3227 48.1362 51.474C48.1362 56.2959 48.137 61.1178 48.1354 65.9397C48.1354 66.8579 47.7194 67.4752 46.9443 67.6923C46.7634 67.7432 46.5662 67.7523 46.3771 67.7523C31.4863 67.7555 16.5956 67.7556 1.70567 67.7547C0.685558 67.7547 0.00904263 67.0552 0.00822062 66.0006C0.00575458 60.549 0.00739781 55.0966 0.00739781 49.645C0.00739781 37.7817 0.00904213 25.9193 0 14.056C0 13.728 0.0928883 13.5011 0.324696 13.2701C4.67067 8.93814 9.00514 4.59546 13.3544 0.266742C13.5048 0.116314 13.7745 0.0110975 13.989 0.0110975C24.7565 -0.00123268 35.5232 -0.000411068 46.2908 0.000410943C47.495 0.000410943 48.137 0.648155 48.137 1.85158C48.137 8.93321 48.137 16.0157 48.1362 23.0973C48.1362 23.2346 48.1395 23.371 48.1346 23.5083C48.1156 24.0755 47.7153 24.4898 47.1884 24.489C46.6525 24.489 46.2595 24.0854 46.2587 23.505C46.2546 21.039 46.2571 18.5738 46.2571 16.1077C46.2571 11.5053 46.2571 6.90202 46.2554 2.29958C46.2554 2.17956 46.239 2.05873 46.2291 1.91734C35.9786 1.91734 25.7512 1.91734 15.4744 1.91734C15.4678 2.05955 15.4546 2.20423 15.4546 2.3489C15.4538 6.1022 15.4538 9.85551 15.4555 13.6096C15.4563 14.8311 14.8036 15.4937 13.5879 15.4937C9.90278 15.4945 6.2177 15.4937 2.53262 15.4929C2.34356 15.4929 2.15449 15.4929 1.92762 15.4929C1.92844 32.289 1.92844 49.0457 1.92844 65.8509ZM2.84581 13.557C6.4043 13.557 9.96854 13.557 13.5205 13.557C13.5205 9.96402 13.5205 6.40799 13.5205 2.88403C9.9595 6.44416 6.40265 10.001 2.84581 13.557Z" fill="#0274BA"/>
<path d="M57.9272 29.8534C57.6436 29.6989 57.4068 29.5706 57.1348 29.4227C56.7657 30.0688 56.4065 30.6952 56.0489 31.3232C51.6133 39.0969 47.1835 46.8732 42.7306 54.6371C42.438 55.1467 42.0254 55.6218 41.5741 55.9991C39.8511 57.4385 38.0863 58.8285 36.342 60.2432C35.8537 60.6394 35.3276 60.7224 34.7769 60.4323C34.2623 60.161 33.9754 59.7138 34.0403 59.1203C34.3075 56.6987 34.5368 54.2713 34.9002 51.8636C35.0136 51.1098 35.4632 50.3914 35.8282 49.6935C39.0275 43.5859 42.2432 37.4866 45.454 31.3856C47.2057 28.0565 48.959 24.7273 50.7107 21.3982C51.3231 20.2342 52.543 19.6785 53.8204 19.9852C53.9388 20.0131 54.0563 20.0443 54.2026 20.0822C54.3383 19.8388 54.4665 19.5996 54.603 19.3662C55.2721 18.2211 56.6835 17.815 57.8047 18.4439C58.9169 19.0678 59.3484 20.466 58.7023 21.6045C58.4072 22.1249 58.3719 22.4282 58.8339 22.9017C59.6255 23.7122 59.6715 24.9534 59.1059 25.9571C58.7714 26.5506 58.4344 27.1432 58.0834 27.7639C58.4533 27.9702 58.7985 28.1625 59.1429 28.3549C59.9937 28.8317 60.2313 29.6175 59.7619 30.4732C57.9206 33.8328 56.0744 37.189 54.2265 40.5453C53.9306 41.0837 53.356 41.2613 52.8693 40.9793C52.4008 40.7073 52.2816 40.1376 52.5915 39.5729C54.284 36.4903 55.9798 33.4094 57.674 30.3285C57.7546 30.1855 57.8285 30.0408 57.9272 29.8534ZM50.5373 25.7902C46.1987 34.0407 41.879 42.2543 37.5454 50.4949C38.9247 51.2545 40.2704 51.9951 41.6374 52.7481C46.2571 44.6472 50.8505 36.5931 55.4653 28.5012C53.8188 27.5953 52.2052 26.7076 50.5373 25.7902ZM56.4097 26.8457C56.778 26.2029 57.1274 25.6159 57.4537 25.0167C57.6847 24.5934 57.5819 24.1306 57.1808 23.9037C55.9667 23.2173 54.7427 22.5457 53.5138 21.8857C53.1242 21.676 52.691 21.787 52.4707 22.1635C52.1073 22.7866 51.7843 23.4327 51.4275 24.1018C53.0962 25.0208 54.7328 25.9217 56.4097 26.8457ZM36.7333 52.222C36.5097 54.1784 36.2968 56.0468 36.0715 58.0196C37.621 56.7694 39.0932 55.5816 40.6115 54.3568C39.3103 53.6408 38.0583 52.9511 36.7333 52.222ZM55.8795 21.002C56.1467 21.1508 56.3876 21.2848 56.6457 21.4278C56.7977 21.1499 56.9301 20.9288 57.0427 20.6978C57.1635 20.4504 57.1019 20.1972 56.8528 20.1241C56.6933 20.0772 56.4229 20.1611 56.3021 20.2844C56.1204 20.4701 56.025 20.7414 55.8795 21.002Z" fill="#0274BA"/>
<path d="M23.7569 30.3664C17.9494 30.3664 12.1419 30.3664 6.33356 30.3664C5.58471 30.3664 5.17453 30.0532 5.15315 29.4679C5.13343 28.9517 5.47538 28.5448 5.99407 28.4757C6.10176 28.4609 6.21273 28.4692 6.32206 28.4692C17.9239 28.4692 29.525 28.4683 41.1269 28.4716C41.3159 28.4716 41.514 28.4848 41.6916 28.5407C42.1034 28.6705 42.3747 29.1284 42.3147 29.5411C42.2489 29.9915 41.9176 30.3146 41.4663 30.354C41.3028 30.3688 41.1375 30.3631 40.974 30.3631C35.2347 30.3631 29.4954 30.3631 23.7561 30.3631C23.7569 30.3639 23.7569 30.3655 23.7569 30.3664Z" fill="#0274BA"/>
<path d="M22.1513 37.993C16.8501 37.993 11.549 37.993 6.2478 37.9921C5.55978 37.9921 5.15452 37.6403 5.15041 37.0518C5.14713 36.5553 5.49813 36.1591 5.9938 36.1048C6.08833 36.0949 6.18533 36.1007 6.2815 36.1007C16.8707 36.1007 27.459 36.1007 38.0481 36.1015C38.7428 36.1015 39.1694 36.4854 39.1464 37.0846C39.1274 37.5688 38.7863 37.9371 38.3022 37.9847C38.1525 37.9995 38.0013 37.9921 37.85 37.9921C32.6163 37.9938 27.3834 37.9938 22.1513 37.993Z" fill="#0274BA"/>
<path d="M25.8617 63.8699C24.2103 63.8798 22.9296 62.9295 22.5095 61.4606C22.3476 60.8959 22.2309 60.3172 22.0443 59.7615C21.8174 59.0866 21.5453 58.9641 20.8918 59.2329C20.489 59.3982 20.1051 59.6143 19.7303 59.8379C17.8791 60.9411 15.9745 61.9226 13.8612 62.4306C12.1185 62.8498 10.3939 62.8966 8.71535 62.1503C7.89005 61.7836 7.18477 61.2493 6.58059 60.5802C6.14986 60.1034 6.14493 59.5511 6.56662 59.1664C6.96858 58.7989 7.53412 58.8301 7.95171 59.274C9.14362 60.5408 10.6117 60.9805 12.31 60.78C13.7 60.6156 15.0054 60.1717 16.245 59.5494C17.3317 59.0036 18.3666 58.355 19.4574 57.8174C20.0123 57.5437 20.6247 57.3267 21.2338 57.2387C22.2605 57.0908 23.0652 57.5585 23.5247 58.4775C23.8083 59.0455 24.004 59.6686 24.1544 60.2876C24.5481 61.9069 25.3849 62.3508 26.8835 61.6118C27.851 61.1343 28.7609 60.5408 29.7219 60.0484C30.266 59.7697 30.8513 59.5601 31.4349 59.3735C32.012 59.1885 32.511 59.4713 32.6704 60.004C32.8233 60.5153 32.4986 60.9485 31.9479 61.1967C30.8793 61.6776 29.8304 62.2062 28.793 62.7536C27.9702 63.1876 27.1786 63.6841 26.2357 63.8272C26.073 63.851 25.9094 63.8641 25.8617 63.8699Z" fill="#0274BA"/>
<path d="M20.3042 43.7199C24.9058 43.7199 29.5083 43.7199 34.1099 43.7207C34.2464 43.7207 34.3845 43.7216 34.5201 43.7388C34.9936 43.7997 35.3437 44.1934 35.3479 44.6603C35.352 45.1305 35.0166 45.5341 34.5489 45.6114C34.442 45.6295 34.3302 45.6286 34.2209 45.6286C24.8935 45.6295 15.5661 45.6295 6.23877 45.6286C5.57623 45.6286 5.1718 45.2809 5.1529 44.7113C5.13646 44.1967 5.4891 43.7824 6.0045 43.7364C6.26261 43.7133 6.52483 43.7257 6.78459 43.7257C11.2909 43.7249 15.7971 43.7257 20.3034 43.7257C20.3042 43.7232 20.3042 43.7216 20.3042 43.7199Z" fill="#0274BA"/>
<path d="M18.7402 51.3482C22.8092 51.3482 26.8781 51.3482 30.9471 51.349C31.7765 51.349 32.2114 51.6737 32.2204 52.2943C32.2294 52.9076 31.7765 53.2495 30.9561 53.2495C22.8733 53.2495 14.7905 53.2495 6.70762 53.2479C6.43471 53.2479 6.15769 53.2454 5.88972 53.2018C5.43597 53.1287 5.14908 52.7612 5.15237 52.3058C5.15648 51.8258 5.46063 51.4526 5.92013 51.3852C6.10919 51.3572 6.30237 51.3498 6.49307 51.3498C10.5752 51.3474 14.6581 51.3482 18.7402 51.3482Z" fill="#0274BA"/>
<path d="M14.4818 22.7973C11.7026 22.7973 8.92339 22.7989 6.14417 22.7956C5.57123 22.7948 5.17831 22.4405 5.152 21.9226C5.12323 21.3719 5.48163 20.9683 6.05868 20.9083C6.18034 20.8951 6.30446 20.9017 6.42776 20.9017C7.96082 20.9009 9.49469 20.9009 11.0277 20.9009C14.8748 20.9009 18.7218 20.9001 22.5688 20.9042C22.785 20.9042 23.011 20.9148 23.2157 20.9757C23.6662 21.1088 23.8947 21.5092 23.8396 21.9991C23.7911 22.4315 23.4401 22.7594 22.9831 22.7931C22.8606 22.8022 22.7365 22.7973 22.614 22.7973C19.9038 22.7973 17.1928 22.7973 14.4818 22.7973Z" fill="#0274BA"/>
</svg>
