<svg width="45" height="66" viewBox="0 0 45 66" fill="none" xmlns="http://www.w3.org/2000/svg">
<path d="M20.2745 65.4999C13.5586 65.389 6.80583 62.8302 1.04702 57.6958C0.339408 57.0658 0.226709 56.2418 0.747717 55.6284C1.30198 54.9799 2.12783 54.9541 2.87979 55.6284C5.6234 58.0857 8.69033 60.0293 12.1933 61.1711C22.0777 64.376 31.0574 62.6842 39.1324 56.0959C39.3633 55.9111 39.5776 55.6968 39.8123 55.5102C40.4903 54.9763 41.2737 55.0132 41.791 55.5989C41.9165 55.7359 42.0122 55.8974 42.0721 56.0732C42.132 56.2491 42.1548 56.4354 42.139 56.6205C42.1232 56.8056 42.0691 56.9854 41.9803 57.1485C41.8915 57.3117 41.7698 57.4546 41.6229 57.5684C40.1319 58.7582 38.6668 59.996 37.052 61.0122C32.3242 64.0015 26.8443 65.5054 20.2745 65.4999Z" fill="#0274BA"/>
<path d="M21.6713 0.76001C28.9636 0.867168 35.6998 3.41494 41.4512 8.51971C42.4156 9.37513 42.314 10.6056 41.2664 11.0342C40.6161 11.2984 40.1099 11.0342 39.6369 10.6093C37.5789 8.76013 35.26 7.22377 32.7548 6.04954C23.2621 1.53783 11.2586 3.23203 3.37876 10.2065C3.15336 10.4061 2.93351 10.6093 2.69702 10.7922C2.04299 11.291 1.27071 11.2412 0.770025 10.6813C0.643287 10.5455 0.546202 10.3847 0.48494 10.2093C0.423677 10.0339 0.399578 9.84767 0.414174 9.66244C0.428769 9.47722 0.481742 9.29705 0.569722 9.1334C0.657702 8.96975 0.778764 8.8262 0.925218 8.71186C2.37924 7.5479 3.81109 6.33222 5.37781 5.34008C10.2221 2.26761 15.5597 0.811741 21.6713 0.76001Z" fill="#0274BA"/>
<path d="M14.3748 33.1402C14.3773 31.7781 14.7835 30.4472 15.5421 29.3157C16.3006 28.1843 17.3775 27.303 18.6366 26.7832C19.8957 26.2635 21.2807 26.1285 22.6164 26.3954C23.9522 26.6623 25.179 27.3191 26.1417 28.2829C27.1044 29.2466 27.7599 30.474 28.0253 31.8101C28.2908 33.1462 28.1544 34.531 27.6333 35.7895C27.1121 37.0481 26.2297 38.124 25.0975 38.8813C23.9652 39.6387 22.6339 40.0434 21.2717 40.0445C19.4424 40.0406 17.6893 39.3117 16.3965 38.0175C15.1038 36.7234 14.3767 34.9695 14.3748 33.1402ZM25.3899 33.1402C25.3873 32.3254 25.1434 31.5297 24.689 30.8533C24.2346 30.177 23.59 29.6505 22.8366 29.3402C22.0831 29.0299 21.2547 28.9497 20.4558 29.1099C19.6569 29.27 18.9233 29.6632 18.3476 30.2399C17.772 30.8165 17.3801 31.5508 17.2214 32.35C17.0627 33.1492 17.1443 33.9775 17.456 34.7304C17.7676 35.4833 18.2953 36.1269 18.9724 36.5801C19.6496 37.0333 20.4458 37.2758 21.2606 37.2769C22.3564 37.2749 23.4067 36.8383 24.1809 36.0627C24.9551 35.2871 25.3899 34.2361 25.3899 33.1402Z" fill="#0274BA"/>
<path d="M21.1857 57.4468C15.6431 57.3396 10.7249 55.4995 6.5365 51.7822C5.74205 51.0764 5.64783 50.2617 6.2686 49.6224C6.85058 49.0257 7.61547 49.0404 8.35818 49.7C10.021 51.1781 11.8685 52.4085 13.9507 53.1974C21.2399 55.9503 27.9022 54.8528 33.9375 49.9051C34.961 49.0645 35.7167 48.9647 36.3393 49.6926C36.9619 50.4206 36.7642 51.1319 35.785 51.9854C31.5985 55.6029 26.7265 57.3729 21.1857 57.4468Z" fill="#0274BA"/>
<path d="M36.882 15.6811C36.5217 16.1467 36.2908 16.6049 35.9194 16.8839C35.4279 17.2534 34.8608 17.113 34.3841 16.7379C33.8058 16.2816 33.2608 15.7809 32.6677 15.3467C29.1264 12.7491 24.8039 11.4392 20.4164 11.6341C16.0288 11.829 11.8395 13.5169 8.54243 16.4183C8.42234 16.5254 8.30594 16.6381 8.17292 16.7361C7.49302 17.2478 6.69488 17.1795 6.19789 16.5679C5.7009 15.9564 5.72677 15.1675 6.38265 14.6594C7.72212 13.6137 9.04127 12.4996 10.5119 11.6719C14.4997 9.41414 19.0951 8.46344 23.6514 8.95361C28.2077 9.44377 32.4957 11.3501 35.912 14.4045C36.2686 14.7222 36.5032 15.1712 36.882 15.6811Z" fill="#0274BA"/>
<path d="M38.9217 28.9907V29.8129C38.9217 32.6692 38.9217 35.5255 38.9217 38.3818C38.9217 39.3979 38.397 40.028 37.5656 40.0446C36.7342 40.0612 36.1596 39.3906 36.1578 38.3541C36.1578 35.2687 36.1578 32.1833 36.1578 28.9944H33.1093C32.7176 28.9944 32.3241 29.0129 31.9343 28.9833C31.5984 28.9616 31.2819 28.8183 31.0439 28.5804C30.8059 28.3424 30.6627 28.0259 30.641 27.69C30.6323 27.353 30.7442 27.024 30.9566 26.7622C31.169 26.5004 31.4678 26.3229 31.7994 26.2619C31.9128 26.2422 32.0279 26.2335 32.143 26.236C35.7371 26.236 39.3312 26.236 42.9253 26.236C43.7198 26.236 44.2666 26.6591 44.4163 27.3205C44.6158 28.2 43.9581 28.9833 42.9752 28.9944C41.6634 29.0036 40.3498 28.9907 38.9217 28.9907Z" fill="#0274BA"/>
<path d="M21.1853 16.9116C24.7566 16.9283 27.8364 18.0756 30.4729 20.3887C30.8282 20.7006 31.0667 21.1241 31.1491 21.5896C31.2636 22.6538 30.0868 23.343 29.1427 22.8293C29.0218 22.7624 28.9096 22.6812 28.8083 22.5873C26.7439 20.7226 24.0618 19.6889 21.2799 19.6858C18.498 19.6828 15.8137 20.7105 13.7452 22.5707C13.2353 23.0326 12.6607 23.1785 12.0362 22.8164C11.4819 22.4894 11.2288 21.9591 11.3988 21.3494C11.5198 20.9823 11.7397 20.6556 12.0344 20.4053C14.5485 18.1506 17.8082 16.9061 21.1853 16.9116Z" fill="#0274BA"/>
<path d="M21.6638 49.375C17.8042 49.351 14.7428 48.2073 12.1119 45.9367C11.7946 45.677 11.5528 45.3369 11.4117 44.9519C11.227 44.3478 11.4764 43.812 12.0306 43.4739C12.6182 43.1192 13.1392 43.2781 13.6934 43.6402C14.8814 44.4161 16.0287 45.3436 17.3331 45.8314C21.3885 47.3464 25.1575 46.6443 28.5403 43.9302C28.666 43.8286 28.7824 43.7141 28.9098 43.6162C29.5639 43.1155 30.3232 43.158 30.8368 43.7215C30.9616 43.858 31.0575 44.0184 31.1188 44.1929C31.1801 44.3674 31.2056 44.5525 31.1937 44.737C31.1818 44.9216 31.1328 45.1019 31.0495 45.2671C30.9663 45.4323 30.8506 45.5789 30.7094 45.6984C28.7436 47.5333 26.2755 48.7406 23.6203 49.1662C22.8517 49.2992 22.0665 49.3343 21.6638 49.375Z" fill="#0274BA"/>
<path d="M5.10719 33.1364C5.10719 31.3867 5.10719 29.6371 5.10719 27.8875C5.10719 26.8639 5.63004 26.2413 6.45959 26.2247C7.28914 26.2081 7.86188 26.8455 7.86558 27.8468C7.87666 31.3683 7.87666 34.8903 7.86558 38.413C7.86558 39.4125 7.29099 40.0443 6.46144 40.0351C5.63189 40.0259 5.11088 39.4032 5.10719 38.3723C5.09426 36.6356 5.10719 34.886 5.10719 33.1364Z" fill="#0274BA"/>
</svg>
