<svg width="129" height="20" viewBox="0 0 129 20" fill="none" xmlns="http://www.w3.org/2000/svg">
<g clip-path="url(#clip0_199_279614)">
<path d="M7.87056 6.8313C7.87056 6.8313 6.80754 6.72537 6.80754 7.67411V11.8882H13.8275V13.1528C13.8275 13.1528 13.8485 13.7847 13.1893 13.7847H6.80754V19.2635H14.4657C14.4657 19.2635 19.1025 18.5467 19.1453 13.7847V6.8313H7.87056ZM18.932 0.0878906H5.10542C0.105755 1.26764 0 5.37669 0 5.37669V19.2635H5.31876V6.62037C5.31876 5.54562 6.38178 5.35661 6.38178 5.35661H18.9329L18.932 0.0878906ZM37.1857 15.2895C36.8211 15.5334 36.5512 15.7123 36.3607 15.8265C35.6787 16.2492 35.0287 16.5752 34.4261 16.8355C33.5536 17.1934 32.7759 17.3724 32.0785 17.3724C29.6835 17.3724 27.7006 16.6401 26.0978 15.159C24.4951 13.6779 23.7038 11.8233 23.7038 9.57797C23.7038 7.41387 24.4176 5.54197 25.8608 3.94674C27.304 2.35243 29.049 1.5708 31.1112 1.5708C31.9682 1.5708 32.8871 1.7169 33.8389 2.02736C35.0761 2.41726 36.0753 3.00349 36.8685 3.76777L35.4882 5.29725C34.902 4.72838 34.1407 4.30469 33.2518 4.04445C32.5863 3.84904 31.8569 3.75225 31.0474 3.75225C29.6042 3.75225 28.3825 4.33665 27.4152 5.49266C26.4479 6.6642 25.9565 8.04758 25.9565 9.67476C25.9565 11.2864 26.5108 12.6041 27.6213 13.6624C28.7317 14.7198 30.143 15.2567 31.856 15.2567C32.5699 15.2567 33.3001 15.0284 34.045 14.5901C34.664 14.118 34.9813 13.8897 34.9968 13.8733V10.5377H30.3654L31.031 8.45483H37.1857V15.2895ZM51.1755 11.2207C51.1755 12.8314 50.6048 14.2312 49.4625 15.4028C48.3201 16.5743 46.9088 17.177 45.2277 17.177C43.6733 17.177 42.3094 16.5907 41.1351 15.4356C39.9609 14.2805 39.3902 12.8807 39.3902 11.2371C39.3902 9.60993 39.9463 8.21011 41.0558 7.0057C42.1653 5.8013 43.5301 5.21598 45.132 5.21598C46.9088 5.21598 48.352 5.78577 49.478 6.94087C50.6048 8.06401 51.1755 9.49579 51.1755 11.2207ZM49.0021 11.2535C49.0021 10.1633 48.6374 9.23555 47.908 8.48679C47.1787 7.72159 46.2743 7.34721 45.1958 7.34721C44.1811 7.34721 43.3241 7.73803 42.6102 8.51966C41.8964 9.30038 41.5472 10.1952 41.5472 11.2042C41.5472 12.2625 41.9119 13.1574 42.6257 13.9062C43.3396 14.6549 44.2285 15.0448 45.3061 15.0448C46.3062 15.0448 47.1623 14.6704 47.8925 13.9217C48.6374 13.1729 49.0021 12.2781 49.0021 11.2535ZM64.9747 11.2207C64.9747 12.8314 64.404 14.2312 63.2617 15.4028C62.1193 16.5743 60.7081 17.177 59.0269 17.177C57.4725 17.177 56.1086 16.5907 54.9344 15.4356C53.761 14.2805 53.1894 12.8807 53.1894 11.2371C53.1894 9.60993 53.7455 8.21011 54.8551 7.0057C55.9655 5.8013 57.3294 5.21598 58.9312 5.21598C60.7081 5.21598 62.1513 5.78577 63.2772 6.94087C64.404 8.06401 64.9747 9.49579 64.9747 11.2207ZM62.8013 11.2535C62.8013 10.1633 62.4366 9.23555 61.7073 8.48679C60.9779 7.72159 60.0735 7.34721 58.995 7.34721C57.9803 7.34721 57.1233 7.73803 56.4095 8.51966C55.6956 9.30038 55.3465 10.1952 55.3465 11.2042C55.3465 12.2625 55.7111 13.1574 56.4259 13.9062C57.1388 14.6549 58.0277 15.0448 59.1062 15.0448C60.1054 15.0448 60.9615 14.6704 61.6918 13.9217C62.4366 13.1729 62.8013 12.2781 62.8013 11.2535ZM77.7438 16.851L75.7454 17.1605V15.2238L75.3169 15.7114C74.9394 16.0656 74.5118 16.3619 74.0478 16.5907C73.3668 16.9053 72.6252 17.0665 71.8753 17.0628C70.3208 17.0628 68.988 16.493 67.9094 15.337C66.8309 14.181 66.2921 12.815 66.2921 11.2207C66.2921 9.57705 66.8309 8.16172 67.8939 6.98927C68.957 5.81682 70.257 5.23151 71.8114 5.23151C72.7003 5.23151 73.4771 5.37761 74.1271 5.67072C74.5875 5.88256 74.9841 6.15924 75.3169 6.50166C75.4281 6.64776 75.5393 6.8103 75.6505 6.95639V1.87944L77.7748 1.56989L77.7438 16.851ZM75.8721 11.3668C75.8721 10.2281 75.491 9.26751 74.7142 8.48679C73.9375 7.68872 73.0641 7.29882 72.0658 7.29882C70.9554 7.29882 70.0674 7.6732 69.3855 8.42196C68.75 9.13693 68.4173 10.0163 68.4173 11.0417C68.4173 12.1968 68.75 13.1565 69.4165 13.9053C70.082 14.654 70.9235 15.0284 71.9546 15.0284C72.9693 15.0284 73.8582 14.6869 74.6513 13.9874C75.46 13.2706 75.8721 12.3922 75.8721 11.3668ZM88.9575 3.99605H83.0097V8.04758H87.6246V10.1304H83.0097V16.8355L80.694 17.177V1.89587H88.4971L88.9575 3.99605ZM93.7319 2.80717L92.3043 4.61332L90.9404 2.80717L92.3836 1.01745L93.7319 2.80717ZM93.3035 16.851L91.1783 17.1441V5.83417L93.3035 5.5091V16.851ZM102.9 5.39496L101.901 7.70515C101.769 7.68511 101.637 7.67443 101.504 7.6732C101.298 7.6732 101.092 7.68963 100.885 7.72159C100.678 7.75355 100.457 7.83573 100.219 7.94987C99.7755 8.14528 99.3944 8.56806 99.0617 9.20267C98.6934 9.92293 98.5027 10.721 98.5055 11.5302V16.8355L96.3813 17.177V5.83417L98.3478 5.47622V7.83573C98.6013 7.42848 98.8711 7.02214 99.1246 6.59936C99.4892 6.17568 99.9177 5.86704 100.394 5.68716C100.647 5.59036 101.107 5.50818 101.805 5.44335C102.471 5.39496 102.852 5.36208 102.9 5.39496ZM118.728 16.851L116.603 17.1605V9.39808C116.603 8.68128 116.445 8.1608 116.127 7.83573C115.81 7.50975 115.334 7.34721 114.715 7.34721C113.97 7.34721 113.399 7.65676 113.019 8.27494C112.764 8.69772 112.622 9.15337 112.622 9.60901V16.8345L110.497 17.2254V9.44648C110.497 8.76346 110.338 8.24207 110.036 7.88504C109.719 7.52618 109.307 7.34721 108.767 7.34721H108.561C107.816 7.34721 107.276 7.65676 106.943 8.29138C106.69 8.76346 106.563 9.36521 106.563 10.0975V16.8345L104.359 17.2254V5.83417L106.341 5.49266V6.94087C106.563 6.59845 106.785 6.32177 106.991 6.12728C107.562 5.59036 108.229 5.32921 108.973 5.32921C109.814 5.32921 110.432 5.45979 110.861 5.73646C111.225 5.96474 111.575 6.41948 111.924 7.07053C112.653 5.91544 113.684 5.32921 115.049 5.32921C116.349 5.32921 117.317 5.73646 117.951 6.56649C118.475 7.24951 118.728 8.25851 118.728 9.57705V16.851ZM128.438 13.4176C128.438 14.4586 128.073 15.3215 127.344 15.989C126.615 16.672 125.694 16.998 124.583 16.998C123.743 16.998 122.997 16.8026 122.315 16.4118C121.633 16.0219 121.126 15.5817 120.793 15.0613L122.284 13.7272C122.394 13.8897 122.49 14.0194 122.585 14.1171C123.141 14.6869 123.807 14.98 124.583 14.98C125.123 14.98 125.552 14.8339 125.852 14.5572C126.17 14.2805 126.313 13.8897 126.313 13.3848C126.313 12.8159 125.948 12.4251 125.219 12.2132C123.775 11.774 122.997 11.5302 122.887 11.4809C122.22 11.1394 121.744 10.7815 121.443 10.3742C121.11 9.90213 120.936 9.28394 120.936 8.48679C120.936 7.50975 121.3 6.69707 122.014 6.04601C122.728 5.39496 123.584 5.08541 124.567 5.08541C125.314 5.08541 126.011 5.24794 126.646 5.59036C127.28 5.93187 127.74 6.28982 128.009 6.7135L126.74 8.09597C126.55 7.90488 126.343 7.73073 126.122 7.57549C125.614 7.21755 125.123 7.03858 124.664 7.03858C124.219 7.03858 123.854 7.13628 123.569 7.33077C123.235 7.57549 123.061 7.93344 123.061 8.40552C123.061 8.86117 123.219 9.20267 123.553 9.41452C123.838 9.59349 124.441 9.7889 125.393 9.99983C126.344 10.2281 127.074 10.6189 127.597 11.1723C128.184 11.7576 128.438 12.4899 128.438 13.4176Z" fill="white"/>
</g>
<defs>
<clipPath id="clip0_199_279614">
<rect width="128.547" height="19.1756" fill="white" transform="translate(0 0.0878906)"/>
</clipPath>
</defs>
</svg>
