<svg width="129" height="19" viewBox="0 0 129 19" fill="none" xmlns="http://www.w3.org/2000/svg">
<path fill-rule="evenodd" clip-rule="evenodd" d="M14.1963 4.95655L7.09818 0.863281L0 4.95655V6.37618L7.09818 2.28291L14.1963 6.37618V4.95655Z" fill="#77C04B"/>
<path fill-rule="evenodd" clip-rule="evenodd" d="M5.86781 9.76012L7.09818 9.0503L0 4.95703V6.37667L5.86781 9.76012Z" fill="#77C04B"/>
<path fill-rule="evenodd" clip-rule="evenodd" d="M14.1919 14.5629V13.1432L8.32406 9.75977L7.09375 10.4696L14.1919 14.5629Z" fill="#77C04B"/>
<path fill-rule="evenodd" clip-rule="evenodd" d="M14.1963 14.5603L7.09818 18.6535L0 14.5603V13.1406L7.09818 17.2339L14.1963 13.1406V14.5603Z" fill="#77C04B"/>
<path fill-rule="evenodd" clip-rule="evenodd" d="M14.1963 9.0503L7.09818 4.95703L0 9.0503V10.4699L7.09818 6.37667L14.1963 10.4699V9.0503Z" fill="white"/>
<path d="M24.1882 5.3911L24.1111 5.28389C23.8317 4.89547 23.4732 4.58248 23.0338 4.3447C22.6008 4.11033 22.0722 3.99017 21.4429 3.99017C21.1271 3.99017 20.8038 4.0387 20.473 4.13666L20.473 4.13666C20.1454 4.23364 19.849 4.38183 19.5829 4.5812C19.3196 4.77849 19.1069 5.02666 18.9445 5.32719C18.7854 5.62157 18.7034 5.97309 18.7034 6.38603C18.7034 6.80045 18.7828 7.13047 18.9326 7.38381C19.0879 7.6464 19.2941 7.87063 19.5526 8.05676L19.5526 8.05677C19.8142 8.24527 20.1137 8.4012 20.4518 8.52406L20.4518 8.52406C20.7982 8.64997 21.1606 8.77588 21.5388 8.90189C22.0084 9.05405 22.481 9.21884 22.9568 9.39633M24.1882 5.3911L16.9462 14.9204C17.1689 15.2082 17.4221 15.4656 17.7058 15.6923L17.6277 15.79C17.6277 15.79 17.6277 15.79 17.6277 15.79C17.9521 16.0493 18.3026 16.2633 18.6791 16.4319L18.6791 16.432C19.0545 16.6001 19.449 16.7261 19.8625 16.81C20.2752 16.8937 20.6882 16.9357 21.1014 16.9357C21.6447 16.9357 22.1843 16.8581 22.7202 16.7033C23.2592 16.5476 23.7413 16.307 24.1654 15.981C24.5915 15.6536 24.9379 15.2383 25.205 14.7371C25.4758 14.2291 25.6085 13.6299 25.6085 12.944C25.6085 12.2603 25.486 11.6849 25.2326 11.2253L25.2326 11.2252C24.9842 10.7746 24.6629 10.4007 24.2685 10.1052C23.8789 9.81329 23.4415 9.57709 22.9568 9.39633M24.1882 5.3911L24.291 5.3082M24.1882 5.3911L24.291 5.3082M22.9568 9.39633L22.9131 9.51344M22.9568 9.39633L22.9131 9.51344M22.9131 9.51344C23.3873 9.69031 23.8141 9.92095 24.1936 10.2052C24.573 10.4895 24.8828 10.8497 25.1231 11.2856M22.9131 9.51344C22.4388 9.33652 21.9678 9.17227 21.4998 9.02064L25.1231 11.2856M25.1231 11.2856C25.3634 11.7215 25.4835 12.2744 25.4835 12.944C25.4835 13.6138 25.3539 14.1919 25.0947 14.6783L25.1231 11.2856ZM24.291 5.3082L25.3723 4.43633L25.4658 4.36088L25.3941 4.26443C25.0506 3.80237 24.5463 3.40886 23.889 3.08048L23.8332 3.19231L23.889 3.08048C23.2227 2.74763 22.4248 2.58398 21.4998 2.58398C20.9947 2.58398 20.484 2.65517 19.968 2.79694L20.0012 2.91748L19.968 2.79694C19.4479 2.93986 18.9726 3.16748 18.5429 3.47974L18.5428 3.47974M24.291 5.3082L18.5428 3.47974M18.5428 3.47974C18.1103 3.79412 17.7599 4.19352 17.4922 4.67642C17.2207 5.16596 17.0875 5.74367 17.0875 6.40498C17.0875 7.0253 17.1942 7.55743 17.4138 7.99618M18.5428 3.47974L17.4138 7.99618M17.4138 7.99618C17.6298 8.42784 17.9154 8.79236 18.2708 9.08823L17.4138 7.99618ZM23.715 14.1047C23.5395 14.4131 23.3163 14.6721 23.0451 14.8829L18.2708 9.08823C18.6224 9.38107 19.0192 9.6181 19.4604 9.79957C19.8935 9.97779 20.333 10.1369 20.779 10.277C21.2077 10.4155 21.6175 10.5541 22.0082 10.6926C22.3912 10.8285 22.7291 10.9975 23.0225 11.1991C23.3115 11.3975 23.5422 11.6433 23.7161 11.9368C23.8851 12.2222 23.9737 12.5871 23.9737 13.0388C23.9737 13.4503 23.8861 13.8042 23.715 14.1047Z" fill="#77C04B" stroke="#ACACAC" stroke-width="0.25"/>
<path d="M28.006 8.72569L28.0059 8.72569L35.4968 12.4885C35.5094 12.3748 35.5157 12.2674 35.5157 12.1664V11.8822C35.5157 11.2758 35.4242 10.7074 35.2412 10.1769C35.0582 9.64636 34.7901 9.18214 34.4368 8.78425L34.5302 8.70125C34.5302 8.70125 34.5302 8.70125 34.5302 8.70125C34.1639 8.28872 33.7072 7.96276 33.1622 7.72247C32.6135 7.48052 31.9837 7.36133 31.2757 7.36133C30.6289 7.36133 30.0252 7.48117 29.4659 7.72204C28.9084 7.96214 28.4215 8.29678 28.006 8.72569ZM28.5328 13.6907C28.3909 13.352 28.3076 12.9931 28.2834 12.6135L28.1147 15.4822L28.0249 15.5692C28.0249 15.5692 28.0249 15.5692 28.0249 15.5692C28.4411 15.9988 28.9382 16.3335 29.5147 16.5734L29.5627 16.458L29.5147 16.5734C30.0926 16.8139 30.7179 16.9335 31.3893 16.9335C32.1383 16.9335 32.8406 16.7848 33.4949 16.4865L33.4949 16.4865C34.1537 16.1861 34.7523 15.692 35.2919 15.0103L35.3698 14.9119L35.2711 14.8344L34.3057 14.0765L34.1962 13.9905L34.1225 14.1086C33.8818 14.4941 33.5274 14.8384 33.0541 15.14L33.0541 15.14C32.5914 15.4347 32.0382 15.5846 31.3893 15.5846C30.9511 15.5846 30.5455 15.5024 30.171 15.3392L30.171 15.3392C29.7936 15.1747 29.4661 14.9529 29.1874 14.6739C28.909 14.3952 28.6908 14.0679 28.5328 13.6907L28.5328 13.6907ZM33.3125 9.47457L33.3125 9.47458C33.7631 9.97121 34.0192 10.5908 34.0767 11.3403H28.3081C28.3436 11.0251 28.4303 10.7216 28.5684 10.4293L28.5684 10.4292C28.726 10.0954 28.9381 9.79808 29.2053 9.53678L29.2053 9.53677C29.4716 9.27616 29.7805 9.06993 30.1327 8.91799L30.1327 8.91798C30.4819 8.76732 30.8624 8.69135 31.2757 8.69135C32.1708 8.69135 32.8433 8.95728 33.3125 9.47457Z" fill="#77C04B" stroke="#ACACAC" stroke-width="0.25"/>
<path d="M38.1136 16.9357H38.2386V16.8107V2.70898V2.58398H38.1136H36.8359H36.7109V2.70898V16.8107V16.9357H36.8359H38.1136Z" fill="#77C04B" stroke="#ACACAC" stroke-width="0.25"/>
<path d="M39.6954 14.0518L39.6954 14.0518C39.4553 13.467 39.3359 12.8317 39.3359 12.1475C39.3359 11.4636 39.452 10.8287 39.6855 10.2442C39.9184 9.66149 40.2425 9.15486 40.6583 8.72569C40.6583 8.72569 40.6583 8.72569 40.6583 8.72569L40.7481 8.81266L39.6954 14.0518ZM39.6954 14.0518C39.9346 14.634 40.2617 15.1403 40.6772 15.5692C41.0934 15.9988 41.5905 16.3335 42.167 16.5734C42.7449 16.8139 43.3702 16.9335 44.0416 16.9335C44.7906 16.9335 45.4929 16.7848 46.1472 16.4865L46.1472 16.4865M39.6954 14.0518L46.1472 16.4865M46.1472 16.4865C46.806 16.1861 47.4046 15.692 47.9442 15.0103L48.0221 14.9119M46.1472 16.4865L48.0221 14.9119M48.0221 14.9119L47.9234 14.8344M48.0221 14.9119L47.9234 14.8344M47.9234 14.8344L46.958 14.0765L46.8485 13.9905M47.9234 14.8344L46.8485 13.9905M46.8485 13.9905L46.7748 14.1086M46.8485 13.9905L46.7748 14.1086M46.7748 14.1086C46.5341 14.4941 46.1797 14.8384 45.7064 15.14C45.2437 15.4347 44.6905 15.5846 44.0416 15.5846C43.6034 15.5846 43.1978 15.5024 42.8233 15.3392C42.446 15.1747 42.1184 14.9529 41.8397 14.6739C41.5613 14.3952 41.3431 14.0679 41.1851 13.6907L41.1851 13.6907M46.7748 14.1086L41.1851 13.6907M41.1851 13.6907C41.0432 13.352 40.9599 12.9931 40.9357 12.6135M41.1851 13.6907L40.9357 12.6135M40.9357 12.6135H48.1491H48.261L48.2733 12.5023C48.2864 12.3846 48.293 12.2726 48.293 12.1664V11.8822C48.293 11.2631 48.1995 10.6808 48.0117 10.1361C47.8236 9.59091 47.5474 9.11213 47.1825 8.70125L40.9357 12.6135ZM42.1182 7.72204L42.1182 7.72204L47.1825 8.70125C46.8162 8.28872 46.3594 7.96276 45.8145 7.72247C45.2658 7.48052 44.636 7.36133 43.928 7.36133C43.2812 7.36133 42.6775 7.48117 42.1182 7.72204ZM45.9649 9.47457L45.9649 9.47458C46.4154 9.97121 46.6715 10.5908 46.7291 11.3403H40.9604C40.996 11.0251 41.0826 10.7216 41.2207 10.4293L41.2207 10.4292C41.3784 10.0954 41.5905 9.79808 41.8576 9.53678L41.8576 9.53677C42.124 9.27616 42.4328 9.06993 42.785 8.91799L42.785 8.91798C43.1342 8.76732 43.5147 8.69135 43.928 8.69135C44.8231 8.69135 45.4957 8.95728 45.9649 9.47457Z" fill="#77C04B" stroke="#ACACAC" stroke-width="0.25"/>
<path d="M56.479 9.92028L56.4082 9.80756C56.2073 9.48748 55.9127 9.22035 55.519 9.00791L55.5784 8.8979L55.519 9.00791C55.1282 8.79702 54.7043 8.69135 54.2455 8.69135C53.7437 8.69135 53.2948 8.78021 52.8968 8.95548C52.4961 9.13195 52.1543 9.37468 51.8703 9.6836C51.5859 9.99279 51.3674 10.3572 51.2152 10.7783L51.2152 10.7783C51.0629 11.1993 50.9863 11.6553 50.9863 12.1475C50.9863 12.6396 51.063 13.0922 51.215 13.5065L51.215 13.5065C51.3673 13.9219 51.583 14.2837 51.8617 14.5933C52.1392 14.9017 52.4774 15.144 52.8779 15.3205L56.479 9.92028ZM56.479 9.92028L56.5871 9.84262M56.479 9.92028L56.5871 9.84262M56.5871 9.84262L57.589 9.12257L57.6925 9.0482L57.6161 8.94617C57.2241 8.4223 56.7117 8.02678 56.0808 7.75967C55.456 7.49492 54.8377 7.36133 54.2266 7.36133C53.4945 7.36133 52.8292 7.4804 52.2325 7.72091L52.2325 7.72091C51.6379 7.96058 51.1285 8.29511 50.7059 8.72504L50.7059 8.72505C50.2841 9.15429 49.957 9.66114 49.7242 10.2442C49.491 10.8287 49.375 11.4636 49.375 12.1475C49.375 12.8313 49.491 13.4661 49.7242 14.0506C49.957 14.6337 50.2841 15.1406 50.7059 15.5698L50.7059 15.5698C51.1285 15.9998 51.6379 16.3343 52.2325 16.574L52.2792 16.458L52.2325 16.574C52.8292 16.8145 53.4945 16.9335 54.2266 16.9335C55.0103 16.9335 55.6891 16.7919 56.2587 16.5032C56.8223 16.2175 57.2994 15.8338 57.6889 15.3524L57.7706 15.2514L57.6665 15.1737L56.7023 14.4537L56.6016 14.3785L56.527 14.4796C56.2864 14.8053 55.9791 15.0714 55.6032 15.278L55.6032 15.278M56.5871 9.84262L55.6032 15.278M55.6032 15.278C55.2353 15.4802 54.7783 15.5846 54.2266 15.5846C53.7248 15.5846 53.276 15.4958 52.8779 15.3205L55.6032 15.278Z" fill="#77C04B" stroke="#ACACAC" stroke-width="0.25"/>
<path d="M64.6939 9.04182H64.5689H62.1907V14.0864C62.1907 14.4077 62.2218 14.6661 62.2806 14.8653C62.34 15.0662 62.4225 15.213 62.5238 15.314C62.6283 15.4184 62.7513 15.4894 62.8949 15.528L62.8949 15.528C63.0473 15.569 63.213 15.59 63.3929 15.59C63.5584 15.59 63.7341 15.5664 63.921 15.5181L63.9211 15.5181C64.109 15.4698 64.287 15.4034 64.4557 15.3191L64.6267 15.2337L64.6365 15.4245L64.6937 16.5417L64.6984 16.632L64.6141 16.6646C64.3785 16.756 64.1339 16.8244 63.8798 16.87L64.6939 9.04182ZM64.6939 9.04182V8.91682V7.83747V7.71247H64.5689H62.1907M64.6939 9.04182L62.1907 7.71247M62.1907 7.71247V5.33789V5.21289H62.0657H60.7768H60.6518V5.33789V7.71247H58.9375H58.8125V7.83747V8.91682V9.04182H58.9375H60.6518V14.4462C60.6518 14.949 60.7254 15.3673 60.882 15.6932C61.0342 16.0109 61.2324 16.2671 61.4774 16.4575L61.4774 16.4575C61.7181 16.6445 61.9806 16.7727 62.2647 16.8402C62.2647 16.8402 62.2647 16.8402 62.2647 16.8402L62.2937 16.7186M62.1907 7.71247L63.8798 16.87L63.8577 16.7469C63.6114 16.7911 63.3429 16.8132 63.0521 16.8132C62.8119 16.8132 62.5589 16.7817 62.2937 16.7186M62.2937 16.7186C62.0279 16.6554 61.7816 16.5355 61.5541 16.3588M62.2937 16.7186L61.5541 16.3588M61.5541 16.3588C61.3267 16.182 61.1399 15.9422 60.9948 15.6392C60.8491 15.3362 60.7768 14.9385 60.7768 14.4462V9.04182L61.5541 16.3588Z" fill="#77C04B" stroke="#ACACAC" stroke-width="0.25"/>
<path d="M73.6161 8.70128L73.616 8.70122C73.2495 8.28873 72.7929 7.96277 72.248 7.72247C71.6994 7.48052 71.0695 7.36133 70.3616 7.36133C69.7147 7.36133 69.1111 7.48117 68.5518 7.72204C67.9943 7.96214 67.5073 8.29678 67.0919 8.72571C66.6757 9.1549 66.3518 9.66155 66.1193 10.2442C65.8854 10.8288 65.7695 11.4636 65.7695 12.1475C65.7695 12.8317 65.8889 13.467 66.1292 14.0517C66.3678 14.634 66.695 15.1403 67.1109 15.5692C67.527 15.9989 68.024 16.3335 68.6005 16.5734C69.1784 16.8139 69.8038 16.9335 70.475 16.9335C71.2238 16.9335 71.9266 16.7848 72.5808 16.4865L72.5808 16.4865C73.2396 16.1861 73.8378 15.692 74.3779 15.0104L74.4559 14.9119L74.3571 14.8344L73.3913 14.0765L73.2817 13.9905L73.208 14.1087C72.9679 14.4941 72.6134 14.8384 72.1399 15.14C71.6771 15.4347 71.124 15.5846 70.475 15.5846C70.0368 15.5846 69.6314 15.5024 69.2567 15.3392C68.8796 15.1747 68.5519 14.9529 68.2732 14.6739C67.9948 14.3952 67.7764 14.0678 67.6184 13.6907L67.6184 13.6907C67.4765 13.3519 67.3932 12.9931 67.3692 12.6135H74.5824H74.6941L74.7066 12.5025C74.7199 12.3845 74.7263 12.2725 74.7263 12.1664V11.8822C74.7263 11.2631 74.6331 10.6808 74.4453 10.1361C74.2573 9.59085 73.9806 9.1121 73.6161 8.70128ZM68.2911 9.53675L68.2911 9.53674C68.5573 9.27617 68.8663 9.06993 69.2185 8.91798L69.2185 8.91798C69.5675 8.76733 69.9481 8.69135 70.3616 8.69135C71.2568 8.69135 71.929 8.95725 72.3986 9.47456C72.8489 9.97119 73.1048 10.5908 73.1624 11.3403H67.3939C67.4293 11.0252 67.5159 10.7216 67.6539 10.4293C67.8121 10.0954 68.0242 9.79803 68.2911 9.53675Z" fill="#77C04B" stroke="#ACACAC" stroke-width="0.25"/>
<path d="M77.5149 10.7436L77.633 10.7847C77.4866 11.2057 77.413 11.6551 77.413 12.1339C77.413 12.6127 77.4866 13.0622 77.633 13.4832C77.7792 13.904 77.9893 14.2679 78.2614 14.5765L78.1677 14.6592M77.5149 10.7436L78.2614 9.69145C78.5331 9.3839 78.8682 9.13876 79.2697 8.95642L79.2697 8.9564C79.667 8.77572 80.1221 8.68387 80.6364 8.68387C81.1126 8.68387 81.5496 8.77225 81.9483 8.94759L81.9484 8.94762C82.3499 9.12385 82.6951 9.36641 82.9863 9.67544C83.2772 9.98469 83.5052 10.3492 83.6705 10.7704C83.8345 11.1898 83.917 11.6439 83.917 12.1339C83.917 12.624 83.8345 13.0781 83.6705 13.4975C83.5053 13.9185 83.2775 14.2795 82.9871 14.5821C82.6959 14.8851 82.3504 15.1249 81.9484 15.3013L81.9483 15.3014C81.5496 15.4767 81.1126 15.5651 80.6364 15.5651C80.1215 15.5651 79.6659 15.4762 79.2683 15.3014L79.2682 15.3013C78.8674 15.1254 78.5328 14.8836 78.2613 14.5764L78.1677 14.6592M77.5149 10.7436C77.3637 11.1787 77.288 11.6421 77.288 12.1339C77.288 12.6257 77.3637 13.0892 77.5149 13.5243C77.6661 13.9593 77.8841 14.3376 78.1677 14.6592M77.5149 10.7436L79.218 15.4158C78.8015 15.233 78.4518 14.9808 78.1677 14.6592M77.5149 10.7436L77.633 10.7847C77.7792 10.3639 77.9893 10 78.2613 9.69147L77.5149 10.7436ZM82.4313 16.4649C82.96 16.2117 83.4048 15.8558 83.7658 15.3986V16.773V16.898H83.8908H85.1774H85.3024V16.773V2.68555V2.56055H85.1774H83.8908H83.7658V2.68555V8.90144C83.4052 8.43486 82.9607 8.07153 82.4323 7.8129L82.4323 7.8129C81.8105 7.50864 81.1674 7.35569 80.5041 7.35569C79.7962 7.35569 79.1514 7.47802 78.5728 7.72515C77.9966 7.97098 77.503 8.30823 77.0936 8.73743C76.6841 9.1661 76.367 9.67206 76.1407 10.2538C75.9139 10.8368 75.8008 11.4639 75.8008 12.1339C75.8008 12.804 75.9139 13.4311 76.1407 14.0141C76.367 14.5958 76.6841 15.1018 77.0936 15.5305C77.503 15.9596 77.9967 16.2969 78.5729 16.5428C79.1514 16.7898 79.7962 16.9122 80.5041 16.9122C81.1669 16.9122 81.8097 16.7627 82.4313 16.4649Z" fill="#77C04B" stroke="#ACACAC" stroke-width="0.25"/>
<path d="M89.216 16.8107H87.8516V2.70898H95.9433V3.92041H89.216V8.57677H95.4696V9.76927H89.216V16.8107Z" fill="white"/>
<path fill-rule="evenodd" clip-rule="evenodd" d="M98.5662 5.33789H97.2695V6.62554H98.5662V5.33789ZM97.2745 16.8133H98.5712V7.9511H97.2745V16.8133Z" fill="white"/>
<path d="M100.638 9.90138C100.638 9.66162 100.632 9.35248 100.619 8.97388C100.607 8.59534 100.588 8.25461 100.562 7.95174H101.794C101.819 8.1915 101.838 8.4565 101.851 8.74674C101.864 9.03699 101.87 9.27674 101.87 9.46601H101.908C102.161 8.94864 102.539 8.52906 103.045 8.20729C103.549 7.88552 104.118 7.72461 104.75 7.72461C104.914 7.72461 105.062 7.73095 105.195 7.74357C105.328 7.75619 105.463 7.78144 105.602 7.81924L105.432 9.0307C105.356 9.00546 105.23 8.98022 105.053 8.95497C104.876 8.92973 104.699 8.91711 104.522 8.91711C104.181 8.91711 103.853 8.98022 103.537 9.10638C103.221 9.2326 102.947 9.43132 102.713 9.70266C102.479 9.97394 102.29 10.321 102.144 10.7437C101.999 11.1664 101.926 11.6744 101.926 12.2674V16.8102H100.638V9.90138Z" fill="white"/>
<path d="M108.266 9.46601C108.519 8.94864 108.907 8.52906 109.431 8.20729C109.954 7.88552 110.538 7.72461 111.182 7.72461C111.422 7.72461 111.671 7.74985 111.93 7.80034C112.189 7.85083 112.442 7.94863 112.687 8.09375C112.934 8.23882 113.161 8.43126 113.369 8.67107C113.577 8.91083 113.758 9.21997 113.909 9.59851C114.212 8.99284 114.625 8.52906 115.149 8.20729C115.673 7.88552 116.295 7.72461 117.014 7.72461C118.137 7.72461 118.98 8.059 119.542 8.72784C120.103 9.39662 120.385 10.28 120.385 11.3778V16.8102H119.097V11.9078C119.097 10.974 118.924 10.2231 118.576 9.65534C118.229 9.08748 117.639 8.80351 116.806 8.80351C116.339 8.80351 115.944 8.89821 115.623 9.08747C115.301 9.27674 115.042 9.52595 114.846 9.83516C114.651 10.1443 114.508 10.4945 114.42 10.8856C114.332 11.2769 114.287 11.6806 114.287 12.0971V16.8102H113V11.6428C113 11.2138 112.969 10.8226 112.905 10.4692C112.842 10.1159 112.732 9.8162 112.574 9.57016C112.416 9.32406 112.199 9.13479 111.921 9.00229C111.643 8.86979 111.289 8.80351 110.86 8.80351C110.557 8.80351 110.251 8.87296 109.942 9.01174C109.632 9.15058 109.355 9.36193 109.109 9.64583C108.862 9.92979 108.664 10.2894 108.512 10.7248C108.361 11.1602 108.285 11.6744 108.285 12.2674V16.8102H106.997V9.90138C106.997 9.66162 106.991 9.35248 106.979 8.97388C106.966 8.59534 106.947 8.25461 106.922 7.95174H108.152C108.178 8.1915 108.197 8.4565 108.21 8.74674C108.222 9.03699 108.229 9.27674 108.229 9.46601H108.266Z" fill="white"/>
<path d="M127.412 9.81689C127.223 9.45053 126.935 9.15056 126.55 8.91686C126.165 8.68317 125.727 8.56635 125.234 8.56635C125.006 8.56635 124.779 8.59159 124.552 8.64213C124.325 8.69267 124.122 8.77474 123.946 8.88845C123.769 9.00216 123.627 9.14739 123.52 9.32426C123.412 9.50107 123.358 9.70953 123.358 9.94951C123.358 10.3664 123.529 10.6853 123.87 10.9064C124.211 11.1274 124.747 11.3138 125.48 11.4653C126.528 11.6801 127.302 11.9927 127.8 12.4032C128.299 12.8137 128.548 13.3664 128.548 14.0612C128.548 14.5664 128.45 14.9927 128.255 15.3401C128.059 15.6875 127.803 15.9717 127.488 16.1927C127.172 16.4138 126.815 16.5717 126.418 16.6665C126.02 16.7612 125.619 16.8085 125.215 16.8085C124.546 16.8085 123.896 16.6696 123.264 16.3917C122.632 16.1138 122.115 15.678 121.711 15.0843L122.733 14.3264C122.961 14.718 123.296 15.0464 123.738 15.3117C124.18 15.5769 124.666 15.7096 125.196 15.7096C125.474 15.7096 125.739 15.6843 125.991 15.6338C126.244 15.5833 126.465 15.4949 126.655 15.3686C126.844 15.2422 126.995 15.0811 127.109 14.8854C127.223 14.6896 127.279 14.4464 127.279 14.1559C127.279 13.6885 127.055 13.338 126.607 13.1043C126.159 12.8706 125.511 12.6527 124.666 12.4506C124.4 12.3874 124.12 12.3085 123.823 12.2137C123.526 12.119 123.251 11.9801 122.999 11.7969C122.746 11.6137 122.538 11.3832 122.374 11.1053C122.21 10.8274 122.127 10.4801 122.127 10.0632C122.127 9.60844 122.216 9.22 122.393 8.8979C122.569 8.5758 122.806 8.31052 123.103 8.10212C123.4 7.89367 123.738 7.73893 124.116 7.6379C124.495 7.53687 124.886 7.48633 125.291 7.48633C125.909 7.48633 126.509 7.62528 127.09 7.90318C127.671 8.18108 128.107 8.57263 128.397 9.07794L127.412 9.81689Z" fill="white"/>
</svg>
