<svg width="68" height="20" viewBox="0 0 68 20" fill="none" xmlns="http://www.w3.org/2000/svg">
<path d="M20.6505 0.0898438H17.5664V19.2652H20.6505V0.0898438Z" fill="white"/>
<path d="M31.4478 13.1656C31.4478 16.0486 28.967 16.3167 28.2966 16.3167C26.4863 16.3167 26.0841 14.5734 26.0841 13.5008V6.25977H23V13.5678C23 15.3782 23.6034 16.8533 24.5422 17.9259C25.4137 18.7974 26.7547 19.2669 28.2298 19.2669C29.3027 19.2669 30.7105 18.9988 31.3809 18.1941V19.2669H34.465V6.25977H31.3809V13.1656H31.448H31.4478Z" fill="white"/>
<path d="M40.5668 1.63086H37.4827V6.25709H35.2031V9.3414H37.4827V19.2643H40.5668V9.3414H42.8464V6.25709H40.5668V1.63086Z" fill="white"/>
<path d="M52.5012 15.3745C51.8308 15.9779 50.959 16.3131 50.0205 16.3131C47.875 16.3131 46.3328 14.7709 46.3328 12.5584C46.3328 10.3458 47.875 8.87071 50.0205 8.87071C50.959 8.87071 51.8308 9.13887 52.5012 9.80927L52.9705 10.2115L54.9819 8.20008L54.5126 7.7308C53.2386 6.65816 51.6967 5.98753 50.0205 5.98753C46.1987 5.92049 43.3828 8.66936 43.3828 12.5582C43.3828 16.4469 46.2658 19.1958 50.0205 19.1958C51.7638 19.1958 53.3727 18.5925 54.6467 17.4525L55.116 16.9833L52.9705 14.8377L52.5012 15.3741V15.3745Z" fill="white"/>
<path d="M66.0434 7.39814C65.1719 6.52662 64.099 6.05711 62.691 6.05711C61.6183 6.05711 60.4784 6.32527 59.6739 7.12976V0.0898438H56.5898V19.2652H59.6739V12.0241C59.6739 9.14119 61.8194 8.87303 62.4898 8.87303C64.3002 8.87303 64.3002 10.6163 64.3002 11.6889V19.2652H67.3842V11.6219C67.4513 9.94567 67.049 8.40375 66.0432 7.39791L66.0434 7.39814Z" fill="white"/>
<path d="M49.8805 14.8392C51.1025 14.8392 52.0931 13.8486 52.0931 12.6266C52.0931 11.4047 51.1025 10.4141 49.8805 10.4141C48.6586 10.4141 47.668 11.4047 47.668 12.6266C47.668 13.8486 48.6586 14.8392 49.8805 14.8392Z" fill="#FF3D2E"/>
<path d="M13.3424 14.4387C12.2027 15.5784 10.5265 16.2491 8.91726 16.2491C5.43072 16.2491 2.95 13.5672 2.95 9.87954C2.95 6.19187 5.43072 3.51003 8.85022 3.51003C10.4594 3.51003 12.0013 4.18044 13.2753 5.32035L13.7446 5.78963L15.7561 3.7782L15.2868 3.30891C13.5435 1.56564 11.2639 0.627075 8.85022 0.627075C3.75471 0.694116 0 4.64994 0 9.94658C0 15.2432 3.75471 19.199 8.85022 19.199C11.3309 19.199 13.6776 18.2605 15.2868 16.5172L15.7561 16.0479L13.7446 13.9024L13.3424 14.4387Z" fill="white"/>
</svg>
