<svg width="129" height="26" viewBox="0 0 129 26" fill="none" xmlns="http://www.w3.org/2000/svg">
<path d="M36.8216 9.62695C35.5603 9.62695 34.6739 10.2065 34.1967 11.3314V9.76331H32.1172V18.5585H34.2649V14.0927C34.2649 13.2916 34.4694 12.678 34.9126 12.2689C35.3557 11.8598 35.9864 11.6383 36.8045 11.6383H37.35V9.66104C37.1795 9.644 37.0091 9.62695 36.8216 9.62695Z" fill="white"/>
<path d="M46.4117 14.3122C46.4117 12.8974 46.0196 11.7554 45.2356 10.8691C44.4515 9.99981 43.3947 9.55664 42.0652 9.55664C40.7698 9.55664 39.713 9.98276 38.9119 10.818C38.1108 11.6702 37.7188 12.7781 37.7188 14.1588C37.7188 15.5565 38.1108 16.6644 38.9289 17.4996C39.7301 18.3518 40.7868 18.7609 42.0993 18.7609C43.139 18.7609 44.0254 18.5052 44.7583 17.9768C45.4742 17.4485 45.9515 16.7326 46.1901 15.8292H44.1276C43.7527 16.6814 43.0879 17.0905 42.1163 17.0905C41.4516 17.0905 40.9232 16.903 40.5312 16.528C40.1391 16.153 39.9005 15.5735 39.8323 14.8235H46.4117V14.3122ZM42.0482 11.227C42.6618 11.227 43.1561 11.4145 43.5481 11.7895C43.9231 12.1645 44.1617 12.6759 44.264 13.3236H39.8494C40.0539 11.9259 40.7868 11.227 42.0482 11.227Z" fill="white"/>
<path d="M52.6795 9.55664C51.4353 9.55664 50.4978 10.0509 49.8671 11.0225V9.76118H47.8047V21.8972H49.9524V17.4144C50.566 18.3177 51.4864 18.7609 52.6795 18.7609C53.8727 18.7609 54.8442 18.3518 55.5601 17.4996C56.259 16.6644 56.6169 15.5565 56.6169 14.1588C56.6169 12.7611 56.259 11.6532 55.5601 10.8009C54.8442 9.98276 53.8727 9.55664 52.6795 9.55664ZM50.5148 16.2553C50.1058 15.778 49.9012 15.0792 49.9012 14.1588C49.9012 13.2554 50.0887 12.5566 50.4978 12.0622C50.8898 11.585 51.4523 11.3293 52.1682 11.3293C52.8841 11.3293 53.4466 11.5679 53.8386 12.0452C54.2306 12.5225 54.4352 13.2043 54.4352 14.0906C54.4352 15.011 54.2306 15.7269 53.8386 16.2212C53.4295 16.7326 52.867 16.9882 52.1682 16.9882C51.4523 16.9882 50.8898 16.7496 50.5148 16.2553Z" fill="white"/>
<path d="M63.4956 14.6897C63.4956 15.3885 63.291 15.9339 62.916 16.326C62.5411 16.718 62.0808 16.9055 61.5354 16.9055C60.4275 16.9055 59.882 16.3601 59.882 15.2351V9.76367H57.7344V15.593C57.7344 16.6157 58.0071 17.3998 58.5525 17.9452C59.098 18.4907 59.848 18.7634 60.8025 18.7634C61.9615 18.7634 62.8819 18.2691 63.5637 17.2805V18.5589H65.6432V9.76367H63.4956V14.6897Z" fill="white"/>
<path d="M71.9749 9.76768H70.2364V7.21094H68.1058V9.76768H66.7422V11.404H68.1058V16.3811C68.1058 17.1652 68.3103 17.7447 68.7535 18.1027C69.1967 18.4606 69.8955 18.6311 70.85 18.6311C71.1227 18.6311 71.4977 18.614 71.9749 18.5629V16.9266H71.242C70.8671 16.9266 70.6114 16.8754 70.458 16.7561C70.3046 16.6538 70.2364 16.4493 70.2364 16.1595V11.404H71.9749V9.76768Z" fill="white"/>
<path d="M81.3687 14.3122C81.3687 12.8974 80.9767 11.7554 80.1926 10.8691C79.4085 9.99981 78.3517 9.55664 77.0222 9.55664C75.7268 9.55664 74.67 9.98276 73.8689 10.818C73.0678 11.6702 72.6758 12.7781 72.6758 14.1588C72.6758 15.5565 73.0678 16.6644 73.886 17.4996C74.6871 18.3518 75.7439 18.7609 77.0563 18.7609C78.0961 18.7609 78.9824 18.5052 79.7153 17.9768C80.4312 17.4485 80.9085 16.7326 81.1471 15.8292H79.0847C78.7097 16.6814 78.0449 17.0905 77.0734 17.0905C76.4086 17.0905 75.8802 16.903 75.4882 16.528C75.0962 16.153 74.8575 15.5735 74.7894 14.8235H81.3687V14.3122ZM77.0052 11.227C77.6188 11.227 78.1131 11.4145 78.5052 11.7895C78.8801 12.1645 79.1188 12.6759 79.221 13.3236H74.8064C75.0109 11.9259 75.7439 11.227 77.0052 11.227Z" fill="white"/>
<path d="M89.0279 10.9066C88.3972 10.0203 87.4938 9.56009 86.3177 9.56009C85.0905 9.56009 84.1189 9.98621 83.4371 10.8044C82.7212 11.6396 82.3633 12.7645 82.3633 14.1622C82.3633 15.5599 82.7212 16.6678 83.4371 17.503C84.136 18.3553 85.0905 18.7644 86.3177 18.7644C87.5109 18.7644 88.4483 18.2871 89.096 17.3326V18.5598H91.1755V6.42383H89.0279V10.9066ZM85.1587 16.2928C84.7496 15.8326 84.5621 15.1508 84.5621 14.2304C84.5621 13.327 84.7496 12.6111 85.1587 12.0998C85.5677 11.5884 86.1132 11.3328 86.812 11.3328C87.5279 11.3328 88.0733 11.5884 88.4824 12.0657C88.8744 12.56 89.079 13.2588 89.079 14.1622C89.079 15.0827 88.8744 15.7815 88.4824 16.2588C88.0733 16.7531 87.5109 16.9917 86.812 16.9917C86.0961 16.9917 85.5507 16.7701 85.1587 16.2928Z" fill="white"/>
<path d="M93.7379 9.76942H92.2891V10.9626H93.7379V18.5646H95.1015V10.9626H96.9764V9.76942H95.1015V8.83195C95.1015 8.01379 95.4935 7.58767 96.2776 7.58767H97.0616V6.42862C96.6867 6.41158 96.3969 6.39453 96.1924 6.39453C94.556 6.39453 93.7379 7.22973 93.7379 8.86604V9.76942ZM98.2889 8.43992H99.7377V6.76952H98.2889V8.43992ZM99.7036 18.5646V9.76942H98.34V18.5646H99.7036Z" fill="white"/>
<path d="M105.875 9.62695C104.579 9.62695 103.625 10.1894 103.045 11.3144V9.76331H101.75V18.5585H103.114V13.5473C103.114 12.7291 103.352 12.0814 103.864 11.6383C104.375 11.1951 105.074 10.9565 105.994 10.9565H106.335V9.644C106.25 9.644 106.096 9.62695 105.875 9.62695Z" fill="white"/>
<path d="M116.865 9.55664C115.672 9.55664 114.768 10.1191 114.155 11.21C113.66 10.1191 112.757 9.55664 111.444 9.55664C110.32 9.55664 109.484 10.068 108.905 11.0566V9.76118H107.609V18.5564H108.973V13.7497C108.973 12.8122 109.178 12.0793 109.621 11.5679C110.047 11.0566 110.575 10.7839 111.223 10.7839C112.45 10.7839 113.064 11.4316 113.064 12.727V18.5564H114.427V13.7497C114.427 12.8122 114.632 12.0793 115.058 11.5679C115.484 11.0566 116.03 10.7839 116.677 10.7839C117.905 10.7839 118.518 11.4316 118.518 12.727V18.5564H119.882V12.5906C119.882 11.6702 119.609 10.9373 119.081 10.3918C118.552 9.8464 117.819 9.55664 116.865 9.55664Z" fill="white"/>
<path d="M125.03 18.7609C126.121 18.7609 126.973 18.5393 127.586 18.0791C128.2 17.6189 128.524 16.9712 128.524 16.136C128.524 15.4201 128.285 14.8747 127.808 14.4656C127.331 14.0736 126.564 13.7667 125.49 13.5452L124.706 13.3918C124.058 13.2554 123.615 13.102 123.342 12.8974C123.07 12.71 122.933 12.4202 122.933 12.0282C122.933 11.6191 123.087 11.3123 123.41 11.0736C123.717 10.8521 124.177 10.7327 124.774 10.7327C125.507 10.7327 126.052 10.8691 126.41 11.1248C126.751 11.3975 126.956 11.8407 126.99 12.4713H128.353C128.285 10.5282 127.092 9.55664 124.774 9.55664C123.785 9.55664 123.001 9.79527 122.422 10.2384C121.842 10.6816 121.57 11.2952 121.57 12.0452C121.57 13.4429 122.473 14.2951 124.314 14.636L125.132 14.7894C125.882 14.9428 126.41 15.1133 126.7 15.3178C126.99 15.5224 127.143 15.8292 127.143 16.2212C127.143 17.1416 126.427 17.5848 125.03 17.5848C124.246 17.5848 123.683 17.4484 123.325 17.1757C122.967 16.903 122.746 16.4258 122.678 15.761H121.297C121.433 17.7723 122.678 18.7609 125.03 18.7609Z" fill="white"/>
<path d="M0 12.8775C0 5.81721 5.72346 0.09375 12.7837 0.09375C19.8439 0.09375 25.5674 5.81721 25.5674 12.8775V25.6612H12.7837C5.72346 25.6612 0 19.9377 0 12.8775Z" fill="#E9465D"/>
<path d="M18.4649 12.4021L17.7946 10.123L13.773 11.707L13.9133 7.19727H11.6375L11.7934 11.6747L7.77185 10.123L7.10156 12.4021L11.2946 13.5982L8.50443 17.1382L10.3282 18.5606L12.791 14.859L15.1914 18.5606L16.9996 17.1382L14.3186 13.6305L18.4649 12.4021Z" fill="white"/>
</svg>
