<svg width="129" height="19" viewBox="0 0 129 19" fill="none" xmlns="http://www.w3.org/2000/svg">
<path fill-rule="evenodd" clip-rule="evenodd" d="M14.1963 4.95655L7.09818 0.863281L0 4.95655V6.37618L7.09818 2.28291L14.1963 6.37618V4.95655Z" fill="#77C04B"/>
<path fill-rule="evenodd" clip-rule="evenodd" d="M5.86781 9.76012L7.09818 9.0503L0 4.95703V6.37667L5.86781 9.76012Z" fill="#77C04B"/>
<path fill-rule="evenodd" clip-rule="evenodd" d="M14.1919 14.5629V13.1432L8.32406 9.75977L7.09375 10.4696L14.1919 14.5629Z" fill="#77C04B"/>
<path fill-rule="evenodd" clip-rule="evenodd" d="M14.1963 14.5603L7.09818 18.6535L0 14.5603V13.1406L7.09818 17.2339L14.1963 13.1406V14.5603Z" fill="#77C04B"/>
<path fill-rule="evenodd" clip-rule="evenodd" d="M14.1963 9.0503L7.09818 4.95703L0 9.0503V10.4699L7.09818 6.37667L14.1963 10.4699V9.0503Z" fill="white"/>
<path d="M24.2125 5.21089C23.9217 4.80654 23.5486 4.48117 23.0933 4.23477C22.638 3.98837 22.0879 3.86517 21.4429 3.86517C21.1141 3.86517 20.7789 3.91571 20.4375 4.0168C20.096 4.11789 19.7862 4.27268 19.508 4.48117C19.2297 4.68966 19.0053 4.95185 18.8345 5.26775C18.6638 5.58366 18.5784 5.95641 18.5784 6.38603C18.5784 6.81568 18.6607 7.16948 18.825 7.44743C18.9894 7.72544 19.2076 7.96236 19.4795 8.15819C19.7514 8.35408 20.0613 8.51516 20.4091 8.64154C20.7568 8.76793 21.1204 8.89426 21.4998 9.02064C21.9678 9.17227 22.4388 9.33652 22.9131 9.51344C23.3873 9.69031 23.8141 9.92095 24.1936 10.2052C24.573 10.4895 24.8828 10.8497 25.1231 11.2856C25.3634 11.7215 25.4835 12.2744 25.4835 12.944C25.4835 13.6138 25.3539 14.1919 25.0947 14.6783C24.8354 15.1648 24.5003 15.566 24.0893 15.8819C23.6782 16.1978 23.2103 16.4316 22.6855 16.5832C22.1606 16.7348 21.6326 16.8107 21.1014 16.8107C20.6967 16.8107 20.2921 16.7696 19.8873 16.6875C19.4827 16.6053 19.097 16.4821 18.7302 16.3179C18.3634 16.1536 18.0219 15.9451 17.7058 15.6923C17.3896 15.4396 17.1114 15.149 16.8711 14.8205L18.0472 13.9486C18.3382 14.4288 18.746 14.83 19.2708 15.1522C19.7957 15.4744 20.4122 15.6355 21.1204 15.6355C21.4619 15.6355 21.8097 15.5818 22.1638 15.4744C22.5179 15.367 22.8372 15.2027 23.1218 14.9816C23.4063 14.7605 23.6403 14.4888 23.8236 14.1666C24.007 13.8444 24.0987 13.4685 24.0987 13.0388C24.0987 12.5713 24.007 12.1827 23.8236 11.8731C23.6403 11.5636 23.3968 11.3046 23.0933 11.096C22.7898 10.8876 22.442 10.7138 22.0499 10.5748C21.6579 10.4358 21.2469 10.2968 20.8169 10.1579C20.3743 10.0189 19.9379 9.8609 19.508 9.68397C19.0779 9.5071 18.6922 9.27652 18.3508 8.99217C18.0093 8.70788 17.7343 8.35725 17.5256 7.94023C17.3169 7.52327 17.2125 7.01151 17.2125 6.40498C17.2125 5.76055 17.3422 5.20458 17.6015 4.73705C17.8607 4.26952 18.199 3.88413 18.6163 3.58086C19.0337 3.2776 19.4953 3.05648 20.0012 2.91748C20.507 2.77848 21.0066 2.70898 21.4998 2.70898C22.4104 2.70898 23.1882 2.87009 23.8332 3.19231C24.4781 3.51453 24.965 3.89676 25.2938 4.33902L24.2125 5.21089Z" fill="#77C04B"/>
<path fill-rule="evenodd" clip-rule="evenodd" d="M35.5157 12.1664V11.8822C35.5157 11.2758 35.4242 10.7074 35.2412 10.1769C35.0582 9.64636 34.7901 9.18214 34.4368 8.78425C34.0834 8.38631 33.6418 8.07054 33.1118 7.83684C32.5818 7.60315 31.9698 7.48633 31.2757 7.48633C30.6448 7.48633 30.058 7.60315 29.5154 7.83684C28.9727 8.07054 28.4996 8.39581 28.0957 8.81266C27.6919 9.22951 27.3765 9.72215 27.1493 10.2906C26.9222 10.859 26.8086 11.478 26.8086 12.1475C26.8086 12.8169 26.9254 13.4359 27.1588 14.0043C27.3922 14.5727 27.7108 15.0654 28.1147 15.4822C28.5185 15.8991 29.0012 16.2243 29.5627 16.458C30.1243 16.6917 30.7331 16.8085 31.3893 16.8085C32.1212 16.8085 32.8058 16.6633 33.443 16.3728C34.0803 16.0822 34.6639 15.6022 35.1939 14.9327L34.2285 14.1748C33.9762 14.5791 33.6071 14.9359 33.1212 15.2454C32.6354 15.5549 32.0581 15.7096 31.3893 15.7096C30.935 15.7096 30.5123 15.6243 30.1211 15.4538C29.7299 15.2833 29.3892 15.0527 29.099 14.7622C28.8087 14.4717 28.5816 14.1306 28.4176 13.739C28.2535 13.3475 28.1652 12.9306 28.1526 12.4885H35.4968C35.5094 12.3748 35.5157 12.2674 35.5157 12.1664ZM33.4051 9.39059C33.9036 9.94005 34.1717 10.6316 34.2096 11.4653H28.1714C28.1966 11.0864 28.2913 10.7232 28.4554 10.3759C28.6194 10.0285 28.8402 9.71898 29.1179 9.44742C29.3955 9.1758 29.7173 8.96107 30.0832 8.80321C30.4491 8.6453 30.8466 8.56635 31.2757 8.56635C32.1969 8.56635 32.9067 8.84108 33.4051 9.39059Z" fill="#77C04B"/>
<path d="M38.1136 16.8107H36.8359V2.70898H38.1136V16.8107Z" fill="#77C04B"/>
<path fill-rule="evenodd" clip-rule="evenodd" d="M48.168 12.1664V11.8822C48.168 11.2758 48.0765 10.7074 47.8935 10.1769C47.7105 9.64636 47.4424 9.18214 47.0891 8.78425C46.7357 8.38631 46.2941 8.07054 45.7641 7.83684C45.2341 7.60315 44.622 7.48633 43.928 7.48633C43.297 7.48633 42.7103 7.60315 42.1677 7.83684C41.6251 8.07054 41.1519 8.39581 40.7481 8.81266C40.3442 9.22951 40.0287 9.72215 39.8016 10.2906C39.5745 10.859 39.4609 11.478 39.4609 12.1475C39.4609 12.8169 39.5776 13.4359 39.8111 14.0043C40.0445 14.5727 40.3632 15.0654 40.767 15.4822C41.1708 15.8991 41.6534 16.2243 42.215 16.458C42.7766 16.6917 43.3854 16.8085 44.0416 16.8085C44.7735 16.8085 45.4581 16.6633 46.0953 16.3728C46.7326 16.0822 47.3162 15.6022 47.8462 14.9327L46.8808 14.1748C46.6285 14.5791 46.2594 14.9359 45.7736 15.2454C45.2877 15.5549 44.7104 15.7096 44.0416 15.7096C43.5873 15.7096 43.1646 15.6243 42.7734 15.4538C42.3822 15.2833 42.0415 15.0527 41.7512 14.7622C41.461 14.4717 41.2339 14.1306 41.0698 13.739C40.9058 13.3475 40.8175 12.9306 40.8048 12.4885H48.1491C48.1617 12.3748 48.168 12.2674 48.168 12.1664ZM46.0575 9.39059C46.5559 9.94005 46.8241 10.6316 46.8619 11.4653H40.8237C40.849 11.0864 40.9436 10.7232 41.1077 10.3759C41.2717 10.0285 41.4926 9.71898 41.7702 9.44742C42.0478 9.1758 42.3696 8.96107 42.7355 8.80321C43.1015 8.6453 43.499 8.56635 43.928 8.56635C44.8492 8.56635 45.5591 8.84108 46.0575 9.39059Z" fill="#77C04B"/>
<path d="M56.5141 9.74111C56.3 9.40004 55.9881 9.11898 55.5784 8.8979C55.1688 8.67688 54.7244 8.56635 54.2455 8.56635C53.7287 8.56635 53.2624 8.65792 52.8464 8.84108C52.4305 9.02423 52.0744 9.27689 51.7782 9.59899C51.482 9.92109 51.2551 10.3 51.0976 10.7358C50.94 11.1716 50.8613 11.6421 50.8613 12.1475C50.8613 12.6527 50.94 13.1201 51.0976 13.5496C51.2551 13.9791 51.4789 14.3548 51.7688 14.677C52.0587 14.9991 52.4116 15.2517 52.8275 15.4349C53.2435 15.618 53.7098 15.7096 54.2266 15.7096C54.7938 15.7096 55.2727 15.6022 55.6634 15.3875C56.0543 15.1727 56.3757 14.8949 56.6275 14.5538L57.5917 15.2738C57.2136 15.7412 56.7504 16.1138 56.2022 16.3917C55.6539 16.6696 54.9954 16.8085 54.2266 16.8085C53.5081 16.8085 52.859 16.6917 52.2792 16.458C51.6995 16.2243 51.2048 15.8991 50.7951 15.4822C50.3855 15.0654 50.0672 14.5727 49.8403 14.0043C49.6135 13.4359 49.5 12.8169 49.5 12.1475C49.5 11.478 49.6135 10.859 49.8403 10.2906C50.0672 9.72215 50.3855 9.22951 50.7951 8.81266C51.2048 8.39581 51.6995 8.07054 52.2792 7.83684C52.859 7.60315 53.5081 7.48633 54.2266 7.48633C54.819 7.48633 55.4209 7.61577 56.032 7.87476C56.6437 8.1337 57.138 8.5158 57.5161 9.02106L56.5141 9.74111Z" fill="#77C04B"/>
<path d="M64.5689 8.91682H62.0657V14.0864C62.0657 14.4147 62.0974 14.686 62.1608 14.9007C62.2241 15.1153 62.3153 15.2825 62.4354 15.4025C62.5555 15.5224 62.6979 15.6045 62.8625 15.6487C63.0265 15.6928 63.2033 15.715 63.3929 15.715C63.5703 15.715 63.7565 15.6897 63.9523 15.6392C64.1485 15.5887 64.3348 15.5192 64.5116 15.4309L64.5689 16.5481C64.3409 16.6365 64.1041 16.7028 63.8577 16.7469C63.6114 16.7911 63.3429 16.8132 63.0521 16.8132C62.8119 16.8132 62.5589 16.7817 62.2937 16.7186C62.0279 16.6554 61.7816 16.5355 61.5541 16.3588C61.3267 16.182 61.1399 15.9422 60.9948 15.6392C60.8491 15.3362 60.7768 14.9385 60.7768 14.4462V8.91682H58.9375V7.83747H60.7768V5.33789H62.0657V7.83747H64.5689V8.91682Z" fill="#77C04B"/>
<path fill-rule="evenodd" clip-rule="evenodd" d="M74.6013 12.1664V11.8822C74.6013 11.2758 74.5101 10.7074 74.3272 10.1769C74.1442 9.64636 73.8757 9.18214 73.5226 8.78425C73.169 8.38631 72.7275 8.07054 72.1976 7.83684C71.6677 7.60315 71.0555 7.48633 70.3616 7.48633C69.7305 7.48633 69.1439 7.60315 68.6012 7.83684C68.0586 8.07054 67.5854 8.39581 67.1817 8.81266C66.7775 9.22951 66.4622 9.72215 66.2354 10.2906C66.008 10.859 65.8945 11.478 65.8945 12.1475C65.8945 12.8169 66.0113 13.4359 66.2448 14.0043C66.4778 14.5727 66.7964 15.0654 67.2006 15.4822C67.6043 15.8991 68.0869 16.2243 68.6485 16.458C69.2101 16.6917 69.8189 16.8085 70.475 16.8085C71.2068 16.8085 71.8918 16.6633 72.529 16.3728C73.1662 16.0822 73.7494 15.6022 74.2799 14.9327L73.3141 14.1748C73.0622 14.5791 72.693 14.9359 72.207 15.2454C71.7211 15.5549 71.1439 15.7096 70.475 15.7096C70.0208 15.7096 69.5982 15.6243 69.2068 15.4538C68.8159 15.2833 68.475 15.0527 68.1848 14.7622C67.8945 14.4717 67.6671 14.1306 67.5031 13.739C67.3391 13.3475 67.2507 12.9306 67.2384 12.4885H74.5824C74.5952 12.3748 74.6013 12.2674 74.6013 12.1664ZM72.4912 9.39059C72.9894 9.94005 73.2574 10.6316 73.2952 11.4653H67.2573C67.2824 11.0864 67.3769 10.7232 67.5409 10.3759C67.7055 10.0285 67.9262 9.71898 68.2037 9.44742C68.4811 9.1758 68.8031 8.96107 69.1689 8.80321C69.5348 8.6453 69.9324 8.56635 70.3616 8.56635C71.2829 8.56635 71.9924 8.84108 72.4912 9.39059Z" fill="#77C04B"/>
<path fill-rule="evenodd" clip-rule="evenodd" d="M82.3773 16.3521C82.9828 16.0621 83.4743 15.6334 83.853 15.0659H83.8908V16.773H85.1774V2.68555H83.8908V9.23983H83.853C83.4743 8.65974 82.9828 8.22153 82.3773 7.92518C81.7718 7.62887 81.1474 7.48069 80.5041 7.48069C79.8107 7.48069 79.183 7.60046 78.6219 7.8401C78.0603 8.07969 77.5811 8.40752 77.1841 8.82371C76.7865 9.23983 76.4779 9.73163 76.2572 10.2991C76.0364 10.8666 75.9258 11.4782 75.9258 12.1339C75.9258 12.7897 76.0364 13.4013 76.2572 13.9687C76.4779 14.5362 76.7865 15.028 77.1841 15.4442C77.5811 15.8603 78.0603 16.1882 78.6219 16.4278C79.183 16.6674 79.8107 16.7872 80.5041 16.7872C81.1474 16.7872 81.7718 16.6422 82.3773 16.3521ZM77.5149 13.5243C77.3637 13.0892 77.288 12.6257 77.288 12.1339C77.288 11.6421 77.3637 11.1787 77.5149 10.7436C77.6661 10.3086 77.8841 9.93025 78.1677 9.6087C78.4518 9.28715 78.8015 9.03177 79.218 8.84261C79.6339 8.65345 80.1071 8.55887 80.6364 8.55887C81.1285 8.55887 81.5828 8.65028 81.9987 8.83316C82.4151 9.01598 82.7743 9.26819 83.0773 9.58979C83.3798 9.91134 83.6161 10.2897 83.7868 10.7247C83.957 11.1598 84.042 11.6295 84.042 12.1339C84.042 12.6383 83.957 13.1081 83.7868 13.5432C83.6161 13.9783 83.3798 14.3534 83.0773 14.6687C82.7743 14.9839 82.4151 15.233 81.9987 15.4158C81.5828 15.5987 81.1285 15.6901 80.6364 15.6901C80.1071 15.6901 79.6339 15.5987 79.218 15.4158C78.8015 15.233 78.4518 14.9808 78.1677 14.6592C77.8841 14.3376 77.6661 13.9593 77.5149 13.5243Z" fill="#77C04B"/>
<path d="M89.216 16.8107H87.8516V2.70898H95.9433V3.92041H89.216V8.57677H95.4696V9.76927H89.216V16.8107Z" fill="white"/>
<path fill-rule="evenodd" clip-rule="evenodd" d="M98.5662 5.33789H97.2695V6.62554H98.5662V5.33789ZM97.2745 16.8133H98.5712V7.9511H97.2745V16.8133Z" fill="white"/>
<path d="M100.638 9.90138C100.638 9.66162 100.632 9.35248 100.619 8.97388C100.607 8.59534 100.588 8.25461 100.562 7.95174H101.794C101.819 8.1915 101.838 8.4565 101.851 8.74674C101.864 9.03699 101.87 9.27674 101.87 9.46601H101.908C102.161 8.94864 102.539 8.52906 103.045 8.20729C103.549 7.88552 104.118 7.72461 104.75 7.72461C104.914 7.72461 105.062 7.73095 105.195 7.74357C105.328 7.75619 105.463 7.78144 105.602 7.81924L105.432 9.0307C105.356 9.00546 105.23 8.98022 105.053 8.95497C104.876 8.92973 104.699 8.91711 104.522 8.91711C104.181 8.91711 103.853 8.98022 103.537 9.10638C103.221 9.2326 102.947 9.43132 102.713 9.70266C102.479 9.97394 102.29 10.321 102.144 10.7437C101.999 11.1664 101.926 11.6744 101.926 12.2674V16.8102H100.638V9.90138Z" fill="white"/>
<path d="M108.266 9.46601C108.519 8.94864 108.907 8.52906 109.431 8.20729C109.954 7.88552 110.538 7.72461 111.182 7.72461C111.422 7.72461 111.671 7.74985 111.93 7.80034C112.189 7.85083 112.442 7.94863 112.687 8.09375C112.934 8.23882 113.161 8.43126 113.369 8.67107C113.577 8.91083 113.758 9.21997 113.909 9.59851C114.212 8.99284 114.625 8.52906 115.149 8.20729C115.673 7.88552 116.295 7.72461 117.014 7.72461C118.137 7.72461 118.98 8.059 119.542 8.72784C120.103 9.39662 120.385 10.28 120.385 11.3778V16.8102H119.097V11.9078C119.097 10.974 118.924 10.2231 118.576 9.65534C118.229 9.08748 117.639 8.80351 116.806 8.80351C116.339 8.80351 115.944 8.89821 115.623 9.08747C115.301 9.27674 115.042 9.52595 114.846 9.83516C114.651 10.1443 114.508 10.4945 114.42 10.8856C114.332 11.2769 114.287 11.6806 114.287 12.0971V16.8102H113V11.6428C113 11.2138 112.969 10.8226 112.905 10.4692C112.842 10.1159 112.732 9.8162 112.574 9.57016C112.416 9.32406 112.199 9.13479 111.921 9.00229C111.643 8.86979 111.289 8.80351 110.86 8.80351C110.557 8.80351 110.251 8.87296 109.942 9.01174C109.632 9.15058 109.355 9.36193 109.109 9.64583C108.862 9.92979 108.664 10.2894 108.512 10.7248C108.361 11.1602 108.285 11.6744 108.285 12.2674V16.8102H106.997V9.90138C106.997 9.66162 106.991 9.35248 106.979 8.97388C106.966 8.59534 106.947 8.25461 106.922 7.95174H108.152C108.178 8.1915 108.197 8.4565 108.21 8.74674C108.222 9.03699 108.229 9.27674 108.229 9.46601H108.266Z" fill="white"/>
<path d="M127.412 9.81689C127.223 9.45053 126.935 9.15056 126.55 8.91686C126.165 8.68317 125.727 8.56635 125.234 8.56635C125.006 8.56635 124.779 8.59159 124.552 8.64213C124.325 8.69267 124.122 8.77474 123.946 8.88845C123.769 9.00216 123.627 9.14739 123.52 9.32426C123.412 9.50107 123.358 9.70953 123.358 9.94951C123.358 10.3664 123.529 10.6853 123.87 10.9064C124.211 11.1274 124.747 11.3138 125.48 11.4653C126.528 11.6801 127.302 11.9927 127.8 12.4032C128.299 12.8137 128.548 13.3664 128.548 14.0612C128.548 14.5664 128.45 14.9927 128.255 15.3401C128.059 15.6875 127.803 15.9717 127.488 16.1927C127.172 16.4138 126.815 16.5717 126.418 16.6665C126.02 16.7612 125.619 16.8085 125.215 16.8085C124.546 16.8085 123.896 16.6696 123.264 16.3917C122.632 16.1138 122.115 15.678 121.711 15.0843L122.733 14.3264C122.961 14.718 123.296 15.0464 123.738 15.3117C124.18 15.5769 124.666 15.7096 125.196 15.7096C125.474 15.7096 125.739 15.6843 125.991 15.6338C126.244 15.5833 126.465 15.4949 126.655 15.3686C126.844 15.2422 126.995 15.0811 127.109 14.8854C127.223 14.6896 127.279 14.4464 127.279 14.1559C127.279 13.6885 127.055 13.338 126.607 13.1043C126.159 12.8706 125.511 12.6527 124.666 12.4506C124.4 12.3874 124.12 12.3085 123.823 12.2137C123.526 12.119 123.251 11.9801 122.999 11.7969C122.746 11.6137 122.538 11.3832 122.374 11.1053C122.21 10.8274 122.127 10.4801 122.127 10.0632C122.127 9.60844 122.216 9.22 122.393 8.8979C122.569 8.5758 122.806 8.31052 123.103 8.10212C123.4 7.89367 123.738 7.73893 124.116 7.6379C124.495 7.53687 124.886 7.48633 125.291 7.48633C125.909 7.48633 126.509 7.62528 127.09 7.90318C127.671 8.18108 128.107 8.57263 128.397 9.07794L127.412 9.81689Z" fill="white"/>
</svg>
