<svg width="68" height="68" viewBox="0 0 68 68" fill="none" xmlns="http://www.w3.org/2000/svg">
<path d="M15.6747 18.9141C15.6955 12.8296 17.9513 7.81846 22.5882 4.00146C25.9719 1.21512 29.9056 -0.106974 34.2501 0.00675436C39.2281 0.134699 43.4891 2.05386 46.9285 5.7216C50.3678 9.38933 52.0179 13.8176 51.9761 18.9141C56.5364 18.6084 60.4632 20.0656 63.638 23.4063C65.9773 25.8657 67.3071 28.8511 67.5787 32.2842C67.8989 36.2931 66.8267 39.8898 64.2855 42.9818C61.7582 46.0667 58.4929 47.7726 54.58 48.2062C54.5592 48.4834 54.5592 48.7464 54.5104 49.0094C54.3085 50.1609 53.292 51.0209 52.1502 51.0209C51.5514 51.0209 50.9527 51.0209 50.3539 51.0209C50.2425 51.0209 50.1868 51.0494 50.152 51.1702C49.79 52.4497 49.2887 53.6651 48.6133 54.9019C48.6621 54.9303 48.7456 54.9588 48.7944 55.0085C49.2469 55.4706 49.7203 55.9113 50.1311 56.4088C50.9596 57.3968 50.8831 58.8753 49.9849 59.7922C49.0032 60.7945 48.0215 61.7967 47.0399 62.7989C46.0094 63.8509 44.4847 63.858 43.4473 62.806C43.0156 62.3724 42.5909 61.9317 42.1662 61.491C41.7485 61.7043 41.3447 61.9317 40.9269 62.1094C40.1611 62.4293 39.3813 62.7136 38.5946 62.9979C38.4484 63.0548 38.3927 63.1117 38.3996 63.2752C38.4136 63.8509 38.3927 64.4267 38.4066 65.0024C38.4344 66.2676 37.4458 67.4618 36.116 67.4973C34.5912 67.54 33.0595 67.54 31.5348 67.4973C30.2328 67.4547 29.2581 66.3529 29.2442 65.0237C29.2372 64.4267 29.2372 63.8296 29.2442 63.2325C29.2442 63.1046 29.2094 63.0477 29.0841 63.0122C27.8796 62.6639 26.7308 62.1663 25.6308 61.5479C25.5194 61.4839 25.4567 61.4981 25.3662 61.5906C24.9415 62.0313 24.5168 62.4719 24.0851 62.9055C23.18 63.8154 21.6065 63.8083 20.7084 62.8984C19.6919 61.8678 18.6824 60.8371 17.6728 59.7993C16.7051 58.8113 16.6981 57.2262 17.6659 56.224C18.0697 55.8046 18.4805 55.3853 18.8912 54.973C18.9818 54.8806 18.9887 54.8166 18.933 54.7029C18.3203 53.5869 17.8539 52.407 17.4988 51.1773C17.457 51.0423 17.4013 51.0209 17.283 51.0209C16.7051 51.028 16.1272 51.0209 15.5493 51.0209C14.1708 51.0209 13.0916 49.9192 13.0916 48.5118C13.0916 48.4194 13.0916 48.327 13.0916 48.2275C8.33639 47.6517 4.6394 45.3559 2.09816 41.2048C0.47594 38.5464 -0.185479 35.6108 0.0442775 32.5046C0.350619 28.4317 2.0355 25.0341 5.08499 22.3828C8.13448 19.7244 11.6922 18.6297 15.6747 18.9141ZM25.4915 31.2109C25.5333 31.1896 25.5611 31.1754 25.582 31.1612C26.696 30.5428 27.8517 30.031 29.0771 29.6827C29.2303 29.64 29.2581 29.5619 29.2581 29.4197C29.2512 28.8297 29.2581 28.2398 29.2581 27.6498C29.2581 26.2851 30.3512 25.1762 31.688 25.1762C33.1152 25.1762 34.5495 25.1762 35.9767 25.1762C37.2578 25.1762 38.33 26.1856 38.4066 27.4934C38.4414 28.126 38.4275 28.7587 38.4205 29.3913C38.4205 29.5619 38.4553 29.6472 38.6363 29.6969C39.1307 29.8604 39.6389 30.0168 40.1263 30.23C40.8156 30.5214 41.4839 30.8555 42.1941 31.1896C42.5979 30.7773 43.0226 30.3366 43.4543 29.8959C44.4777 28.8511 46.0025 28.8297 47.0329 29.8675C48.0146 30.8555 48.9963 31.8577 49.964 32.86C50.6463 33.5637 50.8691 34.4095 50.6254 35.3762C50.514 35.8311 50.2634 36.2078 49.9431 36.5348C49.5184 36.9684 49.0868 37.4091 48.676 37.8214C48.9684 38.454 49.2678 39.0439 49.5115 39.6552C49.7552 40.2665 49.9571 40.9062 50.1659 41.5389C50.2077 41.6739 50.2843 41.6668 50.3818 41.6668C50.9596 41.6668 51.5375 41.6668 52.1154 41.6668C53.487 41.6739 54.5592 42.7685 54.5592 44.1688C54.5592 44.6522 54.5592 45.1355 54.5592 45.6189C54.5592 45.7823 54.5592 45.9529 54.5592 46.1164C54.6079 46.1235 54.6288 46.1377 54.6427 46.1306C54.8028 46.1093 54.9699 46.088 55.1301 46.0596C58.3258 45.5193 60.9366 43.9556 62.9487 41.3683C64.9539 38.7881 65.8381 35.8311 65.6014 32.5472C65.4621 30.6636 64.9191 28.9079 63.9931 27.2731C62.7607 25.098 61.0411 23.4348 58.8549 22.2833C57.5738 21.608 56.2162 21.1673 54.7819 21.0109C54.0439 20.9256 53.292 20.9327 52.547 20.947C52.0458 20.9541 51.5375 21.0465 51.0362 21.1104C50.3609 21.1886 49.8248 20.6342 49.9083 19.9518C49.9431 19.7031 49.9501 19.4472 49.9571 19.1984C49.978 18.2814 49.9501 17.3645 49.8387 16.4547C49.6159 14.699 49.1425 13.0286 48.3905 11.4364C47.4437 9.41776 46.1487 7.66208 44.5056 6.18362C42.7859 4.63407 40.8295 3.49679 38.6363 2.79309C37.1464 2.31686 35.6217 2.05386 34.0621 2.04675C33.2475 2.03965 32.4329 2.10362 31.6253 2.20313C29.9892 2.40215 28.4366 2.89971 26.9466 3.61762C25.039 4.54167 23.368 5.79978 21.9407 7.39198C20.9869 8.45107 20.1793 9.61679 19.5248 10.8891C18.2577 13.3698 17.652 16.0069 17.6798 18.8003C17.6798 19.0918 17.6798 19.0918 17.9583 19.0918C21.8293 19.0918 25.7004 19.0918 29.5714 19.0918C29.6828 19.0918 29.7942 19.0918 29.8987 19.1202C30.3791 19.241 30.6715 19.7244 30.6088 20.2504C30.5461 20.7408 30.1354 21.1104 29.648 21.1104C25.4428 21.1104 21.2445 21.1104 17.0393 21.1104C16.8583 21.1104 16.6772 21.1247 16.5032 21.0962C15.2569 20.8901 14.0107 20.8474 12.7575 21.0251C9.67315 21.4658 7.08317 22.8732 5.05714 25.2828C2.52982 28.2895 1.56206 31.7938 2.20259 35.7032C2.6621 38.5393 3.99191 40.9205 6.05971 42.8681C7.79333 44.5029 9.83328 45.5478 12.1587 46.0027C12.465 46.0596 12.7714 46.1022 13.1056 46.152C13.1056 45.4838 13.1056 44.8512 13.1056 44.2257C13.1056 42.7614 14.1708 41.6739 15.605 41.6668C16.162 41.6668 16.719 41.6597 17.276 41.6668C17.4152 41.6668 17.4779 41.6313 17.5197 41.482C17.8747 40.2523 18.3412 39.0724 18.9609 37.9564C19.0235 37.8427 18.9887 37.7858 18.9121 37.7076C18.4735 37.2669 18.0349 36.8191 17.5963 36.3642C16.7399 35.4686 16.7399 33.8622 17.6032 32.9808C18.6476 31.9075 19.6989 30.8342 20.7571 29.768C21.1818 29.3415 21.704 29.1354 22.2958 29.1069C23.0686 29.0714 23.7161 29.3557 24.2522 29.9244C24.656 30.358 25.0738 30.7844 25.4915 31.2109ZM15.0968 46.3368C15.0968 47.012 15.0968 47.6873 15.0968 48.3554C15.0968 48.8175 15.2639 48.9881 15.7164 48.9881C16.5449 48.9881 17.3665 48.9881 18.195 48.9881C18.745 48.9881 19.0932 49.2653 19.2254 49.8197C19.6014 51.4332 20.2141 52.9543 21.0704 54.3617C21.3907 54.8948 21.3489 55.3568 20.9103 55.8046C20.3185 56.4088 19.7337 57.0059 19.1419 57.6101C18.8773 57.8802 18.8773 58.1076 19.1488 58.3848C20.0957 59.3515 21.0426 60.3182 21.9964 61.292C22.3237 61.6261 22.5186 61.6261 22.8528 61.2849C23.4376 60.6878 24.0225 60.0908 24.6003 59.5008C24.9902 59.1027 25.4358 59.053 25.9093 59.3302C26.327 59.579 26.7378 59.8278 27.1694 60.0481C28.2277 60.5883 29.3417 60.9864 30.4904 61.2707C30.9639 61.3844 31.2424 61.7683 31.2424 62.2729C31.2424 63.133 31.2424 63.986 31.2424 64.846C31.2424 65.2938 31.4234 65.4786 31.8481 65.4786C33.1779 65.4786 34.5007 65.4786 35.8305 65.4786C36.2483 65.4786 36.4293 65.2938 36.4293 64.8602C36.4293 64.0073 36.4293 63.1614 36.4293 62.3085C36.4293 61.754 36.7008 61.3915 37.23 61.2636C38.8034 60.8798 40.2934 60.2756 41.665 59.3942C42.208 59.0459 42.7441 59.1241 43.1827 59.5861C43.7328 60.1761 44.3106 60.7376 44.8746 61.3133C45.167 61.6119 45.3689 61.619 45.6613 61.3133C46.6152 60.3395 47.569 59.3657 48.5228 58.392C48.8083 58.1005 48.8083 57.8873 48.5159 57.5887C47.945 57.0059 47.3671 56.4159 46.7962 55.8331C46.3367 55.3639 46.2879 54.9161 46.6221 54.3617C46.8171 54.0347 46.9981 53.7078 47.1721 53.3737C47.75 52.2435 48.1747 51.0565 48.4671 49.8126C48.5994 49.2653 48.9406 48.9952 49.4836 48.9952C50.3261 48.9952 51.1755 48.9952 52.0179 48.9952C52.4008 48.9952 52.5888 48.8032 52.5888 48.4123C52.5888 47.0405 52.5888 45.6757 52.5888 44.3039C52.5888 43.8632 52.4287 43.6997 51.9901 43.6997C51.1476 43.6997 50.3121 43.6997 49.4697 43.6997C48.9545 43.6997 48.5855 43.3941 48.4671 42.8823C48.4184 42.6761 48.3697 42.4771 48.314 42.271C47.931 40.8565 47.3601 39.5273 46.6012 38.2834C46.3019 37.7929 46.3575 37.3167 46.7544 36.9115C47.3462 36.3074 47.945 35.7032 48.5368 35.0919C48.8152 34.8005 48.8152 34.5659 48.5368 34.2745C47.5899 33.3078 46.643 32.334 45.6892 31.3673C45.3898 31.0616 45.174 31.0616 44.8815 31.3673C44.2897 31.9715 43.6979 32.5828 43.0992 33.1869C42.7232 33.5708 42.2359 33.6205 41.7833 33.3504C41.4282 33.1372 41.0732 32.924 40.7042 32.732C39.6041 32.1492 38.4484 31.7156 37.2369 31.4313C36.7356 31.3104 36.4502 30.9266 36.4502 30.3935C36.4502 29.5405 36.4502 28.6947 36.4502 27.8417C36.4502 27.3939 36.2761 27.2091 35.8445 27.2091C34.5216 27.2091 33.2057 27.2091 31.8829 27.2091C31.4512 27.2091 31.2633 27.3939 31.2633 27.8346C31.2633 28.6947 31.2633 29.5476 31.2633 30.4077C31.2633 30.9266 30.9778 31.3104 30.4835 31.4242C28.8822 31.808 27.3922 32.4335 25.9928 33.3078C25.4428 33.649 25.0111 33.585 24.5516 33.1159C23.9737 32.5259 23.3959 31.9359 22.818 31.346C22.5604 31.083 22.3237 31.0759 22.0661 31.3389C21.1122 32.3127 20.1584 33.2865 19.2045 34.2603C18.8912 34.5801 18.8912 34.8076 19.2045 35.1203C19.8103 35.7387 20.409 36.35 21.0147 36.9684C21.342 37.3025 21.4046 37.8214 21.161 38.2265C20.2767 39.6766 19.6362 41.2403 19.2533 42.9036C19.1349 43.4225 18.7659 43.7139 18.2437 43.7139C17.3943 43.7139 16.538 43.7139 15.6886 43.7139C15.3265 43.7139 15.1386 43.9058 15.1386 44.2683C15.0968 44.9507 15.0968 45.6473 15.0968 46.3368Z" fill="#2776EA"/>
<path d="M33.825 35.6465C39.6385 35.6465 44.3311 40.4515 44.3032 46.4151C44.2754 52.2508 39.6663 57.0416 33.8319 57.0416C27.9836 57.0416 23.3258 52.2153 23.3536 46.2943C23.3745 40.4017 28.0602 35.6536 33.825 35.6465ZM33.8319 55.0016C38.5524 54.9945 42.3399 51.0993 42.305 46.2303C42.2702 41.539 38.4758 37.6083 33.6648 37.6936C29.0697 37.7789 25.2752 41.6385 25.3588 46.5075C25.4354 51.1988 29.1881 54.9874 33.8319 55.0016Z" fill="#2776EA"/>
</svg>
