<svg width="56" height="59" viewBox="0 0 56 59" fill="none" xmlns="http://www.w3.org/2000/svg">
<path d="M48.5071 36.5871C48.1071 36.7171 47.7271 36.8571 47.3471 36.9671C46.3171 37.2671 45.2771 37.4071 44.2071 37.3671C44.0171 37.3571 43.8371 37.3771 43.6471 37.3671C43.4571 37.3471 43.3871 37.4071 43.3871 37.6171C43.3971 38.5471 43.3971 39.4671 43.3871 40.3971C43.3871 42.2471 42.9871 44.0071 42.1471 45.6571C41.0271 47.8371 39.3871 49.5071 37.2371 50.6871C35.8671 51.4371 34.3971 51.8671 32.8471 52.0071C30.6171 52.2071 28.4871 51.8371 26.4971 50.7971C23.2771 49.0971 21.2371 46.4671 20.4271 42.8971C20.2471 42.0871 20.1671 41.2571 20.1671 40.4271C20.1671 39.4971 20.1671 38.5771 20.1671 37.6471C20.1671 37.5671 20.1671 37.4871 20.1671 37.3971C19.5271 37.3971 18.8971 37.3971 18.2471 37.3971C18.2471 37.4771 18.2371 37.5471 18.2371 37.6271C18.2371 42.3571 18.2371 47.0871 18.2371 51.8171C18.2371 51.9771 18.2871 52.0471 18.4371 52.1071C20.7271 52.9671 21.4871 55.8071 19.9271 57.7071C19.0271 58.8071 17.4971 59.2571 16.1171 58.8271C14.7571 58.4071 13.7871 57.1671 13.6571 55.7571C13.4971 54.0571 14.5671 52.5971 15.9571 52.1071C16.0971 52.0571 16.1371 51.9971 16.1371 51.8471C16.1371 47.0971 16.1371 42.3471 16.1371 37.5971C16.1371 37.5371 16.1371 37.4871 16.1371 37.4071C14.2871 37.4071 12.4571 37.4071 10.6071 37.4071C10.6071 37.4971 10.6071 37.5671 10.6071 37.6471C10.6071 40.5571 10.6071 43.4771 10.6071 46.3871C10.6071 46.5971 10.6771 46.6771 10.8571 46.7571C12.1571 47.2971 12.9171 48.2771 13.0771 49.6771C13.2971 51.6371 11.9271 53.3371 9.97707 53.5771C7.94707 53.8271 6.11707 52.2871 6.01707 50.2571C5.93707 48.7371 6.81707 47.2971 8.28707 46.7471C8.48707 46.6671 8.52707 46.5671 8.52707 46.3771C8.51707 43.4771 8.52707 40.5771 8.52707 37.6771C8.52707 37.5871 8.52707 37.5071 8.52707 37.3871C7.85707 37.4671 7.29707 37.1771 6.73707 36.9271C4.62707 35.9671 3.01707 34.4471 1.81707 32.4771C0.847072 30.8771 0.277072 29.1271 0.0770725 27.2671C-0.172928 24.9671 0.177073 22.7571 1.24707 20.7071C2.72707 17.8671 5.00707 15.9571 8.05707 14.9871C8.19707 14.9371 8.24707 14.8671 8.25707 14.7271C8.47707 12.3771 9.44707 10.3871 11.1571 8.77707C12.7771 7.23707 14.7171 6.37707 16.9671 6.24707C18.0971 6.17707 19.2171 6.26707 20.3071 6.63707C22.0271 3.72707 24.5271 1.78707 27.6871 0.707066C30.1971 -0.152934 32.7571 -0.222934 35.3271 0.467066C38.4471 1.30707 40.9371 3.06707 42.7971 5.69707C44.6571 8.31707 45.4171 11.2671 45.2471 14.4671C46.7371 14.6171 48.1171 15.0071 49.4171 15.6771C50.3371 16.1571 51.1771 16.7471 51.9371 17.4571C53.7671 19.1671 54.9171 21.2671 55.3671 23.7171C55.8271 26.2271 55.4971 28.6471 54.4071 30.9671C53.5671 32.7471 52.3371 34.2071 50.7471 35.3671C50.6771 35.4171 50.6171 35.5271 50.6171 35.6071C50.6071 39.4071 50.6171 43.1971 50.6071 46.9971C50.6071 47.1871 50.7271 47.1971 50.8471 47.2371C52.1471 47.6871 53.0471 48.5671 53.4871 49.8671C54.2771 52.1771 52.8171 54.6971 50.4171 55.2071C48.0471 55.7071 45.7571 54.0471 45.4671 51.6271C45.2371 49.7371 46.4171 47.8671 48.2171 47.2771C48.4671 47.1971 48.5371 47.0871 48.5371 46.8271C48.5271 43.5171 48.5271 40.2071 48.5271 36.8971C48.5071 36.7771 48.5071 36.6871 48.5071 36.5871ZM23.0771 30.3771C23.0771 30.2671 23.0771 30.1771 23.0771 30.0871C23.1171 29.3671 23.1071 28.6371 23.2171 27.9271C23.5071 26.1071 24.3571 24.5671 25.6971 23.2971C27.2871 21.7871 29.1771 21.0271 31.3571 20.9571C32.1371 20.9271 32.9171 21.0071 33.6771 21.1971C36.5071 21.9271 38.5671 23.5671 39.6771 26.3171C40.1571 27.4971 40.3071 28.7371 40.2671 30.0071C40.2671 30.1271 40.2671 30.2471 40.2671 30.3571C40.3071 30.3771 40.3171 30.3771 40.3271 30.3771C40.9271 30.3771 41.5371 30.4071 42.1371 30.3771C42.7971 30.3371 43.4071 30.8771 43.3871 31.6271C43.3671 32.7371 43.3771 33.8471 43.3771 34.9671C43.3771 35.0471 43.3771 35.1171 43.3771 35.2571C44.1371 35.2171 44.8671 35.2471 45.5871 35.1371C48.1971 34.7471 50.2471 33.4271 51.7171 31.2571C53.1271 29.1771 53.6271 26.8671 53.2371 24.3771C52.9071 22.2671 51.9371 20.4871 50.3771 19.0371C48.5871 17.3871 46.4571 16.5871 44.0171 16.5871C43.5071 16.5871 43.0071 16.3371 42.9171 15.7071C42.8871 15.5171 42.8871 15.3171 42.9171 15.1371C43.1571 13.8271 43.1071 12.5271 42.8371 11.2371C42.3171 8.77707 41.1171 6.69707 39.2271 5.02707C37.1971 3.22707 34.8071 2.30707 32.0971 2.22707C31.4271 2.20707 30.7371 2.26707 30.0671 2.37707C26.8671 2.91707 24.3671 4.56707 22.5171 7.21707C22.2371 7.61707 21.9971 8.05707 21.7571 8.48707C21.4371 9.04707 20.9171 9.27707 20.3671 9.03707C19.1771 8.52707 17.9371 8.33707 16.6471 8.48707C14.8371 8.70707 13.3171 9.50707 12.1171 10.8871C10.9371 12.2371 10.3471 13.8271 10.3571 15.6371C10.3671 16.3071 9.99707 16.7771 9.37707 16.9171C7.29707 17.3971 5.56707 18.4571 4.20707 20.1071C2.93707 21.6571 2.22707 23.4371 2.10707 25.4371C2.01707 26.9471 2.26707 28.4271 2.82707 29.8371C3.72707 32.0871 5.17707 33.8571 7.39707 34.9271C7.93707 35.1871 8.48707 35.3371 9.10707 35.3371C12.6871 35.3171 16.2671 35.3271 19.8471 35.3271C19.9371 35.3271 20.0271 35.3271 20.1271 35.3271C20.1271 35.2171 20.1271 35.1371 20.1271 35.0571C20.1271 33.8871 20.1271 32.7171 20.1271 31.5471C20.1271 30.8671 20.6171 30.3771 21.2971 30.3771C21.9071 30.3771 22.4771 30.3771 23.0771 30.3771ZM22.3171 32.6271C22.3171 32.7271 22.3171 32.8071 22.3171 32.8771C22.3171 35.2971 22.3171 37.7171 22.3171 40.1271C22.3171 40.6271 22.3371 41.1271 22.4071 41.6271C22.6971 43.9071 23.6971 45.8471 25.3871 47.3771C27.5471 49.3371 30.1071 50.1671 33.0171 49.7871C35.3771 49.4871 37.3371 48.4071 38.8971 46.6271C40.4771 44.8171 41.2371 42.6971 41.2371 40.3071C41.2471 37.8271 41.2371 35.3571 41.2371 32.8771C41.2371 32.7971 41.2371 32.7071 41.2371 32.6171C34.9271 32.6271 28.6371 32.6271 22.3171 32.6271ZM38.2071 30.3671C38.3971 27.7171 37.4971 25.5871 35.2871 24.0871C33.0271 22.5571 30.2571 22.7071 28.2271 24.0971C26.0171 25.6071 25.1671 27.7471 25.3471 30.3671C29.6471 30.3671 33.9271 30.3671 38.2071 30.3671ZM51.5271 51.1471C51.5271 50.0471 50.6471 49.1571 49.5571 49.1471C48.4771 49.1471 47.5771 50.0471 47.5771 51.1371C47.5771 52.2871 48.4171 53.1071 49.5871 53.1071C50.6971 53.1171 51.5271 52.2771 51.5271 51.1471ZM8.15707 50.1171C8.15707 50.8771 8.79707 51.5171 9.54707 51.5171C10.2971 51.5171 10.9571 50.8571 10.9571 50.0971C10.9571 49.3271 10.3271 48.7071 9.55707 48.7071C8.79707 48.7171 8.15707 49.3671 8.15707 50.1171ZM18.5871 55.4771C18.5671 54.6771 17.9571 54.0871 17.1571 54.1071C16.4471 54.1271 15.7871 54.6871 15.7871 55.5371C15.7871 56.3171 16.4671 56.9271 17.2571 56.9071C17.9771 56.8871 18.6071 56.2071 18.5871 55.4771Z" fill="#2776EA"/>
<path d="M30.6675 43.5968C30.6675 43.3368 30.6575 43.0768 30.6675 42.8268C30.6775 42.6768 30.6275 42.5968 30.4875 42.5368C29.5275 42.1068 28.9175 41.3668 28.6875 40.3468C28.2075 38.2268 29.8475 36.3468 32.0275 36.4868C34.2475 36.6368 35.5875 38.9868 34.5875 40.9768C34.2475 41.6568 33.7475 42.1868 33.0475 42.5068C32.9075 42.5668 32.8775 42.6468 32.8775 42.7868C32.8875 43.2668 32.8975 43.7468 32.8775 44.2268C32.8575 44.7368 32.5875 45.1068 32.1375 45.3268C31.7475 45.5268 31.3775 45.4168 31.0575 45.1568C30.7975 44.9468 30.6475 44.6668 30.6575 44.3168C30.6775 44.0868 30.6675 43.8468 30.6675 43.5968ZM31.7875 38.6368C31.2375 38.6268 30.7675 39.0968 30.7675 39.6468C30.7675 40.1768 31.2375 40.6568 31.7675 40.6668C32.2875 40.6768 32.7775 40.2068 32.7875 39.6968C32.8075 39.2068 32.2675 38.6368 31.7875 38.6368Z" fill="#2776EA"/>
</svg>
