<svg width="65" height="65" viewBox="0 0 65 65" fill="none" xmlns="http://www.w3.org/2000/svg">
<path d="M46.8439 40.2059C46.7159 40.0671 46.5816 39.9365 46.4415 39.8004C46.4057 39.7657 46.3696 39.7306 46.3331 39.6949C46.1571 39.5227 45.9762 39.34 45.8121 39.1358C45.5137 38.7776 45.4029 38.365 45.5437 38.0022C45.6849 37.6382 46.045 37.4125 46.4983 37.3569L46.5047 37.3561L46.5047 37.3562C46.7689 37.3307 47.0243 37.331 47.269 37.334C47.3044 37.3344 47.3396 37.3349 47.3745 37.3354C47.584 37.3383 47.7852 37.3412 47.991 37.3312L47.9933 37.3311C49.7129 37.2642 50.8951 36.0497 50.9394 34.3001L50.9394 34.2999C50.9552 33.6932 50.9499 33.0794 50.9446 32.4641C50.942 32.1554 50.9393 31.8463 50.9393 31.5375C50.9393 30.0637 50.6729 29.1301 50.1066 28.5487C49.5406 27.9675 48.6199 27.6817 47.1646 27.6461L47.1574 27.6459L47.1574 27.6458C46.8825 27.6312 46.6209 27.5299 46.3899 27.4252C46.3032 27.386 46.2225 27.3472 46.145 27.31C46.0014 27.241 45.8686 27.1772 45.728 27.1248L45.4687 27.028L45.5912 26.7798C45.6551 26.6504 45.7057 26.5227 45.7602 26.3848C45.795 26.297 45.8314 26.205 45.8739 26.1058C45.9753 25.8695 46.103 25.6174 46.3033 25.4147C47.1049 24.603 47.7168 23.801 47.8878 22.5984C47.8091 22.4359 47.7351 22.2723 47.6631 22.112C47.6533 22.0901 47.6435 22.0683 47.6338 22.0466C47.5615 21.8854 47.491 21.7283 47.4177 21.5747C47.2513 21.2258 47.0773 20.9103 46.8588 20.6448L46.8557 20.6409L46.8557 20.6409C46.213 19.8274 45.4495 19.1015 44.684 18.3736C44.5595 18.2552 44.4349 18.1368 44.3108 18.0179L44.3108 18.0179C43.0768 16.8353 41.3736 16.8331 40.1137 18.0192C39.9765 18.1488 39.8475 18.285 39.713 18.4269C39.6787 18.4631 39.644 18.4997 39.6087 18.5367C39.4382 18.7154 39.2572 18.8992 39.0546 19.0658L39.0522 19.0678L39.0522 19.0678C38.7155 19.3377 38.319 19.4291 37.9717 19.2918C37.6231 19.1541 37.3966 18.8149 37.3402 18.3763C37.3401 18.3757 37.3401 18.3752 37.34 18.3746L37.588 18.343C37.5452 18.0399 37.5537 17.7455 37.5623 17.4494C37.568 17.2514 37.5737 17.0528 37.5642 16.8502L46.8439 40.2059ZM46.8439 40.2059C47.9686 41.4343 47.9689 43.1651 46.8446 44.3937C46.0159 45.2806 45.1399 46.1676 44.264 47.0067C43.6284 47.6047 42.8921 47.895 42.1654 47.895C41.4383 47.895 40.7016 47.6044 40.0659 47.0059L40.0658 47.0057C39.9446 46.8919 39.8317 46.7695 39.7121 46.6399C39.675 46.5998 39.6373 46.559 39.5986 46.5176C39.4403 46.3482 39.2678 46.1724 39.0714 46.0261C38.941 45.924 38.7622 45.8275 38.5864 45.7682C38.4971 45.7381 38.4006 45.7148 38.3055 45.7079C38.2147 45.7014 38.1048 45.7084 38.0028 45.7586C37.8189 45.8445 37.6636 46.0021 37.5506 46.1686C37.4363 46.3369 37.3487 46.5383 37.3177 46.7365C37.2657 47.0161 37.2667 47.3028 37.2727 47.5696C37.2735 47.6091 37.2745 47.6481 37.2755 47.6866C37.2813 47.9179 37.2867 48.1335 37.2676 48.3453L37.2676 48.3453L37.2673 48.3501C37.1568 49.9163 35.9923 51.109 34.439 51.1757C33.1853 51.2236 31.9316 51.2236 30.678 51.1757L30.675 51.1756C28.986 51.1312 27.7986 49.8982 27.7319 48.1415L27.7318 48.1392C27.722 47.9306 27.7248 47.7266 27.7277 47.5145C27.7282 47.4791 27.7287 47.4435 27.7291 47.4076C27.7321 47.1599 27.7323 46.9017 27.7072 46.6348L27.7073 46.6347L27.7063 46.6266C27.6508 46.1914 27.4331 45.8497 27.0885 45.7101C26.7443 45.5707 26.3526 45.6651 26.0179 45.9334L26.0154 45.9354C25.8129 46.102 25.6319 46.2858 25.4613 46.4645C25.4261 46.5015 25.3914 46.5381 25.3571 46.5743C25.2225 46.7163 25.0934 46.8525 24.9563 46.9821C23.6964 48.168 21.9932 48.1658 20.7593 46.9833L20.7591 46.9831C19.9065 46.1678 19.0538 45.3044 18.2486 44.441L18.2468 44.4391C17.0317 43.1641 17.0297 41.4126 18.2483 40.1114L18.25 40.1095C18.3682 39.9807 18.4927 39.86 18.6233 39.7335C18.6568 39.7011 18.6906 39.6683 18.7248 39.6349C18.8895 39.4743 19.0596 39.3026 19.2127 39.1088C19.4977 38.7513 19.6065 38.341 19.4708 37.9805C19.3336 37.6157 18.9791 37.3886 18.5242 37.3328L18.5243 37.3327L18.5167 37.332C18.2412 37.3066 17.9684 37.3069 17.7062 37.3099C17.6681 37.3103 17.6302 37.3108 17.5926 37.3113C17.3685 37.3143 17.153 37.3171 16.9372 37.3072C15.3306 37.2176 14.1509 36.0221 14.1069 34.396L14.1068 34.3934C14.0595 33.1235 14.0595 31.8536 14.1068 30.5837L14.1068 30.5837L14.1069 30.581C14.1509 28.9102 15.3735 27.7148 17.0263 27.6701L17.0263 27.6702L17.0315 27.67C17.2373 27.66 17.4384 27.6629 17.6479 27.6658C17.6829 27.6663 17.7181 27.6668 17.7536 27.6672C17.9982 27.6702 18.2536 27.6705 18.5178 27.645L18.5178 27.6451L18.5242 27.6443C18.9772 27.5887 19.337 27.3634 19.4785 27.003C19.62 26.6425 19.5089 26.2348 19.2089 25.8876C19.0452 25.6841 18.8649 25.502 18.6894 25.3304C18.6529 25.2947 18.6168 25.2596 18.581 25.2248C18.4409 25.0887 18.3065 24.9581 18.1786 24.8193C17.0536 23.5906 17.0537 21.8593 18.1788 20.6307L18.1794 20.6301C19.0058 19.7215 19.8808 18.8593 20.7592 18.0179L20.7593 18.0179C21.3825 17.4207 22.1125 17.1303 22.8393 17.1303C23.5663 17.1303 24.3094 17.4208 24.9575 18.0202C25.0783 18.1339 25.1911 18.256 25.3104 18.3853C25.3475 18.4254 25.3851 18.4662 25.4239 18.5077C25.5822 18.6771 25.7547 18.8529 25.9511 18.9992C26.0817 19.1014 26.261 19.1981 26.4405 19.2575C26.6075 19.3128 26.8406 19.358 27.0378 19.2692L27.0378 19.2693L27.0397 19.2684C27.2287 19.1814 27.3795 19.0196 27.4888 18.8537C27.6 18.6847 27.6834 18.4885 27.7258 18.3023L27.7263 18.3003C27.7804 18.0538 27.7857 17.8011 27.7796 17.5631C27.7769 17.4582 27.7723 17.3614 27.768 17.2677C27.7618 17.1366 27.756 17.0115 27.7559 16.8789L46.8439 40.2059ZM45.7119 22.8523L45.6294 22.9545C45.5789 23.0169 45.5278 23.0844 45.4731 23.1572L45.4571 23.1785C45.4078 23.2441 45.3556 23.3134 45.3015 23.3822C45.1836 23.5323 45.0488 23.6897 44.8902 23.8249C44.1339 24.5673 43.5167 25.2757 43.4733 26.3463C43.4065 28.2005 44.6461 29.6497 46.4326 29.6502C47.0839 29.6442 47.5714 29.6541 47.9289 29.7105C48.2864 29.7668 48.5683 29.8772 48.7457 30.1198C48.9146 30.3506 48.9499 30.6524 48.9574 30.978C48.9613 31.1487 48.9568 31.3565 48.9518 31.5906C48.9474 31.7956 48.9426 32.0207 48.9426 32.2587C48.9485 32.8909 48.9519 33.385 48.9134 33.7633C48.875 34.1406 48.7914 34.4511 48.5841 34.6813C48.3755 34.9131 48.0791 35.0222 47.7183 35.0891C47.3621 35.1551 46.8956 35.1875 46.3054 35.2285L46.2855 35.2299C45.0729 35.3192 44.2255 35.9335 43.7384 37.0539C43.2499 38.2014 43.3604 39.2832 44.1568 40.2912L44.1635 40.2997L44.1694 40.3087C44.2021 40.3583 44.2339 40.3912 44.2812 40.439L44.2903 40.4483L44.29 40.4485L44.3007 40.4604C44.6721 40.8777 44.9648 41.2065 45.1619 41.4832C45.3604 41.762 45.4919 42.0278 45.4857 42.3175C45.4795 42.6079 45.3362 42.8662 45.1254 43.133C44.9166 43.3975 44.6099 43.708 44.2212 44.1016L44.2111 44.1118L44.2099 44.1131L44.1999 44.1233C43.7873 44.547 43.463 44.88 43.1869 45.108C42.9089 45.3375 42.6417 45.4939 42.3409 45.5084C42.0393 45.5229 41.7605 45.3922 41.466 45.1896C41.174 44.9887 40.8265 44.6878 40.3852 44.3056L40.3729 44.2949L40.372 44.2941C39.88 43.8639 39.3586 43.617 38.8207 43.5376C38.2825 43.4582 37.7117 43.5442 37.1179 43.8051L37.1174 43.8053C35.9786 44.3027 35.274 45.2071 35.3173 46.4569L35.3174 46.4593C35.3352 47.1694 35.3244 47.6929 35.2584 48.072C35.192 48.4531 35.0611 48.7401 34.7944 48.9097C34.5458 49.0678 34.2274 49.0887 33.8915 49.0857C33.7484 49.0844 33.5898 49.0781 33.4194 49.0714C33.3829 49.07 33.346 49.0685 33.3085 49.0671C33.0938 49.0588 32.8572 49.0511 32.5945 49.0511C32.3139 49.0511 32.0624 49.0592 31.8355 49.068C31.7884 49.0698 31.7421 49.0717 31.6966 49.0735C31.5253 49.0804 31.3664 49.0868 31.2233 49.0887C30.8739 49.0931 30.5472 49.0744 30.2951 48.9167C30.0225 48.7462 29.8936 48.4546 29.8299 48.0699C29.7665 47.6872 29.7587 47.1569 29.7764 46.4363M45.7119 22.8523L18.7553 29.9243C16.339 29.8825 16.3442 30.0768 16.3873 31.6746C16.3939 31.9164 16.4013 32.1904 16.4013 32.5006C16.4013 32.8248 16.3915 33.1091 16.383 33.3579C16.3319 34.8457 16.3243 35.0665 18.7078 35.0047L18.7121 35.2546C18.7124 35.2546 18.7128 35.2546 18.7131 35.2546C19.3648 35.2436 19.9047 35.4163 20.3412 35.7336C20.7799 36.0524 21.1288 36.5281 21.3768 37.1446C21.6243 37.7595 21.6981 38.3386 21.606 38.8815C21.514 39.424 21.2534 39.9477 20.8045 40.4477L20.8045 40.4477L20.8027 40.4498L20.792 40.462C20.4206 40.885 20.1277 41.2186 19.9314 41.4998C19.7332 41.7836 19.6039 42.0537 19.6142 42.348C19.6245 42.6416 19.7718 42.9041 19.9889 43.1775C20.2043 43.4489 20.5197 43.7682 20.9204 44.174L20.9315 44.1853L20.9431 44.197C21.3435 44.6024 21.6591 44.922 21.9286 45.14C22.2005 45.36 22.4637 45.5092 22.761 45.5176C23.0572 45.5259 23.3311 45.3926 23.6206 45.1894C23.9081 44.9875 24.2507 44.6867 24.6864 44.3044L24.6984 44.2939C25.2027 43.8513 25.7241 43.6048 26.2585 43.5256C26.7934 43.4463 27.3591 43.5319 27.9552 43.7823C28.54 44.033 28.9986 44.3802 29.3083 44.8165C29.6167 45.2509 29.7873 45.7873 29.7764 46.4363M45.7119 22.8523L45.6746 22.7263M45.7119 22.8523L45.6746 22.7263M29.7764 46.4363C29.7765 46.436 29.7765 46.4356 29.7765 46.4353L30.0264 46.4415M29.7764 46.4363C29.7764 46.4366 29.7764 46.4369 29.7764 46.4372L30.0264 46.4415M30.0264 46.4415C29.9659 48.8931 30.2135 48.8831 31.6844 48.8238C31.9471 48.8132 32.2487 48.8011 32.5945 48.8011C32.9094 48.8011 33.1867 48.812 33.4304 48.8216C34.8432 48.8774 35.1283 48.8887 35.0675 46.4655L28.0528 43.5522C29.2893 44.0819 30.0502 45.045 30.0264 46.4415ZM45.6746 22.7263C45.652 22.6501 45.6392 22.5951 45.6267 22.5418C45.62 22.5134 45.6135 22.4855 45.6057 22.4551C45.5872 22.3832 45.5572 22.2782 45.4732 22.1914C45.3771 22.0884 45.2802 21.9831 45.1823 21.8766C44.8759 21.5437 44.5599 21.2002 44.2317 20.8862L44.2238 20.878C43.7992 20.4421 43.4661 20.1003 43.183 19.866C42.8984 19.6304 42.6264 19.4702 42.3215 19.4538C42.015 19.4372 41.732 19.5687 41.433 19.7743C41.1367 19.9779 40.7847 20.2834 40.3376 20.6715L40.3269 20.6808C40.3266 20.6811 40.3263 20.6813 40.326 20.6816C39.834 21.1003 39.324 21.3358 38.8002 21.4123C38.2754 21.489 37.7203 21.4085 37.1357 21.1695C36.5549 20.932 36.1138 20.5921 35.8061 20.1603C35.4982 19.7282 35.3142 19.1905 35.2693 18.5426L35.2693 18.5424L35.2679 18.5223C35.2274 17.9299 35.1954 17.4629 35.1319 17.1066C35.0678 16.7469 34.9642 16.4509 34.743 16.2414C34.5209 16.0309 34.221 15.9459 33.8595 15.9072C33.498 15.8684 33.0264 15.8719 32.4255 15.8779L32.4252 15.8779M45.6746 22.7263L32.4252 15.8779M32.4252 15.8779C32.1621 15.8809 31.9263 15.8764 31.7131 15.8716C31.6863 15.871 31.6597 15.8704 31.6334 15.8698C31.4529 15.8656 31.2864 15.8617 31.1373 15.8632C30.8075 15.8666 30.497 15.8941 30.2576 16.0564C30.0021 16.2297 29.8825 16.5144 29.8237 16.8843C29.7651 17.2531 29.7587 17.7601 29.7764 18.4447C29.7873 19.1085 29.621 19.6637 29.3122 20.1124C29.0025 20.5624 28.5392 20.92 27.9337 21.1698L27.9321 21.1704M32.4252 15.8779L27.9321 21.1704M27.9321 21.1704C26.7604 21.6629 25.6491 21.4872 24.6745 20.6349L27.9321 21.1704ZM20.8262 24.5271C21.6878 25.5114 21.8426 26.6376 21.354 27.8303L24.6743 20.6348L24.6626 20.6246C24.2327 20.2481 23.8947 19.952 23.6114 19.7528C23.3265 19.5525 23.0568 19.4201 22.7656 19.4264C22.4724 19.4327 22.214 19.5781 21.9486 19.7921C21.686 20.0038 21.3792 20.3145 20.9907 20.7078L20.9791 20.7196L20.9791 20.7196L20.9779 20.7208L20.9669 20.732C20.5601 21.1499 20.2404 21.4782 20.0218 21.7566C19.8017 22.037 19.6532 22.3039 19.641 22.6005C19.6287 22.8986 19.7563 23.1724 19.9544 23.461C20.1504 23.7465 20.4432 24.0847 20.8146 24.5137L20.8253 24.526L20.8262 24.5271Z" fill="#2776EA" stroke="white" stroke-width="0.5"/>
<path d="M39.6748 57.2907L39.2415 57.8392L39.9243 57.69C43.2702 56.9588 46.2055 55.472 48.8004 53.4041C54.4857 48.9104 57.8947 43.0513 59.0219 35.8387L59.0222 35.8369C59.1156 35.2104 59.2615 34.8396 59.4475 34.6348C59.6153 34.45 59.8461 34.369 60.2213 34.4112L60.222 34.4113C60.5982 34.4525 60.8218 34.6024 60.9476 34.8507C61.0843 35.1203 61.1289 35.5499 61.0249 36.1933C59.4674 45.6791 54.5656 52.8122 46.3105 57.4931L46.31 57.4934C44.8966 58.2995 43.3807 58.9084 41.8197 59.5355C41.1128 59.8195 40.3967 60.1072 39.6766 60.4186L39.3118 60.5763L39.612 60.8368C39.8065 61.0056 40.0075 61.181 40.2131 61.3603C40.7089 61.7928 41.2314 62.2486 41.7531 62.6917C42.07 62.967 42.2699 63.2333 42.3402 63.4965C42.4063 63.7443 42.3679 64.0292 42.1177 64.3778C41.923 64.6436 41.6878 64.7545 41.4298 64.7501C41.1588 64.7454 40.826 64.6121 40.4597 64.3089C40.4593 64.3086 40.4589 64.3083 40.4585 64.3079L36.0405 60.5559C36.0401 60.5556 36.0397 60.5552 36.0393 60.5549C35.6307 60.1984 35.456 59.9036 35.4295 59.6307C35.403 59.3586 35.5172 59.038 35.8573 58.6132L35.8574 58.6131C36.6642 57.604 37.4905 56.6181 38.319 55.6296C38.7342 55.1341 39.15 54.638 39.5642 54.138L39.5658 54.1361C39.8184 53.8246 40.0804 53.649 40.3286 53.601C40.565 53.5553 40.834 53.6168 41.1333 53.878C41.4328 54.1394 41.5321 54.396 41.5234 54.6408C41.5143 54.8982 41.3842 55.1891 41.1297 55.5035C40.6277 56.0847 40.1501 56.6892 39.6764 57.2887L39.6748 57.2907Z" fill="#2776EA" stroke="white" stroke-width="0.5"/>
<path d="M58.151 25.8073L58.6587 26.099L58.5183 25.5306C58.4652 25.3156 58.4208 25.1141 58.3788 24.9235C58.2954 24.5447 58.2213 24.2088 58.1072 23.8944C54.7512 14.0176 48.0993 7.81563 38.0515 5.38734C37.3179 5.2076 36.8732 5.02017 36.629 4.80037C36.5129 4.69594 36.445 4.58643 36.4106 4.465C36.3753 4.3407 36.3705 4.18743 36.4073 3.99076L36.4075 3.98959C36.478 3.6022 36.6544 3.38693 36.9486 3.2839C37.2727 3.17041 37.7777 3.17925 38.5256 3.36856L38.5256 3.36857L38.5273 3.36898C49.8035 6.13988 57.0833 13.1742 60.4121 24.4521C60.4436 24.5785 60.4862 24.7102 60.5477 24.9002C60.5836 25.0112 60.626 25.1422 60.6764 25.3038L60.8444 25.8427L61.1305 25.356C61.463 24.7905 61.7582 24.2645 62.0358 23.77C62.2489 23.3902 62.4517 23.0289 62.6529 22.6826C62.9112 22.2391 63.1914 21.9747 63.4578 21.8591C63.7119 21.7488 63.9783 21.7624 64.2591 21.929L64.2623 21.9309C64.5601 22.1018 64.7084 22.3265 64.742 22.5967C64.7774 22.8807 64.6903 23.2525 64.4309 23.7094L64.43 23.711C63.5025 25.3725 62.5758 27.0327 61.6254 28.6927L61.6247 28.694C61.3506 29.1797 61.0967 29.4032 60.8453 29.4729C60.5956 29.542 60.2722 29.4801 59.806 29.2038L59.8027 29.2019C58.1618 28.2627 56.5223 27.3244 54.8829 26.3621C54.4901 26.1299 54.2579 25.8569 54.1583 25.5903C54.0608 25.3294 54.0808 25.0511 54.237 24.7744C54.3931 24.4976 54.6093 24.3506 54.8703 24.3119C55.142 24.2716 55.4956 24.3441 55.9183 24.5807L55.9183 24.5808L55.9244 24.584C56.6114 24.9438 57.2743 25.3034 58.151 25.8073Z" fill="#2776EA" stroke="white" stroke-width="0.5"/>
<path d="M24.1765 3.88783L24.7703 3.64288L24.1672 3.42198C23.8105 3.29136 23.4768 3.17094 23.1601 3.05667C22.4794 2.81103 21.8773 2.59379 21.2956 2.3647L21.2956 2.36468L21.2927 2.3636C20.8489 2.19508 20.5742 1.97221 20.4406 1.73661C20.3127 1.51108 20.2944 1.23961 20.4348 0.914743L20.4355 0.913026C20.5924 0.54242 20.8 0.364641 21.0271 0.292359C21.2655 0.216512 21.5728 0.241429 21.951 0.37644C22.6226 0.623721 23.2957 0.867156 23.9688 1.11061C25.136 1.53278 26.3035 1.95502 27.4638 2.39751L27.4647 2.39787C27.9542 2.58228 28.2082 2.78656 28.321 3.01715C28.4327 3.24553 28.4372 3.56462 28.2676 4.05685L28.2674 4.05741C27.6263 5.93282 26.9614 7.78445 26.2725 9.63643C26.1303 10.0127 25.9347 10.2618 25.7113 10.3887C25.497 10.5105 25.221 10.5405 24.8624 10.4066C24.5368 10.2718 24.3597 10.0784 24.2811 9.85721C24.1996 9.62813 24.2097 9.32942 24.3402 8.96605L24.341 8.96383C24.514 8.46755 24.6873 7.96166 24.8762 7.41007C24.999 7.05144 25.1284 6.67349 25.2687 6.26629L25.4256 5.81084L24.9628 5.94471C24.7805 5.99747 24.62 6.03644 24.4672 6.07355C24.4157 6.08604 24.3652 6.09831 24.315 6.11083C24.1208 6.15923 23.9332 6.21093 23.7483 6.29067C14.0896 10.0537 8.18301 17.032 6.16887 27.3464C6.1514 27.4262 6.13792 27.4966 6.12534 27.5623C6.09971 27.6962 6.07783 27.8105 6.03355 27.945L6.03058 27.954L6.02831 27.9632C5.9426 28.3104 5.79496 28.54 5.61257 28.6728C5.43411 28.8029 5.19085 28.8633 4.8627 28.812C4.52409 28.7491 4.29803 28.5986 4.16773 28.4085C4.03706 28.2179 3.98243 27.9579 4.0434 27.6378C4.09612 27.3746 4.14752 27.1117 4.1988 26.8494C4.47337 25.4449 4.74476 24.0568 5.19959 22.7352L5.19977 22.7347C8.21945 13.8962 14.0867 7.83576 22.698 4.46741L22.6985 4.4672C22.8384 4.4121 22.978 4.3588 23.1257 4.30237C23.4205 4.18973 23.7479 4.06463 24.1765 3.88783Z" fill="#2776EA" stroke="white" stroke-width="0.5"/>
<path d="M4.21185 37.8931L4.36831 38.342C4.46175 38.61 4.52876 38.8291 4.58206 39.0034C4.60943 39.0929 4.63319 39.1705 4.65505 39.2369L4.65785 39.2455L4.6577 39.2455C7.79679 50.0717 14.7005 57.0368 25.4119 60.1186L25.4122 60.1187C26.1485 60.3317 26.6467 60.3561 26.9716 60.2505C27.2669 60.1546 27.4557 59.9384 27.5481 59.5332C27.5888 59.3526 27.5865 59.2077 27.5529 59.0864C27.5196 58.9666 27.4511 58.8529 27.3323 58.7411C27.0848 58.5082 26.6362 58.2984 25.9172 58.0955C16.9466 55.5938 10.7989 49.9268 7.41831 41.187L7.4182 41.1868C7.14013 40.4653 6.92313 39.7007 6.70939 38.9476C6.62713 38.6578 6.54536 38.3697 6.46078 38.0865L6.31192 37.5879L6.79418 37.7832C7.77742 38.1815 8.53666 38.7284 9.25101 39.2589C9.59129 39.5115 9.89151 39.6451 10.1578 39.6521C10.4075 39.6587 10.6725 39.5548 10.9559 39.2261C11.1563 38.9836 11.2108 38.7222 11.1452 38.4611C11.0772 38.1902 10.8719 37.8917 10.4983 37.6135L10.4969 37.6125C8.9998 36.4816 7.4798 35.3513 5.93652 34.2454L4.21185 37.8931ZM4.21185 37.8931L3.93067 38.2764C3.70249 38.5874 3.49116 38.8778 3.28916 39.1554C2.94164 39.633 2.62179 40.0726 2.29145 40.5136L2.29135 40.5137C2.01702 40.8804 1.71602 41.0901 1.44138 41.162C1.17684 41.2313 0.916439 41.1793 0.681081 40.9797M4.21185 37.8931L0.681081 40.9797M0.681081 40.9797C0.376097 40.713 0.25939 40.4551 0.250555 40.209C0.2414 39.9541 0.346219 39.6652 0.578262 39.3406C0.987633 38.7738 1.39001 38.2086 1.79108 37.6453C2.53548 36.5997 3.27537 35.5604 4.04708 34.529L4.04708 34.529L4.0484 34.5272C4.38343 34.071 4.64695 33.8822 4.89565 33.8438C5.1454 33.8052 5.46194 33.9055 5.93647 34.2454L0.681081 40.9797Z" fill="#2776EA" stroke="white" stroke-width="0.5"/>
<path d="M32.5492 39.8684C28.5782 39.8925 25.2492 36.5457 25.2492 32.5007L32.5492 25.1329C36.4726 25.1089 39.7541 28.4075 39.8016 32.4284C39.8492 36.4494 36.544 39.8202 32.5492 39.8684ZM32.5469 39.6184C28.7182 39.6412 25.4992 36.4101 25.4992 32.5007L25.4991 32.4992C25.4762 28.6164 28.6935 25.3829 32.5492 25.3829L32.5507 25.3829C36.3311 25.3597 39.5057 28.5424 39.5517 32.4314C39.5976 36.314 36.4034 39.5715 32.5469 39.6184ZM27.591 32.4021L27.591 32.4021C27.5661 35.2327 29.7183 37.4699 32.5254 37.4699C35.2545 37.4699 37.4585 35.2885 37.4835 32.5511H37.4836V32.5488C37.4836 29.7212 35.3337 27.4833 32.5492 27.4833C29.82 27.4833 27.6161 29.6646 27.591 32.4021Z" fill="#2776EA" stroke="white" stroke-width="0.5"/>
</svg>
