<svg width="85" height="49" viewBox="0 0 85 49" fill="none" xmlns="http://www.w3.org/2000/svg">
<path d="M42.1132 10.9789C42.3495 10.2138 42.4676 9.50751 42.7038 8.8601C44.4167 4.32824 47.547 1.26776 52.2721 0.326069C57.7649 -0.792184 62.3128 0.973479 65.6794 5.50535C66.0928 6.0939 65.9156 6.03505 66.6835 5.85848C71.881 4.62251 76.7242 7.80071 77.6692 13.1566C77.7873 13.8628 78.0236 14.1571 78.6733 14.4514C82.158 15.9228 84.1071 18.689 84.6977 22.338C85.5836 27.9293 82.0399 32.2846 77.0786 33.6382C75.8973 33.9325 74.716 34.1091 73.5348 34.1091C71.9991 34.1091 70.4635 34.1091 68.9279 34.1091C68.6916 34.1091 68.5144 34.1679 68.2191 34.1679C68.2782 34.4034 68.3372 34.5799 68.3963 34.7565C69.2822 37.1107 69.4594 39.5238 68.5144 41.9368C67.4513 44.7619 65.4431 46.6453 62.7262 47.8224C61.1906 48.4698 59.5959 48.7641 57.9421 48.7641C48.6102 48.7641 39.2782 48.7641 29.9462 48.7641C24.6305 48.7641 19.9646 44.9385 18.9014 39.7003C18.7242 38.4644 18.7242 37.2284 18.9014 35.9336C18.9605 35.345 18.9014 35.2862 18.3108 35.2862C16.0664 35.2862 13.8811 35.2862 11.6367 35.2862C7.14786 35.2273 3.7222 33.2851 1.53687 29.4006C-0.589401 25.6928 -0.471275 21.8672 1.655 18.1593C2.89532 16.0405 4.72628 14.5102 7.02974 13.5685C7.38412 13.392 7.56131 13.2154 7.62037 12.8034C8.27006 7.21215 12.4045 2.62143 17.8973 1.44432C22.9768 0.326069 28.1743 2.20944 31.3637 6.68245C31.6 7.03559 31.7772 7.09444 32.2497 6.97673C35.7344 6.21161 38.7466 7.03559 41.2273 9.74294C41.5226 10.0961 41.7588 10.5669 42.1132 10.9789ZM44.0623 48.0578C48.433 48.0578 52.8627 48.0578 57.2334 48.0578C57.8831 48.0578 58.5328 48.0578 59.1824 47.999C61.4859 47.7635 63.5531 46.9984 65.325 45.4682C69.4004 41.9957 69.5185 35.9925 65.9156 32.0491C64.8525 30.8132 63.5531 29.9303 61.9584 29.4595C61.6631 29.3418 61.4859 29.2241 61.4859 28.8709C61.4859 28.5178 61.4268 28.1647 61.3678 27.8704C60.4228 22.6911 55.6387 19.8072 50.6183 21.3375C50.2049 21.4552 50.0867 21.3375 49.8505 21.0432C47.0745 16.9233 43.2354 14.9811 38.3332 15.3931C32.4269 15.8639 27.6428 20.7489 27.1112 26.6933C26.9931 27.223 26.8159 27.4584 26.4024 27.635C21.6774 29.4595 19.0195 33.9325 19.6102 38.8764C20.2599 43.9968 24.8077 48.0578 30.0643 48.0578C34.7303 48.0578 39.3963 48.0578 44.0623 48.0578ZM71.5266 33.4028C71.5266 33.4617 71.5266 33.4617 71.5266 33.4028C72.2944 33.4028 73.0623 33.4028 73.8301 33.4028C75.8973 33.4028 77.7873 32.8731 79.5592 31.8726C82.6896 30.0481 84.6977 26.811 84.1661 22.9265C83.6346 18.9832 81.5083 16.1582 77.6101 14.8634C77.3148 14.7456 77.1967 14.6279 77.1967 14.3337C77.1376 13.804 77.0786 13.3331 76.9604 12.8623C75.8382 8.03613 71.2904 5.38764 66.6244 6.68245C65.8566 6.91788 65.8566 6.91788 65.4431 6.27047C62.6081 2.03288 57.824 0.0906474 52.9218 0.973479C47.547 1.91517 43.4126 6.44703 42.7629 11.8029C42.7629 12.0383 42.7629 12.2737 42.822 12.5091C42.9992 13.2743 43.1763 14.0394 43.3535 14.8045C43.4126 15.0988 43.5307 15.2753 43.826 15.3931C46.3658 16.3347 48.433 17.9238 50.0277 20.1015C50.4411 20.69 50.2639 20.6312 51.0317 20.5135C54.2802 19.8072 57.1743 20.5135 59.5368 22.9265C61.0134 24.3979 61.7812 26.2813 62.0765 28.3412C62.1356 28.6355 62.2537 28.8121 62.549 28.9298C64.7344 29.6949 66.3881 31.1075 67.5694 33.0497C67.7466 33.344 67.9828 33.4617 68.3372 33.4617C69.4004 33.4028 70.4635 33.4028 71.5266 33.4028ZM15.0033 34.4622V34.5211C16.1845 34.5211 17.3658 34.5211 18.6061 34.5211C19.1967 34.5211 19.1967 34.5211 19.3739 33.9914C20.4371 30.872 22.4452 28.5767 25.4574 27.2819C26.1071 26.9876 26.2843 26.5756 26.4024 25.9282C27.3474 20.8666 30.1234 17.2764 35.0256 15.3931C37.27 14.5102 39.6326 14.4514 42.0541 14.8634C42.5857 14.9811 42.7038 14.9222 42.5857 14.4514C41.5816 8.91896 36.6794 6.38818 31.9544 7.80071C31.3637 7.97727 31.3637 7.97727 31.0094 7.44758C28.5878 3.91625 25.3393 1.91517 21.0277 1.85631C15.9483 1.7386 12.2273 4.09282 9.74664 8.44812C8.86069 9.97836 8.44725 11.6852 8.27006 13.4508C8.27006 13.7451 8.09287 13.9217 7.85662 14.0394C7.38412 14.2159 6.97067 14.3925 6.49817 14.5691C2.7772 16.4525 0.414672 20.7489 0.828113 24.8688C1.12343 27.5761 2.18656 29.8126 4.13565 31.6372C5.9666 33.344 8.09287 34.3445 10.6326 34.4622C12.1092 34.5211 13.5267 34.4622 15.0033 34.4622Z" fill="#2776EA"/>
<path d="M42.7035 40.8193C41.8176 40.8193 40.9907 40.8193 40.1047 40.8193C39.6322 40.8193 39.2778 40.6428 39.0416 40.2308C38.1556 38.7594 37.3288 37.2291 36.4428 35.7578C36.2066 35.3458 36.2066 34.9926 36.4428 34.5806C37.3288 33.0504 38.1556 31.5202 39.0416 30.0488C39.2778 29.6368 39.6322 29.4014 40.1047 29.4014C41.8176 29.4014 43.5304 29.4014 45.2432 29.4014C45.7157 29.4014 46.0701 29.5779 46.3064 30.0488C47.1332 31.5202 47.9601 32.9915 48.8461 34.4629C49.1414 34.9338 49.1414 35.3458 48.8461 35.8755C48.0192 37.288 47.1923 38.7594 46.3654 40.2308C46.1292 40.6428 45.7748 40.8782 45.2432 40.8782C44.3573 40.8782 43.5304 40.8782 42.7035 40.8193C42.7035 40.8782 42.7035 40.8782 42.7035 40.8193ZM42.7035 38.524C43.2351 38.524 43.7666 38.524 44.2982 38.524C44.4754 38.524 44.7707 38.4062 44.8298 38.2297C45.3613 37.3468 45.8929 36.4052 46.4245 35.4635C46.4835 35.2869 46.4835 35.0515 46.4245 34.8749C45.8929 33.8744 45.3023 32.9327 44.7707 32.0499C44.7116 31.8733 44.4754 31.7556 44.2982 31.7556C43.176 31.7556 42.1129 31.7556 40.9907 31.7556C40.8135 31.7556 40.5772 31.9322 40.5182 32.0499C39.9866 32.9327 39.455 33.8744 38.9235 34.7572C38.8053 34.9926 38.7463 35.2281 38.9235 35.4635C39.455 36.3463 39.9275 37.2291 40.4591 38.112C40.5772 38.3474 40.8135 38.4651 41.1088 38.4651C41.6404 38.4651 42.1719 38.524 42.7035 38.524Z" fill="#2776EA"/>
<path d="M58.8867 20.1013C60.7177 19.7482 62.5486 19.4539 64.4977 19.1008C64.2024 18.7476 63.9071 18.3945 63.6708 18.1002C63.0211 17.3351 62.3714 16.57 61.7217 15.746C61.6036 15.6283 61.4855 15.334 61.5446 15.2163C62.0171 13.8626 62.4896 12.5089 63.0802 11.1553C64.9112 14.098 66.624 17.0997 68.3959 20.1602C65.1474 20.1602 62.0171 20.1602 58.8867 20.1602V20.1013Z" fill="#2776EA"/>
<path d="M62.5491 10.6262C62.4309 10.8617 62.3128 11.0971 62.1947 11.3914C61.0725 13.8044 59.9503 16.2175 58.8281 18.6894C58.71 18.9837 58.4737 19.1603 58.0603 19.1014C57.2924 19.0426 56.5246 19.1014 55.6387 19.1014C55.8159 18.866 55.8749 18.6306 55.993 18.454C56.879 16.9238 57.7649 15.3347 58.7099 13.8044C58.769 13.6279 58.8871 13.5102 59.0643 13.3336C60.1275 12.3919 61.2497 11.5091 62.3128 10.6262C62.3719 10.5674 62.4309 10.5674 62.49 10.5674C62.49 10.5674 62.5491 10.5674 62.5491 10.6262Z" fill="#2776EA"/>
<path d="M21.5598 15.7462C21.737 15.0399 21.9142 14.3336 22.0914 13.6274C22.2095 13.0977 22.3277 13.0388 22.9774 13.2154C22.9774 13.3331 22.9183 13.5096 22.9183 13.6274C22.623 14.569 22.3277 15.5107 22.0323 16.5113C21.9142 16.8055 21.7961 16.9233 21.5008 16.9233C21.1464 16.9233 21.0283 16.7467 20.9692 16.4524C20.792 15.7461 20.6739 15.0987 20.3786 14.3925C20.2605 14.6279 20.2014 14.8633 20.1423 15.0987C20.0242 15.5696 19.9061 16.0993 19.7879 16.5701C19.7289 16.8055 19.6108 16.9233 19.3745 16.9233C19.1383 16.9233 18.902 16.9233 18.8429 16.6878C18.4886 15.5696 18.1342 14.4513 17.8389 13.3331C17.8389 13.2742 17.8389 13.2154 17.8389 13.2154C18.4886 13.0388 18.5476 13.0977 18.7248 13.7451C18.902 14.3925 19.0792 15.0399 19.3154 15.7462C19.4336 15.1576 19.6108 14.569 19.7289 13.9805C19.7879 13.8628 19.7879 13.6862 19.847 13.5685C19.9061 13.2154 20.0833 13.0977 20.3786 13.0977C20.6739 13.0977 20.8511 13.1565 20.9101 13.4508C21.0283 14.0393 21.2055 14.6279 21.3236 15.2165C21.3827 15.393 21.4417 15.5696 21.4417 15.6873C21.5008 15.7462 21.5008 15.7462 21.5598 15.7462Z" fill="#2776EA"/>
<path d="M13.999 17.9824C14.1762 18.1001 14.2943 18.1001 14.4715 18.2178C17.779 19.8658 21.2047 20.1012 24.6894 18.8653C24.9257 18.8064 25.1619 18.5121 25.3391 18.8653C25.3982 18.9241 25.1028 19.2772 24.8666 19.395C21.8544 20.984 18.7831 21.1018 15.7118 19.5127C15.1212 19.2184 14.6487 18.8064 14.1171 18.3944C13.999 18.3356 13.9399 18.2178 13.8809 18.1001C13.9399 18.1001 13.9399 18.0413 13.999 17.9824Z" fill="#2776EA"/>
<path d="M16.8343 16.6295C16.4208 16.7472 16.0664 16.9238 15.7121 16.9826C15.1214 17.1003 14.5899 16.8061 14.4127 16.2764C14.2355 15.6878 14.4717 15.0404 15.0033 14.805C15.3577 14.6284 15.7711 14.6284 16.1255 14.6284C16.3027 14.6284 16.4208 14.6284 16.598 14.6873C16.7752 13.981 16.598 13.7456 15.9483 13.7456C15.5349 13.7456 15.1214 13.8633 14.767 13.9222C14.5308 13.5102 14.5899 13.3336 14.8852 13.2159C15.4167 12.9805 16.0074 12.9216 16.5389 13.0393C17.1296 13.157 17.4249 13.569 17.4839 14.1576C17.4839 14.6284 17.4839 15.0993 17.4839 15.5113C17.4839 15.7467 17.543 15.9821 17.6021 16.2175C17.7202 16.5118 17.6611 16.6884 17.4249 16.8649C17.1886 16.9826 17.0114 16.8649 16.8933 16.6884C16.8343 16.6884 16.8343 16.6295 16.8343 16.6295ZM16.0074 15.217C15.4758 15.217 15.1805 15.4524 15.1805 15.8644C15.1805 16.2175 15.3577 16.3941 15.7121 16.3941C16.2436 16.3941 16.6571 16.0998 16.598 15.629C16.6571 15.2758 16.4799 15.217 16.0074 15.217Z" fill="#2776EA"/>
<path d="M23.3311 16.1587C23.5083 16.2175 23.6855 16.2764 23.9217 16.2764C24.2171 16.2764 24.5714 16.3352 24.8668 16.2764C25.0439 16.2764 25.2211 16.041 25.2211 15.9232C25.2211 15.8055 25.0439 15.5701 24.9258 15.5113C24.6896 15.3347 24.3943 15.2758 24.158 15.217C23.5674 14.9816 23.213 14.5107 23.2721 13.981C23.3311 13.4513 23.8627 13.0393 24.4533 12.9805C24.7486 12.9805 25.103 13.0393 25.3983 13.0393C25.7527 13.0982 25.9299 13.3336 25.8118 13.8044C25.6346 13.8044 25.5164 13.7456 25.3393 13.7456C25.103 13.6867 24.8077 13.6279 24.5124 13.6867C24.3352 13.6867 24.0989 13.9222 24.0989 14.0399C24.0989 14.1576 24.2761 14.393 24.4533 14.5107C24.7486 14.6873 25.0439 14.7461 25.3983 14.8638C25.6936 14.9816 25.989 15.217 26.048 15.629C26.1661 16.1587 25.9299 16.6295 25.3983 16.8649C24.8077 17.1592 24.158 17.1003 23.5083 16.8649C23.213 16.7472 23.1539 16.4529 23.3311 16.1587Z" fill="#2776EA"/>
<path d="M24.2178 18.1002C24.454 17.9825 24.6903 17.8059 24.9265 17.8059C25.34 17.7471 25.7534 17.7471 26.1669 17.7471C26.285 17.7471 26.5212 17.9236 26.5803 18.0413C26.7575 18.571 26.1669 19.7482 25.5762 20.0424C25.6353 19.7482 25.6944 19.5716 25.7534 19.395C26.1078 18.3945 25.9897 18.2768 24.9856 18.2768C24.7493 18.2768 24.5131 18.2768 24.3359 18.2768C24.2768 18.2179 24.2768 18.1591 24.2178 18.1002Z" fill="#2776EA"/>
</svg>
