<svg width="61" height="61" viewBox="0 0 61 61" fill="none" xmlns="http://www.w3.org/2000/svg">
<path d="M36.36 0.181641C37.3829 0.327595 38.4545 0.424897 39.4775 0.668154C44.0076 1.73848 47.6122 4.17105 50.2426 7.96585C52.0449 10.4957 53.1166 13.3661 53.3601 16.4798C53.4088 17.1123 53.6524 17.5015 54.2856 17.7448C58.5235 19.3989 61.0565 23.7289 60.7155 28.1561C60.3258 32.8267 56.5751 36.8161 52.0449 37.4485C51.363 37.5458 50.681 37.5458 49.9991 37.5945C49.3658 37.5945 48.9274 37.2053 48.9761 36.6701C48.9761 36.135 49.4145 35.6971 50.0478 35.7457C51.2656 35.7944 52.3859 35.5511 53.555 35.1619C56.3315 34.1889 58.5722 31.1239 58.8645 28.2048C59.2542 24.1667 56.4776 20.1287 52.5808 19.2043C52.0449 19.0583 51.704 18.7664 51.6552 18.0853C51.5578 14.9716 50.7297 12.0526 48.9761 9.47404C46.2483 5.48463 42.4976 3.05207 37.6752 2.37095C33.0963 1.73848 29.0533 2.90611 25.4 5.67924C23.8412 6.89552 22.5747 8.35506 21.5518 10.0579C20.8211 11.0309 20.675 11.1282 19.4572 10.6903C16.0475 9.52269 11.907 11.566 11.1763 15.5555C11.0302 16.3339 10.6405 16.6258 10.0073 16.8204C6.88977 17.5988 4.69777 19.4476 3.43129 22.3666C1.87253 25.9182 2.70062 30.1995 5.52586 32.924C7.42559 34.7727 9.71501 35.6484 12.3454 35.6971C13.3196 35.6971 14.2451 35.6971 15.2194 35.6971C15.9987 35.6971 16.3884 36.0377 16.3884 36.8161C16.3884 41.0001 16.3884 45.1841 16.3884 49.4168C16.3884 50.2925 16.0475 50.5844 15.1707 50.5844C14.44 50.5844 13.7093 50.5844 12.9299 50.5844C12.589 50.5844 12.4428 50.633 12.2967 51.0223C11.6635 52.7737 9.95857 53.8927 8.20497 53.7954C6.30524 53.6981 4.60035 52.2385 4.30808 50.2925C3.96711 48.2491 5.28231 46.2544 7.32817 45.6706C9.27662 45.1354 11.4686 46.1571 12.1993 48.1032C12.3941 48.541 12.6377 48.7356 13.1735 48.687C13.5632 48.6383 14.0016 48.687 14.44 48.687C14.44 44.9895 14.44 41.3406 14.44 37.5458C13.5632 37.5458 12.6864 37.5458 11.8096 37.5458C8.7895 37.4485 6.20782 36.2809 4.06453 34.1889C1.7264 31.805 0.654753 28.8859 0.752176 25.5776C0.898309 20.8584 4.25937 16.4798 8.7895 15.1662C9.13048 15.0203 9.37403 14.8743 9.47146 14.4365C10.5431 10.6903 13.9529 8.25776 17.8011 8.50101C18.483 8.54967 19.165 8.69562 19.8956 8.79292C21.0647 6.94417 22.526 5.29003 24.3283 3.92779C26.7639 2.07904 29.443 0.91141 32.4144 0.424897C32.9502 0.327595 33.5347 0.278943 34.0705 0.181641C34.8986 0.181641 35.6293 0.181641 36.36 0.181641ZM10.5918 49.66C10.6405 48.4437 9.6663 47.3734 8.44853 47.3734C7.23075 47.3734 6.20782 48.3464 6.15911 49.5627C6.11039 50.7304 7.13333 51.8007 8.30239 51.8493C9.61759 51.8493 10.5918 50.925 10.5918 49.66Z" fill="#2776EA"/>
<path d="M24.621 37.5945C22.9161 37.5945 21.3086 37.5945 19.6525 37.5945C19.3602 37.5945 19.0192 37.5458 18.7757 37.4485C18.3373 37.2053 18.2398 36.7674 18.3373 36.3296C18.4834 35.843 18.8731 35.6484 19.3602 35.6484C20.7241 35.6484 22.1367 35.6484 23.5006 35.6484C24.1339 35.6484 24.7671 35.6484 25.4491 35.6484C26.131 35.6484 26.472 35.9403 26.5694 36.6701C26.6181 36.8647 26.5694 37.0593 26.5694 37.2539C26.5694 41.9731 26.5694 46.6436 26.5694 51.3628C26.5694 51.8007 26.6668 51.9953 27.1052 52.1899C28.7614 52.871 29.6869 54.1359 29.7356 55.8874C29.7844 57.5902 29.005 58.9524 27.4462 59.6822C25.8875 60.412 24.3774 60.3146 23.0135 59.1957C21.8445 58.2226 21.3086 56.9577 21.5035 55.4982C21.6983 53.844 22.6238 52.725 24.1826 52.1412C24.4748 52.0439 24.621 51.898 24.621 51.5574C24.621 47.0328 24.621 42.4596 24.621 37.9351C24.6697 37.8377 24.621 37.7404 24.621 37.5945ZM27.8846 55.9847C27.8846 54.7684 26.8617 53.7954 25.6439 53.7954C24.4261 53.7954 23.4032 54.8171 23.4519 56.0333C23.4519 57.2496 24.5236 58.2713 25.6926 58.2713C26.8617 58.2226 27.8846 57.201 27.8846 55.9847Z" fill="#2776EA"/>
<path d="M34.8015 37.5948C33.2915 37.5948 31.8301 37.5948 30.3688 37.5948C30.0765 37.5948 29.7356 37.5948 29.4433 37.5462C28.9075 37.4975 28.5665 37.1569 28.5178 36.6704C28.4691 36.1839 28.8588 35.7461 29.3946 35.6974C29.5894 35.6488 29.7843 35.6974 29.9791 35.6974C31.7814 35.6974 33.6324 35.6974 35.4348 35.6974C36.5064 35.6974 36.8474 36.038 36.8474 37.1083C36.8474 41.8761 36.8474 46.6439 36.8474 51.4118C36.8474 51.8496 36.9935 52.0929 37.4319 52.2388C38.9907 52.8227 40.0623 54.3795 40.0623 56.0337C40.0623 57.7364 38.9419 59.3419 37.3832 59.9258C35.7757 60.5096 33.9734 60.0717 32.9018 58.8554C30.8559 56.5688 31.7327 53.2119 34.558 52.1415C34.7041 52.0929 34.9476 51.8496 34.9476 51.7037C34.9476 47.1305 34.9476 42.5572 34.9476 37.9354C34.8989 37.7894 34.8502 37.6921 34.8015 37.5948ZM33.6324 55.985C33.6324 57.2013 34.6554 58.223 35.8244 58.223C37.0422 58.223 38.0652 57.2013 38.0652 55.985C38.0652 54.7687 37.0909 53.7957 35.8244 53.7957C34.6067 53.7957 33.6324 54.7687 33.6324 55.985Z" fill="#2776EA"/>
<path d="M47.0277 48.6383C47.2226 48.6383 47.3687 48.6383 47.4661 48.6383C48.4403 48.7356 49.1223 48.6383 49.5607 47.4707C50.1452 45.9625 52.0937 45.2327 53.7498 45.476C55.5034 45.7679 56.8186 47.1301 57.1596 48.9302C57.4519 50.5357 56.6238 52.2385 55.2112 53.0656C52.873 54.4278 50.0965 53.4548 49.171 50.9249C49.0249 50.5357 48.83 50.4871 48.489 50.4871C47.7584 50.4871 47.0277 50.4871 46.2483 50.4871C45.4203 50.4871 45.0793 50.1952 45.0793 49.3195C45.0793 48.2491 45.0793 47.1301 45.0793 46.0598C45.0793 43.4813 45.0793 40.8541 45.0793 38.2756C45.0793 38.0324 45.0793 37.8377 45.0793 37.4972C43.9589 37.4972 42.936 37.4972 41.8643 37.4972C41.1337 37.4972 40.403 37.4972 39.6236 37.4972C39.0391 37.4972 38.6981 37.108 38.6494 36.6215C38.6494 36.135 39.0391 35.6484 39.6236 35.6484C41.7669 35.6484 43.8615 35.6484 46.0048 35.6484C46.638 35.6484 46.979 36.0863 46.979 36.8161C46.979 38.227 46.979 39.6865 46.979 41.0974C46.979 43.384 46.979 45.6706 46.979 47.9572C47.0277 48.1518 47.0277 48.3951 47.0277 48.6383ZM53.0679 51.8007C54.2857 51.8007 55.3086 50.8276 55.3086 49.6114C55.3573 48.4437 54.2857 47.3734 53.0679 47.3734C51.8501 47.3734 50.8272 48.3951 50.8272 49.6114C50.8759 50.8276 51.8501 51.8007 53.0679 51.8007Z" fill="#2776EA"/>
<path d="M36.0186 5.33869C39.7206 5.5333 42.8381 7.09014 45.2737 9.86326C45.7608 10.3984 45.7608 10.8849 45.3224 11.3228C44.9327 11.712 44.2995 11.6634 43.8611 11.1282C42.9356 10.1065 41.9126 9.23079 40.6949 8.54968C39.0874 7.67395 37.3825 7.23609 35.5802 7.18744C34.8982 7.18744 34.4111 6.74958 34.4111 6.21441C34.4111 5.6306 34.8982 5.29004 35.6776 5.29004C35.775 5.33869 35.8725 5.33869 36.0186 5.33869Z" fill="#2776EA"/>
<path d="M48.4893 17.5489C48.4893 17.7435 48.4893 17.9885 48.4893 18.1831C48.4406 18.767 48.0022 19.1562 47.4664 19.1562C46.9793 19.1562 46.5409 18.767 46.4921 18.1831C46.4434 17.7939 46.4921 17.3561 46.3947 16.9669C46.1999 16.0425 45.9076 15.1181 45.7615 14.1451C45.7128 13.8532 45.9076 13.4153 46.1025 13.1721C46.3947 12.8801 46.8331 12.8801 47.1741 13.1721C47.3689 13.3667 47.5638 13.6099 47.6125 13.9018C47.9535 15.1181 48.197 16.2857 48.4893 17.502C48.4406 17.502 48.538 17.5002 48.4893 17.5489Z" fill="#2776EA"/>
</svg>
