<svg width="60" height="59" viewBox="0 0 60 59" fill="none" xmlns="http://www.w3.org/2000/svg">
<path d="M27.8144 32.0329C27.8144 30.9275 27.8144 29.8735 27.8144 28.7938C27.6622 28.7938 27.5099 28.7938 27.3577 28.7938C20.3029 28.7938 13.2228 28.7938 6.16812 28.7938C2.59001 28.7938 -0.0745391 26.0431 0.00159097 22.4441C0.0523443 19.2051 2.74227 16.5573 5.96511 16.5315C6.16812 16.5315 6.39651 16.5315 6.59953 16.5315C6.67566 15.966 6.70104 15.4261 6.80254 14.912C7.46234 11.6729 10.3045 9.53925 13.5274 9.77061C13.7811 9.79631 13.8573 9.69349 13.9334 9.48783C15.4814 5.65749 18.2728 3.36957 22.3331 2.80402C26.3172 2.21276 30.4282 4.34644 32.4584 7.894C32.5853 8.12536 32.7121 8.35672 32.839 8.61379C35.732 7.35415 38.5741 7.40557 41.2641 9.10223C43.954 10.7732 45.3243 13.3182 45.5527 16.5058C45.8573 16.5315 46.1618 16.5573 46.4663 16.6087C49.5369 17.1485 51.7446 20.002 51.4655 23.0611C51.1864 26.3773 48.6487 28.7938 45.4512 28.7938C41.1879 28.7938 36.9247 28.7938 32.6614 28.7938C32.5345 28.7938 32.3822 28.7938 32.2046 28.7938C32.2046 28.948 32.2046 29.0508 32.2046 29.1537C32.2046 29.9506 32.2046 30.7732 32.2046 31.5701C32.2046 32.0329 32.2046 32.0329 32.6614 32.0329C38.8025 32.0329 44.9691 32.0329 51.1102 32.0329C52.3537 32.0329 53.2165 32.7269 53.3941 33.8838C53.4195 34.038 53.4195 34.1922 53.4195 34.3208C53.4195 37.0457 53.4195 39.7706 53.4195 42.4956C53.4195 43.9095 52.5313 44.8092 51.1356 44.8092C44.9691 44.8092 38.8025 44.8092 32.6106 44.8092C32.4837 44.8092 32.3569 44.8092 32.2046 44.8092C32.2046 45.2977 32.2046 45.7604 32.2046 46.2488C32.4076 46.2488 32.5853 46.2488 32.7629 46.2488C38.8787 46.2488 44.9944 46.2488 51.1102 46.2488C52.5313 46.2488 53.3941 47.1228 53.3941 48.5624C53.3941 51.2617 53.3941 53.9866 53.3941 56.6858C53.3941 58.0997 52.5313 58.9995 51.1356 58.9995C37.0262 58.9995 22.9421 58.9995 8.83267 58.9995C7.48771 58.9995 6.59953 58.0997 6.59953 56.7373C6.59953 53.9866 6.59953 51.236 6.59953 48.4853C6.59953 47.1228 7.48771 46.2231 8.83267 46.2231C14.9992 46.2231 21.1657 46.2231 27.3577 46.2231C27.5099 46.2231 27.6368 46.2231 27.8144 46.2231C27.8144 45.7347 27.8144 45.2719 27.8144 44.7835C27.6622 44.7835 27.5099 44.7835 27.383 44.7835C21.2419 44.7835 15.0753 44.7835 8.93418 44.7835C7.46233 44.7835 6.59953 43.9095 6.59953 42.4442C6.59953 39.7449 6.59953 37.0457 6.59953 34.3465C6.59953 32.9069 7.46233 32.0329 8.88343 32.0329C15.0246 32.0329 21.1911 32.0329 27.3323 32.0329C27.4845 32.0329 27.6368 32.0329 27.8144 32.0329ZM25.7589 27.2514C32.2807 27.2514 38.8025 27.2514 45.3243 27.2514C45.6289 27.2514 45.908 27.2256 46.2125 27.1742C48.3695 26.84 49.9937 24.8092 49.9683 22.547C49.9429 20.3105 48.2427 18.3824 46.0856 18.1254C45.6796 18.074 45.2482 18.074 44.8422 18.074C44.3347 18.0483 44.0555 17.7655 44.0301 17.2513C44.0301 17.0457 44.0301 16.8657 44.0301 16.6601C43.8779 10.9788 37.9651 7.5341 33.0674 10.259C32.3569 10.6704 32.0016 10.5161 31.6717 9.7449C30.4029 6.81431 28.1951 4.9634 25.0991 4.39785C20.6582 3.60093 16.3949 6.35158 15.1515 10.7218C14.9738 11.3644 14.6693 11.5187 14.0349 11.4159C12.5884 11.1331 11.2688 11.4159 10.1015 12.3156C8.57891 13.5238 7.94449 15.1434 8.19826 17.0971C8.29976 17.7141 7.99524 18.074 7.36083 18.074C6.90405 18.074 6.42189 18.074 5.96511 18.074C5.27994 18.074 4.64552 18.2282 4.03648 18.5367C2.15861 19.4878 1.14354 21.6215 1.6257 23.6781C2.10786 25.7603 3.96035 27.2514 6.06662 27.2514C12.6392 27.2514 19.1864 27.2514 25.7589 27.2514ZM29.9968 47.8169C22.9675 47.8169 15.9635 47.8169 8.93418 47.8169C8.32514 47.8169 8.1475 47.9969 8.1475 48.6139C8.1475 51.3131 8.1475 54.038 8.1475 56.7373C8.1475 57.2514 8.35052 57.4571 8.85805 57.4828C9.69548 57.4828 10.5329 57.4828 11.3703 57.4828C24.5662 57.4828 37.7875 57.4828 50.9833 57.4828C51.7193 57.4828 51.8715 57.3285 51.8715 56.6087C51.8715 54.218 51.8715 51.8272 51.8715 49.4365C51.8715 49.1023 51.8715 48.7681 51.8715 48.4339C51.8461 48.0483 51.6431 47.8426 51.2625 47.8169C51.0848 47.8169 50.9326 47.8169 50.755 47.8169C43.8271 47.8169 36.9247 47.8169 29.9968 47.8169ZM29.9715 43.2668C37.0008 43.2668 44.0048 43.2668 51.0341 43.2668C51.6939 43.2668 51.8461 43.0869 51.8461 42.4185C51.8461 39.7707 51.8461 37.1228 51.8461 34.5007C51.8461 33.7552 51.6939 33.601 50.9326 33.601C36.9247 33.601 22.9167 33.601 8.90881 33.601C8.29977 33.601 8.09675 33.7809 8.09675 34.4236C8.09675 37.0714 8.09675 39.7192 8.09675 42.3413C8.09675 43.1126 8.24901 43.2411 8.98493 43.2411C16.0143 43.2668 22.9929 43.2668 29.9715 43.2668ZM29.3878 32.0071C29.8446 32.0071 30.2506 32.0071 30.6566 32.0071C30.6566 30.9275 30.6566 29.8735 30.6566 28.8195C30.2252 28.8195 29.8192 28.8195 29.3878 28.8195C29.3878 29.8992 29.3878 30.9532 29.3878 32.0071ZM30.6312 46.2488C30.6312 45.7861 30.6312 45.2977 30.6312 44.8349C30.1998 44.8349 29.7938 44.8349 29.3878 44.8349C29.3878 45.3234 29.3878 45.7861 29.3878 46.2488C29.8192 46.2488 30.1998 46.2488 30.6312 46.2488Z" fill="#2776EA"/>
<path d="M53.9022 12.7272C54.3844 12.7529 54.8412 12.7529 55.2726 12.83C57.6834 13.1899 59.612 15.1693 59.9419 17.6115C60.2972 20.1565 59.0029 22.6244 56.7698 23.6526C55.9831 24.0125 55.1711 24.1925 54.3336 24.1925C53.9022 24.1925 53.4455 24.1925 53.0141 24.1925C52.5065 24.1925 52.1766 23.8583 52.1766 23.3956C52.1766 22.9328 52.5065 22.6501 53.0141 22.6244C53.6485 22.6244 54.3083 22.6758 54.9427 22.5729C57.1251 22.2645 58.5969 20.3621 58.47 18.0742C58.3432 15.9662 56.5414 14.2953 54.3844 14.2953C53.953 14.2953 53.5216 14.2953 53.0902 14.2953C52.5065 14.2953 52.202 13.884 52.3035 13.3184C52.811 10.1565 50.1719 7.56006 47.0759 8.12562C46.3654 8.25415 46.137 8.09991 45.9086 7.38012C44.9443 4.39811 42.9649 2.41867 39.9451 1.75029C36.8237 1.08191 34.2099 2.05877 32.1037 4.42381C32.0529 4.50093 31.9768 4.55235 31.926 4.62947C31.5961 5.04078 31.1394 5.1179 30.7841 4.83512C30.4288 4.55235 30.4034 4.06391 30.7333 3.6526C31.5454 2.62432 32.4843 1.8017 33.6263 1.18473C38.7016 -1.59162 44.8935 0.696302 47.0505 6.12047C47.1774 6.40325 47.2789 6.50608 47.6088 6.48037C50.9585 6.30042 53.7754 8.94824 53.8515 12.3673C53.8769 12.4958 53.9022 12.5986 53.9022 12.7272Z" fill="#2776EA"/>
<path d="M34.7428 14.5781C37.1282 14.6552 39.133 16.1977 39.742 18.5113C39.7928 18.6655 39.8182 18.7941 39.8182 18.9483C39.8182 19.3339 39.539 19.6167 39.1837 19.6938C38.8285 19.7452 38.4732 19.5396 38.3463 19.1797C38.2448 18.8969 38.1687 18.6141 38.0418 18.3313C37.179 16.4804 35.1488 15.6578 33.2202 16.4033C32.5604 16.6604 32.0021 16.2748 32.0783 15.6321C32.1036 15.3236 32.2813 15.118 32.5604 14.9894C33.2963 14.7067 34.0069 14.5781 34.7428 14.5781Z" fill="#2776EA"/>
<path d="M28.4492 13.8064C28.4492 14.2434 28.1954 14.5519 27.8401 14.629C27.4595 14.7061 27.1042 14.5005 26.9773 14.1406C26.8758 13.8835 26.7997 13.6007 26.6728 13.3437C25.8861 11.7241 24.1097 10.9786 22.4349 11.6213C22.3841 11.647 22.3587 11.647 22.308 11.6727C21.8512 11.8527 21.4198 11.6727 21.2675 11.2357C21.1153 10.8244 21.2929 10.4131 21.7243 10.2331C22.8155 9.77039 23.9321 9.69327 25.074 10.0532C26.7743 10.6187 27.8655 11.8012 28.373 13.5493C28.4238 13.6521 28.4238 13.755 28.4492 13.8064Z" fill="#2776EA"/>
<path d="M27.0531 19.0254C28.3727 19.0768 29.5654 20.028 29.8191 21.3133C29.9207 21.7503 29.6923 22.1359 29.2862 22.2645C28.8802 22.3673 28.5249 22.1616 28.3473 21.7503C28.2204 21.4676 28.0682 21.1591 27.8398 20.9277C27.4337 20.5421 26.9516 20.5935 26.4694 20.7735C26.1395 20.902 25.8604 20.7992 25.632 20.5421C25.429 20.285 25.3782 19.9765 25.5559 19.7195C25.6574 19.5652 25.835 19.3853 25.9873 19.3339C26.3425 19.1796 26.6978 19.1282 27.0531 19.0254Z" fill="#2776EA"/>
<path d="M20.3794 50.0029C23.2977 50.0029 26.2161 50.0029 29.109 50.0029C29.6673 50.0029 30.0226 50.3371 29.9972 50.8256C29.9718 51.1597 29.7434 51.4682 29.4135 51.5453C29.2866 51.5711 29.1344 51.5711 29.0075 51.5711C23.247 51.5711 17.4865 51.5711 11.726 51.5711C11.5991 51.5711 11.4468 51.5711 11.32 51.5453C10.9393 51.4425 10.7109 51.1083 10.7363 50.7227C10.7617 50.3628 11.0662 50.0543 11.4215 50.0286C11.523 50.0286 11.6245 50.0286 11.726 50.0286C14.6189 50.0029 17.4865 50.0029 20.3794 50.0029Z" fill="#2776EA"/>
<path d="M20.3541 55.3237C17.4865 55.3237 14.619 55.3237 11.7514 55.3237C11.6499 55.3237 11.523 55.3237 11.4215 55.3237C11.0155 55.2723 10.7363 54.9381 10.7363 54.5525C10.7363 54.1411 11.0408 53.807 11.4723 53.7812C11.6753 53.7812 11.8783 53.7812 12.0813 53.7812C17.7149 53.7812 23.3485 53.7812 28.9822 53.7812C29.0837 53.7812 29.1852 53.7812 29.2867 53.7812C29.6927 53.807 29.9972 54.1154 29.9972 54.5267C30.0226 54.9381 29.7181 55.2723 29.3121 55.3237C29.1852 55.3237 29.0583 55.3237 28.9314 55.3237C26.0892 55.3237 23.2217 55.3237 20.3541 55.3237Z" fill="#2776EA"/>
<path d="M47.4561 55.2463C46.0096 55.2206 44.893 54.0638 44.9184 52.5728C44.9438 51.1589 46.1111 50.0021 47.5068 50.0278C48.9025 50.0535 50.0699 51.2874 50.0445 52.6756C50.0191 54.1409 48.8518 55.272 47.4561 55.2463ZM46.4664 52.6499C46.4664 53.2411 46.9232 53.7039 47.4814 53.7039C48.0397 53.7039 48.5219 53.2154 48.5219 52.6499C48.5219 52.0843 48.0397 51.5702 47.4814 51.5959C46.9232 51.5959 46.4664 52.0586 46.4664 52.6499Z" fill="#2776EA"/>
<path d="M41.5689 55.2459C40.1478 55.2459 39.0059 54.089 39.0059 52.6237C39.0059 51.2356 40.1732 50.0273 41.5689 50.0273C42.99 50.0273 44.1573 51.1842 44.1573 52.6752C44.1573 54.1148 43.0154 55.2716 41.5689 55.2459ZM42.6093 52.6495C42.6093 52.0582 42.1526 51.5955 41.5943 51.5955C41.036 51.5955 40.5538 52.0839 40.5538 52.6495C40.5538 53.215 41.036 53.7034 41.5943 53.7034C42.1526 53.7034 42.6093 53.2407 42.6093 52.6495Z" fill="#2776EA"/>
<path d="M20.4049 39.5137C23.2724 39.5137 26.14 39.5137 29.0075 39.5137C29.1344 39.5137 29.2867 39.5137 29.4136 39.5394C29.7688 39.6165 29.9972 39.925 29.9972 40.2849C29.9972 40.6448 29.7942 40.9276 29.439 41.0304C29.3121 41.0561 29.1598 41.0818 29.0075 41.0818C23.2978 41.0818 17.588 41.0818 11.9037 41.0818C11.8022 41.0818 11.6753 41.0818 11.5738 41.0818C11.0916 41.0561 10.7617 40.7476 10.7617 40.3106C10.7617 39.8736 11.0916 39.5394 11.5738 39.5394C12.9695 39.5394 14.3398 39.5394 15.7355 39.5394C17.2835 39.5137 18.8315 39.5137 20.4049 39.5137Z" fill="#2776EA"/>
<path d="M20.3284 37.3029C17.4862 37.3029 14.644 37.3029 11.8018 37.3029C11.7003 37.3029 11.5988 37.3029 11.4973 37.3029C11.0913 37.2772 10.7867 36.9944 10.7614 36.5831C10.736 36.1718 11.0151 35.8119 11.4212 35.7604C11.548 35.7347 11.6749 35.7604 11.8018 35.7604C17.5369 35.7604 23.2721 35.7604 29.0072 35.7604C29.1341 35.7604 29.2863 35.7604 29.4132 35.7862C29.7939 35.8633 30.0476 36.1975 30.0223 36.5831C29.9969 36.9687 29.7177 37.2772 29.3371 37.3029C29.2356 37.3029 29.1341 37.3029 29.0326 37.3029C26.1143 37.3029 23.2213 37.3029 20.3284 37.3029Z" fill="#2776EA"/>
<path d="M41.5689 41.031C40.1732 41.031 39.0059 39.8485 39.0059 38.4603C39.0059 36.995 40.1732 35.8125 41.5689 35.8125C42.99 35.8125 44.1319 36.9693 44.1319 38.4346C44.1573 39.8742 43.0154 41.031 41.5689 41.031ZM42.6093 38.4346C42.6093 37.8433 42.1779 37.3806 41.5943 37.3806C41.036 37.3806 40.5538 37.8433 40.5538 38.4346C40.5538 39.0002 41.036 39.5143 41.5689 39.5143C42.1272 39.4886 42.6093 39.0259 42.6093 38.4346Z" fill="#2776EA"/>
<path d="M47.4566 41.0305C46.0609 41.0305 44.9189 39.8479 44.9189 38.4341C44.9189 36.943 46.0609 35.7862 47.5074 35.8119C48.9285 35.8119 50.0704 37.0202 50.0704 38.4341C50.045 39.8736 48.8777 41.0562 47.4566 41.0305ZM46.4669 38.4341C46.4669 39.0253 46.9237 39.5137 47.482 39.5137C48.0149 39.5137 48.5224 39.0253 48.5224 38.4598C48.5224 37.8942 48.0657 37.4058 47.5074 37.4058C46.9237 37.3544 46.4669 37.8428 46.4669 38.4341Z" fill="#2776EA"/>
</svg>
