<svg width="105" height="103" viewBox="0 0 105 103" fill="none" xmlns="http://www.w3.org/2000/svg">
<path d="M73.0395 42.5894C76.9595 43.6894 81.9995 43.0894 81.9295 48.8094C81.8995 51.7094 81.9795 55.1694 80.4795 57.3094C79.2095 59.1194 75.7395 59.3694 72.9695 60.4194C75.0595 63.6694 79.2595 66.3994 75.3795 70.4594C73.3695 72.5694 71.0095 75.0994 68.4195 75.6694C66.1995 76.1594 63.4295 74.1094 60.9395 73.1994C59.9195 75.6194 59.4995 78.8894 57.6495 80.3294C55.8695 81.7194 52.6095 81.5194 50.0095 81.4794C45.5395 81.4094 45.0495 80.6094 43.3595 72.6394C42.1595 73.3194 41.0895 73.8294 40.1295 74.4794C36.8495 76.6994 35.1595 76.6294 32.1495 74.0194C31.5195 73.4794 30.9495 72.8694 30.3595 72.2894C26.1295 68.1394 26.0595 66.8594 29.7595 62.3094C30.1595 61.8194 30.4495 61.2294 30.8595 60.5694C28.5095 58.0194 23.5595 60.4094 22.5595 56.1894C21.9895 53.8194 21.9795 51.2594 22.0495 48.7994C22.2195 43.2594 26.8095 43.3494 31.3595 42.8494C28.0995 38.7494 24.8495 35.3994 29.7895 30.9294C35.1695 26.0694 34.9595 25.8394 43.0995 29.9894C45.0895 27.6894 43.0795 23.1594 46.9195 22.0694C49.2495 21.4094 51.8195 21.4594 54.2795 21.3994C60.0895 21.2594 59.6095 26.1294 60.4495 29.7194C63.5395 28.7694 66.4795 26.9794 69.1495 27.3194C71.3595 27.5994 73.4295 30.2194 75.2695 32.0794C79.3895 36.2694 74.8695 39.1294 73.0395 42.5894ZM30.9595 66.8994C31.3495 67.6294 31.4495 67.9694 31.6695 68.2094C35.2395 72.1694 35.2395 72.1694 39.8795 69.7194C43.7195 67.6894 47.4895 69.7294 47.7995 74.5194C47.9995 77.7094 49.5895 77.8994 51.9795 77.8894C54.3395 77.8794 55.9495 77.7894 56.1995 74.5694C56.6395 69.0294 60.8495 67.1794 65.1995 70.7094C68.0395 73.0094 69.1795 71.1994 70.9595 69.7194C73.1195 67.9394 72.9295 66.5994 71.1795 64.4194C67.9895 60.4494 69.6095 56.4194 74.6695 55.9294C78.0395 55.5994 78.2295 53.9294 78.2795 51.3394C78.3395 48.5594 77.7395 47.2294 74.5095 46.9494C69.7995 46.5494 68.2695 42.5994 70.8895 38.6594C71.5195 37.7194 72.2895 36.8694 73.0795 35.8694C71.2095 33.8394 69.4895 31.9794 67.8595 30.2194C67.0395 30.7494 66.7095 30.8894 66.4895 31.1194C64.5995 33.1694 62.4995 34.8594 59.5295 33.6594C56.9095 32.6094 55.9095 30.4094 56.0595 27.6294C56.1595 25.6494 54.9795 25.1694 53.2295 25.0394C49.1695 24.7194 48.6695 25.0394 47.8695 29.1394C46.9395 33.8494 42.7295 35.4394 38.9095 32.4994C38.0295 31.8194 37.2295 31.0494 36.2495 30.1994C34.8495 31.5194 33.6195 32.6194 32.4695 33.7894C31.9095 34.3594 31.4795 35.0594 31.0495 35.5994C31.2395 36.1194 31.2795 36.4794 31.4695 36.7194C36.1795 42.8394 35.3695 45.2494 28.0095 47.1594C27.2895 47.3494 26.1595 47.8694 26.1095 48.3494C25.8695 50.2994 25.5795 52.4094 26.1195 54.2194C26.3695 55.0494 28.4595 55.5094 29.7895 55.8094C34.0195 56.7694 35.6195 60.4194 33.2395 64.0694C32.6295 65.0094 31.8195 65.8394 30.9595 66.8994Z" fill="#0374BA"/>
<path d="M63.5688 96.1186C64.9888 97.4786 66.2288 98.3286 66.9888 99.4986C67.4888 100.269 67.2988 101.489 67.4188 102.499C66.5088 102.439 65.3388 102.719 64.7388 102.259C61.8588 100.049 59.1288 97.6386 55.7988 94.8486C58.4688 91.6686 60.7888 88.7286 63.3488 86.0186C63.8588 85.4786 65.2888 85.7986 66.2988 85.7286C66.2188 86.5986 66.3288 87.5586 65.9988 88.3286C65.6288 89.1886 64.8488 89.8786 63.6288 91.4286C65.6188 90.9486 66.8288 90.8086 67.9188 90.3586C82.0488 84.5986 90.7488 74.2086 94.1488 59.3586C94.4088 58.2286 94.4488 56.9886 94.9588 55.9786C95.3188 55.2586 96.2888 54.8486 96.9988 54.3086C97.4888 55.0886 98.4188 55.8886 98.3888 56.6586C98.3188 58.4686 97.9188 60.2886 97.4288 62.0386C93.0388 77.6486 83.3788 88.5086 68.1788 94.3386C66.8088 94.8486 65.4688 95.3786 63.5688 96.1186Z" fill="#0374BA"/>
<path d="M93.7896 40.4496C91.6596 30.7996 86.9096 23.9396 80.5096 18.2296C75.2496 13.5396 69.1696 10.1196 62.1696 8.56964C61.5196 8.42964 60.7496 8.42964 60.2596 8.06964C59.4396 7.45964 58.8096 6.60964 58.0996 5.85964C59.1696 5.41964 60.3496 4.42964 61.2996 4.61964C69.7996 6.28964 77.2696 10.1596 83.6596 15.9796C89.6596 21.4496 93.8996 28.1396 96.6096 35.7896C96.9796 36.8296 97.3396 37.8696 97.9696 39.6496C99.2696 37.7496 100.06 36.3696 101.07 35.1896C101.52 34.6696 102.56 34.1596 103.1 34.3396C103.62 34.5096 104.31 35.8296 104.1 36.2296C102.35 39.5996 101.15 43.8996 98.3396 45.8996C95.2296 48.1196 92.3596 43.6796 89.2596 42.4696C88.2696 42.0796 87.6896 40.6196 86.9296 39.6596C87.6896 39.2396 88.5196 38.3696 89.1896 38.4796C90.4496 38.6696 91.5996 39.4496 93.7896 40.4496Z" fill="#0374BA"/>
<path d="M38.0989 5.42953C36.2089 4.54953 34.7489 4.07953 33.5689 3.23953C32.9489 2.79953 32.7989 1.69953 32.4389 0.889531C33.1589 0.589531 33.9989 -0.100468 34.5789 0.0695317C37.7689 1.00953 40.9489 2.02953 43.9989 3.33953C44.6789 3.62953 45.3289 5.32953 45.0989 6.12953C44.2389 9.15953 43.1089 12.1295 41.8489 15.0195C41.5689 15.6495 40.3489 15.8795 39.5589 16.2895C39.2689 15.3395 38.7089 14.3695 38.7589 13.4395C38.8289 12.3295 39.4189 11.2595 39.9789 9.61953C38.4789 9.88953 37.3589 9.87953 36.4189 10.2895C22.5889 16.3295 13.3989 26.3595 9.95892 41.2795C9.88892 41.5995 9.94892 41.9995 9.78892 42.2595C9.06892 43.4195 8.20892 45.5495 7.55892 45.4995C5.06892 45.2895 5.80891 43.0995 6.11891 41.5995C9.12891 26.8195 17.3489 15.8995 30.6989 8.88953C32.8989 7.73953 35.1989 6.77953 38.0989 5.42953Z" fill="#0374BA"/>
<path d="M6.01923 60.8793C4.71923 62.4293 3.99923 63.5993 2.97923 64.3893C2.34923 64.8693 1.26923 64.7593 0.389226 64.9193C0.319226 64.0093 -0.140775 62.8293 0.259225 62.2293C2.37922 59.0893 4.70923 56.0993 7.17923 52.7793C10.6192 55.2693 13.7392 57.4093 16.7092 59.7493C17.2292 60.1593 17.1392 61.3693 17.3292 62.1993C16.4292 62.3693 15.3892 62.9093 14.6692 62.6293C13.3492 62.1193 12.2092 61.1193 10.3992 59.9293C11.4392 68.1893 15.5292 74.1393 20.3692 79.5993C24.8392 84.6393 30.3092 88.3993 36.7292 90.6093C38.4492 91.1993 40.2892 91.5193 41.9092 92.2993C42.7592 92.7093 43.2592 93.8393 43.9192 94.6493C42.9692 95.0493 41.8292 96.0093 41.1092 95.7593C36.7292 94.2493 32.1392 93.0093 28.1992 90.6793C17.8092 84.5493 10.7392 75.5393 7.13923 63.9393C6.88923 63.1893 6.58923 62.4493 6.01923 60.8793Z" fill="#0374BA"/>
<path d="M52.1394 62.9799C45.8794 63.0499 40.6794 57.9999 40.5494 51.7299C40.4194 45.2999 45.2594 40.1599 51.6094 39.9799C58.3094 39.7899 63.3794 44.7299 63.3694 51.4299C63.3494 57.8599 58.4394 62.9099 52.1394 62.9799ZM52.0294 43.8199C47.8194 43.8099 44.2794 47.1099 44.1194 51.1899C43.9594 55.3599 47.7194 59.1999 51.9894 59.2099C56.2494 59.2199 60.0494 55.3999 59.9194 51.2399C59.7794 47.1799 56.2194 43.8299 52.0294 43.8199Z" fill="#0374BA"/>
</svg>
