<svg width="61" height="55" viewBox="0 0 61 55" fill="none" xmlns="http://www.w3.org/2000/svg">
<path d="M30.2653 0.183594C36.3079 0.623224 41.0218 3.15955 43.7336 8.46894C44.1705 9.31438 44.6619 9.61874 45.6447 9.61874C49.5942 9.61874 52.2332 11.7493 52.9977 15.2832C53.1069 15.8243 53.7075 16.3823 54.2535 16.7205C56.7833 18.3437 58.6398 20.3728 59.5498 23.1458C61.4972 29.0132 57.6206 35.5908 51.1958 37.0618C49.9582 37.3493 49.0846 37.6706 49.0846 39.0909C49.0846 39.4798 48.2837 39.9025 47.7923 40.2238C47.5739 40.3591 47.1917 40.2745 46.8823 40.2745C44.4617 40.2914 44.1158 40.5112 43.588 42.7094C43.497 43.0814 43.77 43.6563 44.0612 43.9776C46.4091 46.4293 46.4273 46.4124 43.8974 48.7628C43.1694 49.4222 42.4414 50.0817 41.7134 50.7411C41.0764 51.3329 40.4212 51.4344 39.7295 50.8426C39.4929 50.6566 39.2745 50.4537 39.0561 50.2508C37.3999 48.7459 36.6355 48.6275 34.7062 49.828C34.3422 50.0478 34.1056 50.7242 34.1056 51.1807C34.1056 54.3596 34.2148 54.1736 30.7931 54.1567C29.6829 54.1567 28.5727 54.1398 27.4625 54.1567C26.4614 54.1736 25.9882 53.734 26.0064 52.804C26.0064 52.6011 26.0064 52.3982 26.0064 52.1784C25.9882 49.828 25.8062 49.5406 23.3128 49.084C22.8396 48.9995 22.1298 49.3039 21.7293 49.642C19.5635 51.4682 19.5635 51.5189 17.3612 49.7604C16.3966 48.9826 15.5412 48.0864 14.6312 47.2241C14.0488 46.6661 14.0306 46.0574 14.5584 45.4486C14.7586 45.2288 14.977 45.009 15.1772 44.8061C16.9426 43.1152 16.979 42.9799 15.7414 40.9171C15.5594 40.6296 15.1044 40.376 14.7222 40.3083C14.1762 40.2069 13.5756 40.2745 12.9931 40.2745C11.3733 40.2407 11.0275 40.004 10.9183 38.516C10.8455 37.7044 10.4633 37.4169 9.62607 37.2478C5.07596 36.3855 1.07187 32.6993 0.289255 28.5905C-0.620766 23.7884 1.12647 19.9162 5.36717 17.0756C6.36819 16.3992 7.05981 15.7905 7.31461 14.5223C7.89703 11.6478 10.8819 9.56802 14.1034 9.61874C15.3228 9.63565 15.9234 9.28056 16.5058 8.21531C19.2723 3.02428 23.9862 0.521771 30.2653 0.183594ZM57.9664 25.902C57.7662 22.6893 56.0371 19.8655 52.488 18.0563C51.76 17.6843 50.9774 17.4475 50.941 16.4161C50.85 12.8652 48.0289 10.8869 44.3889 11.8169C43.315 12.0874 42.86 11.7662 42.4414 10.9038C41.859 9.66947 41.3494 8.35058 40.4758 7.28532C37.4181 3.51464 33.3412 1.65467 28.2087 2.39866C22.9852 3.15955 19.4543 5.94952 17.7253 10.5995C17.3976 11.4956 17.07 12.1551 15.7596 11.8338C12.1377 10.9207 9.48046 12.5947 9.06185 16.0441C8.93445 17.0925 8.44304 17.6335 7.49662 18.107C5.02136 19.3582 3.29232 21.2182 2.52791 23.7884C1.03547 28.6919 4.23874 33.9337 9.49866 35.1511C10.1903 35.3202 11.0821 35.5231 11.0457 34.4748C10.9911 32.9192 11.9375 32.6655 13.2479 32.8008C14.7586 32.9699 15.6686 32.5472 16.2692 31.093C16.7242 29.9939 16.7606 29.2838 15.7414 28.5567C15.3228 28.2692 15.0498 27.8127 14.6858 27.4407C14.0488 26.8151 14.1398 26.2232 14.795 25.6483C15.5776 24.9213 16.3602 24.1773 17.1428 23.4502C19.3815 21.3873 19.3633 21.4042 21.6383 23.3657C22.0569 23.7376 22.8214 24.0927 23.331 23.9913C25.6424 23.5347 26.0428 22.9937 26.061 20.8293C26.061 20.711 26.061 20.5757 26.061 20.4573C26.0974 19.0708 26.4068 18.7833 27.8629 18.7495C28.8821 18.7326 29.9013 18.7495 30.9206 18.7495C33.9964 18.7495 33.96 18.7495 34.0692 21.5564C34.0874 22.0806 34.233 22.7907 34.6334 23.0782C36.5445 24.4647 37.3999 24.3633 39.1471 22.7569C39.2745 22.6386 39.4019 22.5371 39.5293 22.4188C40.2938 21.6748 41.04 21.6579 41.8226 22.4018C42.5142 23.0444 43.2058 23.67 43.8974 24.3125C46.3363 26.6122 46.3181 26.5952 43.9884 28.9287C43.6972 29.2161 43.3514 29.7065 43.406 30.0616C43.7518 32.1244 44.6801 32.8008 46.9551 32.8008C47.1371 32.8008 47.3191 32.8177 47.4829 32.8008C48.4475 32.767 49.03 33.139 48.9754 34.0859C48.9208 35.2357 49.5396 35.3879 50.577 35.1511C54.7995 34.1873 57.93 30.4674 57.9664 25.902ZM14.704 38.3638C16.5786 37.9918 17.4704 38.5667 17.7253 40.0547C17.7799 40.4098 17.9437 40.7987 18.1621 41.0861C19.5271 42.8954 19.4543 44.4341 17.3976 45.7699C17.1974 45.9052 17.161 46.6153 17.3612 46.8521C19.0539 48.8642 19.2905 48.8642 21.3289 47.1902C21.3653 47.1564 21.4017 47.1395 21.4199 47.1057C22.0387 46.4463 22.6758 46.3955 23.5312 46.8182C24.5322 47.3086 25.6242 47.6975 26.7163 48.0188C27.6991 48.3062 28.2269 48.7966 28.1723 49.7942C28.1541 50.2508 28.0267 50.758 28.2087 51.13C28.3907 51.5189 28.8275 52.0431 29.2279 52.0938C31.6486 52.4151 31.867 52.2291 31.867 49.9295C31.867 48.8304 32.3402 48.2555 33.4504 47.985C34.1784 47.8159 34.9974 47.6806 35.5617 47.2748C37.1633 46.125 38.4191 46.5646 39.5475 47.8159C40.3484 48.712 40.9672 48.6275 41.7862 47.799C43.497 46.0574 43.4788 46.5646 41.768 44.8906C41.6406 44.7723 41.5314 44.6539 41.3858 44.5356C40.6578 43.9607 40.6032 43.3519 41.1128 42.5741C41.5678 41.8809 42.0046 41.12 42.2412 40.3422C42.8782 38.3131 42.8236 38.1947 45.4081 38.2962C46.5911 38.33 47.0825 38.0087 47.0461 36.842C46.9733 34.9482 46.8277 34.6608 45.4263 34.627C43.0602 34.5762 43.0602 34.5762 42.223 32.4626C42.1684 32.3104 42.132 32.1414 42.0228 32.0061C40.5304 30.1968 40.585 28.6412 42.7326 27.2716C42.951 27.1363 42.951 26.3247 42.7326 26.0711C40.9854 24.0082 40.9126 24.0082 38.7649 25.8343C38.0915 26.4092 37.4363 26.5614 36.5991 26.2063C35.4343 25.6991 34.2694 25.2087 33.0682 24.8029C32.231 24.5155 31.867 24.0251 31.8852 23.2135C31.9034 22.6724 31.9762 22.1144 31.8306 21.6071C31.7396 21.2859 31.3756 20.88 31.0662 20.7955C28.8457 20.2713 28.1359 20.7617 28.1723 22.8246C28.1905 23.9913 27.7537 24.6676 26.4979 24.9551C25.697 25.1411 24.9144 25.4793 24.15 25.8174C22.2936 26.6629 22.239 26.6798 20.7101 25.2933C20.4917 25.0904 20.2915 24.7691 20.0367 24.7184C19.6181 24.6338 18.9993 24.5324 18.7081 24.7522C16.433 26.4431 16.4512 26.46 18.4897 28.4214C18.5443 28.489 18.6171 28.5398 18.6717 28.5905C19.3633 29.1485 19.3633 29.7403 18.8901 30.4505C18.4533 31.1099 18.0529 31.8201 17.7799 32.5472C16.9972 34.5424 17.0336 34.5255 14.6494 34.61C14.1944 34.627 13.4118 34.7791 13.3754 34.982C13.1569 35.8782 12.9931 36.8589 13.1751 37.7382C13.2661 38.0764 14.3218 38.2285 14.704 38.3638Z" fill="#2776EA"/>
<path d="M29.9754 27.1534C35.3445 27.1703 40.1676 31.3975 40.1494 36.0982C40.1494 41.4245 35.5083 46.0744 30.0482 45.8884C24.1877 45.6855 20.0016 41.7626 19.947 36.0982C19.9106 31.4482 24.8247 27.1365 29.9754 27.1534ZM30.1392 29.1317C25.8075 29.1317 22.0764 32.4628 22.0764 36.318C22.0764 40.393 25.8075 43.9439 30.0664 43.9101C34.3071 43.8762 37.929 40.4268 37.9836 36.3856C38.0382 32.5642 34.3253 29.1317 30.1392 29.1317Z" fill="#2776EA"/>
<path d="M29.992 31.837C32.8131 31.8201 35.0518 33.8154 35.1064 36.3686C35.161 38.9895 32.8313 41.2045 30.0284 41.2553C27.3712 41.2891 24.9869 39.0233 24.9869 36.4701C24.9687 33.8999 27.1892 31.8539 29.992 31.837ZM32.9405 36.487C32.9769 35.0497 31.6665 33.8492 30.083 33.8323C28.4814 33.8154 27.1528 34.9821 27.1346 36.4024C27.1164 37.7889 28.6088 39.2431 30.0648 39.2262C31.4481 39.2093 32.9223 37.8228 32.9405 36.487Z" fill="#2776EA"/>
</svg>
