<svg width="64" height="46" viewBox="0 0 64 46" fill="none" xmlns="http://www.w3.org/2000/svg">
<path d="M22.9961 45.4209C22.9961 44.6235 22.9961 43.9277 22.9961 42.9817C35.7396 42.9817 48.5222 42.9817 61.4261 42.9817C61.4261 32.0246 61.4261 21.3177 61.4261 10.4661C44.4216 10.4661 27.468 10.4661 10.362 10.4661C10.3112 11.5372 10.2643 12.5575 10.2056 13.7302C9.52544 13.7302 8.85699 13.7302 7.89927 13.7302C7.89927 12.2486 7.86018 10.7202 7.9149 9.19566C7.95009 8.26139 8.59899 7.83921 9.47853 7.77667C9.99844 7.74149 10.5183 7.75713 11.0422 7.75713C27.6479 7.75713 44.2575 7.75713 60.8631 7.75713C63.7559 7.75713 63.9904 7.97603 63.9943 10.8375C64.0021 21.388 64.0021 31.9386 63.9943 42.4891C63.9904 45.2099 63.6855 45.5108 60.9531 45.5108C48.9053 45.5148 36.8576 45.5148 24.8099 45.5108C24.2352 45.5108 23.6645 45.4561 22.9961 45.4209Z" fill="#0274BA"/>
<path d="M14.7869 15.1179C18.95 15.1179 23.1093 15.1062 27.2724 15.1218C29.4849 15.1296 29.7898 15.4345 29.8016 17.5923C29.8211 20.9072 29.8641 24.226 29.7898 27.5409C29.6726 32.7478 27.503 36.9383 23.2734 39.9952C20.9554 41.6682 18.5513 43.2201 16.2293 44.8815C15.3068 45.5382 14.5719 45.5968 13.6102 44.901C11.2453 43.185 8.75909 41.637 6.39802 39.9131C2.56714 37.1142 0.315517 33.3498 0.116155 28.5612C-0.0402072 24.7967 -0.00502612 21.0206 0.0301554 17.2483C0.0457917 15.4814 0.464062 15.1335 2.30523 15.1218C6.46056 15.1023 10.6237 15.1179 14.7869 15.1179ZM2.44596 17.608C2.44596 20.9619 2.43032 24.0814 2.44987 27.2008C2.47723 31.6728 4.30667 35.2574 7.89128 37.9038C9.82627 39.3306 11.8707 40.6128 13.8213 42.024C14.568 42.5634 15.1465 42.6142 15.9127 42.067C17.9727 40.5854 20.111 39.2173 22.1554 37.7162C24.7237 35.832 26.6509 33.2794 26.9401 30.1678C27.3232 26.0594 27.034 21.8923 27.034 17.6158C18.9305 17.608 10.8309 17.608 2.44596 17.608Z" fill="#0274BA"/>
<path d="M10.3615 2.72616C10.2951 3.57834 10.2404 4.28197 10.1778 5.09505C9.43901 5.09505 8.76665 5.09505 8.18811 5.09505C8.05911 4.92696 7.99265 4.88005 7.98484 4.82533C7.22648 0.623086 7.74638 0.0015439 11.9799 0.0015439C28.0696 0.0015439 44.1554 0.0015439 60.2451 0.0015439C60.8314 0.0015439 61.4178 -0.00627321 62.0042 0.0132721C63.2277 0.0562718 63.9665 0.626995 63.9782 1.9248C63.99 2.94507 63.9822 3.96533 63.9822 5.11069C63.1026 5.15369 62.4811 5.18496 61.7227 5.22405C61.6211 4.36797 61.5312 3.61743 61.4217 2.72616C44.4642 2.72616 27.5028 2.72616 10.3615 2.72616Z" fill="#0274BA"/>
<path d="M49.5814 27.2438C47.9552 27.2438 46.3291 27.279 44.7029 27.236C43.1119 27.193 42.7953 26.8607 42.7679 25.2345C42.7366 23.2839 42.7796 21.3294 42.7562 19.3788C42.7405 18.0927 43.2878 17.4555 44.6208 17.4672C47.9396 17.4907 51.2584 17.4946 54.5772 17.4672C55.918 17.4555 56.4457 18.1083 56.4301 19.3866C56.4066 21.3372 56.4535 23.2917 56.4144 25.2424C56.3832 26.8412 56.0274 27.2008 54.4638 27.2399C52.8337 27.2751 51.2076 27.2438 49.5814 27.2438ZM45.2853 24.699C48.2484 24.699 51.0473 24.699 53.8618 24.699C53.8618 23.0064 53.8618 21.4975 53.8618 19.9573C50.93 19.9573 48.1781 19.9573 45.2853 19.9573C45.2853 21.5561 45.2853 23.0181 45.2853 24.699Z" fill="#0274BA"/>
<path d="M51.0664 37.2784C51.0664 36.563 51.0664 35.9454 51.0664 35.1831C52.802 35.1831 54.4907 35.1831 56.2694 35.1831C56.2694 35.9063 56.2694 36.5239 56.2694 37.2784C54.5885 37.2784 52.9428 37.2784 51.0664 37.2784Z" fill="#0274BA"/>
<path d="M42.666 37.251C42.666 36.563 42.666 35.9258 42.666 35.1675C44.3547 35.1675 45.9887 35.1675 47.7713 35.1675C47.8143 35.8476 47.8494 36.4653 47.8963 37.251C46.149 37.251 44.515 37.251 42.666 37.251Z" fill="#0274BA"/>
<path d="M39.343 37.3057C38.3267 37.3057 37.3885 37.3057 36.2939 37.3057C36.2939 36.6607 36.2939 36.0001 36.2939 35.187C37.236 35.187 38.2211 35.187 39.343 35.187C39.343 35.8789 39.343 36.5396 39.343 37.3057Z" fill="#0274BA"/>
<path d="M14.7396 37.4074C9.34117 37.3722 5.0412 33.1504 5.07639 27.7598C5.11548 22.1386 9.17308 17.9598 14.8099 17.9324C20.1732 17.905 24.438 21.775 24.5865 27.7324C24.7272 33.1348 20.2162 37.4425 14.7396 37.4074ZM14.8569 20.4811C10.8618 20.4655 7.60164 23.624 7.53519 27.5682C7.46873 31.5399 10.8188 34.9916 14.7709 35.0267C18.633 35.0619 22.0183 31.7353 22.0691 27.8497C22.1277 23.7608 18.934 20.4968 14.8569 20.4811Z" fill="#0274BA"/>
<path d="M12.9534 29.1944C14.6616 27.2555 16.2839 25.4144 18.1446 23.2996C18.8639 24.2025 19.333 24.7928 19.7903 25.3674C17.4175 27.6777 15.0252 30.0075 12.7657 32.2083C11.5461 31.0708 10.1349 29.7612 8.52832 28.268C9.11077 27.7442 9.62677 27.2829 10.2561 26.7161C11.077 27.4705 11.8237 28.1546 12.9534 29.1944Z" fill="#0274BA"/>
</svg>
