<svg width="64" height="55" viewBox="0 0 64 55" fill="none" xmlns="http://www.w3.org/2000/svg">
<path d="M9.01424 3.29449C9.13875 2.66302 9.17136 2.26575 9.29588 1.89813C9.66943 0.77452 10.6537 0.05707 11.8396 0.00667061C11.9878 0.00074127 12.136 0.000741134 12.2843 0.000741134C25.3733 0.000741134 38.4594 -0.00222347 51.5484 0.00370587C53.6918 0.00370587 54.4004 0.655934 55.0052 3.18776C55.3906 3.22037 55.8175 3.2856 56.2444 3.29153C57.5785 3.30635 58.9126 3.25002 60.2438 3.31228C62.5532 3.42197 63.9881 4.91617 63.9911 7.23158C64.003 19.1347 64.003 31.0379 63.9911 42.9411C63.9881 44.7287 63.4041 45.4017 61.6253 45.7219C60.9523 45.8435 60.2586 45.9117 59.5737 45.9146C53.597 45.9294 47.6202 45.9235 41.6464 45.9235C41.0683 45.9235 40.4902 45.9235 39.8112 45.9235C39.8112 46.7892 39.8112 47.4503 39.8112 48.3249C40.8311 48.3368 41.8005 48.3368 42.767 48.3664C45.0735 48.4375 46.8316 49.8843 47.297 52.1078C47.3771 52.4903 47.3978 52.8935 47.3741 53.2848C47.3237 54.1119 47.0124 54.4262 46.1971 54.5151C45.8562 54.5537 45.5064 54.53 45.1595 54.53C36.3693 54.53 27.576 54.5329 18.7858 54.53C16.589 54.53 16.171 53.9637 16.7698 51.8291C17.3539 49.739 19.02 48.4316 21.2198 48.3694C22.1507 48.3427 23.0846 48.3664 24.1518 48.3664C24.1518 47.5363 24.1518 46.8426 24.1518 45.9294C23.5085 45.9294 22.9334 45.9294 22.3582 45.9294C16.5801 45.9294 10.8019 45.9443 5.02379 45.9146C3.99505 45.9087 2.95741 45.7782 1.94053 45.6152C0.790236 45.4284 0.135044 44.6517 0.016457 43.4895C-0.00726039 43.2434 0.00163357 42.9974 0.00163357 42.7483C0.00163357 30.943 -0.00133103 19.1407 0.00459831 7.33534C0.00459831 5.29861 0.834706 4.06531 2.60758 3.49609C3.11157 3.336 3.6719 3.31821 4.2085 3.30931C5.77681 3.27967 7.34809 3.29449 9.01424 3.29449ZM10.7367 6.59714C10.6863 7.0952 10.6329 7.3887 10.6329 7.67924C10.627 17.264 10.6241 26.8458 10.6329 36.4306C10.6359 37.9248 10.9798 38.2687 12.4829 38.2717C25.4741 38.2806 38.4682 38.2806 51.4594 38.2717C53.0189 38.2717 53.3509 37.9219 53.3509 36.3209C53.3598 28.1207 53.3568 19.9204 53.3479 11.7201C53.3479 11.2991 53.259 10.8781 53.2027 10.3534C52.4704 10.3534 51.8834 10.3534 51.2964 10.3534C45.4174 10.3534 39.5385 10.3356 33.6596 10.3712C32.6545 10.3771 31.9549 10.1221 31.525 9.16751C31.2819 8.63387 30.8579 8.18324 30.597 7.65552C30.1435 6.73055 29.4438 6.48151 28.4417 6.49041C23.0579 6.53488 17.6711 6.5082 12.2872 6.51413C11.8129 6.51709 11.3296 6.56452 10.7367 6.59714ZM54.9103 7.79783C55.1949 7.90752 55.2868 7.97274 55.3787 7.97571C56.0695 7.99646 56.7603 8.00832 57.451 8.01425C59.215 8.02907 59.2625 8.07651 59.2743 9.85531C59.2743 9.90571 59.2743 9.95315 59.2743 10.0035C59.2743 19.2415 59.2743 28.4794 59.2743 37.7173C59.2743 38.0138 59.2891 38.3102 59.2654 38.6067C59.1943 39.5228 59.0371 39.6681 58.0736 39.7333C57.878 39.7451 57.6793 39.7392 57.4807 39.7392C40.4368 39.7392 23.3959 39.7392 6.35196 39.7362C5.87465 39.7362 5.39734 39.6769 4.96153 39.6473C4.6028 38.1472 4.63542 9.36318 5.00007 8.09133C6.30749 8.04093 7.65938 7.98757 9.03795 7.93124C9.03795 6.81356 9.03795 5.8619 9.03795 4.77386C7.09313 4.77386 5.27282 4.74125 3.45844 4.78869C2.67577 4.80944 1.99686 5.26007 1.6915 5.96566C1.46915 6.47855 1.46025 7.11299 1.46025 7.69407C1.44839 19.1051 1.45136 30.5161 1.45136 41.9271C1.45136 44.1892 1.70632 44.4441 3.99801 44.4767C4.34488 44.4827 4.68878 44.4767 5.03565 44.4767C17.8312 44.4767 30.6237 44.4767 43.4193 44.4767C49.0996 44.4767 54.7799 44.4856 60.4632 44.4708C62.2271 44.4649 62.5295 44.1329 62.5443 42.3985C62.5443 42.2503 62.5443 42.1021 62.5443 41.9538C62.5443 30.691 62.5443 19.4282 62.5443 8.16545C62.5443 7.91938 62.5473 7.67035 62.5443 7.42428C62.5028 5.60397 61.7202 4.79462 59.9325 4.75608C58.9452 4.73532 57.955 4.73829 56.9678 4.75608C56.2978 4.76793 55.6307 4.8213 54.9133 4.85984C54.9103 5.93601 54.9103 6.8521 54.9103 7.79783ZM10.6448 5.05254C11.4749 5.05254 12.0115 5.05254 12.5511 5.05254C17.4369 5.05254 22.3256 5.04365 27.2114 5.05847C28.338 5.06144 29.6365 4.81833 30.5437 5.28675C31.3975 5.72552 31.8926 6.92918 32.447 7.85416C32.9095 8.62794 33.4935 8.91254 34.3829 8.90958C40.2559 8.8829 46.1319 8.89772 52.0049 8.88883C52.423 8.88883 52.8439 8.79692 53.3509 8.73763C53.3509 6.66532 53.3539 4.74718 53.3509 2.82607C53.3509 2.07898 52.927 1.60463 52.2629 1.41193C51.7529 1.26369 51.1986 1.21329 50.6649 1.21329C38.2251 1.20143 25.7854 1.2044 13.3456 1.21329C12.812 1.21329 12.2606 1.26666 11.7447 1.406C11.1369 1.56905 10.6893 1.98411 10.6567 2.66005C10.6152 3.3864 10.6448 4.11274 10.6448 5.05254ZM45.9066 52.9765C45.8651 52.5258 45.8888 52.2709 45.8147 52.0515C45.3107 50.581 44.1337 49.8072 42.3727 49.8043C35.4561 49.7983 28.5366 49.8013 21.62 49.8013C21.3236 49.8013 21.0241 49.7865 20.7306 49.825C19.2305 50.0296 18.095 51.4348 18.264 52.9735C27.413 52.9765 36.5709 52.9765 45.9066 52.9765ZM6.39643 9.55884C6.02881 11.2872 6.10293 37.074 6.46758 38.1887C7.35698 38.1887 8.26714 38.1887 9.1684 38.1887C9.1684 34.9542 9.1684 31.8057 9.1684 28.6602C9.1684 25.4554 9.18915 22.2506 9.16247 19.0488C9.13875 15.9151 9.27513 12.7755 9.0676 9.56181C8.10705 9.55884 7.2888 9.55884 6.39643 9.55884ZM54.8392 9.57367C54.8392 19.2326 54.8392 28.681 54.8421 38.1264C56.3541 38.3666 56.6298 38.3517 57.6764 37.9871C57.9372 36.2676 57.8631 10.7655 57.5696 9.57367C56.7425 9.57367 55.8887 9.57367 54.8392 9.57367ZM25.8328 48.1174C27.5849 48.4909 37.1015 48.4109 38.234 48.0047C38.2014 47.3821 38.1659 46.721 38.1362 46.0984C36.1884 45.796 26.9653 45.8761 25.8328 46.1992C25.8328 46.8011 25.8328 47.4236 25.8328 48.1174Z" fill="#0274BA"/>
<path d="M23.2506 34.9186C23.7516 34.9483 24.0926 34.9868 24.4335 34.9809C24.6173 34.9779 24.8011 34.8949 25.1005 34.8179C25.1272 34.2694 25.1717 33.7417 25.1717 33.211C25.1806 30.8897 25.1658 28.5683 25.1806 26.2499C25.1895 24.901 25.3822 24.6935 26.7074 24.655C27.7925 24.6223 28.8805 24.6312 29.9656 24.649C31.4983 24.6757 31.6791 24.8566 31.688 26.3537C31.6999 28.6751 31.688 30.9934 31.694 33.3148C31.694 33.798 31.7355 34.2812 31.7651 34.8979C32.3136 34.9275 32.7761 34.9513 33.4046 34.9839C33.4461 34.3405 33.5054 33.8188 33.5054 33.297C33.5143 29.4963 33.5084 25.6926 33.5113 21.8919C33.5113 21.4976 33.4965 21.1003 33.535 20.709C33.6062 20.0271 34.0005 19.618 34.6972 19.6091C36.1291 19.5883 37.5611 19.5676 38.993 19.612C39.8883 19.6417 40.1967 19.9826 40.2441 20.9224C40.2915 21.8593 40.2619 22.7991 40.2619 23.7359C40.2619 26.8962 40.2589 30.0566 40.2648 33.2169C40.2648 33.7446 40.3123 34.2724 40.3449 34.892C40.9349 34.892 41.3973 34.892 42.0021 34.892C42.0318 34.302 42.0822 33.7773 42.0822 33.2525C42.0881 28.1177 42.0851 22.9829 42.0851 17.8481C42.0851 17.4538 42.0851 17.0565 42.1029 16.6622C42.1296 16.0663 42.4617 15.758 43.0487 15.755C44.5784 15.7461 46.1082 15.7461 47.6409 15.758C48.225 15.7639 48.557 16.0752 48.5778 16.6711C48.5926 17.0654 48.5956 17.4597 48.5956 17.857C48.5956 22.9414 48.5956 28.0288 48.5956 33.1132C48.5956 33.6498 48.5956 34.1834 48.5956 34.8119C49.0818 34.8979 49.482 34.8979 49.814 35.0521C50.0838 35.1766 50.2706 35.4879 50.493 35.7161C50.2321 35.9592 50.0097 36.2765 49.7044 36.4247C49.4642 36.5433 49.1233 36.4632 48.8268 36.4632C37.6204 36.4632 26.4109 36.4662 15.2045 36.4632C13.5057 36.4632 13.3545 36.315 13.3486 34.5955C13.3367 31.782 13.3308 28.9656 13.3604 26.1521C13.3664 25.6807 13.5057 25.1975 13.6777 24.7528C13.7399 24.5957 14.1016 24.4415 14.2854 24.48C14.4692 24.5186 14.6916 24.7795 14.736 24.9811C14.8191 25.3605 14.8042 25.7637 14.8042 26.158C14.8102 28.5268 14.8072 30.8986 14.8072 33.2673C14.8072 33.7535 14.8072 34.2397 14.8072 34.8712C15.3942 34.9157 15.8537 34.9542 16.4615 35.0017C16.5149 34.468 16.5919 34.047 16.5979 33.6231C16.6127 32.0933 16.589 30.5606 16.6097 29.0308C16.6275 27.8034 16.7876 27.6285 17.9498 27.6048C19.2335 27.5781 20.5172 27.5781 21.8009 27.6048C22.9185 27.6285 23.0905 27.7916 23.1112 28.9004C23.1409 30.5784 23.1172 32.2564 23.129 33.9373C23.1201 34.219 23.1943 34.5036 23.2506 34.9186ZM47.0569 17.3115C45.8236 17.3115 44.7741 17.3115 43.5467 17.3115C43.5467 19.3867 43.5467 21.3464 43.5467 23.306C43.5467 25.2271 43.5289 27.1512 43.5527 29.0723C43.5734 31.0142 43.4548 32.9679 43.6357 34.9186C44.9134 34.9839 45.9778 35.1736 47.0599 34.7615C47.0569 28.9626 47.0569 23.2112 47.0569 17.3115ZM35.2071 21.1062C34.8069 22.8584 34.8899 33.8721 35.2723 34.892C36.3811 34.892 37.4929 34.892 38.575 34.892C38.9663 33.1843 38.8833 22.1765 38.4742 21.1062C37.4217 21.1062 36.3485 21.1062 35.2071 21.1062ZM30.0901 26.1314C28.8983 26.1699 27.8429 25.906 26.7459 26.3122C26.7459 29.1731 26.7459 31.9896 26.7459 34.9335C27.9466 34.9542 29.0406 35.2033 30.2235 34.7259C30.2235 32.203 30.2265 29.7008 30.2176 27.2016C30.2205 26.917 30.1553 26.6324 30.0901 26.1314ZM18.1602 29.1316C18.1602 31.1179 18.1602 32.9531 18.1602 34.8594C19.355 35.0402 20.443 35.1499 21.6289 34.7615C21.6467 32.879 21.703 31.0438 21.6052 29.1316C20.3778 29.1316 19.3639 29.1316 18.1602 29.1316Z" fill="#0274BA"/>
<path d="M13.3369 16.0189C13.4525 11.5007 16.8204 8.32851 20.9561 8.39373C25.2371 8.45896 28.5457 11.305 28.5457 16.007C28.5457 20.8187 25.0948 23.6351 20.9709 23.6262C16.432 23.6173 13.4703 20.2821 13.3369 16.0189ZM14.7926 15.8617C14.8015 19.9767 17.9618 22.2121 20.8583 22.1883C24.3447 22.1617 27.0693 19.8878 27.1464 16.0811C27.2234 12.4168 24.4663 9.92943 21.0065 9.81381C17.695 9.70708 14.8104 12.6125 14.7926 15.8617Z" fill="#0274BA"/>
<path d="M32.0699 41.5299C32.6065 41.5299 33.149 41.4824 33.6767 41.5536C33.908 41.5832 34.2845 41.8619 34.2786 42.019C34.2697 42.3007 34.0355 42.8106 33.8754 42.8165C32.6184 42.8818 31.3554 42.8818 30.1014 42.8136C29.9413 42.8047 29.713 42.2918 29.707 42.0101C29.7041 41.856 30.0865 41.5803 30.3148 41.5536C30.8929 41.4854 31.4859 41.5299 32.0699 41.5299Z" fill="#0274BA"/>
<path d="M37.1489 6.21766C36.4552 6.19987 35.9097 5.69884 35.8948 5.06143C35.877 4.39142 36.6419 3.66211 37.3327 3.68879C37.9197 3.71251 38.4682 4.33509 38.48 4.98732C38.4889 5.69884 37.9078 6.23544 37.1489 6.21766Z" fill="#0274BA"/>
<path d="M43.1292 6.21766C42.4206 6.22062 41.8514 5.71663 41.8277 5.07033C41.8039 4.39438 42.6074 3.63839 43.2952 3.68879C43.8881 3.73326 44.4306 4.40031 44.4099 5.05551C44.3891 5.72256 43.8436 6.21766 43.1292 6.21766Z" fill="#0274BA"/>
<path d="M50.3418 5.07034C50.3151 5.73739 49.7756 6.22063 49.0611 6.22063C48.3555 6.22063 47.7359 5.5773 47.7774 4.89246C47.8129 4.29656 48.6342 3.62951 49.2538 3.69176C49.8497 3.74809 50.3715 4.40922 50.3418 5.07034Z" fill="#0274BA"/>
<path d="M20.8667 21.0885C20.6473 20.9046 20.4339 20.7801 20.2945 20.6023C19.8765 20.0716 19.4822 19.5231 19.0909 18.9717C18.9515 18.773 18.7825 18.5655 18.7321 18.3402C18.6254 17.857 18.5483 17.3026 19.1116 17.0476C19.6897 16.7867 19.8528 17.3085 20.0781 17.685C20.2026 17.8896 20.3597 18.2216 20.5198 18.2305C20.9171 18.2542 21.4389 18.2602 21.6968 18.0319C22.1 17.6732 21.8658 17.184 21.4567 16.9201C21.1839 16.7452 20.8222 16.6889 20.4932 16.6148C18.6402 16.1967 18.0088 14.3231 19.2302 12.903C19.6067 12.4672 19.9239 11.978 20.2501 11.5007C20.6859 10.8574 21.1839 10.8574 21.6049 11.4829C21.8688 11.8772 22.2186 12.2122 22.4795 12.6065C22.7997 13.0868 23.1584 13.576 23.3155 14.1155C23.3867 14.3557 23.0576 14.8004 22.7937 15.002C22.6929 15.0791 22.2334 14.7796 22.0081 14.5751C21.8421 14.4239 21.8421 14.0325 21.6731 13.9525C21.3529 13.8043 20.9438 13.7094 20.6058 13.7746C20.419 13.8102 20.1582 14.2371 20.1937 14.4417C20.2412 14.7144 20.505 14.999 20.7511 15.168C20.9794 15.3251 21.3084 15.337 21.5931 15.42C23.3985 15.9477 23.9796 17.9548 22.6692 19.2296C22.2186 19.6684 21.6316 19.953 21.4685 20.6556C21.4211 20.8187 21.1039 20.9224 20.8667 21.0885Z" fill="#0274BA"/>
</svg>
