<svg width="64" height="63" viewBox="0 0 64 63" fill="none" xmlns="http://www.w3.org/2000/svg">
<path d="M0.00284432 40.3097C3.68055 38.1906 7.35541 36.0716 11.1327 33.8929C11.4541 34.3906 11.7243 34.8116 12.114 35.4117C8.68655 37.4028 5.32172 39.3597 1.89432 41.3535C1.89432 45.5489 1.89432 49.7471 1.89432 54.1274C5.481 56.2037 9.15017 58.3284 12.9047 60.5015C16.5141 58.4251 20.1406 56.3402 23.8525 54.2042C24.1767 54.7304 24.464 55.1997 24.8081 55.76C20.8261 58.0582 16.9152 60.3166 12.9303 62.6205C11.4086 61.7444 9.90107 60.8741 8.39358 60.0066C5.93894 58.5901 3.48713 57.1708 1.02395 55.7657C0.71108 55.5893 0.344162 55.5097 0 55.3846C0.00284432 50.3586 0.00284432 45.3356 0.00284432 40.3097Z" fill="#0274BA"/>
<path d="M63.9996 55.3846C63.536 55.6007 63.0525 55.7884 62.6116 56.0416C58.8002 58.2317 54.9974 60.4332 51.0978 62.6888C47.2324 60.4588 43.3641 58.226 39.4219 55.9506C39.7433 55.3817 39.9907 54.9437 40.315 54.372C43.9301 56.4483 47.4855 58.4905 51.1006 60.5669C54.7812 58.4393 58.4561 56.3146 62.1281 54.1928C62.1281 49.9064 62.1281 45.6996 62.1281 41.4189C58.7689 39.4734 55.424 37.5365 51.9852 35.5483C52.281 35.0135 52.5456 34.5385 52.8556 33.9782C56.6272 36.1228 60.3134 38.2191 63.9996 40.3125C63.9996 45.3356 63.9996 50.3586 63.9996 55.3846Z" fill="#0274BA"/>
<path d="M45.2076 51.3086C43.9163 51.3086 42.6989 51.3086 41.4588 51.3086C40.9155 52.6682 40.0793 53.6438 38.6656 53.7491C37.454 53.8372 36.2138 53.8116 35.0107 53.6495C33.6767 53.4675 33.2074 52.0425 32.1322 51.0811C31.2505 53.2399 29.7515 53.9738 27.6923 53.9709C25.6643 53.9681 24.0544 53.4476 23.1982 51.3769C21.961 51.3769 20.7407 51.3769 19.4238 51.3769C19.4238 50.7483 19.4238 50.2079 19.4238 49.5423C20.6412 49.5423 21.8586 49.5423 22.9849 49.5423C25.6557 45.8362 29.6804 45.8333 32.155 49.5423C32.3996 49.3802 32.7239 49.2693 32.8775 49.0446C35.1074 45.7963 39.4677 45.9329 41.5498 49.4399C42.696 49.4399 43.9106 49.4399 45.2019 49.4399C45.2076 50.0941 45.2076 50.6317 45.2076 51.3086ZM35.7929 49.5594C35.7929 50.1652 35.7929 50.6772 35.7929 51.2034C35.5255 51.3115 35.2923 51.4053 35.0164 51.5163C36.2025 52.216 38.8505 52.1818 39.1236 51.4964C38.879 51.3854 38.6344 51.2745 38.404 51.1693C38.404 50.6032 38.404 50.0941 38.404 49.602C38.6884 49.4797 38.9159 49.3859 39.1861 49.2693C37.9233 48.544 35.443 48.5809 35.0334 49.3404C35.261 49.4058 35.48 49.4684 35.7929 49.5594ZM28.8101 49.5878C29.1713 49.4883 29.4273 49.42 30.0075 49.2607C28.2953 48.6407 26.9215 48.6634 25.3087 49.2038C25.7923 49.4314 26.0653 49.5594 26.3099 49.676C26.3099 50.2477 26.3099 50.7511 26.3099 51.2375C25.9942 51.3456 25.7496 51.4281 25.2092 51.6101C26.8617 52.1477 28.2099 52.2245 29.5695 51.6841C29.6122 51.667 29.6179 51.5532 29.6463 51.4651C29.3733 51.3854 29.1144 51.3115 28.8101 51.2233C28.8101 50.6886 28.8101 50.1823 28.8101 49.5878Z" fill="#0274BA"/>
<path d="M44.8921 20.0837C44.2493 20.0837 43.7402 20.0837 43.0973 20.0837C43.0973 16.2098 43.0973 12.387 43.0973 8.51872C39.3855 6.37126 35.7533 4.27215 32.0358 2.12185C28.3666 4.24086 24.6975 6.35988 21.0027 8.49312C21.0027 12.3614 21.0027 16.1415 21.0027 20.0297C20.3855 20.0297 19.845 20.0297 19.2051 20.0297C19.2051 15.9083 19.2051 11.7584 19.2051 7.41512C23.3777 5.0003 27.6641 2.52289 32.0216 -1.52588e-05C36.2994 2.46885 40.5887 4.94057 44.8893 7.42365C44.8921 11.6304 44.8921 15.7888 44.8921 20.0837Z" fill="#0274BA"/>
<path d="M15.8915 37.9773C15.1833 39.1833 14.5661 40.2357 13.8891 41.3848C13.3686 41.0805 12.8993 40.8046 12.3418 40.4803C12.959 39.3796 13.5535 38.3215 14.2048 37.1553C12.9363 35.4942 13.1467 33.8047 14.1792 31.9758C15.1975 30.1697 16.5229 29.1827 18.8667 29.5325C18.7358 28.9893 18.7387 28.6167 18.5709 28.3521C17.6749 26.9385 17.8086 25.5789 18.6704 24.2194C18.9235 23.8212 19.1397 23.4002 19.3758 22.9906C20.0471 21.8216 21.0625 21.2442 22.405 21.2328C22.6866 21.23 22.9682 21.2328 23.3123 21.2328C23.9352 20.1662 24.5496 19.111 25.2237 17.9533C25.7812 18.2548 26.2619 18.5193 26.8052 18.8123C26.1652 19.9614 25.5707 21.028 24.9535 22.1402C25.1526 22.4786 25.3602 22.7887 25.5195 23.1214C26.7369 25.6529 24.3391 29.6691 21.5375 29.8198C21.1108 29.8426 20.6899 29.962 20.0499 30.0758C21.3668 31.9417 21.4066 33.5885 20.3343 35.3918C19.3075 37.1155 18.1726 38.4011 15.8915 37.9773ZM15.9342 34.4674C16.3978 34.7376 16.87 35.0107 17.2881 35.2553C17.2141 35.6165 17.1629 35.8612 17.1117 36.1029C18.4429 35.2269 19.2023 34.0721 19.39 32.2915C18.9833 32.6528 18.7614 32.8519 18.4969 33.0879C18.0333 32.8206 17.5526 32.5447 17.106 32.2858C17.2027 31.9331 17.271 31.6885 17.3393 31.4411C16.0138 32.2432 15.2743 33.3667 15.1008 34.8344C15.0951 34.8912 15.189 34.9567 15.2658 35.0591C15.4791 34.8742 15.6782 34.695 15.9342 34.4674ZM21.9641 27.8373C23.3038 27.0068 24.4984 24.6858 23.8414 24.2649C23.6224 24.4697 23.4033 24.6744 23.1815 24.8849C22.698 24.5777 22.2628 24.3047 21.8532 24.043C21.9499 23.7074 22.0182 23.4599 22.1092 23.1499C20.7553 23.7444 19.4298 26.0739 20.0129 26.7849C20.212 26.6029 20.4083 26.4237 20.6387 26.2161C21.0795 26.4777 21.5176 26.7366 21.967 27.0011C21.9641 27.2941 21.9641 27.5415 21.9641 27.8373Z" fill="#0274BA"/>
<path d="M37.249 18.8208C37.798 18.5165 38.2787 18.2491 38.8162 17.9505C39.4932 19.0996 40.1133 20.1491 40.7447 21.2243C42.0957 21.1475 43.4183 21.2584 44.2347 22.416C44.9372 23.4087 45.5175 24.5123 45.9868 25.6387C46.5243 26.9243 45.4805 28.025 45.0993 29.4074C46.4987 29.4785 47.8669 29.3477 48.6803 30.3773C49.4597 31.3614 50.1167 32.4878 50.6059 33.6454C51.1293 34.877 50.6401 36.0489 49.8238 37.1126C50.4438 38.2191 51.0667 39.3255 51.7238 40.4945C51.226 40.7818 50.7396 41.0634 50.1764 41.3848C49.5137 40.2727 48.8681 39.1861 48.2395 38.1309C43.8564 37.7867 41.854 34.2513 43.8422 30.1327C43.4496 30.0218 43.0856 29.8255 42.73 29.8312C41.1799 29.8596 40.1246 29.1315 39.4107 27.8146C39.2742 27.5671 39.1348 27.3197 38.9812 27.0807C37.926 25.4452 37.7582 23.824 39.1433 22.2169C38.5318 21.1162 37.9345 20.0496 37.249 18.8208ZM46.7092 35.2752C47.2297 34.9794 47.7104 34.7063 48.1712 34.4447C48.3988 34.6864 48.5836 34.8827 48.8311 35.1444C48.9136 33.617 47.5142 31.2021 46.7035 31.4638C46.7661 31.7397 46.8287 32.0213 46.8998 32.3399C46.4248 32.5959 46.0181 32.8149 45.5857 33.0481C45.3127 32.8319 45.0737 32.6442 44.8377 32.4565C44.9344 33.9754 45.526 35.1899 46.7092 36.1655C46.823 35.9578 46.9055 35.8754 46.8941 35.8071C46.877 35.6734 46.8059 35.5454 46.7092 35.2752ZM40.1246 24.1625C40.1189 25.6756 40.9125 27.1632 42.0104 27.8658C42.0645 27.8999 42.164 27.8601 42.2749 27.8544C42.2067 27.5842 42.1441 27.331 42.0616 27.0068C42.5395 26.7366 43.0088 26.4692 43.4383 26.2274C43.7227 26.4891 43.8962 26.6484 44.1323 26.8646C44.1892 25.3343 43.205 23.6875 41.9222 23.1584C42.0445 23.4969 42.1413 23.7614 42.2493 24.0601C41.7203 24.3616 41.251 24.6289 40.813 24.8821C40.5655 24.6261 40.4119 24.464 40.1246 24.1625Z" fill="#0274BA"/>
<path d="M52.0597 58.6726C51.3572 58.6726 50.8537 58.6726 50.2081 58.6726C50.2081 55.2509 50.2081 51.8576 50.2081 48.3762C47.2102 46.6354 44.2805 44.9345 41.1973 43.1454C41.476 42.6448 41.7377 42.1812 42.079 41.5697C45.094 43.299 48.0293 44.98 51.0813 46.7264C54.0308 45.0369 57.006 43.3303 60.0494 41.5839C60.3765 42.1186 60.6353 42.5481 60.9852 43.1227C57.993 44.8634 55.069 46.5672 52.0597 48.3193C52.0597 51.704 52.0597 55.103 52.0597 58.6726Z" fill="#0274BA"/>
<path d="M22.126 10.2196C22.4332 9.69343 22.6863 9.2554 23.0333 8.6581C26.0426 10.3846 29.0092 12.0855 32.0299 13.8177C34.9937 12.1168 37.9717 10.4045 41.0037 8.66379C41.3137 9.18998 41.5726 9.62516 41.9253 10.2196C38.9672 11.9376 36.0489 13.63 33.0112 15.3934C33.0112 18.7696 33.0112 22.2056 33.0112 25.7212C32.3456 25.7212 31.7995 25.7212 31.1026 25.7212C31.1026 22.2824 31.1026 18.8464 31.1026 15.4276C28.0592 13.6613 25.1324 11.9632 22.126 10.2196Z" fill="#0274BA"/>
<path d="M2.99512 43.0516C3.35919 42.4742 3.60665 42.0788 3.95365 41.5242C6.95441 43.245 9.92956 44.9487 12.9275 46.6696C15.9197 44.9487 18.8579 43.2592 21.9127 41.5043C22.2256 42.0447 22.4986 42.514 22.8229 43.0715C19.8079 44.8208 16.8725 46.5245 13.8576 48.2766C13.8576 51.6898 13.8576 55.0887 13.8576 58.5588C13.1948 58.5588 12.6516 58.5588 11.9974 58.5588C11.9974 55.1058 11.9974 51.7097 11.9974 48.2823C8.99378 46.5359 6.05845 44.8293 2.99512 43.0516Z" fill="#0274BA"/>
<path d="M36.2798 25.2206C36.587 25.7866 36.8287 26.2331 37.1388 26.8048C35.4179 27.806 33.7625 28.7731 32.0446 29.7743C30.375 28.8129 28.7139 27.8544 26.9248 26.8247C27.2035 26.2929 27.4538 25.8179 27.7639 25.2291C29.186 26.0283 30.5655 26.8048 32.0332 27.6268C33.4013 26.8532 34.7865 26.0682 36.2798 25.2206Z" fill="#0274BA"/>
<path d="M20.7807 37.3942C22.5555 38.421 24.1825 39.3597 25.818 40.3068C25.818 42.0589 25.818 43.7513 25.818 45.5546C25.2491 45.5546 24.7115 45.5546 24.0118 45.5546C24.0118 44.2035 24.0118 42.8098 24.0118 41.399C22.6153 40.5799 21.3211 39.8204 19.916 38.9956C20.1862 38.495 20.4451 38.02 20.7807 37.3942Z" fill="#0274BA"/>
<path d="M43.2481 37.4397C43.5752 37.983 43.8398 38.421 44.1811 38.9871C42.8215 39.7948 41.5046 40.5799 40.054 41.4417C40.054 42.6904 40.054 43.9931 40.054 45.3583C39.36 45.3583 38.8195 45.3583 38.208 45.3583C38.208 43.7001 38.208 42.1073 38.208 40.3779C39.7951 39.4507 41.4562 38.4808 43.2481 37.4397Z" fill="#0274BA"/>
<path d="M3.19434 53.3964C3.19434 52.6682 3.19434 52.1136 3.19434 51.4935C3.74613 51.4935 4.24673 51.4935 4.45152 51.4935C5.08012 52.0624 5.48401 52.5545 5.99883 52.8702C7.55468 53.8259 9.15603 54.7133 10.837 55.6832C10.5554 56.2151 10.308 56.6844 9.98657 57.2874C7.65707 55.9563 5.43281 54.6792 3.19434 53.3964Z" fill="#0274BA"/>
<path d="M31.4524 5.79385C31.2163 5.39281 30.9774 4.99176 30.6787 4.48547C31.111 4.19819 31.5263 3.91945 32.0013 3.60373C34.0407 4.78128 36.0715 5.95314 38.1706 7.16482C37.8549 7.71092 37.579 8.18877 37.2804 8.70928C35.3349 7.63982 33.4661 6.61302 31.5974 5.58337C31.5462 5.65448 31.5007 5.72559 31.4524 5.79385Z" fill="#0274BA"/>
<path d="M53.7744 55.4443C55.7512 54.2696 57.6029 53.1688 59.4545 52.0681C59.4232 52.0197 59.3919 51.9685 59.3607 51.9202C59.8214 51.9202 60.2822 51.9202 60.8056 51.9202C60.8056 52.4321 60.8056 52.8901 60.8056 53.4589C58.8515 54.591 56.8548 55.7458 54.7443 56.9688C54.4229 56.4654 54.1271 56.0018 53.7744 55.4443Z" fill="#0274BA"/>
<path d="M29.5009 5.05434C29.8393 5.64311 30.1095 6.11811 30.4082 6.63862C29.8877 6.9515 29.4127 7.23877 28.878 7.56018C28.5821 7.06527 28.3034 6.5988 27.9678 6.03563C28.4513 5.7256 28.9036 5.43548 29.5009 5.05434Z" fill="#0274BA"/>
<path d="M60.7523 50.5151C60.1777 50.5151 59.717 50.5151 59.1367 50.5151C59.1367 49.9661 59.1367 49.4456 59.1367 48.8227C59.6601 48.8227 60.1891 48.8227 60.7523 48.8227C60.7523 49.3887 60.7523 49.9548 60.7523 50.5151Z" fill="#0274BA"/>
<path d="M26.1848 9.13593C25.8435 8.57845 25.579 8.14611 25.249 7.60854C25.7525 7.29282 26.2132 7.0027 26.7793 6.64716C27.0978 7.18189 27.3737 7.64551 27.6951 8.18593C27.1888 8.50165 26.765 8.76902 26.1848 9.13593Z" fill="#0274BA"/>
<path d="M4.84995 47.0194C4.23842 47.0194 3.78617 47.0194 3.23438 47.0194C3.23438 46.4477 3.23438 45.913 3.23438 45.2673C3.70653 45.2673 4.23273 45.2673 4.84995 45.2673C4.84995 45.8219 4.84995 46.3567 4.84995 47.0194Z" fill="#0274BA"/>
<path d="M59.0908 45.6712C59.6967 45.6712 60.2001 45.6712 60.7832 45.6712C60.7832 46.2202 60.7832 46.7179 60.7832 47.3209C60.2598 47.3209 59.7223 47.3209 59.0908 47.3209C59.0908 46.8345 59.0908 46.3396 59.0908 45.6712Z" fill="#0274BA"/>
<path d="M4.82957 50.1254C4.27209 50.1254 3.81984 50.1254 3.25098 50.1254C3.25098 49.5708 3.25098 49.0047 3.25098 48.3648C3.7402 48.3648 4.22942 48.3648 4.82957 48.3648C4.82957 48.9166 4.82957 49.4456 4.82957 50.1254Z" fill="#0274BA"/>
</svg>
