<svg width="46" height="46" viewBox="0 0 46 46" fill="none" xmlns="http://www.w3.org/2000/svg">
<g clip-path="url(#clip0_1132_319963)">
<path d="M5.75211 11.4994C8.92755 11.4994 11.5018 8.92511 11.5018 5.74967C11.5018 2.57421 8.92755 0 5.75211 0C2.57665 0 0.00244141 2.57421 0.00244141 5.74967C0.00244141 8.92511 2.57665 11.4994 5.75211 11.4994Z" fill="#426CE8"/>
<path d="M23.0014 28.7483C26.1768 28.7483 28.751 26.1741 28.751 22.9987C28.751 19.8232 26.1768 17.249 23.0014 17.249C19.8259 17.249 17.2517 19.8232 17.2517 22.9987C17.2517 26.1741 19.8259 28.7483 23.0014 28.7483Z" fill="#426CE8"/>
<path d="M40.2504 45.9973C43.4258 45.9973 46.0001 43.4231 46.0001 40.2476C46.0001 37.0722 43.4258 34.4979 40.2504 34.4979C37.0749 34.4979 34.5007 37.0722 34.5007 40.2476C34.5007 43.4231 37.0749 45.9973 40.2504 45.9973Z" fill="#426CE8"/>
<path d="M40.2504 0C37.7497 0 35.6458 1.60586 34.8522 3.83222H28.3968C27.6059 1.60319 25.4993 0 22.9987 0C19.8243 0 17.249 2.57523 17.249 5.74967C17.249 6.63646 17.4647 7.46469 17.8242 8.21572L8.21572 17.8242C7.46737 17.4674 6.63646 17.249 5.74967 17.249C2.57523 17.249 0 19.8243 0 22.9987C0 26.1731 2.57523 28.7483 5.74967 28.7483C8.92412 28.7483 11.4994 26.1731 11.4994 22.9987C11.4994 22.1118 11.2836 21.2836 10.9241 20.5327L20.5327 10.9241C21.2809 11.2809 22.1119 11.4994 22.9987 11.4994C25.4993 11.4994 27.6032 9.89349 28.3968 7.66709H34.8522C35.6431 9.89611 37.7497 11.4994 40.2504 11.4994C43.4248 11.4994 46 8.92412 46 5.74967C46 2.57523 43.4248 0 40.2504 0Z" fill="#426CE8"/>
<path d="M40.2504 17.249C37.0759 17.249 34.5007 19.8243 34.5007 22.9987C34.5007 23.3476 34.5433 23.6858 34.6046 24.0187L24.0214 34.6019C23.6885 34.5433 23.3502 34.498 23.0014 34.498C20.7164 34.498 18.7617 35.8402 17.8349 37.771H10.9215C9.99473 35.8402 8.03735 34.498 5.75504 34.498C2.58061 34.498 0.00537109 37.0733 0.00537109 40.2477C0.00537109 43.4222 2.58061 45.9973 5.75504 45.9973C8.46078 45.9973 10.7164 44.1198 11.3263 41.6032H17.4328C18.0453 44.1225 20.2983 45.9973 23.0041 45.9973C26.1785 45.9973 28.7537 43.4222 28.7537 40.2477C28.7537 38.8629 28.245 37.6086 27.4275 36.6179L36.6205 27.4248C37.6139 28.2397 38.8656 28.751 40.2504 28.751C43.4248 28.751 46 26.1758 46 23.0014C46 19.8269 43.4248 17.249 40.2504 17.249Z" fill="#426CE8"/>
</g>
<defs>
<clipPath id="clip0_1132_319963">
<rect width="46" height="46" fill="white"/>
</clipPath>
</defs>
</svg>
