<svg width="59" height="59" viewBox="0 0 59 59" fill="none" xmlns="http://www.w3.org/2000/svg">
<g clip-path="url(#clip0_867_813693)">
<path d="M7.3775 14.7492C11.4504 14.7492 14.7521 11.4474 14.7521 7.37457C14.7521 3.30171 11.4504 0 7.3775 0C3.30463 0 0.00292969 3.30171 0.00292969 7.37457C0.00292969 11.4474 3.30463 14.7492 7.3775 14.7492Z" fill="#426CE8"/>
<path d="M29.5015 36.8729C33.5744 36.8729 36.8761 33.5712 36.8761 29.4983C36.8761 25.4255 33.5744 22.1238 29.5015 22.1238C25.4286 22.1238 22.127 25.4255 22.127 29.4983C22.127 33.5712 25.4286 36.8729 29.5015 36.8729Z" fill="#426CE8"/>
<path d="M51.6255 58.9966C55.6984 58.9966 59.0002 55.6949 59.0002 51.6221C59.0002 47.5492 55.6984 44.2474 51.6255 44.2474C47.5527 44.2474 44.251 47.5492 44.251 51.6221C44.251 55.6949 47.5527 58.9966 51.6255 58.9966Z" fill="#426CE8"/>
<path d="M51.6255 0C48.4181 0 45.7196 2.05969 44.7018 4.91525H36.422C35.4075 2.05627 32.7056 0 29.4983 0C25.4268 0 22.1237 3.30301 22.1237 7.37457C22.1237 8.51198 22.4004 9.57428 22.8615 10.5375L10.5375 22.8615C9.57772 22.4038 8.51198 22.1237 7.37457 22.1237C3.30301 22.1237 0 25.4268 0 29.4983C0 33.5699 3.30301 36.8728 7.37457 36.8728C11.4461 36.8728 14.7492 33.5699 14.7492 29.4983C14.7492 28.3609 14.4725 27.2986 14.0114 26.3354L26.3354 14.0114C27.2951 14.469 28.3609 14.7492 29.4983 14.7492C32.7056 14.7492 35.4041 12.6895 36.422 9.83388H44.7018C45.7162 12.6928 48.4181 14.7492 51.6255 14.7492C55.697 14.7492 59 11.4461 59 7.37457C59 3.30301 55.697 0 51.6255 0Z" fill="#426CE8"/>
<path d="M51.6255 22.1238C47.5539 22.1238 44.2509 25.4268 44.2509 29.4983C44.2509 29.9458 44.3055 30.3796 44.3841 30.8066L30.8099 44.3807C30.383 44.3055 29.9491 44.2475 29.5017 44.2475C26.571 44.2475 24.0639 45.969 22.8752 48.4454H14.0079C12.8193 45.969 10.3087 44.2475 7.38141 44.2475C3.30985 44.2475 0.00683594 47.5505 0.00683594 51.6221C0.00683594 55.6937 3.30985 58.9966 7.38141 58.9966C10.8518 58.9966 13.7449 56.5885 14.5271 53.3607H22.3594C23.145 56.5919 26.0348 58.9966 29.5052 58.9966C33.5767 58.9966 36.8797 55.6937 36.8797 51.6221C36.8797 49.8459 36.2273 48.2371 35.1786 46.9664L46.9697 35.1753C48.2439 36.2205 49.8493 36.8763 51.6255 36.8763C55.697 36.8763 59 33.5733 59 29.5018C59 25.4302 55.697 22.1238 51.6255 22.1238Z" fill="#426CE8"/>
</g>
<defs>
<clipPath id="clip0_867_813693">
<rect width="59" height="59" fill="white"/>
</clipPath>
</defs>
</svg>
