<svg width="70" height="70" viewBox="0 0 70 70" fill="none" xmlns="http://www.w3.org/2000/svg">
<path d="M57.6201 32.0805C52.9801 32.0605 49.09 28.7005 48.43 24.1105C48.34 23.4705 48.38 22.8005 48.38 22.1405C48.38 21.6805 48.22 21.5305 47.74 21.5905C42.38 22.2205 37.74 18.7205 37.01 13.3705C36.19 7.42045 40.9301 2.68045 46.2301 2.57045C51.0101 2.47045 55.39 5.96045 55.99 11.1205C56.06 11.7005 56.06 12.3105 55.99 12.8905C55.92 13.4505 56.15 13.5405 56.61 13.4805C58.54 13.2105 60.34 13.6105 62.07 14.4905C66.99 17.0105 68.59 23.6005 65.35 28.0905C63.43 30.7105 60.8701 32.0705 57.6201 32.0805ZM57.6201 31.2605C62.1901 31.3205 66.21 27.7405 66.2 22.7305C66.19 17.9405 62.51 14.2305 57.65 14.2205C52.72 14.2105 49.15 18.2505 49.17 22.6305C49.19 27.4805 52.8401 31.2505 57.6201 31.2605ZM50.1201 17.0305C48.5901 17.0805 46.9101 17.2105 45.2301 17.1705C44.2401 17.1505 43.23 16.9405 42.26 16.7205C41.94 16.6505 41.48 16.2505 41.46 15.9905C41.38 14.1505 41.67 12.4005 43.14 11.0805C43.39 10.8505 43.7 10.6805 43.96 10.4905C43.26 8.33045 43.46 7.19045 44.67 6.30045C45.66 5.58045 47.04 5.56045 47.99 6.25045C49.26 7.17045 49.46 8.32045 48.74 10.5605C50.83 11.5105 51.1101 13.5505 51.5501 15.5105C51.7201 15.4605 51.8 15.4505 51.88 15.4105C52.82 14.9005 53.76 14.4005 54.68 13.8605C54.87 13.7505 55.09 13.4705 55.09 13.2705C55.12 12.3605 55.2 11.4205 55.03 10.5405C54.1 5.56045 49.49 2.39045 44.32 3.62045C38.29 5.05045 35.69 12.2905 39.39 17.2805C41.5 20.1305 44.41 21.2605 47.92 20.7205C48.2 20.6805 48.54 20.4005 48.67 20.1405C49.22 19.0805 49.6801 17.9805 50.1201 17.0305ZM46.5501 16.4905C47.6801 16.3605 48.9 16.2305 50.1 16.0505C50.31 16.0205 50.64 15.7205 50.63 15.5705C50.52 14.3205 50.27 13.1005 49.46 12.0705C48.9 11.3605 48.2101 11.1505 47.3701 11.4605C46.6801 11.7105 46.01 11.7105 45.32 11.4605C44.43 11.1405 43.53 11.4005 43.15 12.2505C42.74 13.1705 42.4901 14.1805 42.2301 15.1705C42.0801 15.7505 42.4 16.0705 42.99 16.1305C44.15 16.2405 45.3001 16.3605 46.5501 16.4905ZM48.39 8.66045C48.39 7.42045 47.56 6.55045 46.39 6.56045C45.16 6.57045 44.31 7.44045 44.32 8.69045C44.33 9.93045 45.22 10.8805 46.38 10.8605C47.53 10.8405 48.39 9.90045 48.39 8.66045Z" fill="#2776EA"/>
<path d="M41.0302 52.3401C41.0302 52.8701 41.0302 53.3701 41.0302 53.8601C41.0302 55.1701 41.0302 56.4901 41.0302 57.8001C41.0302 58.0201 41.0502 58.2601 40.9602 58.4501C40.9002 58.6001 40.6802 58.7801 40.5502 58.7701C40.4202 58.7601 40.2202 58.5401 40.2002 58.3901C40.1602 58.0501 40.2102 57.6901 40.2102 57.3401C40.2102 54.2101 40.2102 51.0801 40.2102 47.9401C40.2102 47.7201 40.1902 47.5001 40.2102 47.2801C40.2402 46.9401 40.0802 46.4301 40.6302 46.4401C40.7602 46.4401 40.9902 46.9701 41.0002 47.2601C41.0502 48.2901 41.0202 49.3201 41.0202 50.3501C41.0202 50.5301 40.9702 50.7401 41.0502 50.8701C41.1902 51.1001 41.4202 51.2701 41.6102 51.4701C41.8002 51.2701 42.1602 51.0801 42.1602 50.8801C42.2002 48.9301 42.2202 46.9801 42.1502 45.0301C42.1102 44.0301 41.2102 43.2901 40.1102 43.2501C38.8602 43.2101 37.6102 43.2001 36.3702 43.2501C35.2202 43.3001 34.3802 44.0001 34.3102 45.1601C34.1902 47.0101 34.2302 48.8801 34.2302 50.7401C34.2302 51.1401 34.4702 51.5401 34.9102 51.4301C35.1402 51.3701 35.4402 50.9601 35.4502 50.7001C35.5102 49.5601 35.4802 48.4201 35.4802 47.2801C35.4802 47.0801 35.4602 46.8701 35.5402 46.7001C35.6002 46.5701 35.7802 46.4401 35.9102 46.4201C36.0102 46.4101 36.1802 46.5601 36.2302 46.6801C36.2902 46.8601 36.2902 47.0701 36.2902 47.2601C36.2902 50.8101 36.2902 54.3601 36.2902 57.9001C36.2902 57.9701 36.3102 58.0401 36.2902 58.1001C36.1702 58.3301 36.0402 58.5401 35.9202 58.7701C35.7802 58.5401 35.5202 58.3101 35.5102 58.0801C35.4602 57.2301 35.4902 56.3701 35.4902 55.5201C35.4902 54.4701 35.4902 53.4301 35.4902 52.3401C35.0602 52.3401 34.6902 52.3401 34.2502 52.3401C34.2302 52.5501 34.2002 52.7801 34.2002 53.0101C34.2002 54.3001 34.2202 55.5901 34.1802 56.8901C34.1702 57.1401 33.9502 57.3801 33.8302 57.6201C33.6802 57.3901 33.4102 57.1601 33.4102 56.9201C33.3902 53.0701 33.3702 49.2101 33.4202 45.3601C33.4302 44.2501 33.9702 43.3301 35.0102 42.8101C35.4102 42.6101 35.4102 42.3901 35.2402 42.0301C34.7602 41.0301 33.8702 40.7901 32.9002 40.7601C31.8802 40.7301 30.8502 40.7501 29.8302 40.7901C28.3102 40.8501 27.5002 41.7001 27.5002 43.2201C27.4902 44.8001 27.5002 46.3701 27.5002 47.9501C27.5002 48.1701 27.4702 48.4301 27.5702 48.5901C27.6902 48.7901 27.9402 49.0001 28.1502 49.0201C28.3102 49.0401 28.5802 48.8101 28.6602 48.6201C28.7702 48.3701 28.7802 48.0701 28.7902 47.7901C28.8002 46.7601 28.7902 45.7301 28.8002 44.7001C28.8002 44.4001 28.7002 43.9301 29.1902 43.9801C29.3502 43.9901 29.5802 44.4701 29.5802 44.7401C29.6102 46.8201 29.6002 48.9001 29.6002 50.9801C29.6002 51.7501 29.6302 52.5201 29.5702 53.2801C29.5502 53.5201 29.2902 53.7401 29.1402 53.9601C29.0202 53.7301 28.8102 53.5001 28.8002 53.2701C28.7602 52.3101 28.7802 51.3401 28.7802 50.3801C28.7802 50.0001 28.6802 49.8501 28.2502 49.8701C27.2702 49.9001 26.7002 49.3101 26.6902 48.3401C26.6802 46.6501 26.6902 44.9701 26.6902 43.2801C26.6902 41.3701 27.5702 40.2201 29.4702 40.0301C30.8702 39.8901 32.3102 39.9701 33.7302 40.0501C34.8502 40.1201 35.6402 40.7901 36.0602 41.8301C36.2502 42.3001 36.5402 42.4401 37.0102 42.4301C37.8402 42.4101 38.6702 42.4001 39.5102 42.4301C39.9902 42.4401 40.2602 42.2901 40.4502 41.8201C40.9002 40.7001 41.8102 40.0501 42.9702 39.9901C44.4102 39.9001 45.8602 39.9201 47.2902 40.0601C48.8002 40.2201 49.8002 41.4301 49.8402 42.9401C49.8802 44.7401 49.8602 46.5301 49.8402 48.3301C49.8302 49.3201 49.2402 49.9001 48.2702 49.8701C47.8202 49.8501 47.7502 50.0401 47.7502 50.4001C47.7502 51.3601 47.7802 52.3301 47.7302 53.2901C47.7202 53.5201 47.4602 53.7401 47.3202 53.9701C47.1902 53.7501 46.9602 53.5301 46.9602 53.3001C46.9402 50.4301 46.9402 47.5601 46.9502 44.6901C46.9502 44.5801 46.9302 44.4401 46.9802 44.3701C47.0902 44.2101 47.2502 44.0801 47.3902 43.9301C47.5102 44.0901 47.7202 44.2401 47.7302 44.4001C47.7702 45.0101 47.7502 45.6301 47.7502 46.2401C47.7502 46.9201 47.7502 47.6001 47.7602 48.2801C47.7602 48.7101 47.9702 49.0801 48.4002 49.0101C48.6402 48.9701 48.9902 48.5601 49.0002 48.3101C49.0502 46.4701 49.0802 44.6301 49.0002 42.7901C48.9502 41.6201 48.0702 40.8701 46.9102 40.8501C45.6202 40.8301 44.3302 40.8401 43.0302 40.8501C42.2002 40.8601 41.6502 41.3301 41.2602 42.0201C41.0902 42.3301 41.1102 42.5801 41.4802 42.7701C42.6502 43.3901 43.1302 44.4301 43.1302 45.7001C43.1502 49.4001 43.1402 53.1001 43.1302 56.8001C43.1302 56.9701 43.1302 57.1701 43.0502 57.3101C42.9802 57.4401 42.8002 57.5701 42.6602 57.5901C42.5602 57.6001 42.3702 57.4501 42.3402 57.3301C42.2602 57.0901 42.2302 56.8201 42.2302 56.5601C42.2202 55.4601 42.2302 54.3701 42.2202 53.2701C42.2102 52.2801 42.2002 52.2701 41.0302 52.3401Z" fill="#2776EA"/>
<path d="M24.0802 30.0905C23.8002 29.9405 23.5502 29.8505 23.3602 29.6905C23.1202 29.5005 22.9202 29.2705 22.7002 29.0505C22.1202 28.4705 21.2702 28.4505 20.7102 29.0705C20.5602 29.2305 20.5302 29.5505 20.5302 29.8005C20.4902 31.8305 20.2602 32.0505 18.2402 32.0505C17.6302 32.0505 17.0102 32.0705 16.4002 32.0405C15.3802 32.0005 14.8902 31.4805 14.8702 30.4705C14.8702 30.3405 14.8702 30.2105 14.8702 30.0805C14.8702 29.1105 14.5302 28.7005 13.5702 28.5705C13.3902 28.5505 13.1402 28.6505 12.9902 28.7705C12.6802 29.0205 12.4302 29.3205 12.1402 29.5905C11.6202 30.0705 10.9502 30.1105 10.4302 29.6305C9.65018 28.9005 8.89019 28.1405 8.15019 27.3605C7.72019 26.9105 7.73018 26.2705 8.14018 25.7405C8.31018 25.5205 8.51018 25.3005 8.73018 25.1305C9.28018 24.7205 9.33019 24.2705 9.04019 23.6505C8.82019 23.1905 8.58019 22.9505 8.06019 22.9805C7.67019 23.0005 7.27018 22.9705 6.89018 22.9005C6.20018 22.7605 5.82018 22.3105 5.80018 21.6205C5.78018 20.6605 5.77018 19.6905 5.80018 18.7305C5.83018 17.8705 6.31018 17.4105 7.16018 17.3505C7.33018 17.3405 7.51018 17.3405 7.69018 17.3405C8.75018 17.3405 8.73019 17.3305 9.15019 16.3305C9.33019 15.9005 9.26018 15.6105 8.94018 15.2805C7.40018 13.6905 7.40018 13.6805 8.96018 12.1105C9.42018 11.6505 9.88019 11.1805 10.3602 10.7205C10.9802 10.1205 11.4802 10.1005 12.1502 10.6405C12.3002 10.7605 12.4402 10.9105 12.5802 11.0505C13.4102 11.8705 13.5402 11.9005 14.5302 11.3105C14.6702 11.2205 14.7602 11.0205 14.8402 10.8605C14.8802 10.7905 14.8602 10.6905 14.8602 10.6005C14.7402 8.60049 15.2402 8.15049 17.2402 8.26049C17.8502 8.30049 18.4702 8.25049 19.0802 8.27049C20.0302 8.30049 20.4602 8.74049 20.5102 9.71049C20.5202 9.84049 20.5102 9.97049 20.5102 10.1005C20.5102 11.4705 20.4402 11.1005 21.7202 11.6605C21.8702 11.7305 22.1702 11.6005 22.3402 11.4705C22.6502 11.2305 22.9002 10.9105 23.2002 10.6605C23.8402 10.1105 24.4002 10.1305 25.0002 10.7105C25.7102 11.3905 26.4002 12.0905 27.0902 12.8005C27.7202 13.4405 27.7102 13.9805 27.1102 14.6305C26.9902 14.7605 26.8602 14.8805 26.7402 15.0005C25.9802 15.7605 25.9302 16.1305 26.5502 17.0205C26.6602 17.1805 26.9302 17.2805 27.1502 17.3105C27.5202 17.3605 27.8902 17.3105 28.2602 17.3405C29.1202 17.3905 29.5402 17.8105 29.5702 18.6705C29.6002 19.6505 29.6002 20.6405 29.5702 21.6205C29.5502 22.4105 29.1602 22.8205 28.3702 22.9405C28.1102 22.9805 27.8502 22.9705 27.5802 22.9805C26.6202 22.9905 26.2402 23.3005 26.1302 24.2505C26.1102 24.4305 26.2302 24.6605 26.3602 24.8205C26.6102 25.1205 26.9202 25.3705 27.1802 25.6705C27.7202 26.3105 27.7002 26.8805 27.1202 27.4805C26.4402 28.1905 25.7502 28.9005 25.0202 29.5605C24.7902 29.7905 24.4202 29.9005 24.0802 30.0905ZM17.7102 9.05049C17.6702 9.05049 17.6202 9.05049 17.5802 9.05049C15.5702 9.05049 15.6302 8.89049 15.6702 10.9005C15.6802 11.4905 15.4102 11.8305 14.8902 12.0505C13.1802 12.7705 13.1902 12.7805 11.8402 11.4705C11.7902 11.4205 11.7402 11.3805 11.7002 11.3305C11.4002 10.9905 11.1102 11.0205 10.8102 11.3405C10.4602 11.7105 10.0902 12.0505 9.74019 12.4105C8.35019 13.8405 8.20019 13.4905 9.70019 14.9905C9.73019 15.0205 9.76019 15.0505 9.79019 15.0805C10.1802 15.4405 10.2202 15.8705 10.0102 16.3405C9.18018 18.1405 9.61019 18.1605 7.43018 18.1305C7.41018 18.1305 7.39019 18.1305 7.36019 18.1305C6.84019 18.1005 6.59018 18.3405 6.59018 18.8705C6.59018 19.7205 6.59018 20.5805 6.59018 21.4305C6.59018 21.9205 6.84019 22.1605 7.31019 22.1905C7.77019 22.2105 8.25019 22.1405 8.68019 22.2405C8.99019 22.3105 9.40018 22.5505 9.51018 22.8205C10.2502 24.6005 10.6202 24.4905 9.01018 26.0305C8.99018 26.0505 8.98018 26.0605 8.96018 26.0805C8.57018 26.4005 8.58018 26.7505 8.92018 27.0905C9.52018 27.7005 10.1202 28.3005 10.7302 28.9005C11.1002 29.2605 11.4602 29.2305 11.8202 28.8805C12.1002 28.6005 12.3702 28.3105 12.6602 28.0505C13.3102 27.4605 15.4002 28.0905 15.6202 28.9405C15.6602 29.0905 15.6602 29.2405 15.6602 29.4005C15.6702 29.7905 15.6602 30.1905 15.6702 30.5805C15.6802 31.0305 15.9102 31.2705 16.3602 31.2705C17.2402 31.2705 18.1102 31.2805 18.9902 31.2605C19.5002 31.2505 19.7402 30.9705 19.7302 30.4605C19.7202 30.0905 19.7202 29.7205 19.7302 29.3405C19.7602 28.4105 21.7202 27.3705 22.5202 27.8705C22.6502 27.9505 22.7502 28.0705 22.8602 28.1705C23.1302 28.4305 23.3902 28.6905 23.6502 28.9605C23.9502 29.2605 24.2502 29.2905 24.5602 28.9805C25.2102 28.3305 25.8602 27.6805 26.5102 27.0305C26.8202 26.7205 26.7902 26.4205 26.4702 26.1305C26.1602 25.8505 25.8802 25.5505 25.5902 25.2505C25.2102 24.8605 25.1702 24.4205 25.3802 23.9205C26.0802 22.2505 26.0802 22.2505 27.8602 22.2105C27.9302 22.2105 27.9902 22.2105 28.0602 22.2105C28.5502 22.2105 28.7802 21.9605 28.7802 21.4805C28.7802 20.9505 28.7802 20.4305 28.7802 19.9005C28.7902 18.0705 28.8802 18.1405 27.0302 18.1505C26.9402 18.1505 26.8402 18.1805 26.7702 18.1405C26.4702 17.9605 26.0602 17.8405 25.9002 17.5705C24.9602 15.9305 25.0002 15.7105 26.3302 14.3705C26.3502 14.3505 26.3602 14.3405 26.3802 14.3205C26.8402 13.9605 26.8702 13.6105 26.4102 13.1905C25.8102 12.6405 25.2402 12.0705 24.6902 11.4705C24.2802 11.0305 23.9702 11.0405 23.5602 11.4705C22.0102 13.1005 22.2502 12.7105 20.4802 12.0305C20.4402 12.0105 20.4002 12.0005 20.3602 11.9805C19.9202 11.8105 19.7102 11.4905 19.7202 11.0205C19.7902 8.81049 19.7902 9.06049 17.7102 9.05049Z" fill="#2776EA"/>
<path d="M21.8301 53.2805C21.8301 55.1605 21.8501 57.0505 21.8201 58.9305C21.8101 59.6205 22.0401 60.1705 22.5101 60.6305C24.3601 62.4605 26.2101 64.2905 28.0601 66.1205C28.7301 66.7805 29.1601 67.5505 29.0501 68.5205C29.0301 68.7205 28.7801 68.8905 28.6401 69.0705C28.5101 68.8905 28.2801 68.7105 28.2801 68.5405C28.2801 67.6805 27.8601 67.0605 27.2701 66.4805C25.4801 64.7105 23.7201 62.9105 21.9201 61.1505C21.2301 60.4705 20.9101 59.6805 20.9101 58.7405C20.9001 54.9505 20.9001 51.1605 20.9101 47.3705C20.9201 45.9605 21.8501 45.0205 23.1301 45.0505C24.1601 45.0805 24.9901 45.7805 25.0901 46.8105C25.2901 48.8305 25.4801 50.8605 25.6201 52.8905C25.6601 53.4905 25.8101 53.8105 26.4501 53.9205C26.7701 53.9705 27.0801 54.2105 27.3301 54.4505C28.0801 55.1605 28.7501 55.9505 29.5401 56.6005C29.9501 56.9405 30.5201 57.2005 31.0401 57.2605C32.3101 57.4005 33.4201 57.7805 34.2901 58.7605C34.8501 59.3805 35.4801 59.9305 36.0501 60.5305C36.8801 61.4105 37.3401 62.4705 37.3301 63.6805C37.3201 65.4105 37.2601 67.1405 37.1801 68.8605C37.1701 69.1005 36.9101 69.3305 36.7601 69.5705C36.6301 69.3305 36.4001 69.0905 36.4001 68.8505C36.4001 67.3805 36.4501 65.9205 36.5101 64.4505C36.5601 63.0505 36.2501 61.8105 35.1701 60.8305C34.5401 60.2505 33.9501 59.6305 33.3501 59.0205C32.8301 58.5005 32.2101 58.2105 31.4701 58.2005C30.4401 58.1805 29.5601 57.8605 28.8501 57.0605C28.2401 56.3705 27.5701 55.7405 26.9101 55.1005C26.3501 54.5505 25.5401 54.4905 25.0801 54.9305C24.5601 55.4305 24.6001 56.1705 25.2101 56.7805C26.6401 58.2305 28.0901 59.6605 29.5301 61.1005C29.6801 61.2505 29.8801 61.3905 29.9701 61.5805C30.0601 61.7705 30.0301 62.0105 30.0501 62.2205C29.8401 62.2005 29.5401 62.2605 29.4201 62.1505C27.7201 60.4805 26.0101 58.8105 24.3801 57.0705C23.6101 56.2505 23.7601 55.1905 24.5201 54.3405C24.7001 54.1405 24.8601 53.8105 24.8401 53.5505C24.6901 51.3505 24.5001 49.1505 24.3001 46.9505C24.2401 46.2705 23.7201 45.8405 23.0601 45.8405C22.3801 45.8405 21.9001 46.2605 21.8301 46.9505C21.7901 47.3605 21.8201 47.7805 21.8201 48.2005C21.8301 49.9005 21.8301 51.5905 21.8301 53.2805Z" fill="#2776EA"/>
<path d="M55.51 53.2299C55.51 55.1099 55.49 56.9998 55.52 58.8798C55.54 59.8298 55.2 60.5599 54.54 61.2199C52.73 62.9999 50.95 64.8198 49.14 66.5998C48.6 67.1298 48.22 67.6898 48.25 68.4898C48.26 68.6798 48.01 68.8898 47.88 69.0898C47.74 68.8798 47.5 68.6899 47.47 68.4699C47.35 67.5899 47.69 66.8499 48.32 66.2299C50.19 64.3799 52.03 62.5099 53.9 60.6599C54.45 60.1199 54.7 59.5198 54.7 58.7398C54.68 55.0198 54.69 51.2898 54.69 47.5698C54.69 47.4198 54.69 47.2598 54.68 47.1098C54.63 46.4098 54.19 45.9298 53.55 45.8798C52.86 45.8298 52.31 46.2398 52.22 46.9598C52.06 48.2798 51.95 49.6099 51.82 50.9399C51.74 51.7899 51.65 52.6398 51.62 53.4898C51.61 53.7598 51.72 54.0898 51.9 54.2798C52.76 55.1998 52.89 56.2398 52.04 57.1398C50.45 58.8298 48.8 60.4598 47.15 62.0898C47.01 62.2298 46.67 62.1698 46.42 62.1998C46.48 61.9598 46.47 61.6399 46.63 61.4799C48.08 59.9899 49.56 58.5299 51.03 57.0499C51.89 56.1899 52 55.5598 51.39 54.9698C50.84 54.4298 50.14 54.5598 49.34 55.3498C48.7 55.9798 48.06 56.6099 47.44 57.2599C46.83 57.8899 46.08 58.2198 45.21 58.1998C44.27 58.1798 43.51 58.5598 42.87 59.2098C42.18 59.9098 41.48 60.6098 40.83 61.3398C40.22 62.0398 39.96 62.8999 39.98 63.8299C40.03 65.3999 40.07 66.9799 40.11 68.5499C40.11 68.7199 40.15 68.9198 40.09 69.0698C40.01 69.2498 39.85 69.3799 39.72 69.5399C39.59 69.3899 39.34 69.2498 39.34 69.0998C39.28 67.0498 39.2 64.9899 39.24 62.9399C39.26 61.9799 39.79 61.1599 40.5 60.4799C41.07 59.9299 41.65 59.3999 42.17 58.7999C43.05 57.7799 44.17 57.3998 45.47 57.2698C45.93 57.2198 46.43 56.9899 46.79 56.6899C47.48 56.1199 48.04 55.3998 48.72 54.8198C49.19 54.4198 49.74 54.0798 50.3 53.8398C50.79 53.6298 50.8 53.2598 50.84 52.8898C50.96 51.6698 51.04 50.4499 51.14 49.2299C51.21 48.4199 51.24 47.6098 51.38 46.8198C51.6 45.5998 52.5 44.9499 53.69 45.0799C54.78 45.1999 55.5 46.0198 55.51 47.2098C55.51 49.1998 55.5 51.2099 55.51 53.2299Z" fill="#2776EA"/>
<path d="M9.86014 33.3798C9.98014 34.4398 10.0901 35.2998 10.1901 36.1598C10.2001 36.2298 10.2401 36.2998 10.2201 36.3498C10.1301 36.6098 10.0301 36.8598 9.94014 37.1098C9.78014 36.8998 9.54014 36.7198 9.49014 36.4898C9.36014 35.8698 9.30014 35.2398 9.22014 34.6098C9.16014 34.1098 9.12014 33.6098 9.08014 33.1098C9.04014 32.6498 9.21014 32.3098 9.63014 32.0798C10.6301 31.5398 11.6201 30.9798 12.6401 30.4598C12.8001 30.3798 13.0601 30.4998 13.2801 30.5198C13.1801 30.7298 13.1301 31.0298 12.9601 31.1398C12.1201 31.6398 11.2501 32.0898 10.2801 32.6298C10.5601 32.8098 10.7301 32.9298 10.9101 33.0198C16.2601 35.6698 21.4501 35.3098 26.3001 31.8798C29.6401 29.5198 31.5301 26.1598 32.0801 22.0998C32.5601 18.5798 31.7901 15.3198 29.9101 12.3098C29.7801 12.0998 29.8401 11.7798 29.8001 11.5098C30.0601 11.6398 30.4301 11.7098 30.5601 11.9198C32.3701 14.8698 33.2501 18.0598 32.9301 21.5598C32.6001 25.1498 31.2001 28.2398 28.7301 30.8198C26.3601 33.2998 23.4401 34.8398 20.0301 35.3298C16.8501 35.7898 13.7901 35.3898 10.9101 33.8898C10.6201 33.7398 10.3301 33.5998 9.86014 33.3798Z" fill="#2776EA"/>
<path d="M24.9 7.52008C23.97 7.12008 23.21 6.73008 22.42 6.48008C18.79 5.32008 15.22 5.45008 11.72 7.01008C8.58004 8.41008 6.19004 10.6601 4.72004 13.7501C2.44004 18.5601 2.63004 23.3201 5.40004 27.9301C5.57004 28.2201 5.98004 28.5701 5.52004 28.8701C5.41004 28.9401 4.91004 28.5701 4.73004 28.3101C3.52004 26.4701 2.83004 24.4201 2.54004 22.2401C2.12004 19.1401 2.61004 16.1701 4.04004 13.3801C6.42004 8.73008 10.22 5.97008 15.36 5.13008C18.51 4.62008 21.55 5.07008 24.44 6.48008C24.63 6.57008 24.83 6.66008 25.18 6.81008C25.09 5.99008 25 5.29008 24.93 4.58008C24.89 4.21008 24.86 3.84008 24.89 3.47008C24.9 3.34008 25.07 3.21008 25.16 3.08008C25.28 3.18008 25.48 3.27008 25.51 3.40008C25.61 3.76008 25.64 4.13008 25.69 4.50008C25.8 5.37008 25.91 6.24008 26.02 7.10008C26.09 7.60008 25.86 7.94008 25.43 8.17008C24.45 8.71008 23.48 9.27008 22.49 9.77008C22.3 9.86008 22.01 9.74008 21.76 9.72008C21.88 9.52008 21.95 9.23008 22.12 9.12008C22.69 8.76008 23.31 8.47008 23.9 8.14008C24.19 7.98008 24.46 7.80008 24.9 7.52008Z" fill="#2776EA"/>
<path d="M57.88 3.65009C58.97 3.65009 60.07 3.63009 61.16 3.66009C63.08 3.70009 64.9 5.07009 65.36 6.85009C65.49 7.37009 65.48 7.93008 65.48 8.48008C65.5 9.58008 65.49 9.57009 66.55 9.58009C66.83 9.58009 67.12 9.57009 67.4 9.62009C68.15 9.76009 68.43 10.3201 68.03 10.9801C67.33 12.1401 66.61 13.2901 65.86 14.4201C65.43 15.0701 64.81 15.0901 64.37 14.4401C63.59 13.2801 62.85 12.0901 62.13 10.8901C61.81 10.3601 62.05 9.80009 62.66 9.68009C63.13 9.58009 63.62 9.65009 64.09 9.57009C64.3 9.53009 64.61 9.33009 64.63 9.17009C64.9 6.90009 64.29 5.26009 61.65 4.54009C61.36 4.46009 61.04 4.47008 60.74 4.47008C58.77 4.46008 56.8 4.47008 54.83 4.46008C54.63 4.46008 54.42 4.50009 54.24 4.43009C54.07 4.36009 53.94 4.19008 53.79 4.06008C53.94 3.93009 54.07 3.76009 54.25 3.69009C54.4 3.63009 54.59 3.67009 54.77 3.67009C55.82 3.65009 56.85 3.65009 57.88 3.65009ZM67.38 10.5301C65.77 10.5301 64.37 10.5301 62.87 10.5301C63.62 11.7001 64.34 12.8301 65.14 14.0901C65.9 12.8701 66.58 11.7901 67.38 10.5301Z" fill="#2776EA"/>
<path d="M46.1602 30.3403C47.2302 30.3403 48.3002 30.3403 49.3802 30.3403C49.5802 30.3403 49.7902 30.3203 49.9602 30.4103C50.1102 30.4803 50.2702 30.6703 50.2902 30.8203C50.3102 30.9303 50.1102 31.0903 49.9802 31.1803C49.9002 31.2403 49.7702 31.2403 49.6602 31.2403C47.3002 31.2103 44.9302 31.2603 42.5802 31.1103C40.2802 30.9603 38.6502 29.1603 38.5402 26.8503C38.5102 26.2603 38.2802 26.0803 37.7402 26.1203C37.3902 26.1403 37.0402 26.1503 36.6902 26.0903C35.9802 25.9803 35.6602 25.4003 36.0202 24.7803C36.7202 23.5903 37.4502 22.4203 38.2202 21.2803C38.6302 20.6603 39.3202 20.6803 39.7302 21.3003C40.4502 22.3903 41.1602 23.5003 41.8402 24.6203C42.3202 25.4103 41.9602 26.0403 41.0202 26.1103C40.7202 26.1303 40.4102 26.1203 40.1002 26.1203C39.3802 26.1303 39.2702 26.2603 39.3502 26.9903C39.5802 28.9903 41.0402 30.3103 43.0702 30.3303C44.1002 30.3503 45.1302 30.3403 46.1602 30.3403ZM41.2602 25.2503C40.4602 23.9703 39.7602 22.8603 38.9702 21.6003C38.1602 22.9003 37.4502 24.0303 36.6802 25.2503C38.2302 25.2503 39.6302 25.2503 41.2602 25.2503Z" fill="#2776EA"/>
<path d="M47.8701 35.7497C47.8601 37.3797 46.5101 38.7397 44.9001 38.7397C43.3001 38.7397 41.8501 37.3097 41.8501 35.7197C41.8501 34.1397 43.3301 32.6697 44.8901 32.6997C46.5601 32.7397 47.8901 34.0897 47.8701 35.7497ZM47.0601 35.7497C47.0701 34.5597 46.1101 33.5397 44.9401 33.5097C43.7101 33.4797 42.7401 34.4397 42.7401 35.6997C42.7301 36.9397 43.6701 37.9197 44.8601 37.9097C46.0201 37.9097 47.0501 36.9097 47.0601 35.7497Z" fill="#2776EA"/>
<path d="M38.2801 35.1904C39.9101 35.1904 41.2601 36.5204 41.2901 38.1304C41.3101 39.7604 39.9301 41.1304 38.2801 41.1304C36.5801 41.1304 35.2601 39.8304 35.2501 38.1604C35.2401 36.5404 36.6201 35.1904 38.2801 35.1904ZM38.2401 40.3204C39.4301 40.3304 40.4401 39.3804 40.4501 38.2604C40.4501 37.0104 39.5001 36.0004 38.2901 36.0004C37.0401 35.9904 36.0501 36.9504 36.0501 38.1704C36.0601 39.3604 37.0201 40.3204 38.2401 40.3204Z" fill="#2776EA"/>
<path d="M28.6602 35.65C28.6702 34.09 30.0402 32.71 31.5802 32.71C33.2402 32.71 34.6102 34.07 34.6002 35.7C34.5902 37.37 33.2502 38.75 31.6302 38.75C29.9702 38.74 28.6502 37.36 28.6602 35.65ZM29.4602 35.71C29.4502 36.96 30.3502 37.9 31.5802 37.93C32.7102 37.96 33.7702 36.92 33.7902 35.77C33.8102 34.54 32.8402 33.55 31.6102 33.52C30.4202 33.49 29.4702 34.46 29.4602 35.71Z" fill="#2776EA"/>
<path d="M45.3801 52.4104C45.3801 53.5004 45.4001 54.5904 45.3601 55.6804C45.3501 55.9004 45.1101 56.1104 44.9801 56.3304C44.8401 56.1204 44.5901 55.9104 44.5801 55.7004C44.5501 53.5004 44.5501 51.2904 44.5801 49.0904C44.5801 48.8704 44.8301 48.6604 44.9701 48.4404C45.1001 48.6504 45.3401 48.8604 45.3501 49.0804C45.4001 50.1804 45.3801 51.3004 45.3801 52.4104Z" fill="#2776EA"/>
<path d="M37.86 54.7902C37.86 53.7202 37.84 52.6502 37.88 51.5802C37.89 51.3502 38.11 51.1302 38.23 50.9102C38.38 51.1402 38.65 51.3601 38.66 51.5901C38.69 53.7501 38.69 55.9201 38.66 58.0901C38.66 58.3301 38.4 58.5602 38.26 58.8002C38.13 58.5602 37.89 58.3301 37.88 58.0901C37.83 56.9701 37.86 55.8802 37.86 54.7902Z" fill="#2776EA"/>
<path d="M31.8502 52.4202C31.8502 53.4902 31.8702 54.5602 31.8302 55.6302C31.8202 55.8602 31.6102 56.0802 31.4902 56.3102C31.3402 56.0802 31.0602 55.8502 31.0602 55.6202C31.0302 53.4802 31.0402 51.3402 31.0402 49.2002C31.0402 49.0902 31.0302 48.9602 31.0802 48.8802C31.2002 48.7202 31.3602 48.5902 31.5002 48.4502C31.6102 48.6102 31.8102 48.7802 31.8102 48.9402C31.8502 50.1102 31.8402 51.2702 31.8502 52.4202C31.8402 52.4202 31.8402 52.4202 31.8502 52.4202Z" fill="#2776EA"/>
<path d="M65.1901 49.6904C65.2901 50.0404 65.4601 50.3104 65.3801 50.4504C64.7701 51.5804 64.1201 52.6904 63.4501 53.7804C63.3801 53.8904 63.0801 53.8604 62.8901 53.9004C62.8701 53.7004 62.7601 53.4604 62.8401 53.3204C63.4201 52.2504 64.0401 51.2004 64.6601 50.1404C64.7401 50.0004 64.9101 49.9204 65.1901 49.6904Z" fill="#2776EA"/>
<path d="M68.9601 31.2004C68.8201 31.3604 68.6701 31.5404 68.5101 31.7204C68.3601 31.5704 68.1101 31.4304 68.0801 31.2504C67.8501 30.0704 67.6601 28.8804 67.4901 27.6904C67.4701 27.5304 67.6501 27.3304 67.7401 27.1504C67.9101 27.2804 68.1901 27.3904 68.2301 27.5504C68.5001 28.7304 68.7101 29.9204 68.9601 31.2004Z" fill="#2776EA"/>
<path d="M68.2102 43.0798C67.8002 44.3498 67.4102 45.5698 66.9902 46.7898C66.9502 46.8998 66.6702 47.0298 66.5802 46.9798C66.4402 46.9098 66.3102 46.7098 66.2902 46.5498C66.2702 46.3698 66.3602 46.1698 66.4202 45.9798C66.7102 44.9998 67.0002 44.0098 67.3202 43.0398C67.3802 42.8598 67.6302 42.7398 67.7902 42.5898C67.9102 42.7498 68.0402 42.8898 68.2102 43.0798Z" fill="#2776EA"/>
<path d="M69.0701 36.4901C69.0101 37.2901 68.9801 38.1001 68.8601 38.8901C68.8301 39.1101 68.5601 39.2901 68.4001 39.4801C68.2801 39.2601 68.0501 39.0501 68.0601 38.8301C68.0801 37.7401 68.1401 36.6601 68.2501 35.5801C68.2701 35.3301 68.5101 35.1001 68.6601 34.8701C68.7901 35.1001 68.9801 35.3201 69.0301 35.5701C69.1001 35.8601 69.0501 36.1801 69.0501 36.4801C69.0501 36.4901 69.0601 36.4901 69.0701 36.4901Z" fill="#2776EA"/>
<path d="M24.4301 67.6503C23.9001 67.4603 23.3601 67.2803 22.8301 67.0703C22.1601 66.8103 21.4901 66.5503 20.8501 66.2303C20.7001 66.1603 20.6701 65.8503 20.5901 65.6603C20.7801 65.6103 21.0101 65.4703 21.1601 65.5303C22.2701 65.9303 23.3601 66.3603 24.4501 66.8203C24.6201 66.8903 24.7601 67.1503 24.8201 67.3503C24.8601 67.4903 24.7301 67.6803 24.6801 67.8503C24.5901 67.7803 24.5101 67.7103 24.4301 67.6503Z" fill="#2776EA"/>
<path d="M61.2101 56.7202C61.1101 56.8902 61.0401 57.0502 60.9301 57.1802C60.1401 58.0202 59.3601 58.8702 58.5301 59.6802C58.4001 59.8102 58.0801 59.7602 57.8501 59.7902C57.8901 59.5802 57.8601 59.3102 57.9801 59.1702C58.7601 58.2902 59.5601 57.4302 60.3801 56.5802C60.5001 56.4502 60.7601 56.4302 60.9501 56.4102C61.0401 56.4202 61.1201 56.6002 61.2101 56.7202Z" fill="#2776EA"/>
<path d="M14.23 61.4004C14.39 61.4904 14.51 61.5504 14.62 61.6204C15.54 62.2404 16.47 62.8604 17.37 63.5104C17.55 63.6404 17.6 63.9504 17.72 64.1804C17.47 64.1804 17.16 64.2904 16.98 64.1704C16.02 63.5604 15.09 62.9204 14.17 62.2504C14.02 62.1404 13.96 61.8604 13.92 61.6504C13.91 61.5904 14.12 61.4904 14.23 61.4004Z" fill="#2776EA"/>
<path d="M4.69 49.3506C4.75 49.5206 4.8 49.6906 4.88 49.8506C5.44 50.8606 6.03 51.8606 6.57 52.8806C6.65 53.0406 6.55 53.3006 6.53 53.5206C6.31 53.4406 5.99 53.4306 5.9 53.2806C5.31 52.3106 4.77 51.3206 4.23 50.3206C4.07 50.0106 4 49.6806 4.69 49.3506Z" fill="#2776EA"/>
<path d="M1.41992 42.6305C1.55992 42.4805 1.66992 42.2505 1.79992 42.2505C1.93992 42.2405 2.19993 42.3905 2.23993 42.5205C2.60993 43.7105 2.93992 44.9105 3.25992 46.1105C3.28992 46.2405 3.10992 46.4205 3.02992 46.5805C2.86992 46.4905 2.61993 46.4305 2.57993 46.3105C2.16993 45.1105 1.80992 43.9005 1.41992 42.6305Z" fill="#2776EA"/>
<path d="M0.670116 36.2C0.670116 35.85 0.620117 35.49 0.690117 35.15C0.730117 34.92 0.930118 34.72 1.06012 34.5C1.19012 34.72 1.37011 34.93 1.44011 35.17C1.50011 35.37 1.45012 35.6 1.46012 35.82C1.50012 36.65 1.57012 37.48 1.56012 38.31C1.56012 38.56 1.35012 38.8 1.23012 39.05C1.09012 38.82 0.850116 38.6 0.810116 38.35C0.700116 37.64 0.680117 36.92 0.620117 36.2C0.650117 36.2 0.660116 36.2 0.670116 36.2Z" fill="#2776EA"/>
<path d="M0.860352 30.6498C1.10035 29.4398 1.29035 28.3498 1.54035 27.2698C1.58035 27.0998 1.85035 26.9798 2.02035 26.8398C2.10035 27.0498 2.29035 27.2798 2.26035 27.4798C2.11035 28.5298 1.92035 29.5898 1.69035 30.6298C1.64035 30.8798 1.40035 31.0898 1.24035 31.3198C1.10035 31.0798 0.970352 30.8398 0.860352 30.6498Z" fill="#2776EA"/>
<path d="M11.73 59.4204C11.44 59.4604 11.11 59.5904 11.01 59.5004C10.12 58.6004 9.27002 57.6704 8.43002 56.7304C8.34002 56.6204 8.43002 56.3404 8.44002 56.1504C8.62002 56.1804 8.87002 56.1304 8.97002 56.2404C9.84002 57.1604 10.68 58.1004 11.53 59.0304C11.59 59.0804 11.61 59.1704 11.73 59.4204Z" fill="#2776EA"/>
<path d="M27.7301 2.30011C27.6801 2.26011 27.4501 2.15011 27.4401 2.02011C27.4301 1.88011 27.5901 1.61011 27.7101 1.59011C28.9601 1.38011 30.2101 1.20011 31.4601 1.05011C31.5901 1.03011 31.7401 1.25011 31.8901 1.35011C31.7601 1.47011 31.6401 1.67011 31.4901 1.71011C31.1301 1.81011 30.7601 1.82011 30.3901 1.88011C29.5401 2.01011 28.7001 2.14011 27.7301 2.30011Z" fill="#2776EA"/>
<path d="M38.8902 1.80012C37.8102 1.72012 36.7202 1.65012 35.6402 1.54012C35.4702 1.52012 35.3202 1.28012 35.1602 1.14012C35.3202 1.02012 35.4801 0.79012 35.6301 0.80012C36.8201 0.87012 38.0101 0.970122 39.2001 1.10012C39.3601 1.12012 39.5002 1.36012 39.6402 1.50012C39.4102 1.65012 39.1801 1.79012 38.9501 1.94012C38.9401 1.89012 38.9202 1.84012 38.8902 1.80012Z" fill="#2776EA"/>
<path d="M55.2 21.26C54.49 18.93 54.74 17.73 56.08 16.84C57.07 16.18 58.37 16.25 59.33 17.01C60.55 17.97 60.74 19.22 59.96 21.21C61.92 22.15 62.37 23.99 62.69 25.9C62.85 26.88 62.6 27.31 61.62 27.5C59 28.03 56.36 28.02 53.73 27.51C52.76 27.32 52.48 26.88 52.62 25.91C52.73 25.18 52.86 24.44 53.08 23.73C53.41 22.61 54.03 21.67 55.2 21.26ZM57.73 27.15C58.89 27.02 60.07 26.9 61.23 26.75C61.59 26.7 61.99 26.57 61.85 26.1C61.55 25.06 61.28 23.99 60.83 23.01C60.39 22.07 59.51 21.9 58.49 22.15C57.92 22.29 57.26 22.3 56.7 22.16C55.56 21.87 54.74 22.06 54.25 23.14C53.87 23.98 53.71 24.92 53.45 25.82C53.28 26.41 53.54 26.7 54.11 26.76C55.31 26.9 56.51 27.02 57.73 27.15ZM59.67 19.37C59.67 18.18 58.72 17.2 57.57 17.21C56.43 17.22 55.48 18.21 55.5 19.39C55.52 20.55 56.44 21.5 57.56 21.52C58.71 21.53 59.67 20.55 59.67 19.37Z" fill="#2776EA"/>
<path d="M17.6401 14.0401C21.0501 13.8101 23.9001 16.9801 23.8401 20.0601C23.7701 23.5701 21.1801 26.2701 17.7301 26.2701C14.3201 26.2701 11.6501 23.5901 11.5701 20.2401C11.4701 16.5301 14.7601 13.8301 17.6401 14.0401ZM12.3701 20.1601C12.3701 23.1701 14.6701 25.4701 17.6901 25.4801C20.7101 25.4801 22.9701 23.1901 23.0301 20.1801C23.0901 17.1901 20.7501 14.8201 17.8401 14.7601C14.5301 14.6801 12.1901 17.4901 12.3701 20.1601Z" fill="#2776EA"/>
<path d="M18.03 17.6405C18.03 17.8605 18.03 18.0805 18.03 18.3005C18.03 19.5805 18.03 19.5605 19.27 19.7205C19.46 19.7405 19.63 19.9505 19.82 20.0705C19.64 20.2105 19.45 20.3505 19.27 20.4905C19.26 20.5005 19.23 20.4905 19.21 20.4905C17.09 20.4905 17.38 20.6505 17.37 18.7505C17.36 17.9605 17.35 17.1705 17.39 16.3905C17.4 16.1905 17.63 16.0005 17.75 15.8105C17.84 16.0105 18 16.1905 18.02 16.4005C18.06 16.8105 18.03 17.2305 18.03 17.6405Z" fill="#2776EA"/>
</svg>
