<svg width="60" height="60" viewBox="0 0 60 60" fill="none" xmlns="http://www.w3.org/2000/svg">
<path d="M5.39326 58.999C21.8569 58.999 38.1786 58.999 54.6777 58.999C54.181 58.3889 53.6842 58.5796 53.2229 58.5796C49.178 58.5796 45.0976 58.5796 41.0526 58.5796C38.1431 58.5796 35.1981 58.5796 32.2886 58.5796C30.9403 58.5796 30.9048 58.5414 30.9048 57.0544C30.9048 55.5674 30.9048 54.0423 30.9048 52.5553C30.9048 52.2884 30.8693 51.9834 30.9758 51.7165C31.0467 51.5258 31.2951 51.3733 31.4725 51.2208C31.5789 51.4114 31.7918 51.5639 31.7918 51.7546C31.8273 52.9747 31.8273 54.1948 31.8273 55.4149C31.8273 55.8343 31.8628 56.2537 31.8273 56.6732C31.7209 57.3595 31.9338 57.7407 32.6434 57.6645C32.8563 57.6264 33.0692 57.6645 33.2821 57.6645C39.9172 57.6645 46.5523 57.6645 53.1875 57.6645C53.8971 57.6645 54.5358 57.7026 54.997 56.9019C55.3164 56.2919 55.9905 56.1775 56.6292 56.3681C57.3389 56.5969 57.7292 57.1307 57.8356 57.8551C57.9066 58.1983 57.8356 58.5796 57.8356 59.1134C58.4388 59.1134 58.971 59.0752 59.5387 59.1515C59.7161 59.1515 59.8581 59.4184 60 59.5709C59.8581 59.6853 59.6807 59.9141 59.5033 59.9522C59.1484 60.0285 58.7936 59.9903 58.4743 59.9903C39.4914 59.9903 20.5086 59.9903 1.52572 59.9903C1.13542 59.9903 0.745121 60.0285 0.35482 59.9522C0.248374 59.8759 0.141928 59.609 0 59.4565C0.106446 59.3421 0.248374 59.1134 0.35482 59.1134C0.922531 59.0752 1.49024 59.1134 2.12892 59.1134C2.09344 58.694 2.05795 58.3889 2.09344 58.0839C2.1644 57.3595 2.44826 56.7113 3.12241 56.4063C3.83205 56.1012 4.61266 56.2156 5.00296 56.8638C5.4997 57.6264 6.1029 57.6264 6.81254 57.6264C13.4477 57.6264 20.0828 57.6264 26.7179 57.6264C26.7534 57.6264 26.7889 57.6264 26.8598 57.6264C28.2436 57.6264 28.2436 57.6264 28.2436 56.1775C28.2436 54.9574 28.2436 53.7373 28.2436 52.5172C28.2436 52.2503 28.2082 51.9452 28.2791 51.6783C28.3146 51.4877 28.492 51.3352 28.5985 51.1445C28.7759 51.297 28.9888 51.4496 29.0952 51.6402C29.1662 51.7927 29.1307 52.0215 29.1307 52.174C29.1307 53.8516 29.1307 55.5674 29.1307 57.2451C29.1307 58.3508 29.0242 58.4652 27.9953 58.4652C26.647 58.5033 25.2986 58.4652 23.9503 58.4652C18.2377 58.4652 12.5251 58.4652 6.81254 58.4652C6.38675 58.5414 5.89001 58.3889 5.39326 58.999ZM4.64814 58.122C4.64814 57.512 4.18687 57.2832 3.86753 57.207C3.40627 57.1307 3.05145 57.4738 3.01597 58.0458C2.98048 58.5796 3.44175 59.1515 3.86753 58.999C4.18687 58.8846 4.64814 58.694 4.64814 58.122ZM57.0195 58.0839C57.0195 57.3213 56.6292 57.3595 56.2744 57.207C55.8841 57.0163 55.3519 57.5882 55.3873 58.122C55.3873 58.6558 55.7067 59.0752 56.1679 58.999C56.5228 58.9609 57.0195 58.6558 57.0195 58.0839Z" fill="#2776EA"/>
<path d="M13.5541 29.5641C13.3767 29.3354 13.2347 29.1829 13.0928 28.9922C11.2123 26.6283 11.5671 23.4636 13.9799 21.6716C14.5476 21.2522 14.6895 20.9471 14.4411 20.2227C13.767 17.8969 14.9379 15.876 17.2087 15.4566C17.7055 15.3804 17.9893 15.2279 18.2022 14.7322C18.8409 12.9402 20.0473 11.9488 21.8214 11.72C22.2472 11.6438 22.6729 11.3006 22.9923 10.9956C24.1987 9.85176 25.547 9.5086 27.0017 10.1949C28.0662 10.6906 28.7758 11.5294 28.9532 12.8258C29.0597 13.474 29.0952 14.1221 29.0952 14.7703C29.0952 22.701 29.0952 30.6317 29.0952 38.5625C29.0952 40.8883 29.0952 43.2522 28.9887 45.5781C28.8468 48.4377 26.7888 50.306 24.1277 50.0772C22.5665 49.9247 21.4311 49.0859 20.6859 47.637C20.4021 47.0651 20.0473 46.7601 19.4086 46.6457C17.8119 46.3025 16.7474 45.3112 16.3571 43.5573C16.2152 42.9091 15.9668 42.5659 15.3282 42.3372C13.3057 41.6127 12.3477 39.7444 12.809 37.4567C12.8799 37.0373 12.9509 36.6942 12.7025 36.2747C11.1768 33.6439 11.3542 32.0044 13.3767 29.9073C13.4121 29.8692 13.4476 29.7548 13.5541 29.5641ZM23.6309 11.72C24.0567 12.0251 24.447 12.2157 24.6954 12.4826C25.0502 12.8258 25.3341 13.2452 25.6179 13.6646C25.6889 13.779 25.6179 14.0459 25.5115 14.1603C25.4405 14.2365 25.1922 14.1984 25.0502 14.1221C24.9083 14.0459 24.7664 13.8934 24.6599 13.7409C23.2052 11.6057 19.586 12.5589 18.9118 15.2279C18.7344 16.0667 18.4151 16.2955 17.599 16.3336C15.8604 16.3717 14.6895 18.1637 15.1862 19.8414C15.3637 20.4896 15.6475 20.909 16.3926 20.8327C16.8894 20.7946 17.4571 20.909 17.9184 21.0615C19.8699 21.7859 20.9343 23.273 21.1827 25.4081C21.2182 25.7894 21.3246 26.247 20.8279 26.2851C20.6859 26.2851 20.4731 25.8657 20.3666 25.5988C20.2247 25.1794 20.2247 24.6837 20.0473 24.2643C19.4796 22.701 17.9184 21.6334 16.4636 21.6716C14.9379 21.7478 13.4831 22.8535 12.9509 24.3787C12.4187 25.9801 12.8444 27.6959 14.1573 28.8016C14.5476 29.1447 15.0443 29.3354 15.5411 29.526C16.9603 30.1361 18.0248 31.6231 17.9538 33.0338C17.9538 33.2626 17.7055 33.4532 17.599 33.6439C17.4571 33.4914 17.2442 33.3389 17.2087 33.1482C17.0668 32.2331 16.7474 31.4706 16.0733 30.8605C15.1153 30.0598 14.3347 30.1361 13.5186 31.013C12.2412 32.3475 12.2058 34.2921 13.5186 35.8172C13.9089 36.2747 14.0153 36.5798 13.8024 37.228C13.0928 39.325 14.0508 41.1933 16.0733 41.5365C16.9603 41.689 17.0668 42.0703 17.1378 42.871C17.4216 45.1587 19.5505 46.4169 21.5375 45.5399C23.56 44.663 24.2696 41.8415 22.9923 39.8588C22.7794 39.5538 22.531 39.2869 22.3536 38.9819C22.2826 38.8675 22.3181 38.6006 22.4246 38.4862C22.531 38.4099 22.7794 38.3718 22.8858 38.4481C23.1697 38.6768 23.4181 38.9437 23.6309 39.2488C25.2631 41.6127 24.518 44.968 22.1052 46.3406C21.2891 46.7982 21.2537 46.9888 21.8214 47.7514C23.5245 50.0391 26.8953 49.5434 27.9243 46.7982C28.1726 46.1119 28.2436 45.3493 28.2436 44.5867C28.2436 34.6734 28.2436 24.7218 28.2436 14.7703C28.2436 14.3128 28.2436 13.8171 28.2081 13.3596C28.0662 12.2538 27.5694 11.3769 26.6114 10.9956C25.547 10.5381 24.5535 10.6906 23.6309 11.72Z" fill="#2776EA"/>
<path d="M46.3394 29.7924C46.5523 29.9067 46.7297 29.983 46.8361 30.0974C48.5748 31.9275 48.7877 33.8721 47.4039 36.0073C47.12 36.4648 47.0136 36.8461 47.12 37.418C47.5813 39.8201 46.6942 41.4978 44.4943 42.3366C44.0331 42.5272 43.7847 42.7179 43.6783 43.2517C43.288 45.1962 42.1525 46.3782 40.3075 46.6451C39.7043 46.7214 39.5623 47.1789 39.314 47.5983C38.1785 49.6191 36.1916 50.5342 34.1691 49.886C32.324 49.3141 31.0467 47.6746 31.0112 45.5775C30.9402 42.3747 30.9757 39.2101 30.9402 36.0073C30.9402 28.9535 30.9047 21.8616 30.8693 14.8079C30.8693 14.1978 30.9047 13.5878 31.0112 12.9777C31.5434 10.0037 34.5949 8.82172 36.7593 10.7663C37.3979 11.3382 38.0011 11.6814 38.8172 11.8339C40.201 12.1008 41.1945 13.0158 41.7267 14.3885C42.0106 15.0748 42.3299 15.3417 43.0396 15.4942C45.0975 15.9136 46.1975 17.9344 45.6298 20.184C45.4878 20.794 45.3459 21.2135 45.9846 21.5947C48.5393 23.1199 48.8941 27.1996 46.8007 29.2204C46.6587 29.2967 46.5878 29.4111 46.3394 29.7924ZM38.6753 46.7214C38.2495 46.4926 37.8947 46.302 37.5399 46.1113C35.1981 44.5862 34.8078 40.5827 36.8657 38.6763C37.0786 38.4475 37.3625 38.1425 37.6108 38.5619C37.7173 38.7144 37.5754 39.0576 37.4689 39.2863C37.1496 40.087 36.6173 40.8496 36.4399 41.6503C36.0496 43.6711 37.3979 45.5394 39.243 45.8063C41.1236 46.0732 42.6493 44.8149 42.8267 42.6798C42.8976 41.9553 43.146 41.6884 43.8202 41.5359C45.9491 41.1165 46.9426 39.2482 46.1265 37.1511C45.8427 36.4267 46.1265 36.1598 46.4813 35.7023C47.7587 34.1009 47.6877 32.2326 46.4104 30.9362C45.6298 30.1736 45.0975 30.0974 44.175 30.6693C43.288 31.2412 42.8622 32.1182 42.7202 33.1858C42.7202 33.3383 42.4364 33.4908 42.2945 33.6052C42.188 33.4145 41.9751 33.262 41.9751 33.0714C42.0106 31.5844 42.6493 30.4787 43.8557 29.7542C44.246 29.5254 44.6717 29.4111 45.062 29.2204C46.9781 28.3053 47.7587 26.0939 46.8716 24.0731C46.162 22.5098 44.6717 21.4804 43.217 21.6329C41.5493 21.7854 40.1655 23.0436 39.7043 24.7594C39.6333 25.0263 39.6688 25.3313 39.5623 25.5982C39.4559 25.8651 39.243 26.0558 39.0656 26.2845C38.9592 26.0176 38.7463 25.7126 38.7817 25.4457C38.8172 24.9119 38.9237 24.3019 39.1366 23.8062C39.9526 21.8998 41.3719 20.8703 43.3589 20.794C44.4589 20.7178 44.8137 20.3746 44.8846 19.1927C44.9556 18.0488 44.3169 16.9431 43.3234 16.5237C42.9331 16.3711 42.4719 16.2568 42.0461 16.2949C41.5139 16.2949 41.23 16.1042 41.159 15.5323C41.159 15.3798 41.0881 15.2654 41.0171 15.151C40.0591 12.4058 37.1851 11.7195 35.2335 13.7784C35.2335 13.8928 35.1626 14.0453 35.0561 14.0834C34.9142 14.1597 34.7013 14.236 34.5949 14.1597C34.4884 14.0834 34.382 13.7784 34.4529 13.7022C34.7013 13.2827 34.9852 12.8633 35.3045 12.4821C35.5884 12.177 35.9787 11.9864 36.369 11.6814C35.5884 10.7663 34.7368 10.5375 33.7078 10.8807C32.6434 11.2238 32.0047 12.0245 31.8273 13.1684C31.7563 13.7403 31.7563 14.3885 31.7563 14.9985C31.7563 24.7594 31.7918 34.4821 31.7918 44.243C31.7918 44.8149 31.7918 45.3869 31.8628 45.9207C32.1111 47.6364 33.424 48.9709 35.0207 49.1997C36.6173 49.3904 37.9657 48.5515 38.6753 46.7214Z" fill="#2776EA"/>
<path d="M42.7911 1.387C46.2683 1.387 49.781 1.387 53.2583 1.387C53.9324 1.387 54.4646 1.34887 54.9259 0.662561C55.5646 -0.252521 56.7 -0.176265 57.4451 0.624432C58.1193 1.387 58.0838 2.37834 57.3742 3.10278C56.6645 3.82722 55.5646 3.90348 54.9614 3.02652C54.5001 2.37834 53.9679 2.26395 53.2937 2.26395C46.5167 2.26395 39.7751 2.26395 32.9981 2.26395C31.7917 2.26395 31.7562 2.26395 31.7562 3.56032C31.7562 4.85669 31.7562 6.19118 31.7207 7.48755C31.7207 7.75445 31.7562 8.05947 31.6497 8.32637C31.6497 8.51701 31.4369 8.70766 31.2594 8.74578C31.1885 8.78391 30.9756 8.55514 30.9401 8.40263C30.8691 8.21199 30.8691 7.94509 30.8691 7.71632C30.8691 6.03867 30.8691 4.32289 30.8691 2.64524C30.8691 1.46326 30.9401 1.387 32.0755 1.387C35.6592 1.387 39.2429 1.387 42.7911 1.387ZM57.0193 1.9208C57.0193 1.19636 56.5936 1.04384 56.2742 0.967588C55.813 0.853203 55.4581 1.19636 55.3872 1.73016C55.3162 2.26395 55.7065 2.83588 56.1678 2.7215C56.5226 2.64524 57.0193 2.41647 57.0193 1.9208Z" fill="#2776EA"/>
<path d="M16.8188 2.26442C13.519 2.26442 10.1837 2.26442 6.88388 2.26442C6.17424 2.26442 5.57105 2.30255 5.0743 3.02699C4.43562 3.90394 3.3002 3.86581 2.66153 3.14137C1.98737 2.41693 1.95189 1.31121 2.62604 0.624899C3.37117 -0.175797 4.50659 -0.213926 5.14526 0.701156C5.64201 1.38747 6.17424 1.4256 6.8484 1.4256C13.6609 1.4256 20.438 1.4256 27.2505 1.4256C27.4634 1.4256 27.6763 1.4256 27.8892 1.4256C29.0956 1.38747 29.1666 1.4256 29.1666 2.79822C29.1666 4.39961 29.1666 6.00101 29.1666 7.56427C29.1666 7.83117 29.1666 8.1362 29.0956 8.4031C29.0601 8.55561 28.8827 8.74625 28.7763 8.74625C28.6343 8.78438 28.386 8.59374 28.386 8.47935C28.2795 8.1362 28.244 7.75491 28.244 7.37363C28.244 6.00101 28.244 4.66651 28.244 3.29389C28.244 2.30255 28.2085 2.26442 27.2505 2.26442C23.7733 2.26442 20.2961 2.26442 16.8188 2.26442ZM4.64852 1.84501C4.64852 1.04431 4.18725 1.08244 3.86791 0.968055C3.40665 0.815541 2.94538 1.38747 3.01635 1.92127C3.08731 2.45506 3.40665 2.83635 3.86791 2.72196C4.18725 2.64571 4.64852 2.34068 4.64852 1.84501Z" fill="#2776EA"/>
<path d="M4.29344 38.142C4.29344 39.2096 4.32892 40.3153 4.29344 41.3829C4.25795 42.2217 4.29344 42.9462 5.03856 43.5944C5.81916 44.2426 5.71271 45.3483 5.03856 46.0727C4.43536 46.759 3.47735 46.8353 2.76771 46.2252C1.95163 45.5771 1.8097 44.2426 2.62578 43.5181C3.26446 42.9462 3.33542 42.3361 3.33542 41.5736C3.33542 38.9046 3.33542 36.2356 3.33542 33.5666C3.33542 32.3465 3.3709 32.3084 4.50633 32.3084C6.20946 32.3084 7.9126 32.3084 9.61573 32.3084C9.79314 32.3084 9.97055 32.2702 10.148 32.3465C10.3609 32.4609 10.5028 32.6515 10.7157 32.804C10.5737 32.9565 10.3963 33.1472 10.2189 33.1853C9.93507 33.2234 9.61573 33.1853 9.29639 33.1853C7.9126 33.1853 6.49332 33.2234 5.10952 33.1853C4.50633 33.1853 4.25795 33.4141 4.25795 34.0623C4.29344 35.4349 4.29344 36.8075 4.29344 38.142ZM3.83217 45.6152C4.47085 45.6152 4.57729 45.1958 4.64825 44.8145C4.71922 44.2807 4.3644 43.9375 3.86765 43.9375C3.40639 43.8994 2.87416 44.4332 3.05157 44.9289C3.15801 45.272 3.22898 45.6152 3.83217 45.6152Z" fill="#2776EA"/>
<path d="M56.665 37.9523C56.665 39.2105 56.665 40.4687 56.665 41.727C56.665 42.4514 56.736 43.0233 57.3747 43.5571C58.1553 44.2053 58.1198 45.2729 57.5166 46.0736C56.9489 46.7599 56.0264 46.9124 55.2812 46.3405C54.3942 45.6923 54.2523 44.3197 55.1038 43.5571C55.778 42.9852 55.8135 42.3752 55.8135 41.6126C55.8135 39.2105 55.8135 36.8465 55.8135 34.4444C55.8135 33.2243 55.778 33.2243 54.6426 33.2243C53.3297 33.2243 52.0169 33.2243 50.7396 33.2243C50.4202 33.2243 50.1364 33.2625 49.817 33.1862C49.6396 33.1481 49.5332 32.9193 49.3912 32.7668C49.4977 32.6524 49.6041 32.4618 49.7461 32.4236C49.9589 32.3474 50.1718 32.3855 50.3847 32.3855C52.1233 32.3855 53.862 32.3855 55.6006 32.3855C56.5941 32.3855 56.7005 32.4999 56.7005 33.6437C56.665 35.0545 56.665 36.5034 56.665 37.9523ZM56.2038 45.6542C56.807 45.5398 56.9489 45.1585 57.0199 44.7772C57.1263 44.2816 56.5586 43.7859 56.0973 43.9003C55.6006 44.0147 55.2812 44.3578 55.4232 44.8916C55.4941 45.2729 55.5651 45.6542 56.2038 45.6542Z" fill="#2776EA"/>
<path d="M7.30906 22.0535C7.30906 20.6809 7.30906 19.3464 7.30906 17.9738C7.30906 17.2875 7.20261 16.7537 6.67038 16.258C5.8543 15.5717 5.8543 14.4278 6.52845 13.7034C7.16713 12.979 8.23159 12.9408 8.87026 13.589C9.5799 14.3135 9.72183 15.5717 8.97671 16.1817C8.23159 16.7918 8.16062 17.5162 8.16062 18.3932C8.1961 20.719 8.16062 23.083 8.1961 25.4088C8.1961 26.5908 8.23159 26.5908 9.26056 26.6289C9.47346 26.6289 9.68635 26.6289 9.89924 26.6289C10.2541 26.6289 10.7153 26.5145 10.6798 27.0483C10.6798 27.2009 10.2186 27.4296 9.9702 27.4296C6.77683 27.4296 7.34454 27.849 7.30906 24.8369C7.30906 23.9218 7.30906 23.0067 7.30906 22.0535ZM8.51544 14.9616C8.51544 14.2753 8.19611 14.2372 7.84129 14.0847C7.4155 13.894 6.91875 14.466 6.91875 14.9616C6.91875 15.4954 7.23809 15.9148 7.69936 15.8386C8.05418 15.8005 8.51544 15.4954 8.51544 14.9616Z" fill="#2776EA"/>
<path d="M50.9877 27.5054C50.5265 27.4672 50.0297 27.4291 49.5684 27.3529C49.462 27.3529 49.3201 27.1241 49.3201 27.086C49.3556 26.9335 49.4975 26.7047 49.6039 26.7047C50.0652 26.6284 50.5619 26.6284 51.0232 26.6284C51.5554 26.6284 51.8038 26.3997 51.8038 25.7896C51.8038 23.0444 51.7683 20.261 51.8038 17.5157C51.8038 16.8675 51.378 16.6388 51.0587 16.2956C50.5619 15.7618 50.3845 15.1136 50.6329 14.3511C50.8458 13.6648 51.3425 13.2835 51.9812 13.2072C52.7618 13.0928 53.4005 13.436 53.7198 14.1223C54.0747 14.8086 54.0392 15.6856 53.436 16.1812C52.6909 16.7913 52.6199 17.5157 52.6554 18.3927C52.6909 20.9092 52.6554 23.4638 52.6554 25.9802C52.6554 27.5054 52.6554 27.5054 51.2006 27.5054C51.1297 27.5054 51.0232 27.5054 50.9522 27.5054C50.9877 27.5054 50.9877 27.5054 50.9877 27.5054ZM52.2651 15.7618C52.9747 15.7618 52.9747 15.3805 53.0457 14.9993C53.1876 14.5036 52.6909 14.0079 52.1941 14.046C51.6974 14.0842 51.3425 14.4655 51.449 14.9611C51.52 15.3424 51.6619 15.7618 52.2651 15.7618Z" fill="#2776EA"/>
<path d="M18.9828 53.9277C18.4151 53.9277 17.8473 53.9277 17.2796 53.9277C16.57 53.9277 15.9668 53.8895 15.4701 54.6902C14.9378 55.529 13.7669 55.4147 13.0573 54.6902C12.3831 54.0039 12.3476 52.9363 13.0218 52.1737C13.6605 51.4493 14.7959 51.2587 15.3281 52.0594C15.9668 53.0126 16.7829 52.9363 17.6344 52.9363C18.6634 52.9363 19.7279 52.9363 20.7569 52.9363C21.2891 52.9363 21.7149 52.8601 21.6439 52.0975C21.6439 51.8687 21.6439 51.5637 21.7858 51.4493C21.8923 51.3349 22.1761 51.4112 22.389 51.373C22.389 52.0975 22.4245 52.8219 22.3536 53.5464C22.3536 53.6989 21.8213 53.8514 21.5729 53.8514C20.7214 53.9277 19.8698 53.8895 18.9828 53.9277C18.9828 53.8895 18.9828 53.8895 18.9828 53.9277ZM15.1152 53.432C15.0798 52.8982 14.8314 52.555 14.3346 52.555C13.8379 52.5169 13.4121 52.9744 13.4831 53.5082C13.5185 54.042 13.8379 54.3471 14.3346 54.3089C14.8314 54.3089 15.0798 53.9658 15.1152 53.432Z" fill="#2776EA"/>
<path d="M37.3978 52.5933C37.3978 52.5552 37.3978 52.5171 37.3978 52.4408C37.4688 51.9833 37.3269 51.3732 37.9301 51.2207C38.001 51.2207 38.2494 51.8689 38.3204 52.2502C38.3913 52.7077 38.5687 52.8984 38.9945 52.8984C40.4848 52.8984 41.975 52.8602 43.4298 52.8984C44.033 52.9365 44.2104 52.4027 44.5297 52.0595C45.1684 51.4113 46.1264 51.3732 46.8005 51.9451C47.4392 52.4789 47.6166 53.4322 47.2618 54.2328C46.8005 55.2623 45.3813 55.5673 44.6007 54.6523C43.9975 53.8897 43.3233 53.8516 42.5427 53.8516C41.2299 53.8897 39.917 53.8897 38.6042 53.8516C37.5398 53.8897 37.3978 53.7372 37.3978 52.5933ZM46.5167 53.4322C46.5167 52.7077 46.1264 52.7077 45.8071 52.5933C45.3103 52.4408 44.8845 52.9365 44.92 53.4703C44.9555 54.0041 45.2393 54.3854 45.7361 54.3091C46.0554 54.2328 46.5167 53.966 46.5167 53.4322Z" fill="#2776EA"/>
<path d="M22.5662 8.02108C22.5662 8.44049 22.6017 8.85991 22.5307 9.27932C22.4953 9.43183 22.2824 9.62247 22.105 9.6606C22.0695 9.73686 21.8211 9.46996 21.7856 9.35558C21.7147 8.85991 21.6792 8.32611 21.6792 7.83044C21.6792 7.25851 21.4663 6.99161 20.8986 6.99161C19.4438 7.02974 18.0245 7.02974 16.5698 6.99161C16.0375 6.99161 15.8247 7.3729 15.5408 7.71605C14.8312 8.51675 13.8377 8.59301 13.128 7.86857C12.4184 7.14413 12.3829 6.11466 12.9861 5.35209C13.6248 4.58952 14.9021 4.39888 15.3989 5.19958C16.0375 6.11466 16.7472 6.11466 17.5633 6.07653C18.8406 6.07653 20.0825 6.0384 21.3598 6.07653C22.5307 6.07653 22.5662 6.15279 22.6017 7.44916C22.6017 7.6398 22.6017 7.83044 22.5662 8.02108C22.6017 8.02108 22.6017 8.02108 22.5662 8.02108ZM14.2989 5.54273C13.8022 5.54273 13.5893 6.15279 13.4828 6.49594C13.3764 7.02974 13.9441 7.52541 14.4054 7.44916C14.8666 7.33477 15.2569 6.99161 15.115 6.45782C15.0086 6.11466 14.9021 5.54273 14.2989 5.54273Z" fill="#2776EA"/>
<path d="M40.8399 6.07747C41.4786 6.07747 42.1528 6.03934 42.7914 6.07747C43.4656 6.1156 43.9978 6.00122 44.4591 5.3149C45.1333 4.39982 46.3042 4.47608 46.9783 5.27678C47.617 6.07747 47.5815 7.06881 46.9074 7.79325C46.1268 8.55582 45.0268 8.55582 44.3881 7.64074C43.9978 7.03068 43.5366 6.95443 42.9689 6.95443C41.6915 6.99255 40.4496 6.99255 39.1723 6.95443C38.4626 6.9163 38.2498 7.25945 38.2852 7.94576C38.3207 8.40331 38.2852 8.89898 38.2498 9.35652C38.2498 9.50903 38.0369 9.69967 37.9304 9.69967C37.7885 9.69967 37.5401 9.54716 37.5401 9.43277C37.5046 8.47956 37.4692 7.48822 37.5401 6.53501C37.5401 6.3825 38.0014 6.15373 38.2498 6.1156C39.1013 6.07747 39.9884 6.1156 40.8399 6.07747C40.8399 6.1156 40.8399 6.1156 40.8399 6.07747ZM45.7365 5.65806C45.0623 5.65806 45.0623 6.1156 44.9558 6.45876C44.8139 6.95443 45.3107 7.48822 45.7719 7.4501C46.2687 7.37384 46.6235 7.06881 46.5525 6.53501C46.4461 6.15373 46.3042 5.65806 45.7365 5.65806Z" fill="#2776EA"/>
<path d="M22.4245 20.299C21.3245 20.3371 20.3665 19.8033 19.5504 18.8501C19.4085 18.6976 19.4795 18.3925 19.444 18.1256C19.6569 18.1638 19.9052 18.1638 20.1181 18.24C20.2601 18.3163 20.3665 18.5069 20.5084 18.6213C22.0342 19.9177 23.9502 19.6126 25.0146 17.8587C25.192 17.5537 25.2985 17.1724 25.5114 16.9055C25.6178 16.753 25.8662 16.753 26.0436 16.6768C26.1146 16.8674 26.2565 17.0962 26.221 17.2487C25.8662 18.9263 24.234 20.2608 22.4245 20.299Z" fill="#2776EA"/>
<path d="M27.3212 27.6194C27.3212 29.0301 26.3632 30.2884 25.1213 30.5171C24.8729 30.5553 24.5891 30.3265 24.3407 30.2121C24.4826 30.0215 24.6246 29.8308 24.8374 29.6783C25.0149 29.5639 25.2632 29.5639 25.4406 29.4495C26.0793 29.1064 26.4341 28.5345 26.4696 27.7719C26.4696 26.9331 26.1148 26.3611 25.4406 25.9799C25.3342 25.9417 25.2632 25.9036 25.1923 25.8655C24.8374 25.713 24.2343 25.7511 24.3762 25.2173C24.5181 24.6072 25.0858 24.8741 25.5116 24.9885C26.5761 25.3317 27.3212 26.3993 27.3212 27.6194Z" fill="#2776EA"/>
<path d="M17.9538 28.3049C16.1442 28.343 14.7604 26.7035 15.1152 25.1402C15.1507 24.9496 15.1507 24.6064 15.4701 24.6064C15.7184 24.7208 15.7894 24.9115 15.8604 25.1021C15.9313 25.3309 15.8604 25.6359 15.9313 25.9028C16.1797 26.856 16.8184 27.3517 17.7409 27.3517C18.0957 27.3517 18.4151 27.2754 18.7699 27.2754C18.8408 27.2754 18.9828 27.4279 19.0183 27.5423C19.0537 27.6567 18.9828 27.8855 18.9118 27.8855C18.557 28.0761 18.1667 28.2286 17.9538 28.3049Z" fill="#2776EA"/>
<path d="M20.1183 30.1738C21.3247 30.1738 22.3891 31.3177 22.3182 32.5378C22.3182 32.8047 22.0698 33.0716 21.9634 33.3766C21.7859 33.1097 21.5376 32.9191 21.4666 32.6522C21.1118 31.2414 21.1118 31.2033 19.728 31.127C19.5151 31.127 19.3022 30.9364 19.0538 30.8601C19.2667 30.6695 19.4441 30.4407 19.657 30.2501C19.8344 30.1738 20.0118 30.1738 20.1183 30.1738Z" fill="#2776EA"/>
<path d="M16.7126 38.3716C16.7126 36.5414 18.2739 35.2832 19.4802 35.8551C19.6576 35.9695 19.7641 36.1983 19.8705 36.3889C19.7286 36.5033 19.5867 36.6558 19.4093 36.7321C19.3028 36.7702 19.1609 36.6939 19.019 36.7321C17.99 36.8464 17.7416 37.0752 17.5997 38.1809C17.5642 38.5241 17.6707 39.0579 17.1739 38.9816C16.961 38.9816 16.7836 38.486 16.7126 38.3716Z" fill="#2776EA"/>
<path d="M20.5084 44.4722C19.1601 44.4341 17.9537 43.0614 18.0247 41.8032C18.0247 41.6507 18.1666 41.3838 18.2376 41.3838C18.415 41.3838 18.6989 41.4982 18.7344 41.6126C18.9827 42.7945 19.6214 43.4809 20.7213 43.7096C20.8278 43.7478 20.8987 43.9765 21.0052 44.129C20.7923 44.2434 20.5794 44.3959 20.5084 44.4722Z" fill="#2776EA"/>
<path d="M27.4275 38.2958C27.2501 38.4102 27.0727 38.6008 26.8953 38.6389C26.2921 38.6771 25.6889 38.0289 25.6179 37.3044C25.5824 36.5419 26.1501 35.7793 26.8243 35.7793C26.9662 35.7793 27.1791 35.8556 27.2501 36.0081C27.321 36.1225 27.2501 36.3512 27.1791 36.4656C27.0017 36.7325 26.6824 36.9613 26.5759 37.2663C26.5404 37.3807 26.9662 37.6476 27.1436 37.8764C27.2501 37.9907 27.2856 38.1051 27.4275 38.2958Z" fill="#2776EA"/>
<path d="M27.073 45.9976C27.1085 47.1033 26.0085 48.2853 25.1215 48.2471C24.9441 48.2471 24.7666 48.0184 24.5892 47.904C24.6957 47.7515 24.8021 47.4464 24.9441 47.4083C25.6892 47.1795 26.115 46.6839 26.3279 45.8832C26.3633 45.7688 26.6472 45.5782 26.6827 45.6163C26.8956 45.6925 27.002 45.9213 27.073 45.9976Z" fill="#2776EA"/>
<path d="M37.8233 20.299C35.8718 20.299 34.2751 19.0788 33.8848 17.4012C33.8139 17.1724 33.9558 16.9055 34.0267 16.6768C34.2396 16.7911 34.4525 16.9055 34.6299 17.058C34.7009 17.1343 34.7364 17.3249 34.7719 17.4393C35.8363 19.6126 37.8943 20.0702 39.6684 18.545C39.9522 18.3163 40.2006 17.7062 40.5909 18.2019C40.9457 18.6213 40.4845 18.9645 40.2006 19.2314C39.4555 19.9177 38.6039 20.3371 37.8233 20.299Z" fill="#2776EA"/>
<path d="M32.7141 27.6192C32.7496 26.1703 33.7786 24.9502 35.0559 24.9121C35.2688 24.9121 35.4817 25.1028 35.6946 25.2171C35.5172 25.4078 35.4107 25.7128 35.1979 25.7509C34.4173 25.9416 33.8495 26.361 33.6366 27.2379C33.4238 28.1912 33.7786 29.03 34.5947 29.4494C34.7721 29.5638 35.0204 29.5638 35.1979 29.6782C35.3753 29.7925 35.5172 30.0213 35.6946 30.212C35.4817 30.2882 35.2688 30.517 35.0559 30.517C33.7431 30.4026 32.6786 29.0681 32.7141 27.6192Z" fill="#2776EA"/>
<path d="M42.2947 28.3058C42.2237 28.3058 42.0108 28.3058 41.8689 28.2296C41.5496 28.0389 41.0173 27.7339 41.0173 27.5814C41.1238 26.9332 41.6205 27.3145 41.9399 27.3526C43.1462 27.467 43.8559 26.9332 44.1043 25.675C44.1397 25.4462 44.1043 25.1793 44.1752 24.9887C44.2107 24.8362 44.3881 24.6455 44.53 24.6455C44.6365 24.6455 44.8849 24.8362 44.8849 24.9505C44.9203 25.3699 44.9558 25.7894 44.8849 26.2088C44.601 27.3908 43.5011 28.3058 42.2947 28.3058Z" fill="#2776EA"/>
<path d="M37.6819 32.8044C37.6464 31.0505 39.1721 29.7923 40.4495 30.3261C40.6624 30.4023 40.7688 30.7074 40.9462 30.898C40.7333 31.0124 40.5204 31.1649 40.3075 31.1649C38.9237 31.203 38.8528 31.2793 38.5334 32.6519C38.4625 32.9188 38.2496 33.1476 38.0722 33.3763C37.9303 33.1094 37.7528 32.8807 37.6819 32.8044Z" fill="#2776EA"/>
<path d="M43.2879 38.2949C43.2524 38.3711 43.2169 38.638 43.1105 38.8287C43.0395 38.9431 42.8266 39.0193 42.6847 39.0193C42.6137 39.0193 42.4718 38.8668 42.4363 38.7524C42.4008 38.5618 42.4363 38.3711 42.4363 38.2186C42.2944 37.151 41.9396 36.8079 40.9106 36.7698C40.5913 36.7698 40.13 36.9223 40.13 36.3885C40.13 36.1978 40.6267 35.8928 40.9106 35.8547C42.1525 35.5496 43.2879 36.7698 43.2879 38.2949Z" fill="#2776EA"/>
<path d="M39.456 44.4723C39.3851 44.4342 39.1367 44.3198 39.0657 44.1673C39.0303 44.0529 39.2077 43.6716 39.3496 43.6716C40.4495 43.481 41.0173 42.7947 41.2656 41.6508C41.3011 41.4983 41.5495 41.3839 41.6914 41.2695C41.7979 41.4602 41.9753 41.6508 42.0108 41.8415C42.0817 43.0997 40.8398 44.4723 39.456 44.4723Z" fill="#2776EA"/>
<path d="M34.3825 37.2663C34.347 37.8001 34.1341 38.2958 33.5664 38.4864C33.318 38.5627 32.8922 38.6008 32.7503 38.4483C32.4664 38.1051 32.8568 37.9145 33.0696 37.7238C33.6728 37.19 33.6728 37.19 32.9632 36.58C32.8568 36.4275 32.7503 36.2368 32.6793 36.0843C32.8922 35.9699 33.1406 35.7793 33.318 35.7793C33.8857 35.8556 34.3825 36.5419 34.3825 37.2663Z" fill="#2776EA"/>
<path d="M33.353 45.4248C33.5304 45.6536 33.6723 45.768 33.7078 45.9205C33.9207 46.683 34.311 47.2168 35.0916 47.3694C35.2335 47.4075 35.3045 47.7125 35.4109 47.865C35.2335 47.9794 35.0561 48.1701 34.8787 48.1701C33.9207 48.2082 32.8208 46.9499 32.9272 45.9586C32.9982 45.8442 33.1756 45.6917 33.353 45.4248Z" fill="#2776EA"/>
</svg>
