<svg width="60" height="60" viewBox="0 0 60 60" fill="none" xmlns="http://www.w3.org/2000/svg">
<path d="M40.9411 36.1546C41.6721 36.8651 42.4032 37.5877 43.1343 38.2862C43.1952 38.3344 43.3293 38.3464 43.4146 38.3223C44.2309 38.0333 44.9255 38.2019 45.5591 38.78C48.4834 41.4174 51.4078 44.0549 54.3199 46.6923C55.9771 48.1857 57.622 49.679 59.2791 51.1724C60.2174 52.0154 60.2417 53.1715 59.34 54.0627C57.8413 55.544 56.3426 57.0253 54.8439 58.5187C53.8935 59.4581 52.7481 59.434 51.8464 58.4585C49.117 55.5079 46.3876 52.5573 43.6583 49.6188C42.2448 48.0893 40.8436 46.5478 39.418 45.0304C38.7965 44.38 38.5528 43.6695 38.8818 42.8024C38.9062 42.7301 38.8818 42.5856 38.8209 42.5254C38.1507 41.851 37.4684 41.1886 36.8104 40.5142C36.6277 40.3335 36.518 40.466 36.384 40.5624C35.0071 41.5378 33.5449 42.3327 31.9609 42.9349C28.6588 44.1994 25.2471 44.6329 21.7379 44.103C14.951 43.1035 9.89428 39.5628 6.56784 33.6616C4.65484 30.2775 3.93594 26.5923 4.204 22.7265C4.45988 19.0413 5.62962 15.6692 7.7985 12.6584C11.1615 7.99769 15.6942 5.10734 21.4454 4.25227C30.0844 2.96366 38.3457 7.05832 42.5007 14.6455C43.8167 17.0421 44.5843 19.6193 44.8158 22.3411C45.2301 27.3029 44.0116 31.819 41.0995 35.8896C41.0507 35.9619 41.0142 36.0462 40.9411 36.1546ZM44.1456 39.4905C43.9751 39.611 43.7923 39.7073 43.6583 39.8398C42.586 40.8875 41.5137 41.9594 40.4415 43.0071C40.0394 43.4045 40.0272 43.6093 40.4049 44.0187C42.3545 46.1383 44.3041 48.2459 46.2658 50.3655C48.4712 52.75 50.6645 55.1346 52.8699 57.5191C53.2233 57.8924 53.467 57.9165 53.8082 57.5914C55.3434 56.086 56.8665 54.5806 58.3896 53.0752C58.6943 52.7741 58.6821 52.5092 58.3653 52.2201C56.8056 50.799 55.2582 49.3779 53.6863 47.9568C52.7725 47.1259 51.8464 46.331 50.9326 45.5C48.8124 43.5972 46.7044 41.6824 44.5965 39.7916C44.4746 39.6832 44.3284 39.611 44.1456 39.4905ZM24.5282 42.9108C35.0193 42.9108 43.4999 34.5287 43.5242 24.1716C43.5486 13.7664 34.9218 5.32411 24.4551 5.37229C14.0249 5.42046 5.54432 13.8145 5.54432 24.1596C5.54432 34.5167 14.0615 42.9228 24.5282 42.9108ZM40.0881 37.3348C39.357 38.0574 38.6016 38.792 37.8827 39.5026C38.5407 40.1529 39.2352 40.8514 39.8932 41.5138C40.6364 40.7912 41.3919 40.0565 42.1352 39.346C41.4285 38.6595 40.7339 37.9731 40.0881 37.3348Z" fill="#2776EA"/>
<path d="M57.1953 19.4506C57.1953 25.4481 57.1953 31.4455 57.1953 37.443C57.1953 37.6237 57.1832 37.8284 57.1344 37.997C57.0369 38.2981 56.7323 38.4667 56.4033 38.4185C56.0743 38.3704 55.8672 38.1656 55.8185 37.8405C55.8063 37.72 55.8063 37.5996 55.8063 37.4912C55.8063 25.8816 55.8063 14.272 55.8185 2.67447C55.8185 2.33726 55.7332 2.24092 55.3798 2.24092C50.7862 2.25296 46.2047 2.25296 41.611 2.25296C38.1749 2.25296 34.751 2.25296 31.3149 2.25296C31.0712 2.25296 30.8397 2.25296 30.596 2.24092C30.2305 2.21683 29.9746 1.95188 29.9624 1.59059C29.9502 1.26542 30.1695 0.964346 30.5107 0.892087C30.6326 0.868001 30.7666 0.868 30.9006 0.868C39.5274 0.868 48.1664 0.868 56.7932 0.855957C57.1344 0.855957 57.2075 0.964346 57.2075 1.27747C57.1832 7.33517 57.1953 13.3929 57.1953 19.4506Z" fill="#2776EA"/>
<path d="M24.955 59.9998C18.1559 59.9998 11.3568 59.9998 4.55775 59.9998C4.09473 59.9998 4.09473 59.9998 4.09473 59.5421C4.09473 53.4483 4.09473 47.3545 4.09473 41.2606C4.09473 41.1161 4.10691 40.9716 4.14347 40.8391C4.21657 40.526 4.52119 40.3092 4.82581 40.3213C5.1548 40.3333 5.43505 40.5742 5.48379 40.9114C5.50816 41.1041 5.50816 41.3088 5.50816 41.5136C5.50816 47.0052 5.50816 52.4969 5.50816 57.9886C5.50816 58.7473 5.42287 58.6269 6.14177 58.6269C19.1795 58.6269 32.205 58.6269 45.2427 58.6269C45.3889 58.6269 45.5351 58.6148 45.6691 58.6389C46.0225 58.6871 46.254 58.9882 46.2418 59.3374C46.2296 59.6867 45.9738 59.9636 45.6204 59.9877C45.5107 59.9998 45.4011 59.9877 45.3036 59.9877C38.5167 59.9998 31.7419 59.9998 24.955 59.9998Z" fill="#2776EA"/>
<path d="M48.9589 10.7076C47.7892 10.7076 46.6195 10.7076 45.4619 10.7076C44.9014 10.7076 44.6577 10.4667 44.6577 9.91274C44.6577 8.93725 44.6577 7.96175 44.6577 6.98626C44.6577 6.48045 44.9136 6.22754 45.4254 6.22754C47.777 6.22754 50.1165 6.22754 52.4681 6.22754C53.0165 6.22754 53.2723 6.49249 53.2723 7.03443C53.2723 7.98584 53.2723 8.93725 53.2723 9.9007C53.2723 10.4667 53.0165 10.7196 52.4438 10.7196C51.2619 10.7076 50.1165 10.7076 48.9589 10.7076ZM51.8467 7.6125C49.8972 7.6125 47.9842 7.6125 46.059 7.6125C46.059 8.19057 46.059 8.74456 46.059 9.31058C47.9963 9.31058 49.9093 9.31058 51.8467 9.31058C51.8467 8.74456 51.8467 8.19057 51.8467 7.6125Z" fill="#2776EA"/>
<path d="M22.5543 48.1011C24.6866 48.1011 26.819 48.1011 28.9513 48.1011C29.4509 48.1011 29.7311 48.354 29.7067 48.7875C29.6824 49.1247 29.4996 49.3295 29.1462 49.3656C28.9635 49.3777 28.7929 49.3776 28.6101 49.3776C24.5282 49.3776 20.4341 49.3776 16.3522 49.3776C16.1938 49.3776 16.0354 49.3777 15.8892 49.3415C15.5724 49.2693 15.4018 49.0525 15.3896 48.7394C15.3896 48.4383 15.6212 48.1854 15.938 48.1252C16.072 48.1011 16.1938 48.1131 16.3279 48.1131C18.3993 48.1011 20.4829 48.1011 22.5543 48.1011Z" fill="#2776EA"/>
<path d="M30.4254 54.677C28.3539 54.677 26.2825 54.677 24.1989 54.677C24.0771 54.677 23.9553 54.677 23.8456 54.6649C23.48 54.6167 23.2485 54.3759 23.2485 54.0266C23.2485 53.6894 23.4922 53.4486 23.8578 53.4124C23.9796 53.4004 24.1015 53.4004 24.2111 53.4004C28.354 53.4004 32.509 53.4004 36.6518 53.4004C37.2854 53.4004 37.5778 53.5931 37.59 54.0266C37.6022 54.4602 37.2976 54.6649 36.6396 54.6649C34.5682 54.677 32.4968 54.677 30.4254 54.677Z" fill="#2776EA"/>
<path d="M13.2574 54.0382C13.2574 55.1221 12.3436 56.0133 11.2469 56.0012C10.1869 55.9892 9.29736 55.11 9.29736 54.0502C9.29736 52.9543 10.199 52.0511 11.2835 52.0631C12.3679 52.0872 13.2574 52.9663 13.2574 54.0382ZM11.2226 54.6163C11.5515 54.6403 11.8318 54.4115 11.8683 54.0984C11.8927 53.7853 11.649 53.4962 11.32 53.4722C10.9789 53.4481 10.7108 53.6769 10.6864 53.99C10.6621 54.3272 10.8936 54.5922 11.2226 54.6163Z" fill="#2776EA"/>
<path d="M9.29736 48.6915C9.29736 47.5956 10.1625 46.7406 11.2591 46.7285C12.3679 46.7285 13.2574 47.5836 13.2574 48.6554C13.2696 49.7393 12.3679 50.6425 11.2713 50.6425C10.1747 50.6546 9.29736 49.7754 9.29736 48.6915ZM11.8683 48.6915C11.8683 48.3784 11.6003 48.1135 11.2835 48.1014C10.9545 48.1014 10.6864 48.3543 10.6864 48.6795C10.6864 48.9926 10.9545 49.2696 11.2713 49.2817C11.5637 49.2817 11.8683 48.9926 11.8683 48.6915Z" fill="#2776EA"/>
<path d="M3.59484 10.5746C2.6688 10.5746 1.74276 10.5746 0.804534 10.5746C0.317143 10.5746 0.0125242 10.3217 0.0003394 9.91221C-0.0118454 9.47865 0.304959 9.20166 0.804534 9.20166C2.65662 9.20166 4.52089 9.20166 6.37297 9.20166C6.87254 9.20166 7.18935 9.4907 7.17716 9.90016C7.16498 10.3096 6.86036 10.5625 6.38515 10.5746C5.44693 10.5746 4.52089 10.5746 3.59484 10.5746Z" fill="#2776EA"/>
<path d="M10.6984 3.56582C10.6984 4.45702 10.6984 5.36025 10.6984 6.25144C10.6984 6.78134 10.4181 7.09446 9.99167 7.09446C9.56521 7.08242 9.30933 6.7693 9.30933 6.2394C9.30933 4.44497 9.30933 2.6385 9.30933 0.844073C9.30933 0.482778 9.41899 0.193742 9.77235 0.049224C10.2354 -0.131423 10.6862 0.205785 10.6984 0.723641C10.7106 1.66301 10.6984 2.61442 10.6984 3.56582Z" fill="#2776EA"/>
<path d="M7.03054 6.15548C7.03054 6.7456 6.50659 7.0828 6.06794 6.87807C5.95828 6.8299 5.8608 6.75764 5.78769 6.67334C4.48392 5.38472 3.18015 4.0961 1.87638 2.80749C1.43773 2.37393 1.59614 1.7236 2.15663 1.59113C2.46125 1.51887 2.68058 1.66339 2.88772 1.86812C3.95998 2.92792 5.02005 3.97567 6.09231 5.03547C6.32382 5.26429 6.5797 5.49311 6.79903 5.73397C6.90869 5.87849 6.9818 6.07118 7.03054 6.15548Z" fill="#2776EA"/>
<path d="M50.4327 17.1509C49.7504 17.1509 49.068 17.1509 48.3979 17.1509C47.9348 17.1509 47.6424 16.886 47.6302 16.4885C47.618 16.0911 47.9348 15.79 48.3979 15.79C49.7626 15.79 51.1151 15.79 52.4798 15.79C52.955 15.79 53.2718 16.0791 53.2718 16.4765C53.2718 16.886 52.9671 17.1509 52.4798 17.163C51.7852 17.1509 51.1029 17.1509 50.4327 17.1509Z" fill="#2776EA"/>
<path d="M50.4205 30.0369C49.7382 30.0369 49.0559 30.0369 48.3857 30.0369C47.9349 30.0369 47.6302 29.7719 47.6302 29.3745C47.6181 28.9771 47.9227 28.676 48.3735 28.676C49.7626 28.664 51.1394 28.664 52.5285 28.676C52.9672 28.676 53.2718 28.9891 53.2718 29.3745C53.2718 29.7599 52.9672 30.0369 52.5041 30.0489C51.7974 30.0369 51.1151 30.0369 50.4205 30.0369Z" fill="#2776EA"/>
<path d="M50.4212 23.5938C49.7388 23.5938 49.0565 23.5938 48.3863 23.5938C47.9233 23.5938 47.6309 23.3288 47.6309 22.9314C47.6309 22.5219 47.9355 22.2329 48.3985 22.2329C49.7632 22.2329 51.1157 22.2329 52.4804 22.2329C52.9434 22.2329 53.2724 22.534 53.2602 22.9314C53.2602 23.3409 52.9434 23.6058 52.4682 23.6058C51.7859 23.5938 51.1035 23.5938 50.4212 23.5938Z" fill="#2776EA"/>
<path d="M35.0802 48.1011C35.6773 48.1011 36.2743 48.1011 36.8592 48.1011C37.3222 48.1011 37.5903 48.354 37.5903 48.7394C37.5903 49.1127 37.3222 49.3536 36.8714 49.3656C35.6407 49.3777 34.4222 49.3777 33.1916 49.3656C32.7529 49.3656 32.4848 49.1127 32.4727 48.7394C32.4727 48.354 32.7407 48.1011 33.2037 48.1011C33.8374 48.1011 34.4588 48.1011 35.0802 48.1011Z" fill="#2776EA"/>
<path d="M17.9728 53.4126C18.5577 53.4126 19.1426 53.4126 19.7274 53.4126C20.227 53.4126 20.5073 53.6534 20.5073 54.0509C20.5073 54.4483 20.2148 54.6771 19.7274 54.6771C18.5455 54.6771 17.3636 54.6771 16.1817 54.6771C15.6943 54.6771 15.4019 54.4242 15.4019 54.0388C15.4019 53.6534 15.7065 53.4126 16.1939 53.4126C16.7787 53.4005 17.3758 53.4126 17.9728 53.4126Z" fill="#2776EA"/>
<path d="M42.7202 24.1599C42.7324 34.0474 34.6051 42.0922 24.5771 42.1163C14.5368 42.1404 6.37304 34.1196 6.36085 24.2322C6.34867 14.2484 14.4637 6.16748 24.5161 6.16748C34.5686 6.17952 42.708 14.2123 42.7202 24.1599ZM41.3189 24.172C41.4042 15.1878 33.935 7.57653 24.5893 7.57653C15.2801 7.57653 7.78647 14.9469 7.73773 24.0997C7.70118 33.2886 15.2923 40.7313 24.443 40.7434C33.7888 40.7554 41.3068 33.3729 41.3189 24.172Z" fill="#2776EA"/>
<path d="M22.5053 24.5688C23.1877 23.8824 23.8213 23.232 24.4671 22.5817C26.0267 21.0281 27.5986 19.4866 29.1704 17.9331C29.5969 17.5115 29.9015 17.4995 30.3279 17.921C30.9859 18.5713 31.6439 19.2217 32.3019 19.872C32.8746 20.438 32.8746 20.6789 32.3019 21.2449C30.3036 23.22 28.3053 25.1951 26.307 27.1702C25.2347 28.2299 24.1625 29.2897 23.0902 30.3495C22.6394 30.7951 22.3104 30.7831 21.8717 30.3495C20.1659 28.6635 18.4478 26.9654 16.7419 25.2794C16.2058 24.7495 16.2058 24.4725 16.7419 23.9546C17.4121 23.2923 18.0701 22.6419 18.7402 21.9796C19.1545 21.5701 19.4713 21.558 19.8978 21.9796C20.7507 22.8105 21.5915 23.6536 22.5053 24.5688ZM22.4566 29.0489C25.3322 26.2067 28.2078 23.3645 31.0712 20.5344C30.6448 20.1129 30.1939 19.6552 29.6943 19.1615C29.5969 19.2819 29.5116 19.4144 29.4019 19.5228C27.2939 21.6183 25.1738 23.7017 23.0536 25.7972C22.6516 26.1947 22.3226 26.1947 21.9205 25.7972C21.628 25.5082 21.3234 25.2192 21.0432 24.9181C20.4827 24.3521 19.9222 23.774 19.3982 23.2441C18.8743 23.7379 18.4234 24.1714 17.9726 24.605C19.4713 26.0863 20.9701 27.5676 22.4566 29.0489Z" fill="#2776EA"/>
</svg>
