<svg width="62" height="54" viewBox="0 0 62 54" fill="none" xmlns="http://www.w3.org/2000/svg">
<path d="M26.9174 40.131L26.7614 39.4614L26.5559 38.5792C27.1514 37.6684 27.5505 36.841 27.658 36.0816C27.7194 35.6481 27.6878 35.2242 27.535 34.8222C27.3826 34.4212 27.1264 34.086 26.8032 33.8042L26.7955 33.7976L26.7877 33.7911C26.2739 33.3669 25.6702 33.116 25.0235 33.1284C24.3755 33.1408 23.7733 33.416 23.2614 33.8809L23.2613 33.8808L23.2521 33.8894C22.9512 34.172 22.6962 34.4955 22.5391 34.8826C22.3789 35.2776 22.339 35.6932 22.4029 36.1272C22.5127 36.8737 22.9344 37.6919 23.5732 38.6402C23.5342 38.7888 23.4947 38.9397 23.4542 39.0949C23.3696 39.4186 23.2803 39.7607 23.1796 40.138C22.3059 38.7742 21.47 37.4798 20.6551 36.218C19.4332 34.3261 18.2587 32.5075 17.0755 30.638L16.7567 30.1343L16.194 30.3312C15.5985 30.5396 15.0076 30.7453 14.4208 30.9497C12.2017 31.7224 10.0426 32.4743 7.92396 33.2675L7.91539 33.2707L7.9069 33.2741C5.78835 34.1267 3.88171 35.6694 3.24179 38.1059C2.36301 41.3401 1.73688 44.7023 1.29914 48.0568C1.11803 49.3468 1.4449 50.5091 2.16902 51.3898C2.8885 52.2649 3.95713 52.8109 5.17585 52.9648L5.17583 52.9649L5.18976 52.9664C5.85051 53.0373 6.56644 53.0373 7.17447 53.0373H7.19385H7.26258H7.33132H7.40005H7.46878H7.53752H7.60625H7.67498H7.74372H7.81245H7.88118H7.94992H8.01865H8.08738H8.15612H8.22485H8.29359H8.36232H8.43105H8.49979H8.56852H8.63725H8.70599H8.77472H8.84345H8.91219H8.98092H9.04965H9.11839H9.18712H9.25586H9.32459H9.39332H9.46206H9.53079H9.59952H9.66826H9.73699H9.80572H9.87446H9.94319H10.0119H10.0807H10.1494H10.2181H10.2869H10.3556H10.4243H10.4931H10.5618H10.6305H10.6993H10.768H10.8367H10.9055H10.9742H11.0429H11.1117H11.1804H11.2491H11.3179H11.3866H11.4553H11.5241H11.5928H11.6615H11.7303H11.799H11.8677H11.9365H12.0052H12.0739H12.1427H12.2114H12.2801H12.3489H12.4176H12.4863H12.5551H12.6238H12.6925H12.7613H12.83H12.8987H12.9675H13.0362H13.1049H13.1737H13.2424H13.3111H13.3799H13.4486H13.5173H13.5861H13.6548H13.7235H13.7923H13.861H13.9297H13.9985H14.0672H14.1359H14.2047H14.2734H14.3421H14.4109H14.4796H14.5483H14.6171H14.6858H14.7545H14.8233H14.892H14.9607H15.0295H15.0982H15.1669H15.2357H15.3044H15.3731H15.4419H15.5106H15.5793H15.6481H15.7168H15.7855H15.8543H15.923H15.9917H16.0605H16.1292H16.1979H16.2667H16.3354H16.4041H16.4729H16.5416H16.6103H16.6791H16.7478H16.8165H16.8853H16.954H17.0227H17.0915H17.1602H17.229H17.2977H17.3664H17.4352H17.5039H17.5726H17.6414H17.7101H17.7788H17.8476H17.9163H17.985H18.0538H18.1225H18.1912H18.26H18.3287H18.3974H18.4662H18.5349H18.6036H18.6724H18.7411H18.8098H18.8786H18.9473H19.016H19.0848H19.1535H19.2222H19.291H19.3597H19.4284H19.4972H19.5659H19.6346H19.7034H19.7721H19.8408H19.9096H19.9783H20.047H20.1158H20.1845H20.2532H20.322H20.3907H20.4594H20.5282H20.5969H20.6656H20.7344H20.8031H20.8718H20.9406H21.0093H21.078H21.1468H21.2155H21.2842H21.353H21.4217H21.4904H21.5592H21.6279H21.6966H21.7654H21.8341H21.9028H21.9716H22.0403H22.109H22.1778H22.2465H22.3152H22.384H22.4527H22.5214H22.5902H22.6589H22.7276H22.7964H22.8651H22.9338H23.0026H23.0713H23.14H23.2088H23.2775H23.3462H23.415H23.4837H23.5524H23.6212H23.6899H23.7586H23.8274H23.8961H23.9648H24.0336H24.1023H24.171H24.2398H24.3085H24.3772H24.446H24.5147H24.5834H24.6522H24.7209H24.7896H24.8584H24.9271H24.9958H25.0646H25.1333H25.202H25.2708H25.3395H25.4082H25.477H25.5457H25.6144H25.6832H25.7519H25.8206H25.8894H25.9581H26.0268H26.0956H26.1643H26.233H26.3018H26.3705H26.4393H26.508H26.5767H26.6455H26.7142H26.7829H26.8517H26.9204H26.9891H27.0579H27.1266H27.1953H27.2641H27.3328H27.4015H27.4703H27.539H27.6077H27.6765H27.7452H27.8139H27.8827H27.9514H28.0201H28.0889H28.1576H28.2263H28.2951H28.3638H28.4325H28.5013H28.57H28.6387H28.7075H28.7762H28.8449H28.9137H28.9824H29.0511H29.1199H29.1886H29.2573H29.3261H29.3948H29.4635H29.5323H29.601H29.6697H29.7385H29.8072H29.8759H29.9447H30.0134H30.0821H30.1509H30.2196H30.2883H30.3571H30.4258H30.4945H30.5633H30.632H30.7007H30.7695H30.8382H30.9069H30.9757H31.0444H31.1131H31.1819H31.2506H31.3193H31.3881H31.4568H31.5255H31.5943H31.663H31.7317H31.8005H31.8692H31.9379H32.0067H32.0754H32.1441H32.2129H32.2816H32.3503H32.4191H32.4878H32.5565H32.6253H32.694H32.7627H32.8315H32.9002H32.9689H33.0377H33.1064H33.1751H33.2439H33.3126H33.3813H33.4501H33.5188H33.5875H33.6563H33.725H33.7937H33.8625H33.9312H33.9999H34.0687H34.1374H34.2061H34.2749H34.3436H34.4123H34.4811H34.5498H34.6185H34.6873H34.756H34.8247H34.8935H34.9622H35.0309H35.0997H35.1684H35.2371H35.3059H35.3746H35.4434H35.5121H35.5808H35.6496H35.7183H35.787H35.8558H35.9245H35.9932H36.062H36.1307H36.1994H36.2682H36.3369H36.4056H36.4744H36.5431H36.6118H36.6806H36.7493H36.818H36.8868H36.9555H37.0242H37.093H37.1617H37.2304H37.2992H37.3679H37.4366H37.5054H37.5741H37.6428H37.7116H37.7803H37.849H37.9178H37.9865H38.0552H38.124H38.1927H38.2614H38.3302H38.3989H38.4676H38.5364H38.6051H38.6738H38.7426H38.8113H38.88H38.9488H39.0175H39.0862H39.155H39.2237H39.2924H39.3612H39.4299H39.4986H39.5674H39.6361H39.7048H39.7736H39.8423H39.911H39.9798H40.0485H40.1172H40.186H40.2547H40.3234H40.3922H40.4609H40.5296H40.5984H40.6671H40.7358H40.8046H40.8733H40.942H41.0108H41.0795H41.1482H41.217H41.2857H41.3544H41.4232H41.4919H41.5606H41.6294H41.6981H41.7668H41.8356H41.9043H41.973H42.0418H42.1105H42.1792H42.248H42.3167H42.3854H42.3986C43.1969 53.0373 43.9679 53.0373 44.8057 52.9681L44.8148 52.9674L44.824 52.9664C46.2428 52.8141 47.402 52.191 48.1284 51.1516C48.8488 50.1208 49.0761 48.7777 48.8358 47.3041L48.8359 47.3041L48.8335 47.2911C48.6535 46.2977 48.4576 45.328 48.2633 44.367C47.9768 42.9489 47.694 41.5497 47.4719 40.1206C47.0014 36.8128 45.2276 34.5176 42.4269 33.3447L42.4244 33.3437C40.4355 32.519 38.403 31.8301 36.3656 31.1396C35.579 30.873 34.7917 30.6061 34.006 30.3312L33.4525 30.1375L33.131 30.6278C31.9513 32.4269 30.7872 34.2093 29.6235 35.991C28.7237 37.3687 27.8241 38.7461 26.9174 40.131Z" stroke="#2776EA" stroke-width="1.5"/>
<path d="M13.9556 15.598L13.9499 15.6877L13.9655 15.7763C14.103 16.5565 14.2241 17.364 14.3469 18.1826C14.599 19.864 14.8582 21.5923 15.2814 23.2276L15.2814 23.2276L15.2837 23.2364C16.1946 26.5878 18.0272 29.3368 20.7847 31.3097L20.7885 31.3124C22.0595 32.2098 23.3929 32.7254 24.7796 32.7731C26.1689 32.8209 27.5431 32.3966 28.8889 31.5301L28.8908 31.5288C32.0571 29.4758 33.9498 26.4367 34.9181 22.7647L34.9201 22.7571L34.922 22.7495C35.147 21.8179 35.3061 20.859 35.4537 19.9169C35.477 19.7683 35.4999 19.6203 35.5228 19.4727C35.6465 18.6763 35.7677 17.8953 35.9215 17.1251L35.9242 17.1112L35.9265 17.0972C36.2629 15.0029 35.9238 13.1094 34.9841 11.3067C31.247 3.93718 20.55 3.23436 15.8244 10.0916L15.8243 10.0918C14.6878 11.7419 14.088 13.5391 13.9556 15.598Z" stroke="#2776EA" stroke-width="1.5"/>
<path d="M48.2213 22.5138C44.187 22.5138 40.4631 22.5138 36.5529 22.5138C36.677 21.8477 36.8011 21.3814 36.8632 20.9818C41.1458 20.9818 45.3663 20.9818 49.7109 20.9818C49.7109 22.7136 49.7109 24.3788 49.7109 26.3771C50.3937 25.9775 50.7661 25.7776 51.1385 25.4446C51.3867 25.2448 51.5729 25.0449 51.7591 24.7785C53.7452 21.9143 56.1038 19.9827 59.7036 20.782C59.8898 20.8486 60.1381 20.7154 60.3243 20.6487C60.8208 19.0501 60.9449 4.72923 60.5105 1.86505C58.9588 1.19896 33.0151 1.06574 30.7807 1.73183C30.6566 2.73096 30.5945 3.66349 30.5324 4.86245C29.9739 4.66262 29.6015 4.59601 29.167 4.46279C29.167 2.9974 29.167 1.59861 29.167 0C40.0907 0 50.9523 0 62.0001 0C62.0001 7.39358 62.0001 14.7872 62.0001 22.4472C60.3863 22.4472 58.8967 22.5138 57.4692 22.4472C56.352 22.3806 55.6072 22.7802 54.8624 23.6461C53.0625 25.8442 51.1385 27.9091 49.2765 30.0406C48.9041 30.4403 48.5317 30.7733 48.0351 31.2396C47.1662 29.7076 47.8489 28.3754 47.911 26.9766C47.9731 25.6444 48.0972 24.2456 48.2213 22.5138Z" fill="#2776EA"/>
<path d="M43.1276 14.2016C43.1896 15.2007 42.2586 16.3331 41.2656 16.3997C40.2725 16.4663 39.1553 15.4005 39.0933 14.3348C39.0933 13.4023 40.0243 12.2033 40.9553 12.1367C41.9483 12.0035 43.1276 13.1358 43.1276 14.2016Z" fill="#2776EA"/>
<path d="M50.0845 14.194C50.0845 15.3264 49.2776 16.2589 48.2846 16.3255C47.1674 16.4587 46.1743 15.5262 46.1743 14.3272C46.1743 13.1949 46.9812 12.2623 47.9742 12.1291C49.0294 12.0625 50.0224 13.0617 50.0845 14.194Z" fill="#2776EA"/>
<path d="M56.9716 14.3907C56.9095 15.523 56.1026 16.3889 55.0475 16.3889C53.8683 16.3889 53.0614 15.3898 53.1235 14.1242C53.1855 13.0585 54.1165 12.126 55.0475 12.126C56.1647 12.126 57.0336 13.1251 56.9716 14.3907Z" fill="#2776EA"/>
</svg>
