<svg width="61" height="60" viewBox="0 0 61 60" fill="none" xmlns="http://www.w3.org/2000/svg">
<path d="M40.8243 48.8305C40.8243 51.3924 40.8243 53.9244 40.8243 56.4863C40.9245 56.4863 41.0246 56.4863 41.1248 56.4863C42.9564 56.4863 44.788 56.4863 46.6197 56.4863C46.6912 56.4863 46.7771 56.4863 46.8486 56.4863C47.0776 56.516 47.2636 56.7097 47.2922 56.9629C47.3208 57.2161 47.1777 57.4395 46.9631 57.514C46.8629 57.5438 46.7485 57.5587 46.6483 57.5587C43.5717 57.5587 40.4952 57.5587 37.4329 57.5587C37.3757 57.5587 37.3328 57.5587 37.2755 57.5587C36.975 57.5289 36.7604 57.2906 36.7747 56.9927C36.789 56.6948 37.0036 56.4863 37.3041 56.4863C37.991 56.4863 38.6635 56.4714 39.3504 56.4863C39.5651 56.4863 39.6366 56.4416 39.6366 56.2033C39.6223 53.8351 39.6223 51.4519 39.6366 49.0837C39.6366 48.8752 39.5937 48.8156 39.379 48.8156C37.9767 48.8305 36.5744 48.8305 35.172 48.8156C34.9717 48.8156 34.9144 48.8752 34.9144 49.0837C34.9144 51.1987 34.9288 53.3137 34.9144 55.4139C34.9144 57.2608 33.7983 58.8694 32.1384 59.4651C29.6199 60.3737 26.9297 58.5566 26.7151 55.8011C26.7008 55.5628 26.6864 55.3245 26.6864 55.1011C26.6864 53.1052 26.6864 51.0945 26.6864 49.0986C26.6864 48.8752 26.6292 48.8007 26.4146 48.8156C25.0265 48.8305 23.6385 48.8305 22.2648 48.8156C22.0501 48.8156 21.9929 48.8752 21.9929 49.0986C21.9929 51.4668 21.9929 53.8499 21.9929 56.2182C21.9929 56.4416 22.0645 56.5012 22.2648 56.5012C22.9373 56.4863 23.5956 56.5012 24.2681 56.5012C24.6116 56.5012 24.8405 56.7097 24.8548 57.0225C24.8691 57.3352 24.6259 57.5736 24.2681 57.5736C21.1343 57.5736 18.0148 57.5736 14.8811 57.5736C14.5376 57.5736 14.3087 57.3501 14.3087 57.0374C14.3087 56.7246 14.5376 56.5012 14.8811 56.5012C16.7985 56.5012 18.7303 56.5012 20.6478 56.5012C20.9483 56.5012 20.9483 56.5012 20.9483 56.1735C20.9483 53.835 20.9483 51.4966 20.9483 49.1582C20.9483 48.8454 20.9483 48.8454 20.6335 48.8454C15.7682 48.8454 10.9173 48.8603 6.05205 48.8305C3.80545 48.8156 2.18847 47.6985 1.21542 45.5686C0.914919 44.8984 0.786133 44.1983 0.786133 43.4536C0.786133 31.7913 0.786133 20.1438 0.786133 8.48146C0.786133 5.54725 3.1329 3.13435 5.9805 3.13435C10.8458 3.13435 15.711 3.13435 20.5906 3.13435C20.7766 3.13435 20.9912 3.07478 21.163 2.97051C24.7117 0.810819 28.5324 -0.0828487 32.6249 0.319301C35.4153 0.587401 38.0053 1.48107 40.4093 2.98541C40.5953 3.10456 40.7814 3.16414 41.0103 3.14925C45.847 3.14925 50.6836 3.14925 55.5202 3.14925C58.1961 3.14925 60.3282 5.04084 60.7432 7.79631C60.7861 8.03463 60.7861 8.28783 60.7861 8.52614C60.7861 20.1289 60.7861 31.7317 60.7861 43.3345C60.7861 46.4623 58.4966 48.8454 55.4916 48.8454C50.7122 48.8454 45.9328 48.8454 41.1534 48.8454C41.0532 48.8305 40.9531 48.8305 40.8243 48.8305ZM30.7933 1.28744C20.9483 1.30234 13.1782 9.52407 13.0351 19.4885C12.8777 29.5273 20.5333 38.2257 30.7933 38.2257C40.7814 38.2257 48.5515 29.8997 48.5228 19.7417C48.5085 9.41981 40.5095 1.30234 30.7933 1.28744ZM19.3313 4.29612C19.317 4.26633 19.3027 4.25144 19.2884 4.22165C19.2169 4.22165 19.1596 4.20675 19.0881 4.20675C14.6807 4.20675 10.2734 4.20675 5.86603 4.22165C5.47967 4.22165 5.09331 4.29612 4.73557 4.41527C2.94688 5.01105 1.81642 6.66434 1.81642 8.6304C1.81642 19.8608 1.81642 31.0912 1.81642 42.3216C1.81642 42.6791 1.81642 43.0515 1.81642 43.4089C1.84504 45.7921 3.67666 47.7432 5.93757 47.7432C12.7632 47.7432 19.6032 47.7432 26.4289 47.7432C26.6292 47.7432 26.6864 47.6985 26.6864 47.4751C26.6721 46.2687 26.6864 45.0622 26.6864 43.8558C26.6864 43.394 26.6864 42.9323 26.6864 42.4557C26.6864 42.0535 26.8868 41.845 27.2731 41.845C27.5593 41.845 27.8312 41.8301 28.1174 41.845C28.2891 41.845 28.3607 41.8003 28.3463 41.6067C28.332 40.862 28.332 40.1024 28.3463 39.3577C28.3463 39.164 28.2891 39.0895 28.1031 39.0598C27.4878 38.9555 26.8725 38.8512 26.2715 38.6874C21.9643 37.5405 18.4298 35.1425 15.7682 31.4338C12.6631 27.0995 11.504 22.1992 12.2195 16.8372C12.477 14.8563 13.0494 12.9647 13.8937 11.1625C15.1672 8.45167 16.9416 6.17282 19.2169 4.31101C19.2455 4.3408 19.2884 4.31101 19.3313 4.29612ZM34.9001 47.7581C35.0289 47.7581 35.1291 47.7581 35.2293 47.7581C36.8749 47.7581 38.5205 47.7581 40.1517 47.7581C45.3175 47.7581 50.4832 47.773 55.649 47.7432C56.1212 47.7432 56.6077 47.639 57.037 47.4751C58.7256 46.8347 59.7558 45.2261 59.7558 43.3047C59.7558 31.836 59.7558 20.3523 59.7558 8.88361C59.7558 8.6453 59.7415 8.40699 59.7272 8.16868C59.5841 6.00898 57.7525 4.22165 55.6776 4.22165C51.2846 4.22165 46.8772 4.22165 42.4842 4.22165C42.4127 4.22165 42.3411 4.23654 42.2696 4.23654C42.2839 4.28122 42.2839 4.29612 42.2982 4.31101C42.3268 4.3408 42.3697 4.37059 42.3983 4.40038C43.7721 5.53236 44.9884 6.82817 46.0044 8.31762C49.0809 12.8604 50.1827 17.8799 49.2526 23.3461C48.5658 27.3676 46.7628 30.8231 43.9724 33.6978C41.9261 35.7979 39.5364 37.332 36.8033 38.3001C35.7158 38.6874 34.6139 38.9555 33.4692 39.1193C33.3261 39.1342 33.2402 39.164 33.2402 39.3577C33.2545 40.1322 33.2545 40.9216 33.2402 41.6961C33.2402 41.8599 33.2975 41.9046 33.4406 41.8897C33.7124 41.8897 33.9843 41.8897 34.2562 41.8897C34.7427 41.8897 34.9144 42.0684 34.9144 42.5748C34.9144 44.1983 34.9144 45.8218 34.9144 47.4453C34.9001 47.5198 34.9001 47.6241 34.9001 47.7581ZM33.8412 42.9621C31.795 42.9621 29.763 42.9621 27.7024 42.9621C27.7024 43.0813 27.7024 43.1855 27.7024 43.2898C27.7024 47.1772 27.7024 51.0647 27.7024 54.9521C27.7024 55.2053 27.7167 55.4585 27.731 55.7118C27.8312 57.231 29.0905 58.5268 30.5357 58.6311C32.353 58.7502 33.8412 57.3055 33.8412 55.4139C33.8412 51.3477 33.8412 47.2964 33.8412 43.2302C33.8555 43.1408 33.8555 43.0664 33.8412 42.9621ZM29.391 39.2832C29.391 39.3279 29.3766 39.3725 29.3766 39.4023C29.3766 40.1619 29.3766 40.9365 29.3766 41.6961C29.3766 41.8748 29.4625 41.8748 29.5913 41.8748C30.4069 41.8748 31.2083 41.8748 32.0239 41.8748C32.1813 41.8748 32.2242 41.8152 32.2242 41.6514C32.2242 40.9067 32.2242 40.1768 32.2242 39.4321C32.2242 39.3725 32.2099 39.3279 32.2099 39.2683C31.2512 39.2832 30.3211 39.2832 29.391 39.2832Z" fill="#2776EA"/>
<path d="M35.0862 10.3285C34.1703 10.3285 33.2975 10.3285 32.396 10.3285C32.396 10.4477 32.396 10.537 32.396 10.6413C32.396 16.0629 32.396 21.4844 32.396 26.906C32.396 26.9954 32.396 27.0996 32.3816 27.189C32.353 27.4571 32.1527 27.6359 31.9094 27.6359C31.6519 27.6359 31.4515 27.472 31.4086 27.2188C31.3943 27.1443 31.3943 27.055 31.3943 26.9805C31.3943 21.3057 31.3943 15.616 31.3943 9.94124C31.3943 9.46462 31.566 9.28589 32.0239 9.271C33.1544 9.271 34.2991 9.271 35.4296 9.271C35.9161 9.271 36.0878 9.44973 36.0878 9.95614C36.0878 15.616 36.0878 21.2759 36.0878 26.9358C36.0878 27.3975 35.9304 27.6359 35.6013 27.6359C35.2579 27.6359 35.0862 27.4124 35.0862 26.9209C35.0862 21.4844 35.0862 16.0629 35.0862 10.6264C35.0862 10.5519 35.0862 10.4477 35.0862 10.3285Z" fill="#2776EA"/>
<path d="M38.6778 14.8266C38.6778 14.9606 38.6778 15.0649 38.6778 15.1691C38.6778 19.1013 38.6778 23.0185 38.6778 26.9506C38.6778 27.04 38.6778 27.1294 38.6635 27.2038C38.6206 27.4868 38.4059 27.6656 38.1341 27.6507C37.8765 27.6358 37.7048 27.4421 37.6761 27.1443C37.6761 27.0847 37.6761 27.0251 37.6761 26.9506C37.6761 22.7951 37.6761 18.6395 37.6761 14.484C37.6761 13.918 37.8192 13.769 38.363 13.769C39.4792 13.769 40.6096 13.769 41.7258 13.769C42.1837 13.769 42.3554 13.9478 42.3554 14.4244C42.3554 18.6097 42.3554 22.81 42.3554 26.9953C42.3554 27.0549 42.3554 27.0996 42.3554 27.1592C42.3268 27.4273 42.1407 27.606 41.8832 27.6209C41.6256 27.6358 41.4109 27.457 41.368 27.1889C41.3537 27.0996 41.3537 26.9953 41.3537 26.9059C41.3537 22.9738 41.3537 19.0566 41.3537 15.1244C41.3537 14.7968 41.3537 14.7968 41.0246 14.7968C40.3234 14.7968 39.6366 14.7968 38.9354 14.7968C38.8781 14.8265 38.7923 14.8266 38.6778 14.8266Z" fill="#2776EA"/>
<path d="M30.7789 29.3784C34.4279 29.3784 38.0768 29.3784 41.7257 29.3784C41.7973 29.3784 41.8832 29.3784 41.9547 29.3933C42.1693 29.4231 42.3411 29.6167 42.3554 29.8401C42.384 30.0636 42.2695 30.3019 42.0549 30.3763C41.9547 30.421 41.8259 30.421 41.7257 30.421C34.4279 30.421 27.1157 30.421 19.8178 30.421C19.7176 30.421 19.6175 30.4061 19.5316 30.3912C19.3027 30.3168 19.1739 30.1082 19.2025 29.8699C19.2168 29.6316 19.3885 29.438 19.6175 29.4082C19.7033 29.3933 19.8035 29.3933 19.8894 29.3933C23.5097 29.3784 27.1443 29.3784 30.7789 29.3784Z" fill="#2776EA"/>
<path d="M29.806 22.5116C29.806 23.9862 29.806 25.4756 29.806 26.9502C29.806 27.0395 29.806 27.1438 29.7917 27.2332C29.7488 27.4715 29.5627 27.6353 29.3195 27.6353C29.0905 27.6353 28.8902 27.4864 28.8329 27.2481C28.8186 27.1587 28.8186 27.0544 28.8186 26.9651C28.8186 24.1947 28.8186 21.4392 28.8186 18.6689C28.8186 18.3561 28.8186 18.3561 28.5324 18.3561C27.8313 18.3561 27.1301 18.3561 26.4146 18.3561C26.1141 18.3561 26.1141 18.3561 26.1141 18.6689C26.1141 21.4243 26.1141 24.1798 26.1141 26.9353C26.1141 27.0247 26.1141 27.114 26.1141 27.1885C26.0855 27.4119 25.9138 27.5906 25.6992 27.6204C25.4702 27.6502 25.2556 27.5162 25.1697 27.2928C25.1411 27.2034 25.1268 27.0991 25.1268 26.9949C25.1268 23.9862 25.1268 20.9924 25.1268 17.9837C25.1268 17.4773 25.2842 17.3135 25.7564 17.3135C26.9012 17.3135 28.0459 17.3135 29.1907 17.3135C29.6343 17.3135 29.806 17.4922 29.806 17.9539C29.806 19.4881 29.806 21.0073 29.806 22.5116Z" fill="#2776EA"/>
<path d="M22.5224 21.7821C22.4651 21.7672 22.4222 21.7523 22.3936 21.7523C21.5923 21.7523 20.7909 21.7523 19.9896 21.7523C19.7893 21.7523 19.8322 21.8864 19.8322 22.0055C19.8322 23.6588 19.8322 25.3121 19.8322 26.9654C19.8322 27.0399 19.8322 27.1292 19.8322 27.2037C19.7893 27.4718 19.5746 27.6505 19.317 27.6356C19.0738 27.6207 18.8734 27.4271 18.8591 27.1739C18.8591 27.1143 18.8591 27.0548 18.8591 26.9803C18.8591 25.1036 18.8591 23.2269 18.8591 21.3502C18.8591 20.8736 19.0308 20.6948 19.4888 20.6948C20.6335 20.6948 21.7783 20.6948 22.923 20.6948C23.3666 20.6948 23.5384 20.8736 23.5384 21.3353C23.5384 23.212 23.5384 25.1036 23.5384 26.9803C23.5384 27.0399 23.5384 27.0994 23.5384 27.1739C23.5097 27.4271 23.3094 27.6207 23.0661 27.6207C22.8086 27.6207 22.5939 27.442 22.5653 27.1739C22.551 27.0994 22.5653 27.025 22.5653 26.9654C22.5653 25.327 22.5653 23.7035 22.5653 22.0651C22.5224 21.9906 22.5224 21.8864 22.5224 21.7821Z" fill="#2776EA"/>
<path d="M27.5593 5.02595C27.5593 5.27916 27.4162 5.44299 27.1443 5.54725C26.114 5.91962 25.1267 6.39624 24.1822 6.97712C21.6351 8.57083 19.6604 10.7305 18.2438 13.4413C18.1579 13.6052 18.0005 13.7392 17.8431 13.8137C17.6714 13.8881 17.4711 13.8137 17.3423 13.6349C17.1992 13.4413 17.1849 13.2179 17.2993 13.0094C17.6285 12.4285 17.9433 11.8327 18.3153 11.2667C20.4331 8.07931 23.2378 5.83025 26.7437 4.53443C26.8438 4.50464 26.944 4.45996 27.0442 4.45996C27.3447 4.47486 27.5736 4.71317 27.5593 5.02595Z" fill="#2776EA"/>
<path d="M17.1277 16.1668C17.1277 16.1965 17.1134 16.271 17.0991 16.3455C16.9703 16.8817 16.8272 17.4328 16.6984 17.969C16.6269 18.2669 16.3693 18.4456 16.0831 18.386C15.8112 18.3264 15.6252 18.0583 15.6967 17.7605C15.8255 17.1647 15.9829 16.5689 16.1403 15.9731C16.2119 15.705 16.4695 15.571 16.7127 15.6008C16.9417 15.6454 17.1134 15.8689 17.1277 16.1668Z" fill="#2776EA"/>
<path d="M4.22046 25.9673C4.22046 20.2031 4.22046 14.4241 4.22046 8.65991C4.22046 7.51304 4.96456 6.72363 6.06639 6.72363C8.18421 6.72363 10.302 6.72363 12.4198 6.72363C12.8205 6.72363 13.0638 6.91726 13.0638 7.25983C13.0638 7.54283 12.8921 7.76624 12.6202 7.79603C12.5343 7.81093 12.4485 7.81093 12.3769 7.81093C10.302 7.81093 8.22714 7.81093 6.15225 7.81093C5.52263 7.81093 5.25075 8.09392 5.25075 8.76417C5.25075 20.2478 5.25075 31.7463 5.25075 43.2299C5.25075 43.9002 5.50832 44.1832 6.15225 44.1832C11.8904 44.1832 17.6142 44.1832 23.3523 44.1832C23.4668 44.1832 23.5956 44.1832 23.7101 44.2278C23.9533 44.3023 24.0821 44.5406 24.0535 44.8087C24.0249 45.0619 23.8246 45.2407 23.5813 45.2705C23.5098 45.2705 23.4239 45.2705 23.3523 45.2705C17.5856 45.2705 11.8188 45.2705 6.03777 45.2705C4.97887 45.2705 4.22046 44.4959 4.22046 43.3789C4.22046 37.5551 4.22046 31.7612 4.22046 25.9673Z" fill="#2776EA"/>
<path d="M57.3375 25.9975C57.3375 31.7766 57.3375 37.5556 57.3375 43.3347C57.3375 44.4815 56.5934 45.2561 55.5058 45.2561C49.782 45.2561 44.0582 45.2561 38.3344 45.2561C38.2342 45.2561 38.134 45.2561 38.0339 45.2561C37.7334 45.2412 37.5187 45.0326 37.5187 44.7496C37.5044 44.4815 37.7048 44.2432 37.9766 44.1985C38.0625 44.1837 38.1627 44.1985 38.2485 44.1985C43.958 44.1985 49.6819 44.1985 55.3914 44.1985C56.0496 44.1985 56.3072 43.9304 56.3072 43.2304C56.3072 31.7915 56.3072 20.3674 56.3072 8.92849C56.3072 8.85402 56.3072 8.77955 56.3072 8.71997C56.3072 8.13909 56.0067 7.82631 55.4486 7.82631C53.3594 7.82631 51.2702 7.82631 49.181 7.82631C49.0952 7.82631 48.995 7.82631 48.9091 7.81141C48.6659 7.78162 48.4942 7.58799 48.4799 7.33479C48.4512 7.08158 48.5943 6.84327 48.8376 6.78369C48.9378 6.75391 49.0379 6.75391 49.1238 6.75391C51.2273 6.75391 53.3308 6.75391 55.4343 6.75391C56.5934 6.75391 57.3232 7.51352 57.3232 8.71997C57.3375 14.4543 57.3375 20.2185 57.3375 25.9975Z" fill="#2776EA"/>
<path d="M29.7344 54.9813C29.7344 54.3707 30.2066 53.894 30.779 53.894C31.3657 53.894 31.8522 54.3856 31.8379 54.9962C31.8379 55.6069 31.3657 56.0984 30.779 56.0984C30.1923 56.0984 29.7201 55.6069 29.7344 54.9813Z" fill="#2776EA"/>
</svg>
