<svg width="60" height="60" viewBox="0 0 60 60" fill="none" xmlns="http://www.w3.org/2000/svg">
<path d="M23.2922 59.9504C23.2922 55.7312 23.2922 51.5588 23.2922 47.2927C21.1242 47.2927 19.097 47.2693 17.0698 47.3162C16.2533 47.3396 15.8873 47.8553 15.8591 48.4882C15.8309 49.6133 15.8028 50.7619 15.8873 51.887C15.8873 52.1214 16.2251 52.4496 16.4785 52.5902C17.7737 53.1996 18.4213 54.1607 18.1115 55.2389C17.8581 56.2234 16.7882 56.9735 15.5775 57.0204C14.3105 57.0907 13.1562 56.4344 12.762 55.4499C12.3396 54.3951 12.8183 53.434 13.9727 52.7308C14.2824 52.5433 14.5358 52.1448 14.5639 51.8167C14.6484 50.7384 14.5639 49.6602 14.5921 48.5819C14.6202 47.0818 15.6339 46.2613 17.4077 46.2379C19.2941 46.2145 21.2087 46.2379 23.2077 46.2379C23.2077 43.6829 23.2077 41.1748 23.2077 38.6199C22.9261 38.5964 22.6446 38.5495 22.3912 38.5495C19.3504 38.5495 16.2814 38.5495 13.2406 38.5495C12.7338 38.5495 12.227 38.6199 11.7484 38.7371C10.9037 38.948 10.4532 39.3934 10.4814 40.1903C10.5377 41.6436 10.4532 43.1204 10.5377 44.5737C10.5658 44.9018 10.8474 45.3472 11.1853 45.5347C12.396 46.2145 12.9309 47.2224 12.5367 48.3006C12.1989 49.2617 11.0726 49.918 9.8338 49.918C8.59496 49.8946 7.52504 49.2148 7.21533 48.2303C6.87747 47.1755 7.35611 46.1441 8.62311 45.5816C9.18622 45.3472 9.27069 45.0425 9.27069 44.5971C9.24254 43.1438 9.27069 41.6671 9.27069 40.1903C9.27069 38.7605 9.97458 37.987 11.6639 37.6354C12.2552 37.5182 12.8746 37.4713 13.4659 37.4713C16.3096 37.4479 19.1533 37.4713 21.9689 37.4713C22.363 37.4713 22.7572 37.4713 23.2922 37.4713C23.2922 35.7836 23.3203 34.1897 23.264 32.5723C23.264 32.4317 22.8417 32.1973 22.5883 32.1973C17.2387 32.1973 11.8892 32.2207 6.5396 32.2207C6.2862 32.2207 6.0328 32.2676 5.80755 32.3145C3.61142 32.6661 3.41433 32.8536 3.41433 34.7054C3.41433 36.2993 3.38618 37.8698 3.44249 39.4637C3.44249 39.7919 3.7522 40.2372 4.09006 40.4248C5.2726 41.0811 5.80755 42.0187 5.46969 43.0969C5.15998 44.0814 4.0056 44.8081 2.7386 44.7846C1.52791 44.7612 0.42984 44.058 0.120128 43.0969C-0.217739 42.0187 0.317217 41.0576 1.49975 40.4013C1.83762 40.2138 2.14733 39.7919 2.14733 39.4637C2.20364 37.5182 2.20364 35.5726 2.17548 33.6271C2.14733 32.7598 2.59782 32.1035 3.4988 31.8691C4.82211 31.5409 6.20173 31.1893 7.5532 31.1659C12.3678 31.0721 17.1824 31.119 21.997 31.119C22.3912 31.119 22.7854 31.119 23.2359 31.119C23.2359 30.0876 23.2359 29.1735 23.2359 28.1187C22.8135 28.1187 22.4193 28.1187 22.0252 28.1187C17.2387 28.1187 12.4804 28.1655 7.69398 28.0952C6.39882 28.0718 5.07551 27.8139 3.80851 27.5092C2.68228 27.2279 2.11917 26.5247 2.14733 25.4699C2.20364 23.5947 2.14733 21.6961 2.17548 19.8208C2.17548 19.3286 2.03471 19.0239 1.44344 18.766C0.232751 18.2269 -0.245894 17.1487 0.120128 16.0939C0.457995 15.1328 1.58422 14.4531 2.79491 14.4765C4.03375 14.4999 5.10367 15.1797 5.44153 16.1407C5.7794 17.1956 5.30075 18.2504 4.06191 18.7895C3.52695 19.0239 3.38617 19.3052 3.38617 19.774C3.41433 21.6492 3.41433 23.5478 3.38617 25.423C3.38617 26.0325 3.63957 26.431 4.31531 26.5716C5.2726 26.7826 6.25804 27.0404 7.24349 27.0404C12.3396 27.0873 17.4358 27.0639 22.532 27.0639C22.7291 27.0639 22.9543 27.017 23.2077 26.9935C23.2077 25.259 23.2077 23.5947 23.2077 21.7898C21.997 21.7898 20.8708 21.7898 19.7164 21.7898C17.6047 21.7898 15.4649 21.8367 13.3533 21.7664C12.5086 21.7429 11.6358 21.6023 10.8474 21.3445C9.74933 20.9929 9.18622 20.2897 9.21438 19.2583C9.24253 17.7112 9.27069 16.1407 9.18622 14.5937C9.18622 14.289 8.87651 13.8905 8.5668 13.7264C7.35611 13.0701 6.82116 12.1325 7.15902 11.0542C7.46873 10.0463 8.59496 9.31966 9.86196 9.31966C11.0726 9.31966 12.1989 10.0463 12.5086 11.0073C12.8746 12.109 12.3396 13.0466 11.0726 13.7498C10.7911 13.9139 10.5095 14.289 10.5095 14.5468C10.4532 16.0704 10.5095 17.594 10.4532 19.1176C10.4251 19.8912 10.8474 20.2897 11.6639 20.5006C12.1144 20.6178 12.5649 20.7116 13.0435 20.7116C16.2533 20.735 19.4349 20.7116 22.6446 20.7116C22.8135 20.7116 22.9825 20.6647 23.2359 20.6413C23.2359 18.1097 23.2359 15.6251 23.2359 13.0232C21.3776 13.0232 19.6038 13.0232 17.83 13.0232C15.5494 13.0232 14.6202 12.2497 14.5921 10.3745C14.5921 9.71814 14.5639 9.06182 14.5921 8.40549C14.6202 7.51477 14.6203 6.76468 13.494 6.13179C12.1707 5.40515 12.3678 3.67058 13.6348 2.80329C14.8455 1.95945 16.7038 2.14697 17.6611 3.20178C18.6183 4.28002 18.2805 5.94427 16.8164 6.53028C15.8873 6.85844 15.8028 7.32724 15.8309 7.98357C15.8591 8.85085 15.8309 9.71814 15.8591 10.5854C15.8873 11.6168 16.3377 12.0153 17.5484 12.0153C19.4067 12.0387 21.265 12.0153 23.264 12.0153C23.264 7.98357 23.264 4.02218 23.264 0.0607938C24.9815 0.0607938 26.6145 -0.103287 28.1631 0.107674C30.0213 0.365516 31.2602 1.81881 31.3165 3.43618C31.3447 4.42066 31.3447 5.40515 31.3447 6.38964C31.3165 7.28036 31.7952 7.84293 32.8088 8.14765C33.9631 8.49925 35.0894 8.89773 36.1874 9.31966C37.1166 9.67126 37.9049 9.60094 38.637 8.9915C39.4535 8.31173 40.2418 7.63197 41.0865 6.97564C42.9448 5.52235 45.4506 5.49891 47.2807 6.97564C48.7448 8.14765 50.2089 9.36654 51.6167 10.5854C53.3623 12.0856 53.3342 14.2187 51.5604 15.7423C50.772 16.422 49.9555 17.1018 49.139 17.7816C48.4351 18.3676 48.3225 19.0004 48.7167 19.7505C49.2516 20.735 49.7584 21.7195 50.2089 22.7274C50.5468 23.4775 51.138 23.8291 52.0672 23.8526C53.2779 23.876 54.5167 23.8291 55.7274 23.876C58.1488 23.9229 59.9226 25.3996 59.9789 27.4155C60.007 29.1266 60.007 30.8143 59.9789 32.5254C59.9507 34.6819 58.1488 36.1586 55.5585 36.229C54.4322 36.2524 53.3342 36.2524 52.2079 36.229C51.138 36.2055 50.4623 36.604 50.0963 37.4478C49.7021 38.362 49.2516 39.2762 48.7448 40.1669C48.2662 41.0108 48.3788 41.714 49.2235 42.3468C49.9837 42.9328 50.7157 43.5657 51.4477 44.1752C53.3623 45.7925 53.3905 47.9022 51.4759 49.5195C50.0963 50.6915 48.6885 51.8635 47.2807 53.0121C45.4225 54.5123 42.8885 54.4888 41.002 52.9887C40.1855 52.3323 39.369 51.6526 38.5525 50.9728C37.8486 50.3868 37.0884 50.3165 36.1874 50.6447C35.0049 51.09 33.8223 51.4885 32.6117 51.887C31.7388 52.1683 31.2884 52.684 31.2884 53.4575C31.2884 54.4654 31.3165 55.4968 31.2602 56.5047C31.1757 58.3565 29.7116 59.7863 27.5155 59.9738C26.2203 60.0442 24.8126 59.9504 23.2922 59.9504ZM24.6155 58.9425C25.432 58.9425 26.1077 58.9659 26.7835 58.9425C28.8388 58.8956 30.0495 57.8877 30.0777 56.1765C30.1058 55.2389 30.0777 54.3248 30.0777 53.3872C30.1058 52.0511 30.8097 51.301 32.2738 50.8087C33.4 50.4337 34.5262 50.0587 35.6525 49.6367C37.1729 49.0742 38.2991 49.2148 39.4816 50.1524C40.2981 50.8087 41.0865 51.5119 41.9312 52.1683C43.3389 53.27 45.0564 53.2465 46.4361 52.1448C47.8438 50.9963 49.2516 49.8477 50.6312 48.6522C51.9827 47.5037 51.9545 46.0504 50.6312 44.9018C49.8147 44.1986 48.9419 43.5189 48.1254 42.7922C47.1118 41.9249 46.9429 40.917 47.506 39.8153C48.0128 38.8308 48.5196 37.8463 48.9982 36.8384C49.5613 35.6664 50.5186 35.0804 52.039 35.057C53.2497 35.0335 54.4885 35.0804 55.6992 35.0335C57.4449 34.9866 58.6837 33.9787 58.7119 32.5254C58.7682 30.7908 58.7682 29.0563 58.7119 27.3217C58.6837 25.8215 57.4167 24.837 55.6148 24.7902C54.4041 24.7667 53.1652 24.8136 51.9545 24.7667C50.5186 24.7433 49.5332 24.1338 48.9982 23.0087C48.5196 22.0008 48.0409 21.0163 47.5341 20.0318C46.9429 18.8832 47.1118 17.8988 48.1817 16.9846C48.9701 16.3048 49.8147 15.6485 50.6031 14.9453C51.9827 13.7264 51.9827 12.32 50.6031 11.1245C49.2516 9.97598 47.872 8.82741 46.4924 7.70229C45.0283 6.50684 43.2826 6.53028 41.8185 7.74917C41.002 8.42893 40.2137 9.1087 39.369 9.76502C38.3272 10.5854 37.1166 10.7261 35.7932 10.2338C34.667 9.83534 33.569 9.41342 32.4146 9.06182C30.7534 8.54613 30.1058 7.79605 30.0777 6.29588C30.0777 5.40515 30.1058 4.4441 30.0495 3.5065C30.0213 2.38137 29.2048 1.37344 27.966 1.16248C26.8679 0.97496 25.7417 1.02184 24.6155 0.97496C24.6155 6.50684 24.6155 11.8278 24.6155 17.1721C33.4 17.7581 38.9185 23.4775 39.2001 29.4313C39.3408 32.3379 38.4117 34.9866 36.3564 37.3541C33.4563 40.6826 29.4864 42.3937 24.5873 42.7453C24.6155 48.1366 24.6155 53.4809 24.6155 58.9425ZM24.6436 41.6436C29.4301 41.3389 33.1466 39.6043 35.6806 36.3227C38.7496 32.3145 38.8622 28.1187 35.9903 24.0166C33.5126 20.4772 29.6553 18.6488 24.6436 18.2738C24.6436 26.0794 24.6436 33.8146 24.6436 41.6436ZM16.9009 4.60818C16.929 3.90498 16.2814 3.34242 15.4649 3.31898C14.6203 3.29554 13.9164 3.83466 13.8882 4.51442C13.86 5.17075 14.5639 5.80363 15.3523 5.82707C16.1688 5.87395 16.8727 5.31139 16.9009 4.60818ZM2.71044 18.0628C3.52695 18.0863 4.259 17.5237 4.28715 16.844C4.31531 16.1642 3.66773 15.5782 2.82306 15.5547C1.9784 15.5313 1.30266 16.0704 1.27451 16.7502C1.24635 17.43 1.89393 18.0394 2.71044 18.0628ZM2.76675 41.2217C1.95024 41.2217 1.27451 41.7843 1.27451 42.4875C1.27451 43.1907 1.92208 43.7298 2.76675 43.7298C3.58326 43.7298 4.259 43.1672 4.259 42.464C4.28715 41.7843 3.58326 41.2217 2.76675 41.2217ZM11.3824 11.6871C11.3824 11.0073 10.6785 10.4213 9.89011 10.4213C9.0736 10.4213 8.39787 10.9839 8.36971 11.6871C8.36971 12.3903 8.98914 12.9294 9.86196 12.9294C10.7066 12.906 11.3824 12.3669 11.3824 11.6871ZM15.296 55.9656C16.1406 56.0125 16.8445 55.5202 16.9009 54.817C16.9572 54.1372 16.3377 53.5278 15.5212 53.4575C14.7047 53.4106 13.9727 53.9263 13.8882 54.606C13.8037 55.2858 14.4795 55.9187 15.296 55.9656ZM11.3824 47.6678C11.4105 46.9646 10.7629 46.402 9.91827 46.3785C9.0736 46.3551 8.39787 46.8942 8.36971 47.5974C8.34156 48.3006 9.01729 48.8866 9.8338 48.8866C10.6503 48.8866 11.3542 48.3475 11.3824 47.6678Z" fill="#2776EA"/>
</svg>
