<svg width="65" height="65" viewBox="0 0 65 65" fill="none" xmlns="http://www.w3.org/2000/svg">
<path d="M33.8625 53.5331C33.8625 55.2053 33.8863 56.8546 33.8625 58.5268C33.8388 59.695 33.5772 59.9699 32.3883 59.9928C30.9616 60.0386 29.5349 59.9928 28.1083 59.9928C27.2285 59.9928 26.7529 59.6034 26.5627 58.7787C26.2298 57.3356 25.778 55.9383 25.4451 54.4952C25.2787 53.7622 24.8982 53.3727 24.1849 53.0979C21.284 51.9754 21.3078 51.9754 18.5971 53.5789C17.8837 53.9912 17.1466 54.3806 16.4333 54.8159C15.815 55.2053 15.2444 55.2053 14.6975 54.6784C12.2959 52.3649 9.87052 50.0513 7.46894 47.7377C6.82694 47.1192 6.96961 46.4549 7.37383 45.7906C8.11095 44.5995 8.82429 43.4083 9.60897 42.263C10.0845 41.5529 9.98941 40.9573 9.77541 40.1555C9.20474 38.0252 7.84939 37.0173 5.66181 36.8341C4.78203 36.7653 3.9498 36.4447 3.07001 36.2385C2.35667 36.0552 2 35.6658 2 34.9099C2.02378 31.6342 2.02378 28.3586 2 25.0829C2 24.2583 2.428 23.8688 3.1889 23.7085C4.56803 23.3878 5.97093 23.0442 7.35005 22.7693C8.25362 22.5861 8.7054 22.105 9.13341 21.3033C10.1559 19.4707 10.1321 17.8673 8.68162 16.2638C8.13473 15.6224 7.77806 14.7978 7.32628 14.0877C6.87449 13.3775 6.94583 12.7591 7.56406 12.1635C9.91808 9.91863 12.2483 7.67376 14.5786 5.40599C15.1968 4.78751 15.7913 4.76461 16.5284 5.22274C17.8124 6.00157 19.1677 6.71168 20.4517 7.49051C21.0462 7.85702 21.5455 7.90283 22.2351 7.65086C25.136 6.48261 25.1598 6.50552 25.9445 3.57345C26.1585 2.79462 26.3962 2.01579 26.5627 1.23697C26.7054 0.389415 27.2047 0 28.0845 0C29.5587 0.0229068 31.033 -0.0229068 32.531 0.0229068C33.601 0.0458135 33.8625 0.297788 33.8863 1.28278C33.9101 4.69589 33.8863 8.1319 33.9101 11.545C33.9101 12.3926 33.5297 12.7362 32.6736 12.782C30.5098 12.9194 28.3698 13.2401 26.3487 14.1106C20.3091 16.6761 16.671 21.0513 15.4821 27.3507C13.889 35.7345 19.6908 45.1263 30.1056 46.9359C30.9378 47.0734 31.7701 47.0963 32.6023 47.2108C33.7199 47.3712 33.8388 47.4857 33.8625 48.5623C33.8863 50.2116 33.8625 51.8838 33.8625 53.5331ZM15.7913 53.0979C17.1704 52.319 18.5495 51.586 19.8573 50.7614C20.8322 50.1429 21.712 50.0284 22.7344 50.601C23.4953 51.0134 24.3276 51.4028 25.1836 51.586C26.4438 51.8609 26.8956 52.6168 27.1334 53.7622C27.4187 55.2282 27.8943 56.6713 28.2747 58.0457C29.6538 58.0457 30.7952 58.0457 32.1505 58.0457C32.1505 54.9533 32.2694 51.9983 32.0792 49.0663C19.2153 47.7148 13.4134 37.8878 13.4134 30.466C13.4134 26.2282 14.5072 22.3799 17.0753 18.9668C20.7371 14.0877 25.8256 11.6137 32.1268 11.0182C32.1505 7.94865 32.2456 4.99367 32.0792 1.94707C30.7476 1.94707 29.5825 1.94707 28.3223 1.94707C28.1796 2.3594 28.0132 2.74881 27.918 3.16113C27.6089 4.35228 27.2998 5.56634 27.0145 6.75749C26.8243 7.49051 26.5151 8.01737 25.6591 8.26934C24.5416 8.56713 23.4478 9.04817 22.4015 9.52921C21.5931 9.91863 20.9035 9.87281 20.1664 9.41468C19.358 8.88782 18.5019 8.40678 17.6459 7.92574C17.0277 7.58214 16.3857 7.23854 15.9101 6.98656C13.5799 9.23142 11.3685 11.3159 9.10963 13.4921C9.96564 14.8665 10.8216 16.3096 11.749 17.7069C12.177 18.3712 12.2721 18.9439 11.8441 19.6769C11.321 20.639 10.8692 21.6698 10.5363 22.7006C10.2748 23.5252 9.84675 23.9834 8.94318 24.1666C7.54028 24.4415 6.18493 24.8996 4.80581 25.1745C4.04491 25.3349 3.71202 25.6785 3.71202 26.4344C3.7358 28.8167 3.7358 31.1761 3.71202 33.5584C3.71202 34.2685 3.97358 34.6808 4.75825 34.8412C6.20871 35.139 7.61161 35.5742 9.03829 35.872C9.82297 36.0323 10.2034 36.4447 10.465 37.1319C10.8216 38.1168 11.1308 39.1476 11.7014 40.0181C12.3197 41.0031 12.1057 41.759 11.535 42.6295C10.6552 43.9352 9.87052 45.2867 9.13341 46.4549C11.4161 48.7227 13.5561 50.8759 15.7913 53.0979Z" fill="#2776EA"/>
<path d="M43.4213 24.8993C43.4213 26.3653 43.4213 27.6252 43.4213 28.9767C43.992 29.0225 44.4675 29.0683 44.9431 29.0683C47.5111 29.0683 50.0791 29.0454 52.6471 29.0912C53.5983 29.1141 54.1214 28.8164 54.6207 27.9917C56.2376 25.4033 60.0659 25.5178 61.5401 28.1292C62.4912 29.8472 61.9206 32.1607 60.2561 33.1915C58.4252 34.3369 55.8334 33.9475 54.7634 32.1837C54.0976 31.0841 53.3605 30.8322 52.1716 30.878C49.8651 30.9467 47.5349 30.9009 45.2284 30.9009C44.6815 30.9009 44.1584 30.9009 43.4688 30.9009C43.4688 32.2753 43.4688 33.5352 43.4688 35.0012C44.3962 35.0241 45.3473 35.1157 46.3222 35.047C47.5111 34.9554 48.4147 35.299 49.128 36.2611C49.556 36.8337 50.1267 37.3148 50.6022 37.8645C51.4583 38.8495 52.2905 39.4222 53.836 39.2389C56.0712 38.9641 57.8545 40.8424 57.8545 43.0644C57.8308 45.1718 56.1187 46.8669 53.9312 46.9127C51.6247 46.9356 49.8651 45.2863 49.9365 43.0644C49.9602 42.2397 50.2693 41.4151 50.4833 40.3843C49.6036 39.468 48.6287 38.4143 47.6062 37.4064C47.3684 37.1544 46.9404 36.9941 46.5838 36.9712C45.6089 36.9024 44.634 36.9483 43.4926 36.9483C43.4451 37.5667 43.3975 38.0707 43.3737 38.5746C43.3024 39.6284 43.1359 39.7887 42.0659 39.8803C41.8282 39.9032 41.5666 39.9032 41.3288 39.9032C40.5204 39.8803 40.1399 40.2239 40.1637 41.0257C40.1875 41.4151 40.235 41.8274 40.0924 42.1481C39.9735 42.4459 39.6644 42.8124 39.3552 42.8811C38.8559 42.9956 38.523 42.6749 38.4755 42.1481C38.4517 41.8274 38.4755 41.4838 38.4279 41.1631C38.4041 40.8424 38.3328 40.5217 38.2852 40.0865C36.8585 39.8116 35.4794 39.7887 33.9814 40.1094C33.9339 40.7966 33.9101 41.4151 33.8863 42.0336C33.8625 42.5146 33.6723 42.8811 33.1254 42.9269C32.5072 42.9498 32.2694 42.5833 32.2218 42.0336C32.1505 41.3922 32.2218 40.4759 31.8414 40.201C31.342 39.8345 30.4385 39.972 29.7251 39.949C29.1545 39.9261 28.56 40.0178 27.8467 40.0636C27.7991 40.7508 27.7278 41.3464 27.704 41.9419C27.6802 42.4688 27.4662 42.904 26.8718 42.9269C26.2298 42.9498 26.0395 42.5146 26.0158 41.9877C25.992 41.6671 25.9682 41.3235 25.992 40.9798C25.992 40.2697 25.6353 39.9949 24.8982 39.9261C22.9246 39.7429 22.9246 39.72 22.8057 37.7958C22.782 37.6126 22.7344 37.4293 22.6631 37.0857C22.0924 37.0399 21.5217 37.017 20.9511 36.9712C20.3566 36.9483 19.8573 36.7879 19.8097 36.1236C19.7859 35.3677 20.3328 35.1844 20.9748 35.1615C21.4979 35.1386 22.0448 35.1157 22.6631 35.0928C22.6631 33.7413 22.6631 32.4814 22.6631 31.0841C21.9973 31.0383 21.3553 31.0154 20.7371 30.9696C20.1902 30.9238 19.7859 30.6718 19.7859 30.0991C19.7859 29.5036 20.1664 29.2516 20.7133 29.2058C21.3077 29.16 21.8784 29.1371 22.6155 29.1141C22.6155 27.7856 22.6155 26.5028 22.6155 25.0826C21.9973 25.0596 21.4028 25.0367 20.8322 24.9909C20.2139 24.9451 19.7622 24.739 19.7859 24.0518C19.8097 23.3645 20.309 23.2042 20.9035 23.1813C21.4266 23.1813 21.9735 23.1813 22.6393 23.1813C22.6868 22.4483 22.7106 21.9443 22.7582 21.4404C22.8295 20.3867 22.9722 20.2492 24.0898 20.1576C24.1849 20.1576 24.28 20.1576 24.3751 20.1576C25.8493 20.066 25.8493 20.066 25.9207 18.6916C25.9444 18.4167 25.8731 18.0731 25.992 17.844C26.1584 17.5691 26.4913 17.1797 26.7529 17.1797C27.0382 17.1797 27.4425 17.5233 27.5376 17.8211C27.6802 18.2563 27.6327 18.7603 27.6327 19.2413C27.6327 19.8369 27.9418 20.1347 28.5362 20.1347C29.3685 20.1576 30.2007 20.1347 31.0567 20.1576C31.7938 20.1576 32.1505 19.8369 32.1267 19.1268C32.1267 18.7374 32.1267 18.3709 32.1743 17.9815C32.2218 17.5004 32.4358 17.1568 32.9827 17.1568C33.5296 17.1568 33.7674 17.4546 33.815 17.9586C33.815 18.0502 33.8387 18.1418 33.8387 18.2334C33.6485 20.4096 34.2905 20.1576 36.0739 20.1805C36.2641 20.1805 36.4781 20.1805 36.6683 20.1805C38.309 20.1576 38.309 20.1347 38.3803 18.5999C38.3803 18.4167 38.3803 18.2105 38.4041 18.0273C38.4279 17.5462 38.6181 17.1797 39.165 17.1568C39.807 17.1339 40.021 17.5233 40.0448 18.0502C40.0448 18.2334 40.0448 18.4396 40.0686 18.6228C40.1399 20.066 40.1399 20.066 41.6855 20.1805C43.1597 20.2721 43.2073 20.318 43.2786 21.784C43.3024 22.1505 43.3499 22.517 43.4213 23.0897C44.5388 23.0897 45.6089 23.1126 46.6789 23.0668C46.9404 23.0668 47.2495 22.9064 47.4635 22.7232C47.8915 22.3337 48.2958 21.9214 48.7 21.4862C49.3182 20.8219 49.9365 20.1347 50.3645 19.6766C50.1742 18.4396 49.8889 17.4775 49.9127 16.5154C49.984 14.5225 51.7674 13.0794 53.8836 13.1023C56.0474 13.1481 57.7119 14.7287 57.807 16.7903C57.8783 18.8519 56.4279 20.5241 54.3592 20.7303C54.1689 20.7532 53.9549 20.799 53.7647 20.7532C52.338 20.3409 51.4583 21.0281 50.626 22.036C50.0553 22.7461 49.3896 23.3645 48.7476 24.0518C48.1769 24.6931 47.5349 24.9451 46.6789 24.9222C45.6564 24.8764 44.5864 24.8993 43.4213 24.8993ZM24.8506 38.0249C25.0171 38.0707 25.2073 38.1394 25.3975 38.1394C30.3671 38.1394 35.3605 38.1623 40.3301 38.1394C40.6868 38.1394 41.0197 37.9791 41.3288 37.8874C41.6617 34.7721 41.519 23.0209 41.1386 21.8985C35.7172 21.8985 30.272 21.8985 24.8506 21.8985C24.3989 23.3875 24.4226 36.765 24.8506 38.0249ZM60.1848 30.0075C60.1848 28.9309 59.1623 27.9001 58.0448 27.8543C56.951 27.8314 55.8572 28.8393 55.8096 29.9159C55.7621 31.0383 56.8796 32.1607 58.021 32.1378C59.1385 32.092 60.161 31.0841 60.1848 30.0075ZM53.8836 14.8661C52.7423 14.8432 51.6723 15.7824 51.6247 16.8819C51.5771 18.0044 52.6471 19.1039 53.836 19.081C54.9774 19.081 55.9761 18.1189 55.9998 16.9965C56.0474 15.8969 55.025 14.889 53.8836 14.8661ZM53.836 40.9111C52.6947 40.9111 51.6722 41.8732 51.6485 42.9727C51.6247 44.0723 52.5996 45.0573 53.7647 45.0802C55.0012 45.1031 56.0474 44.141 56.0236 42.9727C55.9998 41.8503 55.0012 40.9111 53.836 40.9111Z" fill="#2776EA"/>
<path d="M30.914 32.9397C29.6062 33.0084 29.0356 32.9626 28.7502 34.1079C28.6313 34.589 28.2033 35.0929 27.5376 34.7722C26.9907 34.5203 26.8242 34.0621 27.062 33.4665C28.0607 30.9468 29.0356 28.4042 30.058 25.9073C30.2007 25.5866 30.6763 25.1743 30.9854 25.1972C31.2945 25.1972 31.7463 25.6095 31.8889 25.9531C32.9114 28.4729 33.8625 31.0155 34.885 33.5353C35.1465 34.1537 34.9325 34.5661 34.3856 34.818C33.7912 35.0929 33.3632 34.6806 33.2443 34.2225C32.8876 32.9168 31.984 32.7564 30.914 32.9397ZM31.1756 29.1143C30.9616 28.7936 30.9616 28.7936 30.7476 29.1143C30.5336 29.6869 30.3196 30.2596 30.0818 30.9239C30.7238 30.9239 31.1994 30.9239 31.8414 30.9239C31.5798 30.2138 31.3658 29.664 31.1756 29.1143Z" fill="#2776EA"/>
<path d="M38.0237 29.9847C38.0237 31.2217 38.0237 32.4587 38.0237 33.6956C38.0237 34.2683 37.9286 34.841 37.239 34.841C36.4543 34.8639 36.3354 34.2454 36.3354 33.6269C36.3354 31.1988 36.3354 28.7936 36.3354 26.3655C36.3354 26.1822 36.2879 25.9302 36.4068 25.8157C36.6446 25.5637 36.9537 25.1743 37.2152 25.1743C37.4768 25.1743 37.9048 25.5866 37.9523 25.8386C38.0712 26.6403 38.0237 27.4421 38.0237 28.2438C38.0475 28.8394 38.0475 29.4121 38.0237 29.9847Z" fill="#2776EA"/>
</svg>
