<svg width="60" height="60" viewBox="0 0 60 60" fill="none" xmlns="http://www.w3.org/2000/svg">
<path d="M53.7485 22.9807C52.7798 23.656 51.8992 24.2966 50.9833 24.9199C50.6134 25.1796 50.1731 25.1796 49.9265 24.7295C49.6976 24.3139 49.8913 23.9503 50.314 23.7599C54.4354 21.8034 55.5274 16.1935 52.1458 12.2458C48.8698 8.41937 43.445 8.12502 39.6935 11.5706C39.2884 11.9342 38.8657 12.5056 38.3197 11.8822C37.8265 11.3282 38.3901 10.9473 38.76 10.5837C39.077 10.2893 39.394 10.0296 39.7815 9.70063C39.5173 9.5448 39.2884 9.40628 39.077 9.26777C38.1435 8.6964 37.4742 7.89994 37.0515 6.91302C36.8754 6.51479 36.9459 6.15119 37.3686 5.97805C37.7913 5.78759 38.0555 6.01267 38.302 6.35896C38.76 6.96496 39.2003 7.62291 39.7815 8.09039C40.5213 8.6964 41.4019 8.92148 42.3882 8.41937C42.9342 8.14234 43.5859 8.05577 44.2024 7.89994C45.0302 4.45438 41.6661 0.939574 37.985 1.40706C34.9556 1.78798 32.8773 4.1081 32.8597 7.10348C32.8421 9.666 32.8597 12.2285 32.8597 14.791C32.8597 14.9815 32.8773 15.2066 32.8421 15.3797C32.7716 15.6914 32.6131 15.9338 32.2256 15.9684C31.9614 15.9857 31.5915 15.6221 31.5563 15.3797C31.4506 14.8257 31.5211 14.237 31.5211 13.6656C31.5211 11.484 31.5211 9.28508 31.5211 7.10348C31.5387 3.17312 34.6033 0.0911715 38.531 0.0392285C42.4411 -0.0127146 45.5938 3.03461 45.6818 6.94765C45.6818 7.22468 45.6818 7.48439 45.6818 7.81337C49.2925 8.00382 52.0929 9.5448 53.9951 12.4882C55.8973 15.449 56.003 18.5656 54.453 21.6995C61.4982 24.9892 61.6743 33.629 55.8797 37.8711C56.9893 40.3816 57.0774 42.9095 55.8268 45.4028C54.5587 47.8961 52.4804 49.3851 49.7504 50.0084C49.6447 50.6663 49.5919 51.3243 49.4686 51.9476C48.5175 56.3628 44.308 59.4447 39.852 58.9945C34.9908 58.5097 31.5739 54.8564 31.5387 50.1296C31.5211 48.2077 31.5387 46.3031 31.5387 44.3812C31.5387 43.8791 31.5387 43.3424 32.1904 43.3251C32.8949 43.3078 32.8949 43.8791 32.8949 44.3986C32.8949 46.2858 32.8949 48.1731 32.8949 50.0603C32.9125 53.2981 34.8147 56.0511 37.8441 57.1592C40.8911 58.2847 44.2904 57.4536 46.4216 55.0469C48.5527 52.6402 48.9402 49.2466 47.3903 46.4243C47.1437 45.9742 46.721 45.4547 47.4079 45.0738C48.0596 44.7275 48.3766 45.2989 48.588 45.7837C48.9754 46.6841 49.3277 47.619 49.6976 48.5367C54.2417 47.7749 56.7955 42.3555 54.6116 38.529C53.2201 39.1523 51.723 39.3774 50.1907 39.3428C49.6976 39.3255 49.2044 39.2908 49.1868 38.6848C49.1692 38.0442 49.68 37.9749 50.2083 37.9923C54.999 38.2866 58.2398 34.3909 58.6449 30.7375C59.0148 27.4825 56.7779 23.8984 53.7485 22.9807Z" fill="#2776EA"/>
<path d="M10.2974 50.0434C4.67887 48.7621 1.73752 43.1523 4.11526 37.8368C1.31482 35.6898 -0.235115 32.8849 0.0290774 29.3355C0.29327 25.7687 2.31875 23.3274 5.55951 21.7345C3.97436 18.5486 4.09765 15.4147 6.01745 12.454C7.90203 9.51054 10.6849 7.98688 14.2603 7.79643C14.2955 7.277 14.2955 6.79219 14.3483 6.29008C14.7006 2.63675 17.9061 -0.13354 21.6401 0.00497464C25.3388 0.143489 28.3858 3.08693 28.4562 6.72294C28.5091 9.51055 28.4738 12.2982 28.4738 15.0684C28.4738 15.5359 28.3858 15.9515 27.8046 15.9515C27.1881 15.9515 27.1 15.5186 27.1177 15.0165C27.1177 12.3328 27.1353 9.64906 27.1177 6.96534C27.1 4.0219 24.916 1.68447 21.8866 1.35549C19.139 1.06115 16.4795 2.94841 15.8278 5.71871C15.6693 6.39396 15.6869 7.12117 15.6341 7.79643C16.6028 8.10808 17.4658 8.40243 18.3288 8.66214C18.5578 8.7314 18.822 8.67946 19.0686 8.6102C20.2486 8.26391 21.1293 7.55403 21.6401 6.44591C21.8514 5.99574 22.1508 5.71871 22.644 5.96111C23.1371 6.20351 23.0667 6.61905 22.8553 7.05191C22.3093 8.21197 21.4111 9.06037 20.1782 9.64906C20.6185 10.03 20.9884 10.3589 21.3582 10.6879C21.7281 11.0169 22.098 11.4151 21.6577 11.8826C21.2173 12.3501 20.7946 12.0211 20.4248 11.6748C18.505 9.85683 16.2153 9.00843 13.5381 9.19889C7.83157 9.61443 4.06242 16.1419 6.75719 20.9726C7.40886 22.1327 8.32473 23.033 9.52241 23.6564C9.99796 23.8988 10.3854 24.1931 10.0684 24.7472C9.76899 25.2666 9.27583 25.0934 8.87073 24.8337C8.0077 24.245 7.19751 23.6217 6.2288 22.9292C4.00958 23.8641 2.35397 25.4917 1.63185 27.933C0.205206 32.781 4.13287 38.1658 9.38151 38.0446C9.57525 38.0446 9.7866 38.0446 9.98034 38.0273C10.4559 38.0099 10.8081 38.1831 10.8258 38.6679C10.8434 39.17 10.4911 39.3431 10.0156 39.3605C8.5537 39.4124 7.14467 39.2739 5.77087 38.7025C5.64758 38.6506 5.5419 38.6159 5.43622 38.564C3.41075 41.6633 5.13681 47.4809 10.3502 48.589C10.6144 47.8445 10.861 47.1 11.1428 46.3728C11.2837 46.0265 11.4774 45.6975 11.6712 45.3858C11.9001 45.0049 12.2524 44.8837 12.6399 45.1088C13.0274 45.3339 13.0626 45.6975 12.8336 46.0784C12.1643 47.1692 11.7945 48.3293 11.7064 49.5932C11.407 53.8179 14.7887 57.4886 19.1566 57.679C23.4542 57.8522 27.0648 54.4932 27.1177 50.2858C27.1353 48.2947 27.1353 46.3035 27.1177 44.3124C27.1177 43.8276 27.1705 43.3428 27.7693 43.3254C28.421 43.3081 28.4738 43.8102 28.4738 44.3297C28.4562 46.3208 28.4915 48.312 28.4738 50.3031C28.421 55.0126 24.6871 58.7698 19.8435 59.0122C15.1057 59.2546 10.9138 55.7225 10.4031 51.0996C10.3678 50.7706 10.3326 50.4243 10.2974 50.0434Z" fill="#2776EA"/>
<path d="M20.2484 39.084C21.1114 40.677 20.9529 42.0448 19.8433 42.9971C18.8393 43.8628 17.3599 43.9321 16.2679 43.1529C15.1759 42.3738 14.7708 40.9713 15.2991 39.7593C15.9156 38.3568 17.1661 37.8374 19.174 38.2183C19.808 37.3699 20.4597 36.4696 21.1642 35.6385C21.3932 35.3615 21.7983 35.1017 22.1329 35.0844C23.9471 35.0325 25.7788 35.0671 27.5929 35.0498C28.0509 35.0498 28.4207 35.2056 28.4383 35.6904C28.456 36.2445 28.0685 36.4003 27.5753 36.383C27.3816 36.383 27.1702 36.383 26.9765 36.383C25.4442 36.383 23.8942 36.383 22.2915 36.383C21.6222 37.266 20.9529 38.1664 20.2484 39.084ZM17.9411 39.3784C17.0957 39.3957 16.444 40.0883 16.4616 40.9367C16.4968 41.7331 17.1837 42.3738 17.9939 42.3565C18.8041 42.3391 19.4734 41.6639 19.4734 40.8674C19.4734 40.0536 18.7689 39.3611 17.9411 39.3784Z" fill="#2776EA"/>
<path d="M40.8029 38.2175C42.8989 37.8886 44.1141 38.3907 44.713 39.8278C45.2061 41.0052 44.801 42.4076 43.7443 43.1521C42.6347 43.9486 41.12 43.862 40.116 42.9617C39.0416 42.0094 38.9007 40.6416 39.7638 39.0833C39.1121 38.2175 38.4428 37.3345 37.7383 36.3995C36.1707 36.3995 34.6032 36.3995 33.0533 36.3995C32.8243 36.3995 32.5953 36.3995 32.3664 36.3995C31.8908 36.3995 31.5562 36.2264 31.5562 35.7243C31.5738 35.2222 31.9437 35.0663 32.4016 35.0663C33.564 35.0663 34.7441 35.1875 35.8889 35.0317C37.7559 34.7893 39.1121 35.3434 39.9575 37.0402C40.1336 37.473 40.5035 37.802 40.8029 38.2175ZM43.5505 40.9186C43.5858 40.0875 42.8989 39.3776 42.0711 39.3603C41.2785 39.3603 40.574 40.0182 40.5387 40.7974C40.5035 41.6112 41.208 42.3384 42.0358 42.3384C42.846 42.373 43.5153 41.7324 43.5505 40.9186Z" fill="#2776EA"/>
<path d="M18.9981 30.2707C18.1174 32.0368 16.9902 32.6947 15.5107 32.3658C14.1898 32.0714 13.2739 30.9806 13.2563 29.6301C13.2387 28.3315 14.1193 27.1888 15.3875 26.8771C16.8845 26.4962 18.0294 27.1368 19.0157 28.9375C21.7457 28.9375 24.4933 28.9375 27.2585 28.9375C27.4875 28.9375 27.7693 28.8683 27.9278 28.9722C28.1568 29.128 28.421 29.4223 28.4386 29.6647C28.4562 29.8552 28.1216 30.1149 27.875 30.2361C27.6988 30.3227 27.4346 30.2707 27.2057 30.2707C24.4757 30.2707 21.7457 30.2707 18.9981 30.2707ZM16.1448 28.1411C15.317 28.1238 14.6477 28.7644 14.6301 29.5609C14.5949 30.3919 15.2818 31.1018 16.1096 31.1018C16.9198 31.1191 17.6067 30.4612 17.6419 29.6647C17.6595 28.8336 16.9902 28.1411 16.1448 28.1411Z" fill="#2776EA"/>
<path d="M40.9968 28.9375C41.9831 27.1368 43.128 26.4962 44.6074 26.8771C45.9108 27.2061 46.7738 28.3662 46.7386 29.6994C46.7034 30.9979 45.7875 32.0714 44.5018 32.3658C43.0223 32.6947 41.8774 32.0195 41.0144 30.2707C40.7326 30.2707 40.4156 30.2707 40.0985 30.2707C37.7032 30.2707 35.2902 30.2707 32.8949 30.2707C32.7188 30.2707 32.5426 30.2707 32.3665 30.2707C31.8909 30.2707 31.5387 30.0976 31.5563 29.5955C31.5739 29.0934 31.9262 28.9375 32.3841 28.9375C34.1278 28.9375 35.8715 28.9375 37.6151 28.9375C38.76 28.9375 39.8872 28.9375 40.9968 28.9375ZM43.8853 28.1411C43.0399 28.1411 42.353 28.8163 42.3706 29.6474C42.3882 30.4439 43.0575 31.1018 43.8677 31.1191C44.6955 31.1191 45.4 30.4266 45.3824 29.5955C45.3648 28.7817 44.7131 28.1411 43.8853 28.1411Z" fill="#2776EA"/>
<path d="M23.2254 20.1935C23.789 21.0592 24.335 21.925 24.8986 22.8253C25.7792 22.8253 26.6599 22.8253 27.5405 22.8253C28.0161 22.8253 28.4388 22.9465 28.4564 23.4832C28.474 24.0373 28.0513 24.1585 27.5758 24.1585C26.6423 24.1585 25.7088 24.2104 24.7753 24.1239C24.4407 24.0892 24.018 23.8642 23.8066 23.5871C23.1725 22.7214 22.6265 21.8038 22.0629 20.9207C20.0903 21.0939 18.8926 20.4879 18.3995 19.0854C17.9591 17.8388 18.4523 16.4709 19.5971 15.761C20.7244 15.0685 22.2215 15.2416 23.1549 16.1593C24.2117 17.2155 24.2469 18.6179 23.2254 20.1935ZM21.1471 19.6568C21.9749 19.6395 22.6618 18.9469 22.6265 18.1158C22.5913 17.3193 21.922 16.6614 21.1118 16.6787C20.2664 16.696 19.5971 17.3886 19.6324 18.2197C19.65 19.0161 20.3369 19.6741 21.1471 19.6568Z" fill="#2776EA"/>
<path d="M37.932 20.9032C37.3684 21.8036 36.7871 22.652 36.2587 23.5177C35.9946 23.9506 35.6951 24.1583 35.1667 24.141C34.2333 24.1064 33.2998 24.1237 32.3663 24.141C31.8908 24.141 31.5385 23.9852 31.5385 23.4831C31.5385 22.981 31.8908 22.8078 32.3663 22.8078C33.2822 22.8078 34.1804 22.8078 35.0787 22.8078C35.2196 22.6 35.3429 22.4442 35.4486 22.2711C35.8889 21.5785 36.3292 20.8859 36.7695 20.1934C35.6247 18.5312 35.8713 17.0595 36.9633 16.0552C37.932 15.1549 39.4291 15.0683 40.5387 15.8128C41.6131 16.54 42.0534 17.9079 41.5954 19.1199C41.0494 20.5223 39.8518 21.1283 37.932 20.9032ZM38.8654 16.6785C38.02 16.6785 37.3507 17.3884 37.3684 18.2195C37.386 19.016 38.0729 19.6739 38.8831 19.6739C39.6933 19.6739 40.3625 18.9987 40.3802 18.2022C40.3978 17.3538 39.7109 16.6785 38.8654 16.6785Z" fill="#2776EA"/>
<path d="M23.6653 49.1604C23.5949 50.9784 22.8199 52.3463 21.2347 53.16C19.6496 53.9738 18.0644 53.8526 16.5497 52.9003C16.4264 52.8137 16.2327 52.7445 16.1975 52.6233C16.0918 52.3116 15.9157 51.8961 16.0389 51.6537C16.2327 51.2728 16.673 51.3074 17.0077 51.5671C17.7298 52.1212 18.54 52.4155 19.4735 52.3116C21.1291 52.1212 22.3444 50.7187 22.2739 49.0565C22.2739 48.8661 22.2387 48.6583 22.2034 48.4678C22.133 48.035 22.2563 47.706 22.6966 47.6021C23.1898 47.4982 23.454 47.8099 23.542 48.2428C23.6125 48.589 23.6301 48.9007 23.6653 49.1604Z" fill="#2776EA"/>
<path d="M36.2939 49.3331C36.382 48.831 36.3644 48.3981 36.5405 48.0691C36.6462 47.844 37.0689 47.6016 37.2802 47.6536C37.4916 47.7055 37.7206 48.0691 37.791 48.3462C37.8615 48.5886 37.7206 48.8829 37.7206 49.1599C37.703 50.4239 38.2666 51.3762 39.3762 51.9822C40.4682 52.5709 41.5602 52.5016 42.6169 51.861C42.7226 51.7917 42.8283 51.7225 42.9164 51.6359C43.2862 51.3589 43.6737 51.255 43.9731 51.6532C44.3078 52.0861 44.0612 52.4323 43.6913 52.7267C41.384 54.5793 37.7558 53.6443 36.6814 50.8914C36.4877 50.3719 36.4172 49.8006 36.2939 49.3331Z" fill="#2776EA"/>
<path d="M5.27772 30.0269C5.31294 28.8669 5.85894 27.8107 6.77481 26.9103C7.09184 26.5987 7.47932 26.4602 7.83158 26.8064C8.18384 27.1527 8.06055 27.5336 7.74352 27.8453C5.55952 29.9403 6.88049 32.7279 9.55764 33.1435C10.0684 33.2301 10.5616 33.3686 10.3854 34.0092C10.315 34.2343 9.9099 34.5113 9.68093 34.494C7.16229 34.2516 5.31294 32.5202 5.27772 30.0269Z" fill="#2776EA"/>
<path d="M54.717 30.0627C54.6642 32.6079 52.7268 34.2874 50.2786 34.5125C50.0672 34.5298 49.6093 34.1835 49.6093 34.0104C49.6093 33.7507 49.8559 33.4044 50.1025 33.2659C50.4371 33.0754 50.8774 33.0927 51.2473 32.9369C53.4313 32.1058 53.9949 29.855 52.4802 28.1062C52.128 27.708 51.6524 27.3444 52.1632 26.7903C52.4978 26.4267 52.9734 26.5999 53.537 27.2578C54.2767 28.1062 54.6994 29.0585 54.717 30.0627Z" fill="#2776EA"/>
<path d="M50.5956 16.9903C50.6132 17.1289 50.5956 17.2847 50.5604 17.4232C50.3666 18.0985 50.2081 18.7564 49.9791 19.4144C49.8206 19.8645 49.4684 20.1416 48.9752 19.9165C48.5173 19.7087 48.6053 19.3278 48.711 18.8949C48.8871 18.0811 49.1513 17.2327 49.028 16.4363C48.8167 14.9992 47.5309 14.1854 45.9634 14.2374C45.7344 14.2547 45.5055 14.272 45.2941 14.3066C44.8362 14.3759 44.4487 14.272 44.3782 13.7699C44.3078 13.2678 44.66 13.0773 45.1004 12.9734C47.8832 12.3501 50.2257 13.8911 50.5956 16.9903Z" fill="#2776EA"/>
<path d="M9.36361 17.1987C9.50451 14.3072 12.1112 12.2987 14.9469 12.9913C15.3872 13.0952 15.7218 13.303 15.6338 13.8051C15.5281 14.3245 15.1406 14.3418 14.6827 14.3245C14.1015 14.2899 13.5026 14.2206 12.9566 14.3591C11.2834 14.7574 10.4732 16.4888 11.0368 18.3068C11.1073 18.5492 11.1953 18.6531 11.301 18.9994C11.3891 19.311 11.2834 19.8651 10.984 19.917C10.5613 19.9863 10.3499 19.8997 10.0857 19.5188C9.61019 18.8609 9.45167 17.9778 9.36361 17.1987Z" fill="#2776EA"/>
</svg>
