<svg width="60" height="60" viewBox="0 0 60 60" fill="none" xmlns="http://www.w3.org/2000/svg">
<path d="M0.0818833 31.3827C0.0818833 30.4404 0.0818833 29.5186 0.0818833 28.5763C0.409417 28.2076 0.716479 27.593 1.08495 27.5316C2.14944 27.3882 3.25486 27.4087 4.31934 27.5111C4.62641 27.5316 4.93347 27.9822 5.17912 28.31C5.32242 28.5149 5.32242 28.8221 5.42477 29.1294C6.48925 29.1294 7.55374 29.1089 8.61822 29.1499C9.12999 29.1704 9.3347 29.027 9.31423 28.4739C9.27329 26.3844 9.29376 24.295 9.29376 22.226C9.29376 22.0212 9.27329 21.8163 9.25281 21.591C7.92221 21.591 6.63255 21.591 5.36336 21.591C5.11771 22.9225 4.66735 23.3117 3.35722 23.3117C2.98874 23.3117 2.62027 23.2707 2.25179 23.3117C1.24872 23.4141 0.511771 23.0864 0.0818833 22.1441C0.0818833 21.2018 0.0818833 20.28 0.0818833 19.3377C0.388946 18.6207 0.839304 18.1086 1.67861 18.0881C2.37462 18.0676 3.0911 18.0676 3.7871 18.0881C4.60594 18.1291 5.15865 18.6207 5.32242 19.4401C5.34289 19.5425 5.36336 19.6654 5.38383 19.7883C6.69396 19.7883 7.94268 19.7883 9.29376 19.7883C9.29376 19.3991 9.27329 19.0304 9.29376 18.6617C9.35517 17.4531 10.1945 16.6541 11.4023 16.5927C11.8526 16.5927 12.4463 16.6951 12.6714 16.4698C12.8966 16.224 12.7738 15.6299 12.7943 15.1792C12.8557 13.7453 13.8383 12.7825 15.2508 12.7211C15.7011 12.7211 16.3153 12.844 16.5404 12.5982C16.7656 12.3728 16.6428 11.7583 16.6633 11.3281C16.7247 10.0785 17.5435 9.25913 18.7922 9.21816C19.1402 9.21816 19.4882 9.21816 19.8567 9.21816C19.8567 7.84568 19.8567 6.57562 19.8567 5.30557C18.4852 5.01878 18.1372 4.56811 18.1372 3.17515C18.1372 2.80642 18.1576 2.43769 18.1372 2.06897C18.0553 1.06521 18.4237 0.348242 19.3859 0C20.3275 0 21.2487 0 22.1904 0C22.4565 0.184363 22.7636 0.348242 22.9683 0.573575C23.5415 1.2086 23.5619 4.09696 22.9478 4.69102C22.5998 5.01878 22.1085 5.18266 21.6377 5.42847C21.6377 6.61659 21.6377 7.88665 21.6377 9.21816C21.9243 9.21816 22.1494 9.21816 22.3746 9.21816C24.0942 9.21816 25.7932 9.21816 27.5128 9.21816C28.0246 9.21816 28.782 9.36156 29.0072 9.09525C29.2938 8.7675 29.1505 8.07101 29.1505 7.53841C29.1709 6.78047 29.1505 6.04302 29.1505 5.30557C27.7994 5.05975 27.4104 4.5886 27.39 3.31854C27.39 2.90884 27.4104 2.49915 27.39 2.08945C27.3081 1.10618 27.6561 0.389211 28.5977 0C29.5394 0 30.4606 0 31.4023 0C32.3234 0.389211 32.6919 1.10618 32.61 2.08945C32.5896 2.41721 32.61 2.74496 32.61 3.09321C32.61 4.62957 32.3644 4.93684 30.8495 5.34654C30.8495 6.43223 30.87 7.55889 30.8291 8.66507C30.8086 9.15671 31.0133 9.23865 31.4432 9.23865C33.5926 9.21816 35.7216 9.23865 37.871 9.23865C38.0348 9.23865 38.219 9.21816 38.3828 9.19768C38.3828 7.86617 38.3828 6.59611 38.3828 5.32605C37.0522 5.08023 36.6633 4.62957 36.6633 3.31854C36.6633 2.94981 36.7042 2.58109 36.6633 2.21236C36.5609 1.2086 36.9089 0.471151 37.8301 0.0409696C38.7717 0.0409696 39.6929 0.0409696 40.6346 0.0409696C41.5967 0.389211 41.9652 1.10618 41.9038 2.10994C41.8833 2.47866 41.9038 2.84739 41.9038 3.21611C41.9038 4.62957 41.5558 5.05975 40.1842 5.36702C40.1842 6.63708 40.1842 7.92762 40.1842 9.27962C40.4913 9.27962 40.7779 9.27962 41.0645 9.27962C42.5179 9.3001 43.3367 10.1195 43.3777 11.5534C43.3982 12.762 43.3982 12.762 44.6673 12.7825C46.2027 12.803 47.1853 13.7658 47.2467 15.2817C47.2876 16.6132 47.2876 16.6132 48.5977 16.6337C49.8669 16.6746 50.7062 17.4735 50.7677 18.7641C50.7881 19.1123 50.7677 19.4606 50.7677 19.8293C52.1392 19.8293 53.4084 19.8293 54.6776 19.8293C54.9642 18.4773 55.3941 18.1086 56.7656 18.1086C57.1546 18.1086 57.5435 18.1291 57.9324 18.1086C58.9355 18.0471 59.6315 18.4158 60 19.3581C60 20.3004 60 21.2223 60 22.1646C59.8158 22.4309 59.652 22.7381 59.4268 22.943C58.7922 23.537 55.9058 23.537 55.3122 22.9225C54.9846 22.5743 54.8209 22.0826 54.5548 21.591C53.3879 21.591 52.1392 21.591 50.8291 21.591C50.8086 21.7958 50.7881 22.0007 50.7881 22.185C50.7881 24.336 50.7881 26.4664 50.7881 28.6173C50.7881 28.8631 50.7267 29.1499 51.1361 29.1499C52.3234 29.1499 53.5107 29.1499 54.6776 29.1499C55.0461 27.675 55.3941 27.3882 56.868 27.3882C57.216 27.3882 57.564 27.4087 57.912 27.3882C58.8946 27.2858 59.6111 27.6545 60 28.5968C60 29.5391 60 30.4609 60 31.4032C59.6929 31.9768 59.3449 32.5504 58.608 32.5708C57.7687 32.5913 56.9294 32.6118 56.0901 32.5708C55.4964 32.5504 55.087 32.1611 54.8618 31.6285C54.7799 31.4032 54.739 31.1574 54.6571 30.8706C53.5517 30.8706 52.4667 30.8911 51.3818 30.8501C50.8905 30.8296 50.7472 31.014 50.7677 31.4851C50.7881 33.5951 50.7677 35.705 50.7881 37.815C50.7881 37.9993 50.8086 38.2042 50.8291 38.409C52.1597 38.409 53.4289 38.409 54.6981 38.409C54.9642 37.057 55.4145 36.6883 56.7656 36.6883C57.1136 36.6883 57.4616 36.7088 57.8096 36.6883C58.8127 36.5859 59.5496 36.9136 59.9795 37.8559C59.9795 38.7982 59.9795 39.72 59.9795 40.6623C59.6111 41.6251 58.915 41.9939 57.912 41.9119C57.5435 41.8914 57.175 41.9119 56.8065 41.9119C55.3941 41.9119 54.9642 41.5637 54.6776 40.1912C53.4084 40.1912 52.1187 40.1912 50.7677 40.1912C50.7677 40.5394 50.7677 40.8467 50.7677 41.154C50.7267 42.506 49.9284 43.3254 48.5977 43.3868C48.1679 43.4073 47.5947 43.3049 47.39 43.5302C47.1648 43.7556 47.2876 44.3291 47.2671 44.7593C47.2057 46.2137 46.2845 47.156 44.8516 47.238C44.4012 47.2585 43.7871 47.1151 43.5619 47.3609C43.3163 47.6272 43.4391 48.2417 43.3982 48.6924C43.3367 49.8805 42.5384 50.6794 41.3511 50.7614C40.9826 50.7818 40.6141 50.7614 40.2252 50.7614C40.2252 52.1338 40.2252 53.4039 40.2252 54.674C41.5967 54.9812 41.9447 55.4114 41.9447 56.8249C41.9447 57.1731 41.9243 57.5213 41.9447 57.8696C42.0266 58.8733 41.6581 59.6108 40.6755 60C39.7339 60 38.8127 60 37.871 60C37.2569 59.6518 36.7247 59.2626 36.7042 58.4636C36.7042 57.7262 36.6837 56.9887 36.7042 56.2308C36.7247 55.5138 37.175 54.9812 37.871 54.7969C38.0553 54.7559 38.2395 54.7149 38.4033 54.674C38.4033 53.3629 38.4033 52.1133 38.4033 50.8638C38.3419 50.8228 38.3009 50.8023 38.26 50.8023C35.9058 50.8023 33.5517 50.7818 31.1771 50.7818C31.0747 50.7818 30.87 50.9457 30.87 51.0277C30.8495 52.2567 30.8495 53.4653 30.8495 54.674C32.2211 54.9403 32.5896 55.3909 32.5896 56.7224C32.5896 57.1116 32.5691 57.5009 32.5896 57.8901C32.6714 58.8733 32.3234 59.5903 31.3818 59.9795C30.4401 59.9795 29.5189 59.9795 28.5773 59.9795C28.0041 59.6722 27.4309 59.3445 27.4104 58.5866C27.39 57.7467 27.3695 56.9068 27.4104 56.0669C27.4309 55.4933 27.7994 55.0836 28.3112 54.8583C28.5568 54.7559 28.8229 54.7149 29.13 54.633C29.13 53.5473 29.1095 52.4411 29.1505 51.3554C29.1709 50.8638 28.9867 50.7409 28.5159 50.7409C26.4074 50.7614 24.2989 50.7409 22.1904 50.7409C22.0061 50.7409 21.8014 50.7614 21.5967 50.7818C21.5967 52.1134 21.5967 53.3834 21.5967 54.6535C22.9683 54.9198 23.3163 55.35 23.3163 56.7224C23.3163 57.0707 23.2958 57.4189 23.3163 57.7672C23.4186 58.7709 23.0706 59.5084 22.1494 59.9385C21.2078 59.9385 20.2866 59.9385 19.3449 59.9385C18.3828 59.5698 18.0143 58.8733 18.0757 57.8696C18.0962 57.5009 18.0757 57.1321 18.0757 56.7634C18.0757 55.35 18.4237 54.9198 19.7953 54.6125C19.7953 53.3424 19.7953 52.0724 19.7953 50.6999C19.4268 50.6999 19.0993 50.7204 18.7717 50.6999C17.4411 50.6384 16.6428 49.8191 16.6018 48.508C16.5609 47.238 16.5609 47.238 15.2712 47.1765C13.7359 47.1151 12.7738 46.1523 12.7329 44.6159C12.6919 43.3663 12.6919 43.3663 11.4023 43.3049C11.3408 43.3049 11.2794 43.3049 11.218 43.3049C10.0716 43.2229 9.27329 42.424 9.23234 41.2564C9.21187 40.8877 9.23234 40.519 9.23234 40.1297C7.88127 40.1297 6.59161 40.1297 5.32242 40.1297C5.01535 41.5227 4.58547 41.8505 3.17298 41.8505C2.8045 41.8505 2.43603 41.83 2.06755 41.8505C1.08495 41.9119 0.368475 41.5432 0 40.6009C0 39.6586 0 38.7368 0 37.7945C0.348004 37.1799 0.73695 36.6473 1.53531 36.6268C2.27226 36.6268 3.00921 36.6064 3.76663 36.6268C4.48311 36.6473 5.01535 37.098 5.19959 37.7945C5.24053 37.9788 5.28147 38.1632 5.32242 38.3271C6.63255 38.3271 7.88127 38.3271 9.12999 38.3271C9.17093 38.2656 9.1914 38.2247 9.1914 38.1837C9.21187 35.8279 9.21187 33.4722 9.21187 31.0959C9.21187 30.9935 9.04811 30.7887 8.96622 30.7887C7.73797 30.7682 6.53019 30.7682 5.32242 30.7682C5.05629 32.1407 4.60594 32.5094 3.27533 32.5094C2.88639 32.5094 2.49744 32.4889 2.1085 32.5094C1.18731 32.6733 0.470829 32.325 0.0818833 31.3827ZM30.0307 14.4418C25.261 14.4418 20.4708 14.4418 15.7011 14.4418C14.6981 14.4418 14.4933 14.6262 14.4933 15.6299C14.4933 17.3506 14.4933 19.0714 14.4933 20.7921C14.4933 21.3657 14.1453 21.7139 13.654 21.7139C13.1627 21.7139 12.8352 21.3657 12.8147 20.7921C12.7943 20.3004 12.8147 19.8088 12.8147 19.3377C12.7738 18.211 13.0194 18.3134 11.7298 18.2929C11.1975 18.2929 10.9928 18.4978 10.9928 19.0099C10.9928 26.3025 10.9928 33.6156 10.9928 40.9082C10.9928 41.6046 11.1157 41.6251 12.1597 41.6661C12.7738 41.6866 12.7943 41.3998 12.7943 40.9286C12.7943 35.8279 12.7943 30.7477 12.7943 25.647C12.7943 25.4012 12.7943 25.1349 12.8352 24.889C12.9171 24.4793 13.1832 24.254 13.6131 24.2335C14.0635 24.213 14.3705 24.4384 14.4524 24.8686C14.5138 25.1144 14.4933 25.3807 14.4933 25.6265C14.4933 31.8129 14.4933 37.9993 14.4933 44.1857C14.4933 45.3534 14.6571 45.5172 15.8035 45.5172C25.3019 45.5172 34.8004 45.5172 44.2989 45.5172C45.3634 45.5172 45.5681 45.3124 45.5681 44.2472C45.5681 34.7217 45.5681 25.1963 45.5681 15.6709C45.5681 14.5852 45.3838 14.4213 44.2989 14.4213C39.5496 14.4418 34.8004 14.4418 30.0307 14.4418ZM30.0512 12.7416C30.4197 12.7416 30.7881 12.7416 31.1566 12.7416C34.4729 12.7416 37.7892 12.7416 41.1054 12.7416C41.2897 12.7416 41.6581 12.6596 41.6581 12.5777C41.6991 12.127 41.74 11.6354 41.6172 11.2052C41.5763 11.0413 41.0645 10.9389 40.7574 10.9389C33.6131 10.9184 26.4688 10.9184 19.3449 10.9184C19.2016 10.9184 19.0788 10.9184 18.9355 10.9184C18.567 10.9389 18.3828 11.1028 18.3828 11.4715C18.3828 11.6763 18.4033 11.8607 18.3828 12.0656C18.3009 12.5777 18.4852 12.7416 19.0379 12.7416C22.7021 12.7211 26.3664 12.7416 30.0512 12.7416ZM47.2876 29.9283C47.2876 30.0307 47.2876 30.1332 47.2876 30.2151C47.2876 33.7999 47.2876 37.4053 47.2876 40.9901C47.2876 41.195 47.3081 41.5227 47.4514 41.6046C48.1679 42.0553 49.089 41.5227 49.089 40.7033C49.089 33.5541 49.089 26.4254 49.089 19.2762C49.089 19.1533 49.089 19.0509 49.089 18.928C49.089 18.5183 48.9253 18.3134 48.4954 18.3134C48.3112 18.3134 48.1474 18.3339 47.9632 18.3134C47.4309 18.252 47.2671 18.4363 47.2671 18.9894C47.2876 22.6152 47.2876 26.2615 47.2876 29.9283ZM30.0307 47.238C29.826 47.238 29.6008 47.238 29.3961 47.238C25.9365 47.238 22.4974 47.238 19.0379 47.238C18.8332 47.238 18.5056 47.2585 18.4237 47.4018C17.9734 48.1393 18.5056 49.0406 19.3449 49.0406C26.4893 49.0406 33.6131 49.0406 40.7574 49.0406C40.9007 49.0406 41.0235 49.0406 41.1668 49.0406C41.5148 49.0201 41.6991 48.8563 41.7195 48.4875C41.7195 48.2827 41.6991 48.0983 41.7195 47.8935C41.8014 47.3609 41.5763 47.197 41.044 47.2175C37.3797 47.238 33.695 47.238 30.0307 47.238ZM29.1709 3.48242C29.7851 3.48242 30.3378 3.48242 30.8905 3.48242C30.8905 2.88836 30.8905 2.33527 30.8905 1.78218C30.2968 1.78218 29.7441 1.78218 29.1709 1.78218C29.1709 2.37624 29.1709 2.90884 29.1709 3.48242ZM3.56192 30.8501C3.56192 30.2561 3.56192 29.703 3.56192 29.1089C2.96827 29.1089 2.41556 29.1089 1.84237 29.1089C1.84237 29.703 1.84237 30.2561 1.84237 30.8501C2.43603 30.8501 2.98874 30.8501 3.56192 30.8501ZM56.52 29.1089C56.52 29.703 56.52 30.2561 56.52 30.8501C57.0931 30.8501 57.6459 30.8501 58.2395 30.8501C58.2395 30.2561 58.2395 29.703 58.2395 29.1089C57.6459 29.1089 57.0931 29.1089 56.52 29.1089ZM29.1914 56.4561C29.1914 57.0707 29.1914 57.6238 29.1914 58.1769C29.7851 58.1769 30.3378 58.1769 30.8905 58.1769C30.8905 57.5828 30.8905 57.0297 30.8905 56.4561C30.2968 56.4561 29.7646 56.4561 29.1914 56.4561ZM3.56192 21.55C3.56192 20.9355 3.56192 20.3824 3.56192 19.8293C2.96827 19.8293 2.41556 19.8293 1.86285 19.8293C1.86285 20.4234 1.86285 20.9764 1.86285 21.55C2.43603 21.55 2.98874 21.55 3.56192 21.55ZM38.4647 3.48242C39.0788 3.48242 39.6315 3.48242 40.1842 3.48242C40.1842 2.88836 40.1842 2.33527 40.1842 1.78218C39.5906 1.78218 39.0379 1.78218 38.4647 1.78218C38.4647 2.35575 38.4647 2.90884 38.4647 3.48242ZM1.86285 38.409C1.86285 39.0236 1.86285 39.5766 1.86285 40.1297C2.4565 40.1297 3.00921 40.1297 3.56192 40.1297C3.56192 39.5357 3.56192 38.9826 3.56192 38.409C2.98874 38.409 2.43603 38.409 1.86285 38.409ZM56.52 38.409C56.52 39.0031 56.52 39.5562 56.52 40.1297C57.1136 40.1297 57.6663 40.1297 58.2395 40.1297C58.2395 39.5357 58.2395 38.9826 58.2395 38.409C57.6663 38.409 57.1136 38.409 56.52 38.409ZM19.8976 1.76169C19.8976 2.37624 19.8976 2.92933 19.8976 3.48242C20.4913 3.48242 21.044 3.48242 21.6172 3.48242C21.6172 2.88836 21.6172 2.33527 21.6172 1.76169C21.0235 1.76169 20.4913 1.76169 19.8976 1.76169ZM56.52 19.8293C56.52 20.4234 56.52 20.9764 56.52 21.55C57.0931 21.55 57.6459 21.55 58.219 21.55C58.219 20.956 58.219 20.3824 58.219 19.8293C57.6254 19.8293 57.0931 19.8293 56.52 19.8293ZM21.6172 56.4766C21.0031 56.4766 20.4504 56.4766 19.8976 56.4766C19.8976 57.0707 19.8976 57.6238 19.8976 58.1769C20.4913 58.1769 21.044 58.1769 21.6172 58.1769C21.6172 57.6033 21.6172 57.0707 21.6172 56.4766ZM40.1842 58.1973C40.1842 57.5623 40.1842 57.0297 40.1842 56.4971C39.5701 56.4971 39.0174 56.4971 38.4852 56.4971C38.4852 57.0912 38.4852 57.6442 38.4852 58.1973C39.0788 58.1973 39.6111 58.1973 40.1842 58.1973Z" fill="#2776EA"/>
<path d="M16.3153 29.9485C16.3153 26.8758 16.2948 23.8235 16.3153 20.7508C16.3357 18.518 17.6254 16.8177 19.6929 16.3466C20.0819 16.2646 20.5118 16.2441 20.9212 16.2441C27.001 16.2441 33.1013 16.2441 39.1812 16.2441C41.9652 16.2441 43.7666 18.0468 43.7666 20.8123C43.7871 26.9167 43.7462 33.0417 43.7871 39.1462C43.8076 41.5634 42.0061 44.083 38.4647 43.6938C37.9529 43.6323 37.6868 43.3251 37.6868 42.8334C37.7073 42.3418 37.9939 42.055 38.5056 42.014C38.9355 41.9935 39.3654 42.014 39.7953 41.9526C41.0031 41.7887 41.8833 40.8874 42.0266 39.6788C42.0676 39.4329 42.0676 39.1666 42.0676 38.9208C42.0676 32.9597 42.0676 27.0191 42.0676 21.0581C42.0676 18.9481 41.0645 17.9444 38.9355 17.9444C32.999 17.9444 27.0829 17.9444 21.1464 17.9444C19.0174 17.9444 18.0143 18.9277 18.0143 21.0376C18.0143 26.9987 18.0143 32.9393 18.0143 38.9003C18.0143 40.9693 19.0379 41.9935 21.1054 41.9935C25.2815 41.9935 29.4575 41.9935 33.6336 41.9935C33.8383 41.9935 34.0635 41.9935 34.2682 42.014C34.7595 42.0755 35.0051 42.3828 35.0051 42.8539C35.0051 43.2841 34.7595 43.5914 34.3091 43.6733C34.1453 43.6938 33.9611 43.7143 33.7769 43.7143C29.4985 43.7143 25.2405 43.7347 20.9621 43.7143C18.608 43.7143 16.9089 42.4647 16.4176 40.3548C16.3357 39.9041 16.3153 39.392 16.3153 38.9208C16.3153 35.93 16.3153 32.9393 16.3153 29.9485Z" fill="#2776EA"/>
<path d="M23.3776 30.4403C23.3776 31.0958 23.3776 31.7514 23.3776 32.4069C23.3776 33.0624 23.0501 33.4516 22.5383 33.4516C22.0265 33.4516 21.6785 33.0624 21.6785 32.4069C21.6581 30.7886 21.6785 29.1703 21.6785 27.552C21.6785 27.0808 21.8014 26.6916 22.2927 26.5482C22.784 26.3843 23.1115 26.6506 23.3571 27.0399C23.9099 27.8797 24.483 28.7196 25.1381 29.6619C25.179 29.3751 25.22 29.2522 25.22 29.1088C25.22 28.5148 25.22 27.9002 25.2405 27.3062C25.2609 26.794 25.5885 26.5073 26.0798 26.5073C26.5301 26.5073 26.8986 26.7736 26.8986 27.2447C26.9191 29.0474 26.9395 30.8705 26.8781 32.6732C26.8781 32.919 26.5096 33.3082 26.2435 33.3697C25.9774 33.4311 25.5475 33.2263 25.3633 33.0009C24.831 32.3249 24.3807 31.5875 23.9099 30.891C23.787 30.7271 23.6642 30.5428 23.5414 30.3789C23.48 30.4198 23.4186 30.4403 23.3776 30.4403Z" fill="#2776EA"/>
<path d="M35.0255 31.4032C35.0255 31.8539 35.046 32.2021 35.0255 32.5503C34.9846 33.1034 34.6161 33.4722 34.1453 33.4517C33.6744 33.4312 33.3264 33.0625 33.3264 32.5094C33.3264 30.8296 33.3264 29.1499 33.3264 27.4701C33.3264 26.9375 33.5721 26.5483 34.0838 26.5278C34.8822 26.4868 35.6806 26.4664 36.4789 26.5893C37.6867 26.7736 38.4851 27.9003 38.4237 29.0679C38.3418 30.338 37.4206 31.3008 36.1514 31.4032C35.8034 31.4237 35.4759 31.4032 35.0255 31.4032ZM35.0664 28.2281C35.0664 28.7402 35.0664 29.1908 35.0664 29.6825C35.5987 29.703 36.1719 29.8873 36.5403 29.3752C36.6632 29.1908 36.6836 28.8221 36.5813 28.6173C36.2333 28.0232 35.6396 28.2485 35.0664 28.2281Z" fill="#2776EA"/>
<path d="M30.0716 31.7508C30.4401 31.7508 30.7267 31.7508 31.0338 31.7508C31.5455 31.7713 31.8321 32.0581 31.8936 32.5497C31.955 33.0004 31.607 33.4306 31.0952 33.451C30.4606 33.492 29.8055 33.492 29.1709 33.451C28.7206 33.4101 28.4135 33.1233 28.393 32.6521C28.3726 30.87 28.3726 29.1083 28.393 27.3261C28.393 26.814 28.741 26.5477 29.2323 26.5272C29.6827 26.5067 30.0512 26.8754 30.0716 27.3875C30.0921 28.5961 30.0921 29.8047 30.0921 31.0134C30.0716 31.2387 30.0716 31.464 30.0716 31.7508Z" fill="#2776EA"/>
</svg>
