<svg width="61" height="52" viewBox="0 0 61 52" fill="none" xmlns="http://www.w3.org/2000/svg">
<path d="M46.9721 29.6078C46.9721 29.7404 46.9721 29.8729 46.9721 30.0055C46.9721 35.9146 46.9721 41.8237 46.9721 47.7138C46.9721 48.2631 46.9721 48.282 47.4991 48.282C47.8444 48.282 48.1896 48.282 48.5349 48.282C49.1891 48.301 49.5889 48.7176 49.6071 49.3994C49.6071 49.835 49.6071 50.2707 49.6071 50.7252C49.6071 51.3691 49.2255 51.7858 48.6076 51.8237C48.4622 51.8426 48.3169 51.8237 48.1715 51.8237C32.9973 51.8237 17.805 51.8237 2.63084 51.8237C2.43094 51.8237 2.23104 51.8237 2.03114 51.8237C1.30423 51.8047 0.922607 51.407 0.922607 50.6305C0.922607 50.2517 0.922607 49.8919 0.922607 49.5131C0.922607 48.6987 1.30423 48.301 2.08566 48.282C2.93977 48.282 3.79388 48.282 4.648 48.282C5.12049 48.282 5.12049 48.282 5.12049 47.7896C5.12049 43.5282 5.12049 39.2669 5.12049 35.0245C5.12049 33.9828 5.42942 33.6608 6.41075 33.6608C7.91907 33.6608 9.44558 33.6608 10.9539 33.6608C11.7898 33.6608 12.1533 34.0396 12.1533 34.9108C12.1533 39.1722 12.1533 43.4335 12.1533 47.676C12.1533 48.2631 12.1533 48.2631 12.7348 48.2631C13.8979 48.2631 15.0609 48.2631 16.2058 48.2631C16.3512 48.2631 16.4966 48.2441 16.6965 48.2441C16.6965 47.979 16.6965 47.7517 16.6965 47.5244C16.6965 40.2707 16.6965 33.0169 16.6965 25.7631C16.6965 25.4979 16.7146 25.2139 16.8055 24.9676C16.9509 24.6078 17.2416 24.4184 17.6233 24.4184C19.3315 24.4184 21.0579 24.3995 22.7661 24.4184C23.2931 24.4184 23.6748 24.8161 23.7111 25.3843C23.7293 25.5548 23.7111 25.7063 23.7111 25.8767C23.7111 33.1495 23.7111 40.4032 23.7111 47.676C23.7111 48.2631 23.7111 48.2631 24.2926 48.2631C25.4557 48.2631 26.6187 48.2631 27.7636 48.2631C28.2543 48.2631 28.2543 48.2631 28.2543 47.7328C28.2543 41.2555 28.2543 34.7972 28.2543 28.3199C28.2543 21.9563 28.2543 15.5926 28.2543 9.24796C28.2543 8.9828 28.2906 8.69871 28.3996 8.4525C28.6177 8.13053 28.9266 7.96008 29.3083 7.96008C31.0165 7.96008 32.7066 7.94114 34.4148 7.96008C35.0327 7.96008 35.3779 8.41462 35.3779 9.11538C35.3779 12.0889 35.3779 15.0813 35.3779 18.0548C35.3779 18.2063 35.3779 18.3578 35.3779 18.604C35.596 18.3199 35.7414 18.1305 35.8868 17.9222C37.8494 15.4033 41.1023 14.3616 44.0826 15.3275C47.0811 16.2934 49.2073 19.0396 49.4617 22.3161C49.5889 23.8692 49.2982 25.3275 48.6076 26.6911C48.4804 26.9563 48.4986 27.1078 48.7167 27.2782C48.9892 27.5245 49.2073 27.7896 49.6798 27.6381C49.8979 27.5623 50.2613 27.7896 50.4794 27.979C52.8782 29.9676 55.277 31.9752 57.6576 33.9828C58.4572 34.6457 59.2568 35.3275 60.0564 35.9904C60.5107 36.3691 60.7469 36.8426 60.6379 37.4676C60.6197 37.5813 60.6743 37.7328 60.7288 37.8464C61.0195 38.3767 60.9832 38.8502 60.6197 39.2858C60.2199 39.7782 59.7838 40.2517 59.3658 40.7063C58.9478 41.1419 58.548 41.1987 58.0029 40.9525C57.8757 40.8957 57.7303 40.8578 57.6031 40.8957C57.0215 41.0282 56.5672 40.8199 56.1856 40.4032C54.8772 38.9638 53.5687 37.5434 52.2603 36.1229C50.752 34.4942 49.2618 32.8464 47.7535 31.2176C47.4264 30.8767 47.2265 30.5169 47.3174 30.0055C47.3355 29.8729 47.1902 29.7214 47.1356 29.5889C47.0629 29.5699 47.0266 29.5889 46.9721 29.6078ZM29.3628 48.2631C29.5445 48.282 29.6899 48.282 29.8171 48.282C31.1437 48.282 32.4703 48.282 33.8151 48.282C34.3421 48.282 34.3421 48.282 34.3421 47.7517C34.3421 44.21 34.3421 40.6494 34.3421 37.1078C34.3421 33.1873 34.3421 29.2858 34.3421 25.3654C34.3421 25.0055 34.2694 24.6646 34.2694 24.3048C34.2512 23.5472 34.2331 22.7707 34.2331 22.0131C34.2331 21.6533 34.3421 21.2745 34.3421 20.9146C34.3421 17.1267 34.3421 13.3389 34.3421 9.55099C34.3421 9.39947 34.3421 9.24796 34.3421 9.0775C32.652 9.0775 31.0165 9.0775 29.3628 9.0775C29.3628 22.1267 29.3628 35.176 29.3628 48.2631ZM41.8292 16.0472C38.122 16.0472 35.2144 19.1154 35.2144 22.9979C35.2144 26.8048 38.1765 29.854 41.8474 29.8729C45.5001 29.8729 48.4804 26.7858 48.4804 22.9979C48.4622 19.1343 45.5183 16.0472 41.8292 16.0472ZM22.7298 48.2441C22.7479 48.1116 22.7479 47.9979 22.7479 47.8654C22.7479 40.5358 22.7479 33.2063 22.7479 25.8767C22.7479 25.5926 22.6753 25.4601 22.3845 25.4601C20.9852 25.479 19.5677 25.479 18.1684 25.4601C17.8413 25.4601 17.7323 25.5548 17.7323 25.8957C17.7323 33.2063 17.7323 40.5358 17.7323 47.8464C17.7323 48.1684 17.805 48.282 18.1321 48.2631C19.5496 48.2441 20.967 48.2631 22.3845 48.2631C22.4935 48.282 22.6026 48.2631 22.7298 48.2441ZM40.9933 30.9146C40.9751 31.0661 40.9569 31.1798 40.9569 31.2934C40.9569 36.8048 40.9569 42.3351 40.9569 47.8464C40.9569 48.1684 41.0478 48.2631 41.3567 48.2631C42.756 48.2441 44.1735 48.2631 45.5728 48.2631C45.6818 48.2631 45.7909 48.2441 45.9181 48.2252C45.9181 42.051 45.9181 35.9146 45.9181 29.7214C44.3916 30.6873 42.7742 31.104 40.9933 30.9146ZM35.3779 27.4487C35.3779 27.5245 35.3598 27.6002 35.3598 27.676C35.3598 34.3995 35.3598 41.1229 35.3598 47.8464C35.3598 48.2063 35.487 48.282 35.7959 48.282C37.0135 48.2631 38.2492 48.2631 39.4668 48.282C39.8302 48.282 39.9393 48.1873 39.9393 47.8085C39.9211 44.4941 39.9393 41.1608 39.9393 37.8464C39.9393 35.5926 39.9393 33.3388 39.9393 31.0851C39.9393 30.801 39.8666 30.6873 39.594 30.5926C39.0488 30.3843 38.5036 30.157 38.013 29.8729C36.959 29.2858 36.123 28.4525 35.3779 27.4487ZM11.1356 34.7593C11.0448 34.7404 10.9902 34.7214 10.9357 34.7214C9.44558 34.7214 7.95542 34.7214 6.46526 34.7025C6.13816 34.7025 6.15633 34.9108 6.15633 35.1381C6.15633 39.3805 6.15633 43.6229 6.15633 47.8654C6.15633 48.1873 6.24719 48.301 6.55613 48.282C7.97359 48.2631 9.37288 48.282 10.7904 48.282C10.8994 48.282 11.0084 48.2631 11.1356 48.2441C11.1356 43.7366 11.1356 39.2479 11.1356 34.7593ZM1.97662 50.7441C2.19469 50.7441 2.37642 50.7441 2.55815 50.7441C17.6233 50.7441 32.7066 50.7441 47.7717 50.7441C48.5894 50.7441 48.5894 50.7441 48.5894 49.8919C48.5894 49.3616 48.5894 49.3616 48.0624 49.3616C32.8519 49.3616 17.6233 49.3616 2.41276 49.3616C2.26738 49.3616 2.14017 49.3616 1.97662 49.3616C1.97662 49.835 1.97662 50.2707 1.97662 50.7441ZM48.3169 30.2896C48.8984 30.9335 49.4799 31.5585 50.0433 32.1835C52.3148 34.6646 54.5864 37.1457 56.858 39.6267C57.0579 39.854 57.2578 39.9676 57.5304 39.7404C57.7485 39.551 58.0029 39.5888 58.2209 39.7782C58.3118 39.8729 58.4208 39.9487 58.548 40.0623C58.966 39.5888 59.384 39.1154 59.7838 38.6608C59.9473 38.4714 59.7838 38.3578 59.6748 38.2631C59.4203 38.0358 59.3476 37.7707 59.5294 37.4676C59.6748 37.2214 59.6202 37.032 59.4022 36.8616C56.2765 34.2479 53.1508 31.6154 50.0069 29.0017C49.916 28.926 49.807 28.8502 49.6798 28.7745C49.2437 29.2669 48.7893 29.7593 48.3169 30.2896ZM48.0261 29.0207C48.1896 28.8313 48.335 28.6798 48.4986 28.5093C48.2805 28.301 48.0806 28.1116 47.8625 27.9222C47.699 28.1116 47.5718 28.282 47.4264 28.4525C47.6445 28.6608 47.8262 28.8313 48.0261 29.0207Z" fill="#2776EA"/>
<path d="M30.4169 1.69102C29.7445 1.65314 29.163 1.61526 28.5815 1.57738C28.3271 1.55845 28.0545 1.55844 27.8001 1.53951C27.4548 1.52057 27.2185 1.27436 27.2367 0.971325C27.2549 0.668295 27.473 0.459961 27.8001 0.459961C29.0358 0.516779 30.2715 0.573598 31.5073 0.649355C31.8162 0.668295 31.9798 0.876628 31.9979 1.17966C32.0706 2.37284 32.1433 3.56602 32.216 4.7592C32.2342 5.06223 32.0888 5.2895 31.7799 5.34632C31.4891 5.3842 31.2529 5.19481 31.2165 4.8539C31.162 4.24784 31.1257 3.64178 31.0893 3.05466C31.0893 2.92208 31.0711 2.7895 31.053 2.56223C30.5805 3.14935 30.1443 3.66072 29.7264 4.17208C26.8187 7.73268 23.9111 11.3122 21.0035 14.8918C20.6219 15.3653 20.2039 15.5546 19.6405 15.5546C18.4048 15.5357 17.1691 15.5546 15.9333 15.5357C15.6244 15.5357 15.4245 15.6304 15.2609 15.8956C13.2801 18.9259 11.2811 21.9372 9.28214 24.9675C8.95503 25.4599 8.68244 25.5925 8.39168 25.3842C8.08274 25.1759 8.10092 24.8728 8.42802 24.3804C10.4634 21.2743 12.5169 18.1872 14.5522 15.0812C14.8248 14.6645 15.1701 14.4562 15.6789 14.4562C16.9873 14.4751 18.2958 14.4562 19.586 14.4751C19.8768 14.4751 20.0585 14.3804 20.2584 14.1531C23.2751 10.4221 26.3099 6.70996 29.3447 2.99784C29.69 2.60011 30.0171 2.18344 30.4169 1.69102Z" fill="#2776EA"/>
</svg>
