<svg width="64" height="61" viewBox="0 0 64 61" fill="none" xmlns="http://www.w3.org/2000/svg">
<path d="M13.009 53.1216C13.819 53.5475 14.6553 53.9303 15.4323 54.3994C32.7905 64.9117 57.1685 56.4117 61.9756 36.4796C63.6811 29.4117 62.6868 22.6525 59.065 16.2451C58.3604 15.0043 57.7941 13.8315 55.7395 13.9673C54.3237 14.0599 53.2569 12.2945 53.4742 11.0661C53.7508 9.50433 55.1534 8.54754 56.7997 8.78211C58.3077 8.99816 59.6511 10.492 59.0452 11.9426C58.4131 13.4488 59.2559 14.2759 59.8618 15.3006C63.1477 20.8377 64.5372 26.8068 63.8128 33.0661C62.3707 45.4735 53.7508 55.1031 41.5026 58.6525C31.8686 61.4426 22.722 60.1154 14.2206 55.0228C13.7597 54.7512 13.3448 54.4117 12.9234 54.0907C12.5546 53.813 12.5546 53.813 12.66 53.5537C12.7851 53.4117 12.897 53.2636 13.009 53.1216Z" fill="#0274BA"/>
<path d="M50.9521 6.95495C50.2277 6.58458 49.4639 6.26359 48.779 5.83767C37.1234 -1.329 21.4246 -0.273445 10.8753 8.98582C4.90269 14.2389 1.64966 20.8253 1.26773 28.6031C1.01091 33.8562 2.11062 38.7945 4.67221 43.455C5.36364 44.7142 5.96288 45.8006 7.95157 45.9673C10.0456 46.1401 10.8424 49.0475 9.33444 50.3006C8.53764 50.9673 7.59598 51.4796 6.3514 50.9241C5.21877 50.4241 4.34954 49.6525 4.68538 48.5784C5.32413 46.5661 4.25735 45.1216 3.3947 43.4982C-5.4688 26.7512 3.58567 6.05989 24.0191 1.02285C33.1592 -1.23024 41.812 0.288282 49.7668 5.09075C50.3726 5.45495 50.8731 5.96112 51.4262 6.39939C51.2682 6.58458 51.1101 6.76976 50.9521 6.95495Z" fill="#0274BA"/>
<path d="M52.1505 43.3253C53.3358 40.3315 54.666 37.7327 55.4101 34.992C58.5248 23.4488 50.6491 11.0969 37.7424 8.12162C32.0002 6.80063 26.4819 7.40557 21.1809 9.86853C19.9495 10.4426 19.0408 10.9488 19.0408 12.5475C19.0408 13.992 17.0587 15.0908 15.7351 14.7698C14.4312 14.4549 13.3183 12.8624 13.5883 11.7142C13.9373 10.2266 15.4321 9.05371 16.9467 9.5352C18.2835 9.96112 19.1791 9.62162 20.2656 9.09075C30.0971 4.27594 41.0086 5.95495 48.9502 12.4673C52.6641 15.5105 55.0611 19.4117 56.3781 23.85C58.3273 30.4241 57.1354 37.5167 53.3885 43.3253C53.158 43.6772 52.73 43.3192 52.1505 43.3253Z" fill="#0274BA"/>
<path d="M11.9288 17.0784C11.5337 17.85 11.165 18.6401 10.7304 19.3932C5.17914 29.0475 8.05023 40.4673 16.1696 47.0661C23.5449 53.0661 34.1074 54.4611 43.0894 50.1031C44.1233 49.6031 44.683 49.0228 44.8147 47.8006C45.0057 46.029 46.1712 45.4426 48.0809 45.7389C49.6284 45.9796 50.3988 47.1216 50.0893 48.708C49.8128 50.1216 48.5155 51.1957 46.9746 50.634C45.3086 50.029 44.2747 50.7636 43.0565 51.3315C29.1093 57.8006 11.9486 50.8006 7.67488 36.5043C5.70595 29.9179 6.73981 23.7574 10.2957 17.8932C10.5591 17.4611 11.2374 16.7821 11.4481 16.7944C11.6128 16.887 11.7708 16.9858 11.9288 17.0784Z" fill="#0274BA"/>
<path d="M13.8386 40.8377C15.0634 40.2204 16.2422 39.492 17.5263 38.9982C19.8508 38.1154 22.2478 37.3994 24.592 36.5661C26.719 35.813 27.0812 34.7883 25.6588 33.1278C23.2026 30.2574 22.1161 27.0105 22.4651 23.3871C22.8733 19.1216 25.5469 16.3253 28.9777 15.3068C32.7444 14.1957 36.9391 15.2451 39.3624 18.1216C41.5486 20.7142 41.9503 23.7451 41.3313 26.8809C40.8967 29.1031 40.0143 31.1833 38.447 32.9982C36.86 34.8377 37.1959 35.7883 39.5006 36.6031C41.8515 37.4303 44.2287 38.1895 46.573 39.029C47.8769 39.4982 49.2334 39.9426 50.0236 41.2883C49.7273 41.4611 49.3124 41.7945 49.2334 41.7327C46.7903 39.8809 43.7941 39.2142 40.9164 38.2945C39.9879 37.9982 39.0463 37.7142 38.1573 37.3377C36.1818 36.5043 35.655 34.7945 36.8205 33.0846C37.2946 32.3932 37.9202 31.7945 38.3614 31.0908C40.4028 27.8315 41.0679 24.3871 39.5599 20.7883C38.0322 17.1401 34.8187 15.5908 30.2684 16.1525C26.9693 16.5661 24.0718 19.5352 23.7031 22.9241C23.3409 26.208 24.006 29.2513 26.1856 31.9241C26.449 32.2513 26.719 32.5784 26.9627 32.9179C28.2599 34.7266 27.7529 36.5414 25.6588 37.3932C24.6645 37.8006 23.5845 38.0352 22.5704 38.4056C19.943 39.3624 17.0653 39.813 14.8856 41.7142C14.7803 41.8068 14.3457 41.5599 14.0625 41.4735C13.9967 41.2636 13.9176 41.0475 13.8386 40.8377Z" fill="#0274BA"/>
<ellipse cx="46.9384" cy="55" rx="3.20034" ry="3" fill="#0274BA"/>
</svg>
