<svg width="102" height="31" viewBox="0 0 102 31" fill="none" xmlns="http://www.w3.org/2000/svg">
<path d="M80.9944 30.9997C79.374 30.9997 77.9384 30.7013 76.6876 30.1043C75.4652 29.5073 74.4987 28.6971 73.788 27.6737C73.1058 26.6219 72.7646 25.428 72.7646 24.0919C72.7646 22.5853 73.1626 21.3913 73.9586 20.5101C74.7546 19.6004 76.0338 18.9608 77.7963 18.5912C79.5588 18.1932 81.904 17.9942 84.8321 17.9942H86.4524V17.3973C86.4524 16.3739 86.1823 15.649 85.6422 15.2226C85.1305 14.7962 84.2351 14.583 82.9558 14.583C81.8756 14.583 80.6817 14.7535 79.374 15.0947C78.0663 15.4358 76.7871 15.9617 75.5363 16.6724L73.6175 11.6834C74.3282 11.1717 75.2378 10.7168 76.3465 10.3189C77.4552 9.92088 78.6207 9.62239 79.8431 9.4234C81.0654 9.19598 82.2167 9.08228 83.297 9.08228C86.7935 9.08228 89.3804 9.8356 91.0576 11.3422C92.7633 12.8489 93.6161 15.2226 93.6161 18.4633V30.5307H86.5377V27.5458C86.1681 28.6261 85.5001 29.4789 84.5336 30.1043C83.567 30.7013 82.3873 30.9997 80.9944 30.9997ZM82.7 26.0534C83.7518 26.0534 84.6331 25.7123 85.3437 25.03C86.0829 24.3478 86.4524 23.4523 86.4524 22.3436V21.5761H84.8321C83.1548 21.5761 81.9183 21.7609 81.1223 22.1304C80.3547 22.4715 79.971 23.0259 79.971 23.7934C79.971 24.4472 80.1984 24.9874 80.6532 25.4138C81.1365 25.8402 81.8188 26.0534 82.7 26.0534Z" fill="#7A7A7A"/>
<path d="M59.3242 30.5311L50.1138 9.55176H58.0876L62.6502 21.4486L67.4687 9.55176H74.9308L65.5498 30.5311H59.3242Z" fill="#7A7A7A"/>
<path d="M38.6479 30.9997C36.3169 30.9997 34.2843 30.5591 32.5502 29.6779C30.8162 28.7966 29.4659 27.5316 28.4994 25.8828C27.5328 24.234 27.0496 22.2868 27.0496 20.041C27.0496 17.7668 27.5328 15.8196 28.4994 14.1992C29.4659 12.5504 30.8162 11.2854 32.5502 10.4041C34.2843 9.5229 36.3169 9.08228 38.6479 9.08228C40.979 9.08228 43.0115 9.5229 44.7456 10.4041C46.4796 11.2854 47.8157 12.5504 48.7538 14.1992C49.7204 15.8196 50.2036 17.7668 50.2036 20.041C50.2036 22.2868 49.7204 24.234 48.7538 25.8828C47.8157 27.5316 46.4796 28.7966 44.7456 29.6779C43.0115 30.5591 40.979 30.9997 38.6479 30.9997ZM38.6479 25.4138C39.785 25.4138 40.7231 24.9874 41.4622 24.1345C42.2013 23.2817 42.5709 21.9172 42.5709 20.041C42.5709 18.1364 42.2013 16.7719 41.4622 15.9475C40.7231 15.0947 39.785 14.6682 38.6479 14.6682C37.4824 14.6682 36.5301 15.0947 35.791 15.9475C35.0519 16.7719 34.6823 18.1364 34.6823 20.041C34.6823 21.9172 35.0519 23.2817 35.791 24.1345C36.5301 24.9874 37.4824 25.4138 38.6479 25.4138Z" fill="#7A7A7A"/>
<path d="M15.9477 31C12.6217 31 9.76479 30.3604 7.37689 29.0812C4.989 27.8019 3.15543 25.9968 1.8762 23.6658C0.625401 21.3347 0 18.6057 0 15.4787C0 12.3517 0.625401 9.63686 1.8762 7.33425C3.15543 5.00321 4.989 3.19807 7.37689 1.91885C9.76479 0.639615 12.6217 0 15.9477 0C17.9376 0 19.8565 0.312701 21.7043 0.938102C23.552 1.53508 25.0445 2.33104 26.1816 3.326L23.8363 9.50894C22.5855 8.59927 21.3347 7.93122 20.0839 7.50482C18.8331 7.04998 17.5539 6.82256 16.2462 6.82256C13.6025 6.82256 11.6126 7.57588 10.2765 9.08253C8.9404 10.5608 8.27235 12.6928 8.27235 15.4787C8.27235 18.293 8.9404 20.4535 10.2765 21.9601C11.6126 23.4383 13.6025 24.1774 16.2462 24.1774C17.5539 24.1774 18.8331 23.9642 20.0839 23.5378C21.3347 23.083 22.5855 22.4007 23.8363 21.4911L26.1816 27.674C25.0445 28.669 23.552 29.4791 21.7043 30.1045C19.8565 30.7015 17.9376 31 15.9477 31Z" fill="#7A7A7A"/>
<path d="M101.976 7.61127C101.976 9.96626 100.115 11.8754 97.8186 11.8754C95.5225 11.8754 93.6611 9.96626 93.6611 7.61127C93.6611 5.25627 95.5225 3.34717 97.8186 3.34717C100.115 3.34717 101.976 5.25627 101.976 7.61127Z" fill="#7A7A7A"/>
</svg>
