<svg width="482" height="394" viewBox="0 0 482 394" fill="none" xmlns="http://www.w3.org/2000/svg">
<rect width="482" height="394" rx="16" fill="#5D5FEF"/>
<g opacity="0.7">
<circle cx="325.825" cy="181.824" r="127.015" stroke="#62AEF8" stroke-width="0.5" stroke-linecap="round" stroke-linejoin="round" stroke-dasharray="10 10"/>
<circle cx="325.824" cy="181.824" r="149.574" stroke="#B0B0B0" stroke-width="0.5" stroke-linecap="round" stroke-linejoin="round" stroke-dasharray="10 10"/>
<circle cx="325.824" cy="181.824" r="82.5983" stroke="#CECECE" stroke-width="0.5" stroke-linecap="round" stroke-linejoin="round" stroke-dasharray="10 10"/>
<circle cx="325.823" cy="181.824" r="104.456" stroke="#3CE7C8" stroke-width="0.5" stroke-linecap="round" stroke-linejoin="round" stroke-dasharray="10 10"/>
<circle cx="205.404" cy="91.1596" r="12.6021" fill="#9DC0FF"/>
<path d="M210.647 89.3893C210.266 87.3098 207.996 85.8894 206.056 85.6109C205.903 85.5877 205.745 85.5737 205.578 85.5691C205.36 85.5552 205.142 85.5552 204.933 85.5691C204.757 85.5737 204.599 85.5877 204.446 85.6109C202.505 85.8894 200.235 87.3098 199.855 89.3893L199.804 89.6678L200.087 89.6539C201.224 89.5982 202.333 89.8628 203.132 90.3734L203.225 90.4337L203.331 90.3966C203.907 90.1831 204.594 90.1273 204.951 90.1088L205.03 90.1041C205.058 90.1041 205.351 90.1041 205.392 90.0995L205.555 90.1041C205.991 90.1227 206.627 90.1877 207.17 90.3919L207.277 90.4291L207.37 90.3687C208.168 89.8581 209.282 89.5982 210.415 89.6492L210.698 89.6632L210.647 89.3893ZM210.113 89.1943C209.032 89.1943 208.02 89.4496 207.221 89.9324C206.646 89.7374 206.014 89.6771 205.573 89.6539L205.411 89.6492C205.355 89.6492 205.035 89.6492 205.012 89.6492L204.928 89.6539C204.487 89.6725 203.851 89.7374 203.28 89.9324C202.482 89.4543 201.47 89.1943 200.389 89.1943C200.379 89.1943 200.37 89.1943 200.365 89.1943C200.843 87.4769 202.812 86.3025 204.506 86.0611C204.64 86.0426 204.784 86.0286 204.951 86.024C205.146 86.0101 205.346 86.0101 205.55 86.024C205.708 86.0286 205.852 86.0426 205.987 86.0611C207.685 86.3071 209.649 87.4769 210.136 89.199C210.132 89.1943 210.122 89.1943 210.113 89.1943Z" fill="#FAFDFD"/>
<path d="M205.323 93.4555C204.715 93.2419 204.339 93.0841 204.283 92.6478C204.242 92.3321 204.478 91.9979 204.813 91.8958C205.161 91.7937 205.629 91.8355 206.07 92.0118C206.186 92.0583 206.316 92.0026 206.363 91.8865C206.409 91.7705 206.354 91.6405 206.238 91.5941C205.982 91.492 205.718 91.427 205.462 91.4038V90.9582C205.462 90.8328 205.36 90.7307 205.235 90.7307C205.11 90.7307 205.007 90.8328 205.007 90.9582V91.4038C204.896 91.4177 204.785 91.4363 204.683 91.4641C204.135 91.6266 203.763 92.1743 203.833 92.7081C203.931 93.4462 204.59 93.6783 205.175 93.8825C205.495 93.9939 205.792 94.1007 205.973 94.2724C206.135 94.4256 206.219 94.6205 206.219 94.8248C206.219 95.0244 206.126 95.2193 205.964 95.3632C205.783 95.5257 205.537 95.6185 205.221 95.6417C204.984 95.6557 204.71 95.6278 204.376 95.5675C204.297 95.5535 204.209 95.535 204.135 95.5118C204.014 95.4746 203.889 95.5443 203.852 95.6649C203.815 95.7856 203.884 95.911 204.005 95.9481C204.102 95.9759 204.204 95.9992 204.293 96.0131C204.562 96.0641 204.789 96.0874 205.003 96.0966V96.533C205.003 96.6583 205.105 96.7604 205.23 96.7604C205.356 96.7604 205.458 96.6583 205.458 96.533V96.0688C205.783 96.0131 206.052 95.897 206.265 95.7021C206.525 95.47 206.669 95.1636 206.674 94.8294C206.679 94.4952 206.539 94.1842 206.289 93.9475C206.038 93.7061 205.676 93.5808 205.323 93.4555Z" fill="#FAFDFD"/>
<circle cx="308.321" cy="286.491" r="12.6021" fill="#9DC0FF"/>
<circle cx="285.918" cy="62.105" r="9.8016" fill="#C2E1FF"/>
<circle cx="404.762" cy="52.4783" r="12.077" fill="#9DC0FF"/>
<circle cx="359.955" cy="83.2833" r="7.17617" fill="#AFE2D9"/>
<circle cx="391.11" cy="291.917" r="7.17617" fill="#C2E1FF"/>
<circle cx="235.685" cy="306.27" r="7.17617" fill="#C2E1FF"/>
<circle cx="196.478" cy="192.501" r="7.17617" fill="#AFE2D9"/>
<path d="M193.144 191.868C193.274 191.445 193.518 191.065 193.849 190.772C193.669 190.627 193.849 189.732 193.849 189.732C193.849 189.732 194.57 190.051 194.698 190.2C194.698 190.2 195.254 189.526 196.865 189.526C198.477 189.526 199.995 190.772 199.995 192.434C199.995 194.097 198.791 194.627 198.791 194.627C198.728 194.921 198.631 195.206 198.503 195.477H197.864C197.762 195.32 197.671 195.157 197.591 194.988C197.591 194.988 197.082 195.049 196.716 195.049C196.459 195.044 196.202 195.017 195.949 194.967C195.927 195.148 195.866 195.322 195.769 195.477H195.074C194.858 195.291 194.75 194.71 194.75 194.71C194.75 194.71 192.999 193.917 192.629 193.443C192.428 193.068 192.454 192.234 192.454 192.234C192.648 192.054 192.886 191.928 193.144 191.868Z" stroke="#F1F3F7" stroke-linecap="round" stroke-linejoin="round"/>
<path d="M195.361 190.524C195.774 190.228 196.275 190.081 196.782 190.107C197.336 190.098 197.879 190.27 198.327 190.596" stroke="#F1F3F7" stroke-linecap="round" stroke-linejoin="round"/>
<path d="M193.828 192.121C193.908 192.121 193.973 192.056 193.973 191.976C193.973 191.896 193.908 191.831 193.828 191.831C193.748 191.831 193.683 191.896 193.683 191.976C193.683 192.056 193.748 192.121 193.828 192.121Z" fill="#F1F3F7"/>
<path d="M399.425 51.2604C399.639 50.5632 400.041 49.9384 400.586 49.4544C400.289 49.2169 400.586 47.7416 400.586 47.7416C400.586 47.7416 401.773 48.2672 401.985 48.5132C401.985 48.5132 402.901 47.4025 405.555 47.4025C408.209 47.4025 410.71 49.4544 410.71 52.193C410.71 54.9317 408.726 55.8051 408.726 55.8051C408.623 56.2882 408.463 56.7577 408.251 57.2041H407.2C407.032 56.946 406.882 56.6769 406.75 56.3986C406.75 56.3986 405.911 56.5003 405.309 56.5003C404.885 56.4917 404.462 56.4463 404.046 56.3647C404.01 56.6629 403.908 56.9495 403.749 57.2041H402.604C402.248 56.8988 402.07 55.9407 402.07 55.9407C402.07 55.9407 399.187 54.635 398.577 53.8549C398.246 53.2359 398.288 51.8624 398.288 51.8624C398.609 51.5672 399 51.3598 399.425 51.2604Z" stroke="#F1F3F7" stroke-linecap="round" stroke-linejoin="round"/>
<path d="M403.078 49.0473C403.757 48.5589 404.582 48.3166 405.418 48.3605C406.331 48.3454 407.224 48.6282 407.961 49.166" stroke="#F1F3F7" stroke-linecap="round" stroke-linejoin="round"/>
<path d="M400.553 51.6772C400.685 51.6772 400.792 51.5703 400.792 51.4383C400.792 51.3064 400.685 51.1994 400.553 51.1994C400.421 51.1994 400.314 51.3064 400.314 51.4383C400.314 51.5703 400.421 51.6772 400.553 51.6772Z" fill="#F1F3F7"/>
<circle cx="345.602" cy="331.824" r="7.17617" fill="#AFE2D9"/>
<path d="M341.997 331.107C342.141 330.636 342.413 330.213 342.782 329.886C342.581 329.725 342.782 328.728 342.782 328.728C342.782 328.728 343.585 329.083 343.728 329.249C343.728 329.249 344.347 328.498 346.142 328.498C347.937 328.498 349.628 329.886 349.628 331.738C349.628 333.59 348.287 334.181 348.287 334.181C348.217 334.507 348.109 334.825 347.966 335.127H347.254C347.141 334.952 347.04 334.77 346.951 334.582C346.951 334.582 346.383 334.651 345.976 334.651C345.689 334.645 345.403 334.614 345.122 334.559C345.097 334.761 345.029 334.955 344.921 335.127H344.147C343.906 334.92 343.786 334.272 343.786 334.272C343.786 334.272 341.836 333.389 341.423 332.862C341.2 332.443 341.228 331.514 341.228 331.514C341.445 331.315 341.71 331.174 341.997 331.107Z" stroke="#F1F3F7" stroke-linecap="round" stroke-linejoin="round"/>
<path d="M344.467 329.611C344.927 329.28 345.485 329.116 346.05 329.146C346.667 329.136 347.271 329.327 347.77 329.691" stroke="#F1F3F7" stroke-linecap="round" stroke-linejoin="round"/>
<path d="M342.759 331.389C342.848 331.389 342.921 331.317 342.921 331.227C342.921 331.138 342.848 331.066 342.759 331.066C342.67 331.066 342.598 331.138 342.598 331.227C342.598 331.317 342.67 331.389 342.759 331.389Z" fill="#F1F3F7"/>
<path d="M314.558 284.62C314.117 282.215 311.493 280.573 309.25 280.251C309.072 280.224 308.89 280.208 308.697 280.203C308.444 280.186 308.192 280.186 307.951 280.203C307.747 280.208 307.564 280.224 307.387 280.251C305.144 280.573 302.519 282.215 302.079 284.62L302.02 284.942L302.347 284.926C303.662 284.861 304.945 285.167 305.868 285.757L305.976 285.827L306.099 285.784C306.765 285.537 307.559 285.473 307.972 285.452L308.063 285.446C308.096 285.446 308.434 285.446 308.482 285.441L308.67 285.446C309.174 285.468 309.91 285.543 310.538 285.779L310.661 285.822L310.768 285.752C311.692 285.162 312.98 284.861 314.289 284.92L314.617 284.936L314.558 284.62ZM313.94 284.394C312.69 284.394 311.52 284.689 310.597 285.248C309.931 285.022 309.201 284.952 308.691 284.926L308.503 284.92C308.439 284.92 308.069 284.92 308.042 284.92L307.945 284.926C307.435 284.947 306.7 285.022 306.04 285.248C305.117 284.695 303.947 284.394 302.696 284.394C302.686 284.394 302.675 284.394 302.669 284.394C303.222 282.408 305.498 281.051 307.457 280.771C307.613 280.75 307.779 280.734 307.972 280.728C308.198 280.712 308.428 280.712 308.664 280.728C308.847 280.734 309.013 280.75 309.169 280.771C311.133 281.056 313.404 282.408 313.967 284.4C313.962 284.394 313.951 284.394 313.94 284.394Z" fill="#FAFDFD"/>
<path d="M308.402 289.321C307.699 289.074 307.264 288.892 307.2 288.387C307.151 288.022 307.425 287.636 307.812 287.518C308.214 287.4 308.756 287.448 309.266 287.652C309.4 287.706 309.551 287.641 309.604 287.507C309.658 287.373 309.593 287.223 309.459 287.169C309.164 287.051 308.858 286.976 308.563 286.949V286.434C308.563 286.289 308.445 286.171 308.3 286.171C308.155 286.171 308.037 286.289 308.037 286.434V286.949C307.908 286.965 307.779 286.986 307.661 287.019C307.028 287.207 306.599 287.84 306.679 288.457C306.792 289.31 307.554 289.579 308.23 289.815C308.601 289.944 308.944 290.067 309.153 290.266C309.341 290.443 309.438 290.668 309.438 290.904C309.438 291.135 309.33 291.361 309.143 291.527C308.933 291.715 308.649 291.822 308.284 291.849C308.01 291.865 307.694 291.833 307.307 291.763C307.216 291.747 307.114 291.726 307.028 291.699C306.888 291.656 306.744 291.736 306.701 291.876C306.658 292.015 306.738 292.16 306.878 292.203C306.99 292.235 307.108 292.262 307.21 292.278C307.522 292.337 307.785 292.364 308.032 292.375V292.88C308.032 293.024 308.15 293.143 308.295 293.143C308.44 293.143 308.558 293.024 308.558 292.88V292.343C308.933 292.278 309.245 292.144 309.491 291.919C309.792 291.65 309.958 291.296 309.964 290.91C309.969 290.523 309.808 290.164 309.518 289.89C309.228 289.611 308.81 289.466 308.402 289.321Z" fill="#FAFDFD"/>
<path d="M363.395 82.1217C363.145 80.757 361.655 79.8248 360.382 79.6421C360.282 79.6268 360.178 79.6177 360.068 79.6146C359.925 79.6055 359.782 79.6055 359.645 79.6146C359.529 79.6177 359.426 79.6268 359.325 79.6421C358.052 79.8248 356.562 80.757 356.312 82.1217L356.279 82.3044L356.465 82.2953C357.211 82.2587 357.939 82.4324 358.463 82.7675L358.524 82.8071L358.594 82.7827C358.972 82.6426 359.422 82.606 359.657 82.5938L359.709 82.5908C359.727 82.5908 359.919 82.5908 359.946 82.5877L360.053 82.5908C360.339 82.603 360.757 82.6456 361.113 82.7796L361.183 82.804L361.244 82.7644C361.768 82.4293 362.499 82.2587 363.242 82.2923L363.428 82.3014L363.395 82.1217ZM363.044 81.9937C362.335 81.9937 361.671 82.1613 361.147 82.4781C360.769 82.3501 360.355 82.3105 360.065 82.2953L359.959 82.2923C359.922 82.2923 359.712 82.2923 359.697 82.2923L359.642 82.2953C359.352 82.3075 358.935 82.3501 358.56 82.4781C358.036 82.1643 357.372 81.9937 356.663 81.9937C356.657 81.9937 356.65 81.9937 356.647 81.9937C356.961 80.8666 358.253 80.0959 359.365 79.9375C359.453 79.9254 359.547 79.9162 359.657 79.9132C359.785 79.904 359.916 79.904 360.05 79.9132C360.154 79.9162 360.248 79.9254 360.336 79.9375C361.451 80.099 362.74 80.8666 363.06 81.9968C363.057 81.9937 363.051 81.9937 363.044 81.9937Z" fill="#FAFDFD"/>
<path d="M359.901 84.7901C359.502 84.65 359.256 84.5464 359.219 84.2601C359.192 84.053 359.347 83.8336 359.566 83.7666C359.795 83.6996 360.102 83.727 360.392 83.8428C360.468 83.8732 360.553 83.8367 360.584 83.7605C360.614 83.6844 360.578 83.5991 360.501 83.5686C360.334 83.5016 360.16 83.4589 359.993 83.4437V83.1513C359.993 83.069 359.926 83.002 359.843 83.002C359.761 83.002 359.694 83.069 359.694 83.1513V83.4437C359.621 83.4529 359.548 83.465 359.481 83.4833C359.121 83.5899 358.878 83.9494 358.923 84.2997C358.987 84.784 359.42 84.9364 359.804 85.0704C360.014 85.1435 360.209 85.2136 360.328 85.3263C360.434 85.4268 360.489 85.5547 360.489 85.6888C360.489 85.8198 360.428 85.9477 360.322 86.0421C360.203 86.1487 360.041 86.2097 359.834 86.2249C359.679 86.234 359.499 86.2158 359.28 86.1762C359.228 86.167 359.17 86.1548 359.121 86.1396C359.042 86.1152 358.96 86.1609 358.936 86.2401C358.911 86.3193 358.957 86.4016 359.036 86.4259C359.1 86.4442 359.167 86.4595 359.225 86.4686C359.402 86.5021 359.551 86.5173 359.691 86.5234V86.8098C359.691 86.892 359.758 86.959 359.84 86.959C359.923 86.959 359.99 86.892 359.99 86.8098V86.5051C360.203 86.4686 360.38 86.3924 360.52 86.2645C360.69 86.1122 360.785 85.9111 360.788 85.6918C360.791 85.4725 360.699 85.2684 360.535 85.113C360.37 84.9546 360.133 84.8724 359.901 84.7901Z" fill="#FAFDFD"/>
<path d="M287.359 62.0273L287.955 60.7491H287.107L286.511 62.0273H287.359ZM284.725 60.7491L284.129 62.0273H284.977L285.573 60.7491H284.725ZM286.764 60.7491H285.916L285.32 62.0273H286.168L286.764 60.7491ZM283.079 60.7491V62.0273H283.786L284.382 60.7491H283.079ZM288.968 62.0273V60.7491H288.298L287.702 62.0273H288.968Z" fill="#F9FCFF"/>
<path d="M286.023 66.5369C284.946 66.0707 284.166 65.3164 283.649 64.5607C283.369 64.467 283.1 64.3665 282.842 64.2633C282.951 64.467 283.073 64.6706 283.208 64.8662C283.686 65.5616 284.544 66.5088 285.912 67.0701C285.948 67.0849 285.985 67.0929 286.023 67.0929C286.061 67.0929 286.098 67.0862 286.134 67.0715C287.13 66.6615 287.854 66.0492 288.36 65.4771C288.136 65.4664 287.905 65.449 287.671 65.4262C287.227 65.8603 286.681 66.2529 286.023 66.5369ZM291.01 62.7306C290.91 62.6422 290.797 62.5524 290.668 62.464C290.407 62.2805 290.089 62.0969 289.726 61.9201V59.1441C289.726 58.9806 289.595 58.848 289.434 58.848C288.57 58.844 287.796 58.6122 287.131 58.1594C286.615 57.8083 286.338 57.4372 286.264 57.3314C286.209 57.2523 286.119 57.2041 286.023 57.2041C285.928 57.2041 285.837 57.251 285.782 57.33C285.708 57.4359 285.429 57.807 284.914 58.158C284.248 58.6109 283.472 58.8426 282.609 58.8467C282.449 58.848 282.317 58.9806 282.317 59.1427V60.3834C282.151 60.3941 281.994 60.4088 281.847 60.4289C281.516 60.4731 281.235 60.5401 281.006 60.6285C280.617 60.7799 280.391 60.9916 280.332 61.2582C280.275 61.5128 280.38 61.7861 280.64 62.0728L280.641 62.0741C280.647 62.0795 280.651 62.0849 280.656 62.0902C280.898 62.3501 281.266 62.6154 281.748 62.8793C281.78 62.8968 281.813 62.9155 281.847 62.9329C282.026 63.0281 282.219 63.1218 282.422 63.2116C282.481 63.434 282.564 63.6658 282.667 63.9002C282.905 64.0034 283.157 64.1025 283.421 64.1977C283.279 63.9512 283.164 63.7087 283.076 63.4809C283.816 63.7636 284.655 64.0128 285.538 64.2084C286.529 64.4281 287.499 64.5621 288.366 64.6036C288.231 64.7979 288.08 64.9908 287.909 65.1784C288.138 65.1971 288.362 65.2105 288.578 65.2172C288.674 65.0953 288.76 64.9774 288.837 64.8662C288.893 64.7845 288.946 64.7014 288.999 64.617C289.185 64.6157 289.363 64.6103 289.536 64.5983C289.985 64.5688 290.365 64.5058 290.669 64.4107C290.736 64.3893 290.799 64.3678 290.858 64.3437C290.975 64.2968 291.077 64.2432 291.162 64.1856C291.118 64.1106 291.062 64.0382 291 63.9699C290.912 64.0289 290.801 64.0811 290.669 64.1267C290.379 64.2285 289.987 64.2995 289.518 64.3303C289.402 64.3383 289.281 64.3437 289.157 64.3464C289.516 63.6926 289.727 63.0187 289.727 62.4962V62.2188C290.103 62.4091 290.421 62.6047 290.669 62.7963C290.728 62.8418 290.782 62.886 290.833 62.9316C291.051 63.1259 291.299 63.4112 291.243 63.6685C291.233 63.7087 291.217 63.7462 291.194 63.7837C291.263 63.8574 291.32 63.9311 291.366 64.0034C291.436 63.919 291.481 63.8266 291.504 63.7261C291.571 63.4179 291.405 63.083 291.01 62.7306ZM281.876 62.6422C281.867 62.6368 281.856 62.6315 281.847 62.6261C281.393 62.3756 281.048 62.121 280.835 61.8852C280.834 61.8852 280.834 61.8866 280.833 61.8866C280.748 61.8008 280.693 61.707 280.673 61.6709C280.598 61.5409 280.569 61.4217 280.593 61.3145C280.657 61.0211 281.115 60.8014 281.847 60.6982C281.993 60.6781 282.15 60.662 282.317 60.6513V62.4975C282.317 62.6181 282.329 62.748 282.351 62.8834C282.185 62.8043 282.025 62.7239 281.876 62.6422ZM289.192 62.4975C289.192 62.9222 288.984 63.6216 288.538 64.3424C287.648 64.3116 286.635 64.1762 285.597 63.9458C284.642 63.7341 283.74 63.4608 282.963 63.1486C282.889 62.8968 282.853 62.673 282.853 62.4975V59.3772C283.731 59.333 284.524 59.0731 285.216 58.6015C285.588 58.3496 285.854 58.083 286.024 57.8887C286.193 58.083 286.46 58.3483 286.83 58.6015C287.521 59.0731 288.314 59.333 289.192 59.3772V62.4975Z" fill="#F9FCFF"/>
<path d="M282.313 61.257C281.776 61.2905 281.335 61.3735 281.006 61.5021C280.877 61.5517 280.766 61.6093 280.673 61.6723C280.714 61.742 280.768 61.813 280.835 61.888C281.119 61.7004 281.633 61.5731 282.313 61.5276V61.257Z" fill="#F9FCFF"/>
<path d="M280.672 61.671C280.692 61.7071 280.748 61.8009 280.832 61.8867C280.833 61.8867 280.833 61.8853 280.834 61.8853C280.769 61.8116 280.714 61.7406 280.672 61.671C280.673 61.671 280.673 61.671 280.672 61.671ZM291.365 64.0035C291.318 63.9311 291.26 63.8575 291.193 63.7838C291.138 63.7248 291.078 63.6645 291.01 63.6042C290.704 63.3323 290.258 63.0523 289.71 62.7856C289.705 62.8218 289.681 62.9826 289.665 63.063C290.158 63.3082 290.557 63.5614 290.832 63.8052C290.888 63.8548 290.945 63.911 290.999 63.97C291.061 64.037 291.117 64.1107 291.161 64.1857C291.229 64.3023 291.267 64.4255 291.241 64.5421C291.164 64.8918 290.519 65.1396 289.519 65.2053C289.226 65.224 288.91 65.228 288.578 65.2173C288.362 65.2106 288.139 65.1972 287.909 65.1785C287.183 65.1182 286.398 64.9976 285.597 64.8194C284.824 64.6479 284.087 64.4362 283.423 64.1964C283.159 64.1013 282.907 64.0021 282.668 63.899C282.384 63.7757 282.119 63.6471 281.878 63.5158C280.998 63.0348 280.518 62.5378 280.594 62.1881C280.604 62.1479 280.62 62.1091 280.643 62.0729L280.641 62.0715C280.629 62.0595 280.553 61.9818 280.47 61.8532C280.4 61.9376 280.355 62.03 280.332 62.1305C280.274 62.3904 280.384 62.6704 280.657 62.9625C280.9 63.2224 281.267 63.4877 281.749 63.7516C282.076 63.9298 282.445 64.1026 282.845 64.2634C283.101 64.3666 283.37 64.4657 283.652 64.5608C284.241 64.7591 284.878 64.936 285.539 65.082C286.274 65.2441 286.996 65.3607 287.672 65.4263C287.908 65.4491 288.139 65.4665 288.361 65.4772C288.558 65.4866 288.748 65.492 288.933 65.492C289.142 65.492 289.344 65.4853 289.536 65.4732C290.084 65.437 290.529 65.3513 290.858 65.2187C291.229 65.0686 291.446 64.8609 291.504 64.601C291.546 64.4108 291.499 64.2112 291.365 64.0035Z" fill="#F9FCFF"/>
<path d="M280.642 62.0735C280.642 62.0735 280.64 62.0735 280.64 62.0714C280.64 62.0714 280.642 62.0714 280.642 62.0735Z" fill="#F9FCFF"/>
<path d="M236.396 306.188L236.797 305.328H236.227L235.826 306.188H236.396ZM234.625 305.328L234.224 306.188H234.794L235.195 305.328H234.625ZM235.996 305.328H235.426L235.025 306.188H235.595L235.996 305.328ZM233.517 305.328V306.188H233.993L234.394 305.328H233.517ZM237.478 306.188V305.328H237.028L236.627 306.188H237.478Z" fill="#F9FCFF"/>
<path d="M235.498 309.221C234.773 308.908 234.249 308.4 233.901 307.892C233.712 307.829 233.531 307.761 233.358 307.692C233.431 307.829 233.513 307.966 233.604 308.098C233.926 308.565 234.503 309.202 235.423 309.58C235.447 309.59 235.472 309.595 235.498 309.595C235.523 309.595 235.548 309.591 235.572 309.581C236.242 309.305 236.729 308.893 237.069 308.508C236.919 308.501 236.764 308.49 236.606 308.474C236.308 308.766 235.94 309.03 235.498 309.221ZM238.851 306.661C238.785 306.602 238.708 306.541 238.622 306.482C238.446 306.358 238.232 306.235 237.988 306.116V304.249C237.988 304.139 237.9 304.05 237.792 304.05C237.211 304.047 236.69 303.891 236.243 303.587C235.896 303.35 235.709 303.101 235.66 303.03C235.623 302.977 235.562 302.944 235.498 302.944C235.434 302.944 235.372 302.976 235.335 303.029C235.286 303.1 235.098 303.35 234.751 303.586C234.304 303.89 233.782 304.046 233.202 304.049C233.093 304.05 233.005 304.139 233.005 304.248V305.082C232.893 305.09 232.788 305.1 232.689 305.113C232.466 305.143 232.277 305.188 232.123 305.247C231.862 305.349 231.709 305.492 231.67 305.671C231.632 305.842 231.702 306.026 231.877 306.219L231.878 306.22C231.881 306.223 231.884 306.227 231.888 306.23C232.051 306.405 232.298 306.584 232.622 306.761C232.644 306.773 232.666 306.786 232.689 306.797C232.81 306.861 232.939 306.924 233.075 306.985C233.115 307.134 233.171 307.29 233.24 307.448C233.401 307.517 233.57 307.584 233.748 307.648C233.652 307.482 233.575 307.319 233.515 307.166C234.013 307.356 234.577 307.524 235.171 307.655C235.838 307.803 236.491 307.893 237.074 307.921C236.983 308.052 236.881 308.181 236.766 308.307C236.92 308.32 237.071 308.329 237.216 308.334C237.281 308.252 237.338 308.172 237.39 308.098C237.428 308.043 237.464 307.987 237.499 307.93C237.624 307.929 237.744 307.925 237.86 307.917C238.162 307.897 238.418 307.855 238.623 307.791C238.668 307.777 238.71 307.762 238.75 307.746C238.828 307.715 238.897 307.679 238.954 307.64C238.924 307.589 238.887 307.541 238.845 307.495C238.786 307.534 238.711 307.569 238.623 307.6C238.427 307.669 238.164 307.716 237.849 307.737C237.77 307.742 237.689 307.746 237.605 307.748C237.847 307.308 237.989 306.855 237.989 306.503V306.317C238.241 306.445 238.456 306.576 238.623 306.705C238.662 306.736 238.698 306.766 238.733 306.796C238.879 306.927 239.046 307.119 239.008 307.292C239.002 307.319 238.991 307.344 238.976 307.369C239.022 307.419 239.061 307.469 239.091 307.517C239.138 307.46 239.169 307.398 239.184 307.331C239.229 307.123 239.117 306.898 238.851 306.661ZM232.709 306.602C232.702 306.598 232.695 306.594 232.689 306.591C232.383 306.422 232.152 306.251 232.008 306.093C232.008 306.093 232.008 306.093 232.007 306.093C231.95 306.036 231.913 305.973 231.899 305.948C231.849 305.861 231.829 305.781 231.845 305.709C231.889 305.511 232.197 305.364 232.689 305.294C232.787 305.281 232.892 305.27 233.005 305.263V306.504C233.005 306.585 233.013 306.673 233.028 306.764C232.916 306.711 232.809 306.657 232.709 306.602ZM237.629 306.504C237.629 306.79 237.489 307.26 237.189 307.745C236.591 307.724 235.909 307.633 235.211 307.478C234.568 307.336 233.962 307.152 233.439 306.942C233.39 306.773 233.366 306.622 233.366 306.504V304.406C233.956 304.376 234.489 304.201 234.955 303.884C235.205 303.715 235.384 303.535 235.498 303.405C235.612 303.535 235.791 303.714 236.04 303.884C236.505 304.201 237.038 304.376 237.629 304.406V306.504Z" fill="#F9FCFF"/>
<path d="M233.002 305.67C232.641 305.693 232.344 305.748 232.122 305.835C232.036 305.868 231.961 305.907 231.899 305.949C231.926 305.996 231.963 306.044 232.008 306.094C232.199 305.968 232.544 305.883 233.002 305.852V305.67Z" fill="#F9FCFF"/>
<path d="M231.899 305.948C231.912 305.973 231.95 306.036 232.006 306.094C232.007 306.094 232.007 306.093 232.008 306.093C231.963 306.043 231.926 305.995 231.899 305.948C231.899 305.948 231.899 305.948 231.899 305.948ZM239.09 307.517C239.059 307.469 239.02 307.419 238.975 307.37C238.938 307.33 238.897 307.289 238.852 307.249C238.646 307.066 238.346 306.878 237.977 306.698C237.974 306.723 237.958 306.831 237.947 306.885C238.278 307.05 238.547 307.22 238.732 307.384C238.77 307.417 238.808 307.455 238.844 307.495C238.886 307.54 238.924 307.589 238.953 307.64C238.999 307.718 239.025 307.801 239.007 307.88C238.955 308.115 238.522 308.281 237.849 308.326C237.652 308.338 237.439 308.341 237.216 308.334C237.071 308.329 236.92 308.32 236.766 308.308C236.278 308.267 235.75 308.186 235.211 308.066C234.691 307.951 234.195 307.808 233.749 307.647C233.571 307.583 233.402 307.516 233.241 307.447C233.05 307.364 232.872 307.278 232.71 307.189C232.118 306.866 231.795 306.532 231.846 306.296C231.853 306.269 231.863 306.243 231.879 306.219L231.878 306.218C231.87 306.21 231.818 306.158 231.762 306.071C231.716 306.128 231.685 306.19 231.67 306.258C231.631 306.432 231.705 306.621 231.889 306.817C232.052 306.992 232.299 307.17 232.623 307.348C232.843 307.468 233.091 307.584 233.36 307.692C233.532 307.762 233.713 307.828 233.903 307.892C234.299 308.026 234.727 308.144 235.172 308.243C235.666 308.352 236.152 308.43 236.607 308.474C236.765 308.49 236.92 308.501 237.07 308.509C237.202 308.515 237.33 308.518 237.455 308.518C237.595 308.518 237.731 308.514 237.86 308.506C238.229 308.482 238.528 308.424 238.75 308.335C238.999 308.234 239.145 308.094 239.184 307.919C239.212 307.791 239.18 307.657 239.09 307.517Z" fill="#F9FCFF"/>
<path d="M231.879 306.22C231.879 306.22 231.876 306.22 231.876 306.218C231.876 306.218 231.879 306.218 231.879 306.22Z" fill="#F9FCFF"/>
<path d="M391.82 291.836L392.221 290.976H391.651L391.25 291.836H391.82ZM390.048 290.976L389.647 291.836H390.218L390.619 290.976H390.048ZM391.42 290.976H390.849L390.448 291.836H391.019L391.42 290.976ZM388.941 290.976V291.836H389.417L389.818 290.976H388.941ZM392.902 291.836V290.976H392.452L392.051 291.836H392.902Z" fill="#F9FCFF"/>
<path d="M390.921 294.869C390.197 294.555 389.672 294.048 389.325 293.54C389.136 293.477 388.955 293.409 388.782 293.34C388.855 293.477 388.937 293.614 389.028 293.745C389.35 294.213 389.927 294.85 390.847 295.228C390.871 295.237 390.896 295.243 390.921 295.243C390.947 295.243 390.972 295.238 390.996 295.228C391.666 294.953 392.153 294.541 392.493 294.156C392.342 294.149 392.187 294.137 392.03 294.122C391.731 294.414 391.364 294.678 390.921 294.869ZM394.275 292.309C394.209 292.249 394.132 292.189 394.046 292.13C393.87 292.006 393.656 291.883 393.412 291.764V289.897C393.412 289.787 393.324 289.697 393.216 289.697C392.634 289.695 392.114 289.539 391.667 289.234C391.32 288.998 391.133 288.749 391.084 288.677C391.047 288.624 390.986 288.592 390.921 288.592C390.857 288.592 390.796 288.623 390.759 288.677C390.71 288.748 390.522 288.997 390.175 289.233C389.727 289.538 389.206 289.694 388.625 289.697C388.517 289.697 388.429 289.787 388.429 289.896V290.73C388.317 290.737 388.212 290.747 388.113 290.761C387.89 290.791 387.701 290.836 387.547 290.895C387.285 290.997 387.133 291.139 387.093 291.319C387.056 291.49 387.126 291.674 387.301 291.866L387.302 291.867C387.305 291.871 387.308 291.875 387.312 291.878C387.475 292.053 387.722 292.231 388.046 292.409C388.068 292.421 388.09 292.433 388.113 292.445C388.233 292.509 388.363 292.572 388.499 292.632C388.539 292.782 388.595 292.938 388.664 293.096C388.824 293.165 388.994 293.232 389.171 293.296C389.076 293.13 388.998 292.967 388.939 292.813C389.437 293.004 390.001 293.171 390.595 293.303C391.262 293.451 391.914 293.541 392.497 293.569C392.406 293.699 392.305 293.829 392.19 293.955C392.344 293.968 392.495 293.977 392.64 293.981C392.705 293.899 392.762 293.82 392.814 293.745C392.852 293.69 392.888 293.634 392.923 293.578C393.048 293.577 393.168 293.573 393.284 293.565C393.586 293.545 393.842 293.503 394.046 293.439C394.091 293.424 394.134 293.41 394.173 293.394C394.252 293.362 394.32 293.326 394.378 293.287C394.348 293.237 394.31 293.188 394.269 293.142C394.21 293.182 394.135 293.217 394.046 293.248C393.851 293.316 393.588 293.364 393.272 293.385C393.194 293.39 393.113 293.394 393.029 293.396C393.271 292.956 393.413 292.503 393.413 292.151V291.965C393.665 292.093 393.88 292.224 394.046 292.353C394.086 292.384 394.122 292.413 394.156 292.444C394.303 292.575 394.47 292.767 394.432 292.94C394.426 292.967 394.415 292.992 394.4 293.017C394.446 293.067 394.484 293.116 394.515 293.165C394.562 293.108 394.592 293.046 394.608 292.978C394.653 292.771 394.541 292.546 394.275 292.309ZM388.132 292.249C388.126 292.246 388.119 292.242 388.113 292.239C387.807 292.07 387.576 291.899 387.432 291.74C387.431 291.74 387.431 291.741 387.43 291.741C387.374 291.684 387.337 291.62 387.323 291.596C387.273 291.509 387.253 291.428 387.269 291.356C387.312 291.159 387.621 291.011 388.113 290.942C388.211 290.928 388.316 290.918 388.429 290.91V292.152C388.429 292.233 388.437 292.321 388.451 292.412C388.34 292.358 388.232 292.304 388.132 292.249ZM393.052 292.152C393.052 292.438 392.913 292.908 392.613 293.393C392.014 293.372 391.333 293.281 390.635 293.126C389.992 292.984 389.386 292.8 388.863 292.59C388.814 292.421 388.789 292.27 388.789 292.152V290.053C389.38 290.024 389.913 289.849 390.379 289.532C390.628 289.362 390.808 289.183 390.922 289.052C391.036 289.183 391.215 289.361 391.464 289.532C391.929 289.849 392.462 290.024 393.052 290.053V292.152Z" fill="#F9FCFF"/>
<path d="M388.426 291.318C388.064 291.34 387.768 291.396 387.546 291.483C387.46 291.516 387.385 291.555 387.323 291.597C387.35 291.644 387.387 291.692 387.432 291.742C387.623 291.616 387.968 291.53 388.426 291.5V291.318Z" fill="#F9FCFF"/>
<path d="M387.322 291.596C387.336 291.621 387.374 291.684 387.43 291.741C387.431 291.741 387.431 291.74 387.431 291.74C387.387 291.691 387.35 291.643 387.322 291.596C387.323 291.596 387.323 291.596 387.322 291.596ZM394.514 293.165C394.483 293.116 394.444 293.067 394.399 293.017C394.362 292.978 394.321 292.937 394.275 292.896C394.07 292.714 393.77 292.525 393.401 292.346C393.398 292.37 393.381 292.478 393.371 292.532C393.702 292.697 393.971 292.868 394.155 293.032C394.193 293.065 394.232 293.103 394.268 293.142C394.31 293.188 394.347 293.237 394.377 293.288C394.423 293.366 394.448 293.449 394.431 293.527C394.379 293.762 393.946 293.929 393.272 293.973C393.076 293.986 392.863 293.989 392.64 293.981C392.495 293.977 392.344 293.968 392.19 293.955C391.702 293.915 391.174 293.834 390.635 293.714C390.115 293.598 389.619 293.456 389.172 293.295C388.995 293.231 388.825 293.164 388.665 293.095C388.474 293.012 388.296 292.925 388.133 292.837C387.541 292.514 387.219 292.179 387.27 291.944C387.276 291.917 387.287 291.891 387.303 291.867L387.302 291.866C387.294 291.858 387.242 291.805 387.186 291.719C387.139 291.776 387.109 291.838 387.094 291.905C387.055 292.08 387.129 292.268 387.312 292.465C387.476 292.64 387.722 292.818 388.047 292.996C388.267 293.115 388.515 293.232 388.784 293.34C388.956 293.409 389.137 293.476 389.326 293.54C389.723 293.673 390.151 293.792 390.596 293.89C391.09 293.999 391.576 294.078 392.031 294.122C392.189 294.137 392.344 294.149 392.494 294.156C392.626 294.163 392.754 294.166 392.879 294.166C393.019 294.166 393.155 294.162 393.284 294.154C393.653 294.129 393.952 294.072 394.174 293.982C394.423 293.881 394.569 293.742 394.608 293.567C394.636 293.439 394.604 293.305 394.514 293.165Z" fill="#F9FCFF"/>
<path d="M387.303 291.868C387.303 291.868 387.3 291.868 387.3 291.865C387.3 291.865 387.303 291.865 387.303 291.868Z" fill="#F9FCFF"/>
</g>
</svg>
