<svg width="64" height="53" viewBox="0 0 64 53" fill="none" xmlns="http://www.w3.org/2000/svg">
<path d="M27.861 26.0495C27.8701 26.0579 27.8791 26.0667 27.888 26.0758C28.0699 26.2619 28.1059 26.5057 28.1228 26.6333M27.861 26.0495L47.0504 26.2791C46.1554 26.2793 45.2605 26.2792 44.3657 26.2792C41.8603 26.279 39.3553 26.2788 36.8506 26.2843L36.8495 26.2843C36.8447 26.2843 36.8398 26.2843 36.8347 26.2843C36.6877 26.284 36.4291 26.2766 36.2115 26.1193C36.1884 26.1026 36.1669 26.0852 36.1468 26.067M27.861 26.0495C28.0692 25.8546 28.1273 25.5867 28.1479 25.3696M27.861 26.0495L28.5938 23.3086C29.9181 21.3857 33.2647 20.9146 35.1906 23.0312M28.1228 26.6333L27.6271 26.699L28.1228 26.6333C28.1228 26.6333 28.1228 26.6333 28.1228 26.6333ZM28.1228 26.6333C28.3712 28.5061 30.0425 29.9772 31.917 29.9923C33.9074 30.0082 35.6037 28.5835 35.8668 26.6932L35.8669 26.6927C35.8917 26.5156 35.9439 26.2565 36.1468 26.067M36.1468 26.067C36.1539 26.0604 36.1612 26.0538 36.1686 26.0474C36.3899 25.8563 36.6643 25.844 36.8356 25.8444L36.3613 25.374C36.2723 24.4541 35.7834 23.6825 35.1906 23.0312M36.1468 26.067C35.9431 25.8833 35.8836 25.6286 35.8636 25.4223L35.8636 25.4222C35.7894 24.6546 35.3788 23.9808 34.8208 23.3677L35.1906 23.0312M35.1906 23.0312L34.8208 23.3677C33.1171 21.4953 30.1518 21.9278 29.0056 23.5922L29.0055 23.5923C28.5539 24.2478 28.2067 24.7524 28.1479 25.3696M28.1479 25.3696C28.1479 25.3694 28.1479 25.3693 28.1479 25.3692L27.6501 25.3221L28.1479 25.3696ZM9.50658 26.0459C9.49253 24.261 8.06779 22.8628 6.28045 22.8724L6.28036 22.8724C4.53664 22.8821 3.10287 24.3406 3.11609 26.0855C3.12929 27.8452 4.59918 29.2885 6.35815 29.2674H6.35817C8.11142 29.2462 9.52061 27.8012 9.50658 26.0459ZM9.50658 26.0459L9.0066 26.0499L9.50658 26.0459C9.50658 26.0459 9.50658 26.0459 9.50658 26.0459ZM12.1827 25.8187L12.2024 26.0728L12.1839 26.3368C11.9291 29.9557 8.75862 32.2382 5.58918 31.8565L5.58911 31.8565C2.6947 31.5083 0.480945 28.9966 0.500124 25.9945L0.500124 25.9944C0.519209 22.9823 2.78393 20.5356 5.91171 20.2545L5.91173 20.2545C8.74648 19.9996 11.8926 22.0949 12.1827 25.8187ZM51.8089 26.1444L51.8395 25.7995C52.013 23.8398 52.8471 22.2932 54.4667 21.21L54.4668 21.21C55.7099 20.3783 57.0828 20.0832 58.5709 20.3023C61.5177 20.7368 63.6204 23.327 63.4946 26.4086C63.3811 29.188 61.0233 31.6138 58.3202 31.8723C55.2037 32.1701 52.1103 29.9672 51.8221 26.3111L51.8089 26.1444ZM51.0555 26.2761L51.0565 26.2761L47.0505 26.2791C48.3315 26.2791 49.6126 26.2777 50.8933 26.2763C50.9474 26.2763 51.0014 26.2762 51.0555 26.2761ZM30.0792 26.1511L30.0793 26.1516C30.161 27.1481 30.9735 28.0188 32.0403 27.9972L32.0406 27.9972C33.1319 27.9744 33.8899 27.0476 33.9203 26.0256C33.9367 25.477 33.681 24.9788 33.3246 24.6391C32.9844 24.3149 32.5021 24.0888 31.9857 24.1351C31.4531 24.0875 30.9618 24.3362 30.6251 24.6843C30.2714 25.0501 30.0329 25.5794 30.0792 26.1511ZM57.6828 22.8717C55.9217 22.8673 54.4995 24.2897 54.4907 26.0541L60.3835 26.058L60.8835 26.0573C60.8835 26.0571 60.8835 26.057 60.8835 26.0568C60.8806 24.3051 59.4378 22.8761 57.6828 22.8717Z" stroke="#0274BA"/>
<path d="M36.5171 16.7613L36.5173 16.7614C37.2337 17.2326 38.0218 17.5523 38.8662 17.7384C39.0189 17.7719 39.223 17.8394 39.3769 18.0189C39.5334 18.2015 39.5659 18.4152 39.5717 18.5723M36.5171 16.7613L39.072 18.591M36.5171 16.7613C36.3844 16.6741 36.1898 16.5783 35.9505 16.6064M36.5171 16.7613L35.9505 16.6064M39.5717 18.5723C39.5717 18.5724 39.5717 18.5725 39.5717 18.5726L39.072 18.591M39.5717 18.5723C39.5717 18.5721 39.5717 18.5719 39.5717 18.5717L39.072 18.591M39.5717 18.5723C39.5891 19.0242 39.6147 19.473 39.6418 19.9485C39.6449 20.0033 39.648 20.0584 39.6512 20.1139M39.072 18.591C39.0897 19.0479 39.1156 19.504 39.1429 19.982C39.1546 20.1878 39.1665 20.3977 39.1781 20.6134M39.6512 20.1139C39.4953 20.1136 39.3378 20.1134 39.1781 20.1134V20.6134M39.6512 20.1139C39.6817 20.114 39.7121 20.114 39.7425 20.1141C40.3526 20.1152 40.9374 20.1164 41.5184 20.1045M39.6512 20.1139C39.6599 20.268 39.6687 20.4252 39.6774 20.5865L39.1781 20.6134M39.1781 20.6134L41.5184 20.1045M41.5184 20.1045C41.5139 20.1593 41.5093 20.2141 41.5044 20.2689L41.7678 20.2922L41.7762 20.5985L41.7679 20.2922M41.5184 20.1045C41.5998 20.1028 41.6811 20.1009 41.7625 20.0987M41.5184 20.1045C41.556 19.6411 41.5791 19.1789 41.5804 18.7194L41.5804 18.7184C41.5813 18.5348 41.6046 18.2967 41.7618 18.0857C41.9153 17.8799 42.1353 17.7825 42.3183 17.7205L42.3184 17.7205C43.0889 17.4596 43.8463 17.1473 44.576 16.789L44.5768 16.7886C44.7488 16.7045 44.9724 16.6158 45.2256 16.6441C45.4934 16.674 45.6894 16.821 45.8366 16.9648L45.8373 16.9655C46.141 17.2636 46.4535 17.5441 46.7641 17.823C46.776 17.8337 46.7878 17.8443 46.7996 17.8549M41.5184 20.1045L42.0804 18.7208C42.0819 18.4204 42.1657 18.3002 42.4788 18.1941C43.2696 17.9263 44.0471 17.6058 44.7964 17.2378C45.0998 17.0894 45.2593 17.0998 45.4871 17.3224C45.7992 17.6286 46.1247 17.921 46.4387 18.2029C46.5659 18.3171 46.6912 18.4295 46.8129 18.5405M41.7679 20.2922L42.0025 20.3129L41.7679 20.2914M41.7679 20.2922L41.7679 20.2914M41.7679 20.2922L41.7679 20.2914M41.7679 20.2914L41.7626 20.0987C41.7626 20.0987 41.7625 20.0987 41.7625 20.0987M41.7625 20.0987C41.6854 20.1008 41.6287 20.1224 41.5994 20.1359C41.5686 20.1501 41.5486 20.1645 41.5395 20.1714C41.532 20.1772 41.527 20.1818 41.524 20.1847C41.5226 20.1878 41.52 20.1938 41.5172 20.2027C41.5138 20.2133 41.5075 20.2356 41.5046 20.2673L41.7678 20.2914L41.7625 20.0987ZM46.7996 17.8549C46.6884 17.9634 46.5765 18.0726 46.4637 18.1826L46.8129 18.5405M46.7996 17.8549C46.9169 17.9602 47.0338 18.0653 47.1498 18.1711L46.8129 18.5405M46.7996 17.8549C47.0591 17.6016 47.3149 17.3519 47.5694 17.1033C47.76 16.9173 47.9499 16.7318 48.1401 16.5461M46.8129 18.5405C47.1886 18.1741 47.5551 17.8162 47.9189 17.4609C48.2247 17.1623 48.5286 16.8656 48.8345 16.5671M48.8345 16.5671L48.4643 16.9033C48.356 16.7839 48.2476 16.6646 48.1401 16.5461M48.8345 16.5671C48.3285 16.01 47.8233 15.4528 47.3989 14.9847L32.2847 9.31283C32.2848 9.31283 32.2849 9.31282 32.285 9.31282M48.8345 16.5671L48.4853 16.2092C48.37 16.3218 48.255 16.434 48.1401 16.5461M48.1401 16.5461C47.7455 16.1114 47.362 15.6884 47.0285 15.3205L46.8196 15.0901L46.934 14.8009C47.0456 14.5185 47.1556 14.2473 47.2628 13.9833C47.5253 13.3366 47.7705 12.7324 47.9799 12.1087L47.9801 12.1082C48.0397 11.9313 48.1305 11.6984 48.3267 11.5272C48.5438 11.3379 48.8039 11.2929 49.0443 11.2939L49.0447 11.2939C49.4504 11.2959 49.848 11.2722 50.272 11.2469C50.3035 11.245 50.3351 11.2431 50.3669 11.2413C50.367 11.2043 50.3671 11.1675 50.3671 11.1307C50.3681 10.5306 50.369 9.9541 50.3602 9.37999C49.8933 9.34492 49.4321 9.32027 48.9748 9.31965C48.7766 9.31957 48.5422 9.28664 48.3384 9.12287C48.1488 8.97052 48.0589 8.76062 48.0018 8.6011C47.7131 7.79701 47.3811 7.00458 47.0162 6.2289C46.9542 6.09709 46.8735 5.90219 46.8964 5.67679C46.9212 5.43312 47.0535 5.25925 47.1686 5.13821L47.1687 5.13806C47.4881 4.80222 47.7952 4.45985 48.0886 4.13276C48.094 4.12674 48.0994 4.12072 48.1048 4.11471C47.7696 3.77618 47.4406 3.4438 47.1116 3.11146C47.0024 3.00122 46.8933 2.89098 46.7839 2.78053C46.7633 2.79921 46.7427 2.81792 46.722 2.83665C46.3898 3.13767 46.0516 3.44409 45.7155 3.75522C45.6377 3.82733 45.4876 3.96012 45.2729 4.00364C45.0284 4.0532 44.8181 3.96905 44.6597 3.86567L44.6592 3.86538C43.9305 3.38877 43.13 3.0626 42.2739 2.87522C42.1011 2.83749 41.8861 2.75708 41.7394 2.55007C41.6045 2.35967 41.5916 2.14668 41.5887 2.02415L41.5887 2.02388C41.5822 1.74731 41.5686 1.46962 41.5543 1.18519L41.5519 1.13782C41.5414 0.929107 41.5307 0.716576 41.5228 0.502854C40.9018 0.508972 40.2783 0.511298 39.6536 0.502806C39.6471 0.677696 39.6375 0.851193 39.6281 1.01926C39.6264 1.05016 39.6247 1.08087 39.623 1.11138C39.6091 1.36418 39.5972 1.6057 39.5965 1.84445L39.5965 1.84512C39.5956 2.06586 39.5591 2.32264 39.384 2.54366C39.2141 2.75807 38.9757 2.85908 38.764 2.92176C38.1088 3.11617 37.463 3.36961 36.8435 3.66755L36.8431 3.66775C36.8118 3.68274 36.7807 3.69783 36.7498 3.71276C36.6331 3.7693 36.521 3.8236 36.4267 3.86165C36.3032 3.91152 36.1372 3.96581 35.945 3.94818C35.7453 3.92986 35.5899 3.84143 35.4705 3.75487C35.3577 3.67308 35.2345 3.56044 35.1057 3.44238L35.1055 3.44219C34.8528 3.21037 34.5993 2.98002 34.3548 2.7582C33.9971 3.11274 33.6486 3.45817 33.3 3.80359C33.2083 3.89447 33.1166 3.98535 33.0248 4.07639C33.4234 4.51916 33.8248 4.96494 34.2258 5.40979L34.4861 5.69862L34.2703 6.02206C33.7186 6.84897 33.3442 7.7021 33.1466 8.62267L32.6577 8.5177M32.6577 8.5177L33.1469 8.62118C33.1077 8.80661 33.0197 9.01605 32.8152 9.15952C32.628 9.29088 32.4202 9.30956 32.285 9.31282M32.6577 8.5177C32.8699 7.52951 33.2713 6.61848 33.8544 5.74454M32.6577 8.5177L33.8544 5.74454M32.285 9.31282C32.0238 9.31945 31.7617 9.33302 31.4919 9.34699L31.465 9.34838C31.2413 9.35995 31.0123 9.37164 30.7816 9.37893M32.285 9.31282L30.7816 9.37893M30.7816 9.37893C30.791 9.99881 30.792 10.6194 30.7819 11.2407C31.3045 11.2543 31.8268 11.2809 32.3477 11.3197L32.3507 11.3199C32.494 11.3315 32.6345 11.3846 32.7383 11.4409C32.7937 11.471 32.8591 11.513 32.9197 11.5695C32.9712 11.6175 33.0707 11.7229 33.1072 11.8872L33.1074 11.888C33.3215 12.859 33.7178 13.7568 34.27 14.6118L34.4778 14.9336L34.2211 15.218C33.9137 15.5587 33.6106 15.8947 33.3129 16.2248C33.2203 16.3275 33.1283 16.4295 33.0368 16.5309C33.4683 16.9589 33.8947 17.3816 34.3278 17.8109C34.3414 17.8243 34.3549 17.8377 34.3684 17.8511C34.3793 17.8414 34.3901 17.8316 34.401 17.8218C34.7494 17.5083 35.1047 17.1887 35.4546 16.8597L30.7816 9.37893ZM33.8544 5.74454C33.4046 5.24555 32.9543 4.74539 32.508 4.24973C32.45 4.18533 32.3921 4.121 32.3343 4.05676C32.5399 3.85295 32.7437 3.65097 32.9475 3.449L33.8544 5.74454ZM39.1588 0.324345C39.1536 0.546725 39.1413 0.768961 39.1289 0.991117C39.1131 1.27516 39.0974 1.55907 39.0965 1.84298C39.095 2.18944 38.9778 2.33707 38.6217 2.44242L39.6488 0.337031L39.4774 0.332592L39.4771 0.332584L39.1588 0.324345ZM39.1588 0.324345L39.4771 0.331801L39.4774 0.331808L39.6494 0.335837L41.5151 0.298275C41.5151 0.298272 41.5157 0.302019 41.5177 0.308605C41.5188 0.312279 41.5203 0.316874 41.5223 0.322221L41.7122 0.316767L41.7128 0.316748L42.0166 0.308024M39.1588 0.324345C39.1648 0.0951035 39.2353 -0.00430848 39.483 0.000142823C40.2249 0.0127548 40.9668 0.00904501 41.7087 0.000884299C41.935 -0.00208323 42.0099 0.0906521 42.0166 0.308024M42.0166 0.308024L41.7128 0.317353L41.7122 0.317374L41.5226 0.323195M42.0166 0.308024C42.0243 0.576819 42.0378 0.845448 42.0514 1.11407C42.0664 1.41336 42.0815 1.71264 42.0885 2.01213C42.0937 2.22802 42.1427 2.33485 42.3808 2.38678L41.5226 0.323195M41.5226 0.323195C41.5313 0.345876 41.5492 0.381456 41.5838 0.417592C41.6349 0.470935 41.6867 0.490723 41.7142 0.497759C41.7145 0.49785 41.7149 0.497939 41.7152 0.498026C41.722 0.499727 41.7272 0.500629 41.7304 0.501064M41.5226 0.323195L41.7304 0.501064M41.7304 0.501064C41.7329 0.501206 41.7341 0.501363 41.734 0.501406C41.734 0.501449 41.7327 0.50138 41.7304 0.501064ZM36.8629 10.2194L36.8629 10.2193C36.9068 8.16551 38.6344 6.55777 40.7026 6.60977L36.8629 10.2194ZM36.8629 10.2194C36.8191 12.2811 38.4466 13.9628 40.5165 14.0149L36.8629 10.2194ZM35.9505 16.6064C35.7194 16.6335 35.5556 16.7647 35.4549 16.8594L35.9505 16.6064ZM40.5165 14.0149C42.5183 14.0655 44.2343 12.4565 44.2887 10.4611L40.5165 14.0149ZM44.2887 10.461C44.3457 8.38312 42.7624 6.66149 40.7027 6.60977L44.2887 10.461Z" stroke="#0274BA"/>
<path d="M29.5109 37.2021L29.7715 36.9144C29.8368 36.8424 29.9018 36.7706 29.9665 36.6992C30.3051 36.3253 30.636 35.9601 30.9585 35.6051L29.6336 34.2831C29.2094 34.6656 28.7882 35.0452 28.4216 35.3753L28.1906 35.5832L27.902 35.4682C27.6116 35.3525 27.336 35.2382 27.0691 35.1275C26.455 34.8728 25.8875 34.6375 25.2939 34.449L25.2939 34.449C25.0623 34.3755 24.8085 34.2646 24.628 34.04C24.4389 33.8047 24.3953 33.5284 24.3962 33.2733V33.2732C24.3977 32.8855 24.3775 32.5051 24.3559 32.1002C24.3546 32.0751 24.3533 32.0498 24.3519 32.0245C24.3159 32.0244 24.28 32.0244 24.2442 32.0243C23.6368 32.0232 23.0564 32.0222 22.4792 32.0323C22.4427 32.5166 22.4216 33.0036 22.4138 33.4908C22.4117 33.6257 22.3998 33.8522 22.2614 34.053C22.1066 34.2776 21.8735 34.3641 21.6732 34.4006L21.6731 34.4006C21.4147 34.4476 21.1467 34.5411 20.8712 34.6582L20.8707 34.6584C20.4283 34.8458 19.9941 35.0441 19.5398 35.2516C19.363 35.3323 19.1832 35.4145 18.9987 35.4979L18.701 35.6324L18.4582 35.4139L17.1882 34.2706C16.7426 34.712 16.3036 35.1467 15.8591 35.5867C15.8778 35.6075 15.8965 35.6282 15.9152 35.649C16.2331 36.0017 16.5478 36.3509 16.8722 36.6948C16.9866 36.8159 17.1037 36.9864 17.1169 37.2187C17.1285 37.4229 17.0515 37.5956 17.0048 37.6949C16.656 38.4392 16.3199 39.1753 16.038 39.9254L16.038 39.9254C16.0266 39.9557 16.0152 39.9868 16.0037 40.0179C15.9704 40.108 15.937 40.1984 15.9061 40.2689C15.8622 40.3693 15.7912 40.5098 15.6551 40.6229C15.5128 40.7411 15.3555 40.7839 15.2291 40.8044C15.1108 40.8237 14.9694 40.8303 14.8273 40.8366M29.5109 37.2021L14.8051 40.3371M29.5109 37.2021L29.725 37.5259M29.5109 37.2021L29.725 37.5259M14.8273 40.8366L14.8051 40.3371M14.8273 40.8366C14.8273 40.8366 14.8274 40.8366 14.8274 40.8366L14.8051 40.3371M14.8273 40.8366C14.4321 40.8542 14.0366 40.873 13.6309 40.8924M14.8051 40.3371C14.3524 40.3573 13.8993 40.379 13.4319 40.4013C13.3324 40.4061 13.2323 40.4109 13.1314 40.4157M13.6309 40.8924C13.6312 40.7355 13.6314 40.5768 13.6314 40.4157H13.1314M13.6309 40.8924C13.6309 40.9242 13.6308 40.9559 13.6308 40.9875C13.6297 41.5961 13.6287 42.1773 13.6391 42.7557M13.6309 40.8924C13.5728 40.8952 13.5145 40.898 13.456 40.9008C13.3565 40.9055 13.2563 40.9103 13.1553 40.9151L13.1314 40.4157M13.1314 40.4157L13.6391 42.7557M13.6391 42.7557C13.5851 42.7513 13.5309 42.7467 13.4767 42.7419C13.5047 42.7444 13.5242 42.7496 13.5332 42.7523C13.5393 42.7541 13.5437 42.7557 13.5465 42.7568C13.5499 42.76 13.555 42.7653 13.5614 42.773C13.5692 42.7824 13.5855 42.8035 13.6017 42.8363C13.617 42.8672 13.6421 42.9286 13.6446 43.0126L13.4527 43.0182L13.452 43.0182L13.1448 43.0271L13.4519 43.0196L13.4525 43.0196L13.6446 43.0149C13.6425 42.9285 13.6407 42.8422 13.6391 42.7557ZM13.6391 42.7557C14.1072 42.7943 14.5666 42.8218 15.0205 42.818L15.021 42.818C15.2013 42.8166 15.4493 42.8364 15.6634 42.9955C15.8891 43.1632 15.9754 43.407 16.0145 43.6137L16.0145 43.6138C16.072 43.918 16.1619 44.2189 16.2824 44.4966L16.2826 44.4971C16.4568 44.8997 16.6466 45.2892 16.8444 45.6951C16.9283 45.8673 17.0136 46.0424 17.0998 46.2227L17.2442 46.5248L17.0199 46.7733C16.6979 47.1301 16.3733 47.4894 16.0641 47.8317C16.0085 47.8933 15.9534 47.9543 15.8989 48.0146M13.6391 42.7557L13.4334 43.2401C13.9623 43.2861 14.4943 43.3224 15.0247 43.318C15.3259 43.3157 15.4654 43.4011 15.5232 43.7067C15.587 44.0443 15.6872 44.3811 15.8237 44.6956C16.0026 45.1091 16.2001 45.5144 16.4002 45.925C16.4829 46.0949 16.5662 46.2657 16.6487 46.4383C16.3267 46.795 16.0023 47.1543 15.6931 47.4966C15.527 47.6804 15.3654 47.8593 15.2109 48.0304M15.8989 48.0146C15.7888 47.9034 15.678 47.7915 15.5662 47.6786L15.2109 48.0304M15.8989 48.0146C15.7906 48.1345 15.6847 48.2518 15.582 48.3655L15.2109 48.0304M15.8989 48.0146C16.0596 48.177 16.2188 48.3378 16.377 48.4977C16.6591 48.7828 16.9385 49.065 17.219 49.3483M15.2109 48.0304C15.4857 48.3079 15.7548 48.5798 16.0215 48.8493C16.4165 49.2485 16.8063 49.6423 17.2014 50.0409M18.999 48.664C19.89 49.2137 20.847 49.5936 21.8938 49.8146C21.9026 49.9998 21.913 50.1838 21.9234 50.367C21.9491 50.8181 21.9744 51.2645 21.9739 51.7109L18.999 48.664ZM18.999 48.664C18.9218 48.6165 18.72 48.6788 18.6317 48.7545M18.999 48.664L18.6317 48.7545M18.6317 48.7545C18.2596 49.0748 17.8971 49.406 17.5463 49.7265C17.43 49.8327 17.315 49.9378 17.2014 50.0409M18.6317 48.7545L22.4005 52.1167C22.5518 52.0993 22.7055 52.1038 22.8593 52.1082C22.9287 52.1102 22.9982 52.1122 23.0675 52.1122H24.8235M17.2014 50.0409L16.8654 49.6706C16.9763 49.57 17.0896 49.4664 17.2049 49.3611C17.2096 49.3568 17.2143 49.3526 17.219 49.3483M17.2014 50.0409L17.5565 49.6889C17.4436 49.5751 17.3312 49.4616 17.219 49.3483M17.219 49.3483C17.5667 49.0305 17.9323 48.6968 18.3055 48.3755L18.3063 48.3749C18.4239 48.2741 18.5714 48.212 18.6898 48.1802C18.7539 48.163 18.8319 48.1484 18.9159 48.1475C18.9895 48.1467 19.1263 48.1552 19.261 48.2381L19.2615 48.2384C20.1022 48.7571 21.0052 49.1159 21.9971 49.3254L22.3749 49.4052L22.3932 49.7909C22.4015 49.9658 22.4116 50.1437 22.4219 50.3236C22.4459 50.7468 22.4705 51.1806 22.4736 51.6093M22.4736 51.6093C22.4293 51.6117 22.3856 51.6151 22.3434 51.62L22.3434 51.62C22.3038 51.6245 22.287 51.6233 22.2862 51.6233C22.2859 51.6234 22.2877 51.6235 22.2912 51.6242C22.3019 51.6262 22.322 51.6317 22.3462 51.644C22.3462 51.644 22.3462 51.644 22.3462 51.644C22.3673 51.6547 22.3914 51.6705 22.4152 51.6937C22.4213 51.6997 22.4268 51.7056 22.4319 51.7114C22.432 51.7116 22.4322 51.7118 22.4323 51.7119C22.4672 51.7525 22.4774 51.7878 22.4786 51.7924C22.4787 51.7925 22.4787 51.7925 22.4786 51.7922C22.4782 51.7899 22.4738 51.7673 22.4739 51.712L22.4739 51.7115C22.474 51.6774 22.4738 51.6434 22.4736 51.6093ZM22.4736 51.6093C22.6279 51.6009 22.7889 51.6055 22.9173 51.6091C22.9752 51.6108 23.0265 51.6122 23.0675 51.6122H23.0708H23.0742H23.0776H23.081H23.0844H23.0877H23.0911H23.0945H23.0979H23.1013H23.1047H23.108H23.1114H23.1148H23.1182H23.1216H23.1249H23.1283H23.1317H23.1351H23.1385H23.1419H23.1452H23.1486H23.152H23.1554H23.1588H23.1622H23.1655H23.1689H23.1723H23.1757H23.1791H23.1824H23.1858H23.1892H23.1926H23.196H23.1994H23.2027H23.2061H23.2095H23.2129H23.2163H23.2197H23.223H23.2264H23.2298H23.2332H23.2366H23.24H23.2433H23.2467H23.2501H23.2535H23.2569H23.2603H23.2636H23.267H23.2704H23.2738H23.2772H23.2806H23.2839H23.2873H23.2907H23.2941H23.2975H23.3009H23.3043H23.3076H23.311H23.3144H23.3178H23.3212H23.3246H23.3279H23.3313H23.3347H23.3381H23.3415H23.3449H23.3483H23.3516H23.355H23.3584H23.3618H23.3652H23.3686H23.372H23.3753H23.3787H23.3821H23.3855H23.3889H23.3923H23.3957H23.3991H23.4024H23.4058H23.4092H23.4126H23.416H23.4194H23.4228H23.4262H23.4295H23.4329H23.4363H23.4397H23.4431H23.4465H23.4499H23.4533H23.4567H23.46H23.4634H23.4668H23.4702H23.4736H23.477H23.4804H23.4838H23.4872H23.4906H23.4939H23.4973H23.5007H23.5041H23.5075H23.5109H23.5143H23.5177H23.5211H23.5245H23.5279H23.5312H23.5346H23.538H23.5414H23.5448H23.5482H23.5516H23.555H23.5584H23.5618H23.5652H23.5686H23.572H23.5754H23.5788H23.5821H23.5855H23.5889H23.5923H23.5957H23.5991H23.6025H23.6059H23.6093H23.6127H23.6161H23.6195H23.6229H23.6263H23.6297H23.6331H23.6365H23.6399H23.6433H23.6467H23.6501H23.6535H23.6569H23.6603H23.6637H23.6671H23.6705H23.6739H23.6773H23.6807H23.6841H23.6875H23.6909H23.6943H23.6977H23.7011H23.7045H23.7079H23.7113H23.7147H23.7181H23.7215H23.7249H23.7283H23.7317H23.7351H23.7385H23.7419H23.7453H23.7487H23.7521H23.7555H23.7589H23.7623H23.7657H23.7691H23.7725H23.7759H23.7794H23.7828H23.7862H23.7896H23.793H23.7964H23.7998H23.8032H23.8066H23.81H23.8134H23.8168H23.8202H23.8236H23.8271H23.8305H23.8339H23.8373H23.8407H23.8441H23.8475H23.8509H23.8543H23.8578H23.8612H23.8646H23.868H23.8714H23.8748H23.8782H23.8816H23.8851H23.8885H23.8919H23.8953H23.8987H23.9021H23.9055H23.909H23.9124H23.9158H23.9192H23.9226H23.926H23.9295H23.9329H23.9363H23.9397H23.9431H23.9465H23.95H23.9534H23.9568H23.9602H23.9636H23.9671H23.9705H23.9739H23.9773H23.9807H23.9842H23.9876H23.991H23.9944H23.9979H24.0013H24.0047H24.0081H24.0116H24.015H24.0184H24.0218H24.0253H24.0287H24.0321H24.0355H24.039H24.0424H24.0458H24.0492H24.0527H24.0561H24.0595H24.063H24.0664H24.0698H24.0732H24.0767H24.0801H24.0835H24.087H24.0904H24.0938H24.0973H24.1007H24.1041H24.1076H24.111H24.1144H24.1179H24.1213H24.1247H24.1282H24.1316H24.135H24.1385H24.1419H24.1453H24.1488H24.1522H24.1557H24.1591H24.1625H24.166H24.1694H24.1728H24.1763H24.1797H24.1832H24.1866H24.1901H24.1935H24.1969H24.2004H24.2038H24.2073H24.2107H24.2142H24.2176H24.221H24.2245H24.2279H24.2314H24.2348H24.2383H24.2417H24.2452H24.2486H24.2521H24.2555H24.259H24.2624H24.2659H24.2693H24.2728H24.2762H24.2797H24.2831H24.2866H24.29H24.2935H24.2969H24.3004H24.3038H24.3073H24.3107H24.3142H24.3176H24.3211H24.3246H24.328H24.3315H24.3349H24.3384H24.3418H24.3453H24.3488H24.3502M24.3502 51.6122C24.3413 51.7667 24.3325 51.9244 24.3242 52.0865L24.8235 52.1122M24.3502 51.6122H24.3522H24.3557H24.3591H24.3626H24.3661H24.3695H24.373H24.3764H24.3799H24.3834H24.3868H24.3903H24.3938H24.3972H24.4007H24.4042H24.4076H24.4111H24.4146H24.418H24.4215H24.425H24.4284H24.4319H24.4354H24.4388H24.4423H24.4458H24.4493H24.4527H24.4562H24.4597H24.4632H24.4666H24.4701H24.4736H24.477H24.4805H24.484H24.4875H24.491H24.4944H24.4979H24.5014H24.5049H24.5083H24.5118H24.5153H24.5188H24.5223H24.5257H24.5292H24.5327H24.5362H24.5397H24.5432H24.5466H24.5501H24.5536H24.5571H24.5606H24.5641H24.5676H24.571H24.5745H24.578H24.5815H24.585H24.5885H24.592H24.5955H24.599H24.6025H24.606H24.6094H24.6129H24.6164H24.6199H24.6234H24.6269H24.6304H24.6339H24.6374H24.6409H24.6444H24.6479H24.6514H24.6549H24.6584H24.6619H24.6654H24.6689H24.6724H24.6759H24.6794H24.6829H24.6864H24.6899H24.6934H24.6969H24.7004H24.7039H24.7075H24.711H24.7145H24.718H24.7215H24.725H24.7285H24.732H24.7355H24.739H24.7426H24.7461H24.7496H24.7531H24.7566H24.7601H24.7636H24.7672H24.7707H24.7742H24.7777H24.7812H24.7847H24.7883H24.7918H24.7953H24.7988H24.8024H24.8059H24.8094H24.8129H24.8164H24.82H24.8235V52.1122M24.3502 51.6122C24.3529 51.5644 24.3556 51.5169 24.3583 51.4697C24.3848 51.007 24.4099 50.5707 24.4201 50.1295L24.4201 50.1283C24.4254 49.9205 24.4794 49.7002 24.6516 49.5198C24.7991 49.3653 24.9883 49.294 25.101 49.2529L25.101 49.2529C25.1585 49.2319 25.2159 49.2111 25.273 49.1903C25.9941 48.9279 26.6857 48.6762 27.3331 48.3473L27.3331 48.3473C27.5413 48.2415 27.7958 48.1409 28.0796 48.1767C28.3752 48.214 28.5923 48.3839 28.7608 48.5565L28.761 48.5567C29.0378 48.8406 29.3279 49.0978 29.6214 49.3581C29.6297 49.3655 29.6381 49.373 29.6465 49.3804M24.8235 52.1122C24.8341 51.9067 24.8456 51.7057 24.857 51.5076C24.8837 51.0408 24.9095 50.5911 24.9199 50.1411M24.9199 50.1411C24.9266 49.8799 25.0446 49.8057 25.2723 49.7226L24.9199 50.1411ZM24.9199 50.1411L29.6628 50.0661M29.6465 49.3804C29.5359 49.4894 29.4244 49.5991 29.3119 49.7099L29.6628 50.0661M29.6465 49.3804C29.7639 49.4845 29.8817 49.5893 29.9995 49.6965L29.6628 50.0661M29.6465 49.3804C29.9186 49.1126 30.1859 48.8496 30.4523 48.5876C30.6294 48.4133 30.806 48.2396 30.9833 48.0651M29.6628 50.0661C30.0517 49.683 30.428 49.3129 30.8023 48.9446C31.0928 48.6588 31.3822 48.3741 31.6755 48.0853M30.9833 48.0651C31.0911 48.1843 31.1983 48.3029 31.3045 48.4205L31.6755 48.0853M30.9833 48.0651C30.8408 47.9074 30.6971 47.7486 30.5532 47.5895C30.2927 47.3014 30.0312 47.0123 29.7733 46.7268L29.5134 46.4391L29.7272 46.1157C30.2922 45.2616 30.679 44.3765 30.8723 43.4186M30.9833 48.0651C31.0967 47.9534 31.2105 47.8415 31.3247 47.729L31.6755 48.0853M31.6755 48.0853L30.8723 43.4186M30.8723 43.4186C30.8723 43.4189 30.8722 43.4192 30.8722 43.4195L31.3624 43.5175M30.8723 43.4186L30.1443 46.3916C30.74 45.4909 31.1547 44.5465 31.3624 43.5175M30.8723 43.4186L31.3624 43.5175M30.8723 43.4186C30.9141 43.2108 31.0251 42.9981 31.2594 42.8791C31.4321 42.7914 31.6183 42.7903 31.6986 42.7899C31.7021 42.7898 31.7054 42.7898 31.7085 42.7898L31.7095 42.7898C32.2102 42.7866 32.7102 42.7758 33.2075 42.7528M31.3624 43.5175C31.4047 43.3061 31.5323 43.2913 31.7126 43.2898L33.4738 43.2401C33.5569 43.2356 33.7016 43.1132 33.7031 43.0427M33.2075 42.7528C33.2063 42.8465 33.2049 42.9401 33.2032 43.0337L33.4629 43.0384L33.463 43.0384L33.7031 43.0427M33.2075 42.7528C33.2153 42.1626 33.2146 41.5716 33.2139 40.9714C33.2139 40.946 33.2138 40.9205 33.2138 40.8951M33.2075 42.7528C33.2873 42.7491 33.367 42.7451 33.4467 42.7408C33.368 42.7451 33.3198 42.7705 33.3134 42.7739L33.313 42.7741C33.3005 42.7806 33.2955 42.785 33.2941 42.7862L33.294 42.7862C33.293 42.7871 33.2831 42.7954 33.2692 42.8153C33.2617 42.8259 33.2483 42.8465 33.2355 42.877C33.2234 42.9057 33.2047 42.9598 33.2032 43.0322L33.4628 43.0377L33.463 43.0377L33.7031 43.0427M33.7031 43.0427L33.2138 40.8951M33.2138 40.8951C33.1082 40.89 33.0012 40.8851 32.8934 40.8803C32.4827 40.8617 32.0586 40.8425 31.6428 40.8046L31.6415 40.8045C31.454 40.7869 31.2916 40.6939 31.1906 40.6183C31.133 40.5751 31.0731 40.5212 31.0205 40.457C30.9717 40.3974 30.9063 40.3013 30.876 40.1738M33.2138 40.8951L30.876 40.1738M30.876 40.1738C30.6513 39.2339 30.2792 38.3638 29.725 37.5259M30.876 40.1738L29.725 37.5259M23.4148 38.1018C21.3741 38.1104 19.7142 39.7696 19.7082 41.8105C19.7022 43.8575 21.3521 45.5205 23.3976 45.5265H23.3976C25.462 45.5325 27.13 43.8764 27.1352 41.8125M23.4148 38.1018L23.4169 38.6018L23.4148 38.1018C23.4148 38.1018 23.4148 38.1018 23.4148 38.1018ZM23.4148 38.1018C25.4337 38.0932 27.1403 39.7948 27.1352 41.8125M27.1352 41.8125L26.6352 41.8112L27.1352 41.8125Z" stroke="#0274BA"/>
<path d="M17.305 10.3204C17.1489 10.1883 17.0653 10.0086 17.0179 9.83408L17.0179 9.83404C16.7908 8.996 15.9815 8.47236 15.1367 8.58453L17.305 10.3204ZM17.305 10.3204C17.1413 10.465 17.0598 10.655 17.0097 10.8225C16.7539 11.6763 15.9202 12.1768 15.0751 12.0285C14.213 11.8769 13.6199 11.161 13.6315 10.276L17.305 10.3204ZM13.6315 10.2759C13.6431 9.41285 14.2772 8.69887 15.1367 8.58454L13.6315 10.2759Z" stroke="#0274BA"/>
<path d="M47.0109 42.3805L47.011 42.3809C47.25 43.154 48.0297 43.646 48.7899 43.5587C49.6422 43.4602 50.2723 42.8267 50.3622 42.0027C50.4592 41.1106 49.8598 40.2898 48.9938 40.1133L47.0109 42.3805ZM47.0109 42.3805C46.951 42.1875 46.8557 41.9851 46.6756 41.8353M47.0109 42.3805L46.6756 41.8353M46.6756 41.8353C46.8557 41.689 46.9466 41.4864 47 41.2951C47.2359 40.4511 48.1109 39.9336 48.9937 40.1133L46.6756 41.8353Z" stroke="#0274BA"/>
<path d="M19.9917 3.91111L19.9171 4.13198C19.9073 4.1611 19.8962 4.193 19.8846 4.22642C19.8582 4.3023 19.8291 4.38605 19.8057 4.46314L19.8057 4.46314L19.805 4.46529C19.5539 5.30405 18.7256 5.83528 17.9493 5.72233L17.9492 5.72232C17.0135 5.58635 16.3979 4.87814 16.395 3.99282L16.395 3.99276C16.3921 3.13382 17.041 2.38651 17.8686 2.27225L17.8686 2.27225C18.7633 2.14871 19.5543 2.65638 19.7919 3.51047L19.7921 3.51127C19.829 3.64282 19.8873 3.78731 19.9917 3.91111Z" stroke="#0274BA"/>
<path d="M44.0185 48.1256L44.0698 48.2591C44.3325 48.943 44.6458 49.3758 44.9746 49.6194C45.2885 49.8519 45.654 49.9407 46.1061 49.8659L46.1062 49.8659C46.9809 49.7213 47.588 49.0224 47.6064 48.1776C47.6247 47.3352 47.0513 46.6126 46.1791 46.4274L44.0185 48.1256ZM44.0185 48.1256L44.0529 48.0437C44.3589 47.3151 44.6931 46.8708 45.0321 46.6306C45.3513 46.4046 45.7161 46.3294 46.1789 46.4274L44.0185 48.1256Z" stroke="#0274BA"/>
<path d="M17.8148 18.3442L17.815 18.3443C18.6986 18.4932 19.5413 17.9839 19.7754 17.1743C19.8293 16.9868 19.9176 16.7804 20.0972 16.6283C19.9182 16.4792 19.8267 16.2756 19.7708 16.0845L19.7706 16.0839C19.542 15.2996 18.6983 14.7818 17.9512 14.8979L17.8148 18.3442ZM17.8148 18.3442C17.0242 18.2114 16.3961 17.469 16.3943 16.6329L17.8148 18.3442ZM20.8133 16.8401C20.815 16.8401 20.8167 16.8401 20.8183 16.8401L20.8163 16.4144M20.8133 16.8401L20.8159 16.3401L20.8163 16.4144M20.8133 16.8401L20.813 16.9143M20.8133 16.8401L20.813 16.9143M20.8163 16.4144C23.0154 16.423 25.2147 16.4222 27.4151 16.4215C28.0441 16.4212 28.6732 16.421 29.3023 16.421H29.3033H29.3043H29.3053H29.3063H29.3073H29.3083H29.3093H29.3103H29.3113H29.3123H29.3133H29.3143H29.3153H29.3163H29.3173H29.3183H29.3193H29.3203H29.3213H29.3223H29.3233H29.3243H29.3253H29.3263H29.3273H29.3283H29.3294H29.3304H29.3314H29.3324H29.3334H29.3344H29.3354H29.3364H29.3374H29.3384H29.3394H29.3404H29.3414H29.3424H29.3434H29.3444H29.3454H29.3464H29.3474H29.3484H29.3494H29.3504H29.3514H29.3524H29.3534H29.3544H29.3554H29.3564H29.3574H29.3584H29.3594H29.3604H29.3614H29.3624H29.3634H29.3644H29.3654H29.3664H29.3674H29.3684H29.3694H29.3704H29.3714H29.3724H29.3734H29.3744H29.3754H29.3764H29.3774H29.3784H29.3794H29.3805H29.3815H29.3825H29.3835H29.3845H29.3855H29.3865H29.3875H29.3885H29.3895H29.3905H29.3915H29.3925H29.3935H29.3945H29.3955H29.3965H29.3975H29.3985H29.3995H29.4005H29.4016H29.4026H29.4036H29.4046H29.4056H29.4066H29.4076H29.4086H29.4096H29.4106H29.4116H29.4126H29.4136H29.4146H29.4156H29.4165M20.8163 16.4144C20.8163 16.4144 20.8162 16.4144 20.8162 16.4144L20.8178 16.8401C23.086 16.8319 25.3541 16.8325 27.6237 16.8331C28.1832 16.8333 28.7427 16.8334 29.3023 16.8334C29.3162 16.8334 29.3301 16.8334 29.344 16.8334M29.4165 16.421L29.4161 16.6622C29.3924 16.6187 29.3838 16.5818 29.3807 16.5637C29.3797 16.5577 29.3792 16.5531 29.3789 16.5503L29.3787 16.547L29.3786 16.5468L29.3786 16.5497L29.3783 16.5609C29.3773 16.5824 29.3743 16.615 29.3678 16.6656C29.3618 16.7123 29.3539 16.7666 29.344 16.8334M29.4165 16.421L29.4166 16.3335M29.4165 16.421H29.4166M29.344 16.8334C29.3433 16.8382 29.3426 16.8429 29.3419 16.8477L29.8365 16.921M29.344 16.8334L29.8365 16.921M29.4166 16.3335V16.6631V16.421M29.4166 16.3335V16.421M29.4166 16.3335L29.8365 16.921M29.4166 16.421H29.4167H29.4177H29.4187H29.4197H29.4207H29.4217H29.4227H29.4237H29.4247H29.4257H29.4267H29.4277H29.4288H29.4298H29.4308H29.4318H29.4328H29.4338H29.4348H29.4358H29.4368H29.4378H29.4389H29.4399H29.4409H29.4419H29.4429H29.4439H29.4449H29.4459H29.4469H29.448H29.449H29.45H29.451H29.452H29.453H29.454H29.455H29.456H29.4571H29.4581H29.4591H29.4601H29.4611H29.4621H29.4631H29.4642H29.4652H29.4662H29.4672H29.4682H29.4692H29.4702H29.4713H29.4723H29.4733H29.4743H29.4753H29.4763H29.4774H29.4784H29.4794H29.4804H29.4814H29.4824H29.4835H29.4845H29.4855H29.4865H29.4875H29.4885H29.4896H29.4906H29.4916H29.4926H29.4936H29.4947H29.4957H29.4967H29.4977H29.4987H29.4998H29.5008H29.5018H29.5028H29.5038H29.5049H29.5059H29.5069H29.5079H29.5089H29.51H29.511H29.512H29.513H29.5141H29.5151H29.5161H29.5171H29.5182H29.5192H29.5202H29.5212H29.5223H29.5233H29.5243H29.5253H29.5264H29.5274H29.5284H29.5294H29.5305H29.5315H29.5325H29.5335H29.5346H29.5356H29.5366H29.5377H29.5387H29.5397H29.5407H29.5418H29.5428H29.5438H29.5449H29.5459H29.5469H29.5479H29.549H29.55H29.551H29.5521H29.5531H29.5541H29.5552H29.5562H29.5572H29.5583H29.5593H29.5603H29.5614H29.5624H29.5634H29.5645H29.5655H29.5665H29.5676H29.5686H29.5696H29.5707H29.5717H29.5727H29.5738H29.5748H29.5759H29.5769H29.5779H29.579H29.58H29.581H29.5821H29.5831H29.5842H29.5852H29.5862H29.5873H29.5883H29.5894H29.5904H29.5914H29.5925H29.5935H29.5946H29.5956H29.5966H29.5977H29.5987H29.5998H29.6008H29.6019H29.6029H29.6039H29.605H29.606H29.6071H29.6081H29.6092H29.6102H29.6113H29.6123H29.6134H29.6144H29.6155H29.6165H29.6175H29.6186H29.6196H29.6207H29.6217H29.6228H29.6238H29.6249H29.6259H29.627H29.628H29.6291H29.6301H29.6312H29.6323H29.6333H29.6344H29.6354H29.6365H29.6375H29.6386H29.6396H29.6407H29.6417H29.6428H29.6438H29.6449H29.646H29.647H29.6481H29.6491H29.6502H29.6512H29.6523H29.6534H29.6544H29.6555H29.6565H29.6576H29.6587H29.6597H29.6608H29.6618H29.6629H29.664H29.665H29.6661H29.6671H29.6682H29.6693H29.6703H29.6714H29.6725H29.6735H29.6746H29.6757H29.6767H29.6778H29.6789H29.6799H29.681H29.6821H29.6831H29.6842H29.6853H29.6863H29.6874H29.6885H29.6895H29.6906H29.6917H29.6928H29.6938H29.6949H29.696H29.697H29.6981H29.6992H29.7003H29.7013H29.7024H29.7035H29.7046H29.7056H29.7067H29.7078H29.7089H29.7099H29.711H29.7121H29.7132H29.7143H29.7153H29.7164H29.7175H29.7186H29.7197H29.7207H29.7218H29.7229H29.724H29.7251H29.7261H29.7272H29.7283H29.7294H29.7305H29.7316H29.7326H29.7337H29.7348H29.7359H29.737H29.7381H29.7392H29.7403H29.7413H29.7424H29.7435H29.7446H29.7457H29.7468H29.7479H29.749H29.7501H29.7512H29.7522H29.7533H29.7544H29.7555H29.7566H29.7577H29.7588H29.7599H29.761H29.7621H29.7632H29.7643H29.7654H29.7665H29.7676H29.7687H29.7698H29.7709H29.772H29.7731H29.7742H29.7753H29.7764H29.7775H29.7786H29.7797H29.7808H29.7819H29.783H29.7841H29.7852H29.7863H29.7874H29.7885H29.7896H29.7907H29.7918H29.7929H29.7941H29.7952H29.7963H29.7974H29.7985H29.7996H29.8007H29.8018H29.8029H29.804H29.8052H29.8063H29.8074H29.8085H29.8096H29.8107H29.8118H29.813H29.8141H29.8152H29.8163H29.8174H29.8185H29.8197H29.8208H29.8219H29.823H29.8241H29.8253H29.8264H29.8275H29.8286H29.8298H29.8309H29.832H29.8331H29.8343H29.8354H29.8365V16.921M20.813 16.9143L20.8133 16.8401M20.813 16.9143L20.8133 16.8401M20.8133 16.8401L20.8149 16.4143C20.8151 16.4144 20.8152 16.4144 20.8153 16.4144L20.8133 16.8401ZM16.3943 16.6329C16.3926 15.7639 17.0095 15.0443 17.9512 14.8979L16.3943 16.6329Z" stroke="#0274BA"/>
<path d="M44.2067 35.9898C44.1638 35.8359 44.0899 35.6457 43.9274 35.4985C44.0879 35.3528 44.1672 35.1615 44.2141 34.989C44.4399 34.1604 45.2568 33.6479 46.1847 33.7922C46.9793 33.9161 47.6079 34.6553 47.6044 35.5254L47.6044 35.5257C47.6015 36.36 46.9631 37.0924 46.1351 37.2098C45.2375 37.3368 44.4381 36.8239 44.2068 35.9903L44.2067 35.9898Z" stroke="#0274BA"/>
</svg>
