<svg width="64" height="55" viewBox="0 0 64 55" fill="none" xmlns="http://www.w3.org/2000/svg">
<path d="M4.25964 30.5326C4.77109 30.5326 5.30018 30.5326 6.03209 30.5326C6.03209 29.3951 6.03209 28.3016 6.03209 27.0729C6.9051 26.9407 7.60173 26.8319 8.46298 26.6996C8.36304 23.7691 8.4424 20.815 9.25368 17.8344C8.91271 17.8168 8.68343 17.808 8.33365 17.7903C8.26898 18.9337 8.21019 20.0243 8.13965 21.2676C7.06089 21.3147 6.10264 21.3587 5.05033 21.4058C4.80049 21.6674 4.52712 22.0084 4.19791 22.2847C3.31021 23.0283 2.23733 22.9519 1.43781 22.1201C0.647114 21.3 0.626538 20.1859 1.38196 19.3423C2.13739 18.5016 3.24848 18.3811 4.14794 19.0807C4.4507 19.3159 4.68585 19.6421 4.98567 19.9655C5.56473 19.9655 6.17906 19.9655 6.92861 19.9655C6.92861 18.8279 6.92861 17.7697 6.92861 16.5675C7.49298 16.4646 7.94564 16.3618 8.40419 16.3059C8.83334 16.253 9.26544 16.253 9.72986 16.2295C11.811 10.6064 15.3235 6.22084 20.4822 3.23441C24.1476 1.1151 28.0835 -0.0547837 32.4073 0.0569135C32.4867 0.26855 32.5837 0.436096 32.6043 0.61246C32.6248 0.794703 32.569 0.982825 32.5396 1.23267C29.8883 1.64713 28.351 3.43428 27.1076 5.56241C25.5879 8.16084 24.709 10.9915 24.0418 14.069C29.7237 15.0743 35.2879 15.0185 40.9786 14.1131C40.9081 13.6957 40.8669 13.3312 40.7846 12.9756C40.1497 10.2478 39.2532 7.61999 37.7776 5.2185C36.6459 3.3755 35.2527 1.84701 33.007 1.31498C33.007 0.912279 33.007 0.547794 33.007 0.0480957C38.4889 0.0510351 43.2449 1.96458 47.6628 5.27141C48.0802 4.75408 48.4418 4.30435 48.8445 3.80465C48.6269 2.14389 49.3912 0.982825 50.8021 0.962249C51.9926 0.944613 52.9772 1.95283 52.9038 3.11683C52.8156 4.50129 51.6575 5.21556 49.8203 4.97747C49.4882 5.33608 49.1355 5.72408 48.7798 6.10914C48.9238 6.31196 48.9914 6.44423 49.0943 6.54123C49.6998 7.10853 50.3112 7.66702 51.0549 8.34896C51.5869 7.83751 52.2012 7.24963 52.7803 6.69408C52.7803 6.25611 52.7656 5.91514 52.7833 5.57711C52.8509 4.32492 53.6474 3.56362 54.8467 3.59007C55.9578 3.61359 56.7926 4.43368 56.8279 5.53302C56.8631 6.65293 55.999 7.61117 54.8555 7.67584C54.5263 7.69347 54.1912 7.59648 53.962 7.56708C53.2242 8.29899 52.5716 8.9486 51.8809 9.63642C52.4776 10.5535 53.0831 11.4824 53.668 12.3818C54.394 11.6264 55.0907 10.9004 55.7873 10.1743C55.8726 10.2361 55.9607 10.2978 56.046 10.3624C56.046 9.92742 56.0078 9.48651 56.0548 9.05442C56.1606 8.07266 57.0983 7.23493 58.0448 7.22905C59.1324 7.22317 60.12 8.19317 60.1464 9.28957C60.17 10.2449 59.3616 11.2002 58.3799 11.3295C57.9948 11.3795 57.6009 11.3383 56.9748 11.3383C56.2253 12.1467 55.3699 13.0696 54.6057 13.8956C55.1671 15.9267 55.7256 17.8932 56.2429 19.8685C56.3781 20.3829 56.3987 20.9296 56.4604 21.4616C56.5927 22.6168 56.6985 23.7279 57.4834 24.742C57.9507 25.3446 58.036 26.2793 58.1741 27.0876C58.2799 27.699 58.1947 28.3428 58.1947 29.0276C60.1582 29.4568 62.1805 28.7807 64 29.4656C63.9089 30.3563 63.5091 30.4709 63.03 30.4709C61.9512 30.4738 60.8754 30.4738 59.7967 30.4768C59.3175 30.4768 58.8384 30.4768 58.2799 30.4768C58.2799 31.9171 58.2799 33.2192 58.2799 34.7183C59.2499 34.7389 60.2611 34.6889 61.2517 34.8006C62.1776 34.9064 63.3298 34.2686 63.9971 35.4297C63.7502 36.2468 63.1241 36.2174 62.5391 36.2233C61.1723 36.235 59.8025 36.2262 58.3152 36.2262C58.3152 37.6107 58.3152 38.9011 58.3152 40.262C60.1171 40.9116 62.2334 39.7976 63.9941 40.9469C63.8413 41.9316 63.224 41.8905 62.6332 41.8905C61.2193 41.8934 59.8084 41.8905 58.1947 41.8905C58.1947 42.5195 58.2006 43.0368 58.1947 43.5571C58.1624 46.4818 56.4663 48.3219 53.5475 48.5658C52.9214 48.6187 52.2894 48.5746 51.4635 48.5746C51.4635 50.4941 51.4635 52.2754 51.4635 54.1536C50.9667 54.1536 50.6669 54.1536 50.2083 54.1536C50.1907 53.2101 50.1642 52.343 50.1554 51.4758C50.1466 50.5999 50.1525 49.724 50.1525 48.7804C48.7328 48.4159 47.3895 48.6599 45.8933 48.5982C45.8757 49.5711 45.8551 50.4353 45.8433 51.2995C45.8345 51.9844 45.8551 52.6722 45.8286 53.3571C45.8051 53.9978 45.5318 54.3829 44.6205 54.1448C44.5294 52.4106 44.4383 50.6293 44.3384 48.6981C43.0039 48.4953 41.7135 48.6129 40.3731 48.6246C39.894 50.5058 40.5553 52.4017 39.9469 54.1683C39.0357 54.4152 38.7682 53.9714 38.7506 53.2865C38.7241 52.2577 38.7447 51.2289 38.7329 50.2001C38.727 49.721 38.6888 49.2419 38.6624 48.6952C36.7047 48.4982 34.8294 48.1367 32.9541 48.1543C28.6919 48.1984 24.7179 47.246 20.9878 45.2179C20.735 45.0797 20.4704 44.9592 20.2294 44.8387C19.0125 46.1173 17.8367 47.3519 16.5405 48.7099C16.5875 50.3883 15.8938 51.4435 14.5711 51.4494C13.4276 51.4553 12.5223 50.5558 12.5135 49.4065C12.5017 47.9691 13.3012 47.4224 15.4529 47.343C16.6081 46.1996 17.7103 45.1062 18.8596 43.9686C18.0631 43.3366 17.2665 42.7047 16.4964 42.0933C15.2559 43.3719 14.042 44.6182 12.8309 45.8645C12.7604 45.8175 12.6898 45.7705 12.6193 45.7234C12.6193 46.1585 12.6693 46.6023 12.6105 47.0285C12.4635 48.1073 11.47 48.9362 10.4735 48.8598C9.4271 48.7804 8.50707 47.8457 8.48062 46.8375C8.45416 45.7793 9.38595 44.821 10.5235 44.7446C10.8615 44.7211 11.2025 44.7417 11.5435 44.7417C12.7574 43.5101 13.9567 42.2961 15.2471 40.9851C14.5711 40.1621 13.8715 39.3097 13.119 38.3926C11.9021 39.7359 10.7351 41.0233 9.3595 42.5371C9.43886 44.0597 8.72165 45.1356 7.30486 45.1385C6.17025 45.1414 5.13264 44.0392 5.22376 42.9281C5.33546 41.5818 6.53179 40.8558 8.07792 41.1262C9.41828 39.78 10.7263 38.469 12.1725 37.0169C10.5735 34.4332 9.39183 31.4644 8.77749 28.2516C8.30719 28.2516 7.93683 28.2516 7.37246 28.2516C7.37246 29.4039 7.37246 30.5032 7.37246 31.7701C6.19376 31.8465 5.19143 31.9112 4.18909 31.9759C2.69588 33.4985 1.59654 33.6983 0.582447 32.6372C-0.217069 31.7995 -0.190615 30.5649 0.644175 29.7449C1.65827 28.7631 2.8546 29.0159 4.25964 30.5326ZM33.4949 35.4414C33.4949 38.1339 33.6007 40.8323 33.4626 43.5189C33.3509 45.6676 35.0587 47.2402 37.081 47.1784C41.0433 47.055 45.0115 47.1461 48.9797 47.1461C50.5464 47.1461 52.1131 47.1755 53.6798 47.1314C55.2729 47.0873 56.334 46.1996 56.6956 44.6417C56.8161 44.1244 56.8661 43.5777 56.8661 43.0456C56.8778 38.0016 56.8808 32.9576 56.872 27.9136C56.8661 25.033 55.6403 23.8073 52.7656 23.7632C52.6186 23.7602 52.4717 23.7632 52.3247 23.7632C47.7716 23.7632 43.2155 23.7602 38.6624 23.7632C38.0275 23.7632 37.3867 23.7485 36.7547 23.8102C34.5795 24.0218 33.5126 25.1829 33.4979 27.3581C33.4832 30.0535 33.4949 32.746 33.4949 35.4414ZM23.8008 15.6651C23.2217 18.0637 23.1747 20.6268 23.1129 23.287C23.6479 23.3105 24.1241 23.3487 24.6003 23.3487C27.2399 23.3546 29.8794 23.3399 32.522 23.3575C33.3626 23.3634 34.1328 23.2429 34.9205 22.8725C35.5584 22.5727 36.3285 22.5345 37.0486 22.4493C37.563 22.3875 38.0892 22.4375 38.7447 22.4375C38.7447 21.7791 38.7447 21.3 38.7447 20.8208C38.7447 19.842 38.7447 18.8661 38.7476 17.8873C38.7476 17.3288 38.7799 16.7909 39.7646 16.6175C40.7111 18.4046 39.8323 20.474 40.3466 22.3052C40.914 22.3052 41.4107 22.3052 42.0456 22.3052C41.8928 20.5151 41.7693 18.8632 41.5988 17.2171C41.54 16.6469 41.3637 16.0884 41.2755 15.671C38.2979 15.8209 35.429 16.0796 32.5572 16.0796C29.6913 16.0766 26.8254 15.818 23.8008 15.6651ZM13.3306 11.9292C11.1613 15.4564 9.93562 19.1718 9.90329 23.2694C13.1895 23.5074 20.4851 23.4104 21.5698 23.1253C21.8196 20.5122 22.0695 17.902 22.3281 15.233C19.2829 14.4423 16.2641 13.6222 13.3306 11.9292ZM9.86801 24.8948C10.012 29.0541 11.1408 32.7695 13.3512 36.2204C16.176 34.5567 19.2476 33.7718 22.3076 32.9047C22.0548 30.1799 21.8137 27.5756 21.5639 24.8948C17.6721 24.8948 13.8362 24.8948 9.86801 24.8948ZM55.1789 22.5757C55.029 18.7309 53.7915 15.2595 51.7662 11.935C48.9121 13.5958 45.8139 14.4512 42.7393 15.236C42.9921 17.6992 43.2361 20.0478 43.483 22.4287C43.871 22.3875 44.0562 22.367 44.3883 22.3317C44.4207 21.4881 44.4589 20.6709 44.4824 19.8567C44.5059 19.0778 44.4677 18.293 44.5441 17.517C44.5764 17.1966 44.8322 16.8997 45.0203 16.5264C46.3107 17.3083 45.7522 18.3929 45.8286 19.2806C45.9168 20.2859 45.8492 21.3029 45.8492 22.3346C47.3718 22.3346 48.7092 22.3346 50.1554 22.3346C50.1554 21.7526 50.1554 21.2706 50.1554 20.7885C50.1554 19.7597 50.1554 18.7339 50.1584 17.7051C50.1584 17.1819 50.2348 16.7116 51.0931 16.6645C52.0249 18.4576 51.0343 20.5298 51.6428 22.367C52.8185 22.4346 53.9267 22.5022 55.1789 22.5757ZM27.913 1.97634C22.1723 3.09037 17.6251 6.05035 14.0919 10.7975C16.852 12.3436 19.6739 13.2666 22.6779 13.8074C23.7185 9.47181 24.9971 5.39486 27.913 1.97634ZM22.6573 34.348C19.6356 34.9623 16.7962 35.8088 14.1742 37.3432C17.046 41.9639 24.1123 46.1379 28.0482 46.1173C24.9824 42.7782 23.7185 38.6424 22.6573 34.348ZM50.9873 10.7916C47.3836 6.02683 42.9039 3.0551 37.1868 1.97928C40.1321 5.42132 41.3843 9.57763 42.4454 13.8427C45.4024 13.2107 48.189 12.3818 50.9873 10.7916ZM23.0806 24.8684C23.2423 27.5432 23.1512 30.127 23.8625 32.5814C26.6285 32.355 29.2827 32.1375 32.034 31.9141C32.0017 31.4144 31.9723 31.0029 31.9312 30.4062C30.0499 30.4062 28.2687 30.4062 26.3669 30.4062C26.4433 29.8977 26.4903 29.5949 26.555 29.1658C28.3774 29.1658 30.1205 29.1658 31.8959 29.1658C32.0693 27.6608 32.228 26.294 32.3926 24.8684C29.3268 24.8684 26.3022 24.8684 23.0806 24.8684ZM26.4462 36.0117C26.2728 35.0358 26.6931 34.8094 27.3192 34.7947C28.0012 34.78 28.6861 34.7918 29.3709 34.783C30.2292 34.7742 31.0905 34.7595 31.9723 34.7448C31.9723 34.2715 31.9841 33.9835 31.9635 33.6983C31.9576 33.6219 31.8518 33.5543 31.7313 33.4103C29.2122 33.3045 26.6814 33.6513 24.0565 34.0805C24.5621 36.5114 25.1911 38.7335 26.1817 40.7441C28.1217 40.0974 30.0676 40.7441 31.9517 40.2826C32.0752 38.9275 32.1251 37.643 31.937 36.3556C30.0441 36.0058 28.2157 36.5231 26.4462 36.0117ZM31.9782 41.9728C30.1587 41.9728 28.5303 41.9728 26.8724 41.9728C28.3127 45.1885 30.5114 46.8992 32.9835 46.714C31.9694 45.306 32.0869 43.6659 31.9782 41.9728Z" fill="#0274BA"/>
<path d="M36.6457 35.4003C36.6457 33.7865 36.634 32.1699 36.6486 30.5561C36.6692 28.2164 37.8126 27.0788 40.1818 27.0582C43.5092 27.0289 46.8366 27.0083 50.1611 27.0083C52.2333 27.0083 53.4297 28.1106 53.6648 30.177C53.7031 30.515 53.6972 30.8618 53.6972 31.2028C53.7001 33.9923 53.7089 36.7818 53.6913 39.5713C53.6884 40.2032 53.6472 40.847 53.5296 41.4672C53.2533 42.9339 52.1657 43.9451 50.6931 43.9627C47.0247 44.0098 43.3534 44.0127 39.685 43.9657C37.939 43.9422 36.6986 42.6194 36.6575 40.8293C36.6134 39.0216 36.6457 37.2109 36.6457 35.4003ZM45.2317 28.3869C43.521 28.3869 41.8073 28.3692 40.0966 28.3927C38.6798 28.4104 37.9949 29.0247 37.9773 30.4297C37.9361 33.8042 37.939 37.1786 37.9743 40.5501C37.989 41.9287 38.6974 42.6429 40.0642 42.6576C43.4387 42.6929 46.8131 42.6929 50.1846 42.6606C51.6102 42.6488 52.2304 42.0022 52.2422 40.5765C52.2657 37.2021 52.2627 33.8277 52.2422 30.4562C52.2333 28.9306 51.6543 28.3986 50.0699 28.3869C48.4592 28.378 46.8454 28.3869 45.2317 28.3869Z" fill="#0274BA"/>
<path d="M43.3096 31.6731C43.8681 31.6731 44.3384 31.6731 44.9939 31.6731C45.9669 34.0893 46.9574 36.5496 48.0362 39.2274C47.3542 39.2626 46.8575 39.2862 46.3372 39.3126C46.055 38.7659 45.814 38.2985 45.5406 37.7694C44.6353 37.7694 43.727 37.7694 42.7629 37.7694C42.5131 38.2456 42.2691 38.71 41.9957 39.2303C41.5313 39.2303 41.0669 39.2303 40.4084 39.2303C41.2609 36.5819 42.2867 34.154 43.3096 31.6731ZM44.1297 33.7513C43.7535 34.7683 43.5125 35.4208 43.2567 36.1087C43.8711 36.1087 44.3619 36.1087 44.9969 36.1087C44.7088 35.3327 44.4825 34.7095 44.1297 33.7513Z" fill="#0274BA"/>
<path d="M48.771 31.6849C49.2442 31.6613 49.6528 31.6408 50.0349 31.6231C50.3583 32.743 50.4318 37.0816 50.179 39.1891C49.7528 39.1891 49.3089 39.1891 48.771 39.1891C48.771 36.6995 48.771 34.251 48.771 31.6849Z" fill="#0274BA"/>
</svg>
