<svg width="70" height="70" viewBox="0 0 70 70" fill="none" xmlns="http://www.w3.org/2000/svg">
<path d="M61.8288 63.4829C54.9386 56.5912 48.0592 49.7115 41.1426 42.7934C39.5252 44.4866 37.5016 45.5561 35.0298 45.8709C35.0202 46.0788 35.0022 46.2915 35.0022 46.5042C35.001 51.2713 35.007 56.0372 34.9902 60.8031C34.989 61.2501 35.108 61.4496 35.5453 61.6166C37.4668 62.3545 38.6011 64.437 38.2118 66.4017C37.7756 68.6032 36.0212 70.0176 33.7645 69.9852C31.7542 69.9575 29.9661 68.4098 29.6201 66.3969C29.2668 64.3481 30.3987 62.3424 32.3538 61.5794C32.6482 61.4652 32.8597 61.3931 32.8585 60.9833C32.8405 56.0564 32.8465 51.1295 32.8453 46.2038C32.8453 46.1077 32.826 46.0115 32.8116 45.8781C30.9359 45.6318 29.1718 45.0381 27.814 43.7475C26.9752 42.9496 26.4057 43.1179 25.5309 43.5781C20.7928 46.0704 16.0235 48.5038 11.2554 50.9408C10.8781 51.1331 10.7699 51.2953 10.8384 51.7496C11.1052 53.5365 10.5596 55.0494 9.03715 56.0913C7.59398 57.0791 6.03064 57.1728 4.49615 56.34C2.93762 55.4952 2.15175 54.1121 2.22264 52.342C2.29114 50.6272 3.12988 49.3186 4.69802 48.5891C6.27578 47.8549 7.81388 48.0364 9.22821 49.0638C9.46854 49.2392 9.62836 49.369 9.95761 49.1984C15.0502 46.5607 20.1523 43.9422 25.2509 41.3165C25.3206 41.2805 25.3795 41.2252 25.4492 41.1747C23.2778 36.9784 23.6936 33.0585 26.6989 29.3549C26.6256 29.2684 26.5354 29.1434 26.4285 29.0365C20.3422 22.9475 14.2511 16.8586 8.16836 10.7636C7.91482 10.5089 7.72856 10.45 7.35125 10.5725C5.21954 11.2623 3.25606 10.9306 1.64225 9.32399C0.0524813 7.74137 -0.382513 5.79464 0.334867 3.68688C1.04744 1.59234 2.59756 0.336573 4.78574 0.0673952C7.07127 -0.2138 8.94582 0.667037 10.1294 2.65703C11.3203 4.65904 11.1965 6.69951 9.89512 8.64985C9.79538 8.79886 9.68363 8.93945 9.60192 9.05001C15.8877 15.3348 22.1567 21.6028 28.3403 27.7855C29.8195 27.24 31.2843 26.698 32.82 26.132C32.82 20.4144 32.82 14.5513 32.82 8.63783C32.6842 8.58015 32.5268 8.50685 32.3658 8.44436C30.2161 7.60077 29.0997 5.33079 29.7438 3.10887C30.3422 1.04437 32.5677 -0.33517 34.6477 0.0710003C36.9705 0.524037 38.5266 2.54528 38.2466 4.85492C38.0376 6.58174 37.0822 7.80146 35.4492 8.44556C35.1656 8.55732 34.9914 8.64985 34.9926 9.01756C35.007 14.6847 35.0034 20.3531 35.0046 26.0202C35.0046 26.0984 35.019 26.1777 35.0334 26.3183C36.896 26.5742 38.5975 27.2544 40.132 28.4741C44.5516 24.7092 48.9629 20.9503 53.3933 17.177C52.5293 15.7013 52.2926 14.1632 52.8057 12.5481C53.6312 9.94647 56.359 8.32299 58.9809 8.85534C61.8036 9.42854 63.6553 11.8704 63.4054 14.6871C63.0509 18.6707 58.8127 20.9047 55.2979 18.9543C55.0564 18.8209 54.887 18.7284 54.6178 18.9591C50.3604 22.6026 46.0921 26.2329 41.8263 29.8668C41.7819 29.9053 41.7482 29.9558 41.6893 30.0243C44.1347 33.4851 44.4062 37.1226 42.5497 40.8779C49.53 47.8585 56.5056 54.8343 63.4943 61.8233C66.1487 60.5483 68.3321 61.7825 69.2886 63.2425C70.4206 64.9705 70.1814 67.315 68.7154 68.7535C67.253 70.1883 64.9531 70.4094 63.248 69.287C61.7507 68.298 60.5635 66.1001 61.8288 63.4829ZM33.8727 43.7752C38.1445 43.78 41.5992 40.3552 41.6088 36.1072C41.6184 31.9145 38.1289 28.4128 33.9412 28.4128C29.7474 28.4128 26.2555 31.8592 26.247 36.0063C26.2386 40.2999 29.6465 43.7704 33.8727 43.7752ZM2.17818 5.49301C2.18419 7.27512 3.69465 8.78203 5.47308 8.77843C7.27194 8.77602 8.79922 7.23546 8.78601 5.43774C8.77399 3.65563 7.27194 2.17275 5.47669 2.17155C3.64058 2.16915 2.17218 3.64842 2.17818 5.49301ZM57.9127 17.5195C59.7091 17.5736 61.2665 16.0847 61.3121 14.2689C61.3566 12.5001 59.8209 10.9294 58.0172 10.8994C56.2797 10.8694 54.7464 12.3534 54.7031 14.1055C54.6574 15.9573 56.073 17.463 57.9127 17.5195ZM6.56177 54.7117C7.77302 54.7129 8.79081 53.7023 8.78721 52.5042C8.7836 51.3302 7.72015 50.2823 6.54254 50.2931C5.36494 50.3039 4.37959 51.3037 4.37599 52.4934C4.37238 53.7384 5.33009 54.7105 6.56177 54.7117ZM36.1209 4.33699C36.1065 3.12088 35.0959 2.14872 33.8703 2.17395C32.6794 2.19799 31.7037 3.19058 31.7085 4.37424C31.7121 5.58554 32.7215 6.57814 33.9388 6.56973C35.1584 6.56131 36.1354 5.56151 36.1209 4.33699ZM36.1185 65.6207C36.1089 64.4021 35.1007 63.4216 33.8799 63.4432C32.6963 63.4648 31.7037 64.4634 31.7013 65.6375C31.6977 66.8368 32.7215 67.8498 33.9291 67.8426C35.1596 67.8366 36.1281 66.8524 36.1185 65.6207ZM65.644 63.442C64.4244 63.4468 63.433 64.4514 63.4498 65.6651C63.4667 66.8908 64.464 67.8606 65.6885 67.8426C66.8853 67.8245 67.8455 66.8512 67.8491 65.6531C67.8527 64.4298 66.8637 63.4384 65.644 63.442Z" fill="#2776EA"/>
</svg>
