<svg width="51" height="54" viewBox="0 0 51 54" fill="none" xmlns="http://www.w3.org/2000/svg">
<path d="M25.0834 53.9743C18.4257 53.9743 11.7691 53.9743 5.11132 53.9743C3.06848 53.9743 1.93704 52.8324 1.93588 50.7745C1.93588 41.9176 1.93356 33.0607 1.94283 24.2037C1.94283 23.7984 1.85829 23.4903 1.55951 23.1811C0.213827 21.788 -0.0942204 20.052 0.0227449 18.2003C0.0343257 18.015 0.128129 17.8308 0.203404 17.6548C1.97757 13.5089 3.761 9.36765 5.52012 5.2148C5.69383 4.80368 5.77257 4.33003 5.79342 3.8807C5.83511 2.97625 5.79805 2.06716 5.80963 1.16039C5.82006 0.310364 6.1281 0 6.9596 0C19.0395 0 31.1193 0.0023165 43.198 0.00579072C44.048 0.00579072 44.3329 0.297625 44.3561 1.1546C44.3572 1.2125 44.3642 1.27156 44.3572 1.32831C44.0932 3.60508 44.7139 5.66992 45.6716 7.72434C47.1042 10.7967 48.3595 13.9513 49.7122 17.0619C50.5715 19.0387 50.18 20.8546 49.0903 22.6009C49.0799 22.6172 49.0694 22.6345 49.0544 22.6461C48.2206 23.3085 48.209 24.2095 48.2125 25.1811C48.2379 33.6906 48.202 42.2013 48.2484 50.7108C48.2576 52.4757 47.1169 54.0218 44.9409 53.9998C38.3214 53.9314 31.7018 53.9743 25.0834 53.9743ZM20.2485 22.4863C19.0198 24.1111 17.4541 25.0144 15.4378 25.0202C13.402 25.0259 11.827 24.1041 10.6052 22.4817C8.84842 24.7723 6.5867 25.466 3.83165 24.748C3.83165 24.9854 3.83165 25.1371 3.83165 25.2888C3.83165 33.7775 3.83049 42.2662 3.8328 50.7548C3.8328 51.8052 4.15243 52.1086 5.23407 52.1098C18.45 52.111 31.6659 52.1098 44.883 52.1098C46.055 52.1098 46.3329 51.8272 46.3329 50.6286C46.3341 42.2164 46.3329 33.8041 46.3329 25.3919C46.3329 25.1904 46.3329 24.9889 46.3329 24.7098C45.0034 25.1174 43.7689 25.136 42.5414 24.7318C41.2999 24.3218 40.3329 23.532 39.5593 22.4643C38.3144 24.1319 36.7383 25.0167 34.7232 25.0202C32.6897 25.0236 31.1158 24.0972 29.9114 22.4875C27.4332 25.8667 22.7233 25.8609 20.2485 22.4863ZM11.7864 17.3074C11.9382 17.3398 11.9937 17.3618 12.0482 17.3618C14.3435 17.3641 16.6376 17.3537 18.9318 17.3746C19.3961 17.3792 19.3985 17.1325 19.4216 16.7978C19.5953 14.2976 19.7829 11.7996 19.9624 9.30048C20.0458 8.13546 20.1176 6.96928 20.1987 5.73593C18.2751 5.73593 16.4095 5.72667 14.545 5.75678C14.4176 5.75909 14.2196 6.03587 14.1802 6.21306C13.7042 8.33581 13.2514 10.4643 12.794 12.5917C12.4593 14.1493 12.1281 15.7093 11.7864 17.3074ZM21.2699 17.334C23.8373 17.334 26.3307 17.334 28.8912 17.334C28.6144 13.4591 28.3411 9.62822 28.0666 5.79268C26.04 5.79268 24.0713 5.79268 22.0933 5.79268C21.8188 9.65022 21.5467 13.4533 21.2699 17.334ZM29.9971 5.73825C29.9798 5.88069 29.9636 5.9386 29.967 5.99418C30.2276 9.64906 30.4951 13.3028 30.7441 16.9577C30.7707 17.3514 30.9711 17.3711 31.271 17.3699C33.4899 17.3641 35.7076 17.3676 37.9265 17.3653C38.055 17.3653 38.1847 17.3375 38.3422 17.3201C38.3156 17.1198 38.3051 16.9484 38.2704 16.7828C37.5744 13.524 36.8761 10.264 36.1755 7.00634C35.9033 5.74172 35.8998 5.74057 34.5982 5.73941C33.0765 5.73709 31.5559 5.73825 29.9971 5.73825ZM37.8581 5.73825C37.8963 5.98724 37.9114 6.1401 37.9427 6.28949C38.7001 9.81003 39.4667 13.3283 40.2055 16.8523C40.2912 17.2622 40.4453 17.3792 40.8494 17.3757C42.912 17.3572 44.9756 17.3665 47.0393 17.3665C47.2432 17.3665 47.4481 17.3665 47.6867 17.3665C47.6693 17.2194 47.6763 17.1406 47.6485 17.0758C46.0735 13.3931 44.4985 9.71044 42.9096 6.0324C42.8552 5.90501 42.6699 5.7533 42.5448 5.75099C41.0069 5.7313 39.469 5.73825 37.8581 5.73825ZM12.3238 5.73478C10.787 5.73478 9.34407 5.75099 7.90227 5.72435C7.48421 5.71625 7.29776 5.86795 7.14026 6.2397C5.66024 9.7336 4.16054 13.2182 2.66894 16.7075C2.58903 16.894 2.5265 17.0885 2.45817 17.2715C2.54734 17.319 2.57861 17.3514 2.61104 17.3514C4.90518 17.3583 7.20048 17.3699 9.49462 17.3456C9.64401 17.3445 9.88142 17.0758 9.92311 16.8963C10.435 14.6427 10.9214 12.3844 11.4066 10.125C11.71 8.69597 12.003 7.26459 12.3238 5.73478ZM7.72972 3.80543C19.3243 3.80543 30.8703 3.80543 42.4348 3.80543C42.4348 3.15459 42.4348 2.54776 42.4348 1.89924C30.8564 1.89924 19.3116 1.89924 7.72972 1.89924C7.72972 2.53965 7.72972 3.14764 7.72972 3.80543ZM30.8553 19.2796C30.9166 20.7596 31.5362 21.8737 32.7719 22.5963C34.1882 23.4255 35.6219 23.356 36.9606 22.4203C38.0261 21.6768 38.5819 20.6276 38.59 19.2784C35.9878 19.2796 33.4528 19.2796 30.8553 19.2796ZM40.5507 19.2819C40.407 21.2981 42.2959 23.1753 44.4094 23.158C46.5147 23.1406 48.3885 21.2483 48.2055 19.2819C45.6554 19.2819 43.1019 19.2819 40.5507 19.2819ZM1.91272 19.2784C1.95325 20.7399 2.56703 21.8412 3.77027 22.5685C5.17269 23.4151 6.61102 23.3699 7.96597 22.4562C9.06613 21.7139 9.61853 20.6438 9.6498 19.2796C7.03951 19.2784 4.50217 19.2784 1.91272 19.2784ZM11.5514 19.2807C11.6243 20.7828 12.2578 21.9119 13.5236 22.6264C14.9503 23.4324 16.3805 23.3386 17.7088 22.3855C18.7499 21.6386 19.2699 20.5975 19.2977 19.2807C16.6781 19.2807 14.1431 19.2807 11.5514 19.2807ZM28.9398 19.2784C26.3492 19.2784 23.8142 19.2784 21.212 19.2784C21.2491 20.7295 21.864 21.8135 23.0313 22.5442C24.377 23.3861 25.7864 23.385 27.1321 22.543C28.3017 21.8123 28.9155 20.7272 28.9398 19.2784Z" fill="#2776EA"/>
<path d="M38.5798 38.5661C38.5798 40.3796 38.5717 42.192 38.5844 44.0055C38.5891 44.6205 38.3517 45.0165 37.7622 45.2458C33.7043 46.822 29.6557 48.4213 25.592 49.9835C25.2851 50.1016 24.8509 50.0924 24.5417 49.9731C20.478 48.412 16.427 46.8185 12.3692 45.2412C11.8318 45.0327 11.5828 44.6691 11.584 44.0959C11.5886 40.4109 11.5886 36.7259 11.584 33.0409C11.5828 32.4688 11.833 32.1063 12.3703 31.8979C16.4282 30.3206 20.4791 28.7248 24.544 27.166C24.8671 27.0421 25.3222 27.0502 25.6465 27.1753C29.6928 28.7271 33.7252 30.3171 37.7657 31.884C38.3563 32.1133 38.5868 32.5105 38.5821 33.1266C38.5682 34.9401 38.5775 36.7537 38.5775 38.5672C38.5787 38.5661 38.5787 38.5661 38.5798 38.5661ZM36.6817 38.5522C36.6817 37.0281 36.6748 35.5041 36.6875 33.9801C36.6898 33.6582 36.6273 33.4624 36.2857 33.3304C32.6563 31.928 29.0361 30.5036 25.4079 29.1011C25.2168 29.027 24.947 29.0282 24.7559 29.1023C21.1277 30.5059 17.5064 31.928 13.8793 33.3339C13.5782 33.4509 13.4751 33.6026 13.4763 33.9245C13.4879 37.0108 13.489 40.097 13.4751 43.1833C13.474 43.5284 13.5909 43.6882 13.9082 43.8121C17.518 45.2111 21.1196 46.6286 24.7304 48.0229C24.9377 48.1028 25.2284 48.1016 25.4357 48.0217C29.0477 46.6286 32.6505 45.2122 36.2602 43.8156C36.5845 43.6905 36.691 43.5203 36.6875 43.1821C36.6713 41.6396 36.6806 40.0959 36.6817 38.5522Z" fill="#2776EA"/>
<path d="M18.3582 38.0912C18.3582 37.3234 18.3512 36.5544 18.3605 35.7866C18.3686 35.1393 18.7102 34.756 19.2661 34.7421C19.8486 34.7282 20.218 35.1196 20.2204 35.7948C20.2285 37.6454 20.2192 39.496 20.2273 41.3466C20.2296 41.8526 20.0316 42.2221 19.5406 42.3541C19.0577 42.4838 18.6859 42.2776 18.4126 41.8584C17.8857 41.0512 17.3472 40.2533 16.811 39.4531C16.7091 39.3002 16.5944 39.1555 16.3756 38.8567C16.3756 39.6535 16.3756 40.2777 16.3756 40.9019C16.3756 41.0941 16.3871 41.2887 16.3698 41.4797C16.3188 42.031 15.9505 42.3853 15.4375 42.3911C14.9175 42.3969 14.5053 42.0611 14.4983 41.4994C14.4717 39.5527 14.4775 37.606 14.4902 35.6593C14.4937 35.2134 14.7415 34.8845 15.1851 34.771C15.6217 34.6598 15.9888 34.8116 16.2424 35.1845C16.7936 35.9974 17.3333 36.8196 17.8787 37.6361C17.9922 37.8063 18.115 37.9719 18.2331 38.1387C18.2736 38.1225 18.3165 38.1074 18.3582 38.0912Z" fill="#2776EA"/>
<path d="M24.1241 36.6026C24.1241 37.2939 24.1241 37.9042 24.1241 38.5863C24.724 38.5863 25.2961 38.5806 25.867 38.5875C26.5491 38.5956 26.9637 38.9396 26.9857 39.4989C27.0077 40.0814 26.585 40.4636 25.8762 40.4798C25.3181 40.4925 24.7587 40.4821 24.0928 40.4821C24.0928 40.789 24.1032 41.0681 24.0905 41.346C24.0616 42.0258 23.7002 42.408 23.1166 42.3895C22.5618 42.3721 22.2075 41.9818 22.2052 41.3402C22.1982 39.4885 22.1959 37.6367 22.2063 35.785C22.2098 35.0959 22.5584 34.7462 23.2382 34.7404C24.453 34.7288 25.669 34.7311 26.8838 34.7392C27.5508 34.7439 27.9689 35.1237 27.955 35.6865C27.9411 36.2482 27.5288 36.5956 26.8479 36.6003C25.9619 36.6072 25.076 36.6026 24.1241 36.6026Z" fill="#2776EA"/>
<path d="M31.8213 36.6003C31.4739 36.6003 31.1693 36.613 30.8682 36.598C30.3088 36.569 29.9545 36.2135 29.9417 35.6924C29.929 35.1492 30.2961 34.7508 30.8798 34.7439C32.171 34.7277 33.4623 34.7288 34.7535 34.7462C35.2932 34.7532 35.6672 35.1585 35.6719 35.6646C35.6753 36.1706 35.3024 36.5621 34.7628 36.5957C34.4582 36.6142 34.1513 36.5991 33.7819 36.5991C33.7692 36.8435 33.7495 37.0473 33.7495 37.25C33.7472 38.5609 33.7506 39.8707 33.7472 41.1816C33.7448 41.9726 33.4287 42.3802 32.8207 42.3906C32.1907 42.4022 31.8572 41.983 31.8549 41.1608C31.8502 39.8695 31.8537 38.5783 31.8514 37.287C31.8502 37.0797 31.8329 36.8736 31.8213 36.6003Z" fill="#2776EA"/>
</svg>
