<svg width="55" height="55" viewBox="0 0 55 55" fill="none" xmlns="http://www.w3.org/2000/svg">
<path d="M7.90588 23.5872C7.90588 23.2114 7.90588 22.924 7.90588 22.6365C7.90588 15.5868 7.90588 8.53712 7.90736 1.48741C7.90736 0.283226 8.16087 0.0120265 9.36653 0.00613089C11.7248 -0.00566038 14.083 0.00318469 16.4413 0.00318469C28.6497 0.00318469 40.8566 0.00318469 53.065 0.00318469C53.3598 0.00318469 53.656 -0.00418539 53.9493 0.0164493C54.6155 0.0650884 54.9855 0.408509 54.9811 1.10272C54.9796 1.29875 54.984 1.49625 54.984 1.69228C54.984 17.7078 54.9855 33.7233 54.984 49.7388C54.984 52.9947 53.0075 54.9903 49.7738 54.9918C34.9624 54.9948 20.1511 54.9844 5.33833 55.0006C3.42962 55.0021 1.89086 54.3742 0.809006 52.7618C0.19586 51.8494 0.00720008 50.8162 0.00572617 49.7491C-0.00311729 41.5203 -0.000168662 33.2914 0.00425307 25.0626C0.00425307 23.8967 0.319669 23.5916 1.50322 23.5872C3.34561 23.5798 5.18799 23.5857 7.03038 23.5857C7.29421 23.5872 7.55657 23.5872 7.90588 23.5872ZM8.86392 53.0197C9.17639 53.0433 9.34589 53.0669 9.51392 53.0669C23.0488 53.0669 36.5837 53.0684 50.1187 53.058C51.8829 53.0566 53.065 51.8096 53.065 49.9923C53.0665 34.2465 53.065 18.5007 53.0635 2.75497C53.0635 2.49704 53.0355 2.24058 53.0208 1.98559C38.5794 1.98559 24.2221 1.98559 9.81165 1.98559C9.81165 2.35849 9.81165 2.67538 9.81165 2.99227C9.81165 18.3209 9.80575 33.6481 9.82196 48.9768C9.82196 50.3711 9.76153 51.7212 8.86392 53.0197ZM1.92623 25.5534C1.92623 25.8747 1.92623 26.14 1.92623 26.4039C1.92623 28.4673 1.92771 30.5308 1.92771 32.5943C1.92918 38.2438 1.9336 43.8933 1.92623 49.5428C1.92476 50.5819 2.07804 51.5546 2.89754 52.2931C3.85411 53.1538 4.97722 53.316 6.1195 52.8252C7.37528 52.2857 7.9103 51.2127 7.9103 49.867C7.91178 42.0081 7.91178 34.1492 7.90883 26.2918C7.90883 26.0575 7.8764 25.8231 7.85724 25.5534C5.87925 25.5534 3.97054 25.5534 1.92623 25.5534Z" fill="#2776EA"/>
<path d="M15.6632 33.4058C15.9137 31.814 16.1289 31.4205 16.7745 31.5074C17.9123 31.6592 17.5674 32.6069 17.6839 33.3675C18.325 33.3675 18.9677 33.3675 19.7031 33.3675C19.7031 33.0712 19.6928 32.7838 19.7046 32.4979C19.7326 31.8169 20.0569 31.4956 20.7216 31.5236C21.32 31.5487 21.5794 31.9186 21.5986 32.4876C21.6045 32.635 21.6148 32.7838 21.5986 32.9297C21.5249 33.5753 21.7136 34.0248 22.2604 34.4803C23.6016 35.5975 23.917 37.4664 23.1727 39.0332C23.1005 39.1865 23.0283 39.3398 22.959 39.4901C25.0977 40.8107 25.811 42.1594 25.4234 44.1211C25.0991 45.766 23.7328 46.8877 21.6001 47.1795C21.6001 47.4699 21.6133 47.7794 21.5971 48.0874C21.5676 48.6902 21.2655 49.0705 20.6391 49.069C20.0156 49.0676 19.7282 48.7065 19.6943 48.0845C19.6766 47.772 19.5955 47.2193 19.4717 47.1972C18.9264 47.1043 18.353 47.1456 17.7959 47.2001C17.7266 47.2075 17.6249 47.5937 17.6544 47.7867C17.7885 48.6593 17.2491 49.0749 16.7067 49.0794C16.07 49.0853 15.7619 48.6652 15.7442 47.7956C15.7398 47.6025 15.7221 47.4109 15.7088 47.1957C14.9866 46.9761 13.781 47.4684 13.837 46.1301C13.8856 44.9465 14.9454 45.3091 15.6985 45.1838C15.6985 41.9176 15.6985 38.6662 15.6985 35.3779C14.963 35.2172 13.8252 35.6461 13.834 34.3874C13.8444 33.1567 14.9498 33.5208 15.6632 33.4058ZM17.647 45.2236C19.0148 45.2236 20.2603 45.2295 21.5072 45.2221C22.7276 45.2148 23.5442 44.4572 23.5766 43.3208C23.6105 42.1756 22.8426 41.2956 21.6693 41.2441C20.4961 41.1925 19.3199 41.2131 18.1452 41.2514C17.9742 41.2573 17.6736 41.5315 17.6677 41.6892C17.6279 42.8315 17.647 43.9782 17.647 45.2236ZM17.6485 39.3236C18.4636 39.3236 19.1725 39.3589 19.8756 39.3147C20.7938 39.2572 21.5617 38.451 21.6399 37.5416C21.7194 36.6042 21.1476 35.6476 20.2544 35.4722C19.5219 35.3278 18.751 35.3573 17.9978 35.3602C17.8799 35.3602 17.6677 35.6344 17.6633 35.7862C17.6352 36.9314 17.6485 38.0752 17.6485 39.3236Z" fill="#2776EA"/>
<path d="M31.5075 19.7017C37.496 19.7017 43.486 19.7017 49.4745 19.7017C49.7191 19.7017 49.9683 19.6855 50.21 19.715C50.7479 19.7798 51.0678 20.1041 51.0663 20.6391C51.0648 21.1697 50.7332 21.4881 50.2173 21.5898C50.0523 21.6222 49.8754 21.6016 49.7029 21.6016C37.5771 21.6016 25.4512 21.6016 13.3254 21.6016C13.2266 21.6016 13.1293 21.6031 13.0306 21.6016C12.2391 21.5839 11.8353 21.2449 11.85 20.6126C11.8647 20.0171 12.248 19.7061 13.0218 19.7061C18.4708 19.7017 23.9198 19.7032 29.3689 19.7032C30.0837 19.7017 30.7956 19.7017 31.5075 19.7017Z" fill="#2776EA"/>
<path d="M33.5562 13.2892C34.1487 12.4005 34.7397 11.5117 35.3352 10.6259C36.0338 9.58827 36.6602 9.575 37.3559 10.592C37.9632 11.4808 38.5542 12.3813 39.2867 13.4779C39.3074 13.0343 39.3265 12.7925 39.328 12.5508C39.3295 10.0702 39.3074 7.58964 39.3531 5.11053C39.359 4.75974 39.6257 4.33967 39.8999 4.09795C40.0635 3.95351 40.5543 3.99035 40.7621 4.13775C40.998 4.30577 41.2058 4.68752 41.2087 4.97788C41.2382 8.88226 41.2426 12.7881 41.2028 16.691C41.1999 16.9976 40.8565 17.5105 40.6059 17.5547C40.2581 17.6166 39.6965 17.4383 39.4901 17.1642C38.6235 16.0071 37.8571 14.775 37.0508 13.5722C36.8489 13.2716 36.6396 12.9753 36.3566 12.567C35.6536 13.612 35.0021 14.576 34.3536 15.5429C33.9836 16.0926 33.6726 16.6955 33.2275 17.1759C32.9902 17.4324 32.4758 17.655 32.1796 17.571C31.8907 17.4884 31.5296 16.9947 31.5266 16.6778C31.4824 12.7734 31.4957 8.869 31.4971 4.96314C31.4971 4.33967 31.8347 4.00067 32.439 3.9653C32.9725 3.93435 33.3882 4.40894 33.3896 5.04273C33.397 7.49826 33.3926 9.95379 33.3926 12.4108C33.3926 12.6791 33.3926 12.9488 33.3926 13.217C33.4471 13.2406 33.5017 13.2657 33.5562 13.2892Z" fill="#2776EA"/>
<path d="M13.7191 9.36454C13.7191 9.6269 13.7191 9.88926 13.7191 10.1516C13.7177 12.2623 13.7221 14.3744 13.7103 16.485C13.7059 17.2662 13.3949 17.6332 12.7847 17.6435C12.1892 17.6523 11.8104 17.2765 11.806 16.5115C11.7854 12.731 11.7913 8.95038 11.8001 5.1698C11.8016 4.62593 11.9622 4.12185 12.5798 3.98625C13.2018 3.84918 13.5187 4.24861 13.7663 4.74384C14.9101 7.04756 16.0582 9.34981 17.2079 11.6506C17.3228 11.882 17.4555 12.1045 17.737 12.3079C17.737 12.0515 17.737 11.7965 17.737 11.54C17.7341 9.55173 17.7296 7.56343 17.7326 5.57365C17.7326 5.28034 17.6633 4.91924 17.8033 4.70847C18.0067 4.40337 18.3693 4.01573 18.6685 4.01425C18.9662 4.01131 19.3067 4.40631 19.5514 4.69373C19.6664 4.82933 19.6177 5.11821 19.6177 5.33783C19.6192 8.99607 19.6177 12.6543 19.6177 16.3111C19.6177 16.4098 19.6177 16.5071 19.6148 16.6059C19.6059 17.1262 19.4099 17.5212 18.8587 17.6273C18.3207 17.7305 17.9832 17.4652 17.7488 16.992C16.6935 14.8637 15.6278 12.7398 14.5637 10.6159C14.347 10.1826 14.123 9.75218 13.9019 9.32033C13.8385 9.33507 13.7796 9.34981 13.7191 9.36454Z" fill="#2776EA"/>
<path d="M49.0604 31.2235C49.109 31.9133 48.8142 32.3289 48.2409 32.3775C47.6351 32.4291 47.3182 32.1049 47.2136 31.3222C47.0794 30.3303 46.4589 29.6611 45.5038 29.4784C44.7123 29.3266 43.8693 29.7569 43.43 30.5352C43.0365 31.2353 43.1146 32.208 43.7543 32.7637C44.1331 33.0924 44.6784 33.3651 45.1693 33.4049C47.0957 33.5581 48.7037 34.7903 49.0103 36.4691C49.3802 38.4987 48.5047 40.117 46.596 41.0102C46.3985 41.1031 46.2585 41.3993 46.1745 41.6308C46.1022 41.8268 46.1627 42.0685 46.142 42.2881C46.0904 42.8217 45.8148 43.1636 45.2547 43.1798C44.7168 43.196 44.2392 42.9131 44.2952 42.3913C44.4102 41.3227 43.7514 40.9896 42.9967 40.5327C41.881 39.8562 41.3504 38.7493 41.3135 37.436C41.2973 36.873 41.5729 36.4691 42.1433 36.4028C42.7137 36.3365 43.066 36.6548 43.1854 37.2164C43.2458 37.5023 43.2591 37.8045 43.3578 38.0757C43.6688 38.935 44.6342 39.4671 45.5481 39.3138C46.4088 39.1693 47.1045 38.4058 47.1576 37.548C47.2209 36.5281 46.7051 35.7012 45.7957 35.461C45.3505 35.3431 44.87 35.3637 44.4176 35.2694C42.7034 34.9141 41.5258 33.5714 41.3327 31.7821C41.1573 30.1667 42.0858 28.5277 43.6379 27.8865C44.1228 27.6861 44.2702 27.4488 44.2304 26.9712C44.2112 26.7339 44.2009 26.4097 44.3365 26.2623C44.5885 25.9896 44.9629 25.6359 45.2651 25.655C45.5628 25.6742 45.8664 26.0869 46.1022 26.3802C46.201 26.5025 46.1612 26.7634 46.1376 26.955C46.0742 27.468 46.2717 27.7082 46.7743 27.9072C48.1687 28.4658 48.9498 29.6641 49.0604 31.2235Z" fill="#2776EA"/>
<path d="M23.5868 9.81039C23.5868 11.8016 23.5868 13.7074 23.5868 15.7473C24.1587 15.7473 24.735 15.7473 25.3098 15.7473C26.3165 15.7473 27.3246 15.7399 28.3313 15.7502C29.0565 15.7576 29.4677 16.1261 29.4323 16.7378C29.3925 17.4158 28.9607 17.6516 28.3343 17.6501C26.4683 17.6457 24.6008 17.656 22.7349 17.6427C21.992 17.6369 21.6486 17.2979 21.6471 16.5638C21.6398 12.7317 21.6398 8.90099 21.6471 5.06883C21.6486 4.34366 22.0068 3.97076 22.7275 3.96339C24.6185 3.94718 26.5096 3.95013 28.4006 3.96192C29.0609 3.96634 29.4662 4.3643 29.4308 4.94502C29.3925 5.5729 29.0196 5.85442 28.4094 5.85442C27.0092 5.85442 25.609 5.87211 24.2103 5.84705C23.7018 5.83821 23.5205 6.00181 23.5323 6.51915C23.5706 8.21268 23.3849 7.87957 24.872 7.91347C25.4115 7.92526 25.9524 7.90758 26.4933 7.91642C27.1065 7.92674 27.4927 8.24216 27.4809 8.85678C27.4705 9.45518 27.0873 9.79713 26.483 9.80744C25.5324 9.82218 24.5817 9.81039 23.5868 9.81039Z" fill="#2776EA"/>
<path d="M46.3067 17.6481C45.6199 17.6466 44.9316 17.6599 44.2447 17.6437C43.6699 17.6304 43.3147 17.3297 43.2985 16.7402C43.2823 16.1138 43.6493 15.7748 44.2477 15.76C45.4489 15.732 46.6531 15.7512 47.8543 15.7468C48.8109 15.7423 49.1646 15.3856 49.1779 14.4084C49.1838 13.9176 49.1941 13.4253 49.172 12.936C49.1352 12.1489 48.7667 11.7849 47.9693 11.7554C47.3561 11.7333 46.743 11.7539 46.1284 11.7451C44.5557 11.7245 43.3294 10.5291 43.2882 8.96382C43.269 8.25192 43.2734 7.54003 43.2882 6.82813C43.3191 5.25547 44.4909 4.02328 46.0665 3.97022C47.39 3.92453 48.7166 3.94811 50.0416 3.96137C50.6371 3.96727 51.0173 4.28858 51.0675 4.88994C51.1146 5.4515 50.6857 5.84208 50.0195 5.85093C48.8418 5.86861 47.6642 5.84945 46.4851 5.86124C45.5373 5.87009 45.1924 6.21793 45.1836 7.14207C45.1792 7.68152 45.1718 8.22245 45.1851 8.7619C45.2042 9.4679 45.5683 9.83048 46.2846 9.84817C46.8978 9.86291 47.5124 9.84228 48.1255 9.85259C49.7837 9.87765 51.0512 11.1437 51.0748 12.7945C51.0837 13.4327 51.0837 14.0709 51.0763 14.7091C51.0571 16.3835 49.8294 17.6142 48.1447 17.6481C47.533 17.6584 46.9199 17.6481 46.3067 17.6481Z" fill="#2776EA"/>
<path d="M29.4324 25.5103C26.0424 25.5103 22.6539 25.5118 19.2639 25.5088C18.9942 25.5088 18.6641 25.5766 18.4695 25.4484C18.1777 25.2568 17.7944 24.9222 17.793 24.6466C17.7915 24.3267 18.0981 23.9126 18.3899 23.7121C18.6361 23.5426 19.0517 23.5898 19.3922 23.5898C24.8442 23.5809 30.2976 23.578 35.7496 23.5765C37.1705 23.5765 38.5943 23.5411 40.0122 23.6178C40.4086 23.6384 40.9451 23.9037 41.1412 24.225C41.517 24.8367 40.9776 25.4926 40.1507 25.5029C38.637 25.5221 37.1233 25.5132 35.6111 25.5132C33.5505 25.5147 31.4915 25.5132 29.431 25.5132C29.4324 25.5118 29.4324 25.5118 29.4324 25.5103Z" fill="#2776EA"/>
<path d="M35.356 49.0988C32.6543 49.0988 29.9541 49.1003 27.2524 49.0973C26.9576 49.0973 26.6039 49.1769 26.3843 49.0428C26.0718 48.8527 25.6768 48.5107 25.6562 48.21C25.6355 47.9079 25.9731 47.4981 26.2634 47.2844C26.4845 47.1223 26.8766 47.1695 27.192 47.1695C32.6425 47.165 38.0945 47.165 43.545 47.1709C43.8604 47.1709 44.2481 47.1267 44.475 47.2844C44.7743 47.4922 45.1339 47.8887 45.1206 48.1894C45.1074 48.4886 44.6902 48.7981 44.3984 49.0413C44.2761 49.143 44.0211 49.0944 43.8251 49.0944C41.004 49.0988 38.18 49.0988 35.356 49.0988Z" fill="#2776EA"/>
<path d="M30.3843 29.42C27.8359 29.42 25.2875 29.4259 22.7406 29.4156C22.0877 29.4126 21.644 29.0176 21.6455 28.4944C21.647 27.9623 22.0995 27.5452 22.7362 27.5437C27.889 27.5378 33.0433 27.5378 38.196 27.5422C38.8018 27.5422 39.3427 28.005 39.2705 28.4899C39.1821 29.0854 38.8549 29.4377 38.1784 29.4332C35.5813 29.4156 32.9828 29.4259 30.3858 29.4259C30.3843 29.4244 30.3843 29.4229 30.3843 29.42Z" fill="#2776EA"/>
<path d="M32.4568 31.4955C34.224 31.4955 35.9912 31.494 37.7584 31.497C38.0031 31.497 38.2507 31.5014 38.4924 31.5368C39.0024 31.6134 39.365 31.9583 39.25 32.4314C39.1645 32.7881 38.7725 33.0829 38.4807 33.3688C38.404 33.444 38.1962 33.3924 38.0503 33.3924C34.3169 33.3924 30.5834 33.3968 26.85 33.3821C26.5464 33.3806 26.1263 33.3438 25.9701 33.1522C25.7549 32.8883 25.5839 32.4034 25.6871 32.1204C25.7859 31.8492 26.2561 31.553 26.57 31.5441C28.5318 31.4925 30.4965 31.5176 32.4597 31.5176C32.4568 31.5102 32.4568 31.5029 32.4568 31.4955Z" fill="#2776EA"/>
<path d="M34.4346 45.1846C32.5465 45.1846 30.6599 45.1875 28.7719 45.1831C27.9981 45.1816 27.55 44.8279 27.5412 44.2339C27.5323 43.6296 27.9524 43.2862 28.7557 43.2847C32.5303 43.2803 36.305 43.2818 40.0797 43.2891C40.855 43.2906 41.2235 43.606 41.2249 44.2192C41.2264 44.8397 40.8108 45.1816 40.0207 45.1831C38.1592 45.189 36.2976 45.1846 34.4346 45.1846Z" fill="#2776EA"/>
<path d="M33.4131 41.2297C31.8419 41.2297 30.2693 41.2386 28.6981 41.2268C27.9478 41.2209 27.5469 40.8789 27.541 40.2864C27.5366 39.7352 27.998 39.3343 28.7054 39.3328C31.8729 39.324 35.0418 39.324 38.2092 39.3328C38.8548 39.3343 39.2896 39.747 39.2866 40.2908C39.2822 40.8612 38.8916 41.2194 38.2018 41.2253C36.6056 41.2371 35.0093 41.2297 33.4131 41.2297Z" fill="#2776EA"/>
<path d="M33.4137 37.3024C31.8425 37.3024 30.2728 37.3128 28.7016 37.298C27.9499 37.2906 27.5225 36.9354 27.549 36.3577C27.5814 35.69 28.031 35.3967 28.6279 35.3937C31.8175 35.3746 35.0085 35.3701 38.198 35.3893C38.7861 35.3923 39.246 35.6841 39.2754 36.3577C39.3005 36.9384 38.879 37.2892 38.1243 37.2965C36.5531 37.3113 34.9834 37.301 33.4122 37.301C33.4137 37.2995 33.4137 37.301 33.4137 37.3024Z" fill="#2776EA"/>
</svg>
