<svg width="65" height="48" viewBox="0 0 65 48" fill="none" xmlns="http://www.w3.org/2000/svg">
<path d="M62.6999 32.4658C62.6999 32.114 62.6999 31.8601 62.6999 31.6062C62.6999 23.4438 62.6999 15.2828 62.6999 7.12047C62.6999 4.50538 61.3268 3.01159 58.9182 3.01159C45.4135 3.0103 31.91 3.01417 18.4053 3.00644C17.5357 3.00644 16.7159 3.12759 15.9979 3.71144C15.0656 4.46929 14.581 5.48362 14.5632 6.74283C14.5443 8.07422 14.5621 9.40561 14.5561 10.7383C14.5526 11.6083 14.1047 12.147 13.4117 12.1354C12.7305 12.1238 12.3075 11.6199 12.3016 10.7705C12.2909 9.50356 12.2957 8.23662 12.298 6.96838C12.3063 3.17914 14.7398 0.520232 18.2217 0.518943C31.2122 0.515077 44.2039 0.516365 57.1944 0.518943C58.083 0.518943 58.9798 0.453213 59.8565 0.566632C62.9427 0.967467 64.9923 3.531 64.9959 6.94132C65.003 13.7065 64.9982 20.4717 64.9982 27.2382C64.9982 29.7296 65.0018 32.221 64.9994 34.7123C64.9959 38.1961 63.1702 40.6836 60.174 41.2662C59.789 41.3409 59.3886 41.3396 58.9952 41.3396C54.3357 41.3448 49.6762 41.3422 45.0166 41.3422C44.7832 41.3422 44.5487 41.3422 44.2205 41.3422C44.32 42.5653 44.4148 43.7292 44.5155 44.9639C44.7513 44.9755 44.9598 44.9935 45.1683 44.9948C46.1954 44.9974 47.2214 44.9909 48.2486 44.9987C49.0767 45.0051 49.6098 45.5155 49.5956 46.2682C49.5826 46.9977 49.0648 47.49 48.2675 47.4952C46.8861 47.5042 45.5036 47.4978 44.121 47.4978C39.2044 47.4978 34.2889 47.4978 29.3723 47.4978C29.2148 47.4978 29.056 47.5042 28.8984 47.4952C28.139 47.4514 27.6853 46.9629 27.7007 46.2115C27.7149 45.4949 28.1675 45.0167 28.9032 45.0025C29.9493 44.9819 30.9954 44.9961 32.0427 44.9961C32.2571 44.9961 32.4716 44.9961 32.7476 44.9961C32.8542 43.7781 32.9561 42.613 33.0663 41.3422C32.6232 41.3422 32.2358 41.3499 31.8484 41.3409C31.1174 41.3229 30.6577 40.8602 30.6423 40.1423C30.6269 39.3934 31.089 38.8908 31.852 38.8895C35.6218 38.8792 39.3927 38.8805 43.1625 38.8792C48.5128 38.8792 53.863 38.8959 59.2132 38.8753C61.264 38.8676 62.8764 37.0155 62.6288 34.934C62.3705 34.934 62.1004 34.934 61.8303 34.934C52.67 34.934 43.5097 34.934 34.3482 34.934C34.0911 34.934 33.8328 34.943 33.5793 34.9147C33.0023 34.8489 32.6043 34.3772 32.5829 33.7624C32.5604 33.1167 32.949 32.5818 33.5331 32.489C33.7653 32.4517 34.0058 32.4684 34.2427 32.4684C43.4433 32.4671 52.6427 32.4671 61.8433 32.4671C62.0992 32.4658 62.3516 32.4658 62.6999 32.4658ZM42.2219 44.9574C42.1259 43.8258 42.0489 42.7612 41.9316 41.7018C41.9174 41.5677 41.697 41.359 41.5703 41.3577C39.5254 41.3358 37.4794 41.3422 35.3611 41.3422C35.2557 42.5602 35.1538 43.7369 35.0472 44.9574C37.4569 44.9574 39.7908 44.9574 42.2219 44.9574Z" fill="#2776EA"/>
<path d="M31.0805 30.6006C31.0189 40.0325 24.0574 47.5491 15.435 47.4937C6.8303 47.437 -0.0565172 39.7992 0.000349653 30.3776C0.0572165 21.0347 7.08738 13.589 15.788 13.6547C24.2079 13.7192 31.1409 21.402 31.0805 30.6006ZM15.525 16.1371C8.20695 16.159 2.26554 22.6252 2.26436 30.571C2.26436 38.5451 8.23775 44.9894 15.5831 44.9997C22.7364 45.01 28.9752 38.5554 28.7999 30.2153C28.6364 22.4486 22.772 16.1255 15.525 16.1371Z" fill="#2776EA"/>
<path d="M29.1336 14.7108C28.7486 15.2276 28.3956 15.7767 27.9714 16.2522C27.4276 16.8619 26.7097 16.858 26.2476 16.3167C25.8057 15.7986 25.852 15.0562 26.3827 14.4852C27.0841 13.7312 27.7949 12.985 28.5117 12.2491C29.2166 11.5247 29.867 11.575 30.4724 12.396C31.8419 14.2532 33.2044 16.1143 34.6 18.0154C34.7552 17.8814 34.8938 17.777 35.017 17.6545C36.5619 16.1208 38.102 14.5806 39.6481 13.0494C40.2961 12.4076 40.7108 12.3754 41.4465 12.8935C42.341 13.5224 43.2414 14.1411 44.1157 14.7997C44.4806 15.0742 44.7235 15.0768 45.0765 14.743C48.3108 11.691 51.5629 8.66217 54.809 5.62562C55.0187 5.42972 55.2213 5.22479 55.4405 5.04306C55.9689 4.60485 56.6347 4.65511 57.0399 5.15003C57.4628 5.66558 57.4296 6.43374 56.9119 6.92995C55.6834 8.10667 54.4358 9.26149 53.1943 10.4227C50.7265 12.7324 48.2563 15.0381 45.7885 17.3478C45.0125 18.0734 44.6417 18.1069 43.7899 17.5089C42.9286 16.9044 42.0507 16.3257 41.2131 15.6826C40.8233 15.3836 40.5971 15.4519 40.2689 15.7857C38.6991 17.3851 37.1033 18.9537 35.5169 20.5325C34.6805 21.3651 34.0905 21.3162 33.3868 20.3573C32.1073 18.6121 30.8266 16.8683 29.5495 15.1219C29.4891 15.0381 29.4523 14.9337 29.4049 14.8384C29.3149 14.7971 29.2249 14.7546 29.1336 14.7108Z" fill="#2776EA"/>
<path d="M55.808 20.7643C55.808 18.1247 55.8032 15.4852 55.8115 12.8456C55.8139 12.0568 56.2629 11.558 56.924 11.549C57.5969 11.5387 58.0329 12.0143 58.0708 12.8056C58.0791 12.977 58.0744 13.1485 58.0744 13.3212C58.0744 17.6556 58.0744 21.99 58.0744 26.3244C58.0744 27.0965 58.0815 27.8698 58.072 28.6418C58.0613 29.5311 57.6313 30.048 56.9311 30.0389C56.2357 30.0299 55.8092 29.5015 55.808 28.6186C55.8056 25.9997 55.808 23.382 55.808 20.7643Z" fill="#2776EA"/>
<path d="M52.4506 23.3298C52.4506 25.0685 52.453 26.8071 52.4494 28.5458C52.4471 29.4892 52.0383 30.0241 51.3251 30.037C50.606 30.0499 50.1617 29.5189 50.1594 28.5858C50.1523 25.044 50.1523 21.5022 50.1617 17.9604C50.1641 17.0801 50.6119 16.5311 51.2884 16.5169C51.9755 16.5014 52.4471 17.0879 52.4494 17.9849C52.4542 19.7661 52.4506 21.5486 52.4506 23.3298Z" fill="#2776EA"/>
<path d="M46.7933 24.9165C46.7933 26.1602 46.7981 27.404 46.791 28.6465C46.7862 29.528 46.3514 30.0487 45.6513 30.0397C44.9558 30.0307 44.54 29.5087 44.5388 28.6155C44.5352 26.1499 44.5352 23.6844 44.5388 21.2188C44.54 20.2985 44.9819 19.7379 45.6809 19.7482C46.3787 19.7598 46.7898 20.3101 46.7933 21.2497C46.7957 22.4728 46.7933 23.6947 46.7933 24.9165Z" fill="#2776EA"/>
<path d="M38.881 25.4287C38.881 24.377 38.8751 23.324 38.8822 22.2723C38.8881 21.3791 39.3075 20.8597 40.0089 20.8507C40.7221 20.8417 41.1675 21.3469 41.1723 22.2336C41.1841 24.3809 41.1865 26.5281 41.1723 28.6754C41.1663 29.5428 40.6889 30.0609 39.9852 30.0377C39.3134 30.0145 38.8905 29.4964 38.8834 28.6496C38.8727 27.576 38.881 26.5023 38.881 25.4287Z" fill="#2776EA"/>
<path d="M35.5209 26.6199C35.5209 27.3262 35.5303 28.0338 35.5185 28.7401C35.5055 29.5212 35.0624 30.0277 34.4096 30.0406C33.7485 30.0535 33.2746 29.565 33.2663 28.7865C33.2509 27.2876 33.258 25.7886 33.2746 24.2897C33.2829 23.5731 33.771 23.0666 34.3942 23.0743C35.0162 23.082 35.496 23.5886 35.5149 24.3077C35.5363 25.0785 35.5209 25.8492 35.5209 26.6199Z" fill="#2776EA"/>
<path d="M38.644 37.9875C38.15 37.9875 37.6559 38.0068 37.1631 37.9823C36.5115 37.9514 36.04 37.4036 36.053 36.7334C36.0648 36.0787 36.515 35.5606 37.1512 35.5451C38.1381 35.5206 39.1262 35.518 40.1119 35.5425C40.7812 35.5593 41.2196 36.089 41.2089 36.7863C41.1983 37.481 40.7481 37.9643 40.0657 37.9862C39.5918 38.0017 39.1179 37.9888 38.644 37.9888C38.644 37.9888 38.644 37.9888 38.644 37.9875Z" fill="#2776EA"/>
<path d="M15.1048 20.7271C15.3205 20.7271 15.51 20.7271 15.7683 20.7271C15.7683 20.3817 15.7541 20.066 15.7718 19.7515C15.8109 19.0619 16.2694 18.5722 16.8713 18.5541C17.4672 18.5374 18.069 19.0246 18.0039 19.6819C17.9055 20.6717 18.3652 20.9746 19.0879 21.3574C21.7334 22.7571 22.494 26.393 20.7595 28.9861C20.6671 29.124 20.5747 29.2607 20.4645 29.4231C20.5972 29.5429 20.7145 29.6512 20.8342 29.7556C22.6504 31.346 23.392 33.3927 22.8447 35.8648C22.2961 38.3381 20.7797 39.7996 18.492 40.2843C18.1437 40.3577 18.0098 40.4879 18.0335 40.8565C18.0477 41.0692 18.0418 41.287 18.0193 41.4996C17.9482 42.1454 17.4743 42.6016 16.8962 42.5965C16.3322 42.5913 15.8358 42.1119 15.7801 41.4816C15.7505 41.1439 15.7754 40.8011 15.7754 40.4222C15.5254 40.4222 15.3347 40.4222 15.0444 40.4222C15.0444 40.7379 15.0551 41.0498 15.0421 41.3604C15.0124 42.0848 14.5445 42.5939 13.9201 42.5939C13.2993 42.5939 12.8302 42.0809 12.7911 41.3617C12.7378 40.3809 12.7378 40.3822 11.8575 40.3822C11.2059 40.3822 10.5543 40.399 9.9039 40.3745C9.10065 40.3435 8.62795 39.8357 8.65756 39.0766C8.68481 38.3523 9.167 37.905 9.94418 37.8883C10.1977 37.8831 10.4512 37.887 10.7462 37.887C10.7462 33.0099 10.7462 28.1909 10.7462 23.2597C10.4631 23.2597 10.1776 23.2701 9.89205 23.2572C9.13027 23.2237 8.65401 22.7352 8.65638 22.007C8.65875 21.271 9.13738 20.7761 9.89442 20.7645C10.8363 20.7503 11.777 20.7607 12.7662 20.7607C12.8029 19.7425 12.6489 18.6134 13.9604 18.5644C14.6926 18.5387 14.8904 18.9485 15.1048 20.7271ZM13.0529 37.887C14.5847 37.887 16.023 37.8909 17.4625 37.8857C19.2656 37.8805 20.6837 36.4783 20.7418 34.6532C20.8022 32.72 19.48 31.1475 17.6508 31.0741C16.2706 31.0187 14.888 31.0754 13.5067 31.0586C13.1216 31.0535 13.0482 31.2494 13.0505 31.6102C13.0612 33.0486 13.0541 34.487 13.0541 35.9266C13.0529 36.5466 13.0529 37.1652 13.0529 37.887ZM13.1074 23.292C13.1074 25.068 13.1074 26.8105 13.1074 28.5892C14.5018 28.5892 15.8429 28.6407 17.1793 28.5737C18.3913 28.5131 19.3628 27.3274 19.4137 26.0024C19.4623 24.7394 18.5334 23.3989 17.3819 23.3165C15.9733 23.2159 14.5528 23.292 13.1074 23.292Z" fill="#2776EA"/>
</svg>
