<svg width="70" height="70" viewBox="0 0 70 70" fill="none" xmlns="http://www.w3.org/2000/svg">
<mask id="mask0_260_691120" style="mask-type:alpha" maskUnits="userSpaceOnUse" x="0" y="0" width="70" height="70">
<rect width="70" height="70" fill="#D9D9D9"/>
</mask>
<g mask="url(#mask0_260_691120)">
<path d="M34.1672 67.4113C32.1883 66.7848 30.5793 65.7305 30.1846 63.5308C30.0273 62.6586 30.1597 61.734 30.1597 60.6438C25.1173 57.7321 19.9285 54.7347 14.7205 51.7264C12.9458 53.4238 10.9172 53.9813 8.66785 52.9159C6.71931 51.9941 5.86096 50.3216 6.0238 48.1964C6.21424 45.7234 7.73774 44.3573 10.0865 43.7307C10.0865 37.6919 10.0865 31.6945 10.0865 25.6529C7.7819 25.0485 6.25012 23.7072 6.02656 21.2453C5.83336 19.1146 6.69447 17.4172 8.59885 16.4705C10.8179 15.3665 12.874 15.8688 14.7094 17.6656C16.1556 16.8404 17.6184 16.0179 19.0702 15.1789C22.5229 13.1862 25.9646 11.1769 29.4311 9.20352C30.0576 8.84749 30.3391 8.57977 30.1349 7.7297C29.6298 5.64316 30.8442 3.46278 32.8203 2.52163C33.1791 2.35052 33.5352 2.17388 33.8912 2C34.5343 2 35.1801 2 35.8232 2C36.6871 2.49403 37.6503 2.86939 38.39 3.50418C39.6292 4.56953 39.9659 6.04888 39.7203 7.64138C39.6237 8.27893 39.6706 8.73709 40.3302 9.11244C45.3092 11.9414 50.2689 14.8145 55.2589 17.6877C57.0418 15.8799 59.1035 15.3803 61.4109 16.4816C63.2518 17.3592 64.1764 19.2415 63.9721 21.4026C63.7817 23.4312 62.4127 24.8884 59.9039 25.6502C59.9039 31.6145 59.9039 37.6119 59.9039 43.6728C62.2692 44.3931 63.9169 45.8007 63.9804 48.4972C64.0273 50.5285 63.1276 52.0879 61.3005 52.9325C59.0566 53.9702 57.0115 53.4569 55.2755 51.6988C50.2689 54.5857 45.3009 57.4395 40.3551 60.3292C40.0404 60.5141 39.7148 60.9971 39.712 61.3449C39.6789 65.0708 39.091 66.0175 35.8204 67.4113C35.2712 67.4113 34.7192 67.4113 34.1672 67.4113ZM54.3647 19.0483C49.1456 16.0317 43.9541 13.0288 38.9282 10.1226C37.8131 10.7795 36.8416 11.3508 35.7818 11.9773C35.7818 15.0519 35.7597 18.2231 35.8122 21.3915C35.8177 21.7448 36.1599 22.2251 36.4828 22.4183C39.2759 24.0908 42.0938 25.7247 44.9256 27.3282C45.2181 27.4938 45.7453 27.5463 46.0185 27.3945C48.853 25.8075 51.6571 24.1653 54.3674 22.5977C54.3647 21.3639 54.3647 20.2738 54.3647 19.0483ZM15.5843 46.568C15.5843 47.9231 15.5843 49.0961 15.5843 50.3712C20.7151 53.3327 25.8956 56.3245 30.9546 59.2418C32.0614 58.6097 33.0384 58.0522 34.1341 57.4285C34.1341 54.4339 34.1507 51.3151 34.1065 48.2019C34.101 47.8845 33.7919 47.4512 33.4993 47.2801C30.5517 45.5247 27.5819 43.7997 24.5984 42.1079C24.3086 41.945 23.787 41.8926 23.5137 42.0444C20.8007 43.5486 18.118 45.1107 15.5843 46.568ZM38.9309 59.2915C44.012 56.3521 49.2339 53.3299 54.3895 50.3491C54.3895 49.0934 54.3895 47.9645 54.3895 46.7253C51.7896 45.2184 49.1097 43.6479 46.3994 42.1272C46.1151 41.9671 45.5824 41.9644 45.2982 42.1244C42.3119 43.8163 39.3449 45.5413 36.3973 47.2994C36.1075 47.4705 35.8122 47.9149 35.8094 48.2378C35.7652 51.3538 35.7818 54.4698 35.7818 57.4395C36.883 58.0853 37.8518 58.6567 38.9309 59.2915ZM55.1651 24.0522C52.4934 25.5922 49.7472 27.1488 47.0397 28.7717C46.6975 28.9759 46.3746 29.5307 46.369 29.9309C46.3138 33.0993 46.3221 36.2678 46.3608 39.439C46.3635 39.7785 46.5898 40.267 46.8658 40.4326C49.6838 42.1162 52.5348 43.7501 55.2313 45.3094C56.1062 44.7989 56.8431 44.429 57.5028 43.9543C57.8422 43.7114 58.2645 43.2726 58.2673 42.9221C58.3142 37.4104 58.3087 31.8988 58.2756 26.3871C58.2728 26.078 57.9858 25.6667 57.7098 25.4846C56.9563 24.985 56.1393 24.5876 55.1651 24.0522ZM14.588 45.2294C17.2017 43.728 19.912 42.2017 22.5781 40.6009C22.9121 40.3995 23.1798 39.8061 23.1881 39.3893C23.2377 36.1298 23.2295 32.8703 23.1963 29.6135C23.1936 29.2492 23.0473 28.7165 22.7879 28.5537C20.1604 26.9087 17.4915 25.3273 14.9799 23.8148C14.094 24.3916 13.4288 25.0568 12.6367 25.2859C11.6707 25.5646 11.6017 26.0945 11.6072 26.9004C11.6293 32.0864 11.6431 37.2752 11.5934 42.4612C11.5851 43.394 11.8308 43.8577 12.7443 44.1337C13.3736 44.3214 13.9118 44.8127 14.588 45.2294ZM30.9518 10.1695C25.8873 13.0923 20.7041 16.0896 15.6837 18.9904C15.6837 19.9232 15.7527 20.6602 15.6644 21.3805C15.5788 22.0981 15.8797 22.4403 16.4565 22.7798C18.8273 24.1736 21.154 25.6419 23.5386 27.0108C23.9194 27.2289 24.6177 27.2648 24.9986 27.0633C27.8331 25.5591 30.6317 23.9887 33.4137 22.3907C33.7394 22.203 34.0955 21.7227 34.101 21.3722C34.1534 18.2038 34.1313 15.0353 34.1313 11.9911C33.0384 11.3591 32.0586 10.8015 30.9518 10.1695ZM34.1727 45.9111C34.1727 42.4032 34.1976 39.1961 34.1396 35.989C34.1313 35.5999 33.7725 35.081 33.422 34.8602C31.6832 33.759 29.8948 32.7378 28.1229 31.6918C27.0741 31.0735 26.0253 30.458 24.7806 29.7267C24.7806 33.207 24.764 36.4472 24.8054 39.6846C24.8109 40.0324 25.0648 40.5209 25.3546 40.6975C28.2002 42.4225 31.0788 44.0923 34.1727 45.9111ZM35.7708 45.889C37.849 44.6719 39.7037 43.601 41.5446 42.5081C42.6458 41.854 44.139 41.3986 44.6937 40.4215C45.2513 39.439 44.8759 37.921 44.8814 36.6376C44.8925 34.4572 44.8842 32.2769 44.8842 29.826C41.8178 31.6559 38.9916 33.3257 36.193 35.0424C35.9557 35.1886 35.7901 35.6413 35.7873 35.9531C35.7597 39.163 35.7708 42.3756 35.7708 45.889ZM26.0391 28.5758C28.9398 30.3201 31.6391 31.9567 34.3604 33.5603C34.6309 33.7203 35.1111 33.839 35.3347 33.7065C38.0836 32.0781 40.8022 30.3973 43.6311 28.6696C40.6587 26.8204 37.8214 25.0568 34.9234 23.2518C32.0282 24.9878 29.133 26.7211 26.0391 28.5758ZM31.686 6.94587C31.7108 8.69845 33.2371 10.1999 34.9648 10.1723C36.7257 10.1447 38.1912 8.64325 38.1774 6.87411C38.1664 5.12429 36.6539 3.6477 34.8903 3.6615C33.1543 3.6753 31.6612 5.20432 31.686 6.94587ZM14.0553 20.834C14.0746 19.029 12.6808 17.5635 10.9089 17.5221C9.18949 17.4834 7.67702 18.9821 7.66046 20.7374C7.6439 22.5369 9.05149 24.019 10.8096 24.0522C12.5649 24.0853 14.0388 22.6253 14.0553 20.834ZM34.9317 65.747C36.6733 65.7443 38.2023 64.2235 38.1912 62.5068C38.1802 60.7542 36.7036 59.297 34.9262 59.2859C33.1515 59.2749 31.6888 60.7322 31.6888 62.5096C31.6888 64.2594 33.1847 65.7498 34.9317 65.747ZM55.9379 48.4669C55.8882 50.3381 57.3013 51.8119 59.156 51.823C60.8258 51.834 62.2913 50.385 62.3272 48.6876C62.3631 46.8495 61.0438 45.4198 59.2388 45.3426C57.4531 45.268 55.9848 46.6563 55.9379 48.4669ZM55.9351 20.8064C55.9406 22.6004 57.3841 24.0632 59.1477 24.0604C60.8782 24.0577 62.3327 22.5535 62.3299 20.7733C62.3272 19.0125 60.8478 17.5221 59.1118 17.5221C57.3703 17.5248 55.9323 19.0125 55.9351 20.8064ZM14.0498 48.6076C14.0553 46.7777 12.6808 45.3564 10.8869 45.3398C9.10669 45.326 7.6715 46.7501 7.66046 48.5469C7.64666 50.3354 9.06805 51.8092 10.8261 51.8285C12.576 51.8478 14.0443 50.3823 14.0498 48.6076Z" fill="#2776EA"/>
</g>
</svg>
