<svg width="290" height="138" viewBox="0 0 290 138" fill="none" xmlns="http://www.w3.org/2000/svg">
<g filter="url(#filter0_d_755_738472)">
<path d="M27 53C27 37.9151 27 30.3726 31.6863 25.6863C36.3726 21 43.9151 21 59 21H230.2C245.285 21 252.827 21 257.514 25.6863C262.2 30.3726 262.2 37.9151 262.2 53V71.3399C262.2 86.4249 262.2 93.9673 257.514 98.6536C252.827 103.34 245.285 103.34 230.2 103.34H59C43.915 103.34 36.3726 103.34 31.6863 98.6536C27 93.9673 27 86.4249 27 71.3399V53Z" fill="white"/>
<path d="M27 21H262.2H27ZM262.2 87.3399C262.2 96.7288 254.589 104.34 245.2 104.34H44C34.6112 104.34 27 96.7288 27 87.3399C27 95.6242 34.1634 102.34 43 102.34H246.2C255.037 102.34 262.2 95.6242 262.2 87.3399ZM27 103.34V21V103.34ZM262.2 21V103.34V21Z" fill="#0274BA"/>
</g>
<path d="M123.634 86.9777L119 35H169.919L165.283 86.9695L144.429 92.75L123.634 86.9777Z" fill="#1572B6"/>
<path d="M144.459 88.3308L161.309 83.6585L165.274 39.2488H144.459V88.3308Z" fill="#33A9DC"/>
<path d="M144.459 58.0807H152.896L153.477 51.5522H144.459V45.1777H144.481H160.445L160.291 46.8882L158.724 64.4552H144.459V58.0807Z" fill="white"/>
<path d="M144.498 74.6358L144.471 74.6441L137.37 72.7273L136.916 67.6426H133.468H130.517L131.411 77.6526L144.468 81.2771L144.498 81.2688V74.6358Z" fill="#EBEBEB"/>
<path d="M152.352 64.1858L151.585 72.7245L144.476 74.6413V81.2743L157.544 77.6525L157.64 76.5745L158.749 64.1858H152.352Z" fill="white"/>
<path d="M144.481 45.1777V49.1377V51.5385V51.5522H129.103H129.084L128.955 50.1195L128.666 46.8882L128.512 45.1777H144.481Z" fill="#EBEBEB"/>
<path d="M144.459 58.0808V62.0408V64.4416V64.4581H137.469H137.45L137.323 63.0253L137.032 59.7913L136.88 58.0808H144.459Z" fill="#EBEBEB"/>
<defs>
<filter id="filter0_d_755_738472" x="0.1" y="0.1" width="289" height="137.14" filterUnits="userSpaceOnUse" color-interpolation-filters="sRGB">
<feFlood flood-opacity="0" result="BackgroundImageFix"/>
<feColorMatrix in="SourceAlpha" type="matrix" values="0 0 0 0 0 0 0 0 0 0 0 0 0 0 0 0 0 0 127 0" result="hardAlpha"/>
<feOffset dy="6"/>
<feGaussianBlur stdDeviation="13.45"/>
<feComposite in2="hardAlpha" operator="out"/>
<feColorMatrix type="matrix" values="0 0 0 0 0.546429 0 0 0 0 0.546429 0 0 0 0 0.546429 0 0 0 0.19 0"/>
<feBlend mode="normal" in2="BackgroundImageFix" result="effect1_dropShadow_755_738472"/>
<feBlend mode="normal" in="SourceGraphic" in2="effect1_dropShadow_755_738472" result="shape"/>
</filter>
</defs>
</svg>
