<svg width="60" height="63" viewBox="0 0 60 63" fill="none" xmlns="http://www.w3.org/2000/svg">
<path d="M41.8203 38.6598C41.8154 38.6825 41.8109 38.7071 41.808 38.7236L41.7309 38.9625L41.8487 39.2254C42.0716 39.7226 42.469 40.1162 42.783 40.4109C42.8623 40.4853 42.9372 40.5544 43.0079 40.6196C43.2546 40.8471 43.4506 41.0277 43.6057 41.2266C43.7848 41.4561 43.8201 41.603 43.8032 41.7364C43.7824 41.9002 43.6597 42.2208 43.135 42.7327L42.5738 43.2802L43.1456 43.8166C43.7989 44.4295 44.4149 45.0225 45.0662 45.6495C45.2888 45.8638 45.5156 46.0821 45.7494 46.3065L46.196 46.7353L46.7016 46.3779C47.3352 45.9301 47.8099 45.9037 48.2344 46.0407C48.7246 46.199 49.256 46.6108 49.8811 47.2732C51.8326 49.3741 53.8363 51.428 55.8355 53.4772C56.6664 54.329 57.4966 55.1799 58.3218 56.033C59.0319 56.7754 59.25 57.2912 59.25 57.699C59.25 58.1084 59.0304 58.6291 58.318 59.3816C57.6323 60.103 57.122 60.6018 56.6973 60.9217C56.2751 61.2398 56.0195 61.3171 55.8387 61.3189C55.6597 61.3208 55.4084 61.2501 54.9912 60.9437C54.5701 60.6345 54.0639 60.1488 53.3819 59.4436L49.4994 55.43L45.617 51.4163C44.804 50.5759 44.5567 50.2021 44.492 49.8788C44.4287 49.5618 44.5122 49.1478 44.9396 48.108L45.1202 47.6687L44.8003 47.3176C44.3944 46.8724 44.0093 46.454 43.6275 46.039C43.2279 45.6049 42.8318 45.1744 42.4189 44.7209L41.97 44.2278L41.4278 44.6159C40.9906 44.9288 40.7066 45.13 40.4842 45.255C40.329 45.3422 40.2583 45.3596 40.2379 45.3629C40.2183 45.3553 40.159 45.326 40.0437 45.2267C39.8604 45.0688 39.63 44.8195 39.2752 44.4225C38.885 43.9843 38.4185 43.5571 37.7928 43.4619C37.1533 43.3647 36.5693 43.6444 36.0252 44.0164C22.2234 53.4303 3.51093 44.8245 1.00879 27.8308L1.00868 27.83C-0.892012 15.0088 7.8917 2.76627 20.1777 0.991345L20.1778 0.991333C32.9248 -0.851616 44.4339 8.05968 46.1448 21.3575L46.1448 21.3581C46.8885 27.0996 45.6578 32.4879 42.5541 37.3673C42.3608 37.6671 42.1684 37.9814 41.9812 38.2879C41.9302 38.358 41.8973 38.4253 41.876 38.4773C41.8452 38.5524 41.829 38.6192 41.8203 38.6598ZM40.2314 45.3637C40.2313 45.3637 40.2318 45.3636 40.2328 45.3636C40.2319 45.3637 40.2314 45.3637 40.2314 45.3637ZM40.2422 45.3645C40.2444 45.3649 40.2455 45.3653 40.2454 45.3653C40.2453 45.3654 40.2443 45.3652 40.2422 45.3645ZM23.5614 3.61391C12.4394 3.61391 3.48079 12.911 3.48079 24.3311C3.48079 35.7176 12.5214 45.0827 23.5952 45.0651C34.6024 45.0476 43.6251 35.6836 43.642 24.3659C43.6589 12.9966 34.6518 3.61391 23.5614 3.61391Z" stroke="#2776EA" stroke-width="1.5"/>
<path d="M31.3909 19.3502L31.3908 19.3502C31.4153 22.8826 31.4123 26.4065 31.4092 29.9246C31.4082 31.096 31.4072 32.2668 31.4072 33.437C31.4072 33.5536 31.413 33.6656 31.4222 33.7831H31.4298H31.4381H31.4465H31.4548H31.4632H31.4715H31.4799H31.4882H31.4966H31.5049H31.5133H31.5216H31.53H31.5383H31.5467H31.555H31.5634H31.5717H31.58H31.5884H31.5967H31.605H31.6134H31.6217H31.63H31.6384H31.6467H31.655H31.6634H31.6717H31.68H31.6883H31.6966H31.705H31.7133H31.7216H31.7299H31.7382H31.7466H31.7549H31.7632H31.7715H31.7798H31.7881H31.7965H31.8048H31.8131H31.8214H31.8297H31.838H31.8463H31.8546H31.8629H31.8712H31.8795H31.8878H31.8961H31.9044H31.9127H31.921H31.9293H31.9376H31.9459H31.9542H31.9625H31.9708H31.9791H31.9874H31.9957H32.004H32.0123H32.0206H32.0289H32.0372H32.0455H32.0537H32.062H32.0703H32.0786H32.0869H32.0952H32.1035H32.1118H32.12H32.1283H32.1366H32.1449H32.1532H32.1615H32.1698H32.178H32.1863H32.1946H32.2029H32.2112H32.2195H32.2277H32.236H32.2443H32.2526H32.2609H32.2691H32.2774H32.2857H32.294H32.3023H32.3105H32.3188H32.3271H32.3354H32.3437H32.3519H32.3602H32.3685H32.3768H32.385H32.3933H32.4016H32.4099H32.4182H32.4264H32.4347H32.443H32.4513H32.4595H32.4678H32.4761H32.4844H32.4926H32.5009H32.5092H32.5175H32.5258H32.534H32.5423H32.5506H32.5589H32.5672H32.5754H32.5837H32.592H32.6003H32.6085H32.6168H32.6251H32.6334H32.6417H32.6499H32.6582H32.6665H32.6748H32.6831H32.6914H32.6996H32.7079H32.7162H32.7245H32.7328H32.7411H32.7493H32.7576H32.7659H32.7742H32.7825H32.7908H32.7991H32.8073H32.8156H32.8239H32.8322H32.8405H32.8488H32.8571H32.8654H32.8737H32.8819H32.8902H32.8985H32.9068H32.9151H32.9234H32.9317H32.94H32.9483H32.9566H32.9649H32.9732H32.9815H32.9898H32.9981H33.0064H33.0147H33.023H33.0313H33.0396H33.0479H33.0562H33.0645H33.0728H33.0812H33.0895H33.0978H33.1061H33.1144H33.1227H33.131H33.1393H33.1477H33.156H33.1643H33.1726H33.1809H33.1892H33.1976H33.2059H33.2142H33.2225H33.2309H33.2392H33.2475H33.2558H33.2642H33.2725H33.2808H33.2892H33.2975H33.3058H33.3142H33.3225H33.3309H33.3392H33.3475H33.3559H33.3642H33.3726H33.3809H33.3893H33.3976H33.406H33.4143H33.4227H33.431H33.4394H33.4477H33.4561H33.4644H33.4728H33.4812H33.4895H33.4979H33.5062H33.5146H33.523H33.5314H33.5397H33.5481H33.5565H33.5648H33.5732H33.5816H33.59H33.5984H33.6067H33.6151H33.6235H33.6319H33.6403H33.6487H33.6571H33.6655H33.6739H33.6823H33.6907H33.6991H33.7075H33.7159H33.7243H33.7327H33.7411H33.7495H33.7579H33.7663H33.7747H33.7831H33.7916H33.8H33.8084H33.8168H33.8253H33.8337H33.8421H33.8505H33.859H33.8674H33.8759H33.8843H33.8927H33.9012H33.9096H33.9181H33.9265H33.935H33.9434H33.9519H33.9603H33.9688H33.9772H33.9857H33.9942H34.0026H34.0111H34.0196H34.028H34.0365H34.045H34.0535H34.062H34.0704H34.0789H34.0874H34.0959H34.1044H34.1129H34.1214H34.1299H34.1384H34.1469H34.1554H34.1639H34.1724H34.1809H34.1894H34.1979H34.2065H34.215H34.2235H34.232H34.2406H34.2491H34.2576H34.2661H34.2747H34.2832H34.2918H34.297C34.2989 33.5101 34.3029 33.2424 34.3116 32.9696V32.9588V32.936V32.9132V32.8903V32.8675V32.8447V32.8218V32.799V32.7762V32.7534V32.7305V32.7077V32.6849V32.662V32.6392V32.6164V32.5935V32.5707V32.5479V32.525V32.5022V32.4794V32.4565V32.4337V32.4109V32.388V32.3652V32.3424V32.3195V32.2967V32.2739V32.251V32.2282V32.2053V32.1825V32.1597V32.1368V32.114V32.0911V32.0683V32.0455V32.0226V31.9998V31.9769V31.9541V31.9313V31.9084V31.8856V31.8627V31.8399V31.817V31.7942V31.7714V31.7485V31.7257V31.7028V31.68V31.6571V31.6343V31.6114V31.5886V31.5657V31.5429V31.5201V31.4972V31.4744V31.4515V31.4287V31.4058V31.383V31.3601V31.3373V31.3144V31.2916V31.2687V31.2459V31.223V31.2002V31.1773V31.1545V31.1316V31.1088V31.0859V31.063V31.0402V31.0173V30.9945V30.9716V30.9488V30.9259V30.9031V30.8802V30.8574V30.8345V30.8116V30.7888V30.7659V30.7431V30.7202V30.6974V30.6745V30.6517V30.6288V30.6059V30.5831V30.5602V30.5374V30.5145V30.4916V30.4688V30.4459V30.4231V30.4002V30.3773V30.3545V30.3316V30.3088V30.2859V30.263V30.2402V30.2173V30.1945V30.1716V30.1487V30.1259V30.103V30.0801V30.0573V30.0344V30.0116V29.9887V29.9658V29.943V29.9201V29.8972V29.8744V29.8515V29.8286V29.8058V29.7829V29.76V29.7372V29.7143V29.6915V29.6686V29.6457V29.6229V29.6V29.5771V29.5543V29.5314V29.5085V29.4857V29.4628V29.4399V29.4171V29.3942V29.3713V29.3484V29.3256V29.3027V29.2798V29.257V29.2341V29.2112V29.1884V29.1655V29.1426V29.1198V29.0969V29.074V29.0511V29.0283V29.0054V28.9825V28.9597V28.9368V28.9139V28.8911V28.8682V28.8453V28.8224V28.7996V28.7767V28.7538V28.731V28.7081V28.6852V28.6623V28.6395V28.6166V28.5937V28.5709V28.548V28.5251V28.5022V28.4794V28.4565V28.4336V28.4107V28.3879V28.365V28.3421V28.3193V28.2964V28.2735V28.2506V28.2278V28.2049V28.182V28.1591V28.1363V28.1134V28.0905V28.0676V28.0448V28.0219V27.999V27.9761V27.9533V27.9304V27.9075V27.8846V27.8618V27.8389V27.816V27.7931V27.7703V27.7474V27.7245V27.7016V27.6788V27.6559V27.633V27.6101V27.5873V27.5644V27.5415V27.5186V27.4958V27.4729V27.45V27.4271V27.4043V27.3814V27.3585V27.3356V27.3128V27.2899V27.267V27.2441V27.2213V27.1984V27.1755V27.1526V27.1298V27.1069V27.084V27.0611V27.0383V27.0154V26.9925V26.9696V26.9468V26.9239V26.901V26.8781V26.8553V26.8324V26.8095V26.7866V26.7638V26.7409V26.718V26.6951V26.6723V26.6494V26.6265V26.6036V26.5808V26.5579V26.535V26.5121V26.4893V26.4664V26.4435V26.4206V26.3978V26.3749V26.352V26.3291V26.3063V26.2834V26.2605V26.2376V26.2148V26.1919V26.169V26.1462V26.1233V26.1004V26.0775V26.0547V26.0318V26.0089V25.986V25.9632V25.9403V25.9174V25.8945V25.8717V25.8488V25.8259V25.8031V25.7802V25.7573V25.7344V25.7116V25.6887V25.6658V25.6429V25.6201V25.5972V25.5743V25.5515V25.5286V25.5057V25.4828V25.46V25.4371V25.4142V25.3914V25.3685V25.3456V25.3227V25.2999V25.277V25.2541V25.2313V25.2084V25.1855V25.1627V25.1398V25.1169V25.094V25.0712V25.0483V25.0254V25.0026V24.9797V24.9568V24.934V24.9111V24.8882V24.8654V24.8425V24.8196V24.7968V24.7739V24.751V24.7282V24.7053V24.6824V24.6596V24.6367V24.6138V24.591V24.5681V24.5452V24.5224V24.4995V24.4766V24.4538V24.4309V24.408V24.3852V24.3623V24.3394V24.3166V24.2937V24.2708V24.248V24.2251V24.2023V24.1794V24.1565V24.1337V24.1108V24.0879V24.0651V24.0422V24.0194V23.9965V23.9736V23.9508V23.9279V23.9051V23.8822V23.8593V23.8365V23.8136V23.7908V23.7679V23.745V23.7222V23.6993V23.6765V23.6536V23.6307V23.6079V23.585V23.5622V23.5393V23.5165V23.4936V23.4707V23.4479V23.425V23.4022V23.3793V23.3565V23.3336V23.3108V23.2879V23.2651V23.2422V23.2193V23.1965V23.1736V23.1508V23.1279V23.1051V23.0822V23.0594V23.0365V23.0137V22.9908V22.968V22.9451V22.9223V22.8994V22.8766V22.8537V22.8309V22.808V22.7852V22.7623V22.7395V22.7166V22.6938V22.6709V22.6481V22.6253V22.6024V22.5796V22.5567V22.5339V22.511V22.4882V22.4653V22.4425V22.4197V22.3968V22.374V22.3511V22.3283V22.3054V22.2826V22.2598V22.2369V22.2141V22.1912V22.1684V22.1456V22.1227V22.0999V22.077V22.0542V22.0314V22.0085V21.9857V21.9628V21.94V21.9172V21.8943V21.8715V21.8487V21.8258V21.803V21.7802V21.7573V21.7345V21.7117V21.6888V21.666V21.6432V21.6203V21.5975V21.5747V21.5518V21.529V21.5062V21.4834V21.4605V21.4377V21.4149V21.392V21.3692V21.3464V21.3236V21.3007V21.2779C34.3116 20.4334 34.3105 19.8648 34.2658 19.454C34.2202 19.0348 34.1425 18.95 34.1304 18.9379C34.1202 18.9278 34.0412 18.8528 33.6336 18.8134C33.241 18.7754 32.7045 18.781 31.9108 18.7894L31.3909 19.3502ZM31.3909 19.3502L31.3907 19.3427C31.3871 19.1304 31.4003 18.9952 31.4193 18.9098C31.4264 18.8781 31.4331 18.8581 31.4378 18.8467C31.4711 18.8317 31.5808 18.795 31.8586 18.7899L31.3909 19.3502ZM31.444 18.8339C31.444 18.834 31.4437 18.8345 31.443 18.8355L31.444 18.8339ZM31.4269 18.8523C31.4261 18.8529 31.4257 18.8532 31.4257 18.8531L31.4269 18.8523Z" stroke="#2776EA" stroke-width="1.5"/>
<path d="M17.9817 33.8567V33.854V33.8307V33.8073V33.784V33.7607V33.7373V33.714V33.6907V33.6674V33.644V33.6207V33.5974V33.5741V33.5508V33.5275V33.5042V33.4809V33.4576V33.4343V33.411V33.3877V33.3644V33.3411V33.3178V33.2945V33.2712V33.2479V33.2246V33.2014V33.1781V33.1548V33.1315V33.1083V33.085V33.0617V33.0384V33.0152V32.9919V32.9687V32.9454V32.9221V32.8989V32.8756V32.8524V32.8291V32.8059V32.7826V32.7594V32.7361V32.7129V32.6896V32.6664V32.6432V32.6199V32.5967V32.5735V32.5502V32.527V32.5038V32.4806V32.4573V32.4341V32.4109V32.3877V32.3644V32.3412V32.318V32.2948V32.2716V32.2484V32.2252V32.2019V32.1787V32.1555V32.1323V32.1091V32.0859V32.0627V32.0395V32.0163V31.9931V31.9699V31.9467V31.9235V31.9003V31.8772V31.854V31.8308V31.8076V31.7844V31.7612V31.738V31.7149V31.6917V31.6685V31.6453V31.6221V31.599V31.5758V31.5526V31.5294V31.5063V31.4831V31.4599V31.4367V31.4136V31.3904V31.3672V31.3441V31.3209V31.2977V31.2746V31.2514V31.2283V31.2051V31.1819V31.1588V31.1356V31.1125V31.0893V31.0661V31.043V31.0198V30.9967V30.9735V30.9504V30.9272V30.9041V30.8809V30.8578V30.8346V30.8115V30.7883V30.7652V30.742V30.7189V30.6957V30.6726V30.6494V30.6263V30.6031V30.58V30.5569V30.5337V30.5106V30.4874V30.4643V30.4412V30.418V30.3949V30.3717V30.3486V30.3255V30.3023V30.2792V30.256V30.2329V30.2098V30.1866V30.1635V30.1404V30.1172V30.0941V30.071V30.0478V30.0247V30.0015V29.9784V29.9553V29.9321V29.909V29.8859V29.8627V29.8396V29.8165V29.7933V29.7702V29.7471V29.7239V29.7008V29.6777V29.6545V29.6314V29.6083V29.5851V29.562V29.5389V29.5157V29.4926V29.4695V29.4463V29.4232V29.4001V29.3769V29.3538V29.3306V29.3075V29.2844V29.2612V29.2381V29.215V29.1918V29.1687V29.1456V29.1224V29.0993V29.0761V29.053V29.0299V29.0067V28.9836V28.9604V28.9373V28.9142V28.891V28.8679V28.8447V28.8216V28.7984V28.7753V28.7522V28.729V28.7059V28.6827V28.6596V28.6364V28.6133V28.5901V28.567V28.5438V28.5207V28.4975V28.4744V28.4512V28.4281V28.4049V28.3818V28.3586V28.3355V28.3123V28.2891V28.266V28.2428V28.2197V28.1965V28.1733V28.1502V28.127V28.1038V28.0807V28.0575V28.0343V28.0112V27.988V27.9648V27.9417V27.9185V27.8953V27.8722V27.849V27.8258V27.8026V27.7794V27.7563V27.7331V27.7099V27.6867V27.6635V27.6404V27.6172V27.594V27.5708V27.5476V27.5244V27.5012V27.478V27.4548V27.4316V27.4085V27.3853V27.3621V27.3389V27.3157V27.2924V27.2692V27.246V27.2228V27.1996V27.1764V27.1532V27.13V27.1068V27.0836V27.0603V27.0371V27.0139V26.9907V26.9675V26.9442V26.921V26.8978V26.8746V26.8513V26.8281V26.8049V26.7816V26.7584V26.7352V26.7119V26.6887V26.6654V26.6422V26.6189V26.5957V26.5724V26.5492V26.5259V26.5027V26.4794V26.4562V26.4329V26.4096V26.3864V26.3631V26.3398V26.3166V26.2933V26.27V26.2467V26.2235V26.2002V26.1769V26.1536V26.1303V26.107V26.0838V26.0605V26.0372V26.0139V25.9906V25.9673V25.944V25.9207V25.8974V25.8741V25.8508V25.8274V25.8041V25.7808V25.7575V25.7342V25.7109V25.6875V25.6642V25.6409V25.6175V25.5942V25.5709V25.5475V25.5242V25.5008V25.4775V25.4542V25.4308V25.4074V25.3841V25.3607V25.3374V25.314V25.2907V25.2673V25.2439V25.2205V25.1972V25.1738V25.1504V25.127V25.1036V25.0803V25.0569V25.0335V25.0101V24.9867V24.9633V24.9399V24.9165V24.8931V24.8697V24.8462V24.8228V24.7994V24.776V24.7526V24.7291V24.7057V24.6823V24.6588V24.6354V24.612V24.5885V24.5651V24.5416V24.5182V24.4947V24.4713V24.4478V24.4243V24.4009V24.3774V24.3539V24.3305V24.307V24.2835V24.26V24.2365V24.213V24.1895V24.1661V24.1426V24.119V24.0955V24.072V24.0485V24.025V24.0015V23.978V23.9544V23.9309V23.9074V23.8839V23.8603V23.8368V23.8132V23.7897V23.7661V23.7426V23.719V23.6955V23.6719V23.6483V23.6248V23.6012V23.5776V23.554V23.5305V23.5069V23.4833V23.4597V23.4361V23.4245C18.0788 23.4234 18.1749 23.4223 18.27 23.4212C19.0688 23.4118 19.7994 23.4032 20.5318 23.4534C20.5333 23.4547 20.5349 23.4561 20.5365 23.4576C20.5534 23.4729 20.5717 23.4913 20.59 23.512C20.6082 23.5328 20.6248 23.5539 20.6388 23.574C20.6469 23.5856 20.6535 23.5959 20.6588 23.6048C20.7063 26.9535 20.7063 30.3024 20.659 33.6675C20.6543 33.6748 20.6487 33.6829 20.6422 33.6919C20.6276 33.7121 20.6101 33.7337 20.5905 33.7554C20.5709 33.777 20.5509 33.7969 20.5317 33.814C20.5256 33.8195 20.5198 33.8245 20.5144 33.829C19.7878 33.8779 19.0624 33.8693 18.27 33.86C18.1749 33.8589 18.0788 33.8578 17.9817 33.8567Z" stroke="#2776EA" stroke-width="1.5"/>
<path d="M27.3927 25.9768C27.4243 26.0193 27.4481 26.0611 27.4615 26.0911C27.5089 28.6193 27.5091 31.1296 27.4466 33.6545C27.4435 33.6589 27.4399 33.6636 27.4361 33.6686C27.4216 33.6874 27.404 33.7079 27.384 33.7285C27.3501 33.7636 27.3169 33.7915 27.2906 33.8105C26.5449 33.8611 25.8085 33.8525 25.0062 33.8431C24.9115 33.842 24.8159 33.8409 24.7192 33.8398V33.8374V33.8188V33.8002V33.7816V33.763V33.7444V33.7258V33.7072V33.6886V33.67V33.6514V33.6328V33.6143V33.5957V33.5771V33.5586V33.54V33.5214V33.5029V33.4843V33.4658V33.4472V33.4287V33.4102V33.3916V33.3731V33.3546V33.336V33.3175V33.299V33.2805V33.262V33.2435V33.2249V33.2064V33.1879V33.1694V33.151V33.1325V33.114V33.0955V33.077V33.0585V33.0401V33.0216V33.0031V32.9846V32.9662V32.9477V32.9293V32.9108V32.8924V32.8739V32.8555V32.837V32.8186V32.8001V32.7817V32.7633V32.7448V32.7264V32.708V32.6896V32.6711V32.6527V32.6343V32.6159V32.5975V32.5791V32.5607V32.5423V32.5239V32.5055V32.4871V32.4687V32.4503V32.4319V32.4136V32.3952V32.3768V32.3584V32.3401V32.3217V32.3033V32.285V32.2666V32.2482V32.2299V32.2115V32.1932V32.1748V32.1565V32.1381V32.1198V32.1014V32.0831V32.0648V32.0464V32.0281V32.0098V31.9914V31.9731V31.9548V31.9365V31.9181V31.8998V31.8815V31.8632V31.8449V31.8266V31.8083V31.7899V31.7716V31.7533V31.735V31.7167V31.6984V31.6801V31.6619V31.6436V31.6253V31.607V31.5887V31.5704V31.5521V31.5339V31.5156V31.4973V31.479V31.4608V31.4425V31.4242V31.4059V31.3877V31.3694V31.3512V31.3329V31.3146V31.2964V31.2781V31.2599V31.2416V31.2234V31.2051V31.1869V31.1686V31.1504V31.1321V31.1139V31.0956V31.0774V31.0591V31.0409V31.0227V31.0044V30.9862V30.968V30.9497V30.9315V30.9133V30.8951V30.8768V30.8586V30.8404V30.8222V30.8039V30.7857V30.7675V30.7493V30.7311V30.7128V30.6946V30.6764V30.6582V30.64V30.6218V30.6036V30.5854V30.5672V30.5489V30.5307V30.5125V30.4943V30.4761V30.4579V30.4397V30.4215V30.4033V30.3851V30.3669V30.3487V30.3305V30.3123V30.2941V30.276V30.2578V30.2396V30.2214V30.2032V30.185V30.1668V30.1486V30.1304V30.1122V30.094V30.0759V30.0577V30.0395V30.0213V30.0031V29.9849V29.9667V29.9486V29.9304V29.9122V29.894V29.8758V29.8577V29.8395V29.8213V29.8031V29.7849V29.7667V29.7486V29.7304V29.7122V29.694V29.6759V29.6577V29.6395V29.6213V29.6031V29.585V29.5668V29.5486V29.5304V29.5123V29.4941V29.4759V29.4577V29.4395V29.4214V29.4032V29.385V29.3668V29.3487V29.3305V29.3123V29.2941V29.276V29.2578V29.2396V29.2214V29.2032V29.1851V29.1669V29.1487V29.1305V29.1124V29.0942V29.076V29.0578V29.0396V29.0215V29.0033V28.9851V28.9669V28.9487V28.9306V28.9124V28.8942V28.876V28.8578V28.8396V28.8215V28.8033V28.7851V28.7669V28.7487V28.7305V28.7123V28.6941V28.676V28.6578V28.6396V28.6214V28.6032V28.585V28.5668V28.5486V28.5304V28.5122V28.494V28.4758V28.4576V28.4394V28.4212V28.403V28.3848V28.3666V28.3484V28.3302V28.312V28.2938V28.2756V28.2574V28.2392V28.221V28.2028V28.1846V28.1664V28.1482V28.1299V28.1117V28.0935V28.0753V28.0571V28.0389V28.0206V28.0024V27.9842V27.966V27.9478V27.9295V27.9113V27.8931V27.8748V27.8566V27.8384V27.8201V27.8019V27.7837V27.7654V27.7472V27.729V27.7107V27.6925V27.6742V27.656V27.6377V27.6195V27.6012V27.583V27.5647V27.5465V27.5282V27.51V27.4917V27.4734V27.4552V27.4369V27.4186V27.4004V27.3821V27.3638V27.3456V27.3273V27.309V27.2907V27.2725V27.2542V27.2359V27.2176V27.1993V27.181V27.1627V27.1444V27.1261V27.1079V27.0896V27.0713V27.053V27.0346V27.0163V26.998V26.9797V26.9614V26.9431V26.9248V26.9065V26.8881V26.8698V26.8515V26.8332V26.8148V26.7965V26.7782V26.7598V26.7415V26.7232V26.7048V26.6865V26.6681V26.6498V26.6314V26.6131V26.5947V26.5764V26.558V26.5396V26.5213V26.5029V26.4845V26.4662V26.4478V26.4294V26.411V26.3927V26.3743V26.3559V26.3375V26.3191V26.3007V26.2823V26.2639V26.2455V26.2271V26.2087V26.1903V26.1719V26.1535V26.135V26.1166V26.0982V26.0798V26.0613V26.0429V26.0245V26.006V25.9876V25.9692V25.9507V25.9374C24.8244 25.9363 24.9286 25.9351 25.0319 25.934C25.8467 25.9248 26.6107 25.9162 27.3817 25.9624C27.3853 25.967 27.389 25.9718 27.3927 25.9768Z" stroke="#2776EA" stroke-width="1.5"/>
<path d="M13.9386 28.8066C13.9394 29.0734 13.9405 29.3361 13.9415 29.5954C13.9475 31.0206 13.9531 32.3412 13.9069 33.6654C13.9053 33.6693 13.9033 33.674 13.9009 33.6794C13.8845 33.7162 13.8581 33.7627 13.8256 33.8079C13.8242 33.8098 13.8228 33.8118 13.8214 33.8137C13.0574 33.8585 12.2998 33.85 11.4924 33.8409C11.389 33.8398 11.2848 33.8386 11.1797 33.8375V33.8263V33.8133V33.8004V33.7874V33.7745V33.7615V33.7486V33.7357V33.7227V33.7098V33.6968V33.6839V33.671V33.6581V33.6451V33.6322V33.6193V33.6064V33.5935V33.5806V33.5677V33.5548V33.5419V33.529V33.5161V33.5032V33.4903V33.4774V33.4645V33.4516V33.4387V33.4259V33.413V33.4001V33.3872V33.3744V33.3615V33.3486V33.3358V33.3229V33.31V33.2972V33.2843V33.2715V33.2586V33.2458V33.233V33.2201V33.2073V33.1944V33.1816V33.1688V33.1559V33.1431V33.1303V33.1175V33.1046V33.0918V33.079V33.0662V33.0534V33.0406V33.0278V33.015V33.0022V32.9894V32.9766V32.9638V32.951V32.9382V32.9254V32.9126V32.8998V32.887V32.8742V32.8615V32.8487V32.8359V32.8231V32.8103V32.7976V32.7848V32.772V32.7593V32.7465V32.7337V32.721V32.7082V32.6955V32.6827V32.67V32.6572V32.6445V32.6317V32.619V32.6062V32.5935V32.5807V32.568V32.5553V32.5425V32.5298V32.5171V32.5043V32.4916V32.4789V32.4662V32.4534V32.4407V32.428V32.4153V32.4026V32.3898V32.3771V32.3644V32.3517V32.339V32.3263V32.3136V32.3009V32.2882V32.2755V32.2628V32.2501V32.2374V32.2247V32.212V32.1993V32.1866V32.1739V32.1612V32.1485V32.1358V32.1231V32.1105V32.0978V32.0851V32.0724V32.0597V32.0471V32.0344V32.0217V32.009V31.9964V31.9837V31.971V31.9584V31.9457V31.933V31.9204V31.9077V31.895V31.8824V31.8697V31.857V31.8444V31.8317V31.8191V31.8064V31.7938V31.7811V31.7684V31.7558V31.7431V31.7305V31.7178V31.7052V31.6925V31.6799V31.6673V31.6546V31.642V31.6293V31.6167V31.604V31.5914V31.5788V31.5661V31.5535V31.5408V31.5282V31.5156V31.5029V31.4903V31.4777V31.465V31.4524V31.4398V31.4272V31.4145V31.4019V31.3893V31.3766V31.364V31.3514V31.3388V31.3261V31.3135V31.3009V31.2883V31.2756V31.263V31.2504V31.2378V31.2252V31.2125V31.1999V31.1873V31.1747V31.1621V31.1494V31.1368V31.1242V31.1116V31.099V31.0864V31.0737V31.0611V31.0485V31.0359V31.0233V31.0107V30.9981V30.9855V30.9728V30.9602V30.9476V30.935V30.9224V30.9098V30.8972V30.8846V30.872V30.8593V30.8467V30.8341V30.8215V30.8089V30.7963V30.7837V30.7711V30.7585V30.7459V30.7332V30.7206V30.708V30.6954V30.6828V30.6702V30.6576V30.645V30.6324V30.6198V30.6072V30.5946V30.5819V30.5693V30.5567V30.5441V30.5315V30.5189V30.5063V30.4937V30.4811V30.4685V30.4558V30.4432V30.4306V30.418V30.4054V30.3928V30.3802V30.3676V30.355V30.3424V30.3297V30.3171V30.3045V30.2919V30.2793V30.2667V30.2541V30.2414V30.2288V30.2162V30.2036V30.191V30.1784V30.1657V30.1531V30.1405V30.1279V30.1153V30.1027V30.09V30.0774V30.0648V30.0522V30.0396V30.0269V30.0143V30.0017V29.9891V29.9764V29.9638V29.9512V29.9386V29.9259V29.9133V29.9007V29.888V29.8754V29.8628V29.8502V29.8375V29.8249V29.8123V29.7996V29.787V29.7744V29.7617V29.7491V29.7364V29.7238V29.7112V29.6985V29.6859V29.6732V29.6606V29.6479V29.6353V29.6227V29.61V29.5974V29.5847V29.5721V29.5594V29.5468V29.5341V29.5215V29.5088V29.4961V29.4835V29.4708V29.4582V29.4455V29.4329V29.4202V29.4075V29.3949V29.3822V29.3695V29.3569V29.3442V29.3315V29.3189V29.3062V29.2935V29.2808V29.2682V29.2555V29.2428V29.2301V29.2174V29.2048V29.1921V29.1794V29.1667V29.154V29.1413V29.1286V29.1159V29.1032V29.0906V29.0779V29.0652V29.0525V29.0398V29.0271V29.0144V29.0016V28.9889V28.9762V28.9635V28.9508V28.9381V28.9254V28.9127V28.9V28.8872V28.8745V28.8618V28.8491V28.8364V28.8236V28.8109V28.8066H11.1836H11.1918H11.2H11.2082H11.2163H11.2245H11.2327H11.2409H11.2491H11.2572H11.2654H11.2736H11.2818H11.2899H11.2981H11.3063H11.3145H11.3227H11.3308H11.339H11.3472H11.3554H11.3635H11.3717H11.3799H11.3881H11.3963H11.4044H11.4126H11.4208H11.429H11.4371H11.4453H11.4535H11.4617H11.4699H11.478H11.4862H11.4944H11.5026H11.5108H11.5189H11.5271H11.5353H11.5435H11.5516H11.5598H11.568H11.5762H11.5844H11.5925H11.6007H11.6089H11.6171H11.6253H11.6334H11.6416H11.6498H11.658H11.6662H11.6744H11.6825H11.6907H11.6989H11.7071H11.7153H11.7235H11.7316H11.7398H11.748H11.7562H11.7644H11.7726H11.7808H11.7889H11.7971H11.8053H11.8135H11.8217H11.8299H11.8381H11.8463H11.8544H11.8626H11.8708H11.879H11.8872H11.8954H11.9036H11.9118H11.92H11.9282H11.9364H11.9446H11.9527H11.9609H11.9691H11.9773H11.9855H11.9937H12.0019H12.0101H12.0183H12.0265H12.0347H12.0429H12.0511H12.0593H12.0675H12.0757H12.0839H12.0921H12.1003H12.1085H12.1167H12.125H12.1332H12.1414H12.1496H12.1578H12.166H12.1742H12.1824H12.1906H12.1988H12.207H12.2153H12.2235H12.2317H12.2399H12.2481H12.2563H12.2645H12.2728H12.281H12.2892H12.2974H12.3056H12.3139H12.3221H12.3303H12.3385H12.3468H12.355H12.3632H12.3714H12.3797H12.3879H12.3961H12.4044H12.4126H12.4208H12.4291H12.4373H12.4455H12.4538H12.462H12.4702H12.4785H12.4867H12.4949H12.5032H12.5114H12.5197H12.5279H12.5362H12.5444H12.5527H12.5609H12.5691H12.5774H12.5856H12.5939H12.6021H12.6104H12.6187H12.6269H12.6352H12.6434H12.6517H12.6599H12.6682H12.6765H12.6847H12.693H12.7013H12.7095H12.7178H12.7261H12.7343H12.7426H12.7509H12.7591H12.7674H12.7757H12.784H12.7922H12.8005H12.8088H12.8171H12.8254H12.8336H12.8419H12.8502H12.8585H12.8668H12.8751H12.8834H12.8916H12.8999H12.9082H12.9165H12.9248H12.9331H12.9414H12.9497H12.958H12.9663H12.9746H12.9829H12.9912H12.9995H13.0079H13.0162H13.0245H13.0328H13.0411H13.0494H13.0577H13.066H13.0744H13.0827H13.091H13.0993H13.1077H13.116H13.1243H13.1326H13.141H13.1493H13.1576H13.166H13.1743H13.1826H13.191H13.1993H13.2077H13.216H13.2244H13.2327H13.241H13.2494H13.2577H13.2661H13.2745H13.2828H13.2912H13.2995H13.3079H13.3162H13.3246H13.333H13.3413H13.3497H13.3581H13.3664H13.3748H13.3832H13.3916H13.3999H13.4083H13.4167H13.4251H13.4335H13.4419H13.4502H13.4586H13.467H13.4754H13.4838H13.4922H13.5006H13.509H13.5174H13.5258H13.5342H13.5426H13.551H13.5594H13.5678H13.5763H13.5847H13.5931H13.6015H13.6099H13.6183H13.6268H13.6352H13.6436H13.6521H13.6605H13.6689H13.6773H13.6858H13.6942H13.7027H13.7111H13.7195H13.728H13.7364H13.7449H13.7533H13.7618H13.7702H13.7787H13.7872H13.7956H13.8041H13.8126H13.821H13.8295H13.838H13.8464H13.8549H13.8634H13.8719H13.8803H13.8888H13.8973H13.9058H13.9143H13.9228H13.9313H13.9386Z" stroke="#2776EA" stroke-width="1.5"/>
</svg>
