<svg width="60" height="57" viewBox="0 0 60 57" fill="none" xmlns="http://www.w3.org/2000/svg">
<path d="M50.8705 1.64377L50.8705 1.64377L50.8704 1.63385C50.866 1.3708 50.8822 1.20655 50.9044 1.1057C50.9084 1.08746 50.9122 1.07291 50.9156 1.06154C50.9705 1.04362 51.1022 1.01341 51.3741 1.00837C51.3936 1.00816 51.413 1.00795 51.4322 1.00775C52.4167 0.997271 53.0745 0.990269 53.5542 1.03725C53.7906 1.06042 53.9356 1.09306 54.0248 1.12438C54.0667 1.13909 54.0905 1.15157 54.1025 1.15882C54.1136 1.16548 54.1174 1.16931 54.1183 1.17029L54.1183 1.17031C54.1194 1.17133 54.1243 1.17628 54.1325 1.19021C54.1414 1.20505 54.1554 1.23248 54.1717 1.27881C54.2061 1.37675 54.2414 1.53201 54.268 1.77932C54.3228 2.28867 54.3242 2.9952 54.3242 4.0507V4.07919V4.10769V4.13619V4.16469V4.19318V4.22168V4.25018V4.27868V4.30718V4.33568V4.36418V4.39268V4.42119V4.44969V4.47819V4.50669V4.5352V4.5637V4.59221V4.62071V4.64922V4.67772V4.70623V4.73474V4.76324V4.79175V4.82026V4.84877V4.87728V4.90579V4.9343V4.96281V4.99132V5.01983V5.04834V5.07685V5.10536V5.13388V5.16239V5.1909V5.21942V5.24793V5.27645V5.30496V5.33348V5.36199V5.39051V5.41902V5.44754V5.47606V5.50458V5.5331V5.56161V5.59013V5.61865V5.64717V5.67569V5.70421V5.73273V5.76126V5.78978V5.8183V5.84682V5.87534V5.90387V5.93239V5.96092V5.98944V6.01796V6.04649V6.07501V6.10354V6.13207V6.16059V6.18912V6.21765V6.24617V6.2747V6.30323V6.33176V6.36029V6.38881V6.41734V6.44587V6.4744V6.50293V6.53146V6.56V6.58853V6.61706V6.64559V6.67412V6.70265V6.73119V6.75972V6.78825V6.81679V6.84532V6.87386V6.90239V6.93093V6.95946V6.988V7.01653V7.04507V7.0736V7.10214V7.13068V7.15921V7.18775V7.21629V7.24483V7.27337V7.3019V7.33044V7.35898V7.38752V7.41606V7.4446V7.47314V7.50168V7.53022V7.55876V7.5873V7.61585V7.64439V7.67293V7.70147V7.73001V7.75856V7.7871V7.81564V7.84419V7.87273V7.90127V7.92982V7.95836V7.98691V8.01545V8.04399V8.07254V8.10109V8.12963V8.15818V8.18672V8.21527V8.24382V8.27236V8.30091V8.32946V8.358V8.38655V8.4151V8.44365V8.47219V8.50074V8.52929V8.55784V8.58639V8.61494V8.64349V8.67203V8.70058V8.72913V8.75768V8.78623V8.81478V8.84333V8.87188V8.90043V8.92898V8.95754V8.98609V9.01464V9.04319V9.07174V9.10029V9.12885V9.1574V9.18595V9.2145V9.24305V9.27161V9.30016V9.32871V9.35726V9.38582V9.41437V9.44292V9.47148V9.50003V9.52859V9.55714V9.58569V9.61425V9.6428V9.67136V9.69991V9.72846V9.75702V9.78557V9.81413V9.84268V9.87124V9.89979V9.92835V9.9569V9.98546V10.014V10.0426V10.0711V10.0997V10.1282V10.1568V10.1854V10.2139V10.2425V10.271V10.2996V10.3281V10.3567V10.3852V10.4138V10.4424V10.4709V10.4995V10.528V10.5566V10.5851V10.6137V10.6423V10.6708V10.6994V10.7279V10.7565V10.785V10.8136V10.8422V10.8707V10.8993V10.9278V10.9564V10.9849V11.0135V11.0421V11.0706V11.0992V11.1277V11.1563V11.1848V11.2134V11.242V11.2705V11.2991V11.3276V11.3562V11.3847V11.4133V11.4419V11.4704V11.499V11.5275V11.5561V11.5847V11.6132V11.6418V11.6703V11.6989V11.7274V11.756V11.7846V11.8131V11.8417V11.8702V11.8988V11.9273V11.9559V11.9845V12.013V12.0416V12.0701V12.0987V12.1272V12.1558V12.1844V12.2129V12.2415V12.27V12.2986V12.3271V12.3557V12.3843V12.4128V12.4414V12.4699V12.4985V12.527V12.5556V12.5841V12.6127V12.6413V12.6698V12.6984V12.7269V12.7555V12.784V12.8126V12.8411V12.8697V12.8983V12.9268V12.9554V12.9839V13.0125V13.041V13.0696V13.0981V13.1267V13.1552V13.1838V13.2124V13.2409V13.2695V13.298V13.3266V13.3551V13.3837V13.4122V13.4408V13.4693V13.4979V13.5264V13.555V13.5835V13.6121V13.6406V13.6692V13.6977V13.7263V13.7548V13.7834V13.8119V13.8405V13.8691V13.8976V13.9262V13.9547V13.9833V14.0118V14.0403V14.0689V14.0974V14.126V14.1545V14.1831V14.2116V14.2402V14.2687V14.2973V14.3258V14.3544V14.3829V14.4115V14.44V14.4686V14.4971V14.5257V14.5542V14.5828V14.6113V14.6398V14.6684V14.6969V14.7255V14.754V14.7826V14.8111V14.8397V14.8682V14.8967V14.9253V14.9538V14.9824V15.0109V15.0395V15.068V15.0965V15.1251V15.1536V15.1822V15.2107V15.2392V15.2678V15.2963V15.3249V15.3534V15.3819V15.4105V15.439V15.4676V15.4961V15.5246V15.5532V15.5817V15.6102V15.6388V15.6673V15.6959V15.7244V15.7529V15.7815V15.81V15.8385V15.8671V15.8956V15.9241V15.9527V15.9812V16.0097V16.0383V16.0668V16.0953V16.1239V16.1524V16.1809V16.2094V16.238V16.2665V16.295V16.3236V16.3521V16.3806V16.4092V16.4377V16.4662V16.4947V16.5233V16.5518V16.5803V16.6088V16.6374V16.6659V16.6944V16.7229V16.7515V16.78V16.8085V16.837V16.8656V16.8941V16.9226V16.9511V16.9796V17.0082V17.0367V17.0652V17.0937V17.1222V17.1508V17.1793V17.2078V17.2363V17.2648V17.2934V17.3219V17.3504V17.3789V17.4074V17.4359V17.4645V17.493V17.5215V17.55V17.5785V17.607V17.6355V17.664V17.6926V17.7211V17.7496V17.7781V17.8066V17.8351V17.8636V17.8921V17.9206V17.9491V17.9776V18.0062V18.0347V18.0632V18.0917V18.1202V18.1487V18.1772V18.2057V18.2342V18.2627V18.2912V18.3197V18.3482V18.3767V18.4052V18.4337V18.4622V18.4907V18.5192V18.5477V18.5762V18.6047V18.6332V18.6459C54.3142 18.9655 54.3091 19.2795 54.3066 19.5986H54.3008H54.2902H54.2797H54.2692H54.2587H54.2482H54.2377H54.2272H54.2167H54.2062H54.1957H54.1852H54.1747H54.1643H54.1538H54.1433H54.1328H54.1224H54.1119H54.1014H54.091H54.0805H54.07H54.0596H54.0491H54.0387H54.0282H54.0178H54.0073H53.9969H53.9864H53.976H53.9656H53.9551H53.9447H53.9343H53.9239H53.9134H53.903H53.8926H53.8822H53.8718H53.8614H53.851H53.8406H53.8302H53.8198H53.8094H53.799H53.7886H53.7782H53.7678H53.7574H53.747H53.7366H53.7262H53.7159H53.7055H53.6951H53.6847H53.6744H53.664H53.6536H53.6433H53.6329H53.6225H53.6122H53.6018H53.5915H53.5811H53.5708H53.5604H53.5501H53.5397H53.5294H53.519H53.5087H53.4984H53.488H53.4777H53.4674H53.457H53.4467H53.4364H53.4261H53.4157H53.4054H53.3951H53.3848H53.3745H53.3641H53.3538H53.3435H53.3332H53.3229H53.3126H53.3023H53.292H53.2817H53.2714H53.2611H53.2508H53.2405H53.2302H53.2199H53.2096H53.1993H53.189H53.1787H53.1685H53.1582H53.1479H53.1376H53.1273H53.1171H53.1068H53.0965H53.0862H53.076H53.0657H53.0554H53.0451H53.0349H53.0246H53.0143H53.0041H52.9938H52.9835H52.9733H52.963H52.9528H52.9425H52.9323H52.922H52.9117H52.9015H52.8912H52.881H52.8707H52.8605H52.8502H52.84H52.8297H52.8195H52.8093H52.799H52.7888H52.7785H52.7683H52.7581H52.7478H52.7376H52.7273H52.7171H52.7069H52.6966H52.6864H52.6762H52.6659H52.6557H52.6455H52.6352H52.625H52.6148H52.6046H52.5943H52.5841H52.5739H52.5636H52.5534H52.5432H52.533H52.5227H52.5125H52.5023H52.4921H52.4819H52.4716H52.4614H52.4512H52.441H52.4308H52.4205H52.4103H52.4001H52.3899H52.3797H52.3695H52.3592H52.349H52.3388H52.3286H52.3184H52.3082H52.298H52.2877H52.2775H52.2673H52.2571H52.2469H52.2367H52.2265H52.2163H52.206H52.1958H52.1856H52.1754H52.1652H52.155H52.1448H52.1346H52.1243H52.1141H52.1039H52.0937H52.0835H52.0733H52.0631H52.0529H52.0427H52.0324H52.0222H52.012H52.0018H51.9916H51.9814H51.9712H51.961H51.9507H51.9405H51.9303H51.9201H51.9099H51.8997H51.8895H51.8792H51.869H51.8588H51.8486H51.8384H51.8282H51.818H51.8077H51.7975H51.7873H51.7771H51.7669H51.7566H51.7464H51.7362H51.726H51.7158H51.7055H51.6953H51.6851H51.6749H51.6647H51.6544H51.6442H51.634H51.6238H51.6135H51.6033H51.5931H51.5828H51.5726H51.5624H51.5522H51.5419H51.5317H51.5215H51.5112H51.501H51.4908H51.4805H51.4703H51.46H51.4498H51.4396H51.4293H51.4191H51.4088H51.3986H51.3884H51.3781H51.3679H51.3576H51.3474H51.3371H51.3269H51.3166H51.3064H51.2961H51.2859H51.2756H51.2654H51.2551H51.2448H51.2346H51.2243H51.2141H51.2038H51.1935H51.1833H51.173H51.1627H51.1525H51.1422H51.1319H51.1216H51.1114H51.1011H51.0908H51.0805H51.0703H51.06H51.0497H51.0394H51.0291H51.0188H51.0086H50.9983H50.988H50.9777H50.9674H50.9571H50.9468H50.9365H50.9262H50.9159H50.9056H50.9046C50.8959 19.4747 50.8906 19.3547 50.8906 19.2301C50.8906 17.7693 50.8919 16.3078 50.8931 14.8455C50.8969 10.4534 50.9007 6.05387 50.8705 1.64377ZM50.9283 1.02727C50.9283 1.02729 50.9281 1.02782 50.9275 1.0288L50.9283 1.02727ZM50.8843 1.07392C50.8832 1.0746 50.8826 1.07491 50.8826 1.07489C50.8826 1.07488 50.8831 1.07454 50.8843 1.07392Z" stroke="#2776EA" stroke-width="2"/>
<path d="M33.7273 19.5859V19.5789V19.5495V19.5201V19.4908V19.4614V19.432V19.4026V19.3733V19.3439V19.3145V19.2852V19.2558V19.2265V19.1971V19.1678V19.1384V19.1091V19.0797V19.0504V19.0211V18.9917V18.9624V18.9331V18.9037V18.8744V18.8451V18.8158V18.7865V18.7572V18.7278V18.6985V18.6692V18.6399V18.6106V18.5813V18.552V18.5227V18.4934V18.4642V18.4349V18.4056V18.3763V18.347V18.3177V18.2885V18.2592V18.2299V18.2006V18.1714V18.1421V18.1128V18.0836V18.0543V18.0251V17.9958V17.9666V17.9373V17.9081V17.8788V17.8496V17.8203V17.7911V17.7618V17.7326V17.7034V17.6741V17.6449V17.6157V17.5864V17.5572V17.528V17.4988V17.4695V17.4403V17.4111V17.3819V17.3527V17.3234V17.2942V17.265V17.2358V17.2066V17.1774V17.1482V17.119V17.0898V17.0606V17.0314V17.0022V16.973V16.9438V16.9146V16.8854V16.8562V16.827V16.7978V16.7687V16.7395V16.7103V16.6811V16.6519V16.6227V16.5936V16.5644V16.5352V16.506V16.4769V16.4477V16.4185V16.3893V16.3602V16.331V16.3018V16.2727V16.2435V16.2143V16.1852V16.156V16.1269V16.0977V16.0685V16.0394V16.0102V15.9811V15.9519V15.9227V15.8936V15.8644V15.8353V15.8061V15.777V15.7478V15.7187V15.6895V15.6604V15.6312V15.6021V15.5729V15.5438V15.5147V15.4855V15.4564V15.4272V15.3981V15.3689V15.3398V15.3107V15.2815V15.2524V15.2232V15.1941V15.165V15.1358V15.1067V15.0775V15.0484V15.0193V14.9901V14.961V14.9319V14.9027V14.8736V14.8444V14.8153V14.7862V14.757V14.7279V14.6988V14.6696V14.6405V14.6114V14.5822V14.5531V14.524V14.4948V14.4657V14.4366V14.4074V14.3783V14.3492V14.32V14.2909V14.2618V14.2326V14.2035V14.1744V14.1452V14.1161V14.087V14.0578V14.0287V13.9996V13.9704V13.9413V13.9122V13.883V13.8539V13.8248V13.7956V13.7665V13.7373V13.7082V13.6791V13.6499V13.6208V13.5917V13.5625V13.5334V13.5042V13.4751V13.4459V13.4168V13.3877V13.3585V13.3294V13.3002V13.2711V13.2419V13.2128V13.1836V13.1545V13.1253V13.0962V13.067V13.0379V13.0087V12.9796V12.9504V12.9213V12.8921V12.863V12.8338V12.8047V12.7755V12.7463V12.7172V12.688V12.6589V12.6297V12.6005V12.5714V12.5422V12.513V12.4839V12.4547V12.4255V12.3964V12.3672V12.338V12.3088V12.2797V12.2505V12.2213V12.1921V12.1629V12.1338V12.1046V12.0754V12.0462V12.017V11.9878V11.9586V11.9295V11.9003V11.8711V11.8419V11.8127V11.7835V11.7543V11.7251V11.6959V11.6667V11.6375V11.6083V11.5791V11.5498V11.5206V11.4914V11.4622V11.433V11.4038V11.3745V11.3453V11.3161V11.2869V11.2576V11.2284V11.1992V11.17V11.1407V11.1115V11.0823V11.053V11.0238V10.9945V10.9653V10.936V10.9068V10.8775V10.8483V10.819V10.7898V10.7605V10.7313V10.702V10.6727V10.6435V10.6142V10.5849V10.5556V10.5264V10.4971V10.4678V10.4385V10.4092V10.38V10.3507V10.3214V10.2921V10.2628V10.2335V10.2042V10.1749V10.1456V10.1163V10.087V10.0577V10.0283V9.99903V9.96971V9.94039V9.91107V9.88174V9.85241V9.82308V9.79375V9.76441V9.73507V9.70573V9.67639V9.64704V9.61769V9.58834V9.55898V9.52963V9.50027V9.4709V9.44154V9.41217V9.3828V9.35342V9.32405V9.29467V9.26529V9.2359V9.20651V9.17712V9.14773V9.11833V9.08893V9.05953V9.03012V9.00072V8.9713V8.94189V8.91247V8.88305V8.85363V8.8242V8.79477V8.76534V8.7359V8.70646V8.67702V8.64758V8.61813V8.58868V8.55922V8.52976V8.5003V8.47084V8.44137V8.4119V8.38242V8.35295V8.32346V8.29398V8.26449V8.235V8.20551V8.17601V8.14651V8.117V8.08749V8.05798V8.02846V7.99894V7.96942V7.9399V7.91037V7.88083V7.8513V7.82176V7.79221V7.76266V7.73311V7.70356V7.674V7.64443V7.61487V7.5853V7.55572V7.52615V7.49657V7.46698V7.43739V7.4078V7.3782V7.3486V7.319V7.28939V7.25978V7.23016V7.20054V7.17091V7.14129V7.11165V7.08202V7.05238V7.02273V6.99308V6.96343V6.93378V6.90411V6.87445V6.84478V6.81511V6.78543V6.75575V6.72606V6.69637V6.66668V6.63698V6.60728V6.57757V6.55868C33.8433 6.55745 33.9581 6.55614 34.0718 6.55484C35.1047 6.54305 36.0496 6.53226 36.9967 6.59517C36.9969 6.59531 36.997 6.59545 36.9972 6.59559C37.0179 6.6138 37.0404 6.63585 37.063 6.66072C37.0854 6.68557 37.1057 6.71072 37.1226 6.73432C37.1275 6.74117 37.132 6.74767 37.1361 6.75377C37.197 10.9551 37.1971 15.1566 37.1362 19.3784C37.1335 19.3822 37.1307 19.3862 37.1276 19.3903C37.1099 19.4141 37.0884 19.4399 37.0641 19.4661C37.0398 19.4922 37.0149 19.5162 36.9911 19.5369C36.9853 19.5419 36.9798 19.5466 36.9746 19.5509C36.0349 19.6122 35.0967 19.6015 34.0717 19.5898C33.958 19.5885 33.8433 19.5872 33.7273 19.5859Z" stroke="#2776EA" stroke-width="2"/>
<path d="M45.6342 9.75953C45.6684 9.80498 45.6945 9.84905 45.7103 9.88173C45.7704 13.0579 45.7706 16.2116 45.6916 19.3834C45.6911 19.3841 45.6906 19.3847 45.69 19.3854C45.6728 19.4075 45.6517 19.4318 45.6274 19.4567C45.6031 19.4815 45.5779 19.5045 45.5537 19.5245C45.5426 19.5335 45.5324 19.5415 45.5232 19.5483C44.5769 19.6114 43.6425 19.6005 42.6232 19.5887C42.5161 19.5875 42.408 19.5862 42.2988 19.585V19.5653V19.5418V19.5184V19.4949V19.4715V19.448V19.4246V19.4012V19.3777V19.3543V19.3309V19.3075V19.2841V19.2606V19.2372V19.2138V19.1904V19.1671V19.1437V19.1203V19.0969V19.0735V19.0502V19.0268V19.0034V18.9801V18.9567V18.9334V18.91V18.8867V18.8633V18.84V18.8167V18.7934V18.77V18.7467V18.7234V18.7001V18.6768V18.6535V18.6302V18.6069V18.5836V18.5603V18.537V18.5137V18.4905V18.4672V18.4439V18.4207V18.3974V18.3741V18.3509V18.3276V18.3044V18.2811V18.2579V18.2347V18.2114V18.1882V18.165V18.1417V18.1185V18.0953V18.0721V18.0489V18.0257V18.0025V17.9793V17.9561V17.9329V17.9097V17.8865V17.8633V17.8401V17.8169V17.7938V17.7706V17.7474V17.7243V17.7011V17.6779V17.6548V17.6316V17.6085V17.5853V17.5622V17.539V17.5159V17.4928V17.4696V17.4465V17.4234V17.4002V17.3771V17.354V17.3309V17.3078V17.2847V17.2615V17.2384V17.2153V17.1922V17.1691V17.146V17.123V17.0999V17.0768V17.0537V17.0306V17.0075V16.9844V16.9614V16.9383V16.9152V16.8922V16.8691V16.846V16.823V16.7999V16.7768V16.7538V16.7307V16.7077V16.6846V16.6616V16.6385V16.6155V16.5925V16.5694V16.5464V16.5234V16.5003V16.4773V16.4543V16.4312V16.4082V16.3852V16.3622V16.3392V16.3161V16.2931V16.2701V16.2471V16.2241V16.2011V16.1781V16.1551V16.1321V16.1091V16.0861V16.0631V16.0401V16.0171V15.9941V15.9711V15.9481V15.9251V15.9022V15.8792V15.8562V15.8332V15.8102V15.7873V15.7643V15.7413V15.7183V15.6954V15.6724V15.6494V15.6265V15.6035V15.5805V15.5576V15.5346V15.5116V15.4887V15.4657V15.4428V15.4198V15.3968V15.3739V15.3509V15.328V15.305V15.2821V15.2591V15.2362V15.2132V15.1903V15.1673V15.1444V15.1215V15.0985V15.0756V15.0526V15.0297V15.0068V14.9838V14.9609V14.9379V14.915V14.8921V14.8691V14.8462V14.8233V14.8003V14.7774V14.7545V14.7315V14.7086V14.6857V14.6627V14.6398V14.6169V14.594V14.571V14.5481V14.5252V14.5023V14.4793V14.4564V14.4335V14.4106V14.3876V14.3647V14.3418V14.3189V14.2959V14.273V14.2501V14.2272V14.2042V14.1813V14.1584V14.1355V14.1125V14.0896V14.0667V14.0438V14.0209V13.9979V13.975V13.9521V13.9292V13.9062V13.8833V13.8604V13.8375V13.8146V13.7916V13.7687V13.7458V13.7229V13.6999V13.677V13.6541V13.6312V13.6082V13.5853V13.5624V13.5395V13.5165V13.4936V13.4707V13.4477V13.4248V13.4019V13.3789V13.356V13.3331V13.3102V13.2872V13.2643V13.2414V13.2184V13.1955V13.1725V13.1496V13.1267V13.1037V13.0808V13.0579V13.0349V13.012V12.989V12.9661V12.9431V12.9202V12.8973V12.8743V12.8514V12.8284V12.8055V12.7825V12.7596V12.7366V12.7136V12.6907V12.6677V12.6448V12.6218V12.5989V12.5759V12.5529V12.53V12.507V12.484V12.4611V12.4381V12.4151V12.3922V12.3692V12.3462V12.3232V12.3003V12.2773V12.2543V12.2313V12.2083V12.1853V12.1624V12.1394V12.1164V12.0934V12.0704V12.0474V12.0244V12.0014V11.9784V11.9554V11.9324V11.9094V11.8864V11.8634V11.8404V11.8174V11.7944V11.7713V11.7483V11.7253V11.7023V11.6793V11.6562V11.6332V11.6102V11.5871V11.5641V11.5411V11.518V11.495V11.472V11.4489V11.4259V11.4028V11.3798V11.3567V11.3337V11.3106V11.2876V11.2645V11.2414V11.2184V11.1953V11.1722V11.1491V11.1261V11.103V11.0799V11.0568V11.0337V11.0107V10.9876V10.9645V10.9414V10.9183V10.8952V10.8721V10.849V10.8259V10.8028V10.7796V10.7565V10.7334V10.7103V10.6872V10.664V10.6409V10.6178V10.5946V10.5715V10.5483V10.5252V10.5021V10.4789V10.4557V10.4326V10.4094V10.3863V10.3631V10.3399V10.3168V10.2936V10.2704V10.2472V10.224V10.2009V10.1777V10.1545V10.1313V10.1081V10.0849V10.0617V10.0385V10.0152V9.99203V9.96881V9.94558V9.92236V9.89913V9.87589V9.85266V9.82942V9.80617V9.78292V9.75967V9.73642V9.72682C42.4188 9.72559 42.5378 9.72426 42.656 9.72295C43.6888 9.71145 44.6565 9.70067 45.6329 9.75778C45.6333 9.75836 45.6337 9.75895 45.6342 9.75953Z" stroke="#2776EA" stroke-width="2"/>
<path d="M28.6022 13.6768C28.6032 13.9696 28.6045 14.2583 28.6058 14.5434C28.6134 16.2589 28.6204 17.8462 28.5625 19.4378C28.5461 19.471 28.5204 19.5141 28.4881 19.5579C27.5127 19.6119 26.5451 19.6016 25.5145 19.5906C25.396 19.5893 25.2766 19.588 25.1562 19.5868V19.5861V19.5704V19.5547V19.5391V19.5234V19.5077V19.4921V19.4764V19.4608V19.4451V19.4295V19.4138V19.3982V19.3825V19.3669V19.3513V19.3356V19.32V19.3044V19.2888V19.2732V19.2575V19.2419V19.2263V19.2107V19.1951V19.1795V19.1639V19.1483V19.1327V19.1172V19.1016V19.086V19.0704V19.0548V19.0393V19.0237V19.0081V18.9926V18.977V18.9615V18.9459V18.9303V18.9148V18.8993V18.8837V18.8682V18.8526V18.8371V18.8216V18.806V18.7905V18.775V18.7595V18.7439V18.7284V18.7129V18.6974V18.6819V18.6664V18.6509V18.6354V18.6199V18.6044V18.5889V18.5734V18.5579V18.5424V18.5269V18.5115V18.496V18.4805V18.465V18.4495V18.4341V18.4186V18.4031V18.3877V18.3722V18.3568V18.3413V18.3259V18.3104V18.2949V18.2795V18.2641V18.2486V18.2332V18.2177V18.2023V18.1869V18.1714V18.156V18.1406V18.1251V18.1097V18.0943V18.0789V18.0635V18.048V18.0326V18.0172V18.0018V17.9864V17.971V17.9556V17.9402V17.9248V17.9094V17.894V17.8786V17.8632V17.8478V17.8324V17.817V17.8017V17.7863V17.7709V17.7555V17.7401V17.7248V17.7094V17.694V17.6786V17.6633V17.6479V17.6325V17.6172V17.6018V17.5864V17.5711V17.5557V17.5404V17.525V17.5096V17.4943V17.4789V17.4636V17.4482V17.4329V17.4175V17.4022V17.3869V17.3715V17.3562V17.3408V17.3255V17.3102V17.2948V17.2795V17.2642V17.2488V17.2335V17.2182V17.2029V17.1875V17.1722V17.1569V17.1416V17.1262V17.1109V17.0956V17.0803V17.065V17.0496V17.0343V17.019V17.0037V16.9884V16.9731V16.9578V16.9425V16.9272V16.9119V16.8966V16.8813V16.8659V16.8506V16.8353V16.82V16.8047V16.7894V16.7742V16.7589V16.7436V16.7283V16.713V16.6977V16.6824V16.6671V16.6518V16.6365V16.6212V16.6059V16.5906V16.5754V16.5601V16.5448V16.5295V16.5142V16.4989V16.4836V16.4684V16.4531V16.4378V16.4225V16.4072V16.392V16.3767V16.3614V16.3461V16.3308V16.3156V16.3003V16.285V16.2697V16.2545V16.2392V16.2239V16.2086V16.1934V16.1781V16.1628V16.1475V16.1323V16.117V16.1017V16.0864V16.0712V16.0559V16.0406V16.0254V16.0101V15.9948V15.9795V15.9643V15.949V15.9337V15.9185V15.9032V15.8879V15.8726V15.8574V15.8421V15.8268V15.8116V15.7963V15.781V15.7657V15.7505V15.7352V15.7199V15.7047V15.6894V15.6741V15.6588V15.6436V15.6283V15.613V15.5978V15.5825V15.5672V15.5519V15.5367V15.5214V15.5061V15.4909V15.4756V15.4603V15.445V15.4298V15.4145V15.3992V15.3839V15.3687V15.3534V15.3381V15.3228V15.3075V15.2923V15.277V15.2617V15.2464V15.2311V15.2159V15.2006V15.1853V15.17V15.1547V15.1394V15.1242V15.1089V15.0936V15.0783V15.063V15.0477V15.0324V15.0172V15.0019V14.9866V14.9713V14.956V14.9407V14.9254V14.9101V14.8948V14.8795V14.8642V14.8489V14.8336V14.8183V14.803V14.7877V14.7724V14.7571V14.7418V14.7265V14.7112V14.6959V14.6806V14.6653V14.65V14.6347V14.6193V14.604V14.5887V14.5734V14.5581V14.5428V14.5274V14.5121V14.4968V14.4815V14.4662V14.4508V14.4355V14.4202V14.4048V14.3895V14.3742V14.3588V14.3435V14.3282V14.3128V14.2975V14.2822V14.2668V14.2515V14.2361V14.2208V14.2054V14.1901V14.1747V14.1594V14.144V14.1287V14.1133V14.098V14.0826V14.0673V14.0519V14.0365V14.0212V14.0058V13.9904V13.9751V13.9597V13.9443V13.9289V13.9136V13.8982V13.8828V13.8674V13.852V13.8367V13.8213V13.8059V13.7905V13.7751V13.7597V13.7443V13.7289V13.7135V13.6981V13.6827V13.6768H25.1621H25.1726H25.183H25.1935H25.204H25.2144H25.2249H25.2353H25.2458H25.2562H25.2667H25.2772H25.2876H25.2981H25.3085H25.319H25.3294H25.3399H25.3504H25.3608H25.3713H25.3817H25.3922H25.4026H25.4131H25.4235H25.434H25.4445H25.4549H25.4654H25.4758H25.4863H25.4967H25.5072H25.5177H25.5281H25.5386H25.549H25.5595H25.57H25.5804H25.5909H25.6013H25.6118H25.6222H25.6327H25.6432H25.6536H25.6641H25.6745H25.685H25.6955H25.7059H25.7164H25.7269H25.7373H25.7478H25.7582H25.7687H25.7792H25.7896H25.8001H25.8106H25.821H25.8315H25.842H25.8524H25.8629H25.8734H25.8838H25.8943H25.9048H25.9152H25.9257H25.9362H25.9466H25.9571H25.9676H25.978H25.9885H25.999H26.0095H26.0199H26.0304H26.0409H26.0514H26.0618H26.0723H26.0828H26.0933H26.1037H26.1142H26.1247H26.1352H26.1457H26.1561H26.1666H26.1771H26.1876H26.1981H26.2086H26.219H26.2295H26.24H26.2505H26.261H26.2715H26.282H26.2925H26.303H26.3134H26.3239H26.3344H26.3449H26.3554H26.3659H26.3764H26.3869H26.3974H26.4079H26.4184H26.4289H26.4394H26.4499H26.4604H26.4709H26.4814H26.4919H26.5024H26.5129H26.5235H26.534H26.5445H26.555H26.5655H26.576H26.5865H26.597H26.6076H26.6181H26.6286H26.6391H26.6496H26.6602H26.6707H26.6812H26.6917H26.7023H26.7128H26.7233H26.7338H26.7444H26.7549H26.7654H26.776H26.7865H26.797H26.8076H26.8181H26.8287H26.8392H26.8497H26.8603H26.8708H26.8814H26.8919H26.9025H26.913H26.9236H26.9341H26.9447H26.9552H26.9658H26.9763H26.9869H26.9975H27.008H27.0186H27.0291H27.0397H27.0503H27.0608H27.0714H27.082H27.0926H27.1031H27.1137H27.1243H27.1349H27.1454H27.156H27.1666H27.1772H27.1878H27.1983H27.2089H27.2195H27.2301H27.2407H27.2513H27.2619H27.2725H27.2831H27.2937H27.3043H27.3149H27.3255H27.3361H27.3467H27.3573H27.3679H27.3785H27.3892H27.3998H27.4104H27.421H27.4316H27.4423H27.4529H27.4635H27.4741H27.4848H27.4954H27.506H27.5167H27.5273H27.5379H27.5486H27.5592H27.5699H27.5805H27.5911H27.6018H27.6124H27.6231H27.6337H27.6444H27.6551H27.6657H27.6764H27.687H27.6977H27.7084H27.719H27.7297H27.7404H27.7511H27.7617H27.7724H27.7831H27.7938H27.8045H27.8151H27.8258H27.8365H27.8472H27.8579H27.8686H27.8793H27.89H27.9007H27.9114H27.9221H27.9328H27.9435H27.9542H27.965H27.9757H27.9864H27.9971H28.0078H28.0186H28.0293H28.04H28.0507H28.0615H28.0722H28.0829H28.0937H28.1044H28.1152H28.1259H28.1367H28.1474H28.1582H28.1689H28.1797H28.1904H28.2012H28.212H28.2227H28.2335H28.2443H28.255H28.2658H28.2766H28.2874H28.2982H28.3089H28.3197H28.3305H28.3413H28.3521H28.3629H28.3737H28.3845H28.3953H28.4061H28.4169H28.4277H28.4386H28.4494H28.4602H28.471H28.4818H28.4927H28.5035H28.5143H28.5252H28.536H28.5468H28.5577H28.5685H28.5794H28.5902H28.6011H28.6022Z" stroke="#2776EA" stroke-width="2"/>
<path d="M45.1844 32.6651C46.287 31.5462 47.3503 30.4673 48.4136 29.3884C49.8313 27.9499 51.249 26.498 52.6799 25.0728C53.9007 23.8607 55.3709 23.4745 56.9986 23.9939C58.6001 24.5001 59.5847 25.6456 59.9128 27.3106C60.2016 28.829 59.7684 30.161 58.6789 31.2532C55.8697 34.1036 53.0605 36.9541 50.2514 39.8045C48.6236 41.4562 46.9565 43.0545 45.3944 44.7595C44.5149 45.7185 43.4778 46.1714 42.257 46.2113C39.461 46.3179 36.6649 46.4111 33.8689 46.4244C31.2698 46.4244 28.6706 46.3046 26.0846 46.2513C24.9951 46.2246 24.0368 46.5843 23.1573 47.2769C23.5117 47.8896 23.8399 48.489 24.1812 49.0751C24.5619 49.7411 24.4437 50.1806 23.7874 50.5669C20.6894 52.3917 17.5783 54.2032 14.4803 56.0147C13.7715 56.4276 13.3777 56.3077 12.9576 55.5885C10.306 50.9265 7.66743 46.2646 5.01578 41.6027C3.42742 38.8188 1.83905 36.035 0.250688 33.2645C-0.182503 32.5053 -0.0643598 32.0924 0.683878 31.6528C3.74247 29.8679 6.78793 28.0698 9.84651 26.2849C10.621 25.8321 11.0148 25.9386 11.4611 26.7245C11.5661 26.8976 11.658 27.0708 11.7631 27.2573C12.4588 26.831 13.1151 26.4048 13.7977 26.0319C15.1104 25.3126 16.4888 24.8064 18.0115 24.8064C19.6655 24.8064 21.0438 25.539 22.409 26.3782C23.6036 27.1241 24.7981 27.87 26.0452 28.5227C27.056 29.0554 28.1718 29.2419 29.3401 29.2286C32.9369 29.202 36.5468 29.2819 40.1436 29.202C42.7821 29.122 44.5411 30.3341 45.1844 32.6651ZM22.2646 45.7185C23.6955 44.6396 25.3101 44.3732 27.0166 44.4664C28.5656 44.5464 30.1146 44.573 31.6636 44.5996C35.0372 44.6662 38.4108 44.7461 41.7713 44.4798C42.7559 44.3998 43.6354 44.1867 44.2917 43.3209C44.6593 42.8281 45.1581 42.4285 45.5913 41.989C49.5163 38.0063 53.4412 34.0237 57.3793 30.0411C57.8913 29.5216 58.2063 28.9356 58.2457 28.203C58.2851 27.1774 57.6944 26.205 56.7624 25.7921C55.8041 25.3659 54.7145 25.5657 53.94 26.3382C51.2884 29.0155 48.6367 31.7061 45.9982 34.3967C45.4994 34.9028 44.9743 35.3823 44.5543 35.9551C43.6091 37.2471 42.3883 37.8998 40.8131 37.8998C37.3213 37.8998 33.8426 37.8998 30.3509 37.8998C30.2065 37.8998 30.0621 37.8998 29.9177 37.8731C29.4714 37.7799 29.1957 37.4203 29.2088 36.9674C29.2219 36.5278 29.5239 36.1682 29.9702 36.1016C30.1146 36.075 30.259 36.0883 30.4034 36.0883C33.882 36.0883 37.3475 36.1016 40.8262 36.075C41.2725 36.075 41.7451 35.9684 42.152 35.7819C43.189 35.2758 43.701 34.0637 43.4253 32.9448C43.1497 31.8126 42.1651 31.0135 41.01 31.0135C36.98 31.0001 32.95 31.0135 28.92 31.0135C28.6969 31.0135 28.4606 31.0001 28.2374 30.9735C26.4915 30.7604 24.9294 30.0811 23.4461 29.1487C22.4747 28.536 21.5164 27.8966 20.5187 27.3106C19.6261 26.7778 18.6416 26.5247 17.5914 26.6312C15.7143 26.8044 14.2047 27.8034 12.6951 28.8556C15.8718 34.4899 19.0617 40.0842 22.2646 45.7185ZM14.1653 54.1233C16.8957 52.5249 19.5867 50.9532 22.2909 49.3548C18.2609 42.2553 14.2441 35.2092 10.2141 28.1231C7.48365 29.7214 4.80575 31.2932 2.08847 32.8782C6.11845 39.9777 10.1222 47.0238 14.1653 54.1233Z" fill="#2776EA"/>
</svg>
