<svg width="61" height="44" viewBox="0 0 61 44" fill="none" xmlns="http://www.w3.org/2000/svg">
<path d="M30.6674 43.9523C21.5346 43.9523 12.4019 43.9523 3.2742 43.9523C2.81731 43.9523 2.36042 43.9626 1.90353 43.9523C0.964363 43.9316 0.680075 43.6469 0.674999 42.6895C0.669922 39.7654 0.669922 36.8465 0.669922 33.9224C0.669922 23.1627 0.669922 12.4082 0.669922 1.64853C0.669922 0.49959 0.913597 0.24082 2.05583 0.24082C15.6509 0.235644 29.251 0.235644 42.8461 0.235644C48.2729 0.235644 53.7049 0.230469 59.1317 0.230469C60.4719 0.230469 60.6648 0.43231 60.6648 1.80379C60.6648 15.3271 60.6699 28.8556 60.6699 42.379C60.6699 43.7453 60.477 43.9419 59.1317 43.9471C49.6436 43.9471 40.1555 43.9471 30.6674 43.9523C30.6674 43.9471 30.6674 43.9471 30.6674 43.9523ZM30.6115 41.9753V41.9805C39.6428 41.9805 48.674 41.9805 57.7001 41.9805C58.7814 41.9805 58.7916 41.9753 58.7916 40.8626C58.7967 30.3358 58.7916 19.8142 58.8119 9.28743C58.8119 8.6198 58.6241 8.38691 57.9438 8.39208C54.9994 8.42831 52.0601 8.40761 49.1156 8.40761C33.9468 8.40761 18.7781 8.40243 3.60926 8.40243C2.52795 8.40243 2.52287 8.41278 2.52287 9.51515C2.51779 20.016 2.52795 30.5118 2.50256 41.0127C2.50256 41.8407 2.79193 41.9856 3.52296 41.9856C12.5491 41.9701 21.5803 41.9753 30.6115 41.9753ZM30.5912 6.43578C30.5912 6.44095 30.5912 6.44095 30.5912 6.43578C34.6982 6.44095 38.8102 6.44096 42.9172 6.44096C47.8617 6.44096 52.8063 6.44613 57.756 6.44096C58.7916 6.44096 58.7916 6.4306 58.7916 5.34895C58.7916 4.59851 58.7561 3.84808 58.8119 3.10282C58.8627 2.36791 58.5682 2.19195 57.888 2.19195C41.9577 2.20747 26.0274 2.2023 10.1022 2.2023C7.97003 2.2023 5.84295 2.2023 3.71079 2.2023C2.53302 2.2023 2.52795 2.20747 2.52287 3.37194C2.51779 4.04474 2.51779 4.71755 2.51779 5.39035C2.51779 6.44096 2.52287 6.44096 3.5788 6.44096C12.5846 6.43578 21.5854 6.43578 30.5912 6.43578Z" fill="#2776EA"/>
<path d="M53.0194 20.5852C53.0296 25.3466 49.283 29.1868 44.6278 29.1971C39.9523 29.2075 36.1906 25.4035 36.1753 20.6473C36.1601 15.9015 39.9218 12.0406 44.5669 12.0303C49.2323 12.0199 53.0092 15.8446 53.0194 20.5852ZM47.4199 14.7577C47.2626 15.1666 47.1204 15.5185 46.9834 15.8808C46.3742 17.4955 45.7548 19.1051 45.1609 20.725C44.9375 21.346 44.5466 21.6203 43.9019 21.6151C42.5363 21.5996 41.1656 21.61 39.8 21.61C39.3025 21.61 38.805 21.61 38.3126 21.61C38.2567 24.1356 40.8762 26.7802 43.7039 27.1787C46.9427 27.6341 50.1004 25.4915 50.8771 22.3035C51.6284 19.2034 50.0851 15.7514 47.4199 14.7577ZM45.5365 14.1833C42.3281 13.2983 37.8963 16.6882 38.3786 19.6226C39.932 19.6226 41.5007 19.6433 43.0642 19.5967C43.2825 19.5916 43.5871 19.3017 43.6887 19.0688C44.0593 18.2201 44.3638 17.3454 44.6887 16.476C44.9781 15.7152 45.2522 14.9544 45.5365 14.1833Z" fill="#2776EA"/>
<path d="M13.4776 25.3766C13.4776 28.8389 13.4776 32.3013 13.4776 35.7688C13.4776 36.8039 13.1933 37.1092 12.1729 37.1196C10.8784 37.1351 9.58897 37.1299 8.29445 37.1144C7.36544 37.0989 7.07099 36.7883 7.07099 35.8464C7.06592 28.8441 7.06592 21.8366 7.06592 14.8343C7.06592 13.8872 7.35528 13.5922 8.29953 13.5818C9.61943 13.5715 10.9343 13.5766 12.2542 13.587C13.1984 13.5922 13.4827 13.882 13.4827 14.8394C13.4878 18.3484 13.4827 21.8625 13.4776 25.3766ZM8.91379 25.3559C8.91887 28.0678 8.90871 30.7797 8.92394 33.4916C8.9341 35.3754 8.65488 35.1012 10.5383 35.1219C11.6094 35.1322 11.6145 35.1219 11.6145 34.004C11.6145 28.4508 11.6196 22.8975 11.6044 17.3443C11.5993 15.2742 11.9039 15.595 9.83265 15.5278C9.07624 15.5019 8.89348 15.7969 8.89856 16.5214C8.92902 19.4662 8.91379 22.4111 8.91379 25.3559Z" fill="#2776EA"/>
<path d="M23.8393 27.2364C23.8393 24.421 23.8393 21.6004 23.8393 18.785C23.8393 17.6412 24.149 17.3203 25.2912 17.31C26.535 17.2996 27.7736 17.2893 29.0174 17.3048C30.0023 17.3151 30.3424 17.6671 30.3424 18.6763C30.3475 24.3899 30.3475 30.1036 30.3424 35.812C30.3424 36.8885 30.0784 37.1525 29.0479 37.1576C27.728 37.1628 26.4131 37.1576 25.0932 37.1525C24.1185 37.1473 23.8444 36.8678 23.8444 35.8431C23.8292 32.9759 23.8342 30.1036 23.8393 27.2364ZM25.7786 27.2105C25.7786 29.3531 25.7684 31.5009 25.7836 33.6435C25.7938 35.4498 25.4892 35.2634 27.4183 35.2686C28.4031 35.2686 28.4133 35.2583 28.4133 34.218C28.4184 29.8241 28.4234 25.4302 28.4133 21.0363C28.4082 19.0075 28.657 19.3698 26.738 19.2818C25.9309 19.2456 25.7582 19.5561 25.7735 20.3065C25.8039 22.6096 25.7786 24.9126 25.7786 27.2105Z" fill="#2776EA"/>
<path d="M21.8799 30.1401C21.8799 32.055 21.8849 33.9647 21.8748 35.8796C21.8697 36.7905 21.5803 37.101 20.697 37.1165C19.3517 37.1372 18.0115 37.1424 16.6662 37.1269C15.7931 37.1165 15.4529 36.7801 15.4529 35.9107C15.4428 32.0343 15.4428 28.1579 15.4529 24.2764C15.4529 23.4483 15.7829 23.086 16.6053 23.0653C17.976 23.0343 19.3416 23.0394 20.7123 23.0757C21.6057 23.0964 21.8697 23.4121 21.8748 24.3281C21.8849 26.2637 21.8799 28.1993 21.8799 30.1401ZM19.9965 30.0832C19.9965 28.9963 19.9965 27.9147 19.9965 26.8278C19.9965 25.0268 19.9965 25.0682 18.2146 25.032C17.4531 25.0164 17.2754 25.3011 17.2906 26.0205C17.3262 28.396 17.2856 30.7767 17.311 33.1522C17.3363 35.4966 16.9657 35.0671 19.2959 35.1395C19.8899 35.1551 20.0218 34.8963 20.0117 34.3477C19.9812 32.9296 20.0015 31.5064 19.9965 30.0832Z" fill="#2776EA"/>
<path d="M44.6735 31.2357C47.1813 31.2357 49.6942 31.2305 52.2021 31.2408C53.06 31.246 53.5829 31.9344 53.1869 32.5761C53.0194 32.8452 52.5879 33.0988 52.2782 33.0988C47.156 33.1299 42.0388 33.1299 36.9165 33.1195C36.2566 33.1195 35.8403 32.7055 35.8961 32.1414C35.9621 31.4841 36.3581 31.2357 36.9927 31.2357C39.5512 31.246 42.1098 31.2357 44.6735 31.2357Z" fill="#2776EA"/>
<path d="M44.6026 37.1517C42.0694 37.1517 39.5362 37.1569 37.0081 37.1465C36.1958 37.1465 35.7288 36.6342 35.9166 35.9666C36.0791 35.3921 36.4953 35.2627 37.0335 35.2627C40.2266 35.273 43.4147 35.2627 46.6079 35.2627C48.4304 35.2627 50.2529 35.2627 52.0753 35.2679C52.8977 35.2679 53.2988 35.5732 53.314 36.1839C53.3293 36.8205 52.8977 37.1517 52.0449 37.1517C49.5675 37.1569 47.0851 37.1569 44.6026 37.1517C44.6026 37.1569 44.6026 37.1569 44.6026 37.1517Z" fill="#2776EA"/>
<path d="M53.1516 5.30254C52.0856 5.30254 51.0246 5.31289 49.9585 5.29737C49.1513 5.28702 48.7655 4.95062 48.7706 4.31404C48.7756 3.67747 49.1665 3.34106 49.9686 3.33589C52.1211 3.32554 54.2786 3.32554 56.4311 3.33589C57.2281 3.34106 57.6139 3.68264 57.6139 4.32439C57.6139 4.96614 57.2383 5.28702 56.421 5.29737C55.3295 5.31289 54.2431 5.30254 53.1516 5.30254Z" fill="#2776EA"/>
</svg>
