<svg width="60" height="58" viewBox="0 0 60 58" fill="none" xmlns="http://www.w3.org/2000/svg">
<path d="M41.7738 42.654C41.7738 44.6702 41.7738 46.5771 41.7738 48.5621C42.1363 48.5621 42.4843 48.5464 42.8178 48.5621C44.2678 48.6558 45.4133 49.9375 45.4423 51.5161C45.4568 52.3289 45.4568 53.1572 45.4423 53.97C45.4278 55.8143 44.2098 57.1429 42.4988 57.1429C37.3949 57.1429 32.291 57.1429 27.1871 57.1429C23.9972 57.1429 20.8218 57.1429 17.6318 57.1429C15.7614 57.1429 14.5724 55.8612 14.5724 53.8606C14.5724 53.126 14.5724 52.3757 14.5724 51.6411C14.5869 49.9062 15.7469 48.6246 17.3563 48.5621C17.6463 48.5464 17.9218 48.5621 18.2408 48.5621C18.2408 46.5771 18.2408 44.6546 18.2408 42.654C17.9943 42.654 17.7913 42.654 17.5738 42.654C12.6004 42.654 7.61251 42.6071 2.6391 42.6696C0.986136 42.6852 -0.0143442 41.4036 0.000155487 39.8093C0.0436546 27.4617 0.0291549 15.1141 0.0291549 2.75086C0.0291549 1.00031 0.957137 0 2.58111 0C20.8653 0 39.1494 0 57.4335 0C59.0575 0 60 1.00031 60 2.75086C60 15.1454 60 27.5399 60 39.9187C60 41.6693 59.1155 42.6383 57.4915 42.6383C52.4891 42.6383 47.5012 42.6383 42.4988 42.6383C42.2813 42.654 42.0493 42.654 41.7738 42.654ZM58.7095 31.8224C58.724 31.6193 58.7385 31.4942 58.7385 31.3535C58.7385 21.8349 58.7385 12.3163 58.7385 2.79775C58.7385 1.76618 58.376 1.39106 57.419 1.39106C39.1349 1.39106 20.8653 1.39106 2.58111 1.39106C1.63862 1.39106 1.29063 1.78181 1.29063 2.81338C1.29063 12.2695 1.29063 21.7412 1.29063 31.1973C1.29063 31.4004 1.31963 31.6036 1.33413 31.8224C20.4883 31.8224 39.5844 31.8224 58.7095 31.8224ZM1.29063 33.2135C1.29063 33.4636 1.29063 33.6511 1.29063 33.8543C1.29063 35.8237 1.29063 37.7931 1.29063 39.7624C1.29063 40.9347 1.63862 41.3098 2.7116 41.3098C20.9233 41.3098 39.1204 41.3098 57.3321 41.3098C58.376 41.3098 58.753 40.919 58.753 39.8093C58.753 37.7931 58.753 35.7924 58.753 33.7762C58.753 33.5886 58.7385 33.4011 58.724 33.1979C39.5699 33.2135 20.4738 33.2135 1.29063 33.2135ZM30.0146 55.7518C34.1615 55.7518 38.3084 55.7518 42.4408 55.7518C43.5573 55.7518 44.1953 55.0641 44.2098 53.8762C44.2243 53.1729 44.2243 52.4695 44.2098 51.7662C44.1953 50.6252 43.5138 49.9062 42.4698 49.9062C34.1615 49.9062 25.8532 49.9062 17.5593 49.9062C16.5153 49.9062 15.8338 50.6408 15.8193 51.7818C15.8048 52.3601 15.8483 52.9541 15.8049 53.5324C15.7179 54.7984 16.3123 55.8143 17.8493 55.7831C21.9092 55.7205 25.9692 55.7518 30.0146 55.7518ZM19.5893 48.5152C26.5491 48.5152 33.4945 48.5152 40.4399 48.5152C40.4399 46.5614 40.4399 44.639 40.4399 42.7008C33.4655 42.7008 26.5346 42.7008 19.5893 42.7008C19.5893 44.6702 19.5893 46.5614 19.5893 48.5152Z" fill="#2776EA"/>
<path d="M19.6909 7.9865C20.9669 6.40788 22.6633 7.29878 24.2003 6.98619C24.2583 6.72048 24.2873 6.40788 24.3743 6.11091C24.6933 5.01682 25.5488 4.32911 26.5928 4.31348C28.0717 4.31348 29.5507 4.31348 31.0297 4.32911C32.3491 4.34474 33.3641 5.4232 33.3931 6.84552C33.4076 7.47071 33.4076 8.09591 33.3931 8.7211C33.3496 10.0496 32.3637 11.1437 31.1312 11.1594C29.5942 11.1906 28.0572 11.1906 26.5203 11.1594C25.3313 11.1437 24.3743 10.1434 24.2438 8.86177C24.2293 8.75236 24.2293 8.64295 24.2003 8.4554C23.2288 8.4554 22.2718 8.39288 21.3294 8.48666C20.9669 8.51792 20.6189 8.90866 20.2419 9.15874C21.2279 11.7533 21.1554 14.2697 19.9084 16.6767C19.0094 18.4273 17.6174 19.6777 15.8485 20.3654C12.2525 21.7564 8.35211 20.2247 6.55415 16.6611C4.52419 12.6442 5.64066 8.11154 9.0771 5.65765C12.1075 3.48509 16.8054 3.73517 19.6909 7.9865ZM10.4691 12.4723C10.4691 14.2072 11.658 15.567 13.2095 15.567C14.8045 15.5826 16.095 14.2072 16.0805 12.5192C16.066 10.8155 14.9205 9.61201 13.311 9.59638C11.629 9.59638 10.4691 10.753 10.4691 12.4723ZM7.42413 15.4263C8.01862 15.0668 8.55511 14.7073 9.1061 14.3948C9.39609 14.2385 9.42509 14.0665 9.33809 13.7539C8.9611 12.2691 9.1931 10.8937 10.1066 9.70579C10.7446 8.8774 11.629 8.48666 12.5715 8.28347C12.5715 7.42382 12.5715 6.61107 12.5715 5.72017C10.4401 6.03276 8.8161 7.12686 7.74312 9.09622C6.65564 11.1125 6.59765 13.2069 7.42413 15.4263ZM16.4285 15.3638C14.8045 17.3332 12.035 17.6301 10.0631 15.3794C9.42509 15.7858 8.7726 16.1922 8.07662 16.6142C9.59909 18.693 11.5421 19.662 13.9345 19.4119C15.7905 19.2088 17.2839 18.2553 18.4294 16.5986C17.7334 16.1766 17.0954 15.7702 16.4285 15.3638ZM19.0819 15.4263C19.8069 13.582 19.8649 11.8315 19.1834 10.0184C18.9224 10.2059 18.7339 10.3466 18.5309 10.4717C18.1974 10.7061 17.8639 10.6905 17.6319 10.331C17.3999 9.9715 17.4869 9.62764 17.8059 9.36193C18.0379 9.15874 18.2989 8.97118 18.5454 8.79925C17.7189 7.0956 15.2975 5.67328 13.9055 5.81395C13.9055 6.48603 13.92 7.15812 13.9055 7.8302C13.891 8.15843 14.007 8.26784 14.297 8.39288C14.8915 8.64295 15.5295 8.89303 16.008 9.33067C17.3129 10.5029 17.5304 12.0815 17.1969 13.8008C17.1679 13.9571 17.2114 14.2385 17.3129 14.3166C17.8639 14.6917 18.4439 15.0199 19.0819 15.4263ZM28.8547 9.8152C29.5362 9.8152 30.2322 9.83083 30.9137 9.8152C31.6242 9.79957 32.1172 9.29941 32.1462 8.54918C32.1752 8.00213 32.1752 7.45508 32.1462 6.90804C32.1027 6.14217 31.6097 5.65765 30.8992 5.65765C29.5072 5.64202 28.1152 5.64202 26.7233 5.65765C25.9838 5.67328 25.5198 6.18906 25.4908 6.98619C25.4763 7.45508 25.4763 7.92398 25.4908 8.39288C25.5053 9.31504 25.9838 9.8152 26.8538 9.8152C27.5207 9.83083 28.1877 9.8152 28.8547 9.8152Z" fill="#2776EA"/>
<path d="M46.4566 19.5831C45.1952 19.5831 44.2092 18.6141 44.1222 17.2543C44.1077 16.9104 43.9917 16.7385 43.6872 16.6291C43.2957 16.504 42.9042 16.3477 42.5272 16.1602C41.8602 15.8319 41.3237 15.6444 40.6277 16.3165C39.8448 17.0667 38.5253 16.8323 37.7568 15.9882C37.4958 15.7069 37.3073 15.7069 37.0028 15.8319C36.3213 16.1289 35.6253 16.3946 34.9148 16.6603C34.6104 16.7697 34.4799 16.926 34.4364 17.3012C34.3204 18.6297 33.3489 19.5831 32.1744 19.5987C30.8404 19.6144 29.9124 18.7547 29.7094 17.3324C29.55 16.1602 30.2749 14.9567 31.3914 14.6128C32.2614 14.3471 33.0879 14.519 33.7404 15.238C33.9724 15.4881 34.1464 15.5193 34.4364 15.3943C35.1758 15.0817 35.9298 14.8316 36.6693 14.5034C36.8288 14.4253 37.0028 14.1595 37.0318 13.972C37.1623 12.5809 38.1483 11.6119 39.4243 11.6119C40.6712 11.6119 41.6717 12.6122 41.7442 13.9564C41.7587 14.269 41.8312 14.4409 42.1212 14.5503C42.8172 14.8004 43.4987 15.1286 44.2092 15.3787C44.3687 15.4412 44.6297 15.3787 44.7602 15.2536C45.5431 14.4565 46.4276 14.3315 47.4281 14.691C47.5731 14.7379 47.8196 14.691 47.9211 14.5816C48.9796 13.5187 50.0236 12.4403 51.0965 11.3931C51.3575 11.143 51.3865 10.9398 51.2705 10.5959C50.85 9.23614 51.546 7.81382 52.8075 7.39181C54.069 6.9698 55.403 7.68878 55.7799 9.06421C56.0409 10.0333 55.8669 10.9242 55.1855 11.6431C54.4895 12.3777 53.634 12.5809 52.735 12.2214C52.358 12.0808 52.155 12.1589 51.894 12.4246C50.908 13.4562 49.9076 14.4721 48.9071 15.4881C48.6606 15.7225 48.5881 15.9101 48.7041 16.2696C49.2406 17.942 48.1096 19.5831 46.4566 19.5831ZM47.6021 17.0511C47.6166 16.4415 47.0801 15.8476 46.5001 15.8319C45.9201 15.8163 45.3836 16.3634 45.3546 17.0042C45.3256 17.645 45.8766 18.2546 46.4711 18.2546C47.0511 18.2389 47.5876 17.6763 47.6021 17.0511ZM53.5615 8.59531C52.996 8.57968 52.445 9.14235 52.416 9.76755C52.387 10.3771 52.909 10.9711 53.489 11.0023C54.0835 11.0336 54.6635 10.4553 54.6635 9.81444C54.6635 9.20488 54.127 8.61094 53.5615 8.59531ZM39.3953 15.3318C39.9897 15.3318 40.5262 14.7847 40.5262 14.1595C40.5407 13.5187 40.0332 12.9717 39.4243 12.956C38.8153 12.9404 38.3078 13.4718 38.2933 14.1283C38.2788 14.7535 38.8153 15.3318 39.3953 15.3318ZM32.0874 15.8319C31.5074 15.8319 30.9999 16.3946 30.9999 17.0354C30.9999 17.6763 31.5074 18.2389 32.0729 18.2546C32.6674 18.2702 33.2039 17.6763 33.1894 17.0198C33.1894 16.379 32.6819 15.8319 32.0874 15.8319Z" fill="#2776EA"/>
<path d="M55.7511 21.7249C55.7511 23.7724 55.7511 25.8199 55.7511 27.8674C55.7511 28.7114 55.5481 28.9302 54.7506 28.9302C53.8807 28.9302 53.0107 28.9302 52.1407 28.9302C51.5462 28.9302 51.3142 28.6802 51.3142 28.055C51.3142 23.8662 51.3142 19.6617 51.3142 15.4729C51.3142 14.8634 51.5462 14.6445 52.1117 14.6445C53.0397 14.6445 53.9532 14.6445 54.8811 14.6445C55.5481 14.6445 55.7511 14.8634 55.7511 15.598C55.7656 17.6298 55.7511 19.6774 55.7511 21.7249ZM52.6337 27.4923C53.2717 27.4923 53.8372 27.4923 54.4317 27.4923C54.4317 23.6473 54.4317 19.8337 54.4317 16.02C53.8082 16.02 53.2282 16.02 52.6337 16.02C52.6337 19.8649 52.6337 23.663 52.6337 27.4923Z" fill="#2776EA"/>
<path d="M37.1931 23.9449C37.1931 22.6007 37.1931 21.2566 37.1931 19.9124C37.1931 19.1934 37.3961 18.9746 38.0631 18.9746C38.9911 18.9746 39.9046 18.9746 40.8325 18.9746C41.398 18.9746 41.63 19.2091 41.63 19.8186C41.63 22.5695 41.63 25.3203 41.63 28.0556C41.63 28.6651 41.398 28.9152 40.847 28.9152C39.9046 28.9308 38.9621 28.9308 38.0341 28.9152C37.4541 28.9152 37.2221 28.6651 37.2076 28.0243C37.1931 26.6645 37.1931 25.3047 37.1931 23.9449ZM40.3106 27.4929C40.3106 25.1015 40.3106 22.7414 40.3106 20.3813C39.7016 20.3813 39.1216 20.3813 38.5271 20.3813C38.5271 22.7727 38.5271 25.1172 38.5271 27.4929C39.1216 27.4929 39.6871 27.4929 40.3106 27.4929Z" fill="#2776EA"/>
<path d="M13.2957 28.9293C10.5988 28.9293 7.90185 28.9293 5.2049 28.9293C5.0599 28.9293 4.91491 28.9449 4.76991 28.9293C4.40742 28.8824 4.16092 28.6948 4.13192 28.2728C4.11742 27.8039 4.37842 27.6163 4.75541 27.5538C4.88591 27.5382 5.00191 27.5538 5.1324 27.5538C10.5408 27.5538 15.9492 27.5538 21.3576 27.5538C21.4446 27.5538 21.5316 27.5538 21.6331 27.5538C22.0971 27.5851 22.4306 27.882 22.3871 28.2728C22.3291 28.7261 22.0536 28.9449 21.6331 28.9449C20.9951 28.9449 20.3716 28.9449 19.7336 28.9449C17.6022 28.9293 15.4417 28.9293 13.2957 28.9293Z" fill="#2776EA"/>
<path d="M13.2385 24.9458C10.556 24.9458 7.88808 24.9458 5.20563 24.9458C5.04613 24.9458 4.82864 25.0083 4.72714 24.9301C4.50964 24.7582 4.23415 24.5394 4.16165 24.2737C4.06015 23.8673 4.36465 23.6485 4.71264 23.5703C4.87214 23.5391 5.03163 23.5547 5.20563 23.5547C10.585 23.5547 15.9499 23.5547 21.3293 23.5547C22.0688 23.5547 22.3878 23.7579 22.4168 24.2268C22.4313 24.7269 22.0978 24.9458 21.3293 24.9458C18.6324 24.9458 15.9354 24.9458 13.2385 24.9458Z" fill="#2776EA"/>
<path d="M48.7044 25.3507C48.7044 26.226 48.7044 27.1012 48.7044 27.9765C48.7044 28.6799 48.4724 28.9143 47.8199 28.9143C46.9209 28.9143 46.0074 28.9143 45.1085 28.9143C44.514 28.9143 44.2675 28.6642 44.2675 28.039C44.253 26.2729 44.253 24.4911 44.2675 22.7249C44.2675 22.0997 44.485 21.8809 45.0505 21.8652C46.0074 21.8652 46.9644 21.8652 47.9214 21.8652C48.4869 21.8652 48.7044 22.0997 48.7044 22.7092C48.7044 23.6002 48.7044 24.4754 48.7044 25.3507ZM45.5724 23.2407C45.5724 24.6786 45.5724 26.0697 45.5724 27.492C46.1814 27.492 46.7759 27.492 47.3704 27.492C47.3704 26.0697 47.3704 24.663 47.3704 23.2407C46.7759 23.2407 46.1959 23.2407 45.5724 23.2407Z" fill="#2776EA"/>
<path d="M30.1301 25.3839C30.1301 24.5086 30.1301 23.6334 30.1301 22.7581C30.1301 22.1016 30.3331 21.8828 30.9421 21.8828C31.8991 21.8828 32.8561 21.8984 33.8131 21.8828C34.3205 21.8828 34.5525 22.1485 34.5525 22.6643C34.567 24.493 34.567 26.3217 34.5525 28.1504C34.5525 28.6662 34.277 28.9319 33.7986 28.9319C32.8416 28.9319 31.8846 28.9475 30.9276 28.9319C30.3766 28.9319 30.1301 28.6818 30.1301 28.0722C30.1301 27.1813 30.1301 26.2748 30.1301 25.3839ZM31.4641 27.4783C32.1021 27.4783 32.6821 27.4783 33.2476 27.4783C33.2476 26.0404 33.2476 24.6493 33.2476 23.2426C32.6386 23.2426 32.0586 23.2426 31.4641 23.2426C31.4641 24.6649 31.4641 26.056 31.4641 27.4783Z" fill="#2776EA"/>
<path d="M29.9863 37.9487C29.2033 37.9487 28.4348 37.9487 27.6518 37.9487C27.2169 37.9487 26.8834 37.7767 26.8689 37.2766C26.8544 36.7608 27.1879 36.5732 27.6228 36.5732C29.2178 36.5732 30.7983 36.5732 32.3933 36.5732C32.8282 36.5732 33.1617 36.7764 33.1472 37.2766C33.1327 37.7767 32.7992 37.9487 32.3643 37.9487C31.5813 37.933 30.7838 37.9487 29.9863 37.9487Z" fill="#2776EA"/>
<path d="M28.811 8.43891C28.3035 8.43891 27.796 8.43891 27.2885 8.43891C26.8681 8.43891 26.5636 8.23572 26.5491 7.76683C26.5346 7.26667 26.8536 7.04785 27.303 7.04785C28.318 7.04785 29.333 7.04785 30.3335 7.04785C30.754 7.04785 31.0585 7.25104 31.073 7.71994C31.0875 8.20446 30.7685 8.43891 30.319 8.43891C29.826 8.43891 29.3185 8.43891 28.811 8.43891Z" fill="#2776EA"/>
</svg>
