<svg width="60" height="59" viewBox="0 0 60 59" fill="none" xmlns="http://www.w3.org/2000/svg">
<path d="M59.9864 29.4431C59.9864 37.202 60 44.9496 59.9864 52.7085C59.9864 55.7353 57.5933 58.1409 54.0445 58.7282C53.555 58.8072 53.052 58.8185 52.5489 58.8185C37.5242 58.8185 22.5132 58.8298 7.48853 58.8185C3.1647 58.8185 0.0101977 56.2209 0.0101977 52.6182C-0.00339924 37.1682 -0.00339924 21.7181 0.0101977 6.2681C0.0101977 2.575 3.16469 0 7.6245 0C22.6491 0 37.6602 0 52.6848 0C56.7639 0 59.9864 2.68794 60 6.13258C60 13.9028 59.9864 21.673 59.9864 29.4431ZM1.96816 29.4996C1.96816 37.1569 1.96816 44.8141 1.96816 52.4714C1.96816 55.3061 4.25245 57.1922 7.69248 57.1922C22.554 57.1922 37.4019 57.1922 52.2633 57.1922C55.785 57.1922 58.0284 55.3287 58.0284 52.3923C58.0284 37.1117 58.0284 21.8311 58.0284 6.56174C58.0284 6.31328 58.0285 6.06481 58.0013 5.82764C57.7701 3.38816 55.5538 1.67149 52.6168 1.67149C50.9036 1.67149 49.1904 1.67149 47.4772 1.67149C34.2474 1.67149 21.0039 1.67149 7.77407 1.68279C7.01264 1.68279 6.19682 1.73926 5.48978 1.94255C3.19189 2.62018 1.98176 4.2465 1.98176 6.48269C1.96816 14.1512 1.96816 21.8198 1.96816 29.4996Z" fill="#2776EA"/>
<path d="M38.1226 10.166C38.2449 12.165 37.0348 13.4751 34.9817 13.5316C34.3154 13.5542 33.6084 13.317 32.9693 13.1137C32.643 13.0008 32.439 12.933 32.1263 13.1024C30.9026 13.7575 29.6381 14.3786 28.4279 15.045C28.2512 15.1466 28.1152 15.4402 28.1424 15.6209C28.4279 17.1795 27.1362 18.6703 25.2734 18.8623C23.3427 19.0656 21.6158 17.9249 21.4935 16.3099C21.4663 15.892 21.2759 15.7113 20.8544 15.5758C19.6171 15.1805 18.407 14.7626 17.1832 14.3334C16.8705 14.2205 16.6802 14.2431 16.4218 14.4577C15.2797 15.3725 13.716 15.5532 12.3971 14.9546C11.1326 14.3786 10.4391 13.1476 10.7247 11.9617C11.0102 10.7646 12.166 9.89496 13.716 9.72555C15.4564 9.54485 17.156 10.6516 17.36 12.165C17.4144 12.5603 17.6047 12.7071 17.9991 12.8427C19.25 13.2492 20.5009 13.6671 21.7246 14.1076C22.0917 14.2318 22.3229 14.2205 22.6356 13.9946C23.8322 13.1589 25.1375 13.0911 26.5244 13.6671C26.7283 13.7575 27.0954 13.7575 27.2858 13.6558C28.5775 13.0234 29.8556 12.357 31.1201 11.6794C31.3105 11.5777 31.46 11.2954 31.46 11.1034C31.3921 9.96272 31.8408 9.04792 33.0101 8.43805C34.2066 7.81688 35.4168 7.87335 36.6405 8.43805C36.9124 8.56228 37.3339 8.61875 37.6195 8.55098C38.9928 8.21217 40.3389 7.7943 41.6986 7.43289C42.0521 7.33125 42.256 7.20701 42.324 6.8682C42.6096 5.5694 43.9149 4.67719 45.5057 4.6433C47.0286 4.59813 48.4291 5.45646 48.837 6.66491C49.2585 7.90723 48.5786 9.23991 47.2189 9.87237C45.9 10.4822 44.1596 10.2902 43.1534 9.31897C42.7591 8.93498 42.4464 8.93498 41.9433 9.0818C40.6924 9.4545 39.4143 9.79331 38.1226 10.166ZM34.8185 9.64649C34.0571 9.6352 33.4044 10.1434 33.4044 10.7646C33.4044 11.3857 34.0299 11.9279 34.7777 11.9279C35.4848 11.9279 36.1238 11.4196 36.151 10.8211C36.1918 10.1886 35.5935 9.65779 34.8185 9.64649ZM15.3884 12.47C15.3748 11.8601 14.7766 11.3632 14.0287 11.3519C13.2809 11.3519 12.6147 11.9053 12.6418 12.5151C12.669 13.125 13.2945 13.6332 14.0151 13.6445C14.7766 13.6445 15.402 13.1024 15.3884 12.47ZM45.6145 8.53969C46.3759 8.53969 47.0014 8.00888 46.9742 7.37642C46.9606 6.78914 46.3215 6.25833 45.6145 6.24703C44.8802 6.23574 44.2276 6.77785 44.214 7.39901C44.2276 8.03147 44.8531 8.55099 45.6145 8.53969ZM26.1844 16.1292C26.2116 15.4741 25.6269 14.9546 24.8519 14.9433C24.1449 14.932 23.4922 15.4403 23.4378 16.0388C23.3835 16.6374 24.0497 17.2134 24.7975 17.2247C25.5318 17.236 26.1572 16.739 26.1844 16.1292Z" fill="#2776EA"/>
<path d="M51.026 23.1867C51.026 25.8972 51.026 28.6077 51.026 31.3183C51.026 32.2105 50.7133 32.4815 49.6527 32.4815C47.4364 32.4815 45.2201 32.4928 43.0174 32.4815C42.0792 32.4815 41.7393 32.1992 41.7393 31.4199C41.7393 25.9085 41.7393 20.3858 41.7393 14.8744C41.7393 14.0273 42.0656 13.7676 43.099 13.7676C45.2881 13.7676 47.4772 13.7676 49.6663 13.7676C50.6861 13.7676 51.026 14.0499 51.026 14.8857C51.0124 17.6527 51.0124 20.4197 51.026 23.1867ZM48.9864 30.7874C48.9864 25.6487 48.9864 20.5665 48.9864 15.4617C47.2188 15.4617 45.492 15.4617 43.7244 15.4617C43.7244 20.5778 43.7244 25.6713 43.7244 30.7874C45.492 30.7874 47.2188 30.7874 48.9864 30.7874Z" fill="#2776EA"/>
<path d="M30.8195 24.8933C30.8195 22.7362 30.8195 20.5791 30.8195 18.4106C30.8195 17.5184 31.1186 17.2812 32.2064 17.2812C34.3683 17.2812 36.5438 17.2812 38.7057 17.2812C39.7935 17.2812 40.1062 17.541 40.1062 18.4106C40.1062 22.7249 40.1062 27.0505 40.1062 31.3647C40.1062 32.1892 39.7663 32.4715 38.8009 32.4715C36.5846 32.4715 34.3819 32.4715 32.1656 32.4715C31.1322 32.4715 30.8195 32.2118 30.8059 31.3647C30.8195 29.2189 30.8195 27.0617 30.8195 24.8933ZM32.8319 18.9527C32.8319 22.9282 32.8319 26.8585 32.8319 30.7887C34.6131 30.7887 36.3263 30.7887 38.0531 30.7887C38.0531 26.8246 38.0531 22.8943 38.0531 18.9527C36.3127 18.9527 34.5995 18.9527 32.8319 18.9527Z" fill="#2776EA"/>
<path d="M8.96997 25.2298C8.96997 23.2195 8.96997 21.2092 8.96997 19.1989C8.96997 18.284 9.25551 18.0469 10.3297 18.0469C12.5188 18.0469 14.7079 18.0469 16.897 18.0469C17.9712 18.0469 18.2567 18.2728 18.2567 19.1424C18.2567 23.2308 18.2703 27.3304 18.2703 31.4188C18.2703 32.1981 17.944 32.4692 16.9786 32.4804C14.7895 32.4917 12.6004 32.4804 10.4112 32.4804C9.2827 32.4804 8.96997 32.2433 8.96997 31.3172C8.96997 29.2956 8.96997 27.2627 8.96997 25.2298ZM10.9959 19.6958C10.9959 23.4228 10.9959 27.1046 10.9959 30.7864C12.7635 30.7864 14.4903 30.7864 16.2443 30.7864C16.2443 27.0707 16.2443 23.3889 16.2443 19.6958C14.4903 19.6958 12.7771 19.6958 10.9959 19.6958Z" fill="#2776EA"/>
<path d="M29.9235 36.9758C22.8667 36.9758 15.8234 36.9758 8.76662 36.9758C8.49468 36.9758 8.22275 36.9871 7.95081 36.9645C7.40693 36.9306 7.12139 36.637 7.0806 36.2191C7.03981 35.7673 7.33894 35.4624 7.88282 35.3721C8.12756 35.3382 8.38591 35.3495 8.63065 35.3495C22.8939 35.3495 37.1571 35.3495 51.4203 35.3495C51.6514 35.3495 51.8826 35.3382 52.1001 35.3721C52.6168 35.4624 52.9024 35.7335 52.9024 36.1739C52.9024 36.6031 52.6168 36.8854 52.0865 36.9532C51.8826 36.9871 51.6786 36.9645 51.4747 36.9645C44.2955 36.9758 37.1027 36.9758 29.9235 36.9758Z" fill="#2776EA"/>
<path d="M29.991 46.7572C22.8526 46.7572 15.7006 46.7572 8.56215 46.7572C8.331 46.7572 8.09985 46.7685 7.8823 46.7346C7.35202 46.6555 7.08008 46.3845 7.08008 45.944C7.08008 45.5035 7.36561 45.2325 7.8823 45.1534C8.09985 45.1196 8.331 45.1421 8.56215 45.1421C22.8933 45.1421 37.2245 45.1421 51.5557 45.1421C51.7325 45.1421 51.9229 45.1308 52.0996 45.1534C52.6027 45.2438 52.9019 45.5035 52.9019 45.944C52.9019 46.3732 52.6163 46.6555 52.0996 46.7346C51.8821 46.7685 51.6509 46.7572 51.4198 46.7572C44.2814 46.7572 37.143 46.7572 29.991 46.7572Z" fill="#2776EA"/>
<path d="M29.9238 41.877C22.8262 41.877 15.7286 41.877 8.63094 41.877C8.38619 41.877 8.12785 41.8996 7.8831 41.8544C7.33922 41.7641 7.05369 41.4704 7.08088 41.0074C7.10807 40.5669 7.4344 40.3298 7.95109 40.262C8.11425 40.2394 8.26382 40.262 8.42698 40.262C22.8262 40.262 37.2253 40.262 51.6245 40.262C52.2228 40.262 52.7395 40.341 52.8755 40.9057C52.9842 41.3349 52.7667 41.6624 52.2908 41.8205C52.0324 41.8996 51.7061 41.8883 51.407 41.8883C44.255 41.877 37.0894 41.877 29.9238 41.877Z" fill="#2776EA"/>
<path d="M25.9663 50.0093C31.7314 50.0093 37.5101 50.0093 43.2752 50.0093C43.5063 50.0093 43.7375 49.9867 43.955 50.0319C44.4717 50.1223 44.7573 50.4159 44.7437 50.8451C44.7301 51.263 44.4445 51.5566 43.9143 51.6244C43.6423 51.6582 43.3704 51.6356 43.0984 51.6356C31.5546 51.6356 20.0244 51.6356 8.48057 51.6356C8.27661 51.6356 8.05906 51.6582 7.8687 51.6131C7.36562 51.5227 7.08008 51.2291 7.08008 50.7999C7.09368 50.3707 7.37921 50.0884 7.8959 50.0206C8.16784 49.9867 8.43978 50.0093 8.71171 50.0093C14.4632 50.0093 20.2147 50.0093 25.9663 50.0093Z" fill="#2776EA"/>
<path d="M29.1751 27.3323C29.1751 28.6989 29.1751 30.0654 29.1751 31.4207C29.1751 32.2113 28.8624 32.471 27.897 32.4823C25.6399 32.4936 23.3828 32.4936 21.1257 32.4823C20.2691 32.4823 19.902 32.1774 19.8884 31.4885C19.8748 28.7215 19.8748 25.9545 19.8884 23.1875C19.8884 22.4872 20.2691 22.1936 21.1121 22.1823C23.3964 22.171 25.6671 22.171 27.9514 22.1823C28.8352 22.1823 29.1615 22.4872 29.1615 23.2326C29.1751 24.6105 29.1751 25.9657 29.1751 27.3323ZM27.122 30.8108C27.122 28.4617 27.122 26.169 27.122 23.899C25.3408 23.899 23.6411 23.899 21.9415 23.899C21.9415 26.2255 21.9415 28.5069 21.9415 30.8108C23.6955 30.8108 25.3951 30.8108 27.122 30.8108Z" fill="#2776EA"/>
</svg>
