<svg width="59" height="60" viewBox="0 0 59 60" fill="none" xmlns="http://www.w3.org/2000/svg">
<path fill-rule="evenodd" clip-rule="evenodd" d="M34.1925 46.3176L35.7844 47.4346C35.8944 47.5038 35.9885 47.6015 36.0544 47.7241L37.6064 50.6058L51.3556 42.6676L49.5808 39.5348L49.5812 39.5346C49.5203 39.4275 49.484 39.3044 49.4804 39.1725L49.4408 37.545C49.2918 30.6553 49.1019 30.3277 45.9978 24.9762C45.7956 24.6278 45.5814 24.2584 45.3545 23.8656L45.3558 23.8648C44.576 22.5433 43.0784 22.8624 42.3959 23.7328C42.0209 24.211 41.8987 24.9 42.3187 25.619L44.0042 28.5384C44.2178 28.9099 44.0896 29.3843 43.7181 29.5977C43.3467 29.8112 42.8723 29.683 42.6589 29.3116L40.9734 26.3921C39.8185 24.3918 36.7766 26.138 37.9374 28.1486L39.6229 31.068C39.8364 31.4396 39.7083 31.9139 39.3368 32.1272C38.9654 32.3408 38.491 32.2126 38.2776 31.8411L36.5921 28.9217C35.4148 26.8824 32.4153 28.6991 33.5561 30.6751L33.5548 30.6759L35.3068 33.7103C35.5203 34.0819 35.3922 34.5562 35.0207 34.7697C34.6493 34.9832 34.1748 34.855 33.9615 34.4836L32.2122 31.4536L32.2109 31.4544L26.3945 21.38C25.6261 20.0517 23.5958 20.2796 23.188 21.8022C23.0715 22.2375 23.1189 22.7151 23.3587 23.1305L23.3574 23.1312L29.294 33.4138L30.5172 35.5294L30.9928 36.3532C31.3492 36.9361 30.8892 37.5976 30.281 37.5514L24.3709 37.097C24.3234 37.0934 24.2756 37.0855 24.2278 37.0727C23.7623 36.9481 23.2885 37.0248 22.9003 37.249L22.8996 37.2477C22.11 37.7137 21.7737 38.6923 22.2433 39.5058C22.4798 39.9154 22.8886 40.2566 23.3875 40.4767C23.4161 40.4873 23.4444 40.4995 23.4723 40.5137C25.0146 41.3001 26.1676 41.8581 27.1677 42.3421C29.8256 43.6284 31.4427 44.4365 34.1925 46.3176ZM10.4834 30.5085C10.053 30.5085 9.7042 30.1597 9.7042 29.7292C9.7042 29.2988 10.053 28.95 10.4834 28.95H14.8472C15.2776 28.95 15.6265 29.2988 15.6265 29.7292C15.6265 30.1597 15.2776 30.5085 14.8472 30.5085H10.4834ZM17.9038 14.8993C17.9038 15.3297 17.555 15.6785 17.1246 15.6785C16.0828 15.6785 16.0828 13.9982 17.1246 13.9982C17.555 13.9982 17.9038 14.3471 17.9038 14.7775V14.8993ZM15.3907 22.4823C14.9603 22.4823 14.6115 22.1334 14.6115 21.703C14.6115 21.2726 14.9603 20.9238 15.3907 20.9238H16.3453V17.6899H15.9167C15.4863 17.6899 15.1375 17.3411 15.1375 16.9107C15.1375 16.4803 15.4863 16.1314 15.9167 16.1314H17.1246C17.555 16.1314 17.9038 16.4803 17.9038 16.9107V20.9238H18.7805C19.2109 20.9238 19.5597 21.2726 19.5597 21.703C19.5597 22.1334 19.2109 22.4823 18.7805 22.4823C17.6506 22.4823 16.5207 22.4823 15.3907 22.4823ZM5.52758 4.57612C5.09717 4.57612 4.74833 4.22728 4.74833 3.79687C4.74833 3.36647 5.09717 3.01763 5.52758 3.01763H6.98022C7.41062 3.01763 7.75947 3.36647 7.75947 3.79687C7.75947 4.22728 7.41062 4.57612 6.98022 4.57612H5.52758ZM15.3544 4.57612C14.924 4.57612 14.5751 4.22728 14.5751 3.79687C14.5751 3.36647 14.924 3.01763 15.3544 3.01763H19.234C19.6644 3.01763 20.0132 3.36647 20.0132 3.79687C20.0132 4.22728 19.6644 4.57612 19.234 4.57612H15.3544ZM13.658 51.023C13.2276 51.023 12.8787 50.6742 12.8787 50.2438C12.8787 49.8134 13.2276 49.4646 13.658 49.4646H20.9305C21.3609 49.4646 21.7098 49.8134 21.7098 50.2438C21.7098 50.6742 21.3609 51.023 20.9305 51.023H13.658ZM24.9069 15.8905C25.0362 16.3006 24.8087 16.7382 24.3986 16.8675C23.9884 16.9969 23.5509 16.7694 23.4215 16.3592C22.3501 12.972 18.734 11.1029 15.35 12.1761C11.2437 13.4782 9.57303 18.3655 11.9696 21.9094C12.3214 22.4297 12.7405 22.8867 13.2091 23.2714C13.3956 23.4248 13.4922 23.6471 13.4924 23.871L13.5174 25.5324L15.0446 24.6016C15.3553 24.4121 15.6966 24.5136 16.0392 24.5608C17.2144 24.7223 17.985 24.8283 19.2387 24.4309C19.6488 24.3015 20.0863 24.5291 20.2157 24.9392C20.3451 25.3494 20.1175 25.7869 19.7074 25.9163C18.1289 26.4168 17.2194 26.2916 15.8323 26.101L15.6197 26.0717L13.1668 27.5668L13.1663 27.5659C12.6607 27.875 11.9939 27.5211 11.9857 26.9123L11.9453 24.2317C9.24575 21.8037 8.53663 17.848 10.2051 14.6298C12.2339 10.7168 17.0543 9.18484 20.9679 11.214C22.7838 12.1557 24.2405 13.789 24.9069 15.8905ZM37.7337 52.3241L53.7546 43.0743C53.877 43.0046 54.0437 43.0463 54.1183 43.1714L54.117 43.1721L56.8491 47.9041C56.9191 48.0254 56.8753 48.1919 56.7513 48.2636L39.175 58.4113C39.0537 58.4828 38.8866 58.4363 38.8156 58.3135L36.0836 53.5845C36.0136 53.4632 36.0559 53.2947 36.1814 53.2221L37.6443 52.3757L37.7337 52.3241ZM36.2589 51.3838L34.7689 48.6174L34.5884 48.4885V50.3911C34.5884 52.6971 32.7044 54.5811 30.3984 54.5811H4.19C1.88396 54.5811 0 52.6971 0 50.3911V4.19C0 1.88396 1.88396 0 4.19 0H30.3985C32.7045 0 34.5885 1.88396 34.5885 4.19V26.5169C35.1116 26.4221 35.6575 26.4493 36.1689 26.623C36.5618 24.729 38.71 23.4871 40.5483 24.1036C41.0892 21.4495 45.0052 20.1579 46.6987 23.0871L46.7 23.0863C46.9269 23.4792 47.1411 23.8484 47.3433 24.197C50.8946 30.3193 50.8213 30.4347 51.0111 38.2921C51.0159 38.4923 51.0214 38.7058 51.0276 38.9356L52.7017 41.8905L53.0631 41.6846C53.9478 41.2705 54.8515 41.5134 55.4123 42.3138C55.4428 42.3542 55.4688 42.3968 55.4903 42.4411L58.1946 47.125C58.6969 47.995 58.3981 49.1082 57.5305 49.6091L39.9542 59.7568C39.0733 60.2663 37.9304 59.949 37.447 59.0497L34.7382 54.3578C34.2284 53.4747 34.546 52.337 35.4454 51.8536L36.2589 51.3838ZM33.0299 27.2197C32.6738 27.4983 32.3712 27.8426 32.1457 28.2354L27.7627 20.644C27.3318 19.8421 26.5494 19.2823 25.7309 19.0631C22.8807 18.2994 20.5512 21.3781 22.0128 23.9097L22.0141 23.9089L28.9292 35.8865L24.5542 35.5501C23.7 35.3424 22.8346 35.4916 22.1208 35.9037L22.1216 35.905C20.5966 36.787 19.9909 38.7086 20.8977 40.2792C21.304 40.9831 21.9725 41.5537 22.7689 41.9034C24.2136 42.6399 25.4335 43.2303 26.4917 43.7424C28.0739 44.508 29.2804 45.0921 30.6675 45.9068H1.55862V7.59388H33.03V27.2197H33.0299ZM33.0299 6.03525V4.19C33.0299 2.74424 31.8442 1.55849 30.3985 1.55849H4.19C2.74424 1.55849 1.55849 2.74411 1.55849 4.19V6.03513L33.0299 6.03525ZM1.55862 47.4651H33.03V50.3908C33.03 51.8367 31.8444 53.0223 30.3986 53.0223H4.19C2.74424 53.0223 1.55849 51.8367 1.55849 50.3908L1.55862 47.4651Z" fill="#2776EA"/>
</svg>
