<svg width="52" height="60" viewBox="0 0 52 60" fill="none" xmlns="http://www.w3.org/2000/svg">
<path d="M35.5964 40.8931H46.5435C46.9656 40.8931 47.3079 40.5509 47.3079 40.1287V35.6783C47.3079 35.2561 46.9656 34.9139 46.5435 34.9139H35.5964C35.1743 34.9139 34.832 35.2561 34.832 35.6783V40.1287C34.832 40.5509 35.1743 40.8931 35.5964 40.8931ZM41.8343 36.4427H45.7791V39.3643H41.8343V36.4427ZM36.3608 36.4427H40.3056V39.3643H36.3608V36.4427Z" fill="#2776EA"/>
<path d="M35.5964 33.3347H46.5435C46.9656 33.3347 47.3079 32.9925 47.3079 32.5703V28.1198C47.3079 27.6977 46.9656 27.3554 46.5435 27.3554H35.5964C35.1743 27.3554 34.832 27.6977 34.832 28.1198V32.5703C34.832 32.9925 35.1743 33.3347 35.5964 33.3347ZM41.8343 28.8842H45.7791V31.8059H41.8343V28.8842ZM36.3608 28.8842H40.3056V31.8059H36.3608V28.8842Z" fill="#2776EA"/>
<path d="M6.73828 48.1011H8.2671V50.9541H6.73828V48.1011Z" fill="#2776EA"/>
<path d="M51.6865 11.7048L43.4248 0.297846C43.1367 -0.0992818 42.4746 -0.0992818 42.1864 0.297846L33.9248 11.7048C33.7564 11.9373 33.7326 12.2449 33.8632 12.5005C33.9938 12.7565 34.2566 12.9174 34.544 12.9174H38.8131V21.5997H32.595V11.5764C32.595 11.1543 32.2527 10.812 31.8305 10.812H13.3231C12.901 10.812 12.5588 11.1543 12.5588 11.5764V21.3216H9.36343C9.16076 21.3216 8.9663 21.4023 8.82298 21.5456L2.918 27.4506C2.77464 27.5939 2.69404 27.7883 2.69404 27.9911V55.5379H0.764403C0.342279 55.5379 0 55.8802 0 56.3023V59.2356C0 59.6577 0.342279 60 0.764403 60H50.5835C51.0057 60 51.3479 59.6577 51.3479 59.2356V56.3023C51.3479 55.8802 51.0057 55.5379 50.5835 55.5379H48.6058V46.3705H50.5835C51.0057 46.3705 51.3479 46.0282 51.3479 45.6061V22.3641C51.3479 21.942 51.0057 21.5997 50.5835 21.5997H46.7981V12.9174H51.0672C51.3546 12.9174 51.6174 12.7565 51.7481 12.5005C51.8787 12.2449 51.8548 11.9373 51.6865 11.7048ZM32.595 46.3705H43.6338V55.5379H32.595V46.3705ZM14.0875 12.3408H21.8124V43.3666H23.3412V12.3408H31.0661V55.5379H14.0875V12.3408ZM4.22282 28.3076L6.73883 25.7915V46.7235H8.2676V24.2627L9.67995 22.8504H12.5588V55.5379H4.22282V28.3076ZM49.8191 57.0667V58.4712H1.52881V57.0667H49.8191ZM45.1626 55.5379V46.3705H47.0769V55.5379H45.1626ZM49.8191 23.1285V44.8417H32.595V23.1285H49.8191ZM40.3419 21.5997V12.9174H45.2694V21.5997H40.3419ZM36.0414 11.3886L42.8056 2.04906L49.5698 11.3886H36.0414Z" fill="#2776EA"/>
<path d="M21.8125 44.6576H23.3413V46.2931H21.8125V44.6576Z" fill="#2776EA"/>
</svg>
