<svg width="60" height="60" viewBox="0 0 60 60" fill="none" xmlns="http://www.w3.org/2000/svg">
<mask id="mask0_1196_359489" style="mask-type:alpha" maskUnits="userSpaceOnUse" x="0" y="0" width="60" height="60">
<rect width="60" height="60" fill="#D9D9D9"/>
</mask>
<g mask="url(#mask0_1196_359489)">
<path d="M47.4197 52.2581H46.452V33.871C46.452 33.3358 46.0184 32.9032 45.4842 32.9032H14.5165C13.9823 32.9032 13.5488 33.3358 13.5488 33.871V52.2581H12.581C12.0468 52.2581 11.6133 52.6906 11.6133 53.2258V57.0968C11.6133 58.6974 12.9159 60 14.5165 60H45.4842C47.0849 60 48.3875 58.6974 48.3875 57.0968V53.2258C48.3875 52.6906 47.9539 52.2581 47.4197 52.2581ZM15.4842 34.8387H44.5165V52.2581H42.581V37.7419C42.581 37.2068 42.1475 36.7742 41.6133 36.7742H18.3875C17.8533 36.7742 17.4197 37.2068 17.4197 37.7419V52.2581H15.4842V34.8387ZM40.6455 52.2581H19.3552V38.7097H40.6455V52.2581ZM46.452 57.0968C46.452 57.631 46.0175 58.0645 45.4842 58.0645H14.5165C13.9833 58.0645 13.5488 57.631 13.5488 57.0968V54.1935H14.5165H45.4842H46.452V57.0968Z" fill="#2776EA"/>
<path d="M22.2607 50.3226H30.0026C30.5368 50.3226 30.9704 49.89 30.9704 49.3548V41.6129C30.9704 41.0777 30.5368 40.6452 30.0026 40.6452H22.2607C21.7265 40.6452 21.293 41.0777 21.293 41.6129V49.3548C21.293 49.89 21.7265 50.3226 22.2607 50.3226ZM23.2285 42.5806H29.0349V48.3871H23.2285V42.5806Z" fill="#2776EA"/>
<path d="M38.7088 40.6452H32.9023V42.5806H38.7088V40.6452Z" fill="#2776EA"/>
<path d="M38.7088 44.5161H32.9023V46.4516H38.7088V44.5161Z" fill="#2776EA"/>
<path d="M38.7088 48.3871H32.9023V50.3226H38.7088V48.3871Z" fill="#2776EA"/>
<path d="M18.3857 30.9677H41.6115C42.1457 30.9677 42.5793 30.5352 42.5793 30V15.4839H45.4825C46.0167 15.4839 46.4502 15.0513 46.4502 14.5161V10.6452C46.4502 10.11 46.0167 9.67742 45.4825 9.67742H42.5793V7.74194H45.4825C46.0167 7.74194 46.4502 7.30935 46.4502 6.77419V2.90323C46.4502 2.36806 46.0167 1.93548 45.4825 1.93548H42.5793V0.967742C42.5793 0.432581 42.1457 0 41.6115 0H18.3857C17.8515 0 17.418 0.432581 17.418 0.967742V30C17.418 30.5352 17.8515 30.9677 18.3857 30.9677ZM44.5147 11.6129V13.5484H42.5793V11.6129H44.5147ZM44.5147 3.87097V5.80645H42.5793V3.87097H44.5147ZM19.3535 1.93548H40.6438V29.0323H19.3535V1.93548Z" fill="#2776EA"/>
<path d="M30.5833 4.06452C30.2397 3.80516 29.7655 3.80516 29.422 4.06452L21.6801 9.87097C21.4362 10.0539 21.293 10.3413 21.293 10.6452C21.293 14.6487 22.852 18.4113 25.6826 21.241L29.3185 24.8777C29.4994 25.0597 29.7462 25.1613 30.0026 25.1613C30.2591 25.1613 30.5059 25.0597 30.6868 24.8777L34.3226 21.241C37.1533 18.4113 38.7123 14.6487 38.7123 10.6452C38.7123 10.3413 38.5691 10.0539 38.3252 9.87097L30.5833 4.06452ZM32.9543 19.8726L30.0026 22.8252L27.051 19.8726C24.6985 17.521 23.3552 14.43 23.2372 11.1223L30.0026 6.04839L36.7681 11.1223C36.6501 14.43 35.3068 17.521 32.9543 19.8726Z" fill="#2776EA"/>
<path d="M26.1289 14.5161C26.1289 16.651 27.865 18.3871 29.9999 18.3871C32.1347 18.3871 33.8708 16.651 33.8708 14.5161C33.8708 12.3813 32.1347 10.6452 29.9999 10.6452C27.865 10.6452 26.1289 12.3813 26.1289 14.5161ZM31.9354 14.5161C31.9354 15.5835 31.0673 16.4516 29.9999 16.4516C28.9325 16.4516 28.0644 15.5835 28.0644 14.5161C28.0644 13.4487 28.9325 12.5806 29.9999 12.5806C31.0673 12.5806 31.9354 13.4487 31.9354 14.5161Z" fill="#2776EA"/>
<path d="M59.0338 16.4516H53.2273V13.5484C53.2273 13.1758 53.0144 12.8381 52.6786 12.6764C52.3438 12.5148 51.946 12.5603 51.6547 12.7926L46.816 16.6635C46.5867 16.8474 46.4531 17.1252 46.4531 17.4193C46.4531 17.7135 46.5867 17.9913 46.816 18.1752L51.6547 22.0461C51.8299 22.1864 52.0438 22.2581 52.2596 22.2581C52.4018 22.2581 52.5451 22.2271 52.6786 22.1623C53.0144 22.0006 53.2273 21.6629 53.2273 21.2903V18.3871H58.066V41.6129H50.3241V43.5484H59.0338C59.568 43.5484 60.0015 43.1158 60.0015 42.5806V17.4193C60.0015 16.8842 59.568 16.4516 59.0338 16.4516ZM51.2918 19.2764L48.9702 17.4193L51.2918 15.5623V19.2764Z" fill="#2776EA"/>
<path d="M1.93548 18.3871H6.77419V21.2903C6.77419 21.6629 6.9871 22.0006 7.3229 22.1623C7.45645 22.2271 7.59968 22.2581 7.74194 22.2581C7.95774 22.2581 8.17161 22.1865 8.34677 22.0461L13.1855 18.1752C13.4148 17.9913 13.5484 17.7136 13.5484 17.4194C13.5484 17.1252 13.4148 16.8474 13.1855 16.6636L8.34677 12.7926C8.05548 12.5594 7.65774 12.5139 7.3229 12.6765C6.9871 12.8381 6.77419 13.1758 6.77419 13.5484V16.4516H0.967742C0.433548 16.4516 0 16.8842 0 17.4194V42.5806C0 43.1158 0.433548 43.5484 0.967742 43.5484H9.67742V41.6129H1.93548V18.3871ZM8.70968 15.5623L11.0313 17.4194L8.70968 19.2765V15.5623Z" fill="#2776EA"/>
</g>
</svg>
