<svg width="145" height="143" viewBox="0 0 145 143" fill="none" xmlns="http://www.w3.org/2000/svg">
<path d="M144.051 36.4442C143.593 36.5043 143.14 36.5969 142.681 36.6154C141.039 36.6756 139.724 37.4114 138.979 38.8136C138.202 40.2806 137.401 41.8449 137.17 43.4461C137.022 44.4688 137.706 45.76 138.34 46.718C139.59 48.6015 139.659 48.8792 138.063 50.5313C136.619 52.0261 135.17 53.5209 133.731 55.0203C132.398 56.404 131.811 56.5012 130.348 55.3304C128.849 54.1317 127.229 53.8818 125.47 54.4927C124.494 54.8305 123.541 55.2656 122.615 55.7422C121 56.5706 120.153 57.9266 119.963 59.7453C119.764 61.6335 118.876 62.2536 117.085 61.8556C115.359 61.4715 115.081 61.6751 115.081 63.48C115.072 74.1795 115.086 84.8791 115.058 95.5786C115.058 96.2913 114.956 97.1104 114.595 97.6935C114.04 98.5913 113.174 98.5265 112.712 97.5732C112.401 96.9392 112.304 96.1432 112.304 95.4166C112.281 85.004 112.286 74.596 112.29 64.1834C112.29 63.5077 112.29 62.8367 112.29 62.2119C111.892 62.087 111.735 62.0037 111.573 61.9898C108.519 61.7306 108.449 61.7445 107.936 58.8336C107.616 57.0241 106.867 55.8857 104.904 55.6219C104.085 55.5108 103.28 55.0157 102.553 54.5621C101.309 53.78 100.175 53.8726 99.0178 54.7056C96.0514 56.839 96.4401 57.1121 93.3348 54.1456C92.2473 53.109 91.1921 52.0307 90.1046 50.9987C89.0356 49.9852 88.1193 48.9486 89.4336 47.19C88.6098 47.1206 88.073 47.0373 87.5361 47.0373C61.2778 47.0327 35.0195 47.028 8.7612 47.0373C5.63741 47.0373 4.04544 48.5182 3.64282 51.679C3.47621 52.984 3.21243 54.2891 3.15227 55.5988C3.11524 56.441 3.44845 57.2926 3.47621 58.1441C3.50861 59.0974 3.51786 60.0924 3.27722 60.9995C3.17078 61.3974 2.31 61.9528 1.99068 61.8463C1.5279 61.6936 1.06511 61.0503 0.921651 60.5274C0.73191 59.824 0.83835 59.0372 0.83835 58.2829C0.842978 55.969 0.852234 53.6551 0.875373 51.3458C0.917023 47.4769 3.84181 44.4318 7.72456 44.2467C9.05275 44.1819 10.3856 44.256 11.7138 44.256C37.2779 44.256 62.842 44.256 88.4108 44.256C89.142 44.256 89.8732 44.256 90.9931 44.256C90.0953 42.0577 89.4474 40.1464 88.5173 38.3925C88.2257 37.8418 87.1844 37.541 86.4347 37.3975C82.6862 36.6802 83.223 36.9532 83.0286 33.3389C82.9315 31.5202 83.4729 29.7292 82.862 27.8642C82.4502 26.6054 83.3804 25.7076 84.7363 25.5132C89.5539 24.8283 92.0529 19.0065 89.2253 15.0636C88.0776 13.4577 88.1702 13.2495 89.5493 11.9028C91.0718 10.4126 92.4278 8.75123 93.9133 7.21942C95.422 5.65984 95.7691 5.66446 97.5647 6.93712C101.1 9.43152 107.167 6.82605 107.746 2.56382C107.838 1.88816 107.94 1.21249 108.065 0.374854C71.6951 0.374854 145.847 0.374854 109.5 0.374854C114.5 1.5 109.501 0 109.501 0C116 1 110.532 1.93897 116.798 0.374854C112.29 1.5 108.518 0.374854 118.723 0.347087C108.065 0.374854 110.416 0.347087 118.723 0.347087C119.343 2.1288 119.547 3.85961 120.445 5.07673C122.527 7.90434 127.211 8.39489 130.043 6.30311C131.075 5.54414 131.908 5.56265 132.796 6.43731C134.236 7.85806 135.818 9.16311 137.109 10.7042C139.507 13.5642 139.433 12.6664 137.572 15.5865C137.387 15.8781 137.086 16.1419 137.022 16.4566C136.887 17.0906 136.674 17.8218 136.864 18.3956C137.383 19.983 138.035 21.5379 138.748 23.0512C138.993 23.5742 139.511 24.1897 140.025 24.3285C141.335 24.6802 142.709 24.7867 144.06 24.9903C144.051 28.8083 144.051 32.6262 144.051 36.4442ZM136.036 48.4395C135.3 47.3751 134.684 46.4773 134.055 45.5841C133.523 44.8298 133.329 44.0708 133.713 43.1499C134.647 40.9147 135.522 38.6517 136.401 36.3933C136.813 35.3289 137.526 34.7458 138.678 34.5236C142.334 33.8202 141.774 34.2274 141.76 30.7196C141.747 27.4847 141.723 27.4338 138.507 26.9525C137.253 26.7627 136.582 26.1982 136.156 25.0181C135.531 23.2965 134.772 21.6212 134 19.9552C133.12 18.0578 133.148 16.2761 134.416 14.5638C134.712 14.1612 134.985 13.74 135.314 13.2634C133.856 11.7223 132.482 10.2692 131.052 8.75586C130.052 9.45466 129.182 10.0239 128.358 10.6486C127.373 11.3983 126.382 11.4076 125.271 10.9356C123.254 10.0794 121.208 9.28343 119.163 8.49207C118.052 8.06168 117.298 7.38139 117.136 6.14113C117.062 5.57191 116.881 5.01194 116.798 4.44272C116.664 3.49864 116.196 2.98958 115.192 3.00809C113.98 3.03123 112.762 3.0266 111.55 3.01272C110.731 3.00346 110.245 3.35981 110.111 4.18356C110.023 4.69725 109.889 5.19705 109.805 5.71074C109.551 7.28883 108.671 8.27919 107.144 8.78825C105.886 9.20939 104.585 9.61663 103.461 10.2877C101.211 11.6344 99.1289 12.0786 97.0602 10.0054C96.4216 9.3621 95.7274 9.51019 95.098 10.1673C94.2558 11.042 93.4042 11.912 92.4926 12.7127C91.6549 13.4531 91.6781 14.1519 92.3537 14.9479C92.6129 15.258 92.8304 15.6004 93.0895 15.9151C94.1493 17.197 94.1262 18.4465 93.3024 19.9043C92.6036 21.1353 92.1455 22.5237 91.729 23.8889C91.0487 26.101 89.9241 27.7716 87.3881 27.9567C86.4116 28.0308 85.9395 28.6185 85.7868 29.4932C85.6896 30.0578 85.685 30.6455 85.6711 31.2194C85.6063 35.0836 85.523 34.2413 88.6792 34.8753C89.9843 35.1391 90.8404 35.6991 91.331 37.0134C92.1038 39.0682 93.0386 41.0581 93.9318 43.062C94.39 44.0894 94.3992 45.0288 93.7837 46.0192C92.275 48.458 92.2982 48.4719 94.103 50.6655C94.2511 50.846 94.3946 51.0265 94.5519 51.1977C96.4725 53.3219 95.9357 53.6227 98.6337 51.6883C99.911 50.7766 101.068 50.61 102.493 51.2903C104.108 52.0585 105.77 52.7712 107.477 53.2802C109.319 53.8309 110.217 54.9416 110.532 56.8066C110.967 59.3751 111.041 59.3612 113.674 59.3658C113.79 59.3658 113.906 59.3658 114.021 59.3658C117.011 59.3658 117.052 59.3705 117.557 56.4318C117.825 54.8583 118.547 53.8356 120.107 53.2849C122.009 52.6092 123.869 51.7993 125.693 50.9339C126.933 50.3462 128.011 50.3832 129.085 51.2208C129.45 51.5031 129.862 51.7253 130.228 52.0029C130.885 52.4981 131.473 52.4611 132.088 51.9104C133.324 50.7858 134.592 49.6983 136.036 48.4395Z" fill="#0374BA"/>
<path d="M34.7182 143C35.7548 140.552 36.7637 138.094 37.8373 135.665C38.4019 134.387 39.4339 133.726 40.8593 133.73C42.3032 133.735 43.7517 133.74 45.1956 133.707C46.7366 133.675 46.9727 133.485 46.9727 132.036C46.9727 126.941 47.4216 127.941 43.0483 127.922C31.7702 127.876 20.4876 127.913 9.20955 127.89C8.29324 127.89 7.36305 127.774 6.46988 127.561C3.09619 126.765 1.12936 124.419 0.874826 120.93C0.810037 120.064 0.814665 119.194 0.814665 118.329C0.810037 101.553 0.805409 84.7771 0.805409 68.0012C0.805409 67.8855 0.800781 67.7698 0.800781 67.6541C0.814665 66.7147 0.763759 65.5855 2.06881 65.6179C3.28593 65.6456 3.34609 66.7517 3.38774 67.7004C3.42013 68.3946 3.41088 69.0887 3.41088 69.7829C3.41088 81.8708 3.41088 93.9633 3.41088 106.051C3.41088 106.514 3.40625 106.977 3.41088 107.44C3.44327 109.457 3.47567 109.494 5.44712 109.499C10.7691 109.504 16.0911 109.499 21.4131 109.499C50.7999 109.499 80.1866 109.499 109.573 109.499C110.374 109.499 111.175 109.499 112.086 109.499C112.165 108.916 112.267 108.481 112.271 108.041C112.295 106.713 112.276 105.38 112.281 104.052C112.285 103.126 112.406 102.233 113.609 102.229C114.724 102.224 115.067 102.964 115.067 103.964C115.057 109.517 115.164 115.076 115.016 120.624C114.9 124.91 111.526 127.89 107.074 127.895C95.7963 127.913 84.5136 127.899 73.2356 127.899C72.3702 127.899 71.5002 127.89 70.6348 127.908C68.9549 127.941 68.9317 127.973 68.904 129.704C68.8947 130.283 68.8993 130.861 68.904 131.44C68.9132 133.707 68.9132 133.712 71.2595 133.73C72.2406 133.74 73.2264 133.758 74.2075 133.707C76.2159 133.596 77.4932 134.614 78.2846 136.336C79.2934 138.543 80.2468 140.774 81.2186 142.995C80.0617 142.995 78.9047 142.995 77.7477 142.995C77.2803 141.653 76.8592 140.297 76.3409 138.978C75.4338 136.683 73.1893 135.609 70.769 136.16C69.7694 136.387 68.7374 136.553 67.7146 136.558C59.2272 136.59 50.7397 136.581 42.2569 136.567C41.2712 136.567 40.4243 136.655 39.9985 137.724C39.2951 139.487 38.5546 141.241 37.8327 142.995C36.8007 143 35.7594 143 34.7182 143ZM3.89217 112.715C3.13321 115.497 2.82777 118.079 3.57748 120.828C4.37347 123.753 5.71554 125.118 8.69586 125.118C41.5396 125.127 74.3787 125.127 107.222 125.118C110.235 125.118 111.971 123.531 112.179 120.504C112.308 118.662 112.267 116.806 112.267 114.955C112.267 112.641 112.248 112.637 109.976 112.637C75.2256 112.637 40.4752 112.637 5.72479 112.641C5.10929 112.637 4.48916 112.688 3.89217 112.715ZM65.6691 133.337C65.7524 131.981 65.7478 130.718 65.9283 129.487C66.0856 128.385 65.6275 127.973 64.6371 127.969C60.199 127.959 55.7655 127.964 51.3274 127.964C50.6009 127.964 50.0317 128.251 49.9993 129.015C49.9391 130.426 49.9807 131.847 49.9807 133.332C55.3814 133.337 60.4767 133.337 65.6691 133.337Z" fill="#0374BA"/>
<path d="M81.8238 54.826C81.1019 54.6502 80.3105 54.5946 79.6765 54.2522C79.1952 53.9884 78.9083 53.3636 78.5334 52.8962C79.024 52.5584 79.5145 51.929 80.0051 51.9336C82.0182 51.9429 84.0313 52.1465 86.0444 52.2668C86.4285 52.29 86.8173 52.2715 87.4328 52.2715C87.4929 52.9656 87.678 53.831 87.6225 54.6826C87.5114 56.3995 87.28 58.1118 87.0718 59.8241C86.9515 60.7913 86.6969 61.7493 85.4197 61.5734C84.2303 61.4114 84.5496 60.4025 84.5172 59.6436C84.4848 58.9031 84.508 58.1627 84.508 57.4222C84.3876 57.3343 84.272 57.2464 84.1516 57.1584C82.8743 58.0701 81.5924 58.9726 80.3244 59.8981C79.6719 60.3748 79.0703 60.9162 78.4085 61.3837C77.1219 62.2953 76.2612 63.1098 76.4093 65.1044C76.6499 68.2884 73.6742 70.6948 70.4671 69.5286C68.9816 68.9872 67.8293 69.3528 66.6538 70.3293C65.0155 71.6945 63.2709 72.9255 61.5632 74.2074C60.7857 74.7905 60.3831 75.4476 60.3877 76.5259C60.4062 79.6127 58.3006 81.5934 55.3943 81.4083C53.1498 81.2648 51.4421 79.6219 51.2385 77.0674C51.1228 75.5865 50.3962 74.7488 49.2208 74.1009C48.8644 73.9066 48.4618 73.7585 48.1749 73.4947C46.694 72.1156 45.0881 71.713 43.1444 72.5182C42.6354 72.7265 41.8764 72.546 41.3025 72.3377C39.8077 71.7963 38.4981 71.9999 37.2347 72.9579C36.596 73.4392 35.8602 73.8094 35.1429 74.175C33.5879 74.9663 32.7272 76.1881 32.4356 77.9328C32.0191 80.4272 29.6219 81.9035 27.1044 81.3527C24.7395 80.8344 23.0781 78.2336 23.6566 75.9659C24.323 73.3605 26.7989 71.625 29.1267 72.5506C31.0935 73.3327 32.5652 72.8607 34.1016 71.7916C34.62 71.4307 35.1799 71.116 35.7445 70.8291C37.2578 70.0608 38.1973 68.8669 38.2806 67.1684C38.3777 65.2062 39.8448 63.7624 42.5706 63.4338C44.3662 63.2209 46.4765 64.7759 47.0411 66.6224C47.092 66.789 47.1614 66.9602 47.1521 67.1268C46.9809 70.2645 49.4707 71.2548 51.5856 72.4118C52.3445 72.8237 53.4413 72.6478 54.39 72.6709C55.2925 72.6894 56.2134 72.4904 57.0927 72.62C58.3098 72.7959 59.3465 72.6478 60.3276 71.8703C62.2712 70.3293 64.3167 68.9131 66.2003 67.3026C66.7926 66.7982 67.1582 65.8865 67.3526 65.0952C68.2087 61.6382 69.4721 60.6293 72.9291 60.8885C74.0074 60.9671 74.9191 60.8098 75.8123 60.0694C77.3672 58.7828 79.0333 57.6351 80.6715 56.4504C81.1852 56.0802 81.7498 55.784 82.2912 55.4554C82.1478 55.2471 81.9858 55.0343 81.8238 54.826ZM42.7603 69.9174C43.871 69.885 44.6022 69.1445 44.5837 68.0616C44.5652 66.9185 43.7229 66.1087 42.5983 66.1503C41.4414 66.192 40.7333 67.0065 40.8074 68.2097C40.8722 69.3019 41.6126 69.9451 42.7603 69.9174ZM30.0014 77.0442C30.0569 75.9243 29.3951 75.2024 28.2752 75.1561C27.0581 75.1052 26.276 75.7855 26.2297 76.9378C26.1834 78.0161 26.8683 78.7889 27.9559 78.8815C29.0156 78.974 29.9458 78.141 30.0014 77.0442ZM55.7599 75.1561C54.6307 75.1191 54.0476 75.642 53.9874 76.7527C53.9134 78.0485 54.5196 78.8121 55.6627 78.8676C56.6669 78.9185 57.6249 78.1133 57.6943 77.1553C57.7684 76.1696 56.8197 75.1931 55.7599 75.1561ZM71.9018 67.1546C73.0402 67.1268 73.7529 66.428 73.7344 65.3497C73.7205 64.3871 72.8273 63.4569 71.8971 63.4338C70.8975 63.4106 69.9488 64.4103 69.9812 65.4515C70.009 66.5205 70.7494 67.1777 71.9018 67.1546Z" fill="#0374BA"/>
<path d="M91.8774 86.8633C91.8774 92.0604 91.8866 97.2574 91.8727 102.454C91.8681 104.796 91.4886 105.236 89.221 105.314C87.2033 105.384 85.1763 105.384 83.1585 105.314C81.2519 105.25 80.8215 104.648 81.0483 102.797C81.1547 101.941 81.2287 101.075 81.2287 100.215C81.2426 91.4958 81.2472 82.7723 81.2241 74.0535C81.2195 73.0215 81.0668 71.9895 80.9696 70.9575C80.7983 69.0693 81.238 68.5093 83.0984 68.4631C85.1763 68.4121 87.2542 68.426 89.3367 68.4445C91.5997 68.4677 91.8496 68.6944 91.8589 70.9297C91.8866 76.2378 91.8727 81.5506 91.8774 86.8633ZM83.936 71.4156C83.936 81.7172 83.936 91.8475 83.936 102.056C85.6622 102.056 87.2866 102.056 88.897 102.056C88.897 91.7642 88.897 81.6339 88.897 71.4156C87.2218 71.4156 85.6853 71.4156 83.936 71.4156Z" fill="#0374BA"/>
<path d="M66.363 90.2649C66.363 86.1646 66.3399 82.069 66.3723 77.9687C66.3908 75.8631 66.6639 75.7612 68.7232 75.9047C70.8474 76.0482 72.9901 76.0528 75.1235 75.9834C77.2708 75.9186 77.3125 75.8677 77.3171 78.0937C77.331 84.5588 77.3218 91.0238 77.3218 97.4889C77.3218 99.2799 77.3403 101.066 77.3125 102.857C77.2847 104.639 76.6692 105.296 74.9384 105.328C72.8605 105.37 70.7826 105.384 68.7047 105.315C66.7842 105.25 66.3769 104.819 66.363 102.903C66.3353 98.6922 66.3584 94.4762 66.363 90.2649C66.3584 90.2649 66.3584 90.2649 66.363 90.2649ZM69.3943 78.6259C69.3943 86.6181 69.3943 94.3698 69.3943 102.422C70.5559 102.422 71.5786 102.455 72.6014 102.418C74.3137 102.353 74.4432 102.223 74.4432 100.465C74.4525 93.8237 74.4479 87.1781 74.4479 80.5372C74.4479 80.2502 74.4294 79.9587 74.434 79.6718C74.4386 78.9544 74.0962 78.6212 73.3742 78.6259C72.1062 78.6305 70.8428 78.6259 69.3943 78.6259Z" fill="#0374BA"/>
<path d="M48.2084 92.7973C48.2084 96.0923 48.2223 99.3873 48.2038 102.682C48.1945 104.83 47.8012 105.269 45.7233 105.325C43.6454 105.376 41.5628 105.376 39.4803 105.325C37.8328 105.283 37.2636 104.732 37.259 103.113C37.2358 96.1201 37.2404 89.1274 37.2682 82.1348C37.2775 80.552 37.5366 80.2975 39.0869 80.2605C41.3962 80.205 43.7102 80.2096 46.0241 80.2466C47.8197 80.2744 48.176 80.6168 48.1945 82.3986C48.2269 85.8648 48.2038 89.3357 48.2038 92.8019C48.2038 92.7973 48.2038 92.7973 48.2084 92.7973ZM40.2069 102.058C40.5817 102.132 40.7483 102.187 40.9149 102.192C41.7803 102.206 42.6457 102.224 43.5112 102.215C45.2049 102.196 45.2651 102.159 45.2697 100.452C45.2882 95.6665 45.279 90.8767 45.279 86.0916C45.279 82.8151 45.2327 82.7734 41.8636 82.9076C40.2161 82.9724 40.1143 83.0603 40.1097 84.7125C40.1004 90.016 40.1051 95.3241 40.1097 100.628C40.1051 101.072 40.1652 101.521 40.2069 102.058Z" fill="#0374BA"/>
<path d="M51.8694 96.1344C51.8694 93.7695 51.8416 91.4001 51.8786 89.0353C51.9018 87.4387 52.3692 86.9759 53.9658 86.9528C56.2149 86.9157 58.4687 86.9111 60.7178 86.9574C62.2172 86.9851 62.7263 87.4711 62.7355 88.9381C62.7679 93.7279 62.7309 98.5177 62.7679 103.308C62.7772 104.64 62.1108 105.251 60.9029 105.279C58.4825 105.334 56.0529 105.376 53.6372 105.288C52.2905 105.242 51.9018 104.7 51.8833 103.233C51.8462 100.869 51.8694 98.5038 51.8694 96.1344ZM54.6923 102.359C56.201 102.359 57.557 102.387 58.9083 102.345C59.6025 102.322 59.8802 101.868 59.8755 101.174C59.8616 97.8235 59.8616 94.473 59.8709 91.1178C59.8755 89.9794 59.1443 89.549 58.2002 89.5767C57.0063 89.6091 55.604 89.026 54.7433 90.4421C54.6877 90.5347 54.6877 90.6643 54.6877 90.78C54.6923 94.5285 54.6923 98.2771 54.6923 102.359Z" fill="#0374BA"/>
<path d="M22.6251 98.5736C22.6251 97.014 22.6251 95.459 22.6251 93.8995C22.6251 92.6823 23.2267 92.127 24.4531 92.1409C26.8781 92.1686 29.2984 92.1224 31.7234 92.1594C33.1673 92.1825 33.5421 92.5574 33.5606 94.0661C33.6023 97.1251 33.6023 100.184 33.5606 103.238C33.5421 104.594 32.9174 105.27 31.5383 105.312C29.2336 105.381 26.9197 105.386 24.6197 105.284C23.0462 105.215 22.6575 104.701 22.6251 103.072C22.5927 101.572 22.6205 100.073 22.6205 98.5736C22.6205 98.5736 22.6205 98.5736 22.6251 98.5736ZM30.7238 102.095C30.7238 100.735 30.7469 99.5824 30.7192 98.4347C30.6266 94.6584 31.5707 94.9639 27.0169 94.9639C26.8457 94.9639 26.6143 94.913 26.5078 95.0009C26.1607 95.2924 25.5915 95.6256 25.5776 95.9635C25.4897 97.9673 25.536 99.9758 25.536 102.095C27.3223 102.095 28.9004 102.095 30.7238 102.095Z" fill="#0374BA"/>
<path d="M58.0144 117.488C60.208 117.488 62.397 117.492 64.5906 117.483C65.4513 117.478 66.3121 117.576 66.4139 118.621C66.5296 119.76 65.6133 120.125 64.7386 120.195C63.2485 120.311 61.7444 120.26 60.245 120.264C57.6488 120.269 55.0526 120.274 52.4564 120.26C51.9381 120.26 51.4012 120.274 50.9153 120.139C50.2813 119.968 49.3002 119.876 49.5223 118.959C49.7028 118.219 50.198 117.451 51.267 117.469C53.5162 117.515 55.7653 117.488 58.0144 117.488Z" fill="#0374BA"/>
<path d="M113.526 42.1815C111.911 42.1815 110.291 42.2001 108.676 42.1769C106.857 42.1492 106.436 41.7234 106.76 39.8075C107.121 37.6555 107.616 35.5221 108.19 33.4164C108.583 31.9818 108.394 30.7462 107.741 29.4319C105.529 24.9706 108.491 19.7088 113.456 19.6857C119.088 19.6579 121.601 25.0262 119.792 28.9043C118.857 30.9081 118.788 32.713 119.38 34.7261C119.861 36.3782 120.245 38.0674 120.574 39.7566C120.944 41.6725 120.509 42.1491 118.547 42.1723C116.872 42.1908 115.201 42.1769 113.526 42.1769V42.1815ZM117.52 39.266C117.432 38.5209 117.409 37.9517 117.288 37.4056C116.946 35.8322 116.576 34.268 116.191 32.7037C115.84 31.2645 115.821 30.0242 116.918 28.7192C118.362 27.0115 117.978 24.7392 116.363 23.2861C114.942 22.0088 112.364 22.032 110.957 23.337C109.319 24.8503 109.009 27.0161 110.444 28.7608C111.457 29.9918 111.545 31.2136 111.189 32.6158C111.036 33.2313 110.837 33.8329 110.707 34.4531C110.383 35.9988 110.087 37.5491 109.745 39.2706C112.452 39.266 114.845 39.266 117.52 39.266Z" fill="#0374BA"/>
<path d="M132.75 31C132.75 41.9658 124.299 50.75 114 50.75C103.701 50.75 95.25 41.9658 95.25 31C95.25 20.0342 103.701 11.25 114 11.25C124.299 11.25 132.75 20.0342 132.75 31Z" stroke="#0374BA" stroke-width="2.5"/>
</svg>
