<svg width="60" height="65" viewBox="0 0 60 65" fill="none" xmlns="http://www.w3.org/2000/svg">
<path d="M41.7265 12.8067C41.2582 12.8067 40.8554 12.8067 40.4527 12.8067C37.8114 12.8067 35.1702 12.8067 32.5289 12.8067C30.7774 12.8067 29.8782 11.9884 29.8782 10.3939C29.8782 7.7954 29.8782 5.19694 29.8782 2.59003C29.8782 2.40443 29.8782 2.21038 29.8782 1.97416C29.6347 1.96572 29.4287 1.94041 29.2226 1.94041C20.7181 1.94041 12.2229 1.94041 3.71839 1.94041C2.55698 1.94041 2.09803 2.36224 2.09803 3.41682C2.09803 19.9525 2.09803 36.4882 2.09803 53.0239C2.09803 54.2388 2.53825 54.6269 3.91508 54.6269C6.65938 54.6269 9.40368 54.6269 12.148 54.6269C16.5688 54.6269 20.9803 54.6269 25.4012 54.6269C25.5979 54.6269 25.7946 54.6184 25.9819 54.6437C26.4596 54.7197 26.8061 55.0656 26.8436 55.4874C26.8811 55.9345 26.5907 56.3395 26.0943 56.4576C25.8976 56.5082 25.6822 56.5167 25.4667 56.5167C18.1986 56.5167 10.9304 56.5251 3.66219 56.5167C1.4705 56.5167 0 55.2006 0 53.2433C0 36.5473 0 19.8513 0 3.15528C0 1.3836 1.50796 0.0168734 3.47487 0.00843678C12.5788 1.93287e-07 21.6734 0.00843658 30.7774 0C31.2363 0 31.5735 0.160296 31.892 0.447139C35.7228 3.96519 39.5629 7.47481 43.4124 10.9844C43.7309 11.2713 43.8807 11.5834 43.8807 11.9968C43.8714 16.7551 43.8714 21.5133 43.8714 26.2631C43.8714 26.3896 43.8714 26.5162 43.8526 26.6427C43.7777 27.1067 43.3937 27.4105 42.8879 27.4358C42.3447 27.4611 41.9232 27.1827 41.8202 26.7018C41.764 26.4571 41.7733 26.1956 41.7733 25.9425C41.7733 21.7242 41.7827 17.5059 41.7827 13.2876C41.764 13.1779 41.7452 13.0261 41.7265 12.8067ZM40.1061 10.9001C40.1249 10.8579 40.1436 10.8241 40.1623 10.782C37.4742 8.32691 34.7955 5.87186 32.1074 3.41682C31.995 5.83812 31.995 8.17505 31.995 10.5204C31.995 10.8663 32.2198 10.9001 32.5101 10.8916C33.6903 10.8916 34.8704 10.8916 36.0412 10.8916C37.3993 10.9001 38.748 10.9001 40.1061 10.9001Z" fill="#2776EA"/>
<path d="M25.6355 38.0824C25.6355 37.3231 25.6355 36.7409 25.6355 36.1504C25.6355 35.1549 25.8978 34.8849 26.9842 34.7752C29.5412 34.5221 32.0514 34.0328 34.5053 33.3494C37.081 32.6323 39.5631 31.7043 41.9234 30.5232C42.5415 30.211 43.066 30.211 43.6936 30.5232C48.3954 32.8264 53.4157 34.2521 58.7357 34.7921C59.7098 34.8933 60.0002 35.197 60.0002 36.0913C59.9814 40.8833 59.4101 45.6078 57.7804 50.1973C56.4223 54.0359 54.3898 57.5287 51.224 60.4393C49.051 62.4388 46.5596 63.9995 43.5812 64.8769C43.0754 65.0288 42.5977 65.0457 42.0919 64.8938C39.0198 63.9995 36.4628 62.3881 34.2524 60.3127C30.6558 56.9297 28.5671 52.8126 27.2278 48.3412C26.4972 45.8946 26.1694 43.4058 25.8978 40.8917C25.7947 39.8962 25.7104 38.9091 25.6355 38.0824ZM57.8647 37.9389C57.8928 36.6566 57.8928 36.6566 56.619 36.4457C56.6002 36.4457 56.5815 36.4372 56.5721 36.4372C51.8984 35.7623 47.4588 34.4377 43.2627 32.4552C42.9443 32.3033 42.7007 32.3117 42.3823 32.4552C41.4082 32.8939 40.4248 33.3241 39.4319 33.7206C35.8353 35.138 32.0795 36.0576 28.1925 36.5469C27.8553 36.5891 27.7335 36.6903 27.7616 36.994C27.9021 38.9176 27.9396 40.858 28.1925 42.7647C28.3985 44.3592 28.7825 45.9537 29.2134 47.5145C30.3092 51.4965 32.0982 55.1917 35.1328 58.3217C37.0436 60.2959 39.3008 61.8482 42.017 62.8437C42.579 63.0546 43.0941 63.0968 43.628 62.8353C44.7894 62.27 46.007 61.7976 47.0841 61.1227C50.8119 58.7773 53.2284 55.5123 54.9237 51.7749C56.928 47.312 57.668 42.6044 57.8647 37.9389Z" fill="#2776EA"/>
<path d="M21.917 27.3434C26.4409 27.3434 30.9648 27.3434 35.4887 27.3434C35.6292 27.3434 35.7697 27.335 35.9102 27.3518C36.444 27.4025 36.8281 27.7568 36.8655 28.2208C36.903 28.6848 36.5845 29.0813 36.06 29.1994C35.8727 29.2416 35.676 29.2416 35.4887 29.2416C28.7356 29.2416 21.9732 29.2416 15.2202 29.2416C12.9442 29.2416 10.6588 29.2416 8.38285 29.2416C8.17679 29.2416 7.952 29.2416 7.75531 29.191C7.2589 29.0645 6.94044 28.6258 6.99664 28.1786C7.05284 27.723 7.45559 27.3856 7.98946 27.3434C8.18615 27.335 8.37348 27.335 8.57017 27.335C13.0098 27.3434 17.4681 27.3434 21.917 27.3434Z" fill="#2776EA"/>
<path d="M16.3721 15.8356C19.0602 15.8356 21.7577 15.8356 24.4458 15.8356C24.6519 15.8356 24.8673 15.844 25.0733 15.9031C25.5136 16.0212 25.729 16.3165 25.7758 16.713C25.8133 17.0927 25.6447 17.4048 25.27 17.582C25.0733 17.6748 24.8392 17.7338 24.6238 17.7338C19.1164 17.7423 13.6185 17.7423 8.11112 17.7423C7.67091 17.7423 7.32436 17.5735 7.10894 17.2276C6.73429 16.6033 7.2307 15.8694 8.04556 15.844C8.85106 15.8272 9.66592 15.8356 10.4714 15.8356C12.4383 15.8356 14.4052 15.8356 16.3721 15.8356Z" fill="#2776EA"/>
<path d="M14.8362 38.8423C17.056 38.8423 19.2758 38.8423 21.4862 38.8423C21.9451 38.8423 22.376 38.9604 22.5071 39.3654C22.6008 39.6522 22.582 40.0318 22.4509 40.3018C22.2636 40.6899 21.8046 40.749 21.3644 40.7405C19.7815 40.7405 18.1986 40.7405 16.6157 40.7405C13.9276 40.7405 11.2302 40.7405 8.54207 40.7405C8.45777 40.7405 8.36411 40.7405 8.27981 40.7405C7.47432 40.7236 6.96854 40.3524 6.97791 39.7787C6.98728 39.1882 7.46495 38.8423 8.29855 38.8423C10.4715 38.8423 12.6538 38.8423 14.8362 38.8423Z" fill="#2776EA"/>
<path d="M49.2381 44.1234C50.8959 44.3428 51.4673 44.9418 51.4673 46.3085C51.4673 48.4936 51.4673 50.6871 51.4673 52.8722C51.4673 56.2215 48.7792 58.6597 45.042 58.685C43.5434 58.6934 42.0542 58.6934 40.5556 58.685C36.8466 58.6597 34.1491 56.213 34.1304 52.8637C34.121 50.7714 34.1304 48.6792 34.1304 46.5869C34.1304 44.9165 34.6549 44.3681 36.5375 44.1319C36.5375 43.5666 36.5281 42.9845 36.5375 42.4024C36.5656 40.6476 37.24 39.1374 38.7479 37.9985C40.668 36.5305 42.8691 36.1677 45.2106 36.9861C47.5522 37.8044 48.9103 39.4074 49.21 41.6599C49.3318 42.4614 49.2381 43.2882 49.2381 44.1234ZM42.8316 46.0807C40.8085 46.0807 38.7854 46.0807 36.7623 46.0807C36.4438 46.0807 36.2378 46.0976 36.2378 46.4772C36.2565 48.6792 36.219 50.8811 36.2565 53.0831C36.294 55.0488 37.8675 56.6096 40.0498 56.753C41.8388 56.8627 43.6371 56.8795 45.426 56.7699C47.8425 56.6264 49.3505 55.0488 49.3692 52.8384C49.388 50.763 49.3599 48.6876 49.388 46.6122C49.388 46.1904 49.2475 46.0723 48.7885 46.0807C46.8029 46.0891 44.8172 46.0807 42.8316 46.0807ZM38.5887 44.1403C41.5484 44.1403 44.3396 44.1403 47.1963 44.1403C47.1963 43.4654 47.215 42.8158 47.1963 42.1746C47.1307 40.3101 45.501 38.7156 43.4591 38.5047C41.3705 38.2769 39.3755 39.4158 38.8791 41.255C38.6262 42.1661 38.673 43.1448 38.5887 44.1403Z" fill="#2776EA"/>
<path d="M43.965 51.539C43.965 52.0452 43.9744 52.5514 43.965 53.0576C43.9463 53.6651 43.4967 54.0784 42.8972 54.07C42.3165 54.0616 41.8857 53.6397 41.8857 53.0576C41.8763 52.0284 41.8763 50.9991 41.8857 49.9698C41.8951 49.354 42.3259 48.9321 42.9253 48.9321C43.5248 48.9321 43.9556 49.3455 43.965 49.9698C43.9744 50.5013 43.965 51.0244 43.965 51.539Z" fill="#2776EA"/>
</svg>
