<svg width="60" height="60" viewBox="0 0 60 60" fill="none" xmlns="http://www.w3.org/2000/svg">
<path d="M45.2254 60C35.0684 60 24.9115 60 14.7546 60C14.4341 59.8597 14.0835 59.7695 13.803 59.5691C12.8414 58.8976 12.8614 57.9155 13.0818 56.9334C13.6027 54.6183 15.3856 53.1251 17.7696 52.9848C18.1002 52.9648 18.2404 52.8645 18.3205 52.5438C18.5509 51.6419 18.8314 50.75 19.0918 49.848C19.2621 49.2567 19.4124 48.6654 19.6027 47.994C19.2821 47.994 19.0518 47.994 18.8214 47.994C14.0534 47.994 9.29549 47.994 4.52755 47.984C4.02671 47.984 3.50584 47.9639 3.02504 47.8336C1.10184 47.3326 0 45.8293 0 43.7648C0 30.5963 0 17.4278 0 4.25923C0 4.11892 5.59726e-09 3.98864 0.0100167 3.84834C0.0701169 2.71588 0.520868 1.78386 1.36227 1.02221C2.26377 0.210456 3.34558 0 4.50751 0C13.7429 0 22.9783 0 32.2237 0C39.9566 0 47.6895 0 55.4224 0C56.4741 0 57.4858 0.180391 58.3372 0.851846C59.4992 1.77384 59.9199 2.99649 59.9098 4.45966C59.8898 17.1973 59.8998 29.9449 59.8998 42.6825C59.8998 42.9531 59.9699 43.2136 60 43.4842C60 43.9953 60 44.4964 60 45.0075C59.9599 45.0777 59.9098 45.1378 59.8898 45.2079C59.0584 48.5552 55.4524 50.0384 52.5075 48.2445C52.2571 48.0942 51.9265 48.014 51.6361 48.014C48.0601 47.994 44.4841 48.004 40.9082 48.004C40.7179 48.004 40.5275 48.004 40.2671 48.004C40.6978 49.5373 41.1285 50.9704 41.5092 52.4136C41.6194 52.8345 41.7997 52.9848 42.2504 53.0149C44.8548 53.1351 46.9082 55.3499 46.9082 57.9556C46.9082 59.078 46.187 59.6492 45.2254 60ZM40.6077 34.2843C40.4574 34.3745 40.3573 34.4346 40.2571 34.4947C35.4691 37.3509 30.4507 37.8119 25.2721 35.7675C18.2304 32.9815 13.9633 25.6255 15.1553 17.8787C15.7563 14.0104 17.5392 10.7232 20.5042 8.12761C24.601 4.53984 29.389 3.26708 34.7078 4.24921C38.6444 4.98079 41.9099 6.98513 44.394 10.142C47.5192 14.1206 48.6311 18.6304 47.6995 23.6212C47.3189 25.6756 46.5476 27.5798 45.4057 29.3336C45.1953 29.6643 45.2154 29.8547 45.4958 30.1152C46.1669 30.7466 46.788 31.4181 47.4591 32.0494C47.6093 32.1897 47.8598 32.33 48.0501 32.31C48.8314 32.2399 49.4424 32.5305 50.0134 33.0316C52.4775 35.2263 54.9616 37.401 57.4357 39.5858C57.5559 39.696 57.6962 39.7862 57.8865 39.9265C57.8865 39.716 57.8865 39.6058 57.8865 39.4855C57.8865 27.7201 57.8865 15.9546 57.8865 4.18908C57.8865 2.8161 57.0851 2.02439 55.6928 2.02439C38.5242 2.02439 21.3556 2.02439 4.18698 2.02439C2.77462 2.02439 1.98331 2.8161 1.98331 4.24921C1.98331 17.3977 1.98331 30.5562 1.98331 43.7047C1.98331 45.1278 2.78464 45.9295 4.19699 45.9295C19.3322 45.9295 34.4674 45.9295 49.6127 45.9295C49.773 45.9295 49.9332 45.9095 50.1636 45.8894C50.0134 45.709 49.9132 45.5888 49.813 45.4785C47.8898 43.2938 45.9666 41.1091 44.0434 38.9243C43.6327 38.4533 43.3222 37.9622 43.3523 37.3008C43.3623 37.1505 43.2721 36.9601 43.1619 36.8498C42.3305 36.008 41.4791 35.1662 40.6077 34.2843ZM31.4725 34.9858C39.3356 35.0359 45.9866 28.5218 46.0167 20.7149C46.0568 12.5372 39.6561 5.98296 31.5826 5.94288C23.6394 5.90279 17.0284 12.3568 16.9783 20.2038C16.9282 28.4116 23.3189 34.9457 31.4725 34.9858ZM39.576 52.9447C39.1152 51.3412 38.6845 49.7879 38.2037 48.2445C38.1636 48.1142 37.8431 48.004 37.6528 48.004C32.5142 47.994 27.3756 48.004 22.2371 47.984C21.7863 47.984 21.626 48.1543 21.5359 48.5452C21.3856 49.1665 21.1953 49.7879 21.015 50.3992C20.7746 51.241 20.5442 52.0728 20.2938 52.9447C26.7446 52.9447 33.1052 52.9447 39.576 52.9447ZM44.9048 57.9055C44.8748 57.6649 44.8648 57.4745 44.8147 57.2841C44.4341 55.8109 43.2922 54.9691 41.6394 54.9591C33.8364 54.9591 26.0234 54.9591 18.2204 54.9591C17.8898 54.9591 17.5593 54.9992 17.2387 55.0793C15.9366 55.38 14.9649 56.6227 15.0351 57.8954C24.9516 57.9055 34.8781 57.9055 44.9048 57.9055ZM45.4558 37.4411C47.0184 39.225 48.6611 41.1091 50.3139 42.9831C51.2454 44.0354 52.1469 45.1178 53.1185 46.1299C53.9199 46.9617 54.9416 47.1522 56.0334 46.7814C57.1052 46.4206 57.7362 45.6489 57.9265 44.5365C58.1169 43.4141 57.6861 42.5121 56.8548 41.7805C54.9616 40.1169 53.0785 38.4433 51.1853 36.7797C50.2638 35.9679 49.3523 35.1562 48.4107 34.3344C47.419 35.3766 46.4474 36.3989 45.4558 37.4411ZM46.0668 33.713C45.3155 32.9714 44.5743 32.2298 43.8631 31.5183C43.3823 32.0194 42.8514 32.5605 42.3907 33.0316C43.0918 33.7331 43.8331 34.4647 44.5442 35.1862C45.0451 34.7052 45.586 34.1841 46.0668 33.713Z" fill="#2776EA"/>
<path d="M3.97559 20.5044C3.97559 16.1249 3.97559 11.7454 3.97559 7.37591C3.97559 5.23127 5.18761 3.99859 7.35121 3.99859C11.418 3.98857 15.4748 3.99859 19.5415 3.99859C19.7318 3.99859 19.9322 4.01864 20.1225 4.05872C20.6634 4.15894 20.9539 4.5097 20.9439 5.04085C20.9439 5.54194 20.6534 5.88268 20.1525 5.98289C19.9222 6.02298 19.6918 6.04302 19.4614 6.04302C15.4547 6.04302 11.4581 6.04302 7.45138 6.04302C6.29946 6.04302 5.97892 6.34368 5.97892 7.48615C5.97892 16.165 5.97892 24.8337 5.97892 33.5125C5.97892 34.655 6.29946 34.9757 7.43135 34.9757C11.418 34.9757 15.4046 34.9757 19.3813 34.9757C19.6317 34.9757 19.8921 34.9857 20.1425 35.0258C20.6333 35.106 20.9038 35.4367 20.9439 35.8977C20.9939 36.3788 20.7636 36.7395 20.3028 36.8999C20.0924 36.9801 19.842 37.0001 19.6116 37.0001C15.4948 37.0101 11.3679 37.0101 7.25104 37.0001C5.21766 37.0001 3.9856 35.7374 3.9856 33.6929C3.97559 29.3034 3.97559 24.9039 3.97559 20.5044Z" fill="#2776EA"/>
<path d="M55.8939 20.3641C55.8939 24.7435 55.8939 29.123 55.8939 33.4925C55.8939 33.6829 55.904 33.8833 55.8839 34.0738C55.8238 34.5849 55.3831 34.9857 54.9023 34.9958C54.4215 34.9958 53.9707 34.5949 53.9106 34.0838C53.8906 33.8934 53.9006 33.6929 53.9006 33.5025C53.9006 24.9239 53.9006 16.3453 53.9006 7.76676C53.9006 7.62646 53.9006 7.49617 53.9006 7.35587C53.8906 6.39378 53.55 6.04302 52.5984 6.04302C49.4732 6.04302 46.348 6.04302 43.2228 6.04302C42.3814 6.04302 41.9307 5.67222 41.9307 5.02081C41.9407 4.52975 42.1811 4.20905 42.6519 4.07877C42.8522 4.02866 43.0726 4.00862 43.2829 3.99859C46.3881 3.99859 49.4933 3.98857 52.5984 3.99859C54.2812 4.00862 55.4532 4.87048 55.8038 6.3537C55.8739 6.67439 55.8739 7.01513 55.8739 7.34585C55.8939 11.6852 55.8939 16.0247 55.8939 20.3641Z" fill="#2776EA"/>
<path d="M29.9287 39.9673C31.5314 39.9673 33.124 39.9573 34.7267 39.9673C35.6282 39.9774 36.1491 40.6488 35.8386 41.3704C35.6583 41.7913 35.3077 41.9717 34.8569 41.9817C34.1357 41.9917 33.4145 41.9917 32.6933 41.9917C30.3093 41.9917 27.9354 41.9917 25.5514 41.9917C25.3711 41.9917 25.2008 42.0018 25.0205 41.9817C24.3694 41.9416 23.9387 41.5408 23.9287 40.9896C23.9287 40.4083 24.3795 39.9774 25.0606 39.9774C26.6933 39.9573 28.316 39.9673 29.9287 39.9673Z" fill="#2776EA"/>
<path d="M31.4527 32.8514C24.3408 32.7512 18.9118 27.149 19.1221 19.9434C19.3124 13.2489 24.9719 7.88729 31.8834 8.05766C38.4543 8.21801 43.9735 13.8803 43.8934 20.5046C43.8033 27.3996 38.2139 32.9416 31.4527 32.8514ZM41.86 20.4846C41.8199 14.7121 37.2223 10.062 31.5629 10.072C25.7131 10.0921 21.0854 14.7321 21.1154 20.5748C21.1455 26.2571 25.8333 30.8571 31.5629 30.817C37.2824 30.7769 41.9001 26.1469 41.86 20.4846Z" fill="#2776EA"/>
<path d="M28.8279 20.1731C29.1184 21.6964 28.6476 22.939 27.5257 23.6606C26.474 24.3521 25.0716 24.3321 24.0499 23.6205C22.6977 22.6785 22.307 20.8846 23.1484 19.4615C23.9698 18.0585 25.7628 17.5173 27.2152 18.289C27.5758 18.4794 27.8062 18.4593 28.0867 18.2188C28.3271 18.0184 28.5875 17.848 28.8479 17.6676C29.5291 17.2166 30.08 16.8458 29.9798 15.7735C29.8496 14.4607 30.9715 13.2982 32.2336 12.9975C33.4957 12.6969 34.8379 13.2681 35.5191 14.3805C36.2102 15.523 36.09 16.936 35.1585 17.9583C34.908 18.2288 34.888 18.4293 35.0282 18.7299C35.1484 18.9905 35.2586 19.2711 35.3388 19.5517C35.5792 20.3835 35.8696 21.0149 36.9314 21.2153C38.2236 21.4659 38.9648 22.7787 38.9047 24.1116C38.8446 25.4144 38.0032 26.4767 36.7311 26.8375C35.489 27.1883 34.1768 26.6872 33.4556 25.6048C32.7344 24.5225 32.7945 23.0693 33.666 22.0672C33.9264 21.7665 33.9665 21.546 33.8162 21.2053C33.5658 20.614 33.3655 20.0027 33.1351 19.4014C32.9648 18.9604 31.2219 18.4493 30.8413 18.7199C30.1802 19.2009 29.509 19.682 28.8279 20.1731ZM35.9097 23.0292C35.3788 23.0393 34.9481 23.4702 34.9581 24.0013C34.9581 24.5325 35.3888 24.9534 35.9297 24.9634C36.4907 24.9634 36.9414 24.5125 36.9114 23.9613C36.8913 23.4301 36.4506 23.0292 35.9097 23.0292ZM26.9347 20.9848C26.9247 20.4837 26.4439 20.0227 25.9431 20.0227C25.4423 20.0227 24.9715 20.4937 24.9615 20.9948C24.9514 21.516 25.4623 22.007 25.9832 21.987C26.484 21.9569 26.9448 21.4759 26.9347 20.9848ZM32.9047 16.9761C33.4456 16.9861 33.8663 16.5953 33.8863 16.0441C33.9064 15.4929 33.5157 15.062 32.9848 15.0419C32.4239 15.0119 31.9731 15.4328 31.9631 15.994C31.9631 16.5352 32.3738 16.9561 32.9047 16.9761Z" fill="#2776EA"/>
</svg>
