<svg width="65" height="65" viewBox="0 0 65 65" fill="none" xmlns="http://www.w3.org/2000/svg">
<g clip-path="url(#clip0_977_376312)">
<path d="M62.5945 37.2828C65.8347 34.2413 65.8347 30.6111 62.5455 27.5696C60.7781 25.9507 58.7161 24.8715 56.556 23.9884C55.9669 23.7432 55.3287 23.4979 54.6905 23.2526C54.8377 22.8601 54.985 22.5658 55.1323 22.2715C56.2615 19.6715 57.1942 17.0224 57.1942 14.1281C57.1942 10.2035 54.7887 7.79976 50.8612 7.79976C49.732 7.79976 48.5538 7.94693 47.4737 8.24127C45.51 8.7809 43.5953 9.46769 41.6316 10.1545C41.5334 9.95825 41.4352 9.66391 41.337 9.41863C40.3551 6.86769 39.1769 4.41486 37.2622 2.35448C34.3166 -0.785143 30.6346 -0.785143 27.689 2.40354C26.0198 4.16957 24.9397 6.32806 24.0069 8.53561C23.7615 9.12429 23.5651 9.71297 23.3196 10.3017C22.976 10.1545 22.6814 10.0564 22.3868 9.9092C20.0794 8.87901 17.6248 8.0941 15.0719 7.84882C10.5553 7.40731 7.60966 10.1054 7.80603 14.6186C7.85512 15.5998 7.95331 16.63 8.24787 17.562C8.837 19.4752 9.52431 21.3884 10.1625 23.3507C9.96615 23.3998 9.72068 23.5469 9.42612 23.645C6.92234 24.6262 4.46766 25.7545 2.45482 27.6677C-0.785359 30.6111 -0.834453 34.2903 2.40573 37.2828C4.07491 38.8526 6.03866 39.8828 8.14968 40.8149C8.837 41.1092 9.5734 41.3545 10.3098 41.6979C10.1625 42.0413 10.0152 42.2866 9.91706 42.5809C8.88609 44.8866 8.10059 47.1922 7.85512 49.7432C7.31509 54.4035 10.1134 57.396 14.7282 57.1017C15.661 57.0526 16.5938 56.9545 17.4775 56.6601C19.4412 56.0715 21.3559 55.3847 23.3196 54.7469C23.4669 55.1394 23.6633 55.5809 23.8106 55.9734C24.8906 58.6715 26.1671 61.2715 28.4254 63.2337C31.0273 65.4903 34.0711 65.5884 36.5258 63.1847C37.8513 61.9092 38.8823 60.2903 39.8151 58.7205C40.6006 57.445 41.0915 56.0224 41.6806 54.6488C41.9752 54.796 42.2698 54.8941 42.5152 55.0413C44.8717 56.0715 47.2773 56.8564 49.8793 57.1017C54.4941 57.5432 57.4397 54.6979 57.0961 50.1356C57.047 49.2526 56.9488 48.3205 56.7033 47.4866C56.1142 45.5243 55.4269 43.6111 54.7887 41.6488C54.985 41.5507 55.2796 41.4526 55.5251 41.3545C58.0779 40.3243 60.5326 39.196 62.5945 37.2828ZM42.2698 11.6262C45.0681 10.3017 47.9646 9.12429 51.2048 9.2224C54.0032 9.32052 55.6723 10.9394 55.7705 13.7356C55.9178 16.8752 54.7887 19.6715 53.4631 22.4677C53.3649 22.6149 52.9722 22.762 52.7267 22.713C50.0757 22.1243 47.3755 21.5356 44.6754 20.8979C44.479 20.8488 44.1353 20.6035 44.0862 20.4073C43.448 17.562 42.8589 14.7167 42.2207 11.8715C42.2207 11.8224 42.2207 11.7733 42.2698 11.6262ZM46.3445 35.713C46.9828 35.1243 47.4737 34.3884 48.161 33.5545C49.732 36.0073 51.2048 38.313 52.8249 40.913C49.8793 41.5507 47.2282 42.1394 44.3317 42.7771C44.4299 41.6979 44.5772 40.8639 44.5281 40.03C44.5772 38.313 45.0681 36.8903 46.3445 35.713ZM44.9699 35.2715C44.9699 33.3092 44.9699 31.6413 44.9699 29.679C45.7554 30.6601 46.3936 31.396 46.9828 32.23C47.081 32.3771 47.0319 32.6715 46.9337 32.8186C46.3446 33.6035 45.7554 34.3394 44.9699 35.2715ZM44.9699 27.5205C44.8717 27.4224 44.8226 27.2752 44.7736 27.1281C44.6754 25.5583 44.5281 24.0375 44.3808 22.1733C47.1791 22.8111 49.8793 23.3998 52.874 24.0375C51.2048 26.6375 49.732 28.9432 48.2101 31.3469C47.0319 30.0224 46.0009 28.796 44.9699 27.5205ZM43.0062 37.479C41.1897 39.3432 39.3732 41.1583 37.5077 42.9734C37.2131 43.2677 36.7222 43.4639 36.3294 43.4639C35.053 43.513 33.7275 43.4639 32.451 43.4639C32.402 43.4639 32.3038 43.4639 32.3038 43.4639C31.8619 43.4639 31.6165 43.4149 31.2237 43.4149C27.9344 43.3658 27.9344 43.4639 25.627 41.2073C24.3997 40.03 23.2214 38.8035 22.0923 37.5281C21.7486 37.1847 21.5523 36.6451 21.5523 36.2035C21.5032 33.7507 21.5032 31.2979 21.5523 28.796C21.5523 28.3054 21.7977 27.7167 22.1414 27.3734C23.8597 25.5583 25.6761 23.7922 27.4926 22.0262C27.7871 21.7318 28.3272 21.5356 28.769 21.5356C31.2728 21.4866 33.8257 21.4866 36.3294 21.5356C36.7713 21.5356 37.2622 21.7809 37.6059 22.0752C39.4223 23.8413 41.1897 25.6073 42.9571 27.4224C43.2026 27.7167 43.448 28.2564 43.448 28.6979C43.4971 31.1998 43.4971 33.7507 43.448 36.2526C43.448 36.6941 43.2516 37.1847 43.0062 37.479ZM43.2516 39.7356C43.1535 40.4715 43.1044 41.4035 42.9571 42.2866C42.908 42.5318 42.5643 42.8752 42.3189 42.9243C41.4352 43.0715 40.5024 43.1696 39.766 43.2186C40.8952 42.0903 42.1225 40.8639 43.2516 39.7356ZM35.2985 44.9356C34.3166 45.7205 33.5311 46.3583 32.7456 46.996C32.5983 47.0941 32.3529 47.045 32.2547 46.9469C31.4692 46.3583 30.6837 45.7205 29.7018 44.9356C31.6655 44.9356 33.3347 44.9356 35.2985 44.9356ZM25.3325 43.2186C25.3325 43.2186 25.2343 43.2186 25.1361 43.2186C24.1542 43.0715 23.1233 42.9243 22.1414 42.7771C21.9941 41.6979 21.8468 40.6186 21.6995 39.4903C22.9269 40.7658 24.1542 41.9922 25.3325 43.2186ZM21.7486 25.4111C21.8468 24.479 21.8959 23.4488 22.0923 22.4677C22.0923 22.2715 22.4359 22.0752 22.6814 22.0262C23.5651 21.879 24.4979 21.83 25.4797 21.6828C24.2033 22.9583 22.976 24.1847 21.7486 25.4111ZM29.7018 20.0149C30.6837 19.23 31.4692 18.5922 32.2547 17.9545C32.402 17.8564 32.6474 17.9054 32.7456 18.0035C33.5311 18.5922 34.3166 19.23 35.2985 20.0149C33.3347 20.0149 31.6655 20.0149 29.7018 20.0149ZM39.5205 21.7318C40.5024 21.83 41.5334 21.9281 42.5152 22.0752C42.7116 22.0752 42.9571 22.4186 42.9571 22.6639C43.1044 23.5469 43.1535 24.479 43.2516 25.4601C41.9752 24.1847 40.797 22.9583 39.5205 21.7318ZM42.8098 20.6035C40.9442 20.4564 39.4223 20.3092 37.8513 20.2111C37.7041 20.2111 37.5568 20.162 37.4586 20.0639C36.2313 19.0337 35.0039 18.0035 33.6293 16.8262C36.0349 15.3054 38.3423 13.7847 40.9442 12.1658C41.5825 15.0601 42.1716 17.7583 42.8098 20.6035ZM25.5288 8.53561C26.4616 6.37712 27.5417 4.31674 29.3581 2.74693C31.4201 0.931838 33.6293 0.980895 35.6912 2.74693C37.5568 4.41486 39.8642 8.48656 40.306 10.9394C38.4896 12.0677 36.624 13.196 34.8075 14.3733C34.022 14.8639 33.2365 15.796 32.402 15.845C31.6655 15.845 30.88 14.8639 30.0945 14.3733C28.3763 13.196 26.5598 12.0677 24.5961 10.8413C24.8906 10.1545 25.1852 9.32052 25.5288 8.53561ZM24.056 12.1167C26.6089 13.7356 28.9654 15.2073 31.4201 16.7771C29.9964 18.0035 28.7199 19.0828 27.4435 20.113C27.2962 20.2601 26.9526 20.2111 26.7562 20.2111C25.3325 20.3583 23.8597 20.4564 22.1905 20.6035C22.8287 17.8073 23.4178 15.1092 24.056 12.1167ZM9.22975 14.3733C9.18065 10.9394 10.9971 9.12429 14.4337 9.17335C17.2811 9.2224 19.8831 10.2035 22.4359 11.43C22.6323 11.5281 22.7796 11.9205 22.7305 12.1167C22.1414 14.8639 21.5523 17.6111 20.914 20.3092C20.8649 20.5545 20.5704 20.8488 20.3249 20.8979C17.6248 21.5356 14.9246 22.1243 12.2245 22.6639C11.979 22.713 11.5862 22.5658 11.4881 22.3696C10.3098 20.4073 9.22975 16.5318 9.22975 14.3733ZM20.0303 37.3809C20.1285 37.479 20.1776 37.6262 20.2267 37.7733C20.3249 39.3432 20.4722 40.913 20.6195 42.7771C17.8211 42.1394 15.121 41.5507 12.1263 40.913C13.7464 38.362 15.2683 36.0073 16.7902 33.6035C17.9684 34.9281 18.9994 36.1545 20.0303 37.3809ZM18.0666 32.1318C18.6557 31.3469 19.2449 30.6601 19.9813 29.7281C19.9813 31.6413 19.9813 33.3092 19.9813 35.2224C19.2449 34.2903 18.6066 33.5545 18.0175 32.7205C17.9193 32.6224 17.9684 32.279 18.0666 32.1318ZM20.1776 27.2752C20.1776 27.4715 19.9813 27.6186 19.834 27.7658C18.8521 28.9432 17.9193 30.0715 16.7902 31.396C15.2683 28.9432 13.7955 26.6375 12.1263 24.0375C15.0719 23.3998 17.772 22.8111 20.6195 22.1733C20.4722 24.0375 20.3249 25.6564 20.1776 27.2752ZM2.6021 35.4677C0.932919 33.6035 0.982013 31.3469 2.6512 29.4337C4.66404 27.1281 7.36419 25.9507 10.1134 24.8715C10.3589 24.7733 10.6044 24.7243 10.8498 24.6262C12.5681 27.1771 14.1882 29.679 15.8083 32.1809C15.9065 32.3281 15.9065 32.6715 15.8083 32.8186C14.1391 35.2715 12.519 37.7733 10.8007 40.3243C7.85512 39.245 4.86041 38.0186 2.6021 35.4677ZM22.4359 53.4715C19.8831 54.6979 17.2811 55.679 14.4337 55.7281C10.948 55.7771 9.18065 54.0111 9.22975 50.0866C9.32793 47.7318 10.2607 45.1318 11.4881 42.5809C11.5862 42.3847 12.0772 42.2375 12.3226 42.2866C14.9737 42.8752 17.6739 43.4149 20.3249 44.0526C20.5704 44.1017 20.8649 44.396 20.914 44.6413C21.5523 47.3394 22.1414 50.0866 22.7305 52.7847C22.7796 52.9809 22.5832 53.3733 22.4359 53.4715ZM22.1905 44.3469C24.056 44.4941 25.627 44.6413 27.2471 44.7884C27.3944 44.7884 27.5417 44.8866 27.6399 44.9847C28.8181 45.9658 30.0455 46.996 31.4201 48.1733C29.0145 49.6941 26.7071 51.2149 24.1051 52.8828C23.4178 49.8413 22.8287 47.1922 22.1905 44.3469ZM35.5439 62.3017C33.5802 64.0186 31.3219 63.9696 29.3581 62.2035C26.9035 59.996 25.7252 57.0526 24.5961 54.0111C25.9707 53.1771 27.2962 52.4413 28.5726 51.6073C29.7509 50.8715 30.831 50.0375 32.0092 49.3017C32.2056 49.1545 32.6474 49.1054 32.8438 49.2035C35.2985 50.7733 37.7532 52.4413 40.3551 54.1092C39.2751 57.1017 38.0477 60.0941 35.5439 62.3017ZM40.9442 52.8337C38.3914 51.2149 36.0349 49.7432 33.5802 48.1733C34.9548 46.996 36.1331 46.0149 37.3113 45.0337C37.4095 44.9356 37.5568 44.8375 37.7041 44.8375C39.3242 44.6413 40.9442 44.4941 42.8098 44.3469C42.1716 47.1432 41.5825 49.8413 40.9442 52.8337ZM55.8196 50.1356C55.8196 53.962 54.1013 55.7771 50.7139 55.7281C47.8174 55.679 45.1172 54.6979 42.5643 53.4224C42.4171 53.3243 42.2698 52.9809 42.3189 52.7847C42.908 50.0375 43.4971 47.2903 44.1353 44.5432C44.1844 44.3469 44.479 44.0526 44.6754 44.0035C47.3755 43.3658 50.0757 42.7771 52.7758 42.2375C53.0213 42.1884 53.4631 42.3356 53.5613 42.4828C54.7396 45.0828 55.6723 47.7318 55.8196 50.1356ZM54.0523 40.3733C53.6595 39.6866 53.3158 39.0488 52.9231 38.4111C51.7448 36.645 50.5666 34.83 49.4374 33.0639C49.2902 32.8186 49.192 32.279 49.3393 32.0828C50.9103 29.63 52.5303 27.2262 54.1995 24.6262C56.9979 25.6073 59.7471 26.7847 61.9563 28.9922C64.1655 31.1998 64.1655 33.7507 61.9072 35.9583C59.7471 38.1658 56.9979 39.3432 54.0523 40.3733Z" fill="#2776EA"/>
<path d="M37.9008 32.3281C37.9008 30.4149 37.9008 28.5017 37.9008 26.5394C37.9008 25.8036 37.6554 25.4111 36.8699 25.4602C33.8752 25.4602 30.8313 25.4602 27.8366 25.4602C27.1002 25.4602 26.8057 25.8036 26.8057 26.4903C26.8057 30.4149 26.8057 34.2903 26.8057 38.2149C26.8057 38.9998 27.1493 39.2941 27.8857 39.2941C30.8313 39.2941 33.777 39.2941 36.7226 39.2941C37.6063 39.2941 37.9008 38.9507 37.9008 38.1168C37.9008 36.2036 37.9008 34.2413 37.9008 32.3281ZM28.2785 27.1281H36.3789V29.679H28.2785V27.1281ZM36.428 31.1017C36.428 31.9356 36.428 32.7696 36.428 33.6526C33.7279 33.6526 31.0768 33.6526 28.3276 33.6526C28.3276 32.7696 28.3276 31.9847 28.3276 31.1017C31.0277 31.1017 33.6788 31.1017 36.428 31.1017ZM36.428 37.8224C33.7279 37.8224 31.0277 37.8224 28.2785 37.8224C28.2785 36.9394 28.2785 36.1054 28.2785 35.2224C30.9786 35.2224 33.6788 35.2224 36.428 35.2224C36.428 36.0564 36.428 36.9394 36.428 37.8224Z" fill="#2776EA"/>
<path d="M36.3788 27.1279H28.2783V29.6789H36.3788V27.1279Z" fill="white"/>
</g>
<defs>
<clipPath id="clip0_977_376312">
<rect width="65" height="65" fill="white"/>
</clipPath>
</defs>
</svg>
