<svg width="60" height="60" viewBox="0 0 60 60" fill="none" xmlns="http://www.w3.org/2000/svg">
<path d="M33.8022 34.5061C32.9477 35.2524 32.1086 35.9662 31.2236 36.7449C32.0475 38.1888 32.9172 39.6813 33.7717 41.19C35.923 44.9375 38.0896 48.6688 40.2409 52.4326C40.4545 52.8219 40.6986 52.9842 41.1259 52.9679C43.0178 52.9355 44.925 52.9517 46.817 52.9679C47.1832 52.9679 47.351 52.8544 47.4883 52.465C48.1291 50.5994 49.9143 49.5611 51.6537 49.9829C53.4083 50.4047 54.5984 52.1081 54.4611 54.0224C54.3238 55.953 52.9201 57.4293 51.0434 57.5753C49.5481 57.6888 48.0223 56.6506 47.5036 55.0607C47.351 54.6065 47.1526 54.5253 46.7407 54.5253C44.6656 54.5416 42.5906 54.5253 40.5156 54.5416C39.9358 54.5416 39.5696 54.3145 39.2644 53.7953C36.2281 48.5066 33.1766 43.2179 30.1556 37.9292C29.8504 37.3776 29.5758 37.1829 28.9197 37.264C25.1663 37.7507 21.8249 34.8144 21.3672 30.6937C20.9552 26.9462 23.6253 23.3122 27.2261 22.8093C27.8517 22.7282 28.4925 22.7444 29.1028 22.8093C29.53 22.858 29.7741 22.7606 30.003 22.3388C33.0393 17.0177 36.1213 11.729 39.1424 6.40782C39.5391 5.72646 39.9663 5.46689 40.7139 5.48311C42.7127 5.53178 44.7114 5.48311 46.7102 5.51556C47.1526 5.51556 47.3663 5.402 47.5188 4.93153C48.1291 3.17944 49.7159 2.22228 51.4858 2.49807C53.0574 2.74142 54.3085 4.20149 54.4611 5.95358C54.5984 7.75434 53.5914 9.36042 51.9588 9.92822C50.1584 10.5609 48.2054 9.57132 47.5188 7.64078C47.351 7.18653 47.1526 7.04052 46.7102 7.04052C44.8335 7.07297 42.9568 7.05674 41.0801 7.04052C40.7139 7.04052 40.4698 7.15408 40.2562 7.51099C37.2809 12.7024 34.3057 17.8775 31.3152 23.0527C31.2694 23.1338 31.2236 23.2311 31.2084 23.2636C32.0628 24.0098 32.902 24.7236 33.8479 25.551C34.1684 25.1779 34.5345 24.7074 34.9312 24.2856C36.9605 22.1117 39.0203 19.9541 41.0496 17.764C41.431 17.3746 41.8125 17.2124 42.3312 17.2124C44.8793 17.2286 47.4273 17.2124 49.9753 17.2286C50.3415 17.2286 50.5246 17.1475 50.6619 16.7419C51.2875 14.8925 52.9811 13.8866 54.7662 14.2273C56.4141 14.5518 57.6499 16.1416 57.6652 17.9586C57.6805 19.8081 56.4598 21.4141 54.7967 21.7548C53.0116 22.1279 51.3333 21.1221 50.6924 19.2727C50.5551 18.8996 50.4025 18.7698 50.0211 18.7698C47.5951 18.786 45.1539 18.7698 42.7279 18.8022C42.4533 18.8022 42.1024 18.9645 41.904 19.1754C39.5391 21.6575 37.2046 24.1558 34.8397 26.6542C34.6108 26.8813 34.5498 27.076 34.6566 27.4167C34.855 27.9845 34.977 28.5847 35.1448 29.2174C35.3585 29.2174 35.5721 29.2174 35.7857 29.2174C41.2479 29.2174 46.6949 29.2012 52.1572 29.2174C52.6302 29.2174 52.8743 29.1039 53.0574 28.5847C53.6829 26.8002 55.4223 25.843 57.1769 26.2324C58.7637 26.5893 59.9996 28.2116 59.9996 29.9637C59.9996 31.7644 58.7638 33.3867 57.1312 33.7274C55.3613 34.1005 53.6677 33.1272 53.0269 31.3426C52.8743 30.9046 52.6912 30.7424 52.2335 30.7424C46.7559 30.7586 41.2784 30.7748 35.8009 30.7586C35.2974 30.7586 34.9618 30.8235 34.9618 31.4724C34.9618 31.6671 34.916 31.9104 34.8092 32.0727C34.3972 32.8027 34.7176 33.2407 35.2211 33.7599C37.464 36.0798 39.6459 38.4483 41.8735 40.7844C42.0871 41.0116 42.4533 41.1738 42.7432 41.1738C45.1692 41.2062 47.6104 41.1738 50.0364 41.2062C50.4025 41.2062 50.5399 41.0765 50.6619 40.7195C51.3027 38.8701 52.9963 37.8318 54.751 38.205C56.4904 38.5619 57.7262 40.2491 57.6499 42.1796C57.5737 44.0615 56.231 45.5702 54.3848 45.7974C52.8285 45.992 51.2875 44.9862 50.7077 43.3315C50.5399 42.861 50.3262 42.7636 49.899 42.7636C47.412 42.7799 44.9098 42.7636 42.4228 42.7961C41.843 42.7961 41.4158 42.5852 41.0191 42.1634C38.7609 39.7299 36.4723 37.3127 34.1836 34.8955C34.0463 34.7332 33.8937 34.6035 33.8022 34.5061ZM28.2484 35.7066C31.2541 35.6904 33.6191 33.1434 33.6038 29.9799C33.5886 26.8002 31.1931 24.2856 28.2026 24.2856C25.2274 24.3018 22.8472 26.8651 22.8777 30.061C22.8929 33.1921 25.2884 35.7229 28.2484 35.7066ZM50.8908 4.00681C49.7465 4.00681 48.7852 5.02887 48.77 6.26182C48.7547 7.47854 49.7312 8.53304 50.8755 8.53304C52.0504 8.53304 53.0421 7.49477 53.0269 6.26182C53.0116 5.02887 52.0351 4.02304 50.8908 4.00681ZM51.9436 18.0235C51.9588 19.2565 52.9201 20.2785 54.0644 20.2623C55.2392 20.2623 56.2157 19.1916 56.1852 17.9586C56.1547 16.7257 55.1629 15.7198 54.0339 15.7361C52.8743 15.7685 51.9283 16.8068 51.9436 18.0235ZM54.0491 44.2399C55.2087 44.2399 56.1699 43.2341 56.1852 42.0174C56.2005 40.7682 55.2087 39.7137 54.0491 39.7299C52.9048 39.7462 51.9588 40.752 51.9588 42.0012C51.9436 43.2179 52.8895 44.2399 54.0491 44.2399ZM50.906 55.9854C52.0504 55.9692 53.0116 54.9471 53.0116 53.7304C52.9963 52.4812 52.0199 51.4592 50.8298 51.4754C49.6854 51.5079 48.7394 52.5461 48.7547 53.7629C48.7852 54.9796 49.7617 55.9854 50.906 55.9854ZM58.4891 29.9637C58.4891 28.7307 57.5279 27.7249 56.3683 27.7249C55.2087 27.7249 54.2475 28.7469 54.2475 29.9637C54.2475 31.2291 55.224 32.2673 56.3988 32.2511C57.5584 32.2187 58.4891 31.1966 58.4891 29.9637Z" fill="#2776EA"/>
<path d="M28.9659 9.2958C28.9659 11.9077 28.9659 14.5034 28.9659 17.1153C28.9659 18.3969 28.8896 18.478 27.73 18.5754C23.3205 18.9647 19.6892 22.0147 18.3007 26.4922C16.1647 33.3708 20.7878 40.7847 27.5774 41.3687C27.8063 41.385 28.0504 41.4174 28.2793 41.4336C28.6912 41.4823 28.9201 41.7419 28.9506 42.1799C28.9659 42.407 28.9659 42.6341 28.9659 42.8775C28.9659 48.15 28.9659 53.4225 28.9659 58.7112C28.9659 59.8143 28.798 59.9928 27.7605 59.9928C26.845 59.9928 25.9448 60.009 25.0294 59.9928C23.1527 59.9766 21.81 58.5489 21.7948 56.5697C21.7795 55.5152 21.7948 54.4607 21.7795 53.4225C21.7795 52.3517 21.4438 51.8326 20.5436 51.427C20.1317 51.2324 19.7045 51.0377 19.2925 50.843C18.5601 50.5023 17.904 50.6321 17.3395 51.2324C16.5919 52.0111 15.8595 52.806 15.1119 53.5847C13.7845 54.9799 11.8773 54.9961 10.5498 53.6171C9.03933 52.0435 7.54408 50.4536 6.06408 48.8476C4.64512 47.3226 4.67563 45.3272 6.0946 43.8184C6.84222 43.0397 7.57459 42.2448 8.32222 41.4499C8.90201 40.8334 9.03933 40.1196 8.70366 39.3084C8.53583 38.9028 8.38325 38.4973 8.23067 38.0917C7.92552 37.2481 7.34573 36.8263 6.50656 36.8263C5.45378 36.8263 4.41625 36.8263 3.36347 36.8263C1.30368 36.8101 0.00678119 35.4311 0.00678119 33.2248C0.00678119 31.0671 -0.00847649 28.8932 0.00678119 26.7356C0.0220389 24.5455 1.31894 23.1665 3.39399 23.1665C4.41625 23.1665 5.45377 23.1665 6.47604 23.1665C7.3915 23.1503 7.91026 22.7609 8.24593 21.8687C8.41376 21.4469 8.5816 21.0251 8.74943 20.587C9.03933 19.8246 8.90201 19.1432 8.36799 18.5592C7.62037 17.748 6.85748 16.9531 6.10986 16.1419C4.67563 14.5845 4.67563 12.654 6.10986 11.1128C7.58985 9.52292 9.05459 7.94929 10.5498 6.39188C11.923 4.96425 13.7692 4.98047 15.1424 6.4081C15.8748 7.17058 16.5919 7.94929 17.3243 8.71177C17.9346 9.34447 18.5601 9.45803 19.323 9.11735C19.735 8.92267 20.1469 8.71177 20.5741 8.54954C21.4286 8.20886 21.7948 7.54371 21.7948 6.60278C21.7948 5.58073 21.7948 4.54245 21.7948 3.5204C21.81 1.39518 23.1222 0 25.1057 0C26.0364 0 26.9671 0 27.8978 0C28.737 0 28.9506 0.227123 28.9659 1.11939C28.9811 3.82864 28.9811 6.57033 28.9659 9.2958ZM27.4706 1.57364C26.6925 1.57364 25.9906 1.57364 25.2735 1.57364C23.9003 1.57364 23.29 2.22256 23.2747 3.68263C23.2595 4.80202 23.3053 5.90519 23.2595 7.02458C23.1985 8.33864 22.5729 9.27958 21.4591 9.84738C20.9403 10.107 20.4063 10.3341 19.8875 10.5774C18.6212 11.1614 17.3243 10.9019 16.3325 9.86361C15.5696 9.06868 14.8373 8.2413 14.0591 7.4626C13.281 6.66767 12.3502 6.70011 11.5874 7.49504C10.0921 9.0849 8.59686 10.6748 7.1016 12.2646C6.32346 13.092 6.32346 14.0978 7.1016 14.9414C7.87975 15.785 8.67315 16.5962 9.43603 17.4398C10.2752 18.3483 10.5804 19.4514 10.2599 20.6844C10.1074 21.2684 9.84799 21.82 9.64964 22.3878C9.10036 23.8965 8.04758 24.6752 6.52181 24.6915C5.46903 24.7077 4.43151 24.6915 3.37873 24.6915C2.15811 24.7077 1.51729 25.3891 1.51729 26.6869C1.51729 28.877 1.51729 31.0509 1.51729 33.241C1.51729 34.5226 2.17337 35.2202 3.39399 35.2202C4.47728 35.2364 5.57584 35.204 6.65913 35.2364C8.0781 35.2689 9.03933 35.9989 9.58861 37.3779C9.75644 37.7835 9.89376 38.2053 10.0616 38.6108C10.6719 40.1358 10.443 41.4174 9.35974 42.5855C8.62737 43.3804 7.87975 44.1591 7.13212 44.954C6.33872 45.8139 6.32346 46.8197 7.11686 47.6795C8.59686 49.2694 10.0769 50.843 11.5568 52.4004C12.3808 53.2602 13.2962 53.2602 14.1049 52.4166C14.8373 51.6542 15.5544 50.8754 16.2867 50.0967C17.3243 49.0098 18.6059 48.7665 19.9333 49.3829C20.3453 49.5776 20.7725 49.7561 21.1844 49.9507C22.5424 50.5672 23.2442 51.6379 23.2442 53.2278C23.2442 54.3472 23.2442 55.4503 23.2595 56.5697C23.2748 57.4296 23.7477 58.192 24.4954 58.2732C25.4566 58.3867 26.4484 58.3056 27.4248 58.3056C27.4248 53.1629 27.4248 48.0689 27.4248 42.9586C27.1349 42.9099 26.8756 42.8613 26.6314 42.8288C20.1469 41.9041 15.3408 34.9769 16.3935 28.1145C17.309 22.2256 21.3065 18.0076 26.8603 17.0829C27.3028 17.0017 27.4859 16.872 27.4859 16.3528C27.4706 11.6644 27.4706 6.97591 27.4706 2.28745C27.5011 2.09277 27.4859 1.88187 27.4706 1.57364Z" fill="#2776EA"/>
</svg>
