<svg width="60" height="60" viewBox="0 0 60 60" fill="none" xmlns="http://www.w3.org/2000/svg">
<path d="M1.38331 45.8531C1.38331 49.5455 1.38331 53.1455 1.38331 56.8748C1.67823 56.8748 1.99159 56.8748 2.28651 56.8748C10.489 56.8748 18.6731 56.8748 26.8757 56.8748C26.9863 56.8748 27.1153 56.8748 27.2259 56.8748C27.742 56.8748 28.3871 56.8009 28.3687 57.5763C28.3503 58.2963 27.7604 58.241 27.2628 58.241C25.2167 58.241 23.1707 58.241 21.1247 58.241C14.5074 58.241 7.89004 58.241 1.25428 58.241C0.129892 58.241 0.000863471 58.0933 0.000863471 56.9486C0.000863471 53.1824 0.000863471 49.4162 0.000863471 45.6316C0.000863471 44.6531 0.148325 44.5239 1.12526 44.5239C2.82106 44.5054 2.89479 44.5054 2.80263 42.8438C2.74733 41.7361 3.00538 40.8869 3.92702 40.2592C4.53529 39.8346 4.66432 39.2623 4.66432 38.5238C4.62746 33.613 4.64589 28.7021 4.66432 23.7729C4.66432 23.1636 4.5353 22.7021 4.03761 22.3513C3.02382 21.6498 2.63673 20.6713 2.82106 19.4528C2.87636 19.0097 2.83949 18.5666 2.83949 17.9943C2.19435 17.9943 1.64137 17.9943 1.08839 17.9943C0.222055 17.9943 0.0377283 17.8097 0.0192957 16.9605C0.0192957 15.5574 0.0377288 14.1358 0.000863471 12.7327C-0.0175692 12.0681 0.25892 11.7543 0.848764 11.5142C6.00991 9.46499 11.1895 7.37882 16.3506 5.3111C20.6823 3.57569 24.9955 1.82183 29.3272 0.123345C29.6959 -0.0243488 30.2304 -0.0428105 30.5991 0.0864218C40.1287 3.87108 49.6215 7.71113 59.1512 11.5142C59.7411 11.7543 60.0176 12.0681 59.9991 12.7327C59.9623 14.1358 59.9991 15.5389 59.9807 16.9605C59.9807 17.8097 59.7779 17.9943 58.9116 17.9943C57.1605 18.0128 57.0683 18.0128 57.1789 19.7482C57.2527 20.9297 56.7919 21.7051 55.944 22.3513C55.4647 22.7205 55.3172 23.1636 55.3172 23.7729C55.3541 25.5636 55.3357 27.3544 55.3357 29.1452C55.3357 29.3114 55.3357 29.4775 55.3357 29.6437C55.3172 30.1052 55.1513 30.456 54.6352 30.4375C54.156 30.4191 54.027 30.0683 54.027 29.6252C54.027 28.7391 54.027 27.8529 54.027 26.9852C54.027 25.7298 54.0638 24.4559 54.0085 23.2005C53.9901 22.5913 54.1191 22.1113 54.6352 21.779C56.0177 20.8928 55.9808 19.5636 55.7965 18.1789C55.7965 18.1605 55.7781 18.142 55.7228 18.0682C52.11 18.0682 48.4603 18.0682 44.7 18.0682C44.7 18.8436 44.6263 19.6374 44.7369 20.3944C44.7922 20.7267 45.1609 21.0774 45.4558 21.3174C46.2852 21.9821 46.6355 22.7575 46.5617 23.8467C46.4511 25.2867 46.5433 26.7637 46.5249 28.2037C46.5249 28.7206 46.6723 29.4406 45.8613 29.4591C44.9581 29.4775 45.1793 28.7021 45.1793 28.1852C45.1609 26.6344 45.1977 25.0836 45.1609 23.5329C45.1424 23.2005 44.995 22.7575 44.7369 22.5544C43.5572 21.6682 43.078 20.542 43.3176 19.0836C43.3729 18.7697 43.3176 18.4189 43.3176 18.0497C41.1794 18.0497 39.0965 18.0497 36.9399 18.0497C36.9399 18.8436 37.0136 19.6005 36.9215 20.3574C36.8662 20.819 36.7003 21.3913 36.3685 21.6498C35.3363 22.4621 35.0045 23.4405 35.0782 24.7513C35.1888 26.8006 35.1151 28.8498 35.1151 30.8991C35.1151 31.3791 35.0598 31.8591 34.4515 31.8776C33.7879 31.896 33.751 31.3976 33.751 30.8806C33.751 28.296 33.7695 25.7298 33.7326 23.1452C33.7326 22.5913 33.8616 22.1667 34.2856 21.8344C34.3409 21.7974 34.3778 21.7236 34.433 21.6867C35.7233 20.9113 35.6496 19.6743 35.5759 18.4189C35.5574 17.9205 35.2257 17.9943 34.9307 17.9943C33.1059 17.9943 31.2626 17.9943 29.4378 17.9943C27.9816 17.9943 26.5254 18.0128 25.0877 17.9759C24.5347 17.9574 24.3504 18.1605 24.4241 18.6774C24.4241 18.6959 24.4241 18.7328 24.4241 18.7513C24.2214 20.0067 24.59 21.0221 25.6591 21.7605C26.1384 22.0928 26.2858 22.5728 26.2858 23.1821C26.2674 28.5175 26.2674 33.8714 26.2858 39.2069C26.2858 39.8161 26.1752 40.333 25.6591 40.7023C25.5485 40.7761 25.4748 40.9238 25.3458 40.9977C24.1108 41.7731 24.4241 43.01 24.461 44.1362C24.461 44.2469 24.7928 44.45 24.9587 44.45C25.8434 44.4869 26.7282 44.4685 27.5945 44.4685C28.0554 44.4685 28.4056 44.5977 28.424 45.1331C28.424 45.6685 28.0369 45.7977 27.5945 45.7977C26.1199 45.7977 24.6453 45.7977 23.1707 45.7977C16.2216 45.7977 9.25405 45.7977 2.30494 45.7977C1.97316 45.8531 1.69667 45.8531 1.38331 45.8531ZM58.5798 16.6282C58.5798 15.6312 58.5245 14.6897 58.5983 13.7666C58.672 13.0097 58.3586 12.6958 57.6951 12.4373C48.6631 8.83729 39.6495 5.20033 30.6175 1.60029C30.2488 1.45259 29.7143 1.45259 29.3456 1.60029C23.7605 3.8157 18.1755 6.06803 12.5904 8.3019C9.03286 9.72346 5.49379 11.145 1.93629 12.6035C1.7151 12.6958 1.38331 12.9358 1.38331 13.1204C1.32801 14.2835 1.36488 15.4466 1.36488 16.6466C20.4611 16.6282 39.4652 16.6282 58.5798 16.6282ZM16.6455 18.0682C16.6455 18.4189 16.6087 18.7143 16.6455 18.9913C16.8852 20.5051 16.4244 21.7236 15.1709 22.6467C14.9313 22.8313 14.8207 23.2929 14.8207 23.6436C14.8023 28.3883 14.8576 33.133 14.7838 37.8776C14.7654 39.0961 14.9866 40.0561 16.0188 40.7577C16.5718 41.1269 16.7008 41.6808 16.664 42.3269C16.6271 43.0285 16.6455 43.7485 16.6455 44.5054C16.9773 44.5239 17.2354 44.5423 17.4934 44.5423C19.0418 44.5423 20.5901 44.5054 22.1385 44.5608C22.8758 44.5793 23.1154 44.3762 23.0417 43.6377C22.8942 42.2715 22.9864 40.9792 24.3135 40.13C24.7743 39.8346 24.8665 39.373 24.8665 38.8376C24.8481 34.1484 24.8112 29.4406 24.8849 24.7513C24.9034 23.4775 24.6822 22.4805 23.6131 21.7421C23.1154 21.3913 22.9864 20.8928 23.0048 20.302C23.0417 19.582 23.0048 18.8436 23.0048 18.0682C20.8666 18.0682 18.8022 18.0682 16.6455 18.0682ZM4.18507 18.0682C4.03761 19.5082 3.85329 20.8559 5.29103 21.7605C5.84401 22.1113 5.97304 22.6467 5.95461 23.3113C5.93618 28.6098 5.93618 33.9084 5.95461 39.2069C5.95461 39.9084 5.80715 40.4623 5.23573 40.8869C4.33254 41.5331 3.89015 42.3823 4.11134 43.5269C4.12978 43.6192 4.12978 43.7116 4.11134 43.8039C4.03761 44.3946 4.27724 44.5793 4.86708 44.5793C8.07436 44.5608 11.3001 44.5608 14.5074 44.5608C14.7285 44.5608 14.9682 44.5239 15.1894 44.5239C15.3921 43.0285 15.4474 41.6438 14.0097 40.7392C13.5304 40.4438 13.4198 39.9454 13.4198 39.373C13.4383 34.3145 13.4751 29.256 13.4014 24.1975C13.383 22.9421 13.6226 21.9636 14.6548 21.2251C14.9129 21.0405 15.2078 20.7267 15.2262 20.4682C15.3 19.6928 15.2447 18.9174 15.2447 18.1051C11.5397 18.0682 7.89004 18.0682 4.18507 18.0682Z" fill="#2776EA"/>
<path d="M33.2536 47.2017C33.2536 45.0601 33.2904 42.9001 33.2351 40.7586C33.1983 39.3924 33.7512 38.3585 34.7466 37.5277C36.3871 36.18 38.341 35.497 40.387 35.0723C45.4375 34.0016 50.4697 34.0939 55.3727 35.8662C56.4234 36.2539 57.4372 36.8631 58.3588 37.5093C59.4648 38.2847 59.9809 39.4293 59.9625 40.8324C59.9256 45.0232 59.9256 49.2325 59.9625 53.4233C59.9809 54.9741 59.3726 56.1372 58.1745 57.0418C56.5524 58.2603 54.6907 58.9065 52.7553 59.3126C47.7232 60.3649 42.7095 60.2911 37.8433 58.5188C36.6452 58.0757 35.5208 57.3188 34.4886 56.5618C33.5854 55.8972 33.2351 54.8818 33.2536 53.7187C33.272 51.5402 33.2536 49.3617 33.2536 47.2017ZM47.502 44.9863C48.6264 44.8386 50.7277 44.6355 52.7737 44.2294C54.5986 43.8786 56.3681 43.2324 57.769 41.9216C58.8749 40.9062 58.9118 39.7616 57.769 38.7831C56.9948 38.137 56.0916 37.5647 55.17 37.2139C50.1747 35.3493 45.0689 35.3308 39.9446 36.5677C38.341 36.9554 36.7926 37.5462 35.5392 38.6539C34.3227 39.7247 34.2858 40.9616 35.5392 41.9955C36.2397 42.5678 37.0691 43.0478 37.917 43.4171C40.6266 44.5986 43.5758 44.8755 47.502 44.9863ZM58.5616 43.1401C54.8382 45.6878 50.7461 46.2602 46.5435 46.2602C42.3409 46.2602 38.2672 45.6878 34.5623 43.1217C34.5623 44.3955 34.5991 45.5217 34.5439 46.6663C34.4886 47.7556 34.9125 48.6048 35.7973 49.1587C36.7742 49.7494 37.7696 50.3402 38.8387 50.6725C43.3178 52.1125 47.8707 52.1679 52.4419 51.1894C54.1931 50.8202 55.9257 50.3033 57.3266 49.1217C57.8427 48.6971 58.4141 48.0325 58.4879 47.4232C58.6906 46.0571 58.5616 44.6355 58.5616 43.1401ZM58.5616 50.0264C54.8566 52.611 50.7646 53.1649 46.5619 53.1649C42.3593 53.1649 38.2672 52.5925 34.5623 50.0264C34.5623 51.2818 34.5991 52.3895 34.5439 53.4972C34.507 54.531 34.8941 55.3433 35.7235 55.8787C36.6636 56.4695 37.6405 57.0603 38.6912 57.4111C43.0597 58.8695 47.5204 58.9434 51.9996 58.0941C53.8981 57.7249 55.7783 57.208 57.3082 55.971C57.8427 55.528 58.4141 54.8449 58.5063 54.2172C58.6906 52.851 58.5616 51.4848 58.5616 50.0264Z" fill="#2776EA"/>
<path d="M11.7793 50.7092C13.088 50.7092 14.3967 50.7092 15.7055 50.7092C16.1847 50.7092 16.6087 50.8199 16.6271 51.3553C16.6455 51.8907 16.2216 52.0569 15.7423 52.0569C13.1064 52.0569 10.4706 52.0569 7.83471 52.0569C7.35546 52.0569 6.94995 51.9276 6.96838 51.3553C6.98681 50.783 7.39233 50.6907 7.87158 50.7092C9.16186 50.7092 10.4706 50.7092 11.7793 50.7092Z" fill="#2776EA"/>
<path d="M40.3864 10.9425C40.4232 11.6995 39.9624 11.9764 39.3357 11.7364C37.6952 11.0902 36.0731 10.4256 34.4326 9.77943C33.1239 9.2625 31.8336 8.70865 30.5249 8.22864C30.1931 8.09941 29.7323 8.09941 29.4005 8.22864C26.5066 9.35481 23.6311 10.5364 20.7187 11.681C20.4238 11.7918 19.9446 11.7733 19.7049 11.5887C19.2994 11.2933 19.539 10.721 20.1657 10.481C22.2486 9.63174 24.35 8.7825 26.4513 7.95172C27.4282 7.56402 28.3867 7.1394 29.3636 6.80709C29.7323 6.67786 30.23 6.65939 30.5802 6.80709C33.64 7.98864 36.6814 9.22558 39.7044 10.4625C39.9993 10.5548 40.2205 10.8318 40.3864 10.9425Z" fill="#2776EA"/>
</svg>
