<svg width="68" height="57" viewBox="0 0 68 57" fill="none" xmlns="http://www.w3.org/2000/svg">
<path d="M7.65748 31.2695C6.32315 29.2046 4.71109 27.8521 1.95186 28.2023C0.243197 28.4197 -0.0103863 28.0272 0.0318775 26.2642C0.122443 22.1284 -0.831512 22.1948 4.24015 22.1888C5.4658 22.1888 6.15409 22.6959 5.979 23.9457C5.52617 27.2544 8.41823 28.2929 10.1027 30.1585C11.8959 30.1585 13.6952 30.1585 15.6695 30.1585C15.6695 27.9668 15.6695 25.7631 15.6695 23.2635C15.0597 23.4748 14.5525 23.5291 14.2023 23.7948C13.6046 24.2476 13.1095 24.8272 12.5782 25.3646C11.7933 26.1555 11.0144 26.1797 10.2416 25.3525C10.1873 25.2982 10.1329 25.2499 10.0786 25.1955C6.95711 22.0439 6.75182 22.5208 10.1571 19.1458C11.0325 18.2764 11.8476 18.2884 12.6808 19.188C13.1397 19.6831 13.5925 20.2084 14.1238 20.619C14.4921 20.9027 14.9933 21.0054 15.7057 21.2952C15.7721 20.3594 15.8446 19.7073 15.8506 19.0613C15.8627 17.0265 15.9895 14.9737 15.7963 12.9571C15.6031 10.8983 16.225 9.43114 17.7887 8.05454C20.2219 5.9172 22.474 3.57458 24.7441 1.25611C25.5955 0.386678 26.483 -0.0118092 27.7207 0.000266177C35.3403 0.0485677 42.9598 0.00630368 50.5734 0.0425298C54.3469 0.0606429 55.8805 1.66667 55.8986 5.47041C55.9047 6.97983 55.8805 8.48926 55.8805 9.99868C55.8745 11.5021 55.8805 13.0115 55.8805 14.5149C56.0737 14.5149 56.2669 14.5752 56.3514 14.5088C58.5552 12.6613 58.5552 12.6492 60.6442 14.8107C62.051 16.2718 63.4457 17.7511 65.0517 19.4356C63.8382 20.782 62.7031 22.0378 61.4956 23.3782C61.7129 23.9699 61.9363 24.5857 62.214 25.3525C63.5423 25.3525 64.8163 25.3706 66.0842 25.3465C67.1166 25.3284 67.6117 25.7752 67.5997 26.8257C67.5755 29.0114 67.5695 31.203 67.5876 33.3887C67.5936 34.4091 67.171 34.9343 66.1083 34.9041C65.2812 34.88 64.4419 34.9706 63.6208 34.886C62.3288 34.7532 61.6344 35.2845 61.0669 36.9509C62.0631 37.76 63.0714 38.5509 64.0495 39.3781C64.8767 40.0784 65.0397 40.8332 64.1763 41.6724C62.6608 43.1456 61.1635 44.6309 59.6963 46.1524C58.845 47.0339 58.0601 47.1244 57.2028 46.1946C56.9552 45.929 56.6533 45.7176 56.0254 45.1743C55.9892 47.5954 55.9167 49.6603 55.9288 51.7251C55.9409 53.6632 55.1077 55.1485 53.4111 55.9274C52.433 56.3742 51.2194 56.4466 50.1085 56.4647C45.8096 56.5311 41.5108 56.513 37.212 56.513C32.0075 56.513 26.803 56.5191 21.6045 56.4949C20.8559 56.4949 20.0891 56.4466 19.3585 56.2957C17.3359 55.8851 15.917 54.2308 15.8687 52.1538C15.8084 49.4429 15.8506 46.7259 15.8446 44.009C15.8446 43.2724 15.8446 42.5358 15.8446 41.926C14.5767 41.2799 14.0876 42.083 13.502 42.6324C11.4552 44.5644 11.4552 44.5705 9.54728 42.6867C7.15635 40.332 7.15635 40.332 9.58954 37.9411C11.419 36.1419 11.5095 36.1479 13.3812 37.9592C13.9427 38.5026 14.5646 38.9917 15.428 39.3962C16.0076 37.126 15.8567 34.9585 15.7359 32.477C13.9186 32.477 12.2703 32.4106 10.6401 32.5132C10.1027 32.5494 9.54728 32.9479 9.09445 33.2981C8.50276 33.757 8.05597 34.403 7.4522 34.8498C6.31711 35.689 5.89447 36.7155 5.95485 38.1464C6.04542 40.2717 5.87032 40.3562 3.87185 40.3984C-0.0949141 40.483 -0.0949141 40.483 0.037915 36.4256C0.0982919 34.6023 0.213008 34.4755 1.93979 34.3909C5.25448 34.2098 5.25448 34.2098 7.65748 31.2695ZM28.083 25.2016C29.6769 25.1291 31.0113 25.0386 32.3456 25.0265C33.1063 25.0204 33.7765 24.8333 33.861 24.0363C33.9154 23.5231 33.7343 22.8771 33.4203 22.4665C32.8286 21.6937 32.0799 21.0416 31.3796 20.3533C30.7214 19.7012 30.6852 19.0612 31.3494 18.3971C32.889 16.8454 34.4226 15.2877 35.9682 13.742C36.8316 12.8787 37.7071 12.8907 38.492 13.8145C39.2708 14.7322 39.9833 15.7043 40.7319 16.6583C40.8889 16.5435 41.0519 16.4288 41.2089 16.3141C41.8006 16.0424 42.3863 15.7707 43.141 15.4266C43.141 13.7481 43.141 12.1179 43.141 10.2643C46.3893 10.1557 49.4141 9.81151 52.3485 10.4515C53.0307 12.3051 52.1069 14.1828 53.2964 15.7284C53.6103 12.5043 53.7311 9.28623 53.7733 6.07418C53.8156 2.96477 53.1937 2.33685 50.1326 2.33081C43.2678 2.3127 36.409 2.31874 29.5441 2.32478C28.9584 2.32478 28.3728 2.40327 27.5275 2.45761C27.5275 3.81005 27.5396 5.07192 27.5275 6.3338C27.4732 10.1315 25.7404 11.8402 21.9728 11.8341C20.717 11.8341 19.4612 11.8341 18.0121 11.8341C18.0121 13.1141 18.0121 14.0862 18.0121 15.0583C18.0121 20.788 18.0121 26.5178 18.0121 32.2476C18.0121 38.4302 18.0061 44.6127 18.0302 50.8014C18.0423 53.6632 18.6702 54.267 21.4777 54.2731C23.2891 54.2791 25.1004 54.2731 26.9056 54.2731C34.5976 54.2731 42.2897 54.2912 49.9817 54.2731C53.1334 54.267 53.7613 53.6029 53.8035 50.3848C53.8277 48.652 53.8398 46.9131 53.8035 45.1803C53.7975 44.7999 53.5681 44.4316 53.4473 44.0512C53.2903 44.0452 53.1334 44.0452 52.9764 44.0392C52.8556 44.5584 52.6624 45.0777 52.6262 45.609C52.5658 46.5086 52.7168 47.4384 52.5537 48.3139C52.4692 48.7788 51.9319 49.4912 51.5515 49.5274C48.7923 49.775 46.027 49.8414 43.0263 49.4248C43.0263 48.1871 42.9538 47.1365 43.0444 46.1101C43.1712 44.649 42.6217 43.8097 40.6897 43.5803C40.0376 44.329 39.2104 45.3071 38.3531 46.261C37.5923 47.1063 36.8437 47.0701 36.0527 46.2369C35.0142 45.1501 33.9214 44.1056 32.8467 43.049C29.7615 40.006 30.5403 40.4709 32.895 38.0377C32.9977 37.929 33.1003 37.8083 33.215 37.7177C34.2837 36.8845 34.2475 35.9909 33.215 34.874C32.098 34.874 30.8241 34.886 29.5501 34.8679C28.6867 34.8619 28.083 34.5298 28.0769 33.5517C28.083 30.9193 28.083 28.2868 28.083 25.2016ZM37.2905 15.8613C36.0467 17.1352 34.9237 18.2945 33.7403 19.508C34.018 19.7978 34.3199 20.1299 34.6339 20.4439C36.9644 22.8046 36.9161 22.7865 35.6965 25.7752C35.2618 26.8378 34.7003 27.357 33.535 27.2725C32.5146 27.2001 31.4882 27.2604 30.2867 27.2604C30.2867 28.4317 30.2747 29.2589 30.2928 30.08C30.3109 30.877 30.3592 31.6679 30.4015 32.4891C30.9388 32.5374 31.2347 32.5857 31.5305 32.5857C36.0527 32.6279 34.5856 32.1389 36.4693 35.9849C36.8739 36.806 36.7471 37.3917 36.1252 37.9954C35.2799 38.8105 34.4769 39.6679 33.7101 40.4528C34.9961 41.6905 36.1252 42.7713 37.3871 43.9848C38.0029 43.3871 38.7274 42.7531 39.3735 42.0407C40.1946 41.1411 41.0701 40.8513 42.181 41.4852C42.5734 41.7086 42.9961 41.9199 43.4308 41.9984C44.9583 42.2762 45.3145 43.2845 45.23 44.655C45.1757 45.5244 45.2179 46.3939 45.2179 47.3176C47.1017 47.3176 48.6413 47.3176 50.2353 47.3176C50.2836 46.7259 50.3621 46.2792 50.356 45.8384C50.3017 42.0769 50.4587 42.7894 53.3749 41.5033C54.5281 40.9962 55.3431 41.0747 56.1824 41.9984C56.8707 42.7531 57.6616 43.4052 58.6639 44.3471C59.3401 43.5199 59.811 42.8256 60.4027 42.2581C60.9461 41.7388 61.6223 41.3584 62.2563 40.9116C61.6344 40.1871 61.3567 39.8369 61.0488 39.5109C58.6458 37.0234 58.682 37.0415 59.9559 33.9985C60.4088 32.9238 61.0669 32.5011 62.202 32.5857C63.162 32.6581 64.128 32.5977 65.3174 32.5977C65.3174 31.6559 65.3174 30.9193 65.3174 30.1887C65.3174 29.3797 65.3174 28.5706 65.3174 27.9004C64.925 27.6951 64.8042 27.5865 64.6653 27.5623C64.3695 27.514 64.0555 27.4295 63.7718 27.4838C61.1756 27.985 59.9741 26.6989 59.2676 24.3382C58.9658 23.3178 58.9054 22.6658 59.6722 21.9473C60.4812 21.1865 61.248 20.3775 62.0208 19.6046C60.6925 18.3005 59.5333 17.1594 58.2895 15.9398C57.1967 16.942 56.0556 17.9926 54.9145 19.0311C53.7975 18.5541 52.8617 18.0348 51.8654 17.7571C50.6821 17.425 50.3319 16.6884 50.356 15.5835C50.3802 14.5571 50.3621 13.5368 50.3621 12.5345C48.4783 12.5345 46.9447 12.5345 45.23 12.5345C45.23 13.3919 45.2361 14.062 45.23 14.7322C45.2119 17.1292 45.2059 17.1232 43.0625 18.0107C42.3078 18.3247 41.5591 18.6688 40.6776 19.0552C39.5848 18.0167 38.498 16.9903 37.2905 15.8613ZM25.2151 4.12401C23.1381 5.74211 21.526 7.51719 19.763 9.33453C24.9494 9.95038 25.5351 9.40698 25.2151 4.12401Z" fill="#2776EA"/>
<path d="M47.7239 36.8001C44.0168 36.782 40.9255 33.7752 40.8651 30.1285C40.8047 26.4515 44.053 23.1549 47.736 23.167C51.5276 23.1791 54.4921 26.2402 54.4861 30.1406C54.4801 33.8658 51.4733 36.8243 47.7239 36.8001ZM47.7541 34.5541C50.2718 34.542 52.2884 32.4651 52.2522 29.9172C52.2159 27.484 50.2175 25.4613 47.8084 25.4312C45.3571 25.401 43.1654 27.5444 43.1473 29.9836C43.1353 32.4651 45.2485 34.5662 47.7541 34.5541Z" fill="#2776EA"/>
</svg>
