<svg width="290" height="138" viewBox="0 0 290 138" fill="none" xmlns="http://www.w3.org/2000/svg">
<g filter="url(#filter0_d_755_738153)">
<path d="M27 53C27 37.9151 27 30.3726 31.6863 25.6863C36.3726 21 43.9151 21 59 21H230.2C245.285 21 252.827 21 257.514 25.6863C262.2 30.3726 262.2 37.9151 262.2 53V71.3399C262.2 86.4249 262.2 93.9673 257.514 98.6536C252.827 103.34 245.285 103.34 230.2 103.34H59C43.915 103.34 36.3726 103.34 31.6863 98.6536C27 93.9673 27 86.4249 27 71.3399V53Z" fill="white"/>
<path d="M27 21H262.2H27ZM262.2 87.3399C262.2 96.7288 254.589 104.34 245.2 104.34H44C34.6112 104.34 27 96.7288 27 87.3399C27 95.6242 34.1634 102.34 43 102.34H246.2C255.037 102.34 262.2 95.6242 262.2 87.3399ZM27 103.34V21V103.34ZM262.2 21V103.34V21Z" fill="#0274BA"/>
</g>
<path fill-rule="evenodd" clip-rule="evenodd" d="M104.898 62.8365C104.881 65.7874 107.044 67.5463 110.495 66.7468V58.9281C107.001 57.8646 104.911 60.0177 104.898 62.8365ZM110.601 47.625H115.353V70.1272C110.798 70.8709 106.432 71.345 103.31 69.5991C99.2904 67.3493 98.9668 60.2092 102.148 57.0279C103.762 55.4139 107.009 54.2797 110.495 55.0197V47.943C110.486 47.7923 110.478 47.6417 110.601 47.625ZM123.068 52.5895H118.314V47.625H123.068V52.5895ZM180.114 66.9569C185.296 68.9706 185.87 57.6805 180.642 58.718C177.395 59.3614 177.499 65.9417 180.114 66.9569ZM180.326 54.8078C184.282 54.3857 187.269 56.1316 188.46 58.824C190.493 63.4148 188.349 68.6824 185.078 70.2313C183.386 71.0345 181.61 71.1108 180.008 70.9713C175.054 70.5399 171.931 65.4917 173.669 59.8801C173.942 59.0007 174.247 58.4633 174.409 58.1881C175.488 56.3585 177.304 55.1313 180.326 54.8078ZM129.617 65.1608C128.302 67.3716 131.606 67.9015 133.737 67.2749V64.0005C132.101 64.2274 130.236 64.1214 129.617 65.1608ZM137.963 70.3373C134.036 70.5641 128.068 71.901 125.92 69.2811C124.658 67.7416 124.794 64.8056 125.92 63.3665C127.376 61.5052 130.554 61.098 133.421 60.8303C133.681 60.1888 133.505 59.1457 133.209 58.718C130.587 58.0487 127.981 59.0843 126.13 59.8801V56.1818C128.925 54.8989 135.394 53.5471 137.329 56.4979C138.347 58.0487 137.962 60.7522 137.962 63.1545L137.963 70.3373ZM154.655 70.5511H149.901V64.4226C149.901 62.4052 150.226 59.8467 149.161 59.0341C148.326 58.3982 146.346 58.718 145.146 59.0341V70.5492H140.392V55.8657C145.252 54.6014 154.025 53.2496 154.653 59.3521C154.966 62.3605 154.425 66.8732 154.653 70.5492L154.655 70.5511ZM161.734 65.4787C162.533 66.7728 164.698 67.2581 166.486 66.4289C166.388 63.8952 166.352 61.3595 166.38 58.824C162.271 57.7381 159.826 62.3903 161.734 65.4787ZM173.671 55.4418C173.247 56.7099 172.628 57.7809 172.085 58.9281C171.596 59.0397 171.17 58.7348 170.923 58.9281C170.815 64.0786 172.02 71.0587 169.973 74.7756C168.74 77.0124 166.47 78.4479 163 78.684C160.842 78.8547 158.674 78.5297 156.661 77.7339V73.2955C158.829 74.5618 164.309 75.5937 165.852 72.9794C166.306 72.2097 166.278 71.4138 166.484 70.2331C165.493 70.2852 164.528 70.7445 163.316 70.7612C158.335 70.8263 155.252 66.8602 156.449 61.3583C156.914 59.2312 158.16 57.5169 159.832 56.4998C163.299 54.3838 168.636 54.5456 173.671 55.4418Z" fill="black"/>
<path fill-rule="evenodd" clip-rule="evenodd" d="M97.9405 55.1053C97.9349 58.6046 97.9349 61.1203 97.9349 65.3727C97.7341 69.5526 97.7806 72.8809 96.2503 74.8797C95.9472 75.2739 95.3076 75.8503 94.7703 76.2538C94.3203 76.5922 93.4631 77.2802 92.976 77.3099C92.4832 77.3397 91.2226 76.6275 90.6517 76.3598C89.9005 76.0065 89.207 75.5379 88.4316 75.3036C90.2408 74.1824 91.957 73.342 92.658 71.0773C93.2679 69.1063 93.1861 66.2522 93.1861 63.4724C93.1861 60.7243 93.1991 57.5299 93.1991 55.1053H97.9405Z" fill="black"/>
<defs>
<filter id="filter0_d_755_738153" x="0.1" y="0.1" width="289" height="137.14" filterUnits="userSpaceOnUse" color-interpolation-filters="sRGB">
<feFlood flood-opacity="0" result="BackgroundImageFix"/>
<feColorMatrix in="SourceAlpha" type="matrix" values="0 0 0 0 0 0 0 0 0 0 0 0 0 0 0 0 0 0 127 0" result="hardAlpha"/>
<feOffset dy="6"/>
<feGaussianBlur stdDeviation="13.45"/>
<feComposite in2="hardAlpha" operator="out"/>
<feColorMatrix type="matrix" values="0 0 0 0 0.546429 0 0 0 0 0.546429 0 0 0 0 0.546429 0 0 0 0.19 0"/>
<feBlend mode="normal" in2="BackgroundImageFix" result="effect1_dropShadow_755_738153"/>
<feBlend mode="normal" in="SourceGraphic" in2="effect1_dropShadow_755_738153" result="shape"/>
</filter>
</defs>
</svg>
