<svg width="290" height="138" viewBox="0 0 290 138" fill="none" xmlns="http://www.w3.org/2000/svg">
<g filter="url(#filter0_d_731_91038)">
<path d="M27 53C27 37.9151 27 30.3726 31.6863 25.6863C36.3726 21 43.9151 21 59 21H230.2C245.285 21 252.827 21 257.514 25.6863C262.2 30.3726 262.2 37.9151 262.2 53V71.3399C262.2 86.4249 262.2 93.9673 257.514 98.6536C252.827 103.34 245.285 103.34 230.2 103.34H59C43.915 103.34 36.3726 103.34 31.6863 98.6536C27 93.9673 27 86.4249 27 71.3399V53Z" fill="white"/>
<path d="M27 21H262.2H27ZM262.2 87.3399C262.2 96.7288 254.589 104.34 245.2 104.34H44C34.6112 104.34 27 96.7288 27 87.3399C27 95.6242 34.1634 102.34 43 102.34H246.2C255.037 102.34 262.2 95.6242 262.2 87.3399ZM27 103.34V21V103.34ZM262.2 21V103.34V21Z" fill="#0274BA"/>
</g>
<path d="M124.483 52.3966L124.914 51.7346L125.668 52.1983L126.001 52.4404C126.806 53.0704 128.5 54.6804 128.865 57.352C129.506 57.2354 130.153 57.177 130.8 57.177C132.335 57.177 133.367 57.5387 133.953 57.8391L134.255 58.0054L134.451 58.1366L135 58.5916L134.81 59.1749C134.515 59.9746 134.054 60.7007 133.459 61.3041C132.625 62.1762 131.159 63.2058 128.833 63.3399L128.321 63.3545H127.896C126.832 66.2041 125.403 69.4153 123.002 72.297C121.578 74.0094 119.888 75.4752 118 76.637C115.736 77.9997 113.256 78.9548 110.671 79.4603C108.82 79.8249 106.94 80.0057 105.056 79.9999C100.888 79.9999 97.2075 79.1599 94.9448 77.6899C92.9236 76.3803 91.3711 74.2424 90.3275 71.3403C89.4141 68.6885 88.9656 65.8949 89.0021 63.0862C88.9973 62.7261 89.1201 62.3762 89.348 62.1C89.5758 61.8239 89.8938 61.6398 90.2441 61.5812L90.4396 61.5666H120.743L121.007 61.5462L121.436 61.4995C122.172 61.4004 123.293 61.1787 124.081 60.712C123.138 59.1283 122.87 57.2762 123.31 55.3045C123.494 54.4821 123.784 53.6878 124.173 52.9421L124.483 52.3966ZM97.3081 56.0366L97.4231 56.057C97.4756 56.077 97.5229 56.1089 97.5613 56.1504C97.5997 56.1919 97.6281 56.2418 97.6445 56.2962L97.6617 56.4129V60.2483L97.6445 60.3679C97.6279 60.4226 97.599 60.4727 97.56 60.5142C97.5211 60.5557 97.4733 60.5875 97.4202 60.607L97.3081 60.6245H93.2485C93.1728 60.6235 93.0995 60.5981 93.039 60.5519C92.9785 60.5058 92.9341 60.4413 92.9121 60.3679L92.892 60.2512V56.41L92.9121 56.2933C92.9284 56.238 92.9571 56.1873 92.996 56.1453C93.0349 56.1033 93.083 56.0711 93.1364 56.0512L93.2485 56.0337L97.3081 56.0366ZM102.906 56.0366L103.018 56.057C103.071 56.0766 103.119 56.1084 103.158 56.1499C103.197 56.1914 103.226 56.2415 103.242 56.2962L103.259 56.4129V60.2483L103.239 60.3679C103.223 60.4226 103.194 60.4727 103.155 60.5142C103.116 60.5557 103.068 60.5875 103.015 60.607L102.903 60.6245H98.8434C98.7678 60.623 98.6946 60.5975 98.6343 60.5514C98.5739 60.5053 98.5293 60.4411 98.507 60.3679L98.4869 60.2541V56.4129C98.4862 56.3348 98.5094 56.2585 98.5531 56.1943C98.5969 56.1301 98.6591 56.0811 98.7312 56.0541L98.8434 56.0337L102.906 56.0366ZM108.587 56.0366L108.699 56.057C108.752 56.077 108.799 56.1089 108.837 56.1504C108.876 56.1919 108.904 56.2418 108.92 56.2962L108.941 56.4129V60.2483L108.92 60.3679C108.904 60.4226 108.875 60.4727 108.836 60.5142C108.797 60.5557 108.749 60.5875 108.696 60.607L108.584 60.6245H104.524C104.449 60.6235 104.375 60.5981 104.315 60.5519C104.254 60.5058 104.21 60.4413 104.188 60.3679L104.171 60.2512V56.41L104.188 56.2933C104.204 56.238 104.233 56.1873 104.272 56.1453C104.311 56.1033 104.359 56.0711 104.412 56.0512L104.524 56.0337L108.587 56.0366ZM114.199 56.0366L114.311 56.057C114.364 56.0766 114.412 56.1084 114.451 56.1499C114.49 56.1914 114.519 56.2415 114.535 56.2962L114.556 56.4129V60.2483C114.556 60.3263 114.533 60.4026 114.489 60.4669C114.446 60.5311 114.383 60.58 114.311 60.607L114.196 60.6245H110.139C110.064 60.6235 109.99 60.5981 109.93 60.5519C109.869 60.5058 109.825 60.4413 109.803 60.3679L109.786 60.2512V56.41L109.803 56.2933C109.819 56.238 109.848 56.1873 109.887 56.1453C109.926 56.1033 109.974 56.0711 110.027 56.0512L110.142 56.0337H114.202L114.199 56.0366ZM119.863 56.0366L119.975 56.057C120.028 56.0766 120.076 56.1084 120.115 56.1499C120.154 56.1914 120.183 56.2415 120.199 56.2962L120.216 56.4129V60.2483C120.217 60.3263 120.194 60.4026 120.15 60.4669C120.106 60.5311 120.044 60.58 119.972 60.607L119.86 60.6245H115.8C115.725 60.6235 115.651 60.5981 115.591 60.5519C115.53 60.5058 115.486 60.4413 115.464 60.3679L115.447 60.2512V56.41L115.464 56.2933C115.48 56.238 115.509 56.1873 115.548 56.1453C115.587 56.1033 115.635 56.0711 115.688 56.0512L115.803 56.0337H119.86L119.863 56.0366ZM102.9 50.5183L103.015 50.5387C103.067 50.5584 103.114 50.5899 103.153 50.6308C103.191 50.6718 103.22 50.7211 103.236 50.775L103.257 50.8946V54.73C103.257 54.808 103.234 54.8843 103.19 54.9485C103.147 55.0127 103.084 55.0617 103.012 55.0887L102.9 55.1091H98.8434C98.7671 55.1073 98.6934 55.0808 98.6329 55.0336C98.5724 54.9864 98.5283 54.9209 98.507 54.8466L98.4869 54.73V50.8946C98.4868 50.817 98.5102 50.7413 98.5539 50.6777C98.5976 50.6141 98.6595 50.5656 98.7312 50.5387L98.8434 50.5183H102.9ZM108.581 50.5183L108.696 50.5387C108.748 50.5584 108.795 50.5899 108.834 50.6308C108.872 50.6718 108.901 50.7211 108.918 50.775L108.938 50.8946V54.73C108.938 54.808 108.915 54.8843 108.871 54.9485C108.828 55.0127 108.765 55.0617 108.693 55.0887L108.581 55.1091H104.524C104.448 55.1073 104.374 55.0808 104.314 55.0336C104.254 54.9864 104.209 54.9209 104.188 54.8466L104.171 54.73V50.8946L104.188 50.7779C104.205 50.7232 104.234 50.6731 104.272 50.6316C104.311 50.5901 104.359 50.5583 104.412 50.5387L104.524 50.5183H108.581ZM114.196 50.5183C114.351 50.5183 114.484 50.6262 114.533 50.775L114.553 50.8946V54.73C114.553 54.808 114.53 54.8843 114.486 54.9485C114.443 55.0127 114.38 55.0617 114.308 55.0887L114.193 55.1091H110.139C110.063 55.1073 109.989 55.0808 109.929 55.0336C109.868 54.9864 109.824 54.9209 109.803 54.8466L109.786 54.73V50.8946L109.803 50.7779C109.82 50.7232 109.849 50.6731 109.887 50.6316C109.926 50.5901 109.974 50.5583 110.027 50.5387L110.142 50.5183H114.202H114.196ZM114.196 45C114.351 45 114.484 45.1079 114.533 45.2567L114.553 45.3733V49.2117C114.553 49.2897 114.53 49.366 114.486 49.4302C114.443 49.4944 114.38 49.5434 114.308 49.5704L114.193 49.5879H110.139C110.064 49.5869 109.99 49.5614 109.93 49.5153C109.869 49.4692 109.825 49.4047 109.803 49.3312L109.786 49.2146V45.3733L109.803 45.2567C109.82 45.2019 109.849 45.1518 109.887 45.1103C109.926 45.0688 109.974 45.0371 110.027 45.0175L110.139 45H114.199H114.196Z" fill="#2396ED"/>
<path d="M176.098 67.3097L176.105 71.9378L176.074 59.0394L176.098 67.3097ZM176.098 67.3097L180.775 62.6029M176.098 67.3097L180.799 71.9532M149.461 67.3696C149.487 66.3604 149.188 65.3696 148.608 64.5421C147.762 63.3594 146.395 62.5515 144.893 62.5344C144.792 62.5344 144.694 62.5344 144.593 62.5412C143.998 62.5772 143.424 62.6611 142.916 62.8716C139.569 64.258 138.977 68.8861 141.799 70.9793C144.244 72.7936 147.8 72.0525 149.032 69.2848C149.299 68.6803 149.444 68.0297 149.461 67.3696ZM149.461 67.3696V59M172.035 63.0855C171.341 62.6405 170.534 62.4779 169.733 62.4796C169.647 62.4796 169.558 62.4848 169.481 62.4882C167.168 62.5875 165.026 64.2135 165.026 67.3696C165.026 71.1008 169.041 73.1154 172.042 71.3559M185.52 70.9502L192.622 64.8861C192.622 64.8861 192.45 64.5609 192.336 64.412C191.381 63.1335 189.921 62.495 188.382 62.495C184.582 62.495 181.731 67.3919 185.52 70.9502ZM185.52 70.9502C185.782 71.195 186.143 71.3884 186.543 71.5544C187.935 72.1329 189.837 72.085 190.868 71.325L185.52 70.9485V70.9502ZM201 62.6029C199.832 62.6063 198.696 63.0136 197.853 63.7975C196.525 64.8912 196.238 66.2708 196.253 68.0132L196.291 71.9772M157.233 62.5122C157.125 62.5122 157.019 62.5241 156.91 62.5258C154.028 62.5772 151.949 65.5622 152.579 68.3281C153.193 71.0238 156.149 72.6207 158.702 71.7393C161.678 70.9622 162.891 67.231 161.257 64.7098C160.364 63.332 158.85 62.4813 157.233 62.5122Z" stroke="#394D54" stroke-width="0.9375" stroke-linecap="round" stroke-linejoin="round"/>
<defs>
<filter id="filter0_d_731_91038" x="0.1" y="0.1" width="289" height="137.14" filterUnits="userSpaceOnUse" color-interpolation-filters="sRGB">
<feFlood flood-opacity="0" result="BackgroundImageFix"/>
<feColorMatrix in="SourceAlpha" type="matrix" values="0 0 0 0 0 0 0 0 0 0 0 0 0 0 0 0 0 0 127 0" result="hardAlpha"/>
<feOffset dy="6"/>
<feGaussianBlur stdDeviation="13.45"/>
<feComposite in2="hardAlpha" operator="out"/>
<feColorMatrix type="matrix" values="0 0 0 0 0.546429 0 0 0 0 0.546429 0 0 0 0 0.546429 0 0 0 0.19 0"/>
<feBlend mode="normal" in2="BackgroundImageFix" result="effect1_dropShadow_731_91038"/>
<feBlend mode="normal" in="SourceGraphic" in2="effect1_dropShadow_731_91038" result="shape"/>
</filter>
</defs>
</svg>
