<svg width="290" height="138" viewBox="0 0 290 138" fill="none" xmlns="http://www.w3.org/2000/svg">
<g filter="url(#filter0_d_803_803139)">
<path d="M27 53C27 37.9151 27 30.3726 31.6863 25.6863C36.3726 21 43.9151 21 59 21H230.2C245.285 21 252.827 21 257.514 25.6863C262.2 30.3726 262.2 37.9151 262.2 53V71.3399C262.2 86.4248 262.2 93.9673 257.514 98.6536C252.827 103.34 245.285 103.34 230.2 103.34H59C43.915 103.34 36.3726 103.34 31.6863 98.6536C27 93.9673 27 86.4248 27 71.3399V53Z" fill="white"/>
<path d="M27 21H262.2H27ZM262.2 87.3399C262.2 96.7287 254.589 104.34 245.2 104.34H44C34.6112 104.34 27 96.7287 27 87.3399C27 95.6241 34.1634 102.34 43 102.34H246.2C255.037 102.34 262.2 95.6241 262.2 87.3399ZM27 103.34V21V103.34ZM262.2 21V103.34V21Z" fill="#0274BA"/>
</g>
<path d="M168.845 46.5769C161.711 46.5769 155.924 52.357 155.924 59.4832C155.924 66.6094 161.711 72.3896 168.845 72.3896C175.98 72.3896 181.767 66.6094 181.767 59.4832C181.767 52.357 175.98 46.5769 168.845 46.5769ZM168.845 49.8295C174.182 49.8295 178.511 54.1536 178.511 59.483C178.511 64.8128 174.182 69.1366 168.845 69.1366C163.509 69.1366 159.18 64.8125 159.18 59.483C159.18 54.1532 163.509 49.8295 168.845 49.8295Z" fill="#F02542"/>
<path d="M135.647 46.5769C128.512 46.5769 122.726 52.357 122.726 59.4832C122.726 66.6094 128.512 72.3896 135.647 72.3896C142.782 72.3896 148.569 66.6094 148.569 59.4832C148.569 52.357 142.782 46.5769 135.647 46.5769ZM135.647 49.8295C140.983 49.8295 145.312 54.1536 145.312 59.483C145.312 64.8128 140.983 69.1366 135.647 69.1366C130.311 69.1366 125.982 64.8125 125.982 59.483C125.982 54.1532 130.311 49.8295 135.647 49.8295Z" fill="#F02542"/>
<path d="M116.859 40V50.1733C114.537 47.9499 111.391 46.5778 107.922 46.5778C100.787 46.5778 95 52.358 95 59.4842C95 66.6103 100.787 72.3905 107.922 72.3905C111.391 72.3905 114.537 71.0184 116.859 68.7951V71.5904H121.051V40.0003L116.859 40ZM107.922 49.8302C111.955 49.8302 115.411 52.2978 116.859 55.8054V63.1626C115.41 66.67 111.955 69.1377 107.922 69.1377C102.586 69.1377 98.2564 64.8136 98.2564 59.4842C98.2564 54.1544 102.586 49.8302 107.922 49.8302Z" fill="#F02542"/>
<path d="M130.187 41.66H140.963C141.4 41.9948 141.4 42.6573 140.963 42.9961H130.187C129.751 42.6578 129.752 41.9934 130.187 41.66Z" fill="#F02542"/>
<path d="M163.478 41.66H174.254C174.691 41.9948 174.691 42.6573 174.254 42.9961H163.478C163.042 42.6578 163.043 41.9934 163.478 41.66Z" fill="#F02542"/>
<path d="M150.078 40.66H153.387L153.386 45.6375H150.078L150.078 40.66Z" fill="#F02542"/>
<path d="M150.078 47.3203H153.387V71.4839C153.387 74.0406 149.843 78.3494 148.695 79.6377L146.51 76.8528C147.47 76.0977 150.079 73.685 150.079 70.8466L150.078 47.3203Z" fill="#F02542"/>
<path d="M180.019 77.0163H181.351V84.6659H180.019V77.0163Z" fill="#F02542"/>
<path d="M188.769 79.6031H190.16V84.6662H188.769V79.6031Z" fill="#F02542"/>
<path d="M190.256 77.9997C190.256 78.4243 189.911 78.7687 189.486 78.7687C189.061 78.7687 188.716 78.4244 188.716 77.9997C188.716 77.575 189.061 77.2307 189.486 77.2307C189.911 77.2307 190.256 77.575 190.256 77.9997Z" fill="#F02542"/>
<path d="M183.349 77.0063V84.6545H184.68V82.7217L185.013 82.3788L186.626 84.6649H188.041L185.835 81.5474L187.708 79.6354H186.335L184.68 81.5059V77.0064L183.349 77.0063Z" fill="#F02542"/>
<path d="M162.698 78.2497V79.5278H161.73V80.2553H162.698V83.8507C162.698 84.1621 162.752 84.6662 164.349 84.6662H165.039V83.8739L164.634 83.8762C164.018 83.8799 163.707 83.4452 163.707 83.2322V80.2551H165.029V79.5276H163.707V78.2495L162.698 78.2497Z" fill="#F02542"/>
<path d="M192.659 78.2497V79.5278H191.691V80.2553H192.659V83.8507C192.659 84.1621 192.713 84.6662 194.31 84.6662H195V83.8739L194.595 83.8762C193.979 83.8799 193.668 83.4452 193.668 83.2322V80.2551H194.989V79.5276H193.668V78.2495L192.659 78.2497Z" fill="#F02542"/>
<path d="M169.042 79.0031C167.561 79.0031 166.357 80.2771 166.357 81.84C166.357 83.4028 167.561 84.6665 169.042 84.6665C170.522 84.6665 171.726 83.4028 171.726 81.84C171.726 80.2771 170.522 79.0031 169.042 79.0031ZM169.042 79.9799C169.8 79.9799 170.415 80.8126 170.415 81.84C170.415 82.8673 169.8 83.7 169.042 83.7C168.283 83.7 167.668 82.8673 167.668 81.84C167.668 80.8126 168.283 79.9799 169.042 79.9799Z" fill="#F02542"/>
<path d="M175.702 79.0031C174.221 79.0031 173.018 80.2771 173.018 81.84C173.018 83.4028 174.221 84.6665 175.702 84.6665C177.182 84.6665 178.386 83.4028 178.386 81.84C178.386 80.2771 177.182 79.0031 175.702 79.0031ZM175.702 79.9799C176.46 79.9799 177.075 80.8126 177.075 81.84C177.075 82.8673 176.46 83.7 175.702 83.7C174.943 83.7 174.328 82.8673 174.328 81.84C174.328 80.8126 174.943 79.9799 175.702 79.9799Z" fill="#F02542"/>
<defs>
<filter id="filter0_d_803_803139" x="0.1" y="0.1" width="289" height="137.14" filterUnits="userSpaceOnUse" color-interpolation-filters="sRGB">
<feFlood flood-opacity="0" result="BackgroundImageFix"/>
<feColorMatrix in="SourceAlpha" type="matrix" values="0 0 0 0 0 0 0 0 0 0 0 0 0 0 0 0 0 0 127 0" result="hardAlpha"/>
<feOffset dy="6"/>
<feGaussianBlur stdDeviation="13.45"/>
<feComposite in2="hardAlpha" operator="out"/>
<feColorMatrix type="matrix" values="0 0 0 0 0.546429 0 0 0 0 0.546429 0 0 0 0 0.546429 0 0 0 0.19 0"/>
<feBlend mode="normal" in2="BackgroundImageFix" result="effect1_dropShadow_803_803139"/>
<feBlend mode="normal" in="SourceGraphic" in2="effect1_dropShadow_803_803139" result="shape"/>
</filter>
</defs>
</svg>
