<svg width="65" height="52" viewBox="0 0 65 52" fill="none" xmlns="http://www.w3.org/2000/svg">
<path d="M63.9167 35.75C64.204 35.75 64.4795 35.6359 64.6827 35.4327C64.8859 35.2295 65 34.954 65 34.6667V16.25C65 15.9627 64.8859 15.6871 64.6827 15.484C64.4795 15.2808 64.204 15.1667 63.9167 15.1667H53.0833C52.8559 15.1666 52.6342 15.2382 52.4496 15.3712C52.2651 15.5042 52.1271 15.6919 52.0553 15.9077L50.1356 21.6667H45.5V18.4167C45.4999 18.1525 45.4033 17.8975 45.2283 17.6996C45.0533 17.5017 44.8121 17.3745 44.5499 17.342L40.183 16.8003C39.8076 15.6835 39.3213 14.6071 38.7313 13.5872L41.223 10.3957C41.3856 10.1873 41.4664 9.92676 41.4502 9.66299C41.4341 9.39922 41.322 9.15046 41.1353 8.96352L35.7728 3.60102C35.586 3.41407 35.3373 3.30186 35.0735 3.28549C34.8097 3.26913 34.5491 3.34976 34.3406 3.51219L30.8739 6.22052C29.8203 5.70126 28.7193 5.28443 27.586 4.97577L27.0823 0.954436C27.0506 0.690191 26.9228 0.446848 26.7232 0.270819C26.5236 0.094791 26.2661 -0.00160416 26 2.01995e-05H18.4167C18.1525 0.00012763 17.8975 0.0967537 17.6996 0.271722C17.5017 0.446691 17.3745 0.687944 17.342 0.950103L16.8003 5.31702C15.6835 5.6924 14.6071 6.17872 13.5872 6.76868L10.3957 4.27702C10.1873 4.11445 9.92676 4.03364 9.66299 4.0498C9.39922 4.06596 9.15046 4.17798 8.96352 4.36477L3.60102 9.72727C3.41407 9.91407 3.30185 10.1628 3.28549 10.4265C3.26913 10.6903 3.34976 10.951 3.51219 11.1594L6.22052 14.6261C5.70126 15.6797 5.28443 16.7807 4.97577 17.914L0.954437 18.4178C0.690191 18.4494 0.446847 18.5773 0.270819 18.7769C0.0947907 18.9765 -0.00160416 19.2339 2.01995e-05 19.5V27.0833C0.00012763 27.3475 0.0967531 27.6025 0.271722 27.8004C0.44669 27.9984 0.687944 28.1255 0.950103 28.158L5.31702 28.6997C5.6924 29.8165 6.17872 30.8929 6.76868 31.9128L4.27702 35.1043C4.11445 35.3127 4.03364 35.5733 4.0498 35.837C4.06596 36.1008 4.17798 36.3496 4.36477 36.5365L9.72727 41.899C9.91407 42.086 10.1628 42.1982 10.4265 42.2145C10.6903 42.2309 10.951 42.1503 11.1594 41.9878L14.6261 39.2849C15.6797 39.8042 16.7807 40.221 17.914 40.5297L18.4178 44.551C18.4507 44.8143 18.579 45.0563 18.7785 45.2312C18.978 45.4062 19.2347 45.5018 19.5 45.5H21.6667V50.9167C21.6667 51.204 21.7808 51.4795 21.984 51.6827C22.1871 51.8859 22.4627 52 22.75 52H63.9167C64.204 52 64.4795 51.8859 64.6827 51.6827C64.8859 51.4795 65 51.204 65 50.9167V39C65 38.7127 64.8859 38.4371 64.6827 38.234C64.4795 38.0308 64.204 37.9167 63.9167 37.9167C63.6294 37.9167 63.3538 38.0308 63.1506 38.234C62.9475 38.4371 62.8333 38.7127 62.8333 39V49.8333H23.8333V23.8333H50.9167C51.1441 23.8334 51.3658 23.7619 51.5504 23.6289C51.7349 23.4959 51.8729 23.3082 51.9448 23.0923L53.8644 17.3333H62.8333V34.6667C62.8333 34.954 62.9475 35.2295 63.1506 35.4327C63.3538 35.6359 63.6294 35.75 63.9167 35.75ZM20.4566 43.3333L19.9788 39.5265C19.9515 39.3062 19.8571 39.0997 19.7085 38.9348C19.5599 38.7699 19.3642 38.6546 19.1479 38.6046C17.7128 38.2772 16.3294 37.7542 15.0367 37.05C14.8506 36.9472 14.6384 36.9015 14.4265 36.9184C14.2146 36.9354 14.0124 37.0143 13.845 37.1453L10.5809 39.6879L6.5726 35.6796L8.93102 32.6538C9.06859 32.4774 9.14818 32.2628 9.15885 32.0393C9.16952 31.8158 9.11074 31.5946 8.9906 31.4058C8.20197 30.1655 7.59322 28.8196 7.18252 27.4083C7.12338 27.2051 7.00598 27.0236 6.84483 26.8863C6.68368 26.7491 6.48585 26.662 6.27577 26.6359L2.16669 26.1268V20.4566L5.97352 19.9788C6.19381 19.9515 6.40037 19.8571 6.56526 19.7085C6.73015 19.5599 6.84541 19.3642 6.89543 19.1479C7.22278 17.7128 7.74587 16.3294 8.45002 15.0367C8.55164 14.8512 8.59677 14.6401 8.57983 14.4293C8.56289 14.2185 8.48462 14.0173 8.35468 13.8504L5.80885 10.5864L9.81718 6.57802L12.8429 8.93644C13.0193 9.07401 13.234 9.1536 13.4575 9.16426C13.6809 9.17493 13.9022 9.11616 14.0909 8.99602C15.332 8.20522 16.679 7.59463 18.0917 7.18252C18.2949 7.12338 18.4764 7.00598 18.6137 6.84483C18.751 6.68368 18.838 6.48585 18.8641 6.27577L19.3733 2.16669H25.0434L25.5212 5.97352C25.5485 6.19381 25.6429 6.40037 25.7915 6.56526C25.9401 6.73015 26.1358 6.84541 26.3521 6.89543C27.789 7.22128 29.1742 7.74329 30.4688 8.44677C30.6542 8.54839 30.8654 8.59352 31.0761 8.57658C31.2869 8.55964 31.4882 8.48137 31.655 8.35143L34.9191 5.80885L38.9274 9.81718L36.569 12.8429C36.4314 13.0193 36.3518 13.234 36.3412 13.4575C36.3305 13.6809 36.3893 13.9022 36.5094 14.0909C37.2983 15.3323 37.9071 16.6793 38.3175 18.0917C38.3767 18.2949 38.494 18.4764 38.6552 18.6137C38.8163 18.751 39.0142 18.838 39.2243 18.8641L43.3333 19.3733V21.6667H34.6114C34.4067 19.4108 33.5634 17.26 32.1801 15.4663C30.7968 13.6726 28.931 12.3103 26.8012 11.539C24.6714 10.7677 22.366 10.6194 20.1549 11.1114C17.9439 11.6035 15.9189 12.7155 14.3172 14.3172C12.7155 15.9189 11.6035 17.9439 11.1114 20.1549C10.6194 22.366 10.7677 24.6714 11.539 26.8012C12.3103 28.931 13.6726 30.7968 15.4663 32.1801C17.26 33.5634 19.4108 34.4067 21.6667 34.6114V43.3333H20.4566ZM22.75 21.6667C22.4627 21.6667 22.1871 21.7808 21.984 21.984C21.7808 22.1871 21.6667 22.4627 21.6667 22.75V32.4361C19.8416 32.2328 18.1111 31.5182 16.6743 30.3747C15.2375 29.2311 14.1528 27.705 13.5452 25.9721C12.9376 24.2392 12.8317 22.3699 13.2398 20.5795C13.6478 18.789 14.5532 17.1502 15.8517 15.8517C17.1502 14.5532 18.789 13.6478 20.5795 13.2398C22.3699 12.8317 24.2392 12.9376 25.9721 13.5452C27.705 14.1528 29.2311 15.2375 30.3747 16.6743C31.5182 18.1111 32.2328 19.8416 32.4361 21.6667H22.75Z" fill="#2776EA"/>
<path d="M49.8346 26C49.5473 26 49.2718 26.1142 49.0686 26.3173C48.8654 26.5205 48.7513 26.796 48.7513 27.0833V30.3333H45.5013C45.214 30.3333 44.9384 30.4475 44.7353 30.6506C44.5321 30.8538 44.418 31.1294 44.418 31.4167V32.5H41.168C40.8806 32.5 40.6051 32.6141 40.4019 32.8173C40.1988 33.0205 40.0846 33.296 40.0846 33.5833V34.6667H36.8346C36.5473 34.6667 36.2718 34.7808 36.0686 34.984C35.8654 35.1871 35.7513 35.4627 35.7513 35.75V39H32.5013C32.214 39 31.9384 39.1141 31.7353 39.3173C31.5321 39.5205 31.418 39.796 31.418 40.0833V46.5833C31.418 46.8707 31.5321 47.1462 31.7353 47.3494C31.9384 47.5525 32.214 47.6667 32.5013 47.6667H54.168C54.4553 47.6667 54.7308 47.5525 54.934 47.3494C55.1372 47.1462 55.2513 46.8707 55.2513 46.5833V27.0833C55.2513 26.796 55.1372 26.5205 54.934 26.3173C54.7308 26.1142 54.4553 26 54.168 26H49.8346ZM33.5846 41.1667H35.7513V45.5H33.5846V41.1667ZM37.918 36.8333H40.0846V45.5H37.918V36.8333ZM42.2513 34.6667H44.418V45.5H42.2513V34.6667ZM46.5846 32.5H48.7513V45.5H46.5846V32.5ZM53.0846 45.5H50.918V28.1667H53.0846V45.5Z" fill="#2776EA"/>
</svg>
