<svg width="65" height="63" viewBox="0 0 65 63" fill="none" xmlns="http://www.w3.org/2000/svg">
<path d="M22.319 0.75L23.9176 4.88052V5.31057L24.4653 5.464C25.6533 5.79677 26.7801 6.26904 27.8356 6.86208L28.1629 7.04595L28.5063 6.89417L32.6886 5.04523L35.5472 7.90386L33.6981 12.0889L33.5461 12.4329L33.7308 12.7604C34.3232 13.8109 34.7955 14.9401 35.1284 16.1261L35.2299 16.4875L35.58 16.6229L39.845 18.2721V22.3148L35.58 23.9641L35.2297 24.0995L35.1283 24.4613C34.7956 25.6492 34.3233 26.776 33.7303 27.8316L33.5464 28.1589L33.6982 28.5022L35.5471 32.6845L32.6884 35.5432L28.5059 33.6967L28.1637 33.5456L27.8371 33.7281C26.782 34.3177 25.6548 34.7901 24.4655 35.1229L24.1037 35.2241L23.9681 35.5746L22.3188 39.8396H18.2762L16.6269 35.5746L16.4916 35.2246L16.1303 35.1231C14.9455 34.7901 13.8138 34.3174 12.7576 33.7279L12.4311 33.5457L12.0891 33.6967L7.90667 35.5432L5.04794 32.6845L6.89687 28.5022L7.04875 28.1586L6.8646 27.8312C6.27174 26.7773 5.79953 25.6507 5.46676 24.4615L5.3655 24.0996L5.01501 23.9641L0.75 22.3148V18.2721L5.01501 16.6229L5.365 16.4875L5.46653 16.1263C5.79951 14.9415 6.272 13.8105 6.86479 12.7553L7.04865 12.4281L6.89687 12.0847L5.04794 7.90242L7.90648 5.04388L12.0888 6.89281L12.4323 7.04469L12.7597 6.86053C13.8132 6.26794 14.9441 5.7955 16.1301 5.46253L16.4914 5.3611L16.6268 5.01115L18.276 0.75H22.319ZM60.9542 7.33353H60.2042V8.08353V27.6263H53.6206V8.08353V7.33353H52.8706H50.6395L56.9125 1.06053L63.1887 7.33353H60.9542ZM48.7197 38.5582L48.8555 38.9096L49.2185 39.0104C49.9874 39.224 50.7223 39.5309 51.4075 39.9164L51.7347 40.1004L52.0781 39.9488L54.7129 38.786L56.3772 40.4503L55.2111 43.0848L55.0585 43.4295L55.2441 43.7576C55.6287 44.4376 55.9359 45.1726 56.1539 45.9475L56.2554 46.3085L56.6052 46.4439L59.2888 47.4824V49.8355L56.6052 50.874L56.256 51.0092L56.1541 51.3695C55.9361 52.1407 55.6286 52.8766 55.2432 53.5618L55.0588 53.8896L55.2112 54.2334L56.3772 56.8641L54.7129 58.5313L52.0788 57.3653L51.7351 57.2132L51.4075 57.3975C50.7223 57.7829 49.9865 58.0904 49.2152 58.3084L48.8549 58.4102L48.7198 58.7594L47.6812 61.4431H45.3281L44.2896 58.7594L44.1545 58.4102L43.7942 58.3084C43.0229 58.0904 42.2871 57.7829 41.6018 57.3975L41.2743 57.2132L40.9306 57.3653L38.2965 58.5313L36.6321 56.8641L37.7982 54.2334L37.9505 53.8896L37.7662 53.5618C37.3807 52.8766 37.0733 52.1407 36.8552 51.3695L36.7534 51.0092L36.4042 50.874L33.7205 49.8355V47.4824L36.4042 46.4439L36.754 46.3085L36.8555 45.9475C37.0735 45.1726 37.3807 44.4376 37.7653 43.7576L37.9509 43.4295L37.7983 43.0848L36.6321 40.4503L38.2965 38.786L40.9313 39.9488L41.2747 40.1004L41.6018 39.9164C42.2871 39.5309 43.0219 39.224 43.7909 39.0104L44.1539 38.9096L44.2897 38.5582L45.3284 35.8707H47.681L48.7197 38.5582ZM21.0496 58.1527V57.4027H20.2996H0.752708V50.8151H20.2996H21.0496V50.0651V47.834L27.3226 54.107L21.0496 60.3832V58.1527ZM31.8736 20.2941C31.8736 13.8995 26.6934 8.71599 20.2996 8.71599C13.9046 8.71599 8.72141 13.8992 8.72141 20.2941C8.72141 26.6891 13.9046 31.8723 20.2996 31.8723C26.6949 31.8723 31.8736 26.6887 31.8736 20.2941ZM53.4866 48.6596C53.4866 44.8062 50.3602 41.6797 46.5067 41.6797C42.651 41.6797 39.5241 44.8031 39.5241 48.6596C39.5241 52.516 42.6535 55.6422 46.5067 55.6422C50.3606 55.6422 53.4866 52.5126 53.4866 48.6596Z" stroke="#2776EA" stroke-width="1.5"/>
</svg>
