<svg width="67" height="67" viewBox="0 0 67 67" fill="none" xmlns="http://www.w3.org/2000/svg">
<path d="M22.3197 13.0239C22.3197 15.5196 20.4008 17.5384 18.027 17.5384C15.6533 17.5384 13.7344 15.5196 13.7344 13.0239C13.7344 10.5282 15.6533 8.50939 18.027 8.50939C20.4008 8.50939 22.3197 10.5282 22.3197 13.0239Z" stroke="#2776EA" stroke-width="2" stroke-miterlimit="10" stroke-linecap="round" stroke-linejoin="round"/>
<path d="M10.6406 25.1365V23.3174C10.6406 20.134 13.2251 17.5495 16.4085 17.5495H19.6585C22.842 17.5495 25.4265 20.134 25.4265 23.3174V25.1365" stroke="#2776EA" stroke-width="2" stroke-miterlimit="10" stroke-linecap="round" stroke-linejoin="round"/>
<path d="M18.0264 35.0529C27.4299 35.0529 35.0529 27.4299 35.0529 18.0264C35.0529 8.623 27.4299 1 18.0264 1C8.623 1 1 8.623 1 18.0264C1 27.4299 8.623 35.0529 18.0264 35.0529Z" stroke="#2776EA" stroke-width="2" stroke-miterlimit="10" stroke-linecap="round" stroke-linejoin="round"/>
<path d="M48.9718 66C58.3752 66 65.9982 58.377 65.9982 48.9736C65.9982 39.5701 58.3752 31.9471 48.9718 31.9471C39.5683 31.9471 31.9453 39.5701 31.9453 48.9736C31.9453 58.377 39.5683 66 48.9718 66Z" stroke="#2776EA" stroke-width="2" stroke-miterlimit="10" stroke-linecap="round" stroke-linejoin="round"/>
<path d="M54.7386 56.3609H57.678C58.399 56.3609 58.9869 55.773 58.9869 55.052V44.8029C58.9869 44.0819 58.399 43.494 57.678 43.494H54.7386C54.0176 43.494 53.4297 44.0819 53.4297 44.8029V55.052C53.4297 55.773 54.0176 56.3609 54.7386 56.3609Z" stroke="#2776EA" stroke-width="2" stroke-miterlimit="10" stroke-linecap="round" stroke-linejoin="round"/>
<path d="M53.442 44.6365H49.837L46.0103 39.7449C45.7995 39.4787 45.4224 39.401 45.134 39.5785C44.2133 40.1442 42.6826 41.6638 45.4224 44.7474H40.6971C39.5435 44.7474 38.7005 45.8566 39.0222 46.9659L40.5973 52.5119C41.0632 54.1647 42.5717 55.3072 44.291 55.3072H53.4642" stroke="#2776EA" stroke-width="2" stroke-miterlimit="10" stroke-linecap="round" stroke-linejoin="round"/>
<path d="M6.21094 43.2722C6.21094 43.2722 6.77664 58.0247 25.234 58.0247" stroke="#2776EA" stroke-width="2" stroke-miterlimit="10" stroke-linecap="round" stroke-linejoin="round"/>
<path d="M19.8488 52.4565L25.2285 58.0358L19.0391 63.8814" stroke="#2776EA" stroke-width="2" stroke-miterlimit="10" stroke-linecap="round" stroke-linejoin="round"/>
<path d="M61.0504 22.4411C61.0504 22.4411 60.4847 7.68857 42.0273 7.68857" stroke="#2776EA" stroke-width="2" stroke-miterlimit="10" stroke-linecap="round" stroke-linejoin="round"/>
<path d="M47.407 13.2457L42.0273 7.67747L47.5512 2.46416" stroke="#2776EA" stroke-width="2" stroke-miterlimit="10" stroke-linecap="round" stroke-linejoin="round"/>
</svg>
