<svg width="70" height="70" viewBox="0 0 70 70" fill="none" xmlns="http://www.w3.org/2000/svg">
<path d="M60.9871 52.6898C62.2905 52.6898 63.4766 52.7309 64.6583 52.6761C65.5663 52.633 65.6793 52.0144 65.6749 51.3312C65.6619 48.1991 65.6706 45.069 65.6727 41.9369C65.6727 41.6766 65.5685 41.3399 65.7097 41.1696C66.016 40.7976 66.4526 40.2554 66.8284 40.2593C67.2042 40.2632 67.7516 40.7937 67.9015 41.1911C68.0905 41.6883 67.9493 42.2873 67.9493 42.8413C67.9493 45.6465 67.9515 48.4517 67.9493 51.2568C67.9472 53.6294 66.7524 54.6923 64.0891 54.6982C63.1159 54.7002 62.1449 54.6982 60.9849 54.6982C60.9849 55.9628 60.9089 57.1569 61.0001 58.3412C61.2543 61.6847 59.914 63.1509 55.7953 63.1079C45.0815 62.9904 34.3655 63.0687 23.6517 63.0668C20.7691 63.0668 19.4744 61.9138 19.4505 59.3161C19.4374 57.8225 19.4483 56.3289 19.4483 54.7002C18.221 54.7002 17.1131 54.708 16.0074 54.6982C13.7829 54.6786 12.5143 53.555 12.4796 51.5466C12.4535 50.0784 12.4969 48.6102 12.4448 47.144C12.4339 46.8719 12.1581 46.5665 11.9234 46.3473C10.9546 45.4429 9.89235 44.6031 10.0118 43.1584C10.0314 42.9216 9.86628 42.6221 9.68381 42.4322C9.26021 41.9898 8.74754 41.6179 8.31525 41.1794C7.77652 40.6332 7.27472 40.2848 6.35584 40.091C5.08287 39.8228 3.85117 39.1435 3.36457 37.7047C2.84322 36.1641 2.77588 34.7938 3.86855 33.4705C4.01844 33.2904 4.14226 32.9753 4.32039 32.9498C5.62594 32.7521 5.53253 31.7557 5.79973 30.959C5.92355 30.5851 6.04737 30.2092 6.21681 29.851C6.43404 29.391 6.32977 29.0386 6.16902 28.5394C5.89313 27.682 5.73456 26.5153 6.17771 25.8126C6.83374 24.7751 7.92207 23.8022 9.08859 23.2345C9.96186 22.8097 11.2435 23.0681 12.4687 23.0172C12.4687 22.794 12.4687 22.4436 12.4687 22.0932C12.4709 18.2114 12.4644 14.3296 12.4752 10.4477C12.4817 8.1574 13.6417 7.01811 16.1486 7.01419C32.2215 6.99462 48.2943 6.99657 64.365 7.01223C66.7046 7.01419 67.945 8.20634 67.9472 10.3342C67.9515 18.0646 67.9493 25.7969 67.9493 33.5273C67.9493 33.6898 67.958 33.8542 67.9428 34.0167C67.8907 34.6568 67.5431 35.0835 66.798 35.0777C66.0486 35.0718 65.7205 34.6274 65.6727 33.9951C65.6532 33.7348 65.6641 33.4725 65.6641 33.2121C65.6641 28.2536 65.6641 23.2952 65.6641 18.3367C65.6641 17.955 65.6641 17.5732 65.6641 17.1445C48.6375 17.1445 31.7522 17.1445 14.8018 17.1445C14.8018 19.1686 14.8018 21.1379 14.8018 23.1679C15.7467 22.9545 16.5352 23.0387 17.3064 22.1637C18.1102 21.2515 19.5113 20.6838 21.1775 20.995C23.4323 21.4159 24.7118 22.5591 25.357 24.5499C25.7719 24.5499 26.1977 24.5499 26.6234 24.5499C36.6138 24.5499 46.6064 24.548 56.5969 24.5499C59.7358 24.5499 60.9827 25.6912 60.9827 28.5414C60.9827 36.1739 60.9827 43.8084 60.9827 51.4409C60.9871 51.8187 60.9871 52.2023 60.9871 52.6898ZM26.8081 26.6054C27.4207 27.2886 27.6379 28.0383 28.6763 27.7212C28.8587 27.6664 29.1368 27.8621 29.3692 27.9483C31.522 28.7332 32.0346 30.4481 32.317 32.2607C32.4409 33.0555 31.0832 34.925 30.2468 35.2617C29.6799 35.4888 28.6263 38.7402 28.9565 39.2375C29.4539 39.9813 29.2606 42.2345 28.6154 42.8492C28.0441 43.3934 27.4511 43.9219 26.8341 44.425C26.1868 44.9516 23.6126 45.0768 22.8979 44.6736C22.6177 44.515 22.2897 44.4269 21.9812 44.3056C21.8878 44.6286 21.7118 44.9516 21.7097 45.2765C21.6901 49.9414 21.6945 54.6062 21.6966 59.2711C21.6966 60.6825 22.0594 61.0231 23.5931 61.025C34.6349 61.0289 45.6767 61.027 56.7185 61.025C58.3912 61.025 58.6888 60.749 58.6888 59.2632C58.6888 48.9861 58.6888 38.7109 58.6888 28.4337C58.6888 26.8442 58.4325 26.6113 56.6946 26.6113C47.2104 26.6093 37.7239 26.6093 28.2396 26.6093C27.8464 26.6054 27.4511 26.6054 26.8081 26.6054ZM65.6706 15.003C65.6706 13.5094 65.6727 12.0803 65.6706 10.6494C65.6684 9.17729 65.5098 9.0383 63.8545 9.0383C48.1423 9.0383 32.4322 9.0383 16.7199 9.0383C16.3941 9.0383 16.0161 8.95021 15.7554 9.06962C15.3796 9.24189 14.8213 9.5551 14.8061 9.8272C14.7192 11.5381 14.7626 13.2549 14.7626 15.001C31.7848 15.003 48.6745 15.003 65.6706 15.003ZM24.8009 43.0821C25.5003 42.5359 26.3171 42.0994 26.8016 41.4612C27.2056 40.9268 26.9471 40.273 26.3801 39.7073C26.126 39.4548 26.2107 38.8088 26.3345 38.3859C26.6929 37.1683 27.2338 35.9918 27.5358 34.7645C27.7074 34.0637 27.9811 33.6682 28.761 33.4842C29.6951 33.263 30.0796 32.5544 29.8471 31.6931C29.4561 30.2464 28.9391 29.7844 27.8138 29.9822C27.0166 30.1211 26.5778 29.8256 26.0956 29.2794C25.2723 28.3437 24.3599 27.4569 23.3802 26.6543C22.7741 26.1551 22.4808 25.7284 22.7307 24.9747C23.0196 24.1017 22.4765 23.4929 21.2926 23.1836C20.0153 22.8488 19.1941 23.0798 18.9009 23.947C18.6598 24.6576 18.1884 24.8632 17.4085 24.963C16.0986 25.1333 14.7779 25.376 13.531 25.7656C12.7077 26.022 12.1276 26.0553 11.489 25.4739C10.8199 24.8632 9.96403 24.9395 9.2211 25.5777C8.05892 26.576 7.85907 27.2122 8.60851 27.96C9.19938 28.5473 9.1038 29.0445 8.79968 29.7257C8.30439 30.8317 7.90252 31.9906 7.65053 33.1593C7.4963 33.8757 7.20086 34.2633 6.4449 34.4571C5.48257 34.7057 5.09373 35.4085 5.35223 36.3188C5.75411 37.7497 6.28415 38.1843 7.46588 37.9435C8.1936 37.7948 8.5781 38.0786 9.01691 38.5425C9.94665 39.5272 10.9198 40.4844 11.956 41.3771C12.4644 41.8156 12.6772 42.2149 12.51 42.8276C12.258 43.7555 12.6881 44.4093 13.6678 44.6795C15.1949 45.1023 15.9422 44.9026 16.3289 43.8984C16.5787 43.2485 17.0414 43.041 17.7713 42.9392C19.1138 42.7493 20.4584 42.4948 21.7553 42.1268C22.546 41.9037 23.1282 41.9017 23.7017 42.4694C23.9102 42.6847 24.26 42.7904 24.8009 43.0821ZM19.3766 44.7088C18.864 44.9809 18.5273 45.114 18.2535 45.3176C17.8017 45.6524 17.4411 46.1065 16.9502 46.3708C16.2811 46.729 15.5251 46.9561 14.7409 47.2654C14.7409 48.7355 14.6801 50.233 14.7865 51.7227C14.8104 52.0634 15.3861 52.6076 15.7619 52.6447C16.9284 52.7661 18.121 52.6898 19.3766 52.6898C19.3766 50.0667 19.3766 47.5394 19.3766 44.7088Z" fill="#2776EA"/>
<path d="M44.8863 41.3479C44.2563 45.447 43.6763 49.2173 43.0963 52.9856C42.853 54.5634 42.5815 56.1392 42.373 57.7209C42.273 58.4765 41.9537 59.0266 41.0457 58.9189C40.1963 58.8171 40.029 58.2377 40.1398 57.5232C40.9675 52.1771 41.7756 46.8271 42.588 41.4791C42.6923 40.792 43.1441 40.3124 43.8805 40.4905C44.3324 40.5982 44.6582 41.1404 44.8863 41.3479Z" fill="#2776EA"/>
<path d="M52.4585 49.7106C50.9857 48.1328 49.5889 46.6373 48.1943 45.1417C48.0074 44.942 47.8141 44.7463 47.6512 44.5309C47.2689 44.0259 47.2602 43.4347 47.8532 43.1783C48.2594 43.0021 49.1023 43.0334 49.3586 43.2898C51.2442 45.1789 53.0646 47.1247 54.8111 49.1194C55.05 49.3935 54.9697 50.1941 54.6938 50.4858C53.0059 52.2711 51.2268 53.9879 49.4607 55.7125C48.9459 56.2156 48.3007 56.3076 47.7402 55.8123C47.2189 55.3503 47.3123 54.814 47.7967 54.3324C49.326 52.8172 50.8553 51.3001 52.4585 49.7106Z" fill="#2776EA"/>
<path d="M32.7644 49.7145C34.1699 51.1024 35.5558 52.4707 36.9417 53.839C37.1372 54.0309 37.4653 54.207 37.4957 54.4204C37.5652 54.8824 37.6825 55.5538 37.4109 55.7848C37.1351 56.0197 36.1836 56.0295 35.9229 55.7887C34.0265 54.0465 32.1996 52.2377 30.4357 50.3859C30.1902 50.1275 30.1989 49.3621 30.4444 49.0841C32.1713 47.1187 33.9809 45.214 35.7861 43.3054C36.2509 42.8121 36.8766 42.7358 37.4175 43.1664C38.0148 43.6421 37.8975 44.2059 37.4175 44.7227C35.886 46.369 34.3502 48.0133 32.7644 49.7145Z" fill="#2776EA"/>
<path d="M44.3602 13.3071C43.854 13.2836 43.2914 13.3736 42.8634 13.1974C42.4789 13.0389 41.9728 12.5593 42.0076 12.2696C42.0532 11.9015 42.5463 11.3397 42.9221 11.2888C43.9105 11.1498 44.951 11.1616 45.9459 11.2849C46.3 11.3299 46.8453 11.88 46.8279 12.1776C46.8062 12.5436 46.3652 13.031 45.9655 13.1974C45.5093 13.3873 44.9011 13.2836 44.3602 13.3071Z" fill="#2776EA"/>
<path d="M52.0751 13.3033C51.5711 13.2837 50.9977 13.3894 50.5806 13.2074C50.17 13.0292 49.6552 12.5496 49.6682 12.2168C49.6812 11.8821 50.2439 11.3457 50.6392 11.2831C51.5516 11.1402 52.5291 11.1304 53.4393 11.2733C53.8586 11.3399 54.4647 11.8919 54.469 12.2286C54.4733 12.5692 53.902 13.0331 53.4632 13.2269C53.0852 13.3953 52.5443 13.2622 52.073 13.2622C52.0751 13.2759 52.0751 13.2896 52.0751 13.3033Z" fill="#2776EA"/>
<path d="M59.6734 13.3076C59.1694 13.2802 58.6068 13.3702 58.1832 13.1921C57.8052 13.0335 57.3186 12.5461 57.3577 12.2564C57.4055 11.8903 57.8942 11.3403 58.27 11.2854C59.2193 11.1445 60.2273 11.1425 61.1788 11.2757C61.5698 11.3305 62.1324 11.861 62.152 12.1977C62.1715 12.5324 61.6784 13.0472 61.2765 13.2019C60.8203 13.3781 60.2143 13.243 59.6755 13.243C59.6755 13.2626 59.6734 13.2841 59.6734 13.3076Z" fill="#2776EA"/>
<path d="M17.5886 26.8477C22.0332 26.8555 25.5045 29.9876 25.5002 33.9829C25.4958 37.9274 21.9028 41.1456 17.5408 41.1143C13.1984 41.083 9.69447 37.9059 9.68361 33.9908C9.67492 29.9993 13.1723 26.8398 17.5886 26.8477ZM17.5691 39.0393C20.6994 39.0491 23.2279 36.796 23.2453 33.981C23.2627 31.2013 20.6798 28.8463 17.6147 28.8463C14.5235 28.8463 11.9515 31.1523 11.9319 33.9399C11.9102 36.7314 14.4518 39.0295 17.5691 39.0393Z" fill="#2776EA"/>
</svg>
