<svg width="65" height="70" viewBox="0 0 65 70" fill="none" xmlns="http://www.w3.org/2000/svg">
<path d="M32.4913 69.9144C23.8673 69.9144 15.2448 69.9144 6.62083 69.9144C3.97468 69.9144 2.5091 68.4353 2.5076 65.7697C2.5076 54.297 2.5046 42.8244 2.5166 31.3517C2.5166 30.8267 2.4071 30.4277 2.02007 30.0272C0.276977 28.2226 -0.122046 25.9739 0.0294621 23.5753C0.044463 23.3353 0.165969 23.0968 0.263475 22.8688C2.5616 17.4985 4.87173 12.1342 7.15036 6.75488C7.37537 6.22235 7.47738 5.60881 7.50438 5.02678C7.55838 3.85521 7.51038 2.67765 7.52538 1.50308C7.53888 0.402023 7.9379 0 9.01496 0C24.6623 0 40.3097 0.00300062 55.9556 0.00750088C57.0566 0.00750088 57.4257 0.385522 57.4557 1.49558C57.4572 1.57059 57.4662 1.64709 57.4572 1.7206C57.1151 4.66976 57.9192 7.34441 59.1598 10.0056C61.0154 13.9853 62.6414 18.0715 64.3935 22.1007C65.5066 24.6614 64.9996 27.0135 63.588 29.2756C63.5745 29.2966 63.561 29.3191 63.5415 29.3341C62.4614 30.1922 62.4464 31.3592 62.4509 32.6178C62.4839 43.6404 62.4374 54.6645 62.4974 65.6872C62.5094 67.9733 61.0319 69.9759 58.2132 69.9474C49.6387 69.8589 41.0642 69.9144 32.4913 69.9144ZM26.2284 29.1271C24.6368 31.2317 22.6087 32.4018 19.9971 32.4093C17.3599 32.4168 15.3198 31.2227 13.7372 29.1211C11.4616 32.0883 8.53194 32.9868 4.96324 32.0568C4.96324 32.3643 4.96324 32.5608 4.96324 32.7573C4.96324 43.7529 4.96174 54.7485 4.96474 65.7442C4.96474 67.1047 5.37876 67.4978 6.77984 67.4993C23.8988 67.5008 41.0177 67.4993 58.1382 67.4993C59.6563 67.4993 60.0163 67.1332 60.0163 65.5807C60.0178 54.684 60.0163 43.7874 60.0163 32.8908C60.0163 32.6298 60.0163 32.3688 60.0163 32.0073C58.2942 32.5353 56.6951 32.5593 55.105 32.0358C53.4969 31.5048 52.2444 30.4817 51.2423 29.0986C49.6297 31.2587 47.5881 32.4048 44.978 32.4093C42.3438 32.4138 40.3052 31.2137 38.7451 29.1286C35.5349 33.5059 29.4341 33.4984 26.2284 29.1271ZM15.2673 22.4188C15.4638 22.4608 15.5358 22.4893 15.6063 22.4893C18.5795 22.4923 21.5512 22.4788 24.5228 22.5058C25.1244 22.5118 25.1274 22.1922 25.1574 21.7587C25.3824 18.52 25.6254 15.2844 25.8579 12.0472C25.9659 10.5381 26.0589 9.0275 26.1639 7.42991C23.6723 7.42991 21.2556 7.41791 18.8405 7.45691C18.6755 7.45991 18.419 7.81843 18.368 8.04795C17.7514 10.7976 17.1649 13.5548 16.5724 16.3104C16.1389 18.328 15.7098 20.3486 15.2673 22.4188ZM27.5515 22.4532C30.8772 22.4532 34.1069 22.4532 37.4235 22.4532C37.065 17.434 36.711 12.4717 36.3555 7.50342C33.7303 7.50342 31.1802 7.50342 28.6181 7.50342C28.2625 12.5002 27.91 17.4265 27.5515 22.4532ZM38.8561 7.43291C38.8336 7.61742 38.8126 7.69243 38.8171 7.76443C39.1546 12.4987 39.5012 17.2315 39.8237 21.9657C39.8582 22.4757 40.1177 22.5013 40.5062 22.4998C43.3804 22.4923 46.253 22.4968 49.1272 22.4938C49.2937 22.4938 49.4617 22.4578 49.6657 22.4352C49.6312 22.1757 49.6177 21.9537 49.5727 21.7392C48.6712 17.518 47.7666 13.2952 46.8591 9.07551C46.5065 7.43741 46.502 7.43591 44.816 7.43441C42.8448 7.43141 40.8752 7.43291 38.8561 7.43291ZM49.0387 7.43291C49.0882 7.75543 49.1077 7.95344 49.1482 8.14695C50.1293 12.7072 51.1223 17.2645 52.0794 21.8292C52.1904 22.3602 52.3899 22.5118 52.9134 22.5073C55.5851 22.4833 58.2582 22.4953 60.9314 22.4953C61.1954 22.4953 61.4609 22.4953 61.7699 22.4953C61.7474 22.3047 61.7564 22.2027 61.7204 22.1187C59.6803 17.3485 57.6402 12.5782 55.5821 7.81393C55.5116 7.64893 55.2715 7.45242 55.1095 7.44942C53.1174 7.42391 51.1253 7.43291 49.0387 7.43291ZM15.9633 7.42841C13.9727 7.42841 12.1036 7.44941 10.236 7.41491C9.6945 7.40441 9.45299 7.60092 9.24898 8.08245C7.33187 12.6082 5.38926 17.122 3.45715 21.6417C3.35365 21.8832 3.27264 22.1352 3.18414 22.3722C3.29964 22.4337 3.34015 22.4757 3.38215 22.4757C6.35382 22.4847 9.32698 22.4998 12.2986 22.4683C12.4922 22.4668 12.7997 22.1187 12.8537 21.8862C13.5167 18.9671 14.1467 16.0419 14.7753 13.1152C15.1683 11.2641 15.5478 9.41002 15.9633 7.42841ZM10.0125 4.92927C25.0314 4.92927 39.9872 4.92927 54.967 4.92927C54.967 4.08623 54.967 3.30018 54.967 2.46014C39.9692 2.46014 25.0149 2.46014 10.0125 2.46014C10.0125 3.28968 10.0125 4.07723 10.0125 4.92927ZM39.9677 24.9734C40.0472 26.8905 40.8497 28.3336 42.4503 29.2696C44.2849 30.3437 46.142 30.2537 47.8761 29.0416C49.2562 28.0786 49.9762 26.7195 49.9867 24.9719C46.6161 24.9734 43.3324 24.9734 39.9677 24.9734ZM52.5264 24.9764C52.3404 27.588 54.787 30.0197 57.5247 29.9972C60.2518 29.9747 62.679 27.5235 62.4419 24.9764C59.1388 24.9764 55.8311 24.9764 52.5264 24.9764ZM2.4776 24.9719C2.5301 26.865 3.32515 28.2916 4.88373 29.2336C6.70033 30.3302 8.56344 30.2717 10.3185 29.0881C11.7436 28.1266 12.4592 26.7405 12.4997 24.9734C9.11847 24.9719 5.83179 24.9719 2.4776 24.9719ZM14.9628 24.9749C15.0573 26.9205 15.8778 28.3831 17.5174 29.3086C19.3655 30.3527 21.2181 30.2312 22.9387 28.9966C24.2873 28.0291 24.9608 26.6805 24.9969 24.9749C21.6037 24.9749 18.32 24.9749 14.9628 24.9749ZM37.4865 24.9719C34.1309 24.9719 30.8472 24.9719 27.4765 24.9719C27.5245 26.8515 28.321 28.2556 29.8331 29.2021C31.5762 30.2927 33.4018 30.2912 35.1449 29.2006C36.66 28.2541 37.455 26.8485 37.4865 24.9719Z" fill="#2776EA"/>
<path d="M49.9724 49.9561C49.9724 52.3053 49.9619 54.6529 49.9784 57.002C49.9844 57.7986 49.6768 58.3116 48.9133 58.6086C43.657 60.6502 38.4127 62.7218 33.1489 64.7455C32.7514 64.8985 32.1889 64.8865 31.7883 64.732C26.5246 62.7098 21.2773 60.6457 16.021 58.6026C15.3249 58.3326 15.0024 57.8616 15.0039 57.119C15.0099 52.3458 15.0099 47.5725 15.0039 42.7992C15.0024 42.0582 15.3264 41.5887 16.0225 41.3187C21.2788 39.2755 26.5261 37.2084 31.7913 35.1893C32.2099 35.0288 32.7994 35.0393 33.2194 35.2013C38.4607 37.2114 43.684 39.271 48.9178 41.3007C49.6828 41.5977 49.9814 42.1122 49.9754 42.9102C49.9574 45.2594 49.9694 47.6085 49.9694 49.9576C49.9709 49.9561 49.9709 49.9561 49.9724 49.9561ZM47.5137 49.9381C47.5137 47.964 47.5047 45.9899 47.5212 44.0158C47.5242 43.5988 47.4432 43.3453 47.0007 43.1743C42.2994 41.3577 37.6102 39.5126 32.9104 37.696C32.6629 37.5999 32.3134 37.6014 32.0659 37.6974C27.3661 39.5155 22.6753 41.3577 17.9771 43.1788C17.5871 43.3303 17.4535 43.5268 17.455 43.9438C17.47 47.9415 17.4715 51.9392 17.4535 55.937C17.452 56.384 17.6036 56.591 18.0146 56.7515C22.6903 58.5636 27.3556 60.3997 32.0329 62.2058C32.3014 62.3093 32.6779 62.3078 32.9464 62.2043C37.6252 60.3997 42.2919 58.5651 46.9677 56.756C47.3877 56.594 47.5257 56.3735 47.5212 55.9355C47.5002 53.9374 47.5122 51.9377 47.5137 49.9381Z" fill="#2776EA"/>
<path d="M23.78 49.3411C23.78 48.3465 23.771 47.3505 23.783 46.3559C23.7935 45.5174 24.2361 45.0208 24.9561 45.0028C25.7106 44.9848 26.1892 45.4919 26.1922 46.3664C26.2027 48.7635 26.1907 51.1607 26.2012 53.5578C26.2042 54.2134 25.9477 54.6919 25.3116 54.8629C24.6861 55.0309 24.2046 54.7639 23.8505 54.2209C23.168 53.1753 22.4705 52.1417 21.7759 51.1052C21.6439 50.9072 21.4954 50.7197 21.2119 50.3326C21.2119 51.3647 21.2119 52.1732 21.2119 52.9818C21.2119 53.2308 21.2269 53.4828 21.2044 53.7303C21.1384 54.4444 20.6614 54.9034 19.9968 54.9109C19.3233 54.9184 18.7893 54.4834 18.7803 53.7558C18.7457 51.2342 18.7533 48.7125 18.7698 46.1909C18.7743 45.6134 19.0953 45.1873 19.6698 45.0403C20.2353 44.8963 20.7109 45.0928 21.0394 45.5759C21.7534 46.6289 22.4525 47.694 23.159 48.7515C23.306 48.9721 23.465 49.1866 23.618 49.4026C23.6705 49.3816 23.726 49.3621 23.78 49.3411Z" fill="#2776EA"/>
<path d="M31.2472 47.4117C31.2472 48.3073 31.2472 49.0978 31.2472 49.9814C32.0243 49.9814 32.7653 49.9739 33.5049 49.9829C34.3884 49.9934 34.9254 50.4389 34.9539 51.1634C34.9824 51.918 34.4349 52.413 33.5169 52.434C32.7938 52.4505 32.0693 52.437 31.2067 52.437C31.2067 52.8345 31.2202 53.196 31.2037 53.5561C31.1662 54.4366 30.6982 54.9316 29.9422 54.9076C29.2236 54.8851 28.7646 54.3796 28.7616 53.5486C28.7526 51.1499 28.7496 48.7513 28.7631 46.3527C28.7676 45.4601 29.2191 45.0071 30.0997 44.9996C31.6733 44.9846 33.2484 44.9876 34.8219 44.9981C35.686 45.0041 36.2275 45.4961 36.2095 46.2251C36.1915 46.9527 35.6575 47.4027 34.7754 47.4087C33.6279 47.4177 32.4803 47.4117 31.2472 47.4117Z" fill="#2776EA"/>
<path d="M41.2202 47.4097C40.7702 47.4097 40.3757 47.4262 39.9856 47.4067C39.2611 47.3692 38.8021 46.9087 38.7856 46.2337C38.7691 45.5301 39.2446 45.0141 40.0006 45.0051C41.6732 44.9841 43.3458 44.9856 45.0184 45.0081C45.7175 45.0171 46.202 45.5421 46.208 46.1977C46.2125 46.8532 45.7295 47.3602 45.0304 47.4037C44.6359 47.4277 44.2384 47.4082 43.7598 47.4082C43.7433 47.7247 43.7178 47.9888 43.7178 48.2513C43.7148 49.9494 43.7193 51.646 43.7148 53.3441C43.7118 54.3686 43.3023 54.8966 42.5148 54.9101C41.6987 54.9251 41.2667 54.3821 41.2637 53.3171C41.2577 51.6445 41.2622 49.9719 41.2592 48.2993C41.2577 48.0308 41.2352 47.7637 41.2202 47.4097Z" fill="#2776EA"/>
</svg>
