<svg width="70" height="70" viewBox="0 0 70 70" fill="none" xmlns="http://www.w3.org/2000/svg">
<g clip-path="url(#clip0_287_608751)">
<path d="M63.589 45.8299C65.8593 46.4538 67.3333 47.799 67.8621 50.0681C68.661 53.4961 65.8781 56.8266 62.3663 56.6816C61.0899 56.6291 59.9559 56.2315 59.007 55.3826C58.6832 55.0926 58.4345 55.1088 58.0694 55.2714C51.5259 58.1831 44.9774 61.0872 38.4214 63.9702C37.9789 64.1652 37.8701 64.3927 37.8688 64.8466C37.8576 67.5957 35.8623 69.8861 33.1994 70.2486C30.4777 70.6187 27.9398 68.9647 27.171 66.303C26.7647 64.8991 26.9184 63.5389 27.616 62.2624C27.8148 61.8974 27.8373 61.6823 27.5398 61.3523C23.2879 56.6341 19.0523 51.9009 14.8129 47.1714C14.3953 46.7063 14.0015 46.2163 13.5464 45.7924C13.3714 45.6287 13.0363 45.5061 12.8101 45.5499C9.57582 46.1712 6.8204 44.3735 6.14655 41.173C5.49145 38.0575 8.09935 34.762 11.2786 34.7895C12.1487 34.797 12.5838 34.5232 12.9963 33.7744C14.3578 31.2977 15.8093 28.8711 17.2257 26.4245C17.2457 26.3895 17.2607 26.3495 17.2895 26.287C17.2157 26.2282 17.1445 26.1532 17.0582 26.1057C15.7092 25.3681 14.3553 24.638 13.0088 23.8966C12.745 23.7516 12.5675 23.7279 12.305 23.9604C8.93572 26.9308 4.02623 25.3731 3.1636 20.9949C2.45224 17.3794 5.4627 14.2539 8.94072 14.584C12.6275 14.9328 14.6866 18.0983 13.7027 21.8776C14.5653 22.3501 15.448 22.834 16.4219 23.3665C14.9104 17.3331 15.9243 11.8936 19.8311 7.1266C22.5703 3.78484 26.1333 1.72078 30.4015 1.02568C40.618 -0.639576 49.2231 6.45775 50.7458 15.6041C51.6897 15.8154 52.6536 16.0454 53.6262 16.2305C53.7625 16.2567 53.9938 16.0867 54.0938 15.9467C55.0977 14.544 56.4567 13.7814 58.1632 13.5701C61.0461 13.2138 63.9965 15.7279 64.0891 18.6346C64.1553 20.7074 63.3677 22.3464 61.6849 23.5691C61.5087 23.6978 61.3424 24.0041 61.3611 24.2104C61.5574 26.3633 61.7925 28.5136 62.015 30.6639C62.2063 32.5054 62.3976 34.3457 62.5863 36.1872C62.8139 38.4013 63.0389 40.6142 63.2677 42.8282C63.3714 43.8209 63.4802 44.811 63.589 45.8299ZM26.4371 37.7462C28.2461 37.7462 30.0564 37.7387 31.8667 37.7512C32.293 37.7537 32.3193 37.5237 32.3193 37.1936C32.3143 33.028 32.3243 28.8611 32.3043 24.6955C32.303 24.4842 32.1242 24.1992 31.9417 24.0767C31.3741 23.6953 30.7253 23.4253 30.1864 23.0102C29.8989 22.789 29.6739 22.3789 29.5976 22.0163C29.4976 21.5375 29.5651 21.0212 29.5701 20.5211C29.5976 18.2508 29.265 18.6508 31.3079 17.4819C33.3557 16.3092 32.9118 16.2455 35.0309 17.4707C37.0425 18.6333 36.8124 18.3083 36.8162 20.5549C36.8199 22.9565 37.0212 22.5514 34.9647 23.7241C34.5408 23.9654 34.4033 24.2242 34.4046 24.6993C34.4121 28.3448 34.3921 31.9904 34.3808 35.6347C34.3783 36.3135 34.3808 36.9911 34.3808 37.7087C36.5111 37.7087 38.5239 37.7087 40.5392 37.7087C40.5693 37.6462 40.6055 37.5937 40.6205 37.5349C40.653 37.4149 40.678 37.2924 40.6993 37.1699C41.2069 34.0932 42.5045 31.3865 44.5874 29.0762C48.0704 25.2131 49.4531 20.7387 48.593 15.6004C47.1478 6.96532 38.1864 1.18695 29.6751 3.30727C23.2966 4.89626 18.4372 10.4796 17.9233 16.9993C17.5845 21.2962 18.7372 25.1231 21.5451 28.3823C23.0754 30.1588 24.5881 31.9216 25.3807 34.1619C25.7845 35.3121 26.0733 36.5023 26.4371 37.7462ZM42.7446 37.715C43.9773 38.01 44.8437 38.6626 45.2962 39.8353C45.3962 40.0941 45.615 40.3604 45.8526 40.5016C48.5842 42.1269 51.3296 43.7296 54.0713 45.3374C55.464 46.1537 56.8567 46.9701 58.2669 47.7977C59.1271 46.7451 60.2197 46.1475 61.4612 45.8349C61.2336 43.5571 61.0161 41.3443 60.7911 39.1314C60.5898 37.1461 60.3835 35.1621 60.1772 33.1768C59.8984 30.4889 59.6059 27.8035 59.3508 25.1131C59.3071 24.6517 59.2133 24.4755 58.7007 24.483C57.1518 24.508 55.8028 23.9641 54.7364 22.829C54.4326 22.5052 54.1963 22.4964 53.8288 22.6714C52.6661 23.2228 51.4797 23.7241 50.3257 24.2904C50.0632 24.4192 49.8094 24.7005 49.6919 24.9718C48.8968 26.8196 47.9016 28.5398 46.5339 30.0238C44.5261 32.2041 43.1759 34.6995 42.7446 37.715ZM32.3243 51.5221C32.303 51.6571 32.288 51.6996 32.2918 51.7383C32.518 54.1387 32.7556 56.5378 32.9644 58.9407C33.0019 59.3695 33.2932 59.3795 33.5744 59.5045C34.3608 59.8558 35.1834 60.1659 35.8885 60.6434C36.4386 61.0147 36.8349 61.6123 37.3463 62.1587C44.0023 59.2107 50.7083 56.2415 57.2343 53.3511C57.2043 52.2159 57.1155 51.2095 57.1793 50.2131C57.208 49.7593 57.1255 49.5568 56.7492 49.338C53.3549 47.3664 49.9707 45.3749 46.5827 43.3908C46.2176 43.177 45.8463 42.9708 45.5588 42.8057C45.1825 43.4971 44.8412 44.1222 44.4836 44.7798C45.1637 45.5086 45.3837 46.4338 45.3312 47.4489C45.3175 47.719 45.3312 47.9903 45.3287 48.2603C45.3137 50.1969 44.0048 51.5158 42.082 51.5196C39.2091 51.5246 36.3361 51.5208 33.4619 51.5208C33.0931 51.5221 32.7218 51.5221 32.3243 51.5221ZM29.3576 60.2471C29.7864 60.0471 30.1314 59.8496 30.5015 59.722C30.864 59.597 30.944 59.4182 30.9028 59.0319C30.6503 56.7166 30.4227 54.3987 30.2189 52.0796C30.1814 51.6596 30.0727 51.5046 29.6314 51.5108C27.8811 51.5333 26.1321 51.5321 24.3818 51.5146C23.0354 51.5021 21.7327 50.5719 21.5151 49.2605C21.2438 47.6227 21.0351 45.9275 22.4215 44.5522C21.2838 43.4158 21.4264 41.9794 21.5314 40.5979C21.6539 38.9939 22.6653 38.0775 24.223 37.7062C24.1005 37.2199 23.993 36.7911 23.8705 36.3048C21.8002 37.2436 19.8099 38.1713 17.7946 39.0427C17.1945 39.3027 16.8357 39.579 16.9657 40.2991C17.0232 40.6142 16.9444 40.9617 16.8844 41.2868C16.6619 42.4919 16.0455 43.4858 15.1254 44.3697C19.8824 49.6755 24.6181 54.9588 29.3576 60.2471ZM33.4594 43.3771C36.0623 43.3771 38.6665 43.3771 41.2694 43.3771C43.2584 43.3771 43.3534 43.2821 43.3434 41.3143C43.3372 40.0828 43.0796 39.8203 41.8357 39.819C36.4836 39.8153 31.1316 39.8165 25.7783 39.8178C23.6217 39.8178 23.5867 39.8578 23.5929 42.0294C23.5954 42.9945 23.9792 43.3758 24.9619 43.3771C27.7948 43.3796 30.6278 43.3771 33.4594 43.3771ZM33.3407 49.4305C33.3407 49.4292 33.3407 49.4292 33.3407 49.428C33.7357 49.428 34.132 49.428 34.5271 49.428C37.005 49.4292 39.4828 49.433 41.962 49.4305C42.8371 49.4292 43.2022 49.0792 43.2134 48.2503C43.2184 47.8965 43.2159 47.5427 43.2147 47.1876C43.2109 46.2425 42.8509 45.89 41.887 45.89C36.4511 45.89 31.0166 45.89 25.5807 45.8912C23.5392 45.8912 23.4579 45.9737 23.4642 48.0465C23.4679 49.0892 23.8042 49.4292 24.8431 49.4292C27.6761 49.4317 30.5077 49.4305 33.3407 49.4305ZM18.6722 28.1223C17.2045 30.6577 15.7955 33.0905 14.394 35.5109C14.7228 35.7859 14.9916 35.9835 15.2279 36.2122C15.6217 36.5923 15.9593 37.2561 16.3868 37.3137C16.8782 37.3799 17.4433 36.9223 17.9708 36.6823C19.6848 35.9034 21.3964 35.1196 23.1266 34.3295C22.2565 31.8228 20.1124 30.3013 18.6722 28.1223ZM61.9812 19.0496C61.99 17.1769 60.496 15.6466 58.657 15.6441C56.808 15.6416 55.2915 17.1331 55.2527 18.9921C55.2152 20.8137 56.7517 22.3714 58.5995 22.3851C60.4698 22.3989 61.9725 20.9162 61.9812 19.0496ZM5.17891 20.0285C5.17516 21.8951 6.66663 23.3866 8.53816 23.3866C10.3909 23.3866 11.8937 21.8776 11.8937 20.0148C11.8949 18.172 10.3497 16.623 8.52441 16.6355C6.66663 16.648 5.18266 18.1533 5.17891 20.0285ZM62.5388 47.8678C60.671 47.8577 59.1921 49.3267 59.1696 51.2145C59.1471 53.051 60.6635 54.5888 62.5151 54.61C64.3153 54.63 65.8581 53.1135 65.8831 51.2995C65.9081 49.3817 64.4429 47.8778 62.5388 47.8678ZM29.08 64.7915C29.0775 66.7206 30.5227 68.1696 32.4593 68.1796C34.2683 68.1883 35.7923 66.6818 35.8148 64.8616C35.8373 62.9975 34.2846 61.4511 32.4055 61.4661C30.5565 61.4811 29.0825 62.955 29.08 64.7915ZM8.19061 40.1578C8.16811 42.0494 9.60207 43.5596 11.4661 43.6071C13.2964 43.6534 14.8479 42.1494 14.8841 40.2904C14.9204 38.4076 13.4664 36.8923 11.5986 36.8673C9.70084 36.8423 8.21186 38.2801 8.19061 40.1578ZM34.7609 20.5686C34.7071 20.2823 34.7559 19.841 34.5658 19.676C34.1695 19.3322 33.6732 19.0296 33.1694 18.9046C32.6493 18.7759 31.6504 19.7873 31.6779 20.3123C31.6992 20.7299 31.6392 21.2687 31.8679 21.5313C32.1855 21.8926 32.7493 22.2464 33.1944 22.2314C33.6732 22.2139 34.182 21.8201 34.5858 21.48C34.7609 21.3325 34.7046 20.9112 34.7609 20.5686ZM51.0296 17.8357C50.9158 19.1922 50.8083 20.4586 50.6958 21.8101C51.6322 21.3788 52.5011 20.9787 53.2962 20.6124C53.2387 19.7823 53.1899 19.0634 53.1374 18.2933C52.4673 18.1483 51.7659 17.9957 51.0296 17.8357Z" fill="#2776EA"/>
</g>
<defs>
<clipPath id="clip0_287_608751">
<rect width="70" height="70" fill="white"/>
</clipPath>
</defs>
</svg>
