<svg width="70" height="70" viewBox="0 0 70 70" fill="none" xmlns="http://www.w3.org/2000/svg">
<path d="M15.0134 36.92C15.0134 29.2993 15.008 21.6785 15.0166 14.0578C15.0208 10.0204 17.6459 6.47915 21.4758 5.39648C22.3 5.16375 23.185 5.02637 24.0422 5.02329C31.0261 4.99356 38.0089 4.99561 44.9927 5.01099C49.5701 5.02124 53.5087 8.52043 53.9128 12.9044C53.9672 13.4991 53.996 14.0978 53.996 14.6945C54.0003 29.6458 54.0013 44.596 53.9981 59.5473C53.9971 62.499 52.8978 64.9832 50.503 66.8769C48.9101 68.1359 47.0601 68.7715 44.997 68.7746C38.0131 68.7828 31.0304 68.7859 24.0465 68.7746C19.7432 68.7674 15.9676 65.704 15.2213 61.6132C15.0837 60.8607 15.023 60.0866 15.0208 59.3218C15.007 51.8538 15.0134 44.3869 15.0134 36.92ZM16.7982 56.8929C28.6388 56.8929 40.41 56.8929 52.1973 56.8929C52.1973 42.6245 52.1973 28.3919 52.1973 14.1552C40.3748 14.1552 28.6036 14.1552 16.7982 14.1552C16.7982 28.4093 16.7982 42.6317 16.7982 56.8929ZM16.7748 58.643C16.7748 59.0603 16.7769 59.4479 16.7748 59.8354C16.7492 63.5991 19.8541 67.1865 24.4911 67.1332C31.2212 67.0563 37.9534 67.1147 44.6846 67.1106C45.0919 67.1106 45.5024 67.086 45.9054 67.0358C49.7726 66.5467 52.7677 62.9645 52.1759 58.643C40.3972 58.643 28.6153 58.643 16.7748 58.643ZM52.0469 12.4154C52.0128 12.2339 51.9989 12.1006 51.9627 11.9714C51.082 8.81263 48.185 6.67292 44.7859 6.6719C37.931 6.67087 31.0751 6.67292 24.2203 6.6719C22.3683 6.6719 20.7305 7.23374 19.3444 8.41688C18.1033 9.47699 17.3111 10.7944 16.9486 12.4154C28.6665 12.4154 40.3237 12.4154 52.0469 12.4154Z" fill="#2776EA"/>
<path d="M46.3709 35.5158C44.5647 34.511 42.8469 33.5555 41.1292 32.601C40.53 32.2678 39.9276 31.9418 39.3316 31.6044C38.7697 31.2866 38.6055 30.813 38.8891 30.367C39.1524 29.9538 39.6706 29.8543 40.1963 30.1455C42.9322 31.6608 45.6671 33.1772 48.3946 34.7058C49.222 35.1703 49.2369 35.8726 48.4255 36.3268C45.6831 37.8636 42.9322 39.3882 40.1803 40.9097C39.6504 41.2029 39.1396 41.0973 38.8795 40.6749C38.6065 40.232 38.7761 39.7634 39.3465 39.4446C41.5248 38.2286 43.7074 37.0178 45.8878 35.8039C46.0222 35.7301 46.1523 35.647 46.3709 35.5158Z" fill="#2776EA"/>
<path d="M22.6196 35.5274C24.3234 36.4737 25.9185 37.3585 27.5125 38.2443C28.2344 38.6452 28.9594 39.042 29.677 39.45C30.2325 39.7668 30.3988 40.2518 30.1205 40.6896C29.854 41.1089 29.3656 41.2001 28.8155 40.8967C26.0624 39.3762 23.3115 37.8527 20.566 36.3189C19.7866 35.8832 19.7951 35.1604 20.5799 34.7216C23.3094 33.196 26.0443 31.6786 28.7803 30.1643C29.3528 29.8475 29.8614 29.9398 30.1259 30.3796C30.3978 30.8328 30.2357 31.289 29.6599 31.6099C27.5882 32.7654 25.5123 33.9137 23.4384 35.065C23.1953 35.2004 22.9544 35.3388 22.6196 35.5274Z" fill="#2776EA"/>
<path d="M31.9198 42.9518C31.2843 42.9365 30.9357 42.3838 31.1841 41.7256C31.7407 40.2493 32.3186 38.7801 32.8879 37.3088C33.9574 34.5406 35.0268 31.7735 36.0973 29.0053C36.1527 28.8618 36.2029 28.7131 36.2764 28.5778C36.5035 28.1595 36.9204 27.9944 37.3448 28.1441C37.7862 28.2989 38.024 28.7244 37.8715 29.1827C37.6828 29.7517 37.4514 30.3064 37.235 30.8672C35.7892 34.6114 34.3412 38.3536 32.8975 42.0988C32.7227 42.551 32.5222 42.96 31.9198 42.9518Z" fill="#2776EA"/>
<path d="M34.5535 62.4767C34.6772 62.4767 34.802 62.4685 34.9246 62.4777C35.462 62.5218 35.8 62.8591 35.7861 63.3286C35.7723 63.7921 35.4151 64.1212 34.8819 64.1468C34.6346 64.1591 34.3861 64.1612 34.1388 64.1478C33.5747 64.1181 33.2122 63.7705 33.2229 63.2866C33.2335 62.8181 33.5694 62.5125 34.1281 62.4736C34.2689 62.4633 34.4107 62.4726 34.5525 62.4726C34.5535 62.4736 34.5535 62.4756 34.5535 62.4767Z" fill="#2776EA"/>
<path d="M34.506 10.4457C32.8917 10.4457 31.2774 10.4477 29.6642 10.4446C29.0063 10.4436 28.6108 10.135 28.598 9.62955C28.5852 9.12 28.9829 8.78577 29.6343 8.78577C32.88 8.78269 36.1266 8.78167 39.3723 8.78679C40.1762 8.78782 40.6283 9.35888 40.3255 9.97506C40.1432 10.3452 39.8062 10.4508 39.4021 10.4498C37.7697 10.4436 36.1384 10.4467 34.506 10.4457Z" fill="#2776EA"/>
</svg>
