<svg width="70" height="70" viewBox="0 0 70 70" fill="none" xmlns="http://www.w3.org/2000/svg">
<path d="M43.7513 50.1858L43.6633 50.1554C42.2041 49.6529 40.7651 49.1574 39.2987 48.8176L39.2983 48.8176C36.2448 48.108 33.515 46.7963 31.1862 44.6391L31.186 44.6389C30.6649 44.1556 30.123 43.7198 29.5519 43.4733C29.4523 43.4304 29.3534 43.3874 29.2552 43.3446C28.8594 43.1724 28.4728 43.0042 28.0807 42.8679C27.5946 42.6991 27.1394 42.5944 26.7136 42.5988L43.7513 50.1858ZM43.7513 50.1858C44.5696 50.4678 45.0287 51.223 44.9765 51.9668M43.7513 50.1858L44.9765 51.9668M44.9765 51.9668C44.9246 52.702 44.3964 53.346 43.6785 53.4951C43.3615 53.5604 42.9722 53.5371 42.6178 53.4489C38.6079 52.4482 34.6022 51.4336 30.6057 50.3912L30.6057 50.3912C30.2508 50.2987 29.8425 50.2452 29.4714 50.3821C29.0556 50.5356 28.8006 50.8812 28.6859 51.333L28.6858 51.3332C28.5729 51.7787 28.6481 52.1908 28.9284 52.5101C29.1804 52.7974 29.5449 52.946 29.8802 53.0309C31.5545 53.4569 33.23 53.8883 34.9064 54.32C37.3763 54.956 39.8481 55.5925 42.3206 56.2127C43.8834 56.6054 45.1942 56.0189 46.315 55.1101L44.9765 51.9668ZM47.2338 54.671C47.1479 54.6656 47.0088 54.6941 46.8242 54.7821C46.6471 54.8664 46.4673 54.9867 46.3152 55.1099L47.2338 54.671ZM47.2338 54.671C50.4691 54.8789 53.4579 54.0848 56.3543 52.8691L56.3543 52.8691C58.9744 51.7691 61.6332 50.7554 64.3096 49.7805C64.8811 49.5731 65.5798 49.506 66.1792 49.5998L66.1799 49.5999C66.9322 49.7165 67.5007 50.4177 67.5787 51.244C67.6262 51.7499 67.5449 52.1771 67.358 52.5255C67.1721 52.8722 66.8644 53.1735 66.4038 53.402C62.937 55.1197 59.4611 56.8165 55.9793 58.5049L55.9793 58.5049C55.6825 58.6489 55.3922 58.7949 55.1057 58.9391C54.1664 59.4116 53.2673 59.8639 52.3113 60.1567L52.311 60.1568C50.4998 60.7127 48.6371 61.1145 46.7535 61.5208C46.6173 61.5502 46.4809 61.5796 46.3444 61.6091L46.3443 61.6091C43.5885 62.205 40.8268 62.7674 38.0572 63.2791C37.4891 63.384 36.8478 63.3664 36.3111 63.216C32.6053 62.1738 28.9092 61.1175 25.2119 60.0608C22.1132 59.1752 19.0137 58.2894 15.9067 57.4114C15.6203 57.3303 15.5359 57.2512 15.5032 57.2054C15.4683 57.1564 15.4228 57.0483 15.4306 56.7526C15.4645 55.4954 15.4581 54.2323 15.4516 52.9788C15.4499 52.6488 15.4482 52.3194 15.4473 51.991H15.4587V51.491C15.4587 51.0129 15.46 50.5338 15.4613 50.0539C15.4648 48.7541 15.4682 47.4491 15.4464 46.1452L15.4464 46.1448C15.4429 45.9466 15.4731 45.8462 15.5079 45.7833C15.5421 45.7217 15.6098 45.6436 15.7799 45.5449C19.1607 43.5887 22.8326 42.6417 26.7134 42.5988L47.2338 54.671ZM30.4795 50.875C29.8285 50.7053 29.3402 50.7875 29.1705 51.456L30.4795 50.875Z" stroke="#2776EA"/>
<path d="M46.0081 19.9345L46.0081 19.9344C45.2802 19.2954 44.5517 18.6561 43.8257 18.0189C43.0564 17.3437 42.2898 16.671 41.5296 16.0035C40.9056 16.5502 40.2816 17.0968 39.6576 17.6434C34.6092 22.0658 29.5609 26.4882 24.5276 30.9255L24.197 30.5505M46.0081 19.9345L58.357 49.7567M46.0081 19.9345C46.9262 20.7404 47.8443 21.5467 48.7624 22.3531C51.9387 25.143 55.1163 27.9339 58.3032 30.7121M46.0081 19.9345L46.338 19.5587C47.2564 20.3649 48.1747 21.1714 49.093 21.978C52.2691 24.7677 55.4457 27.5578 58.6317 30.3352M24.197 30.5505L24.5292 30.9242C24.4908 30.9583 24.4338 31.0347 24.3855 31.1491C24.3382 31.2613 24.3164 31.3697 24.3154 31.4432C24.2908 33.9792 24.296 36.5153 24.3012 39.0548C24.3018 39.3746 24.3025 39.6945 24.3031 40.0144C28.2362 39.0767 31.2137 40.9981 33.9641 43.2956C33.9639 42.8247 33.9637 42.3592 33.9636 41.8981C33.9626 39.517 33.9616 37.2552 33.9695 34.9937V34.9937C33.9712 34.4972 33.9882 33.9451 34.1076 33.4126C34.9525 29.6411 38.5517 27.3723 42.6562 27.8523C46.3806 28.2874 49.0951 31.3015 49.1007 35.0472M24.197 30.5505C23.9765 30.7465 23.819 31.1367 23.8155 31.4377C23.7908 33.9771 23.796 36.5165 23.8012 39.0559C23.8019 39.4023 23.8026 39.7486 23.8032 40.095L24.197 30.5505ZM49.1007 35.0472L48.6007 35.048M49.1007 35.0472L48.6007 35.048M49.1007 35.0472C49.1066 38.662 49.1062 42.2779 49.1058 45.8931C49.1056 47.7003 49.1054 49.5074 49.106 51.3141V51.3142V51.3161V51.3179V51.3197V51.3216V51.3234V51.3252V51.3271V51.3289V51.3307V51.3326V51.3344V51.3362V51.3381V51.3399V51.3418V51.3436V51.3454V51.3473V51.3491V51.3509V51.3528V51.3546V51.3564V51.3583V51.3601V51.362V51.3638V51.3656V51.3675V51.3693V51.3711V51.373V51.3748V51.3767V51.3785V51.3803V51.3822V51.384V51.3859V51.3877V51.3895V51.3914V51.3932V51.3951V51.3969V51.3987V51.4006V51.4024V51.4043V51.4061V51.408V51.4098V51.4117V51.4135V51.4153V51.4172V51.419V51.4209V51.4227V51.4246V51.4264V51.4283V51.4301V51.432V51.4338V51.4357V51.4375V51.4394V51.4412V51.4431V51.4449V51.4468V51.4487V51.4505V51.4524V51.4542V51.4561V51.4579V51.4598V51.4616V51.4635V51.4654V51.4672V51.4691V51.471V51.4728V51.4747V51.4765V51.4784V51.4803V51.4821V51.484V51.4859V51.4877V51.4896V51.4915V51.4934V51.4952V51.4971V51.499V51.5008V51.5027V51.5046V51.5065V51.5084V51.5102V51.5121V51.514V51.5159V51.5177V51.5196V51.5215V51.5234V51.5253V51.5272V51.5291V51.5309V51.5328V51.5347V51.5366V51.5385V51.5404V51.5423V51.5442V51.5461V51.548V51.5499V51.5518V51.5537V51.5556V51.5575V51.5594V51.5613V51.5632V51.5651V51.567V51.5689V51.5708V51.5727V51.5747V51.5766V51.5785V51.5804V51.5823V51.5842V51.5862V51.5881V51.59V51.5919V51.5938V51.5958V51.5977V51.5996V51.6015V51.6035V51.6054V51.6073V51.6093V51.6112V51.6131V51.6151V51.617V51.619V51.6209V51.6228V51.6248V51.6267V51.6287V51.6306V51.6326V51.6345V51.6365V51.6384V51.6404V51.6424V51.6443V51.6463V51.6482V51.6502V51.6522V51.6541V51.6561V51.6581V51.66V51.662V51.664V51.666V51.6679V51.6699V51.6719V51.6739V51.6759V51.6778V51.6798V51.6818V51.6838V51.6858V51.6878V51.6898V51.6918V51.6938V51.6958V51.6978V51.6998V51.7018V51.7038V51.7058V51.7078V51.7098V51.7118V51.7138V51.7159V51.7179V51.7199V51.7219V51.7239V51.726V51.728V51.73V51.732V51.7341V51.7361V51.7381V51.7402V51.7422V51.7443V51.7463V51.7484V51.7504V51.7524V51.7545V51.7565V51.7586V51.7607V51.7627V51.7648V51.7668V51.7689V51.771V51.773V51.7751V51.7772V51.7793V51.7813V51.7834V51.7855V51.7876V51.7897V51.7917V51.7938V51.7959V51.798V51.8001V51.8022V51.8043V51.8064V51.8085V51.8106V51.8127V51.8148V51.8169V51.8191V51.8212V51.8233V51.8254V51.8275V51.8297V51.8318V51.8339V51.836V51.8382V51.8403V51.8425V51.8446V51.8467V51.8489V51.851V51.8532V51.8553V51.8575V51.8596V51.8618V51.864V51.8661V51.8683V51.8705V51.8726V51.8748V51.877V51.8792V51.8813V51.8835V51.8857V51.8879V51.8901V51.8923V51.8943C49.3025 51.8809 49.4975 51.87 49.6865 51.8595C49.8865 51.8484 50.0797 51.8376 50.2609 51.8246C50.795 51.7862 51.2741 51.7268 51.7148 51.5908C53.0195 51.1868 54.2764 50.7183 55.5487 50.244C56.4168 49.9204 57.292 49.5941 58.1944 49.2839M48.6007 35.048C48.6066 38.6625 48.6062 42.2778 48.6058 45.8928C48.6056 47.7001 48.6054 49.5072 48.606 51.3142M48.6007 35.048C48.5955 31.5585 46.0737 28.755 42.5982 28.349C38.708 27.894 35.376 30.0377 34.5955 33.522L48.606 51.3142M58.1944 49.2839L58.357 49.7567M58.1944 49.2839C58.1943 49.2839 58.1942 49.284 58.1941 49.284L58.357 49.7567M58.1944 49.2839C58.4983 49.1792 58.6207 49.0847 58.6819 49.0024C58.74 48.9243 58.7973 48.7835 58.795 48.4582V48.4579C58.76 42.8887 58.767 37.3183 58.7897 31.7489M58.357 49.7567C59.0377 49.5222 59.3002 49.209 59.295 48.4547C59.26 42.888 59.267 37.3195 59.2897 31.751M58.7897 31.7489C58.7897 31.7491 58.7897 31.7493 58.7897 31.7495L59.2897 31.751M58.7897 31.7489L59.2897 31.751M58.7897 31.7489C58.7904 31.4982 58.7496 31.3207 58.6804 31.1749C58.6102 31.0272 58.4957 30.8803 58.3032 30.7121M59.2897 31.751C59.2915 31.1332 59.0867 30.7325 58.6317 30.3352M48.606 51.3142V51.9352V51.3142ZM58.6317 30.3352L58.3032 30.7121M58.6317 30.3352L58.3029 30.7119C58.303 30.7119 58.3031 30.712 58.3032 30.7121" stroke="#2776EA"/>
<path d="M22.5886 8.60333L22.5888 8.60328C23.167 8.36375 23.5903 8.04545 23.9007 7.66391C24.2085 7.28544 24.3856 6.86898 24.5062 6.46281C24.5966 6.15845 24.6611 5.83613 24.7204 5.53959C24.7379 5.45202 24.755 5.3667 24.7721 5.28476C24.8267 5.02418 24.8844 4.78324 24.9615 4.55859H24.9649H24.9723H24.9798H24.9872H24.9946H25.0021H25.0095H25.017H25.0244H25.0319H25.0393H25.0468H25.0542H25.0617H25.0691H25.0766H25.084H25.0915H25.099H25.1064H25.1139H25.1213H25.1288H25.1362H25.1437H25.1512H25.1586H25.1661H25.1736H25.181H25.1885H25.196H25.2034H25.2109H25.2184H25.2258H25.2333H25.2408H25.2482H25.2557H25.2632H25.2707H25.2781H25.2856H25.2931H25.3006H25.308H25.3155H25.323H25.3305H25.338H25.3454H25.3529H25.3604H25.3679H25.3754H25.3829H25.3903H25.3978H25.4053H25.4128H25.4203H25.4278H25.4353H25.4428H25.4502H25.4577H25.4652H25.4727H25.4802H25.4877H25.4952H25.5027H25.5102H25.5177H25.5252H25.5327H25.5402H25.5477H25.5552H25.5627H25.5702H25.5777H25.5852H25.5927H25.6002H25.6077H25.6152H25.6227H25.6302H25.6378H25.6453H25.6528H25.6603H25.6678H25.6753H25.6828H25.6903H25.6978H25.7054H25.7129H25.7204H25.7279H25.7354H25.7429H25.7505H25.758H25.7655H25.773H25.7805H25.7881H25.7956H25.8031H25.8106H25.8181H25.8257H25.8332H25.8407H25.8483H25.8558H25.8633H25.8708H25.8784H25.8859H25.8934H25.901H25.9085H25.916H25.9236H25.9311H25.9386H25.9462H25.9537H25.9612H25.9688H25.9763H25.9838H25.9914H25.9989H26.0064H26.014H26.0215H26.0291H26.0366H26.0442H26.0517H26.0592H26.0668H26.0743H26.0819H26.0894H26.097H26.1045H26.1121H26.1196H26.1272H26.1347H26.1423H26.1498H26.1574H26.1649H26.1725H26.18H26.1876H26.1951H26.2027H26.2102H26.2178H26.2253H26.2329H26.2405H26.248H26.2556H26.2631H26.2707H26.2782H26.2858H26.2934H26.3009H26.3085H26.3161H26.3236H26.3312H26.3387H26.3463H26.3539H26.3614H26.369H26.3766H26.3841H26.3917H26.3993H26.4068H26.4144H26.422H26.4295H26.4371H26.4447H26.4523H26.4598H26.4674H26.475H26.4826H26.4901H26.4977H26.5053H26.5129H26.5204H26.528H26.5356H26.5432H26.5507H26.5583H26.5659H26.5735H26.5811H26.5886H26.5962H26.6038H26.6114H26.619H26.6265H26.6341H26.6417H26.6493H26.6569H26.6645H26.672H26.6796H26.6872H26.6948H26.7024H26.71H26.7176H26.7252H26.7327H26.7403H26.7479H26.7555H26.7631H26.7707H26.7783H26.7859H26.7935H26.8011H26.8087H26.8163H26.8238H26.8314H26.839H26.8466H26.8542H26.8618H26.8694H26.877H26.8846H26.8922H26.8998H26.9074H26.915H26.9226H26.9302H26.9378H26.9454H26.953H26.9606H26.9682H26.9758H26.9834H26.991H26.9986H27.0062H27.0138H27.0214H27.029H27.0366H27.0443H27.0519H27.0595H27.0671H27.0747H27.0823H27.0899H27.0975H27.1051H27.1127H27.1203H27.1279H27.1356H27.1432H27.1508H27.1584H27.166H27.1736H27.1812H27.1888H27.1964H27.2041H27.2117H27.2193H27.2269H27.2345H27.2421H27.2497H27.2574H27.265H27.2726H27.2802H27.2878H27.2954H27.3031H27.3107H27.3183H27.3259H27.3335H27.3412H27.3488H27.3564H27.364H27.3716H27.3793H27.3869H27.3945H27.4021H27.4097H27.4174H27.425H27.4326H27.4402H27.4479H27.4555H27.4631H27.4707H27.4784H27.486H27.4936H27.5012H27.5089H27.5165H27.5241H27.5317H27.5394H27.547H27.5546H27.5622H27.5699H27.5775H27.5851H27.5928H27.6004H27.608H27.6157H27.6233H27.6309H27.6385H27.6462H27.6538H27.6614H27.6691H27.6767H27.6843H27.692H27.6996H27.7072H27.7149H27.7225H27.7301H27.7378H27.7454H27.753H27.7607H27.7683H27.7759H27.7836H27.7912H27.7988H27.8065H27.8141H27.8217H27.8294H27.837H27.8447H27.8523H27.8599H27.8676H27.8752H27.8828H27.8905H27.8981H27.9058H27.9134H27.921H27.9287H27.9363H27.944H27.9516H27.9592H27.9669H27.9745H27.9822H27.9898H27.9974H28.0051H28.0127H28.0204H28.028H28.0356H28.0433H28.0509H28.0586H28.0662H28.0739H28.0815H28.0891H28.0968H28.1044H28.1121H28.1197H28.1274H28.135H28.1426H28.1503H28.1579H28.1591C28.2359 4.77887 28.2935 5.01768 28.3482 5.27855C28.3654 5.36041 28.3825 5.44582 28.4001 5.53362C28.4599 5.83205 28.5252 6.1581 28.6174 6.46625C28.7404 6.87717 28.9218 7.2991 29.2379 7.68083C29.5566 8.06561 29.9913 8.38438 30.5849 8.62005C31.1666 8.85103 31.6919 8.91593 32.1788 8.85805C32.6617 8.80064 33.0764 8.62605 33.4412 8.42239C33.7056 8.27482 33.9652 8.09847 34.2013 7.9381C34.2802 7.88451 34.3565 7.8327 34.4294 7.78435C34.6375 7.64647 34.831 7.52736 35.0231 7.43429L35.0914 7.50115C35.8382 8.23263 36.579 8.95826 37.3202 9.68525C36.458 11.2589 35.5624 12.2331 33.4173 13.8578C31.843 11.5398 29.6196 10.1702 26.6702 10.1124L26.6701 10.1124C24.4555 10.0695 22.5261 10.8564 20.9344 12.3869L20.9343 12.387C19.163 14.0909 18.3211 16.1051 18.4683 18.2714C18.6058 20.2942 19.601 22.3848 21.3769 24.4278C19.9812 25.6537 18.5872 26.8793 17.1979 28.1013C16.7302 27.6503 16.2629 27.1992 15.773 26.726C15.8438 26.6169 15.915 26.5074 15.9864 26.3976C16.2818 25.9436 16.5806 25.4844 16.8695 25.0229L16.8695 25.0228C17.3885 24.1934 17.3444 23.1209 17.0056 22.2421C16.6667 21.3633 15.9791 20.5383 15.0325 20.2753L15.0317 20.2751C14.7068 20.1854 14.3767 20.1177 14.0659 20.0539C14.0365 20.0479 14.0074 20.0419 13.9784 20.0359C13.6395 19.9662 13.3226 19.8984 13.0183 19.8061C13.0151 19.8042 13.0095 19.8007 13.0016 19.7948C12.9806 19.7793 12.9554 19.7564 12.9315 19.7289C12.9112 19.7056 12.8971 19.685 12.8886 19.6703C12.8445 18.6935 12.8444 17.7118 12.8885 16.7349C12.8972 16.7205 12.9115 16.7003 12.9317 16.6775C12.9564 16.6497 12.9827 16.6261 13.005 16.61C13.0147 16.6029 13.0214 16.5989 13.0247 16.597C13.3312 16.5042 13.6496 16.4353 13.9883 16.3654C14.0267 16.3574 14.0654 16.3495 14.1044 16.3415C14.4061 16.2795 14.7246 16.2141 15.0384 16.1301L15.0387 16.13C15.9623 15.8822 16.6435 15.0588 16.9886 14.1969C17.3336 13.3353 17.409 12.2699 16.913 11.4549L16.913 11.4549C16.6227 10.9778 16.313 10.5043 15.9981 10.0229C15.9242 9.90978 15.8499 9.79624 15.7755 9.68212C16.5577 8.90681 17.3023 8.1679 18.0539 7.42082C18.2556 7.5174 18.4583 7.64099 18.6756 7.78336C18.7494 7.83173 18.8263 7.88331 18.9056 7.93654C19.1503 8.10062 19.4183 8.28039 19.6913 8.43038C20.0646 8.63544 20.4875 8.80981 20.9775 8.86352C21.4719 8.91769 22.0031 8.8457 22.5886 8.60333Z" stroke="#2776EA"/>
<path d="M7.81198 65.8078H7.80743H7.79572H7.78402H7.77231H7.76061H7.7489H7.7372H7.7255H7.7138H7.7021H7.6904H7.67871H7.66701H7.65531H7.64362H7.63193H7.62024H7.60855H7.59686H7.58517H7.57348H7.56179H7.55011H7.53842H7.52674H7.51505H7.50337H7.49169H7.48001H7.46833H7.45665H7.44498H7.4333H7.42162H7.40995H7.39827H7.3866H7.37493H7.36326H7.35159H7.33992H7.32825H7.31658H7.30492H7.29325H7.28159H7.26992H7.25826H7.24659H7.23493H7.22327H7.21161H7.19995H7.18829H7.17664H7.16498H7.15332H7.14167H7.13001H7.11836H7.1067H7.09505H7.0834H7.07175H7.0601H7.04845H7.0368H7.02515H7.0135H7.00186H6.99021H6.97857H6.96692H6.95528H6.94363H6.93199H6.92035H6.90871H6.89707H6.88543H6.87379H6.86215H6.85051H6.83887H6.82723H6.8156H6.80396H6.79233H6.78069H6.76906H6.75742H6.74579H6.73416H6.72253H6.71089H6.69926H6.68763H6.676H6.66437H6.65275H6.64112H6.62949H6.61786H6.60624H6.59461H6.58298H6.57136H6.55973H6.54811H6.53648H6.52486H6.51324H6.50161H6.48999H6.47837H6.46675H6.45513H6.44351H6.43189H6.42027H6.40865H6.39703H6.38541H6.37379H6.36217H6.35056H6.33894H6.32732H6.31571H6.30409H6.29247H6.28086H6.26924H6.25763H6.24601H6.2344H6.22278H6.21117H6.19956H6.18794H6.17633H6.16472H6.1531H6.14149H6.12988H6.11827H6.10666H6.09505H6.08343H6.07182H6.06021H6.0486H6.03699H6.02538H6.01377H6.00216H5.99055H5.97894H5.96733H5.95573H5.94412H5.93251H5.9209H5.90929H5.89768H5.88607H5.87447H5.86286H5.85125H5.83964H5.82803H5.81643H5.80482H5.79321H5.7816H5.77H5.75839H5.74678H5.73517H5.72357H5.71196H5.70035H5.68874H5.67714H5.66553H5.65392H5.64231H5.63071H5.6191H5.60749H5.59589H5.58428H5.57267H5.56106H5.54945H5.53785H5.52624H5.51463H5.50302H5.49142H5.47981H5.4682H5.45659H5.44498H5.43337H5.42177H5.41016H5.39855H5.38694H5.37533H5.36372H5.35211H5.3405H5.32889H5.31728H5.30567H5.29406H5.28245H5.27084H5.25923H5.24762H5.236H5.22439H5.21278H5.20117H5.18956H5.17794H5.16633H5.15472H5.1431H5.13149H5.11988H5.10826H5.09665H5.08503H5.07342H5.0618H5.05019H5.03857H5.02695H5.01534H5.00372H4.9921H4.98048H4.96886H4.95725H4.94563H4.93401H4.92239H4.91077H4.89915H4.88753H4.8759H4.86428H4.85266H4.84104H4.82941H4.81779H4.80617H4.79454H4.78292H4.77129H4.75967H4.74804H4.73641H4.72479H4.71316H4.70153H4.6899H4.67827H4.66664H4.65501H4.64338H4.63175H4.62012H4.60849H4.59685H4.58522H4.57359H4.56195H4.55032H4.53868H4.52704H4.51541H4.50377H4.49213H4.48049H4.46885H4.45721H4.44557H4.43393H4.42229H4.41064H4.399H4.38736H4.37571H4.36407H4.35242H4.34077H4.32913H4.31748H4.30583H4.29418H4.28253H4.27088H4.25923H4.24758H4.23592H4.22427H4.21261H4.20096H4.1893H4.17764H4.16599H4.15433H4.14267H4.13101H4.11935H4.10769H4.09602H4.08436H4.0727H4.06103H4.04937H4.0377H4.02603H4.01436H4.00269H3.99102H3.97935H3.96768H3.95601H3.94433H3.93266H3.92098H3.90931H3.89763H3.88595H3.87427H3.86259H3.85091H3.83923H3.82755H3.81586H3.80418H3.79249H3.78081H3.76912H3.75743H3.74574H3.73405H3.72236H3.71067H3.69897H3.68728H3.67558H3.66388H3.65219H3.64049H3.62879H3.61709H3.60538H3.59368H3.58198H3.57027H3.55857H3.54686H3.53515H3.52344H3.51173H3.50002H3.4883H3.47659H3.46487H3.45316H3.44144H3.42972H3.418H3.40628H3.39456H3.38283H3.37111H3.35938H3.34766H3.33593H3.3242H3.31247H3.30074H3.289H3.27727H3.26553H3.2538H3.24206H3.23032H3.21858H3.20684H3.19509H3.18335H3.1716H3.15986H3.14811H3.13636H3.12461H3.11285H3.1011H3.08935H3.07759H3.06583H3.05407H3.04231H3.03055H3.01879H3.00702H2.99526H2.98349H2.97172H2.95995H2.94818H2.93641H2.92463H2.91286H2.90108H2.8893H2.87752H2.86574H2.85396H2.84217H2.83398V65.7786V65.7198V65.661V65.6022V65.5434V65.4846V65.4258V65.367V65.3082V65.2494V65.1907V65.1319V65.0731V65.0143V64.9555V64.8967V64.8379V64.7791V64.7203V64.6615V64.6027V64.5439V64.4851V64.4263V64.3675V64.3087V64.2499V64.1911V64.1323V64.0735V64.0147V63.9559V63.8971V63.8383V63.7796V63.7208V63.662V63.6032V63.5444V63.4856V63.4268V63.368V63.3092V63.2504V63.1916V63.1328V63.074V63.0152V62.9564V62.8976V62.8388V62.78V62.7212V62.6624V62.6036V62.5448V62.486V62.4272V62.3684V62.3096V62.2508V62.192V62.1332V62.0744V62.0156V61.9568V61.898V61.8392V61.7804V61.7216V61.6628V61.604V61.5452V61.4864V61.4276V61.3688V61.31V61.2512V61.1924V61.1336V61.0748V61.016V60.9572V60.8984V60.8396V60.7808V60.722V60.6632V60.6044V60.5456V60.4868V60.428V60.3692V60.3104V60.2516V60.1928V60.134V60.0751V60.0163V59.9575V59.8987V59.8399V59.7811V59.7223V59.6635V59.6047V59.5459V59.4871V59.4283V59.3695V59.3107V59.2519V59.193V59.1342V59.0754V59.0166V58.9578V58.899V58.8402V58.7814V58.7226V58.6638V58.6049V58.5461V58.4873V58.4285V58.3697V58.3109V58.2521V58.1933V58.1344V58.0756V58.0168V57.958V57.8992V57.8404V57.7816V57.7227V57.6639V57.6051V57.5463V57.4875V57.4287V57.3698V57.311V57.2522V57.1934V57.1346V57.0757V57.0169V56.9581V56.8993V56.8405V56.7816V56.7228V56.664V56.6052V56.5464V56.4875V56.4287V56.3699V56.3111V56.2522V56.1934V56.1346V56.0758V56.0169V55.9581V55.8993V55.8405V55.7816V55.7228V55.664V55.6051V55.5463V55.4875V55.4287V55.3698V55.311V55.2522V55.1933V55.1345V55.0757V55.0168V54.958V54.8992V54.8403V54.7815V54.7227V54.6638V54.605V54.5462V54.4873V54.4285V54.3696V54.3108V54.252V54.1931V54.1343V54.0755V54.0166V53.9578V53.8989V53.8401V53.7812V53.7224V53.6636V53.6047V53.5459V53.487V53.4282V53.3693V53.3105V53.2516V53.1928V53.134V53.0751V53.0163V52.9574V52.8986V52.8397V52.7809V52.722V52.6632V52.6043V52.5455V52.4866V52.4277V52.3689V52.31V52.2512V52.1923V52.1335V52.0746V52.0158V51.9569V51.898V51.8392V51.7803V51.7215V51.6626V51.6037V51.5449V51.486V51.4271V51.3683V51.3094V51.2506V51.1917V51.1328V51.074V51.0151V50.9562V50.8974V50.8385V50.7796V50.7207V50.6619V50.603V50.5441V50.4853V50.4264V50.3675V50.3086V50.2498V50.1909V50.132V50.0731V50.0143V49.9554V49.8965V49.8376V49.7787V49.7199V49.661V49.6021V49.5432V49.4843V49.4254V49.3666V49.3077V49.2488V49.1899V49.131V49.0721V49.0132V48.9543V48.8955V48.8366V48.7777V48.7188V48.6599V48.601V48.5421V48.4832V48.4243V48.3654V48.3065V48.2476V48.1887V48.1298V48.0709V48.012V47.9531V47.8942V47.8353V47.7764V47.7175V47.6586V47.5997V47.5408V47.4819V47.423V47.3641V47.3052V47.2463V47.1873V47.1284V47.0695V47.0106V46.9517V46.8928V46.8339V46.775V46.716V46.6571V46.5982V46.5393V46.4804V46.4214V46.3625V46.3036V46.2447V46.1858V46.1268V46.0679V46.009V45.95V45.8911V45.8322V45.7733V45.7143V45.6554V45.5965V45.5375V45.4786V45.4197V45.3607V45.3018V45.2429V45.1839V45.125V45.066V45.0071V44.9482V44.8892V44.8303V44.7713V44.7124V44.6535V44.5945V44.5356V44.4766V44.4177V44.3587V44.2998V44.2408V44.1819V44.1229V44.064V44.005V43.946V43.8871V43.8281V43.7692V43.7102V43.6513V43.5923V43.5333V43.4744V43.4154V43.3564V43.2975V43.2385V43.1795V43.1206V43.0616V43.0026V42.9437V42.8847V42.8257V42.7667V42.7078V42.6488V42.5898V42.5308V42.4719V42.4129V42.3539V42.2949V42.2359V42.177V42.118V42.059V42V41.941V41.882V41.823V41.7641V41.7051V41.6461V41.5871V41.5281V41.4691V41.4101V41.3511V41.2921V41.2331V41.1741V41.1151V41.0561V40.9971V40.9381V40.8791V40.8201V40.7611V40.7021V40.6431V40.5841V40.525V40.466V40.407V40.348V40.289V40.23V40.171V40.1119V40.0529V39.9939V39.9349V39.8759V39.8168V39.7578V39.6988V39.6398V39.5807V39.5217V39.4627V39.4037V39.3446V39.2856V39.2266V39.1675V39.1085V39.0494V38.9904V38.9314V38.8723V38.8133V38.7542V38.6952V38.6362V38.5771V38.5181V38.459V38.4V38.3409V38.2819V38.2228V38.1638V38.1047V38.0457V37.9866V37.9275V37.8685V37.8094V37.7504V37.6913V37.6322V37.5732V37.5141V37.455V37.396V37.3369V37.2778V37.2188V37.1597V37.1006V37.0415V36.9825V36.9234V36.8643V36.8052V36.7461V36.6871V36.6553H2.84486H2.85647H2.86807H2.87968H2.89128H2.90289H2.91449H2.92609H2.9377H2.9493H2.9609H2.97251H2.98411H2.99571H3.00732H3.01892H3.03052H3.04212H3.05372H3.06533H3.07693H3.08853H3.10013H3.11173H3.12333H3.13493H3.14654H3.15814H3.16974H3.18134H3.19294H3.20454H3.21614H3.22774H3.23934H3.25094H3.26254H3.27414H3.28574H3.29734H3.30894H3.32054H3.33214H3.34374H3.35534H3.36693H3.37853H3.39013H3.40173H3.41333H3.42493H3.43653H3.44813H3.45973H3.47133H3.48292H3.49452H3.50612H3.51772H3.52932H3.54092H3.55252H3.56412H3.57571H3.58731H3.59891H3.61051H3.62211H3.63371H3.64531H3.65691H3.66851H3.6801H3.6917H3.7033H3.7149H3.7265H3.7381H3.7497H3.7613H3.7729H3.7845H3.7961H3.8077H3.8193H3.8309H3.8425H3.8541H3.8657H3.8773H3.8889H3.9005H3.9121H3.9237H3.9353H3.9469H3.9585H3.9701H3.9817H3.9933H4.00491H4.01651H4.02811H4.03971H4.05131H4.06291H4.07452H4.08612H4.09772H4.10932H4.12093H4.13253H4.14413H4.15574H4.16734H4.17894H4.19055H4.20215H4.21376H4.22536H4.23697H4.24857H4.26018H4.27178H4.28339H4.29499H4.3066H4.31821H4.32981H4.34142H4.35303H4.36463H4.37624H4.38785H4.39946H4.41106H4.42267H4.43428H4.44589H4.4575H4.46911H4.48072H4.49233H4.50394H4.51555H4.52716H4.53877H4.55038H4.56199H4.57361H4.58522H4.59683H4.60844H4.62006H4.63167H4.64329H4.6549H4.66651H4.67813H4.68974H4.70136H4.71298H4.72459H4.73621H4.74783H4.75944H4.77106H4.78268H4.7943H4.80592H4.81754H4.82915H4.84077H4.85239H4.86402H4.87564H4.88726H4.89888H4.9105H4.92212H4.93375H4.94537H4.957H4.96862H4.98024H4.99187H5.0035H5.01512H5.02675H5.03837H5.05H5.06163H5.07326H5.08489H5.09652H5.10815H5.11978H5.13141H5.14304H5.15467H5.1663H5.17793H5.18957H5.2012H5.21283H5.22447H5.2361H5.24774H5.25937H5.27101H5.28265H5.29428H5.30592H5.31756H5.3292H5.34084H5.35248H5.36412H5.37576H5.3874H5.39904H5.41069H5.42233H5.43397H5.44562H5.45726H5.46891H5.48056H5.4922H5.50385H5.5155H5.52715H5.53879H5.55044H5.56209H5.57375H5.5854H5.59705H5.6087H5.62035H5.63201H5.64366H5.65532H5.66697H5.67863H5.69029H5.70194H5.7136H5.72526H5.73692H5.74858H5.76024H5.7719H5.78356H5.79523H5.80689H5.81856H5.83022H5.84189H5.85355H5.86522H5.87689H5.88855H5.90022H5.91189H5.92356H5.93523H5.94691H5.95858H5.97025H5.98192H5.9936H6.00527H6.01695H6.02863H6.0403H6.05198H6.06366H6.07534H6.08702H6.0987H6.11038H6.12207H6.13375H6.14544H6.15712H6.16881H6.18049H6.19218H6.20387H6.21556H6.22725H6.23894H6.25063H6.26232H6.27401H6.28571H6.2974H6.3091H6.32079H6.33249H6.34419H6.35589H6.36759H6.37929H6.39099H6.40269H6.41439H6.42609H6.4378H6.4495H6.46121H6.47292H6.48463H6.49633H6.50804H6.51975H6.53147H6.54318H6.55489H6.56661H6.57832H6.59004H6.60175H6.61347H6.62519H6.63691H6.64863H6.66035H6.67207H6.6838H6.69552H6.70724H6.71897H6.7307H6.74242H6.75415H6.76588H6.77761H6.78935H6.80108H6.81281H6.82455H6.83628H6.84802H6.85976H6.87149H6.88323H6.89497H6.90671H6.91846H6.9302H6.94195H6.95369H6.96544H6.97718H6.98893H7.00068H7.01243H7.02418H7.03594H7.04769H7.05944H7.0712H7.08296H7.09471H7.10647H7.11823H7.12999H7.14175H7.15352H7.16528H7.17705H7.18881H7.20058H7.21235H7.22412H7.23589H7.24766H7.25943H7.27121H7.28298H7.29476H7.30653H7.31831H7.33009H7.34187H7.35365H7.36543H7.37722H7.389H7.40079H7.41258H7.42436H7.43615H7.44794H7.45974H7.47153H7.48332H7.49512H7.50691H7.51871H7.53051H7.54231H7.55411H7.56591H7.57772H7.58952H7.60133H7.61313H7.62494H7.63675H7.64856H7.66037H7.67219H7.684H7.69582H7.70763H7.71945H7.73127H7.74309H7.75491H7.76674H7.77856H7.79038H7.80221H7.81198V36.6845V36.7433V36.8021V36.8609V36.9197V36.9785V37.0373V37.0961V37.1549V37.2137V37.2725V37.3313V37.3901V37.4489V37.5077V37.5664V37.6252V37.684V37.7428V37.8016V37.8604V37.9192V37.978V38.0368V38.0956V38.1543V38.2131V38.2719V38.3307V38.3895V38.4483V38.5071V38.5659V38.6246V38.6834V38.7422V38.801V38.8598V38.9186V38.9773V39.0361V39.0949V39.1537V39.2125V39.2712V39.33V39.3888V39.4476V39.5064V39.5651V39.6239V39.6827V39.7415V39.8002V39.859V39.9178V39.9766V40.0354V40.0941V40.1529V40.2117V40.2705V40.3292V40.388V40.4468V40.5056V40.5643V40.6231V40.6819V40.7407V40.7994V40.8582V40.917V40.9757V41.0345V41.0933V41.1521V41.2108V41.2696V41.3284V41.3872V41.4459V41.5047V41.5635V41.6222V41.681V41.7398V41.7986V41.8573V41.9161V41.9749V42.0336V42.0924V42.1512V42.2099V42.2687V42.3275V42.3863V42.445V42.5038V42.5626V42.6213V42.6801V42.7389V42.7976V42.8564V42.9152V42.974V43.0327V43.0915V43.1503V43.209V43.2678V43.3266V43.3854V43.4441V43.5029V43.5617V43.6204V43.6792V43.738V43.7967V43.8555V43.9143V43.9731V44.0318V44.0906V44.1494V44.2081V44.2669V44.3257V44.3845V44.4432V44.502V44.5608V44.6196V44.6783V44.7371V44.7959V44.8547V44.9134V44.9722V45.031V45.0897V45.1485V45.2073V45.2661V45.3248V45.3836V45.4424V45.5012V45.56V45.6187V45.6775V45.7363V45.7951V45.8538V45.9126V45.9714V46.0302V46.089V46.1477V46.2065V46.2653V46.3241V46.3829V46.4416V46.5004V46.5592V46.618V46.6768V46.7355V46.7943V46.8531V46.9119V46.9707V47.0295V47.0883V47.147V47.2058V47.2646V47.3234V47.3822V47.441V47.4998V47.5586V47.6173V47.6761V47.7349V47.7937V47.8525V47.9113V47.9701V48.0289V48.0877V48.1465V48.2053V48.2641V48.3229V48.3817V48.4405V48.4992V48.558V48.6168V48.6756V48.7344V48.7932V48.852V48.9108V48.9696V49.0284V49.0873V49.1461V49.2049V49.2637V49.3225V49.3813V49.4401V49.4989V49.5577V49.6165V49.6753V49.7341V49.7929V49.8517V49.9106V49.9694V50.0282V50.087V50.1458V50.2046V50.2634V50.3223V50.3811V50.4399V50.4987V50.5575V50.6164V50.6752V50.734V50.7928V50.8517V50.9105V50.9693V51.0281V51.087V51.1458V51.2046V51.2634V51.3223V51.3811V51.4399V51.4988V51.5576V51.6164V51.6753V51.7341V51.793V51.8518V51.9106V51.9695V52.0283V52.0871V52.146V52.2048V52.2637V52.3225V52.3814V52.4402V52.4991V52.5579V52.6168V52.6756V52.7345V52.7933V52.8522V52.911V52.9699V53.0287V53.0876V53.1465V53.2053V53.2642V53.323V53.3819V53.4408V53.4996V53.5585V53.6174V53.6762V53.7351V53.794V53.8528V53.9117V53.9706V54.0295V54.0883V54.1472V54.2061V54.265V54.3239V54.3827V54.4416V54.5005V54.5594V54.6183V54.6772V54.7361V54.7949V54.8538V54.9127V54.9716V55.0305V55.0894V55.1483V55.2072V55.2661V55.325V55.3839V55.4428V55.5017V55.5606V55.6195V55.6784V55.7373V55.7962V55.8552V55.9141V55.973V56.0319V56.0908V56.1497V56.2087V56.2676V56.3265V56.3854V56.4443V56.5033V56.5622V56.6211V56.68V56.739V56.7979V56.8568V56.9158V56.9747V57.0337V57.0926V57.1515V57.2105V57.2694V57.3284V57.3873V57.4463V57.5052V57.5642V57.6231V57.6821V57.741V57.8V57.8589V57.9179V57.9769V58.0358V58.0948V58.1537V58.2127V58.2717V58.3306V58.3896V58.4486V58.5076V58.5665V58.6255V58.6845V58.7435V58.8025V58.8614V58.9204V58.9794V59.0384V59.0974V59.1564V59.2154V59.2744V59.3334V59.3924V59.4514V59.5104V59.5694V59.6284V59.6874V59.7464V59.8054V59.8644V59.9234V59.9824V60.0414V60.1005V60.1595V60.2185V60.2775V60.3366V60.3956V60.4546V60.5136V60.5727V60.6317V60.6907V60.7498V60.8088V60.8678V60.9269V60.9859V61.045V61.104V61.1631V61.2221V61.2812V61.3402V61.3993V61.4583V61.5174V61.5765V61.6355V61.6946V61.7537V61.8127V61.8718V61.9309V61.9899V62.049V62.1081V62.1672V62.2263V62.2853V62.3444V62.4035V62.4626V62.5217V62.5808V62.6399V62.699V62.7581V62.8172V62.8763V62.9354V62.9945V63.0536V63.1127V63.1718V63.2309V63.2901V63.3492V63.4083V63.4674V63.5265V63.5857V63.6448V63.7039V63.7631V63.8222V63.8813V63.9405V63.9996V64.0588V64.1179V64.177V64.2362V64.2954V64.3545V64.4137V64.4728V64.532V64.5911V64.6503V64.7095V64.7686V64.8278V64.887V64.9462V65.0053V65.0645V65.1237V65.1829V65.2421V65.3012V65.3604V65.4196V65.4788V65.538V65.5972V65.6564V65.7156V65.7748V65.8078Z" stroke="#2776EA"/>
<path d="M46.3611 48.5877C45.54 47.9137 44.5973 47.5217 43.6035 47.2372L43.6032 47.2371C42.5064 46.924 41.4154 46.5853 40.3185 46.2437L40.1808 46.2008C39.1312 45.8738 38.0757 45.5451 37.0131 45.2375C36.7967 45.1746 36.7592 45.1204 36.754 45.1128L36.7539 45.1128C36.7433 45.0974 36.7097 45.0363 36.7104 44.8083C36.7153 44.0104 36.7256 43.2092 36.736 42.406C36.7667 40.0316 36.7976 37.6389 36.6871 35.2592L36.6871 35.2592C36.5529 32.3715 38.9369 30.501 41.5489 30.5236L41.5491 30.5236C44.124 30.5446 46.4568 32.2855 46.3891 35.3167L46.3891 35.3168C46.3142 38.6993 46.3312 42.0882 46.3482 45.4694C46.3534 46.5097 46.3586 47.5493 46.3611 48.5877Z" stroke="#2776EA"/>
<path d="M64.1725 30.7754L64.1727 30.7749C64.251 30.5715 64.2227 30.4518 64.1622 30.3417C64.0809 30.1935 63.9298 30.0467 63.6956 29.8415C63.0153 29.2457 62.3349 28.6498 61.6544 28.0538C59.5274 26.1909 57.3999 24.3276 55.2744 22.4634C51.7746 19.3952 48.2758 16.327 44.7611 13.2448C43.683 12.2993 42.6033 11.3525 41.5217 10.404C34.0944 16.9158 26.6689 23.4292 19.2469 29.9444C18.9505 30.2047 18.8579 30.4049 18.8411 30.5388C18.8261 30.6585 18.8597 30.8244 19.0604 31.056L19.0605 31.0561C19.2878 31.3186 19.4433 31.3689 19.5479 31.3697C19.672 31.3707 19.8854 31.3047 20.2259 31.007L20.2259 31.007C26.9197 25.155 33.6129 19.3017 40.2886 13.4309L40.2889 13.4307C40.6405 13.122 41.0334 12.8747 41.4943 12.8602C41.9647 12.8454 42.3742 13.0759 42.7507 13.4091C46.8748 17.0548 51.0141 20.683 55.1541 24.3118C56.2534 25.2754 57.3528 26.239 58.4519 27.203L64.1725 30.7754ZM64.1725 30.7754C64.0338 31.1366 63.827 31.2945 63.6531 31.3414C63.4828 31.3874 63.2297 31.3576 62.9285 31.103L62.6058 31.4849M64.1725 30.7754L62.6058 31.4849M62.6058 31.4849L62.9285 31.103C61.7895 30.1405 60.6716 29.1561 59.5488 28.1674M62.6058 31.4849L59.5488 28.1674M59.5488 28.1674C59.184 27.8462 58.8187 27.5245 58.452 27.203L59.5488 28.1674Z" stroke="#2776EA"/>
<path d="M10.6562 62.3992V62.3969V62.3512V62.3056V62.2599V62.2143V62.1686V62.123V62.0773V62.0317V61.9861V61.9404V61.8948V61.8492V61.8035V61.7579V61.7123V61.6666V61.621V61.5754V61.5298V61.4842V61.4385V61.3929V61.3473V61.3017V61.2561V61.2105V61.1648V61.1192V61.0736V61.028V60.9824V60.9368V60.8912V60.8456V60.8V60.7544V60.7088V60.6632V60.6176V60.572V60.5265V60.4809V60.4353V60.3897V60.3441V60.2985V60.2529V60.2074V60.1618V60.1162V60.0706V60.0251V59.9795V59.9339V59.8883V59.8428V59.7972V59.7516V59.7061V59.6605V59.6149V59.5694V59.5238V59.4783V59.4327V59.3871V59.3416V59.296V59.2505V59.2049V59.1594V59.1138V59.0683V59.0227V58.9772V58.9316V58.8861V58.8406V58.795V58.7495V58.7039V58.6584V58.6129V58.5673V58.5218V58.4763V58.4307V58.3852V58.3397V58.2942V58.2486V58.2031V58.1576V58.1121V58.0665V58.021V57.9755V57.93V57.8845V57.8389V57.7934V57.7479V57.7024V57.6569V57.6114V57.5659V57.5203V57.4748V57.4293V57.3838V57.3383V57.2928V57.2473V57.2018V57.1563V57.1108V57.0653V57.0198V56.9743V56.9288V56.8833V56.8378V56.7923V56.7468V56.7013V56.6559V56.6104V56.5649V56.5194V56.4739V56.4284V56.3829V56.3374V56.292V56.2465V56.201V56.1555V56.11V56.0645V56.0191V55.9736V55.9281V55.8826V55.8372V55.7917V55.7462V55.7007V55.6553V55.6098V55.5643V55.5189V55.4734V55.4279V55.3824V55.337V55.2915V55.246V55.2006V55.1551V55.1097V55.0642V55.0187V54.9733V54.9278V54.8823V54.8369V54.7914V54.746V54.7005V54.6551V54.6096V54.5641V54.5187V54.4732V54.4278V54.3823V54.3369V54.2914V54.246V54.2005V54.1551V54.1096V54.0642V54.0187V53.9733V53.9278V53.8824V53.8369V53.7915V53.746V53.7006V53.6552V53.6097V53.5643V53.5188V53.4734V53.4279V53.3825V53.3371V53.2916V53.2462V53.2007V53.1553V53.1099V53.0644V53.019V52.9736V52.9281V52.8827V52.8372V52.7918V52.7464V52.7009V52.6555V52.6101V52.5646V52.5192V52.4738V52.4283V52.3829V52.3375V52.292V52.2466V52.2012V52.1558V52.1103V52.0649V52.0195V51.974V51.9286V51.8832V51.8378V51.7923V51.7469V51.7015V51.656V51.6106V51.5652V51.5198V51.4743V51.4289V51.3835V51.3381V51.2926V51.2472V51.2018V51.1564V51.1109V51.0655V51.0201V50.9747V50.9292V50.8838V50.8384V50.793V50.7476V50.7021V50.6567V50.6113V50.5659V50.5204V50.475V50.4296V50.3842V50.3387V50.2933V50.2479V50.2025V50.1571V50.1116V50.0662V50.0208V49.9754V49.93V49.8845V49.8391V49.7937V49.7483V49.7028V49.6574V49.612V49.5666V49.5212V49.4757V49.4303V49.3849V49.3395V49.2941V49.2486V49.2032V49.1578V49.1124V49.0669V49.0215V48.9761V48.9307V48.8853V48.8398V48.7944V48.749V48.7036V48.6581V48.6127V48.5673V48.5219V48.4764V48.431V48.3856V48.3402V48.2948V48.2493V48.2039V48.1585V48.1131V48.0676V48.0222V47.9768V47.9313V47.8859V47.8405V47.7951V47.7496V47.7042V47.6588V47.6134V47.5679V47.5225V47.4771V47.4316V47.3862V47.3408V47.2954V47.2499V47.2045V47.1591V47.1136V47.0682V47.0228V46.9773V46.9319V46.8865V46.841V46.7956V46.7502V46.7047V46.6593V46.6139V46.5684V46.523V46.4776V46.4321V46.3867V46.3413V46.2958V46.2504V46.2049V46.1595V46.1141V46.0686V46.0232V45.9777V45.9323V45.8869V45.8414V45.796V45.7505V45.7051V45.6596V45.6142V45.5687V45.5233V45.4778V45.4324V45.387V45.3415V45.2961V45.2506V45.2052V45.1597V45.1142V45.0688V45.0233V44.9779V44.9324V44.887V44.8415V44.7961V44.7506V44.7052V44.6597V44.6142V44.5688V44.5233V44.4779V44.4324V44.3869V44.3415V44.296V44.2505V44.2051V44.1596V44.1142V44.0687V44.0232V43.9777V43.9323V43.8868V43.8413V43.7959V43.7504V43.7049V43.6594V43.614V43.5685V43.523V43.4775V43.4321V43.3866V43.3411V43.2956V43.2501V43.2047V43.1592V43.1137V43.0682V43.0227V42.9772V42.9318V42.8863V42.8408V42.7953V42.7498V42.7043V42.6588V42.6133V42.5678V42.5223V42.4768V42.4313V42.3858V42.3403V42.2948V42.2493V42.2038V42.1583V42.1128V42.0673V42.0218V41.9763V41.9308V41.8853V41.8398V41.7943V41.7488V41.7032V41.6577V41.6122V41.5667V41.5212V41.4757V41.4301V41.3846V41.3391V41.2936V41.248V41.2025V41.157V41.1115V41.0659V41.0204V40.9749V40.9293V40.8838V40.8383V40.7927V40.7472V40.7017V40.6561V40.6106V40.5651V40.5195V40.474V40.4284V40.3829V40.3373V40.2918V40.2462V40.2007V40.1551V40.1096V40.1084H10.66H10.6658H10.6717H10.6775H10.6833H10.6892H10.695H10.7008H10.7067H10.7125H10.7183H10.7241H10.73H10.7358H10.7416H10.7475H10.7533H10.7591H10.7649H10.7708H10.7766H10.7824H10.7882H10.7941H10.7999H10.8057H10.8115H10.8174H10.8232H10.829H10.8348H10.8407H10.8465H10.8523H10.8581H10.8639H10.8698H10.8756H10.8814H10.8872H10.893H10.8989H10.9047H10.9105H10.9163H10.9221H10.9279H10.9338H10.9396H10.9454H10.9512H10.957H10.9628H10.9687H10.9745H10.9803H10.9861H10.9919H10.9977H11.0036H11.0094H11.0152H11.021H11.0268H11.0326H11.0384H11.0442H11.0501H11.0559H11.0617H11.0675H11.0733H11.0791H11.0849H11.0907H11.0965H11.1024H11.1082H11.114H11.1198H11.1256H11.1314H11.1372H11.143H11.1488H11.1546H11.1605H11.1663H11.1721H11.1779H11.1837H11.1895H11.1953H11.2011H11.2069H11.2127H11.2185H11.2244H11.2302H11.236H11.2418H11.2476H11.2534H11.2592H11.265H11.2708H11.2766H11.2824H11.2882H11.294H11.2999H11.3057H11.3115H11.3173H11.3231H11.3289H11.3347H11.3405H11.3463H11.3521H11.3579H11.3637H11.3695H11.3753H11.3812H11.387H11.3928H11.3986H11.4044H11.4102H11.416H11.4218H11.4276H11.4334H11.4392H11.445H11.4508H11.4566H11.4625H11.4683H11.4741H11.4799H11.4857H11.4915H11.4973H11.5031H11.5089H11.5147H11.5205H11.5263H11.5321H11.538H11.5438H11.5496H11.5554H11.5612H11.567H11.5728H11.5786H11.5844H11.5902H11.596H11.6019H11.6077H11.6135H11.6193H11.6251H11.6309H11.6367H11.6425H11.6483H11.6542H11.66H11.6658H11.6716H11.6774H11.6832H11.689H11.6948H11.7007H11.7065H11.7123H11.7181H11.7239H11.7297H11.7355H11.7414H11.7472H11.753H11.7588H11.7646H11.7704H11.7762H11.7821H11.7879H11.7937H11.7995H11.8053H11.8111H11.817H11.8228H11.8286H11.8344H11.8402H11.8461H11.8519H11.8577H11.8635H11.8693H11.8752H11.881H11.8868H11.8926H11.8984H11.9043H11.9101H11.9159H11.9217H11.9276H11.9334H11.9392H11.945H11.9509H11.9567H11.9625H11.9683H11.9742H11.98H11.9858H11.9917H11.9975H12.0033H12.0091H12.015H12.0208H12.0266H12.0325H12.0383H12.0441H12.05H12.0558H12.0616H12.0675H12.0733H12.0791H12.085H12.0908H12.0966H12.1025H12.1083H12.1141H12.12H12.1258H12.1317H12.1375H12.1433H12.1492H12.155H12.1609H12.1667H12.1725H12.1784H12.1842H12.1901H12.1959H12.2018H12.2076H12.2135H12.2193H12.2252H12.231H12.2368H12.2427H12.2485H12.2544H12.2602H12.2661H12.2719H12.2778H12.2837H12.2895H12.2954H12.3012H12.3071H12.3129H12.3188H12.3246H12.3305H12.3364H12.3422H12.3481H12.3539H12.3598H12.3657H12.3715H12.3774H12.3832H12.3891H12.395H12.4008H12.4067H12.4126H12.4184H12.4243H12.4302H12.436H12.4419H12.4478H12.4536H12.4595H12.4654H12.4713H12.4771H12.483H12.4889H12.4948H12.5006H12.5065H12.5124H12.5183H12.5242H12.53H12.5359H12.5418H12.5477H12.5536H12.5594H12.5653H12.5712H12.5771H12.583H12.5889H12.5948H12.6007H12.6065H12.6124H12.6183H12.6242H12.6301H12.636H12.6419H12.6478H12.6523V40.1089V40.1544V40.1999V40.2454V40.2909V40.3364V40.3819V40.4274V40.4729V40.5184V40.5639V40.6094V40.6549V40.7004V40.7459V40.7914V40.8369V40.8824V40.9278V40.9733V41.0188V41.0643V41.1098V41.1553V41.2008V41.2463V41.2917V41.3372V41.3827V41.4282V41.4737V41.5192V41.5646V41.6101V41.6556V41.7011V41.7466V41.7921V41.8375V41.883V41.9285V41.974V42.0194V42.0649V42.1104V42.1559V42.2014V42.2468V42.2923V42.3378V42.3833V42.4287V42.4742V42.5197V42.5651V42.6106V42.6561V42.7016V42.747V42.7925V42.838V42.8834V42.9289V42.9744V43.0198V43.0653V43.1108V43.1562V43.2017V43.2472V43.2926V43.3381V43.3836V43.429V43.4745V43.52V43.5654V43.6109V43.6564V43.7018V43.7473V43.7928V43.8382V43.8837V43.9291V43.9746V44.0201V44.0655V44.111V44.1564V44.2019V44.2474V44.2928V44.3383V44.3837V44.4292V44.4746V44.5201V44.5656V44.611V44.6565V44.7019V44.7474V44.7928V44.8383V44.8838V44.9292V44.9747V45.0201V45.0656V45.111V45.1565V45.2019V45.2474V45.2928V45.3383V45.3837V45.4292V45.4747V45.5201V45.5656V45.611V45.6565V45.7019V45.7474V45.7928V45.8383V45.8837V45.9292V45.9746V46.0201V46.0655V46.111V46.1564V46.2019V46.2473V46.2928V46.3382V46.3837V46.4291V46.4746V46.52V46.5655V46.6109V46.6563V46.7018V46.7472V46.7927V46.8381V46.8836V46.929V46.9745V47.0199V47.0654V47.1108V47.1563V47.2017V47.2472V47.2926V47.3381V47.3835V47.4289V47.4744V47.5198V47.5653V47.6107V47.6562V47.7016V47.7471V47.7925V47.838V47.8834V47.9289V47.9743V48.0197V48.0652V48.1106V48.1561V48.2015V48.247V48.2924V48.3379V48.3833V48.4288V48.4742V48.5197V48.5651V48.6105V48.656V48.7014V48.7469V48.7923V48.8378V48.8832V48.9287V48.9741V49.0196V49.065V49.1104V49.1559V49.2013V49.2468V49.2922V49.3377V49.3831V49.4286V49.474V49.5195V49.5649V49.6104V49.6558V49.7013V49.7467V49.7922V49.8376V49.883V49.9285V49.9739V50.0194V50.0648V50.1103V50.1557V50.2012V50.2466V50.2921V50.3375V50.383V50.4284V50.4739V50.5193V50.5648V50.6102V50.6557V50.7011V50.7466V50.792V50.8375V50.8829V50.9284V50.9738V51.0193V51.0647V51.1102V51.1557V51.2011V51.2466V51.292V51.3375V51.3829V51.4284V51.4738V51.5193V51.5647V51.6102V51.6556V51.7011V51.7466V51.792V51.8375V51.8829V51.9284V51.9738V52.0193V52.0647V52.1102V52.1557V52.2011V52.2466V52.292V52.3375V52.383V52.4284V52.4739V52.5193V52.5648V52.6103V52.6557V52.7012V52.7466V52.7921V52.8376V52.883V52.9285V52.974V53.0194V53.0649V53.1104V53.1558V53.2013V53.2467V53.2922V53.3377V53.3831V53.4286V53.4741V53.5196V53.565V53.6105V53.656V53.7014V53.7469V53.7924V53.8378V53.8833V53.9288V53.9743V54.0197V54.0652V54.1107V54.1561V54.2016V54.2471V54.2926V54.338V54.3835V54.429V54.4745V54.52V54.5654V54.6109V54.6564V54.7019V54.7473V54.7928V54.8383V54.8838V54.9293V54.9748V55.0202V55.0657V55.1112V55.1567V55.2022V55.2477V55.2931V55.3386V55.3841V55.4296V55.4751V55.5206V55.5661V55.6116V55.657V55.7025V55.748V55.7935V55.839V55.8845V55.93V55.9755V56.021V56.0665V56.112V56.1575V56.203V56.2485V56.294V56.3395V56.385V56.4305V56.476V56.5215V56.567V56.6125V56.658V56.7035V56.749V56.7945V56.84V56.8855V56.931V56.9765V57.022V57.0675V57.113V57.1585V57.2041V57.2496V57.2951V57.3406V57.3861V57.4316V57.4771V57.5226V57.5682V57.6137V57.6592V57.7047V57.7502V57.7957V57.8413V57.8868V57.9323V57.9778V58.0234V58.0689V58.1144V58.1599V58.2055V58.251V58.2965V58.342V58.3876V58.4331V58.4786V58.5242V58.5697V58.6152V58.6608V58.7063V58.7518V58.7974V58.8429V58.8884V58.934V58.9795V59.025V59.0706V59.1161V59.1617V59.2072V59.2528V59.2983V59.3438V59.3894V59.4349V59.4805V59.526V59.5716V59.6171V59.6627V59.7082V59.7538V59.7993V59.8449V59.8904V59.936V59.9816V60.0271V60.0727V60.1182V60.1638V60.2094V60.2549V60.3005V60.346V60.3916V60.4372V60.4827V60.5283V60.5739V60.6195V60.665V60.7106V60.7562V60.8017V60.8473V60.8929V60.9385V60.984V61.0296V61.0752V61.1208V61.1664V61.2119V61.2575V61.3031V61.3487V61.3943V61.4399V61.4854V61.531V61.5766V61.6222V61.6678V61.7134V61.759V61.8046V61.8502V61.8958V61.9414V61.987V62.0326V62.0782V62.1238V62.1694V62.215V62.2606V62.3062V62.3518V62.3974V62.3992H12.6481H12.6424H12.6366H12.6308H12.6251H12.6193H12.6136H12.6078H12.602H12.5963H12.5905H12.5848H12.579H12.5733H12.5675H12.5617H12.556H12.5502H12.5445H12.5387H12.533H12.5272H12.5215H12.5157H12.5099H12.5042H12.4984H12.4927H12.4869H12.4812H12.4754H12.4697H12.4639H12.4582H12.4524H12.4467H12.4409H12.4352H12.4294H12.4237H12.4179H12.4122H12.4064H12.4007H12.3949H12.3892H12.3835H12.3777H12.372H12.3662H12.3605H12.3547H12.349H12.3432H12.3375H12.3317H12.326H12.3202H12.3145H12.3088H12.303H12.2973H12.2915H12.2858H12.28H12.2743H12.2685H12.2628H12.2571H12.2513H12.2456H12.2398H12.2341H12.2283H12.2226H12.2168H12.2111H12.2054H12.1996H12.1939H12.1881H12.1824H12.1766H12.1709H12.1652H12.1594H12.1537H12.1479H12.1422H12.1364H12.1307H12.1249H12.1192H12.1134H12.1077H12.102H12.0962H12.0905H12.0847H12.079H12.0732H12.0675H12.0617H12.056H12.0502H12.0445H12.0387H12.033H12.0272H12.0215H12.0157H12.01H12.0043H11.9985H11.9928H11.987H11.9813H11.9755H11.9698H11.964H11.9582H11.9525H11.9467H11.941H11.9352H11.9295H11.9237H11.918H11.9122H11.9065H11.9007H11.895H11.8892H11.8835H11.8777H11.8719H11.8662H11.8604H11.8547H11.8489H11.8431H11.8374H11.8316H11.8259H11.8201H11.8143H11.8086H11.8028H11.7971H11.7913H11.7855H11.7798H11.774H11.7682H11.7625H11.7567H11.7509H11.7452H11.7394H11.7336H11.7279H11.7221H11.7163H11.7105H11.7048H11.699H11.6932H11.6875H11.6817H11.6759H11.6701H11.6644H11.6586H11.6528H11.647H11.6412H11.6355H11.6297H11.6239H11.6181H11.6123H11.6066H11.6008H11.595H11.5892H11.5834H11.5776H11.5718H11.566H11.5603H11.5545H11.5487H11.5429H11.5371H11.5313H11.5255H11.5197H11.5139H11.5081H11.5023H11.4965H11.4907H11.4849H11.4791H11.4733H11.4675H11.4617H11.4559H11.4501H11.4443H11.4385H11.4327H11.4269H11.421H11.4152H11.4094H11.4036H11.3978H11.392H11.3862H11.3803H11.3745H11.3687H11.3629H11.3571H11.3512H11.3454H11.3396H11.3338H11.3279H11.3221H11.3163H11.3104H11.3046H11.2988H11.2929H11.2871H11.2813H11.2754H11.2696H11.2638H11.2579H11.2521H11.2462H11.2404H11.2345H11.2287H11.2229H11.217H11.2112H11.2053H11.1995H11.1936H11.1877H11.1819H11.176H11.1702H11.1643H11.1585H11.1526H11.1467H11.1409H11.135H11.1291H11.1233H11.1174H11.1115H11.1056H11.0998H11.0939H11.088H11.0821H11.0763H11.0704H11.0645H11.0586H11.0527H11.0468H11.0409H11.0351H11.0292H11.0233H11.0174H11.0115H11.0056H10.9997H10.9938H10.9879H10.982H10.9761H10.9702H10.9643H10.9584H10.9524H10.9465H10.9406H10.9347H10.9288H10.9229H10.917H10.911H10.9051H10.8992H10.8933H10.8873H10.8814H10.8755H10.8695H10.8636H10.8577H10.8517H10.8458H10.8399H10.8339H10.828H10.822H10.8161H10.8101H10.8042H10.7982H10.7923H10.7863H10.7804H10.7744H10.7684H10.7625H10.7565H10.7505H10.7446H10.7386H10.7326H10.7267H10.7207H10.7147H10.7087H10.7028H10.6968H10.6908H10.6848H10.6788H10.6728H10.6668H10.6608H10.6562Z" stroke="#2776EA"/>
<path d="M51.9793 11.9385H51.9838H51.9938H52.0038H52.0137H52.0237H52.0337H52.0437H52.0536H52.0636H52.0736H52.0835H52.0935H52.1034H52.1134H52.1233H52.1333H52.1432H52.1532H52.1631H52.173H52.183H52.1929H52.2028H52.2128H52.2227H52.2326H52.2425H52.2525H52.2624H52.2723H52.2822H52.2921H52.302H52.3119H52.3218H52.3317H52.3416H52.3515H52.3614H52.3713H52.3812H52.391H52.4009H52.4108H52.4207H52.4306H52.4404H52.4503H52.4602H52.47H52.4799H52.4898H52.4996H52.5095H52.5193H52.5292H52.539H52.5489H52.5587H52.5686H52.5784H52.5883H52.5981H52.6079H52.6178H52.6276H52.6374H52.6473H52.6571H52.6669H52.6767H52.6865H52.6964H52.7062H52.716H52.7258H52.7356H52.7454H52.7552H52.765H52.7748H52.7846H52.7944H52.8042H52.814H52.8238H52.8336H52.8434H52.8531H52.8629H52.8727H52.8825H52.8923H52.902H52.9118H52.9216H52.9314H52.9411H52.9509H52.9607H52.9704H52.9802H52.9899H52.9997H53.0095H53.0192H53.029H53.0387H53.0485H53.0582H53.0679H53.0777H53.0874H53.0972H53.1069H53.1166H53.1264H53.1361H53.1458H53.1556H53.1653H53.175H53.1848H53.1945H53.2042H53.2139H53.2236H53.2334H53.2431H53.2528H53.2625H53.2722H53.2819H53.2916H53.3013H53.311H53.3207H53.3304H53.3401H53.3498H53.3595H53.3692H53.3789H53.3886H53.3983H53.408H53.4177H53.4274H53.4371H53.4468H53.4564H53.4661H53.4758H53.4855H53.4952H53.5048H53.5145H53.5242H53.5339H53.5435H53.5532H53.5629H53.5725H53.5822H53.5919H53.6015H53.6112H53.6209H53.6305H53.6402H53.6498H53.6595H53.6691H53.6788H53.6885H53.6981H53.7078H53.7174H53.7271H53.7367H53.7464H53.756H53.7656H53.7753H53.7849H53.7946H53.8042H53.8138H53.8235H53.8331H53.8428H53.8524H53.862H53.8717H53.8813H53.8909H53.9006H53.9102H53.9198H53.9294H53.9391H53.9487H53.9583H53.9679H53.9776H53.9872H53.9968H54.0064H54.016H54.0257H54.0353H54.0449H54.0545H54.0641H54.0737H54.0834H54.093H54.1026H54.1122H54.1218H54.1314H54.141H54.1506H54.1602H54.1698H54.1795H54.1891H54.1987H54.2083H54.2179H54.2275H54.2371H54.2467H54.2563H54.2659H54.2755H54.2851H54.2947H54.3043H54.3139H54.3235H54.3331H54.3427H54.3523H54.3619H54.3714H54.381H54.3906H54.4002H54.4098H54.4194H54.429H54.4386H54.4482H54.4578H54.4674H54.477H54.4865H54.4961H54.5057H54.5153H54.5249H54.5345H54.5441H54.5536H54.5632H54.5728H54.5824H54.592H54.6016H54.6112H54.6207H54.6303H54.6399H54.6495H54.6591H54.6687H54.6782H54.6878H54.6974H54.707H54.7166H54.7261H54.7357H54.7453H54.7549H54.7645H54.774H54.7836H54.7932H54.8028H54.8124H54.8219H54.8315H54.8411H54.8507H54.8603H54.8698H54.8794H54.889H54.8986H54.9082H54.9177H54.9273H54.9369H54.9465H54.956H54.9656H54.9752H54.9848H54.9944H55.0039H55.0135H55.0231H55.0327H55.0423H55.0518H55.0614H55.071H55.0806H55.0902H55.0997H55.1093H55.1189H55.1285H55.1381H55.1476H55.1572H55.1668H55.1764H55.186H55.1955H55.2051H55.2147H55.2243H55.2339H55.2435H55.253H55.2626H55.2722H55.2818H55.2914H55.301H55.3106H55.3201H55.3297H55.3393H55.3489H55.3585H55.3681H55.3777H55.3873H55.3968H55.4064H55.416H55.4256H55.4352H55.4448H55.4544H55.464H55.4736H55.4832H55.4928H55.5023H55.5119H55.5215H55.5311H55.5407H55.5503H55.5599H55.5695H55.5791H55.5887H55.5983H55.6079H55.6175H55.6271H55.6367H55.6463H55.6559H55.6655H55.6751H55.6848H55.6944H55.704H55.7136H55.7232H55.7328H55.7424H55.752H55.7616H55.7712H55.7808H55.7905H55.8001H55.8097H55.8193H55.8289H55.8385H55.8482H55.8578H55.8674H55.877H55.8866H55.8963H55.9059H55.9155H55.9251H55.9348H55.9444H55.954H55.9562V11.9452V11.9627V11.9801V11.9976V12.0151V12.0325V12.05V12.0675V12.0849V12.1024V12.1198V12.1373V12.1548V12.1722V12.1897V12.2071V12.2246V12.2421V12.2595V12.277V12.2944V12.3119V12.3294V12.3468V12.3643V12.3817V12.3992V12.4166V12.4341V12.4516V12.469V12.4865V12.5039V12.5214V12.5388V12.5563V12.5737V12.5912V12.6086V12.6261V12.6436V12.661V12.6785V12.6959V12.7134V12.7308V12.7483V12.7657V12.7832V12.8006V12.8181V12.8355V12.853V12.8704V12.8879V12.9053V12.9228V12.9403V12.9577V12.9752V12.9926V13.0101V13.0275V13.045V13.0624V13.0799V13.0973V13.1148V13.1322V13.1497V13.1671V13.1846V13.2021V13.2195V13.237V13.2544V13.2719V13.2893V13.3068V13.3242V13.3417V13.3591V13.3766V13.3941V13.4115V13.429V13.4464V13.4639V13.4813V13.4988V13.5163V13.5337V13.5512V13.5686V13.5861V13.6035V13.621V13.6385V13.6559V13.6734V13.6909V13.7083V13.7258V13.7432V13.7607V13.7782V13.7956V13.8131V13.8306V13.848V13.8655V13.883V13.9004V13.9179V13.9354V13.9528V13.9703V13.9878V14.0052V14.0227V14.0402V14.0576V14.0751V14.0926V14.1101V14.1275V14.145V14.1625V14.18V14.1974V14.2149V14.2324V14.2499V14.2673V14.2848V14.3023V14.3198V14.3373V14.3547V14.3722V14.3897V14.4072V14.4247V14.4422V14.4597V14.4771V14.4946V14.5121V14.5296V14.5471V14.5646V14.5821V14.5996V14.6171V14.6346V14.6521V14.6696V14.6871V14.7046V14.7221V14.7396V14.7571V14.7746V14.7921V14.8096V14.8271V14.8446V14.8621V14.8796V14.8971V14.9146V14.9321V14.9496V14.9671V14.9846V15.0022V15.0197V15.0372V15.0547V15.0722V15.0898V15.1073V15.1248V15.1423V15.1598V15.1774V15.1949V15.2124V15.2299V15.2475V15.265V15.2825V15.3001V15.3176V15.3351V15.3527V15.3702V15.3878V15.4053V15.4228V15.4404V15.4579V15.4755V15.493V15.5106V15.5281V15.5457V15.5632V15.5808V15.5983V15.6159V15.6334V15.651V15.6686V15.6861V15.7037V15.7212V15.7388V15.7564V15.7739V15.7915V15.8091V15.8267V15.8442V15.8618V15.8794V15.897V15.9145V15.9321V15.9497V15.9673V15.9849V16.0025V16.02V16.0376V16.0552V16.0728V16.0904V16.108V16.1256V16.1432V16.1608V16.1784V16.196V16.2136V16.2312V16.2488V16.2665V16.2841V16.3017V16.3193V16.3369V16.3545V16.3722V16.3898V16.4074V16.425V16.4427V16.4603V16.4779V16.4955V16.5132V16.5308V16.5485V16.5661V16.5837V16.6014V16.619V16.6367V16.6543V16.672V16.6896V16.7073V16.7249V16.7426V16.7603V16.7779V16.7956V16.8133V16.8309V16.8486V16.8663V16.8839V16.9016V16.9193V16.937V16.9547V16.9723V16.99V17.0077V17.0254V17.0431V17.0608V17.0785V17.0962V17.1139V17.1316V17.1493V17.167V17.1847V17.2024V17.2201V17.2378V17.2556V17.2733V17.291V17.3087V17.3264V17.3442V17.3619V17.3796V17.3974V17.4151V17.4328V17.4506V17.4683V17.4861V17.5038V17.5216V17.5393V17.5571V17.5748V17.5926V17.6103V17.6281V17.6459V17.6636V17.6814V17.6992V17.717V17.7347V17.7525V17.7703V17.7881V17.8059V17.8237V17.8415V17.8592V17.877V17.8948V17.9126V17.9305V17.9483V17.9661V17.9839V18.0017V18.0195V18.0373V18.0551V18.073V18.0908V18.1086V18.1265V18.1443V18.1621V18.18V18.1978V18.2157V18.2335V18.2514V18.2692V18.2871V18.3049V18.3228V18.3406V18.3585V18.3764V18.3942V18.4121V18.43V18.4479V18.4658V18.4836V18.5015V18.5194V18.5373V18.5552V18.5731V18.591V18.6089V18.6268V18.6447V18.6626V18.6805V18.6985V18.7164V18.7343V18.7522V18.7702V18.7881V18.806V18.824V18.8419V18.8599V18.8778V18.8957V18.9137V18.9317V18.9496V18.9676V18.9855V19.0035V19.0215V19.0394V19.0574V19.0754V19.0934V19.1114V19.1294V19.1473V19.1653V19.1833V19.2013V19.2193V19.2373V19.2554V19.2734V19.2914V19.3094V19.3274V19.3455V19.3635V19.3815V19.3988C55.4592 18.972 54.9853 18.5642 54.5149 18.1505C54.2815 17.9452 54.0306 17.7522 53.7885 17.5693C53.742 17.5342 53.696 17.4995 53.6504 17.4652C53.4538 17.3173 53.2653 17.1755 53.0843 17.0291C52.6342 16.6649 52.2992 16.3245 52.1228 15.9481C51.9491 15.5761 51.9055 15.1053 51.9181 14.5285C51.923 14.3017 51.9359 14.0726 51.9493 13.8335C51.9528 13.7713 51.9564 13.7085 51.9598 13.6448C51.9762 13.3427 51.9901 13.0271 51.9826 12.7168C51.9771 12.4641 51.978 12.2149 51.9793 11.9385Z" stroke="#2776EA"/>
</svg>
