<svg width="70" height="70" viewBox="0 0 70 70" fill="none" xmlns="http://www.w3.org/2000/svg">
<path d="M40.8111 36.5306C41.4791 37.7854 42.0993 38.95 42.7195 40.1137C42.8396 40.3393 42.9642 40.5623 43.0806 40.7898C43.2467 41.1148 43.2639 41.4299 42.9633 41.6899C42.6509 41.9598 42.3286 41.9129 42.0172 41.6818C40.8472 40.8115 39.6781 39.9394 38.509 39.0674C37.46 38.2856 36.4173 37.4956 35.3575 36.7292C35.1914 36.6091 34.9485 36.5396 34.7418 36.5387C31.388 36.527 28.0334 36.5306 24.6796 36.5306C23.8373 36.5306 23.6676 36.3654 23.6667 35.5348C23.6658 30.9325 23.6658 26.3294 23.6667 21.7271C23.6667 20.9065 23.8581 20.7178 24.6733 20.7178C30.8247 20.7178 36.977 20.7178 43.1285 20.7178C43.9951 20.7178 44.1865 20.9101 44.1865 21.7776C44.1865 26.3501 44.1865 30.9226 44.1865 35.4951C44.1865 36.3428 44.0024 36.5279 43.1583 36.5297C42.409 36.5324 41.6606 36.5306 40.8111 36.5306ZM40.2577 38.6277C40.2812 38.6087 40.3055 38.5898 40.329 38.5708C39.9941 37.9416 39.6953 37.2898 39.317 36.6886C38.6129 35.5691 39.0868 35.0573 40.2297 35.1421C41.0621 35.2044 41.9025 35.1539 42.7484 35.1539C42.7484 30.7746 42.7484 26.4557 42.7484 22.1342C36.8335 22.1342 30.961 22.1342 25.0931 22.1342C25.0931 26.4864 25.0931 30.8071 25.0931 35.1539C25.298 35.1539 25.4614 35.1539 25.6257 35.1539C28.1372 35.1539 30.6532 35.2496 33.1575 35.1214C34.8835 35.0329 36.3027 35.4184 37.5756 36.6073C38.3881 37.3674 39.3585 37.9597 40.2577 38.6277Z" fill="#2776EA"/>
<path d="M54.3092 57.0004C50.3686 57.0004 46.4272 57.0004 42.4866 57.0004C41.6651 57.0004 41.4746 56.8117 41.4746 55.9983C41.4746 54.8554 41.4692 53.7116 41.4764 52.5687C41.508 47.516 45.7293 43.2965 50.7875 43.2694C53.0742 43.2567 55.36 43.2658 57.6467 43.2667C62.9026 43.2703 67.0779 47.3733 67.17 52.6337C67.1898 53.7766 67.1808 54.9204 67.1763 56.0633C67.1736 56.781 66.9461 56.9995 66.223 56.9995C62.2517 57.0004 58.2805 57.0004 54.3092 57.0004ZM65.7833 55.5822C65.7833 54.6063 65.7878 53.6602 65.7824 52.715C65.7581 48.2544 62.184 44.6714 57.7189 44.6452C55.4485 44.6316 53.178 44.6244 50.9076 44.6479C48.5279 44.6723 46.5373 45.5949 44.9214 47.3408C42.7304 49.7079 42.7114 52.6058 42.8947 55.5831C50.5194 55.5822 58.1342 55.5822 65.7833 55.5822Z" fill="#2776EA"/>
<path d="M13.6584 56.9993C9.7025 56.9984 5.74659 56.9993 1.79068 56.9984C1.03597 56.9984 0.812081 56.7953 0.82472 56.0379C0.852705 54.4156 0.758818 52.7735 0.977287 51.1756C1.58394 46.7349 5.62381 43.2926 10.1015 43.2683C12.4785 43.2556 14.8546 43.2556 17.2316 43.2683C22.2004 43.2944 26.4127 47.4435 26.5129 52.4124C26.5381 53.6455 26.5219 54.8787 26.5201 56.1128C26.5192 56.7718 26.289 56.9984 25.6182 56.9993C21.6307 57.0011 17.6441 57.0002 13.6584 56.9993ZM2.20956 55.572C9.89118 55.572 17.5042 55.572 25.1434 55.572C25.1434 54.6007 25.1461 53.669 25.1425 52.7374C25.1271 48.2642 21.517 44.6504 17.0492 44.6414C14.7941 44.6369 12.5372 44.5917 10.283 44.6531C6.7947 44.7479 4.31571 46.4388 2.8442 49.5957C1.95498 51.5051 2.26102 53.5426 2.20956 55.572Z" fill="#2776EA"/>
<path d="M13.6952 27.8311C17.42 27.8374 20.4533 30.8644 20.4479 34.5693C20.4425 38.3591 17.3938 41.3915 13.6067 41.3725C9.88916 41.3545 6.8974 38.2968 6.90823 34.5278C6.91907 30.8201 9.95506 27.8247 13.6952 27.8311ZM13.6934 39.9714C16.659 39.9615 19.0621 37.5602 19.0585 34.6081C19.0558 31.6254 16.6445 29.206 13.6754 29.206C10.7071 29.206 8.27863 31.6353 8.28134 34.6027C8.28495 37.5719 10.7134 39.9805 13.6934 39.9714Z" fill="#2776EA"/>
<path d="M54.3445 27.8291C58.0883 27.8336 61.0972 30.8615 61.0864 34.617C61.0765 38.3598 58.0414 41.3796 54.2976 41.3715C50.5701 41.3633 47.5431 38.3147 47.5449 34.57C47.5467 30.838 50.5854 27.8246 54.3445 27.8291ZM54.3346 39.9704C57.2984 39.9605 59.7115 37.5564 59.7124 34.6134C59.7133 31.6189 57.2785 29.1923 54.285 29.204C51.3438 29.2158 48.9171 31.6604 48.9343 34.5944C48.9523 37.5907 51.3528 39.9812 54.3346 39.9704Z" fill="#2776EA"/>
<path d="M33.8984 27.6581C32.8304 27.6581 31.7625 27.6599 30.6945 27.6572C30.1375 27.6563 29.8324 27.4044 29.836 26.9585C29.8396 26.5197 30.1131 26.2751 30.6584 26.2742C32.8395 26.2678 35.0196 26.2678 37.2007 26.2751C37.6873 26.2769 37.9762 26.554 37.9735 26.9675C37.9708 27.3782 37.6729 27.6518 37.1917 27.6545C36.0939 27.6617 34.9962 27.6563 33.8975 27.6563C33.8984 27.6572 33.8984 27.6581 33.8984 27.6581Z" fill="#2776EA"/>
<path d="M33.8657 30.1979C32.7977 30.1979 31.7298 30.2006 30.6609 30.1969C30.1391 30.1951 29.8394 29.9442 29.8322 29.5172C29.8249 29.0956 30.1283 28.8266 30.6455 28.8257C32.8266 28.8211 35.0086 28.8211 37.1897 28.8257C37.6817 28.8266 37.9679 29.0847 37.9733 29.5018C37.9787 29.9361 37.6835 30.1942 37.1599 30.196C36.0621 30.2006 34.9635 30.1979 33.8657 30.1979Z" fill="#2776EA"/>
</svg>
