<svg width="64" height="64" viewBox="0 0 64 64" fill="none" xmlns="http://www.w3.org/2000/svg">
<path d="M51.3141 23.1185C53.4942 22.8445 53.4942 22.8445 54.2209 24.5512C61.4629 41.5309 50.5916 60.9938 32.3993 63.6099C16.9809 65.8274 2.71284 55.4959 0.350042 40.0443C-2.14563 23.7207 9.00393 9.90518 24.2188 7.69603C29.9369 6.86552 35.5054 7.67111 40.8165 10.3703C40.8622 10.69 40.9245 11.0181 40.9494 11.3544C40.9743 11.6908 40.9535 12.0271 40.9535 12.6708C32.8893 8.77154 24.904 8.31476 16.9145 12.106C11.4124 14.7138 7.35122 18.8373 4.68529 24.3186C-0.322669 34.6128 1.93631 47.9383 11.7986 55.9817C20.93 63.4272 34.3842 63.7345 43.9184 56.5631C53.0582 49.6948 57.8668 36.6475 51.3141 23.1185Z" fill="#0274BA"/>
<path d="M38.7616 20.2658C38.3381 20.7101 37.9228 21.1461 37.4204 21.6693C33.0685 19.0698 28.4592 18.1936 23.5467 19.6512C19.6184 20.818 16.5248 23.1393 14.2783 26.5652C9.82676 33.3546 10.8773 42.1081 16.7947 47.7472C22.6166 53.295 31.6276 53.8764 38.0972 49.0885C44.0104 44.7076 47.6937 35.8876 42.2082 26.3492C42.6318 25.9755 43.0969 25.5685 43.562 25.1574C48.5118 31.1496 48.3872 42.2991 41.3404 49.0968C34.1191 56.0606 22.7411 56.2226 15.4534 49.3792C8.10345 42.4735 7.45981 31.0956 13.8755 23.5338C20.4448 15.7852 31.856 14.9837 38.7616 20.2658Z" fill="#0274BA"/>
<path d="M55.57 8.40196C57.4511 8.40196 59.162 8.40196 60.8728 8.40196C61.5621 8.40196 62.2639 8.35213 62.9449 8.43103C64.0329 8.56391 64.2986 9.25323 63.6509 10.1668C63.4515 10.445 63.1899 10.6775 62.9449 10.9225C60.1129 13.7587 57.2559 16.5741 54.453 19.4436C53.7221 20.191 52.9622 20.5606 51.9033 20.5108C50.3171 20.436 48.7142 20.6104 47.1362 20.4609C45.4503 20.299 44.3291 20.9592 43.183 22.1344C38.8478 26.5942 34.4087 30.9585 30.007 35.3561C29.6665 35.6966 29.3675 36.17 28.9523 36.3319C28.5246 36.498 27.9806 36.3485 27.4864 36.3402C27.5072 35.8461 27.3909 35.2855 27.5861 34.8744C27.8145 34.401 28.3169 34.0605 28.7114 33.6701C33.2086 29.1729 37.6809 24.6508 42.2196 20.1952C43.0875 19.3439 43.536 18.4968 43.3948 17.2967C43.3283 16.7527 43.4612 16.1797 43.3699 15.6398C42.7678 11.9731 44.026 9.17848 46.9369 6.84891C49.0298 5.17129 50.7905 3.08671 52.7006 1.18485C52.9954 0.894173 53.2529 0.524597 53.6017 0.337733C53.9838 0.134259 54.5526 -0.102435 54.8599 0.047056C55.1755 0.2007 55.4247 0.798665 55.4371 1.20977C55.4994 3.00366 55.462 4.80586 55.4745 6.59976C55.4828 7.0773 55.5243 7.55484 55.57 8.40196ZM45.4752 18.4096C47.5556 18.4096 49.3412 18.3597 51.1227 18.4303C52.111 18.4677 52.8044 18.123 53.473 17.4296C55.3416 15.4945 57.2726 13.6217 59.1578 11.7032C59.4526 11.4042 59.6603 11.0139 60.0423 10.4741C59.0042 10.4741 58.2484 10.4741 57.4926 10.4741C56.7327 10.4741 55.9728 10.499 55.2171 10.4699C53.7055 10.4118 53.4439 10.1626 53.4107 8.62204C53.3775 7.0856 53.4024 5.54917 53.4024 4.01688C53.2488 3.9629 53.091 3.90891 52.9373 3.85493C50.5828 6.25094 48.2159 8.6345 45.8863 11.0554C45.633 11.317 45.496 11.7904 45.4918 12.1683C45.4544 14.1574 45.4752 16.1464 45.4752 18.4096Z" fill="#0274BA"/>
<path d="M31.7424 27.242C31.269 27.7528 30.8205 28.2345 30.4136 28.6705C26.3815 27.9936 23.3252 29.3681 21.7722 32.4784C20.3478 35.3312 20.9292 38.5826 23.2671 40.8333C25.5759 43.059 28.9021 43.4909 31.6843 41.9669C33.9557 40.7211 36.2479 37.5901 35.1309 33.4334C35.5337 33.0514 36.0278 32.5863 36.5303 32.1129C38.5318 34.6169 37.5227 40.1896 34.0637 42.9054C30.4219 45.7623 25.2811 45.6128 21.9217 42.4611C18.5124 39.2636 17.9394 34.2224 20.5513 30.3855C23.0345 26.7437 27.7601 25.3734 31.7424 27.242Z" fill="#0274BA"/>
</svg>
