<svg width="54" height="55" viewBox="0 0 54 55" fill="none" xmlns="http://www.w3.org/2000/svg">
<path d="M19.4204 4.68865L11.7783 5.80336C11.7668 5.1828 11.2612 4.67716 10.6291 4.67716C9.99709 4.67716 9.47996 5.19429 9.47996 5.82634V17.8697C9.47996 21.7999 5.72214 23.7536 5.56125 23.834C4.99815 24.1213 4.76832 24.8108 5.05561 25.3739C5.26246 25.7761 5.66468 26.0059 6.08987 26.0059C6.26225 26.0059 6.43463 25.9715 6.60701 25.8795C6.81386 25.7761 11.5944 23.3169 11.7783 18.157H16.2142C16.8462 18.157 17.3633 17.6399 17.3633 17.0079C17.3633 16.3758 16.8462 15.8587 16.2142 15.8587H11.7898V13.6408H16.2142C16.8462 13.6408 17.3633 13.1236 17.3633 12.4916C17.3633 11.8595 16.8462 11.3424 16.2142 11.3424H11.7898V8.11321L18.4436 7.1479V22.6159C18.4436 22.7423 18.3746 22.8112 18.3172 22.8457C18.2597 22.8802 18.1678 22.9146 18.0528 22.8572L15.6051 21.6965C15.0305 21.4322 14.341 21.6735 14.0767 22.2481C13.8009 22.8227 14.0537 23.5122 14.6283 23.7765L17.076 24.9372C17.4323 25.0981 17.8 25.19 18.1792 25.19C18.6619 25.19 19.1331 25.0521 19.5468 24.7878C20.2937 24.3166 20.7419 23.5007 20.7419 22.6159V5.82634C20.7419 5.49308 20.5925 5.17131 20.3397 4.95297C20.0869 4.73462 19.7536 4.64269 19.4204 4.68865Z" fill="#0274BA"/>
<path d="M15.0887 29.5339L11.9974 35.3258L8.90614 29.5339C8.71078 29.1547 8.32006 28.9249 7.89487 28.9249H6.15961C4.03362 28.9249 2.29836 27.1896 2.29836 25.0636V6.15961C2.29836 4.03362 4.03362 2.29836 6.15961 2.29836H28.5226C30.6486 2.29836 32.3839 4.03362 32.3839 6.15961V13.6063H34.6823V6.15961C34.6823 2.76952 31.9242 0 28.5226 0H6.15961C2.76952 0 0 2.75803 0 6.15961V25.0751C0 28.4652 2.75803 31.2347 6.15961 31.2347H7.20536L10.9862 38.3251C11.1815 38.7044 11.5722 38.9342 11.9974 38.9342C12.4226 38.9342 12.8134 38.7044 13.0087 38.3251L16.7895 31.2347H19.7199V28.9364H16.1C15.6748 28.9249 15.2841 29.1547 15.0887 29.5339Z" fill="#0274BA"/>
<path d="M35.3379 33.4296H40.6816L38.0155 25.8221L35.3379 33.4296Z" fill="#0274BA"/>
<path d="M47.8509 15.9046H28.1655C24.7754 15.9046 22.0059 18.6627 22.0059 22.0643V40.9798C22.0059 44.3698 24.7639 47.1394 28.1655 47.1394H37.6577L41.0018 53.4139C41.1972 53.7931 41.5879 54.0229 42.0131 54.0229C42.4383 54.0229 42.829 53.7931 43.0244 53.4139L46.3685 47.1394H47.8394C51.2295 47.1394 53.999 44.3813 53.999 40.9798V22.0528C54.0105 18.6627 51.2525 15.9046 47.8509 15.9046ZM44.8286 41.7497C44.7022 41.7957 44.5758 41.8187 44.4493 41.8187C43.9782 41.8187 43.53 41.5199 43.3691 41.0487L41.496 35.7165H34.5319L32.6588 41.0372C32.4519 41.6348 31.7969 41.9566 31.1993 41.7382C30.6017 41.5314 30.2914 40.8763 30.4983 40.2788L36.9337 21.9723C37.0946 21.5126 37.5313 21.2024 38.0139 21.2024C38.4966 21.2024 38.9333 21.5126 39.0942 21.9723L45.5296 40.2788C45.7479 40.8878 45.4261 41.5429 44.8286 41.7497Z" fill="#0274BA"/>
</svg>
