<svg width="64" height="82" viewBox="0 0 64 82" fill="none" xmlns="http://www.w3.org/2000/svg">
<path d="M39.68 81.92C28.3424 81.92 19.12 72.6976 19.12 61.36V44.4896C19.12 41.5696 21.496 39.1936 24.416 39.1936C25.4176 39.1936 26.3536 39.472 27.152 39.9568V26.816C27.152 23.896 29.528 21.52 32.448 21.52C35.368 21.52 37.744 23.896 37.744 26.816V31.12C38.5424 30.6352 39.48 30.3568 40.48 30.3568C42.9776 30.3568 45.0768 32.0944 45.632 34.424C46.4624 33.8848 47.4512 33.5696 48.5136 33.5696C51.4336 33.5696 53.8096 35.9456 53.8096 38.8656V40.4336C54.3952 40.1536 55.0512 39.9968 55.7424 39.9968C58.2192 39.9968 60.2352 42.0128 60.2352 44.4896V61.36C60.24 72.6976 51.0176 81.92 39.68 81.92ZM24.416 41.7536C22.9072 41.7536 21.68 42.9808 21.68 44.4896V61.36C21.68 71.2848 29.7552 79.36 39.68 79.36C49.6048 79.36 57.68 71.2848 57.68 61.36V44.4896C57.68 43.424 56.8128 42.5568 55.7472 42.5568C54.6816 42.5568 53.8144 43.424 53.8144 44.4896V52.5232C53.8144 53.2304 53.2416 53.8032 52.5344 53.8032C51.8272 53.8032 51.2544 53.2304 51.2544 52.5232V38.8672C51.2544 37.3584 50.0272 36.1312 48.5184 36.1312C47.0096 36.1312 45.7824 37.3584 45.7824 38.8672V49.3104C45.7824 50.0176 45.2096 50.5904 44.5024 50.5904C43.7952 50.5904 43.2224 50.0176 43.2224 49.3104V35.6544C43.2224 34.1456 41.9952 32.9184 40.4864 32.9184C38.9776 32.9184 37.7504 34.1456 37.7504 35.6544V47.704C37.7504 48.4112 37.1776 48.984 36.4704 48.984C35.7632 48.984 35.1904 48.4112 35.1904 47.704V26.816C35.1904 25.3072 33.9632 24.08 32.4544 24.08C30.9456 24.08 29.7184 25.3072 29.7184 26.816V47.7024C29.7184 48.4096 29.1456 48.9824 28.4384 48.9824C27.7312 48.9824 27.1584 48.4096 27.1584 47.7024V44.4896C27.1536 42.9808 25.9264 41.7536 24.416 41.7536ZM28.4352 38.0432C28.352 38.0432 28.2656 38.0352 28.1808 38.0176C19.2688 36.2208 12.8 28.3072 12.8 19.2C12.8 8.6128 21.4128 0 32 0C42.5872 0 51.2 8.6128 51.2 19.2C51.2 24.912 48.6816 30.288 44.2912 33.952C43.7488 34.4048 42.9408 34.3328 42.488 33.7888C42.0352 33.2464 42.1072 32.4384 42.6512 31.9856C46.4576 28.8112 48.64 24.1504 48.64 19.2C48.64 10.024 41.176 2.56 32 2.56C22.824 2.56 15.36 10.024 15.36 19.2C15.36 27.0928 20.9648 33.952 28.6864 35.5088C29.3792 35.648 29.8272 36.3232 29.688 37.016C29.5664 37.624 29.032 38.0432 28.4352 38.0432ZM28.4336 28.7008C28.264 28.7008 28.0912 28.6672 27.9248 28.5952C24.1792 26.9696 21.76 23.2816 21.76 19.2C21.76 13.5536 26.3536 8.96 32 8.96C37.6464 8.96 42.24 13.5536 42.24 19.2C42.24 22.8512 40.272 26.2528 37.1056 28.0768C36.4928 28.4304 35.7104 28.2192 35.3584 27.6064C35.0064 26.9936 35.216 26.2112 35.8288 25.8576C38.2032 24.4896 39.68 21.9392 39.68 19.2C39.68 14.9648 36.2352 11.52 32 11.52C27.7648 11.52 24.32 14.9648 24.32 19.2C24.32 22.2624 26.1344 25.0272 28.944 26.2464C29.592 26.528 29.8896 27.2816 29.608 27.9296C29.3984 28.4128 28.928 28.7008 28.4336 28.7008ZM54.5744 25.536C54.2464 25.536 53.9184 25.4112 53.6688 25.1616C53.1696 24.6624 53.1696 23.8512 53.6688 23.352C55.12 21.9008 55.9184 19.9728 55.9184 17.9216C55.9184 15.8704 55.12 13.9408 53.6688 12.4912C53.1696 11.992 53.1696 11.1808 53.6688 10.6816C54.168 10.1824 54.9792 10.1824 55.4784 10.6816C57.4128 12.616 58.4768 15.1872 58.4768 17.9232C58.4768 20.6592 57.4112 23.2304 55.4784 25.1648C55.2288 25.4112 54.9024 25.536 54.5744 25.536ZM58.4784 29.44C58.1504 29.44 57.8224 29.3152 57.5728 29.0656C57.0736 28.5664 57.0736 27.7552 57.5728 27.256C60.0672 24.7616 61.44 21.4464 61.44 17.92C61.44 14.3936 60.0672 11.0784 57.5728 8.5856C57.0736 8.0864 57.0736 7.2752 57.5728 6.776C58.072 6.2768 58.8832 6.2768 59.3824 6.776C62.36 9.752 64 13.7104 64 17.92C64 22.1296 62.36 26.088 59.384 29.0656C59.1328 29.3152 58.8064 29.44 58.4784 29.44ZM9.4256 25.536C9.0976 25.536 8.7696 25.4112 8.52 25.1616C4.528 21.1696 4.528 14.672 8.52 10.68C9.0192 10.1808 9.8304 10.1808 10.3296 10.68C10.8288 11.1792 10.8288 11.9904 10.3296 12.4896C7.336 15.4832 7.336 20.3568 10.3296 23.3504C10.8288 23.8496 10.8288 24.6608 10.3296 25.16C10.0816 25.4112 9.7536 25.536 9.4256 25.536ZM5.5216 29.44C5.1936 29.44 4.8656 29.3152 4.616 29.0656C1.64 26.088 0 22.1296 0 17.92C0 13.7104 1.64 9.752 4.616 6.7744C5.1152 6.2752 5.9264 6.2752 6.4256 6.7744C6.9248 7.2736 6.9248 8.0848 6.4256 8.584C1.2784 13.7312 1.2784 22.1072 6.4256 27.2544C6.9248 27.7536 6.9248 28.5648 6.4256 29.064C6.176 29.3152 5.8496 29.44 5.5216 29.44Z" fill="#0274BA"/>
</svg>
