<svg width="65" height="66" viewBox="0 0 65 66" fill="none" xmlns="http://www.w3.org/2000/svg">
<path d="M21.1491 58.7131C20.8396 58.7131 20.5743 58.7131 20.3178 58.7131C18.2572 58.7131 16.2055 58.7131 14.1449 58.7131C12.8538 58.7131 12.5354 58.2886 12.6769 57.0239C12.9157 54.7334 14.9586 52.7878 17.1164 52.5844C17.4171 52.5579 17.7178 52.4871 18.0892 52.4341C18.6287 50.3735 19.1593 48.3129 19.6457 46.1551C19.2831 46.1374 19.009 46.1108 18.7348 46.1108C14.3395 46.1108 9.93536 46.1108 5.54006 46.1108C4.28426 46.1108 3.1169 45.8278 2.09103 45.0496C0.711423 43.9884 0.0746798 42.5645 0.00393052 40.8577C-0.00491314 40.7251 0.00393052 40.5924 0.00393052 40.4597C0.00393052 28.8657 0.00393052 17.2717 0.00393052 5.67763C0.00393052 5.3062 0.0481488 4.93476 0.0835235 4.57217C0.278084 2.27282 2.30328 0.0442183 5.31897 0C5.46931 0 5.6285 0 5.77884 0C20.8131 0 35.8384 -8.2363e-09 50.8727 0.00884365C51.4387 0.00884365 52.0135 0.0530619 52.5618 0.168029C54.587 0.574838 56.1965 2.28166 56.5061 4.33339C56.5768 4.82864 56.621 5.33273 56.621 5.83682C56.6299 15.0519 56.6299 24.2582 56.6299 33.4733C56.6299 33.7739 56.6299 34.0835 56.6299 34.4195C57.8326 35.4896 57.6734 36.94 57.6911 38.3373C57.868 38.4434 58.0183 38.5407 58.1687 38.6203C60.8306 39.938 62.3959 42.0604 62.9177 44.9789C63.5456 48.4898 64.2089 51.983 64.8545 55.494C65.5178 59.0845 63.8728 62.5247 60.751 64.1077C57.753 65.6376 54.8258 65.337 52.1108 63.3206C51.1645 62.6131 50.4747 61.6934 49.9352 60.6498C49.7407 60.2784 49.5815 59.8981 49.3869 59.5267C48.0073 56.9797 45.876 55.5912 42.9664 55.6178C40.0834 55.6355 37.9786 57.0239 36.6344 59.562C36.4575 59.8893 36.316 60.2342 36.148 60.5614C34.8037 63.0907 32.7608 64.6118 29.8778 64.9567C26.1635 65.3989 22.6879 63.126 21.494 59.7035C21.3791 59.3763 21.2818 59.0933 21.1491 58.7131ZM54.5693 33.544C54.587 33.1903 54.6135 32.8896 54.6135 32.5889C54.6135 23.6214 54.6135 14.6451 54.6135 5.67763C54.6135 5.45654 54.6224 5.23545 54.6047 5.0232C54.5339 4.03271 54.136 3.21909 53.3135 2.62657C52.6502 2.14017 51.8985 1.99867 51.0849 1.99867C35.9446 1.99867 20.8042 1.99867 5.66387 1.99867C5.487 1.99867 5.31013 1.99867 5.1421 1.99867C3.73595 2.03404 2.55975 2.90072 2.16178 4.2538C2.03797 4.66061 2.02029 5.11164 2.02029 5.54497C2.01144 11.5144 2.01144 17.4928 2.01144 23.4622C2.01144 29.1752 2.01144 34.8794 2.01144 40.5924C2.01144 40.9373 2.01144 41.2999 2.09103 41.6359C2.50669 43.3605 4.05433 44.1122 5.31013 44.1033C11.0673 44.0768 16.8157 44.0945 22.573 44.0945C22.7852 44.0945 22.9974 44.068 23.2716 44.0591C24.0498 41.353 25.7655 39.4781 28.3479 38.3461C28.3479 37.8066 28.339 37.3026 28.3479 36.8073C28.3832 34.9501 29.7009 33.6413 31.5581 33.6059C32.1241 33.5971 32.6989 33.5971 33.2649 33.6059C35.3344 33.6147 36.6344 34.9059 36.6609 36.9577C36.6609 37.2141 36.6874 37.4706 36.7051 37.7005C37.4126 37.8597 41.4099 37.842 41.9052 37.6917C41.8963 37.0815 41.5868 36.7454 40.9766 36.6747C40.561 36.6304 40.1453 36.6393 39.7385 36.542C37.9432 36.1352 37.2004 33.8889 38.3854 32.4739C38.9426 31.8018 39.6677 31.5188 40.5256 31.5011C41.3127 31.4923 42.0998 31.4657 42.8868 31.5011C44.125 31.563 45.2304 30.4929 45.1508 29.2283C45.1331 28.9541 45.1685 28.68 45.1862 28.3705C45.876 28.3528 46.4951 28.3174 47.1495 28.397C47.1495 28.8303 47.176 29.1752 47.1495 29.5201C46.9549 31.8018 45.3896 33.2168 43.6209 33.4202C42.7365 33.5175 41.8344 33.4909 40.9412 33.5175C40.7201 33.5263 40.4991 33.5086 40.2868 33.544C39.9861 33.5882 39.8269 33.8005 39.8358 34.0923C39.8358 34.3841 39.995 34.5787 40.3045 34.6318C40.499 34.6583 40.6936 34.6495 40.897 34.6583C42.427 34.7202 43.5501 35.6311 43.9215 37.0992C43.9746 37.3114 44.0365 37.5148 44.0896 37.7005C44.744 37.842 48.7325 37.8332 49.3427 37.674C49.3162 36.4801 49.4311 35.2862 50.3597 34.4461C50.5012 33.1726 50.4393 6.80077 50.3067 6.30553C49.6876 6.14634 6.84008 6.16403 6.30946 6.31437C6.15912 6.94227 6.17681 35.0828 6.34483 35.6576C6.62783 35.6665 6.92852 35.693 7.2292 35.693C13.2429 35.693 19.2654 35.693 25.2791 35.693C25.5533 35.693 25.8363 35.7107 26.1546 35.7284C26.1723 36.4182 26.2077 37.0372 26.1281 37.7094C25.8451 37.7094 25.624 37.7094 25.4118 37.7094C18.8675 37.7094 12.332 37.7094 5.78768 37.7094C4.52304 37.7094 4.21351 37.391 4.21351 36.1087C4.21351 26.0004 4.21351 15.8921 4.21351 5.78375C4.21351 4.50142 4.52304 4.1919 5.79653 4.1919C20.8042 4.1919 35.8119 4.1919 50.8196 4.1919C50.9965 4.1919 51.1733 4.18305 51.3414 4.20074C52.0135 4.26264 52.3672 4.62523 52.4203 5.29735C52.438 5.53613 52.4291 5.77491 52.4291 6.02253C52.4291 14.8839 52.4291 23.7452 52.4291 32.6066C52.4291 32.9073 52.4557 33.2079 52.4734 33.544C53.172 33.544 53.8176 33.544 54.5693 33.544ZM42.993 39.8053C39.2079 39.8053 35.4228 39.8053 31.6377 39.8053C31.2044 39.8053 30.7533 39.7965 30.3288 39.8672C27.6669 40.3182 25.6152 42.3523 25.1199 45.0231C24.4743 48.5075 23.8199 51.983 23.192 55.4674C23.0947 56.0246 23.0328 56.5906 23.024 57.1566C22.9798 60.4641 26.1281 63.6567 30.1431 62.8784C32.2744 62.4628 33.7513 61.1716 34.5826 59.1729C36.0949 55.547 39.9507 53.0885 44.1426 53.6368C46.1236 53.8933 47.8216 54.698 49.2808 56.0511C50.2359 56.9443 50.9523 58.0144 51.4563 59.2171C52.5353 61.8172 55.0115 63.0288 57.1693 63.0022C60.3531 62.958 63.0681 60.2076 63.0062 57.1124C62.9885 56.5021 62.9089 55.8919 62.8028 55.2906C62.2191 52.0449 61.6089 48.7993 61.0252 45.5537C60.7952 44.2625 60.3884 43.0509 59.5041 42.0516C58.1864 40.557 56.5591 39.7788 54.5428 39.7876C50.6869 39.823 46.84 39.8053 42.993 39.8053ZM21.326 54.5654C21.0784 54.5388 20.9546 54.5123 20.8307 54.5123C19.7784 54.5123 18.7348 54.5035 17.6824 54.5212C16.7538 54.5388 16.0021 54.9457 15.3831 55.6178C15.1354 55.8919 14.9232 56.1926 14.879 56.5817C15.3831 56.7321 20.3267 56.7498 21.0165 56.5906C21.1137 55.9538 21.211 55.2994 21.326 54.5654ZM30.3996 37.7801C31.7792 37.7801 33.0438 37.7801 34.3085 37.7713C34.4058 37.7713 34.503 37.7005 34.6445 37.6563C34.6445 37.3026 34.6622 36.9488 34.6357 36.6039C34.5915 36.0556 34.2201 35.6399 33.6806 35.6223C32.8935 35.5869 32.1064 35.5957 31.3282 35.6223C30.8683 35.6399 30.4615 35.9848 30.4084 36.4182C30.3554 36.8692 30.3996 37.3202 30.3996 37.7801ZM51.4033 37.789C52.8802 37.789 54.2333 37.789 55.6571 37.789C55.6571 37.3468 55.6836 36.9577 55.6482 36.5685C55.604 36.0291 55.2149 35.6399 54.6577 35.6134C53.8972 35.5869 53.1278 35.5869 52.3672 35.6134C51.872 35.6311 51.474 35.9848 51.4121 36.4536C51.3591 36.8604 51.4033 37.276 51.4033 37.789ZM21.8036 46.1462C21.441 46.9775 20.2559 51.9123 20.2824 52.4429C20.7423 52.5225 21.211 52.549 21.6621 52.4252C21.9362 51.7531 22.8383 46.7034 22.7764 46.1551C22.4668 46.1462 22.1485 46.1462 21.8036 46.1462Z" fill="#2776EA"/>
<path d="M28.3298 29.3078C23.6691 29.3078 19.0085 29.3078 14.3479 29.3078C14.1091 29.3078 13.8615 29.3166 13.6227 29.2901C13.0214 29.2193 12.6853 28.8744 12.6146 28.2642C12.5969 28.0697 12.5969 27.8751 12.5969 27.6717C12.5969 22.4893 12.6146 17.2981 12.588 12.1157C12.5792 10.8953 12.9772 10.4708 14.2153 10.4796C23.6249 10.4973 33.0346 10.4885 42.4354 10.4885C43.7089 10.4885 44.0184 10.8068 44.0184 12.0892C44.0184 17.2981 44.0184 22.507 44.0184 27.7071C44.0184 28.9894 43.7089 29.2989 42.4354 29.3078C37.7394 29.3078 33.0346 29.3078 28.3298 29.3078ZM41.9667 12.5048C41.6218 12.5048 41.3653 12.5048 41.1088 12.5048C38.8979 12.5048 36.687 12.5048 34.4849 12.5048C28.1883 12.5048 21.8827 12.5048 15.586 12.5048C15.2854 12.5048 14.9935 12.5402 14.6663 12.5579C14.6486 12.8144 14.6221 13.0089 14.6221 13.2035C14.6221 17.6695 14.6221 22.1267 14.6221 26.5928C14.6221 26.805 14.6575 27.0084 14.684 27.2914C15.0024 27.2914 15.2588 27.2914 15.5153 27.2914C17.7262 27.2914 19.9371 27.2914 22.1392 27.2914C28.4359 27.2914 34.7414 27.2914 41.0381 27.2914C41.3388 27.2914 41.6306 27.2561 41.9667 27.2384C41.9667 22.3213 41.9667 17.475 41.9667 12.5048Z" fill="#2776EA"/>
<path d="M49.6257 51.0983C48.2373 51.4962 47.0434 51.3901 46.0617 50.4085C45.4604 49.8071 45.1508 49.0554 45.1774 48.2152C45.2127 47.1275 45.6814 46.2431 46.6277 45.6417C47.5386 45.0669 48.5114 45.058 49.6346 45.4383C49.3693 44.4567 49.2366 43.6165 49.6434 42.8117C49.8203 42.4668 50.0414 42.1219 50.3155 41.8566C50.5897 41.5913 50.9346 41.3614 51.2883 41.211C51.6686 41.0607 52.0931 40.9457 52.4911 40.9546C53.5788 40.99 54.4632 41.4587 55.0734 42.3961C55.6571 43.307 55.6217 44.2886 55.3033 45.4029C56.3911 45.0934 57.3462 45.0492 58.2483 45.5975C58.7258 45.8893 59.1503 46.2608 59.3626 46.7737C59.5571 47.2513 59.7517 47.773 59.7517 48.2771C59.7429 49.3649 59.2565 50.2493 58.319 50.8595C57.4081 51.4432 56.4265 51.4078 55.3122 51.0983C55.6129 52.186 55.6659 53.1411 55.1176 54.0432C54.8258 54.5208 54.4544 54.9452 53.9414 55.1575C53.4639 55.3521 52.9421 55.5466 52.438 55.5378C51.3502 55.5289 50.4659 55.0514 49.8557 54.1051C49.272 53.1854 49.3073 52.2037 49.6257 51.0983ZM53.8441 46.924C53.2958 47.0125 52.8979 47.1275 52.4911 47.1275C52.0666 47.1275 51.6421 47.0125 51.1645 46.9417C51.2353 47.4281 51.3502 47.8526 51.3502 48.2683C51.3502 48.6839 51.2353 49.0996 51.1645 49.5506C51.6686 49.471 52.0754 49.3561 52.4734 49.3561C52.889 49.3561 53.3047 49.471 53.8618 49.5595C53.4816 48.6663 53.5258 47.8526 53.8441 46.924ZM52.4645 45.1376C53.0836 45.1376 53.5435 44.6866 53.5523 44.0675C53.5611 43.422 53.0747 42.9444 52.438 42.9621C51.8278 42.9798 51.3768 43.4485 51.3856 44.0587C51.3856 44.6778 51.8455 45.1376 52.4645 45.1376ZM48.2903 49.3384C48.9005 49.3295 49.3604 48.8608 49.3516 48.2418C49.3516 47.605 48.8563 47.1363 48.2107 47.1628C47.6005 47.1894 47.1583 47.6758 47.176 48.286C47.1937 48.8962 47.6713 49.3472 48.2903 49.3384ZM57.753 48.2594C57.7619 47.6404 57.302 47.1717 56.6918 47.1628C56.0462 47.154 55.5687 47.6315 55.5775 48.2683C55.5863 48.8785 56.0551 49.3384 56.6741 49.3295C57.2843 49.3384 57.7442 48.8785 57.753 48.2594ZM52.4468 53.5391C53.0659 53.548 53.5346 53.0969 53.5523 52.4956C53.57 51.85 53.0924 51.3636 52.4557 51.3724C51.8455 51.3813 51.3856 51.8411 51.3768 52.4513C51.3768 53.0616 51.8278 53.5303 52.4468 53.5391Z" fill="#2776EA"/>
<path d="M30.4524 45.0944C30.4524 44.5726 30.4524 44.1393 30.4524 43.706C30.4524 43.4849 30.4436 43.2638 30.4613 43.0515C30.5232 42.4148 30.8769 42.0257 31.5137 42.008C32.8667 41.9726 34.2287 41.9726 35.5817 42.008C36.2715 42.0257 36.6253 42.4413 36.6518 43.1665C36.6784 43.7767 36.6607 44.3869 36.6607 45.059C36.9083 45.0944 37.094 45.1298 37.2797 45.1386C37.7396 45.1475 38.1995 45.1298 38.6593 45.1475C39.4022 45.1828 39.7913 45.5543 39.809 46.306C39.8355 47.5972 39.8355 48.8883 39.809 50.1795C39.7913 50.9489 39.3934 51.3203 38.6063 51.3557C38.2172 51.3734 37.8192 51.3557 37.4212 51.3646C37.209 51.3646 36.9967 51.3911 36.7137 51.4088C36.696 51.6741 36.6695 51.9129 36.6607 52.1428C36.6518 52.5761 36.6784 53.0183 36.643 53.4517C36.5899 54.0884 36.2362 54.4775 35.5906 54.4952C34.2375 54.5306 32.8756 54.5306 31.5225 54.4952C30.8327 54.4775 30.4878 54.0619 30.4524 53.3367C30.4347 53.0272 30.4436 52.7265 30.4436 52.417C30.4436 52.1163 30.4436 51.8068 30.4436 51.4442C30.2048 51.4088 30.0191 51.3734 29.8334 51.3646C29.3735 51.3557 28.9136 51.3734 28.4538 51.3557C27.7109 51.3203 27.3218 50.9401 27.3041 50.1972C27.2775 48.906 27.2775 47.6149 27.3041 46.3237C27.3218 45.5543 27.7197 45.1828 28.5068 45.1475C28.8959 45.1298 29.2939 45.1475 29.6919 45.1386C29.913 45.1386 30.1252 45.1209 30.4524 45.0944ZM29.3646 49.3482C29.9572 49.3482 30.4613 49.3482 30.9565 49.3482C32.1062 49.3571 32.4511 49.6931 32.4599 50.8251C32.4599 51.1965 32.4511 51.568 32.4688 51.9394C32.4776 52.1074 32.5218 52.2666 32.5395 52.417C33.3089 52.5585 34.1137 52.5319 34.6532 52.3374C34.6532 52.1251 34.6532 51.8952 34.6532 51.6564C34.6532 51.2673 34.6355 50.8693 34.662 50.4802C34.7062 49.7727 35.0777 49.4013 35.7851 49.3659C36.245 49.3394 36.7049 49.3659 37.1648 49.3571C37.3505 49.3571 37.545 49.3217 37.7661 49.2952C37.8103 48.5788 37.8546 47.9155 37.7484 47.2346C37.5185 47.208 37.3505 47.1815 37.1824 47.1815C36.8552 47.1727 36.528 47.1815 36.2008 47.1815C34.9981 47.1727 34.6708 46.8543 34.662 45.6781C34.662 45.3951 34.6708 45.1121 34.662 44.8291C34.6532 44.5992 34.6355 44.3604 34.6178 44.0862C33.8926 44.0155 33.2382 43.9978 32.5307 44.0951C32.513 44.3515 32.4865 44.5638 32.4865 44.776C32.4776 45.1917 32.4953 45.6073 32.4776 46.023C32.4422 46.7659 32.062 47.1373 31.3191 47.1727C30.8592 47.1992 30.3994 47.1727 29.9395 47.1815C29.7538 47.1904 29.5681 47.2257 29.3735 47.2523C29.3647 47.9509 29.3646 48.5965 29.3646 49.3482Z" fill="#2776EA"/>
<path d="M28.1714 24.3199C27.57 24.1165 26.9952 23.9219 26.3496 23.7008C27.3932 20.5702 28.4102 17.5191 29.4449 14.4238C30.1082 14.53 30.6653 14.7776 31.2136 15.0075C31.2048 15.5204 28.7109 23.1702 28.1714 24.3199Z" fill="#2776EA"/>
<path d="M19.8662 19.9245C20.0608 19.6061 20.1669 19.3231 20.3526 19.1374C21.2812 18.1823 22.2363 17.2448 23.1826 16.3074C23.2268 16.2632 23.2887 16.2367 23.3771 16.1836C23.8724 16.5285 24.2615 16.9972 24.7302 17.5013C23.952 18.2884 23.1914 19.0578 22.3955 19.8626C23.0853 20.7911 24.005 21.4367 24.6949 22.3211C24.2527 22.7721 23.8282 23.2055 23.3948 23.6565C23.2445 23.5327 23.1207 23.4354 23.0146 23.3293C22.1656 22.4803 21.3077 21.6401 20.4676 20.7735C20.2465 20.5435 20.0961 20.2517 19.8662 19.9245Z" fill="#2776EA"/>
<path d="M33.2556 23.6042C32.8046 23.1708 32.3624 22.7552 31.8937 22.3042C32.6896 21.4905 33.4501 20.7211 34.2726 19.8898C33.459 19.0674 32.6896 18.298 31.876 17.4755C32.3712 17.0422 32.8311 16.6442 33.3175 16.2197C33.3087 16.2197 33.3971 16.2463 33.4501 16.3082C34.3787 17.2367 35.3162 18.1565 36.2271 19.0939C36.4305 19.3062 36.5454 19.598 36.7223 19.881C36.5631 20.164 36.4658 20.4382 36.2801 20.6327C35.3515 21.5878 34.3964 22.5253 33.459 23.4627C33.3971 23.5334 33.3175 23.5688 33.2556 23.6042Z" fill="#2776EA"/>
</svg>
