<svg width="65" height="58" viewBox="0 0 65 58" fill="none" xmlns="http://www.w3.org/2000/svg">
<path d="M49.0964 51.7767C49.5382 55.0263 47.3861 57.5633 44.393 57.72C42.8253 57.8055 41.4713 57.2069 40.4166 56.0097C39.3619 54.8125 39.0626 53.3873 39.2764 51.8195C36.1836 51.8195 33.1336 51.8195 30.0265 51.8195C30.2688 53.7578 29.7557 55.4111 28.2307 56.6511C27.233 57.4635 26.0643 57.8198 24.7816 57.7343C22.1164 57.549 19.5652 55.1688 20.2778 51.4632C19.7647 51.2066 19.2231 50.9928 18.7385 50.6793C16.5009 49.254 15.3036 47.2159 15.1896 44.5364C14.9331 38.0515 14.6908 31.5524 14.4057 25.0675C14.2775 22.0602 14.0922 19.0529 13.9212 16.0457C13.9069 15.7749 13.8214 15.4898 13.7216 15.2475C13.0232 13.5942 12.3106 11.9552 11.598 10.3019C11.1277 9.20444 11.1277 9.20444 9.81643 9.34697C9.80217 9.56075 9.78792 9.80305 9.77367 10.0311C9.68815 11.1713 8.76174 12.1262 7.60728 12.1405C5.81147 12.169 4.01565 12.169 2.21983 12.1405C0.994115 12.1262 0.0391944 11.1143 0.0106894 9.86006C-0.00356313 8.81962 -0.00356313 7.77919 0.0106894 6.73875C0.0249419 5.44177 0.979861 4.4726 2.26259 4.45835C3.97289 4.42985 5.68319 4.4441 7.3935 4.45835C8.8045 4.4726 9.6739 5.3135 9.77367 6.73875C9.77367 6.82427 9.78792 6.90979 9.81643 7.12357C10.3865 7.12357 10.9709 7.13783 11.541 7.12357C12.3106 7.09507 12.781 7.40862 13.0803 8.1355C13.8641 10.0596 14.705 11.9552 15.5317 13.865C15.66 14.1501 15.7455 14.3781 16.1588 14.3781C18.8383 14.4066 21.532 14.4494 24.2115 14.5064C24.3112 14.5064 24.4253 14.4921 24.5678 14.4921C24.582 14.3781 24.6105 14.2783 24.6105 14.1786C24.7103 12.454 25.5655 11.5704 27.2473 11.3851C27.4468 11.3708 27.6178 11.1428 27.7889 10.986C27.8459 10.9432 27.8459 10.8292 27.8886 10.7437C28.2877 10.0453 28.359 9.47524 27.7318 8.76261C26.9907 7.90746 27.176 6.56773 27.9741 5.71257C28.7865 4.84317 29.6274 4.00227 30.4968 3.18988C31.409 2.33472 32.6917 2.36323 33.6039 3.21838C33.8034 3.40366 33.9459 3.66021 34.0885 3.85975C34.3735 3.73147 34.5018 3.66021 34.6443 3.61745C35.528 3.37516 36.0696 2.99034 36.1551 1.90715C36.2264 0.852463 37.2668 0.0828263 38.35 0.0400687C39.4902 -0.00268883 40.6446 -0.0169403 41.7991 0.0258172C43.1673 0.0828273 44.1793 1.12326 44.1793 2.463C44.1793 2.99034 44.393 3.16137 44.8349 3.38941C45.6188 3.81699 46.1461 3.77423 46.816 3.10436C47.6284 2.29197 48.9111 2.40599 49.752 3.21838C50.5644 4.00227 51.3625 4.80041 52.1464 5.6128C53.1726 6.66749 53.2154 8.14975 52.1749 9.21869C51.8044 9.60351 51.7473 9.90281 52.0182 10.3304C52.0752 10.4159 52.1179 10.5299 52.1464 10.6297C52.2747 11.214 52.5882 11.4136 53.2154 11.4421C54.6976 11.5276 55.624 12.6393 55.624 14.1358C55.624 14.4066 55.624 14.6917 55.624 15.1477C56.9923 15.1477 58.3035 15.1477 59.629 15.1477C60.4129 15.1477 61.1825 15.1477 61.9664 15.1762C63.8762 15.2475 65.3015 17.0006 64.9452 18.8819C64.5176 21.1481 64.0473 23.4142 63.5769 25.6804C63.4202 26.4357 62.8643 26.8348 62.2515 26.678C61.5958 26.5213 61.2965 25.9797 61.4391 25.2243C61.8666 23.0436 62.3085 20.863 62.736 18.6681C62.8786 17.9412 62.5223 17.3996 61.8381 17.3854C59.8 17.3569 57.7619 17.3711 55.6525 17.3711C55.624 17.4424 55.567 17.6134 55.51 17.7987C55.1395 18.9104 54.2558 19.5945 53.0871 19.5803C52.631 19.5803 52.3317 19.6658 52.2604 20.1504C52.2604 20.1931 52.2462 20.2359 52.2177 20.2787C51.8044 20.9485 51.8044 21.4616 52.403 22.1172C53.2439 23.0294 53.0871 24.4404 52.2034 25.3668C51.4195 26.2077 50.6071 27.0201 49.7662 27.804C48.8113 28.7019 47.4716 28.7019 46.5737 27.7327C46.1176 27.2481 45.747 27.1484 45.2054 27.5047C45.0487 27.6044 44.8491 27.69 44.6638 27.7327C44.3075 27.8182 44.1935 28.0035 44.1793 28.3741C44.1222 30.0701 43.1103 31.0251 41.4143 31.0251C40.4879 31.0251 39.5472 31.0251 38.6208 31.0251C37.167 31.0108 36.0553 29.9704 36.0268 28.5166C36.0126 28.0605 35.87 27.8467 35.4567 27.7612C35.3997 27.747 35.3284 27.7185 35.2714 27.69C34.6016 27.2766 34.0742 27.2766 33.4471 27.918C32.6347 28.7447 31.352 28.6591 30.5111 27.861C29.6417 27.0486 28.8008 26.2077 27.9884 25.3383C27.0905 24.3691 27.0477 22.9439 27.9456 21.9747C28.3305 21.5614 28.3732 21.2336 28.0739 20.806C28.0597 20.7917 28.0597 20.7632 28.0454 20.749C27.8316 20.0364 27.5751 19.5375 26.6202 19.5518C25.6795 19.566 24.8528 18.5969 24.6676 17.6419C24.6105 17.3711 24.582 17.0861 24.5393 16.7868C24.411 16.7725 24.2827 16.744 24.1545 16.744C21.5177 16.744 18.881 16.744 16.1588 16.744C16.5579 24.5972 16.9569 32.5216 17.356 40.5457C17.6411 40.5457 17.8976 40.5457 18.1399 40.5457C31.1667 40.5315 44.1793 40.5172 57.2061 40.503C58.1752 40.503 58.4175 40.2892 58.6028 39.3485C58.9306 37.681 59.2727 35.9992 59.6147 34.3316C59.7715 33.562 60.2989 33.1914 60.9402 33.334C61.6101 33.4907 61.9094 34.0181 61.7526 34.7735C61.4106 36.498 61.097 38.2083 60.7264 39.9186C60.3274 41.7857 59.1872 42.6979 57.2916 42.6979C52.1749 42.7121 47.0725 42.7264 41.9559 42.7264C34.003 42.7406 26.0501 42.7406 18.0971 42.7406C17.8834 42.7406 17.6696 42.7406 17.4558 42.7406C16.6149 46.7883 19.3656 49.5533 22.3729 49.5676C28.359 49.5961 34.3308 49.5961 40.3168 49.6103C44.3645 49.6103 48.4123 49.6103 52.4742 49.6103C52.9873 49.6103 53.4149 49.7101 53.6714 50.209C54.0563 50.9786 53.5289 51.8052 52.6025 51.8195C51.5051 51.8052 50.3364 51.7767 49.0964 51.7767ZM48.1985 26.3217C48.8398 25.6519 49.3672 25.1103 49.8945 24.5687C51.0205 23.4427 50.9777 23.685 49.923 22.6018C49.3102 21.989 49.2389 21.4331 49.6095 20.6635C49.8233 20.2359 50.0941 19.8226 50.1938 19.3665C50.5216 17.8415 51.3483 17.1146 52.9446 17.3569C53.3009 17.4139 53.4577 17.2144 53.4434 16.858C53.4291 16.2452 53.4434 15.6466 53.4434 15.0337C53.4291 13.523 53.6714 13.58 52.0324 13.58C51.163 13.58 50.7497 13.2664 50.4646 12.4113C50.2936 11.9267 50.1368 11.4278 49.923 10.9575C49.1391 9.26145 49.1391 9.26145 50.4219 7.87896C50.4789 7.82195 50.5786 7.76494 50.5929 7.69367C50.6214 7.52264 50.6784 7.2661 50.5929 7.18058C49.8233 6.36819 49.0251 5.5843 48.1415 4.7149C47.7994 5.09972 47.5144 5.45603 47.1865 5.78383C46.6307 6.32543 46.1176 6.38244 45.405 6.05463C44.6353 5.71257 43.8657 5.38476 43.0818 5.08546C42.3549 4.80041 42.0271 4.37284 42.0129 3.56044C42.0129 3.3039 41.9986 3.0331 42.0129 2.77655C42.0414 2.36323 41.8418 2.1922 41.4428 2.1922C40.8157 2.20645 40.1886 2.1922 39.5614 2.1922C38.1077 2.1922 38.2502 2.10668 38.2502 3.47493C38.2502 4.37284 37.9367 4.75765 37.11 5.05696C36.3546 5.32776 35.6135 5.62706 34.9009 5.95487C34.117 6.31118 33.5896 6.25417 32.9768 5.62706C32.6917 5.34201 32.4779 4.98569 32.1644 4.57237C31.3947 5.37051 30.8246 5.98337 30.226 6.59623C29.3709 7.47989 29.3281 7.33736 30.226 8.23527C30.9102 8.91939 30.9672 9.41823 30.5681 10.2734C30.226 11.0003 29.9267 11.7414 29.6559 12.4825C29.3851 13.2237 28.9576 13.5657 28.1737 13.58C28.0026 13.58 27.8316 13.5942 27.6606 13.58C27.0192 13.5087 26.8054 13.808 26.8482 14.4066C26.8767 15.0337 26.8624 15.6608 26.8624 16.2879C26.8624 17.3426 26.8624 17.3426 27.9314 17.3426C28.9861 17.3426 29.3566 17.6419 29.7272 18.6681C29.9695 19.338 30.2545 19.9936 30.5681 20.635C31.0099 21.5614 30.9529 22.046 30.226 22.7728C30.0693 22.9296 29.8697 23.0579 29.7842 23.2432C29.7129 23.4142 29.6702 23.7278 29.7842 23.8418C30.5253 24.6399 31.3092 25.4096 32.1786 26.279C32.4494 25.9512 32.6632 25.6804 32.9055 25.4238C33.6894 24.6257 34.0885 24.5972 35.1004 25.0675C35.756 25.3811 36.4544 25.6376 37.1385 25.8799C37.9652 26.1649 38.293 26.564 38.3072 27.4477C38.3072 27.6615 38.3215 27.8752 38.3072 28.1033C38.2787 28.5594 38.4497 28.7874 38.9486 28.7589C39.5329 28.7304 40.1173 28.7589 40.7016 28.7446C42.2267 28.7304 42.0699 28.9442 42.0841 27.4192C42.0841 26.5783 42.4262 26.1507 43.1816 25.8656C43.9512 25.5663 44.6924 25.2528 45.4477 24.9107C46.1604 24.5829 46.7162 24.6399 47.2863 25.1958C47.5429 25.5521 47.8279 25.9084 48.1985 26.3217ZM2.26259 9.88856C4.05841 9.88856 5.79722 9.88856 7.55028 9.88856C7.55028 8.80537 7.55028 7.75069 7.55028 6.696C5.76871 6.696 4.0299 6.696 2.26259 6.696C2.26259 7.77919 2.26259 8.80537 2.26259 9.88856ZM25.1379 51.7482C24.4395 51.7482 23.7554 51.7767 23.057 51.734C22.6009 51.7055 22.4442 51.9335 22.3872 52.3183C22.2161 53.4158 22.715 54.499 23.6699 55.0976C24.6105 55.6962 25.8078 55.6677 26.7199 54.9978C27.6748 54.2994 28.0169 53.3445 27.8174 52.2043C27.7889 52.019 27.4753 51.7625 27.2758 51.7482C26.5631 51.7197 25.8505 51.7482 25.1379 51.7482ZM44.279 51.7767V51.7625C43.5236 51.7625 42.7683 51.734 42.0129 51.7767C41.8418 51.791 41.571 51.962 41.514 52.1188C41.1862 53.088 41.6566 54.3279 42.5545 54.9836C43.4809 55.6677 44.7351 55.6962 45.7043 55.0548C46.6307 54.442 47.1295 53.259 46.9015 52.2471C46.8302 51.8765 46.6592 51.7625 46.2886 51.7767C45.6188 51.8052 44.9489 51.7767 44.279 51.7767Z" fill="#2776EA"/>
<path d="M40.061 9.13379C43.6098 9.13379 46.4461 11.97 46.4318 15.5332C46.4176 19.025 43.5528 21.8898 40.061 21.8898C36.4836 21.8898 33.6616 19.0393 33.6758 15.4334C33.6901 11.913 36.5121 9.13379 40.061 9.13379ZM40.0752 11.3429C37.7378 11.3429 35.885 13.1673 35.885 15.4762C35.885 17.7993 37.7236 19.6664 40.0182 19.6807C42.2986 19.6949 44.2085 17.8136 44.2227 15.5332C44.2227 13.21 42.3841 11.3572 40.0752 11.3429Z" fill="#2776EA"/>
</svg>
