<svg width="65" height="34" viewBox="0 0 65 34" fill="none" xmlns="http://www.w3.org/2000/svg">
<path d="M45.2307 33.351C43.5031 33.351 41.7755 33.3541 40.0479 33.351C38.4913 33.3479 37.3314 32.652 36.55 31.3151C35.9853 30.3537 35.4604 29.3647 34.8529 28.4307C33.6076 26.517 31.3703 26.5353 30.1311 28.4704C29.5572 29.3647 29.0689 30.317 28.5347 31.2358C27.732 32.6246 26.5385 33.354 24.9178 33.3479C21.5633 33.3418 18.2089 33.3876 14.8544 33.3144C9.79986 33.2045 5.59993 28.9893 5.49615 23.9347C5.43511 20.8367 5.43206 17.7325 5.49615 14.6344C5.60298 9.64092 9.90059 5.29753 14.9033 5.27311C26.6423 5.21206 38.3844 5.20901 50.1265 5.27616C55.1262 5.30363 59.4055 9.67144 59.5031 14.6711C59.5642 17.7691 59.5611 20.8733 59.5031 23.9714C59.4116 28.9313 55.2116 33.1587 50.2608 33.3144C48.5851 33.3663 46.9064 33.3235 45.2307 33.3235C45.2307 33.3357 45.2307 33.3418 45.2307 33.351ZM32.576 11.3899C25.0551 11.3899 17.5343 11.3899 10.0135 11.3899C7.72126 11.3899 7.44351 11.3868 7.30921 13.6333C7.08334 17.3662 6.90936 21.1572 7.3031 24.8596C7.73958 28.9374 11.2589 31.6936 15.3428 31.776C18.392 31.8371 21.4412 31.7882 24.4905 31.7913C25.7144 31.7913 26.621 31.2877 27.21 30.1888C27.7137 29.2518 28.2356 28.3178 28.8186 27.4296C30.6378 24.6612 34.3432 24.6612 36.1807 27.4326C36.7698 28.3178 37.3039 29.2457 37.8014 30.1827C38.3875 31.2877 39.2788 31.7943 40.5088 31.7913C43.558 31.7852 46.6073 31.8371 49.6565 31.773C53.7404 31.6906 57.2353 28.9313 57.687 24.8535C58.0869 21.2487 57.7969 17.5677 57.7969 13.9233C57.7969 13.5753 57.684 13.2212 57.6046 12.8763C57.3635 11.8019 56.8019 11.3471 55.5932 11.3593C47.9228 11.4204 40.2494 11.3899 32.576 11.3899ZM9.21688 9.71112C24.8415 9.71112 40.2036 9.71112 55.7855 9.71112C53.9694 7.67525 51.8297 6.85419 49.4367 6.84503C38.1494 6.8023 26.8621 6.79925 15.5748 6.84503C13.1757 6.85419 11.033 7.66915 9.21688 9.71112Z" fill="#2776EA"/>
<path d="M32.3409 4.61064C30.0578 4.61064 27.7777 4.6198 25.4946 4.60759C24.0692 4.59843 23.8525 4.35425 23.8647 2.89221C23.88 0.883811 24.7102 0.0352795 26.7156 0.0291749C30.5706 0.0200181 34.4256 0.10243 38.2776 0.00170439C40.8354 -0.0654457 41.3085 1.86359 41.107 3.66749C41.0124 4.51602 40.3684 4.6259 39.6419 4.6198C37.2093 4.60149 34.7766 4.61064 32.3409 4.61064ZM25.7266 2.89832C30.2623 2.89832 34.7522 2.89832 39.2726 2.89832C39.5168 1.99484 39.1902 1.58583 38.3325 1.58278C34.4348 1.57973 30.537 1.57973 26.6423 1.58278C25.8975 1.58583 25.4855 1.89717 25.7266 2.89832Z" fill="#2776EA"/>
<path d="M4.59275 18.062C4.59275 19.5332 4.55918 21.0043 4.60496 22.4725C4.63243 23.3851 4.23564 23.7239 3.36269 23.785C1.11621 23.9406 0.0204442 22.9761 0.0112873 20.7449C0.00213049 18.8189 -0.0100785 16.8899 0.0143397 14.9639C0.0418102 12.809 2.1723 11.4294 4.06471 12.3756C4.35468 12.5221 4.55307 13.1081 4.56834 13.4988C4.62938 15.0188 4.59275 16.5389 4.59275 18.062ZM2.90179 21.9383C2.90179 19.292 2.90179 16.6457 2.90179 14.0207C2.04105 13.8315 1.67478 14.1856 1.66562 14.854C1.63815 16.9357 1.6351 19.0173 1.66867 21.0959C1.68088 21.8559 2.1021 22.2069 2.90179 21.9383Z" fill="#2776EA"/>
<path d="M60.4072 18.068C60.4072 16.548 60.4347 15.0279 60.3981 13.5079C60.3767 12.5892 60.7674 12.2839 61.6709 12.2595C64.1402 12.1954 64.9857 12.9646 64.9918 15.4308C64.9948 17.3049 65.0131 19.1821 64.9857 21.0562C64.9551 23.1409 62.9803 24.4686 61.0482 23.6506C60.7277 23.5133 60.4591 22.8875 60.4378 22.4755C60.3615 21.0104 60.4042 19.5361 60.4072 18.068ZM62.0341 21.9261C62.788 22.1519 63.3008 21.9993 63.313 21.2454C63.3466 19.063 63.3588 16.8746 63.2977 14.6922C63.2794 13.9718 62.7514 13.8101 62.0311 14.0817C62.0341 16.6762 62.0341 19.2492 62.0341 21.9261Z" fill="#2776EA"/>
</svg>
