<svg width="69" height="55" viewBox="0 0 69 55" fill="none" xmlns="http://www.w3.org/2000/svg">
<path d="M48.1772 27.4677C48.0732 26.9564 47.9646 26.3999 47.8424 25.7982C46.458 25.7982 45.1867 25.7982 43.8565 25.7982C43.1417 26.2144 43.8339 28.3092 41.8704 27.3907C41.798 26.9971 41.7075 26.4949 41.5944 25.857C39.7621 25.857 37.9071 25.857 35.939 25.857C35.369 26.3094 35.9978 28.1282 34.1565 27.4586C34.0524 27.0107 33.9212 26.4633 33.7719 25.8299C31.1795 25.8299 28.6414 25.8299 25.9358 25.8299C25.9358 29.3633 25.9358 32.8606 25.9358 36.5162C26.5919 36.6158 27.3022 36.7289 28.0306 36.842C28.0306 37.3487 28.0306 37.7695 28.0306 38.2988C27.2976 38.3667 26.6461 38.43 25.8906 38.5024C25.8906 41.6423 25.8906 44.6781 25.8906 47.922C26.714 47.5103 27.3474 47.189 28.0668 46.8316C28.0668 47.7636 28.0668 48.578 28.0668 49.5281C23.4022 50.1751 19.0091 49.4828 14.8061 47.6053C4.84359 43.1579 -0.98822 33.0099 0.138328 22.1652C1.21058 11.8046 8.97427 2.95958 19.2987 0.638623C34.351 -2.74555 47.7203 7.78247 49.4486 21.2965C49.6657 23.0067 49.6793 24.744 49.7381 26.4723C49.7743 27.4858 49.2088 27.7798 48.1772 27.4677ZM23.8773 23.9161C23.8773 20.1655 23.8773 16.6727 23.8773 13.18C21.5382 13.18 19.3801 13.18 17.1044 13.18C16.3353 16.7632 15.6747 20.2514 15.9507 23.9161C18.697 23.9161 21.2306 23.9161 23.8773 23.9161ZM23.8908 36.5841C23.8908 32.8425 23.8908 29.3452 23.8908 25.7349C21.1265 25.7484 18.5341 25.667 15.8829 25.7756C15.8059 29.6303 16.2538 33.0959 17.1542 36.5841C19.4344 36.5841 21.597 36.5841 23.8908 36.5841ZM33.9483 23.9025C33.8895 20.1564 33.5728 16.6275 32.6001 13.198C30.2656 13.198 28.1165 13.198 25.8861 13.198C25.8861 16.8175 25.8861 20.3057 25.8861 23.9025C28.5509 23.9025 31.0845 23.9025 33.9483 23.9025ZM34.5908 13.1935C35.0161 16.8492 35.4233 20.3781 35.8259 23.8708C37.88 23.8708 39.7259 23.8708 41.712 23.8708C41.7618 20.0116 40.9565 16.5053 39.4635 13.1935C37.7216 13.1935 36.1698 13.1935 34.5908 13.1935ZM7.99702 25.8253C8.1237 29.7072 8.76162 33.1999 10.2999 36.5389C11.9965 36.5389 13.6117 36.5389 15.1952 36.5389C14.7563 32.8787 14.3356 29.3452 13.9103 25.8253C11.9151 25.8253 10.0646 25.8253 7.99702 25.8253ZM15.1771 13.1709C13.4986 13.1709 11.9422 13.1709 10.2637 13.1709C8.87021 16.641 7.94273 20.1247 8.1056 23.8482C10.1913 23.8482 12.1006 23.8482 13.9419 23.8482C14.3582 20.2378 14.7563 16.8039 15.1771 13.1709ZM8.10108 13.0759C7.27766 13.0759 6.52663 13.0171 5.79369 13.0985C5.39103 13.1438 4.82097 13.3112 4.65809 13.6052C2.89815 16.7722 1.72183 20.1021 1.84851 23.8437C3.42749 23.8437 4.8074 23.8437 5.99729 23.8437C6.70307 20.2107 7.37719 16.7722 8.10108 13.0759ZM1.82589 25.8253C1.73993 29.3452 2.79409 32.3539 4.14685 35.3128C4.61285 36.3398 5.2734 36.8329 6.40899 36.6791C6.99263 36.5977 7.58531 36.5931 8.09656 36.557C7.38624 32.9511 6.6895 29.4493 5.97466 25.8253C4.73953 25.8253 3.41844 25.8253 1.82589 25.8253ZM48.0189 23.8799C47.9103 19.9076 46.8109 16.4058 44.87 13.1619C43.6937 13.1619 42.6576 13.1619 41.6532 13.1619C42.3907 16.8039 43.11 20.3645 43.8203 23.8799C45.1957 23.8799 46.5259 23.8799 48.0189 23.8799ZM17.5523 11.2978C19.8642 11.3612 21.9137 11.4426 23.9451 11.2662C23.9451 7.99059 23.9451 5.00909 23.9451 1.64754C20.0633 3.89159 18.8463 7.44315 17.5523 11.2978ZM17.5568 38.4934C18.9006 42.244 19.9457 45.9222 23.9316 47.9717C23.9316 44.6781 23.9316 41.6377 23.9316 38.4934C21.8097 38.4934 19.8099 38.4934 17.5568 38.4934ZM25.8634 11.1757C28.0984 11.1757 30.062 11.1757 32.211 11.1757C30.8311 7.45673 29.8041 3.81015 25.8634 1.81494C25.8634 5.14029 25.8634 8.11275 25.8634 11.1757ZM15.729 11.2662C16.2629 9.84103 16.7018 8.48374 17.2809 7.18979C17.869 5.86418 18.5974 4.59285 19.2942 3.23556C16.0729 4.40283 12.7068 7.86844 11.4807 11.2662C12.8516 11.2662 14.1862 11.2662 15.729 11.2662ZM11.4717 38.4888C12.8425 42.1354 16.8918 46.1484 19.0363 46.2706C17.9278 43.7822 16.7741 41.1944 15.5707 38.4888C14.2994 38.4888 12.9059 38.4888 11.4717 38.4888ZM30.5235 3.00935C31.8174 5.91847 32.9892 8.54708 34.1927 11.2481C35.5138 11.2481 36.9027 11.2481 38.5224 11.2481C36.6267 7.62865 34.1791 4.9005 30.5235 3.00935ZM6.17373 11.2617C7.44053 11.2617 8.32277 11.2617 9.03308 11.2617C10.6256 9.00403 12.1141 6.89119 13.7745 4.52951C10.7025 6.24874 8.3092 8.28467 6.17373 11.2617ZM6.30041 38.4662C8.33182 41.588 11.2455 44.0537 13.5031 44.8047C12.0915 42.8186 10.594 40.7057 9.00594 38.4662C8.27752 38.4662 7.39981 38.4662 6.30041 38.4662ZM36.5136 5.15839C37.9071 7.18075 39.2961 9.20763 40.7076 11.2571C41.5492 11.2571 42.4178 11.2571 43.5896 11.2571C41.6532 8.43397 39.3232 6.484 36.5136 5.15839Z" fill="#0274BA"/>
<path d="M30.5309 30.9003L30.5309 30.9003C30.5535 30.3993 30.7005 30.0818 30.893 29.884C31.0855 29.6861 31.3771 29.5529 31.7952 29.5239C32.2156 29.4952 32.6296 29.4988 33.0653 29.5024C33.2158 29.5037 33.369 29.505 33.5259 29.505H33.5789H33.6319H33.6849H33.7379H33.7909H33.8439H33.8969H33.9499H34.0029H34.0559H34.1089H34.1619H34.2149H34.2679H34.3209H34.3739H34.4269H34.4799H34.5329H34.5859H34.6389H34.6919H34.7449H34.7979H34.8509H34.9039H34.9569H35.0099H35.0629H35.1159H35.1689H35.2219H35.2749H35.3279H35.3809H35.4339H35.4869H35.5399H35.5929H35.6459H35.6989H35.7519H35.8049H35.8579H35.9108H35.9638H36.0168H36.0698H36.1228H36.1758H36.2288H36.2818H36.3348H36.3878H36.4408H36.4938H36.5468H36.5998H36.6528H36.7058H36.7588H36.8118H36.8648H36.9178H36.9708H37.0238H37.0768H37.1298H37.1828H37.2358H37.2888H37.3418H37.3948H37.4478H37.5007H37.5537H37.6067H37.6597H37.7127H37.7657H37.8187H37.8717H37.9247H37.9777H38.0307H38.0837H38.1367H38.1897H38.2427H38.2957H38.3487H38.4017H38.4547H38.5077H38.5606H38.6136H38.6666H38.7196H38.7726H38.8256H38.8786H38.9316H38.9846H39.0376H39.0906H39.1436H39.1966H39.2496H39.3026H39.3555H39.4085H39.4615H39.5145H39.5675H39.6205H39.6735H39.7265H39.7795H39.8325H39.8855H39.9385H39.9915H40.0445H40.0975H40.1504H40.2034H40.2564H40.3094H40.3624H40.4154H40.4684H40.5214H40.5744H40.6274H40.6804H40.7334H40.7863H40.8393H40.8923H40.9453H40.9983H41.0513H41.1043H41.1573H41.2103H41.2633H41.3163H41.3693H41.4222H41.4752H41.5282H41.5812H41.6342H41.6872H41.7402H41.7932H41.8462H41.8992H41.9522H42.0051H42.0581H42.1111H42.1641H42.2171H42.2701H42.3231H42.3761H42.4291H42.4821H42.5351H42.588H42.641H42.694H42.747H42.8H42.853H42.906H42.959H43.012H43.065H43.1179H43.1709H43.2239H43.2769H43.3299H43.3829H43.4359H43.4889H43.5419H43.5949H43.6478H43.7008H43.7538H43.8068H43.8598H43.9128H43.9658H44.0188H44.0718H44.1248H44.1777H44.2307H44.2837H44.3367H44.3897H44.4427H44.4957H44.5487H44.6017H44.6547H44.7076H44.7606H44.8136H44.8666H44.9196H44.9726H45.0256H45.0786H45.1316H45.1845H45.2375H45.2905H45.3435H45.3965H45.4495H45.5025H45.5555H45.6085H45.6614H45.7144H45.7674H45.8204H45.8734H45.9264H45.9794H46.0324H46.0854H46.1384H46.1913H46.2443H46.2973H46.3503H46.4033H46.4563H46.5093H46.5623H46.6153H46.6682H46.7212H46.7742H46.8272H46.8802H46.9332H46.9862H47.0392H47.0922H47.1451H47.1981H47.2511H47.3041H47.3571H47.4101H47.4631H47.5161H47.5691H47.622H47.675H47.728H47.781H47.834H47.887H47.94H47.993H48.046H48.0989H48.1519H48.2049H48.2579H48.3109H48.3639H48.4169H48.4699H48.5229H48.5758H48.6288H48.6818H48.7348H48.7878H48.8408H48.8938H48.9468H48.9998H49.0528H49.1057H49.1587H49.2117H49.2647H49.3177H49.3707H49.4237H49.4767H49.5297H49.5826H49.6356H49.6886H49.7416H49.7946H49.8476H49.9006H49.9536H50.0066H50.0596H50.1125H50.1655H50.2185H50.2715H50.3245H50.3775H50.4305H50.4835H50.5365H50.5895H50.6424H50.6954H50.7484H50.8014H50.8544H50.9074H50.9604H51.0134H51.0664H51.1194H51.1723H51.2253H51.2783H51.3313H51.3843H51.4373H51.4903H51.5433H51.5963H51.6493H51.7022H51.7552H51.8082H51.8612H51.9142H51.9672H52.0202H52.0732H52.1262H52.1792H52.2322H52.2851H52.3381H52.3911H52.4441H52.4971H52.5501H52.6031H52.6561H52.7091H52.7621H52.8151H52.868H52.921H52.974H53.027H53.08H53.133H53.186H53.239H53.292H53.345H53.398H53.451H53.5039H53.5569H53.6099H53.6629H53.7159H53.7689H53.8219H53.8749H53.9279H53.9809H54.0339H54.0869H54.1399H54.1928H54.2458H54.2988H54.3518H54.4048H54.4578H54.5108H54.5638H54.6168H54.6698H54.7228H54.7758H54.8288H54.8818H54.9347H54.9877H55.0407H55.0937H55.1467H55.1997H55.2527H55.3057H55.3587H55.4117H55.4647H55.5177H55.5707H55.6237H55.6767H55.7297H55.7826H55.8356H55.8886H55.9416H55.9946H56.0476H56.1006H56.1536H56.2066H56.2596H56.3126H56.3656H56.4186H56.4716H56.5246H56.5776H56.6306H56.6836H56.7366H56.7896H56.8425H56.8955H56.9485H57.0015H57.0545H57.1075H57.1605H57.2135H57.2665H57.3195H57.3725H57.4255H57.4785H57.5315H57.5845H57.6375H57.6905H57.7435H57.7965H57.8495H57.9025H57.9555H58.0085H58.0615H58.1145H58.1675H58.2205H58.2735H58.3265H58.3795H58.4325H58.4855H58.5385H58.5914H58.6444H58.6974H58.7504H58.8034H58.8564H58.9094H58.9624H59.0154H59.0684H59.1214H59.1744H59.2274H59.2804H59.3334H59.3864H59.4394H59.4924H59.5454H59.5984H59.6514H59.7044H59.7574H59.8104H59.8634H59.9164H59.9694H60.0224H60.0754H60.1284H60.1814H60.2344H60.2874H60.3404H60.3934H60.4464H60.4994H60.5525H60.6055H60.6585C61.4256 29.505 61.9758 29.5283 62.3826 29.6072C62.7796 29.6842 62.9815 29.8033 63.109 29.9527C63.2453 30.1126 63.3578 30.3783 63.4249 30.8746C63.4917 31.3688 63.5058 32.0256 63.4981 32.9155C63.4925 33.3251 63.4674 33.7251 63.4393 34.1739C63.4327 34.2796 63.4259 34.3881 63.4191 34.5H63.3639H63.2979H63.2319H63.1659H63.0999H63.034H62.968H62.902H62.836H62.7701H62.7041H62.6381H62.5722H62.5062H62.4403H62.3743H62.3084H62.2424H62.1765H62.1105H62.0446H61.9786H61.9127H61.8468H61.7808H61.7149H61.649H61.583H61.5171H61.4512H61.3853H61.3194H61.2534H61.1875H61.1216H61.0557H60.9898H60.9239H60.858H60.7921H60.7262H60.6603H60.5944H60.5285H60.4626H60.3967H60.3308H60.2649H60.199H60.1332H60.0673H60.0014H59.9355H59.8696H59.8038H59.7379H59.672H59.6061H59.5403H59.4744H59.4085H59.3427H59.2768H59.211H59.1451H59.0792H59.0134H58.9475H58.8817H58.8158H58.75H58.6841H58.6182H58.5524H58.4866H58.4207H58.3549H58.289H58.2232H58.1573H58.0915H58.0256H57.9598H57.894H57.8281H57.7623H57.6965H57.6306H57.5648H57.499H57.4331H57.3673H57.3015H57.2356H57.1698H57.104H57.0382H56.9723H56.9065H56.8407H56.7749H56.709H56.6432H56.5774H56.5116H56.4458H56.3799H56.3141H56.2483H56.1825H56.1167H56.0508H55.985H55.9192H55.8534H55.7876H55.7218H55.656H55.5901H55.5243H55.4585H55.3927H55.3269H55.2611H55.1953H55.1294H55.0636H54.9978H54.932H54.8662H54.8004H54.7346H54.6688H54.603H54.5371H54.4713H54.4055H54.3397H54.2739H54.2081H54.1423H54.0765H54.0106H53.9448H53.879H53.8132H53.7474H53.6816H53.6158H53.55H53.4841H53.4183H53.3525H53.2867H53.2209H53.1551H53.0892H53.0234H52.9576H52.8918H52.826H52.7602H52.6943H52.6285H52.5627H52.4969H52.4311H52.3652H52.2994H52.2336H52.1678H52.1019H52.0361H51.9703H51.9045H51.8386H51.7728H51.707H51.6411H51.5753H51.5095H51.4436H51.3778H51.312H51.2461H51.1803H51.1145H51.0486H50.9828H50.9169H50.8511H50.7853H50.7194H50.6536H50.5877H50.5219H50.456H50.3902H50.3243H50.2585H50.1926H50.1268H50.0609H49.995H49.9292H49.8633H49.7975H49.7316H49.6657H49.5999H49.534H49.4681H49.4023H49.3364H49.2705H49.2046H49.1388H49.0729H49.007H48.9411H48.8752H48.8093H48.7434H48.6776H48.6117H48.5458H48.4799H48.414H48.3481H48.2822H48.2163H48.1504H48.0845H48.0186H47.9526H47.8867H47.8208H47.7549H47.689H47.6231H47.5571H47.4912H47.4253H47.3594H47.2934H47.2275H47.1616H47.0956H47.0297H46.9637H46.8978H46.8318H46.7659H46.6999H46.634H46.568H46.5021H46.4361H46.3701H46.3042H46.2382H46.1722H46.1063H46.0403H45.9743H45.9083H45.8423H45.7764H45.7104H45.6444H45.5784H45.5124H45.4464H45.3804H45.3144H45.2484H45.1824H45.1163H45.0503H44.9843H44.9183H44.8523H44.7862H44.7202H44.6542H44.5881H44.5221H44.456H44.39H44.3239H44.2579H44.1918H44.1258H44.0597H43.9936H43.9276H43.8615H43.7954H43.7293H43.6633H43.5972H43.5311H43.465H43.3989H43.3328H43.2667H43.2006H43.1345H43.0684H43.0023H42.9361H42.87H42.8039H42.7378H42.6716H42.6055H42.5393H42.4732H42.4071H42.3409H42.2747H42.2086H42.1424H42.0763H42.0101H41.9439H41.8777H41.8116H41.7454H41.6792H41.613H41.5468H41.4806H41.4144H41.3482H41.282H41.2157H41.1495H41.0833H41.0171H40.9508H40.8846H40.8184H40.7521H40.6859H40.6196H40.5533H40.4871H40.4208H40.3545H40.2883H40.222H40.1557H40.0894H40.0231H39.9568H39.8905H39.8242H39.7579H39.6916H39.6253H39.5589H39.4926H39.4263H39.3599H39.2936H39.2273H39.1609H39.0945H39.0282H38.9618H38.8955H38.8291H38.7627H38.6963H38.6299H38.5635H38.4971H38.4307H38.3643H38.2979H38.2315H38.1651H38.0986H38.0322H37.9658H37.8993H37.8329H37.7664H37.7H37.6335H37.567H37.5005H37.4341H37.3676H37.3011H37.2346H37.1681H37.1016H37.0351H36.9686H36.902H36.8355H36.769H36.7025H36.6359H36.5694H36.5028H36.4363H36.3697H36.3031H36.2365H36.17H36.1034H36.0368H35.9702H35.9036H35.837H35.7704H35.7037H35.6371H35.5705H35.5038H35.4372H35.3706H35.3039H35.2372H35.1706H35.1039H35.0372H34.9705H34.9038H34.8371H34.7704H34.7037H34.637H34.5703H34.5036H34.4368H34.3701H34.3034H34.2366H34.1699H34.1031H34.0363H33.9696H33.9028H33.836H33.7692H33.7024H33.6356H33.5688H33.502H33.4351H33.3683H33.3015H33.2346H33.1678H33.1009H33.034H32.9672H32.9003H32.8334H32.7665H32.6996H32.6327H32.5658H32.4989H32.432H32.3651H32.2981H32.2312H32.1642H32.0973H32.0303H31.9633H31.8964H31.8294H31.7624H31.6954H31.6284H31.5614H31.4944H31.4273H31.3603H31.2933H31.2262H31.1592H31.0921H31.025H30.958H30.8909H30.8238H30.7567H30.6896H30.6225H30.5554H30.5163C30.5146 34.2407 30.5118 33.9826 30.509 33.7253C30.4987 32.7778 30.4885 31.8422 30.5309 30.9003Z" stroke="#0274BA"/>
<path d="M30.5 37.5H63.5V47C63.5 48.933 61.933 50.5 60 50.5H34C32.067 50.5 30.5 48.933 30.5 47V37.5Z" stroke="#0274BA"/>
<rect x="33.4" y="41.4" width="7.2" height="3.2" rx="0.6" stroke="#0274BA" stroke-width="0.8"/>
<circle cx="61.5" cy="47.5" r="7" fill="white" stroke="#0274BA"/>
<path d="M61.3059 48.7818C61.9947 47.1288 62.6457 45.5644 63.2966 44C63.5301 44.1039 63.7665 44.2047 64 44.3086C63.2382 46.368 62.4734 48.4273 61.5219 51C60.4828 49.4265 59.7414 48.3082 59 47.1899C59.1664 47.0493 59.3327 46.9088 59.4991 46.7713C60.0771 47.416 60.6579 48.0607 61.3059 48.7818Z" fill="#0274BA"/>
</svg>
