<svg width="54" height="66" viewBox="0 0 54 66" fill="none" xmlns="http://www.w3.org/2000/svg">
<path d="M31.3947 26.0211C31.3947 26.2383 31.3967 26.3714 31.3947 26.5035C31.3807 27.2963 31.0994 27.5726 30.2916 27.5726C27.0395 27.5736 23.7864 27.5736 20.5343 27.5716C19.6935 27.5716 19.4012 27.2773 19.4012 26.4255C19.4002 20.4878 19.4012 14.5491 19.4012 8.61135C19.4012 8.42818 19.3922 8.244 19.4022 8.06083C19.4342 7.47326 19.7695 7.13694 20.3591 7.13694C23.7113 7.13293 27.0645 7.13293 30.4168 7.13894C31.0684 7.13994 31.3807 7.46826 31.3937 8.1369C31.4027 8.61836 31.3957 9.09982 31.3957 9.61732C31.72 9.61732 32.0093 9.61732 32.3536 9.61732C32.3536 9.45917 32.3536 9.29701 32.3536 9.13586C32.3536 6.86768 32.3516 4.5985 32.3546 2.33032C32.3566 0.742796 33.2084 -0.0649803 34.796 0.00408607C38.0321 0.144221 40.6136 2.86884 40.6616 6.19603C40.6656 6.44227 40.6616 6.68851 40.6616 6.9978C41.0089 6.9978 41.3052 6.9978 41.6005 6.9978C44.5864 6.9968 47.5722 6.9898 50.5571 6.9978C52.3959 7.00281 53.7141 8.1379 53.9644 9.93162C54.0875 10.8155 53.8363 11.6132 53.3037 12.3249C53.1956 12.4691 53.0775 12.6062 52.9674 12.7423C54.5139 14.5471 54.1486 16.3628 52.9614 17.6691C53.7822 18.5719 54.1986 19.6229 53.9073 20.8591C53.6211 22.0743 52.8383 22.863 51.6982 23.2874C51.7793 23.7379 51.9074 24.1563 51.9204 24.5787C51.9705 26.2113 50.7043 27.5545 49.0777 27.5656C45.8256 27.5866 42.5724 27.5736 39.3203 27.5696C38.4265 27.5686 37.6597 27.2252 37.0251 26.6136C36.5887 26.1922 36.0942 26.0101 35.4936 26.0171C34.1443 26.0321 32.797 26.0211 31.3947 26.0211ZM31.4107 24.2704C32.8281 24.2704 34.1934 24.2664 35.5577 24.2714C36.5467 24.2754 37.4285 24.5687 38.1412 25.2804C38.5416 25.6797 39.017 25.8559 39.5826 25.8549C42.6525 25.8479 45.7215 25.8509 48.7914 25.8489C49.6322 25.8479 50.2128 25.3444 50.2008 24.6327C50.1888 23.9201 49.6432 23.4456 48.8194 23.4436C47.5182 23.4406 46.2169 23.4576 44.9157 23.4296C44.6374 23.4236 44.2631 23.3405 44.1139 23.1503C43.9418 22.9311 43.8767 22.5367 43.9307 22.2495C44.0138 21.809 44.4172 21.7099 44.8316 21.7099C46.6834 21.7099 48.5352 21.7099 50.3869 21.7009C50.6512 21.6999 50.9265 21.6849 51.1767 21.6088C51.9204 21.3806 52.3518 20.6259 52.2247 19.8341C52.1056 19.0914 51.472 18.5459 50.6692 18.5419C48.317 18.5319 45.9647 18.5399 43.6124 18.5349C43.3992 18.5349 43.176 18.5209 42.9748 18.4568C42.5995 18.3387 42.4113 18.0464 42.4163 17.658C42.4223 17.2727 42.6095 16.9784 42.9858 16.8643C43.188 16.8032 43.4132 16.8012 43.6285 16.8012C45.8976 16.7982 48.1658 16.8042 50.435 16.7972C50.6982 16.7962 50.9735 16.7682 51.2207 16.6851C51.9404 16.4409 52.3478 15.7042 52.2277 14.9314C52.1096 14.1757 51.459 13.6382 50.6222 13.6362C47.8695 13.6302 45.1169 13.6342 42.3652 13.6322C41.6666 13.6312 41.2712 13.3029 41.2812 12.7423C41.2902 12.1988 41.6616 11.9015 42.3542 11.8995C43.7055 11.8955 45.0568 11.8975 46.4081 11.8975C47.7924 11.8975 49.1778 11.9065 50.5621 11.8935C51.5841 11.8845 52.2748 11.1978 52.2457 10.2529C52.2187 9.35106 51.5371 8.73147 50.5491 8.73047C47.0457 8.72646 43.5424 8.72947 40.039 8.72646C39.2252 8.72546 38.9259 8.41917 38.9219 7.60539C38.9199 7.07187 38.9349 6.53736 38.9159 6.00385C38.8389 3.80974 36.9981 1.8979 34.819 1.73375C34.1754 1.6857 34.0953 1.75877 34.0953 2.40339C34.0943 5.03892 34.0963 7.67446 34.0943 10.311C34.0933 11.0937 33.785 11.4 33.0002 11.405C32.4757 11.409 31.9502 11.406 31.4127 11.406C31.4107 15.7262 31.4107 19.9593 31.4107 24.2704ZM29.621 25.8329C29.621 20.1624 29.621 14.535 29.621 8.89863C26.7853 8.89863 23.9926 8.89863 21.1769 8.89863C21.1769 14.5601 21.1769 20.1875 21.1769 25.8329C23.9996 25.8329 26.7823 25.8329 29.621 25.8329Z" fill="#0274BA"/>
<path d="M29.2896 62.1478C29.4447 61.9346 29.5749 61.6973 29.7581 61.5132C32.9962 58.266 36.2443 55.0289 39.4814 51.7808C39.7747 51.4865 40.089 51.3634 40.5004 51.3564C41.4323 51.3404 42.3852 51.3974 43.29 51.2223C45.7654 50.7428 47.423 48.6188 47.427 46.0443C47.434 41.0235 47.428 36.0027 47.433 30.9818C47.433 30.7696 47.448 30.5424 47.5231 30.3472C47.6743 29.9569 48.0006 29.8017 48.407 29.8488C48.7943 29.8928 49.0506 30.112 49.1306 30.5004C49.1647 30.6615 49.1717 30.8317 49.1727 30.9969C49.1747 35.9846 49.1857 40.9714 49.1687 45.9592C49.1577 49.2914 47.1668 52.021 44.0888 52.8098C43.1219 53.058 42.0749 52.988 41.0679 53.0961C40.8277 53.1221 40.5414 53.2162 40.3772 53.3794C36.6407 57.0949 32.9181 60.8255 29.1915 64.5521C29.0614 64.6822 28.9463 64.8664 28.7891 64.9184C28.5038 65.0115 28.1445 65.1376 27.9063 65.0365C27.672 64.9375 27.5279 64.5851 27.3898 64.3199C27.3277 64.2007 27.3748 64.0246 27.3748 63.8754C27.3748 60.5062 27.3748 57.137 27.3748 53.7667C27.3748 53.5555 27.3748 53.3433 27.3748 53.0841C27.1035 53.0841 26.9073 53.0841 26.7111 53.0841C20.1388 53.0841 13.5665 53.0901 6.99519 53.0811C3.56089 53.0761 0.760204 50.7528 0.125594 47.3906C0.0365085 46.9191 0.00547906 46.4297 0.00547906 45.9482C-0.00152767 38.8424 -0.000527565 31.7366 0.00147436 24.6307C0.00247532 20.723 3.08043 17.642 6.98318 17.639C9.98606 17.637 12.9879 17.638 15.9908 17.639C16.157 17.639 16.3272 17.629 16.4893 17.658C16.9017 17.7331 17.193 18.1065 17.182 18.5179C17.171 18.9253 16.8577 19.2876 16.4493 19.3437C16.2851 19.3657 16.1159 19.3597 15.9498 19.3597C13.014 19.3607 10.0782 19.3597 7.14233 19.3607C4.00832 19.3617 1.75216 21.6158 1.75216 24.7529C1.75216 31.8587 1.74815 38.9645 1.75716 46.0703C1.76116 49.1002 4.04836 51.3604 7.09729 51.3624C14.0199 51.3664 20.9416 51.3634 27.8642 51.3644C28.8672 51.3644 29.0994 51.5976 29.0994 52.5946C29.0994 55.7296 29.0994 58.8646 29.0994 62.0006C29.1615 62.0487 29.2255 62.0977 29.2896 62.1478Z" fill="#0274BA"/>
<path d="M18.2215 40.9544C18.2515 40.7572 18.2465 40.563 18.3116 40.3979C18.6269 39.5971 18.3746 38.9985 17.694 38.5311C17.5719 38.447 17.4688 38.3319 17.3717 38.2188C17.0384 37.8324 17.1845 37.386 17.688 37.2849C18.0633 37.2098 18.4437 37.1628 18.8251 37.1217C19.1144 37.0907 19.3065 36.9816 19.4186 36.6893C19.5498 36.349 19.7069 36.0107 19.9121 35.7124C20.0272 35.5452 20.2595 35.3751 20.4456 35.3671C20.6058 35.36 20.8831 35.5512 20.9251 35.7054C21.2424 36.8525 22.0011 37.2919 23.1512 37.2959C23.6457 37.2979 23.8009 37.8354 23.4615 38.2208C23.2083 38.5071 22.938 38.7843 22.6417 39.0236C22.3775 39.2358 22.3505 39.474 22.4115 39.7723C22.4876 40.1466 22.5677 40.524 22.5977 40.9044C22.6357 41.3958 22.2113 41.7212 21.828 41.4369C20.854 40.7152 19.9662 40.7362 18.9982 41.4419C18.6389 41.7021 18.2085 41.3758 18.2215 40.9544Z" fill="#0274BA"/>
<path d="M32.117 41.4609C31.8787 41.3348 31.5264 41.1816 31.2101 40.9744C30.8077 40.7102 30.4464 40.6531 30.035 40.9634C29.7987 41.1416 29.5135 41.2567 29.2422 41.3818C28.7527 41.608 28.2823 41.3007 28.4404 40.7983C28.7787 39.7232 28.6136 38.8784 27.6367 38.2258C27.4905 38.1277 27.3874 37.7934 27.4395 37.6202C27.4895 37.454 27.7678 37.2438 27.9429 37.2458C29.086 37.2599 29.7617 36.7404 30.117 35.6503C30.2922 35.1128 30.9238 35.1208 31.11 35.6643C31.4773 36.7414 32.147 37.2418 33.2941 37.2539C33.8676 37.2599 34.0598 37.8534 33.6054 38.1988C32.7015 38.8834 32.3922 39.6702 32.7766 40.7642C32.9187 41.1706 32.6144 41.4819 32.117 41.4609Z" fill="#0274BA"/>
<path d="M38.4213 40.8914C38.4924 40.4539 38.5875 40.0285 38.6185 39.5981C38.6315 39.4169 38.5544 39.1887 38.4393 39.0466C38.2101 38.7633 37.8978 38.5471 37.6746 38.2608C37.5375 38.0847 37.3953 37.7954 37.4524 37.6202C37.5094 37.445 37.7947 37.3019 38.0079 37.2288C38.2712 37.1388 38.5635 37.1007 38.8437 37.1007C39.2892 37.1007 39.5454 36.9075 39.6925 36.4931C39.7976 36.1968 39.9508 35.9156 40.1059 35.6403C40.3772 35.1599 40.9277 35.1258 41.0979 35.6283C41.4662 36.7193 42.1309 37.2539 43.308 37.2539C43.8726 37.2539 44.0647 37.8604 43.6053 38.2038C42.6884 38.8894 42.3861 39.6902 42.7825 40.7762C42.8376 40.9284 42.7295 41.2457 42.5963 41.3338C42.4412 41.4359 42.1039 41.4619 41.9687 41.3588C41.0589 40.6691 40.203 40.6751 39.2781 41.3548C38.8547 41.6631 38.4113 41.3728 38.4213 40.8914Z" fill="#0274BA"/>
<path d="M13.3997 37.9275C13.3387 38.0126 13.2536 38.2318 13.0934 38.3379C12.1936 38.9395 11.9904 39.7272 12.3337 40.7302C12.3967 40.9164 12.3007 41.2667 12.1525 41.3828C12.0114 41.4939 11.639 41.4889 11.4869 41.3758C10.6 40.7172 9.76222 40.7072 8.87737 41.3798C8.72822 41.4929 8.35387 41.4919 8.20973 41.3808C8.06259 41.2667 7.96349 40.9144 8.02755 40.7312C8.38089 39.7252 8.14166 38.9555 7.27583 38.3299C7.10466 38.2058 6.95752 37.8434 7.01758 37.6623C7.07764 37.4811 7.40896 37.2779 7.62216 37.2769C8.63614 37.2749 9.29777 36.8695 9.60206 35.8655C9.66713 35.6513 9.97943 35.3781 10.1796 35.3761C10.3768 35.3741 10.6941 35.6483 10.7572 35.8605C11.0555 36.8725 11.7291 37.2609 12.7361 37.2719C13.2005 37.2779 13.3827 37.4811 13.3997 37.9275Z" fill="#0274BA"/>
</svg>
