<svg width="64" height="64" viewBox="0 0 64 64" fill="none" xmlns="http://www.w3.org/2000/svg">
<path d="M19.5567 10.027C21.5179 9.21637 23.2888 8.48278 25.173 7.70214C25.173 6.26491 25.1666 4.73784 25.1751 3.20864C25.1858 1.15545 26.2937 0.0283381 28.3426 0.0133669C30.8022 -0.00374302 33.2617 -0.00588131 35.7213 0.0155061C37.6996 0.032616 38.816 1.17684 38.8289 3.1616C38.8374 4.44484 38.8588 5.72808 38.816 7.01133C38.7968 7.6059 38.9957 7.87538 39.5646 8.08497C40.9633 8.60041 42.3193 9.2399 43.7137 9.76389C43.9896 9.86655 44.4794 9.80239 44.6847 9.61418C45.7092 8.67527 46.6567 7.65723 47.6576 6.69265C49.0007 5.39658 50.577 5.39872 51.9137 6.71404C53.7444 8.51272 55.5624 10.3242 57.3589 12.1571C58.5844 13.4062 58.5951 14.9867 57.3953 16.2571C56.4414 17.2666 55.4533 18.2461 54.4438 19.2022C54.0374 19.5871 54.0225 19.893 54.2556 20.3977C54.8651 21.7216 55.4233 23.0711 55.9259 24.4378C56.1313 24.9939 56.3729 25.2313 56.9846 25.2099C58.3385 25.165 59.6944 25.1821 61.0482 25.2013C62.7571 25.2248 63.9142 26.2643 63.9526 27.9667C64.0147 30.638 64.0147 33.3136 63.9591 35.987C63.9227 37.7386 62.7614 38.8123 61.0119 38.8465C59.6944 38.8721 58.3727 38.8786 57.0552 38.8401C56.435 38.823 56.1291 39.0005 55.9067 39.6335C55.4233 41.0066 54.7753 42.3198 54.2684 43.6865C54.1572 43.9859 54.2342 44.5141 54.4395 44.743C55.3464 45.7482 56.343 46.6679 57.284 47.6431C58.6208 49.029 58.6122 50.601 57.252 51.9805C55.5003 53.7556 53.7337 55.5201 51.9586 57.2717C50.5812 58.6298 49.0007 58.632 47.6212 57.291C46.6759 56.3713 45.7391 55.441 44.8259 54.4914C44.4602 54.1128 44.1714 54.0016 43.6346 54.254C42.2829 54.887 40.897 55.4538 39.4961 55.965C38.9465 56.166 38.8075 56.4462 38.8182 56.9766C38.846 58.3304 38.8438 59.6864 38.8224 61.0402C38.7946 62.7897 37.691 63.9361 35.9587 63.9532C33.3216 63.981 30.6824 63.9831 28.0453 63.9532C26.298 63.9339 25.2029 62.8025 25.1751 61.0488C25.1538 59.6949 25.1837 58.339 25.1644 56.9851C25.1537 56.1746 25.3633 55.503 26.2937 55.5116C27.2433 55.518 27.3952 56.2387 27.3909 57.0215C27.3845 58.2684 27.4058 59.5174 27.3866 60.7643C27.3759 61.4829 27.6732 61.793 28.4089 61.7866C30.7979 61.7652 33.1847 61.7609 35.5737 61.7888C36.3907 61.7973 36.6217 61.4102 36.611 60.6702C36.5875 59.0661 36.6388 57.4621 36.5917 55.858C36.5618 54.8785 36.9703 54.4208 37.8942 54.0893C39.7956 53.407 41.667 52.6264 43.4999 51.773C44.3489 51.3774 44.9435 51.4159 45.5851 52.0896C46.6909 53.2509 47.8672 54.3459 48.9729 55.5073C49.5311 56.0933 49.9589 56.166 50.5577 55.5436C52.1896 53.8498 53.8578 52.1901 55.541 50.5475C56.1035 49.9979 56.112 49.5851 55.5431 49.0397C54.3604 47.9062 53.2418 46.7021 52.0527 45.575C51.4025 44.959 51.3576 44.388 51.7233 43.5838C52.5852 41.676 53.4022 39.7448 54.1273 37.7814C54.4395 36.9387 54.8801 36.5751 55.757 36.5922C57.3953 36.6222 59.0357 36.5773 60.6761 36.6094C61.4482 36.6243 61.7669 36.3527 61.7562 35.555C61.7241 33.2023 61.7198 30.8497 61.7583 28.4971C61.7711 27.6395 61.4097 27.3679 60.6077 27.3828C58.9694 27.4106 57.329 27.3657 55.6886 27.3978C54.8523 27.4149 54.4395 27.0877 54.138 26.2792C53.398 24.2838 52.5553 22.3247 51.6934 20.3785C51.3769 19.662 51.3811 19.1123 51.9564 18.552C53.1306 17.4077 54.2577 16.2143 55.449 15.0893C56.0692 14.5012 56.1484 14.0435 55.4961 13.4126C53.83 11.8042 52.1917 10.1638 50.5791 8.50203C49.9995 7.90532 49.5632 7.89463 48.9879 8.50203C47.8586 9.69117 46.6609 10.8119 45.5274 11.9967C44.9072 12.6469 44.3383 12.6469 43.5341 12.2726C41.7033 11.4193 39.8405 10.6108 37.9327 9.94782C36.9425 9.60348 36.5661 9.11371 36.5982 8.10423C36.6495 6.53653 36.5896 4.96669 36.6195 3.399C36.6345 2.59483 36.3672 2.24408 35.5053 2.25905C33.1526 2.30182 30.8 2.2954 28.4474 2.26118C27.6432 2.24835 27.3738 2.58413 27.3845 3.34125C27.408 4.9453 27.3567 6.54936 27.4016 8.15342C27.4294 9.11799 27.0765 9.59065 26.1269 9.92429C24.1892 10.6087 22.2985 11.4385 20.4293 12.294C19.6722 12.6405 19.1139 12.6576 18.5215 12.0416C17.358 10.8354 16.1432 9.68261 14.984 8.47209C14.4451 7.9096 14.0259 7.89249 13.4719 8.45925C11.8294 10.1424 10.1676 11.8085 8.48013 13.4468C7.87486 14.0371 7.91764 14.4777 8.51007 15.0423C9.67141 16.148 10.7643 17.3265 11.9278 18.4301C12.6079 19.0738 12.6378 19.6663 12.2443 20.5132C11.3781 22.3782 10.5804 24.2817 9.87886 26.2151C9.57088 27.0642 9.16239 27.4256 8.27053 27.4021C6.66648 27.3614 5.06242 27.4171 3.45836 27.3786C2.61356 27.3593 2.22217 27.6224 2.23928 28.5378C2.28206 30.854 2.27778 33.1724 2.23928 35.4887C2.22431 36.327 2.53229 36.6286 3.36426 36.6094C5.00253 36.5687 6.64295 36.6029 8.28336 36.5987C9.0747 36.5965 9.76337 36.7911 9.75482 37.7365C9.74626 38.6754 9.06614 38.8615 8.26625 38.855C6.5189 38.8422 4.77369 38.87 3.02634 38.8443C1.21482 38.8187 0.0620435 37.7236 0.0321011 35.9207C-0.0128124 33.32 -0.00853494 30.7171 0.0321011 28.1143C0.0620435 26.2857 1.18916 25.2206 3.01351 25.197C4.33311 25.1799 5.65271 25.1692 6.97018 25.2035C7.5455 25.2184 7.84706 25.0687 8.06093 24.4763C8.56782 23.0733 9.21158 21.7216 9.72701 20.3207C9.83823 20.0213 9.75909 19.493 9.55164 19.2642C8.64481 18.2611 7.64388 17.3436 6.70497 16.3662C5.36398 14.9696 5.38109 13.4254 6.75416 12.0352C8.50793 10.2601 10.2703 8.49348 12.0475 6.74399C13.4313 5.38161 15.0011 5.37519 16.3764 6.73971C17.4949 7.83902 18.5579 8.98752 19.5567 10.027Z" fill="#0274BA"/>
<path d="M32.0128 13.1944C41.7805 13.2137 49.8927 20.6158 50.7717 30.3172C51.6572 40.0784 44.8795 48.9649 35.1568 50.5261C32.986 50.8748 30.6975 50.5967 28.4732 50.4534C27.684 50.4021 27.16 50.4791 26.6125 51.0672C25.3977 52.3676 24.1081 53.6017 22.8419 54.855C21.7105 55.9735 20.3867 56.2965 18.9366 55.6014C18.3762 55.334 18.1132 55.5436 17.7667 55.8944C15.9616 57.7187 14.1651 59.5516 12.3215 61.3353C10.2576 63.3329 7.78947 63.8633 5.11818 62.8923C2.47256 61.9299 0.986136 59.9216 0.710238 57.1156C0.50278 55.0154 1.18504 53.1782 2.67574 51.6725C4.45517 49.8738 6.24316 48.0837 8.04826 46.3085C8.46317 45.9 8.6471 45.5985 8.36051 44.9569C7.72531 43.5453 8.08248 42.2364 9.1604 41.1392C10.4608 39.8196 11.759 38.4957 13.0978 37.2146C13.5619 36.7698 13.6945 36.3484 13.5683 35.7111C11.235 23.9929 20.1086 13.1709 32.0128 13.1944ZM15.3884 31.9255C15.3542 41.12 22.7649 48.5564 32.0022 48.5949C41.1196 48.6334 48.5881 41.1884 48.6138 32.0325C48.6394 22.9236 41.1602 15.4037 32.0556 15.3802C22.936 15.3588 15.4226 22.8188 15.3884 31.9255ZM10.2405 47.487C8.12525 49.553 5.86674 51.572 3.83922 53.7984C2.29504 55.4944 2.62441 58.1935 4.27766 59.804C5.94801 61.4316 8.57866 61.6882 10.2918 60.1141C12.4861 58.0994 14.4901 55.8773 16.5262 53.7984C14.4388 51.7003 12.3193 49.5723 10.2405 47.487ZM14.4773 38.9962C13.1278 40.3457 11.8638 41.5798 10.6383 42.8523C10.1506 43.3592 10.1656 43.9902 10.6575 44.4842C13.5855 47.4421 16.5177 50.3978 19.5098 53.2894C19.8028 53.5738 20.7374 53.668 20.9962 53.4327C22.3564 52.2072 23.5926 50.847 24.9229 49.4824C20.053 47.3929 16.6054 43.9281 14.4773 38.9962Z" fill="#0274BA"/>
<path d="M32.5003 18.3445C39.6395 18.5413 45.66 24.7051 45.6814 31.6004C45.6835 32.4046 45.506 33.0697 44.5757 33.0911C43.6881 33.1104 43.4742 32.4538 43.4614 31.7095C43.3694 26.4824 39.5282 21.8435 34.3225 20.7955C33.6275 20.6565 32.9153 20.5838 32.2073 20.5389C31.478 20.4918 30.9284 20.2715 30.9326 19.4396C30.9369 18.5477 31.5208 18.3103 32.2993 18.3445C32.4426 18.3488 32.5838 18.3445 32.5003 18.3445Z" fill="#0274BA"/>
</svg>
