<svg width="60" height="60" viewBox="0 0 60 60" fill="none" xmlns="http://www.w3.org/2000/svg">
<path d="M53.4432 8.15672C54.69 8.15672 55.6989 7.14784 55.6989 5.90101C55.6989 4.65419 54.69 3.6453 53.4432 3.6453C52.1964 3.6453 51.1875 4.65419 51.1875 5.90101C51.1875 7.14784 52.2059 8.15672 53.4432 8.15672ZM53.4432 5.2538C53.8049 5.2538 54.0999 5.54886 54.0999 5.91053C54.0999 6.27221 53.8049 6.56726 53.4432 6.56726C53.072 6.56726 52.7865 6.28172 52.7865 5.91053C52.7865 5.53934 53.0815 5.2538 53.4432 5.2538Z" fill="#2776EA"/>
<path d="M55.9454 0H9.57487C7.81409 0 6.3769 1.43718 6.3769 3.19797V8.08058H3.19797C1.43718 8.08058 0 9.51777 0 11.2786V51.3769C0 53.1377 1.43718 54.5749 3.19797 54.5749H24.4511V59.2005C24.4511 59.6383 24.8128 60 25.2506 60H40.2697C40.7075 60 41.0692 59.6383 41.0692 59.2005V54.5749H49.5685C51.3293 54.5749 52.7665 53.1377 52.7665 51.3769V46.4943H55.9454C57.7062 46.4943 59.1434 45.0571 59.1434 43.2963V3.19797C59.1434 1.43718 57.7062 0 55.9454 0ZM7.97589 3.19797C7.97589 2.31282 8.69924 1.59898 9.57487 1.59898H55.9454C56.8306 1.59898 57.5444 2.32234 57.5444 3.19797V10.2126H27.2018L23.6326 6.51015C23.3566 6.22462 22.9759 6.06282 22.5857 6.06282H14.724C13.9245 6.06282 13.2678 6.71954 13.2678 7.51904V10.2126H7.97589V3.19797ZM3.19797 52.9854C2.31282 52.9854 1.59898 52.2621 1.59898 51.3864V11.2786C1.59898 10.3934 2.32234 9.67957 3.19797 9.67957H6.3769V43.3058C6.3769 45.0666 7.81409 46.5038 9.57487 46.5038H26.9353C27.2494 47.1129 27.3921 47.7982 27.335 48.5025H26.0977C25.184 48.5025 24.4511 49.2449 24.4511 50.1491V52.9854H3.19797ZM31.9702 36.2437C32.132 35.9581 32.427 35.7773 32.7602 35.7773C33.2551 35.7773 33.6548 36.177 33.6548 36.672C33.6548 36.9956 33.4835 37.2906 33.2075 37.4524C32.9029 37.6333 32.5412 37.6142 32.17 37.4048C32.1225 37.3763 32.0749 37.3382 32.0558 37.2906C31.7513 36.8052 31.875 36.4245 31.9702 36.2437ZM31.9607 34.3306C31.3801 34.5305 30.8852 34.9207 30.5806 35.4727C30.1237 36.2912 30.1808 37.2906 30.7138 38.1472C30.8852 38.4137 31.1136 38.6326 31.3896 38.7944C31.8274 39.0419 32.3033 39.1751 32.7697 39.1751C33.2075 39.1751 33.6358 39.0609 34.0165 38.842C34.7779 38.3947 35.2538 37.5666 35.2538 36.6815C35.2538 35.5869 34.54 34.6637 33.5596 34.3306V30.2189L40.6313 42.9822C40.6218 42.9918 40.6123 43.0108 40.5838 43.0203C38.0806 43.6675 36.4435 46.0089 36.5768 48.5025H28.953C29.0958 45.9994 27.4492 43.658 24.8985 42.9442L31.9607 30.2189V34.3306ZM39.4702 58.401H26.0501L26.0977 50.092H39.4226C39.4511 50.092 39.4702 50.111 39.4702 50.1396V58.401ZM51.1675 51.3769C51.1675 52.2621 50.4442 52.9759 49.5685 52.9759H41.0692V50.1396C41.0692 49.2259 40.3268 48.493 39.4226 48.493H38.1853C38.1282 47.7887 38.2805 47.1034 38.585 46.4943H51.1675V51.3769ZM55.9454 44.9048H40.1364C40.3934 44.7621 40.6694 44.6383 40.974 44.5622C41.4784 44.4289 41.8877 44.0768 42.0971 43.6009C42.297 43.1345 42.2684 42.611 42.0209 42.1637L33.8357 27.4207C33.6263 27.0305 33.217 26.783 32.7697 26.783C32.3128 26.7925 31.9036 27.0209 31.6846 27.4112L23.4898 42.1637C23.2424 42.611 23.2234 43.144 23.4232 43.6104C23.6231 44.0863 24.0324 44.4289 24.5368 44.5622C24.8414 44.6383 25.1079 44.7621 25.3744 44.9048H9.57487C8.68972 44.9048 7.97589 44.1815 7.97589 43.3058V11.8115H13.401C14.2005 11.8115 14.8572 11.1548 14.8572 10.3553V7.6618H22.519L26.0882 11.3642C26.3642 11.6497 26.7449 11.8115 27.1352 11.8115H57.5444V43.2963C57.5444 44.1815 56.8306 44.9048 55.9454 44.9048Z" fill="#2776EA"/>
<path d="M47.9979 8.15672C49.2447 8.15672 50.2536 7.14784 50.2536 5.90101C50.2536 4.65419 49.2447 3.6453 47.9979 3.6453C46.7511 3.6453 45.7422 4.65419 45.7422 5.90101C45.7422 7.14784 46.7511 8.15672 47.9979 8.15672ZM47.9979 5.2538C48.3596 5.2538 48.6546 5.54886 48.6546 5.91053C48.6546 6.27221 48.3596 6.56726 47.9979 6.56726C47.6267 6.56726 47.3412 6.28172 47.3412 5.91053C47.3412 5.53934 47.6362 5.2538 47.9979 5.2538Z" fill="#2776EA"/>
<path d="M42.5409 8.15672C43.7877 8.15672 44.7966 7.14784 44.7966 5.90101C44.7966 4.65419 43.7877 3.6453 42.5409 3.6453C41.294 3.6453 40.2852 4.65419 40.2852 5.90101C40.2852 7.14784 41.294 8.15672 42.5409 8.15672ZM42.5409 5.2538C42.9025 5.2538 43.1976 5.54886 43.1976 5.91053C43.1976 6.27221 42.9025 6.56726 42.5409 6.56726C42.1697 6.56726 41.8841 6.28172 41.8841 5.91053C41.8841 5.53934 42.1792 5.2538 42.5409 5.2538Z" fill="#2776EA"/>
<path d="M48.1687 18.7786C47.7024 19.2449 47.4073 19.835 47.2931 20.4632H36.1097V19.2069C36.1097 18.3503 35.4149 17.6555 34.5583 17.6555H30.9511C30.0945 17.6555 29.3997 18.3503 29.3997 19.2069V20.4632H18.2258C18.1211 19.8445 17.8261 19.2544 17.3502 18.769C16.1414 17.5793 14.0761 17.5983 12.8959 18.7786C12.2963 19.3782 11.9727 20.1681 11.9727 21.0057C11.9727 21.8528 12.3058 22.6523 12.8959 23.2329C13.4955 23.8515 14.295 24.1656 15.123 24.1656C15.6465 24.1656 16.1795 24.0419 16.6839 23.7849C17.2265 23.5089 17.6738 23.052 17.9403 22.4905C18.0069 22.3477 18.064 22.2049 18.1116 22.0622H25.8686C21.6522 24.118 18.4733 27.9822 17.3692 32.6459H16.1319C15.2753 32.6459 14.5805 33.3407 14.5805 34.1973V37.8046C14.5805 38.6612 15.2753 39.356 16.1319 39.356H19.7392C20.5958 39.356 21.2905 38.6612 21.2905 37.8046V34.1973C21.2905 33.3407 20.5958 32.6459 19.7392 32.6459H19.0158C20.3483 27.6206 24.3743 23.6802 29.4282 22.4619V22.8046C29.4282 23.6612 30.123 24.356 30.9796 24.356H34.5869C35.4435 24.356 36.1383 23.6612 36.1383 22.8046V22.4619C41.1827 23.6802 45.2087 27.6206 46.5507 32.6459H45.894C45.0374 32.6459 44.3426 33.3407 44.3426 34.1973V37.8046C44.3426 38.6612 45.0374 39.356 45.894 39.356H49.5012C50.3578 39.356 51.0526 38.6612 51.0526 37.8046V34.1973C51.0526 33.3407 50.3578 32.6459 49.5012 32.6459H48.1973C47.0837 27.9822 43.9048 24.1085 39.6979 22.0622H47.4739C47.6262 22.5 47.8737 22.8997 48.2068 23.2329C48.8064 23.8515 49.6059 24.1656 50.4339 24.1656C50.9574 24.1656 51.4904 24.0419 51.9949 23.7849C52.5374 23.5089 52.9847 23.052 53.2512 22.4905C53.8699 21.1865 53.651 19.7684 52.6706 18.769C51.4238 17.5888 49.3584 17.5983 48.1687 18.7786ZM16.4841 21.8147C16.3699 22.0431 16.1795 22.243 15.9511 22.3572C15.123 22.776 14.4092 22.5095 14.019 22.1003C13.7239 21.8147 13.5621 21.4245 13.5621 21.0057C13.5621 20.5964 13.7239 20.2062 14.019 19.9016C14.314 19.6066 14.7043 19.4448 15.123 19.4448C15.5323 19.4448 15.932 19.6066 16.2176 19.8921C16.7125 20.4061 16.8077 21.1199 16.4841 21.8147ZM19.7201 37.757L16.1605 37.8046L16.1129 34.2449H19.6725L19.7201 37.757ZM49.4727 37.757L45.913 37.8046L45.8654 34.2449H49.4251L49.4727 37.757ZM31.0082 22.8141L30.9892 21.6148C31.0082 21.5292 31.0082 21.4435 30.9987 21.3483V21.3388C30.9987 21.3103 31.0177 21.2912 31.0177 21.2627C31.0177 21.2151 30.9987 21.177 30.9892 21.139L30.9606 19.264H34.5202L34.5488 21.139C34.5393 21.1865 34.5202 21.2246 34.5202 21.2722C34.5202 21.3008 34.5298 21.3198 34.5393 21.3483V21.3579C34.5202 21.4816 34.5298 21.5958 34.5583 21.7005L34.5774 22.776L31.0082 22.8141ZM51.7664 21.8147C51.6522 22.0431 51.4619 22.243 51.2334 22.3572C50.4054 22.776 49.6916 22.5095 49.3013 22.1003C49.0063 21.8147 48.8445 21.4245 48.8445 21.0057C48.8445 20.5964 49.0063 20.2062 49.3013 19.9016C49.5964 19.6066 49.9866 19.4448 50.4054 19.4448C50.8147 19.4448 51.2144 19.6066 51.4999 19.8921C51.9949 20.4061 52.09 21.1199 51.7664 21.8147Z" fill="#2776EA"/>
</svg>
