<svg width="47" height="60" viewBox="0 0 47 60" fill="none" xmlns="http://www.w3.org/2000/svg">
<path d="M17.2734 5.38879H22.0383C22.556 5.38879 22.9758 4.96903 22.9758 4.45129C22.9758 3.93356 22.556 3.51379 22.0383 3.51379H17.2734C16.7557 3.51379 16.3359 3.93356 16.3359 4.45129C16.3359 4.96903 16.7557 5.38879 17.2734 5.38879Z" fill="#2776EA"/>
<path d="M13.0234 55.8595H21.5227C22.0405 55.8595 22.4602 55.4398 22.4602 54.922C22.4602 54.4043 22.0405 53.9845 21.5227 53.9845H13.0234C12.5057 53.9845 12.0859 54.4043 12.0859 54.922C12.0859 55.4398 12.5057 55.8595 13.0234 55.8595Z" fill="#2776EA"/>
<path d="M0.9375 46.5321C1.45523 46.5321 1.875 46.1124 1.875 45.5946V8.90625H32.6683V13.7288C32.6683 14.2465 33.0881 14.6663 33.6058 14.6663C34.1235 14.6663 34.5433 14.2465 34.5433 13.7288C34.5438 12.6009 34.5418 17.1888 34.5475 3.73123C34.5475 1.67875 32.869 0 30.8093 0H30.8069H3.73398H3.73191C1.77224 0 0 1.61189 0 3.73398V45.5946C0 46.1124 0.419775 46.5321 0.9375 46.5321ZM30.8069 1.875C31.7974 1.875 32.6683 2.6859 32.6683 3.73398V7.03125H1.87563V3.73123C1.87563 2.70877 2.71307 1.875 3.73398 1.875H30.8069Z" fill="#2776EA"/>
<path d="M23.0591 23.6215C23.4238 23.9835 24.018 23.9856 24.3848 23.6151L28.3028 19.6605C28.6649 19.2952 28.6649 18.7065 28.3028 18.3412L24.3848 14.3866C24.0204 14.0185 23.4272 14.0167 23.0591 14.3802C22.6911 14.7446 22.6883 15.3383 23.0527 15.7059L26.317 19.0008L23.0527 22.2958C22.6883 22.6634 22.6911 23.2571 23.0591 23.6215Z" fill="#2776EA"/>
<path d="M11.4874 14.3802C11.1199 14.0149 10.5257 14.0176 10.1618 14.3866L6.24422 18.3412C5.88213 18.7065 5.88213 19.2952 6.24422 19.6605L10.1618 23.6151C10.5259 23.9829 11.1191 23.9862 11.4874 23.6215C11.8555 23.2572 11.8582 22.6634 11.4939 22.2958L8.23 19.0009L11.4939 15.7059C11.8582 15.3383 11.8555 14.7446 11.4874 14.3802Z" fill="#2776EA"/>
<path d="M18.7842 11.7311L13.2814 25.5785C13.0901 26.0596 13.3254 26.6048 13.8065 26.7956C14.2849 26.9867 14.8316 26.754 15.0237 26.2706L20.5264 12.4232C20.7178 11.9421 20.4825 11.3969 20.0014 11.2061C19.5184 11.0124 18.9751 11.25 18.7842 11.7311Z" fill="#2776EA"/>
<path d="M33.6109 29.1C30.8641 29.1 28.6328 31.3312 28.6328 34.0781C28.6328 36.8508 30.8935 39.0562 33.6109 39.0562C36.3165 39.0562 38.5797 36.8554 38.5797 34.0781C38.5797 31.3312 36.3484 29.1 33.6109 29.1ZM34.5484 37.0312V33.4594C34.5484 32.9438 34.1266 32.5219 33.6109 32.5219C33.0859 32.5219 32.6734 32.9438 32.6734 33.4594V37.0406C31.4172 36.6469 30.5078 35.4656 30.5078 34.0781C30.5078 32.3719 31.8953 30.975 33.6109 30.975C35.3172 30.975 36.7047 32.3719 36.7047 34.0781C36.7047 35.4656 35.7953 36.6375 34.5484 37.0312Z" fill="#2776EA"/>
<path d="M45.75 31.1156L43.4438 30.8531C43.2656 30.3094 43.0407 29.775 42.7688 29.2594L44.1187 27.3468C44.3907 26.9813 44.3438 26.4656 44.025 26.1469L41.3344 23.4656C40.9969 23.1281 40.4625 23.0906 40.0875 23.3906L38.2781 24.8437C37.7625 24.5812 37.2281 24.3656 36.675 24.1969L36.2906 21.8813C36.2156 21.4312 35.8219 21.1031 35.3625 21.1031H31.5657C31.0875 21.1031 30.6844 21.4594 30.6282 21.9375L30.375 24.2531C29.8219 24.4312 29.2969 24.6562 28.7906 24.9188L26.8688 23.5594C26.4938 23.2968 25.9875 23.3344 25.6688 23.6625L22.9875 26.3437C22.65 26.6813 22.6219 27.2156 22.9219 27.5906L24.3657 29.4094C24.1031 29.925 23.8875 30.4594 23.7188 31.0125L21.4125 31.3969C20.9625 31.4813 20.625 31.8656 20.625 32.325V36.1219C20.625 36.6 20.9906 36.9938 21.4594 37.05L23.7656 37.3125C23.9438 37.8656 24.1781 38.4 24.4406 38.9062L23.0906 40.8094C22.8281 41.1844 22.8656 41.6906 23.1938 42.0187L25.875 44.7C26.2125 45.0375 26.7469 45.0656 27.1219 44.7656L28.9407 43.3219C29.4563 43.575 29.9813 43.7906 30.5344 43.9594L30.9188 46.275C30.9937 46.7343 31.3875 47.0625 31.8469 47.0625H32.6719V49.1343H0.9375C0.421884 49.1343 0 49.5562 0 50.0718C0 50.2171 0 56.5045 0 56.2687C0 58.3218 1.67816 60 3.73129 60H30.8063C32.8687 60 34.5469 58.3218 34.5469 56.2687C34.5469 55.8104 34.5469 46.6089 34.5469 47.0625H35.6437C36.1219 47.0625 36.525 46.7063 36.5812 46.2281L36.8438 43.9125C37.3875 43.7344 37.9219 43.5094 38.4282 43.2469L40.3406 44.6062C40.7157 44.8687 41.2219 44.8219 41.55 44.5031L44.2219 41.8125C44.5594 41.475 44.5875 40.9406 44.2875 40.575L42.8438 38.7563C43.1063 38.2313 43.3219 37.6969 43.4906 37.1531L45.7969 36.7594C46.2469 36.6844 46.5844 36.2906 46.5844 35.8406V32.0437C46.5844 31.5656 46.2281 31.1625 45.75 31.1156ZM32.6719 56.2687C32.6719 57.2906 31.8375 58.125 30.8063 58.125H3.7313C2.70939 58.125 1.87501 57.2906 1.87501 56.2687C1.87501 56.0674 1.87501 50.9131 1.87501 51.0093H32.6719L32.6719 56.2687ZM44.7094 35.0437L42.5907 35.4C42.2157 35.4656 41.925 35.7375 41.8313 36.1125C41.6438 36.9 41.3344 37.6593 40.9219 38.3812C40.725 38.7093 40.7532 39.1312 40.9969 39.4312L42.3 41.0812L40.7812 42.6187L39.0188 41.3625C38.7188 41.1469 38.3063 41.1375 37.9875 41.3344C37.3032 41.7562 36.5532 42.075 35.7563 42.2719C35.3719 42.3656 35.0907 42.6937 35.0438 43.0781L34.8094 45.1875C34.0196 45.1875 33.4246 45.1875 32.6344 45.1875L32.2782 43.0594C32.2219 42.6937 31.9406 42.3937 31.575 42.3094C30.7875 42.1125 30.0282 41.8031 29.325 41.3906C28.9875 41.1937 28.5657 41.2218 28.2657 41.4656L26.6063 42.7781L25.0781 41.25L26.3156 39.5156C26.515 39.2332 26.5505 38.8165 26.3532 38.4656C25.9313 37.7812 25.6031 37.0218 25.3969 36.2156C25.3032 35.8406 24.9844 35.5594 24.6 35.5219L22.5 35.2781V33.1219L24.6188 32.7656C24.9938 32.7 25.2938 32.4187 25.3781 32.0531C25.5656 31.2563 25.875 30.4969 26.2969 29.8031C26.4938 29.4656 26.475 29.0437 26.2313 28.7344L24.9094 27.075L26.4375 25.5469L28.1906 26.7938C28.4906 27.0094 28.9031 27.0281 29.2219 26.8312C29.9063 26.4094 30.6656 26.0906 31.4719 25.8844C31.8469 25.7906 32.1188 25.4719 32.1656 25.0875L32.4 22.9781H34.575L34.9313 25.0969C34.9969 25.4718 35.2688 25.7719 35.6344 25.8563C36.4313 26.0438 37.1907 26.3531 37.8938 26.775C38.2313 26.9719 38.6532 26.9437 38.9532 26.7L40.6031 25.3781L42.1312 26.9156L40.8938 28.6594C40.697 28.938 40.6567 29.3451 40.8562 29.7C41.2875 30.4031 41.6062 31.1625 41.8031 31.9406C41.8969 32.3156 42.2156 32.5969 42.6094 32.6438L44.7094 32.8781L44.7094 35.0437Z" fill="#2776EA"/>
</svg>
