<svg width="60" height="60" viewBox="0 0 60 60" fill="none" xmlns="http://www.w3.org/2000/svg">
<path d="M3.87537 35.2638L3.5 35.3604V35.748V48C3.5 50.4852 5.51472 52.5 8 52.5H23C23.8285 52.5 24.5 53.1716 24.5 54C24.5 54.8285 23.8285 55.5 23 55.5H8C3.85786 55.5 0.5 52.1422 0.5 48V34C0.5 33.1716 1.17157 32.5 2 32.5C4.48529 32.5 6.5 30.4852 6.5 28C6.5 25.5148 4.48529 23.5 2 23.5C1.60217 23.5 1.22065 23.342 0.939357 23.0607L0.58579 23.4142L0.939353 23.0607C0.658026 22.7793 0.5 22.3978 0.5 22V8C0.5 3.85786 3.85787 0.5 8 0.5H29.9396C31.9841 0.5 33.9399 1.33463 35.3545 2.81071L43.4149 11.2216C44.753 12.6178 45.5 14.4769 45.5 16.4108V20C45.5 20.8285 44.8285 21.5 44 21.5C43.1715 21.5 42.5 20.8285 42.5 20V16.4108C42.5 15.2505 42.0518 14.135 41.249 13.2973L40.888 13.6432L41.249 13.2972L33.1886 4.88643L32.8276 5.23238L33.1886 4.88641C32.3398 4.00079 31.1663 3.5 29.9396 3.5H8C5.51473 3.5 3.5 5.51472 3.5 8V20.252V20.6396L3.87537 20.7362C7.11028 21.5688 9.5 24.506 9.5 28C9.5 31.494 7.11028 34.4312 3.87537 35.2638Z" fill="#2776EA" stroke="white"/>
<path d="M11 7.50001C11.8285 7.50001 12.5 8.17158 12.5 9.00001V17C12.5 17.8285 11.8285 18.5 11 18.5C10.1715 18.5 9.5 17.8285 9.5 17V9.00001C9.5 8.17158 10.1715 7.50001 11 7.50001Z" fill="#2776EA" stroke="white"/>
<path d="M19 7.50001C19.8285 7.50001 20.5 8.17158 20.5 9.00001V17C20.5 17.8285 19.8285 18.5 19 18.5C18.1715 18.5 17.5 17.8285 17.5 17V9.00001C17.5 8.17158 18.1715 7.50001 19 7.50001Z" fill="#2776EA" stroke="white"/>
<path d="M27 7.50001C27.8285 7.50001 28.5 8.17158 28.5 9.00001V17C28.5 17.8285 27.8285 18.5 27 18.5C26.1715 18.5 25.5 17.8285 25.5 17V9.00001C25.5 8.17158 26.1715 7.50001 27 7.50001Z" fill="#2776EA" stroke="white"/>
<path d="M35 13.5C35.8285 13.5 36.5 14.1716 36.5 15V17C36.5 17.8285 35.8285 18.5 35 18.5C34.1715 18.5 33.5 17.8285 33.5 17V15C33.5 14.1716 34.1715 13.5 35 13.5Z" fill="#2776EA" stroke="white"/>
<path d="M37.1719 43C37.1719 39.219 40.2253 36.1429 44.0055 36.1429C47.7856 36.1429 50.839 39.219 50.839 43C50.839 46.781 47.7856 49.8571 44.0055 49.8571C40.2253 49.8571 37.1719 46.781 37.1719 43ZM44.0055 39.1429C41.8948 39.1429 40.1719 40.8632 40.1719 43C40.1719 45.1368 41.8948 46.8571 44.0055 46.8571C46.116 46.8571 47.839 45.1368 47.839 43C47.839 40.8632 46.116 39.1429 44.0055 39.1429Z" fill="#2776EA" stroke="white"/>
<path d="M59.3045 36.6082L57.171 32.8967L57.171 32.8966C56.8344 32.311 56.1479 32.0226 55.4941 32.1922L55.4941 32.1922L52.8907 32.8673L52.6425 32.9317L52.4453 32.7676C51.3122 31.8245 50.0188 31.0668 48.6113 30.542L48.3721 30.4528L48.3041 30.2068L47.5832 27.6002C47.4034 26.9502 46.8119 26.5 46.1374 26.5H41.8706C41.1961 26.5 40.6046 26.9501 40.4248 27.6002C40.4248 27.6002 40.4248 27.6002 40.4248 27.6002L39.704 30.2068L39.636 30.4528L39.3968 30.542C37.9892 31.0668 36.6958 31.8245 35.5626 32.7676L35.3655 32.9317L35.1173 32.8673L32.5139 32.1922C31.8601 32.0227 31.1736 32.3111 30.837 32.8967L30.837 32.8967L28.7035 36.6082C28.7035 36.6082 28.7035 36.6082 28.7035 36.6082C28.3688 37.1904 28.4619 37.924 28.9313 38.4043C28.9313 38.4043 28.9313 38.4043 28.9313 38.4043L30.8205 40.3369L30.9983 40.5187L30.956 40.7695C30.8337 41.4955 30.7701 42.2408 30.7701 43C30.7701 43.7592 30.8337 44.5045 30.956 45.2305L30.9983 45.4813L30.8205 45.6631L28.9314 47.5956C28.462 48.0758 28.3689 48.8095 28.7036 49.3917M59.3045 36.6082L28.7036 49.3917M59.3045 36.6082C59.6392 37.1904 59.5461 37.924 59.0766 38.4043L57.1875 40.3368L57.0097 40.5186L57.0519 40.7694C57.1742 41.4954 57.2379 42.2407 57.2379 43C57.2379 43.7593 57.1742 44.5045 57.0519 45.2305L57.0097 45.4813L57.1874 45.6631L59.0765 47.5957L59.0766 47.5957C59.546 48.0759 59.639 48.8096 59.3044 49.3917L59.3044 49.3917L57.171 53.1033C57.171 53.1033 57.171 53.1033 57.171 53.1033C56.8343 53.6889 56.1478 53.9773 55.494 53.8077L55.494 53.8077L52.8908 53.1327L52.6425 53.0683L52.4454 53.2324C51.3123 54.1755 50.0188 54.9332 48.6113 55.458L48.3721 55.5472L48.3041 55.7932L47.5832 58.3998C47.4034 59.0498 46.8119 59.5 46.1374 59.5H41.8706C41.1961 59.5 40.6046 59.0498 40.4248 58.3998L39.704 55.7932L39.636 55.5472L39.3968 55.458C37.9892 54.9332 36.6957 54.1755 35.5625 53.2324L35.3654 53.0683L35.1172 53.1327L32.514 53.8077L32.514 53.8077C31.8602 53.9773 31.1737 53.6889 30.837 53.1032M59.3045 36.6082L30.837 53.1032M28.7036 49.3917L30.837 53.1032M28.7036 49.3917L30.837 53.1032M43.3925 29.5H43.012L42.9106 29.8667L42.3094 32.0409C42.1691 32.5484 41.773 32.9451 41.2658 33.0862C39.5753 33.5567 38.0579 34.4537 36.837 35.6578C36.4611 36.0284 35.9181 36.1742 35.4073 36.0417L35.4073 36.0417L33.237 35.4789L32.868 35.3832L32.678 35.7137L32.0588 36.7909L31.8702 37.119L32.1347 37.3896L33.7127 39.0038C34.0791 39.3786 34.2233 39.9173 34.0931 40.425C33.8825 41.2463 33.7701 42.1089 33.7701 43C33.7701 43.8911 33.8825 44.7537 34.0932 45.5751C34.2233 46.0826 34.0791 46.6214 33.7127 46.9962C33.7127 46.9962 33.7127 46.9962 33.7127 46.9962L32.1348 48.6103L31.8703 48.8809L32.0589 49.2089L32.678 50.2861L32.868 50.6167L33.237 50.521L35.4071 49.9582C35.9182 49.8257 36.4612 49.9716 36.837 50.3422L36.837 50.3422C38.0579 51.5462 39.5753 52.4433 41.2658 52.9138C41.773 53.0549 42.1691 53.4516 42.3094 53.9591L42.9106 56.1333L43.012 56.5H43.3925H44.6155H44.996L45.0974 56.1333L45.6987 53.9591L45.6987 53.9591C45.839 53.4516 46.235 53.0549 46.7422 52.9138L46.6082 52.4321L46.7422 52.9138C48.4327 52.4433 49.95 51.5463 51.1709 50.3422C51.5468 49.9716 52.0898 49.8258 52.6008 49.9583L52.6008 49.9583L54.771 50.521L55.14 50.6167L55.33 50.2862L55.9491 49.2091L56.1377 48.881L55.8731 48.6104L54.2952 46.9962L54.2952 46.9962C53.9289 46.6215 53.7847 46.0828 53.9149 45.5752L53.9149 45.5751C54.1254 44.7537 54.2379 43.8912 54.2379 43C54.2379 42.1088 54.1254 41.2463 53.9149 40.4249L53.9149 40.4248C53.7847 39.9172 53.9289 39.3785 54.2952 39.0038L53.9377 38.6543L54.2952 39.0038L55.8732 37.3896L56.1378 37.119L55.9492 36.7909L55.33 35.7137L55.14 35.3832L54.771 35.4789L52.6007 36.0417C52.6007 36.0417 52.6007 36.0417 52.6007 36.0417C52.0898 36.1741 51.5468 36.0283 51.171 35.6577L51.171 35.6577C49.95 34.4537 48.4327 33.5567 46.7422 33.0862L46.6089 33.5653L46.7422 33.0862C46.235 32.9451 45.839 32.5484 45.6987 32.0409L45.6987 32.0409L45.0974 29.8667L44.996 29.5H44.6155H43.3925Z" fill="#2776EA" stroke="white"/>
</svg>
