<svg width="239" height="138" viewBox="0 0 239 138" fill="none" xmlns="http://www.w3.org/2000/svg">
<g filter="url(#filter0_d_260_662976)">
<path d="M27 53C27 37.9151 27 30.3726 31.6863 25.6863C36.3726 21 43.9151 21 59 21H179.502C194.587 21 202.13 21 206.816 25.6863C211.502 30.3726 211.502 37.9151 211.502 53V71.3399C211.502 86.4248 211.502 93.9673 206.816 98.6536C202.13 103.34 194.587 103.34 179.502 103.34H59C43.915 103.34 36.3726 103.34 31.6863 98.6536C27 93.9673 27 86.4248 27 71.3399V53Z" fill="white"/>
<path d="M27 21H211.502H27ZM211.502 87.3399C211.502 96.7287 203.891 104.34 194.502 104.34H44C34.6112 104.34 27 96.7287 27 87.3399C27 95.6241 34.1634 102.34 43 102.34H195.502C204.339 102.34 211.502 95.6241 211.502 87.3399ZM27 103.34V21V103.34ZM211.502 21V103.34V21Z" fill="#0274BA"/>
</g>
<path d="M123.871 43.5718L125.015 43.5918L128.123 40.4838L128.273 39.1668C125.803 36.9698 122.553 35.6328 118.996 35.6328C112.556 35.6328 107.12 40.0148 105.51 45.9508C105.85 45.7138 106.575 45.8908 106.575 45.8908L112.787 44.8688C112.787 44.8688 113.107 44.3388 113.267 44.3718C114.6 42.9131 116.44 42.0181 118.411 41.8694C120.381 41.7208 122.334 42.3296 123.871 43.5718Z" fill="#EA4335"/>
<path d="M132.5 45.962C131.786 43.3347 130.321 40.9728 128.284 39.166L123.882 43.568C124.786 44.2941 125.515 45.2135 126.016 46.2587C126.517 47.3038 126.777 48.448 126.777 49.607V50.384C128.919 50.384 130.657 52.127 130.657 54.264C130.657 56.401 128.914 58.144 126.777 58.144H119.015L118.238 58.924V63.582L119.015 64.355H126.777C129.45 64.3479 132.012 63.2823 133.902 61.3914C135.791 59.5005 136.855 56.9382 136.86 54.265C136.856 50.829 135.124 47.785 132.49 45.962H132.5Z" fill="#4285F4"/>
<path d="M111.234 64.3617H118.994V58.1497H111.234C110.683 58.15 110.138 58.0317 109.637 57.8027L108.517 58.1457L105.409 61.2537L105.137 62.3037C106.885 63.6464 109.03 64.3709 111.235 64.3637L111.234 64.3617Z" fill="#34A853"/>
<path d="M111.235 44.1748C108.559 44.179 105.994 45.2439 104.102 47.1359C102.21 49.028 101.145 51.593 101.141 54.2688C101.141 55.8269 101.502 57.3638 102.196 58.7588C102.89 60.1539 103.898 61.369 105.141 62.3088L109.641 57.8088C108.959 57.5021 108.38 57.0051 107.975 56.3774C107.569 55.7498 107.353 55.0183 107.353 54.2708C107.353 52.1288 109.096 50.3908 111.233 50.3908C111.98 50.3921 112.711 50.6086 113.338 51.0143C113.966 51.4201 114.463 51.9979 114.771 52.6788L119.271 48.1788C117.425 45.7488 114.511 44.1788 111.231 44.1788L111.235 44.1748Z" fill="#FBBC05"/>
<path d="M71.0006 83.9369C68.8806 83.9369 67.0606 83.1869 65.5266 81.6869C63.9926 80.1869 63.2266 78.3829 63.2266 76.2789C63.2266 74.1749 63.9916 72.3709 65.5266 70.8709C67.0616 69.3709 68.8836 68.6199 71.0006 68.6199C71.9717 68.6058 72.936 68.7851 73.8371 69.1473C74.7383 69.5096 75.5584 70.0476 76.2496 70.7299L74.7726 72.2069C73.7619 71.2296 72.4054 70.6921 70.9996 70.7119C69.4696 70.7119 68.1696 71.2519 67.1036 72.3389C66.585 72.8539 66.1761 73.4686 65.9016 74.1459C65.6272 74.8233 65.4928 75.5492 65.5066 76.2799C65.5066 77.8259 66.0366 79.1369 67.1036 80.2199C67.605 80.746 68.2102 81.1623 68.8808 81.4423C69.5514 81.7224 70.2729 81.8602 70.9996 81.8469C72.5576 81.8469 73.8446 81.3469 74.8696 80.3129C75.4696 79.7129 75.8696 78.8129 76.0096 77.6779H71.0036V75.5859H78.0476C78.1226 75.9579 78.1476 76.3859 78.1476 76.8859C78.1476 78.9419 77.5446 80.5719 76.3346 81.7809C74.9626 83.2159 73.1846 83.9309 70.9896 83.9309L71.0006 83.9369ZM87.3706 82.5369C86.4106 83.4769 85.2406 83.9369 83.8586 83.9369C82.4766 83.9369 81.3046 83.4669 80.3466 82.5369C79.3886 81.6069 78.9086 80.4239 78.9086 79.0169C78.9086 77.6099 79.3886 76.4369 80.3466 75.4969C81.3046 74.5569 82.4766 74.0969 83.8586 74.0969C85.2406 74.0969 86.4126 74.5669 87.3706 75.4969C88.3286 76.4269 88.8086 77.6129 88.8086 79.0169C88.8086 80.4209 88.3286 81.5969 87.3706 82.5369ZM81.8966 81.1569C82.146 81.428 82.4497 81.6437 82.7879 81.79C83.126 81.9362 83.4911 82.0098 83.8596 82.0059C84.6196 82.0059 85.2736 81.7239 85.8226 81.1559C86.3716 80.5879 86.6446 79.8759 86.6446 79.0159C86.6446 78.1459 86.3746 77.4279 85.8316 76.8659C85.2886 76.3039 84.6336 76.0259 83.8596 76.0259C83.4904 76.0203 83.1242 76.0921 82.7845 76.2368C82.4448 76.3815 82.1392 76.5958 81.8876 76.8659C81.3446 77.4259 81.0746 78.1419 81.0746 79.0159C81.0746 79.8739 81.3476 80.5889 81.8966 81.1559V81.1569ZM98.1696 82.5369C97.2096 83.4769 96.0396 83.9369 94.6576 83.9369C93.2756 83.9369 92.1036 83.4669 91.1456 82.5369C90.1876 81.6069 89.7076 80.4239 89.7076 79.0169C89.7076 77.6099 90.1876 76.4369 91.1456 75.4969C92.1036 74.5569 93.2756 74.0969 94.6576 74.0969C96.0396 74.0969 97.2116 74.5669 98.1696 75.4969C99.1276 76.4269 99.6076 77.6129 99.6076 79.0169C99.6076 80.4209 99.1276 81.5969 98.1696 82.5369ZM92.6956 81.1569C92.945 81.428 93.2487 81.6437 93.5869 81.79C93.925 81.9362 94.2901 82.0098 94.6586 82.0059C95.4186 82.0059 96.0726 81.7239 96.6216 81.1559C97.1706 80.5879 97.4436 79.8759 97.4436 79.0159C97.4436 78.1459 97.1736 77.4279 96.6306 76.8659C96.0876 76.3039 95.4326 76.0259 94.6586 76.0259C94.2894 76.0203 93.9232 76.0921 93.5835 76.2368C93.2438 76.3815 92.9383 76.5958 92.6866 76.8659C92.1436 77.4259 91.8736 78.1419 91.8736 79.0159C91.8736 79.8739 92.1466 80.5889 92.6956 81.1559V81.1569ZM105.269 88.3769C104.174 88.3769 103.252 88.0829 102.505 87.4969C101.758 86.9109 101.223 86.2329 100.899 85.4589L102.787 84.6759C102.985 85.1499 103.287 85.5609 103.72 85.9099C104.153 86.2589 104.66 86.4319 105.272 86.4319C106.094 86.4319 106.74 86.1819 107.205 85.6849C107.67 85.1879 107.905 84.4689 107.905 83.5349V82.8349H107.83C107.23 83.5819 106.353 83.9569 105.234 83.9569C103.976 83.9569 102.874 83.4769 101.927 82.5189C101.467 82.0661 101.103 81.5244 100.859 80.9268C100.615 80.3293 100.495 79.6883 100.507 79.0429C100.495 78.3935 100.615 77.7484 100.859 77.1464C101.103 76.5444 101.466 75.998 101.927 75.5399C102.872 74.5769 103.977 74.0929 105.234 74.0929C105.794 74.0929 106.302 74.1979 106.756 74.4109C107.21 74.6239 107.569 74.8849 107.83 75.1939H107.905V74.3999H109.961V83.2569C109.961 84.9769 109.523 86.2609 108.643 87.1169C107.763 87.9669 106.641 88.3969 105.27 88.3969L105.269 88.3769ZM105.419 82.0049C105.775 82.0112 106.129 81.9383 106.453 81.7915C106.778 81.6447 107.067 81.4276 107.298 81.1559C107.802 80.5889 108.054 79.8829 108.054 79.0339C108.054 78.1759 107.802 77.4579 107.298 76.8839C107.068 76.61 106.78 76.3909 106.455 76.2424C106.13 76.094 105.776 76.02 105.419 76.0259C104.659 76.0259 104.011 76.3139 103.477 76.8839C102.943 77.4539 102.673 78.1719 102.673 79.0339C102.673 79.8799 102.94 80.5889 103.477 81.1559C104.014 81.7229 104.66 82.0049 105.419 82.0049ZM113.621 69.1399V83.6399H111.454V69.1399H113.621ZM119.561 83.9359C118.165 83.9359 117.001 83.4619 116.067 82.5159C115.133 81.5699 114.665 80.3999 114.665 79.0039C114.665 77.5599 115.115 76.3739 116.019 75.4539C116.443 75.0076 116.955 74.6542 117.522 74.416C118.09 74.1778 118.701 74.0599 119.317 74.0699C119.914 74.0699 120.47 74.1779 120.98 74.3969C121.454 74.5912 121.885 74.8766 122.25 75.2369C122.553 75.5394 122.823 75.8744 123.054 76.2359C123.244 76.5449 123.407 76.8701 123.54 77.2079L123.765 77.7679L117.171 80.4999C117.671 81.4959 118.471 81.9949 119.563 81.9949C120.559 81.9949 121.37 81.5419 121.991 80.6319L123.671 81.7539C123.296 82.3139 122.768 82.8189 122.083 83.2669C121.398 83.7149 120.555 83.9369 119.559 83.9369L119.561 83.9359ZM116.815 78.8559L121.215 77.0259C121.089 76.7139 120.861 76.4619 120.515 76.2699C120.167 76.075 119.773 75.9756 119.375 75.9819C118.739 75.9819 118.145 76.2419 117.592 76.7649C117.039 77.2879 116.772 77.9869 116.797 78.8569L116.815 78.8559ZM135.145 83.9359C133.175 83.9359 131.525 83.2699 130.193 81.9359C128.861 80.6019 128.193 78.9409 128.193 76.9479C128.193 74.9549 128.859 73.2919 130.193 71.9599C131.527 70.6279 133.176 69.9599 135.145 69.9599C137.162 69.9599 138.801 70.6899 140.058 72.1449L138.863 73.3049C137.963 72.1709 136.713 71.6049 135.143 71.6049C133.683 71.6049 132.457 72.0969 131.443 73.0819C130.429 74.0669 129.939 75.3539 129.939 76.9479C129.939 78.5419 130.439 79.8319 131.443 80.8179C132.447 81.8039 133.676 82.2949 135.143 82.2949C136.749 82.2949 138.12 81.6469 139.243 80.3529L140.438 81.5479C139.811 82.2951 139.025 82.8921 138.138 83.2949C137.196 83.7281 136.17 83.9473 135.134 83.9369L135.145 83.9359ZM143.701 83.6399H141.981V70.2629H143.701V83.6399ZM146.504 75.5799C147.389 74.6529 148.504 74.1869 149.886 74.1869C151.268 74.1869 152.383 74.6519 153.268 75.5799C154.153 76.5079 154.595 77.6799 154.595 79.0649C154.595 80.4499 154.155 81.6219 153.268 82.5499C152.381 83.4779 151.268 83.9429 149.886 83.9429C148.504 83.9429 147.389 83.4779 146.504 82.5499C145.619 81.6219 145.177 80.4499 145.177 79.0649C145.177 77.6799 145.617 76.5079 146.504 75.5799ZM147.784 81.4629C148.384 82.0659 149.078 82.3689 149.884 82.3689C150.69 82.3689 151.384 82.0659 151.984 81.4629C152.584 80.8599 152.872 80.0579 152.872 79.0629C152.872 78.0679 152.575 77.2649 151.984 76.6629C151.393 76.0609 150.69 75.7569 149.884 75.7569C149.078 75.7569 148.384 76.0599 147.784 76.6629C147.184 77.2659 146.896 78.0679 146.896 79.0629C146.896 80.0579 147.193 80.8609 147.784 81.4629ZM164.104 83.6399H162.459V82.3699H162.384C162.124 82.8049 161.724 83.1769 161.189 83.4699C160.654 83.7629 160.089 83.9299 159.489 83.9299C158.342 83.9299 157.475 83.5819 156.884 82.8829C156.293 82.1839 155.996 81.2499 155.996 80.0799V74.4739H157.716V79.7979C157.716 81.5059 158.469 82.3579 159.976 82.3579C160.313 82.365 160.647 82.2908 160.949 82.1414C161.252 81.9921 161.514 81.772 161.714 81.4999C162.158 80.9362 162.395 80.2368 162.386 79.5189V74.4739H164.106V83.6309L164.104 83.6399ZM169.932 83.9369C168.749 83.9369 167.726 83.4689 166.868 82.5349C166.01 81.6009 165.58 80.4429 165.58 79.0589C165.58 77.6749 166.01 76.5169 166.868 75.5829C167.726 74.6489 168.75 74.1809 169.932 74.1809C170.628 74.1809 171.256 74.3309 171.812 74.6279C172.368 74.9249 172.782 75.2999 173.055 75.7499H173.13L173.055 74.4799V70.2599H174.775V83.6399H173.13V82.3699H173.055C172.782 82.8169 172.368 83.1919 171.812 83.4919C171.257 83.7859 170.629 83.9369 169.932 83.9369ZM170.212 82.3669C170.6 82.3722 170.984 82.2949 171.34 82.1403C171.696 81.9857 172.016 81.7572 172.277 81.4699C172.844 80.8729 173.127 80.0679 173.127 79.0699C173.127 78.0719 172.845 77.2569 172.277 76.6699C172.016 76.3827 171.696 76.1542 171.34 75.9995C170.984 75.8449 170.6 75.7676 170.212 75.7729C169.414 75.7729 168.729 76.0759 168.156 76.6789C167.583 77.2819 167.298 78.0839 167.298 79.0789C167.298 80.0739 167.583 80.8769 168.156 81.4789C168.414 81.7672 168.732 81.997 169.086 82.1532C169.441 82.3094 169.824 82.3884 170.212 82.3849V82.3669Z" fill="#5F6368"/>
<defs>
<filter id="filter0_d_260_662976" x="0.1" y="0.1" width="238.302" height="137.14" filterUnits="userSpaceOnUse" color-interpolation-filters="sRGB">
<feFlood flood-opacity="0" result="BackgroundImageFix"/>
<feColorMatrix in="SourceAlpha" type="matrix" values="0 0 0 0 0 0 0 0 0 0 0 0 0 0 0 0 0 0 127 0" result="hardAlpha"/>
<feOffset dy="6"/>
<feGaussianBlur stdDeviation="13.45"/>
<feComposite in2="hardAlpha" operator="out"/>
<feColorMatrix type="matrix" values="0 0 0 0 0.546429 0 0 0 0 0.546429 0 0 0 0 0.546429 0 0 0 0.19 0"/>
<feBlend mode="normal" in2="BackgroundImageFix" result="effect1_dropShadow_260_662976"/>
<feBlend mode="normal" in="SourceGraphic" in2="effect1_dropShadow_260_662976" result="shape"/>
</filter>
</defs>
</svg>
