<svg width="65" height="72" viewBox="0 0 65 72" fill="none" xmlns="http://www.w3.org/2000/svg">
<path d="M10.9288 19.5114C9.37422 19.5114 7.83315 19.5114 6.27852 19.5114C6.27852 30.7093 6.27852 41.8976 6.27852 53.0975C23.7608 53.0975 41.2353 53.0975 58.7254 53.0975C58.7254 41.9073 58.7254 30.7209 58.7254 19.5172C57.2211 19.5172 55.7148 19.5172 54.1912 19.5172C54.2512 19.8676 54.3132 20.2122 54.3674 20.5549C54.6616 22.3864 54.743 24.2295 54.6171 26.0803C54.379 29.6077 53.4323 32.9319 51.7344 36.0295C49.0317 40.9567 45.0996 44.5616 39.9576 46.8344C37.6537 47.8528 35.2395 48.4723 32.7343 48.7201C31.9153 48.8014 31.0886 48.8189 30.2658 48.846C29.8496 48.8595 29.5147 48.5556 29.4566 48.1664C29.3985 47.7754 29.625 47.3978 30.0025 47.2797C30.111 47.2449 30.2329 47.2333 30.3471 47.2333C33.5571 47.2139 36.6353 46.5711 39.5587 45.243C44.3039 43.0844 47.9165 39.7002 50.3947 35.1138C51.6414 32.8099 52.4372 30.3492 52.8186 27.7588C53.0819 25.9699 53.1322 24.1752 52.9657 22.3747C52.5533 17.9122 50.9774 13.9046 48.2069 10.3888C44.9467 6.24768 40.7397 3.53725 35.6209 2.26141C33.8881 1.82968 32.1225 1.6264 30.3375 1.62252C29.9774 1.62252 29.6908 1.49475 29.5301 1.15981C29.383 0.851987 29.4256 0.555776 29.6386 0.292477C29.8167 0.0737064 30.0606 -0.00373456 30.3355 0.000137488C31.6772 0.0194977 33.0111 0.122107 34.3354 0.346686C37.5511 0.892644 40.5403 2.03296 43.2914 3.78312C46.933 6.10054 49.7771 9.16527 51.8157 12.9734C51.9241 13.1767 52.0403 13.2445 52.2707 13.2445C54.47 13.2348 56.6693 13.2367 58.8686 13.2387C61.945 13.2425 64.5605 15.5387 64.9497 18.5801C64.9826 18.8318 64.9981 19.0874 64.9981 19.341C65 30.6338 65 41.9266 65 53.2214C65 56.3248 62.7174 58.9268 59.6372 59.3237C59.3662 59.3586 59.0893 59.3721 58.8144 59.3721C52.5862 59.3741 46.36 59.3741 40.1318 59.3702C39.9595 59.3702 39.8627 59.4147 39.7794 59.5715C39.4639 60.1659 39.1309 60.7525 38.976 61.4166C38.856 61.9335 38.885 62.4504 39.0863 62.9344C39.3109 63.4707 39.582 63.9895 39.8453 64.5084C39.8743 64.5665 39.9827 64.6071 40.0582 64.611C40.5171 64.64 40.9875 64.5994 41.4328 64.6865C42.9894 64.9866 44.0542 66.2934 44.0716 67.8771C44.0813 68.6805 44.0755 69.4859 44.0716 70.2894C44.0697 70.8121 43.7405 71.1373 43.2198 71.1373C36.072 71.1373 28.9222 71.1373 21.7744 71.1373C21.2827 71.1373 20.9342 70.8314 20.9284 70.3474C20.9187 69.4278 20.8994 68.5043 20.9516 67.5867C21.0446 65.9662 22.4733 64.642 24.0957 64.6168C24.3842 64.6129 24.6727 64.6207 24.9611 64.6129C25.0212 64.611 25.1083 64.5858 25.1334 64.5413C25.4955 63.9102 25.8575 63.2771 26.0201 62.5569C26.1382 62.04 26.1073 61.525 25.902 61.039C25.6775 60.5105 25.4103 59.9975 25.1528 59.4825C25.1257 59.4283 25.0308 59.3954 24.9592 59.3779C24.8876 59.3605 24.8082 59.3741 24.7327 59.3741C18.5471 59.3741 12.3596 59.3741 6.17397 59.3741C3.06472 59.3741 0.480134 57.1302 0.0542091 54.0558C0.0154887 53.777 0.00193644 53.4944 0.00193644 53.2136C4.13622e-07 41.9557 0 30.6958 0 19.4378C0 16.3711 2.13737 13.833 5.16143 13.3258C5.52541 13.2638 5.901 13.2464 6.27078 13.2445C8.6908 13.2367 11.1089 13.2387 13.5289 13.2445C13.6993 13.2445 13.8 13.1961 13.8987 13.0547C16.4136 9.49245 19.7261 6.98143 23.8499 5.55458C25.6658 4.92731 27.538 4.59045 29.4585 4.51688C33.2609 4.37361 36.8348 5.20804 40.1163 7.12663C45.21 10.1062 48.4277 14.4951 49.7345 20.2587C50.2378 22.4774 50.3153 24.7251 50.0152 26.9786C49.4847 30.99 47.8856 34.5291 45.2139 37.5706C42.7725 40.3488 39.7814 42.3022 36.2559 43.429C34.5851 43.9633 32.8717 44.2615 31.1196 44.3331C27.1256 44.4977 23.393 43.5858 19.9875 41.4949C15.1087 38.4979 12.0227 34.1845 10.7623 28.5894C10.29 26.4946 10.1912 24.3708 10.4448 22.2392C10.5494 21.368 10.743 20.5084 10.8979 19.645C10.9134 19.6024 10.9211 19.5636 10.9288 19.5114ZM53.8272 17.887C53.8853 17.887 53.9666 17.887 54.0499 17.887C55.6316 17.887 57.2114 17.887 58.7931 17.887C59.7108 17.887 60.3535 18.524 60.3535 19.4378C60.3535 30.6822 60.3497 41.9266 60.3613 53.171C60.3613 54.0423 59.6353 54.7276 58.7989 54.7276C41.2857 54.716 23.7724 54.716 6.25916 54.7295C5.37053 54.7295 4.65226 54.0287 4.65226 53.1304C4.66581 41.9131 4.66581 30.6958 4.65226 19.4785C4.65033 18.6285 5.31438 17.8696 6.24367 17.8812C7.90671 17.9025 9.56976 17.8851 11.2328 17.8909C11.3761 17.8909 11.44 17.8503 11.5 17.7109C11.8794 16.828 12.2724 15.953 12.6635 15.0759C12.6926 15.0121 12.7235 14.9501 12.7623 14.8707C12.6945 14.8649 12.6596 14.8591 12.6267 14.8591C10.4623 14.8591 8.29585 14.8552 6.13138 14.861C3.64166 14.8668 1.62626 16.8764 1.62432 19.3584C1.61851 30.659 1.62045 41.9576 1.62819 53.2582C1.62819 53.6241 1.68047 54.0016 1.77146 54.3578C2.28838 56.3926 4.08307 57.7633 6.21076 57.7633C17.4281 57.7652 28.6454 57.7633 39.8627 57.7633C46.1722 57.7633 52.4817 57.7633 58.7912 57.7614C59.0448 57.7614 59.3023 57.7517 59.5501 57.7091C61.8385 57.3199 63.395 55.4749 63.395 53.1517C63.395 41.9208 63.395 30.69 63.3931 19.4591C63.3931 19.2055 63.3815 18.948 63.3389 18.7002C62.9652 16.4292 61.1047 14.861 58.7989 14.861C56.861 14.861 54.923 14.861 52.9851 14.861C52.9115 14.861 52.8399 14.861 52.7702 14.861C53.1244 15.8755 53.471 16.8706 53.8272 17.887ZM30.2562 42.7494C40.3138 42.7552 48.569 34.5233 48.5767 24.4792C48.5845 14.3887 40.4512 6.11216 30.2581 6.11216C20.0959 6.11216 11.9801 14.3286 11.9453 24.3321C11.9085 34.5059 20.1288 42.7436 30.2562 42.7494ZM22.5798 69.5149C29.1952 69.5149 35.8164 69.5149 42.4589 69.5149C42.4589 69.0019 42.4376 68.5005 42.4628 68.0029C42.515 67.0136 41.729 66.216 40.6816 66.2198C35.7545 66.2353 30.8253 66.2256 25.8982 66.2256C25.3348 66.2256 24.7714 66.2218 24.208 66.2276C23.4065 66.2353 22.6882 66.7871 22.5972 67.5751C22.5198 68.2101 22.5798 68.8606 22.5798 69.5149ZM26.9494 64.5994C30.6666 64.5994 34.3489 64.5994 38.0874 64.5994C37.0593 62.8531 37.0651 61.1204 38.0835 59.3857C34.3431 59.3857 30.6588 59.3857 26.9456 59.3857C27.3579 60.224 27.7025 61.0584 27.7025 61.9896C27.7045 62.9209 27.3618 63.7572 26.9494 64.5994Z" fill="#2776EA"/>
<path d="M30.2507 40.7244C21.2714 40.7108 13.9358 33.3733 13.959 24.4231C13.9823 15.4264 21.2675 8.1295 30.2545 8.13143C39.1932 8.13337 46.5578 15.3431 46.55 24.4385C46.5423 33.5224 39.1931 40.7011 30.2507 40.7244ZM42.5405 16.3982C41.406 14.6849 39.9985 13.2735 38.2832 12.1448C38.1225 12.4255 37.9715 12.685 37.8205 12.9463C37.7063 13.1457 37.5456 13.2909 37.3191 13.3471C36.9803 13.4303 36.6879 13.3413 36.4711 13.0683C36.2543 12.7934 36.2349 12.4875 36.3975 12.1797C36.5485 11.897 36.715 11.624 36.8815 11.3336C35.0423 10.4063 33.1179 9.89128 31.0715 9.77511C31.0677 9.86224 31.0619 9.93 31.0619 9.99776C31.0599 10.2514 31.0657 10.5069 31.0599 10.7606C31.0522 11.1981 30.7037 11.5388 30.2662 11.5427C29.8267 11.5466 29.4685 11.2175 29.453 10.7799C29.4414 10.4527 29.4511 10.1236 29.4511 9.77318C27.3873 9.89515 25.4609 10.4063 23.6372 11.3336C23.8153 11.6492 23.9876 11.9299 24.1367 12.2242C24.2916 12.5301 24.2451 12.8321 24.0302 13.0915C23.8134 13.3509 23.523 13.4361 23.1939 13.3471C22.9635 13.2851 22.8009 13.1341 22.6847 12.925C22.5395 12.6656 22.3865 12.41 22.2317 12.1467C20.5105 13.289 19.105 14.6926 17.9763 16.4021C18.1486 16.5028 18.3015 16.5938 18.4545 16.6828C18.5552 16.7409 18.6578 16.799 18.7584 16.859C19.1921 17.1165 19.3315 17.5792 19.103 17.9858C18.8785 18.3865 18.3925 18.5046 17.9569 18.2607C17.6956 18.1155 17.4381 17.9626 17.1612 17.8057C16.2358 19.645 15.7189 21.5655 15.6008 23.6235C15.9454 23.6235 16.2668 23.6177 16.5882 23.6254C17.0373 23.6351 17.3761 23.9913 17.3722 24.4385C17.3684 24.878 17.0354 25.2246 16.592 25.2342C16.2648 25.242 15.9377 25.2362 15.5989 25.2362C15.7228 27.3039 16.2358 29.2283 17.1612 31.0578C17.4361 30.899 17.6898 30.75 17.9472 30.6048C18.3848 30.3589 18.863 30.4673 19.0972 30.8642C19.3354 31.2708 19.1921 31.7451 18.7507 32.0065C18.4971 32.1555 18.2435 32.3027 17.9724 32.4595C19.105 34.1729 20.5125 35.5842 22.2278 36.7149C22.3827 36.4458 22.5279 36.1979 22.6731 35.9501C22.9364 35.5029 23.403 35.3538 23.8115 35.5881C24.218 35.8204 24.3303 36.3083 24.0767 36.7516C23.9315 37.0053 23.7863 37.2589 23.6314 37.528C25.4687 38.4553 27.3931 38.9703 29.4395 39.0884C29.4433 38.9994 29.4492 38.9316 29.4492 38.8638C29.4511 38.5967 29.4414 38.3276 29.455 38.0604C29.4763 37.6267 29.8422 37.3034 30.2836 37.3131C30.7076 37.3228 31.0522 37.6635 31.0599 38.0914C31.0657 38.4186 31.0619 38.7457 31.0619 39.0884C33.1257 38.9665 35.0501 38.4534 36.8641 37.5357C36.8602 37.5048 36.8622 37.4893 36.8564 37.4796C36.7131 37.2298 36.564 36.982 36.4304 36.7265C36.3704 36.6142 36.3201 36.4864 36.3065 36.3606C36.2639 35.9908 36.4924 35.6462 36.8409 35.5242C37.2029 35.3984 37.5959 35.5397 37.805 35.8824C37.9696 36.1515 38.1225 36.4264 38.289 36.7129C40.0043 35.5784 41.4138 34.1709 42.5444 32.4556C42.2811 32.3027 42.0372 32.1633 41.7952 32.0219C41.3325 31.7509 41.1776 31.2804 41.4176 30.8719C41.6596 30.4596 42.1417 30.357 42.6006 30.6222C42.8484 30.7635 43.0962 30.9049 43.3575 31.0539C44.283 29.2147 44.7999 27.2922 44.916 25.2362C44.5966 25.2362 44.3043 25.2381 44.01 25.2362C43.5066 25.2342 43.1484 24.9032 43.1465 24.4385C43.1426 23.9623 43.5008 23.6254 44.0138 23.6235C44.3081 23.6215 44.6005 23.6235 44.8909 23.6235C45.0496 22.518 43.9829 18.5743 43.3285 17.8212C43.0729 17.9684 42.8213 18.1213 42.5599 18.2588C42.4476 18.3188 42.3198 18.3691 42.194 18.3827C41.8165 18.4253 41.4796 18.2026 41.3576 17.8522C41.2318 17.4921 41.3615 17.1068 41.6945 16.8997C41.9636 16.7254 42.2463 16.5706 42.5405 16.3982Z" fill="#2776EA"/>
<path d="M24.666 29.3986C24.7396 29.3986 24.8131 29.3986 24.8867 29.3986C26.5633 29.3986 28.2399 29.3986 29.9184 29.3986C30.2921 29.3986 30.5844 29.598 30.7083 29.9194C30.8264 30.2331 30.7548 30.5893 30.4915 30.8003C30.3695 30.899 30.203 30.9455 30.052 31.0017C29.9843 31.0268 29.9029 31.0152 29.8274 31.0152C27.4829 31.0152 25.1403 31.0171 22.7958 31.0152C22.6738 31.0152 22.5441 31.0133 22.428 30.9804C21.8665 30.8216 21.6613 30.1266 22.0427 29.6852C22.124 29.5922 22.215 29.509 22.3041 29.4219C24.0291 27.6969 25.7541 25.9719 27.479 24.2449C28.329 23.3931 28.5439 22.0998 28.0134 21.0292C27.4636 19.9199 26.3097 19.3216 25.059 19.4939C23.9245 19.6508 22.9604 20.5859 22.7416 21.7436C22.7106 21.912 22.6971 22.0843 22.6913 22.2547C22.6758 22.7194 22.3312 23.0717 21.882 23.0717C21.4348 23.0717 21.0844 22.7155 21.0766 22.2508C21.0456 20.1948 22.6216 18.2839 24.6466 17.9238C27.1209 17.4844 29.3705 19.0061 29.8333 21.4784C30.1062 22.9343 29.7152 24.2411 28.6774 25.3078C27.4384 26.5856 26.1645 27.8305 24.9041 29.0869C24.817 29.1741 24.7163 29.2457 24.6234 29.3251C24.6408 29.3541 24.6544 29.3754 24.666 29.3986Z" fill="#2776EA"/>
<path d="M37.0766 27.8285C37.0766 28.6068 37.0785 29.356 37.0747 30.1033C37.0747 30.206 37.0689 30.3105 37.0437 30.4092C36.9469 30.8042 36.5926 31.0481 36.1783 31.0094C35.7872 30.9726 35.4736 30.657 35.4678 30.2563C35.4562 29.5342 35.462 28.814 35.462 28.0918C35.462 28.0124 35.462 27.9311 35.462 27.8285C35.3535 27.8285 35.2742 27.8285 35.1929 27.8285C33.5569 27.8285 31.9229 27.8246 30.287 27.8305C29.9249 27.8324 29.6365 27.7143 29.47 27.3852C29.3015 27.056 29.3809 26.7521 29.5919 26.4617C31.5783 23.728 33.5608 20.9944 35.5433 18.2568C35.6982 18.0419 35.8821 17.8754 36.1551 17.8445C36.6468 17.7883 37.0456 18.129 37.0727 18.6247C37.0766 18.6866 37.0727 18.7486 37.0727 18.8105C37.0727 21.1802 37.0727 23.5499 37.0727 25.9215C37.0727 26.0106 37.0727 26.0977 37.0727 26.2139C37.2025 26.2139 37.3167 26.2139 37.4309 26.2139C37.8355 26.2139 38.2421 26.2061 38.6467 26.2177C39.0959 26.2294 39.4347 26.5895 39.4289 27.0348C39.425 27.4762 39.0746 27.8227 38.6235 27.8266C38.1221 27.8305 37.6148 27.8285 37.0766 27.8285ZM31.7835 26.2003C33.0342 26.2003 34.2384 26.2003 35.4426 26.2003C35.4426 24.5276 35.4426 22.8684 35.4426 21.1551C34.2094 22.8588 33.0052 24.516 31.7835 26.2003Z" fill="#2776EA"/>
</svg>
