<svg width="65" height="84" viewBox="0 0 65 84" fill="none" xmlns="http://www.w3.org/2000/svg">
<path d="M9.50965 49.7562C9.50965 50.9683 7.66058 50.9683 7.66058 49.7562V37.8067C7.66058 37.3095 8.08019 36.8899 8.57736 36.8899H31.3888V32.135C31.3888 30.9229 33.2379 30.9229 33.2379 32.135V36.8899H56.0337C56.5466 36.8899 56.9505 37.3095 56.9505 37.8067V49.7562C56.9505 50.9683 55.1169 50.9683 55.1169 49.7562V38.739H33.2379V54.1538C33.2379 55.3659 31.3888 55.3659 31.3888 54.1538V38.739H9.50984L9.50965 49.7562ZM52.5841 58.3338L58.7842 61.9078L59.5767 61.4572L53.3611 57.8676L52.5841 58.3338ZM56.9506 62.9644L50.7351 59.3904L49.8338 59.9187L56.0339 63.4928L56.9506 62.9644ZM55.1947 56.8108L61.4103 60.3849L62.2493 59.9187C60.1669 58.7222 58.1003 57.5258 56.0337 56.3292L55.1947 56.8108ZM49.9891 67.9834C48.948 67.393 49.8648 65.7925 50.9059 66.3984L53.8428 68.0922C54.8838 68.6982 53.9826 70.2831 52.926 69.6772L49.9891 67.9834ZM49.9736 65.1708C48.9325 64.5649 49.8338 62.9799 50.8904 63.5704L53.5631 65.1243C54.6042 65.7147 53.6874 67.3152 52.6464 66.7093L49.9736 65.1708ZM62.3117 61.9854V65.808C62.3117 66.1809 62.0942 66.5072 61.7833 66.647L59.1728 68.1543C58.5511 68.4961 57.8054 68.0455 57.8054 67.3618L57.7899 64.5957L56.9508 65.0774V72.241C59.0175 71.0444 61.0843 69.8635 63.1509 68.6669V61.5033L62.3119 61.985L62.3117 61.9854ZM59.6389 63.5393V65.7615L60.478 65.2798V63.0422L59.6389 63.5393ZM56.5623 74.6031C56.2514 74.8052 55.832 74.8052 55.5212 74.6031C52.8639 73.0647 50.2069 71.5264 47.5341 69.988C47.2388 69.8172 47.0834 69.5063 47.0834 69.1955V59.9187C47.0834 59.5459 47.301 59.2195 47.6118 59.0797C50.2691 57.5413 52.9262 56.003 55.5834 54.4801C55.8787 54.3093 56.2361 54.3093 56.5002 54.4801C59.173 56.0186 61.8458 57.5723 64.5183 59.1107C64.8137 59.2818 64.9845 59.5614 65 59.9187V69.1955C65 69.5684 64.7824 69.8947 64.4561 70.0347C61.8301 71.5577 59.1883 73.0804 56.5623 74.6033V74.6031ZM55.1171 72.2412V65.0776L48.917 61.5035V68.6671C50.9836 69.8637 53.0505 71.0446 55.1171 72.2412ZM5.51619 58.3336L11.7163 61.9076L12.5088 61.457L6.29316 57.8674L5.51619 58.3336ZM9.88272 62.9642L3.66712 59.3902L2.76585 59.9186L8.96594 63.4926L9.88272 62.9642ZM8.12672 56.8107L14.3423 60.3847L15.1658 59.9186L8.96574 56.329L8.12672 56.8107ZM2.92117 67.9832C1.8801 67.3928 2.79688 65.7923 3.83795 66.3983L6.77482 68.092C7.81589 68.698 6.89911 70.2829 5.85804 69.677L2.92117 67.9832ZM2.90566 65.1706C1.84907 64.5647 2.76585 62.9797 3.80692 63.5702L6.49521 65.1241C7.53628 65.7145 6.6195 67.315 5.57843 66.7091L2.90566 65.1706ZM15.2438 61.9852V65.8078C15.2438 66.1807 15.0262 66.507 14.7154 66.6468L12.1049 68.1541C11.4832 68.4959 10.7219 68.0453 10.7219 67.3616V64.5955L9.88291 65.0772V72.2408C11.9495 71.0442 14.0164 69.8633 16.083 68.6667V61.5031L15.244 61.9848L15.2438 61.9852ZM12.571 63.5391V65.7613L13.41 65.2796V63.042L12.571 63.5391ZM9.47882 74.6029C9.16799 74.805 8.76409 74.805 8.45326 74.6029C5.79599 73.0645 3.12341 71.5262 0.466146 69.9878C0.17083 69.817 0.0155127 69.5061 0.0155127 69.1953L0 59.9186C0 59.5457 0.233073 59.2193 0.543902 59.0795C3.20117 57.5411 5.84272 56.0028 8.49999 54.4799C8.81082 54.3091 9.15267 54.3091 9.43228 54.4799C12.1051 56.0184 14.7776 57.5721 17.4504 59.1105C17.7302 59.2816 17.9166 59.5612 17.9166 59.9186L17.9321 69.1953C17.9321 69.5682 17.699 69.8945 17.3882 70.0345C14.7464 71.5575 12.1204 73.0802 9.47882 74.6031V74.6029ZM8.04916 72.241V65.0774L1.84907 61.5033V68.6669C3.9157 69.8635 5.98253 71.0444 8.04916 72.241ZM46.3842 24.3806C48.0314 24.3806 49.4609 25.4371 49.9893 26.9756H53.4856V22.9976H21.7702V26.9756H33.005C33.5179 25.4371 34.9629 24.3806 36.5946 24.3806C38.2263 24.3806 39.6713 25.4371 40.1841 26.9756H42.7947C43.3075 25.4371 44.7525 24.3806 46.3842 24.3806ZM50.1291 28.8091C49.8183 30.6117 48.2333 31.9636 46.3842 31.9636C44.5507 31.9636 42.9657 30.6117 42.6549 28.8091H40.3239C40.0131 30.6117 38.4437 31.9636 36.5946 31.9636C34.7455 31.9636 33.1759 30.6117 32.8652 28.8091H17.3106C16.9998 30.6117 15.4303 31.9636 13.5813 31.9636C11.7322 31.9636 10.1627 30.6117 9.85189 28.8091H6.29336C5.78048 28.8091 5.36107 28.405 5.36107 27.8924V14.9017C5.36107 10.6285 8.87287 7.22545 13.1306 7.22545H20.8379C21.3508 7.22545 21.7702 7.64506 21.7702 8.14223V21.1641H22.5162V0.91678C22.5162 0.419609 22.9203 0 23.4329 0H54.4024C54.9152 0 55.3191 0.419609 55.3191 0.91678V27.8927C55.3191 28.4056 54.915 28.8095 54.4024 28.8095H50.1291V28.8091ZM46.3842 26.2296C45.3121 26.2296 44.4419 27.0844 44.4419 28.172C44.4419 29.2443 45.3121 30.1143 46.3842 30.1143C47.472 30.1143 48.3421 29.2441 48.3421 28.172C48.3421 27.0842 47.4718 26.2296 46.3842 26.2296ZM13.5813 24.3806C15.213 24.3806 16.6579 25.4371 17.1708 26.9756H19.9211V9.07453H15.2128V17.6833C15.2128 18.1962 14.7931 18.6156 14.2805 18.6156H7.21014V26.9756H9.99169C10.5046 25.4371 11.9495 24.3806 13.5813 24.3806ZM13.5813 26.2296C12.5092 26.2296 11.6389 27.0844 11.6389 28.172C11.6389 29.2443 12.5092 30.1143 13.5813 30.1143C14.6691 30.1143 15.5236 29.2441 15.5236 28.172C15.5236 27.0842 14.6689 26.2296 13.5813 26.2296ZM36.5948 26.2296C35.5225 26.2296 34.6524 27.0844 34.6524 28.172C34.6524 29.2443 35.5227 30.1143 36.5948 30.1143C37.6826 30.1143 38.5371 29.2441 38.5371 28.172C38.5371 27.0842 37.6826 26.2296 36.5948 26.2296ZM24.3499 21.1639H53.4858V1.84907H24.3499V21.1643V21.1639ZM7.21033 16.7663H13.3639V9.07453C9.99189 9.07453 7.21033 11.4365 7.21033 14.9017V16.7665V16.7663ZM29.68 64.0828C28.8252 63.2281 30.1306 61.9229 30.9853 62.7932L31.9799 63.7877L33.6426 62.125C34.4973 61.2703 35.8025 62.5756 34.9324 63.4304L32.6325 65.7301C32.2752 66.0874 31.6847 66.0874 31.3272 65.7301L29.68 64.0828ZM32.306 58.2401C35.4449 58.2401 37.9934 60.7886 37.9934 63.9275C37.9934 64.6423 37.8691 65.3104 37.636 65.9476L41.0391 67.9055C41.1944 67.9987 41.3189 68.1385 41.3964 68.2941L42.391 70.2986C42.9193 71.3397 42.4997 72.5363 41.5052 73.1112V78.2547C41.5052 78.6121 41.2876 78.9229 40.9768 79.0782C38.273 80.6477 35.5537 82.2016 32.8499 83.7711C32.5391 83.9887 32.104 84.0042 31.7933 83.7866L23.5886 79.0472C23.2933 78.8762 23.1225 78.5656 23.1225 78.2547V73.1112C22.128 72.5363 21.7084 71.3397 22.2212 70.2986L23.2158 68.3096C23.2935 68.1387 23.4178 67.9987 23.5886 67.9055L26.9917 65.9476C26.7431 65.3104 26.6188 64.6423 26.6188 63.9275C26.6188 60.7886 29.1673 58.2401 32.306 58.2401ZM36.7191 67.5326C35.6313 68.8535 34.0308 69.6147 32.306 69.6147C30.5967 69.6147 28.9963 68.8533 27.9085 67.5326L25.8728 68.698L32.306 72.4118L38.7392 68.698L36.7191 67.5326ZM32.306 60.0739C30.1771 60.0739 28.4679 61.7986 28.4679 63.9275C28.4679 66.0564 30.1771 67.7812 32.306 67.7812C34.4349 67.7812 36.1597 66.0564 36.1597 63.9275C36.1597 61.7986 34.4349 60.0739 32.306 60.0739ZM33.5491 73.826L34.2328 75.0846C34.3106 75.1934 34.3571 75.1623 34.4659 75.1156C36.517 73.9035 38.5838 72.6914 40.6505 71.495C40.7748 71.4173 40.806 71.2309 40.7437 71.1066L40.1843 69.9878L33.5491 73.826ZM39.6559 74.1988C38.2885 74.9913 36.6413 76.0791 35.2739 76.7628C34.6057 77.1202 33.8442 77.0737 33.2383 76.6385V81.4247C35.3672 80.1971 37.5116 78.9539 39.6559 77.7108V74.1988ZM31.3892 76.6385C30.7365 77.1047 29.913 77.1202 29.2293 76.7008L24.9716 74.199V77.7108L31.3892 81.4247V76.6385ZM24.4277 69.9878L23.8683 71.1066C23.806 71.2309 23.8527 71.4175 23.977 71.495C26.0282 72.6916 28.095 73.9035 30.1616 75.1156C30.2549 75.1621 30.3171 75.1934 30.3947 75.0846C30.6122 74.665 30.8453 74.2456 31.0784 73.826L24.4277 69.9878ZM38.9257 6.94565C41.443 6.94565 43.4786 8.98126 43.4786 11.4985C43.4786 14.0158 41.443 16.0671 38.9257 16.0671C36.4084 16.0671 34.3571 14.016 34.3571 11.4985C34.3571 8.98106 36.4082 6.94565 38.9257 6.94565ZM38.9257 8.77921C37.4185 8.77921 36.2064 9.99131 36.2064 11.4985C36.2064 13.0057 37.4185 14.2178 38.9257 14.2178C40.4174 14.2178 41.6295 13.0057 41.6295 11.4985C41.6295 10.0068 40.4174 8.77921 38.9257 8.77921ZM46.8973 13.7207H46.0271C45.8872 14.1558 45.7162 14.5909 45.4987 14.9948L46.1203 15.632C46.4777 15.9893 46.4777 16.5643 46.1203 16.9216L44.3023 18.7552C43.9449 19.1126 43.37 19.1281 42.9969 18.7707L42.3753 18.1335C41.9867 18.3511 41.5673 18.5219 41.1321 18.6619V19.5477C41.1321 20.0606 40.7125 20.4645 40.1998 20.4645H37.6358C37.123 20.4645 36.7036 20.0604 36.7036 19.5477V18.6619C36.2684 18.5221 35.8488 18.3511 35.4604 18.1335L34.8388 18.7552C34.4814 19.1126 33.891 19.1281 33.5334 18.7707L31.7154 16.9216C31.358 16.5643 31.358 15.9893 31.7154 15.632L32.337 14.9948C32.1195 14.5907 31.9484 14.1556 31.8086 13.7207H30.9384C30.4255 13.7207 30.0216 13.3166 30.0216 12.8039V10.2089C30.0216 9.69599 30.4257 9.27657 30.9384 9.27657H31.8086C31.9484 8.84145 32.1195 8.40633 32.337 8.00243L31.7154 7.38077C31.358 7.02341 31.358 6.43297 31.7154 6.07541L33.5334 4.24185C33.8908 3.88448 34.4657 3.88448 34.8388 4.24185L35.4604 4.86351C35.849 4.64595 36.2684 4.47492 36.7036 4.33512V3.44936C36.7036 2.93649 37.1232 2.53258 37.6358 2.53258H40.1998C40.7127 2.53258 41.1321 2.93668 41.1321 3.44936V4.33512C41.5673 4.47492 41.9867 4.64595 42.3753 4.86351L42.9969 4.24185C43.3543 3.88448 43.9447 3.88448 44.3023 4.24185L46.1203 6.07541C46.4777 6.43277 46.4777 7.02321 46.1203 7.38077L45.4987 8.00243C45.7162 8.40653 45.8872 8.84165 46.0271 9.27657H46.8973C47.4102 9.27657 47.8141 9.69618 47.8141 10.2089V12.8039C47.8141 13.3168 47.41 13.7207 46.8973 13.7207ZM45.3123 11.8871H45.9805V11.1256H45.3123C44.8772 11.1256 44.4888 10.8148 44.4111 10.3797C44.2712 9.64945 43.9914 8.98126 43.5875 8.37511C43.3545 8.01775 43.3855 7.53609 43.6963 7.20975L44.178 6.72809L43.6496 6.1997L43.1834 6.66585C42.8726 6.97668 42.391 7.03873 42.0181 6.79014C41.4432 6.40175 40.775 6.12195 40.1068 5.96663C39.6406 5.92009 39.2833 5.53151 39.2833 5.04985V4.36614H38.553V5.04985C38.553 5.48497 38.2422 5.87336 37.8071 5.95112C37.1078 6.09092 36.4241 6.38624 35.8337 6.77463C35.4763 7.02321 34.979 6.99219 34.6526 6.66585L34.1865 6.1997L33.6581 6.72809L34.1087 7.19424C34.4351 7.48955 34.4973 7.98672 34.2485 8.37531C33.86 8.96574 33.5803 9.63394 33.4405 10.3332C33.3628 10.7838 32.9899 11.1256 32.5238 11.1256H31.8556V11.8871H32.5238C32.9589 11.8871 33.3473 12.1824 33.425 12.6331C33.5648 13.3478 33.8446 14.016 34.2485 14.6376C34.4816 14.995 34.4506 15.4769 34.1398 15.7875L33.6581 16.2691L34.1865 16.813L34.6526 16.3314C34.9635 16.0206 35.4451 15.974 35.818 16.2226C36.3929 16.6112 37.0611 16.8908 37.7293 17.0306C38.1955 17.0929 38.5528 17.4812 38.5528 17.9474V18.6311H39.2831V17.9474C39.2831 17.5123 39.5939 17.1394 40.029 17.0461C40.7282 16.9063 41.4119 16.6265 42.0026 16.2381C42.3599 15.974 42.8571 16.0051 43.1834 16.3314L43.6496 16.813L44.178 16.2691L43.7274 15.8185C43.401 15.5077 43.3388 15.0105 43.5875 14.6376C43.9916 14.0317 44.2557 13.379 44.3955 12.6641C44.4733 12.2134 44.8462 11.8871 45.3123 11.8871Z" fill="#2776EA"/>
</svg>
