<svg width="70" height="70" viewBox="0 0 70 70" fill="none" xmlns="http://www.w3.org/2000/svg">
<path d="M44.0704 52.8512C44.3755 53.9085 44.6515 54.867 44.9528 55.9118C43.1994 55.9118 41.4725 55.9118 39.7053 55.9118C39.7053 56.7017 39.7053 57.4066 39.7053 58.2062C40.9557 58.2062 42.191 58.2731 43.4175 58.1853C44.412 58.1143 45.1482 58.45 45.883 59.1981C47.5645 60.9088 49.3317 62.5151 51.1569 64.2523C41.2507 64.2523 31.4642 64.2523 21.5756 64.2523C22.1882 63.6616 22.7466 63.1197 23.3088 62.5833C24.6915 61.2641 26.0642 59.9309 27.4709 58.6437C27.7331 58.404 28.1302 58.2369 28.4705 58.2257C29.9566 58.1811 31.4453 58.2062 32.9806 58.2062C32.9806 57.4414 32.9806 56.7351 32.9806 55.9299C32.7146 55.9299 32.4499 55.9299 32.1865 55.9299C25.4844 55.9299 18.7836 55.9299 12.0815 55.9285C10.705 55.9285 10.4277 55.6192 10.4277 54.0924C10.4277 46.7787 10.4277 39.4649 10.4277 32.1512C10.4277 31.8781 10.4277 31.6065 10.4277 31.332C11.3542 31.3919 12.2088 31.4463 13.1428 31.5062C13.1428 38.5859 13.1428 45.6739 13.1428 52.8498C23.5243 52.8512 33.8251 52.8512 44.0704 52.8512Z" fill="#2776EA"/>
<path d="M12.4513 29.9582C7.93367 30.0404 4.06898 25.8388 4.00091 20.7721C3.93285 15.633 7.68157 11.3283 12.2887 11.2559C16.9298 11.182 20.8134 15.293 20.879 20.3486C20.9496 25.712 17.3029 29.869 12.4513 29.9582ZM17.8651 18.8956C16.5265 18.8956 15.2761 18.8956 13.9588 18.8956C13.9588 17.4287 13.9588 16.0272 13.9588 14.6035C12.9189 14.6035 11.9484 14.6035 10.9122 14.6035C10.9122 16.0551 10.9122 17.4579 10.9122 18.9374C9.57987 18.9374 8.31055 18.9374 7.05006 18.9374C7.05006 20.0923 7.05006 21.1677 7.05006 22.2961C8.35845 22.2961 9.61013 22.2961 10.9425 22.2961C10.9425 23.7742 10.9425 25.198 10.9425 26.644C11.9786 26.644 12.9328 26.644 13.9664 26.644C13.9664 25.184 13.9664 23.7617 13.9664 22.2571C15.3114 22.2571 16.5794 22.2571 17.8664 22.2571C17.8651 21.1162 17.8651 20.0602 17.8651 18.8956Z" fill="#2776EA"/>
<path d="M62.2507 45.0385C61.3293 44.9201 60.4835 44.8128 59.5659 44.6958C59.5659 37.2511 59.5659 29.7897 59.5659 22.2321C47.0756 22.2321 34.6584 22.2321 22.2236 22.2321C22.2236 21.172 22.2236 20.2066 22.2236 19.1548C22.4404 19.1437 22.6825 19.1214 22.9257 19.1214C35.5282 19.1186 48.1319 19.1172 60.7344 19.1172C61.9898 19.1172 62.2507 19.4042 62.2507 20.7778C62.2507 28.6237 62.2507 36.471 62.2507 44.3169C62.2507 44.5649 62.2507 44.8128 62.2507 45.0385Z" fill="#2776EA"/>
<path d="M55.1074 48.638C56.165 47.9484 57.0839 47.1947 58.1061 46.7127C60.0864 45.7807 62.3036 46.3449 63.67 47.9567C65.0414 49.5755 65.4132 52.4091 64.4969 54.4569C64.4212 54.6269 64.1603 54.7913 63.9826 54.7954C62.6401 54.8233 61.2952 54.8275 59.9528 54.7913C59.7813 54.7871 59.5242 54.553 59.4624 54.3636C59.2431 53.6907 59.1108 52.9844 58.9002 52.3074C58.836 52.0998 58.6381 51.8295 58.4755 51.8059C58.333 51.785 58.0898 52.0357 58.0028 52.2266C57.5276 53.2797 57.0864 54.3524 56.5633 55.5839C56.3616 54.9138 56.2305 54.3719 56.0301 53.8635C55.9356 53.6211 55.7099 53.4413 55.5435 53.2338C55.3822 53.4483 55.1427 53.6364 55.0734 53.8816C54.8074 54.8163 54.5969 55.7706 54.2339 56.7277C53.8368 55.4265 53.4587 54.1184 53.0326 52.8284C52.8927 52.4035 52.6305 52.0274 52.4238 51.6289C52.1478 51.9466 51.8377 52.2377 51.6007 52.5888C51.1268 53.2923 50.8255 54.3037 50.2028 54.6756C49.5801 55.0476 48.6524 54.7926 47.8583 54.8108C47.6906 54.8149 47.523 54.8108 47.3541 54.8108C45.9928 54.8108 45.9927 54.8108 45.6537 53.3717C44.9049 50.1968 46.5171 47.0805 49.3381 46.4146C51.3284 45.9437 53.0478 46.7308 54.573 48.1239C54.7835 48.3175 54.9839 48.5195 55.1074 48.638Z" fill="#2776EA"/>
<path d="M55.6082 55.3676C55.7733 55.9207 55.888 56.3887 56.0582 56.8303C56.13 57.017 56.3166 57.2608 56.4628 57.2706C56.609 57.2803 56.8334 57.0658 56.9128 56.8889C57.3855 55.8329 57.8254 54.7602 58.3536 53.512C58.5124 54.1208 58.641 54.5596 58.7393 55.0068C58.8489 55.5027 59.0783 55.7214 59.5762 55.7089C60.9817 55.6741 62.3884 55.6964 63.925 55.6964C63.7876 55.9764 63.7044 56.1951 63.5834 56.3832C61.4418 59.6959 58.5779 62.0921 55.4632 64.165C55.3523 64.2388 55.1305 64.236 55.0208 64.1622C51.8847 62.0433 48.9654 59.6486 46.8439 56.2494C46.762 56.1171 46.6939 55.9736 46.5439 55.6978C46.9914 55.6978 47.3519 55.6978 47.7124 55.6978C48.2998 55.6978 48.8998 55.617 49.4733 55.7159C50.4591 55.8858 51.0452 55.4303 51.4599 54.4983C51.6591 54.0497 51.949 53.6513 52.2641 53.1191C52.6637 54.4356 53.0267 55.6323 53.391 56.829C53.5574 57.3778 53.7011 57.9365 53.9053 58.4672C53.9821 58.6664 54.2002 58.8002 54.354 58.9632C54.4989 58.7876 54.7158 58.6386 54.775 58.4338C55.017 57.5979 55.2086 56.7454 55.4242 55.8998C55.4632 55.7493 55.525 55.6072 55.6082 55.3676Z" fill="#2776EA"/>
<path d="M25.5409 48.8611C22.7414 48.8611 19.9998 48.8611 17.2229 48.8611C17.204 48.6423 17.175 48.464 17.175 48.2843C17.1738 45.5929 17.1851 42.9014 17.17 40.2113C17.1674 39.7168 17.2683 39.519 17.7611 39.5245C20.1964 39.551 22.6304 39.5426 25.0657 39.5301C25.4187 39.5287 25.6077 39.6025 25.6052 40.0567C25.5914 42.8875 25.5964 45.7168 25.5926 48.5476C25.5914 48.6368 25.5636 48.7245 25.5409 48.8611Z" fill="#2776EA"/>
<path d="M17.1752 35.4389C17.1752 33.7658 17.1613 32.1637 17.1903 30.563C17.1941 30.3388 17.3554 30.0323 17.5281 29.9125C18.8075 29.0153 19.8651 27.8841 20.692 26.4799C20.7827 26.3266 20.9705 26.1469 21.1168 26.1441C22.5815 26.1191 24.0474 26.1288 25.5562 26.1288C25.5562 29.2647 25.5562 32.3365 25.5562 35.4389C22.7718 35.4389 20.0075 35.4389 17.1752 35.4389Z" fill="#2776EA"/>
<path d="M55.5116 39.5898C55.5116 40.3129 55.5116 40.9788 55.5116 41.6809C46.1839 41.6809 36.8878 41.6809 27.5361 41.6809C27.5361 41.0011 27.5361 40.3226 27.5361 39.5898C36.8474 39.5898 46.1562 39.5898 55.5116 39.5898Z" fill="#2776EA"/>
<path d="M27.5088 28.1728C27.5088 27.4971 27.5088 26.8577 27.5088 26.1709C36.8516 26.1709 46.1654 26.1709 55.512 26.1709C55.512 26.8354 55.512 27.4776 55.512 28.1728C46.1995 28.1728 36.8831 28.1728 27.5088 28.1728Z" fill="#2776EA"/>
<path d="M55.5052 33.3258C55.5052 34.0558 55.5052 34.7189 55.5052 35.4266C46.1838 35.4266 36.87 35.4266 27.4818 35.4266C27.4818 34.8512 27.4604 34.2773 27.497 33.7075C27.5058 33.5752 27.6974 33.369 27.8247 33.3495C28.1537 33.2965 28.494 33.3272 28.8306 33.3272C37.4839 33.3272 46.1359 33.3258 54.7893 33.3258C55.0161 33.3258 55.2418 33.3258 55.5052 33.3258Z" fill="#2776EA"/>
<path d="M27.5166 48.8462C27.5166 48.1482 27.5166 47.5102 27.5166 46.8262C33.6061 46.8262 39.659 46.8262 45.7787 46.8262C45.4144 47.4837 45.0741 48.1301 44.6972 48.7473C44.6279 48.8601 44.4022 48.8977 44.2497 48.8977C38.7943 48.9033 33.3401 48.9019 27.8847 48.8977C27.7813 48.8977 27.6792 48.8698 27.5166 48.8462Z" fill="#2776EA"/>
</svg>
