<svg width="70" height="70" viewBox="0 0 70 70" fill="none" xmlns="http://www.w3.org/2000/svg">
<path d="M54.7092 55.2656C54.8554 55.5674 55.0172 55.8847 55.1665 56.2051C55.9723 57.9225 55.6052 59.4749 54.3172 60.7536C52.5128 62.5394 50.6461 64.266 48.7452 65.9523C47.1274 67.3865 45.1985 67.4269 43.5092 66.0954C42.8683 65.5914 42.2834 64.9629 41.8323 64.2847C40.675 62.5487 40.8243 60.6509 42.3021 59.1856C44.1408 57.3625 46.051 55.6047 47.9892 53.8843C49.3985 52.6336 51.0537 52.5589 52.7337 53.5078C53.0417 53.682 53.3497 53.8563 53.6421 54.0211C63.7159 45.6896 66.8239 30.7096 59.9919 18.6509C53.0728 6.43359 38.743 1.22559 25.7541 5.88292C12.8959 10.4936 5.39188 23.2803 7.25854 36.2754C9.44877 51.5043 23.1034 60.7505 35.1061 60.85C35.5261 59.8483 35.6257 57.2318 35.3301 54.4349C34.9568 54.3416 34.5337 54.1891 34.095 54.13C30.0474 53.5887 27.2723 51.1403 24.9328 48.0354C23.1314 43.5056 20.347 39.3865 19.4821 34.4585C18.8537 30.862 18.3559 27.3123 19.2985 23.7034C19.8928 21.4323 21.1963 19.8145 23.3897 18.9838C24.7834 18.4549 26.2208 18.038 27.7639 17.5278C27.9132 17.3598 28.1341 17.0736 28.3954 16.8247C29.4781 15.798 31.0243 16.0843 31.5501 17.4656C31.8923 18.3616 31.9265 19.326 31.2452 20.1131C30.6012 20.8567 29.7737 21.0247 28.859 20.6078C28.719 20.5425 28.5634 20.4367 28.4265 20.4523C26.507 20.6794 24.6497 21.146 23.0817 22.3283C21.8279 23.274 21.5105 24.702 21.411 26.1891C20.9785 32.5669 22.811 38.3411 26.0901 43.7296C26.2488 43.9909 26.4105 44.3643 26.6501 44.4451C27.8261 44.8403 28.4079 45.8514 29.167 46.6851C29.5154 47.0678 29.895 47.4256 30.2901 47.7585C33.8523 50.7483 37.0661 50.714 40.5537 47.6216C41.2101 47.0398 41.7825 46.3616 42.3892 45.7238C42.6381 45.4625 42.8248 45.0425 43.1234 44.9429C44.4052 44.5167 44.8968 43.3998 45.4599 42.3763C47.7559 38.198 49.131 33.7243 49.4359 28.9643C49.5199 27.6358 49.3488 26.27 49.1217 24.9509C48.8634 23.4483 48.0328 22.2567 46.5394 21.6967C45.3821 21.2611 44.2092 20.8474 43.0114 20.5487C42.5634 20.4367 42.019 20.6451 41.5305 20.7509C40.3981 20.9967 39.3434 20.4958 38.9857 19.5096C38.5532 18.3211 39.0448 16.8994 40.059 16.3954C40.8274 16.0158 41.739 16.0998 42.2772 16.8807C42.7905 17.6211 43.4999 17.7736 44.2248 18.0007C45.0617 18.2651 45.9172 18.4674 46.7417 18.7567C49.7563 19.8207 51.1905 22.0638 51.6199 25.1531C52.4319 31.0051 50.9448 36.434 48.6799 41.7198C48.151 42.9518 47.4105 44.0905 46.8194 45.2976C46.4897 45.9758 46.303 46.7256 45.9919 47.4131C45.7648 47.9203 45.5065 48.4398 45.1488 48.8598C42.9585 51.442 40.3452 53.4083 36.783 54.2203C36.783 56.8896 36.783 59.5527 36.783 62.2003C25.2781 62.8847 10.9359 55.3216 6.67677 40.3603C2.81899 26.7896 9.10965 12.4691 21.8123 6.0167C34.5803 -0.469969 50.055 3.05181 58.8377 14.2736C67.4461 25.2683 67.947 43.4091 54.7092 55.2656ZM53.7323 54.8518C53.0106 55.2687 52.5221 55.782 52.0212 55.7914C51.0723 55.81 50.4097 56.4167 50.1919 57.0078C49.7283 58.2585 48.6737 58.9958 48.0297 60.0567C48.011 60.0878 48.1292 60.206 48.2537 60.3803C49.2461 59.6274 50.1888 58.7998 51.4394 58.4296C51.9061 58.2927 52.2981 57.6985 52.5905 57.2287C52.9794 56.6065 53.2377 55.9034 53.7323 54.8518Z" fill="#2776EA"/>
</svg>
