<svg width="60" height="49" viewBox="0 0 60 49" fill="none" xmlns="http://www.w3.org/2000/svg">
<path d="M47.2825 8.4157C49.59 11.0196 50.7651 13.9631 51.0856 17.2651C52.6453 17.7934 53.8846 18.6991 54.3546 20.152C58.2219 21.3219 60.0807 23.4352 59.9952 26.5296C59.9311 29.4543 58.0509 31.4921 54.3546 32.5676C53.8632 33.8884 52.8804 34.9262 51.1711 35.3791C51.0429 36.0961 50.9788 36.8131 50.7865 37.5112C49.6755 41.417 46.6842 43.9077 42.6461 45.3795C40.4027 46.1908 37.9242 46.5493 35.3176 47.1909C34.7193 48.4928 33.3519 48.9079 31.5999 48.757C30.9162 48.7004 30.2325 48.7758 29.5488 48.7381C27.9677 48.6626 26.8994 47.8135 26.7498 46.5493C26.5789 45.2474 27.5831 43.9832 29.1428 43.8134C30.4248 43.6624 31.7495 43.719 33.0314 43.8134C34.3134 43.9077 34.9543 44.87 35.574 45.6625C43.4153 45.5682 49.9105 40.6434 49.7396 35.4923C49.3977 35.3036 49.0131 35.096 48.6072 34.8696C47.3466 34.1526 46.8124 33.1337 46.8338 31.794C46.8765 28.2278 46.8765 24.6428 46.8338 21.0766C46.8124 19.5105 47.4961 18.3972 49.0559 17.6802C49.2909 17.567 49.5046 17.4538 49.8037 17.3029C49.5259 14.2839 48.4576 11.6045 46.2783 9.17045C44.9322 9.6233 43.8426 9.17045 42.7743 8.37797C35.8303 3.15134 24.1432 3.15134 17.1138 8.43457C16.0882 9.20819 15.0627 9.60443 13.8448 9.15158C11.58 11.5856 10.4049 14.3027 10.3194 17.3029C10.6826 17.4727 11.0886 17.6614 11.4732 17.8878C12.4774 18.5105 13.1611 19.3029 13.1611 20.4351C13.1825 24.3786 13.1825 28.3033 13.1611 32.2469C13.1611 33.6997 12.1783 34.6054 10.7467 35.1338C9.33658 35.6432 7.64867 35.2092 6.64447 34.1337C6.21716 33.662 5.9394 33.1148 5.55481 32.5676C1.77304 31.36 -0.0644307 29.2845 -0.00033288 26.2655C0.0637649 23.2842 1.9226 21.2275 5.61891 20.2086C6.11033 18.8312 7.15726 17.7746 8.8879 17.3783C9.20839 14.0008 10.4049 11.0196 12.7551 8.3591C11.9005 6.71752 12.8833 5.64201 14.2721 4.6797C17.2206 2.60415 20.5537 1.2456 24.2286 0.566329C31.5572 -0.773347 38.3943 0.226693 44.6331 3.96269C45.1459 4.26459 45.6373 4.60423 46.086 4.96273C47.5816 6.11372 47.7098 6.45336 47.2825 8.4157ZM5.76847 28.058C5.72574 25.8126 5.70437 23.6805 5.66164 21.4917C2.52085 22.3031 0.832939 24.6616 1.34572 27.1712C1.83714 29.5486 3.71734 31.077 5.44798 31.1902C5.8753 30.9072 5.59754 29.9826 6.60174 30.209C7.19999 30.6808 6.8795 31.3223 6.9436 31.8884C7.11453 33.3224 8.14009 34.2281 9.55024 34.1903C10.8749 34.1526 11.7937 33.2469 11.8791 31.8695C11.9005 31.6242 11.8791 31.3789 11.8791 31.1525C11.8791 27.9448 11.8791 24.756 11.8791 21.5483C11.8791 21.1898 11.9005 20.8124 11.8578 20.4539C11.7082 19.435 10.7895 18.6425 9.72117 18.5482C8.63151 18.435 7.54184 19.0199 7.17862 20.0011C6.98633 20.5105 6.96496 21.0577 6.96496 21.6049C6.9436 23.4163 6.96496 25.2277 6.9436 27.0391C6.9436 27.5108 6.96496 28.0203 5.76847 28.058ZM54.2051 28.058C53.1795 28.0391 53.0299 27.6995 53.0299 27.2278C53.0299 25.6617 53.0299 24.0767 53.0086 22.5106C53.0086 21.7936 53.0727 21.0389 52.9231 20.3407C52.6881 19.1709 51.4916 18.435 50.2524 18.5482C49.0986 18.6614 48.2012 19.4916 48.073 20.6237C48.0303 20.9256 48.0517 21.2275 48.0517 21.5294C48.0517 24.7937 48.0517 28.058 48.0517 31.3223C48.0517 31.6242 48.0303 31.9261 48.073 32.228C48.244 33.3412 49.1841 34.1337 50.3806 34.1903C51.4702 34.2469 52.5171 33.6054 52.8376 32.6054C52.9872 32.0959 52.9231 31.5298 53.0086 31.0015C53.0727 30.6996 53.2863 30.4166 53.5213 29.9071C54.0128 30.4732 54.3333 30.8694 54.6537 31.2468C57.5168 30.209 59.0551 28.058 58.6278 25.756C58.1791 23.3031 56.6835 21.8691 54.1837 21.6804C54.2051 23.7559 54.2051 25.8504 54.2051 28.058ZM14.0798 7.81191C15.4472 8.09494 15.4686 8.1138 16.4942 7.35906C23.5877 2.13243 35.7663 1.81166 43.3939 7.30245C43.8639 7.64209 44.3554 7.94399 44.7613 8.20815C46.1074 7.98172 46.321 7.35906 45.8723 6.17033C44.569 5.39671 43.0948 4.3778 41.4923 3.62306C36.279 1.17013 30.7239 0.528592 24.9551 1.5475C21.216 2.20791 17.7975 3.54758 14.8276 5.73635C14.1012 6.26467 13.5029 6.793 14.0798 7.81191ZM32.9887 47.606C33.8647 47.2097 34.3561 46.6625 34.057 45.8323C33.7792 45.0964 33.0528 44.8889 32.2622 44.87C31.3221 44.8511 30.3393 44.8134 29.4206 44.9266C28.4805 45.0398 27.9677 45.6814 28.0318 46.6437C28.3095 46.9078 28.6941 47.2852 28.9932 47.606C30.4461 47.606 31.7495 47.606 32.9887 47.606Z" fill="#2776EA"/>
<path d="M20.4673 32.3039C15.5959 26.398 17.6684 20.4921 21.2792 17.3599C25.5738 13.6428 32.1331 13.1522 37.1114 16.209C41.876 19.1336 43.6707 24.6621 41.4059 29.417C38.9275 34.5871 33.2655 36.9456 26.172 35.6626C24.0354 36.7004 21.8133 37.757 19.6768 38.7948C18.9717 38.5684 18.9289 38.2098 19.0571 37.7381C19.5486 35.889 19.9972 34.0776 20.4673 32.3039ZM20.5955 37.0211C22.6894 36.0211 24.3559 35.2286 25.9156 34.4927C31.0007 35.1343 32.1972 35.0776 34.697 34.0399C37.4959 32.87 39.3975 30.9643 40.4658 28.417C42.2178 24.1715 40.3163 19.3223 35.9149 16.8505C31.5135 14.3787 25.8729 14.9636 22.1552 18.2468C17.9461 21.9828 17.7966 26.5301 21.8133 32.0209C21.4501 33.4738 21.0869 35.0399 20.5955 37.0211Z" fill="#2776EA"/>
<circle cx="26.8321" cy="25.2067" r="0.813107" fill="#2776EA"/>
<circle cx="33.337" cy="25.2067" r="0.813107" fill="#2776EA"/>
<circle cx="30.0846" cy="25.2067" r="0.813107" fill="#2776EA"/>
</svg>
