<svg width="64" height="64" viewBox="0 0 64 64" fill="none" xmlns="http://www.w3.org/2000/svg">
<path d="M45.5289 32.5655C45.4596 33.4083 45.45 34.1453 45.3115 34.8591C45.2634 35.1074 44.8978 35.2959 44.6765 35.5114C44.5033 35.2498 44.1935 34.9938 44.182 34.7244C44.1531 34.0606 44.2609 33.391 44.3263 32.5655C43.8433 32.5655 43.4412 32.5655 43.039 32.5655C40.6664 32.5655 38.292 32.5809 35.9194 32.5539C35.346 32.5482 35.0651 32.7002 34.7534 33.2428C34.3935 33.8682 33.7047 34.3011 33.1659 34.8264C32.9619 35.0246 32.6136 35.2401 32.6117 35.4518C32.5732 38.0745 32.5867 40.6991 32.5867 43.4142C33.7566 43.47 34.8438 43.4719 35.9156 43.6008C36.2735 43.6432 36.5929 44.0068 36.9296 44.2223C36.5813 44.4013 36.2408 44.7092 35.8829 44.7323C34.8342 44.8015 33.7778 44.7573 32.654 44.7573C32.654 48.5864 32.654 52.4426 32.654 56.5315C33.6277 55.6271 34.482 54.8363 35.3325 54.0416C35.473 53.9107 35.575 53.6952 35.7366 53.6394C36.056 53.5278 36.4043 53.4989 36.7411 53.4354C36.6968 53.7722 36.768 54.2051 36.5852 54.4303C35.8463 55.3404 35.0285 56.189 34.2377 57.0606C34.7341 57.001 35.3229 56.8605 35.9079 56.8836C36.2504 56.8971 36.5833 57.1665 36.9219 57.3204C36.641 57.5609 36.3889 57.9689 36.0772 58.017C30.3565 58.9156 24.8764 58.094 19.7772 55.35C11.9573 51.1418 7.35263 44.5706 5.89023 35.8155C5.79787 35.2652 5.62277 35.0131 5.08399 34.8245C3.85634 34.3935 3.13669 33.2813 3.12514 32.0152C3.1136 30.6875 3.80631 29.6022 5.09168 29.1154C5.60929 28.9191 5.79787 28.6747 5.88638 28.1186C7.74132 16.5253 16.1463 7.83941 27.7492 5.93829C42.2828 3.55997 54.8536 13.1291 57.7669 26.2502C57.8439 26.5947 57.9324 26.9372 57.9689 27.2874C58.0632 28.2245 58.2499 28.9499 59.3428 29.3617C60.5474 29.8158 61.0881 31.3301 60.8225 32.6136C60.5608 33.8759 59.4794 34.8591 58.1498 35.0439C56.9279 35.2132 55.5675 34.5493 55.0788 33.3602C54.8017 32.6886 54.438 32.552 53.7934 32.5597C51.0706 32.5809 48.3479 32.5655 45.5289 32.5655ZM45.654 31.3763C48.5153 31.3763 51.4555 31.384 54.3957 31.3552C54.565 31.3532 54.742 31.0646 54.8998 30.8953C55.4328 30.3238 55.9754 29.76 56.4757 29.1616C56.6816 28.9153 56.9645 28.5651 56.926 28.3034C56.3295 24.2414 54.819 20.543 52.4349 17.193C52.0808 16.6965 51.7903 16.6735 51.2592 16.8716C49.8526 17.4008 48.4325 17.903 46.9894 18.3148C45.985 18.6015 45.0017 18.792 44.9882 20.1293C44.9863 20.2429 44.9074 20.3949 44.8131 20.4641C43.6393 21.3416 43.9972 22.4172 44.3782 23.5159C44.5245 23.9373 44.6245 24.3799 44.6919 24.8205C45.019 26.9699 45.325 29.1173 45.654 31.3763ZM18.2186 31.3821C18.7786 28.3919 19.2712 25.5652 19.86 22.7578C20.0197 21.9958 20.1582 21.4166 19.454 20.824C19.1038 20.5296 19.0499 19.9061 18.7882 19.4751C18.6035 19.1711 18.3456 18.8093 18.0378 18.6977C16.2675 18.0531 14.4645 17.4951 12.6904 16.8601C12.1939 16.6831 11.9149 16.7004 11.582 17.166C9.171 20.5353 7.66242 24.2645 7.06015 28.3553C7.02551 28.5958 7.27951 28.921 7.47385 29.1442C7.98762 29.7311 8.53409 30.2911 9.08249 30.8452C9.28068 31.0454 9.51736 31.3552 9.74057 31.359C12.6211 31.3936 15.4997 31.3821 18.2186 31.3821ZM18.3052 32.5693C15.494 32.5693 12.5576 32.5616 9.61934 32.5886C9.44232 32.5905 9.25567 32.856 9.09789 33.0215C8.53987 33.6065 7.97799 34.1895 7.44499 34.7976C7.26604 35.0015 7.01974 35.294 7.05245 35.5095C7.64896 39.635 9.16331 43.3969 11.6071 46.7835C11.9053 47.1972 12.1612 47.2587 12.6423 47.0817C14.1412 46.5275 15.646 45.9753 17.1853 45.5558C18.1359 45.2961 18.9383 45.0613 18.9787 43.8818C18.9864 43.6816 19.1269 43.418 19.2904 43.3026C20.2814 42.5906 20.0986 41.717 19.7157 40.7819C19.5964 40.4894 19.5367 40.168 19.4848 39.8525C19.0922 37.4645 18.7093 35.0747 18.3052 32.5693ZM42.8139 22.3903C41.7017 21.89 40.5741 21.7283 40.0757 21.0799C39.2733 20.0408 38.4575 19.9562 37.376 20.2236C37.1317 20.2833 36.8661 20.2544 36.6102 20.2717C35.2825 20.3622 33.9529 20.4545 32.5867 20.5488C32.5867 23.2408 32.5732 25.8365 32.6098 28.4304C32.6136 28.6555 32.9215 28.896 33.1197 29.0961C33.6893 29.6715 34.2608 30.2468 34.863 30.7875C35.1286 31.028 35.4653 31.3494 35.7751 31.3552C38.0822 31.4033 40.3913 31.3821 42.6984 31.3821C43.2006 31.3821 43.7028 31.3821 44.2859 31.3821C44.1974 28.1032 43.699 25.0361 42.8139 22.3903ZM31.411 20.5796C29.2405 20.3987 27.2047 20.2198 25.1669 20.0697C24.9861 20.0562 24.6994 20.1678 24.6185 20.3121C23.8854 21.5956 22.7347 22.0651 21.3108 22.0247C20.3006 25.0572 19.7965 28.1206 19.7253 31.3783C22.7251 31.3783 25.6326 31.3879 28.5401 31.3552C28.7344 31.3532 28.9345 31.0396 29.1193 30.8606C29.7177 30.2738 30.32 29.6907 30.903 29.0884C31.0993 28.8864 31.3898 28.6382 31.3918 28.4092C31.4245 25.8173 31.411 23.2254 31.411 20.5796ZM31.411 43.3372C31.411 40.701 31.4264 38.1399 31.3879 35.5788C31.3841 35.3306 31.0685 35.0631 30.8568 34.8437C30.295 34.2588 29.6042 33.7643 29.1731 33.0985C28.8903 32.6636 28.6517 32.5578 28.2072 32.5597C25.9636 32.5713 23.7199 32.5655 21.4763 32.5655C20.9106 32.5655 20.3449 32.5655 19.7157 32.5655C19.8003 35.7193 20.2602 38.6748 21.2108 41.5477C21.2685 41.7247 21.5591 41.9383 21.7419 41.9402C23.0118 41.9499 23.947 42.4867 24.5974 43.5758C24.6897 43.7297 24.938 43.8991 25.0996 43.8856C27.1662 43.7259 29.2347 43.5315 31.411 43.3372ZM30.1506 6.81766C23.0811 7.49113 17.4336 10.3851 12.7269 15.7056C14.8032 16.3714 16.6773 16.989 18.5688 17.549C18.7593 17.6048 19.1269 17.3565 19.2904 17.1507C19.9735 16.2886 20.8298 15.7652 21.9343 15.8557C22.5558 15.9057 22.8387 15.6613 23.1254 15.1668C24.5781 12.6557 26.3792 10.4121 28.4631 8.39551C28.9596 7.91253 29.4733 7.44687 30.1506 6.81766ZM51.1803 15.7364C46.8836 10.2351 39.1944 6.91579 33.976 6.97159C36.8604 9.46729 39.2483 12.2805 41.1206 15.5247C41.2187 15.694 41.5285 15.846 41.7286 15.8345C43.0197 15.7595 44.0357 16.1982 44.7842 17.2757C44.8959 17.4354 45.2307 17.5874 45.4 17.5374C47.2896 16.9736 49.1695 16.3694 51.1803 15.7364ZM29.8447 56.9644C27.12 54.4283 24.7725 51.6556 22.9118 48.4729C22.7944 48.2709 22.4249 48.0977 22.1806 48.1073C20.9606 48.1535 20.0101 47.7128 19.2731 46.7411C19.1365 46.5602 18.7997 46.3524 18.6285 46.4025C16.7139 46.9624 14.8147 47.5724 12.7327 48.2228C17.4239 53.5278 23.0426 56.418 29.8447 56.9644ZM31.3667 7.42378C28.1706 10.0369 25.7096 12.9828 23.8277 16.3136C24.1837 16.9371 24.6551 17.4547 24.7686 18.0416C24.9187 18.8035 25.3074 18.9556 25.9462 18.944C26.1675 18.9402 26.3888 19.0114 26.612 19.0268C28.1899 19.1307 29.7677 19.2288 31.3667 19.3308C31.3667 15.3015 31.3667 11.4723 31.3667 7.42378ZM32.6656 7.46804C32.6656 11.53 32.6656 15.3881 32.6656 19.377C34.7014 19.2115 36.6448 19.0614 38.5883 18.8824C38.7653 18.867 39.0001 18.6977 39.079 18.538C39.4349 17.8107 39.7447 17.0602 40.12 16.2116C38.2573 12.9597 35.8155 10.008 32.6656 7.46804ZM31.3475 56.416C31.3475 52.4464 31.3475 48.5922 31.3475 44.5802C29.1789 44.7361 27.0873 44.8862 25.217 45.0209C24.7032 46.0099 24.2972 46.7873 23.8623 47.6243C25.2747 50.4491 28.8018 54.6362 31.3475 56.416ZM31.9998 33.872C33.0062 33.8663 33.9048 32.9657 33.9028 31.9613C33.9028 30.9511 33.0119 30.0698 31.994 30.0736C30.9742 30.0775 30.0852 30.9607 30.0891 31.9671C30.0929 32.9696 31.0031 33.8778 31.9998 33.872ZM57.7515 30.0756C56.7374 30.0948 55.8542 31.0107 55.8908 32.0075C55.9273 33.0196 56.8567 33.9067 57.8419 33.872C58.8521 33.8374 59.7276 32.9176 59.7007 31.919C59.6718 30.8991 58.7829 30.0582 57.7515 30.0756ZM8.10307 32.069C8.17427 31.1262 7.36032 30.1756 6.40207 30.0794C5.3476 29.9717 4.36818 30.8029 4.30276 31.8593C4.24118 32.858 5.07821 33.797 6.09612 33.8682C7.07747 33.9394 8.0261 33.0889 8.10307 32.069ZM21.8054 17.0083C20.7932 17.0333 19.9177 17.9454 19.9408 18.9517C19.9639 19.96 20.8779 20.8413 21.8823 20.822C22.8925 20.8028 23.7507 19.8984 23.7315 18.8747C23.7103 17.853 22.8136 16.9832 21.8054 17.0083ZM42.1539 17.0083C41.1436 17.0044 40.2662 17.8876 40.2662 18.9113C40.2662 19.9388 41.1359 20.8201 42.1519 20.822C43.1506 20.824 44.0607 19.9177 44.0607 18.9152C44.0607 17.9146 43.1583 17.0121 42.1539 17.0083ZM21.8381 46.9028C22.8771 46.9047 23.7296 46.0542 23.7276 45.0228C23.7257 43.9703 22.8964 43.1409 21.8496 43.139C20.8163 43.139 19.9427 43.9934 19.935 45.0132C19.9254 46.0215 20.8125 46.9008 21.8381 46.9028Z" fill="#0274BA"/>
<path d="M39.4678 56.0658C39.4678 55.5117 39.4678 55.0075 39.4678 54.4303C38.3903 54.4687 38.2921 53.8087 38.3191 52.9409C38.371 51.2438 38.3614 49.5428 38.321 47.8437C38.3017 47.0355 38.3883 46.4102 39.4543 46.5218C39.4543 45.9195 39.4543 45.3903 39.4543 44.7823C38.321 44.9016 38.3056 44.1992 38.3229 43.3815C38.3595 41.5862 38.3575 39.7909 38.3248 37.9956C38.3114 37.2817 38.5038 36.945 39.2908 36.9469C45.5753 36.9681 51.8597 36.9661 58.1442 36.9488C58.8965 36.9469 59.1563 37.2163 59.1409 37.9667C59.1005 39.7928 59.1121 41.6227 59.1351 43.4488C59.1448 44.2223 59.164 44.942 58.0133 44.7361C58.0133 45.3672 58.0133 45.8983 58.0133 46.491C59.0813 46.4256 59.1659 47.0721 59.1428 47.9149C59.0947 49.6775 59.0947 51.442 59.1428 53.2045C59.164 53.9954 58.9658 54.4572 58.0268 54.3571C58.0268 54.9286 58.0268 55.4578 58.0268 56.0543C58.9716 56.0466 59.1794 56.5892 59.1467 57.4724C59.0813 59.2985 59.1024 61.1284 59.1371 62.9545C59.1525 63.7088 58.8754 63.9647 58.1269 63.9628C51.8751 63.9435 45.6214 63.9416 39.3697 63.9647C38.5634 63.9686 38.3037 63.6819 38.321 62.8949C38.3614 61.0688 38.3672 59.2389 38.3171 57.4128C38.296 56.5681 38.4845 56.0254 39.4678 56.0658ZM39.5659 47.7975C39.5659 49.5928 39.5659 51.3361 39.5659 53.1141C45.7003 53.1141 51.7731 53.1141 57.8998 53.1141C57.8998 51.3169 57.8998 49.5755 57.8998 47.7975C51.7597 47.7975 45.6849 47.7975 39.5659 47.7975ZM39.5467 43.4834C45.7196 43.4834 51.8097 43.4834 57.8786 43.4834C57.8786 41.6631 57.8786 39.9217 57.8786 38.1919C51.7269 38.1919 45.658 38.1919 39.5467 38.1919C39.5467 39.9718 39.5467 41.6901 39.5467 43.4834ZM39.5583 62.7274C45.7003 62.7274 51.775 62.7274 57.8998 62.7274C57.8998 60.9302 57.8998 59.1888 57.8998 57.407C51.7616 57.407 45.6869 57.407 39.5583 57.407C39.5583 59.1773 39.5583 60.8975 39.5583 62.7274ZM56.7106 46.4929C56.8915 44.7342 56.8915 44.7323 55.2713 44.7323C50.786 44.7323 46.3007 44.7323 41.8153 44.7323C41.4728 44.7323 41.1284 44.7323 40.7301 44.7323C40.7301 45.3749 40.7301 45.9022 40.7301 46.4929C46.0621 46.4929 51.3613 46.4929 56.7106 46.4929ZM56.728 54.4245C51.3132 54.4245 46.0217 54.4245 40.7224 54.4245C40.7224 55.0056 40.7224 55.5059 40.7224 56.0428C46.0871 56.0428 51.3998 56.0428 56.728 56.0428C56.728 55.4539 56.728 54.9575 56.728 54.4245Z" fill="#0274BA"/>
<path d="M11.8071 55.2634C12.5749 55.8638 13.3177 56.4949 14.1123 57.0587C19.2712 60.7224 25.0265 62.6005 31.3456 62.7775C31.409 62.7794 31.486 62.7582 31.5361 62.7852C31.8824 62.9699 32.4808 63.1258 32.5174 63.3624C32.6136 64.0109 32.0171 63.9724 31.5745 63.9474C30.2641 63.8743 28.9441 63.8512 27.6491 63.6722C21.3685 62.7986 15.8133 60.2914 11.0086 56.139C10.9413 56.0812 10.8508 56.0485 10.6372 55.9311C10.7123 56.6739 10.8316 57.3166 10.82 57.9593C10.8162 58.2363 10.5449 58.5115 10.3948 58.7867C10.1562 58.5519 9.70783 58.3133 9.71168 58.0805C9.75209 55.5194 8.48404 53.6702 6.91004 51.7441C2.38815 46.212 0.152217 39.762 0.0252194 32.6001C0.0232952 32.4404 -0.0363546 32.2441 0.0348411 32.1268C0.192626 31.8651 0.413911 31.6438 0.61018 31.4071C0.804525 31.6534 1.13741 31.8824 1.16628 32.1479C1.33946 33.6719 1.3587 35.217 1.57998 36.7333C2.49783 43.0062 5.24367 48.4113 9.5462 53.0333C9.87909 53.3893 10.4487 53.6067 10.9451 53.7125C11.8495 53.905 12.7923 53.9184 13.6986 54.107C13.9757 54.1647 14.1835 54.5534 14.4221 54.7901C14.1104 54.944 13.8064 55.2057 13.4889 55.225C12.9694 55.2538 12.4402 55.123 11.9149 55.0595C11.8764 55.1268 11.8418 55.1942 11.8071 55.2634Z" fill="#0274BA"/>
<path d="M52.4335 8.9112C48.6351 5.58232 44.5654 3.33484 39.9511 2.2265C37.6017 1.6627 35.1521 1.51646 32.7469 1.18357C32.6199 1.16626 32.4659 1.22206 32.3678 1.16626C32.0465 0.987306 31.7444 0.76987 31.4346 0.569753C31.7386 0.369635 32.0484 -0.00943371 32.3447 0.000187329C33.8475 0.052141 35.36 0.11564 36.8454 0.338848C42.8509 1.24323 48.1675 3.68889 52.7952 7.62775C52.9318 7.7432 53.0877 7.83749 53.3648 8.0376C53.282 7.22366 53.1608 6.56751 53.1762 5.91328C53.182 5.64197 53.4802 5.37642 53.6438 5.10896C53.867 5.33409 54.0902 5.56115 54.3115 5.78821C54.3288 5.80552 54.323 5.84978 54.3211 5.88249C54.2307 8.44746 55.5449 10.2928 57.1112 12.2112C61.5465 17.6433 63.7632 23.972 63.9691 30.9934C63.9748 31.2185 64.0403 31.4668 63.9633 31.6611C63.8402 31.9748 63.6246 32.2518 63.4476 32.5443C63.234 32.248 62.8761 31.9728 62.828 31.6534C62.4778 29.252 62.372 26.7986 61.8428 24.4396C60.6883 19.3 58.1387 14.8474 54.5424 11.0086C54.1729 10.6141 53.5533 10.3697 53.0069 10.2408C52.139 10.0349 51.225 10.0311 50.3495 9.84444C50.0551 9.78094 49.8242 9.42111 49.5645 9.1979C49.8627 9.03434 50.1533 8.74764 50.4592 8.73032C51.023 8.69953 51.5964 8.82268 52.4335 8.9112Z" fill="#0274BA"/>
<path d="M19.5465 3.47338C19.1559 3.75432 18.9365 4.03333 18.7075 4.04102C18.5286 4.0468 18.34 3.71583 18.1553 3.53496C18.3515 3.33869 18.5209 3.04044 18.7518 2.98079C18.9134 2.93845 19.1597 3.21939 19.5465 3.47338Z" fill="#0274BA"/>
<path d="M7.94542 11.0047C8.20326 11.3376 8.51498 11.5762 8.4765 11.7282C8.41877 11.9668 8.12245 12.1458 7.9281 12.3517C7.74145 12.1419 7.45282 11.9534 7.40472 11.7148C7.37201 11.557 7.68373 11.3299 7.94542 11.0047Z" fill="#0274BA"/>
<path d="M3.47144 19.5001C3.23861 19.0999 2.98847 18.8555 2.99424 18.6169C2.99809 18.4533 3.41564 18.1301 3.54841 18.1763C3.77162 18.2532 4.02754 18.5476 4.05833 18.7785C4.07949 18.9479 3.762 19.1615 3.47144 19.5001Z" fill="#0274BA"/>
<path d="M10.5992 9.72898C10.247 10.0022 10.0161 10.312 9.84682 10.2812C9.60821 10.237 9.41772 9.94257 9.20605 9.754C9.38501 9.5635 9.56396 9.22099 9.74483 9.21714C9.97959 9.21522 10.2182 9.48461 10.5992 9.72898Z" fill="#0274BA"/>
<path d="M23.8706 0.819901C24.138 1.20282 24.4093 1.42987 24.419 1.66655C24.4267 1.83203 24.0322 2.18032 23.8898 2.1476C23.6647 2.09373 23.3934 1.80894 23.3453 1.57996C23.3125 1.41256 23.6089 1.1778 23.8706 0.819901Z" fill="#0274BA"/>
<path d="M22.0245 2.47279C21.6916 2.72102 21.4511 3.02312 21.2914 2.98656C21.0528 2.93076 20.8719 2.63443 20.668 2.44008C20.8816 2.24959 21.0721 1.95711 21.3164 1.90515C21.4704 1.87244 21.6993 2.19763 22.0245 2.47279Z" fill="#0274BA"/>
<path d="M2.42306 23.8565C2.08825 24.1105 1.8458 24.4222 1.69378 24.3818C1.45518 24.3203 1.27623 24.022 1.07227 23.8238C1.28585 23.6429 1.4802 23.3601 1.71688 23.3158C1.87851 23.2889 2.10172 23.5967 2.42306 23.8565Z" fill="#0274BA"/>
<path d="M1.10481 25.723C1.34918 26.0905 1.63974 26.3445 1.59356 26.5004C1.52429 26.7313 1.23758 26.993 1.00282 27.0411C0.86813 27.068 0.494834 26.689 0.510228 26.5158C0.531394 26.2849 0.821949 26.0771 1.10481 25.723Z" fill="#0274BA"/>
<path d="M12.6207 7.93177C12.2186 8.18769 11.98 8.45516 11.751 8.44553C11.5701 8.43784 11.4046 8.09148 11.2314 7.89521C11.4412 7.71434 11.6336 7.42955 11.8684 7.38722C12.0358 7.36028 12.2609 7.65853 12.6207 7.93177Z" fill="#0274BA"/>
<path d="M17.0925 4.8896C16.6846 5.09549 16.4075 5.34949 16.2517 5.28791C16.0265 5.1994 15.888 4.88575 15.7129 4.66832C15.9207 4.50861 16.1497 4.20073 16.3306 4.22575C16.5576 4.26038 16.7443 4.56826 17.0925 4.8896Z" fill="#0274BA"/>
<path d="M4.79373 17.0256C4.54358 16.6946 4.23956 16.4618 4.2742 16.3059C4.32615 16.0692 4.6167 15.8845 4.80528 15.6786C4.99962 15.8884 5.2921 16.0731 5.35175 16.3155C5.38831 16.4618 5.06504 16.6985 4.79373 17.0256Z" fill="#0274BA"/>
<path d="M7.03531 13.8968C6.71974 14.172 6.50807 14.4895 6.34836 14.4664C6.10591 14.4298 5.90002 14.1547 5.68066 13.9815C5.88078 13.7794 6.05204 13.4793 6.29064 13.4081C6.44073 13.3619 6.6928 13.6582 7.03531 13.8968Z" fill="#0274BA"/>
<path d="M13.9675 5.42068C14.2331 5.77858 14.5294 6.00756 14.4967 6.17497C14.4524 6.40588 14.1908 6.69643 13.9675 6.75416C13.8271 6.79072 13.4268 6.44821 13.4307 6.2808C13.4345 6.04605 13.7039 5.81514 13.9675 5.42068Z" fill="#0274BA"/>
<path d="M27.3898 0.985382C26.9895 1.27209 26.7702 1.5434 26.5316 1.56264C26.3622 1.57611 26.0313 1.25092 26.0236 1.0662C26.0159 0.873778 26.3007 0.510102 26.4681 0.50433C26.7067 0.494709 26.9568 0.742932 27.3898 0.985382Z" fill="#0274BA"/>
<path d="M2.46942 20.4083C2.74651 20.8009 3.02359 21.0241 3.03129 21.255C3.03706 21.4282 2.64837 21.7861 2.51368 21.7514C2.2847 21.6937 2.01338 21.4166 1.95951 21.1838C1.92102 21.0202 2.21158 20.7797 2.46942 20.4083Z" fill="#0274BA"/>
<path d="M55.35 51.8095C55.0556 51.4112 54.7824 51.1957 54.7593 50.9551C54.7439 50.7916 55.0749 50.4664 55.2673 50.4548C55.4539 50.4433 55.8138 50.73 55.8215 50.8974C55.833 51.136 55.5886 51.3823 55.35 51.8095Z" fill="#0274BA"/>
<path d="M50.6975 50.9417C50.3127 51.2245 50.0952 51.5035 49.8605 51.5189C49.6911 51.5286 49.3255 51.1476 49.3563 51.0148C49.4102 50.7858 49.6815 50.5126 49.9105 50.4568C50.0798 50.4144 50.3242 50.6954 50.6975 50.9417Z" fill="#0274BA"/>
<path d="M53.407 50.9282C53.026 51.2188 52.8124 51.5016 52.5796 51.517C52.4064 51.5286 52.2101 51.1918 52.0254 51.0109C52.2178 50.8147 52.3852 50.5145 52.6123 50.4548C52.7778 50.4125 53.026 50.6877 53.407 50.9282Z" fill="#0274BA"/>
<path d="M49.9217 40.6087C50.1623 40.9435 50.4644 41.1917 50.4201 41.3418C50.3508 41.5804 50.0545 41.7536 49.8544 41.9556C49.6754 41.7363 49.3926 41.5361 49.3522 41.2918C49.3252 41.1359 49.6485 40.9185 49.9217 40.6087Z" fill="#0274BA"/>
<path d="M56.0811 41.4034C55.7348 41.6554 55.4827 41.9633 55.3326 41.921C55.094 41.8517 54.9208 41.5496 54.7207 41.3457C54.9381 41.1706 55.1402 40.8935 55.3788 40.8531C55.5404 40.828 55.7579 41.1359 56.0811 41.4034Z" fill="#0274BA"/>
<path d="M53.4088 41.3322C53.0221 41.6208 52.8027 41.9017 52.5718 41.9133C52.3967 41.9229 52.2062 41.5842 52.0215 41.3995C52.2178 41.2052 52.3871 40.9088 52.618 40.853C52.7835 40.8126 53.0298 41.0897 53.4088 41.3322Z" fill="#0274BA"/>
<path d="M53.4069 60.5531C53.0239 60.8302 52.8046 61.1092 52.5737 61.1188C52.3947 61.1265 52.2042 60.7917 52.0176 60.6108C52.2138 60.4107 52.3851 60.1048 52.6179 60.047C52.7815 60.0028 53.0297 60.2953 53.4069 60.5531Z" fill="#0274BA"/>
<path d="M50.693 60.6031C50.2986 60.8571 50.0619 61.1246 49.8272 61.1207C49.654 61.1188 49.3095 60.7128 49.3499 60.582C49.4211 60.3549 49.7098 60.0932 49.9445 60.0509C50.1139 60.0239 50.3409 60.328 50.693 60.6031Z" fill="#0274BA"/>
<path d="M55.2155 61.369C54.9962 60.9764 54.746 60.7224 54.7614 60.4896C54.773 60.3183 55.1982 60.0047 55.3291 60.0528C55.5503 60.1336 55.7966 60.4396 55.8197 60.6724C55.839 60.8417 55.5138 61.0438 55.2155 61.369Z" fill="#0274BA"/>
</svg>
