<svg width="64" height="50" viewBox="0 0 64 50" fill="none" xmlns="http://www.w3.org/2000/svg">
<path d="M9.78684 13.9607C11.4437 13.9607 12.7948 15.3118 12.7948 16.9687V18.8105C12.7948 20.4674 11.4437 21.8185 9.78684 21.8185C8.12995 21.8185 6.77884 20.4674 6.77884 18.8105V16.9687C6.77884 15.3118 8.12995 13.9607 9.78684 13.9607ZM9.78684 11.8274C6.95662 11.8274 4.64551 14.1385 4.64551 16.9687V18.8105C4.64551 21.6336 6.95662 23.9518 9.78684 23.9518C12.6171 23.9518 14.9282 21.6407 14.9282 18.8105V16.9687C14.9282 14.1456 12.6171 11.8274 9.78684 11.8274Z" fill="#0274BA"/>
<path d="M12.9442 26.8816C15.5468 27.5429 17.4384 29.9251 17.4384 32.6487V36.7163H2.13529V32.6487C2.13529 29.9251 4.03395 27.5429 6.62951 26.8816C7.63217 27.2869 8.71306 27.5003 9.78684 27.5003C10.8606 27.5003 11.9415 27.2869 12.9442 26.8816ZM12.6811 24.6558C11.8135 25.1038 10.8251 25.3669 9.78684 25.3669C8.74862 25.3669 7.76017 25.1109 6.89262 24.6558C3.00995 25.2389 0.00195312 28.6096 0.00195312 32.6487V37.9678C0.00195312 38.4514 0.400175 38.8496 0.883731 38.8496H18.6828C19.1664 38.8496 19.5646 38.4514 19.5646 37.9678V32.6487C19.5717 28.6096 16.5637 25.2389 12.6811 24.6558Z" fill="#0274BA"/>
<path d="M54.2175 13.9607C55.8744 13.9607 57.2255 15.3118 57.2255 16.9687V18.8105C57.2255 20.4674 55.8744 21.8185 54.2175 21.8185C52.5606 21.8185 51.2095 20.4674 51.2095 18.8105V16.9687C51.2095 15.3118 52.5606 13.9607 54.2175 13.9607ZM54.2175 11.8274C51.3944 11.8274 49.0762 14.1385 49.0762 16.9687V18.8105C49.0762 21.6336 51.3873 23.9518 54.2175 23.9518C57.0406 23.9518 59.3588 21.6407 59.3588 18.8105V16.9687C59.3588 14.1456 57.0406 11.8274 54.2175 11.8274Z" fill="#0274BA"/>
<path d="M51.0592 26.8816C52.0619 27.2869 53.1356 27.5003 54.2165 27.5003C55.2903 27.5003 56.3712 27.2869 57.3739 26.8816C59.9765 27.5429 61.8752 29.9251 61.8752 32.6487V36.7163H46.565V32.6487C46.565 29.9251 48.4565 27.5429 51.0592 26.8816ZM57.1107 24.6558C56.2432 25.1038 55.2548 25.3669 54.2165 25.3669C53.1783 25.3669 52.1899 25.1109 51.3223 24.6558C47.4396 25.2389 44.4316 28.6096 44.4316 32.6487V37.9678C44.4316 38.4514 44.8299 38.8496 45.3134 38.8496H63.1125C63.6032 38.8496 64.0014 38.4514 64.0014 37.9678V32.6487C64.0014 28.6096 60.9934 25.2389 57.1107 24.6558Z" fill="#0274BA"/>
<path d="M32.0019 46.9634C26.1352 46.9634 20.7876 44.6949 16.7841 40.99H13.7832C18.2774 45.9678 24.777 49.0967 31.9948 49.0967C39.2125 49.0967 45.7121 45.9607 50.2063 40.99H47.2197C43.2161 44.6878 37.8685 46.9634 32.0019 46.9634Z" fill="#0274BA"/>
<path d="M14.0747 11.1091C18.1707 5.66204 24.6774 2.13493 32.0018 2.13493C39.3263 2.13493 45.8329 5.66204 49.9289 11.1091C50.5049 10.6825 51.1449 10.3483 51.8347 10.1065C47.3618 3.98382 40.1441 0.00159454 32.0018 0.00159454C23.8596 0.00159454 16.6418 3.99093 12.1689 10.1065C12.8587 10.3483 13.4987 10.6825 14.0747 11.1091Z" fill="#0274BA"/>
</svg>
