<svg width="83" height="17" viewBox="0 0 83 17" fill="none" xmlns="http://www.w3.org/2000/svg">
<path d="M0 0.0273438V16.2436H40.8738V0.0273438H0ZM14.3385 11.0898C14.3429 11.3386 14.2801 11.5838 14.1569 11.7988C14.0379 12.0033 13.88 12.1816 13.6923 12.3232C13.5021 12.4665 13.2882 12.574 13.0607 12.6406C12.8344 12.7087 12.5996 12.7435 12.3635 12.7441H5.74215C5.49702 12.745 5.25287 12.7127 5.01612 12.648C4.79051 12.5872 4.57687 12.4873 4.38455 12.3528C4.19718 12.2214 4.04299 12.0468 3.93458 11.8433C3.81723 11.6106 3.75978 11.3515 3.76756 11.0902V5.18158C3.75984 4.92022 3.8173 4.66112 3.93458 4.42842C4.04323 4.22559 4.19739 4.05169 4.38455 3.92084C4.57684 3.7862 4.79049 3.68622 5.01612 3.62528C5.25289 3.56072 5.49703 3.52843 5.74215 3.52923H12.3635C12.5995 3.52988 12.8343 3.56459 13.0607 3.6323C13.2883 3.69896 13.5022 3.8066 13.6923 3.95012C13.8799 4.09156 14.0379 4.26971 14.1569 4.4741C14.2801 4.68909 14.3429 4.93435 14.3385 5.18314V11.0898ZM26.3035 12.7437H23.5737L18.3022 7.14629V12.7421H15.7322V3.52766H18.5199L23.7476 9.1684V3.52766H26.3031L26.3035 12.7437ZM37.1066 5.65558H30.253V7.10256H33.8543V9.22735H30.253V10.6154H37.1066V12.7417H27.6971V3.52727H37.1066V5.65363V5.65558Z" fill="#5FB3E4"/>
<path d="M11.7689 5.65381H6.32349V10.6156H11.7689V5.65381Z" fill="#5FB3E4"/>
<path d="M42.8987 16.2147V0H47.4215V6.28848H57.0287V0H61.5514V16.2147H57.0287V10.0301H47.4215V16.2147H42.8987Z" fill="#5FB3E4"/>
<path d="M63.9782 0H80.2802C80.5457 0.00781299 80.805 0.0838366 81.0338 0.220991C81.5792 0.533177 82.0299 0.991532 82.3369 1.54615C82.4716 1.77896 82.5464 2.04258 82.5542 2.31259V6.93973C82.5654 7.40843 82.4917 7.87521 82.3369 8.31683C82.2126 8.66587 82.0116 8.98144 81.7491 9.23944C81.5019 9.47359 81.2108 9.65471 80.8933 9.77201C80.573 9.89291 80.2363 9.96297 79.8951 9.97972H68.9099C68.8072 9.98001 68.7078 10.0167 68.6289 10.0836C68.5935 10.1061 68.5636 10.1366 68.5415 10.1725C68.5194 10.2085 68.5055 10.2491 68.501 10.2913V12.1623C68.501 12.3705 68.6373 12.4747 68.9099 12.4747H82.5546V16.2167H66.227C65.9529 16.2117 65.6846 16.1356 65.4476 15.9957C65.1823 15.8478 64.9409 15.6594 64.7319 15.4369C64.5208 15.2153 64.34 14.9658 64.1944 14.6951C64.0593 14.4625 63.9846 14.1987 63.9771 13.9287V9.27614C63.962 8.78801 64.0446 8.30185 64.2197 7.84712C64.3652 7.48882 64.5883 7.16851 64.8724 6.91006C65.1423 6.67009 65.4608 6.49358 65.8054 6.39311C66.1497 6.28981 66.5068 6.23721 66.8658 6.23694H77.6487C77.921 6.23694 78.0573 6.13282 78.0576 5.92458V4.05358C78.053 4.01141 78.0391 3.97084 78.017 3.93488C77.9948 3.89892 77.965 3.86849 77.9297 3.84586C77.8508 3.77903 77.7514 3.7423 77.6487 3.74201H63.9786L63.9782 0Z" fill="#5FB3E4"/>
</svg>
