<svg width="61" height="60" viewBox="0 0 61 60" fill="none" xmlns="http://www.w3.org/2000/svg">
<g clip-path="url(#clip0_642_621723)">
<path d="M59.9648 47.0173C60.4504 47.0173 60.8438 46.6238 60.8438 46.1384V44.7914C60.8438 42.3616 59.2934 40.2183 56.9852 39.4577L51.4918 37.6502V35.7483C53.4047 34.6007 54.688 32.5069 54.688 30.1185V26.3304C54.688 22.7126 51.7447 19.7693 48.1269 19.7693C45.996 19.7693 44.0998 20.7912 42.9005 22.3698C42.2366 21.124 41.1108 20.1524 39.7014 19.6895L34.2086 17.8811V15.9791C36.1214 14.8315 37.4047 12.7377 37.4047 10.3493V6.56109C37.4048 2.94328 34.4616 0 30.8438 0C27.2259 0 24.2827 2.94328 24.2827 6.56109V10.3492C24.2827 12.7376 25.566 14.8314 27.4788 15.979V17.8809L21.9866 19.6893C20.5768 20.1524 19.4509 21.124 18.787 22.3698C17.5877 20.7911 15.6915 19.7693 13.5606 19.7693C9.94277 19.7693 6.99949 22.7126 6.99949 26.3304V30.1185C6.99949 32.5069 8.28281 34.6007 10.1957 35.7483V37.6502L4.7018 39.4579C2.39414 40.2183 0.84375 42.3616 0.84375 44.7914V46.1384C0.84375 46.6238 1.23715 47.0173 1.72266 47.0173C2.20816 47.0173 2.60156 46.6238 2.60156 46.1384V44.7914C2.60156 43.1222 3.66668 41.6497 5.25152 41.1274L10.3973 39.4342C10.8676 40.7262 12.1079 41.6513 13.5605 41.6513C15.0129 41.6513 16.2532 40.7261 16.7235 39.4342L21.8686 41.1272C22.9964 41.4989 23.8703 42.3551 24.2745 43.4401L21.986 44.1933C19.6778 44.9529 18.1269 47.096 18.1269 49.5259V50.5474H7.57348V48.3484C7.57348 47.863 7.18008 47.4695 6.69457 47.4695C6.20906 47.4695 5.81566 47.863 5.81566 48.3484V50.5474H2.60156V50.2439C2.60156 49.7585 2.20816 49.365 1.72266 49.365C1.23715 49.365 0.84375 49.7585 0.84375 50.2439V51.4263C0.84375 51.9117 1.23715 52.3052 1.72266 52.3052H18.1269V59.1209C18.1269 59.6063 18.5203 59.9998 19.0058 59.9998H42.6816C43.1671 59.9998 43.5605 59.6063 43.5605 59.1209V57.9469C43.5605 57.4615 43.1671 57.068 42.6816 57.068C42.1961 57.068 41.8027 57.4615 41.8027 57.9469V58.2422H38.5887V53.0838C38.5887 52.5984 38.1953 52.2049 37.7098 52.2049C37.2243 52.2049 36.8309 52.5984 36.8309 53.0838V58.2422H24.8566V53.0838C24.8566 52.5984 24.4632 52.2049 23.9777 52.2049C23.4922 52.2049 23.0988 52.5984 23.0988 53.0838V58.2422H19.8847V49.5261C19.8847 47.857 20.95 46.3849 22.5355 45.8632L27.6807 44.1698C28.1511 45.4616 29.3913 46.3867 30.8438 46.3867C32.2962 46.3867 33.5364 45.4617 34.0068 44.1698L39.152 45.8632C40.7375 46.385 41.8028 47.857 41.8028 49.5261V53.8436C41.8028 54.3289 42.1962 54.7225 42.6817 54.7225C43.1672 54.7225 43.5606 54.3289 43.5606 53.8436V52.3055H59.9648C60.4504 52.3055 60.8438 51.912 60.8438 51.4266V50.2441C60.8438 49.7588 60.4504 49.3652 59.9648 49.3652C59.4793 49.3652 59.0859 49.7588 59.0859 50.2441V50.5477H55.8718V48.3486C55.8718 47.8632 55.4784 47.4697 54.9929 47.4697C54.5074 47.4697 54.114 47.8632 54.114 48.3486V50.5477H43.5605V49.5261C43.5605 47.0961 42.0096 44.9531 39.7014 44.1935L37.4129 43.4404C37.8171 42.3554 38.6909 41.4993 39.8183 41.1275L44.9639 39.4344C45.4342 40.7263 46.6745 41.6515 48.1269 41.6515C49.5795 41.6515 50.8198 40.7263 51.29 39.4344L56.4354 41.1275C58.0208 41.6497 59.0859 43.1222 59.0859 44.7914V46.1384C59.0859 46.6238 59.4793 47.0173 59.9648 47.0173ZM48.1269 21.527C50.7755 21.527 52.9302 23.6817 52.9302 26.3303V30.1184C52.9302 32.7669 50.7754 34.9216 48.1269 34.9216C45.4785 34.9216 43.3237 32.7669 43.3237 30.1184V26.3303C43.3237 23.6817 45.4785 21.527 48.1269 21.527ZM26.0405 10.3492V6.56109C26.0405 3.91254 28.1952 1.75781 30.8438 1.75781C33.4923 1.75781 35.647 3.91254 35.647 6.56109V10.3492C35.647 12.9977 33.4922 15.1525 30.8438 15.1525C28.1953 15.1525 26.0405 12.9977 26.0405 10.3492ZM30.8438 16.9103C31.398 16.9103 31.9363 16.8405 32.4509 16.7105V18.4937C32.4506 18.502 32.4507 18.5102 32.4509 18.5184C32.4502 19.404 31.7296 20.1243 30.8439 20.1243C29.9582 20.1243 29.2375 19.404 29.2369 18.5184C29.2369 18.5101 29.237 18.5019 29.2369 18.4937V16.7105C29.7512 16.8404 30.2895 16.9103 30.8438 16.9103ZM22.5357 21.3591L27.6806 19.6651C28.1509 20.957 29.3912 21.8821 30.8436 21.8821C32.2961 21.8821 33.5364 20.957 34.0066 19.6651L39.1521 21.3592C40.6213 21.8418 41.6401 23.1284 41.7825 24.6579C41.6415 25.192 41.5657 25.7524 41.5657 26.3303V30.1184C41.5657 30.341 41.5771 30.5611 41.5989 30.7781H37.3973C37.2464 27.2932 34.365 24.5043 30.8435 24.5043C27.322 24.5043 24.4406 27.2932 24.2897 30.7781H20.0882C20.11 30.5611 20.1213 30.341 20.1213 30.1184V26.3303C20.1213 25.7524 20.0455 25.1922 19.9045 24.6579C20.0471 23.1285 21.0661 21.8419 22.5357 21.3591ZM30.8438 39.6567C28.1952 39.6567 26.0405 37.502 26.0405 34.8534V31.0654C26.0405 28.4168 28.1953 26.2621 30.8438 26.2621C33.4922 26.2621 35.647 28.4168 35.647 31.0654V34.8534C35.647 37.502 33.4923 39.6567 30.8438 39.6567ZM8.75719 30.1184V26.3303C8.75719 23.6817 10.912 21.527 13.5605 21.527C16.2089 21.527 18.3636 23.6817 18.3636 26.3303V30.1184C18.3636 32.7669 16.2089 34.9216 13.5605 34.9216C10.912 34.9216 8.75719 32.7669 8.75719 30.1184ZM15.1675 38.2864C15.1675 39.1726 14.4466 39.8934 13.5605 39.8934C12.6743 39.8934 11.9534 39.1725 11.9534 38.2864V36.4797C12.4678 36.6097 13.0061 36.6795 13.5605 36.6795C14.1148 36.6795 14.653 36.6097 15.1675 36.4797V38.2864ZM22.4184 39.4577L16.9254 37.6502V35.7482C18.1546 35.0107 19.1224 33.8821 19.6581 32.5359H24.2827V34.8534C24.2827 37.2418 25.566 39.3356 27.4788 40.4832V42.3856L25.9438 42.8907C25.3664 41.2802 24.0831 40.0064 22.4184 39.4577ZM30.8438 44.6288C29.9576 44.6288 29.2366 43.9078 29.2366 43.0216V43.011C29.2366 43.0092 29.2366 43.0075 29.2366 43.0058V41.2148C29.7511 41.3449 30.2893 41.4146 30.8438 41.4146C31.3982 41.4146 31.9363 41.3449 32.4509 41.2148V43.0058V43.011V43.0216C32.4509 43.9078 31.7299 44.6288 30.8438 44.6288ZM39.2687 39.4579C37.6044 40.0064 36.3211 41.2802 35.7438 42.8909L34.2087 42.3857V40.4834C36.1215 39.3357 37.4048 37.242 37.4048 34.8536V32.5359H42.0294C42.5651 33.8822 43.5329 35.0108 44.7621 35.7482V37.6502L39.2687 39.4579ZM48.1269 39.8936C47.2407 39.8936 46.5199 39.1726 46.5199 38.2866V36.4798C47.0344 36.6098 47.5726 36.6796 48.1269 36.6796C48.6812 36.6796 49.2195 36.6098 49.734 36.4798V38.2866C49.734 39.1726 49.0131 39.8936 48.1269 39.8936Z" fill="white"/>
</g>
<defs>
<clipPath id="clip0_642_621723">
<rect width="60" height="60" fill="white" transform="translate(0.84375)"/>
</clipPath>
</defs>
</svg>
