<svg width="68" height="60" viewBox="0 0 68 60" fill="none" xmlns="http://www.w3.org/2000/svg">
<path d="M10.4046 20.2881C10.2619 20.2881 10.12 20.2544 9.9905 20.1863L0.941991 16.9014C0.650333 16.7957 0.432831 16.548 0.365416 16.245C0.298001 15.942 0.390253 15.6255 0.609529 15.4059L7.91235 8.09596C9.58743 6.42159 11.9739 5.71834 14.2965 6.21473L16.8619 6.7725C16.946 6.78279 17.0286 6.80443 17.1085 6.83849C17.4423 6.98184 17.6602 7.31324 17.6602 7.67657C17.6602 8.17828 17.2536 8.5849 16.7519 8.5849C16.749 8.58454 16.7469 8.58419 16.7444 8.5849C16.6802 8.5849 16.6156 8.57815 16.5514 8.56396L13.9137 7.99023C12.1992 7.62512 10.4347 8.14315 9.19714 9.38004L2.9027 15.6805L10.7108 18.5151C10.8357 18.5602 10.9489 18.6326 11.0429 18.7266C11.3977 19.0814 11.4048 19.6637 11.0503 20.0185C10.8712 20.1977 10.6373 20.2881 10.4046 20.2881Z" fill="white"/>
<path d="M21.3233 37.0263C21.258 37.0263 21.1924 37.0192 21.1271 37.005C20.8241 36.9379 20.5764 36.7208 20.47 36.4291L17.1273 27.266C17.0907 27.1663 17.0723 27.0609 17.0723 26.9548C17.0723 26.4531 17.4789 26.0429 17.9806 26.0429C18.3975 26.0429 18.7488 26.3211 18.8556 26.7029L21.6884 34.4684L27.9914 28.1654C29.229 26.9279 29.7456 25.1676 29.3734 23.4563L28.8064 20.8165C28.701 20.3258 29.0132 19.8429 29.5036 19.7375C29.9925 19.6346 30.4772 19.944 30.5826 20.4347L31.1492 23.0724C31.6527 25.3883 30.9527 27.7734 29.2758 29.4499L21.9655 36.7602C21.7934 36.9326 21.5614 37.0263 21.3233 37.0263Z" fill="white"/>
<path d="M4.92872 33.3489C4.6885 33.3489 4.45716 33.2538 4.2865 33.0828C4.10128 32.8976 4.00513 32.6418 4.02252 32.3806C4.21305 29.5017 5.32824 26.1703 7.24779 22.7474C7.49297 22.3099 8.04648 22.1541 8.48432 22.3993C8.92181 22.6448 9.07758 23.1984 8.8324 23.6358C7.28611 26.3931 6.30185 29.0585 5.95236 31.417C8.31117 31.0678 10.9762 30.0836 13.7335 28.5369C14.1706 28.2914 14.7248 28.4475 14.97 28.885C15.2152 29.3225 15.0594 29.876 14.6219 30.1215C11.199 32.0414 7.86765 33.1566 4.98868 33.3468C4.96845 33.3482 4.94858 33.3489 4.92872 33.3489Z" fill="white"/>
<path d="M19.0537 28.9343C18.8171 28.9343 18.585 28.8417 18.4115 28.6681L8.70058 18.9572C8.4476 18.7042 8.3667 18.3263 8.49408 17.9917C9.86437 14.3925 12.1206 10.9579 15.0191 8.05974C19.6051 3.47304 25.3297 0.620672 31.1377 0.02813C32.8213 -0.140762 34.4843 0.456393 35.6982 1.67057C36.9123 2.8844 37.5109 4.54635 37.3406 6.23031C36.7481 12.039 33.8957 17.7632 29.3093 22.3496C26.4105 25.2484 22.9759 27.5047 19.377 28.875C19.272 28.9147 19.1623 28.9343 19.0537 28.9343ZM10.4065 18.0943L19.2744 26.9622C22.438 25.6671 25.4529 23.6369 28.0249 21.0652C32.3164 16.7737 34.9829 11.4397 35.5332 6.04652C35.6485 4.90898 35.2404 3.78173 34.4137 2.95501C33.5866 2.12828 32.4573 1.71954 31.3215 1.83556C25.9287 2.38588 20.5951 5.05232 16.3036 9.34417C13.7322 11.9159 11.702 14.9304 10.4065 18.0943Z" fill="white"/>
<path d="M23.6213 19.4433C22.162 19.4433 20.703 18.8877 19.592 17.7767C17.3705 15.5552 17.3702 11.94 19.592 9.71815C21.8139 7.49629 25.4288 7.49629 27.6506 9.71815C29.8725 11.94 29.8721 15.5552 27.6506 17.7767C26.5397 18.8877 25.0807 19.4433 23.6213 19.4433ZM23.6213 9.86753C22.6271 9.86753 21.6333 10.2458 20.8765 11.0026C19.3632 12.5162 19.3632 14.979 20.8765 16.4923C22.3901 18.0059 24.8525 18.0059 26.3662 16.4923C27.8795 14.979 27.8795 12.5162 26.3662 11.0026C25.6094 10.2461 24.6152 9.86753 23.6213 9.86753Z" fill="white"/>
<path d="M35.3476 11.9832C35.1535 11.9832 34.958 11.9214 34.7926 11.7933C33.1101 10.4926 31.4627 9.03855 29.8969 7.47203C28.3272 5.90233 26.8732 4.25492 25.5752 2.57558C25.2687 2.17889 25.3418 1.60835 25.7388 1.30143C26.1362 0.995227 26.7064 1.06867 27.0129 1.465C28.2637 3.08332 29.6663 4.67218 31.1813 6.1876C32.6932 7.69983 34.2821 9.10241 35.9039 10.3563C36.3006 10.6632 36.3737 11.2334 36.0668 11.6305C35.888 11.8618 35.6194 11.9832 35.3476 11.9832Z" fill="white"/>
<path d="M66.6516 59.9993H3.05091C2.5492 59.9993 2.14258 59.5927 2.14258 59.0909C2.14258 58.5892 2.5492 58.1826 3.05091 58.1826H66.6516C67.1533 58.1826 67.56 58.5892 67.56 59.0909C67.56 59.5927 67.1533 59.9993 66.6516 59.9993Z" fill="white"/>
<path d="M49.1903 59.9997H42.3136C41.8119 59.9997 41.4053 59.5931 41.4053 59.0914V35.6349C41.4053 35.1332 41.8119 34.7266 42.3136 34.7266H49.1903C49.692 34.7266 50.0986 35.1332 50.0986 35.6349V59.0914C50.0986 59.5931 49.692 59.9997 49.1903 59.9997ZM43.2219 58.1831H48.282V36.5432H43.2219V58.1831Z" fill="white"/>
<path d="M35.6526 59.9994H28.7755C28.2738 59.9994 27.8672 59.5928 27.8672 59.0911V42.4513C27.8672 41.9496 28.2738 41.543 28.7755 41.543H35.6526C36.1543 41.543 36.5609 41.9496 36.5609 42.4513V59.0911C36.5609 59.5928 36.1543 59.9994 35.6526 59.9994ZM29.6838 58.1828H34.7442V43.3596H29.6838V58.1828Z" fill="white"/>
<path d="M22.1145 59.9992H15.2374C14.7357 59.9992 14.3291 59.5926 14.3291 59.0909V47.3624C14.3291 46.8607 14.7357 46.4541 15.2374 46.4541H22.1145C22.6162 46.4541 23.0228 46.8607 23.0228 47.3624V59.0909C23.0228 59.5926 22.6162 59.9992 22.1145 59.9992ZM16.1458 58.1825H21.2061V48.2708H16.1458V58.1825Z" fill="white"/>
<path d="M62.3002 59.9996H56.2878C55.7861 59.9996 55.3795 59.593 55.3795 59.0913V27.7922H52.046C51.6905 27.7922 51.3676 27.5847 51.22 27.2614C51.072 26.9378 51.1267 26.5582 51.3594 26.2892L58.6072 17.9177C58.9521 17.5196 59.6355 17.5196 59.9804 17.9177L67.2211 26.29C67.4535 26.5589 67.5078 26.9386 67.3598 27.2618C67.2119 27.585 66.8893 27.7922 66.5338 27.7922H63.2085V59.0913C63.2085 59.593 62.8019 59.9996 62.3002 59.9996ZM57.1961 58.1829H61.3918V26.8839C61.3918 26.3822 61.7984 25.9756 62.3002 25.9756H64.549L59.2938 19.9001L54.034 25.9756H56.2878C56.7895 25.9756 57.1961 26.3822 57.1961 26.8839V58.1829Z" fill="white"/>
<path d="M39.3077 19.843C39.0753 19.843 38.8429 19.7543 38.6655 19.5769C38.3107 19.2221 38.3107 18.6473 38.6655 18.2925L42.0022 14.9558C42.1725 14.7855 42.4035 14.6897 42.6444 14.6897H50.9762L60.0801 5.58545C60.4349 5.23063 61.0097 5.23063 61.3645 5.58545C61.7193 5.93991 61.7193 6.51506 61.3645 6.86988L51.9945 16.2402C51.8242 16.4105 51.5932 16.5063 51.3523 16.5063H43.0205L39.95 19.5769C39.7726 19.7543 39.5401 19.843 39.3077 19.843Z" fill="white"/>
<path d="M35.7258 23.4249C35.4934 23.4249 35.2606 23.3362 35.0832 23.1588C34.7287 22.804 34.7287 22.2288 35.0835 21.874L35.8201 21.1377C36.175 20.7836 36.7501 20.7833 37.1049 21.1381C37.4594 21.4929 37.4594 22.0681 37.1046 22.4229L36.368 23.1591C36.1906 23.3362 35.9582 23.4249 35.7258 23.4249Z" fill="white"/>
</svg>
