<svg width="56" height="60" viewBox="0 0 56 60" fill="none" xmlns="http://www.w3.org/2000/svg">
<path fill-rule="evenodd" clip-rule="evenodd" d="M52.2273 28.9828C51.6664 29.0775 51.2877 29.6093 51.3824 30.1712C51.606 31.4925 51.7188 32.8218 51.7188 34.125C51.7188 41.3937 48.479 47.9547 43.259 52.3233C42.3474 46.4041 38.1448 41.6566 32.5642 39.9576C34.7829 38.4776 36.25 35.9559 36.25 33.0938C36.25 28.5438 32.549 24.8438 28 24.8438C23.451 24.8438 19.75 28.5438 19.75 33.0938C19.75 35.9559 21.2171 38.4776 23.4358 39.9576C17.8552 41.6566 13.6526 46.4041 12.741 52.3233C7.52103 47.9547 4.28125 41.3937 4.28125 34.125C4.28125 32.8218 4.39404 31.4925 4.61761 30.1712C4.71228 29.6093 4.33362 29.0775 3.77267 28.9828C3.19864 28.8862 2.67899 29.2668 2.58331 29.8288C2.34161 31.2609 2.21875 32.707 2.21875 34.125C2.21875 46.79 11.2643 57.4792 23.727 59.5417C23.7834 59.5518 23.8408 59.5558 23.8961 59.5558C24.3916 59.5558 24.8287 59.1973 24.9123 58.6937C25.006 58.1318 24.6253 57.6 24.0633 57.5074C20.5883 56.9322 17.4092 55.6184 14.6561 53.7546C15.1536 46.7562 20.9052 41.3438 28 41.3438C35.0948 41.3438 40.8464 46.7562 41.3439 53.7546C38.5908 55.6184 35.4117 56.9322 31.9367 57.5074C31.3747 57.6 30.994 58.1318 31.0877 58.6937C31.1713 59.1973 31.6084 59.5558 32.1039 59.5558C32.1592 59.5558 32.2166 59.5518 32.273 59.5417C44.7357 57.4792 53.7812 46.79 53.7812 34.125C53.7812 32.707 53.6584 31.2609 53.4167 29.8288C53.321 29.2668 52.7953 28.8842 52.2273 28.9828ZM21.8125 33.0938C21.8125 29.6818 24.588 26.9062 28 26.9062C31.412 26.9062 34.1875 29.6818 34.1875 33.0938C34.1875 36.5057 31.412 39.2812 28 39.2812C24.588 39.2812 21.8125 36.5057 21.8125 33.0938Z" fill="white"/>
<path fill-rule="evenodd" clip-rule="evenodd" d="M39.2934 8.29993C39.1715 7.92529 38.8492 7.65338 38.4605 7.59698L31.8712 6.64026L28.9245 0.668274C28.578 -0.0326538 27.4219 -0.0326538 27.0755 0.668274L24.1287 6.64026L17.5394 7.59698C17.1507 7.65338 16.8284 7.92529 16.7066 8.29993C16.5857 8.67255 16.6864 9.08344 16.9674 9.35736L21.7359 14.004L20.61 20.5662C20.5435 20.9549 20.7027 21.3456 21.0199 21.5753C21.3391 21.8069 21.7591 21.8411 22.1065 21.6538L28 18.554L33.8934 21.6538C34.0444 21.7344 34.2096 21.7726 34.3738 21.7726C34.5873 21.7726 34.7998 21.7062 34.98 21.5753C35.2973 21.3456 35.4564 20.9549 35.3899 20.5662L34.264 14.004L39.0325 9.35736C39.3135 9.08344 39.4142 8.67255 39.2934 8.29993ZM32.4361 12.9043C32.1934 13.142 32.0827 13.4824 32.1401 13.8187L33.0041 18.8561L28.4803 16.4774C28.3293 16.3989 28.1651 16.3586 28 16.3586C27.8348 16.3586 27.6706 16.3989 27.5196 16.4774L22.9958 18.8561L23.8598 13.8187C23.9173 13.4824 23.8065 13.142 23.5638 12.9043L19.904 9.33923L24.9616 8.60406C25.298 8.55371 25.588 8.34424 25.7381 8.0401L28 3.45587L30.2619 8.0401C30.4119 8.34424 30.702 8.55371 31.0383 8.60406L36.0959 9.33923L32.4361 12.9043Z" fill="white"/>
<path fill-rule="evenodd" clip-rule="evenodd" d="M3.32247 24.8926C3.256 25.2813 3.41512 25.6721 3.73235 25.9017C4.0526 26.1333 4.47356 26.1655 4.81899 25.9802L9.43746 23.5511L14.0559 25.9802C14.207 26.0608 14.3721 26.0991 14.5363 26.0991C14.7498 26.0991 14.9623 26.0326 15.1426 25.9017C15.4598 25.6721 15.6189 25.2813 15.5524 24.8926L14.6702 19.7504L18.4075 16.1088C18.6885 15.8349 18.7892 15.424 18.6684 15.0514C18.5465 14.6768 18.2242 14.4048 17.8355 14.3484L12.6712 13.5992L10.362 8.91827C10.0155 8.21735 8.85939 8.21735 8.51296 8.91827L6.20372 13.5992L1.03942 14.3484C0.650682 14.4048 0.328416 14.6768 0.20656 15.0514C0.08571 15.424 0.186418 15.8349 0.467393 16.1088L4.20467 19.7504L3.32247 24.8926ZM3.40404 16.0907L7.03658 15.563C7.37294 15.5126 7.66298 15.3032 7.81304 14.999L9.43746 11.7059L11.0619 14.999C11.2119 15.3032 11.502 15.5126 11.8383 15.563L15.4709 16.0907L12.8424 18.6507C12.5997 18.8884 12.4889 19.2288 12.5463 19.5651L13.1667 23.1826L9.91783 21.4745C9.76677 21.396 9.60262 21.3557 9.43746 21.3557C9.27229 21.3557 9.10814 21.396 8.95708 21.4745L5.70824 23.1826L6.3286 19.5651C6.386 19.2288 6.27522 18.8884 6.03252 18.6507L3.40404 16.0907Z" fill="white"/>
<path fill-rule="evenodd" clip-rule="evenodd" d="M54.9605 14.3484L49.7962 13.5992L47.487 8.91827C47.1405 8.21735 45.9844 8.21735 45.638 8.91827L43.3287 13.5992L38.1644 14.3484C37.7757 14.4048 37.4534 14.6768 37.3316 15.0514C37.2107 15.424 37.3114 15.8349 37.5924 16.1088L41.3297 19.7504L40.4475 24.8926C40.381 25.2813 40.5401 25.6721 40.8573 25.9017C41.1766 26.1333 41.5965 26.1655 41.944 25.9802L46.5625 23.5511L51.1809 25.9802C51.332 26.0608 51.4971 26.0991 51.6613 26.0991C51.8748 26.0991 52.0873 26.0326 52.2676 25.9017C52.5848 25.6721 52.7439 25.2813 52.6774 24.8926L51.7952 19.7504L55.5325 16.1088C55.8135 15.8349 55.9142 15.424 55.7934 15.0514C55.6715 14.6768 55.3492 14.4048 54.9605 14.3484ZM49.9674 18.6507C49.7247 18.8884 49.6139 19.2288 49.6713 19.5651L50.2917 23.1826L47.0428 21.4745C46.8918 21.396 46.7276 21.3557 46.5625 21.3557C46.3973 21.3557 46.2331 21.396 46.0821 21.4745L42.8332 23.1826L43.4536 19.5651C43.511 19.2288 43.4002 18.8884 43.1575 18.6507L40.529 16.0907L44.1616 15.563C44.4979 15.5126 44.788 15.3032 44.938 14.999L46.5625 11.7059L48.1869 14.999C48.3369 15.3032 48.627 15.5126 48.9633 15.563L52.5959 16.0907L49.9674 18.6507Z" fill="white"/>
</svg>
