<svg width="55" height="60" viewBox="0 0 55 60" fill="none" xmlns="http://www.w3.org/2000/svg">
<path d="M43.6629 29.4673H47.8481C48.7943 29.4673 49.5641 28.6975 49.5641 27.7513V23.5661C49.5641 22.6199 48.7943 21.8501 47.8481 21.8501H43.6629C42.7167 21.8501 41.9469 22.6199 41.9469 23.5661V27.7513C41.9469 28.6975 42.7167 29.4673 43.6629 29.4673ZM43.7047 23.6079H47.8063V27.7095H43.7047V23.6079ZM43.6629 40.6001H47.8481C48.7943 40.6001 49.5641 39.8303 49.5641 38.8841V34.6989C49.5641 33.7527 48.7943 32.9829 47.8481 32.9829H43.6629C42.7167 32.9829 41.9469 33.7527 41.9469 34.6989V38.8841C41.9469 39.8303 42.7167 40.6001 43.6629 40.6001ZM43.7047 34.7407H47.8063V38.8423H43.7047V34.7407ZM31.7196 29.4673H35.9048C36.851 29.4673 37.6208 28.6975 37.6208 27.7513V23.5661C37.6208 22.6199 36.851 21.8501 35.9048 21.8501H31.7196C30.7734 21.8501 30.0036 22.6199 30.0036 23.5661V27.7513C30.0036 28.6975 30.7734 29.4673 31.7196 29.4673ZM31.7614 23.6079H35.863V27.7095H31.7614V23.6079ZM12.0183 43.5938H7.83305C6.88687 43.5938 6.11707 44.3636 6.11707 45.3097V49.495C6.11707 50.4411 6.88687 51.2109 7.83305 51.2109H12.0183C12.9645 51.2109 13.7343 50.4411 13.7343 49.495V45.3097C13.7343 44.3636 12.9645 43.5938 12.0183 43.5938ZM11.9764 49.4531H7.87488V45.3516H11.9764V49.4531ZM12.0183 21.8501H7.83305C6.88687 21.8501 6.11707 22.6199 6.11707 23.5661V27.7513C6.11707 28.6975 6.88687 29.4673 7.83305 29.4673H12.0183C12.9645 29.4673 13.7343 28.6975 13.7343 27.7513V23.5661C13.7343 22.6198 12.9645 21.8501 12.0183 21.8501ZM11.9764 27.7095H7.87488V23.6079H11.9764V27.7095ZM31.7196 40.3391H35.9048C36.851 40.3391 37.6208 39.5693 37.6208 38.6231V34.4379C37.6208 33.4917 36.851 32.7219 35.9048 32.7219H31.7196C30.7734 32.7219 30.0036 33.4917 30.0036 34.4379V38.6231C30.0036 39.5693 30.7734 40.3391 31.7196 40.3391ZM31.7614 34.4797H35.863V38.5813H31.7614V34.4797ZM50.437 4.01648H46.6793V2.6727C46.6793 1.19895 45.4804 0 44.0066 0H43.603C42.1294 0 40.9304 1.19895 40.9304 2.6727V4.01648H14.7507V2.6727C14.7507 1.19895 13.5518 0 12.078 0H11.6745C10.2007 0 9.00176 1.19895 9.00176 2.6727V4.01648H5.24414C2.81777 4.01648 0.84375 5.99051 0.84375 8.41687V55.6055C0.84375 58.0287 2.81508 60 5.23828 60H50.4431C52.8663 60 54.8377 58.0287 54.8377 55.6055V8.41687C54.8375 5.99051 52.8635 4.01648 50.437 4.01648ZM42.6882 2.6727C42.6882 2.1682 43.0986 1.75781 43.6031 1.75781H44.0067C44.5112 1.75781 44.9216 2.1682 44.9216 2.6727V4.01648H42.6882V2.6727ZM10.7597 2.6727C10.7597 2.1682 11.1701 1.75781 11.6746 1.75781H12.0782C12.5827 1.75781 12.993 2.1682 12.993 2.6727V4.01648H10.7598V2.6727H10.7597ZM53.0797 55.6055C53.0797 57.0594 51.8969 58.2422 50.443 58.2422H5.23816C3.78422 58.2422 2.60145 57.0594 2.60145 55.6055V55.6C3.33785 56.1548 4.2532 56.4844 5.24414 56.4844H40.8789C42.0543 56.4844 43.1593 56.0266 43.9904 55.1954L53.0797 46.1061V55.6055ZM43.0936 53.6064C43.1625 53.322 43.2 53.0253 43.2 52.7201V46.8532C43.2 45.747 44.1001 44.8468 45.2065 44.8468H51.0732C51.3785 44.8468 51.6751 44.8093 51.9595 44.7404L43.0936 53.6064ZM53.0797 16.5766H15.6296C15.1443 16.5766 14.7507 16.9702 14.7507 17.4555C14.7507 17.9409 15.1443 18.3345 15.6296 18.3345H53.0797V41.0827C53.0797 42.189 52.1796 43.0891 51.0732 43.0891H45.2065C43.1309 43.0891 41.4422 44.7778 41.4422 46.8533V52.7202C41.4422 53.8266 40.5421 54.7267 39.4358 54.7267H5.24414C3.78703 54.7267 2.60156 53.5412 2.60156 52.084V18.3345H12.114C12.5994 18.3345 12.9929 17.9409 12.9929 17.4555C12.9929 16.9702 12.5994 16.5766 12.114 16.5766H2.60145V8.41687C2.60145 6.95977 3.78691 5.7743 5.24402 5.7743H9.00176V8.35851C9.00176 9.83226 10.2007 11.0312 11.6745 11.0312C12.1598 11.0312 12.5534 10.6377 12.5534 10.1523C12.5534 9.66691 12.1598 9.2734 11.6745 9.2734C11.17 9.2734 10.7596 8.86301 10.7596 8.35851V5.7743H40.9304V8.35851C40.9304 9.83226 42.1294 11.0312 43.6031 11.0312C44.0885 11.0312 44.482 10.6377 44.482 10.1523C44.482 9.66691 44.0885 9.2734 43.6031 9.2734C43.0986 9.2734 42.6882 8.86301 42.6882 8.35851V5.7743H50.4371C51.8943 5.7743 53.0797 6.95977 53.0797 8.41687V16.5766ZM12.0183 32.7219H7.83305C6.88687 32.7219 6.11707 33.4917 6.11707 34.4379V38.6231C6.11707 39.5693 6.88687 40.3391 7.83305 40.3391H12.0183C12.9645 40.3391 13.7343 39.5693 13.7343 38.6231V34.4379C13.7343 33.4916 12.9645 32.7219 12.0183 32.7219ZM11.9764 38.5813H7.87488V34.4797H11.9764V38.5813ZM19.7763 29.4673H23.9616C24.9077 29.4673 25.6775 28.6975 25.6775 27.7513V23.5661C25.6775 22.6199 24.9077 21.8501 23.9616 21.8501H19.7763C18.8302 21.8501 18.0604 22.6199 18.0604 23.5661V27.7513C18.0604 28.6975 18.8302 29.4673 19.7763 29.4673ZM19.8182 23.6079H23.9197V27.7095H19.8182V23.6079ZM31.7604 49.4531C31.7386 48.9871 31.3539 48.6161 30.8824 48.6161C30.397 48.6161 30.0035 49.0096 30.0035 49.495C30.0035 50.4411 30.7733 51.2109 31.7195 51.2109H35.9047C36.8509 51.2109 37.6207 50.4411 37.6207 49.495V45.3097C37.6207 44.3636 36.8509 43.5938 35.9047 43.5938H31.7195C30.7733 43.5938 30.0035 44.3636 30.0035 45.3097V46.5168C30.0035 47.0021 30.397 47.3957 30.8824 47.3957C31.3678 47.3957 31.7613 47.0021 31.7613 46.5168V45.3516H35.8629V49.4531H31.7604ZM19.7763 40.3391H23.9616C24.9077 40.3391 25.6775 39.5693 25.6775 38.6231V34.4379C25.6775 33.4917 24.9077 32.7219 23.9616 32.7219H19.7763C18.8302 32.7219 18.0604 33.4917 18.0604 34.4379V38.6231C18.0604 39.5693 18.8302 40.3391 19.7763 40.3391ZM19.8182 34.4797H23.9197V38.5813H19.8182V34.4797ZM19.7763 51.2109H23.9616C24.9077 51.2109 25.6775 50.4411 25.6775 49.495V45.3097C25.6775 44.3636 24.9077 43.5938 23.9616 43.5938H19.7763C18.8302 43.5938 18.0604 44.3636 18.0604 45.3097V49.495C18.0604 50.4411 18.8302 51.2109 19.7763 51.2109ZM19.8182 45.3516H23.9197V49.4531H19.8182V45.3516Z" fill="white"/>
</svg>
