<svg width="70" height="70" viewBox="0 0 70 70" fill="none" xmlns="http://www.w3.org/2000/svg">
<path d="M49.643 9.31561C40.3356 9.31561 31.1502 9.31561 21.88 9.31561C21.88 9.6492 21.88 9.93629 21.88 10.2234C21.88 13.6443 21.8815 17.0652 21.877 20.4861C21.8755 21.8141 21.6183 22.0899 20.4019 22.0899C17.2791 22.0916 14.1578 22.0867 11.035 22.0851C10.7153 22.0851 10.3956 22.0851 10.0164 22.0851C10.0164 36.3703 10.0164 50.5944 10.0164 64.9325C10.4031 64.9325 10.7659 64.9325 11.1287 64.9325C24.0154 64.9293 36.9006 64.9277 49.7872 64.9245C50.0847 64.9245 50.3835 64.9148 50.678 64.9469C51.2148 65.0047 51.5643 65.3094 51.5702 65.9204C51.5762 66.5443 51.2802 66.926 50.6839 66.9838C50.4876 67.003 50.2884 66.9998 50.0891 66.9998C36.6329 66.9998 23.1767 66.9998 9.72199 66.9966C8.18737 66.9966 8.0119 66.8025 8.0119 65.1618C8.0119 50.6762 8.01487 36.1906 8 21.705C8 20.9528 8.21265 20.3963 8.70932 19.8655C12.3659 15.9506 16.0122 12.0244 19.6331 8.06945C20.219 7.42793 20.8287 7.15368 21.6584 7.15528C31.1249 7.17613 40.5914 7.16651 50.0564 7.16651C51.3293 7.16651 51.597 7.45038 51.597 8.79598C51.5985 17.6955 51.5985 26.5967 51.5955 35.4962C51.5955 35.7352 51.6535 36.0495 51.539 36.1987C51.2832 36.5338 50.9516 36.9829 50.6185 37.015C50.3404 37.0423 49.9389 36.5996 49.7397 36.2644C49.588 36.0078 49.6445 35.5924 49.643 35.2476C49.6385 26.9351 49.64 18.6241 49.64 10.3116C49.643 9.99883 49.643 9.68288 49.643 9.31561ZM19.8963 11.067C17.1289 14.0404 14.3809 16.9946 11.6328 19.9473C14.3482 19.9473 17.1022 19.9473 19.8963 19.9473C19.8963 16.9449 19.8963 13.9955 19.8963 11.067Z" fill="#2776EA"/>
<path d="M63.4893 51.0568C63.4893 53.8346 63.4908 56.6124 63.4893 59.3902C63.4878 61.3597 62.2462 62.7341 60.429 62.7374C55.2273 62.7454 50.0272 62.7454 44.8255 62.7358C42.9697 62.7325 41.7325 61.3629 41.731 59.3421C41.728 53.8667 41.731 48.3897 41.7295 42.9143C41.7295 40.5519 42.8284 39.2752 45.0292 39.2608C50.1461 39.2255 55.2645 39.2319 60.3814 39.2576C62.3175 39.2672 63.4789 40.608 63.4834 42.7234C63.4893 45.5012 63.4849 48.279 63.4849 51.0568C63.4863 51.0568 63.4878 51.0568 63.4893 51.0568ZM61.5398 50.9702C61.5398 48.2999 61.5413 45.6279 61.5398 42.9576C61.5398 41.6072 61.3227 41.3778 60.0647 41.3762C55.0474 41.3682 50.0301 41.3602 45.0129 41.3506C44.0136 41.349 43.6478 41.7387 43.6463 42.8517C43.6448 48.2999 43.6463 53.748 43.6507 59.1978C43.6522 60.2707 44.0314 60.6716 45.0605 60.6732C50.1119 60.6781 55.1634 60.6781 60.2163 60.6716C61.2171 60.67 61.5368 60.3156 61.5398 59.2234C61.5443 56.4729 61.5398 53.7223 61.5398 50.9702Z" fill="#2776EA"/>
<path d="M17.2952 35.0254C17.8811 35.3686 18.1577 34.8361 18.4834 34.3967C19.6433 32.8346 20.8032 31.2692 21.9794 29.7216C22.2411 29.3783 22.3095 29.1121 22.1326 28.6614C21.6463 27.4185 22.0091 25.9269 22.9162 25.0785C23.8442 24.2109 25.1409 24.0537 26.2487 24.6744C27.3134 25.271 27.9172 26.5059 27.7491 27.8916C27.6911 28.3728 27.7818 28.6759 28.1387 28.979C29.6957 30.2989 31.2199 31.6638 32.7842 32.9725C32.9805 33.1377 33.3508 33.1152 33.6348 33.0928C34.0006 33.0639 34.3828 32.8233 34.7174 32.8971C35.4624 33.0607 35.7568 32.6148 36.0973 32.0455C37.3465 29.9621 38.6223 27.8964 39.9131 25.8419C40.2001 25.3849 40.27 25.0384 40.0291 24.4883C39.3064 22.8364 40.0677 20.9086 41.6172 20.2543C43.1831 19.5935 44.9378 20.4596 45.4806 22.1612C46.0308 23.8853 45.1757 25.696 43.5504 26.2317C43.3422 26.3006 43.1058 26.3824 42.902 26.3423C42.1273 26.1916 41.7213 26.5893 41.3243 27.2709C40.0975 29.3687 38.8112 31.4264 37.519 33.4777C37.2558 33.8947 37.2052 34.2026 37.4149 34.6853C38.1599 36.3934 37.4431 38.3035 35.855 38.99C34.3144 39.6555 32.5686 38.8135 32.002 37.0734C31.8608 36.6388 31.8236 36.1159 31.8905 35.6605C31.9738 35.0975 31.7983 34.78 31.4102 34.4512C29.9291 33.2002 28.4659 31.9236 27.0071 30.6437C26.6606 30.339 26.384 30.1995 25.8963 30.4256C25.4457 30.6341 24.8732 30.6694 24.381 30.5908C23.9557 30.5235 23.7475 30.6534 23.514 30.9709C22.2813 32.6421 21.0574 34.3229 19.7845 35.9572C19.3816 36.4752 19.6388 36.897 19.7548 37.3589C20.302 39.5561 18.5964 41.6539 16.5369 41.3059C14.8996 41.03 13.8721 39.5625 14.049 37.7534C14.2126 36.0406 15.5063 34.9291 17.2952 35.0254ZM25.8517 27.4955C25.8576 26.8764 25.3922 26.3616 24.833 26.3696C24.326 26.376 23.8561 26.8956 23.8516 27.457C23.8456 28.0504 24.3453 28.5989 24.8762 28.5845C25.3996 28.5716 25.8472 28.0728 25.8517 27.4955ZM16.9473 39.2578C17.4692 39.2594 17.9183 38.7718 17.9332 38.1865C17.9466 37.5818 17.4588 37.0301 16.9146 37.0766C16.3183 37.1279 15.9658 37.476 15.945 38.1464C15.9242 38.8023 16.3361 39.2546 16.9473 39.2578ZM42.7206 22.1339C42.1317 22.1291 41.6856 22.6023 41.6946 23.2245C41.702 23.7939 42.1481 24.275 42.6805 24.2879C43.2619 24.3023 43.7035 23.8227 43.6946 23.1908C43.6842 22.5782 43.2797 22.1387 42.7206 22.1339ZM35.7791 36.0165C35.7702 35.4119 35.3509 34.9724 34.7783 34.966C34.2058 34.9612 33.788 35.399 33.7805 36.0117C33.7731 36.6436 34.2356 37.1376 34.8125 37.1151C35.3464 37.0975 35.788 36.5955 35.7791 36.0165Z" fill="#2776EA"/>
<path d="M24.8136 60.5786C21.7206 60.5786 18.6276 60.5786 15.5345 60.577C15.2877 60.577 14.9799 60.654 14.8074 60.5273C14.4966 60.2979 14.1337 59.982 14.0386 59.6275C13.9047 59.1255 14.1917 58.6957 14.7137 58.577C14.9769 58.5177 15.252 58.4888 15.5211 58.4872C21.7325 58.484 27.9439 58.4856 34.1537 58.4872C35.2452 58.4872 35.7553 58.8449 35.7374 59.581C35.7211 60.2915 35.2764 60.5834 34.1671 60.585C31.0488 60.5882 27.932 60.5866 24.8136 60.5866C24.8136 60.5834 24.8136 60.5818 24.8136 60.5786Z" fill="#2776EA"/>
<path d="M22.9062 45.6068C20.3559 45.6068 17.8056 45.61 15.2554 45.6052C14.4182 45.6036 13.9617 45.2107 13.9884 44.5323C14.0122 43.902 14.4672 43.5411 15.2717 43.5395C20.347 43.5363 25.4223 43.5363 30.4975 43.5395C31.36 43.5395 31.7704 43.9036 31.7481 44.6269C31.7273 45.2973 31.3377 45.6036 30.4812 45.6036C27.9577 45.6084 25.4312 45.6068 22.9062 45.6068Z" fill="#2776EA"/>
<path d="M21.8563 54.2601C24.0586 54.2601 26.2609 54.2585 28.4647 54.2601C29.348 54.2617 29.7896 54.5985 29.7926 55.264C29.7956 55.9344 29.3257 56.3242 28.4929 56.3242C24.0631 56.3258 19.6332 56.3274 15.2033 56.3226C14.3021 56.321 13.8025 55.7131 14.0508 54.9481C14.2397 54.3675 14.6665 54.2552 15.1765 54.2569C17.4011 54.2649 19.6287 54.2601 21.8563 54.2601Z" fill="#2776EA"/>
<path d="M28.8271 49.9081C26.8984 49.9081 24.9697 49.9177 23.0411 49.9033C22.1622 49.8968 21.6165 49.0741 22.0551 48.378C22.2276 48.1038 22.6559 47.8696 22.9697 47.868C26.8523 47.8311 30.735 47.8424 34.6162 47.8359C35.2511 47.8343 35.6749 48.1118 35.7329 48.8271C35.782 49.4381 35.2928 49.9033 34.6147 49.9065C32.6845 49.9145 30.7558 49.9081 28.8271 49.9081Z" fill="#2776EA"/>
<path d="M16.9489 49.9076C16.3303 49.9076 15.7116 49.9188 15.0945 49.9044C14.4283 49.8883 13.9971 49.481 13.9837 48.8859C13.9703 48.2861 14.3941 47.8515 15.0559 47.8435C16.3169 47.829 17.5779 47.8387 18.8389 47.8451C19.4501 47.8483 19.8293 48.1562 19.853 48.8442C19.8739 49.4842 19.4798 49.8835 18.8047 49.9044C18.1861 49.922 17.5675 49.9076 16.9489 49.9076Z" fill="#2776EA"/>
<path d="M55.6224 57.6256C55.3859 57.8581 55.1272 58.3168 54.8149 58.3633C54.4892 58.413 54.1101 58.0698 53.7591 57.8902C53.7234 57.8726 53.6952 57.8004 53.6922 57.7523C53.5881 56.28 52.681 56.2287 51.6133 56.3088C50.6036 56.3842 49.5835 56.3489 48.5693 56.3136C48.1455 56.2992 47.9359 56.4612 47.8333 56.8862C47.753 57.2198 47.6489 57.5502 47.5195 57.8645C47.3024 58.3938 46.8355 58.5911 46.4191 58.3681C46.1128 58.2045 45.9061 57.741 45.7499 57.3674C45.6771 57.1941 45.8079 56.9055 45.8778 56.6809C47.1165 52.6666 48.3641 48.6555 49.5999 44.6411C49.7738 44.0782 49.985 43.5586 50.6185 43.5537C51.2891 43.5489 51.5033 44.0878 51.6847 44.6812C52.9085 48.6747 54.1472 52.6618 55.3785 56.652C55.4543 56.9022 55.5064 57.1605 55.6224 57.6256ZM48.6853 54.1822C50.0311 54.1822 51.2698 54.1822 52.5844 54.1822C51.9434 52.1181 51.3323 50.1486 50.7211 48.1807C50.6616 48.1839 50.6021 48.1855 50.5426 48.1888C49.9315 50.1598 49.3203 52.1325 48.6853 54.1822Z" fill="#2776EA"/>
<path d="M57.6181 53.0591C57.6181 51.752 57.6152 50.4449 57.6196 49.1378C57.6226 48.2606 57.9468 47.8323 58.5817 47.842C59.1944 47.8516 59.5305 48.2702 59.532 49.0913C59.5394 51.8114 59.5394 54.533 59.5305 57.2531C59.5275 57.9941 59.1691 58.4175 58.5907 58.4303C57.9691 58.4447 57.6241 58.0294 57.6196 57.2178C57.6107 55.8321 57.6181 54.4448 57.6181 53.0591Z" fill="#2776EA"/>
<path d="M58.6791 43.54C59.1222 43.6186 59.4821 43.933 59.5282 44.5424C59.5728 45.131 59.1222 45.6106 58.5646 45.5993C57.9772 45.5881 57.659 45.2385 57.6248 44.6146C57.5921 44.0116 58.0203 43.5432 58.6791 43.54Z" fill="#2776EA"/>
</svg>
