<svg width="70" height="70" viewBox="0 0 70 70" fill="none" xmlns="http://www.w3.org/2000/svg">
<path d="M2.03516 42.6952C2.03516 42.0042 2.03516 41.4188 2.03516 40.7229C2.53759 40.7229 3.014 40.7229 3.49204 40.7229C5.25299 40.7229 7.01556 40.7115 8.77651 40.7327C9.11309 40.7376 9.45292 40.8628 9.78462 40.9522C11.5196 41.4172 12.4675 42.64 12.9634 44.2855C13.1081 44.7668 13.3846 44.9261 13.8984 44.9619C15.4122 45.0708 16.5113 45.9033 17.3227 47.1488C19.9015 44.9294 23.0055 45.7619 24.3584 48.4886C26.3486 47.474 28.2591 47.5309 29.7924 49.2821C31.2786 50.9813 31.0835 52.8512 29.8786 54.7487C30.1827 54.8219 30.4298 54.8755 30.6753 54.9406C32.8395 55.5145 34.0834 57.3113 33.8314 59.5844C33.7793 60.0559 33.8525 60.3128 34.2785 60.5551C35.5826 61.2949 36.9159 61.0559 37.6069 59.9063C38.2768 58.7925 37.8898 57.521 36.6395 56.7227C36.0947 56.3747 35.5533 56.0251 34.9598 55.6446C35.3143 55.082 35.6411 54.565 36.0167 53.9715C37.6736 55.0235 39.2914 56.0414 40.8996 57.0755C41.6556 57.5617 42.4296 57.7454 43.2784 57.3487C44.8995 56.591 45.054 54.4625 43.5288 53.4382C42.0898 52.4739 40.6069 51.5748 39.1451 50.6447C38.9207 50.5016 38.7012 50.3537 38.4362 50.1764C38.7874 49.6138 39.1142 49.0903 39.4768 48.5098C40.6524 49.2496 41.7938 49.9667 42.932 50.6854C44.5109 51.6837 46.0816 52.6951 47.6653 53.6853C48.8441 54.4219 50.1872 54.1552 50.8717 53.0739C51.5742 51.9634 51.262 50.7 50.0587 49.9276C47.5531 48.3179 45.0361 46.7261 42.5239 45.1245C42.3239 44.996 42.1304 44.8546 41.9028 44.6968C42.2475 44.1489 42.5629 43.6481 42.9304 43.0644C43.2247 43.2383 43.4979 43.3895 43.7613 43.557C47.2344 45.7651 50.7043 47.9797 54.179 50.1846C55.7562 51.1845 57.5074 50.5146 57.8456 48.796C58.0293 47.8594 57.6017 47.0106 56.5871 46.3749C52.4327 43.7749 48.275 41.1815 44.1174 38.588C42.7385 37.7279 41.3597 36.871 39.9809 36.0124C38.828 35.2937 36.9012 35.4775 35.9094 36.4336C35.0118 37.2986 34.1566 38.2059 33.2607 39.0725C31.4965 40.7798 28.8298 40.7798 27.1177 39.0937C25.4218 37.4238 25.3941 34.7312 27.0656 32.9426C29.0835 30.7865 31.1501 28.6727 33.1127 26.4679C33.7956 25.6988 34.4915 25.3264 35.4915 25.4711C35.7793 25.5118 36.0769 25.4776 36.4362 25.4776C36.4362 26.1524 36.4362 26.7589 36.4362 27.3622C36.3874 27.3963 36.3387 27.4597 36.3013 27.4532C35.1631 27.2565 34.4785 27.8971 33.7777 28.676C32.0558 30.5881 30.2656 32.4385 28.5063 34.3182C27.8396 35.032 27.6201 35.8645 27.9567 36.7929C28.2786 37.6823 28.9323 38.2075 29.8705 38.3474C30.6835 38.4677 31.3566 38.1701 31.9241 37.6027C32.7875 36.7409 33.6395 35.8677 34.5143 35.0206C36.176 33.4092 39.0719 33.11 41.0329 34.3312C45.9271 37.3815 50.8213 40.4319 55.7172 43.4806C55.8961 43.5928 56.0814 43.6969 56.296 43.8237C56.379 43.7066 56.4668 43.6318 56.4895 43.5391C56.8424 42.144 57.9757 41.5603 59.1253 40.9961C59.2895 40.9148 59.4814 40.8432 59.6602 40.8432C62.0699 40.8335 64.478 40.8367 66.9479 40.8367C66.9479 41.492 66.9479 42.0969 66.9479 42.7993C64.8878 42.7993 62.8374 42.7863 60.787 42.8091C60.3691 42.8139 59.9399 42.9115 59.5399 43.04C58.6635 43.3196 58.3822 44.0985 58.1009 44.8578C60.0667 47.0675 60.3887 48.9927 59.109 50.8317C57.8277 52.6723 55.8587 53.0918 53.2571 52.0333C53.0555 53.5894 52.3872 54.8625 50.9579 55.6072C49.5205 56.3568 48.0897 56.2218 46.6117 55.4186C46.4117 57.0397 45.732 58.308 44.306 59.0527C42.8702 59.8023 41.4361 59.6771 39.9662 58.8608C39.9223 59.0933 39.8866 59.2625 39.8573 59.4332C39.3776 62.2803 36.324 63.8526 33.7761 62.4998C33.0444 62.1112 32.5534 62.0234 31.7745 62.4949C29.6965 63.7518 26.8835 62.6998 25.9405 60.4429C25.8478 60.2202 25.7746 59.9909 25.6722 59.7128C24.4413 60.0104 23.2527 59.9795 22.1454 59.3145C21.0332 58.6478 20.4202 57.6332 20.1454 56.3471C18.9259 56.5942 17.7959 56.4983 16.7536 55.8495C15.7309 55.2121 15.1488 54.2658 14.8496 53.0756C14.2203 53.0756 13.5943 53.165 13.0025 53.0577C11.3504 52.7601 10.1862 51.7975 9.69031 50.1813C9.19113 48.5569 9.6204 47.1163 10.8757 45.9781C11.248 45.6399 11.2561 45.4107 11.1082 44.9537C10.5375 43.2058 9.31308 42.6205 7.57165 42.6822C5.75705 42.7457 3.94244 42.6952 2.03516 42.6952ZM28.9274 52.0301C28.8331 51.0333 28.2363 50.2203 27.3144 49.9228C26.412 49.6317 25.4657 49.9374 24.9014 50.7797C24.0754 52.0138 23.2771 53.2691 22.495 54.5308C21.8056 55.6446 22.0901 56.947 23.1259 57.5861C24.186 58.2413 25.4169 57.9487 26.1518 56.8316C26.9388 55.6365 27.7128 54.43 28.4575 53.2089C28.6754 52.8528 28.7745 52.4252 28.9274 52.0301ZM16.7829 52.1845C16.7959 53.2658 17.3926 54.0772 18.2723 54.3812C19.1812 54.695 20.1227 54.4105 20.708 53.5764C21.2527 52.8024 21.7584 51.9992 22.2446 51.1862C22.895 50.0984 22.6072 48.8496 21.5942 48.1943C20.5812 47.5407 19.3406 47.7992 18.6137 48.8724C18.0381 49.7228 17.5129 50.6089 16.9975 51.4984C16.8544 51.7455 16.8203 52.0577 16.7829 52.1845ZM13.6854 51.1406C14.8203 51.1504 15.7829 50.2252 15.7943 49.1147C15.8073 47.9602 14.7293 46.9017 13.5407 46.9033C12.4464 46.9033 11.4903 47.8789 11.4838 48.9976C11.4789 50.1455 12.4903 51.1309 13.6854 51.1406ZM27.6299 58.9226C27.6477 60.0803 28.6672 61.0494 29.8607 61.0429C30.9891 61.0364 31.9225 60.0901 31.9127 58.9633C31.903 57.7747 30.8396 56.7633 29.6347 56.7958C28.5079 56.8267 27.612 57.7779 27.6299 58.9226Z" fill="#2776EA"/>
<path d="M23.3223 27.4827C23.3223 28.8696 23.3223 30.1574 23.3223 31.5298C22.2345 31.5298 21.2362 31.5558 20.2427 31.5103C20.0183 31.4989 19.7809 31.2598 19.5907 31.081C18.4866 30.0404 17.4151 28.964 16.285 27.9542C15.9989 27.6989 15.542 27.5071 15.1599 27.5038C11.638 27.4697 8.11607 27.4876 4.59255 27.4827C2.69665 27.4794 2.00072 26.7754 2.00072 24.8811C2.00072 19.4617 1.9991 14.0439 2.00072 8.62445C2.00072 6.9009 2.6999 6.19035 4.40068 6.18872C12.5827 6.18709 20.7663 6.18709 28.9482 6.18872C30.7368 6.18872 31.4116 6.85375 31.4116 8.6277C31.4149 14.1284 31.4149 19.6275 31.4116 25.1282C31.41 26.7168 30.6718 27.4664 29.0767 27.481C27.4783 27.4957 25.88 27.4827 24.2817 27.4827C23.9939 27.4827 23.7044 27.4827 23.3223 27.4827ZM4.03483 8.20007C4.03483 13.9821 4.03483 19.6861 4.03483 25.4729C4.38117 25.4729 4.67547 25.4729 4.96815 25.4729C8.59899 25.4729 12.2298 25.4567 15.8607 25.4957C16.2899 25.5006 16.8005 25.7217 17.1257 26.0079C18.2606 27.0128 19.3224 28.0989 20.4329 29.1331C20.6459 29.3314 20.9549 29.4274 21.3858 29.6615C21.3858 28.1152 21.3858 26.829 21.3858 25.4486C24.1044 25.4486 26.7434 25.4486 29.4051 25.4486C29.4051 19.6487 29.4051 13.9463 29.4051 8.20007C20.937 8.20007 12.5209 8.20007 4.03483 8.20007Z" fill="#2776EA"/>
<path d="M45.6772 31.533C45.6772 30.1542 45.6772 28.8875 45.6772 27.4827C45.0577 27.4827 44.5016 27.4827 43.9455 27.4827C42.591 27.4827 41.2366 27.4941 39.8821 27.4778C38.3391 27.4583 37.5879 26.7006 37.5863 25.1689C37.583 19.6145 37.583 14.0601 37.5879 8.50575C37.5895 6.90253 38.3131 6.19035 39.9277 6.18872C48.1373 6.18709 56.3469 6.18709 64.5565 6.18872C66.3191 6.18872 66.9988 6.88139 66.9988 8.66023C66.9988 14.1057 67.0004 19.5527 66.9971 24.9982C66.9971 26.7363 66.2655 27.4762 64.5321 27.4794C60.9826 27.4843 57.4331 27.4648 53.8835 27.5006C53.4787 27.5054 52.9958 27.7071 52.6901 27.977C51.5958 28.9461 50.5438 29.9656 49.5129 31.0029C49.1178 31.4013 48.7096 31.572 48.1519 31.5411C47.3747 31.5021 46.591 31.533 45.6772 31.533ZM47.6544 29.7038C48.0853 29.4355 48.3893 29.307 48.6153 29.0957C49.7243 28.0599 50.7893 26.977 51.9226 25.9689C52.2283 25.6973 52.7145 25.4973 53.121 25.4941C56.7778 25.4583 60.4363 25.4746 64.0948 25.4713C64.3793 25.4713 64.6655 25.4453 64.9695 25.4307C64.9695 19.6373 64.9695 13.9349 64.9695 8.22283C56.4802 8.22283 48.0446 8.22283 39.6041 8.22283C39.6041 13.9918 39.6041 19.6942 39.6041 25.4892C42.3032 25.4892 44.9455 25.4892 47.6544 25.4892C47.6544 26.8729 47.6544 28.164 47.6544 29.7038Z" fill="#2776EA"/>
<path d="M14.1218 15.375C14.1218 16.0075 14.1218 16.5912 14.1218 17.2319C13.5007 17.2319 12.8975 17.2319 12.2373 17.2319C12.2373 16.6205 12.2373 16.0205 12.2373 15.375C12.8552 15.375 13.4422 15.375 14.1218 15.375Z" fill="#2776EA"/>
<path d="M18.1752 17.2469C17.559 17.2469 16.9753 17.2469 16.3184 17.2469C16.3184 16.6485 16.3184 16.0469 16.3184 15.3867C16.9118 15.3867 17.5183 15.3867 18.1752 15.3867C18.1752 15.9965 18.1752 16.5997 18.1752 17.2469Z" fill="#2776EA"/>
<path d="M22.2517 15.375C22.2517 16.0075 22.2517 16.5912 22.2517 17.2319C21.6322 17.2319 21.0273 17.2319 20.3672 17.2319C20.3672 16.6205 20.3672 16.0189 20.3672 15.375C20.9851 15.375 21.5704 15.375 22.2517 15.375Z" fill="#2776EA"/>
<path d="M46.7871 15.3623C47.4099 15.3623 47.9936 15.3623 48.6342 15.3623C48.6342 15.9948 48.6342 16.5964 48.6342 17.2436C48.0229 17.2436 47.4391 17.2436 46.7871 17.2436C46.7871 16.6533 46.7871 16.0534 46.7871 15.3623Z" fill="#2776EA"/>
<path d="M52.7104 17.2533C52.0616 17.2533 51.4763 17.2533 50.834 17.2533C50.834 16.6322 50.834 16.029 50.834 15.377C51.4535 15.377 52.0584 15.377 52.7104 15.377C52.7104 15.9981 52.7104 16.5818 52.7104 17.2533Z" fill="#2776EA"/>
<path d="M54.8936 15.3701C55.5147 15.3701 56.0984 15.3701 56.7537 15.3701C56.7537 15.975 56.7537 16.5766 56.7537 17.2351C56.1553 17.2351 55.5505 17.2351 54.8936 17.2351C54.8936 16.6368 54.8936 16.053 54.8936 15.3701Z" fill="#2776EA"/>
</svg>
