<svg width="70" height="70" viewBox="0 0 70 70" fill="none" xmlns="http://www.w3.org/2000/svg">
<path d="M35.199 64.1809C32.9038 62.3444 30.6912 60.6125 28.5268 58.8223C27.8449 58.257 27.165 58.1685 26.3122 58.2248C23.5786 58.4059 20.8389 58.4843 18.0389 58.605C17.4837 56.4809 16.7556 54.4131 16.4377 52.2849C16.0958 49.9958 14.8547 48.6582 12.9398 47.586C11.1375 46.5783 9.46792 45.3291 7.65355 44.1303C8.43603 42.0766 9.06965 39.9927 10.011 38.0576C10.9645 36.0984 10.9745 34.3424 10.0251 32.3812C9.0958 30.4642 8.45815 28.4064 7.64551 26.2863C9.17827 25.2685 10.6809 24.2246 12.2297 23.253C15.6392 21.1087 15.6452 21.1228 16.6047 17.2728C16.83 16.3656 17.0774 15.4625 17.3127 14.5553C17.54 13.6803 17.7653 12.8073 17.9926 11.9283C19.288 11.9283 20.5814 11.8921 21.8708 11.9383C23.6087 12.0007 25.3426 12.1576 27.0806 12.2019C27.4648 12.2119 27.9113 11.9927 28.2332 11.7513C29.4119 10.8702 30.5544 9.94093 31.705 9.02168C32.8536 8.10645 33.9941 7.18519 35.1949 6.22168C37.3734 7.96565 39.5277 9.6553 41.6398 11.3952C42.4082 12.0289 43.1625 12.2602 44.1944 12.1757C46.8898 11.9585 49.5992 11.9182 52.351 11.8056C53.1013 14.6418 53.8194 17.4539 54.6099 20.2438C54.7366 20.6944 55.0987 21.1711 55.4889 21.4386C57.8564 23.0639 60.2622 24.6329 62.7464 26.2803C61.9659 28.328 61.3363 30.4179 60.3849 32.347C59.4153 34.3122 59.4375 36.0662 60.3748 38.0234C61.2961 39.9444 61.9378 42.0001 62.7484 44.1162C61.0245 45.2628 59.3067 46.4053 57.5889 47.5458C57.4219 47.6564 57.259 47.7791 57.078 47.8596C55.1751 48.7105 54.3424 50.2292 53.9843 52.2447C53.6061 54.3708 52.9242 56.4447 52.361 58.601C49.4946 58.4783 46.6605 58.3214 43.8242 58.259C43.2168 58.247 42.4846 58.424 42.0119 58.78C39.7248 60.5159 37.5041 62.3404 35.199 64.1809ZM57.5346 27.9277C55.5714 26.6323 53.7027 25.4556 51.9064 24.1743C51.4116 23.8223 50.9751 23.2087 50.7961 22.6274C50.2329 20.809 49.7622 18.9585 49.3498 17.0978C49.1849 16.3556 48.8248 16.2067 48.163 16.245C46.224 16.3596 44.2788 16.3797 42.3478 16.5587C41.5251 16.6352 40.9599 16.3697 40.3745 15.8849C38.6768 14.4809 36.957 13.105 35.199 11.6809C33.3645 13.1674 31.5964 14.6458 29.7699 16.0478C29.3737 16.3516 28.7642 16.5185 28.2553 16.5105C26.2478 16.4763 24.2403 16.3596 22.2369 16.2429C21.5731 16.2047 21.2171 16.3596 21.0521 17.0978C20.6378 18.9564 20.1671 20.807 19.6059 22.6274C19.4288 23.2047 18.9984 23.8162 18.5096 24.1642C16.6892 25.4616 14.7944 26.6585 12.8734 27.9277C13.678 30.0881 14.5047 32.2021 15.2329 34.3484C15.4079 34.8633 15.4079 35.5392 15.2329 36.0521C14.5027 38.1984 13.674 40.3105 12.8673 42.4728C14.7883 43.7421 16.6832 44.9369 18.5056 46.2323C18.9964 46.5803 19.4268 47.1898 19.6059 47.7671C20.1671 49.5855 20.6378 51.4381 21.0521 53.2967C21.2151 54.0309 21.565 54.1958 22.2329 54.1556C24.1378 54.045 26.0547 54.059 27.9475 53.8519C28.899 53.7473 29.5205 54.0792 30.1803 54.6323C31.8196 56.0021 33.4912 57.3337 35.1809 58.7056C35.4886 58.4682 35.7561 58.2731 36.0116 58.0659C37.6007 56.7846 39.1696 55.4771 40.7889 54.234C41.1128 53.9866 41.6217 53.8619 42.0401 53.874C44.1481 53.9303 46.2541 54.049 48.3622 54.1496C48.8349 54.1717 49.1688 54.1113 49.3056 53.526C49.7481 51.6392 50.2731 49.7705 50.7337 47.8858C50.9168 47.1355 51.2507 46.5723 51.9386 46.1418C53.8073 44.9731 55.6297 43.728 57.5346 42.4708C56.732 40.3185 55.9053 38.2064 55.1751 36.0622C55.0001 35.5473 54.9901 34.8714 55.1651 34.3585C55.8932 32.2182 56.724 30.1041 57.5346 27.9277Z" fill="#2776EA"/>
<path d="M46.5541 27.0928C47.7127 28.2393 48.6823 29.1988 49.6317 30.1402C44.08 35.6839 38.5383 41.2155 32.9926 46.7531C29.7561 43.4382 26.4512 40.0508 23.084 36.6031C23.9067 35.8931 24.9708 34.9738 26.1334 33.9701C28.2193 36.1264 30.5265 38.516 32.8337 40.8997C37.4963 36.2069 42.0081 31.6649 46.5541 27.0928Z" fill="#2776EA"/>
</svg>
