<svg width="64" height="51" viewBox="0 0 64 51" fill="none" xmlns="http://www.w3.org/2000/svg">
<path d="M23.6605 19.556C24.5505 20.1859 25.3186 20.7305 26.0501 21.2507C27.3059 20.7224 28.4763 20.2306 29.8134 19.6698C29.9434 18.8326 30.0856 17.9182 30.2523 16.8575C31.439 16.8575 32.6053 16.8575 33.8733 16.8575C34.0115 17.7719 34.1456 18.6253 34.2919 19.5844C35.4867 20.1209 36.7019 20.6655 38.0511 21.271C38.7989 20.7467 39.6157 20.1737 40.583 19.495C41.3267 20.3891 42.0582 21.2629 42.8913 22.2667C42.4809 22.8641 41.92 23.685 41.3551 24.5059C41.8631 25.7251 42.3549 26.8996 42.8954 28.1879C43.7935 28.3749 44.7608 28.574 45.789 28.7853C45.789 29.9558 45.789 31.0205 45.789 32.2397C44.8217 32.4511 43.8586 32.6583 42.8954 32.8656C42.3833 34.0767 41.8875 35.2471 41.3511 36.511C41.8956 37.3076 42.4565 38.1325 42.9889 38.9128C42.1476 39.7947 41.3673 40.6157 40.5342 41.4935C39.6442 40.8839 38.8233 40.319 38.0714 39.8029C36.775 40.3434 35.6005 40.8351 34.3203 41.3675C34.174 42.2697 34.0277 43.1882 33.8652 44.2204C32.6988 44.2204 31.5812 44.2204 30.3254 44.2204C30.1507 43.306 29.9759 42.3998 29.7849 41.4041C28.5738 40.8758 27.3506 40.3474 26.0704 39.7866C25.3064 40.3149 24.5342 40.8514 23.6158 41.4894C22.7908 40.7091 21.9739 39.9329 21.0554 39.0632C21.6569 38.1854 22.2177 37.3685 22.7786 36.5435C22.2828 35.3325 21.7991 34.1539 21.2708 32.8737C20.3646 32.6787 19.3933 32.4633 18.3569 32.2397C18.3569 31.11 18.3569 30.0452 18.3569 28.8341C19.3079 28.6106 20.2711 28.3871 21.2546 28.1554C21.7463 26.9809 22.2421 25.8064 22.7867 24.51C22.2624 23.746 21.6975 22.925 21.1001 22.0553C21.9414 21.2344 22.7501 20.446 23.6605 19.556ZM36.6206 30.4638C36.5921 28.0091 34.5276 25.9162 32.1136 25.8999C29.6102 25.8836 27.5091 28.0294 27.5335 30.5857C27.5538 33.0566 29.5817 35.1049 32.0282 35.1292C34.5439 35.1496 36.649 33.016 36.6206 30.4638Z" stroke="#0274BA" stroke-width="2"/>
<path d="M29.9437 0.243841C29.9437 5.08001 29.9437 9.87553 29.9437 14.8011C29.4723 14.8011 29.0578 14.8011 28.4522 14.8011C28.4522 10.4201 28.4522 6.11226 28.4522 1.66624C22.5553 1.66624 16.8454 1.66624 10.9201 1.66624C10.9201 4.72644 10.9201 7.6769 10.9201 10.8346C7.76643 10.8346 4.82003 10.8346 1.73545 10.8346C1.73545 19.4178 1.73545 27.7815 1.73545 36.3647C7.89242 36.3647 14.086 36.3647 20.4136 36.3647C20.2714 37.4864 19.9097 38.0553 18.9181 38.0553C12.7001 38.0553 6.48628 38.0553 0.150492 38.0553C0.105788 37.2994 0.0407629 36.7101 0.0366989 36.1209C0.0285708 27.9238 0.0610844 19.7307 0.000124301 11.5336C-0.00800371 10.2657 0.38214 9.39191 1.27216 8.53441C3.8081 6.09194 6.23431 3.53568 8.77025 1.09322C9.30263 0.581153 10.1276 0.0772164 10.8226 0.0690884C16.9186 -0.00406369 23.0146 0.0284478 29.1106 0.0447038C29.3707 0.0447038 29.6267 0.162561 29.9437 0.243841ZM3.24726 9.16026C5.36055 9.16026 7.27876 9.16026 9.23354 9.16026C9.23354 7.11201 9.23354 5.21412 9.23354 3.48692C7.29095 5.32791 5.33616 7.18109 3.24726 9.16026Z" fill="#0274BA"/>
<path d="M62.4313 1.63779C56.6442 1.63779 50.9912 1.63779 45.1146 1.63779C45.1146 4.62484 45.1146 7.56311 45.1146 10.7818C41.9122 10.7818 38.917 10.7818 35.7512 10.7818C35.7512 12.253 35.7512 13.4437 35.7512 14.7889C35.1659 14.8255 34.7514 14.8499 34.1418 14.8864C34.1418 13.3543 34.0727 11.936 34.1784 10.5339C34.219 10.0015 34.5604 9.39598 34.9424 9.00177C37.6369 6.24231 40.3557 3.50723 43.1233 0.820928C43.5581 0.398271 44.2734 0.0447043 44.8627 0.0365763C50.9546 -0.0203197 57.0425 0.00406373 63.1344 0.0121917C63.3904 0.0121917 63.6505 0.109727 64.0001 0.182879C64.0001 12.7244 64.0001 25.2171 64.0001 37.8481C63.5855 37.909 63.1425 38.035 62.6996 38.035C57.0831 38.0472 51.4667 38.031 45.8502 38.0594C44.8139 38.0635 44.0011 37.8968 43.6638 36.5191C49.9467 36.5191 56.1199 36.5191 62.4273 36.5191C62.4313 24.8514 62.4313 13.3787 62.4313 1.63779ZM37.1858 9.12775C39.4372 9.12775 41.392 9.12775 43.294 9.12775C43.294 7.04698 43.294 5.15316 43.294 3.2634C41.2823 5.19786 39.3519 7.04698 37.1858 9.12775Z" fill="#0274BA"/>
<path d="M10.7741 45.6144C10.2295 45.1186 9.89217 44.8138 9.4248 44.387C10.8391 42.8712 12.2086 41.4081 13.6148 39.9004C15.1469 41.3309 16.61 42.6924 18.1746 44.1513C17.6625 44.7122 17.3334 45.0739 16.927 45.5209C16.2158 44.8747 15.598 44.3139 14.7121 43.5092C14.6674 44.5374 14.5983 45.2446 14.6105 45.9476C14.643 48.1869 15.2607 48.8371 17.5406 48.8453C27.2251 48.8656 36.9097 48.8656 46.5942 48.8453C48.9472 48.8412 49.5406 48.1828 49.5447 45.7688C49.5447 45.1267 49.4796 44.4846 49.4268 43.5052C48.6059 44.2651 48.0328 44.7935 47.346 45.4315C46.9681 45.1551 46.5698 44.8666 45.9887 44.4439C47.4517 42.8752 48.8172 41.4122 50.3778 39.7378C51.8449 41.2943 53.251 42.7899 54.7385 44.3667C54.267 44.7772 53.8769 45.1145 53.2348 45.6794C52.7268 44.9276 52.2716 44.2529 51.8164 43.5824C51.6092 43.6474 51.4019 43.7124 51.1946 43.7734C51.1946 44.7244 51.219 45.6753 51.1906 46.6223C51.1134 49.0972 49.7438 50.5643 47.2607 50.5725C37.1698 50.6131 27.0788 50.6131 16.9879 50.5765C14.3829 50.5684 13.0255 49.1257 12.9605 46.5166C12.9402 45.6469 12.9564 44.7772 12.9564 43.5661C12.3753 44.005 12.0176 44.2326 11.7128 44.5171C11.4202 44.7935 11.1845 45.1308 10.7741 45.6144Z" fill="#0274BA"/>
</svg>
