<svg width="65" height="63" viewBox="0 0 65 63" fill="none" xmlns="http://www.w3.org/2000/svg">
<path d="M26.1299 48.1781C25.4836 48.1781 24.9821 48.1781 24.4834 48.1781C18.5881 48.1781 12.6927 48.1865 6.79744 48.1725C2.8078 48.1642 0.163833 45.5369 0.158261 41.5473C0.147116 30.1746 0.147116 18.7991 0.158261 7.42639C0.161047 3.33088 2.7493 0.756556 6.87267 0.75377C23.7228 0.745412 40.5756 0.745412 57.4257 0.75377C61.6132 0.756556 64.1457 3.32809 64.1457 7.55733C64.1513 18.8381 64.1513 30.1189 64.1457 41.3996C64.1429 45.5843 61.5519 48.1697 57.3728 48.1753C51.5249 48.1809 45.6741 48.1781 39.8262 48.1781C39.3247 48.1781 38.826 48.1781 38.1852 48.1781C38.7341 51.3988 39.2272 54.4579 39.7788 57.5058C40.3834 60.8407 40.4057 60.838 43.827 60.838C44.7547 60.838 45.702 60.7321 46.6047 60.8881C47.0532 60.9661 47.421 61.5233 47.825 61.8632C47.4266 62.1474 47.0505 62.6294 46.6242 62.6795C45.6184 62.8021 44.5876 62.7213 43.5651 62.7213C35.349 62.7213 27.1329 62.7213 18.914 62.7213C18.5435 62.7213 18.1172 62.8328 17.8135 62.6907C17.3789 62.4873 17.0306 62.0973 16.6462 61.788C17.039 61.476 17.4151 60.9243 17.8275 60.8937C19.3514 60.7822 20.8921 60.7822 22.4189 60.863C23.5222 60.9215 24.0348 60.668 24.2159 59.4366C24.7592 55.7255 25.4613 52.0424 26.1299 48.1781ZM62.2345 34.7883C62.2345 34.1837 62.2345 33.7268 62.2345 33.2671C62.2345 24.725 62.2345 16.183 62.2317 7.6437C62.2317 4.34222 60.5851 2.63436 57.3087 2.63157C40.5506 2.62043 23.7924 2.62322 7.03426 2.63715C3.73556 2.63993 2.07228 4.33107 2.0695 7.61027C2.06393 16.1969 2.06671 24.7863 2.0695 33.373C2.0695 33.8243 2.1085 34.2729 2.13358 34.7883C22.1681 34.7883 42.1108 34.7883 62.2345 34.7883ZM2.09457 36.8082C2.09457 38.7807 1.97199 40.6362 2.12522 42.4667C2.3091 44.6537 4.18412 46.2446 6.39625 46.2474C23.5667 46.2585 40.7345 46.2585 57.9049 46.2474C59.9109 46.2474 61.694 45.0856 61.9698 43.1381C62.2623 41.0792 62.0367 38.9451 62.0367 36.8054C42.1052 36.8082 22.2044 36.8082 2.09457 36.8082ZM36.2656 48.2645C33.4405 48.2645 30.7687 48.2645 28.0384 48.2645C27.3251 52.4547 26.6258 56.5725 25.9154 60.746C30.192 60.746 34.2067 60.746 38.4053 60.746C37.6809 56.5363 36.9816 52.4436 36.2656 48.2645Z" fill="#0274BA"/>
<path d="M51.0264 29.7985C51.7647 29.7985 52.3442 29.7985 53.102 29.7985C53.102 29.2162 53.102 28.6729 53.102 28.1324C53.102 23.2596 53.1299 18.3868 53.0825 13.5167C53.0714 12.2156 53.5032 11.6083 54.8544 11.7058C55.7766 11.7726 56.71 11.7531 57.6377 11.7113C58.7633 11.6612 59.2063 12.132 59.1979 13.2771C59.1617 18.4731 59.184 23.6719 59.184 28.8679C59.184 29.0992 59.184 29.3304 59.184 29.648C59.5016 29.7929 59.8916 29.8709 60.1229 30.1077C60.3513 30.339 60.5659 30.7596 60.5101 31.041C60.4544 31.3141 60.0783 31.6094 59.7802 31.7181C59.4514 31.8379 59.0475 31.7654 58.6769 31.7654C50.8342 31.7682 42.9914 31.7682 35.1514 31.7682C34.8728 31.7682 34.5385 31.8629 34.3295 31.7403C33.9451 31.5147 33.6358 31.1636 33.2959 30.8655C33.6274 30.5423 33.9172 30.0213 34.2989 29.9378C34.9954 29.7873 35.7448 29.896 36.6113 29.896C36.6113 26.5332 36.6113 23.3432 36.6113 20.1503C36.6113 18.1388 36.6503 18.0859 38.6284 18.0998C43.3034 18.1388 42.6598 17.4813 42.6989 22.1424C42.7184 24.6442 42.7016 27.1433 42.7016 29.7595C43.4399 29.7595 44.103 29.7595 44.9528 29.7595C44.9528 28.4305 44.9528 27.0988 44.9528 25.7698C44.9528 22.7079 44.9862 19.6433 44.9361 16.5814C44.9166 15.4307 45.3595 14.9738 46.4935 15.0323C47.5104 15.0853 48.5357 15.0853 49.5553 15.0323C50.7756 14.971 51.0431 15.6369 51.0375 16.6817C51.0152 20.532 51.0264 24.3851 51.0264 28.2355C51.0264 28.737 51.0264 29.2329 51.0264 29.7985ZM55.0913 13.7006C55.0913 19.1251 55.0913 24.4297 55.0913 29.779C55.8379 29.779 56.501 29.779 57.1919 29.779C57.1919 24.3768 57.1919 19.0721 57.1919 13.7006C56.4815 13.7006 55.8491 13.7006 55.0913 13.7006ZM46.9225 29.7901C47.7082 29.7901 48.3406 29.7901 49.0483 29.7901C49.0483 25.5107 49.0483 21.3149 49.0483 17.0411C48.3183 17.0411 47.6553 17.0411 46.9225 17.0411C46.9225 21.3093 46.9225 25.5051 46.9225 29.7901ZM40.7876 29.818C40.7876 28.0767 40.7876 26.5053 40.7876 24.934C40.7876 23.3237 40.7876 21.7161 40.7876 20.1197C39.9351 20.1197 39.2692 20.1197 38.5281 20.1197C38.5281 21.7997 38.5281 23.371 38.5281 24.9451C38.5281 26.5555 38.5281 28.1658 38.5281 29.818C39.3389 29.818 39.9741 29.818 40.7876 29.818Z" fill="#0274BA"/>
<path d="M18.8275 19.2504C21.7167 19.2504 24.3996 19.2449 27.0826 19.2532C28.601 19.2588 28.8768 19.568 28.771 21.0614C28.367 26.7366 23.4607 31.0243 17.5014 30.9101C11.9682 30.8042 7.2208 26.1292 7.06199 20.6295C6.89761 14.854 10.5334 10.349 16.2086 9.29583C18.4988 8.86956 18.8247 9.13424 18.8247 11.4188C18.8275 13.9625 18.8275 16.5006 18.8275 19.2504ZM16.9664 11.1346C11.6785 12.015 8.58318 16.0047 9.00109 21.0781C9.36606 25.5191 13.3891 29.0462 18.0419 29.0044C22.572 28.9654 26.4418 25.5163 26.7177 21.1449C25.7955 21.5489 24.5557 20.3286 23.9455 22.0699C22.9175 25.0009 20.1035 26.6809 17.1977 26.2824C14.1163 25.859 11.8902 23.7026 11.5643 20.819C11.2272 17.8435 12.9768 15.3304 16.1195 14.1575C16.4761 14.0238 16.8439 13.5334 16.9302 13.1462C17.0667 12.5416 16.9664 11.8841 16.9664 11.1346ZM16.9748 16.0353C14.5258 16.6037 13.1663 18.5483 13.4894 20.7744C13.7931 22.8639 15.8659 24.5439 18.0419 24.4659C20.1063 24.3935 21.8783 22.9336 21.9841 21.1589C20.7806 21.1589 19.577 21.1227 18.379 21.17C17.3537 21.2118 16.9525 20.7493 16.972 19.7658C16.9915 18.5706 16.9748 17.3726 16.9748 16.0353Z" fill="#0274BA"/>
<path d="M19.7051 12.1014C19.7051 10.6638 19.7162 9.22618 19.7023 7.79136C19.6939 6.8246 20.0728 6.3844 21.112 6.37047C26.4055 6.30639 31.6656 11.5553 31.5737 16.8321C31.557 17.7822 31.1558 18.1778 30.2336 18.175C27.1745 18.1639 24.1154 18.1555 21.0563 18.175C20.109 18.1806 19.7023 17.746 19.7051 16.8321C19.7106 15.2552 19.7051 13.6783 19.7051 12.1014ZM29.5705 16.208C29.0049 11.3575 24.6364 8.32628 21.6832 8.44608C21.6832 11.012 21.6832 13.578 21.6832 16.208C24.3383 16.208 26.9043 16.208 29.5705 16.208Z" fill="#0274BA"/>
<path d="M46.9419 8.68569C43.7017 8.68569 40.4587 8.68847 37.2186 8.68569C36.5248 8.68569 35.6779 8.77205 35.6946 7.75514C35.7113 6.75495 36.5583 6.83853 37.2492 6.83853C43.685 6.83295 50.1236 6.83574 56.5594 6.83574C56.6987 6.83574 56.8714 6.78559 56.9689 6.84967C57.3869 7.11992 57.7825 7.4236 58.1865 7.71614C57.7713 8.03932 57.3646 8.63275 56.9439 8.64389C53.6117 8.71633 50.2768 8.6829 46.9419 8.68569Z" fill="#0274BA"/>
</svg>
