<svg width="66" height="57" viewBox="0 0 66 57" fill="none" xmlns="http://www.w3.org/2000/svg">
<path d="M55.1395 22.8526C53.9121 22.8526 52.7672 22.8526 51.5501 22.8526C51.5501 20.5732 51.5501 18.3247 51.5501 15.9627C44.0929 19.7274 36.1303 20.47 28.0852 20.4597C20.0607 20.4597 12.1084 19.7274 4.64093 15.9627C4.64093 16.2928 4.64093 16.5816 4.64093 16.8704C4.64093 20.2534 4.68219 23.6468 4.6203 27.0299C4.59967 28.247 5.0535 29.0618 6.04367 29.7013C8.00338 30.9699 10.1694 31.8157 12.4282 32.2798C15.966 33.0122 19.545 33.5588 23.1963 34.2086C23.1963 35.1782 23.1963 36.3437 23.1963 37.5917C16.8014 37.0657 10.5407 36.2715 4.65124 33.1669C4.65124 33.5382 4.65124 33.827 4.65124 34.1158C4.65124 37.5607 4.6925 40.9954 4.63062 44.4403C4.60999 45.513 5.01224 46.2247 5.83738 46.8023C7.75583 48.1432 9.94246 48.8961 12.1806 49.4737C13.8 49.8966 15.4503 50.1648 17.0902 50.5154C17.2965 50.5567 17.5028 50.6392 17.7194 50.7011C17.7194 51.8769 17.7194 53.0321 17.7194 54.2905C16.6467 54.1151 15.6256 53.9707 14.6148 53.7644C11.2936 53.1043 8.024 52.2585 5.0535 50.567C4.41402 50.206 3.79516 49.7728 3.22788 49.3087C1.76326 48.1122 1 46.6063 1.02063 44.6466C1.0722 39.4998 1.04126 34.353 1.03094 29.2062C1.02063 23.1517 1 17.0973 1 11.0428C1 9.00059 2.05205 7.50502 3.63013 6.3292C6.14681 4.44169 9.06574 3.48246 12.0672 2.76046C18.2248 1.27521 24.4959 0.842014 30.8185 1.0483C36.1407 1.23396 41.3906 1.83218 46.4962 3.41026C48.6828 4.091 50.7869 4.9574 52.6228 6.36014C54.2937 7.6391 55.222 9.23781 55.1704 11.4347C55.0776 14.9313 55.1498 18.4278 55.1498 21.9243C55.1395 22.2235 55.1395 22.5226 55.1395 22.8526ZM28.0646 4.5964C22.2267 4.65829 16.4404 5.11211 10.8192 6.85522C8.93166 7.44313 7.06478 8.13419 5.50733 9.41316C4.38307 10.3311 4.32119 11.2078 5.51764 12.0227C6.74504 12.8684 8.0962 13.5904 9.49894 14.1268C13.6659 15.7152 18.0391 16.3546 22.464 16.6434C29.1063 17.087 35.7075 16.891 42.2364 15.447C45.0006 14.8385 47.7235 14.0649 50.1268 12.4662C51.9833 11.2388 52.0452 10.1145 50.1165 9.0109C48.4662 8.06199 46.6818 7.26779 44.8665 6.71082C39.4 5.03991 33.7581 4.65829 28.0646 4.5964Z" fill="#0274BA" stroke="white"/>
<path d="M43.0616 55.7963C39.2041 55.7963 35.3569 55.7654 31.4993 55.8067C27.4562 55.8479 23.7018 52.8258 22.9695 48.5351C22.3093 44.6569 24.6094 40.6034 28.4051 39.1698C28.9208 38.9738 29.1786 38.7263 29.3333 38.1899C30.963 32.548 34.6452 28.9483 40.4108 27.9169C46.455 26.8339 51.3027 29.0618 54.7889 34.1364C55.119 34.6109 55.4593 34.8481 56.0163 34.9306C61.2456 35.7661 64.9794 40.0671 65 45.2552C65.0206 50.4536 61.2663 54.8268 56.0266 55.7035C55.3768 55.8066 54.7064 55.7963 54.0463 55.7963C50.3744 55.7963 46.7129 55.7963 43.0616 55.7963ZM51.1996 34.4871C51.0655 34.3118 51.0036 34.1983 50.9108 34.1158C48.6726 31.7951 45.9187 30.6193 42.7109 30.7018C37.2237 30.8462 32.8918 34.7037 32.0047 40.1187C31.7881 41.4595 31.7881 41.4595 30.4267 41.738C27.0745 42.4084 25.1045 45.8534 26.2391 49.0611C27.0539 51.3715 29.1374 52.7639 31.8191 52.7743C39.1113 52.7846 46.4034 52.7743 53.6956 52.7743C54.2732 52.7743 54.8508 52.733 55.4284 52.6711C59.451 52.2276 62.504 48.2463 61.8439 44.3269C61.0909 39.933 57.0993 37.0966 52.9736 38.0043C51.148 38.4065 49.704 39.3657 48.5282 40.7994C47.7546 41.7483 46.5994 41.8927 45.7639 41.212C44.8975 40.5003 44.8047 39.4173 45.568 38.4271C45.9187 37.9733 46.3209 37.5504 46.7335 37.1482C47.9815 35.9002 49.4874 35.0853 51.1996 34.4871Z" fill="#0274BA" stroke="white"/>
<path d="M49.9926 49.1643C49.0334 49.1643 48.2495 48.401 48.2289 47.4624C48.2083 46.4929 49.0128 45.6884 50.0133 45.6884C50.9622 45.6884 51.7564 46.4516 51.777 47.3902C51.7976 48.3494 50.9828 49.1643 49.9926 49.1643Z" fill="#0274BA" stroke="white"/>
<path d="M42.3601 45.6884C43.3399 45.6987 44.0723 46.4207 44.0826 47.4005C44.0929 48.4113 43.3399 49.1746 42.3291 49.1643C41.3596 49.154 40.6067 48.4113 40.586 47.4521C40.5757 46.4723 41.3699 45.6781 42.3601 45.6884Z" fill="#0274BA" stroke="white"/>
<path d="M36.4395 47.4521C36.4189 48.4423 35.635 49.1849 34.6139 49.1643C33.6444 49.1333 32.9327 48.3907 32.943 47.4005C32.9533 46.3897 33.7269 45.6574 34.7583 45.6884C35.7175 45.7193 36.4601 46.4929 36.4395 47.4521Z" fill="#0274BA" stroke="white"/>
</svg>
