<svg width="65" height="65" viewBox="0 0 65 65" fill="none" xmlns="http://www.w3.org/2000/svg">
<path d="M9.75 6.86646e-05H3.25C2.38805 6.86646e-05 1.5614 0.342479 0.951903 0.951972C0.34241 1.56147 0 2.38812 0 3.25007V5.41674C0 6.27869 0.34241 7.10534 0.951903 7.71483C1.5614 8.32433 2.38805 8.66674 3.25 8.66674H5.41667V10.8334H2.16667V13.0001H10.8333V10.8334H7.58333V8.66674H9.75C10.612 8.66674 11.4386 8.32433 12.0481 7.71483C12.6576 7.10534 13 6.27869 13 5.41674V3.25007C13 2.38812 12.6576 1.56147 12.0481 0.951972C11.4386 0.342479 10.612 6.86646e-05 9.75 6.86646e-05ZM10.8333 5.41674C10.8333 5.70405 10.7192 5.9796 10.516 6.18277C10.3129 6.38593 10.0373 6.50007 9.75 6.50007H3.25C2.96268 6.50007 2.68713 6.38593 2.48397 6.18277C2.2808 5.9796 2.16667 5.70405 2.16667 5.41674V3.25007C2.16667 2.96275 2.2808 2.6872 2.48397 2.48404C2.68713 2.28087 2.96268 2.16674 3.25 2.16674H9.75C10.0373 2.16674 10.3129 2.28087 10.516 2.48404C10.7192 2.6872 10.8333 2.96275 10.8333 3.25007V5.41674Z" fill="#2776EA"/>
<path d="M61.75 6.86646e-05H55.25C54.388 6.86646e-05 53.5614 0.342479 52.9519 0.951972C52.3424 1.56147 52 2.38812 52 3.25007V5.41674C52 6.27869 52.3424 7.10534 52.9519 7.71483C53.5614 8.32433 54.388 8.66674 55.25 8.66674H57.4167V10.8334H54.1667V13.0001H62.8333V10.8334H59.5833V8.66674H61.75C62.612 8.66674 63.4386 8.32433 64.0481 7.71483C64.6576 7.10534 65 6.27869 65 5.41674V3.25007C65 2.38812 64.6576 1.56147 64.0481 0.951972C63.4386 0.342479 62.612 6.86646e-05 61.75 6.86646e-05ZM62.8333 5.41674C62.8333 5.70405 62.7192 5.9796 62.516 6.18277C62.3129 6.38593 62.0373 6.50007 61.75 6.50007H55.25C54.9627 6.50007 54.6871 6.38593 54.484 6.18277C54.2808 5.9796 54.1667 5.70405 54.1667 5.41674V3.25007C54.1667 2.96275 54.2808 2.6872 54.484 2.48404C54.6871 2.28087 54.9627 2.16674 55.25 2.16674H61.75C62.0373 2.16674 62.3129 2.28087 62.516 2.48404C62.7192 2.6872 62.8333 2.96275 62.8333 3.25007V5.41674Z" fill="#2776EA"/>
<path d="M9.75 52.0001H3.25C2.38805 52.0001 1.5614 52.3425 0.951903 52.952C0.34241 53.5615 0 54.3881 0 55.2501V57.4167C0 58.2787 0.34241 59.1053 0.951903 59.7148C1.5614 60.3243 2.38805 60.6667 3.25 60.6667H5.41667V62.8334H2.16667V65.0001H10.8333V62.8334H7.58333V60.6667H9.75C10.612 60.6667 11.4386 60.3243 12.0481 59.7148C12.6576 59.1053 13 58.2787 13 57.4167V55.2501C13 54.3881 12.6576 53.5615 12.0481 52.952C11.4386 52.3425 10.612 52.0001 9.75 52.0001ZM10.8333 57.4167C10.8333 57.7041 10.7192 57.9796 10.516 58.1828C10.3129 58.3859 10.0373 58.5001 9.75 58.5001H3.25C2.96268 58.5001 2.68713 58.3859 2.48397 58.1828C2.2808 57.9796 2.16667 57.7041 2.16667 57.4167V55.2501C2.16667 54.9628 2.2808 54.6872 2.48397 54.484C2.68713 54.2809 2.96268 54.1667 3.25 54.1667H9.75C10.0373 54.1667 10.3129 54.2809 10.516 54.484C10.7192 54.6872 10.8333 54.9628 10.8333 55.2501V57.4167Z" fill="#2776EA"/>
<path d="M61.75 52.0001H55.25C54.388 52.0001 53.5614 52.3425 52.9519 52.952C52.3424 53.5615 52 54.3881 52 55.2501V57.4167C52 58.2787 52.3424 59.1053 52.9519 59.7148C53.5614 60.3243 54.388 60.6667 55.25 60.6667H57.4167V62.8334H54.1667V65.0001H62.8333V62.8334H59.5833V60.6667H61.75C62.612 60.6667 63.4386 60.3243 64.0481 59.7148C64.6576 59.1053 65 58.2787 65 57.4167V55.2501C65 54.3881 64.6576 53.5615 64.0481 52.952C63.4386 52.3425 62.612 52.0001 61.75 52.0001ZM62.8333 57.4167C62.8333 57.7041 62.7192 57.9796 62.516 58.1828C62.3129 58.3859 62.0373 58.5001 61.75 58.5001H55.25C54.9627 58.5001 54.6871 58.3859 54.484 58.1828C54.2808 57.9796 54.1667 57.7041 54.1667 57.4167V55.2501C54.1667 54.9628 54.2808 54.6872 54.484 54.484C54.6871 54.2809 54.9627 54.1667 55.25 54.1667H61.75C62.0373 54.1667 62.3129 54.2809 62.516 54.484C62.7192 54.6872 62.8333 54.9628 62.8333 55.2501V57.4167Z" fill="#2776EA"/>
<path d="M5.38924 14.5687C1.87409 19.8876 0 26.1224 0 32.4979C0 38.8734 1.87409 45.1082 5.38924 50.4271L7.19624 49.2354C3.9138 44.2704 2.16371 38.4498 2.16371 32.4979C2.16371 26.546 3.9138 20.7254 7.19624 15.7604L5.38924 14.5687Z" fill="#2776EA"/>
<path d="M32.4988 62.8334C26.5469 62.843 20.7249 61.0931 15.7646 57.8035L14.5664 59.6094C19.8861 63.1255 26.1221 65.0001 32.4988 65.0001C38.8755 65.0001 45.1115 63.1255 50.4312 59.6094L49.2331 57.8035C44.2728 61.0931 38.4508 62.843 32.4988 62.8334Z" fill="#2776EA"/>
<path d="M57.8008 15.7647C61.0832 20.7297 62.8333 26.5503 62.8333 32.5022C62.8333 38.4542 61.0832 44.2747 57.8008 49.2397L59.6078 50.4314C63.1229 45.1125 64.997 38.8777 64.997 32.5022C64.997 26.1268 63.1229 19.8919 59.6078 14.5731L57.8008 15.7647Z" fill="#2776EA"/>
<path d="M14.5664 5.39074L15.7646 7.19666C20.729 3.91586 26.5483 2.16671 32.4988 2.16671C38.4494 2.16671 44.2687 3.91586 49.2331 7.19666L50.4312 5.39074C45.1115 1.87463 38.8755 0 32.4988 0C26.1221 0 19.8861 1.87463 14.5664 5.39074Z" fill="#2776EA"/>
<path d="M40.0846 19.5001H25.802C25.5787 18.8686 25.1658 18.3215 24.6197 17.9337C24.0737 17.5458 23.4211 17.3362 22.7513 17.3334H18.418C17.556 17.3334 16.7294 17.6758 16.1199 18.2853C15.5104 18.8948 15.168 19.7215 15.168 20.5834V44.4167C15.168 45.2787 15.5104 46.1053 16.1199 46.7148C16.7294 47.3243 17.556 47.6667 18.418 47.6667H46.5846C47.4466 47.6667 48.2732 47.3243 48.8827 46.7148C49.4922 46.1053 49.8346 45.2787 49.8346 44.4167V27.0834C49.8346 26.2215 49.4922 25.3948 48.8827 24.7853C48.2732 24.1758 47.4466 23.8334 46.5846 23.8334H43.3346V22.7501C43.3346 21.8881 42.9922 21.0615 42.3827 20.452C41.7732 19.8425 40.9466 19.5001 40.0846 19.5001ZM41.168 22.7501V23.8334H35.7513V22.7501C35.7477 22.3802 35.6803 22.0137 35.552 21.6667H40.0846C40.372 21.6667 40.6475 21.7809 40.8507 21.984C41.0538 22.1872 41.168 22.4628 41.168 22.7501ZM33.5846 22.7501V23.8334H27.0846C26.7973 23.8334 26.5218 23.7193 26.3186 23.5161C26.1154 23.3129 26.0013 23.0374 26.0013 22.7501V21.6667H32.5013C32.7886 21.6667 33.0642 21.7809 33.2673 21.984C33.4705 22.1872 33.5846 22.4628 33.5846 22.7501ZM47.668 27.0834V44.4167C47.668 44.7041 47.5538 44.9796 47.3507 45.1828C47.1475 45.3859 46.872 45.5001 46.5846 45.5001H18.418C18.1307 45.5001 17.8551 45.3859 17.6519 45.1828C17.4488 44.9796 17.3346 44.7041 17.3346 44.4167V20.5834C17.3346 20.2961 17.4488 20.0205 17.6519 19.8174C17.8551 19.6142 18.1307 19.5001 18.418 19.5001H22.7513C23.0386 19.5001 23.3142 19.6142 23.5173 19.8174C23.7205 20.0205 23.8346 20.2961 23.8346 20.5834V22.7501C23.8346 23.612 24.177 24.4387 24.7865 25.0482C25.396 25.6577 26.2227 26.0001 27.0846 26.0001H46.5846C46.872 26.0001 47.1475 26.1142 47.3507 26.3174C47.5538 26.5205 47.668 26.7961 47.668 27.0834Z" fill="#2776EA"/>
<path d="M29.25 30.3334H40.0833V32.5001H29.25V30.3334Z" fill="#2776EA"/>
<path d="M29.25 34.6667H40.0833V36.8334H29.25V34.6667Z" fill="#2776EA"/>
<path d="M29.25 39.0001H40.0833V41.1667H29.25V39.0001Z" fill="#2776EA"/>
<path d="M24.918 30.3334H27.0846V32.5001H24.918V30.3334Z" fill="#2776EA"/>
<path d="M24.918 34.6667H27.0846V36.8334H24.918V34.6667Z" fill="#2776EA"/>
<path d="M24.918 39.0001H27.0846V41.1667H24.918V39.0001Z" fill="#2776EA"/>
</svg>
