<svg width="65" height="70" viewBox="0 0 65 70" fill="none" xmlns="http://www.w3.org/2000/svg">
<path d="M32.4998 51.7158C29.2843 51.7158 26.6682 54.3318 26.6682 57.5472C26.6682 60.763 29.2843 63.3788 32.4998 63.3788C35.7063 63.3788 38.3148 60.763 38.3148 57.5472C38.3148 54.3318 35.7062 51.7158 32.4998 51.7158ZM32.4998 61.6747C30.2241 61.6747 28.3727 59.8228 28.3727 57.5472C28.3727 55.2717 30.2241 53.4197 32.4998 53.4197C34.7666 53.4197 36.6103 55.2718 36.6103 57.5472C36.6102 59.8228 34.7666 61.6747 32.4998 61.6747ZM63.8832 46.2764L57.8371 35.8084H61.0898C61.5604 35.8084 61.942 35.4271 61.942 34.9564V19.8837C61.942 19.877 61.94 19.8701 61.94 19.8631C61.9389 19.8141 61.9349 19.7654 61.9251 19.7162C61.9193 19.6863 61.908 19.6583 61.899 19.6288C61.8914 19.6051 61.8867 19.5805 61.8768 19.5567C61.8547 19.5038 61.8275 19.4531 61.7957 19.406L59.2907 15.6825C59.132 15.4472 58.8672 15.3062 58.5835 15.3062H43.3109C43.0263 15.3062 42.7605 15.4478 42.6024 15.6844L40.1126 19.4101C40.1041 19.4222 40.0997 19.4361 40.0923 19.4485C40.071 19.4839 40.0503 19.5194 40.0344 19.5575C40.0235 19.584 40.0174 19.611 40.0095 19.638C40.0012 19.6643 39.9912 19.6898 39.9858 19.7175C39.977 19.7616 39.974 19.8064 39.9723 19.851C39.972 19.8624 39.9691 19.8724 39.9691 19.8836V19.8865V19.8877V34.956C39.9691 35.4267 40.3508 35.808 40.8214 35.808H55.8693L62.4078 47.1294C63.5833 49.1568 63.5833 51.4831 62.407 53.5118C61.2404 55.5345 59.2256 56.6948 56.879 56.6948H50.2069L51.2975 55.6117C51.6313 55.2802 51.633 54.7407 51.3015 54.4067C50.9699 54.0724 50.4305 54.0713 50.0961 54.4029L47.5394 56.9428C47.5391 56.9432 47.5388 56.9432 47.5384 56.9436C47.499 56.9829 47.4635 57.0261 47.4322 57.0727C47.4311 57.0745 47.4304 57.076 47.4293 57.0777C47.4 57.1221 47.3743 57.1696 47.3537 57.2192C47.3499 57.2282 47.3485 57.238 47.3452 57.2467C47.329 57.2899 47.3139 57.333 47.3047 57.3782C47.2935 57.4337 47.2877 57.4901 47.2877 57.5469C47.2877 57.604 47.2935 57.6604 47.3047 57.7158C47.3134 57.7606 47.3286 57.8033 47.3445 57.8458C47.348 57.855 47.3496 57.8656 47.3537 57.875C47.3744 57.9247 47.3999 57.9714 47.4291 58.0158C47.4302 58.018 47.4311 58.0197 47.4322 58.0214C47.4635 58.0679 47.4989 58.111 47.5384 58.1504C47.5387 58.151 47.539 58.151 47.5394 58.1515L50.0961 60.6913C50.2625 60.8567 50.4794 60.9389 50.6969 60.9389C50.9159 60.9389 51.1349 60.8556 51.3015 60.6874C51.633 60.3532 51.6313 59.8142 51.2975 59.4825L50.2069 58.3989H56.879C59.8515 58.3989 62.4045 56.9283 63.8828 54.3648C65.3723 51.7946 65.3723 48.8455 63.8832 46.2764ZM43.7663 17.0103H58.1295L59.4894 19.0319H42.4155L43.7663 17.0103ZM41.6735 20.7359H60.2375V34.1042H41.6735V20.7359ZM5.1515 33.3184C6.09502 34.4006 7.2265 35.3132 8.5029 35.9942C8.59799 36.0675 8.70715 36.1225 8.82813 36.1507C10.4012 36.9289 12.1649 37.3785 14.0358 37.3785C15.9032 37.3785 17.6641 36.932 19.2357 36.1585C19.3719 36.1305 19.4937 36.0675 19.5979 35.9837C20.862 35.3072 21.9823 34.4028 22.9197 33.3329C22.9829 33.2799 23.0404 33.2198 23.0862 33.1504C24.8081 31.1002 25.8495 28.4614 25.8495 25.582C25.8495 21.6228 23.8249 17.983 20.6569 15.8202L26.971 4.88816C28.1618 2.83516 30.1252 1.70396 32.4998 1.70396C34.8747 1.70396 36.8384 2.83516 38.0276 4.88677L41.3612 10.6726L39.8732 10.272C39.4183 10.15 38.9512 10.4194 38.8287 10.8728C38.7063 11.327 38.9753 11.7951 39.4299 11.9173L42.901 12.8519C42.9677 12.8704 43.037 12.8781 43.1069 12.8796C43.1135 12.8799 43.1201 12.8825 43.1271 12.8825C43.1375 12.8825 43.1472 12.8791 43.1576 12.8785C43.2099 12.8766 43.2619 12.8697 43.3137 12.8582C43.3301 12.8544 43.3465 12.8519 43.3629 12.8468C43.4277 12.8284 43.4915 12.8042 43.5526 12.7689C43.6518 12.712 43.7344 12.6375 43.8003 12.5522C43.8012 12.5508 43.8023 12.5502 43.8029 12.549C43.8714 12.46 43.9211 12.3592 43.9496 12.2528C43.9499 12.2521 43.9499 12.2521 43.9499 12.2521L44.8859 8.77613C45.0083 8.32156 44.739 7.85391 44.2848 7.73195C43.8303 7.60874 43.3628 7.87897 43.2403 8.33298L42.8391 9.82324L39.5034 4.03444C38.0173 1.47035 35.4645 0 32.4998 0C29.5356 0 26.9831 1.47035 25.4958 4.03527L19.1857 14.9603C18.6755 14.7115 18.1407 14.5042 17.5899 14.3296C16.6944 13.3897 15.4342 12.7997 14.0361 12.7997C12.6419 12.7997 11.385 13.3903 10.4924 14.3321C5.62264 15.875 2.23921 20.4622 2.23921 25.5822C2.23921 28.4697 3.28576 31.1146 5.01478 33.1674C5.05335 33.2242 5.10068 33.2737 5.1515 33.3184ZM19.9177 33.7744V31.3136C19.9177 30.8425 19.536 30.4615 19.0654 30.4615C18.595 30.4615 18.2132 30.8425 18.2132 31.3136V34.7616C16.9381 35.3427 15.5266 35.6746 14.0359 35.6746C12.5515 35.6746 11.1458 35.3444 9.87538 34.7663V31.3137C9.87538 30.8426 9.49376 30.4617 9.02305 30.4617C8.55247 30.4617 8.17085 30.8426 8.17085 31.3137V33.7798C7.5857 33.3596 7.04968 32.8786 6.56685 32.3465V30.612C6.56685 27.12 9.40786 24.2787 12.8997 24.2787H15.1887C18.6807 24.2787 21.5216 27.12 21.5216 30.612V32.3412C21.0391 32.873 20.5029 33.3542 19.9177 33.7744ZM24.145 25.5822C24.145 27.1054 23.7953 28.5458 23.1874 29.8421C22.7983 25.7705 19.361 22.5746 15.1889 22.5746H14.5903C17.0389 22.2988 18.9486 20.2248 18.9486 17.712C18.9486 17.3681 18.9127 17.0332 18.845 16.7093C22.0422 18.4529 24.145 21.8508 24.145 25.5822ZM17.2441 17.712C17.2441 19.4717 15.8051 20.9041 14.0359 20.9041C12.2762 20.9041 10.8445 19.4717 10.8445 17.712C10.8445 15.943 12.2763 14.5038 14.0359 14.5038C15.8049 14.5038 17.2441 15.943 17.2441 17.712ZM9.2433 16.7095C9.17605 17.0331 9.13999 17.3679 9.13999 17.7118C9.13999 20.2247 11.0433 22.2986 13.4832 22.5745H12.8999C8.7265 22.5745 5.28864 25.7723 4.90132 29.8453C4.29318 28.5486 3.94359 27.1071 3.94359 25.5822C3.94359 21.8514 6.04616 18.4535 9.2433 16.7095ZM43.7118 54.9573H42.1176C41.894 54.1231 41.5607 53.326 41.1224 52.5746L42.2565 51.4522C42.4178 51.2927 42.5087 51.0756 42.5091 50.8488C42.5096 50.622 42.4198 50.4046 42.2596 50.2439L39.8033 47.7874C39.6433 47.6279 39.4265 47.5385 39.2007 47.5385C39.1999 47.5385 39.1993 47.5385 39.1983 47.5385C38.9715 47.5388 38.7545 47.6297 38.5948 47.7908L37.4725 48.925C36.7211 48.4865 35.9238 48.1529 35.0901 47.9298V46.3352C35.0901 45.8642 34.7085 45.4833 34.2379 45.4833H30.7625C30.2919 45.4833 29.9101 45.8642 29.9101 46.3352V47.9298C29.0766 48.153 28.2793 48.4865 27.5279 48.925L26.4056 47.7908C26.2459 47.6298 26.0289 47.5388 25.8021 47.5385C25.8012 47.5385 25.8005 47.5385 25.7997 47.5385C25.5737 47.5385 25.357 47.628 25.197 47.7874L22.7407 50.2439C22.4079 50.5769 22.4079 51.1167 22.7407 51.4492L23.8677 52.5765C23.4337 53.3329 23.104 54.1295 22.8821 54.9573H21.2877C20.8173 54.9573 20.4355 55.3384 20.4355 55.8097V56.6951H8.10403C5.76813 56.6951 3.75926 55.5348 2.59214 53.5106C1.41667 51.4833 1.41667 49.157 2.59298 47.1278L5.92754 41.3402L6.32864 42.8306C6.43125 43.2106 6.77527 43.4614 7.15104 43.4614C7.22441 43.4614 7.29903 43.4517 7.37324 43.4315C7.82781 43.3094 8.09693 42.8423 7.97455 42.3873L7.03868 38.9115C7.03868 38.9115 7.03868 38.9115 7.0384 38.9115C7.00986 38.8044 6.96002 38.7035 6.89152 38.6144C6.89097 38.6131 6.88985 38.6124 6.88902 38.6114C6.82316 38.5262 6.74047 38.4516 6.6412 38.3944C6.62658 38.3858 6.61113 38.3817 6.59637 38.3742C6.56003 38.3558 6.52411 38.3373 6.48638 38.3246C6.46202 38.3168 6.43696 38.3132 6.41218 38.3077C6.38224 38.3007 6.35259 38.2914 6.3221 38.2875C6.30205 38.285 6.28186 38.2861 6.26167 38.2855C6.22659 38.2833 6.19137 38.2804 6.15628 38.2827C6.0999 38.2865 6.04434 38.2965 5.99005 38.3114L2.51877 39.2462C2.06421 39.3684 1.79523 39.8365 1.91746 40.2905C2.0397 40.7459 2.50861 41.0158 2.96192 40.8915L4.44995 40.4907L1.11748 46.2754C-0.372355 48.8455 -0.372355 51.7947 1.11665 54.3634C2.59549 56.9285 5.14217 58.3991 8.10417 58.3991H20.4357V59.2851C20.4357 59.7562 20.8173 60.1372 21.2879 60.1372H22.8825C23.104 60.9648 23.4337 61.7616 23.8677 62.5183L22.7407 63.6453C22.4079 63.9778 22.4079 64.5178 22.7407 64.8507L25.197 67.3071C25.5171 67.6257 26.083 67.6257 26.4024 67.3071L27.5294 66.1799C28.2858 66.6133 29.0825 66.9431 29.9103 67.1648V68.7593C29.9103 69.2304 30.292 69.6114 30.7626 69.6114H34.2381C34.7086 69.6114 35.0903 69.2304 35.0903 68.7593V67.1648C35.9181 66.9431 36.7149 66.6133 37.4711 66.1799L38.5981 67.3071C38.7578 67.4666 38.9749 67.5563 39.2008 67.5563C39.4268 67.5563 39.6434 67.4665 39.8034 67.3071L42.2597 64.8507C42.4201 64.6899 42.5099 64.4726 42.5092 64.2457C42.5087 64.0187 42.4178 63.8017 42.2567 63.6425L41.1224 62.52C41.5611 61.7679 41.8943 60.9703 42.1179 60.1372H43.7123C44.183 60.1372 44.5646 59.7562 44.5646 59.2851V55.8097C44.5642 55.3384 44.1826 54.9573 43.7118 54.9573ZM42.8597 58.4331H41.4394C41.0308 58.4331 40.6797 58.7232 40.6026 59.1246C40.3939 60.2126 39.9667 61.2342 39.3323 62.1627C39.1002 62.5024 39.144 62.9596 39.4364 63.2492L40.4486 64.2508L39.2006 65.499L38.1991 64.4974C37.9122 64.2102 37.4621 64.165 37.1238 64.3909C36.1807 65.0193 35.1555 65.443 34.0774 65.6496C33.676 65.7266 33.3855 66.0781 33.3855 66.4866V67.9072H31.6145V66.4866C31.6145 66.0781 31.3241 65.7266 30.9226 65.6496C29.8444 65.443 28.8195 65.0193 27.8762 64.3909C27.5385 64.1656 27.0878 64.21 26.8008 64.4974L25.7995 65.499L24.5485 64.2479L25.5501 63.2463C25.837 62.9591 25.8817 62.5091 25.6566 62.1711C25.0277 61.2276 24.604 60.203 24.3977 59.1246C24.3209 58.7232 23.9694 58.4331 23.5608 58.4331H22.1403V56.6613H23.5608C23.9694 56.6613 24.3209 56.3711 24.3977 55.9699C24.6045 54.8911 25.0277 53.8665 25.6564 52.9234C25.8818 52.5856 25.8376 52.1355 25.5502 51.8482L24.5486 50.8466L25.7965 49.5984L26.7978 50.6107C27.0867 50.903 27.5442 50.9473 27.8844 50.7146C28.8128 50.0803 29.835 49.6533 30.9227 49.4449C31.3242 49.3678 31.6147 49.0165 31.6147 48.6077V47.1872H33.3856V48.6077C33.3856 49.0165 33.676 49.3678 34.0775 49.4449C35.1653 49.6533 36.1875 50.0803 37.116 50.7146C37.4555 50.9473 37.9125 50.903 38.2025 50.6107L39.2038 49.5984L40.4486 50.8437L39.4364 51.8454C39.144 52.1346 39.1002 52.5918 39.3326 52.9315C39.9663 53.8595 40.3939 54.8813 40.6026 55.9698C40.6797 56.371 41.0308 56.6612 41.4394 56.6612H42.8597V58.4331ZM52.9521 23.5773H48.9418C47.8549 23.5773 46.9702 24.4686 46.9702 25.5657C46.9702 26.6525 47.8549 27.5367 48.9418 27.5367H52.9521C54.0485 27.5367 54.9408 26.6524 54.9408 25.5657C54.941 24.4686 54.0485 23.5773 52.9521 23.5773ZM52.9521 25.8326H48.9418C48.7945 25.8326 48.6748 25.713 48.6748 25.5657C48.6748 25.4142 48.7997 25.2813 48.9418 25.2813H52.9521C53.101 25.2813 53.2363 25.417 53.2363 25.5657C53.2363 25.7076 53.1036 25.8326 52.9521 25.8326Z" fill="#2776EA"/>
</svg>
