<svg width="95" height="53" viewBox="0 0 95 53" fill="none" xmlns="http://www.w3.org/2000/svg">
<path d="M85.7226 45.3779C83.5698 45.3779 81.4498 45.3779 79.2167 45.3779C79.2167 46.74 79.2167 48.0661 79.2167 49.3921C79.2167 49.7736 79.2364 50.1583 79.2053 50.5381C79.1103 51.6956 78.277 52.4863 77.1147 52.5387C76.8691 52.5501 76.6236 52.5419 76.378 52.5419C57.1158 52.5419 37.8519 52.5419 18.5897 52.5419C16.4336 52.5419 15.7526 51.8625 15.7509 49.7196C15.7493 48.382 15.7477 47.0462 15.7427 45.7086C15.7427 45.6284 15.7166 45.5482 15.692 45.4041C13.5588 45.4041 11.4191 45.4041 9.24343 45.4041C9.16648 45.6497 9.0879 45.9051 9.00604 46.1605C8.30864 48.3035 6.1542 49.6426 3.96538 49.2939C1.64069 48.9239 0.019953 47.0855 0.0019448 44.8C-0.0160634 42.4213 1.61122 40.5108 3.97848 40.1343C6.0969 39.797 8.32992 41.1297 8.96512 43.2383C9.18776 43.9782 9.52664 44.1239 10.2175 44.1043C11.9348 44.0552 13.6554 44.083 15.3744 44.0781C15.4546 44.0781 15.5348 44.0535 15.7526 44.0191C15.7526 43.7261 15.7526 43.4134 15.7526 43.1007C15.7526 33.9886 15.7526 24.8748 15.7542 15.7626C15.7542 14.2958 16.1258 13.9225 17.5878 13.9209C23.0443 13.9193 28.5007 13.9094 33.9589 13.934C34.6612 13.9373 35.2243 13.8374 35.65 13.2284C36.0216 12.698 36.4538 12.2085 36.8074 11.7681C36.7436 11.7648 36.4587 11.7403 36.1739 11.7403C31.6718 11.7386 27.1698 11.7403 22.6677 11.737C21.6413 11.737 21.5037 11.5962 21.5021 10.5468C21.4988 8.83113 21.5005 7.1138 21.5005 5.30807C21.1829 5.29006 20.9226 5.26223 20.6623 5.26223C17.0885 5.26059 13.513 5.27369 9.9392 5.24749C9.40714 5.24422 9.1894 5.40302 9.03715 5.90889C8.36102 8.16155 6.21805 9.57437 4.05215 9.24531C1.61777 8.87533 -0.0258852 6.97628 0.000308587 4.56646C0.0265023 2.22703 1.73073 0.35745 4.1291 0.0349398C6.1673 -0.238457 8.29554 1.12034 8.98476 3.1389C9.07316 3.39593 9.14029 3.6595 9.24997 4.03112C9.51846 4.03112 9.80823 4.03112 10.0964 4.03112C13.9436 4.03112 17.7908 4.03112 21.638 4.03276C22.6988 4.03276 22.7659 4.09824 22.7676 5.13453C22.7709 6.87478 22.7676 8.61503 22.7676 10.4617C23.1376 10.4617 23.4257 10.4617 23.7155 10.4617C28.599 10.4617 33.4825 10.4699 38.3676 10.447C38.8325 10.4453 39.3368 10.3176 39.7526 10.1097C44.9488 7.51489 50.1237 7.53617 55.3002 10.1572C55.5818 10.2996 55.9043 10.4486 56.2072 10.4486C61.4181 10.465 66.629 10.4584 71.8416 10.4551C71.9201 10.4551 71.9987 10.4257 72.2034 10.3831C72.2034 9.95091 72.2034 9.49907 72.2034 9.04723C72.2034 7.73754 72.2001 6.42785 72.205 5.11816C72.2083 4.11298 72.2819 4.03276 73.2708 4.03276C77.0901 4.02949 80.9111 4.03112 84.7305 4.03112C85.0547 4.03112 85.3788 4.03112 85.4885 4.03112C86.073 3.05868 86.4577 2.1288 87.0912 1.42321C88.5008 -0.145143 90.7895 -0.413629 92.6361 0.619386C94.4058 1.60984 95.3357 3.68078 94.8888 5.63876C94.414 7.71789 92.6148 9.21094 90.5013 9.27806C88.4615 9.34354 86.5526 8.03222 85.9862 6.04804C85.793 5.37191 85.495 5.23767 84.8566 5.24422C81.3924 5.27532 77.9267 5.25896 74.4609 5.25896C74.1679 5.25896 73.8732 5.25896 73.4754 5.25896C73.4754 7.00411 73.4754 8.65923 73.4754 10.3143C73.4754 11.6895 73.4312 11.7354 72.0511 11.7354C67.6587 11.7354 63.2664 11.7354 58.8724 11.7354C58.5744 11.7354 58.2765 11.7354 58.0653 11.7354C58.6677 12.4148 59.2604 13.14 59.9267 13.7948C60.092 13.9569 60.4898 13.9144 60.7812 13.9144C66.3196 13.9209 71.8579 13.9176 77.3979 13.9193C78.8484 13.9193 79.22 14.2991 79.22 15.7725C79.2216 24.8846 79.2216 33.9984 79.2216 43.1106C79.2216 43.4036 79.2216 43.695 79.2216 44.0781C81.3466 44.0781 83.3848 44.0961 85.4214 44.047C85.6031 44.0421 85.8519 43.6377 85.9371 43.3741C86.8964 40.4011 90.3049 39.1618 92.9013 40.8595C94.6121 41.9777 95.3734 44.0421 94.8036 46.0131C94.2405 47.9613 92.4691 49.3185 90.4391 49.3594C88.4664 49.3987 86.6345 48.1103 85.9944 46.2292C85.8945 45.9526 85.8126 45.6694 85.7226 45.3779ZM77.8989 45.3796C77.5763 45.3649 77.3095 45.3419 77.0426 45.3403C75.733 45.337 74.4233 45.3207 73.1152 45.3452C72.4489 45.3583 72.1755 45.0947 72.1968 44.4252C72.2263 43.4707 72.205 42.5163 72.205 41.5618C72.205 40.6991 72.205 39.8363 72.205 38.9752C71.9791 38.9474 71.8743 38.9228 71.7679 38.9228C66.5848 38.9196 61.4017 38.9146 56.2186 38.9294C55.9125 38.931 55.5883 39.0685 55.3068 39.211C50.1007 41.8533 44.8997 41.8451 39.6838 39.2306C39.3138 39.0456 38.8653 38.931 38.4527 38.9294C33.543 38.9097 28.6317 38.9163 23.722 38.9163C23.4322 38.9163 23.1425 38.9163 22.7692 38.9163C22.7692 40.2161 22.7692 41.4096 22.7692 42.6031C22.7692 45.3387 22.7692 45.3387 20.0778 45.3387C19.0792 45.3387 18.0789 45.3387 17.0917 45.3387C17.0917 45.8855 17.0917 46.3062 17.0917 46.7891C17.4502 46.7891 17.7466 46.7891 18.0429 46.7891C25.7635 46.7891 33.4825 46.7908 41.2031 46.7875C41.781 46.7875 42.3703 46.6991 42.5455 47.5029C42.5733 47.6339 42.9319 47.773 43.1381 47.7747C46.0293 47.7927 48.922 47.7927 51.8132 47.7763C52.0244 47.7747 52.3927 47.6486 52.4173 47.5258C52.5941 46.6664 53.2342 46.7908 53.8284 46.7908C61.5212 46.7908 69.214 46.7908 76.9068 46.7908C77.226 46.7908 77.5436 46.7908 77.9038 46.7908C77.8989 46.2882 77.8989 45.8887 77.8989 45.3796ZM17.0721 15.2306C17.0721 24.8633 17.0721 34.4257 17.0721 44.0388C18.5487 44.0388 19.9763 44.0388 21.4988 44.0388C21.4988 42.2789 21.4972 40.5665 21.4988 38.8557C21.5005 37.7523 21.6101 37.641 22.7168 37.641C27.2189 37.6393 31.7209 37.641 36.223 37.641C36.4964 37.641 36.7698 37.641 37.2544 37.641C33.7984 34.7187 31.775 31.2546 31.1643 27.0292C30.5504 22.7858 31.5392 18.8748 33.949 15.2322C28.2666 15.2306 22.7119 15.2306 17.0721 15.2306ZM61.1578 15.2371C65.8137 23.5324 64.7627 30.9599 57.8934 37.641C58.2519 37.641 58.5417 37.641 58.8315 37.641C63.3564 37.641 67.883 37.6524 72.408 37.6312C73.1791 37.6279 73.5212 37.8996 73.4787 38.6805C73.4476 39.2519 73.4721 39.8249 73.4721 40.3979C73.4721 41.6142 73.4721 42.829 73.4721 44.0208C75.0225 44.0208 76.45 44.0208 77.8907 44.0208C77.8907 34.3946 77.8907 24.8388 77.8907 15.2388C72.2918 15.2371 66.7387 15.2371 61.1578 15.2371ZM50.4216 16.8906C50.8571 16.5747 51.2533 16.2882 51.6462 16.0017C52.6595 15.2633 53.1081 15.4287 53.3832 16.6745C53.4585 17.0167 53.4961 17.3752 53.4928 17.7272C53.4814 18.7471 53.0377 19.6868 53.6369 20.8017C54.1755 21.8036 52.9051 24.0104 51.9507 24.7013C51.4219 25.0843 50.7933 25.7277 50.7605 26.286C50.7294 26.8262 51.2811 27.5826 51.7902 27.9411C53.28 28.9889 54.8418 29.9482 56.4413 30.8224C57.5136 31.4085 58.2503 32.1861 58.6383 33.3239C58.748 33.6464 58.8544 33.9689 58.9739 34.3258C63.4579 29.241 63.8525 21.1536 59.3848 15.5089C59.2358 15.3206 58.8773 15.2159 58.6137 15.2109C56.9782 15.1831 55.3313 15.319 53.7106 15.1635C51.8394 14.985 50.8489 16.1392 49.7913 17.313C49.4328 17.7124 49.0661 18.1512 48.6093 18.4066C47.6582 18.937 46.617 19.0598 45.5267 18.8339C43.8601 18.4884 42.9449 19.2333 42.8991 20.9163C42.8909 21.1962 42.8975 21.4762 42.8975 21.7561C42.7927 21.7856 42.6879 21.815 42.5831 21.8445C42.3834 21.4041 42.1821 20.9654 41.9725 20.5054C41.4748 21.2502 42.1935 23.9957 42.963 24.03C43.7226 24.0644 43.6849 24.6292 43.9289 24.9566C45.6118 27.2224 48.0085 27.6464 50.0091 26.0699C50.8587 25.4003 51.2827 24.3968 52.211 23.7436C52.8413 23.2999 52.987 22.1343 53.2849 21.2699C53.357 21.0603 53.1801 20.764 53.1179 20.5086C52.8462 20.8082 52.7643 21.098 52.6219 21.355C52.5302 21.5204 52.3485 21.6366 52.2077 21.7757C52.1209 21.6022 51.9671 21.4336 51.9605 21.2568C51.8901 19.6852 51.34 18.2854 50.4216 16.8906ZM17.0246 48.1758C17.0246 48.7324 17.0246 49.2432 17.0246 49.7539C17.0262 51.1389 17.1736 51.283 18.5897 51.283C37.8519 51.283 57.1125 51.283 76.3747 51.283C76.6203 51.283 76.9182 51.3616 77.0999 51.2519C77.4159 51.062 77.8497 50.782 77.8956 50.489C78.0086 49.7507 77.9332 48.9829 77.9332 48.1299C77.5567 48.1299 77.2637 48.1299 76.9706 48.1299C69.5218 48.1299 62.0746 48.1332 54.6257 48.125C54.0707 48.125 53.6009 48.1496 53.167 48.626C52.9166 48.901 52.3911 49.0418 51.9867 49.0467C48.9859 49.0811 45.9851 49.086 42.9842 49.0418C42.5389 49.0353 42.0986 48.716 41.6565 48.5425C41.3029 48.405 40.9477 48.1496 40.5924 48.1496C33.0355 48.1267 25.4786 48.1316 17.9201 48.1332C17.6533 48.1316 17.3864 48.1561 17.0246 48.1758ZM36.0134 34.352C36.1035 34.0361 36.1624 33.802 36.2377 33.5744C36.5995 32.4841 37.1807 31.5804 38.217 30.9796C39.8655 30.0268 41.501 29.0478 43.1037 28.023C44.3365 27.2355 44.4364 25.4985 43.2151 24.7782C42.0429 24.0857 41.6778 22.9938 41.3357 21.8642C41.1523 21.2601 41.041 20.5643 41.7155 20.0764C41.8137 20.006 41.8743 19.7916 41.8514 19.6606C41.596 18.1643 41.596 16.6893 42.2574 15.1946C40.6415 15.1946 39.1059 15.319 37.5998 15.1586C36.1231 15.0014 35.352 15.6268 34.6301 16.8137C31.2887 22.3111 31.811 29.7829 36.0134 34.352ZM37.0661 13.9127C39.2778 13.9127 41.3144 13.9144 43.351 13.9078C43.4803 13.9078 43.6211 13.8603 43.7357 13.7981C45.4645 12.8584 47.3128 12.9288 49.161 13.2137C50.6754 13.4461 52.0997 14.1092 53.7057 13.9471C55.0399 13.8112 56.3971 13.9193 57.8475 13.9193C52.7922 8.55773 43.0464 7.9389 37.0661 13.9127ZM4.63824 1.28242C2.80631 1.26604 1.2969 2.74272 1.26907 4.57628C1.24124 6.46878 2.713 7.99293 4.58094 8.00439C6.43742 8.01585 7.99103 6.47369 7.9763 4.63194C7.96157 2.81148 6.45379 1.29715 4.63824 1.28242ZM93.7117 4.68433C93.7281 2.81148 92.2203 1.28078 90.3605 1.28242C88.545 1.28405 87.0208 2.78856 86.993 4.60738C86.9668 6.44913 88.509 8.00439 90.3638 8.00602C92.1974 8.00602 93.6953 6.51953 93.7117 4.68433ZM1.26415 44.7166C1.25924 46.5878 2.78667 48.1152 4.63987 48.0972C6.44561 48.0792 7.96648 46.5501 7.97958 44.7395C7.99268 42.8994 6.44397 41.367 4.58094 41.3752C2.74738 41.3818 1.26907 42.8715 1.26415 44.7166ZM90.3442 41.3736C88.491 41.385 86.9554 42.9468 86.9914 44.787C87.0257 46.5894 88.581 48.107 90.3802 48.0972C92.235 48.0874 93.7346 46.5436 93.7084 44.6691C93.6839 42.8306 92.1843 41.3621 90.3442 41.3736ZM44.6786 26.3891C44.325 27.0079 44.0025 27.5155 43.7455 28.0524C43.6424 28.2669 43.608 28.573 43.6735 28.7989C44.1302 30.3542 45.5823 31.2906 47.4814 31.2906C49.3788 31.2906 50.8456 30.3444 51.3008 28.8071C51.3564 28.6189 51.3793 28.3602 51.2926 28.2014C50.9766 27.612 50.6066 27.0505 50.235 26.4399C48.3671 27.8511 46.5302 27.8265 44.6786 26.3891Z" fill="#2776EA"/>
</svg>
