<svg width="290" height="138" viewBox="0 0 290 138" fill="none" xmlns="http://www.w3.org/2000/svg">
<g filter="url(#filter0_d_755_738155)">
<path d="M27 53C27 37.9151 27 30.3726 31.6863 25.6863C36.3726 21 43.9151 21 59 21H230.2C245.285 21 252.827 21 257.514 25.6863C262.2 30.3726 262.2 37.9151 262.2 53V71.3399C262.2 86.4249 262.2 93.9673 257.514 98.6536C252.827 103.34 245.285 103.34 230.2 103.34H59C43.915 103.34 36.3726 103.34 31.6863 98.6536C27 93.9673 27 86.4249 27 71.3399V53Z" fill="white"/>
<path d="M27 21H262.2H27ZM262.2 87.3399C262.2 96.7288 254.589 104.34 245.2 104.34H44C34.6112 104.34 27 96.7288 27 87.3399C27 95.6242 34.1634 102.34 43 102.34H246.2C255.037 102.34 262.2 95.6242 262.2 87.3399ZM27 103.34V21V103.34ZM262.2 21V103.34V21Z" fill="#0274BA"/>
</g>
<path d="M143.476 57.7407C143.265 57.767 143.08 57.7934 142.922 57.8198C142.764 57.8462 142.606 57.8725 142.395 57.9253C142.157 57.978 142.025 58.0835 141.973 58.2418C141.92 58.4 141.867 58.5583 141.867 58.7692V65.2044C141.867 65.7847 141.735 66.3385 141.498 66.8396C141.261 67.3407 140.944 67.7363 140.522 68.0792C140.1 68.3957 139.625 68.6594 139.098 68.8176C138.57 68.9759 138.017 69.0814 137.436 69.0814C136.408 69.0814 135.59 68.844 134.957 68.3429C134.324 67.8418 134.008 67.1825 134.008 66.3121C134.008 65.811 134.14 65.3891 134.43 65.0462C134.72 64.7033 135.116 64.5451 135.617 64.5451C136.091 64.5451 136.461 64.677 136.751 64.9671C137.041 65.2572 137.173 65.6 137.173 65.9956C137.173 66.3385 137.041 66.6814 136.803 66.9715C136.566 67.2616 136.276 67.5517 135.959 67.7891V67.8946C136.012 68.0001 136.118 68.1055 136.276 68.1847C136.434 68.2638 136.619 68.2902 136.777 68.2902C137.436 68.2902 137.964 68.0528 138.333 67.5781C138.702 67.1033 138.887 66.3913 138.887 65.4418V58.8484C138.887 58.6638 138.861 58.4791 138.808 58.3473C138.755 58.2154 138.597 58.1099 138.359 58.0044C138.201 57.9253 137.99 57.8725 137.753 57.8198C137.516 57.767 137.331 57.7407 137.173 57.7143V57.0813H143.397V57.7407H143.476Z" fill="#231F20"/>
<path d="M153.234 66.8132C153.049 67.1297 152.812 67.4198 152.548 67.7099C152.285 68.0001 151.968 68.211 151.625 68.422C151.256 68.633 150.887 68.7913 150.518 68.8968C150.148 69.0023 149.7 69.055 149.225 69.055C148.408 69.055 147.722 68.9495 147.115 68.7121C146.535 68.4748 146.034 68.1847 145.665 67.7891C145.269 67.3935 145.005 66.9451 144.795 66.4176C144.61 65.8902 144.504 65.3099 144.504 64.7033C144.504 64.1495 144.61 63.5956 144.821 63.0945C145.032 62.5934 145.322 62.1187 145.691 61.7231C146.06 61.3275 146.535 61.011 147.115 60.7737C147.696 60.5363 148.329 60.4044 149.014 60.4044C149.779 60.4044 150.412 60.5099 150.913 60.6945C151.414 60.8791 151.81 61.1429 152.126 61.4594C152.443 61.7759 152.654 62.1451 152.812 62.5671C152.944 62.989 153.023 63.4374 153.023 63.9121V64.4396H147.458C147.458 65.5737 147.669 66.4176 148.118 66.9978C148.54 67.5781 149.252 67.8682 150.175 67.8682C150.702 67.8682 151.151 67.7363 151.573 67.4462C151.995 67.1561 152.337 66.8132 152.628 66.3649L153.234 66.8132ZM150.096 63.6748C150.096 63.3583 150.069 63.0154 150.043 62.6726C150.017 62.3297 149.964 62.0396 149.858 61.8286C149.753 61.5649 149.647 61.3802 149.463 61.2484C149.304 61.1165 149.093 61.0638 148.856 61.0638C148.434 61.0638 148.091 61.2748 147.854 61.6967C147.59 62.1187 147.458 62.8044 147.432 63.7275L150.096 63.6748Z" fill="#231F20"/>
<path d="M164.865 68.7649H159.907V68.1583C160.012 68.1583 160.144 68.1319 160.276 68.1056C160.434 68.0792 160.54 68.0528 160.619 68.0264C160.724 67.9737 160.803 67.8682 160.856 67.7627C160.909 67.6572 160.935 67.4726 160.935 67.2616V63.411C160.935 62.8572 160.83 62.4352 160.619 62.1451C160.408 61.855 160.118 61.7231 159.696 61.7231C159.485 61.7231 159.274 61.7495 159.089 61.8286C158.905 61.8814 158.72 61.9869 158.535 62.1187C158.377 62.2242 158.245 62.3297 158.14 62.4616C158.034 62.5671 157.955 62.6726 157.902 62.7781V67.1825C157.902 67.3671 157.929 67.5253 157.981 67.6572C158.034 67.7891 158.14 67.8946 158.245 67.9473C158.324 68.0001 158.43 68.0528 158.562 68.0792C158.694 68.1056 158.825 68.1319 158.957 68.1583V68.7649H153.946V68.1583C154.078 68.1583 154.21 68.1319 154.368 68.1056C154.5 68.0792 154.632 68.0528 154.738 68.0264C154.922 67.9737 155.028 67.8682 155.107 67.7363C155.16 67.6045 155.212 67.4462 155.212 67.2352V62.4352C155.212 62.277 155.159 62.0924 155.08 61.9341C155.001 61.7759 154.869 61.644 154.738 61.5385C154.632 61.4858 154.527 61.4066 154.368 61.3803C154.21 61.3275 154.052 61.3011 153.867 61.3011V60.6945L157.797 60.4836L157.929 60.6154V61.8022H157.955C158.113 61.6704 158.298 61.5121 158.509 61.3011C158.72 61.1165 158.931 60.9583 159.116 60.8264C159.327 60.6945 159.59 60.589 159.907 60.4836C160.223 60.3781 160.592 60.3517 160.962 60.3517C161.858 60.3517 162.518 60.6154 162.966 61.1165C163.414 61.6176 163.625 62.3033 163.625 63.1473V67.1825C163.625 67.3935 163.652 67.5517 163.705 67.6572C163.757 67.7891 163.889 67.8682 164.047 67.9473C164.127 67.9737 164.232 68.0264 164.364 68.0528C164.496 68.0792 164.628 68.1056 164.812 68.1319V68.7649H164.865Z" fill="#231F20"/>
<path d="M176.206 68.7649H172.329C171.854 67.9209 171.406 67.2088 171.01 66.6286C170.615 66.0484 170.245 65.4945 169.903 65.0198L169.428 65.4418V67.2352C169.428 67.4198 169.454 67.6044 169.507 67.7099C169.56 67.8418 169.665 67.9209 169.85 68C169.955 68.0528 170.061 68.0792 170.193 68.1055C170.325 68.1319 170.456 68.1583 170.588 68.1583V68.7649H165.472V68.1583C165.604 68.1583 165.735 68.1319 165.894 68.1055C166.026 68.0792 166.157 68.0528 166.263 68.0264C166.448 67.9737 166.553 67.8682 166.632 67.7363C166.685 67.6044 166.738 67.4462 166.738 67.2352V58.0572C166.738 57.8725 166.685 57.6879 166.606 57.5033C166.527 57.3187 166.421 57.1604 166.263 57.0549C166.157 57.0022 165.999 56.9231 165.788 56.8967C165.577 56.844 165.393 56.8176 165.208 56.8176V56.211L169.296 56L169.428 56.1319V64.6242C169.823 64.255 170.298 63.833 170.799 63.3583C171.3 62.8835 171.722 62.4879 172.012 62.1715C172.197 61.9868 172.303 61.855 172.303 61.7495C172.329 61.644 172.329 61.5912 172.329 61.5649C172.329 61.4594 172.25 61.3802 172.065 61.3275C171.881 61.2747 171.643 61.1956 171.274 61.1429V60.5627H175.441V61.1429C174.887 61.3011 174.465 61.433 174.175 61.5649C173.885 61.6967 173.568 61.8813 173.226 62.0923C172.988 62.2506 172.777 62.4088 172.566 62.5671C172.355 62.7253 172.118 62.9363 171.828 63.1737C172.355 63.9649 172.856 64.677 173.305 65.3363C173.753 65.9956 174.228 66.7077 174.729 67.4462C174.887 67.7099 175.098 67.8682 175.362 67.9737C175.626 68.0528 175.863 68.1055 176.127 68.1319V68.7649H176.206Z" fill="#231F20"/>
<path d="M181.481 68.7649H176.285V68.1583C176.417 68.1583 176.575 68.1319 176.707 68.1056C176.839 68.0792 176.971 68.0528 177.05 68.0264C177.235 67.9737 177.34 67.8682 177.419 67.7363C177.498 67.6045 177.525 67.4462 177.525 67.2352V62.4352C177.525 62.2506 177.472 62.066 177.393 61.9341C177.314 61.7759 177.208 61.6704 177.076 61.5913C176.971 61.5385 176.839 61.4594 176.628 61.4066C176.417 61.3539 176.232 61.3011 176.074 61.3011V60.6945L180.109 60.4836L180.241 60.6154V67.1561C180.241 67.3407 180.294 67.499 180.373 67.6572C180.452 67.7891 180.584 67.8946 180.716 67.9473C180.821 68.0001 180.953 68.0528 181.085 68.0792C181.217 68.1056 181.349 68.1319 181.507 68.1583V68.7649H181.481ZM180.294 57.5561C180.294 57.9781 180.136 58.3209 179.819 58.611C179.503 58.9011 179.107 59.0594 178.685 59.0594C178.237 59.0594 177.868 58.9011 177.525 58.611C177.208 58.3209 177.05 57.9517 177.05 57.5561C177.05 57.1341 177.208 56.7912 177.525 56.4748C177.841 56.1846 178.237 56.0264 178.685 56.0264C179.134 56.0264 179.503 56.1846 179.819 56.4748C180.136 56.7649 180.294 57.1341 180.294 57.5561Z" fill="#231F20"/>
<path d="M193.111 68.7649H188.153V68.1583C188.258 68.1583 188.39 68.1319 188.522 68.1056C188.68 68.0792 188.786 68.0528 188.865 68.0264C188.97 67.9737 189.05 67.8682 189.102 67.7627C189.155 67.6572 189.181 67.4726 189.181 67.2616V63.411C189.181 62.8572 189.076 62.4352 188.865 62.1451C188.654 61.855 188.364 61.7231 187.942 61.7231C187.731 61.7231 187.52 61.7495 187.335 61.8286C187.151 61.9077 186.966 61.9869 186.781 62.1187C186.623 62.2242 186.491 62.3297 186.386 62.4616C186.28 62.5671 186.201 62.6726 186.148 62.7781V67.1825C186.148 67.3671 186.175 67.5253 186.228 67.6572C186.28 67.7891 186.386 67.8946 186.491 67.9473C186.57 68.0001 186.676 68.0528 186.808 68.0792C186.94 68.1056 187.072 68.1319 187.203 68.1583V68.7649H182.192V68.1583C182.324 68.1583 182.456 68.1319 182.614 68.1056C182.746 68.0792 182.878 68.0528 182.984 68.0264C183.168 67.9737 183.274 67.8682 183.353 67.7363C183.406 67.6045 183.458 67.4462 183.458 67.2352V62.4352C183.458 62.277 183.406 62.0924 183.326 61.9341C183.247 61.7759 183.115 61.644 182.984 61.5385C182.878 61.4858 182.773 61.4066 182.614 61.3803C182.456 61.3275 182.298 61.3011 182.113 61.3011V60.6945L186.043 60.4836L186.175 60.6154V61.8022H186.201C186.359 61.6704 186.544 61.5121 186.755 61.3011C186.966 61.1165 187.177 60.9583 187.362 60.8264C187.573 60.6945 187.836 60.589 188.153 60.4836C188.469 60.3781 188.839 60.3517 189.208 60.3517C190.105 60.3517 190.764 60.6154 191.212 61.1165C191.661 61.6176 191.872 62.3033 191.872 63.1473V67.1825C191.872 67.3935 191.898 67.5517 191.951 67.6572C192.003 67.7891 192.135 67.8682 192.294 67.9473C192.373 67.9737 192.478 68.0264 192.61 68.0528C192.742 68.0792 192.874 68.1056 193.058 68.1319V68.7649H193.111Z" fill="#231F20"/>
<path d="M197.674 69.055C197.147 69.055 196.619 68.9759 196.118 68.8176C195.617 68.6594 195.222 68.5012 194.931 68.3165L194.694 68.8704H194.061L193.956 65.811H194.562C194.641 66.0484 194.773 66.3385 194.984 66.655C195.169 66.9715 195.406 67.2352 195.643 67.499C195.907 67.7363 196.197 67.9473 196.54 68.1319C196.883 68.2902 197.226 68.3957 197.595 68.3957C198.096 68.3957 198.465 68.2902 198.703 68.1055C198.94 67.9209 199.072 67.6044 199.072 67.2088C199.072 66.9978 199.019 66.8132 198.914 66.655C198.808 66.5231 198.65 66.3913 198.465 66.2858C198.254 66.1803 198.017 66.0748 197.753 65.9956C197.49 65.9165 197.173 65.8374 196.804 65.7055C196.435 65.6 196.118 65.4945 195.854 65.3627C195.591 65.2572 195.301 65.0726 195.037 64.8352C194.8 64.6242 194.589 64.3605 194.457 64.0704C194.298 63.7803 194.246 63.411 194.246 62.989C194.246 62.2242 194.562 61.5912 195.222 61.1165C195.881 60.6418 196.725 60.4044 197.78 60.4044C198.281 60.4044 198.729 60.4572 199.151 60.5627C199.573 60.6682 199.916 60.7737 200.206 60.9055L200.391 60.4308H201.024L201.156 63.2264H200.575C200.391 62.6462 200.048 62.1715 199.6 61.7495C199.125 61.3275 198.624 61.1165 198.096 61.1165C197.674 61.1165 197.331 61.1956 197.094 61.3802C196.857 61.5649 196.725 61.8022 196.725 62.1187C196.725 62.5407 196.909 62.8308 197.252 63.0154C197.595 63.2 198.096 63.3846 198.729 63.5429C199.705 63.8066 200.417 64.1495 200.892 64.5715C201.34 65.0198 201.578 65.5737 201.578 66.233C201.578 67.1297 201.235 67.8418 200.523 68.3165C199.731 68.7913 198.808 69.055 197.674 69.055Z" fill="#231F20"/>
<path d="M123.949 61.3139C123.949 71.3078 116.026 79.4171 106.246 79.4171C96.4662 79.4171 88.5425 71.3078 88.5425 61.3139C88.5425 51.32 96.4662 43.2107 106.246 43.2107C116.026 43.2107 123.949 51.32 123.949 61.3139Z" fill="#D33833"/>
<path d="M89.2708 65.7969C89.2708 65.7969 87.9858 46.9227 105.389 46.3802L104.176 44.3529L94.7388 47.5224L92.0405 50.6205L89.6848 55.132L88.3428 60.3859L88.7425 63.898" fill="#EF3D3A"/>
<path d="M94.1248 48.9643C91.0267 52.1481 89.0993 56.5311 89.0993 61.3853C89.0993 66.2394 91.0267 70.6225 94.1248 73.8062C97.2372 76.99 101.506 78.9459 106.246 78.9459C110.986 78.9459 115.255 76.99 118.367 73.8062C121.465 70.6225 123.393 66.2394 123.393 61.3853C123.393 56.5311 121.465 52.1481 118.367 48.9643C115.255 45.7949 110.986 43.8246 106.246 43.8246C101.52 43.8246 97.2372 45.7806 94.1248 48.9643ZM93.3396 74.5629C90.0416 71.1936 88 66.525 88 61.3853C88 56.2456 90.0416 51.577 93.3396 48.1934C96.6376 44.824 101.206 42.7253 106.246 42.7253C111.286 42.7253 115.854 44.824 119.152 48.1934C122.45 51.5627 124.492 56.2313 124.492 61.3853C124.492 66.525 122.45 71.1936 119.152 74.5629C115.854 77.9466 111.286 80.031 106.246 80.031C101.206 80.031 96.6376 77.9466 93.3396 74.5629Z" fill="#231F20"/>
<path d="M113.699 61.4138L111 61.8136L107.36 62.2276L105.004 62.2847L102.705 62.2133L100.949 61.6708L99.393 59.9861L98.1795 56.5454L97.9082 55.803L96.2949 55.2604L95.3527 53.7043L94.6816 51.4771L95.424 49.5211L97.1801 48.9072L98.5935 49.5782L99.2645 51.063L100.078 50.9345L100.35 50.5919L100.078 49.0357L100.007 47.0798L100.407 44.3814L100.392 42.8395L101.62 40.8693L103.776 39.3131L107.545 37.6998L111.728 38.3137L115.369 40.9407L117.054 43.639L118.139 45.595L118.41 50.4491L117.596 54.6323L116.111 58.3443L114.712 60.3288" fill="#F0D6B7"/>
<path d="M111.414 73.0781L101.777 73.4779V75.0911L102.591 80.7591L102.191 81.2302L95.4524 78.9316L94.9812 78.1179L94.3102 70.494L92.7255 65.9253L92.3828 64.8403L97.7795 61.1283L99.4642 60.4573L100.949 62.2847L102.234 63.4269L103.719 63.898L104.39 64.0979L105.204 67.61L105.817 68.3524L107.374 67.8099L106.289 69.9086L112.142 72.6783L111.414 73.0781Z" fill="#335061"/>
<path d="M95.4241 49.5497L97.1802 48.9358L98.5936 49.6068L99.2646 51.0916L100.078 50.9631L100.278 50.1493L99.8785 48.5931L100.278 44.8811L99.9356 42.8538L101.149 41.4404L103.776 39.3559L103.034 38.3423L99.3217 40.1697L97.7655 41.3833L96.8946 43.2678L95.5526 45.0953L95.1528 47.2511L95.4241 49.5497Z" fill="#6D6B6D"/>
<path d="M98.1939 43.2107C98.1939 43.2107 99.2075 40.7123 103.248 39.4987C107.288 38.2852 103.448 38.6278 103.448 38.6278L99.0648 40.3125L97.3801 41.9972L96.6377 43.3392L98.1939 43.2107Z" fill="#DCD9D8"/>
<path d="M96.1665 49.0785C96.1665 49.0785 94.7531 44.3529 100.15 43.6819L99.9499 42.8681L96.2379 43.739L95.1528 47.2511L95.4241 49.5497L96.1665 49.0785Z" fill="#DCD9D8"/>
<path d="M98.3223 55.3461L99.2074 54.4895C99.2074 54.4895 99.6072 54.5323 99.6786 55.0035C99.75 55.4746 99.9498 59.7291 102.848 62.0135C103.119 62.2276 100.692 61.6708 100.692 61.6708L98.5364 58.3014" fill="#F7E4CD"/>
<path d="M110.729 54.0612C110.729 54.0612 110.886 52.0196 111.443 52.1766C111.999 52.3337 111.999 52.8905 111.999 52.8905C111.999 52.8905 110.657 53.7471 110.729 54.0612Z" fill="#F7E4CD"/>
<path d="M116.325 46.5801C116.325 46.5801 115.212 46.8085 115.112 47.7936C115.012 48.7787 116.325 47.9935 116.525 47.9221" fill="#F7E4CD"/>
<path d="M108.173 46.6515C108.173 46.6515 106.688 46.8513 106.688 47.7936C106.688 48.7359 108.373 48.6645 108.844 48.2648" fill="#F7E4CD"/>
<path d="M99.0075 51.0345C99.0075 51.0345 96.452 49.4783 96.1807 50.9631C95.9094 52.4479 95.3098 53.5187 96.5805 55.0749L95.7096 54.8036L94.8958 52.7192L94.6245 50.6918L96.1807 49.0786L97.9368 49.207L98.9504 50.0208L99.0075 51.0345Z" fill="#F7E4CD"/>
<path d="M100.221 46.78C100.221 46.78 101.363 40.8407 107.16 39.6986C111.928 38.7563 114.441 39.8985 115.383 40.9835C115.383 40.9835 111.129 35.9295 107.088 37.4714C103.048 39.0276 100.078 41.8544 100.15 43.6676C100.264 46.78 100.221 46.78 100.221 46.78Z" fill="#F7E4CD"/>
<path d="M115.854 41.6545C115.854 41.6545 113.899 41.5831 113.827 43.3392C113.827 43.3392 113.827 43.6105 113.956 43.8817C113.956 43.8817 115.512 42.1257 116.454 43.0679" fill="#F7E4CD"/>
<path d="M107.302 44.0673C107.302 44.0673 106.96 41.3833 104.675 42.9394C103.191 43.9531 103.333 45.3665 103.59 45.6378C103.862 45.909 103.79 46.4516 103.99 46.0804C104.19 45.7092 104.133 44.4956 104.875 44.153C105.603 43.8103 106.831 43.4391 107.302 44.0673Z" fill="#F7E4CD"/>
<path d="M100.964 62.2847L94.6247 65.1116C94.6247 65.1116 97.2516 75.5623 95.9096 78.8032L94.9673 78.4605L94.8959 74.4772L93.1399 66.939L92.3975 64.8546L99.0077 60.4002L100.964 62.2847Z" fill="#49728B"/>
<path d="M101.606 68.0669L102.505 69.1662V73.2066H101.435C101.435 73.2066 101.306 70.3798 101.306 70.0371C101.306 69.6945 101.435 68.4809 101.435 68.4809" fill="#49728B"/>
<path d="M101.634 73.8205L98.5933 73.949L99.4642 74.5629L101.62 74.9055" fill="#49728B"/>
<path d="M112.014 73.1495L114.512 73.0781L115.126 79.2743L112.57 79.6169L112.014 73.1495Z" fill="#335061"/>
<path d="M112.685 73.1495L116.454 72.9496C116.454 72.9496 118.01 69.0377 118.01 68.8378C118.01 68.638 119.352 63.1699 119.352 63.1699L116.311 60.0004L115.697 59.4579L114.084 61.0712V67.3388L112.685 73.1495Z" fill="#335061"/>
<path d="M114.369 72.6783L112.014 73.1495L112.356 75.034C113.227 75.4338 114.712 74.363 114.712 74.363" fill="#49728B"/>
<path d="M114.441 60.8713L119.167 64.3834L119.295 62.7701L115.726 59.4722L114.441 60.8713Z" fill="#49728B"/>
<path d="M103.976 86.427L102.577 80.7591L101.877 76.5759L101.763 73.4778L108.088 73.1352H112.014L111.657 80.2166L112.271 85.6846L112.2 86.6983L107.074 87.0981L103.976 86.427Z" fill="white"/>
<path d="M111.143 73.0781C111.143 73.0781 110.801 80.0881 111.814 85.085C111.814 85.085 109.787 86.3699 106.832 86.6983L112.499 86.4984L113.171 86.0987L112.357 75.0483L112.143 72.6783" fill="#DCD9D8"/>
<path d="M115.226 78.746L117.853 78.0036L122.836 77.7324L123.578 75.4338L122.236 71.4505L120.68 71.2506L118.524 71.9217L116.468 72.9353L115.369 72.7354L114.512 73.0781" fill="white"/>
<path d="M115.183 77.3897C115.183 77.3897 116.939 76.576 117.21 76.6473L116.468 72.9353L117.339 72.5927C117.339 72.5927 117.953 76.1048 117.953 76.5046C117.953 76.5046 121.722 76.7044 122.065 76.7044C122.065 76.7044 122.878 75.1483 122.679 73.535L123.421 75.6908L123.492 76.9043L122.407 78.5176L121.194 78.7889L119.166 78.7175L118.495 77.8466L116.14 78.1892L115.397 78.4605" fill="#DCD9D8"/>
<path d="M112.528 72.607L111.043 68.8378L109.487 66.6106C109.487 66.6106 109.829 65.6684 110.301 65.6684H111.857L113.342 66.2109L113.213 68.7094L112.528 72.607Z" fill="white"/>
<path d="M112.827 71.322C112.827 71.322 110.943 67.6814 110.943 67.1389C110.943 67.1389 111.286 66.3251 111.757 66.525C112.228 66.7249 113.241 67.2674 113.241 67.2674V65.9825L110.943 65.5113L109.387 65.7112L112.014 71.9359L112.556 72.0073" fill="#DCD9D8"/>
<path d="M104.576 62.4275L102.705 62.2276L100.949 61.6851V62.299L101.806 63.2413L104.504 64.4548" fill="white"/>
<path d="M101.563 62.6274C101.563 62.6274 103.647 63.4983 104.333 63.2984L104.404 64.1122L102.52 63.7124L101.377 62.8986L101.563 62.6274Z" fill="#DCD9D8"/>
<path d="M115.226 65.8968C114.084 65.8682 113.042 65.7255 112.142 65.4685C112.199 65.0973 112.085 64.7404 112.185 64.4691C112.442 64.2835 112.856 64.2835 113.242 64.2407C112.913 64.0836 112.442 64.0122 112.071 64.1122C112.057 63.8552 111.942 63.6981 111.871 63.4983C112.514 63.2698 114.027 61.7708 114.884 62.2562C115.298 62.4989 115.469 63.8409 115.497 64.5119C115.526 65.0545 115.44 65.597 115.226 65.8968Z" fill="#D33833"/>
<path d="M115.226 65.8968C114.084 65.8682 113.042 65.7255 112.142 65.4685C112.199 65.0973 112.085 64.7404 112.185 64.4691C112.442 64.2835 112.856 64.2835 113.242 64.2407C112.913 64.0836 112.442 64.0122 112.071 64.1122C112.057 63.8552 111.942 63.6981 111.871 63.4983C112.514 63.2698 114.027 61.7708 114.884 62.2562C115.298 62.4989 115.469 63.8409 115.497 64.5119C115.526 65.0545 115.44 65.597 115.226 65.8968Z" fill="black"/>
<path d="M109.758 64.0265C109.758 64.1122 109.758 64.1978 109.744 64.2835C109.387 64.5119 108.816 64.5119 108.416 64.7118C108.987 64.7404 109.444 64.8831 109.844 65.0687C109.83 65.2829 109.83 65.5113 109.815 65.7255C109.159 66.1681 108.559 66.8391 107.788 67.2674C107.417 67.4673 106.146 67.9812 105.761 67.8813C105.546 67.8242 105.518 67.5529 105.432 67.2959C105.247 66.7534 104.818 65.8682 104.776 65.0402C104.733 63.998 104.618 62.2419 105.746 62.4561C106.66 62.6274 107.717 63.0414 108.416 63.4269C108.859 63.6839 109.101 63.9694 109.758 64.0265Z" fill="#D33833"/>
<path d="M109.758 64.0265C109.758 64.1122 109.758 64.1978 109.744 64.2835C109.387 64.5119 108.816 64.5119 108.416 64.7118C108.987 64.7404 109.444 64.8831 109.844 65.0687C109.83 65.2829 109.83 65.5113 109.815 65.7255C109.159 66.1681 108.559 66.8391 107.788 67.2674C107.417 67.4673 106.146 67.9812 105.761 67.8813C105.546 67.8242 105.518 67.5529 105.432 67.2959C105.247 66.7534 104.818 65.8682 104.776 65.0402C104.733 63.998 104.618 62.2419 105.746 62.4561C106.66 62.6274 107.717 63.0414 108.416 63.4269C108.859 63.6839 109.101 63.9694 109.758 64.0265Z" fill="black"/>
<path d="M110.4 65.2686C110.3 64.6975 110.186 64.5405 110.229 64.0408C111.757 63.0271 112.028 65.7826 110.4 65.2686Z" fill="#D33833"/>
<path d="M110.4 65.2686C110.3 64.6975 110.186 64.5405 110.229 64.0408C111.757 63.0271 112.028 65.7826 110.4 65.2686Z" fill="black"/>
<path d="M112.599 65.7255C112.599 65.7255 112.128 65.0544 112.471 64.8546C112.814 64.6547 113.142 64.8546 113.342 64.5119C113.542 64.1693 113.342 63.9694 113.413 63.5696C113.485 63.1699 113.813 63.0985 114.156 63.0271C114.498 62.9557 115.441 62.8272 115.569 63.1556L115.169 61.9421L114.355 61.6708L111.8 63.1556L111.671 63.898V65.3828" fill="#EF3D3A"/>
<path d="M105.518 67.9527C105.432 66.8962 105.346 65.854 105.261 64.7975C105.118 63.227 105.632 63.4983 107.002 63.4983C107.217 63.4983 108.287 63.741 108.359 63.898C108.73 64.6547 107.745 64.4834 108.787 65.0545C109.658 65.5256 111.214 64.7689 110.857 63.6982C110.657 63.4554 109.829 63.6268 109.53 63.4697C109.001 63.1985 108.473 62.9272 107.945 62.6559C107.274 62.3133 105.732 61.7993 105.018 62.2847C103.205 63.5126 105.132 66.5964 105.775 67.8813" fill="#EF3D3A"/>
<path d="M107.303 44.0673C105.461 43.639 104.547 44.8383 103.99 46.0804C103.491 45.9662 103.69 45.2809 103.819 44.9382C104.147 44.0388 105.475 42.8252 106.56 42.9965C107.017 43.0537 107.645 43.482 107.303 44.0673Z" fill="#231F20"/>
<path d="M116.254 46.1518H116.34C116.754 47.0084 117.111 47.9221 117.639 48.6931C117.282 49.5211 114.983 50.235 115.012 48.7787C115.512 48.5646 116.368 48.7359 116.811 48.4504C116.554 47.7508 116.197 47.1512 116.254 46.1518Z" fill="#231F20"/>
<path d="M108.23 46.1803C108.63 46.9085 108.759 47.6651 109.315 48.2077C109.572 48.4504 110.058 48.7502 109.815 49.4355C109.758 49.5925 109.344 49.9494 109.101 50.0208C108.23 50.2778 106.189 50.0779 106.874 48.9786C107.602 49.0072 108.573 49.4498 109.115 48.9215C108.701 48.2648 107.959 46.9513 108.23 46.1803Z" fill="#231F20"/>
<path d="M115.926 53.5187C114.612 54.361 113.142 55.289 110.972 55.0748C110.515 54.6751 110.329 53.7756 110.786 53.1903C111.015 53.59 110.872 54.3324 111.528 54.4467C112.756 54.6608 114.184 53.69 115.069 53.3616C115.612 52.4336 115.026 52.1052 114.527 51.5056C113.513 50.2921 112.171 48.7787 112.214 46.9655C112.628 46.6657 112.656 47.4224 112.713 47.5509C113.242 48.7787 114.569 50.3635 115.526 51.4199C115.769 51.6769 116.154 51.9339 116.197 52.1052C116.326 52.5907 115.869 53.1903 115.926 53.5187Z" fill="#231F20"/>
<path d="M98.5363 52.6335C98.1222 52.3908 98.0223 51.3629 97.5369 51.3343C96.8373 51.2915 96.9658 52.6763 96.9658 53.4901C96.4947 53.0618 96.409 51.7198 96.7517 51.0345C96.3519 50.8346 96.1806 51.2486 95.9521 51.3914C96.252 49.3213 98.9931 50.4349 98.5363 52.6335Z" fill="#231F20"/>
<path d="M116.754 54.3896C116.14 55.5603 115.269 56.8452 113.47 56.888C113.427 56.5168 113.399 55.9315 113.47 55.703C114.855 55.5603 115.712 54.8607 116.754 54.3896Z" fill="#231F20"/>
<path d="M108.13 55.1462C109.273 55.7459 111.386 55.8173 112.956 55.7744C113.042 56.1171 113.042 56.5454 113.042 56.9594C111.029 57.0451 108.659 56.5454 108.13 55.1462Z" fill="#231F20"/>
<path d="M107.916 56.2599C108.716 58.2586 111.443 58.0302 113.741 57.9731C113.641 58.2301 113.427 58.5442 113.142 58.6441C112.399 58.9439 110.372 59.1724 109.344 58.6298C108.701 58.2872 108.273 57.502 107.916 57.0451C107.759 56.8309 106.903 56.2741 107.916 56.2599Z" fill="#231F20"/>
<path d="M115.826 67.2674C114.898 68.8664 113.998 70.5082 112.899 71.9074C113.356 70.5511 113.556 68.2668 113.627 66.525C114.598 66.0681 115.426 66.6249 115.826 67.2674Z" fill="#81B0C4"/>
<path d="M120.837 73.0067C119.795 73.2209 119.067 74.2345 118.039 74.1631C118.61 73.3779 119.58 73.0353 120.837 73.0067Z" fill="#231F20"/>
<path d="M121.294 74.6343C120.437 74.7199 119.438 74.8627 118.581 74.7913C118.995 74.1631 120.566 74.3916 121.294 74.6343Z" fill="#231F20"/>
<path d="M121.594 76.0477C120.637 76.062 119.452 76.0477 118.539 75.9763C119.081 75.391 120.98 75.7622 121.594 76.0477Z" fill="#231F20"/>
<path d="M114.027 79.9025C114.17 81.1017 114.641 82.3153 114.584 83.6288C114.055 83.8001 113.756 83.9571 113.042 83.9571C112.999 82.8435 112.842 81.1303 112.885 80.0595C113.227 80.0881 113.741 79.8168 114.027 79.9025Z" fill="#DCD9D8"/>
<path d="M112.485 62.1991C112 62.5132 111.6 62.8986 111.129 63.2413C110.101 63.2984 109.544 63.1699 108.802 62.5845C108.816 62.5417 108.887 62.556 108.887 62.4989C109.987 62.9843 111.386 62.299 112.485 62.1991Z" fill="#F0D6B7"/>
<path d="M106.746 69.6659C107.045 68.3667 108.23 67.6814 109.301 66.9676C110.401 68.3667 111.072 70.1656 111.814 71.9074C110.058 71.3791 108.273 70.5368 106.746 69.6659Z" fill="#81B0C4"/>
<path d="M112.885 80.0738C112.842 81.1446 112.984 82.8435 113.042 83.9714C113.755 83.9714 114.055 83.8144 114.583 83.643C114.641 82.3296 114.169 81.116 114.027 79.9168C113.741 79.8168 113.227 80.0881 112.885 80.0738ZM101.863 74.0204C102.334 78.3177 103.005 81.9155 104.247 85.7275C107.002 86.5698 110.315 86.6412 112.756 85.8845C112.313 83.743 112.499 81.1303 112.242 78.8317C112.042 77.1042 112.142 75.3767 111.871 73.6206C108.916 73.0067 104.747 73.4779 101.863 74.0204ZM112.57 73.6492C112.542 75.4909 112.656 77.3184 112.799 79.1601C113.513 79.0601 113.984 78.9888 114.641 78.8317C114.426 77.0614 114.455 75.0483 114.012 73.4779C113.513 73.4921 113.07 73.4779 112.57 73.6492ZM116.154 73.3494C115.811 73.278 115.426 73.3494 115.112 73.3494C115.269 74.8484 115.626 76.5046 115.754 78.0893C116.254 78.1036 116.525 77.8609 116.939 77.7895C116.968 76.4046 116.825 74.4915 116.154 73.3494ZM121.593 78.3177C122.65 78.0608 123.307 76.7758 123.007 75.4481C122.807 74.5629 122.464 72.8782 122.079 72.3071C121.808 71.8931 121.051 71.3363 120.437 71.7218C119.452 72.35 117.724 72.5356 117.011 73.2923C117.367 74.4915 117.482 76.1191 117.624 77.6324C118.852 77.7038 120.351 77.2898 121.379 77.7324C120.665 77.9608 119.752 77.9608 119.138 78.3035C119.652 78.5462 120.822 78.5033 121.593 78.3177ZM111.799 71.9074C111.057 70.1656 110.386 68.3667 109.287 66.9676C108.216 67.6814 107.045 68.3667 106.731 69.6659C108.273 70.5368 110.058 71.3791 111.799 71.9074ZM113.627 66.525C113.556 68.2668 113.356 70.5511 112.899 71.9074C113.998 70.494 114.898 68.8664 115.826 67.2674C115.426 66.6249 114.598 66.0681 113.627 66.525ZM111.557 65.7969C111.143 65.754 110.786 66.2823 110.243 66.0538C110.115 66.1966 110.001 66.3394 109.872 66.4821C111.071 67.9384 111.628 69.9943 112.556 71.6932C113.056 70.0514 112.999 68.2668 113.113 66.4821C112.428 66.5107 112.042 65.8397 111.557 65.7969ZM110.229 64.0408C110.186 64.5405 110.3 64.6975 110.4 65.2686C112.028 65.7826 111.757 63.0271 110.229 64.0408ZM108.416 63.4412C107.716 63.0557 106.66 62.6416 105.746 62.4703C104.618 62.2562 104.732 64.0122 104.775 65.0545C104.818 65.8825 105.246 66.7534 105.432 67.3102C105.518 67.5672 105.546 67.8385 105.76 67.8956C106.146 67.9812 107.431 67.4815 107.788 67.2817C108.559 66.8676 109.158 66.1966 109.815 65.7397C109.829 65.5256 109.829 65.2972 109.844 65.083C109.444 64.8831 109.001 64.7546 108.416 64.7261C108.801 64.5262 109.387 64.5262 109.744 64.2978C109.744 64.2121 109.744 64.1264 109.758 64.0408C109.101 63.9694 108.858 63.6839 108.416 63.4412ZM101.706 62.2276C101.12 62.8272 103.348 63.6268 104.047 63.6696C104.047 63.2984 104.261 62.9415 104.218 62.6702C103.376 62.5274 102.277 62.6274 101.706 62.2276ZM108.901 62.4989C108.901 62.556 108.83 62.5417 108.816 62.5845C109.572 63.1699 110.129 63.2984 111.143 63.2413C111.6 62.9129 112.014 62.5132 112.499 62.1991C111.385 62.299 109.986 62.9843 108.901 62.4989ZM115.497 64.4977C115.469 63.8409 115.297 62.4846 114.883 62.2419C114.027 61.7422 112.513 63.2556 111.871 63.484C111.942 63.6839 112.056 63.8409 112.071 64.0979C112.456 63.998 112.913 64.0693 113.241 64.2264C112.856 64.2692 112.442 64.2692 112.185 64.4548C112.099 64.7261 112.213 65.083 112.142 65.4542C113.042 65.7112 114.084 65.8397 115.226 65.8825C115.44 65.597 115.526 65.0545 115.497 64.4977ZM100.721 62.7987C100.535 62.6702 99.2928 61.0569 99.1215 61.1283C96.88 62.0135 94.7813 63.5411 92.9111 64.9973C94.6957 68.8378 95.4238 73.535 95.5523 78.0608C97.5939 79.0173 99.3928 80.4022 102.177 80.5449C101.848 78.2749 101.563 76.2333 101.377 74.0918C100.678 73.7919 99.6783 74.106 99.0216 74.0061C99.0216 73.2209 100.021 73.6635 100.107 73.1352C100.164 72.7355 99.5498 72.7069 99.7497 72.0787C100.264 72.2643 100.535 72.6783 101.077 72.8354C101.577 71.7503 101.077 69.823 101.149 68.9092C101.163 68.7379 101.235 67.9669 101.62 68.0954C101.963 68.2097 101.606 70.1656 101.634 71.0222C101.663 71.8217 101.534 72.5784 101.863 73.0781C104.547 72.7069 107.274 72.4785 110.186 72.3928C109.544 72.1215 108.787 71.8646 107.959 71.3934C107.502 71.1364 106.089 70.6082 105.96 70.1799C105.746 69.4946 106.503 69.1377 106.631 68.5523C105.275 69.2947 105.018 67.8385 104.69 66.8248C104.404 65.8968 104.233 65.1972 104.161 64.669C102.976 64.0693 101.72 63.5125 100.721 62.7987ZM114.312 61.3139C116.182 60.4144 116.525 64.6975 115.783 66.0824C115.897 66.4964 116.282 66.6535 116.439 67.0247C115.397 68.895 114.241 70.6367 113.17 72.4785C113.955 71.9788 115.097 72.3928 116.025 72.0216C116.368 71.8931 116.611 71.1079 116.868 70.4797C117.582 68.7665 118.324 66.5964 118.652 64.9688C118.724 64.5976 118.938 63.7838 118.881 63.4554C118.795 62.8558 117.996 62.4132 117.582 62.0563C116.825 61.371 116.354 60.7856 115.554 60.1432C115.254 60.6143 114.569 60.9284 114.312 61.3139ZM96.4517 44.7383C95.5666 45.7235 95.7522 47.5509 95.8521 48.8644C97.4654 47.8507 99.5927 48.95 99.5784 50.6633C100.349 50.649 99.8639 49.7067 99.7212 49.0928C99.2643 47.1083 100.492 44.9668 99.7783 43.1536C98.3934 43.2678 97.2655 43.8246 96.4517 44.7383ZM102.819 39.0418C100.806 39.6129 98.2221 41.0834 97.394 42.8966C98.0365 42.7967 98.4791 42.4826 99.1072 42.4398C99.35 42.4255 99.664 42.5397 99.9353 42.4683C100.478 42.3255 100.949 41.0977 101.363 40.6409C101.763 40.1983 102.248 39.9984 102.577 39.5986C102.791 39.4987 103.105 39.4987 103.119 39.1846C103.033 39.0847 102.933 39.0133 102.819 39.0418ZM113.313 39.5844C111.214 38.3994 107.673 37.5142 105.446 38.6278C103.647 39.5273 101.22 41.0121 100.392 42.8823C101.163 44.6955 100.164 46.3516 100.092 48.1934C100.064 49.1785 100.549 50.0208 100.592 51.0916C100.321 51.5342 99.5213 51.577 98.9645 51.5485C98.7789 50.6062 98.4505 49.5497 97.4797 49.4355C96.1091 49.2784 95.0954 50.4206 95.0383 51.6056C94.9669 53.0047 96.1091 55.3176 97.7367 55.1605C98.3648 55.1034 98.5219 54.4752 99.2072 54.4752C99.5784 55.2176 98.6361 55.4461 98.5362 55.9743C98.5076 56.1171 98.6076 56.6453 98.6789 56.9023C98.9788 58.1159 99.6355 59.7006 100.278 60.6286C101.106 61.8136 102.719 61.9849 104.461 62.0991C104.775 61.4281 105.917 61.4852 106.66 61.6565C105.76 61.2996 104.932 60.443 104.247 59.6863C103.462 58.8154 102.662 57.8874 102.619 56.7453C104.118 58.8154 105.346 60.6286 108.059 61.5423C110.115 62.2276 112.513 61.2282 114.098 60.1146C114.755 59.6578 115.14 58.9154 115.611 58.2586C117.353 55.7459 118.167 52.1766 117.996 48.7073C117.924 47.2796 117.924 45.852 117.439 44.8954C116.939 43.896 115.24 42.9823 114.241 43.896C114.055 42.9109 115.069 42.3113 116.254 42.6682C115.412 41.5689 114.526 40.2697 113.313 39.5844ZM117.225 71.8646C118.867 71.0508 121.922 69.6802 122.935 71.8646C123.321 72.6783 123.764 74.0347 123.949 74.877C124.22 76.0477 123.649 78.5319 122.436 78.9174C121.365 79.26 120.123 79.2457 118.838 78.9888C118.681 78.8603 118.524 78.6461 118.395 78.4177C117.482 78.3891 116.611 78.4605 115.897 78.846C115.968 79.5313 115.511 79.6312 115.069 79.774C114.755 81.0446 115.711 82.7008 115.483 83.8429C115.326 84.671 114.312 84.7995 113.57 84.9422C113.541 85.3991 113.598 85.7846 113.655 86.1701C113.484 86.7982 112.727 87.1552 111.999 87.2408C109.615 87.5264 106.003 87.6549 103.719 86.8268C103.076 85.2563 102.577 83.3575 102.048 81.5729C99.8211 81.8156 98.0079 80.6163 96.309 79.8168C95.7236 79.5456 94.9098 79.3885 94.6814 78.9174C94.4672 78.4605 94.5529 77.5896 94.4958 76.7758C94.3673 74.6771 94.2388 72.6498 93.6963 70.5082C93.4536 69.5374 93.011 68.6951 92.7112 67.7671C92.4256 66.9105 91.9402 65.8397 91.8117 64.9831C91.6261 63.7124 92.8254 63.641 93.5821 63.0842C94.7671 62.2276 95.6951 61.7565 96.98 60.9855C97.3655 60.7571 98.5076 60.186 98.6361 59.9147C98.8931 59.3865 98.1935 58.6441 98.0079 58.2301C97.7081 57.5733 97.5511 57.0165 97.5082 56.3741C96.4375 56.2027 95.6094 55.5603 95.124 54.8464C94.3102 53.6472 93.7391 51.4342 94.453 49.7638C94.5101 49.6353 94.7813 49.3641 94.8242 49.1642C94.9098 48.7644 94.6671 48.2362 94.6528 47.8079C94.5815 45.6235 95.024 43.739 96.4946 43.0822C97.0942 40.698 99.2357 39.9127 101.249 38.7278C102.005 38.2852 102.834 37.9996 103.69 37.6855C106.76 36.5577 111.485 36.7718 114.041 38.6992C115.126 39.513 116.853 41.2405 117.467 42.4969C119.109 45.7948 118.981 51.32 117.839 55.3461C117.682 55.8886 117.467 56.6739 117.153 57.3306C116.939 57.7875 116.268 58.6869 116.34 59.0867C116.425 59.5007 117.881 60.6 118.196 60.8999C118.752 61.4424 119.823 62.1562 119.909 62.8415C120.009 63.5696 119.595 64.569 119.381 65.2686C118.695 67.61 118.01 69.7658 117.225 71.8646Z" fill="#231F20"/>
<path d="M106.303 55.6459C106.389 55.5317 106.874 55.3461 107.559 55.6745C107.559 55.6745 106.746 55.803 106.817 57.1593L106.474 57.0879C106.489 57.1022 106.132 55.8744 106.303 55.6459Z" fill="#F7E4CD"/>
<path d="M112.214 67.2388C112.214 67.4387 112.042 67.61 111.842 67.61C111.643 67.61 111.471 67.4387 111.471 67.2388C111.471 67.0389 111.643 66.8676 111.842 66.8676C112.057 66.8676 112.214 67.0389 112.214 67.2388Z" fill="#1D1919"/>
<path d="M112.585 68.9663C112.585 69.1662 112.413 69.3375 112.213 69.3375C112.014 69.3375 111.842 69.1662 111.842 68.9663C111.842 68.7664 112.014 68.5951 112.213 68.5951C112.428 68.5951 112.585 68.7522 112.585 68.9663Z" fill="#1D1919"/>
<defs>
<filter id="filter0_d_755_738155" x="0.1" y="0.1" width="289" height="137.14" filterUnits="userSpaceOnUse" color-interpolation-filters="sRGB">
<feFlood flood-opacity="0" result="BackgroundImageFix"/>
<feColorMatrix in="SourceAlpha" type="matrix" values="0 0 0 0 0 0 0 0 0 0 0 0 0 0 0 0 0 0 127 0" result="hardAlpha"/>
<feOffset dy="6"/>
<feGaussianBlur stdDeviation="13.45"/>
<feComposite in2="hardAlpha" operator="out"/>
<feColorMatrix type="matrix" values="0 0 0 0 0.546429 0 0 0 0 0.546429 0 0 0 0 0.546429 0 0 0 0.19 0"/>
<feBlend mode="normal" in2="BackgroundImageFix" result="effect1_dropShadow_755_738155"/>
<feBlend mode="normal" in="SourceGraphic" in2="effect1_dropShadow_755_738155" result="shape"/>
</filter>
</defs>
</svg>
