<svg width="70" height="69" viewBox="0 0 70 69" fill="none" xmlns="http://www.w3.org/2000/svg">
<path d="M29.6219 53.1593L29.5676 53.96H30.3702C31.7788 53.96 33.1981 53.9799 34.6234 53.9999C38.4574 54.0536 42.3348 54.108 46.1638 53.7773C46.6891 53.7326 47.2256 53.4857 47.6916 53.1949C48.1726 52.8948 48.6499 52.5029 49.0685 52.0837C49.4859 51.6655 49.8652 51.1999 50.1369 50.7426C50.3891 50.3179 50.6271 49.7713 50.5653 49.2343L50.5652 49.2336C50.3408 47.2989 50.8847 46.0589 51.7575 45.0545C52.4484 44.2595 53.3177 43.6302 54.279 42.9342C54.6204 42.687 54.9735 42.4314 55.3342 42.1569L55.3344 42.1569C56.1074 41.5686 56.885 40.9054 57.6426 40.2591C58.117 39.8545 58.5835 39.4565 59.0363 39.0878C60.252 38.0977 61.4556 37.2395 62.7604 36.6916C63.4628 36.3979 64.3856 36.438 65.5405 36.6468C65.9699 36.7244 66.4031 36.8192 66.8518 36.9173C66.9968 36.9491 67.1434 36.9811 67.292 37.0131C67.6106 37.0816 67.9356 37.1489 68.2616 37.2074C68.2119 37.4224 68.1665 37.6372 68.1232 37.8485C68.096 37.9818 68.0697 38.1128 68.0438 38.242C67.9726 38.5969 67.9042 38.9381 67.8251 39.2746C67.6067 40.2034 67.3434 40.9129 66.9104 41.3799C61.9342 46.7258 56.8659 51.9921 51.4065 56.7654L51.4063 56.7656C49.3707 58.5467 46.2562 59.8331 43.5579 60.0218L43.5574 60.0219C36.6508 60.5088 29.6748 60.3604 22.7137 60.0508C22.0038 60.0177 21.143 59.7283 20.3166 59.2572C19.4929 58.7877 18.7719 58.1765 18.3217 57.5721L18.3216 57.5719C16.7642 55.4815 15.5189 53.1956 14.2489 50.8644C13.7838 50.0105 13.3153 49.1505 12.8269 48.2918C14.2729 46.0908 15.9136 44.5754 17.8005 43.6583C19.7927 42.69 22.124 42.3572 24.9077 42.6654L24.9078 42.6655C27.6552 42.969 30.4183 43.0796 33.1647 43.1547C33.7894 43.1718 34.4126 43.1871 35.0346 43.2023C37.1556 43.2541 39.2624 43.3057 41.3648 43.4286C42.0755 43.4731 42.8499 43.5452 43.5384 43.7085C44.2469 43.8765 44.7478 44.1152 45.0193 44.4089C45.572 45.0074 46.1002 45.7819 46.4741 46.5928C46.8489 47.4056 47.0428 48.1981 47.0028 48.8559C47.0027 48.8556 47.0026 48.8555 47.0025 48.8554C46.9994 48.8545 46.9677 48.9514 46.7741 49.1419C46.5658 49.3469 46.2562 49.5748 45.881 49.7927C45.1151 50.2375 44.2317 50.5524 43.6496 50.5917L43.6457 50.592C40.509 50.8206 37.3663 50.7811 34.1882 50.7411C32.9548 50.7256 31.716 50.71 30.4702 50.71H29.7456L29.7206 51.4342C29.7017 51.9825 29.6644 52.5325 29.6255 53.1063L29.6219 53.1593Z" stroke="#0274BA" stroke-width="1.5"/>
<path d="M30.1898 17.1808C30.0879 17.1686 29.9851 17.1563 29.8811 17.1439C31.1807 14.6217 32.462 12.1297 33.7763 9.57351C35.0905 7.01773 36.4376 4.39781 37.8689 1.61947C39.0783 3.90213 40.2431 6.09956 41.3929 8.26845C42.9577 11.2204 44.4945 14.1195 46.0774 17.1087C44.6705 17.2811 43.4653 17.4255 41.9532 17.6066L41.8805 17.6153L41.2208 17.6943L41.2197 18.3588C41.2101 24.1313 41.2097 29.9592 41.2097 36.01H41.1958H41.1801H41.1645H41.1488H41.1332H41.1175H41.1019H41.0863H41.0707H41.0551H41.0395H41.0239H41.0083H40.9927H40.9772H40.9616H40.9461H40.9306H40.915H40.8995H40.884H40.8685H40.853H40.8375H40.8221H40.8066H40.7911H40.7757H40.7602H40.7448H40.7294H40.714H40.6986H40.6831H40.6678H40.6524H40.637H40.6216H40.6062H40.5909H40.5755H40.5602H40.5448H40.5295H40.5142H40.4989H40.4836H40.4683H40.453H40.4377H40.4224H40.4071H40.3919H40.3766H40.3613H40.3461H40.3309H40.3156H40.3004H40.2852H40.27H40.2547H40.2395H40.2243H40.2092H40.194H40.1788H40.1636H40.1485H40.1333H40.1181H40.103H40.0879H40.0727H40.0576H40.0425H40.0273H40.0122H39.9971H39.982H39.9669H39.9518H39.9367H39.9217H39.9066H39.8915H39.8764H39.8614H39.8463H39.8313H39.8162H39.8012H39.7861H39.7711H39.7561H39.7411H39.726H39.711H39.696H39.681H39.666H39.651H39.636H39.621H39.6061H39.5911H39.5761H39.5611H39.5462H39.5312H39.5163H39.5013H39.4864H39.4714H39.4565H39.4415H39.4266H39.4117H39.3967H39.3818H39.3669H39.352H39.3371H39.3222H39.3073H39.2924H39.2775H39.2626H39.2477H39.2328H39.2179H39.203H39.1881H39.1732H39.1584H39.1435H39.1286H39.1138H39.0989H39.084H39.0692H39.0543H39.0395H39.0246H39.0098H38.9949H38.9801H38.9652H38.9504H38.9356H38.9207H38.9059H38.8911H38.8762H38.8614H38.8466H38.8317H38.8169H38.8021H38.7873H38.7725H38.7576H38.7428H38.728H38.7132H38.6984H38.6836H38.6688H38.654H38.6392H38.6244H38.6096H38.5948H38.58H38.5652H38.5504H38.5356H38.5208H38.506H38.4912H38.4764H38.4616H38.4468H38.432H38.4172H38.4024H38.3876H38.3728H38.3581H38.3433H38.3285H38.3137H38.2989H38.2841H38.2693H38.2545H38.2397H38.2249H38.2101H38.1954H38.1806H38.1658H38.151H38.1362H38.1214H38.1066H38.0918H38.077H38.0622H38.0474H38.0326H38.0178H38.003H37.9882H37.9734H37.9586H37.9438H37.929H37.9142H37.8994H37.8846H37.8698H37.855H37.8402H37.8254H37.8106H37.7958H37.7809H37.7661H37.7513H37.7365H37.7217H37.7068H37.692H37.6772H37.6624H37.6475H37.6327H37.6179H37.603H37.5882H37.5733H37.5585H37.5436H37.5288H37.5139H37.4991H37.4842H37.4694H37.4545H37.4396H37.4248H37.4099H37.395H37.3802H37.3653H37.3504H37.3355H37.3206H37.3057H37.2909H37.276H37.2611H37.2462H37.2312H37.2163H37.2014H37.1865H37.1716H37.1567H37.1417H37.1268H37.1119H37.0969H37.082H37.067H37.0521H37.0371H37.0222H37.0072H36.9923H36.9773H36.9623H36.9473H36.9324H36.9174H36.9024H36.8874H36.8724H36.8574H36.8424H36.8274H36.8123H36.7973H36.7823H36.7673H36.7522H36.7372H36.7221H36.7071H36.692H36.677H36.6619H36.6468H36.6318H36.6167H36.6016H36.5865H36.5714H36.5563H36.5412H36.5261H36.511H36.4958H36.4807H36.4656H36.4504H36.4353H36.4201H36.405H36.3898H36.3746H36.3594H36.3443H36.3291H36.3139H36.2987H36.2835H36.2682H36.253H36.2378H36.2226H36.2073H36.1921H36.1768H36.1616H36.1463H36.131H36.1157H36.1004H36.0852H36.0698H36.0545H36.0392H36.0239H36.0086H35.9932H35.9779H35.9625H35.9472H35.9318H35.9164H35.9011H35.8857H35.8703H35.8549H35.8395H35.824H35.8086H35.7932H35.7777H35.7623H35.7468H35.7314H35.7159H35.7004H35.6849H35.6694H35.6539H35.6384H35.6229H35.6073H35.5918H35.5762H35.5607H35.5451H35.5295H35.514H35.4984H35.4828H35.4672H35.4515H35.4359H35.4203H35.4046H35.389H35.3733H35.3576H35.342H35.3263H35.3106H35.2949H35.2791H35.2634H35.2477H35.2319H35.2162H35.2004H35.1846H35.1688H35.153H35.1372H35.1214H35.1056H35.0898H35.0739H35.0581H35.0422H35.0263H35.0104H34.9945H34.9786H34.9627H34.9468H34.9309H34.9149H34.899H34.883H34.8697V35.9788V35.9433V35.9078V35.8723V35.8368V35.8013V35.7658V35.7302V35.6947V35.6592V35.6237V35.5882V35.5527V35.5172V35.4817V35.4461V35.4106V35.3751V35.3396V35.3041V35.2686V35.2331V35.1975V35.162V35.1265V35.091V35.0555V35.02V34.9845V34.9489V34.9134V34.8779V34.8424V34.8069V34.7713V34.7358V34.7003V34.6648V34.6293V34.5937V34.5582V34.5227V34.4872V34.4516V34.4161V34.3806V34.3451V34.3095V34.274V34.2385V34.203V34.1674V34.1319V34.0964V34.0608V34.0253V33.9898V33.9543V33.9187V33.8832V33.8477V33.8121V33.7766V33.7411V33.7055V33.67V33.6344V33.5989V33.5634V33.5278V33.4923V33.4568V33.4212V33.3857V33.3501V33.3146V33.279V33.2435V33.208V33.1724V33.1369V33.1013V33.0658V33.0302V32.9947V32.9591V32.9236V32.888V32.8525V32.8169V32.7813V32.7458V32.7102V32.6747V32.6391V32.6036V32.568V32.5324V32.4969V32.4613V32.4257V32.3902V32.3546V32.319V32.2835V32.2479V32.2123V32.1768V32.1412V32.1056V32.0701V32.0345V31.9989V31.9633V31.9277V31.8922V31.8566V31.821V31.7854V31.7498V31.7143V31.6787V31.6431V31.6075V31.5719V31.5363V31.5007V31.4651V31.4296V31.394V31.3584V31.3228V31.2872V31.2516V31.216V31.1804V31.1448V31.1092V31.0736V31.038V31.0023V30.9667V30.9311V30.8955V30.8599V30.8243V30.7887V30.7531V30.7174V30.6818V30.6462V30.6106V30.575V30.5393V30.5037V30.4681V30.4325V30.3968V30.3612V30.3256V30.2899V30.2543V30.2187V30.183V30.1474V30.1118V30.0761V30.0405V30.0048V29.9692V29.9335V29.8979V29.8622V29.8266V29.7909V29.7553V29.7196V29.684V29.6483V29.6126V29.577V29.5413V29.5057V29.47V29.4343V29.3986V29.363V29.3273V29.2916V29.256V29.2203V29.1846V29.1489V29.1132V29.0775V29.0419V29.0062V28.9705V28.9348V28.8991V28.8634V28.8277V28.792V28.7563V28.7206V28.6849V28.6492V28.6135V28.5778V28.5421V28.5064V28.4707V28.4349V28.3992V28.3635V28.3278V28.2921V28.2563V28.2206V28.1849V28.1492V28.1134V28.0777V28.042V28.0062V27.9705V27.9347V27.899V27.8633V27.8275V27.7918V27.756V27.7203V27.6845V27.6487V27.613V27.5772V27.5415V27.5057V27.4699V27.4342V27.3984V27.3626V27.3269V27.2911V27.2553V27.2195V27.1837V27.148V27.1122V27.0764V27.0406V27.0048V26.969V26.9332V26.8974V26.8616V26.8258V26.79V26.7542V26.7184V26.6826V26.6468V26.611V26.5751V26.5393V26.5035V26.4677V26.4318V26.396V26.3602V26.3244V26.2885V26.2527V26.2168V26.181V26.1452V26.1093V26.0735V26.0376V26.0018V25.9659V25.93V25.8942V25.8583V25.8225V25.7866V25.7507V25.7148V25.679V25.6431V25.6072V25.5713V25.5354V25.4996V25.4637V25.4278V25.3919V25.356V25.3201V25.2842V25.2483V25.2124V25.1765V25.1406V25.1047V25.0687V25.0328V24.9969V24.961V24.9251V24.8891V24.8532V24.8173V24.7813V24.7454V24.7094V24.6735V24.6376V24.6016V24.5657V24.5297V24.4938V24.4578V24.4218V24.3859V24.3499V24.3139V24.278V24.242V24.206V24.17V24.134V24.0981V24.0621V24.0261V23.9901V23.9541V23.9181V23.8821V23.8461V23.8101V23.7741V23.7381V23.702V23.666V23.63V23.594V23.558V23.5219V23.4859V23.4499V23.4138V23.3778V23.3417V23.3057V23.2696V23.2336V23.1975V23.1615V23.1254V23.0893V23.0533V23.0172V22.9811V22.9451V22.909V22.8729V22.8368V22.8007V22.7646V22.7285V22.6925V22.6564V22.6203V22.5841V22.548V22.5119V22.4758V22.4397V22.4036V22.3675V22.3313V22.2952V22.2591V22.2229V22.1868V22.1506V22.1145V22.0784V22.0422V22.006V21.9699V21.9337V21.8976V21.8614V21.8252V21.7891V21.7529V21.7167V21.6805V21.6443V21.6081V21.5719V21.5358V21.4996V21.4634V21.4271V21.3909V21.3547V21.3185V21.2823V21.2461V21.2098V21.1736V21.1374V21.1011V21.0649V21.0287V20.9924V20.9562V20.9199V20.8837V20.8474V20.8111V20.7749V20.7386V20.7023V20.6661V20.6298V20.5935V20.5572V20.5209V20.4846V20.4483V20.412V20.3757V20.3394V20.3031V20.2668V20.2305V20.1942V20.1578V20.1215V20.0852V20.0489V20.0125V19.9762V19.9398V19.9035V19.8671V19.8308V19.7944V19.758V19.7217V19.6853V19.6489V19.6126V19.5762V19.5398V19.5034V19.467V19.4306V19.3942V19.3578V19.3214V19.285V19.2486V19.2122V19.1757V19.1393V19.1029V19.0664V19.03V18.9936V18.9571V18.9207V18.8842V18.8478V18.8113V18.7748V18.7384V18.7019V18.6654V18.629V18.5925V18.556V18.5195V18.483V18.4465V18.41V17.7458L34.2104 17.6655C32.7214 17.4841 31.5404 17.3426 30.1898 17.1808Z" stroke="#0274BA" stroke-width="1.5"/>
<path d="M6.88477 45.2511C10.7877 51.9438 14.4925 58.3067 18.4053 65.0277C18.0334 65.2573 17.6813 65.4721 17.3455 65.677C16.3432 66.2885 15.4858 66.8115 14.6808 67.3749C13.7053 68.0534 13.0755 68.1806 12.6298 68.0697C12.175 67.9565 11.6454 67.5309 11.0362 66.4369C8.67959 62.1574 6.22187 57.937 3.65904 53.5362C2.78794 52.0404 1.90469 50.5237 1.00914 48.9767C1.93935 48.3852 2.85518 47.8052 3.81395 47.1981C4.77516 46.5895 5.77952 45.9535 6.88477 45.2511Z" stroke="#0274BA" stroke-width="1.5"/>
<path d="M51.52 29.25V28.6584L50.9447 28.5206C49.774 28.2402 48.8332 28.0185 47.8083 27.777C47.6623 27.7426 47.5146 27.7078 47.3642 27.6724C48.5902 25.3402 49.7805 23.073 50.9969 20.7558C51.8286 19.1716 52.6725 17.5641 53.5485 15.8964C55.3794 19.2961 57.0517 22.4277 58.5473 25.2284C58.8641 25.8215 59.1729 26.3998 59.4737 26.9627C57.8696 29.1072 56.4108 31.0613 55.0182 32.9269C53.9584 34.3466 52.9369 35.715 51.9188 37.0769L51.7432 37.0096L51.52 36.9241V36.918V36.9022V36.8864V36.8706V36.8548V36.8389V36.8231V36.8073V36.7915V36.7757V36.7599V36.7441V36.7282V36.7124V36.6966V36.6808V36.665V36.6492V36.6333V36.6175V36.6017V36.5859V36.5701V36.5543V36.5385V36.5226V36.5068V36.491V36.4752V36.4594V36.4436V36.4277V36.4119V36.3961V36.3803V36.3645V36.3487V36.3328V36.317V36.3012V36.2854V36.2696V36.2537V36.2379V36.2221V36.2063V36.1905V36.1747V36.1588V36.143V36.1272V36.1114V36.0956V36.0797V36.0639V36.0481V36.0323V36.0164V36.0006V35.9848V35.969V35.9532V35.9373V35.9215V35.9057V35.8899V35.874V35.8582V35.8424V35.8266V35.8107V35.7949V35.7791V35.7633V35.7474V35.7316V35.7158V35.7V35.6841V35.6683V35.6525V35.6367V35.6208V35.605V35.5892V35.5733V35.5575V35.5417V35.5258V35.51V35.4942V35.4783V35.4625V35.4467V35.4308V35.415V35.3992V35.3833V35.3675V35.3517V35.3358V35.32V35.3041V35.2883V35.2725V35.2566V35.2408V35.2249V35.2091V35.1933V35.1774V35.1616V35.1457V35.1299V35.114V35.0982V35.0824V35.0665V35.0507V35.0348V35.019V35.0031V34.9873V34.9714V34.9556V34.9397V34.9239V34.908V34.8922V34.8763V34.8605V34.8446V34.8288V34.8129V34.797V34.7812V34.7653V34.7495V34.7336V34.7177V34.7019V34.686V34.6702V34.6543V34.6384V34.6226V34.6067V34.5908V34.575V34.5591V34.5432V34.5274V34.5115V34.4956V34.4798V34.4639V34.448V34.4321V34.4163V34.4004V34.3845V34.3686V34.3528V34.3369V34.321V34.3051V34.2892V34.2734V34.2575V34.2416V34.2257V34.2098V34.1939V34.1781V34.1622V34.1463V34.1304V34.1145V34.0986V34.0827V34.0668V34.0509V34.035V34.0191V34.0032V33.9874V33.9715V33.9556V33.9397V33.9238V33.9078V33.8919V33.876V33.8601V33.8442V33.8283V33.8124V33.7965V33.7806V33.7647V33.7488V33.7329V33.7169V33.701V33.6851V33.6692V33.6533V33.6374V33.6214V33.6055V33.5896V33.5737V33.5577V33.5418V33.5259V33.51V33.494V33.4781V33.4622V33.4462V33.4303V33.4144V33.3984V33.3825V33.3666V33.3506V33.3347V33.3187V33.3028V33.2869V33.2709V33.255V33.239V33.2231V33.2071V33.1912V33.1752V33.1593V33.1433V33.1274V33.1114V33.0954V33.0795V33.0635V33.0476V33.0316V33.0156V32.9997V32.9837V32.9677V32.9518V32.9358V32.9198V32.9038V32.8879V32.8719V32.8559V32.8399V32.8239V32.808V32.792V32.776V32.76V32.744V32.728V32.7121V32.6961V32.6801V32.6641V32.6481V32.6321V32.6161V32.6001V32.5841V32.5681V32.5521V32.5361V32.5201V32.5041V32.4881V32.472V32.456V32.44V32.424V32.408V32.392V32.3759V32.3599V32.3439V32.3279V32.3119V32.2958V32.2798V32.2638V32.2477V32.2317V32.2157V32.1996V32.1836V32.1676V32.1515V32.1355V32.1194V32.1034V32.0873V32.0713V32.0552V32.0392V32.0231V32.0071V31.991V31.975V31.9589V31.9428V31.9268V31.9107V31.8946V31.8786V31.8625V31.8464V31.8304V31.8143V31.7982V31.7821V31.7661V31.75V31.7339V31.7178V31.7017V31.6856V31.6695V31.6535V31.6374V31.6213V31.6052V31.5891V31.573V31.5569V31.5408V31.5247V31.5086V31.4924V31.4763V31.4602V31.4441V31.428V31.4119V31.3958V31.3796V31.3635V31.3474V31.3313V31.3151V31.299V31.2829V31.2667V31.2506V31.2345V31.2183V31.2022V31.186V31.1699V31.1537V31.1376V31.1214V31.1053V31.0891V31.073V31.0568V31.0406V31.0245V31.0083V30.9922V30.976V30.9598V30.9436V30.9275V30.9113V30.8951V30.8789V30.8628V30.8466V30.8304V30.8142V30.798V30.7818V30.7656V30.7494V30.7332V30.717V30.7008V30.6846V30.6684V30.6522V30.636V30.6198V30.6036V30.5873V30.5711V30.5549V30.5387V30.5225V30.5062V30.49V30.4738V30.4575V30.4413V30.4251V30.4088V30.3926V30.3763V30.3601V30.3438V30.3276V30.3113V30.2951V30.2788V30.2626V30.2463V30.23V30.2138V30.1975V30.1812V30.165V30.1487V30.1324V30.1161V30.0998V30.0836V30.0673V30.051V30.0347V30.0184V30.0021V29.9858V29.9695V29.9532V29.9369V29.9206V29.9043V29.888V29.8717V29.8554V29.839V29.8227V29.8064V29.7901V29.7737V29.7574V29.7411V29.7247V29.7084V29.6921V29.6757V29.6594V29.643V29.6267V29.6103V29.594V29.5776V29.5613V29.5449V29.5286V29.5122V29.4958V29.4794V29.4631V29.4467V29.4303V29.4139V29.3976V29.3812V29.3648V29.3484V29.332V29.3156V29.2992V29.2828V29.2664V29.25Z" stroke="#0274BA" stroke-width="1.5"/>
<path d="M18.3368 30.2491C17.7408 29.9554 16.9806 29.8414 16.0295 29.896C17.1095 27.8303 18.1421 25.8566 19.1747 23.8827L19.1758 23.8806C20.2089 21.9059 21.2421 19.931 22.3227 17.8641C24.4738 21.947 26.4012 25.5926 28.552 29.6516C28.4508 29.6753 28.3514 29.6985 28.2536 29.7214C27.1306 29.9843 26.2235 30.1967 25.2778 30.4201L24.7352 30.5483L24.7016 31.1048C24.6525 31.9159 24.6031 32.6963 24.5526 33.4923C24.5041 34.2568 24.4547 35.0356 24.4039 35.87H24.3965H24.3856H24.3747H24.3637H24.3528H24.3418H24.3309H24.32H24.309H24.2981H24.2871H24.2762H24.2653H24.2544H24.2434H24.2325H24.2216H24.2106H24.1997H24.1888H24.1779H24.1669H24.156H24.1451H24.1342H24.1233H24.1123H24.1014H24.0905H24.0796H24.0687H24.0578H24.0469H24.0359H24.025H24.0141H24.0032H23.9923H23.9814H23.9705H23.9596H23.9487H23.9378H23.9269H23.916H23.9051H23.8942H23.8833H23.8724H23.8615H23.8506H23.8397H23.8288H23.818H23.8071H23.7962H23.7853H23.7744H23.7635H23.7526H23.7417H23.7309H23.72H23.7091H23.6982H23.6873H23.6765H23.6656H23.6547H23.6438H23.633H23.6221H23.6112H23.6003H23.5895H23.5786H23.5677H23.5569H23.546H23.5351H23.5243H23.5134H23.5026H23.4917H23.4808H23.47H23.4591H23.4483H23.4374H23.4265H23.4157H23.4048H23.394H23.3831H23.3723H23.3614H23.3506H23.3397H23.3289H23.318H23.3072H23.2963H23.2855H23.2747H23.2638H23.253H23.2421H23.2313H23.2205H23.2096H23.1988H23.188H23.1771H23.1663H23.1555H23.1446H23.1338H23.123H23.1121H23.1013H23.0905H23.0796H23.0688H23.058H23.0472H23.0364H23.0255H23.0147H23.0039H22.9931H22.9823H22.9714H22.9606H22.9498H22.939H22.9282H22.9174H22.9065H22.8957H22.8849H22.8741H22.8633H22.8525H22.8417H22.8309H22.8201H22.8093H22.7985H22.7877H22.7769H22.7661H22.7553H22.7445H22.7337H22.7229H22.7121H22.7013H22.6905H22.6797H22.6689H22.6581H22.6473H22.6365H22.6257H22.6149H22.6042H22.5934H22.5826H22.5718H22.561H22.5502H22.5394H22.5287H22.5179H22.5071H22.4963H22.4855H22.4748H22.464H22.4532H22.4424H22.4317H22.4209H22.4101H22.3993H22.3886H22.3778H22.367H22.3562H22.3455H22.3347H22.3239H22.3132H22.3024H22.2916H22.2809H22.2701H22.2594H22.2486H22.2378H22.2271H22.2163H22.2056H22.1948H22.184H22.1733H22.1625H22.1518H22.141H22.1303H22.1195H22.1088H22.098H22.0873H22.0765H22.0658H22.055H22.0443H22.0335H22.0228H22.012H22.0013H21.9906H21.9798H21.9691H21.9583H21.9476H21.9369H21.9261H21.9154H21.9046H21.8939H21.8832H21.8724H21.8617H21.851H21.8402H21.8295H21.8188H21.808H21.7973H21.7866H21.7759H21.7651H21.7544H21.7437H21.733H21.7222H21.7115H21.7008H21.6901H21.6793H21.6686H21.6579H21.6472H21.6365H21.6257H21.615H21.6043H21.5936H21.5829H21.5722H21.5615H21.5507H21.54H21.5293H21.5186H21.5079H21.4972H21.4865H21.4758H21.4651H21.4544H21.4437H21.4329H21.4222H21.4115H21.4008H21.3901H21.3794H21.3687H21.358H21.3473H21.3366H21.3259H21.3152H21.3045H21.2938H21.2832H21.2725H21.2618H21.2511H21.2404H21.2297H21.219H21.2083H21.1976H21.1869H21.1762H21.1655H21.1549H21.1442H21.1335H21.1228H21.1121H21.1014H21.0907H21.0801H21.0694H21.0587H21.048H21.0373H21.0267H21.016H21.0053H20.9946H20.9839H20.9733H20.9626H20.9519H20.9412H20.9306H20.9199H20.9092H20.8985H20.8879H20.8772H20.8665H20.8559H20.8452H20.8345H20.8239H20.8132H20.8025H20.7919H20.7812H20.7705H20.7599H20.7492H20.7385H20.7279H20.7172H20.7066H20.6959H20.6852H20.6746H20.6639H20.6533H20.6426H20.6319H20.6213H20.6106H20.6H20.5893H20.5787H20.568H20.5574H20.5467H20.5361H20.5254H20.5148H20.5041H20.4935H20.4828H20.4722H20.4615H20.4509H20.4402H20.4296H20.4189H20.4083H20.3976H20.387H20.3763H20.3657H20.3551H20.3444H20.3338H20.3231H20.3125H20.3019H20.2912H20.2806H20.2699H20.2593H20.2487H20.238H20.2274H20.2168H20.2061H20.1955H20.1849H20.1742H20.1636H20.153H20.1423H20.1317H20.1211H20.1104H20.0998H20.0892H20.0786H20.0679H20.0573H20.0571C19.954 35.5593 19.91 35.1543 19.898 34.6333C19.8943 34.4731 19.894 34.298 19.8936 34.114C19.8926 33.5507 19.8915 32.9038 19.7925 32.3443C19.6506 31.5426 19.2822 30.7149 18.3368 30.2491Z" stroke="#0274BA" stroke-width="1.5"/>
</svg>
