<svg width="54" height="69" viewBox="0 0 54 69" fill="none" xmlns="http://www.w3.org/2000/svg">
<path d="M2.76933 38.2973C2.25927 37.5919 1.69621 36.9148 1.25239 36.1812C0.232257 34.494 0.715826 33.309 2.84882 32.0224C2.86207 32.3949 3.01443 32.8124 2.86869 33.1341C2.23939 34.4884 2.28576 35.7524 3.72984 36.6496C5.03481 37.4621 6.43252 38.2126 7.90972 38.7487C8.8636 39.0929 10.0228 38.6697 10.3342 37.7781C10.5462 37.1687 10.4004 36.2546 9.97647 35.7411C9.38029 35.0131 8.4529 34.3981 7.52551 33.9579C6.00194 33.2413 4.36577 32.6996 2.77596 32.0845C2.04067 31.1647 1.17952 30.3014 0.603213 29.3139C-0.257934 27.8467 0.159391 26.4417 1.5836 25.2059C2.90844 24.0547 4.08092 23.8008 6.33316 24.4328C5.32628 24.8786 4.62411 25.1664 3.94844 25.4993C1.65646 26.6222 1.26563 28.2474 2.99455 29.9176C4.3194 31.1986 5.89596 32.2481 7.94284 32.5811C9.24781 32.7955 10.3474 32.4851 11.0363 31.4299C11.6325 30.5045 11.043 29.7991 10.4203 29.1276C10.0162 28.6875 9.57902 28.1909 9.02259 27.9539C6.87634 27.0398 6.49214 25.488 6.77698 23.6992C7.06182 21.933 6.43914 20.6352 4.59761 19.6646C3.48475 19.0777 2.53748 18.2482 1.59684 17.4526C-0.032711 16.0757 -0.390419 14.7384 0.411111 13.4123C1.20602 12.0919 2.66997 11.601 4.9487 11.8888C5.16729 11.917 5.37264 12.0073 5.58462 12.0411C5.79659 12.075 6.01519 12.075 6.50538 12.1088C6.5915 11.4204 6.74386 10.7263 6.7571 10.0323C6.79023 7.87104 6.71074 5.70419 6.7836 3.54298C6.86309 1.16734 8.07533 0.157275 10.8442 0.0162034C11.6127 -0.0232965 12.3877 0.0218453 13.1627 0.0218453C20.3367 0.0218453 27.5174 -0.000726093 34.6914 0.0218453C40.2822 0.0387738 40.7923 0.490202 40.7923 5.13991C40.7923 11.1608 40.7857 17.1761 40.7857 23.197C40.7857 24.0378 40.7857 24.8786 40.7857 25.5332C41.0771 25.8717 41.1633 26.0862 41.3355 26.1652C47.0588 28.7496 48.5956 33.4726 49.7681 38.3142C50.6028 41.7507 50.563 45.2549 49.6489 48.6801C48.5956 52.664 49.2448 56.3036 51.974 59.6893C52.5635 60.4172 53.7559 61.1847 52.5635 62.5615C49.9072 60.0335 47.9266 57.3983 47.7477 54.086C47.6417 52.1279 47.7477 50.1247 48.1319 48.1948C49.2249 42.6536 48.5161 37.338 45.8731 32.203C45.4822 31.4356 44.9523 30.7133 44.3959 30.0192C44.0912 29.6411 43.6275 29.3477 43.1969 29.0599C41.0506 27.6323 38.8912 26.2159 36.6058 24.7093C34.9564 25.9902 34.9299 27.4687 35.6983 28.8624C36.4799 30.2844 37.4537 31.7064 38.6858 32.8576C40.0901 34.1724 40.3419 35.4081 39.4873 36.943C38.3546 38.9744 37.308 41.0453 36.1289 43.0542C33.552 47.4443 32.3199 52.032 33.0685 56.9525C33.1413 57.4435 32.9227 57.9626 32.777 58.8711C30.5248 57.4152 31.8099 55.4515 30.7301 53.7361C26.0534 53.6571 21.1648 53.6797 15.925 53.7361C17.0644 56.5632 19.0583 58.3689 21.549 59.7514C23.1057 60.6147 24.8412 61.258 26.5569 61.8731C29.6305 62.9734 31.9225 64.7904 33.6514 67.1604C33.9097 67.5159 33.9561 67.9899 34.294 69C33.2804 68.4357 32.6843 68.2721 32.3994 67.9222C30.3327 65.366 27.6366 63.6337 24.192 62.5107C19.9459 61.1282 16.6669 58.6454 14.62 55.1017C14.3816 54.6841 14.0239 54.323 13.6198 53.8038C12.5864 53.7643 11.4934 53.7417 10.4004 53.6684C7.94284 53.5047 6.90946 52.6019 6.75048 50.4576C6.69749 49.7071 6.73061 48.951 6.73061 48.2005C6.73061 47.45 6.73061 46.7051 6.73061 46.1634C4.92882 44.747 3.23302 43.562 1.7492 42.2078C0.828436 41.367 0.318372 40.2215 1.25901 39.1155C1.59684 38.7148 2.28576 38.5286 2.8157 38.2465C2.07379 41.8241 3.72984 42.4843 7.24067 44.2674C8.20118 44.7583 9.38692 44.9333 10.2282 43.9966C11.1291 42.9921 10.1951 42.2191 9.5459 41.5137C9.0822 41.0171 8.4529 40.5713 7.78386 40.2836C6.1543 39.5669 4.44525 38.9518 2.76933 38.2973ZM10.6323 40.1086C13.1163 43.7257 12.7388 44.8938 8.36679 46.6205C16.5543 46.6205 24.4305 46.6205 32.4325 46.6205C34.5324 42.8059 36.619 39.0139 38.6991 35.2445C37.6127 34.0764 36.6919 33.151 35.8573 32.1691C34.2476 30.2788 33.3599 28.1909 33.8766 25.8266C34.2675 24.0265 35.5393 23.3212 37.6723 23.6428C38.1227 23.7105 38.5533 23.8798 39.0568 24.0209C39.6861 16.8545 39.4145 3.98877 38.5334 1.7147C35.8308 1.7147 33.042 1.7147 30.3525 1.7147C29.869 2.71913 29.4583 3.5712 28.9151 4.69412C26.1925 4.72798 23.4567 4.80134 20.7209 4.78441C17.4618 4.76748 17.4618 4.73927 16.4086 2.01377C16.349 1.86706 16.0906 1.77677 15.8786 1.63006C15.6004 1.5962 15.2758 1.53413 14.9513 1.52849C13.9576 1.51156 12.964 1.51156 11.977 1.52284C8.65825 1.5567 8.34029 1.78806 8.3138 4.54177C8.27405 8.86419 8.29392 13.181 8.29392 17.5034C8.29392 20.2176 8.29392 22.9318 8.29392 25.1664C9.96322 26.7859 11.5199 27.9144 12.4804 29.3308C13.739 31.1986 12.0631 32.6601 10.7648 33.9579C12.752 37.022 12.7454 37.3549 10.6323 40.1086ZM8.71787 48.2287C7.95609 51.8175 8.41978 52.3762 12.0962 52.3875C17.5811 52.4044 23.0725 52.3987 28.5574 52.3875C29.4119 52.3875 30.2598 52.269 31.2601 52.1956C31.5052 50.8244 31.7304 49.5886 31.9689 48.2287C23.9204 48.2287 16.296 48.2287 8.71787 48.2287ZM6.65112 13.8694C5.61774 13.5929 4.88245 13.2148 4.18029 13.2543C3.4185 13.2995 2.51099 13.5816 1.98105 14.0274C1.26563 14.6312 1.56372 15.4381 2.27914 16.0024C3.59073 17.035 4.9487 18.0282 6.64449 19.3091C6.65112 17.193 6.65112 15.63 6.65112 13.8694ZM28.5044 2.24513C28.3653 2.04763 28.2262 1.85013 28.0804 1.65263C24.8346 1.65263 21.5953 1.65263 18.376 1.65263C18.0779 2.7812 18.6144 3.26084 19.6743 3.27213C22.0922 3.30034 24.5166 3.3342 26.9345 3.22134C27.4776 3.19877 27.9811 2.58934 28.5044 2.24513Z" fill="#0274BA"/>
<path d="M17.2764 21.9669C17.2698 18.9028 20.138 16.3523 23.682 16.2733C27.2458 16.1943 30.5049 18.9197 30.5248 21.9782C30.5381 25.0479 27.3319 27.6887 23.6687 27.6154C20.0122 27.5477 17.283 25.1325 17.2764 21.9669ZM28.6501 22.0628C28.7031 19.721 26.6894 17.9492 23.9403 17.9322C21.1979 17.9153 19.0119 19.6251 18.8993 21.8822C18.7933 23.9588 21.1648 26.0015 23.7151 26.0354C26.484 26.0749 28.5972 24.3707 28.6501 22.0628Z" fill="#0274BA"/>
<path d="M14.4482 39.3581C12.0171 32.6883 16.8793 28.4279 22.7417 28.6819C23.8413 28.727 24.941 28.6593 26.0406 28.7157C30.6047 28.964 33.7777 31.7064 33.9168 35.6169C33.9565 36.7624 34.3937 38.0208 33.1351 39.3638C32.8105 38.8221 32.5323 38.5004 32.4263 38.1393C32.3203 37.7838 32.4064 37.3944 32.3932 37.022C32.2541 31.9491 30.0549 30.1208 24.1129 30.1434C23.6757 30.1434 23.2253 30.1546 22.7947 30.0982C18.9262 29.5791 15.0378 32.5641 15.3226 36.2715C15.3955 37.2082 15.7995 38.3142 14.4482 39.3581Z" fill="#0274BA"/>
</svg>
