<svg width="64" height="76" viewBox="0 0 64 76" fill="none" xmlns="http://www.w3.org/2000/svg">
<path d="M42.454 31.9939C41.7141 31.45 40.9851 30.8888 40.2664 30.311C40.1817 30.3829 40.0989 30.4435 40.0729 30.4625C40.0685 30.4658 40.0657 30.4678 40.0649 30.4685L40.0648 30.4685C39.3744 31.0147 38.6756 31.5467 37.968 32.0634C38.6179 31.8517 39.3048 31.7278 40.0139 31.7045L42.454 31.9939ZM42.454 31.9939C41.6859 31.7777 40.866 31.6765 40.0141 31.7045L42.454 31.9939ZM46.3252 34.6143C47.9932 35.6489 49.7141 36.5977 51.4922 37.4533C50.2172 37.4525 48.9401 37.4534 47.6645 37.4641C47.4061 36.3896 46.9448 35.4289 46.3252 34.6143ZM34.5222 34.4088C33.6869 35.4144 33.1034 36.6465 32.8771 38.0117C32.788 38.5478 32.7589 39.0883 32.7589 39.6055C32.7555 43.4644 32.7554 47.3274 32.7553 51.19C32.7552 54.755 32.7551 58.3197 32.7524 61.8806V61.8807C32.752 62.4926 32.8029 63.0963 32.9179 63.6871C32.8013 63.5756 32.6857 63.4627 32.5711 63.3477C28.6456 59.4078 26.0248 54.6946 24.4315 49.3586C23.5201 46.3053 22.9974 43.1778 22.7521 39.9886L22.7521 39.9881C22.7513 39.9785 22.7506 39.9695 22.75 39.9608C26.9569 38.6158 30.8592 36.7217 34.5222 34.4088Z" stroke="#0274BA" stroke-width="1.5"/>
<path d="M20.7071 49.821C20.4603 49.8348 20.2957 49.8524 20.1302 49.8533C16.741 49.8552 13.3518 49.8552 9.96253 49.8542C9.31722 49.8542 9.31445 49.8505 9.31445 49.221C9.31538 48.1125 9.31907 47.0031 9.32185 45.8946C9.3237 45.3575 9.37917 45.3242 9.89874 45.3482C10.2648 45.3649 10.6365 45.339 11.0017 45.3001C11.3354 45.2641 11.4917 45.3658 11.4824 45.7199C11.4695 46.2431 11.4833 46.7673 11.4806 47.2915C11.4796 47.5153 11.5175 47.6863 11.8014 47.6854C13.6809 47.6798 15.5604 47.6798 17.439 47.6752C17.4806 47.6752 17.5213 47.6419 17.5989 47.6086C17.4538 46.7821 17.3003 45.9538 17.1635 45.1217C16.7512 42.6107 16.5154 40.085 16.5154 37.538C16.5154 36.9537 16.5043 36.3666 16.4535 35.7851C16.4184 35.3783 16.5792 35.2313 16.9573 35.1269C18.8258 34.611 20.733 34.1885 22.5349 33.4942C24.6538 32.6779 26.7294 31.7108 28.7337 30.6393C32.2921 28.7376 35.5473 26.3811 38.5316 23.6593C39.1085 23.1333 39.6715 22.5906 40.3445 21.9582C40.7772 22.4297 41.1618 22.9123 41.6111 23.3274C44.9902 26.4486 48.7224 29.0704 52.7939 31.2125C56.2072 33.0088 59.7776 34.3679 63.5672 35.1269C63.8131 35.1759 64.0063 35.2545 63.9999 35.5623C63.9638 37.2089 63.9342 38.8554 63.9009 40.502C63.9 40.5297 63.876 40.5565 63.8399 40.6323C63.7419 40.5593 63.6513 40.4946 63.5626 40.4261C63.006 39.9916 62.4643 39.5368 61.8883 39.13C61.6451 38.958 61.536 38.7898 61.5416 38.493C61.5499 38.0825 61.6507 37.5685 61.4491 37.2902C61.2624 37.0332 60.7308 37.0203 60.3471 36.914C57.4257 36.1078 54.6281 34.9845 51.9397 33.5941C47.8441 31.4769 44.0657 28.8902 40.6311 25.8097C40.3325 25.5416 40.1578 25.5684 39.8675 25.8245C34.9843 30.1364 29.5611 33.5756 23.4363 35.8471C22.1253 36.3334 20.77 36.705 19.4258 37.0961C19.0754 37.1978 18.9663 37.354 18.9746 37.7053C19.0671 41.5217 19.5469 45.2844 20.5121 48.9824C20.5777 49.2321 20.6295 49.4854 20.7071 49.821Z" fill="#0274BA"/>
<path d="M40.2418 42.461C40.2196 42.375 40.1983 42.3306 40.2002 42.2881C40.2353 40.7488 39.9552 40.979 41.4631 40.9762C46.9777 40.967 52.4924 40.9725 58.0071 40.9716C59.012 40.9716 59.9791 41.1362 60.8157 41.7278C62 42.5654 62.6268 43.7118 62.6259 45.1799C62.625 48.7541 62.6287 52.3273 62.6241 55.9014C62.6231 56.531 62.6666 57.1735 62.5603 57.7874C62.2191 59.7437 60.5069 61.1887 58.4656 61.197C52.5349 61.222 46.6042 61.2053 40.6735 61.2136C40.3121 61.2146 40.1946 61.0814 40.1928 60.7246C40.1854 59.7141 40.1725 59.7159 41.1755 59.7159C46.7984 59.7159 52.4212 59.6799 58.0431 59.7353C60.0271 59.7548 61.2539 58.343 61.2049 56.5809C61.1375 54.1338 61.1781 51.6829 61.1966 49.2339C61.2003 48.7846 61.0506 48.657 60.6133 48.6579C54.0354 48.6709 47.4585 48.669 40.8806 48.6709C40.6819 48.6709 40.4831 48.6709 40.2011 48.6709C40.2011 48.2086 40.1974 47.7852 40.202 47.3618C40.2085 46.7155 40.2381 46.0684 40.2233 45.4222C40.215 45.0376 40.35 44.9312 40.7346 44.9312C47.2653 44.9359 53.796 44.9257 60.3276 44.9183C61.2022 44.9174 61.2752 44.8064 60.8749 44.0086C60.3452 42.9519 59.4595 42.4628 58.2946 42.4628C53.6425 42.46 48.9904 42.4619 44.3383 42.4619C42.983 42.461 41.6286 42.461 40.2418 42.461Z" fill="#0274BA"/>
<path d="M55.4792 64.0787C55.0207 64.6454 54.612 65.1807 54.1729 65.6892C51.1664 69.1635 47.6348 71.9841 43.5818 74.1447C42.6314 74.6513 41.6607 75.1228 40.6788 75.5647C40.4486 75.6683 40.0945 75.6766 39.8653 75.5758C35.3731 73.6085 31.3219 70.9709 27.929 67.4161C26.5302 65.9517 25.3089 64.3154 24.0414 62.7298C23.7632 62.3813 23.5071 62.1936 23.0522 62.2177C22.3764 62.2528 21.6969 62.2408 21.0192 62.2214C20.6513 62.2112 20.5302 62.3582 20.544 62.7123C20.5644 63.2198 20.5413 63.7292 20.5514 64.2368C20.557 64.5215 20.4516 64.601 20.1641 64.5825C19.6889 64.5511 19.209 64.5567 18.7348 64.5872C18.4583 64.6047 18.3788 64.5067 18.3798 64.2543C18.3844 62.9757 18.3872 61.6972 18.377 60.4186C18.3742 60.107 18.5212 60.0183 18.7995 60.0183C20.8334 60.0201 22.8664 60.0072 24.8994 60.034C25.0898 60.0367 25.3394 60.2401 25.4569 60.4186C26.9203 62.6411 28.6011 64.6824 30.5315 66.512C33.3161 69.1514 36.464 71.263 39.9411 72.8809C40.1195 72.9641 40.4042 72.966 40.5808 72.8818C44.9057 70.8322 48.7165 68.0846 51.8848 64.4808C52.2083 64.1129 52.5356 63.9345 53.033 63.964C53.7698 64.0075 54.5113 63.9825 55.25 63.9899C55.2897 63.989 55.3304 64.0195 55.4792 64.0787Z" fill="#0274BA"/>
<path d="M47.6816 16.4935C47.6789 12.5505 50.8407 9.35353 54.755 9.34151C58.7128 9.32857 61.8783 12.5024 61.8756 16.4796C61.8728 20.3893 58.6666 23.5881 54.7504 23.5863C50.8379 23.5835 47.6844 20.4208 47.6816 16.4935ZM59.8333 16.4417C59.837 13.6007 57.6256 11.3985 54.7606 11.3893C51.9917 11.38 49.6878 13.6904 49.6777 16.487C49.6675 19.2272 51.9556 21.5311 54.6968 21.5394C57.5923 21.5496 59.8287 19.3299 59.8333 16.4417Z" fill="#0274BA"/>
<path d="M44.7734 64.0879C44.4489 65.1585 43.8895 65.9046 43.1111 66.4574C41.5431 67.5715 39.8495 67.736 38.141 66.8439C36.5286 66.0017 35.6115 64.6112 35.6004 62.7835C35.5671 57.4232 35.6014 52.0629 35.6032 46.7026C35.6041 44.0687 35.5764 41.4357 35.5903 38.8018C35.6041 36.179 37.8045 34.06 40.4208 34.1145C42.5009 34.158 44.3943 35.6705 44.876 37.6489C44.9712 38.0391 44.8815 38.2055 44.4748 38.1787C44.337 38.1694 44.1965 38.1685 44.0587 38.1796C43.7009 38.2092 43.5207 38.0566 43.382 37.7118C42.6063 35.7824 40.5123 35.0021 38.7345 35.982C37.5419 36.6394 37.0195 37.7072 37.0186 39.0412C37.0149 44.016 37.0168 48.9908 37.0168 53.9655C37.0168 56.8148 37.0094 59.6651 37.0177 62.5144C37.0242 64.9302 39.2615 66.5434 41.459 65.7289C42.1006 65.4913 42.6322 65.0864 42.9918 64.5178C43.2174 64.16 43.4772 64.0528 43.8618 64.0815C44.1318 64.1046 44.4036 64.0879 44.7734 64.0879Z" fill="#0274BA"/>
<path d="M8.72646 54.9797C8.71352 57.4204 6.78407 59.3082 4.31472 59.2944C1.94614 59.2814 -0.0119635 57.3085 5.50331e-05 54.9483C0.0129981 52.5335 1.99514 50.5559 4.39053 50.568C6.81088 50.5809 8.73848 52.5427 8.72646 54.9797ZM6.55572 54.9538C6.56127 53.7612 5.58129 52.7563 4.39977 52.7415C3.26078 52.7276 2.19483 53.7483 2.18743 54.8604C2.17911 56.1298 3.13967 57.1245 4.37389 57.1245C5.57205 57.1236 6.55017 56.151 6.55572 54.9538Z" fill="#0274BA"/>
<path d="M23.8009 70.9117C23.799 73.3478 21.8585 75.2874 19.4307 75.2791C17.0437 75.2707 15.0782 73.2988 15.0791 70.9136C15.08 68.5182 17.0428 66.5499 19.4298 66.5508C21.8862 66.5508 23.8018 68.4627 23.8009 70.9117ZM21.6301 70.9219C21.6348 69.7006 20.6529 68.7179 19.4317 68.7225C18.2529 68.7271 17.3007 69.684 17.2877 70.8784C17.2748 72.0988 18.2159 73.088 19.4095 73.1074C20.6123 73.1268 21.6255 72.1283 21.6301 70.9219Z" fill="#0274BA"/>
<path d="M14.7362 38.9932C14.7306 41.4024 12.8104 43.3198 10.3845 43.3393C8.01779 43.3577 6.01069 41.3645 6.00977 38.995C6.00884 36.5867 7.97896 34.6055 10.3845 34.5962C12.7984 34.587 14.7417 36.5506 14.7362 38.9932ZM10.4215 36.8048C9.16695 36.7938 8.20269 37.7506 8.18883 39.02C8.17681 40.1414 9.20023 41.1343 10.3771 41.1436C11.6002 41.1528 12.5562 40.2144 12.5654 38.995C12.5756 37.7728 11.6382 36.8159 10.4215 36.8048Z" fill="#0274BA"/>
<path d="M32.0944 25.6951C31.4436 23.9191 30.2196 22.7515 28.3659 22.3262C27.0827 22.0322 25.8587 22.2522 24.7113 22.8985C22.6312 24.0698 20.9643 27.423 23.3958 30.6634C22.8115 30.8926 22.2549 31.1432 21.6762 31.3124C21.5523 31.3484 21.2768 31.1265 21.1816 30.9611C19.8235 28.5934 19.7468 26.1693 21.0919 23.7971C22.4371 21.4248 24.5699 20.1823 27.2852 20.1878C30.018 20.1933 32.1139 21.4636 33.4932 23.8516C33.863 24.4914 33.8556 24.4988 33.251 24.9545C32.9441 25.1866 32.6307 25.4094 32.3173 25.6313C32.271 25.6627 32.2035 25.6646 32.0944 25.6951Z" fill="#0274BA"/>
<path d="M10.7256 53.8647C13.6109 53.8647 16.4677 53.8647 19.4094 53.8647C19.2273 53.2989 19.0664 52.7969 18.8899 52.2487C19.0415 52.2127 19.1533 52.1637 19.2652 52.1627C19.8809 52.1553 20.4976 52.1405 21.1114 52.1729C21.2695 52.1812 21.5007 52.3153 21.5598 52.4521C22.2726 54.0857 22.9605 55.7304 23.6529 57.3742C23.6816 57.4417 23.688 57.5175 23.7352 57.7144C23.2674 57.7144 22.8393 57.6598 22.4298 57.7255C21.4064 57.89 20.7509 57.548 20.5124 56.5042C20.4255 56.1233 20.1611 56.0327 19.7866 56.0346C16.9854 56.0475 14.1832 56.042 11.382 56.041C10.6932 56.041 10.7015 56.0392 10.7219 55.3735C10.7376 54.8974 10.7256 54.4204 10.7256 53.8647Z" fill="#0274BA"/>
<path d="M29.295 27.0735C29.4235 27.1687 29.528 27.2464 29.6621 27.3462C29.2377 27.6717 28.8993 28.0211 28.2975 27.7345C28.0164 27.6005 27.6309 27.6467 27.299 27.68C27.1927 27.6902 27.0096 27.937 27.0291 28.0452C27.165 28.8116 26.7536 29.1675 26.1129 29.3996C25.8429 29.4976 25.5915 29.6473 25.3002 29.7888C25.2143 29.5059 25.1107 29.3099 25.4777 29.2137C25.6016 29.1814 25.7634 28.978 25.7671 28.8486C25.7912 27.8177 25.7893 26.7869 25.7699 25.7561C25.7671 25.623 25.6386 25.3891 25.5452 25.377C25.0497 25.3123 25.2078 24.9444 25.2549 24.7077C25.279 24.5866 25.5499 24.4498 25.719 24.4359C26.0223 24.4109 26.1813 24.3222 26.1619 23.9986C26.1452 23.7222 26.3274 23.6713 26.5539 23.6732C26.7776 23.675 26.9884 23.6695 27.018 23.9829C27.0309 24.1169 27.1178 24.2436 27.1714 24.373C27.2426 24.2427 27.3554 24.1188 27.3776 23.981C27.4275 23.6797 27.6291 23.6778 27.8537 23.6723C28.0969 23.6667 28.2355 23.7573 28.2272 24.0189C28.2198 24.2686 28.2577 24.459 28.5822 24.4969C29.2183 24.5727 29.8063 24.7641 29.9921 25.4824C30.1687 26.1666 29.8738 26.6741 29.295 27.0735ZM27.6845 25.3475C27.0143 25.3382 27.0143 25.3382 27.0124 25.9974C27.0124 26.0436 27.0124 26.0898 27.0124 26.1361C27.0152 26.811 27.0476 26.8405 27.7187 26.7915C28.3511 26.7453 28.757 26.4301 28.7357 26.0011C28.7154 25.5767 28.3613 25.3567 27.6845 25.3475Z" fill="#0274BA"/>
<path d="M53.5059 2.77475C53.5354 2.17012 53.5253 1.5507 53.6076 0.944227C53.6815 0.398769 54.0698 0.0918331 54.6134 0.0123256C55.0905 -0.0570123 55.5851 0.169492 55.8208 0.608631C55.9197 0.792608 55.99 1.01541 55.9937 1.2225C56.0122 2.28476 56.0418 3.34886 55.9956 4.40835C55.9595 5.23578 55.4649 5.68139 54.7493 5.66475C54.1687 5.65181 53.6834 5.29587 53.6085 4.71898C53.5262 4.08107 53.5364 3.43115 53.5059 2.77475Z" fill="#0274BA"/>
<path d="M28.4916 13.6488C28.4916 14.172 28.5017 14.6962 28.4888 15.2186C28.4703 15.9804 27.9646 16.4879 27.249 16.4833C26.5501 16.4787 26.0694 15.9896 26.0601 15.2352C26.0472 14.1887 26.0463 13.1412 26.0583 12.0947C26.0666 11.3347 26.5741 10.8216 27.2842 10.817C27.9452 10.8124 28.4685 11.3495 28.4897 12.078C28.5045 12.6013 28.4925 13.1246 28.4925 13.6479C28.4925 13.6488 28.4925 13.6488 28.4916 13.6488Z" fill="#0274BA"/>
<path d="M60.1242 5.93748C60.1242 6.42932 60.1363 6.92208 60.1215 7.41392C60.1011 8.08326 59.6407 8.57694 59.0222 8.61762C58.3631 8.66107 57.7649 8.24505 57.7279 7.57386C57.6669 6.47092 57.6697 5.35967 57.7233 4.25673C57.7538 3.62807 58.3649 3.20002 58.9945 3.2333C59.6028 3.26566 60.0826 3.73161 60.115 4.37045C60.1418 4.89187 60.1205 5.41606 60.1205 5.93841C60.1215 5.93748 60.1224 5.93748 60.1242 5.93748Z" fill="#0274BA"/>
<path d="M30.2103 16.7644C30.2103 16.2725 30.201 15.7798 30.2121 15.2879C30.2279 14.5964 30.6892 14.0953 31.3308 14.0546C31.9909 14.0121 32.5872 14.4707 32.6195 15.1677C32.6685 16.2263 32.6704 17.2913 32.6149 18.349C32.5779 19.0525 31.9983 19.4778 31.3123 19.4362C30.6744 19.3974 30.2177 18.8935 30.2029 18.1946C30.1936 17.7175 30.201 17.2414 30.201 16.7644C30.2038 16.7644 30.2066 16.7644 30.2103 16.7644Z" fill="#0274BA"/>
<path d="M51.8609 5.88849C51.86 6.34981 51.8868 6.81207 51.8544 7.27062C51.8017 8.01207 51.3256 8.42533 50.5675 8.43457C49.9537 8.44197 49.4766 8.04258 49.4369 7.34181C49.3814 6.36276 49.3749 5.37631 49.4285 4.39726C49.4692 3.6595 50.0138 3.20742 50.6637 3.23146C51.3219 3.2555 51.8027 3.72792 51.8563 4.46013C51.8896 4.9344 51.8618 5.41237 51.8609 5.88849Z" fill="#0274BA"/>
<path d="M21.9026 16.6285C21.9026 16.1828 21.8925 15.7363 21.9054 15.2916C21.9267 14.5677 22.4416 14.0537 23.1258 14.0565C23.808 14.0593 24.3221 14.5742 24.3341 15.3046C24.3489 16.2263 24.3507 17.149 24.3341 18.0707C24.3211 18.79 23.7923 19.2846 23.0916 19.2753C22.4231 19.267 21.9258 18.765 21.9054 18.0577C21.8915 17.5816 21.9026 17.1046 21.9026 16.6285Z" fill="#0274BA"/>
<path d="M56.8763 16.2734C56.9059 16.3012 56.9336 16.3409 56.9715 16.3585C57.5457 16.6331 57.8544 17.0731 57.7943 17.7212C57.7287 18.4257 57.333 18.8759 56.6683 19.0978C56.5518 19.1366 56.4335 19.1856 56.3133 19.1967C55.9453 19.2291 55.7114 19.3493 55.7373 19.7903C55.7419 19.8772 55.4812 20.026 55.3231 20.063C55.1225 20.1101 54.9182 20.0593 54.9099 19.7699C54.9062 19.6507 54.8822 19.5259 54.835 19.4177C54.8193 19.3807 54.6529 19.3594 54.639 19.3816C54.5808 19.4769 54.5114 19.597 54.5234 19.6987C54.5632 20.0463 54.3598 20.0796 54.1 20.0769C53.8689 20.0741 53.6442 20.0685 53.6858 19.7422C53.7293 19.3983 53.549 19.3206 53.2495 19.3225C53.0378 19.3243 52.7392 19.4084 52.7197 19.0507C52.7049 18.7779 52.5977 18.4479 53.0516 18.3693C53.1395 18.3545 53.2495 18.14 53.2513 18.0161C53.267 16.9844 53.267 15.9517 53.2513 14.919C53.2495 14.7933 53.1432 14.5742 53.06 14.5613C52.6097 14.4891 52.7012 14.1674 52.7151 13.8873C52.7336 13.5323 53.0193 13.5998 53.2365 13.5979C53.5 13.5961 53.6452 13.499 53.6452 13.2226C53.6442 12.8722 53.88 12.8555 54.1499 12.8454C54.4495 12.8343 54.5105 12.9757 54.5087 13.2401C54.5077 13.3465 54.6251 13.4546 54.6889 13.5619C54.762 13.4519 54.8951 13.3437 54.8969 13.2327C54.9034 12.9156 55.0643 12.8472 55.3389 12.8472C55.6218 12.8472 55.7835 12.9397 55.7641 13.2466C55.7484 13.4944 55.8178 13.6534 56.109 13.6793C56.7275 13.7338 57.272 13.9529 57.4763 14.5973C57.6825 15.2454 57.4338 15.7724 56.9124 16.1828C56.892 16.1976 56.8902 16.2355 56.8763 16.2734ZM54.5401 17.6371C54.5382 18.3906 54.5382 18.3906 55.0772 18.3933C55.9305 18.397 56.4732 18.0735 56.4631 17.565C56.4538 17.0935 55.9962 16.8346 55.1641 16.8309C54.5419 16.8281 54.541 16.8291 54.5401 17.6371ZM54.4652 14.5603C54.5244 15.0392 54.4818 15.5237 54.6769 15.8759C54.7564 16.0201 55.3518 15.8796 55.7124 15.8657C55.741 15.8648 55.7798 15.85 55.7946 15.8278C55.95 15.6004 56.2393 15.3545 56.2162 15.1437C56.1931 14.9311 55.888 14.6509 55.6532 14.5844C55.3167 14.4891 54.933 14.5603 54.4652 14.5603Z" fill="#0274BA"/>
</svg>
