<svg width="44" height="44" viewBox="0 0 44 44" fill="none" xmlns="http://www.w3.org/2000/svg">
<mask id="path-1-inside-1_376_142090" fill="white">
<path d="M6.72057 15.2402C6.56933 16.0952 6.4911 16.8523 6.4911 17.6146C6.4911 20.3185 6.45981 23.0276 6.50153 25.7316C6.54326 28.348 7.2786 30.7584 8.9996 32.8031C11.1013 35.3011 13.8758 36.5063 17.1092 36.6299C20.3948 36.7586 23.6855 36.7896 26.9659 36.6041C32.4522 36.3003 36.7548 32.113 37.0729 26.705C37.2763 23.244 37.2815 19.7726 37.0729 16.3115C36.7548 11.0838 32.5566 6.89138 27.2475 6.53601C23.6021 6.29394 19.9358 6.31969 16.2904 6.55661C15.5447 6.60811 15.2265 6.4124 14.8875 5.8201C13.9384 4.18226 12.9266 2.57534 11.9253 0.968405C11.7271 0.65423 11.7115 0.525469 12.1391 0.443062C13.1613 0.252497 14.1835 0.0670822 15.2213 0.0619318C19.7429 0.051631 24.2696 -0.097731 28.7756 0.108286C36.5722 0.468815 42.2829 5.62953 43.4302 13.0925C43.5814 14.0711 43.6492 15.0548 43.644 16.0437C43.6336 20.0507 43.7431 24.0577 43.6023 28.0596C43.3155 35.9912 37.9803 41.7546 30.3192 42.8516C29.3753 42.9855 28.4366 43.0525 27.4822 43.0473C23.5082 43.0422 19.529 43.1194 15.5603 43.0267C10.6215 42.9134 6.41288 41.1417 3.30463 37.2325C1.0934 34.4461 0.0816511 31.2116 0.0399297 27.7094C-0.0122221 23.4448 -0.0226519 19.1751 0.0660061 14.9106C0.123373 11.9439 0.936941 9.12666 2.72053 6.71627C3.62797 5.49562 4.9109 4.57885 6.6632 4.83637C7.57586 4.97028 8.3112 5.39261 8.89008 6.09822C12.7545 10.7748 16.6242 15.4462 20.4939 20.1177C20.8589 20.5606 21.224 21.0087 21.589 21.4516C23.1223 23.3058 22.9658 25.7059 21.2188 27.0965C19.4925 28.4716 16.9006 28.142 15.4403 26.3188C13.688 24.1298 11.9723 21.91 10.2408 19.7005C9.09348 18.2378 7.94092 16.775 6.72579 15.2248L6.72057 15.2402Z"/>
</mask>
<path d="M6.72057 15.2402C6.56933 16.0952 6.4911 16.8523 6.4911 17.6146C6.4911 20.3185 6.45981 23.0276 6.50153 25.7316C6.54326 28.348 7.2786 30.7584 8.9996 32.8031C11.1013 35.3011 13.8758 36.5063 17.1092 36.6299C20.3948 36.7586 23.6855 36.7896 26.9659 36.6041C32.4522 36.3003 36.7548 32.113 37.0729 26.705C37.2763 23.244 37.2815 19.7726 37.0729 16.3115C36.7548 11.0838 32.5566 6.89138 27.2475 6.53601C23.6021 6.29394 19.9358 6.31969 16.2904 6.55661C15.5447 6.60811 15.2265 6.4124 14.8875 5.8201C13.9384 4.18226 12.9266 2.57534 11.9253 0.968405C11.7271 0.65423 11.7115 0.525469 12.1391 0.443062C13.1613 0.252497 14.1835 0.0670822 15.2213 0.0619318C19.7429 0.051631 24.2696 -0.097731 28.7756 0.108286C36.5722 0.468815 42.2829 5.62953 43.4302 13.0925C43.5814 14.0711 43.6492 15.0548 43.644 16.0437C43.6336 20.0507 43.7431 24.0577 43.6023 28.0596C43.3155 35.9912 37.9803 41.7546 30.3192 42.8516C29.3753 42.9855 28.4366 43.0525 27.4822 43.0473C23.5082 43.0422 19.529 43.1194 15.5603 43.0267C10.6215 42.9134 6.41288 41.1417 3.30463 37.2325C1.0934 34.4461 0.0816511 31.2116 0.0399297 27.7094C-0.0122221 23.4448 -0.0226519 19.1751 0.0660061 14.9106C0.123373 11.9439 0.936941 9.12666 2.72053 6.71627C3.62797 5.49562 4.9109 4.57885 6.6632 4.83637C7.57586 4.97028 8.3112 5.39261 8.89008 6.09822C12.7545 10.7748 16.6242 15.4462 20.4939 20.1177C20.8589 20.5606 21.224 21.0087 21.589 21.4516C23.1223 23.3058 22.9658 25.7059 21.2188 27.0965C19.4925 28.4716 16.9006 28.142 15.4403 26.3188C13.688 24.1298 11.9723 21.91 10.2408 19.7005C9.09348 18.2378 7.94092 16.775 6.72579 15.2248L6.72057 15.2402Z" fill="#2776EA"/>
<path d="M6.72057 15.2402L-21.7032 5.64403L-22.4268 7.78713L-22.8208 10.0145L6.72057 15.2402ZM6.50153 25.7316L-23.4949 26.1944L-23.4948 26.2022L-23.4947 26.2099L6.50153 25.7316ZM8.9996 32.8031L31.9552 13.4889L31.9517 13.4847L8.9996 32.8031ZM17.1092 36.6299L18.284 6.6529L18.2696 6.65234L18.2552 6.65179L17.1092 36.6299ZM26.9659 36.6041L25.3068 6.65005L25.2899 6.65099L25.2729 6.65195L26.9659 36.6041ZM37.0729 26.705L67.0211 28.4668L67.0212 28.465L37.0729 26.705ZM37.0729 16.3115L67.0186 14.5066L67.018 14.4979L67.0175 14.4892L37.0729 16.3115ZM27.2475 6.53601L29.2512 -23.397L29.2432 -23.3975L29.2352 -23.3981L27.2475 6.53601ZM16.2904 6.55661L14.3448 -23.3802L14.2841 -23.3763L14.2235 -23.3721L16.2904 6.55661ZM14.8875 5.8201L40.9248 -9.08165L40.8845 -9.15203L40.8438 -9.22219L14.8875 5.8201ZM11.9253 0.968405L37.3867 -14.8972L37.3431 -14.9672L37.2991 -15.037L11.9253 0.968405ZM12.1391 0.443062L6.64093 -29.0488L6.55171 -29.0322L6.4626 -29.015L12.1391 0.443062ZM15.2213 0.0619318L15.153 -29.938L15.1127 -29.9379L15.0724 -29.9377L15.2213 0.0619318ZM28.7756 0.108286L30.1613 -29.8597L30.1535 -29.8601L30.1458 -29.8604L28.7756 0.108286ZM43.4302 13.0925L13.7786 17.6511L13.7804 17.6628L13.7822 17.6746L43.4302 13.0925ZM43.644 16.0437L13.6444 15.8855L13.6442 15.9255L13.6441 15.9656L43.644 16.0437ZM43.6023 28.0596L73.5827 29.1438L73.5832 29.1292L73.5837 29.1145L43.6023 28.0596ZM30.3192 42.8516L34.5329 72.5542L34.5523 72.5514L34.5717 72.5487L30.3192 42.8516ZM27.4822 43.0473L27.6441 13.0477L27.5826 13.0474L27.5211 13.0473L27.4822 43.0473ZM15.5603 43.0267L16.2609 13.0349L16.2484 13.0346L15.5603 43.0267ZM3.30463 37.2325L-20.1948 55.8813L-20.186 55.8923L-20.1773 55.9033L3.30463 37.2325ZM0.0399297 27.7094L30.0378 27.352L30.0377 27.3425L0.0399297 27.7094ZM0.0660061 14.9106L30.0595 15.5341L30.06 15.5124L30.0604 15.4906L0.0660061 14.9106ZM2.72053 6.71627L-21.3554 -11.182L-21.3754 -11.1552L-21.3952 -11.1284L2.72053 6.71627ZM6.6632 4.83637L2.30121 34.5176L2.30804 34.5186L6.6632 4.83637ZM8.89008 6.09822L-14.3033 25.1262L-14.2697 25.1673L-14.2359 25.2081L8.89008 6.09822ZM20.4939 20.1177L43.6443 1.03735L43.6206 1.0086L43.5968 0.979905L20.4939 20.1177ZM21.589 21.4516L-1.56139 40.5319L-1.5458 40.5508L-1.53018 40.5697L21.589 21.4516ZM21.2188 27.0965L2.53576 3.62424L2.52617 3.63188L21.2188 27.0965ZM15.4403 26.3188L-7.97968 45.0672L-7.97537 45.0725L15.4403 26.3188ZM10.2408 19.7005L33.8543 1.19636L33.8499 1.19077L33.8456 1.18518L10.2408 19.7005ZM6.72579 15.2248L30.3371 -3.28221L-3.92999 -47.0002L-21.698 5.62858L6.72579 15.2248ZM-22.8208 10.0145C-23.2001 12.1589 -23.5089 14.7074 -23.5089 17.6146H36.4911C36.4911 18.9972 36.3388 20.0314 36.2619 20.4659L-22.8208 10.0145ZM-23.5089 17.6146C-23.5089 19.8462 -23.5412 23.1916 -23.4949 26.1944L36.498 25.2688C36.4609 22.8637 36.4911 20.7909 36.4911 17.6146H-23.5089ZM-23.4947 26.2099C-23.3634 34.4417 -20.8839 43.8864 -13.9525 52.1216L31.9517 13.4847C33.5414 15.3735 34.7461 17.5434 35.5153 19.799C36.2637 21.9938 36.4761 23.8985 36.4977 25.2533L-23.4947 26.2099ZM-13.956 52.1174C-5.81516 61.793 5.25451 66.1986 15.9632 66.608L18.2552 6.65179C20.0578 6.7207 22.5249 7.13054 25.2194 8.37624C27.9785 9.65185 30.2634 11.4781 31.9552 13.4889L-13.956 52.1174ZM15.9344 66.6069C19.7799 66.7576 24.0963 66.8142 28.6589 66.5563L25.2729 6.65195C23.2748 6.76489 21.0096 6.75972 18.284 6.6529L15.9344 66.6069ZM28.625 66.5582C48.8172 65.4398 65.7775 49.6078 67.0211 28.4668L7.12467 24.9433C7.73206 14.6181 16.0873 7.16069 25.3068 6.65005L28.625 66.5582ZM67.0212 28.465C67.2917 23.8621 67.3014 19.1995 67.0186 14.5066L7.12724 18.1164C7.26161 20.3457 7.26086 22.6258 7.12457 24.9451L67.0212 28.465ZM67.0175 14.4892C65.7664 -6.06913 49.3514 -22.0515 29.2512 -23.397L25.2438 36.469C15.7617 35.8343 7.74311 28.2368 7.12829 18.1338L67.0175 14.4892ZM29.2352 -23.3981C24.1298 -23.7371 19.1405 -23.6919 14.3448 -23.3802L18.236 36.4934C20.7312 36.3313 23.0744 36.325 25.2598 36.4701L29.2352 -23.3981ZM14.2235 -23.3721C16.3073 -23.516 22.7016 -23.7533 29.7251 -19.9489C36.7463 -16.1457 40.0256 -10.6527 40.9248 -9.08165L-11.1497 20.7218C-9.91157 22.8852 -6.30367 28.7722 1.1478 32.8085C8.60149 36.8459 15.5278 36.6807 18.3573 36.4853L14.2235 -23.3721ZM40.8438 -9.22219C39.5936 -11.3796 38.2675 -13.4836 37.3867 -14.8972L-13.5361 16.834C-12.4143 18.6343 -11.7168 19.7441 -11.0688 20.8624L40.8438 -9.22219ZM37.2991 -15.037C37.3954 -14.8842 38.6555 -12.9526 39.7295 -10.2246C40.6976 -7.76572 43.373 -0.13635 40.5087 9.31757C37.3338 19.7966 29.7628 25.0636 25.6132 27.1968C21.8613 29.1255 18.6255 29.7451 17.8157 29.9011L6.4626 -29.015C5.43894 -28.8177 2.04469 -28.1511 -1.81833 -26.1653C-6.07908 -23.975 -13.714 -18.6407 -16.9136 -8.07993C-19.8027 1.45575 -17.1129 9.18138 -16.0995 11.7553C-14.9802 14.5984 -13.6439 16.664 -13.4485 16.9738L37.2991 -15.037ZM17.6373 29.9349C17.8901 29.8878 17.976 29.8724 18.0212 29.8645C18.0534 29.859 17.9559 29.8764 17.7765 29.9012C17.4321 29.9487 16.5632 30.0556 15.3702 30.0616L15.0724 -29.9377C10.9363 -29.9172 7.35179 -29.1813 6.64093 -29.0488L17.6373 29.9349ZM15.2897 30.0619C21.054 30.0487 23.8482 29.9143 27.4053 30.077L30.1458 -29.8604C24.6911 -30.1098 18.4317 -29.9455 15.153 -29.938L15.2897 30.0619ZM27.3898 30.0763C24.8901 29.9607 21.5784 28.9546 18.6394 26.3361C15.698 23.7154 14.2062 20.4324 13.7786 17.6511L73.0818 8.53391C69.7292 -13.2738 51.9988 -28.8499 30.1613 -29.8597L27.3898 30.0763ZM13.7822 17.6746C13.6755 16.9841 13.6418 16.3782 13.6444 15.8855L73.6436 16.2019C73.6566 13.7314 73.4874 11.158 73.0782 8.51037L13.7822 17.6746ZM13.6441 15.9656C13.6304 21.2281 13.7408 23.5965 13.6209 27.0047L73.5837 29.1145C73.7454 24.519 73.6368 18.8733 73.6439 16.1218L13.6441 15.9656ZM13.6219 26.9754C13.7181 24.3139 14.785 20.8666 17.4911 17.879C20.1709 14.9203 23.4444 13.53 26.0667 13.1545L34.5717 72.5487C56.4138 69.421 72.7645 51.77 73.5827 29.1438L13.6219 26.9754ZM26.1056 13.149C26.543 13.0869 27.0676 13.0446 27.6441 13.0477L27.3203 73.0469C29.8056 73.0603 32.2076 72.8841 34.5329 72.5542L26.1056 13.149ZM27.5211 13.0473C22.6743 13.0411 19.8314 13.1183 16.2609 13.0349L14.8597 73.0185C19.2267 73.1205 24.3421 73.0433 27.4433 73.0473L27.5211 13.0473ZM16.2484 13.0346C17.1779 13.0559 19.0307 13.2632 21.2728 14.2935C23.6177 15.3711 25.5021 16.9462 26.7865 18.5616L-20.1773 55.9033C-10.7234 67.7932 2.40984 72.7329 14.8722 73.0188L16.2484 13.0346ZM26.804 18.5837C27.8727 19.9303 28.7357 21.5116 29.3032 23.2046C29.8595 24.8644 30.0254 26.3087 30.0378 27.352L-29.9579 28.0667C-29.8463 37.4402 -26.9982 47.3084 -20.1948 55.8813L26.804 18.5837ZM30.0377 27.3425C29.9878 23.2599 29.9802 19.3478 30.0595 15.5341L-29.9275 14.287C-30.0255 19.0024 -30.0122 23.6297 -29.9578 28.0762L30.0377 27.3425ZM30.0604 15.4906C30.0168 17.7459 29.3118 21.2154 26.8363 24.5609L-21.3952 -11.1284C-27.4379 -2.96206 -29.77 6.14201 -29.9284 14.3306L30.0604 15.4906ZM26.7965 24.6145C25.4787 26.3872 22.8768 29.3463 18.5309 31.6722C13.7413 34.2355 8.03161 35.3597 2.30121 34.5176L11.0252 -24.8448C-5.81628 -27.3199 -16.8223 -17.2797 -21.3554 -11.182L26.7965 24.6145ZM2.30804 34.5186C-0.647674 34.0849 -3.82833 33.0935 -6.92583 31.3324C-10.0178 29.5745 -12.4614 27.3713 -14.3033 25.1262L32.0835 -12.9298C26.8314 -19.3317 19.4132 -23.6141 11.0184 -24.8458L2.30804 34.5186ZM-14.2359 25.2081C-10.358 29.901 -6.47685 34.5863 -2.60911 39.2554L43.5968 0.979905C39.7252 -3.69383 35.8671 -8.35137 32.0161 -13.0117L-14.2359 25.2081ZM-2.65657 39.198C-2.50571 39.381 -2.35024 39.5707 -2.16313 39.799C-1.98517 40.0162 -1.77558 40.272 -1.56139 40.5319L44.7395 2.37131C44.5886 2.18826 44.4331 1.99856 44.246 1.77022C44.0681 1.55305 43.8585 1.29724 43.6443 1.03735L-2.65657 39.198ZM-1.53018 40.5697C-5.1681 36.1704 -7.78268 29.8313 -7.30187 22.4879C-6.80919 14.9629 -3.13066 8.1345 2.53576 3.62424L39.9018 50.5687C56.4669 37.3835 55.5163 15.4035 44.7083 2.33351L-1.53018 40.5697ZM2.52617 3.63188C14.6152 -5.99857 30.6956 -2.624 38.8561 7.56497L-7.97537 45.0725C3.10554 58.908 24.3699 62.9418 39.9114 50.5611L2.52617 3.63188ZM38.8604 7.57035C37.2366 5.54201 35.7513 3.61712 33.8543 1.19636L-13.3727 38.2046C-11.8068 40.2029 -9.86053 42.7176 -7.97968 45.0672L38.8604 7.57035ZM33.8456 1.18518C32.5754 -0.43413 31.6172 -1.64902 30.3371 -3.28221L-16.8855 33.7317C-15.7353 35.1991 -14.3884 36.9096 -13.3639 38.2158L33.8456 1.18518ZM-21.698 5.62858L-21.7032 5.64403L35.1444 24.8364L35.1496 24.8209L-21.698 5.62858Z" fill="#2776EA" mask="url(#path-1-inside-1_376_142090)"/>
<path d="M21.8216 15.1848C19.986 15.1848 18.5884 13.7994 18.5884 11.9866C18.5884 10.2149 20.0068 8.81407 21.7956 8.80377C23.6364 8.79347 25.0705 10.2149 25.0601 12.0381C25.0497 13.8046 23.626 15.1848 21.8216 15.1848Z" fill="#F9D00D"/>
</svg>
