<svg width="95" height="58" viewBox="0 0 95 58" fill="none" xmlns="http://www.w3.org/2000/svg">
<path d="M49.0745 0C50.9094 0.185851 52.1608 0.584811 53.6142 1.12378C60.5687 3.7009 65.0341 8.5578 66.594 15.8679C67.4848 20.0496 66.7266 24.0453 64.9399 27.9036C62.7394 32.6626 59.1079 35.863 54.3724 37.9024C52.2661 38.8093 50.0174 38.9952 47.7574 38.9208C46.1318 38.8688 44.5112 38.6842 42.8894 38.5491C42.7257 38.5171 42.5661 38.4668 42.4136 38.3992V38.2307C43.074 38.0374 43.7406 37.859 44.396 37.6496C47.3361 36.6869 49.3099 34.733 50.3432 31.8263C50.8314 30.5078 51.0423 29.1028 50.9627 27.6992C50.9556 27.4932 51.0095 27.2898 51.1176 27.1144C52.0134 25.656 52.9253 24.2077 53.8434 22.7605C53.9016 22.6688 54.0243 22.618 54.1903 22.4916C55.0204 25.827 54.6091 28.9345 53.017 31.8746C51.4249 34.8148 48.9927 36.7488 45.8308 37.8119C47.0195 37.6588 48.1636 37.261 49.1909 36.6435C53.3565 34.1395 55.3005 30.3395 55.4454 25.5941C55.4838 24.365 55.0737 23.1235 54.8755 21.887C54.8445 21.6925 54.7689 21.4434 54.8519 21.3022C55.7639 19.7658 56.703 18.248 57.7463 16.7179C59.0323 19.4363 59.6481 22.3169 59.3161 25.2881C58.9692 28.3038 57.7463 31.0259 55.7267 33.3552C53.7195 35.6635 51.2415 37.2147 48.1514 38.0808C48.9877 38.1403 50.7781 37.631 51.7941 37.0648C56.1864 34.6128 58.9617 30.9379 59.9554 26.0005C60.6406 22.5895 60.1512 19.321 58.4203 16.2619C58.3125 16.0711 58.3447 15.6994 58.4636 15.5037C58.7114 15.0898 59.0646 14.7379 59.4078 14.3192C62.0456 18.7226 63.4729 23.2858 61.742 28.2877C60.0421 33.2041 56.5382 36.3858 51.6429 38.1031C52.9334 37.8668 54.174 37.4122 55.3116 36.7588C58.4674 34.925 60.7112 32.2736 62.2129 28.9766C63.4519 26.2433 64.2411 23.4011 64.0714 20.3605C63.893 17.159 62.9488 14.199 61.1647 11.5463C57.3238 5.84686 51.8982 3.19167 45.0824 3.50514C39.8166 3.74675 35.6189 6.23095 32.2389 10.1784C30.4287 12.2922 29.383 14.7788 28.8601 17.496C28.6706 18.4797 28.4884 19.466 28.3088 20.4522L28.4822 20.4844C28.5727 20.0136 28.6656 19.544 28.7536 19.0732C29.9269 12.7085 33.4841 8.14893 39.2851 5.37852C42.2971 3.94127 45.5185 3.78763 48.7932 4.23987C53.1186 4.83831 56.5989 6.95329 59.4908 10.1363C59.6419 10.3036 59.6927 10.7434 59.5812 10.9367C58.9481 12.0444 58.2555 13.1173 57.5852 14.2015C57.5418 14.2721 57.5084 14.3489 57.4254 14.51C57.0338 14.0292 56.7253 13.6538 56.4218 13.271C53.6898 9.85999 50.1028 8.04114 45.7886 7.67439C41.8759 7.34234 38.2976 8.36451 35.1258 10.6728C33.1607 12.1026 31.7061 13.9958 30.653 16.1814C29.554 18.4636 28.7945 20.845 28.7276 23.406C28.7214 23.6315 28.735 23.8595 28.7474 24.0862C28.7706 24.1721 28.803 24.2551 28.844 24.334C28.9877 23.3106 29.0621 22.3677 29.2603 21.4521C30.0669 17.7351 31.6801 14.4257 34.567 11.8808C37.7339 9.09057 41.5438 8.14769 45.6722 8.49461C49.8625 8.84649 53.266 10.8016 55.9906 13.9611C57.0004 15.1307 56.9669 15.1481 56.1071 16.4391C55.5458 17.2791 55.0093 18.1365 54.4604 18.984C54.3291 19.186 54.1878 19.3817 53.9822 19.6828C51.7086 15.521 48.1861 13.3292 43.6476 12.7964C40.9689 12.4817 38.4376 13.1347 36.1269 14.531C31.239 17.496 29.098 22.7518 29.8687 26.7067C30.1289 25.3612 30.285 23.6699 30.793 22.0927C32.2946 17.4216 35.6536 14.8259 40.4138 13.9797C45.246 13.1198 48.9753 15.0452 52.0084 18.6582C52.4582 19.1934 52.8609 19.7733 53.2697 20.337C53.3366 20.4299 53.3812 20.6207 53.3304 20.7013C52.4384 22.1497 51.5289 23.5882 50.5464 25.1493C49.4586 22.1373 47.6868 19.9306 44.8049 18.7771C42.5573 17.8776 40.2292 17.6385 37.8962 18.3633C33.4482 19.7472 30.0743 24.4183 30.8339 28.647C30.9677 27.9862 31.1019 27.3254 31.2365 26.6646C31.9799 23.0182 34.1457 20.6183 37.688 19.5391C42.0047 18.2245 46.3177 19.7869 48.5913 23.6513C49.0256 24.4227 49.4173 25.2173 49.7646 26.0315C49.8002 26.1325 49.8141 26.2399 49.8054 26.3466C49.7966 26.4534 49.7654 26.5571 49.7138 26.651C48.4525 28.6334 47.1701 30.6022 45.8902 32.5722C45.8716 32.6007 45.8208 32.6093 45.7428 32.6477C45.495 32.1621 45.2732 31.6565 44.9994 31.1907C43.3218 28.3992 40.9825 26.4911 37.6694 26.0934C36.5666 25.9615 35.4489 26.0368 34.3737 26.3152C32.732 26.7575 31.8734 28.0337 31.5983 29.6964C31.5525 29.9727 31.4918 30.2466 31.4385 30.5216L31.2241 30.6728C31.1572 30.5266 31.0854 30.3828 31.0234 30.2342C30.3407 28.6136 29.6779 26.9843 28.9729 25.3736C28.0486 23.2672 27.7512 21.0593 27.8999 18.7858C28.3831 11.3827 31.9601 5.95961 38.4314 2.39252C40.477 1.26379 42.6787 0.612069 44.9709 0.227978C45.2302 0.168099 46.5729 0 46.9446 0H49.0745Z" fill="#7A7A7A"/>
<path d="M50.0385 29.186C49.735 32.8472 47.9099 35.5049 44.5869 37.3213L49.8589 29.0918L50.0385 29.186Z" fill="#7A7A7A"/>
<path d="M1.40732 48.1563L0 43.6012H0.805418L1.81003 47.2084C1.82157 47.1598 1.90096 46.8467 2.04819 46.2691L2.77999 43.6012H3.58108L4.26958 46.2433L4.49908 47.114L4.76323 46.2348L5.55132 43.6012H6.30911L4.87148 48.1563H4.06173L3.32993 45.4284L3.15239 44.6521L2.2214 48.1563H1.40732Z" fill="#7A7A7A"/>
<path d="M7.81602 48.1563L6.40871 43.6012H7.21412L8.21873 47.2084C8.23028 47.1598 8.30967 46.8467 8.45689 46.2691L9.1887 43.6012H9.98979L10.6783 46.2433L10.9078 47.114L11.1719 46.2348L11.96 43.6012H12.7178L11.2802 48.1563H10.4704L9.73863 45.4284L9.5611 44.6521L8.6301 48.1563H7.81602Z" fill="#7A7A7A"/>
<path d="M14.2247 48.1563L12.8174 43.6012H13.6228L14.6274 47.2084C14.639 47.1598 14.7184 46.8467 14.8656 46.2691L15.5974 43.6012H16.3985L17.087 46.2433L17.3165 47.114L17.5806 46.2348L18.3687 43.6012H19.1265L17.6889 48.1563H16.8791L16.1473 45.4284L15.9698 44.6521L15.0388 48.1563H14.2247Z" fill="#7A7A7A"/>
<path d="M19.5119 48.1563V47.277H20.3996V48.1563H19.5119Z" fill="#7A7A7A"/>
<path d="M21.8242 48.1563V41.8684H22.6643V47.4143H25.7907V48.1563H21.8242Z" fill="#7A7A7A"/>
<path d="M26.4056 45.8788C26.4056 45.0352 26.6423 44.4104 27.1158 44.0044C27.5112 43.667 27.9933 43.4983 28.562 43.4983C29.1943 43.4983 29.711 43.7042 30.1123 44.1159C30.5135 44.5248 30.7142 45.091 30.7142 45.8144C30.7142 46.4006 30.6247 46.8624 30.4457 47.1998C30.2696 47.5344 30.0112 47.7946 29.6706 47.9804C29.3328 48.1663 28.9633 48.2592 28.562 48.2592C27.9183 48.2592 27.3972 48.0548 26.9988 47.6459C26.6033 47.237 26.4056 46.6479 26.4056 45.8788ZM27.2067 45.8788C27.2067 46.4621 27.3351 46.8996 27.5921 47.1912C27.849 47.48 28.1723 47.6244 28.562 47.6244C28.9489 47.6244 29.2708 47.4786 29.5277 47.1869C29.7846 46.8953 29.9131 46.4506 29.9131 45.853C29.9131 45.2897 29.7832 44.8637 29.5233 44.5749C29.2664 44.2832 28.946 44.1374 28.562 44.1374C28.1723 44.1374 27.849 44.2818 27.5921 44.5706C27.3351 44.8594 27.2067 45.2954 27.2067 45.8788Z" fill="#7A7A7A"/>
<path d="M31.6322 48.1563V43.6012H32.3337V44.2489C32.6714 43.7485 33.1593 43.4983 33.7973 43.4983C34.0744 43.4983 34.3284 43.5483 34.5594 43.6484C34.7932 43.7456 34.9679 43.8743 35.0833 44.0344C35.1988 44.1946 35.2796 44.3847 35.3258 44.6049C35.3547 44.7479 35.3691 44.9981 35.3691 45.3555V48.1563H34.5897V45.3855C34.5897 45.071 34.5594 44.8365 34.4988 44.6821C34.4381 44.5248 34.3299 44.4004 34.174 44.3089C34.021 44.2146 33.8406 44.1674 33.6327 44.1674C33.3007 44.1674 33.0135 44.2718 32.771 44.4805C32.5314 44.6892 32.4116 45.0853 32.4116 45.6686V48.1563H31.6322Z" fill="#7A7A7A"/>
<path d="M39.5521 48.1563V47.5815C39.2605 48.0333 38.8318 48.2592 38.266 48.2592C37.8994 48.2592 37.5617 48.1591 37.2528 47.959C36.9468 47.7588 36.7086 47.48 36.5383 47.1226C36.3708 46.7623 36.2871 46.3491 36.2871 45.883C36.2871 45.4284 36.3636 45.0166 36.5166 44.6478C36.6696 44.276 36.8991 43.9915 37.2051 43.7942C37.5111 43.5969 37.8532 43.4983 38.2314 43.4983C38.5085 43.4983 38.7553 43.5569 38.9719 43.6741C39.1884 43.7885 39.3645 43.9386 39.5001 44.1245V41.8684H40.2752V48.1563H39.5521ZM37.0882 45.883C37.0882 46.4664 37.2123 46.9024 37.4606 47.1912C37.7089 47.48 38.0019 47.6244 38.3396 47.6244C38.6803 47.6244 38.969 47.4872 39.2057 47.2127C39.4453 46.9353 39.5651 46.5135 39.5651 45.9474C39.5651 45.324 39.4439 44.8665 39.2014 44.5749C38.9589 44.2832 38.6601 44.1374 38.305 44.1374C37.9586 44.1374 37.6685 44.2775 37.4346 44.5577C37.2037 44.8379 37.0882 45.2797 37.0882 45.883Z" fill="#7A7A7A"/>
<path d="M41.2149 45.8788C41.2149 45.0352 41.4516 44.4104 41.9251 44.0044C42.3205 43.667 42.8026 43.4983 43.3713 43.4983C44.0036 43.4983 44.5203 43.7042 44.9216 44.1159C45.3228 44.5248 45.5235 45.091 45.5235 45.8144C45.5235 46.4006 45.434 46.8624 45.255 47.1998C45.0789 47.5344 44.8205 47.7946 44.4799 47.9804C44.1421 48.1663 43.7726 48.2592 43.3713 48.2592C42.7276 48.2592 42.2065 48.0548 41.8081 47.6459C41.4127 47.237 41.2149 46.6479 41.2149 45.8788ZM42.016 45.8788C42.016 46.4621 42.1445 46.8996 42.4014 47.1912C42.6583 47.48 42.9816 47.6244 43.3713 47.6244C43.7582 47.6244 44.0801 47.4786 44.337 47.1869C44.5939 46.8953 44.7224 46.4506 44.7224 45.853C44.7224 45.2897 44.5925 44.8637 44.3327 44.5749C44.0757 44.2832 43.7553 44.1374 43.3713 44.1374C42.9816 44.1374 42.6583 44.2818 42.4014 44.5706C42.1445 44.8594 42.016 45.2954 42.016 45.8788Z" fill="#7A7A7A"/>
<path d="M46.4415 48.1563V43.6012H47.143V44.2489C47.4807 43.7485 47.9686 43.4983 48.6066 43.4983C48.8837 43.4983 49.1377 43.5483 49.3687 43.6484C49.6025 43.7456 49.7772 43.8743 49.8926 44.0344C50.0081 44.1946 50.0889 44.3847 50.1351 44.6049C50.164 44.7479 50.1784 44.9981 50.1784 45.3555V48.1563H49.399V45.3855C49.399 45.071 49.3687 44.8365 49.3081 44.6821C49.2474 44.5248 49.1392 44.4004 48.9833 44.3089C48.8303 44.2146 48.6499 44.1674 48.442 44.1674C48.11 44.1674 47.8228 44.2718 47.5803 44.4805C47.3407 44.6892 47.2209 45.0853 47.2209 45.6686V48.1563H46.4415Z" fill="#7A7A7A"/>
<path d="M51.0748 46.2691V45.4927H53.4694V46.2691H51.0748Z" fill="#7A7A7A"/>
<path d="M54.3961 48.1563V41.8684H56.7777C57.2626 41.8684 57.6509 41.9327 57.9425 42.0614C58.2369 42.1872 58.4664 42.3831 58.631 42.649C58.7984 42.9121 58.8821 43.188 58.8821 43.4768C58.8821 43.7456 58.8085 43.9987 58.6613 44.236C58.5141 44.4733 58.2918 44.6649 57.9945 44.8108C58.3784 44.9223 58.6729 45.1124 58.8778 45.3812C59.0857 45.65 59.1896 45.9674 59.1896 46.3334C59.1896 46.6279 59.1261 46.9024 58.9991 47.1569C58.8749 47.4085 58.7205 47.603 58.5357 47.7402C58.351 47.8775 58.1186 47.9819 57.8386 48.0533C57.5614 48.122 57.2208 48.1563 56.8166 48.1563H54.3961ZM55.2361 44.5105H56.6088C56.9812 44.5105 57.2482 44.4862 57.4099 44.4376C57.6235 44.3747 57.7837 44.2703 57.8905 44.1245C58.0002 43.9787 58.0551 43.7957 58.0551 43.5755C58.0551 43.3667 58.0046 43.1837 57.9035 43.0265C57.8025 42.8663 57.6581 42.7577 57.4705 42.7005C57.2829 42.6405 56.961 42.6104 56.5049 42.6104H55.2361V44.5105ZM55.2361 47.4143H56.8166C57.088 47.4143 57.2785 47.4043 57.3882 47.3842C57.5816 47.3499 57.7433 47.2927 57.8732 47.2127C58.0031 47.1326 58.1099 47.0168 58.1936 46.8653C58.2774 46.7108 58.3192 46.5336 58.3192 46.3334C58.3192 46.0989 58.2586 45.8959 58.1374 45.7243C58.0161 45.5499 57.8472 45.4284 57.6307 45.3598C57.4171 45.2883 57.1082 45.2525 56.7041 45.2525H55.2361V47.4143Z" fill="#7A7A7A"/>
<path d="M60.2375 48.1563V43.6012H60.939V44.2918C61.118 43.9687 61.2825 43.7556 61.4326 43.6527C61.5856 43.5498 61.7531 43.4983 61.9349 43.4983C62.1976 43.4983 62.4647 43.5812 62.736 43.7471L62.4676 44.4633C62.277 44.3518 62.0865 44.2961 61.896 44.2961C61.7257 44.2961 61.5726 44.3475 61.437 44.4505C61.3013 44.5506 61.2046 44.6907 61.1468 44.8708C61.0602 45.1453 61.0169 45.4456 61.0169 45.7715V48.1563H60.2375Z" fill="#7A7A7A"/>
<path d="M66.2002 47.5944C65.9115 47.8375 65.6329 48.009 65.3645 48.1091C65.0989 48.2092 64.8131 48.2592 64.5071 48.2592C64.0019 48.2592 63.6136 48.1377 63.3423 47.8947C63.0709 47.6487 62.9352 47.3356 62.9352 46.9553C62.9352 46.7323 62.9857 46.5293 63.0868 46.3463C63.1907 46.1604 63.3249 46.0117 63.4895 45.9002C63.6569 45.7887 63.8446 45.7043 64.0524 45.6471C64.2054 45.6071 64.4364 45.5685 64.7452 45.5313C65.3746 45.457 65.8379 45.3683 66.1352 45.2654C66.1381 45.1596 66.1396 45.0924 66.1396 45.0638C66.1396 44.7493 66.066 44.5277 65.9187 44.399C65.7195 44.2246 65.4236 44.1374 65.031 44.1374C64.6644 44.1374 64.3931 44.2017 64.217 44.3304C64.0438 44.4562 63.9153 44.6807 63.8316 45.0038L63.0695 44.9008C63.1387 44.5777 63.2528 44.3175 63.4115 44.1202C63.5703 43.92 63.7998 43.7671 64.1 43.6613C64.4003 43.5526 64.7481 43.4983 65.1436 43.4983C65.5362 43.4983 65.8552 43.544 66.1006 43.6355C66.346 43.727 66.5264 43.8428 66.6419 43.983C66.7573 44.1202 66.8382 44.2946 66.8844 44.5062C66.9103 44.6378 66.9233 44.8751 66.9233 45.2182V46.2476C66.9233 46.9653 66.9392 47.42 66.971 47.6116C67.0056 47.8003 67.072 47.9819 67.1702 48.1563H66.3561C66.2753 47.9962 66.2233 47.8089 66.2002 47.5944ZM66.1352 45.8702C65.8523 45.9846 65.428 46.0818 64.8622 46.1618C64.5417 46.2076 64.3151 46.2591 64.1823 46.3162C64.0495 46.3734 63.947 46.4578 63.8749 46.5693C63.8027 46.678 63.7666 46.7995 63.7666 46.9339C63.7666 47.1398 63.8446 47.3113 64.0005 47.4486C64.1592 47.5858 64.3902 47.6545 64.6933 47.6545C64.9935 47.6545 65.2605 47.5901 65.4944 47.4614C65.7282 47.3299 65.9 47.1512 66.0097 46.9253C66.0934 46.7509 66.1352 46.4935 66.1352 46.1533V45.8702Z" fill="#7A7A7A"/>
<path d="M67.7244 48.1563V47.5301L70.6516 44.2017C70.3197 44.2189 70.0267 44.2274 69.7726 44.2274H67.8976V43.6012H71.6563V44.1116L69.1664 47.0025L68.6857 47.5301C69.035 47.5043 69.3627 47.4915 69.6687 47.4915H71.7948V48.1563H67.7244Z" fill="#7A7A7A"/>
<path d="M72.5743 42.7563V41.8684H73.3537V42.7563H72.5743ZM72.5743 48.1563V43.6012H73.3537V48.1563H72.5743Z" fill="#7A7A7A"/>
<path d="M74.5272 48.1563V41.8684H75.3066V48.1563H74.5272Z" fill="#7A7A7A"/>
<path d="M76.7399 48.1563V47.277H77.6276V48.1563H76.7399Z" fill="#7A7A7A"/>
<path d="M81.9881 46.4878L82.7546 46.5865C82.6709 47.1097 82.4558 47.5201 82.1094 47.8174C81.7658 48.112 81.3429 48.2592 80.8406 48.2592C80.2113 48.2592 79.7047 48.0562 79.3207 47.6502C78.9397 47.2413 78.7491 46.6565 78.7491 45.8959C78.7491 45.4041 78.8314 44.9737 78.996 44.6049C79.1605 44.236 79.4102 43.9601 79.7451 43.7771C80.0828 43.5912 80.4495 43.4983 80.845 43.4983C81.3444 43.4983 81.7529 43.6241 82.0704 43.8757C82.388 44.1245 82.5915 44.4791 82.681 44.9394L81.9232 45.0552C81.851 44.7493 81.7225 44.5191 81.5378 44.3647C81.3559 44.2103 81.1351 44.1331 80.8753 44.1331C80.4827 44.1331 80.1637 44.2732 79.9183 44.5534C79.6729 44.8308 79.5502 45.2711 79.5502 45.8745C79.5502 46.4864 79.6686 46.931 79.9053 47.2084C80.142 47.4858 80.4509 47.6244 80.832 47.6244C81.138 47.6244 81.3934 47.5315 81.5984 47.3456C81.8034 47.1598 81.9333 46.8738 81.9881 46.4878Z" fill="#7A7A7A"/>
<path d="M83.1313 45.8788C83.1313 45.0352 83.368 44.4104 83.8415 44.0044C84.2369 43.667 84.719 43.4983 85.2877 43.4983C85.92 43.4983 86.4367 43.7042 86.838 44.1159C87.2392 44.5248 87.4399 45.091 87.4399 45.8144C87.4399 46.4006 87.3504 46.8624 87.1714 47.1998C86.9953 47.5344 86.7369 47.7946 86.3963 47.9804C86.0585 48.1663 85.689 48.2592 85.2877 48.2592C84.644 48.2592 84.1229 48.0548 83.7245 47.6459C83.329 47.237 83.1313 46.6479 83.1313 45.8788ZM83.9324 45.8788C83.9324 46.4621 84.0609 46.8996 84.3178 47.1912C84.5747 47.48 84.898 47.6244 85.2877 47.6244C85.6746 47.6244 85.9965 47.4786 86.2534 47.1869C86.5103 46.8953 86.6388 46.4506 86.6388 45.853C86.6388 45.2897 86.5089 44.8637 86.2491 44.5749C85.9921 44.2832 85.6717 44.1374 85.2877 44.1374C84.898 44.1374 84.5747 44.2818 84.3178 44.5706C84.0609 44.8594 83.9324 45.2954 83.9324 45.8788Z" fill="#7A7A7A"/>
<path d="M88.3579 48.1563V43.6012H89.055V44.2403C89.1994 44.0173 89.3913 43.8386 89.6309 43.7042C89.8705 43.5669 90.1433 43.4983 90.4493 43.4983C90.79 43.4983 91.0686 43.5683 91.2851 43.7084C91.5045 43.8486 91.6589 44.0444 91.7484 44.2961C92.1122 43.7642 92.5856 43.4983 93.1687 43.4983C93.6248 43.4983 93.9756 43.6241 94.221 43.8757C94.4663 44.1245 94.589 44.5091 94.589 45.0295V48.1563H93.8139V45.2869C93.8139 44.978 93.7879 44.7564 93.736 44.622C93.6869 44.4848 93.596 44.3747 93.4632 44.2918C93.3304 44.2088 93.1745 44.1674 92.9955 44.1674C92.6722 44.1674 92.4037 44.2746 92.1901 44.4891C91.9765 44.7007 91.8697 45.0409 91.8697 45.5099V48.1563H91.0902V45.1968C91.0902 44.8537 91.0267 44.5963 90.8997 44.4247C90.7727 44.2532 90.5648 44.1674 90.2761 44.1674C90.0567 44.1674 89.8532 44.2246 89.6656 44.339C89.4808 44.4533 89.3466 44.6206 89.2629 44.8408C89.1792 45.061 89.1373 45.3784 89.1373 45.793V48.1563H88.3579Z" fill="#7A7A7A"/>
<path d="M21.4355 55.9983V55.4245L23.527 55.4211V57.2359C23.2059 57.4895 22.8747 57.6807 22.5334 57.8097C22.1921 57.9365 21.8419 57.9999 21.4826 57.9999C20.9977 57.9999 20.5565 57.8976 20.159 57.693C19.7639 57.4861 19.4652 57.1881 19.2632 56.7989C19.0611 56.4097 18.96 55.9749 18.96 55.4945C18.96 55.0186 19.06 54.5749 19.2598 54.1635C19.4619 53.7498 19.7515 53.4429 20.1287 53.2427C20.5059 53.0426 20.9404 52.9425 21.4321 52.9425C21.7891 52.9425 22.1113 53.0003 22.3987 53.116C22.6884 53.2294 22.9151 53.3884 23.079 53.593C23.2429 53.7976 23.3676 54.0645 23.4529 54.3937L22.8635 54.5538C22.7894 54.3047 22.6973 54.109 22.5873 53.9666C22.4773 53.8243 22.3201 53.7109 22.1158 53.6264C21.9115 53.5396 21.6847 53.4963 21.4355 53.4963C21.1369 53.4963 20.8787 53.5419 20.6609 53.633C20.4431 53.722 20.2668 53.8399 20.1321 53.9867C19.9996 54.1334 19.8963 54.2947 19.8222 54.4704C19.6965 54.7728 19.6336 55.1009 19.6336 55.4545C19.6336 55.8904 19.7089 56.2551 19.8593 56.5487C20.012 56.8423 20.2331 57.0602 20.5228 57.2026C20.8124 57.3449 21.12 57.4161 21.4456 57.4161C21.7285 57.4161 22.0047 57.3627 22.2741 57.2559C22.5435 57.147 22.7479 57.0313 22.8871 56.909V55.9983H21.4355Z" fill="#7A7A7A"/>
<path d="M24.4026 57.9165V53.0259H25.0089V57.9165H24.4026Z" fill="#7A7A7A"/>
<path d="M25.7262 56.1451C25.7262 55.489 25.9104 55.003 26.2786 54.6872C26.5862 54.4248 26.9611 54.2936 27.4035 54.2936C27.8952 54.2936 28.2971 54.4537 28.6092 54.774C28.9213 55.092 29.0773 55.5323 29.0773 56.095C29.0773 56.5509 29.0077 56.9101 28.8685 57.1725C28.7316 57.4327 28.5306 57.6351 28.2657 57.7797C28.003 57.9243 27.7156 57.9965 27.4035 57.9965C26.9028 57.9965 26.4975 57.8375 26.1876 57.5195C25.88 57.2015 25.7262 56.7433 25.7262 56.1451ZM26.3493 56.1451C26.3493 56.5987 26.4492 56.939 26.6491 57.1659C26.8489 57.3905 27.1004 57.5028 27.4035 57.5028C27.7043 57.5028 27.9547 57.3894 28.1545 57.1625C28.3544 56.9357 28.4543 56.5899 28.4543 56.125C28.4543 55.6869 28.3532 55.3555 28.1512 55.1309C27.9513 54.9041 27.7021 54.7906 27.4035 54.7906C27.1004 54.7906 26.8489 54.9029 26.6491 55.1276C26.4492 55.3522 26.3493 55.6914 26.3493 56.1451Z" fill="#7A7A7A"/>
<path d="M30.3504 57.9165H29.788V53.0259H30.3942V54.7706C30.6502 54.4526 30.9769 54.2936 31.3743 54.2936C31.5943 54.2936 31.802 54.3381 31.9973 54.427C32.1949 54.5137 32.3566 54.6372 32.4823 54.7973C32.6103 54.9552 32.7102 55.1465 32.7821 55.3711C32.8539 55.5957 32.8898 55.8359 32.8898 56.0917C32.8898 56.6988 32.7383 57.1681 32.4352 57.4995C32.1321 57.8308 31.7683 57.9965 31.344 57.9965C30.9218 57.9965 30.5907 57.8219 30.3504 57.4728V57.9165ZM30.3437 56.1184C30.3437 56.5431 30.4021 56.8501 30.5188 57.0391C30.7097 57.3482 30.9679 57.5028 31.2934 57.5028C31.5584 57.5028 31.7874 57.3894 31.9805 57.1625C32.1736 56.9335 32.2701 56.5932 32.2701 56.1417C32.2701 55.6791 32.177 55.3377 31.9906 55.1176C31.8065 54.8974 31.5831 54.7873 31.3204 54.7873C31.0554 54.7873 30.8264 54.9018 30.6333 55.1309C30.4402 55.3578 30.3437 55.6869 30.3437 56.1184Z" fill="#7A7A7A"/>
<path d="M35.9648 57.4795C35.7402 57.6685 35.5236 57.8019 35.3148 57.8798C35.1082 57.9576 34.8859 57.9965 34.6479 57.9965C34.255 57.9965 33.953 57.902 33.7419 57.713C33.5309 57.5217 33.4253 57.2782 33.4253 56.9824C33.4253 56.8089 33.4646 56.651 33.5432 56.5087C33.6241 56.3641 33.7285 56.2485 33.8564 56.1617C33.9867 56.075 34.1326 56.0094 34.2943 55.9649C34.4133 55.9338 34.5929 55.9037 34.8331 55.8748C35.3226 55.817 35.683 55.7481 35.9142 55.668C35.9165 55.5857 35.9176 55.5335 35.9176 55.5112C35.9176 55.2666 35.8604 55.0942 35.7459 54.9941C35.5909 54.8585 35.3608 54.7906 35.0554 54.7906C34.7703 54.7906 34.5592 54.8407 34.4223 54.9408C34.2875 55.0386 34.1876 55.2132 34.1225 55.4645L33.5298 55.3844C33.5836 55.1331 33.6723 54.9307 33.7958 54.7773C33.9193 54.6216 34.0978 54.5026 34.3313 54.4203C34.5648 54.3358 34.8354 54.2936 35.143 54.2936C35.4484 54.2936 35.6965 54.3292 35.8873 54.4003C36.0782 54.4715 36.2185 54.5616 36.3083 54.6705C36.3981 54.7773 36.461 54.913 36.4969 55.0775C36.5171 55.1798 36.5272 55.3644 36.5272 55.6313V56.4319C36.5272 56.9902 36.5396 57.3438 36.5643 57.4928C36.5912 57.6396 36.6428 57.7808 36.7192 57.9165H36.086C36.0231 57.7919 35.9827 57.6463 35.9648 57.4795ZM35.9142 56.1384C35.6942 56.2273 35.3642 56.303 34.9241 56.3652C34.6749 56.4008 34.4986 56.4408 34.3953 56.4853C34.292 56.5298 34.2123 56.5954 34.1562 56.6821C34.1001 56.7667 34.072 56.8612 34.072 56.9657C34.072 57.1258 34.1326 57.2593 34.2539 57.366C34.3773 57.4728 34.557 57.5262 34.7927 57.5262C35.0262 57.5262 35.2339 57.4761 35.4158 57.376C35.5977 57.2737 35.7313 57.1347 35.8166 56.959C35.8817 56.8234 35.9142 56.6232 35.9142 56.3586V56.1384Z" fill="#7A7A7A"/>
<path d="M37.4568 57.9165V53.0259H38.063V57.9165H37.4568Z" fill="#7A7A7A"/>
<path d="M41.0133 57.9165V53.0259H43.2025C43.6425 53.0259 43.9771 53.0704 44.2061 53.1593C44.4351 53.2461 44.6181 53.4006 44.7551 53.623C44.8921 53.8454 44.9605 54.0912 44.9605 54.3603C44.9605 54.7072 44.8471 54.9997 44.6204 55.2377C44.3936 55.4756 44.0433 55.6269 43.5696 55.6914C43.7425 55.7736 43.8738 55.8548 43.9636 55.9349C44.1545 56.1084 44.3352 56.3252 44.5059 56.5854L45.3647 57.9165H44.5429L43.8895 56.899C43.6987 56.6054 43.5415 56.3808 43.418 56.2251C43.2945 56.0694 43.1834 55.9605 43.0846 55.8982C42.988 55.8359 42.8893 55.7925 42.7882 55.7681C42.7141 55.7525 42.5929 55.7447 42.4245 55.7447H41.6667V57.9165H41.0133ZM41.6667 55.1843H43.0711C43.3697 55.1843 43.6033 55.1543 43.7717 55.0942C43.94 55.0319 44.068 54.9341 44.1556 54.8006C44.2432 54.665 44.2869 54.5182 44.2869 54.3603C44.2869 54.129 44.2016 53.9388 44.031 53.7898C43.8626 53.6408 43.5954 53.5663 43.2294 53.5663H41.6667V55.1843Z" fill="#7A7A7A"/>
<path d="M48.3588 56.7756L48.9852 56.8523C48.8864 57.2148 48.7034 57.4961 48.4362 57.6963C48.1691 57.8965 47.8278 57.9965 47.4124 57.9965C46.8892 57.9965 46.4739 57.8375 46.1663 57.5195C45.8609 57.1992 45.7082 56.7511 45.7082 56.1751C45.7082 55.579 45.8631 55.1165 46.173 54.7873C46.4828 54.4581 46.8848 54.2936 47.3787 54.2936C47.857 54.2936 48.2476 54.4548 48.5508 54.7773C48.8539 55.0998 49.0054 55.5535 49.0054 56.1384C49.0054 56.174 49.0043 56.2273 49.0021 56.2985H46.3347C46.3571 56.6877 46.4682 56.9857 46.6681 57.1926C46.8679 57.3994 47.1171 57.5028 47.4158 57.5028C47.638 57.5028 47.8278 57.445 47.9849 57.3293C48.1421 57.2137 48.2667 57.0291 48.3588 56.7756ZM46.3683 55.8048H48.3655C48.3386 55.5068 48.2622 55.2833 48.1365 55.1342C47.9434 54.9029 47.6931 54.7873 47.3854 54.7873C47.107 54.7873 46.8724 54.8796 46.6815 55.0642C46.4929 55.2488 46.3885 55.4956 46.3683 55.8048Z" fill="#7A7A7A"/>
<path d="M49.7363 57.9165V53.0259H50.3425V57.9165H49.7363Z" fill="#7A7A7A"/>
<path d="M51.0599 56.1451C51.0599 55.489 51.244 55.003 51.6122 54.6872C51.9198 54.4248 52.2948 54.2936 52.7371 54.2936C53.2288 54.2936 53.6307 54.4537 53.9428 54.774C54.2549 55.092 54.411 55.5323 54.411 56.095C54.411 56.5509 54.3414 56.9101 54.2022 57.1725C54.0652 57.4327 53.8642 57.6351 53.5993 57.7797C53.3366 57.9243 53.0492 57.9965 52.7371 57.9965C52.2364 57.9965 51.8311 57.8375 51.5213 57.5195C51.2137 57.2015 51.0599 56.7433 51.0599 56.1451ZM51.6829 56.1451C51.6829 56.5987 51.7829 56.939 51.9827 57.1659C52.1825 57.3905 52.434 57.5028 52.7371 57.5028C53.038 57.5028 53.2883 57.3894 53.4882 57.1625C53.688 56.9357 53.7879 56.5899 53.7879 56.125C53.7879 55.6869 53.6869 55.3555 53.4848 55.1309C53.285 54.9041 53.0357 54.7906 52.7371 54.7906C52.434 54.7906 52.1825 54.9029 51.9827 55.1276C51.7829 55.3522 51.6829 55.6914 51.6829 56.1451Z" fill="#7A7A7A"/>
<path d="M57.459 56.6188L58.0551 56.6955C57.99 57.1025 57.8227 57.4216 57.5533 57.6529C57.2861 57.882 56.9571 57.9965 56.5664 57.9965C56.077 57.9965 55.6829 57.8386 55.3843 57.5228C55.0879 57.2048 54.9397 56.75 54.9397 56.1584C54.9397 55.7759 55.0037 55.4412 55.1317 55.1543C55.2597 54.8674 55.4539 54.6527 55.7144 54.5104C55.9771 54.3659 56.2622 54.2936 56.5698 54.2936C56.9583 54.2936 57.276 54.3914 57.5229 54.5871C57.7699 54.7806 57.9282 55.0564 57.9978 55.4145L57.4084 55.5045C57.3523 55.2666 57.2524 55.0875 57.1087 54.9674C56.9672 54.8473 56.7955 54.7873 56.5934 54.7873C56.288 54.7873 56.0399 54.8963 55.8491 55.1142C55.6582 55.33 55.5628 55.6725 55.5628 56.1417C55.5628 56.6177 55.6549 56.9635 55.839 57.1792C56.0231 57.3949 56.2633 57.5028 56.5597 57.5028C56.7977 57.5028 56.9964 57.4305 57.1558 57.286C57.3153 57.1414 57.4163 56.919 57.459 56.6188Z" fill="#7A7A7A"/>
<path d="M60.9077 57.4795C60.6832 57.6685 60.4665 57.8019 60.2577 57.8798C60.0511 57.9576 59.8289 57.9965 59.5909 57.9965C59.1979 57.9965 58.8959 57.902 58.6849 57.713C58.4738 57.5217 58.3683 57.2782 58.3683 56.9824C58.3683 56.8089 58.4076 56.651 58.4862 56.5087C58.567 56.3641 58.6714 56.2485 58.7994 56.1617C58.9296 56.075 59.0756 56.0094 59.2372 55.9649C59.3562 55.9338 59.5358 55.9037 59.7761 55.8748C60.2656 55.817 60.6259 55.7481 60.8572 55.668C60.8594 55.5857 60.8606 55.5335 60.8606 55.5112C60.8606 55.2666 60.8033 55.0942 60.6888 54.9941C60.5339 54.8585 60.3037 54.7906 59.9984 54.7906C59.7132 54.7906 59.5022 54.8407 59.3652 54.9408C59.2305 55.0386 59.1306 55.2132 59.0655 55.4645L58.4727 55.3844C58.5266 55.1331 58.6153 54.9307 58.7388 54.7773C58.8623 54.6216 59.0408 54.5026 59.2743 54.4203C59.5078 54.3358 59.7783 54.2936 60.0859 54.2936C60.3913 54.2936 60.6394 54.3292 60.8303 54.4003C61.0211 54.4715 61.1614 54.5616 61.2513 54.6705C61.3411 54.7773 61.4039 54.913 61.4399 55.0775C61.4601 55.1798 61.4702 55.3644 61.4702 55.6313V56.4319C61.4702 56.9902 61.4825 57.3438 61.5072 57.4928C61.5342 57.6396 61.5858 57.7808 61.6621 57.9165H61.029C60.9661 57.7919 60.9257 57.6463 60.9077 57.4795ZM60.8572 56.1384C60.6372 56.2273 60.3071 56.303 59.867 56.3652C59.6178 56.4008 59.4415 56.4408 59.3383 56.4853C59.235 56.5298 59.1553 56.5954 59.0991 56.6821C59.043 56.7667 59.0149 56.8612 59.0149 56.9657C59.0149 57.1258 59.0756 57.2593 59.1968 57.366C59.3203 57.4728 59.4999 57.5262 59.7357 57.5262C59.9692 57.5262 60.1769 57.4761 60.3587 57.376C60.5406 57.2737 60.6742 57.1347 60.7595 56.959C60.8246 56.8234 60.8572 56.6232 60.8572 56.3586V56.1384Z" fill="#7A7A7A"/>
<path d="M63.7368 57.3794L63.8244 57.9098C63.6537 57.9454 63.501 57.9632 63.3663 57.9632C63.1463 57.9632 62.9756 57.9287 62.8544 57.8598C62.7331 57.7908 62.6478 57.7007 62.5984 57.5895C62.549 57.4761 62.5243 57.2393 62.5243 56.879V54.8407H62.0798V54.3736H62.5243V53.4963L63.1272 53.136V54.3736H63.7368V54.8407H63.1272V56.9123C63.1272 57.0836 63.1373 57.1937 63.1575 57.2426C63.18 57.2915 63.2148 57.3304 63.2619 57.3594C63.3113 57.3883 63.3809 57.4027 63.4707 57.4027C63.5381 57.4027 63.6268 57.3949 63.7368 57.3794Z" fill="#7A7A7A"/>
<path d="M64.3363 53.7164V53.0259H64.9425V53.7164H64.3363ZM64.3363 57.9165V54.3736H64.9425V57.9165H64.3363Z" fill="#7A7A7A"/>
<path d="M65.643 56.1451C65.643 55.489 65.8272 55.003 66.1954 54.6872C66.503 54.4248 66.878 54.2936 67.3203 54.2936C67.812 54.2936 68.2139 54.4537 68.526 54.774C68.8381 55.092 68.9941 55.5323 68.9941 56.095C68.9941 56.5509 68.9245 56.9101 68.7853 57.1725C68.6484 57.4327 68.4474 57.6351 68.1825 57.7797C67.9198 57.9243 67.6324 57.9965 67.3203 57.9965C66.8196 57.9965 66.4143 57.8375 66.1044 57.5195C65.7968 57.2015 65.643 56.7433 65.643 56.1451ZM66.2661 56.1451C66.2661 56.5987 66.366 56.939 66.5659 57.1659C66.7657 57.3905 67.0172 57.5028 67.3203 57.5028C67.6211 57.5028 67.8715 57.3894 68.0713 57.1625C68.2712 56.9357 68.3711 56.5899 68.3711 56.125C68.3711 55.6869 68.27 55.3555 68.068 55.1309C67.8681 54.9041 67.6189 54.7906 67.3203 54.7906C67.0172 54.7906 66.7657 54.9029 66.5659 55.1276C66.366 55.3522 66.2661 55.6914 66.2661 56.1451Z" fill="#7A7A7A"/>
<path d="M69.7081 57.9165V54.3736H70.2538V54.8774C70.5164 54.4882 70.8959 54.2936 71.3921 54.2936C71.6077 54.2936 71.8052 54.3325 71.9849 54.4103C72.1667 54.4859 72.3026 54.586 72.3924 54.7106C72.4822 54.8351 72.5451 54.983 72.581 55.1543C72.6034 55.2655 72.6147 55.4601 72.6147 55.7381V57.9165H72.0084V55.7614C72.0084 55.5168 71.9849 55.3344 71.9377 55.2143C71.8906 55.092 71.8064 54.9952 71.6851 54.9241C71.5661 54.8507 71.4258 54.814 71.2641 54.814C71.0059 54.814 70.7825 54.8952 70.5939 55.0575C70.4076 55.2199 70.3144 55.5279 70.3144 55.9816V57.9165H69.7081Z" fill="#7A7A7A"/>
</svg>
