<svg width="61" height="51" viewBox="0 0 61 51" fill="none" xmlns="http://www.w3.org/2000/svg">
<path d="M16.1079 50.4911C14.7054 49.8818 13.6407 48.9027 13.2005 47.26C12.4942 47.26 11.8697 47.2708 11.2452 47.26C9.04423 47.2382 8.05123 45.639 8.89068 43.4849C8.93163 43.3652 8.97258 43.2565 9.00329 43.1477C7.88744 40.8195 9.02376 38.981 11.5421 38.9157C11.798 38.1106 11.6445 37.2838 11.5626 36.4788C11.3271 33.9331 10.5389 31.6049 9.00329 29.5923C8.10242 28.4174 7.37558 27.1336 7.0787 25.6214C5.56361 17.9734 10.3648 12.0879 15.9645 11.0543C16.3126 10.9891 16.6504 10.8912 17.0497 10.8041C17.0804 10.4995 17.1213 10.2167 17.1316 9.94468C17.1623 8.31281 17.2032 6.69183 17.193 5.05996C17.1725 2.88415 18.1348 1.42635 19.9877 0.566899C20.1208 0.501625 20.2334 0.392834 20.3563 0.294922C28.6996 0.294922 37.0531 0.294922 45.3963 0.294922C45.7751 0.501625 46.1744 0.686569 46.5327 0.925909C47.9659 1.86151 48.6415 3.25404 48.6517 5.00557C48.6722 8.22578 48.662 11.446 48.662 14.6662C48.662 15.1666 48.662 15.6562 48.662 16.3416C48.9896 16.0587 49.2045 15.9173 49.3786 15.7324C50.0235 15.0579 50.648 14.3616 51.3134 13.698C51.815 13.1975 52.2757 13.1975 52.6545 13.6218C53.0128 14.0352 53.0025 14.3942 52.5419 14.9382C52.1528 15.406 51.7127 15.8303 51.2929 16.2763C50.4023 17.2228 49.5219 18.1802 48.621 19.1158C48.0375 19.7141 47.7304 19.7467 47.2083 19.2028C45.857 17.8103 44.5159 16.3851 43.2056 14.9491C42.7449 14.4377 42.7449 14.0243 43.093 13.6327C43.4717 13.2193 43.9324 13.2193 44.434 13.7088C45.0176 14.2746 45.5499 14.8838 46.1129 15.4713C46.3279 15.6997 46.5634 15.8955 46.9114 16.2219C46.9626 15.7976 47.0138 15.5257 47.0138 15.2646C47.024 11.9138 47.0343 8.57391 47.0138 5.22315C47.0036 3.17788 45.9389 2.06821 43.9836 2.06821C36.6231 2.05733 29.2626 2.05733 21.9123 2.06821C19.9366 2.06821 18.964 3.13437 18.9538 5.25579C18.9436 7.05084 18.9538 8.84589 18.9538 10.7606C19.394 10.8585 19.7932 10.9673 20.213 11.0543C24.7685 11.9138 28.4436 15.9608 29.1705 20.8238C29.3957 22.336 29.3752 23.8155 29.109 25.306C28.8633 26.6876 28.3208 27.9169 27.512 29.0375C26.4781 30.4626 25.5056 31.9313 25.0654 33.7155C24.6559 35.38 24.4511 37.0663 24.4102 38.8722C24.7583 38.9157 25.0551 38.9701 25.352 39.0027C27.164 39.2203 28.0956 40.7869 27.4301 42.6037C27.2664 43.0389 27.2766 43.3652 27.4609 43.7678C28.2184 45.367 26.9592 47.434 25.178 47.2708C24.5228 47.2056 23.8574 47.26 23.1613 47.26C22.6392 48.9245 21.5438 49.8709 20.1515 50.4911C18.7798 50.4911 17.4489 50.4911 16.1079 50.4911ZM22.6494 38.9157C22.7415 37.991 22.8541 37.1206 22.9156 36.2612C23.1408 33.4 24.0109 30.7999 25.7513 28.5697C27.5018 26.3177 27.9522 23.7611 27.4711 20.9217C26.7238 16.483 22.8132 12.1205 17.1725 12.6862C13.5793 13.0452 10.8767 15.1014 9.41277 18.6262C7.9591 22.1184 8.11265 25.5344 10.4774 28.635C12.2689 30.9848 13.1391 33.7155 13.3131 36.7181C13.3541 37.4579 13.4667 38.1868 13.5486 38.9157C14.8077 38.9157 15.9645 38.9157 17.1828 38.9157C17.1828 36.3047 17.1828 33.7699 17.1828 31.1589C16.2921 30.5932 15.381 30.0384 14.4802 29.44C13.9376 29.081 13.784 28.5153 14.0502 28.0801C14.2959 27.6667 14.7566 27.5797 15.2991 27.8843C15.8929 28.2107 16.5071 28.5153 17.0292 28.9505C17.7765 29.5597 18.4112 29.527 19.1585 28.9613C19.7625 28.4935 20.4382 28.1454 21.1036 27.7864C21.5028 27.5688 21.8816 27.6885 22.1478 28.0692C22.4037 28.4283 22.332 28.9831 21.9533 29.2986C21.6462 29.5488 21.2879 29.7446 20.95 29.9513C20.2846 30.3756 19.609 30.789 18.9436 31.2024C18.9436 32.5623 18.9333 33.8243 18.9436 35.0754C18.9538 36.3591 18.9128 37.6428 18.964 38.9266C20.2846 38.9157 21.4517 38.9157 22.6494 38.9157ZM18.1041 40.7434C16.026 40.7434 13.9376 40.7434 11.8594 40.7434C11.583 40.7434 11.3066 40.7434 11.0302 40.7543C10.631 40.776 10.3444 40.961 10.2727 41.3961C10.2113 41.766 10.5184 42.0815 11.02 42.1903C11.2145 42.2338 11.409 42.2447 11.6035 42.2447C15.9236 42.2447 20.2437 42.2556 24.5637 42.2447C24.8709 42.2447 25.2189 42.2229 25.4749 42.0815C25.6796 41.9727 25.8946 41.6355 25.8741 41.4179C25.8639 41.2003 25.5977 40.9175 25.3827 40.8195C25.1063 40.7107 24.7685 40.7434 24.4511 40.7434C22.3423 40.7325 20.2232 40.7434 18.1041 40.7434ZM18.2372 43.9962C15.9953 43.9962 13.7636 43.9962 11.5216 43.9962C10.6515 43.9962 10.2215 44.2682 10.2625 44.7578C10.3034 45.2038 10.6924 45.4323 11.4807 45.4323C15.8724 45.4323 20.2744 45.4323 24.6661 45.4323C24.8606 45.4323 25.0654 45.4323 25.2496 45.4105C25.6489 45.3452 25.956 45.0733 25.8843 44.6707C25.8434 44.4205 25.526 44.1485 25.2701 44.0506C24.9937 43.9418 24.6559 43.9962 24.3385 43.9962C22.3116 43.9962 20.2744 43.9962 18.2372 43.9962ZM15.2275 47.3361C15.637 48.1738 15.7393 48.3479 16.3536 48.5219C17.5411 48.8483 18.749 48.8157 19.9468 48.5437C20.4894 48.4131 20.9091 48.065 21.1138 47.347C19.1073 47.3361 17.1828 47.3361 15.2275 47.3361Z" fill="#2776EA"/>
<path d="M45.161 50.4919C45.0381 49.5127 44.905 48.5445 44.7617 47.3913C44.3625 47.2064 43.8404 46.9562 43.2466 46.6733C42.7757 47.1629 42.3457 47.6415 41.8851 48.0767C41.363 48.5663 41.0559 48.588 40.5338 48.0876C39.5817 47.152 38.6604 46.1837 37.7595 45.1829C37.2476 44.6171 37.2886 44.2799 37.78 43.6489C37.9847 43.3987 38.2202 43.1702 38.4352 42.9309C38.6194 42.7242 38.7934 42.5066 38.9572 42.3108C38.9265 42.1802 38.9163 42.0932 38.8856 42.017C38.1997 40.3525 38.6911 40.5266 36.7972 40.5157C35.6097 40.5049 35.4459 40.3308 35.4459 39.0471C35.4357 37.8395 35.4254 36.621 35.4561 35.4134C35.4766 34.5649 35.7223 34.2929 36.5106 34.2276C37.0941 34.1841 37.6878 34.2167 38.3328 34.2167C38.558 33.6619 38.7832 33.1397 39.0289 32.5305C38.5887 32.0192 38.1383 31.5187 37.7083 30.9856C37.2374 30.3873 37.2374 30.148 37.7493 29.5822C38.6194 28.614 39.51 27.6784 40.4212 26.7537C40.974 26.1988 41.3425 26.2206 41.967 26.7646C42.3867 27.1344 42.7859 27.537 43.2261 27.9613C43.7482 27.7437 44.2601 27.537 44.8846 27.265C44.8948 26.7863 44.905 26.2532 44.9153 25.7202C44.9357 24.5235 45.1098 24.3168 46.2051 24.295C47.3108 24.2732 48.4061 24.2732 49.5117 24.295C50.6992 24.3168 50.8221 24.4582 50.8426 25.7746C50.8528 26.275 50.8426 26.7646 50.8426 27.1671C51.0064 27.3085 51.0576 27.3738 51.1292 27.4064C52.4805 28.1244 52.4805 28.1244 53.5349 27.0257C53.6475 26.906 53.7499 26.7863 53.8728 26.6775C54.3744 26.2315 54.7634 26.1988 55.2241 26.6666C56.1659 27.6131 57.0872 28.5922 57.9779 29.5931C58.4692 30.1371 58.4488 30.4199 57.9676 31.0074C57.5786 31.4752 57.1589 31.9104 56.6982 32.4217C56.9337 32.9874 57.1589 33.5422 57.3841 34.0644C58.3873 34.369 59.4622 33.8142 60.2812 34.6628C60.2812 36.5013 60.2812 38.3399 60.2812 40.1894C59.3292 40.3308 58.3873 40.4831 57.3943 40.6354C57.1998 41.1467 56.9849 41.6798 56.7596 42.2781C57.1487 42.7024 57.5377 43.105 57.9062 43.5292C58.5204 44.2255 58.5409 44.541 57.9267 45.2264C57.1179 46.1402 56.2887 47.0214 55.4288 47.8809C54.7532 48.5663 54.446 48.5445 53.7294 47.8482C53.3302 47.4566 52.9617 47.0541 52.5726 46.6624C51.9789 46.9235 51.4773 47.152 50.8835 47.4131C50.8835 47.9135 50.8528 48.414 50.8938 48.9035C50.9449 49.5345 50.7402 50.0458 50.3512 50.4919C48.6211 50.4919 46.891 50.4919 45.161 50.4919ZM56.3092 44.2908C55.8997 43.8991 55.5517 43.5728 55.2036 43.2355C54.7634 42.8112 54.7429 42.3434 55.0091 41.7668C55.3571 41.0162 55.654 40.2438 55.9202 39.4605C56.1045 38.9165 56.4218 38.6445 56.9644 38.6554C57.466 38.6663 57.9574 38.6337 58.5 38.6228C58.633 37.6872 58.674 36.8821 58.459 35.9683C57.9164 35.9683 57.4046 35.9683 56.903 35.9683C56.4116 35.9683 56.1147 35.7289 55.9407 35.2285C55.6643 34.4452 55.3571 33.6837 55.0091 32.933C54.7224 32.3129 54.7839 31.8016 55.2548 31.3555C55.6028 31.0292 55.9919 30.7354 56.5242 30.3003C55.7052 29.604 55.1012 29.0927 54.4358 28.5161C54.1594 28.7881 53.7806 29.158 53.4326 29.5387C53.0128 29.9848 52.5726 30.0283 52.0403 29.7563C51.3749 29.4082 50.6788 29.1144 49.9826 28.8425C49.4298 28.6249 49.1534 28.2659 49.1739 27.6349C49.1944 27.1127 49.1534 26.5796 49.1432 26.0248C48.2833 26.0248 47.5564 26.0248 46.717 26.0248C46.6965 26.6123 46.6453 27.1453 46.6556 27.6784C46.6761 28.3203 46.3894 28.6684 45.8264 28.8751C45.161 29.1144 44.4955 29.3864 43.8711 29.7237C43.2978 30.0392 42.8474 30.0283 42.3969 29.517C42.0591 29.1253 41.6701 28.7881 41.2401 28.3638C40.6669 29.0057 40.1448 29.5931 39.4384 30.3873C39.9195 30.7789 40.3188 31.0727 40.6771 31.3991C41.0763 31.7798 41.1275 32.215 40.8818 32.7481C40.5542 33.4552 40.2778 34.195 40.0219 34.9348C39.725 35.7616 39.5919 35.8812 38.7525 35.9248C38.2918 35.9574 37.8107 35.7833 37.3705 36.1206C37.3398 36.9039 37.2272 37.6763 37.4831 38.5249C37.9745 38.5249 38.4454 38.4922 38.9163 38.5357C39.4589 38.5793 39.8581 38.8077 40.0321 39.4496C40.2267 40.1676 40.5133 40.8639 40.8306 41.5275C41.148 42.1911 41.0661 42.7024 40.5542 43.192C40.2369 43.4966 39.9707 43.8447 39.6227 44.2255C39.9298 44.5845 40.1857 44.9 40.4519 45.1829C40.718 45.4657 41.0149 45.7268 41.3527 46.0423C41.752 45.6289 42.0796 45.2699 42.4174 44.9326C43.0009 44.3561 43.1545 44.3561 43.8813 44.7042C44.4853 44.9979 45.0995 45.2808 45.724 45.531C46.5839 45.8791 46.6453 45.9553 46.6761 46.9997C46.6965 47.5327 46.717 48.0658 46.7375 48.6315C47.5769 48.6315 48.3038 48.6315 49.1637 48.6315C49.1637 48.0223 49.1842 47.4892 49.1637 46.9562C49.1432 46.3578 49.4094 46.0423 49.9212 45.8465C50.689 45.5419 51.4466 45.1937 52.1939 44.8347C52.6443 44.6171 53.0231 44.6498 53.3814 45.0197C53.7704 45.4222 54.1696 45.803 54.5894 46.2273C55.0603 45.7486 55.4595 45.3569 55.8383 44.9435C55.9611 44.8021 56.0635 44.628 56.3092 44.2908Z" fill="#2776EA"/>
<path d="M0.28125 14.8415C0.977376 14.4825 1.61208 14.5913 2.24678 15.0591C2.78935 15.4616 3.41382 15.7554 3.96662 16.147C4.50919 16.5278 4.6218 16.963 4.38634 17.409C4.12018 17.8986 3.65951 18.0182 3.05552 17.681C2.12394 17.1697 1.21283 16.6257 0.291487 16.0926C0.28125 15.6792 0.28125 15.2658 0.28125 14.8415Z" fill="#2776EA"/>
<path d="M35.2926 14.5237C35.4666 14.6869 35.784 14.8609 35.8761 15.1112C35.958 15.3723 35.9171 15.8944 35.7533 16.0141C34.8115 16.6669 33.8287 17.2761 32.8255 17.82C32.4569 18.0268 32.0577 17.8309 31.8325 17.4066C31.597 16.9606 31.7403 16.5472 32.0884 16.3079C32.9381 15.7204 33.8287 15.1982 34.7193 14.6651C34.8422 14.589 35.006 14.589 35.2926 14.5237Z" fill="#2776EA"/>
<path d="M26.5187 11.3483C25.8021 11.3591 25.3721 10.7608 25.6485 10.1407C26.0887 9.17244 26.6211 8.24772 27.1636 7.33388C27.3786 6.96399 27.7574 6.78992 28.1873 6.98575C28.5661 7.15981 28.8221 7.69289 28.5968 8.14981C28.1259 9.15069 27.5731 10.108 27.0101 11.0545C26.9179 11.2395 26.6313 11.2939 26.5187 11.3483Z" fill="#2776EA"/>
<path d="M10.692 10.5855C10.5692 10.7595 10.4361 11.1185 10.2007 11.2382C9.95498 11.3579 9.59668 11.2817 9.32027 11.1947C9.16672 11.1512 9.03363 10.9227 8.9415 10.7378C8.52177 9.98711 8.11229 9.23646 7.71304 8.47492C7.61067 8.30085 7.54925 8.09415 7.51854 7.89833C7.44688 7.47404 7.65162 7.18031 7.98944 6.98448C8.35798 6.77778 8.72652 6.87569 8.93126 7.21294C9.51478 8.19206 10.0471 9.20382 10.5999 10.2047C10.6306 10.2808 10.6306 10.3679 10.692 10.5855Z" fill="#2776EA"/>
<path d="M10.6621 23.9343C10.8668 20.2354 13.0064 17.0043 16.3028 15.6118C17.347 15.1766 18.4116 14.9482 19.5275 15.0134C20.2441 15.057 20.6536 15.7532 20.2748 16.3081C20.1008 16.5692 19.7117 16.7215 19.3944 16.8085C18.944 16.9282 18.4526 16.9064 18.0021 17.0152C14.8798 17.7659 12.6993 20.3877 12.3615 23.7494C12.341 23.9561 12.3615 24.1736 12.3308 24.3803C12.2591 24.9461 11.9622 25.3051 11.563 25.3268C11.1125 25.3595 10.7235 24.9461 10.6723 24.3586C10.6519 24.2172 10.6621 24.0431 10.6621 23.9343Z" fill="#2776EA"/>
<path d="M47.8223 43.0052C44.8433 43.1249 42.499 40.2311 42.5501 37.3372C42.6013 34.2041 44.9559 31.6583 47.8735 31.6692C50.8525 31.691 53.2172 34.2693 53.2172 37.446C53.1968 40.416 50.8115 43.1358 47.8223 43.0052ZM47.8632 41.2428C49.9311 41.2319 51.5383 39.5131 51.5179 37.3372C51.4974 35.2811 49.8185 33.5187 47.8735 33.4969C45.8977 33.486 44.2188 35.3028 44.229 37.446C44.2597 39.5892 45.8567 41.2646 47.8632 41.2428Z" fill="#2776EA"/>
</svg>
