<svg width="61" height="60" viewBox="0 0 61 60" fill="none" xmlns="http://www.w3.org/2000/svg">
<path d="M45.0745 43.0054C45.0745 43.3265 45.0745 43.5727 45.0745 43.8189C45.0745 47.3833 45.0853 50.9584 45.0745 54.5228C45.0636 56.9633 43.6002 58.8686 41.4105 59.3181C38.4728 59.9175 35.7303 57.8624 35.7086 54.8867C35.6544 49.3421 35.6544 43.8082 35.7086 38.2636C35.7303 35.6625 37.8008 33.7786 40.5108 33.7465C42.9281 33.7251 45.3455 33.7358 47.7628 33.7358C48.0121 33.7358 48.2614 33.7358 48.5541 33.7358C48.5541 33.4147 48.5541 33.1685 48.5541 32.9223C48.5541 29.2723 48.5324 25.6223 48.565 21.9615C48.5975 18.5042 52.1097 16.2778 55.2316 17.7335C57.0419 18.5791 57.9308 20.0776 57.9416 22.0151C57.9742 27.4312 57.985 32.8474 57.9416 38.2636C57.92 41.0787 55.8712 42.9733 53.0202 42.984C50.3861 43.0161 47.7845 43.0054 45.0745 43.0054ZM56.1097 30.1393C56.1097 27.3563 56.1314 24.5733 56.0988 21.801C56.0772 20.0991 54.6029 18.8788 52.8902 19.0715C51.34 19.2534 50.3536 20.4095 50.3536 22.1007C50.3427 26.1468 50.3536 30.1928 50.3427 34.2389C50.3427 35.2451 50.0501 35.5234 49.0203 35.5234C46.2018 35.5234 43.3834 35.5234 40.5758 35.5234C40.2615 35.5234 39.9363 35.5341 39.6436 35.609C38.2777 35.9622 37.4864 37.0112 37.4864 38.5205C37.4756 43.8938 37.4864 49.2672 37.4864 54.6512C37.4864 54.8332 37.5081 55.0259 37.5298 55.2078C37.7032 56.685 39.1558 57.8196 40.6517 57.6376C42.2235 57.4449 43.2425 56.3317 43.2533 54.7155C43.2642 50.648 43.2533 46.5805 43.2642 42.513C43.2642 41.4961 43.5352 41.2285 44.565 41.2178C47.3617 41.2178 50.1585 41.2285 52.9552 41.2178C54.9715 41.2071 56.1205 40.0725 56.1314 38.0923C56.1205 35.4484 56.1097 32.7939 56.1097 30.1393Z" fill="#2776EA"/>
<path d="M11.9262 33.7567C12.2189 33.7567 12.4682 33.7567 12.7176 33.7567C15.0699 33.7567 17.4222 33.746 19.7745 33.7567C22.8097 33.7674 24.7826 35.7155 24.7826 38.7019C24.7826 44.011 24.7934 49.3202 24.7826 54.64C24.7717 57.4444 22.6037 59.5531 19.8829 59.4461C17.3138 59.3497 15.4059 57.2732 15.3951 54.5437C15.3842 50.9793 15.3951 47.4042 15.3951 43.8398C15.3951 43.5936 15.3951 43.3474 15.3951 43.0156C15.1241 43.0156 14.9073 43.0156 14.6796 43.0156C12.284 43.0156 9.8883 43.0156 7.49264 43.0156C4.57666 43.0049 2.54956 41.0675 2.53872 38.1988C2.51704 32.8255 2.51704 27.4521 2.53872 22.0788C2.54956 19.5098 4.25146 17.6045 6.74468 17.2834C8.94521 17.0051 11.1458 18.493 11.7311 20.698C11.8612 21.1903 11.9154 21.7255 11.9154 22.2286C11.9262 25.793 11.9262 29.3681 11.9262 32.9325C11.9262 33.1787 11.9262 33.4249 11.9262 33.7567ZM4.35986 30.1388C4.34902 30.1388 4.34902 30.1388 4.35986 30.1388C4.35986 32.7506 4.4249 35.373 4.33818 37.9848C4.27314 39.8793 5.56311 41.2923 7.65524 41.2602C10.3869 41.2066 13.1186 41.2494 15.8504 41.2494C16.9669 41.2494 17.2162 41.4956 17.2162 42.5981C17.2162 46.5586 17.2162 50.5297 17.2162 54.4902C17.2162 54.8648 17.227 55.2394 17.3246 55.5927C17.704 56.9521 19.0265 57.8298 20.3815 57.6585C21.975 57.4551 22.9723 56.3526 22.9831 54.6721C23.0048 49.2988 23.0048 43.9254 22.9831 38.5414C22.9723 36.6575 21.7907 35.5336 19.8937 35.5336C17.1186 35.5336 14.3436 35.5336 11.5685 35.5336C10.3653 35.5336 10.1268 35.2981 10.1268 34.1207C10.1268 30.203 10.1268 26.2747 10.1159 22.3571C10.1159 21.9289 10.0943 21.4794 9.97502 21.0619C9.57394 19.6918 8.27313 18.889 6.82056 19.0817C5.42219 19.2636 4.3707 20.3876 4.35986 21.8005C4.33818 24.5728 4.35986 27.3558 4.35986 30.1388Z" fill="#2776EA"/>
<path d="M22.6587 15.7744C21.1953 15.7744 19.8186 15.7744 18.4311 15.7744C17.9866 15.7744 17.5314 15.8493 17.1086 15.753C16.7834 15.6781 16.3823 15.464 16.2522 15.1964C16.1438 14.9609 16.2739 14.4899 16.4582 14.2652C17.1303 13.4731 17.8566 12.7238 18.6045 11.9959C18.9623 11.6427 19.0815 11.2788 19.0815 10.7864C19.0598 7.71437 19.0707 4.64235 19.0707 1.58104C19.0707 0.435719 19.3091 0.210938 20.4799 0.210938C25.8132 0.210938 31.1465 0.210938 36.4907 0.210938C37.5422 0.210938 37.8023 0.457127 37.8023 1.474C37.8023 2.07342 37.8023 2.67283 37.8132 3.28296C37.8132 3.32577 37.8349 3.36859 37.8565 3.47563C38.0517 3.48633 38.2793 3.50774 38.4961 3.50774C40.0245 3.50774 41.5638 3.51844 43.0923 3.50774C43.5801 3.50774 44.0245 3.56126 44.2305 4.08575C44.4256 4.57813 44.1438 4.90995 43.8294 5.24177C43.1465 5.94823 42.4961 6.67609 41.7915 7.36114C41.4663 7.68226 41.3579 8.01408 41.3579 8.46364C41.3687 11.5357 41.3687 14.6077 41.3687 17.669C41.3687 18.8678 41.1302 19.1033 39.9487 19.1033C34.637 19.1033 29.3145 19.1033 24.0029 19.1033C22.8755 19.1033 22.637 18.8678 22.637 17.7653C22.6587 17.1231 22.6587 16.5023 22.6587 15.7744ZM36.0029 13.9761C36.0029 9.95148 36.0029 5.98034 36.0029 1.98778C30.9514 1.98778 25.9433 1.98778 20.881 1.98778C20.881 2.25538 20.881 2.48016 20.881 2.70495C20.881 5.6057 20.9026 8.51716 20.8593 11.4179C20.8484 11.8461 20.5991 12.3063 20.3498 12.681C20.0354 13.1305 19.6018 13.4945 19.1465 13.9761C24.8376 13.9761 30.3986 13.9761 36.0029 13.9761ZM37.8132 5.29529C37.8132 5.58429 37.8132 5.80908 37.8132 6.03386C37.8132 8.85969 37.8132 11.6748 37.8132 14.5006C37.8132 15.5496 37.5964 15.7744 36.5232 15.7744C32.74 15.7744 28.9568 15.7744 25.1845 15.7744C24.946 15.7744 24.7075 15.7744 24.469 15.7744C24.469 16.331 24.469 16.7806 24.469 17.2622C29.5097 17.2622 34.5178 17.2622 39.5909 17.2622C39.5909 17.0054 39.5909 16.7806 39.5909 16.5558C39.5909 13.6336 39.5693 10.7115 39.6126 7.77859C39.6126 7.39325 39.8403 6.95439 40.0788 6.62257C40.404 6.1623 40.8484 5.78767 41.3254 5.28458C40.0679 5.29529 38.9839 5.29529 37.8132 5.29529Z" fill="#2776EA"/>
<path d="M30.2356 29.5605C25.9754 29.5605 21.7044 29.5605 17.4443 29.5605C16.4145 29.5605 16.1435 29.2929 16.1326 28.2761C16.1326 26.9916 16.1218 25.7071 16.1326 24.4227C16.1326 23.5771 16.4578 23.2452 17.3034 23.2452C25.9212 23.2452 34.5283 23.2452 43.1461 23.2452C43.9917 23.2452 44.3169 23.5771 44.3277 24.4227C44.3385 25.7285 44.3385 27.0344 44.3277 28.3403C44.3277 29.2822 44.035 29.5712 43.0919 29.5712C38.8101 29.5605 34.5174 29.5605 30.2356 29.5605ZM42.474 27.7837C42.474 26.8525 42.474 25.964 42.474 25.0649C34.2898 25.0649 26.1489 25.0649 17.9863 25.0649C17.9863 25.9961 17.9863 26.8739 17.9863 27.7837C26.1597 27.7837 34.2789 27.7837 42.474 27.7837Z" fill="#2776EA"/>
<path d="M53.2159 2.67349C57.1075 2.68419 60.2186 5.75621 60.2295 9.5775C60.2403 13.356 57.0316 16.4922 53.1834 16.4708C49.3352 16.4494 46.2349 13.3346 46.2566 9.48117C46.2674 5.7241 49.4002 2.66279 53.2159 2.67349ZM53.1942 14.6833C56.0994 14.694 58.4408 12.4033 58.4408 9.53469C58.4408 6.75167 56.0994 4.42893 53.2701 4.41822C50.4083 4.40752 48.0452 6.69815 48.0127 9.52398C47.991 12.3284 50.3216 14.6619 53.1942 14.6833Z" fill="#2776EA"/>
<path d="M7.2216 16.5235C3.42757 16.5449 0.262266 13.4622 0.229746 9.71579C0.197225 5.8945 3.29749 2.77966 7.1674 2.72614C10.9831 2.67262 14.2026 5.78746 14.2135 9.54453C14.2243 13.43 11.1457 16.5021 7.2216 16.5235ZM7.23244 4.51369C4.34898 4.51369 2.00752 6.81503 2.01836 9.63016C2.04004 12.4774 4.34898 14.7573 7.23244 14.7573C10.0942 14.768 12.4465 12.4453 12.4465 9.63016C12.4357 6.80433 10.1051 4.51369 7.23244 4.51369Z" fill="#2776EA"/>
<path d="M28.4352 6.83658C27.1128 6.83658 25.7903 6.84728 24.4678 6.83658C23.6656 6.83658 23.2862 6.52616 23.3079 5.93745C23.3187 5.39155 23.7306 5.07043 24.4569 5.07043C27.1453 5.07043 29.8228 5.07043 32.5111 5.07043C32.9881 5.07043 33.4325 5.19888 33.5409 5.69126C33.5951 5.96956 33.5084 6.37631 33.3241 6.56898C33.1507 6.76165 32.7604 6.82587 32.4678 6.83658C31.1127 6.84728 29.7686 6.83658 28.4352 6.83658Z" fill="#2776EA"/>
<path d="M28.4465 10.8937C27.0807 10.8937 25.7257 10.8937 24.3598 10.8937C23.6769 10.8937 23.2975 10.5618 23.3083 10.0159C23.3192 9.48075 23.7094 9.14893 24.3815 9.14893C27.1024 9.14893 29.8341 9.14893 32.5549 9.14893C33.2053 9.14893 33.6281 9.51286 33.6173 10.0266C33.6064 10.5511 33.2053 10.883 32.5332 10.883C31.1674 10.8937 29.8124 10.8937 28.4465 10.8937Z" fill="#2776EA"/>
</svg>
