<svg width="60" height="56" viewBox="0 0 60 56" fill="none" xmlns="http://www.w3.org/2000/svg">
<path d="M39.1664 38.1913C39.761 38.1557 40.3711 38.0773 40.9734 38.0845C42.5719 38.0987 44.0622 38.4906 45.4368 39.2458C46.1317 39.6235 46.7572 40.0795 47.3209 40.6067C48.0931 41.3335 48.7032 42.1671 49.1665 43.0934C49.5372 43.8415 49.7843 44.6253 49.9156 45.4375C50.0082 46.0147 50.0546 46.5918 50.0082 47.176C49.931 48.2591 49.6839 49.2993 49.1974 50.2968C48.8113 51.0948 48.3094 51.8216 47.6916 52.4771C46.9889 53.2252 46.1703 53.838 45.236 54.3225C44.317 54.7999 43.3363 55.0991 42.3093 55.2772C41.985 55.3342 41.6529 55.3556 41.3209 55.3556C33.954 55.3699 26.5871 55.377 19.2203 55.3841C18.2241 55.3841 17.2434 55.2559 16.2936 54.9566C15.2511 54.6289 14.2936 54.1444 13.4442 53.5031C12.309 52.6481 11.4364 51.6007 10.8341 50.3681C10.4712 49.6342 10.2086 48.8718 10.1082 48.0667C10.0464 47.5679 9.96922 47.062 9.98466 46.5633C10.0156 45.4375 10.2549 44.3403 10.7414 43.2929C11.0966 42.5376 11.5445 41.8394 12.1005 41.2052C12.7183 40.4999 13.4364 39.9014 14.2627 39.4168C14.8419 39.0748 15.4596 38.7898 16.116 38.5761C16.7569 38.3623 17.421 38.2198 18.1006 38.1415C18.7338 38.0702 19.3824 38.0417 20.0157 38.1343C20.2859 38.17 20.5639 38.1913 20.8342 38.227C20.8496 38.0346 20.8728 37.8422 20.8805 37.6427C20.9114 37.0086 21.0272 36.3816 21.2126 35.7688C21.5523 34.6573 22.1006 33.6455 22.8883 32.7478C23.1971 32.3987 23.5292 32.0495 23.8844 31.7432C24.6952 31.052 25.6142 30.5034 26.6489 30.1258C27.2512 29.9049 27.869 29.741 28.5022 29.6413C28.842 29.5914 29.1818 29.5629 29.5215 29.5486C29.7918 29.5344 30.0698 29.5415 30.3478 29.5486C31.3903 29.5558 32.3864 29.7695 33.3517 30.1258C34.2397 30.4464 35.0583 30.9024 35.7841 31.4653C36.4482 31.9854 37.0428 32.5697 37.5293 33.2394C38.0236 33.9234 38.4174 34.6502 38.6954 35.4268C38.8961 35.9968 39.0506 36.5811 39.0969 37.1796C39.1124 37.5145 39.1433 37.8707 39.1664 38.1913ZM30.008 53.5031C33.6992 53.5031 37.3981 53.5031 41.0892 53.496C41.4135 53.496 41.7379 53.4532 42.0545 53.4033C42.8112 53.2751 43.5294 53.0471 44.2089 52.698C44.9657 52.3132 45.6221 51.8145 46.1858 51.2088C46.6568 50.7029 47.0352 50.1329 47.3364 49.5202C47.7379 48.6794 47.9464 47.803 47.9773 46.891C47.985 46.5847 47.9542 46.2712 47.9233 45.9577C47.8306 44.953 47.4677 44.0268 46.9117 43.1646C46.4792 42.502 45.9387 41.9177 45.2823 41.4332C44.6491 40.963 43.9618 40.5854 43.1896 40.336C42.6414 40.1579 42.0854 40.0154 41.5062 40.0011C41.0197 39.9869 40.5255 39.9655 40.0313 40.0082C39.4521 40.0581 38.8961 40.2291 38.3402 40.393C37.5371 40.6281 36.8807 40.0724 37.012 39.2815C37.066 38.968 37.1201 38.6473 37.1201 38.3267C37.1201 37.9277 37.0892 37.5216 37.0351 37.1226C36.9425 36.4671 36.734 35.8401 36.4251 35.2487C35.9926 34.4151 35.4212 33.674 34.6644 33.0542C34.2397 32.705 33.7841 32.4058 33.2899 32.1564C32.5331 31.7788 31.7223 31.5437 30.8652 31.4368C30.232 31.3584 29.6065 31.3584 28.981 31.451C28.1779 31.565 27.4134 31.8002 26.6953 32.1635C25.8149 32.5982 25.0813 33.1895 24.4558 33.9092C23.9385 34.5077 23.5524 35.1774 23.2744 35.8971C23.0813 36.4101 22.95 36.9373 22.896 37.4788C22.8419 37.9918 22.8419 38.5048 22.9269 39.0178C22.9578 39.2031 23.0118 39.3955 22.9887 39.5736C22.896 40.2932 22.2628 40.5782 21.5755 40.3787C21.3902 40.3289 21.2126 40.2576 21.0272 40.2077C20.4867 40.0652 19.9384 39.9584 19.367 39.9655C18.9732 39.9726 18.5716 39.9869 18.1778 40.0225C17.4751 40.0795 16.811 40.2861 16.1778 40.564C15.228 40.9772 14.4249 41.5686 13.7453 42.3025C13.1584 42.9438 12.726 43.6634 12.4171 44.4543C12.0465 45.4019 11.9538 46.3852 12.0465 47.3898C12.116 48.2092 12.3631 48.9787 12.7414 49.7126C13.1816 50.5676 13.7917 51.3015 14.5716 51.9142C15.1585 52.3773 15.8071 52.7478 16.5175 53.0186C17.3593 53.3392 18.2396 53.496 19.1585 53.496C22.7879 53.5031 26.3941 53.5031 30.008 53.5031Z" fill="#2776EA"/>
<path d="M20.8336 8.70868C20.8645 6.17928 21.822 4.01326 23.8066 2.26762C25.2892 0.963733 27.073 0.201351 29.1194 0.0374743C31.8453 -0.183403 34.2391 0.571854 36.2237 2.31037C38.1928 4.04176 39.1349 6.20066 39.1581 8.7158C39.8376 8.56618 40.5172 8.55905 41.2044 8.56618C41.938 8.58043 42.6639 8.6873 43.3666 8.8868C43.8686 9.02931 44.3628 9.20743 44.8415 9.41406C45.5751 9.73469 46.2315 10.1551 46.8416 10.6538C47.4439 11.1455 47.969 11.7012 48.4246 12.314C48.996 13.1048 49.4207 13.9599 49.6833 14.8719C49.8454 15.4347 49.9613 15.9976 49.9844 16.5819C49.9999 16.9168 50.0308 17.2588 50.0153 17.5936C49.9536 18.5484 49.7914 19.496 49.3744 20.3795C49.1118 20.9353 48.8107 21.491 48.4709 22.0112C48.2006 22.4173 47.8532 22.7736 47.5134 23.1369C47.0037 23.6784 46.4091 24.1273 45.7527 24.5121C44.8724 25.0393 43.9226 25.4312 42.8878 25.6236C42.4014 25.7162 41.8994 25.7661 41.4052 25.816C41.1118 25.8445 40.8106 25.8445 40.5094 25.8445C33.3897 25.8445 26.2622 25.8445 19.1424 25.8445C18.3085 25.8445 17.4899 25.7376 16.6791 25.5238C15.4358 25.1961 14.3239 24.6403 13.3354 23.8708C12.3007 23.0657 11.4899 22.0967 10.9184 20.9709C10.5246 20.1943 10.2312 19.3892 10.123 18.527C10.0613 18.0496 9.99177 17.5651 9.99949 17.0878C10.0227 15.9121 10.2698 14.7792 10.7871 13.7033C11.0883 13.0835 11.4435 12.4921 11.8914 11.9506C12.4474 11.2595 13.1115 10.6609 13.8605 10.1551C14.6482 9.62069 15.5131 9.21456 16.4474 8.94381C16.9803 8.79418 17.5362 8.7158 18.0845 8.62318C18.3625 8.58043 18.6559 8.5733 18.9417 8.56618C19.5594 8.55193 20.1926 8.59468 20.8336 8.70868ZM12.0072 17.2018C12.0381 17.558 12.0536 17.9143 12.1076 18.2634C12.2312 19.0685 12.5169 19.8167 12.9416 20.5292C13.2814 21.0992 13.6984 21.6264 14.2003 22.0753C14.5555 22.3888 14.9571 22.6738 15.3586 22.9303C16.5247 23.6642 17.8297 23.9919 19.2274 23.9919C25.8529 23.9991 32.4708 23.9991 39.0963 23.9919C39.7604 23.9919 40.4245 23.9706 41.0886 23.9634C41.8145 23.9563 42.5095 23.8138 43.1813 23.5929C44.1079 23.2866 44.9265 22.8163 45.6446 22.1964C46.1775 21.7333 46.6253 21.206 46.9883 20.6147C47.7064 19.4319 48.0385 18.1708 47.9535 16.8099C47.9149 16.2114 47.7991 15.6271 47.606 15.0642C47.3358 14.2805 46.9111 13.5608 46.3473 12.9196C45.6755 12.1501 44.8724 11.5445 43.9226 11.1027C43.0732 10.7108 42.1697 10.5042 41.2276 10.4401C40.6948 10.4044 40.1542 10.4329 39.6291 10.5469C39.189 10.6396 38.7565 10.7607 38.3241 10.8818C37.7913 11.0243 37.2816 10.8177 37.0654 10.3546C36.9418 10.0981 36.9959 9.82731 37.0422 9.57081C37.1426 9.03643 37.1581 8.49493 37.0886 7.95342C37.0191 7.35492 36.8646 6.76354 36.633 6.20066C36.3086 5.4169 35.853 4.70439 35.2507 4.08451C34.4013 3.20813 33.3742 2.55975 32.1619 2.19637C31.1966 1.90424 30.2005 1.78312 29.1811 1.91137C28.4553 2.00399 27.7526 2.16787 27.0962 2.45287C26.1773 2.84475 25.3742 3.40051 24.7023 4.11301C24.0691 4.77564 23.5981 5.52377 23.2815 6.35028C23.0807 6.87754 22.9494 7.41904 22.8954 7.98192C22.8413 8.55905 22.8413 9.12906 22.9571 9.69906C23.0112 9.96981 23.0112 10.2263 22.849 10.4614C22.571 10.8889 22.0459 11.0243 21.5054 10.8319C20.795 10.5754 20.0536 10.4543 19.2969 10.4329C19.0498 10.4258 18.7949 10.4329 18.5556 10.4614C18.1617 10.5042 17.7525 10.5398 17.3664 10.6396C16.2544 10.9103 15.2737 11.4162 14.4165 12.1216C13.7988 12.6417 13.2891 13.2402 12.8953 13.9242C12.3238 14.9502 12.0072 16.0332 12.0072 17.2018Z" fill="#2776EA"/>
<path d="M54.8729 38.7419C54.9733 38.7419 55.0814 38.7419 55.1818 38.7419C55.7841 38.7419 56.3787 38.749 56.9811 38.7419C57.5293 38.7348 57.9309 39.0982 58.0004 39.5328C58.0853 40.0387 57.7301 40.4947 57.1973 40.6015C57.1355 40.6158 57.0737 40.6087 57.012 40.6087C55.344 40.6087 53.676 40.6015 52.0158 40.6158C51.6297 40.6158 51.0968 40.3237 51.0119 39.8534C50.9887 39.7394 50.981 39.6183 50.9733 39.5043C50.9733 38.0294 50.9656 36.5545 50.9733 35.0725C50.9733 34.5809 51.2667 34.2104 51.869 34.1249C52.2938 34.0607 52.7571 34.2816 52.9424 34.7519C52.9965 34.8801 53.0042 35.0297 53.0042 35.1722C53.0119 35.9988 53.0042 36.8253 53.0042 37.6803C53.066 37.6446 53.1046 37.6304 53.1355 37.6019C53.954 36.9108 54.703 36.1698 55.3749 35.3504C55.8845 34.7305 56.3324 34.0821 56.7108 33.391C57.1046 32.6714 57.4289 31.9232 57.6297 31.1395C57.7456 30.6763 57.8305 30.2061 57.8845 29.7358C57.9386 29.2656 57.954 28.7882 57.9463 28.3179C57.9386 27.9617 57.8768 27.6126 57.8228 27.2634C57.7224 26.6578 57.5602 26.0593 57.3363 25.4822C56.9811 24.5559 56.5023 23.6866 55.9077 22.8744C55.4753 22.2759 55.0042 21.7059 54.4714 21.1857C54.0776 20.8081 53.676 20.4305 53.2667 20.0671C52.8497 19.6895 52.8806 18.9699 53.3362 18.6563C53.7764 18.35 54.3015 18.3785 54.7108 18.7347C55.1587 19.1337 55.6143 19.5327 56.039 19.9602C56.7803 20.7084 57.4444 21.5206 58.0081 22.3899C58.5718 23.252 59.0351 24.1569 59.3672 25.1188C59.6143 25.8313 59.8073 26.5652 59.8923 27.3062C59.9386 27.6838 59.9463 28.0614 59.9772 28.4319C60.0313 29.0518 59.985 29.6788 59.8846 30.2916C59.7765 30.9328 59.6143 31.5598 59.429 32.1868C59.205 32.9635 58.8498 33.6902 58.456 34.4027C58.0699 35.0867 57.6297 35.7351 57.1278 36.355C56.6336 36.9606 56.1162 37.552 55.5293 38.0864C55.2976 38.293 55.0737 38.4997 54.842 38.7063C54.8575 38.7205 54.8652 38.7348 54.8729 38.7419Z" fill="#2776EA"/>
<path d="M6.98849 37.7068C6.99621 37.6355 6.99621 37.5856 6.99621 37.5357C6.99621 36.7092 7.00393 35.8827 6.99621 35.0562C6.98849 34.5218 7.40548 34.1585 7.95375 34.1228C8.43252 34.0943 8.89584 34.3722 9.01167 34.8923C9.01939 34.928 9.01939 34.9636 9.01939 34.9992C9.01939 36.5454 9.02712 38.0844 9.01939 39.6305C9.01939 40.1364 8.75684 40.4499 8.20858 40.5924C8.15452 40.6067 8.08502 40.6067 8.03097 40.6067C6.33983 40.6067 4.65642 40.6067 2.96528 40.6067C2.40157 40.6067 1.9228 40.115 2.00774 39.545C2.08496 39.0605 2.54057 38.7185 3.05795 38.7328C3.68343 38.7541 4.31664 38.747 4.95758 38.7399C5.01163 38.7399 5.06569 38.7328 5.16607 38.7328C4.88808 38.4834 4.62553 38.2696 4.39387 38.0274C3.96143 37.5856 3.53671 37.151 3.14289 36.6879C2.76451 36.239 2.40929 35.7759 2.07724 35.2914C1.59075 34.586 1.19692 33.8307 0.864873 33.0541C0.532824 32.2703 0.301161 31.4652 0.146719 30.6387C0.0772207 30.2824 0.0540546 29.9191 0.0308883 29.5628C0.00772205 29.2137 0 28.8574 0 28.5083C0.00772208 27.7602 0.108109 27.0192 0.277995 26.2853C0.501935 25.3519 0.841707 24.447 1.28959 23.5849C1.81469 22.5731 2.4479 21.6326 3.22011 20.7633C3.59849 20.3358 4.00004 19.9297 4.40931 19.5307C4.73364 19.2172 5.06569 18.9108 5.4209 18.6258C5.81473 18.3123 6.56377 18.4406 6.84177 18.8467C7.18154 19.3383 6.99621 19.8798 6.55605 20.2005C6.25489 20.4213 5.99234 20.6921 5.72979 20.9557C5.46724 21.2122 5.21241 21.4759 4.98074 21.7537C4.5792 22.2454 4.16993 22.737 3.81471 23.25C3.50583 23.706 3.23555 24.1905 2.98845 24.675C2.61006 25.416 2.34751 26.1998 2.20079 27.012C2.12357 27.4324 2.08496 27.867 2.03863 28.2945C1.96141 28.9714 2.05407 29.6341 2.16218 30.2967C2.35524 31.4723 2.78767 32.5696 3.38227 33.617C3.85332 34.4435 4.40931 35.2201 5.08885 35.9184C5.60623 36.4527 6.1545 36.9657 6.69505 37.4859C6.77999 37.5571 6.88038 37.6213 6.98849 37.7068Z" fill="#2776EA"/>
</svg>
