<svg width="70" height="70" viewBox="0 0 70 70" fill="none" xmlns="http://www.w3.org/2000/svg">
<mask id="mask0_734_181732" style="mask-type:alpha" maskUnits="userSpaceOnUse" x="0" y="0" width="70" height="70">
<rect width="70" height="70" fill="#D9D9D9"/>
</mask>
<g mask="url(#mask0_734_181732)">
<path fill-rule="evenodd" clip-rule="evenodd" d="M38.6333 6.85997L37.227 3.65653L35.8445 6.7993C35.7944 6.94633 35.6998 7.07587 35.5727 7.17157C35.4455 7.26726 35.2916 7.32483 35.1303 7.337L31.5122 7.62746L34.2224 9.8632C34.3479 9.95429 34.4432 10.0782 34.4967 10.2199C34.5503 10.3616 34.5597 10.5151 34.524 10.6618L33.697 14.045L36.7921 12.2529C36.9199 12.1755 37.0677 12.1337 37.219 12.1322C37.3703 12.1307 37.519 12.1696 37.6484 12.2445L40.7571 14.0434L39.9277 10.6603C39.894 10.522 39.9004 10.3775 39.9465 10.2425C39.9925 10.1075 40.0763 9.98704 40.1888 9.89429L42.9387 7.62594L39.3198 7.33245C39.1711 7.32127 39.0284 7.2713 38.9074 7.18799C38.7863 7.10468 38.6915 6.99122 38.6333 6.85997ZM37.9754 1.34495L39.9428 5.81946L45.0061 6.2252C45.1714 6.2384 45.3286 6.29931 45.4569 6.39985C45.5851 6.50038 45.6784 6.63579 45.7243 6.78813C45.7701 6.94046 45.7665 7.10253 45.7138 7.25283C45.6611 7.40314 45.5618 7.53458 45.4291 7.62974L41.6277 10.7649L42.7879 15.4935C42.8247 15.6477 42.8116 15.809 42.7504 15.9559C42.6891 16.1029 42.5827 16.2286 42.445 16.3165C42.3074 16.4044 42.1451 16.4502 41.9796 16.448C41.8141 16.4458 41.6532 16.3957 41.5181 16.3042L37.2278 13.8212L32.8804 16.3399C32.7433 16.4186 32.585 16.457 32.4253 16.4504C32.2655 16.4438 32.1113 16.3924 31.9819 16.3027C31.8525 16.213 31.7535 16.0888 31.6974 15.9458C31.6412 15.8027 31.6303 15.647 31.6661 15.498L32.8232 10.7687L28.9781 7.59713C28.8575 7.49642 28.7706 7.36404 28.7281 7.21647C28.6856 7.06889 28.6895 6.91264 28.7392 6.76715C28.7889 6.62166 28.8823 6.49336 29.0078 6.39821C29.1332 6.30307 29.2852 6.24527 29.4448 6.23202L34.5081 5.82401L36.4763 1.3495C36.5389 1.20876 36.6435 1.08873 36.777 1.00436C36.9105 0.919986 37.067 0.875 37.227 0.875C37.3871 0.875 37.5436 0.919986 37.6771 1.00436C37.8106 1.08873 37.9152 1.20876 37.9778 1.3495L37.9754 1.34495ZM51.894 13.6855L51.3313 12.3962L50.7916 13.6225C50.7419 13.7691 50.648 13.8984 50.5216 13.994C50.3952 14.0897 50.242 14.1475 50.0813 14.1602L48.6298 14.277L49.694 15.1545C49.8196 15.2456 49.9149 15.3695 49.9684 15.5112C50.0219 15.6529 50.0314 15.8063 49.9956 15.9531L49.6615 17.3121L50.898 16.5969C51.0258 16.5204 51.1734 16.4792 51.3243 16.478C51.4752 16.4768 51.6235 16.5156 51.7527 16.5901L53.0011 17.3121L52.6646 15.9607C52.6307 15.8224 52.6371 15.678 52.6829 15.543C52.7288 15.408 52.8125 15.2875 52.9249 15.1947L54.0288 14.2846L52.5773 14.1655C52.4289 14.1538 52.2868 14.1034 52.1663 14.0198C52.0458 13.9362 51.9516 13.8227 51.894 13.6916V13.6855ZM52.0781 10.0869C52.0154 9.94618 51.9109 9.82615 51.7774 9.74177C51.6439 9.6574 51.4874 9.61242 51.3273 9.61242C51.1673 9.61242 51.0107 9.6574 50.8772 9.74177C50.7438 9.82615 50.6392 9.94618 50.5765 10.0869L49.4512 12.6465L46.556 12.8808C46.3965 12.8941 46.2445 12.9519 46.1191 13.047C45.9936 13.1422 45.9002 13.2705 45.8505 13.416C45.8007 13.5615 45.7969 13.7177 45.8394 13.8653C45.8818 14.0128 45.9688 14.1452 46.0894 14.2459L48.2877 16.06L47.6266 18.7667C47.5907 18.9157 47.6015 19.0716 47.6577 19.2148C47.7139 19.358 47.8129 19.4823 47.9425 19.572C48.0721 19.6618 48.2264 19.7131 48.3863 19.7196C48.5462 19.7261 48.7046 19.6875 48.8417 19.6085L51.3273 18.1676L53.7574 19.5744C53.8924 19.6659 54.0533 19.716 54.2188 19.7182C54.3843 19.7204 54.5466 19.6745 54.6843 19.5867C54.8219 19.4988 54.9284 19.3731 54.9896 19.2261C55.0508 19.0792 55.0639 18.9179 55.0272 18.7637L54.3629 16.0592L56.5184 14.2816C56.6511 14.1864 56.7503 14.055 56.803 13.9047C56.8557 13.7544 56.8594 13.5923 56.8135 13.44C56.7676 13.2876 56.6744 13.1522 56.5461 13.0517C56.4179 12.9512 56.2607 12.8902 56.0954 12.877L53.2002 12.645L52.0749 10.0877L52.0781 10.0869ZM23.6926 13.6855L23.126 12.3962L22.5871 13.6225C22.5369 13.7696 22.4423 13.8991 22.3152 13.9948C22.1881 14.0905 22.0342 14.1481 21.8728 14.1602L20.4221 14.277L21.4855 15.1545C21.6111 15.2456 21.7064 15.3695 21.7599 15.5112C21.8134 15.6529 21.8229 15.8063 21.7871 15.9531L21.4538 17.3121L22.6895 16.5969C22.8175 16.5204 22.9652 16.4792 23.1162 16.478C23.2672 16.4768 23.4156 16.5156 23.545 16.5901L24.7926 17.3121L24.4632 15.9607C24.4294 15.8224 24.4359 15.6779 24.482 15.5429C24.528 15.4078 24.6118 15.2874 24.7243 15.1947L25.8274 14.2846L24.3767 14.1655C24.2282 14.1538 24.086 14.1035 23.9654 14.0199C23.8447 13.9363 23.7504 13.8228 23.6926 13.6916V13.6855ZM23.8767 10.0869C23.8141 9.94618 23.7095 9.82615 23.576 9.74177C23.4425 9.6574 23.286 9.61242 23.126 9.61242C22.9659 9.61242 22.8094 9.6574 22.6759 9.74177C22.5424 9.82615 22.4378 9.94618 22.3752 10.0869L21.253 12.6465L18.3571 12.8808C18.1975 12.8941 18.0456 12.9519 17.9201 13.047C17.7946 13.1422 17.7012 13.2705 17.6515 13.416C17.6018 13.5615 17.5979 13.7177 17.6404 13.8653C17.6829 14.0128 17.7698 14.1452 17.8904 14.2459L20.0896 16.06L19.4277 18.7667C19.3919 18.9156 19.4028 19.0713 19.4589 19.2144C19.5151 19.3575 19.614 19.4816 19.7435 19.5714C19.8729 19.6611 20.0271 19.7125 20.1868 19.7191C20.3466 19.7257 20.5049 19.6872 20.6419 19.6085L23.1275 18.1676L25.5584 19.5744C25.6934 19.6663 25.8544 19.7168 26.0201 19.7192C26.1858 19.7216 26.3483 19.6758 26.4861 19.5878C26.6239 19.4998 26.7304 19.3739 26.7915 19.2267C26.8526 19.0795 26.8654 18.918 26.8282 18.7637L26.1647 16.0592L28.3194 14.2816C28.4521 14.1865 28.5513 14.0551 28.6041 13.9048C28.6568 13.7546 28.6605 13.5926 28.6148 13.4403C28.569 13.288 28.4758 13.1526 28.3477 13.052C28.2196 12.9514 28.0625 12.8904 27.8972 12.877L25.0013 12.645L23.8759 10.0877L23.8767 10.0869ZM15.3413 50.3097L24.6124 59.17C25.1905 58.4508 25.9451 57.8788 26.8096 57.5046C27.674 57.1304 28.6216 56.9655 29.5686 57.0245H46.26C51.4368 56.6036 54.8216 52.0949 59.0881 46.407C59.3183 46.0991 61.7737 42.838 61.7944 42.8532C62.9848 41.297 63.1705 40.2314 61.8698 38.9854C61.344 38.487 60.6334 38.2073 59.8929 38.2073C59.1523 38.2073 58.4417 38.487 57.916 38.9854L50.0361 46.5155C50.1856 47.1366 50.1868 47.7819 50.0398 48.4036C49.8927 49.0253 49.6011 49.6074 49.1866 50.1067C48.7721 50.606 48.2453 51.0098 47.6453 51.2881C47.0452 51.5663 46.3873 51.712 45.7204 51.7142H37.108C36.8955 51.7079 36.6939 51.6228 36.546 51.4769C36.398 51.331 36.3152 51.1359 36.3152 50.9327C36.3152 50.7295 36.398 50.5344 36.546 50.3885C36.6939 50.2426 36.8955 50.1575 37.108 50.1512H45.7204C46.4538 50.1394 47.1531 49.8526 47.6674 49.3528C48.1818 48.853 48.47 48.18 48.47 47.479C48.47 46.778 48.1818 46.105 47.6674 45.6052C47.1531 45.1053 46.4538 44.8186 45.7204 44.8068H32.1447C32.0506 44.8069 31.9571 44.7915 31.8685 44.7613C27.7459 43.7557 24.2894 43.7582 21.499 44.7689C18.7856 45.8053 16.5848 47.7872 15.3413 50.3142V50.3097ZM20.0919 68.8903L5.4893 54.9359C5.33606 54.7891 5.25 54.5903 5.25 54.383C5.25 54.1757 5.33606 53.9769 5.4893 53.8301L9.40106 50.0882C9.99773 49.5228 10.7633 49.1483 11.5922 49.0164C12.4211 48.8845 13.2725 49.0017 14.0287 49.3518C15.4632 46.5894 17.9205 44.4347 20.9237 43.3059C24.022 42.1835 27.7917 42.1615 32.2328 43.24H45.7204C46.4213 43.2408 47.112 43.4004 47.7358 43.7057C48.3596 44.0111 48.8988 44.4534 49.3091 44.9964L56.7589 37.8781C57.5917 37.0862 58.7188 36.6416 59.8937 36.6416C61.0685 36.6416 62.1956 37.0862 63.0285 37.8781C64.9133 39.6793 64.7863 41.6436 63.1078 43.7815C63.1078 43.7815 60.6476 47.0092 60.4222 47.3118C55.8986 53.3402 52.3154 58.1203 46.36 58.5837C46.3383 58.5837 46.3169 58.5837 46.2957 58.5837H29.5741C28.824 58.5189 28.0696 58.651 27.3922 58.9655C26.7148 59.2801 26.14 59.7654 25.7298 60.369C26.2159 61.1095 26.4251 61.9856 26.3234 62.8544C26.2216 63.7231 25.8149 64.5334 25.1695 65.1529L21.253 68.8963C21.0995 69.0428 20.8914 69.125 20.6745 69.125C20.4575 69.125 20.2495 69.0428 20.0959 68.8963L20.0919 68.8903ZM7.22019 54.3815L10.5534 51.1925C11.0044 50.7637 11.6148 50.523 12.251 50.523C12.8872 50.523 13.4975 50.7637 13.9485 51.1925C16.5992 53.7262 22.299 58.5655 24.2823 61.1221C24.5969 61.5649 24.7411 62.0984 24.6903 62.6315C24.6395 63.1646 24.3969 63.6643 24.0037 64.0457L20.6665 67.2309L7.22019 54.3815ZM37.5516 18.3951C39.9086 18.3951 42.2126 19.063 44.1724 20.3143C46.1321 21.5656 47.6595 23.3442 48.5615 25.4251C49.4635 27.506 49.6995 29.7957 49.2397 32.0048C48.7798 34.2138 47.6449 36.243 45.9782 37.8356C44.3116 39.4283 42.1882 40.5129 39.8765 40.9523C37.5648 41.3917 35.1687 41.1661 32.9912 40.3042C30.8136 39.4423 28.9524 37.9827 27.643 36.1099C26.3335 34.2372 25.6346 32.0354 25.6346 29.7831C25.6348 26.7629 26.8904 23.8664 29.1252 21.7308C31.3601 19.5952 34.3911 18.3953 37.5516 18.3951ZM42.5372 38.3779C41.0568 39.1613 39.3971 39.5838 37.7051 39.608C36.0131 39.6322 34.341 39.2574 32.8367 38.5167C33.0363 37.4582 33.5778 36.4859 34.3851 35.7365C37.1969 33.1488 41.7094 34.6239 42.5372 38.3779ZM31.378 37.6408C29.6635 36.4106 28.3942 34.699 27.748 32.7454C27.1017 30.7919 27.1107 28.6941 27.7737 26.7457C28.4367 24.7972 29.7205 23.0956 31.4456 21.8789C33.1706 20.6622 35.2505 19.9913 37.3943 19.9601C39.5381 19.9288 41.6385 20.5388 43.4016 21.7047C45.1646 22.8705 46.5022 24.534 47.2271 26.4622C47.9519 28.3904 48.0279 30.4869 47.4442 32.4584C46.8606 34.4299 45.6465 36.1777 43.972 37.4572C43.6162 36.3477 42.9638 35.3461 42.0792 34.5511C41.251 33.8152 40.2356 33.2996 39.1339 33.0555C38.0323 32.8115 36.8829 32.8475 35.8004 33.1601C34.7179 33.4726 33.7399 34.0508 32.964 34.8369C32.1881 35.6231 31.6413 36.5898 31.378 37.6408ZM38.9039 26.5956C37.7929 25.392 35.9366 26.2831 35.9366 28.0517C35.9366 29.8202 37.7921 30.7114 38.9039 29.507C39.2572 29.097 39.4504 28.5824 39.4504 28.0513C39.4504 27.5202 39.2572 27.0056 38.9039 26.5956ZM37.6937 24.4819C36.7499 24.5295 35.864 24.9312 35.2287 25.5997C34.5933 26.2682 34.2599 27.1494 34.3009 28.0517C34.3009 31.2316 37.9992 32.8402 40.1245 30.5392C42.2165 28.2731 40.6713 24.4819 37.6937 24.4819Z" fill="#2776EA"/>
</g>
</svg>
