<svg width="80" height="80" viewBox="0 0 80 80" fill="none" xmlns="http://www.w3.org/2000/svg">
<mask id="mask0_734_181716" style="mask-type:alpha" maskUnits="userSpaceOnUse" x="0" y="0" width="80" height="80">
<rect width="80" height="80" fill="#D9D9D9"/>
</mask>
<g mask="url(#mask0_734_181716)">
<path d="M40.0096 62.0421C27.8814 62.0552 17.8835 52.0196 17.8965 39.8471C17.9128 27.6713 27.8911 17.7107 40.0681 17.714C52.1052 17.7173 62.0771 27.7267 62.0933 39.8275C62.1161 52.0131 52.1605 62.0291 40.0096 62.0421ZM29.2441 29.3384C27.8326 28.7642 26.5056 28.177 25.1363 27.7006C24.7916 27.5799 24.1216 27.6778 23.9427 27.9257C21.5977 31.123 20.1699 34.6596 20.0658 38.7835C22.7783 38.7835 25.3445 38.7835 27.8749 38.7835C28.3367 35.6123 28.7855 32.5194 29.2441 29.3384ZM59.937 38.7965C59.8036 34.6335 58.4019 31.1263 56.0894 27.9616C55.9008 27.7039 55.2373 27.5603 54.9055 27.6778C53.494 28.1737 52.1247 28.7871 50.7555 29.3515C51.2173 32.5129 51.6727 35.6416 52.1345 38.7965C54.7039 38.7965 57.2245 38.7965 59.937 38.7965ZM29.2506 50.421C28.7823 47.2335 28.3269 44.1079 27.8716 41.0183C25.2469 41.0183 22.6938 41.0183 20.0593 41.0183C20.1959 45.0737 21.5652 48.5417 23.8289 51.6672C24.0468 51.9707 24.8306 52.111 25.2404 51.9805C26.5674 51.5628 27.8456 50.9821 29.2506 50.421ZM52.128 40.9531C51.6564 44.2058 51.2076 47.2922 50.7587 50.3949C52.1377 50.9691 53.5103 51.5792 54.9153 52.0946C55.2243 52.2088 55.8357 52.124 55.9983 51.9021C58.3758 48.6722 59.8492 45.1161 59.9142 40.9498C57.2147 40.9531 54.6909 40.9531 52.128 40.9531ZM29.9596 38.7574C33.2055 38.7574 36.0351 38.7574 38.9167 38.7574C38.9167 36.0658 38.9167 33.4884 38.9167 30.8751C36.4091 30.5586 33.9764 30.2519 31.2346 29.9028C30.8118 32.8457 30.3987 35.7069 29.9596 38.7574ZM41.0926 30.8751C41.0926 33.534 41.0926 36.1082 41.0926 38.777C44.0133 38.777 46.8428 38.777 50.0302 38.777C49.5944 35.7363 49.1813 32.8391 48.7618 29.9061C46.02 30.2519 43.6262 30.5554 41.0926 30.8751ZM31.2248 49.8467C34.0447 49.4879 36.4742 49.1812 38.8972 48.8745C38.8972 46.1894 38.8972 43.612 38.8972 40.9824C35.9636 40.9824 33.1307 40.9824 29.9727 40.9824C30.3955 43.9905 30.802 46.8517 31.2248 49.8467ZM41.0894 48.8843C43.6262 49.2008 46.0232 49.5009 48.7553 49.8402C49.1748 46.9137 49.5944 44.0133 50.0302 40.9759C46.8396 40.9759 44.0068 40.9759 41.0894 40.9759C41.0894 43.6414 41.0894 46.2188 41.0894 48.8843ZM41.1186 19.9162C41.1186 22.9373 41.1186 25.7757 41.1186 28.7838C43.4213 28.5032 45.5874 28.2389 47.9389 27.9518C46.381 24.4185 44.9239 21.2538 41.1186 19.9162ZM41.1316 50.9854C41.1316 54.0489 41.1316 56.871 41.1316 59.8693C44.9402 58.4109 46.4265 55.3017 47.9389 51.7847C45.5256 51.5009 43.366 51.2496 41.1316 50.9854ZM38.9037 19.8412C35.0984 21.3387 33.5861 24.4316 32.0509 27.9551C34.4642 28.2422 36.6238 28.4999 38.9037 28.774C38.9037 25.7398 38.9037 22.9341 38.9037 19.8412ZM32.0314 51.7912C33.6609 55.367 35.0952 58.5577 38.907 59.8301C38.907 56.8253 38.907 54.0195 38.907 50.9854C36.6336 51.2529 34.474 51.5074 32.0314 51.7912ZM33.4722 20.8852C30.5125 21.9651 28.0342 23.4267 25.8096 25.8149C27.3707 26.3858 28.6977 26.8687 29.9076 27.3124C31.15 25.071 32.2461 23.0907 33.4722 20.8852ZM50.1148 27.3483C51.3995 26.8491 52.7102 26.3401 54.2648 25.7366C51.8255 23.5115 49.5131 21.8117 46.5859 20.9961C47.7568 23.1037 48.8561 25.0808 50.1148 27.3483ZM33.4365 58.822C32.2428 56.6655 31.124 54.6427 29.8946 52.4209C28.6327 52.894 27.3089 53.3931 25.7836 53.9673C28.0993 56.3098 30.5321 57.8661 33.4365 58.822ZM50.1245 52.3817C48.8951 54.6035 47.7665 56.6426 46.5404 58.8611C49.487 57.7976 51.9621 56.3229 54.1737 53.9739C52.7232 53.4029 51.4775 52.9135 50.1245 52.3817Z" fill="#2776EA"/>
<path d="M41.0045 3.62958C41.0045 6.32117 41.0045 9.00951 41.0045 11.7011C41.0045 12.1905 41.1281 12.7288 40.9655 13.1562C40.7834 13.626 40.3378 13.9947 40.006 14.409C39.671 13.9979 39.0596 13.5934 39.0466 13.1692C38.9555 10.6179 38.9978 8.06011 38.9978 5.50554C38.9978 4.87913 38.9978 4.25272 38.9978 3.62631C38.8547 3.54149 38.7148 3.45992 38.5717 3.3751C37.6676 4.35386 36.8284 5.40766 35.83 6.2755C35.482 6.57891 34.7469 6.4321 34.1875 6.49409C34.2493 5.96882 34.1192 5.26737 34.4054 4.95091C35.9048 3.30985 37.4627 1.7112 39.1181 0.230009C39.4596 -0.0766697 40.5362 -0.0766697 40.8809 0.230009C42.5364 1.70794 44.0976 3.30659 45.5969 4.94764C45.8864 5.26411 45.7563 5.96556 45.8213 6.48756C45.2619 6.42884 44.5301 6.57891 44.1789 6.27876C43.1739 5.41745 42.3217 4.37344 41.4111 3.4012C41.2712 3.47624 41.1379 3.55128 41.0045 3.62958Z" fill="#2776EA"/>
<path d="M3.9176 38.8681C6.89354 38.8681 9.87274 38.8159 12.8487 38.9138C13.4439 38.9333 14.0163 39.5239 14.6017 39.8501C14.0358 40.1959 13.4796 40.8191 12.904 40.8354C9.89551 40.9365 6.88379 40.8811 3.64765 41.2595C4.61036 42.1763 5.64462 43.0344 6.49675 44.0425C6.80248 44.4014 6.66913 45.1322 6.73743 45.6966C6.17802 45.6052 5.43972 45.7129 5.08846 45.3932C3.52406 43.9707 2.08325 42.4145 0.57088 40.9333C-0.157658 40.222 -0.209696 39.5826 0.535103 38.8518C2.04422 37.3673 3.49153 35.8176 5.05268 34.3919C5.41695 34.0591 6.14224 34.1276 6.70165 34.0134C6.62034 34.6137 6.74393 35.3804 6.41869 35.785C5.6186 36.7801 4.61361 37.6087 3.69318 38.5059C3.76799 38.6267 3.84279 38.7474 3.9176 38.8681Z" fill="#2776EA"/>
<path d="M76.3424 38.3983C75.3895 37.5174 74.3617 36.6985 73.5194 35.7198C73.2104 35.3609 73.3275 34.6301 73.2494 34.0657C73.8088 34.1472 74.5471 34.0265 74.8951 34.343C76.4595 35.7622 77.9036 37.3152 79.416 38.7964C80.1282 39.4945 80.2356 40.1405 79.481 40.8811C77.9361 42.4047 76.453 43.9968 74.8463 45.4519C74.5146 45.7521 73.76 45.589 73.2006 45.6379C73.2689 45.1126 73.1583 44.434 73.4446 44.0947C74.3064 43.0703 75.3244 42.1796 76.6449 40.8811C74.0788 40.8811 72.0037 40.8811 69.9287 40.8811C69.2229 40.8811 68.5139 40.9333 67.8179 40.8681C66.9332 40.7832 65.5119 41.3509 65.4697 39.9154C65.4274 38.444 66.8552 38.904 67.7398 38.8877C70.1238 38.8388 72.5079 38.8714 74.8919 38.8714C75.3049 38.8714 75.718 38.8714 76.131 38.8714C76.1993 38.7115 76.2709 38.5549 76.3424 38.3983Z" fill="#2776EA"/>
<path d="M38.9978 76.1299C38.9978 73.4415 38.9978 70.7499 38.9978 68.0616C38.9978 67.5722 38.871 67.0339 39.0368 66.6065C39.219 66.1334 39.6645 65.7615 39.9963 65.3472C40.3313 65.7582 40.9395 66.1628 40.9557 66.5869C41.0468 69.1382 41.0045 71.6928 41.0045 74.2474C41.0045 74.877 41.0045 75.5035 41.0045 76.1331C41.1379 76.2049 41.2712 76.2799 41.4046 76.3517C42.2762 75.4186 43.0796 74.404 44.0553 73.5916C44.4553 73.2556 45.2196 73.3567 45.8181 73.2588C45.7173 73.8232 45.8116 74.5606 45.4863 74.9195C44.0683 76.4887 42.5201 77.934 41.0436 79.4479C40.3248 80.1852 39.6808 80.1819 38.9653 79.4511C37.4854 77.9373 35.9373 76.492 34.5192 74.9227C34.194 74.5638 34.2883 73.8265 34.1875 73.2621C34.7859 73.3567 35.5438 73.2556 35.947 73.5883C36.926 74.3942 37.7391 75.4056 38.6173 76.3321C38.7441 76.2636 38.871 76.1984 38.9978 76.1299Z" fill="#2776EA"/>
<path d="M13.3789 15.1072C13.3789 16.3894 13.4667 17.6813 13.3366 18.9537C13.2846 19.4529 12.7479 19.8999 12.4324 20.3697C12.0812 19.926 11.447 19.4986 11.4242 19.0386C11.3169 16.8755 11.2908 14.6961 11.4405 12.5363C11.473 12.0502 12.2958 11.2574 12.7967 11.2248C14.9498 11.0812 17.1224 11.1138 19.2787 11.2085C19.7113 11.228 20.1211 11.8022 20.5374 12.1187C20.1048 12.4711 19.6983 13.0746 19.2332 13.1236C17.9518 13.2639 16.6475 13.1725 14.9335 13.1725C15.7922 14.073 16.4166 14.7548 17.0671 15.4106C18.5502 16.9146 20.0983 18.3567 21.5034 19.9325C21.8969 20.3762 22.2417 21.4528 21.9977 21.7726C21.2497 22.7546 20.596 21.8607 20.0463 21.3093C17.9485 19.2017 15.8735 17.0712 13.7919 14.9506C13.6553 15.0028 13.5187 15.055 13.3789 15.1072Z" fill="#2776EA"/>
<path d="M65.2288 13.1725C63.388 13.1725 62.0545 13.2475 60.7372 13.1301C60.2884 13.0909 59.8786 12.5624 59.4525 12.2557C59.8819 11.8903 60.2982 11.2313 60.747 11.2084C62.9066 11.0975 65.0759 11.0747 67.2323 11.2215C67.7234 11.2541 68.5267 12.0632 68.5625 12.5591C68.7089 14.7189 68.6861 16.8983 68.5755 19.0646C68.5528 19.5149 67.9023 19.9357 67.5413 20.3664C67.2355 19.939 66.7054 19.5312 66.6664 19.0777C66.5493 17.7564 66.6241 16.4155 66.2533 14.8919C64.3409 16.8461 62.4285 18.8004 60.5128 20.7546C60.1713 21.1037 59.8754 21.5605 59.4591 21.753C59.046 21.9455 58.5094 21.8639 58.028 21.9063C58.0345 21.381 57.8231 20.6763 58.0833 20.3664C59.0558 19.2082 60.1778 18.1772 61.2511 17.1039C62.4545 15.9032 63.6742 14.7092 65.2288 13.1725Z" fill="#2776EA"/>
<path d="M13.7695 64.8675C15.2201 63.37 16.6641 61.866 18.118 60.375C18.8758 59.5985 19.5913 58.7666 20.4402 58.1075C20.8044 57.8269 21.4549 57.9183 21.9786 57.8433C21.9363 58.4077 22.1152 59.1776 21.8127 59.5039C20.0109 61.4516 18.0984 63.2982 16.2316 65.1807C15.8705 65.5461 15.5323 65.9344 14.9371 66.5803C16.6121 66.5803 17.9456 66.5053 19.2628 66.6228C19.7149 66.6619 20.1214 67.1904 20.5507 67.4971C20.1182 67.8625 19.7051 68.5183 19.2563 68.5411C17.0967 68.6521 14.9241 68.6749 12.771 68.5281C12.2799 68.4955 11.4733 67.6863 11.4408 67.1937C11.2944 65.0339 11.3172 62.8545 11.4278 60.6882C11.4505 60.2347 12.101 59.8171 12.4588 59.3799C12.7678 59.8073 13.2979 60.2119 13.3402 60.6621C13.4605 61.9834 13.3825 63.3243 13.3825 64.6554C13.5126 64.7272 13.6427 64.799 13.7695 64.8675Z" fill="#2776EA"/>
<path d="M64.9035 66.2084C62.9521 64.2867 60.9974 62.3684 59.0492 60.4467C58.7012 60.1042 58.2166 59.8073 58.0637 59.3897C57.8946 58.9296 58.0344 58.3522 58.0409 57.8269C58.5223 57.8758 59.1598 57.7453 59.4622 58.0063C60.5648 58.959 61.5698 60.0324 62.5878 61.0797C63.7912 62.3194 64.9718 63.582 66.1622 64.8348C66.315 64.7892 66.4647 64.7402 66.6175 64.6946C66.6175 63.3993 66.533 62.0943 66.6598 60.8121C66.7118 60.3097 67.242 59.8562 67.5542 59.3799C67.912 59.8725 68.5462 60.3521 68.5755 60.8643C68.6958 62.9197 68.608 64.9849 68.634 67.0468C68.647 68.1528 68.1429 68.6129 67.0566 68.5965C65.0011 68.5672 62.9423 68.6585 60.8933 68.5346C60.3924 68.5052 59.9306 67.8462 59.4525 67.4742C59.9403 67.1741 60.4054 66.6684 60.9161 66.6162C62.1455 66.4889 63.3976 66.5738 64.6401 66.5738C64.7279 66.4563 64.8157 66.3323 64.9035 66.2084Z" fill="#2776EA"/>
</g>
</svg>
