<svg width="80" height="80" viewBox="0 0 80 80" fill="none" xmlns="http://www.w3.org/2000/svg">
<mask id="mask0_734_181728" style="mask-type:alpha" maskUnits="userSpaceOnUse" x="0" y="0" width="80" height="80">
<rect width="80" height="80" fill="#D9D9D9"/>
</mask>
<g mask="url(#mask0_734_181728)">
<path d="M41.6992 21.9084C47.8172 21.9084 52.7954 16.9947 52.7954 10.9538C52.7954 4.91289 47.8172 0 41.6992 0C35.5811 0 30.6029 4.91378 30.6029 10.9547C30.6029 16.9956 35.5802 21.9084 41.6992 21.9084ZM41.6992 2.07822C46.6566 2.07822 50.6903 6.06044 50.6903 10.9547C50.6903 15.8489 46.6566 19.8311 41.6992 19.8311C36.7417 19.8311 32.708 15.8489 32.708 10.9547C32.708 6.06044 36.7408 2.07822 41.6992 2.07822ZM79.949 38.4791C79.8157 38.072 79.4439 37.7876 79.0117 37.7618L72.1922 37.3493L69.727 31.104C69.5694 30.7058 69.1814 30.4436 68.7483 30.4427C68.7474 30.4427 68.7474 30.4427 68.7465 30.4427C68.3143 30.4427 67.9262 30.704 67.7669 31.1004L65.2629 37.376L58.4849 37.7609C58.0527 37.7858 57.6799 38.0693 57.5449 38.4756C57.4098 38.8818 57.5413 39.328 57.8753 39.6L63.147 43.8907L61.4237 50.3733C61.3139 50.7867 61.4714 51.2249 61.8217 51.4764C62.1719 51.7289 62.6419 51.7431 63.0075 51.5129L68.7699 47.8889L74.4828 51.5111C74.6565 51.6213 74.8537 51.6756 75.0518 51.6756C75.2688 51.6756 75.4849 51.6098 75.6686 51.4782C76.0197 51.2276 76.1791 50.7902 76.0701 50.3769L74.3594 43.8462L79.614 39.6018C79.949 39.3316 80.0822 38.8862 79.949 38.4791ZM72.5055 42.6596C72.1877 42.9164 72.0509 43.3316 72.1535 43.7236L73.36 48.3298L69.3407 45.7813C68.995 45.5627 68.5529 45.5618 68.2063 45.7796L64.141 48.336L65.3539 43.7751C65.4583 43.3831 65.3223 42.9671 65.0054 42.7093L61.2869 39.6827L66.0553 39.4116C66.4649 39.3884 66.8233 39.1324 66.9736 38.7547L68.7402 34.328L70.4743 38.7218C70.6238 39.0996 70.9812 39.3564 71.3909 39.3813L76.2016 39.672L72.5055 42.6596ZM21.6135 40.6133C21.6135 35.9742 17.7905 32.1991 13.0906 32.1991C8.39151 32.1991 4.56761 35.9733 4.56761 40.6133C4.56761 43.4356 6.00911 46.0658 8.3672 47.6178V47.6889C8.3672 47.9751 8.43383 48.2462 8.55268 48.488C8.43383 48.7298 8.3672 49.0009 8.3672 49.2871V50.1396C8.3672 50.9698 8.92724 51.672 9.69436 51.8996C10.1184 53.3582 11.4789 54.4293 13.0906 54.4293C14.7023 54.4293 16.0627 53.3582 16.4868 51.8996C17.253 51.672 17.814 50.9698 17.814 50.1396V49.2871C17.814 49.0009 17.7473 48.7298 17.6285 48.488C17.7473 48.2462 17.814 47.9751 17.814 47.6889V47.6178C20.1729 46.0649 21.6135 43.4347 21.6135 40.6133ZM15.7089 49.5271V49.9004H10.4732V49.5271H15.7089ZM12.1254 51.9787H14.0567C13.8019 52.2098 13.4633 52.352 13.0906 52.352C12.7187 52.352 12.3802 52.2089 12.1254 51.9787ZM16.2437 46.1333C15.9133 46.3173 15.7089 46.6631 15.7089 47.0382V47.4498H14.1431V39.304C14.1431 38.7307 13.6722 38.2649 13.0906 38.2649C12.5098 38.2649 12.038 38.7298 12.038 39.304V47.4498H10.4723V47.0382C10.4723 46.664 10.2679 46.3182 9.93746 46.1333C7.92332 45.0098 6.67179 42.8942 6.67179 40.6133C6.67179 37.12 9.5512 34.2773 13.0897 34.2773C16.6291 34.2773 19.5076 37.12 19.5076 40.6133C19.5094 42.8942 18.2578 45.0098 16.2437 46.1333ZM12.0389 30.9164V28.728C12.0389 28.1547 12.5098 27.6889 13.0915 27.6889C13.6722 27.6889 14.144 28.1538 14.144 28.728V30.9164C14.144 31.4898 13.6731 31.9556 13.0915 31.9556C12.5098 31.9556 12.0389 31.4907 12.0389 30.9164ZM22.3474 32.944L20.7798 34.4916C20.5745 34.6942 20.3053 34.7956 20.0361 34.7956C19.7669 34.7956 19.4977 34.6942 19.2924 34.4916C18.8818 34.0862 18.8818 33.4284 19.2924 33.0222L20.8599 31.4747C21.2705 31.0684 21.9368 31.0684 22.3483 31.4747C22.7588 31.88 22.7588 32.5378 22.3474 32.944ZM21.8603 40.6133C21.8603 40.04 22.3311 39.5742 22.9128 39.5742H25.1295C25.7103 39.5742 26.1821 40.0391 26.1821 40.6133C26.1821 41.1867 25.7112 41.6524 25.1295 41.6524H22.9128C22.332 41.6516 21.8603 41.1867 21.8603 40.6133ZM19.2915 48.2036C18.8809 47.7982 18.8809 47.1404 19.2915 46.7342C19.7029 46.328 20.3692 46.328 20.7798 46.7342L22.3474 48.2818C22.7579 48.6871 22.7579 49.3449 22.3474 49.7511C22.1421 49.9538 21.8729 50.0551 21.6036 50.0551C21.3344 50.0551 21.0652 49.9538 20.8599 49.7511L19.2915 48.2036ZM6.88968 46.7351C7.30026 47.1404 7.30026 47.7982 6.88968 48.2044L5.32303 49.7511C5.11774 49.9538 4.84853 50.0551 4.57932 50.0551C4.3101 50.0551 4.04089 49.9538 3.83561 49.7511C3.42503 49.3458 3.42503 48.688 3.83561 48.2818L5.40316 46.7342C5.81283 46.3289 6.47911 46.3289 6.88968 46.7351ZM3.26927 41.6516H1.05254C0.471798 41.6516 0 41.1867 0 40.6124C0 40.0391 0.470897 39.5733 1.05254 39.5733H3.26927C3.85001 39.5733 4.32181 40.0382 4.32181 40.6124C4.32181 41.1867 3.85001 41.6516 3.26927 41.6516ZM3.83471 32.944C3.42413 32.5387 3.42413 31.8809 3.83471 31.4747C4.24618 31.0684 4.91246 31.0684 5.32303 31.4747L6.89058 33.0222C7.30116 33.4276 7.30116 34.0853 6.89058 34.4916C6.6853 34.6942 6.41609 34.7956 6.14687 34.7956C5.87766 34.7956 5.60845 34.6942 5.40316 34.4916L3.83471 32.944ZM56.0593 11.7476C56.423 11.3004 57.0857 11.2284 57.5386 11.5876C61.0636 14.3813 63.7548 18.0773 65.3223 22.2151L65.7662 20.9173C65.9526 20.3733 66.5496 20.0818 67.1006 20.2658C67.6516 20.4498 67.9469 21.0391 67.7606 21.5822L66.2578 25.9707C66.256 25.976 66.2533 25.9813 66.2515 25.9867C66.2416 26.0142 66.2308 26.0409 66.2182 26.0667C66.2137 26.0764 66.2101 26.0853 66.2056 26.0951C66.1714 26.1636 66.13 26.2284 66.0823 26.2871C66.076 26.2951 66.0688 26.3031 66.0616 26.3111C66.0435 26.3324 66.0237 26.3529 66.0039 26.3733C65.9958 26.3813 65.9877 26.3893 65.9787 26.3973C65.958 26.4169 65.9355 26.4356 65.913 26.4533C65.9049 26.4596 65.8977 26.4658 65.8896 26.4711C65.8617 26.4916 65.832 26.5111 65.8013 26.5298C65.7986 26.5316 65.7959 26.5333 65.7923 26.5351C65.7581 26.5547 65.7221 26.5733 65.6852 26.5893C65.6789 26.592 65.6726 26.5938 65.6663 26.5964C65.6375 26.608 65.6078 26.6196 65.5771 26.6293C65.5726 26.6311 65.5681 26.6329 65.5636 26.6338C65.5564 26.6356 65.5492 26.6364 65.542 26.6382C65.5249 26.6427 65.5078 26.6489 65.4907 26.6524C65.4736 26.656 65.4565 26.6578 65.4385 26.6613C65.425 26.664 65.4115 26.6667 65.3971 26.6684C65.3503 26.6747 65.3043 26.6782 65.2584 26.6782C65.2341 26.6782 65.2098 26.6738 65.1855 26.672C65.1522 26.6693 65.118 26.6693 65.0855 26.6631C65.0558 26.6578 65.027 26.6489 64.9973 26.6409C64.9703 26.6338 64.9424 26.6293 64.9163 26.6196C64.8893 26.6107 64.8641 26.5973 64.8379 26.5858C64.8109 26.5742 64.783 26.5636 64.7569 26.5493C64.7308 26.5351 64.7065 26.5173 64.6813 26.5004C64.6597 26.4862 64.6363 26.4738 64.6155 26.4578L60.9069 23.6196C60.4477 23.2676 60.364 22.6151 60.7196 22.1618C61.0762 21.7084 61.737 21.6258 62.1962 21.9769L63.3073 22.8267C61.8658 19.0836 59.4177 15.7396 56.2204 13.2053C55.7684 12.8489 55.6955 12.1947 56.0593 11.7476ZM17.5366 25.4116C18.5163 21.0987 20.6862 17.1084 23.7546 13.8969L22.4482 14.0809C21.8729 14.1609 21.3398 13.7671 21.2579 13.1991C21.176 12.6311 21.5757 12.1049 22.1511 12.024L26.7961 11.3689C26.8024 11.368 26.8087 11.368 26.815 11.3671C26.8429 11.3636 26.8708 11.3618 26.8979 11.36C26.9123 11.3591 26.9258 11.3591 26.9393 11.3582C26.9636 11.3582 26.9888 11.3591 27.0131 11.3609C27.0275 11.3618 27.0419 11.3618 27.0554 11.3636C27.0905 11.3671 27.1257 11.3724 27.1608 11.3804C27.1761 11.3831 27.1905 11.3876 27.2049 11.392C27.2274 11.3973 27.2499 11.4036 27.2715 11.4107C27.2859 11.4151 27.3012 11.4213 27.3156 11.4267C27.3381 11.4347 27.3598 11.4436 27.3814 11.4533C27.394 11.4596 27.4066 11.4649 27.4201 11.4711C27.4444 11.4836 27.4678 11.4969 27.4912 11.5111C27.5002 11.5164 27.5101 11.5218 27.5191 11.528C27.5839 11.5698 27.6443 11.6187 27.7001 11.6756C27.7019 11.6773 27.7046 11.6791 27.7064 11.6809C27.7127 11.688 27.7181 11.696 27.7253 11.7022C27.7388 11.7164 27.7523 11.7307 27.7649 11.7467C27.7694 11.752 27.773 11.7582 27.7775 11.7636C27.7865 11.7751 27.7946 11.7867 27.8036 11.7991C27.8189 11.8196 27.8324 11.8409 27.846 11.8622C27.8532 11.8738 27.8595 11.8844 27.8658 11.896C27.8793 11.9209 27.8919 11.9458 27.9036 11.9707C27.9081 11.9796 27.9126 11.9893 27.9162 11.9982C27.9306 12.032 27.9432 12.0658 27.9531 12.1004C27.954 12.1022 27.954 12.104 27.9549 12.1049C27.9657 12.1431 27.9747 12.1813 27.9819 12.2196C27.9828 12.2258 27.9837 12.2329 27.9846 12.2391C27.9891 12.2693 27.9927 12.3004 27.9945 12.3316C27.9954 12.344 27.9954 12.3564 27.9954 12.368C27.9963 12.3938 27.9954 12.4204 27.9945 12.4462C27.9936 12.4596 27.9936 12.4729 27.9918 12.4853C27.9891 12.5138 27.9855 12.5422 27.9801 12.5707C27.9792 12.5787 27.9783 12.5858 27.9774 12.5938L27.0833 17.1413C26.9861 17.6382 26.5449 17.9822 26.0515 17.9822C25.9849 17.9822 25.9173 17.976 25.8498 17.9627C25.279 17.8533 24.9062 17.3084 25.017 16.7449L25.3006 15.304C22.4815 18.248 20.489 21.9076 19.5904 25.8631C19.4806 26.3467 19.0466 26.6747 18.5649 26.6747C18.4883 26.6747 18.4109 26.6667 18.3335 26.6489C17.7662 26.5271 17.4097 25.9716 17.5366 25.4116ZM41.6992 13.3084C42.6355 13.3084 43.4459 12.7716 43.8357 11.9938H47.4796C48.0603 11.9938 48.5321 11.5289 48.5321 10.9547C48.5321 10.3813 48.0612 9.91556 47.4796 9.91556H43.8357C43.6034 9.45156 43.2217 9.07467 42.7517 8.84533V4.16356C42.7517 3.59022 42.2808 3.12444 41.6992 3.12444C41.1184 3.12444 40.6466 3.58933 40.6466 4.16356V8.84533C39.8588 9.23022 39.315 10.0293 39.315 10.9547C39.315 12.2524 40.3837 13.3084 41.6992 13.3084ZM41.6992 11.2302C41.5479 11.2302 41.42 11.104 41.42 10.9547C41.42 10.8053 41.5479 10.6791 41.6992 10.6791C41.8504 10.6791 41.9783 10.8053 41.9783 10.9547C41.9783 10.9556 41.9783 10.9556 41.9783 10.9564C41.9783 11.104 41.8504 11.2302 41.6992 11.2302ZM55.7702 50.7698H55.7225C54.4782 47.488 51.2837 45.2587 47.6876 45.2587H32.3127C28.7166 45.2587 25.5212 47.488 24.2778 50.7698H24.23C22.6859 50.7698 21.3488 51.3902 20.3629 52.5636C19.377 53.7369 19.007 55.1484 19.2924 56.6471L21.7126 69.3564C22.1664 71.7378 24.1967 73.4009 26.6512 73.4009H53.3527C55.8072 73.4009 57.8375 71.7378 58.2913 69.3564L60.7088 56.6471C60.9942 55.1484 60.6242 53.7369 59.6383 52.5636C58.6523 51.3902 57.3144 50.7698 55.7702 50.7698ZM32.3127 47.3369H47.6876C50.1258 47.3369 52.32 48.6969 53.4221 50.7698H26.5782C27.6794 48.6969 29.8736 47.3369 32.3127 47.3369ZM58.6406 56.2631L56.2204 68.9725C55.9566 70.3564 54.7771 71.3227 53.3509 71.3227H26.6494C25.2232 71.3227 24.0437 70.3564 23.7799 68.9725L21.3596 56.2631C21.1913 55.3804 21.4011 54.5813 21.9818 53.8898C22.5625 53.1982 23.3189 52.848 24.2291 52.848H55.7702C56.6805 52.848 57.4368 53.1982 58.0176 53.8898C58.5992 54.5813 58.8081 55.3796 58.6406 56.2631ZM58.3471 74.2453H21.6532C21.0724 74.2453 20.6006 74.7102 20.6006 75.2844V77.1227C20.6006 78.7093 21.908 80 23.5151 80H56.4842C58.0914 80 59.3988 78.7093 59.3988 77.1227V75.2844C59.3997 74.7102 58.9279 74.2453 58.3471 74.2453ZM57.2946 77.1227C57.2946 77.5636 56.9317 77.9218 56.4851 77.9218H23.516C23.0695 77.9218 22.7066 77.5636 22.7066 77.1227V76.3227H57.2955L57.2946 77.1227ZM40.0001 58.2302C37.8473 58.2302 36.0952 59.96 36.0952 62.0853C36.0952 64.2107 37.8464 65.9404 40.0001 65.9404C42.1529 65.9404 43.9051 64.2116 43.9051 62.0853C43.9051 59.9591 42.1529 58.2302 40.0001 58.2302ZM40.0001 63.8622C39.0079 63.8622 38.2003 63.0649 38.2003 62.0853C38.2003 61.1058 39.0079 60.3084 40.0001 60.3084C40.9924 60.3084 41.8 61.1058 41.8 62.0853C41.8 63.0649 40.9924 63.8622 40.0001 63.8622ZM30.7668 34.0889C30.7668 39.1156 34.9085 43.2044 40.0001 43.2044C45.0918 43.2044 49.2335 39.1156 49.2335 34.0889C49.2335 29.0622 45.0918 24.9733 40.0001 24.9733C34.9085 24.9733 30.7668 29.0631 30.7668 34.0889ZM47.1284 34.0889C47.1284 37.9698 43.9303 41.1262 40.0001 41.1262C36.0691 41.1262 32.8719 37.9689 32.8719 34.0889C32.8719 30.2089 36.07 27.0516 40.0001 27.0516C43.9312 27.0516 47.1284 30.2089 47.1284 34.0889Z" fill="#2776EA"/>
</g>
</svg>
