<svg width="70" height="60" viewBox="0 0 70 60" fill="none" xmlns="http://www.w3.org/2000/svg">
<path fill-rule="evenodd" clip-rule="evenodd" d="M38.163 53.0441H30.5563C28.8071 53.0441 27.3834 51.6203 27.3834 49.8712V49.0983C25.3088 48.2847 23.3563 47.2271 21.6885 45.7627L20.9969 46.1288C20.2647 46.6169 19.4105 46.6983 18.6376 46.4949C17.8241 46.2508 17.0919 45.7627 16.7258 45.0305L12.9427 38.4C12.0071 36.9356 12.5359 35.0237 14.041 34.1288L14.7325 33.722C14.5698 32.7051 14.4478 31.6475 14.4478 30.4271C14.4478 29.2475 14.5698 28.1898 14.7325 27.1322L14.041 26.7254C13.3088 26.3186 12.8207 25.6271 12.5766 24.8136C12.3732 23.9593 12.4546 23.1051 12.9427 22.4136L16.7258 15.8644C17.5393 14.3593 19.5325 13.8305 20.9969 14.6847L21.6885 15.0915C23.4376 13.6678 25.3088 12.6102 27.3834 11.7966V11.0237C27.3834 9.27457 28.8071 7.85085 30.5563 7.85085H38.163C39.9122 7.85085 41.3359 9.27457 41.3359 11.0237V11.7559C43.4105 12.5288 45.363 13.6271 47.0308 15.0102L47.7224 14.6441C49.2275 13.7898 51.0986 14.278 51.9936 15.8237L55.858 22.4136C56.2647 23.1458 56.3461 24 56.1427 24.8136C55.8986 25.5864 55.4105 26.278 54.6783 26.7254L54.0275 27.1322C54.2308 28.1898 54.3122 29.3288 54.3122 30.4271C54.3122 31.5661 54.2308 32.6644 54.0275 33.722L54.719 34.1288C56.1834 35.0237 56.7529 36.9356 55.8986 38.4L52.0749 45.0305C51.6275 45.7627 50.9359 46.2508 50.163 46.4949C49.3495 46.6983 48.4953 46.6169 47.763 46.1288L47.1122 45.7627C45.4037 47.1458 43.4919 48.2847 41.3766 49.0983V49.8305C41.2953 51.6203 39.8715 53.0441 38.163 53.0441ZM21.8105 43.6068C22.0139 43.6068 22.258 43.7288 22.4614 43.8508C24.2919 45.478 26.3664 46.6576 28.6851 47.4305C29.0919 47.5525 29.3766 47.9593 29.3766 48.4068V49.8712C29.3766 50.4814 29.8647 51.0508 30.5563 51.0508H38.163C38.8139 51.0508 39.3427 50.5627 39.3427 49.8712V48.4068C39.3427 47.9593 39.6275 47.6339 40.0342 47.4305C42.3936 46.6576 44.5088 45.478 46.258 43.8508C46.5834 43.5661 47.0308 43.4847 47.3969 43.7288L48.6986 44.461C48.9834 44.6237 49.2275 44.6644 49.5122 44.583C49.7969 44.5017 50.0817 44.2983 50.2444 44.0136L54.1088 37.4644C54.3936 36.8949 54.2308 36.1627 53.6614 35.7966L52.4003 35.0644C52.0749 34.861 51.8308 34.4542 51.9529 34.0068C52.1969 32.8678 52.2783 31.6475 52.2783 30.3864C52.2783 29.1661 52.1969 27.9051 51.9529 26.7661C51.9122 26.3593 52.0749 25.9119 52.4003 25.7085L53.6614 24.9763C53.9461 24.8136 54.1088 24.5695 54.2308 24.2847C54.2715 24 54.2715 23.6746 54.1088 23.3898L50.2444 16.8407C49.919 16.2712 49.2275 16.0271 48.6986 16.3932L47.3969 17.1254C46.9902 17.3288 46.5427 17.2881 46.258 17.0034C44.4275 15.3763 42.3529 14.1966 40.0342 13.4237C39.6275 13.3424 39.3427 12.9356 39.3427 12.4881V11.0237C39.3427 10.3729 38.8546 9.84407 38.163 9.84407H30.5563C29.9461 9.84407 29.3766 10.3322 29.3766 11.0237V12.4881C29.3766 12.9356 29.0919 13.261 28.6851 13.4237C26.3664 14.2373 24.2919 15.4169 22.4207 17.0441C22.0546 17.3288 21.6071 17.4102 21.2817 17.1661L20.0614 16.4339C19.4919 16.1085 18.7597 16.3119 18.3936 16.8814L14.6105 23.5119C14.4478 23.7966 14.4071 24.0814 14.4885 24.4068C14.5698 24.6915 14.7732 24.9763 15.0173 25.0983L16.319 25.8305C16.7258 26.0339 16.8885 26.4814 16.7664 26.8881C16.6037 28.0271 16.441 29.2068 16.441 30.5085C16.441 31.8102 16.5224 32.9898 16.8071 34.0475C16.9292 34.4949 16.7258 34.9017 16.3597 35.1458L15.058 35.878C14.5698 36.2034 14.3258 36.9356 14.6919 37.4644L18.4749 44.0542C18.6376 44.339 18.841 44.5017 19.2071 44.583C19.4919 44.6237 19.8173 44.6237 20.102 44.461L21.4037 43.7288C21.4444 43.6475 21.6071 43.6068 21.8105 43.6068Z" fill="#2776EA"/>
<path fill-rule="evenodd" clip-rule="evenodd" d="M34.3771 45.3152C26.2008 45.3152 19.5703 38.6441 19.5703 30.5085C19.5703 22.2915 26.2415 15.7017 34.3771 15.7017C42.5127 15.7017 49.1839 22.3729 49.1839 30.5085C49.1839 38.6847 42.5127 45.3152 34.3771 45.3152ZM34.3771 17.6949C27.2584 17.6949 21.5229 23.4305 21.5229 30.5085C21.5229 37.5458 27.2584 43.322 34.3364 43.322C41.3737 43.322 47.15 37.5458 47.15 30.5085C47.1907 23.4305 41.4551 17.6949 34.3771 17.6949Z" fill="#2776EA"/>
<path fill-rule="evenodd" clip-rule="evenodd" d="M40.6049 38.0339H28.1574C26.693 38.0339 25.4727 36.8136 25.4727 35.3085V25.7085C25.4727 24.1627 26.6523 22.983 28.1574 22.983H40.6049C42.0693 22.983 43.3303 24.2441 43.3303 25.7085V35.3085C43.2489 36.7729 42.0693 38.0339 40.6049 38.0339ZM28.1167 24.9763C27.7099 24.9763 27.3845 25.3017 27.3845 25.7085V35.3085C27.3845 35.7153 27.7099 36.0407 28.1167 36.0407H40.5642C40.9303 36.0407 41.2964 35.7153 41.2964 35.3085V25.7085C41.2964 25.3017 40.9303 24.9763 40.5642 24.9763H28.1167Z" fill="#2776EA"/>
<path fill-rule="evenodd" clip-rule="evenodd" d="M34.4989 31.6475C32.9938 31.6475 31.7734 30.3864 31.7734 28.922V23.9593C31.7734 23.3898 32.2209 22.9424 32.7904 22.9424C33.3599 22.9424 33.8073 23.3898 33.8073 23.9593V28.922C33.8073 29.3695 34.1734 29.6542 34.5395 29.6542C34.9463 29.6542 35.2717 29.3288 35.2717 28.922V23.9593C35.2717 23.3898 35.7599 22.9424 36.2887 22.9424C36.8582 22.9424 37.3056 23.3898 37.3056 23.9593V28.922C37.265 30.4271 36.0039 31.6475 34.4989 31.6475Z" fill="#2776EA"/>
<path fill-rule="evenodd" clip-rule="evenodd" d="M34.6672 60C18.1112 60 4.6875 46.4949 4.6875 29.939C4.6875 26.6034 5.25699 23.3085 6.31462 20.1763C6.47733 19.6475 7.04682 19.3627 7.57564 19.5254C8.06377 19.7288 8.34852 20.2576 8.1858 20.7864C7.16886 23.7966 6.64004 26.8475 6.64004 29.939C6.64004 45.3966 19.2502 57.9661 34.6672 57.9661C38.3282 57.9661 41.8672 57.2746 45.1621 55.9729C45.6909 55.7695 46.2604 56.0542 46.4638 56.5424C46.7078 57.0712 46.4231 57.6 45.935 57.8441C42.3553 59.2678 38.5722 60 34.6672 60ZM62.4095 39.5797C62.2875 39.5797 62.1655 39.5797 62.1248 39.539C61.6366 39.3763 61.3519 38.8068 61.5146 38.278C62.3688 35.5119 62.8163 32.7458 62.8163 29.939C62.8163 16.4339 53.2163 4.92203 39.9146 2.44068C38.2875 2.07458 36.579 1.91186 34.6672 1.91186C30.4366 1.91186 26.3689 2.80678 22.5858 4.67797C22.0977 4.92203 21.5282 4.67797 21.2841 4.23051C21.0807 3.74237 21.2841 3.17288 21.7316 2.92881C25.7994 0.976271 30.1519 0 34.6672 0C36.7011 0 38.5316 0.162712 40.2807 0.569492C54.4366 3.21356 64.7282 15.5797 64.7282 30.061C64.7282 33.0305 64.2807 36.0814 63.3044 39.0508C63.2638 39.2949 62.857 39.5797 62.4095 39.5797Z" fill="#2776EA"/>
<path fill-rule="evenodd" clip-rule="evenodd" d="M19.4086 9.43729C17.0899 9.43729 15.2188 7.56611 15.2188 5.24746C15.2188 2.92882 17.0899 1.05763 19.4086 1.05763C21.7272 1.05763 23.5984 2.92882 23.5984 5.24746C23.5577 7.56611 21.6865 9.43729 19.4086 9.43729ZM19.4086 3.05085C18.1882 3.05085 17.212 4.02712 17.212 5.24746C17.212 6.42712 18.2289 7.44407 19.4086 7.44407C20.5882 7.44407 21.6052 6.50848 21.6052 5.24746C21.5645 4.0678 20.5882 3.05085 19.4086 3.05085Z" fill="#2776EA"/>
<path fill-rule="evenodd" clip-rule="evenodd" d="M47.1473 57.3153C44.9913 57.3153 43.2422 55.5661 43.2422 53.4508C43.2422 51.2949 44.9913 49.5458 47.1473 49.5458C49.3032 49.5458 51.0524 51.2949 51.0524 53.4508C51.0524 55.5661 49.3032 57.3153 47.1473 57.3153ZM47.1473 51.4983C46.0896 51.4983 45.2354 52.3525 45.2354 53.4508C45.2354 54.5085 46.0896 55.3627 47.1473 55.3627C48.2049 55.3627 49.0591 54.5085 49.0591 53.4508C49.0591 52.3525 48.2049 51.4983 47.1473 51.4983Z" fill="#2776EA"/>
<path fill-rule="evenodd" clip-rule="evenodd" d="M62.403 39.5797C61.9962 39.5797 61.7115 39.417 61.5488 39.1322L57.8878 33.1119C57.603 32.6644 57.7657 32.0136 58.2132 31.7288C58.6606 31.4441 59.3115 31.6475 59.5962 32.0949L62.7284 37.261L67.9352 34.1288C68.3827 33.8441 68.9928 34.0068 69.2776 34.4542C69.5623 34.9017 69.3996 35.5119 68.9522 35.7966L62.8911 39.4983C62.8911 39.4983 62.8505 39.539 62.8098 39.539C62.6878 39.539 62.5657 39.5797 62.403 39.5797Z" fill="#2776EA"/>
<path fill-rule="evenodd" clip-rule="evenodd" d="M10.5408 27.7424C10.2154 27.7424 9.88997 27.5797 9.6459 27.2136L6.83912 21.8034L1.46963 24.6102C0.940813 24.8542 0.371321 24.6915 0.0865756 24.2441C-0.116814 23.7153 0.0458976 23.1458 0.493355 22.861L6.75776 19.6068C7.16454 19.3627 7.65268 19.4847 7.93742 19.8102C8.01878 19.8915 8.05946 19.9322 8.05946 20.0136L11.3544 26.278C11.5578 26.7661 11.3951 27.3356 10.9476 27.6203C10.8256 27.661 10.6628 27.7424 10.5408 27.7424Z" fill="#2776EA"/>
</svg>
