<svg width="63" height="60" viewBox="0 0 63 60" fill="none" xmlns="http://www.w3.org/2000/svg">
<path d="M4.41797 53.6938C4.41797 54.8415 5.3517 55.7753 6.49944 55.7753H14.0897C15.2374 55.7753 16.1713 54.8415 16.1713 53.6938V51.2646C16.1713 50.1169 15.2374 49.1831 14.0897 49.1831H6.49944C5.3517 49.1831 4.41797 50.1169 4.41797 51.2646V53.6938ZM5.88873 51.2646C5.88873 50.9278 6.16263 50.6539 6.49944 50.6539H14.0897C14.4265 50.6539 14.7005 50.9278 14.7005 51.2646V53.6938C14.7005 54.0306 14.4265 54.3045 14.0897 54.3045H6.49944C6.16263 54.3045 5.88873 54.0306 5.88873 53.6938V51.2646Z" fill="#2776EA"/>
<path d="M5.15335 45.8794H16.5624C16.9686 45.8794 17.2978 45.5502 17.2978 45.144C17.2978 44.7378 16.9686 44.4086 16.5624 44.4086H5.15335C4.74717 44.4086 4.41797 44.7378 4.41797 45.144C4.41797 45.5502 4.74716 45.8794 5.15335 45.8794Z" fill="#2776EA"/>
<path d="M22.4413 42.7798C22.8475 42.7798 23.1767 42.4506 23.1767 42.0445C23.1767 41.6383 22.8475 41.3091 22.4413 41.3091H19.1963C18.7901 41.3091 18.4609 41.6383 18.4609 42.0445C18.4609 42.4506 18.7901 42.7798 19.1963 42.7798H22.4413Z" fill="#2776EA"/>
<path d="M5.15335 42.7798H15.7362C16.1424 42.7798 16.4716 42.4506 16.4716 42.0445C16.4716 41.6383 16.1424 41.3091 15.7362 41.3091H5.15335C4.74717 41.3091 4.41797 41.6383 4.41797 42.0445C4.41797 42.4506 4.74716 42.7798 5.15335 42.7798Z" fill="#2776EA"/>
<path d="M27.5088 8.45345C27.915 8.45345 28.2442 8.12418 28.2442 7.71807V4.2342C28.2442 2.71043 29.4839 1.47076 31.0076 1.47076H48.1136C49.6374 1.47076 50.877 2.71043 50.877 4.2342V20.1633C50.877 20.5694 51.2062 20.8986 51.6124 20.8986C52.0186 20.8986 52.3478 20.5694 52.3478 20.1633V4.2342C52.3478 1.89943 50.4483 0 48.1136 0H31.0076C28.6729 0 26.7734 1.89943 26.7734 4.2342V7.71807C26.7734 8.12418 27.1026 8.45345 27.5088 8.45345Z" fill="#2776EA"/>
<path d="M32.1484 15.5462C32.1484 19.6343 35.4743 22.9601 39.5623 22.9601C43.6503 22.9601 46.9761 19.6343 46.9761 15.5462C46.9761 11.4582 43.6503 8.13237 39.5623 8.13237C35.4743 8.13237 32.1484 11.4582 32.1484 15.5462ZM45.5054 15.5462C45.5054 18.8233 42.8393 21.4893 39.5623 21.4893C36.2853 21.4893 33.6192 18.8233 33.6192 15.5462C33.6192 12.2692 36.2853 9.60313 39.5623 9.60313C42.8393 9.60313 45.5054 12.2692 45.5054 15.5462Z" fill="#2776EA"/>
<path d="M37.2045 15.3823C36.9176 15.0952 36.4516 15.0952 36.1647 15.3823C35.8774 15.6694 35.8774 16.1351 36.1647 16.4223L38.0051 18.2628C38.143 18.4007 38.33 18.4782 38.5251 18.4782C38.7201 18.4782 38.9071 18.4007 39.045 18.2628L42.9598 14.3481C43.247 14.0609 43.247 13.5952 42.9598 13.308C42.6728 13.0209 42.2069 13.0209 41.9199 13.308L38.5251 16.7028L37.2045 15.3823Z" fill="#2776EA"/>
<path d="M60.555 29.6116C59.516 28.5726 58.1347 28.0004 56.6654 28.0004H33.2742C32.868 28.0004 32.5388 28.3297 32.5388 28.7358C32.5388 29.1419 32.868 29.4711 33.2742 29.4711C35.4964 29.4711 37.3043 31.279 37.3043 33.5012C37.3043 34.5764 36.8849 35.5886 36.1239 36.3509C35.3731 37.1015 34.3782 37.5188 33.3182 37.5301C30.5163 37.5073 28.2439 35.2219 28.2439 32.4148V25.8601L32.0612 23.3939C32.2709 23.2585 32.3976 23.0259 32.3976 22.7762C32.3976 22.5266 32.2709 22.294 32.0612 22.1586L28.2439 19.6924V12.4204C28.2439 12.0143 27.9147 11.685 27.5085 11.685C27.1023 11.685 26.7731 12.0143 26.7731 12.4204V18.7423L24.9311 17.5522C24.705 17.406 24.417 17.3954 24.1804 17.5241C23.9439 17.6529 23.7967 17.9006 23.7967 18.1699V19.7424H11.0387C7.38918 19.7424 4.42022 22.7115 4.42022 26.3609V32.2813H3.68698C1.65405 32.2813 1.45873e-05 33.9353 1.45873e-05 35.9683V38.2666C1.45873e-05 38.6728 0.329216 39.002 0.735397 39.002C1.14158 39.002 1.47078 38.6728 1.47078 38.2666V35.9683C1.47078 34.7463 2.46499 33.752 3.68698 33.752H26.9098C27.5219 36.7088 30.1223 38.945 33.2452 38.9991C33.255 38.9994 33.2642 39.002 33.2742 39.002C33.2889 39.002 33.3035 39.001 33.3182 39.0009C33.3323 39.001 33.3462 39.002 33.3604 39.002C33.3698 39.002 33.3785 38.9996 33.3878 38.9992C34.8145 38.9704 36.1518 38.4029 37.1642 37.3905C37.8209 36.7329 38.2903 35.9388 38.5474 35.0731C38.6707 35.3521 38.7376 35.6562 38.7376 35.9683V46.1383H34.1249V43.9007C34.1249 43.6314 33.9777 43.3837 33.7411 43.2548C33.5046 43.1261 33.2166 43.1369 32.9905 43.283L25.8605 47.8893C25.6508 48.0249 25.5241 48.2574 25.5241 48.5071C25.5241 48.7567 25.6508 48.9892 25.8605 49.1248L32.9905 53.7311C33.1116 53.8093 33.2504 53.8488 33.3895 53.8488C33.5103 53.8488 33.6313 53.8191 33.7411 53.7593C33.9777 53.6305 34.1249 53.3827 34.1249 53.1134V51.5408H38.7376V56.313C38.7376 57.535 37.7434 58.5292 36.5214 58.5292H31.6622H3.68697C2.46497 58.5292 1.47076 57.535 1.47076 56.313V43.4813C1.47076 43.0752 1.14156 42.746 0.735382 42.746C0.329201 42.746 0 43.0752 0 43.4813V56.313C0 58.346 1.65404 60 3.68697 60H31.6622H36.5213H50.1857C50.5918 60 50.921 59.6708 50.921 59.2646C50.921 58.8584 50.5918 58.5292 50.1857 58.5292H39.4657C39.9316 57.9119 40.2083 57.1442 40.2083 56.313V51.5408H46.883C50.5325 51.5408 53.5015 48.5718 53.5015 44.9224V39.002H56.6653C59.6985 39.002 62.1662 36.5344 62.1662 33.5012C62.1662 32.0319 61.594 30.6506 60.555 29.6116ZM26.7731 32.2812H10.0592V27.3008C10.0592 26.112 11.0263 25.145 12.215 25.145H23.7966V27.3826C23.7966 27.6519 23.9439 27.8996 24.1804 28.0284C24.2903 28.0882 24.4112 28.1179 24.532 28.1179C24.6712 28.1179 24.8099 28.0785 24.931 28.0002L26.7731 26.8102V32.2812ZM5.89097 26.3609C5.89097 23.5225 8.20024 21.2132 11.0386 21.2132H24.532C24.9382 21.2132 25.2674 20.8839 25.2674 20.4778V19.5204L30.3071 22.7762L25.2674 26.032V24.4096C25.2674 24.0035 24.9382 23.6742 24.532 23.6742H12.215C10.2154 23.6742 8.58847 25.3011 8.58847 27.3008V32.2813H5.89097V26.3609ZM52.0307 44.9224C52.0307 47.7608 49.7215 50.07 46.8831 50.07H33.3895C32.9833 50.07 32.6541 50.3992 32.6541 50.8054V51.7629L27.6146 48.5071L32.6541 45.2513V46.8737C32.6541 47.2799 32.9833 47.6091 33.3895 47.6091H46.4365C48.0338 47.6091 49.3332 46.3097 49.3332 44.7124V39.0019H52.0307L52.0307 44.9224ZM56.6654 37.5312H44.7895C44.3833 37.5312 44.0541 37.8604 44.0541 38.2666C44.0541 38.6728 44.3833 39.002 44.7895 39.002H47.8625V44.7124C47.8625 45.4986 47.2227 46.1383 46.4365 46.1383H40.2083V35.9682C40.2083 34.9002 39.7457 33.8856 38.9391 33.1845C38.8831 33.1359 38.8208 33.1007 38.7565 33.0718C38.6464 31.6541 37.9983 30.385 37.0144 29.4712H56.6654C57.7417 29.4712 58.7537 29.8904 59.515 30.6517C60.2762 31.4129 60.6955 32.4249 60.6955 33.5013C60.6954 35.7233 58.8876 37.5312 56.6654 37.5312Z" fill="#2776EA"/>
</svg>
