<svg width="74" height="61" viewBox="0 0 74 61" fill="none" xmlns="http://www.w3.org/2000/svg">
<path fill-rule="evenodd" clip-rule="evenodd" d="M36.5284 34.7779C36.0573 34.7779 35.6719 34.3925 35.6719 33.9214V20.0028C35.6719 18.8893 37.3849 18.8893 37.3849 20.0028V33.9214C37.3849 34.3925 36.9995 34.7779 36.5284 34.7779Z" fill="#2776EA"/>
<path fill-rule="evenodd" clip-rule="evenodd" d="M40.1308 27.0692C39.831 27.0692 39.5312 26.9407 39.4027 26.6409L36.5333 21.7158L33.7068 26.6409C33.15 27.6259 31.6511 26.7694 32.2079 25.7844L35.8053 19.5745C36.1479 19.0178 36.9616 19.0178 37.3042 19.5745L40.8588 25.7844C41.2014 26.3839 40.7732 27.0692 40.1308 27.0692Z" fill="#2776EA"/>
<path fill-rule="evenodd" clip-rule="evenodd" d="M39.8265 36.6623C38.9699 36.6623 38.6273 35.506 39.3982 35.0777L51.4325 28.1398C52.4175 27.5403 53.274 29.0392 52.289 29.5959C50.9185 30.4096 40.3832 36.6623 39.8265 36.6623Z" fill="#2776EA"/>
<path fill-rule="evenodd" clip-rule="evenodd" d="M48.2656 35.9343C47.6232 35.9343 47.1949 35.2062 47.5375 34.6495L50.3641 29.7244H44.711C43.5547 29.7244 43.5547 28.0113 44.711 28.0113H51.863C52.5054 28.0113 52.9337 28.7394 52.5911 29.2961L49.0365 35.506C48.8652 35.763 48.5654 35.9343 48.2656 35.9343Z" fill="#2776EA"/>
<path fill-rule="evenodd" clip-rule="evenodd" d="M51.8636 47.4118C51.3068 47.4118 40.7715 41.1591 39.4011 40.3454C38.416 39.7886 39.2726 38.2897 40.2576 38.8465L52.2918 45.8272C53.0627 46.2554 52.7201 47.4118 51.8636 47.4118Z" fill="#2776EA"/>
<path fill-rule="evenodd" clip-rule="evenodd" d="M51.863 47.4118H44.711C43.5547 47.4118 43.5547 45.6987 44.711 45.6987H50.3641L47.5375 40.7737C46.9808 39.7886 48.4369 38.9321 49.0365 39.9171L52.5911 46.127C52.9337 46.6837 52.5054 47.4118 51.863 47.4118Z" fill="#2776EA"/>
<path fill-rule="evenodd" clip-rule="evenodd" d="M36.5284 56.234C36.0573 56.234 35.6719 55.8486 35.6719 55.3775V41.5017C35.6719 40.3454 37.3849 40.3454 37.3849 41.5017V55.3775C37.3849 55.8486 36.9995 56.234 36.5284 56.234Z" fill="#2776EA"/>
<path fill-rule="evenodd" clip-rule="evenodd" d="M36.5333 56.234C36.2336 56.234 35.9766 56.0627 35.8053 55.8058L32.2079 49.5959C31.6511 48.6537 33.15 47.7972 33.7068 48.7394L36.5333 53.6644L39.4027 48.7394C39.9595 47.7972 41.4156 48.6537 40.8588 49.5959L37.3042 55.8058C37.1329 56.0627 36.8331 56.234 36.5333 56.234Z" fill="#2776EA"/>
<path fill-rule="evenodd" clip-rule="evenodd" d="M21.2407 47.4118C20.3414 47.4118 20.0416 46.2554 20.8125 45.7844L32.8467 38.8465C33.8317 38.2897 34.6883 39.7886 33.7033 40.3454C32.29 41.1163 21.7975 47.4118 21.2407 47.4118Z" fill="#2776EA"/>
<path fill-rule="evenodd" clip-rule="evenodd" d="M21.2409 47.4118C20.5557 47.4118 20.1702 46.6837 20.47 46.127L24.0674 39.9171C24.6242 38.9321 26.1231 39.7886 25.5664 40.7737L22.697 45.6987H28.3929C29.5064 45.6987 29.5064 47.4118 28.3929 47.4118H21.2409Z" fill="#2776EA"/>
<path fill-rule="evenodd" clip-rule="evenodd" d="M33.2737 36.6623C32.717 36.6623 22.1817 30.4096 20.8112 29.5959C19.8262 29.0392 20.6827 27.5403 21.6677 28.1398L33.702 35.0777C34.4301 35.506 34.1303 36.6623 33.2737 36.6623Z" fill="#2776EA"/>
<path fill-rule="evenodd" clip-rule="evenodd" d="M24.7955 35.9343C24.4957 35.9343 24.2388 35.763 24.0674 35.506L20.47 29.2961C20.1702 28.7394 20.5557 28.0113 21.2409 28.0113H28.3929C29.5064 28.0113 29.5064 29.7244 28.3929 29.7244H22.697L25.5664 34.6495C25.8662 35.2062 25.4807 35.9343 24.7955 35.9343Z" fill="#2776EA"/>
<path fill-rule="evenodd" clip-rule="evenodd" d="M36.5315 42.3582C34.0048 42.3582 31.9062 40.2597 31.9062 37.6901C31.9062 35.1634 34.0048 33.0649 36.5315 33.0649C39.1011 33.0649 41.1996 35.1634 41.1996 37.6901C41.1996 40.2597 39.1011 42.3582 36.5315 42.3582ZM36.5315 34.7779C32.6771 34.7779 32.6771 40.6452 36.5315 40.6452C40.3859 40.6452 40.3859 34.7779 36.5315 34.7779Z" fill="#2776EA"/>
<path fill-rule="evenodd" clip-rule="evenodd" d="M67.0235 60.688H6.08137C2.7409 60.688 0 57.9471 0 54.6066V6.72655C0 3.38608 2.7409 0.688004 6.08137 0.688004H67.0235C70.364 0.688004 73.1049 3.38608 73.1049 6.72655V54.6066C73.1049 57.9471 70.364 60.688 67.0235 60.688ZM6.08137 2.40107C3.68308 2.40107 1.71306 4.32826 1.71306 6.72655V54.6066C1.71306 57.0049 3.68308 58.9749 6.08137 58.9749H67.0235C69.4218 58.9749 71.3919 57.0049 71.3919 54.6066V6.72655C71.3919 4.32826 69.4218 2.40107 67.0235 2.40107H6.08137Z" fill="#2776EA"/>
<path fill-rule="evenodd" clip-rule="evenodd" d="M72.2504 16.4482H0.858555C-0.254935 16.4482 -0.254935 14.7351 0.858555 14.7351H72.2504C73.3639 14.7351 73.3639 16.4482 72.2504 16.4482Z" fill="#2776EA"/>
<path fill-rule="evenodd" clip-rule="evenodd" d="M8.90865 12.551C6.7245 12.551 4.92578 10.7522 4.92578 8.56809C4.92578 6.38394 6.7245 4.58522 8.90865 4.58522C11.0928 4.58522 12.8915 6.38394 12.8915 8.56809C12.8915 10.7522 11.0928 12.551 8.90865 12.551ZM8.90865 6.29828C5.95362 6.29828 5.95362 10.8379 8.90865 10.8379C11.8637 10.8379 11.8637 6.29828 8.90865 6.29828Z" fill="#2776EA"/>
<path fill-rule="evenodd" clip-rule="evenodd" d="M19.4008 12.551C17.1739 12.551 15.418 10.7522 15.418 8.56809C15.418 6.38394 17.1739 4.58522 19.4008 4.58522C21.585 4.58522 23.3409 6.38394 23.3409 8.56809C23.3409 10.7522 21.585 12.551 19.4008 12.551ZM19.4008 6.29828C16.403 6.29828 16.403 10.8379 19.4008 10.8379C22.3559 10.8379 22.3559 6.29828 19.4008 6.29828Z" fill="#2776EA"/>
<path fill-rule="evenodd" clip-rule="evenodd" d="M29.8463 12.551C27.6621 12.551 25.9062 10.7522 25.9062 8.56809C25.9062 6.38394 27.6621 4.58522 29.8463 4.58522C32.0304 4.58522 33.8292 6.38394 33.8292 8.56809C33.8292 10.7522 32.0304 12.551 29.8463 12.551ZM29.8463 6.29828C26.8913 6.29828 26.8913 10.8379 29.8463 10.8379C32.8442 10.8379 32.8442 6.29828 29.8463 6.29828Z" fill="#2776EA"/>
<path fill-rule="evenodd" clip-rule="evenodd" d="M44.5827 16.4482C44.1116 16.4482 43.7262 16.0627 43.7262 15.5916V1.54453C43.7262 0.431039 45.4392 0.431039 45.4392 1.54453V15.5916C45.4392 16.0627 45.0538 16.4482 44.5827 16.4482ZM38.587 16.4482C38.1159 16.4482 37.7305 16.0627 37.7305 15.5916V1.54453C37.7305 0.431039 39.4435 0.431039 39.4435 1.54453V15.5916C39.4435 16.0627 39.0581 16.4482 38.587 16.4482Z" fill="#2776EA"/>
<path fill-rule="evenodd" clip-rule="evenodd" d="M67.3677 11.7373H49.5518C49.0808 11.7373 48.6953 11.3518 48.6953 10.8807V6.25546C48.6953 5.78436 49.0808 5.39893 49.5518 5.39893H67.3677C67.8388 5.39893 68.2242 5.78436 68.2242 6.25546V10.8807C68.2242 11.3518 67.8388 11.7373 67.3677 11.7373ZM50.4084 10.0242H66.5112V7.11199H50.4084V10.0242Z" fill="#2776EA"/>
</svg>
