<svg width="101" height="101" viewBox="0 0 101 101" fill="none" xmlns="http://www.w3.org/2000/svg">
<rect x="0.75" y="0.75" width="99.397" height="99.397" rx="49.6985" fill="white" stroke="#0274BA" stroke-width="1.5"/>
<path d="M80.5095 59.644C80.2884 59.6408 80.0672 59.6366 79.8459 59.6324C79.4035 59.6241 78.9608 59.6157 78.5179 59.6157H78.4948H78.4718H78.4487H78.4257H78.4026H78.3795H78.3565H78.3334H78.3103H78.2873H78.2642H78.2412H78.2181H78.195H78.172H78.1489H78.1259H78.1028H78.0797H78.0567H78.0336H78.0106H77.9875H77.9644H77.9414H77.9183H77.8952H77.8722H77.8491H77.8261H77.803H77.7799H77.7569H77.7338H77.7108H77.6877H77.6646H77.6416H77.6185H77.5955H77.5724H77.5493H77.5263H77.5032H77.4801H77.4571H77.434H77.411H77.3879H77.3648H77.3418H77.3187H77.2957H77.2726H77.2495H77.2265H77.2034H77.1804H77.1573H77.1342H77.1112H77.0881H77.065H77.042H77.0189H76.9959H76.9728H76.9497H76.9267H76.9036H76.8806H76.8575H76.8344H76.8114H76.7883H76.7653H76.7422H76.7191H76.6961H76.673H76.6499H76.6269H76.6038H76.5808H76.5577H76.5346H76.5116H76.4885H76.4655H76.4424H76.4193H76.3963H76.3732H76.3502H76.3271H76.304H76.281H76.2579H76.2349H76.2118H76.1887H76.1657H76.1426H76.1195H76.0965H76.0734H76.0504H76.0273H76.0042H75.9812H75.9581H75.9351H75.912H75.8889H75.8659H75.8428H75.8198H75.7967H75.7736H75.7506H75.7275H75.7044H75.6814H75.6583H75.6353H75.6122H75.5891H75.5661H75.543H75.52H75.4969H75.4738H75.4508H75.4277H75.4047H75.3816H75.3585H75.3355H75.3124H75.2893H75.2663H75.2432H75.2202H75.1971H75.174H75.151H75.1279H75.1049H75.0818H75.0587H75.0357H75.0126H74.9896H74.9665H74.9434H74.9204H74.8973H74.8742H74.8512H74.8281H74.8051H74.782H74.7589H74.7359H74.7128H74.6898H74.6667H74.6436H74.6206H74.5975H74.5745H74.5514H74.5283H74.5053H74.4822H74.4591H74.4361H74.413H74.39H74.3669H74.3438H74.3208H74.2977H74.2747H74.2516H74.2285H74.2055H74.1824H74.1594H74.1363H74.1132H74.0902H74.0671H74.044H74.021H73.9979H73.9749H73.9518H73.9287H73.9057H73.8826H73.8596H73.8365H73.8134H73.7904H73.7673H73.7443H73.7212H73.6981H73.6751H73.652H73.6289H73.6059H73.5828H73.5598H73.5367H73.5136H73.4906H73.4675H73.4445H73.4214H73.3983H73.3753H73.3522H73.3292H73.3061H73.283H73.26H73.2369H73.2138H73.1908H73.1677H73.1447H73.1216H73.0985H73.0755H73.0524H73.0294H73.0063H72.9832H72.9602H72.9371H72.9141H72.891H72.8679H72.8449H72.8218H72.7987H72.7757H72.7526H72.7296H72.7065H72.6834H72.6604H72.6373H72.6143H72.5912H72.5681H72.5451H72.522H72.499H72.4759H72.4528H72.4298H72.4067H72.3836H72.3606H72.3375H72.3145H72.2914H72.2683H72.2453H72.2222H72.1992H72.1761H72.153H72.13H72.1069H72.0839H72.0608H72.0377H72.0147H71.9916H71.9685H71.9455H71.9224H71.8994H71.8763H71.8532H71.8302H71.8071H71.7841H71.761H71.7379H71.7149H71.6918H71.6688H71.6457H71.6226H71.5996H71.5765H71.5534H71.5304H71.5073H71.4843H71.4612H71.4381H71.4151H71.392H71.369H71.3459H71.3228H71.2998H71.2767H71.2537H71.2306H71.2075H71.1845H71.1614H71.1383H71.1153H71.0922H71.0692H71.0461H71.023H71H70.9769H70.9539H70.9308H70.9077H70.8847H70.8616H70.8386H70.8155H70.7924H70.7694H70.7463H70.7232H70.7002H70.6771H70.6541H70.631H70.6079H70.5849H70.5618H70.5388H70.5157H70.4926H70.4696H70.4465H70.4235H70.4004H70.3773H70.3543H70.3312H70.3081H70.2851H70.262H70.239H70.2159H70.1928H70.1698H70.1467H70.1237H70.1006H70.0775H70.0545H70.0314H70.0084H69.9853H69.9622H69.9392H69.9161H69.893H69.87H69.8469H69.8239H69.8008H69.7777H69.7547H69.7316H69.7086H69.6855H69.6624H69.6394H69.6163H69.5933H69.5702H69.5471H69.5241H69.501H69.478H69.4549H69.4318H69.4088H69.3857H69.3626H69.3396H69.3165H69.2935H69.2704H69.2473H69.2243H69.2012H69.1782H69.1551H69.132H69.109H69.0859H69.0629H69.0398H69.0167H68.9937H68.9706H68.9475H68.9245H68.9014H68.8784H68.8553H68.8322H68.8092H68.7861H68.7631H68.74H68.7169H68.6939H68.6708H68.6478H68.6247H68.6016H68.5786H68.5555H68.5324H68.5094H68.4863H68.4633H68.4402H68.4171H68.3941H68.371H68.348H68.3249H68.3018H68.2788H68.2557H68.2327H68.2096H68.1865H68.1635H68.1404H68.1173H68.0943H68.0712H68.0482H68.0251H68.002H67.979H67.9559H67.9329H67.9098H67.8867H67.8637H67.8406H67.8176H67.7945H67.7714H67.7484H67.7253H67.7022H67.6792H67.6561H67.6331H67.61H67.5869H67.5639H67.5408H67.5178H67.4947H67.4716H67.4486H67.4255H67.4025H67.3794H67.3563H67.3333H67.3102H67.2871H67.2641H67.241H67.218H67.1949H67.1718H67.1488H67.1257H67.1027H67.0796H67.0565H67.0335H67.0104H66.9874H66.9643H66.9412H66.9182H66.8951H66.872H66.849H66.8259H66.8029H66.7798H66.7567H66.7337H66.7106H65.9688H65.9162L65.9188 59.6681C65.9292 59.8774 65.9447 60.081 65.9598 60.2804C65.9928 60.7136 66.0242 61.1277 65.999 61.5402L65.999 61.5403C65.9873 61.7352 65.978 61.9311 65.9688 62.1271C65.9297 62.9541 65.8906 63.7835 65.6656 64.5502C64.8709 67.2426 62.5761 68.9415 59.7013 68.9627C53.6182 69.0039 47.5443 69.0191 41.4659 68.9627C39.5953 68.9445 38.0192 68.236 36.9086 67.0514C35.7979 65.8666 35.1504 64.2028 35.143 62.2699C35.143 62.2699 35.143 62.2698 35.143 62.2697L80.5095 59.644ZM80.5095 59.644V57.6603C80.4666 57.5528 80.4323 57.442 80.4068 57.3288L80.4059 57.3246L80.4061 57.3246C79.8571 53.2856 77.8817 50.2266 74.4784 48.1432L74.4783 48.1432C74.0568 47.8842 73.6104 47.6701 73.1579 47.4531C72.9486 47.3527 72.738 47.2517 72.5279 47.1453L72.459 47.1104L72.519 47.0618C76.2081 44.0775 75.9191 39.2689 73.5075 36.6119C71.0492 33.9037 66.8313 33.6408 64.1283 36.072C62.7559 37.3066 61.9418 38.8581 61.7945 40.7222C61.5882 43.3413 62.5851 45.4474 64.5016 46.9916L64.5571 47.0363L64.4961 47.0732L60.4783 49.5081L60.4474 49.5268L60.4199 49.5034C58.8368 48.1541 57.0118 47.1378 55.0484 46.5118L54.9508 46.4807L55.0354 46.4229C59.9355 43.073 60.2182 36.8104 57.1202 33.0947C53.9127 29.2542 48.2874 28.906 44.7301 32.3263L44.7301 32.3263C42.9236 34.062 41.9695 36.2153 41.9695 38.749C41.9695 42.0134 43.3966 44.5403 46.1024 46.4246L46.1853 46.4824L46.0892 46.5133C44.1453 47.1383 42.3351 48.1392 40.7557 49.4624L40.7285 49.4853L40.6979 49.467L36.7187 47.0825L36.656 47.045L36.7136 47.0002C38.2745 45.7855 39.2508 44.1157 39.4379 42.0281L39.4857 42.0324L39.4379 42.0281C39.628 39.9128 38.9875 38.0584 37.5552 36.5225L80.5095 59.644ZM65.3168 57.0995C65.3846 57.3374 65.4705 57.5028 65.6082 57.6068C65.7459 57.7107 65.9265 57.7464 66.1676 57.7464L66.1679 57.7464C69.193 57.73 72.2164 57.7316 75.2429 57.7332C76.1512 57.7337 77.0599 57.7342 77.9689 57.7342H78.5402H78.5929L78.5901 57.6815C78.4304 54.6882 76.3895 50.7937 72.4405 49.1626C70.5507 48.3817 68.7334 48.1576 66.9807 48.453C65.2283 48.7483 63.5437 49.5625 61.9183 50.8535L61.8061 50.9426H61.9281C62.0191 51.0588 62.1032 51.1671 62.1827 51.2695C62.3293 51.4584 62.4606 51.6277 62.5929 51.791C63.8365 53.3554 64.7627 55.1604 65.3168 57.0995ZM65.3168 57.0995L65.3649 57.0858L65.3168 57.0995C65.3168 57.0995 65.3168 57.0995 65.3168 57.0995ZM54.3074 44.6296C53.1891 45.3994 51.8738 45.8104 50.528 45.8104L54.3074 44.6296ZM54.3074 44.6296C55.4257 43.8599 56.2966 42.7661 56.8099 41.487M54.3074 44.6296L56.8099 41.487M56.8099 41.487C57.3233 40.2079 57.4561 38.8009 57.1915 37.4442M56.8099 41.487L57.1915 37.4442M57.1915 37.4442C56.9269 36.0875 56.2769 34.8419 55.3235 33.8653M57.1915 37.4442L55.3235 33.8653M55.3235 33.8653C54.3701 32.8887 53.1563 32.2251 51.8357 31.9587M55.3235 33.8653L51.8357 31.9587M51.8357 31.9587C50.5151 31.6923 49.1473 31.8352 47.9058 32.3693M51.8357 31.9587L47.9058 32.3693M47.9058 32.3693C46.6643 32.9033 45.605 33.8044 44.862 34.9581M47.9058 32.3693L44.862 34.9581M44.862 34.9581C44.119 36.1118 43.7256 37.4663 43.7315 38.85M44.862 34.9581L43.7315 38.85M43.7315 38.85C43.7367 40.6992 44.455 42.4711 45.7292 43.7762M43.7315 38.85L45.7292 43.7762M45.7292 43.7762C47.0034 45.0815 48.7293 45.8132 50.5279 45.8104L45.7292 43.7762ZM51.5902 67.1148H51.5904C52.448 67.1116 53.3059 67.1132 54.1638 67.1149C56.15 67.1186 58.1367 67.1224 60.1215 67.0659C62.1957 67.0087 63.9649 65.1695 64.1313 63.0585C64.4201 59.383 63.4826 56.0681 61.3191 53.1163L61.3191 53.1162C57.8761 48.4339 51.4609 46.4166 46.1183 48.463C40.9541 50.4404 37.9038 54.2858 37.0673 59.8978C36.8748 61.129 36.8843 62.3847 37.0957 63.6126L37.0958 63.6133C37.5015 65.793 39.3102 67.0979 41.5958 67.1102C43.6945 67.122 45.7926 67.1195 47.8897 67.1169C48.7728 67.1159 49.6556 67.1148 50.5383 67.1148H50.5404H50.5424H50.5445H50.5465H50.5486H50.5507H50.5527H50.5548H50.5568H50.5589H50.561H50.563H50.5651H50.5671H50.5692H50.5713H50.5733H50.5754H50.5774H50.5795H50.5816H50.5836H50.5857H50.5877H50.5898H50.5919H50.5939H50.596H50.598H50.6001H50.6022H50.6042H50.6063H50.6083H50.6104H50.6125H50.6145H50.6166H50.6186H50.6207H50.6227H50.6248H50.6269H50.6289H50.631H50.633H50.6351H50.6372H50.6392H50.6413H50.6433H50.6454H50.6475H50.6495H50.6516H50.6536H50.6557H50.6577H50.6598H50.6619H50.6639H50.666H50.668H50.6701H50.6722H50.6742H50.6763H50.6783H50.6804H50.6824H50.6845H50.6866H50.6886H50.6907H50.6927H50.6948H50.6969H50.6989H50.701H50.703H50.7051H50.7071H50.7092H50.7113H50.7133H50.7154H50.7174H50.7195H50.7215H50.7236H50.7257H50.7277H50.7298H50.7318H50.7339H50.736H50.738H50.7401H50.7421H50.7442H50.7462H50.7483H50.7504H50.7524H50.7545H50.7565H50.7586H50.7606H50.7627H50.7648H50.7668H50.7689H50.7709H50.773H50.775H50.7771H50.7792H50.7812H50.7833H50.7853H50.7874H50.7894H50.7915H50.7935H50.7956H50.7977H50.7997H50.8018H50.8038H50.8059H50.8079H50.81H50.8121H50.8141H50.8162H50.8182H50.8203H50.8223H50.8244H50.8265H50.8285H50.8306H50.8326H50.8347H50.8367H50.8388H50.8408H50.8429H50.845H50.847H50.8491H50.8511H50.8532H50.8552H50.8573H50.8593H50.8614H50.8635H50.8655H50.8676H50.8696H50.8717H50.8737H50.8758H50.8778H50.8799H50.882H50.884H50.8861H50.8881H50.8902H50.8922H50.8943H50.8963H50.8984H50.9005H50.9025H50.9046H50.9066H50.9087H50.9107H50.9128H50.9148H50.9169H50.919H50.921H50.9231H50.9251H50.9272H50.9292H50.9313H50.9333H50.9354H50.9375H50.9395H50.9416H50.9436H50.9457H50.9477H50.9498H50.9518H50.9539H50.9559H50.958H50.9601H50.9621H50.9642H50.9662H50.9683H50.9703H50.9724H50.9744H50.9765H50.9785H50.9806H50.9827H50.9847H50.9868H50.9888H50.9909H50.9929H50.995H50.997H50.9991H51.0012H51.0032H51.0053H51.0073H51.0094H51.0114H51.0135H51.0155H51.0176H51.0196H51.0217H51.0237H51.0258H51.0279H51.0299H51.032H51.034H51.0361H51.0381H51.0402H51.0422H51.0443H51.0463H51.0484H51.0505H51.0525H51.0546H51.0566H51.0587H51.0607H51.0628H51.0648H51.0669H51.0689H51.071H51.073H51.0751H51.0772H51.0792H51.0813H51.0833H51.0854H51.0874H51.0895H51.0915H51.0936H51.0956H51.0977H51.0997H51.1018H51.1038H51.1059H51.108H51.11H51.1121H51.1141H51.1162H51.1182H51.1203H51.1223H51.1244H51.1264H51.1285H51.1305H51.1326H51.1346H51.1367H51.1388H51.1408H51.1429H51.1449H51.147H51.149H51.1511H51.1531H51.1552H51.1572H51.1593H51.1613H51.1634H51.1654H51.1675H51.1696H51.1716H51.1737H51.1757H51.1778H51.1798H51.1819H51.1839H51.186H51.188H51.1901H51.1921H51.1942H51.1962H51.1983H51.2003H51.2024H51.2045H51.2065H51.2086H51.2106H51.2127H51.2147H51.2168H51.2188H51.2209H51.2229H51.225H51.227H51.2291H51.2311H51.2332H51.2352H51.2373H51.2394H51.2414H51.2435H51.2455H51.2476H51.2496H51.2517H51.2537H51.2558H51.2578H51.2599H51.2619H51.264H51.266H51.2681H51.2701H51.2722H51.2742H51.2763H51.2783H51.2804H51.2825H51.2845H51.2866H51.2886H51.2907H51.2927H51.2948H51.2968H51.2989H51.3009H51.303H51.305H51.3071H51.3091H51.3112H51.3132H51.3153H51.3173H51.3194H51.3214H51.3235H51.3256H51.3276H51.3297H51.3317H51.3338H51.3358H51.3379H51.3399H51.342H51.344H51.3461H51.3481H51.3502H51.3522H51.3543H51.3563H51.3584H51.3604H51.3625H51.3645H51.3666H51.3686H51.3707H51.3728H51.3748H51.3769H51.3789H51.381H51.383H51.3851H51.3871H51.3892H51.3912H51.3933H51.3953H51.3974H51.3994H51.4015H51.4035H51.4056H51.4076H51.4097H51.4117H51.4138H51.4158H51.4179H51.4199H51.422H51.4241H51.4261H51.4282H51.4302H51.4323H51.4343H51.4364H51.4384H51.4405H51.4425H51.4446H51.4466H51.4487H51.4507H51.4528H51.4548H51.4569H51.4589H51.461H51.463H51.4651H51.4671H51.4692H51.4712H51.4733H51.4753H51.4774H51.4795H51.4815H51.4836H51.4856H51.4877H51.4897H51.4918H51.4938H51.4959H51.4979H51.5H51.502H51.5041H51.5061H51.5082H51.5102H51.5123H51.5143H51.5164H51.5184H51.5205H51.5225H51.5246H51.5266H51.5287H51.5307H51.5328H51.5348H51.5369H51.5389H51.541H51.5431H51.5451H51.5472H51.5492H51.5513H51.5533H51.5554H51.5574H51.5595H51.5615H51.5636H51.5656H51.5677H51.5697H51.5718H51.5738H51.5759H51.5779H51.58H51.582H51.5841H51.5861H51.5882H51.5902ZM39.1172 50.8648H39.2258L39.126 50.7772C37.624 49.4593 35.7747 48.6308 33.8134 48.3972C31.8521 48.1636 29.8677 48.5354 28.1125 49.4654L28.1124 49.4655C24.9102 51.1711 23.0928 53.915 22.573 57.6315L22.5658 57.6825L22.6171 57.6881C22.6875 57.6958 22.7443 57.7035 22.7936 57.7102C22.8072 57.712 22.8202 57.7138 22.8327 57.7155C22.8906 57.7231 22.9398 57.7288 22.9896 57.7296H22.9905H22.9965C27.0435 57.7296 31.092 57.7296 35.1389 57.7373H35.139C35.3139 57.7373 35.4389 57.7023 35.5351 57.6187C35.6291 57.537 35.6886 57.4145 35.7467 57.2573L35.7469 57.2568C35.8108 57.0777 35.8736 56.8978 35.9364 56.7179C36.2286 55.8802 36.5211 55.0419 36.9307 54.2764C37.3746 53.4589 37.8951 52.688 38.4252 51.9029C38.6559 51.5612 38.8884 51.2168 39.1172 50.8648ZM68.6724 46.4805L68.6725 46.4805C71.5207 46.3726 73.7012 43.9021 73.5099 41.16C73.4914 40.4831 73.3423 39.8167 73.0712 39.1996C72.7999 38.5821 72.412 38.0261 71.9298 37.5642C71.4477 37.1023 70.881 36.7435 70.2626 36.509C69.6443 36.2744 68.9867 36.1687 68.3283 36.1981C67.6698 36.2274 67.0236 36.3912 66.4273 36.68C65.8311 36.9687 65.2967 37.3765 64.8552 37.8795C64.4137 38.3826 64.074 38.9709 63.8557 39.6102C63.6374 40.2495 63.5449 40.9271 63.5835 41.6034C63.7482 44.6146 66.0795 46.5731 68.6724 46.4805ZM37.6129 41.0927C37.5429 39.7454 36.9575 38.4809 35.984 37.5756C35.0086 36.6686 33.7231 36.1963 32.4094 36.2626C31.0956 36.329 29.8614 36.9286 28.9771 37.9295C28.0929 38.9303 27.6306 40.2507 27.6913 41.6013L27.6913 41.6018C27.862 44.6714 30.2963 46.6272 32.8408 46.4728L32.8409 46.4728C35.7421 46.291 37.8411 43.8416 37.6132 41.0927L37.6129 41.0927Z" fill="#0274BA" stroke="white" stroke-width="0.1"/>
</svg>
