<svg width="66" height="66" viewBox="0 0 66 66" fill="none" xmlns="http://www.w3.org/2000/svg">
<path d="M40.0976 39.094H33.767V39.7902C33.767 45.1945 33.767 50.5988 33.767 56.0031C33.767 56.5009 33.8965 56.7375 34.3788 56.932C35.3371 57.3119 36.1335 58.0222 36.6286 58.9385C37.1237 59.8549 37.286 60.919 37.0871 61.9447C36.8934 62.98 36.3507 63.9144 35.5523 64.587C34.754 65.2596 33.7499 65.6284 32.7129 65.63C31.6759 65.6316 30.6708 65.2658 29.8704 64.5956C29.0701 63.9255 28.5246 62.9928 28.3279 61.958C28.1305 60.9321 28.2908 59.8683 28.7813 58.9494C29.2717 58.0305 30.0617 57.3138 31.0155 56.9225C31.3665 56.7756 31.6555 56.686 31.6518 56.1595C31.6292 50.6128 31.6386 45.0661 31.6367 39.5212C31.6367 39.4049 31.6217 39.2905 31.6105 39.1264H25.2986V39.9085C25.2986 43.4314 25.2874 46.9544 25.308 50.4774C25.3207 50.7842 25.2669 51.0902 25.1505 51.3736C25.0341 51.6571 24.8578 51.9111 24.6342 52.1177C23.403 53.3213 22.2168 54.5745 20.9969 55.7914C20.7285 56.0546 20.6478 56.2606 20.8355 56.6421C21.1627 57.3655 21.2958 58.1641 21.2212 58.9567C21.1466 59.7494 20.867 60.5078 20.4107 61.1551C19.9545 61.8024 19.3378 62.3155 18.6234 62.6423C17.9089 62.9691 17.1221 63.098 16.3428 63.0159C15.5635 62.9338 14.8195 62.6436 14.1862 62.1748C13.5529 61.706 13.0529 61.0752 12.7371 60.3466C12.4212 59.6179 12.3006 58.8173 12.3876 58.026C12.4746 57.2347 12.766 56.4808 13.2324 55.841C14.5462 54.0385 16.8397 53.4987 18.8798 54.5058L19.1332 54.626C20.447 53.2908 21.7608 51.9556 23.0746 50.5994C23.1938 50.4587 23.2603 50.2797 23.2622 50.094C23.2735 46.4528 23.2622 42.8115 23.2622 39.1207H16.9298V39.9027C16.9298 42.6405 16.9298 45.3776 16.9298 48.1141C16.9298 49.2585 16.5769 49.6057 15.4564 49.6076C13.7673 49.6076 12.0781 49.6076 10.3646 49.6076C10.2595 49.8594 10.1675 50.0959 10.0643 50.3286C9.75582 51.0348 9.27426 51.6488 8.66563 52.1119C8.057 52.575 7.34165 52.8716 6.58799 52.9735C5.83433 53.0754 5.06755 52.9791 4.36098 52.6938C3.65441 52.4085 3.03167 51.9437 2.55231 51.3439C2.07296 50.7442 1.75301 50.0295 1.62306 49.2682C1.49312 48.5069 1.55752 47.7244 1.81011 46.9956C2.0627 46.2669 2.49504 45.6161 3.06578 45.1056C3.63652 44.5951 4.32658 44.242 5.06997 44.0799C7.18517 43.647 9.23469 44.6922 10.0549 46.7141C10.2876 47.2863 10.5748 47.4293 11.1303 47.4103C12.3183 47.3721 13.5083 47.3988 14.7395 47.3988V39.1417C13.8949 39.1417 13.0503 39.1741 12.2208 39.1417C10.8694 39.0768 9.47868 39.1417 8.17615 38.8365C6.01439 38.3228 4.08065 37.0966 2.67647 35.349C1.27229 33.6015 0.476613 31.4308 0.41351 29.1755C0.295269 24.407 3.14995 20.432 7.70694 19.0186C7.84019 18.9785 7.9697 18.9289 8.14424 18.8679C8.17489 17.1474 8.76485 15.4855 9.82215 14.1414C11.4456 12.0795 13.5758 11.0476 16.1509 10.9713C16.4943 10.9617 16.7346 10.9503 16.9185 10.5535C18.983 6.12646 22.5903 3.87763 27.2018 3.08416C29.6413 2.66731 32.1464 2.931 34.4501 3.84712C34.5961 3.87855 34.7471 3.8778 34.8928 3.84489C35.0385 3.81199 35.1755 3.7477 35.2947 3.65638C40.4485 -0.41402 47.6312 0.0475703 52.1657 4.77602C53.8896 6.55004 55.021 8.83014 55.3995 11.2936C55.4092 11.4674 55.4726 11.6337 55.5808 11.7686C55.689 11.9036 55.8364 12.0004 56.002 12.0451C62.265 14.334 65.7053 19.8407 65.0765 26.5414C64.5135 32.5287 59.4028 37.9629 53.4232 38.9013C52.573 39.0349 51.7059 39.0558 50.7956 39.1321V47.3893C52.1901 47.3893 53.5846 47.4064 54.9772 47.3645C55.1236 47.3645 55.3075 47.0288 55.3958 46.8152C56.4599 44.2783 59.2921 43.2312 61.6588 44.5148C62.4752 44.9536 63.1345 45.643 63.543 46.4848C63.9514 47.3266 64.0881 48.2779 63.9335 49.2032C63.5994 51.1202 62.0135 52.688 60.1592 52.9322C59.2239 53.0646 58.2715 52.8908 57.44 52.436C56.6085 51.9812 55.9411 51.2692 55.5346 50.403C55.4051 50.1283 55.3 49.8422 55.1705 49.5332C53.4476 49.5332 51.7397 49.5332 50.0317 49.5332C48.9563 49.5332 48.6128 49.1784 48.6109 48.0759C48.6109 45.3624 48.6109 42.6488 48.6109 39.9352V39.1264H42.1921V39.855C42.1921 43.1892 42.179 46.5214 42.209 49.8536C42.2258 50.2388 42.3722 50.6065 42.6238 50.8951C43.8156 52.1711 45.0637 53.3995 46.263 54.6279C48.8324 53.5445 50.9795 54.0556 52.2858 56.0069C52.8507 56.8718 53.1056 57.9079 53.0077 58.9413C52.9098 59.9746 52.4651 60.9423 51.7482 61.6818C51.0313 62.4213 50.0859 62.8876 49.0707 63.0025C48.0555 63.1174 47.0323 62.8739 46.1729 62.3128C44.2079 61.0024 43.688 58.8089 44.7465 56.1271C43.459 54.8224 42.1659 53.4815 40.8352 52.1826C40.5867 51.9508 40.3917 51.6662 40.2639 51.349C40.136 51.0319 40.0786 50.69 40.0957 50.3477C40.1182 46.8724 40.1069 43.3971 40.1069 39.9199L40.0976 39.094ZM31.312 36.8909C37.9373 36.8909 44.5645 36.9119 51.1897 36.8909C58.4682 36.8604 63.9936 30.3238 62.8055 23.0623C62.0304 18.3281 59.217 15.2782 54.7595 13.8114C53.868 13.5176 53.4701 13.0656 53.4082 12.11C53.2909 10.7056 52.8512 9.34871 52.1244 8.14831C51.3414 6.78906 50.268 5.62585 48.9835 4.74453C47.699 3.86322 46.2362 3.2863 44.7029 3.05635C43.1697 2.82641 41.6053 2.9493 40.125 3.41597C38.6448 3.88264 37.2865 4.68116 36.1506 5.75261C35.625 6.24663 35.1371 6.51557 34.4032 6.16652C31.4153 4.71308 28.3372 4.6921 25.2573 5.78504C22.0273 6.92948 19.5911 8.9704 18.5345 12.4247C18.3468 13.0351 17.9264 13.2449 17.3033 13.2525C16.3986 13.2659 15.4546 13.222 14.5968 13.4623C11.9993 14.1871 10.3627 16.5962 10.3983 19.4306C10.4115 20.5026 10.1938 20.7791 9.18026 20.9737C9.04138 21.0004 8.90437 21.0328 8.76736 21.0614C7.73674 21.2688 6.75853 21.6875 5.89243 22.2919C5.02633 22.8963 4.29051 23.6738 3.72987 24.5768C3.16924 25.4798 2.79556 26.4894 2.63164 27.5441C2.46771 28.5988 2.51699 29.6763 2.77646 30.711C3.69987 34.4151 6.85485 36.8776 10.7305 36.8833C17.5923 36.896 24.4528 36.8979 31.312 36.889V36.8909ZM61.8408 48.4403C61.8415 47.9746 61.7057 47.5193 61.4507 47.1324C61.1958 46.7455 60.8332 46.4445 60.4093 46.2679C59.9853 46.0912 59.5192 46.0469 59.0704 46.1405C58.6215 46.2342 58.2103 46.4615 57.8891 46.7936C57.568 47.1257 57.3514 47.5475 57.267 48.0052C57.1826 48.4629 57.2343 48.9357 57.4154 49.3635C57.5965 49.7912 57.8989 50.1544 58.2839 50.4068C58.669 50.6592 59.1193 50.7894 59.5774 50.7806C60.1807 50.7682 60.7552 50.5164 61.1782 50.079C61.6012 49.6417 61.839 49.0535 61.8408 48.4403ZM5.99338 50.7787C6.45094 50.781 6.89882 50.6449 7.28006 50.3877C7.6613 50.1306 7.95868 49.764 8.13437 49.3347C8.31007 48.9053 8.35613 48.4325 8.26672 47.9765C8.17731 47.5204 7.95646 47.1017 7.63225 46.7736C7.30804 46.4454 6.89512 46.2227 6.44601 46.1337C5.99691 46.0447 5.5319 46.0935 5.11014 46.2738C4.68837 46.4541 4.3289 46.7578 4.07744 47.1463C3.82599 47.5348 3.6939 47.9905 3.69799 48.4555C3.71781 49.0669 3.96628 49.6476 4.39278 50.0793C4.81928 50.511 5.3917 50.7611 5.99338 50.7787ZM46.3831 58.4427C46.3831 59.0603 46.6246 59.6527 47.0543 60.0895C47.4841 60.5262 48.067 60.7716 48.6748 60.7716C49.2825 60.7716 49.8654 60.5262 50.2952 60.0895C50.725 59.6527 50.9664 59.0603 50.9664 58.4427C50.9551 57.2162 49.8834 56.1385 48.6522 56.1156C47.421 56.0928 46.3869 57.1666 46.3831 58.4427ZM19.1557 58.4064C19.1454 57.9491 19.0027 57.5051 18.7456 57.1296C18.4885 56.7542 18.1283 56.464 17.71 56.2952C17.2916 56.1265 16.8336 56.0867 16.3932 56.1808C15.9527 56.275 15.5493 56.4988 15.2332 56.8245C14.9171 57.1501 14.7024 57.5631 14.6158 58.012C14.5293 58.4609 14.5747 58.9258 14.7464 59.3486C14.9182 59.7714 15.2086 60.1335 15.5815 60.3896C15.9545 60.6457 16.3934 60.7845 16.8434 60.7888C17.4585 60.7768 18.0447 60.521 18.4767 60.0759C18.9087 59.6308 19.1524 59.0316 19.1557 58.4064ZM30.4844 61.0291C30.4731 61.4876 30.5957 61.9391 30.8365 62.3269C31.0774 62.7147 31.4258 63.0214 31.8378 63.2083C32.2499 63.3953 32.7071 63.4541 33.152 63.3774C33.5969 63.3007 34.0095 63.0919 34.3378 62.7773C34.6662 62.4627 34.8955 62.0564 34.997 61.6096C35.0986 61.1627 35.0677 60.6954 34.9083 60.2663C34.7489 59.8373 34.4682 59.4658 34.1014 59.1986C33.7346 58.9315 33.2983 58.7806 32.8473 58.765C32.5455 58.7546 32.2447 58.805 31.9622 58.9134C31.6797 59.0218 31.4212 59.186 31.2015 59.3965C30.9818 59.607 30.8053 59.8597 30.6822 60.1399C30.5591 60.4201 30.4919 60.7223 30.4844 61.0291Z" fill="#0274BA"/>
</svg>
