<svg width="66" height="66" viewBox="0 0 66 66" fill="none" xmlns="http://www.w3.org/2000/svg">
<g clip-path="url(#clip0_456_13585)">
<path d="M0.410034 8.4632C0.610661 7.78882 0.765767 7.08579 1.02203 6.42659C1.47392 5.25325 2.27634 4.24762 3.3201 3.54655C4.36386 2.84548 5.59828 2.48301 6.85537 2.50847C22.5256 2.55343 38.197 2.54949 53.8694 2.49667C57.7842 2.47643 60.0737 5.56507 60.3637 8.4986C60.4159 9.02124 60.4311 9.54894 60.4311 10.075C60.4311 18.68 60.4373 27.285 60.4496 35.89C60.4496 36.2272 60.5812 36.6689 60.8155 36.878C62.3227 38.2267 62.2098 40.3089 60.8897 41.43C60.8522 41.4726 60.821 41.5203 60.7969 41.5716C61.065 42.2258 61.3027 42.8765 61.6028 43.4987C61.66 43.5943 61.737 43.6765 61.8286 43.7399C61.9202 43.8033 62.0243 43.8464 62.1339 43.8662C64.012 44.0432 65.0286 45.1239 65.0337 46.9987C65.0337 47.673 65.0438 48.3474 65.0337 49.0218C65.0017 50.6083 63.8333 51.8289 62.2536 51.8693C61.8169 51.8811 61.5877 51.9975 61.5118 52.4223C61.4847 52.5673 61.434 52.7068 61.3617 52.8354C60.8998 53.6328 60.7565 54.2887 61.4932 55.1367C62.2755 56.0387 62.0395 57.4801 61.2184 58.3922C60.6273 59.0494 60.0032 59.6763 59.3487 60.2704C58.8284 60.7591 58.1392 61.0278 57.4254 61.0203C56.7115 61.0127 56.0282 60.7296 55.5183 60.2299C55.1811 59.9096 54.9147 59.8556 54.5539 60.1001C54.5363 60.1111 54.5169 60.1191 54.4966 60.1237C53.4496 60.4356 52.6893 60.8503 52.5696 62.194C52.4684 63.3371 51.2056 64.0974 50.0019 64.1295C49.223 64.1497 48.4441 64.1446 47.6669 64.1295C46.0855 64.1076 44.8986 63.0319 44.8008 61.4438C44.7671 60.9009 44.5529 60.7273 44.091 60.5351C43.1519 60.1439 42.3882 59.7326 41.3817 60.643C40.5488 61.3983 39.1225 61.0864 38.2458 60.2906C37.5934 59.6971 36.9595 59.075 36.3694 58.4209C35.8786 57.9013 35.6089 57.2112 35.6174 56.4965C35.6259 55.7817 35.9119 55.0983 36.4149 54.5904C36.7386 54.2533 36.7774 53.9987 36.5414 53.6227C36.4002 53.3643 36.2818 53.0941 36.1873 52.8152C35.8164 51.8828 35.8181 51.8811 34.7829 51.8811C31.6291 51.8811 28.4736 51.8811 25.3164 51.8811C24.5139 51.8811 23.9879 51.4799 23.885 50.8291C23.7535 49.9861 24.3217 49.3539 25.2523 49.3506C27.4188 49.3421 29.5852 49.3506 31.7516 49.3506H32.5069C32.5069 48.5379 32.5069 47.7877 32.5069 47.0374C32.517 45.1155 33.5185 44.0449 35.4404 43.8696C35.55 43.8479 35.6537 43.8028 35.7442 43.7373C35.8347 43.6719 35.9099 43.5876 35.9648 43.4902C36.2531 42.885 36.4706 42.2511 36.742 41.5919C36.6088 41.4452 36.4503 41.2817 36.302 41.1063C35.8375 40.5797 35.5865 39.8985 35.5984 39.1964C35.6102 38.4943 35.884 37.8219 36.366 37.3113C36.9089 36.7246 37.4804 36.1648 38.052 35.6118C39.2169 34.4924 40.8371 34.4553 42.024 35.5545C42.3477 35.8529 42.5939 35.9221 42.9446 35.6692C43.065 35.5836 43.2006 35.5218 43.3441 35.4871C44.2596 35.2612 44.7873 34.8447 44.8699 33.7489C44.9576 32.6176 46.0366 31.778 47.1847 31.6786C48.0866 31.608 48.992 31.594 49.8957 31.6364C51.5192 31.7022 52.5932 32.7508 52.7078 34.3794C52.7365 34.8026 52.8596 35.0032 53.2709 35.1263C53.7767 35.2763 54.2336 35.5461 54.7293 35.7147C54.8979 35.7737 55.1996 35.7602 55.3126 35.6489C55.6372 35.3209 56.0302 35.0687 56.4636 34.9101C56.8969 34.7516 57.36 34.6907 57.8196 34.7318V21.949H2.94737V22.6386C2.94737 29.9808 2.93388 37.3231 2.96592 44.667C2.96851 45.4836 3.12109 46.2928 3.41606 47.0543C4.02468 48.5716 5.16944 49.3927 6.88909 49.359C9.1179 49.3168 11.3484 49.3472 13.5789 49.359C14.5449 49.359 15.1215 49.8445 15.1131 50.6336C15.1047 51.4226 14.5213 51.8913 13.5502 51.8929C11.3838 51.8929 9.214 51.812 7.05094 51.9115C3.18509 52.0801 1.00348 49.1263 0.531422 46.3766C0.498426 46.2373 0.457904 46.1 0.410034 45.9652V8.4632ZM2.98109 19.3021H57.8752C57.8752 18.7002 57.8752 18.1371 57.8752 17.574C57.8752 14.7332 57.9157 11.8907 57.8432 9.05328C57.7791 6.54629 56.1741 5.06435 53.6992 5.06435H47.1358C33.6944 5.06435 20.2524 5.06154 6.80985 5.05592C5.6297 5.05592 4.67883 5.45886 3.95893 6.38612C3.23904 7.31339 2.94737 8.40925 2.94737 9.57086C2.94737 12.6224 2.94737 15.6734 2.94737 18.7238C2.94906 18.9076 2.9676 19.0913 2.98109 19.3021ZM40.0296 37.2421C39.6924 37.5675 39.4007 37.8558 39.1074 38.1475C38.0385 39.2147 38.0385 39.2147 39.0922 40.3072C39.7666 41.0001 39.7666 41.3946 39.3434 42.2831C38.8903 43.2024 38.4961 44.1496 38.1632 45.1188C37.826 46.1304 37.5175 46.4288 36.4655 46.4373C35.0662 46.4507 35.0662 46.4507 35.0662 47.8467C35.0662 49.3371 35.0662 49.3371 36.5835 49.3489C37.5327 49.3489 37.8412 49.6557 38.1531 50.5661C38.4913 51.5562 38.891 52.5241 39.3501 53.4642C39.802 54.3831 39.7919 54.7928 39.0568 55.5329C38.0621 56.5444 38.0621 56.5444 39.0838 57.556C40.1054 58.5676 40.1071 58.5794 41.1524 57.556C41.8689 56.853 42.2567 56.8462 43.1755 57.2981C44.0739 57.7481 45.0023 58.1356 45.954 58.458C47.0768 58.8306 47.3246 59.0902 47.3297 60.3007C47.3297 61.7675 47.1813 61.6056 48.6582 61.6006C50.4756 61.6006 50.2278 61.8349 50.248 60.0445C50.2581 59.1256 50.5464 58.8272 51.4282 58.517C52.4363 58.1681 53.4231 57.7605 54.3836 57.2964C55.3025 56.8479 55.6801 56.8462 56.4068 57.5577C57.4588 58.5895 57.4588 58.5895 58.4805 57.5577C59.5021 56.5259 59.492 56.5326 58.467 55.4823C57.7656 54.7708 57.7606 54.3763 58.2158 53.4592C58.6648 52.5603 59.0523 51.6321 59.3757 50.6808C59.7449 49.5798 59.986 49.3472 61.1695 49.3455C62.6397 49.3455 62.4997 49.4686 62.5014 48.0355C62.5014 46.4727 62.5014 46.4727 60.9757 46.4339C60.0771 46.412 59.7399 46.0967 59.4415 45.2402C59.1048 44.249 58.7073 43.2794 58.2512 42.3371C57.7454 41.3255 57.7454 40.9731 58.5429 40.1639C59.6505 39.0326 59.6438 39.3597 58.5294 38.2284C57.4757 37.1595 57.4689 37.1646 56.3697 38.2284C55.7071 38.8657 55.2688 38.8775 54.446 38.4847C53.4667 38.0133 52.4614 37.5979 51.4349 37.2405C50.5094 36.9218 50.1991 36.6032 50.1857 35.6169C50.1637 34.1872 50.1637 34.1872 48.7442 34.1872C47.2808 34.1872 47.2808 34.1872 47.2673 35.6506C47.2673 36.642 46.9756 36.9589 46.018 37.2573C45.2593 37.4934 44.4754 37.7243 43.7943 38.1171C41.8824 39.2198 41.756 38.8775 40.5235 37.6265C40.3662 37.4893 40.2013 37.361 40.0296 37.2421Z" fill="#0274BA"/>
<path d="M28.842 35.5781C27.8693 34.4823 26.9066 33.4033 25.949 32.3192C25.337 31.6263 25.31 30.8879 25.8664 30.3669C26.4227 29.846 27.2151 29.9269 27.844 30.6299C28.9376 31.8472 30.0267 33.07 31.1113 34.2985C31.8936 35.187 31.8953 36.0418 31.1113 36.937C30.0177 38.1824 28.9157 39.4215 27.8052 40.6545C27.2134 41.312 26.421 41.3896 25.8664 40.8686C25.3117 40.3477 25.337 39.6143 25.9085 38.9618C26.8627 37.8727 27.8271 36.792 28.7847 35.7063C28.8078 35.6654 28.827 35.6225 28.842 35.5781Z" fill="#0274BA"/>
<path d="M10.447 35.6385L13.1445 38.6732C13.3035 38.8404 13.4526 39.0166 13.5913 39.2009C13.7784 39.4574 13.8618 39.7751 13.8249 40.0904C13.788 40.4057 13.6336 40.6956 13.3924 40.902C13.1526 41.1127 12.8412 41.2234 12.5223 41.2115C12.2034 41.1996 11.9011 41.0659 11.6778 40.8379C11.1046 40.2512 10.5785 39.6207 10.0323 39.0087C9.38827 38.2871 8.73412 37.574 8.10527 36.8389C7.43089 36.0431 7.43089 35.1782 8.10527 34.3892C9.22642 33.1062 10.3627 31.8384 11.5024 30.5723C12.0807 29.9299 12.8343 29.8473 13.3941 30.3379C13.9538 30.8285 13.9639 31.6209 13.3705 32.2936C12.5275 33.2563 11.6643 34.2105 10.8129 35.1698C10.6949 35.3013 10.592 35.4581 10.447 35.6385Z" fill="#0274BA"/>
<path d="M22.1688 30.5319C21.9159 31.6075 21.6343 32.8146 21.3477 34.0201C20.8037 36.3085 20.2564 38.5963 19.7056 40.8835C19.677 41.0049 19.6432 41.128 19.6028 41.2477C19.3684 41.9372 18.7312 42.3065 18.0753 42.1328C17.9159 42.0946 17.7657 42.025 17.6335 41.9281C17.5012 41.8313 17.3895 41.7091 17.305 41.5687C17.2204 41.4282 17.1646 41.2724 17.1409 41.1102C17.1171 40.948 17.1259 40.7827 17.1666 40.6239C17.5898 38.739 18.0433 36.8609 18.4901 34.9794C18.8621 33.4058 19.2381 31.8323 19.618 30.2588C19.7984 29.5153 20.2131 29.1106 20.8183 29.0601C21.5635 28.9994 22.1958 29.6232 22.1688 30.5319Z" fill="#0274BA"/>
<path d="M19.5222 49.3523C19.6905 49.3499 19.8575 49.3816 20.0132 49.4455C20.1689 49.5094 20.31 49.6041 20.4282 49.724C20.5463 49.8438 20.6389 49.9864 20.7006 50.143C20.7622 50.2996 20.7915 50.467 20.7867 50.6353C20.7806 50.9647 20.6467 51.2788 20.4132 51.5113C20.1798 51.7438 19.8651 51.8764 19.5357 51.8812C19.1958 51.8826 18.8688 51.7512 18.6244 51.515C18.38 51.2788 18.2375 50.9565 18.2274 50.6167C18.2283 50.4483 18.2626 50.2818 18.3283 50.1268C18.3941 49.9718 18.49 49.8314 18.6104 49.7138C18.7309 49.5961 18.8735 49.5036 19.0301 49.4415C19.1866 49.3795 19.3539 49.3491 19.5222 49.3523Z" fill="#0274BA"/>
<path d="M43.9078 16.5321C41.9943 16.5321 40.0808 16.5591 38.1757 16.5237C37.313 16.503 36.477 16.2209 35.7782 15.7146C35.0794 15.2083 34.5508 14.5017 34.2624 13.6885C33.974 12.8752 33.9394 11.9935 34.1631 11.1601C34.3868 10.3267 34.8583 9.58083 35.5152 9.02129C36.2789 8.35172 37.2612 7.98472 38.2768 7.9895C42.0196 7.97601 45.7641 7.95915 49.5068 7.9895C51.9902 8.01141 53.8346 9.90641 53.8127 12.3173C53.7908 14.686 51.9177 16.5069 49.4512 16.5321C47.5967 16.5507 45.7506 16.5321 43.8994 16.5321H43.9078ZM43.9669 10.5403C42.0955 10.5403 40.2241 10.5218 38.3544 10.5403C37.2905 10.5555 36.547 11.299 36.5504 12.2566C36.5538 13.2142 37.3007 13.9729 38.3561 13.9779C42.0775 13.9982 45.7983 13.9982 49.5186 13.9779C49.859 13.9899 50.195 13.8986 50.4824 13.7159C50.7697 13.5332 50.9951 13.2678 51.1287 12.9546C51.6648 11.7879 50.832 10.5605 49.4529 10.5386C47.6169 10.5184 45.7877 10.5403 43.9584 10.5403H43.9669Z" fill="#0274BA"/>
<path d="M27.553 12.2833C27.548 13.1262 27.2936 13.9488 26.8218 14.6473C26.35 15.3458 25.682 15.889 24.9019 16.2084C24.1219 16.5278 23.2647 16.6092 22.4385 16.4422C21.6123 16.2752 20.854 15.8673 20.2593 15.27C19.6645 14.6726 19.2599 13.9126 19.0965 13.0857C18.9331 12.2587 19.0181 11.402 19.3409 10.6233C19.6637 9.84462 20.2098 9.17895 20.9104 8.71019C21.6109 8.24142 22.4346 7.99056 23.2775 7.98921C23.8403 7.98987 24.3975 8.10153 24.9172 8.31779C25.4368 8.53405 25.9087 8.85067 26.3058 9.24952C26.703 9.64838 27.0175 10.1216 27.2315 10.6422C27.4455 11.1628 27.5548 11.7205 27.553 12.2833ZM25.014 12.2749C25.0136 11.8173 24.8318 11.3785 24.5086 11.0546C24.1853 10.7307 23.7469 10.5481 23.2893 10.5468C22.8423 10.5568 22.4169 10.7405 22.1031 11.0589C21.7893 11.3774 21.6118 11.8055 21.6083 12.2525C21.6048 12.6995 21.7755 13.1304 22.0843 13.4537C22.393 13.777 22.8156 13.9673 23.2623 13.9844C23.7191 13.9837 24.1575 13.8045 24.4841 13.4852C24.8107 13.1658 24.9996 12.7315 25.0106 12.2749H25.014Z" fill="#0274BA"/>
<path d="M16.4785 12.2866C16.4705 13.1264 16.2143 13.945 15.7422 14.6395C15.2701 15.334 14.603 15.8734 13.8251 16.1897C13.0471 16.506 12.193 16.5851 11.3702 16.4171C10.5474 16.2491 9.79263 15.8415 9.20092 15.2456C8.60921 14.6497 8.20697 13.8921 8.04483 13.0681C7.88268 12.2441 7.96787 11.3906 8.28968 10.6149C8.61149 9.83919 9.15554 9.17602 9.85337 8.70881C10.5512 8.24159 11.3716 7.99122 12.2114 7.98918C12.7745 7.9885 13.3322 8.09941 13.8522 8.31551C14.3722 8.53161 14.8442 8.84861 15.241 9.2482C15.6378 9.6478 15.9514 10.1221 16.1638 10.6436C16.3762 11.1651 16.4832 11.7235 16.4785 12.2866ZM13.9294 12.2647C13.9211 11.8192 13.7395 11.3945 13.4233 11.0807C13.107 10.7669 12.6809 10.5886 12.2353 10.5838C11.7898 10.579 11.3599 10.7479 11.0369 11.0548C10.7139 11.3617 10.5232 11.7824 10.5052 12.2276C10.496 12.4566 10.5328 12.6852 10.6135 12.8997C10.6942 13.1142 10.8171 13.3103 10.975 13.4765C11.1329 13.6426 11.3225 13.7754 11.5326 13.8669C11.7427 13.9585 11.969 14.0069 12.1982 14.0094C12.4274 14.0119 12.6547 13.9684 12.8668 13.8814C13.0788 13.7944 13.2713 13.6658 13.4327 13.5031C13.5941 13.3404 13.7212 13.147 13.8066 12.9343C13.8919 12.7215 13.9336 12.4939 13.9294 12.2647Z" fill="#0274BA"/>
<path d="M41.0049 47.8599C41.0096 46.3218 41.4702 44.8196 42.3286 43.5433C43.187 42.2669 44.4045 41.2738 45.8273 40.6894C47.2501 40.1051 48.8142 39.9557 50.3219 40.2602C51.8295 40.5648 53.2131 41.3095 54.2975 42.4003C55.3819 43.4911 56.1185 44.8789 56.4142 46.3884C56.7099 47.8978 56.5514 49.461 55.9587 50.8803C55.3661 52.2997 54.3658 53.5114 53.0845 54.3623C51.8032 55.2132 50.2983 55.665 48.7602 55.6607C47.7379 55.6607 46.7257 55.4586 45.7818 55.066C44.8379 54.6735 43.981 54.0981 43.2602 53.3732C42.5395 52.6482 41.9692 51.7879 41.5821 50.8417C41.1951 49.8955 40.9989 48.8821 41.0049 47.8599ZM48.7956 42.6621C48.1093 42.6607 47.4294 42.7945 46.7947 43.0558C46.1601 43.3171 45.5831 43.7009 45.0968 44.1852C44.6104 44.6695 44.2243 45.2448 43.9603 45.8784C43.6963 46.5119 43.5597 47.1912 43.5582 47.8776C43.5568 48.5639 43.6906 49.2438 43.9519 49.8785C44.2132 50.5131 44.597 51.0901 45.0813 51.5764C45.5656 52.0628 46.1409 52.4489 46.7745 52.7129C47.408 52.9769 48.0874 53.1135 48.7737 53.1149C50.1598 53.1178 51.4903 52.57 52.4725 51.5919C53.4547 50.6138 54.0082 49.2856 54.0111 47.8995C54.014 46.5134 53.4661 45.1829 52.488 44.2007C51.5099 43.2185 50.1817 42.665 48.7956 42.6621Z" fill="#0274BA"/>
</g>
<defs>
<clipPath id="clip0_456_13585">
<rect width="64.74" height="64.74" fill="white" transform="translate(0.410034 0.889969)"/>
</clipPath>
</defs>
</svg>
