<svg width="101" height="101" viewBox="0 0 101 101" fill="none" xmlns="http://www.w3.org/2000/svg">
<rect x="0.75" y="0.75" width="99.397" height="99.397" rx="49.6985" fill="white" stroke="#0274BA" stroke-width="1.5"/>
<mask id="path-2-inside-1_1021_191977" fill="white">
<path d="M23.2402 45.2728C23.3856 44.3267 23.4815 43.3733 23.666 42.4345C24.8287 36.4834 27.866 31.6804 32.7242 28.0763C37.0332 24.8791 41.9176 23.3924 47.2787 23.5479C58.1782 23.8633 67.5387 32.0161 69.38 42.7572C69.8548 45.6234 69.8263 48.5505 69.2957 51.407C69.1286 52.3487 69.2695 53.3442 69.2695 54.3906H76.5751C78.1286 54.3906 78.9294 55.1826 78.9308 56.7158C78.9308 58.4597 78.9177 60.1963 78.9308 61.9374C78.9459 63.0356 78.5469 64.0992 77.8133 64.9166C77.6373 65.1299 77.5353 65.3946 77.5226 65.6708C77.5037 68.7895 77.511 71.9082 77.5095 75.0269C77.5095 77.217 76.1798 78.5453 73.9825 78.5453H50.2216C47.9923 78.5453 46.6829 77.2301 46.6756 74.992C46.6756 73.5591 46.6756 72.1277 46.6756 70.6947V70.0771C45.6903 70.003 44.75 69.9783 43.8243 69.8562C35.7572 68.7953 29.793 64.6361 25.8837 57.5369C24.381 54.8091 23.5745 51.8444 23.3318 48.733C23.3112 48.591 23.2806 48.4507 23.2402 48.313V45.2728ZM62.788 49.3913C63.7602 44.5505 62.0947 37.3859 55.7585 33.0697C49.8001 29.0122 41.9118 29.3188 36.1888 33.8283C30.5909 38.2404 28.4546 45.9122 30.9803 52.5754C33.7415 59.8795 40.4978 63.1305 45.3604 63.2438C45.3226 62.834 45.2558 62.4242 45.2528 62.0144C45.2412 60.2191 45.2412 58.4268 45.2528 56.6373C45.2616 55.2073 46.0957 54.3964 47.5359 54.3949C49.8195 54.3949 52.1031 54.3949 54.3866 54.3949H55.0014C55.0014 53.7715 54.9912 53.2323 55.0014 52.6888C55.0083 51.8273 55.3503 51.0024 55.955 50.3888C56.5597 49.7752 57.3794 49.4211 58.2407 49.4015C59.7593 49.3681 61.2795 49.3913 62.788 49.3913ZM67.7291 49.8418C68.9149 43.2934 66.4211 34.1001 58.2145 28.7695C49.9309 23.3924 39.1419 24.2992 32.0151 30.8927C24.6819 37.6765 22.8595 48.2665 27.571 56.9817C32.1676 65.4935 40.9207 68.5555 46.6814 68.2096C46.6814 67.3638 46.664 66.5137 46.6887 65.6635C46.7003 65.2276 46.5695 65.0895 46.1074 65.0546C44.9012 64.9616 43.6804 64.8802 42.5018 64.6186C33.1835 62.5841 26.9882 53.5564 28.3819 44.1145C29.8206 34.3675 38.7873 27.479 48.5663 28.6067C53.3112 29.1475 57.6562 31.5233 60.6723 35.2259C63.6885 38.9286 65.1363 43.6643 64.7063 48.4205C64.6801 48.7214 64.6641 49.0251 64.638 49.4015C65.1815 49.4015 65.6916 49.3463 66.1842 49.4175C66.6769 49.4887 67.187 49.6921 67.7232 49.8375L67.7291 49.8418ZM48.4399 66.4541C48.4282 66.6765 48.4166 66.8029 48.4166 66.9279C48.4166 69.63 48.4166 72.3311 48.4166 75.0313C48.4166 76.2709 48.9703 76.8101 50.2201 76.8115C58.1414 76.8115 66.0631 76.8115 73.9854 76.8115C75.2206 76.8115 75.7743 76.2549 75.7743 75.0167C75.7743 72.3524 75.7743 69.6881 75.7743 67.0238C75.7743 66.8538 75.7569 66.6823 75.7453 66.4672C72.567 67.8173 69.2375 68.1399 65.9197 68.416C65.866 68.6311 65.8253 68.788 65.786 68.945C65.5797 69.7772 65.0981 70.5151 64.4194 71.039C63.7406 71.5628 62.9047 71.8418 62.0474 71.8305C61.1901 71.8192 60.3618 71.5184 59.6971 70.9768C59.0324 70.4353 58.5704 69.6849 58.386 68.8476C58.309 68.4858 58.152 68.3884 57.8163 68.3564C56.536 68.2373 55.2528 68.1283 53.9812 67.9481C52.1021 67.6792 50.255 67.2578 48.4399 66.4541ZM52.8839 56.1359C51.0717 56.1359 49.37 56.1548 47.6696 56.1243C47.1334 56.1156 46.9735 56.306 46.9793 56.8175C47.0006 58.5033 47.0006 60.1891 46.9793 61.8749C46.9677 62.8006 47.2932 63.5708 48.0373 64.0838C48.7095 64.5737 49.4422 64.9748 50.2172 65.277C52.8142 66.2114 55.5449 66.457 58.2756 66.6547C58.3486 66.6476 58.4189 66.6234 58.4808 66.584C58.5427 66.5446 58.5944 66.4911 58.6316 66.4279C58.9389 65.7708 59.4264 65.2145 60.0376 64.8237C60.6487 64.4329 61.3582 64.2238 62.0836 64.2206C62.809 64.2174 63.5204 64.4203 64.1349 64.8057C64.7495 65.191 65.2419 65.7431 65.555 66.3974C65.5968 66.4667 65.6541 66.5254 65.7225 66.5687C65.7908 66.6121 65.8683 66.639 65.9488 66.6474C68.3743 66.4904 70.7853 66.223 73.1352 65.5676C74.3472 65.2305 75.5069 64.7741 76.4225 63.8571C76.889 63.3906 77.1956 62.85 77.1971 62.1757C77.1971 60.3446 77.1971 58.5135 77.2073 56.6824C77.2073 56.2464 77.0154 56.1272 76.6129 56.1301C74.9445 56.1432 73.2704 56.1301 71.6093 56.1388C71.5119 56.1449 71.4149 56.156 71.3186 56.1723V58.9044C71.3186 60.5408 70.3653 61.5086 68.7216 61.5115C64.3173 61.5174 59.9124 61.5174 55.5071 61.5115C53.8547 61.5115 52.9232 60.5844 52.8912 58.9204C52.8709 58.0135 52.8869 57.1038 52.8869 56.1316L52.8839 56.1359ZM54.6279 56.1621C54.6279 57.0457 54.6279 57.8595 54.6279 58.6733C54.6366 59.6688 54.7427 59.772 55.7178 59.772H68.4935C68.6562 59.772 68.8553 59.8243 68.9745 59.7502C69.1969 59.6049 69.5297 59.4058 69.5398 59.2125C69.5965 58.2068 69.566 57.1954 69.566 56.1606L54.6279 56.1621ZM64.1627 68.0222C64.1612 67.4738 63.9424 66.9484 63.5542 66.5611C63.1661 66.1737 62.6402 65.956 62.0918 65.9556C61.8156 65.9496 61.5409 65.9989 61.284 66.1007C61.0271 66.2025 60.7932 66.3547 60.5961 66.5483C60.399 66.742 60.2427 66.9732 60.1363 67.2282C60.03 67.4832 59.9758 67.757 59.977 68.0333C59.9782 68.3096 60.0346 68.5829 60.1431 68.8371C60.2516 69.0912 60.4099 69.321 60.6086 69.513C60.8074 69.705 61.0425 69.8552 61.3003 69.9548C61.558 70.0545 61.8331 70.1015 62.1093 70.0931C62.381 70.0949 62.6504 70.0422 62.9014 69.9382C63.1525 69.8342 63.3802 69.681 63.571 69.4875C63.7619 69.2941 63.9121 69.0644 64.0127 68.812C64.1133 68.5595 64.1624 68.2895 64.1569 68.0178L64.1627 68.0222ZM66.9835 54.3426L67.1419 54.44C67.2495 54.3237 67.4428 54.2103 67.45 54.0883C67.4837 53.5639 67.4759 53.0376 67.4268 52.5144C67.3889 52.1391 67.2131 51.7912 66.9333 51.5383C66.6535 51.2853 66.2897 51.1453 65.9125 51.1454C63.3751 51.127 60.8372 51.127 58.2988 51.1454C57.4269 51.1454 56.7743 51.8328 56.7424 52.712C56.719 53.1477 56.719 53.5843 56.7424 54.02C56.7511 54.1508 56.8877 54.2728 56.9734 54.3978C57.0461 54.2627 57.1696 54.1304 57.1798 53.9909C57.2089 53.5942 57.1798 53.1931 57.1958 52.7963C57.2336 52.0697 57.6841 51.609 58.4122 51.6061C60.8595 51.5935 63.3068 51.5935 65.7541 51.6061C66.5127 51.6061 66.9545 52.0784 66.9719 52.8399C66.9835 53.3253 66.9835 53.834 66.9835 54.3426ZM58.9906 53.3573V54.3629H65.2105V53.3573H58.9906Z"/>
</mask>
<path d="M23.2402 45.2728C23.3856 44.3267 23.4815 43.3733 23.666 42.4345C24.8287 36.4834 27.866 31.6804 32.7242 28.0763C37.0332 24.8791 41.9176 23.3924 47.2787 23.5479C58.1782 23.8633 67.5387 32.0161 69.38 42.7572C69.8548 45.6234 69.8263 48.5505 69.2957 51.407C69.1286 52.3487 69.2695 53.3442 69.2695 54.3906H76.5751C78.1286 54.3906 78.9294 55.1826 78.9308 56.7158C78.9308 58.4597 78.9177 60.1963 78.9308 61.9374C78.9459 63.0356 78.5469 64.0992 77.8133 64.9166C77.6373 65.1299 77.5353 65.3946 77.5226 65.6708C77.5037 68.7895 77.511 71.9082 77.5095 75.0269C77.5095 77.217 76.1798 78.5453 73.9825 78.5453H50.2216C47.9923 78.5453 46.6829 77.2301 46.6756 74.992C46.6756 73.5591 46.6756 72.1277 46.6756 70.6947V70.0771C45.6903 70.003 44.75 69.9783 43.8243 69.8562C35.7572 68.7953 29.793 64.6361 25.8837 57.5369C24.381 54.8091 23.5745 51.8444 23.3318 48.733C23.3112 48.591 23.2806 48.4507 23.2402 48.313V45.2728ZM62.788 49.3913C63.7602 44.5505 62.0947 37.3859 55.7585 33.0697C49.8001 29.0122 41.9118 29.3188 36.1888 33.8283C30.5909 38.2404 28.4546 45.9122 30.9803 52.5754C33.7415 59.8795 40.4978 63.1305 45.3604 63.2438C45.3226 62.834 45.2558 62.4242 45.2528 62.0144C45.2412 60.2191 45.2412 58.4268 45.2528 56.6373C45.2616 55.2073 46.0957 54.3964 47.5359 54.3949C49.8195 54.3949 52.1031 54.3949 54.3866 54.3949H55.0014C55.0014 53.7715 54.9912 53.2323 55.0014 52.6888C55.0083 51.8273 55.3503 51.0024 55.955 50.3888C56.5597 49.7752 57.3794 49.4211 58.2407 49.4015C59.7593 49.3681 61.2795 49.3913 62.788 49.3913ZM67.7291 49.8418C68.9149 43.2934 66.4211 34.1001 58.2145 28.7695C49.9309 23.3924 39.1419 24.2992 32.0151 30.8927C24.6819 37.6765 22.8595 48.2665 27.571 56.9817C32.1676 65.4935 40.9207 68.5555 46.6814 68.2096C46.6814 67.3638 46.664 66.5137 46.6887 65.6635C46.7003 65.2276 46.5695 65.0895 46.1074 65.0546C44.9012 64.9616 43.6804 64.8802 42.5018 64.6186C33.1835 62.5841 26.9882 53.5564 28.3819 44.1145C29.8206 34.3675 38.7873 27.479 48.5663 28.6067C53.3112 29.1475 57.6562 31.5233 60.6723 35.2259C63.6885 38.9286 65.1363 43.6643 64.7063 48.4205C64.6801 48.7214 64.6641 49.0251 64.638 49.4015C65.1815 49.4015 65.6916 49.3463 66.1842 49.4175C66.6769 49.4887 67.187 49.6921 67.7232 49.8375L67.7291 49.8418ZM48.4399 66.4541C48.4282 66.6765 48.4166 66.8029 48.4166 66.9279C48.4166 69.63 48.4166 72.3311 48.4166 75.0313C48.4166 76.2709 48.9703 76.8101 50.2201 76.8115C58.1414 76.8115 66.0631 76.8115 73.9854 76.8115C75.2206 76.8115 75.7743 76.2549 75.7743 75.0167C75.7743 72.3524 75.7743 69.6881 75.7743 67.0238C75.7743 66.8538 75.7569 66.6823 75.7453 66.4672C72.567 67.8173 69.2375 68.1399 65.9197 68.416C65.866 68.6311 65.8253 68.788 65.786 68.945C65.5797 69.7772 65.0981 70.5151 64.4194 71.039C63.7406 71.5628 62.9047 71.8418 62.0474 71.8305C61.1901 71.8192 60.3618 71.5184 59.6971 70.9768C59.0324 70.4353 58.5704 69.6849 58.386 68.8476C58.309 68.4858 58.152 68.3884 57.8163 68.3564C56.536 68.2373 55.2528 68.1283 53.9812 67.9481C52.1021 67.6792 50.255 67.2578 48.4399 66.4541ZM52.8839 56.1359C51.0717 56.1359 49.37 56.1548 47.6696 56.1243C47.1334 56.1156 46.9735 56.306 46.9793 56.8175C47.0006 58.5033 47.0006 60.1891 46.9793 61.8749C46.9677 62.8006 47.2932 63.5708 48.0373 64.0838C48.7095 64.5737 49.4422 64.9748 50.2172 65.277C52.8142 66.2114 55.5449 66.457 58.2756 66.6547C58.3486 66.6476 58.4189 66.6234 58.4808 66.584C58.5427 66.5446 58.5944 66.4911 58.6316 66.4279C58.9389 65.7708 59.4264 65.2145 60.0376 64.8237C60.6487 64.4329 61.3582 64.2238 62.0836 64.2206C62.809 64.2174 63.5204 64.4203 64.1349 64.8057C64.7495 65.191 65.2419 65.7431 65.555 66.3974C65.5968 66.4667 65.6541 66.5254 65.7225 66.5687C65.7908 66.6121 65.8683 66.639 65.9488 66.6474C68.3743 66.4904 70.7853 66.223 73.1352 65.5676C74.3472 65.2305 75.5069 64.7741 76.4225 63.8571C76.889 63.3906 77.1956 62.85 77.1971 62.1757C77.1971 60.3446 77.1971 58.5135 77.2073 56.6824C77.2073 56.2464 77.0154 56.1272 76.6129 56.1301C74.9445 56.1432 73.2704 56.1301 71.6093 56.1388C71.5119 56.1449 71.4149 56.156 71.3186 56.1723V58.9044C71.3186 60.5408 70.3653 61.5086 68.7216 61.5115C64.3173 61.5174 59.9124 61.5174 55.5071 61.5115C53.8547 61.5115 52.9232 60.5844 52.8912 58.9204C52.8709 58.0135 52.8869 57.1038 52.8869 56.1316L52.8839 56.1359ZM54.6279 56.1621C54.6279 57.0457 54.6279 57.8595 54.6279 58.6733C54.6366 59.6688 54.7427 59.772 55.7178 59.772H68.4935C68.6562 59.772 68.8553 59.8243 68.9745 59.7502C69.1969 59.6049 69.5297 59.4058 69.5398 59.2125C69.5965 58.2068 69.566 57.1954 69.566 56.1606L54.6279 56.1621ZM64.1627 68.0222C64.1612 67.4738 63.9424 66.9484 63.5542 66.5611C63.1661 66.1737 62.6402 65.956 62.0918 65.9556C61.8156 65.9496 61.5409 65.9989 61.284 66.1007C61.0271 66.2025 60.7932 66.3547 60.5961 66.5483C60.399 66.742 60.2427 66.9732 60.1363 67.2282C60.03 67.4832 59.9758 67.757 59.977 68.0333C59.9782 68.3096 60.0346 68.5829 60.1431 68.8371C60.2516 69.0912 60.4099 69.321 60.6086 69.513C60.8074 69.705 61.0425 69.8552 61.3003 69.9548C61.558 70.0545 61.8331 70.1015 62.1093 70.0931C62.381 70.0949 62.6504 70.0422 62.9014 69.9382C63.1525 69.8342 63.3802 69.681 63.571 69.4875C63.7619 69.2941 63.9121 69.0644 64.0127 68.812C64.1133 68.5595 64.1624 68.2895 64.1569 68.0178L64.1627 68.0222ZM66.9835 54.3426L67.1419 54.44C67.2495 54.3237 67.4428 54.2103 67.45 54.0883C67.4837 53.5639 67.4759 53.0376 67.4268 52.5144C67.3889 52.1391 67.2131 51.7912 66.9333 51.5383C66.6535 51.2853 66.2897 51.1453 65.9125 51.1454C63.3751 51.127 60.8372 51.127 58.2988 51.1454C57.4269 51.1454 56.7743 51.8328 56.7424 52.712C56.719 53.1477 56.719 53.5843 56.7424 54.02C56.7511 54.1508 56.8877 54.2728 56.9734 54.3978C57.0461 54.2627 57.1696 54.1304 57.1798 53.9909C57.2089 53.5942 57.1798 53.1931 57.1958 52.7963C57.2336 52.0697 57.6841 51.609 58.4122 51.6061C60.8595 51.5935 63.3068 51.5935 65.7541 51.6061C66.5127 51.6061 66.9545 52.0784 66.9719 52.8399C66.9835 53.3253 66.9835 53.834 66.9835 54.3426ZM58.9906 53.3573V54.3629H65.2105V53.3573H58.9906Z" fill="#0274BA" stroke="white" stroke-width="0.2" mask="url(#path-2-inside-1_1021_191977)"/>
<path d="M47.3119 40.3449V40.3449C47.3206 42.1751 47.3235 44.0037 47.3119 45.8338C47.2965 45.984 47.3292 46.1352 47.4052 46.2657C47.4812 46.3963 47.5967 46.4993 47.7349 46.5601C48.5305 47.0028 49.3168 47.4611 50.1039 47.9199C50.4112 48.099 50.7186 48.2781 51.0267 48.4565L51.0267 48.4565C51.0576 48.4743 51.0881 48.4911 51.1181 48.5075C51.1825 48.5428 51.2445 48.5767 51.3034 48.6183C51.7108 48.9062 51.8204 49.3561 51.5902 49.7389L51.5891 49.7407C51.5397 49.8311 51.4727 49.9106 51.392 49.9746C51.3113 50.0386 51.2185 50.0857 51.1193 50.1132C51.02 50.1407 50.9162 50.148 50.8141 50.1346C50.712 50.1213 50.6136 50.0876 50.5247 50.0355L50.5239 50.035C49.0229 49.1951 47.5269 48.3469 46.0645 47.4466C45.9634 47.382 45.8744 47.2503 45.8085 47.0915C45.7432 46.9341 45.7039 46.7581 45.6969 46.6146C45.661 45.847 45.6667 45.08 45.6724 44.3126C45.6745 44.0282 45.6767 43.7436 45.6767 43.459V43.4529V43.4469V43.4408V43.4348V43.4287V43.4227V43.4166V43.4106V43.4045V43.3984V43.3924V43.3863V43.3803V43.3742V43.3682V43.3621V43.3561V43.35V43.344V43.3379V43.3319V43.3258V43.3197V43.3137V43.3076V43.3016V43.2955V43.2895V43.2834V43.2774V43.2713V43.2653V43.2592V43.2531V43.2471V43.241V43.235V43.2289V43.2229V43.2168V43.2108V43.2047V43.1987V43.1926V43.1865V43.1805V43.1744V43.1684V43.1623V43.1563V43.1502V43.1442V43.1381V43.1321V43.126V43.12V43.1139V43.1078V43.1018V43.0957V43.0897V43.0836V43.0776V43.0715V43.0655V43.0594V43.0534V43.0473V43.0412V43.0352V43.0291V43.0231V43.017V43.011V43.0049V42.9989V42.9928V42.9868V42.9807V42.9746V42.9686V42.9625V42.9565V42.9504V42.9444V42.9383V42.9323V42.9262V42.9202V42.9141V42.908V42.902V42.8959V42.8899V42.8838V42.8778V42.8717V42.8657V42.8596V42.8536V42.8475V42.8415V42.8354V42.8293V42.8233V42.8172V42.8112V42.8051V42.7991V42.793V42.787V42.7809V42.7749V42.7688V42.7627V42.7567V42.7506V42.7446V42.7385V42.7325V42.7264V42.7204V42.7143V42.7083V42.7022V42.6961V42.6901V42.684V42.678V42.6719V42.6659V42.6598V42.6538V42.6477V42.6417V42.6356V42.6296V42.6235V42.6174V42.6114V42.6053V42.5993V42.5932V42.5872V42.5811V42.5751V42.569V42.563V42.5569V42.5508V42.5448V42.5387V42.5327V42.5266V42.5206V42.5145V42.5085V42.5024V42.4964V42.4903V42.4842V42.4782V42.4721V42.4661V42.46V42.454V42.4479V42.4419V42.4358V42.4298V42.4237V42.4176V42.4116V42.4055V42.3995V42.3934V42.3874V42.3813V42.3753V42.3692V42.3632V42.3571V42.3511V42.345V42.3389V42.3329V42.3268V42.3208V42.3147V42.3087V42.3026V42.2966V42.2905V42.2845V42.2784V42.2723V42.2663V42.2602V42.2542V42.2481V42.2421V42.236V42.23V42.2239V42.2179V42.2118V42.2057V42.1997V42.1936V42.1876V42.1815V42.1755V42.1694V42.1634V42.1573V42.1513V42.1452V42.1392V42.1331V42.127V42.121V42.1149V42.1089V42.1028V42.0968V42.0907V42.0847V42.0786V42.0726V42.0665V42.0604V42.0544V42.0483V42.0423V42.0362V42.0302V42.0241V42.0181V42.012V42.006V41.9999V41.9938V41.9878V41.9817V41.9757V41.9696V41.9636V41.9575V41.9515V41.9454V41.9394V41.9333V41.9272V41.9212V41.9151V41.9091V41.903V41.897V41.8909V41.8849V41.8788V41.8728V41.8667V41.8607V41.8546V41.8485V41.8425V41.8364V41.8304V41.8243V41.8183V41.8122V41.8062V41.8001V41.7941V41.788V41.7819V41.7759V41.7698V41.7638V41.7577V41.7517V41.7456V41.7396V41.7335V41.7275V41.7214V41.7153V41.7093V41.7032V41.6972V41.6911V41.6851V41.679V41.673V41.6669V41.6609V41.6548V41.6488V41.6427V41.6366V41.6306V41.6245V41.6185V41.6124V41.6064V41.6003V41.5943V41.5882V41.5822V41.5761V41.57V41.564V41.5579V41.5519V41.5458V41.5398V41.5337V41.5277V41.5216V41.5156V41.5095V41.5034V41.4974V41.4913V41.4853V41.4792V41.4732V41.4671V41.4611V41.455V41.449V41.4429V41.4368V41.4308V41.4247V41.4187V41.4126V41.4066V41.4005V41.3945V41.3884V41.3824V41.3763V41.3703V41.3642V41.3581V41.3521V41.346V41.34V41.3339V41.3279V41.3218V41.3158V41.3097V41.3037V41.2976V41.2915V41.2855V41.2794V41.2734V41.2673V41.2613V41.2552V41.2492V41.2431V41.2371V41.231V41.2249V41.2189V41.2128V41.2068V41.2007V41.1947V41.1886V41.1826V41.1765V41.1705V41.1644V41.1583V41.1523V41.1462V41.1402V41.1341V41.1281V41.122V41.116V41.1099V41.1039V41.0978V41.0918V41.0857V41.0796V41.0736V41.0675V41.0615V41.0554V41.0494V41.0433V41.0373V41.0312V41.0252V41.0191V41.013V41.007V41.0009V40.9949V40.9888V40.9828V40.9767V40.9707V40.9646V40.9586V40.9525V40.9464V40.9404V40.9343V40.9283V40.9222V40.9162V40.9101V40.9041V40.898V40.892V40.8859V40.8799V40.8738V40.8677V40.8617V40.8556V40.8496V40.8435V40.8375V40.8314V40.8254V40.8193V40.8133V40.8072V40.8011V40.7951V40.789V40.783V40.7769V40.7709V40.7648V40.7588V40.7527V40.7467V40.7406V40.7345V40.7285V40.7224V40.7164V40.7103V40.7043V40.6982V40.6922V40.6861V40.6801V40.674V40.6679V40.6619V40.6558V40.6498V40.6437V40.6377V40.6316V40.6256V40.6195V40.6135V40.6074V40.6014V40.5953V40.5892V40.5832V40.5771V40.5711V40.565V40.559V40.5529V40.5469V40.5408V40.5348V40.5287V40.5226V40.5166V40.5105V40.5045V40.4984V40.4924V40.4863V40.4803V40.4742V40.4682V40.4621V40.456V40.45V40.4439V40.4379V40.4318V40.4258V40.4197V40.4137V40.4076V40.4016V40.3955V40.3895V40.3834V40.3773V40.3713V40.3652V40.3592C45.6767 40.0431 45.7574 39.7961 45.8959 39.6284C46.0336 39.4617 46.232 39.3685 46.4788 39.3657C46.7248 39.363 46.9308 39.4574 47.0763 39.6253C47.2224 39.7939 47.3104 40.0402 47.3119 40.3449Z" fill="#0274BA" stroke="white" stroke-width="0.1"/>
<path d="M33.3074 45.9654V45.9714H33.3574C33.4499 45.9714 33.5413 45.9694 33.6321 45.9674C33.8111 45.9636 33.9876 45.9598 34.1647 45.9712C34.3957 45.9902 34.5718 46.0678 34.6966 46.1929C34.8218 46.3182 34.9 46.4955 34.9267 46.7219C34.9378 46.8239 34.9285 46.9271 34.8995 47.0254C34.8704 47.1239 34.8221 47.2156 34.7573 47.2952C34.6926 47.3748 34.6126 47.4408 34.5222 47.4893C34.4319 47.5377 34.3329 47.5677 34.2309 47.5777C33.6582 47.6203 33.083 47.6203 32.5103 47.5777C32.3045 47.5561 32.1151 47.4559 31.9814 47.298C31.8476 47.14 31.78 46.9364 31.7927 46.7298C31.8072 46.5243 31.8982 46.3318 32.0479 46.1902C32.1976 46.0487 32.395 45.9685 32.601 45.9655L32.601 45.9656L32.6034 45.9655C32.769 45.9549 32.9334 45.9584 33.1005 45.9619C33.1689 45.9634 33.2378 45.9649 33.3074 45.9654Z" fill="#0274BA" stroke="white" stroke-width="0.1"/>
<path d="M47.3109 33.6148C47.3229 33.3504 47.3195 33.0855 47.3006 32.8215C47.2778 32.6165 47.1787 32.4276 47.0231 32.2923C46.8672 32.1567 46.6661 32.0848 46.4596 32.0909C46.2535 32.0976 46.0581 32.1843 45.9148 32.3325C45.7714 32.4808 45.6912 32.679 45.6913 32.8852L45.6914 32.8873L45.6913 32.8873C45.6696 33.4077 45.6696 33.9294 45.6913 34.4498L47.3109 33.6148ZM47.3109 33.6148L47.2928 33.6097L47.2976 33.6806C47.3168 33.9654 47.3144 34.2512 47.2905 34.5356M47.3109 33.6148L47.2905 34.5356M47.2905 34.5356C47.2789 34.6372 47.2473 34.7356 47.1976 34.8249C47.1478 34.9145 47.0807 34.9933 47.0002 35.0568C46.9197 35.1203 46.8274 35.1672 46.7287 35.1948C46.6299 35.2224 46.5267 35.2301 46.425 35.2175L46.4245 35.2175C46.1953 35.1915 46.0179 35.112 45.8954 34.9855C45.7733 34.8593 45.7011 34.6815 45.6913 34.4498L47.2905 34.5356Z" fill="#0274BA" stroke="white" stroke-width="0.1"/>
<path d="M36.1151 37.5615L36.1152 37.5614L36.1129 37.5593C35.9586 37.4088 35.8695 37.2038 35.8649 36.9883C35.8603 36.7728 35.9405 36.5642 36.0882 36.4073C36.162 36.3298 36.2504 36.2679 36.3484 36.225C36.4465 36.1821 36.5521 36.1592 36.6591 36.1575C36.766 36.1559 36.8723 36.1755 36.9716 36.2154C37.0709 36.2552 37.1613 36.3144 37.2375 36.3896L37.2375 36.3896L37.239 36.391C37.2867 36.4343 37.3347 36.4774 37.3827 36.5205C37.7268 36.8296 38.0716 37.1392 38.3229 37.508C38.3983 37.6435 38.4458 37.7927 38.4627 37.9468C38.4797 38.1014 38.4655 38.2577 38.421 38.4067C38.388 38.5022 38.2954 38.5866 38.1697 38.675C38.1242 38.7071 38.0763 38.7384 38.0272 38.7705C38.0092 38.7823 37.9911 38.7941 37.9729 38.8061C37.9146 38.8446 37.8558 38.8846 37.8012 38.927C37.7161 38.8853 37.635 38.8496 37.5605 38.8168C37.517 38.7976 37.4757 38.7794 37.4371 38.7615C37.323 38.7088 37.2289 38.6578 37.1517 38.5895L37.1186 38.6269L37.1518 38.5895C36.7881 38.2657 36.442 37.9225 36.1151 37.5615Z" fill="#0274BA" stroke="white" stroke-width="0.1"/>
<path d="M59.5949 45.9714H59.5952C59.6879 45.9714 59.7795 45.9692 59.8703 45.9671C60.0491 45.9629 60.2249 45.9588 60.4008 45.9712C60.6308 45.9902 60.8091 46.063 60.9353 46.1841C61.0614 46.3052 61.1405 46.4794 61.1629 46.7109L61.1628 46.7109L61.1632 46.7134C61.1781 46.8151 61.172 46.9189 61.1453 47.0182C61.1187 47.1175 61.072 47.2104 61.0082 47.291C60.9444 47.3717 60.8648 47.4385 60.7742 47.4873C60.6837 47.536 60.5842 47.5658 60.4818 47.5748C59.91 47.6213 59.3355 47.6237 58.7633 47.582C58.5573 47.5659 58.3661 47.4687 58.2317 47.3118C58.0972 47.1548 58.0306 46.9509 58.0464 46.7448L58.0465 46.7448L58.0466 46.7424C58.0522 46.5368 58.1372 46.3413 58.2838 46.1971C58.4304 46.0528 58.6271 45.9708 58.8328 45.9685L58.8333 45.9684C59.0107 45.9644 59.1855 45.9667 59.3607 45.9689C59.4386 45.9699 59.5166 45.9709 59.5949 45.9714Z" fill="#0274BA" stroke="white" stroke-width="0.1"/>
<path d="M55.6535 38.7047L55.6535 38.7047L55.653 38.7051C55.5017 38.8299 55.3332 38.8772 55.1665 38.8607C54.9991 38.8442 54.8302 38.7629 54.6812 38.6243C54.5313 38.4849 54.4291 38.3203 54.3951 38.1553C54.3616 37.992 54.3941 37.8257 54.5182 37.6759C54.9506 37.1748 55.4169 36.7041 55.914 36.2671L55.914 36.2671L55.9149 36.2664C55.9594 36.2253 56.0241 36.2027 56.1204 36.1816C56.1496 36.1752 56.1817 36.1689 56.2164 36.1622C56.2847 36.1488 56.3628 36.1336 56.4469 36.1117C56.4898 36.1474 56.5377 36.1823 56.5861 36.217C56.5948 36.2233 56.6036 36.2296 56.6124 36.2359C56.6606 36.2703 56.7089 36.3049 56.7551 36.3412C56.8654 36.4278 56.9552 36.5179 56.9937 36.6232C57.0346 36.7348 57.0555 36.8903 57.0476 37.0415C57.0397 37.1939 57.003 37.3324 56.9375 37.4165C56.5586 37.8921 56.1279 38.3242 55.6535 38.7047Z" fill="#0274BA" stroke="white" stroke-width="0.1"/>
<path d="M37.2233 57.1954L37.2233 57.1954L37.222 57.1967C37.1493 57.2675 37.0633 57.3233 36.969 57.3607C36.8746 57.3982 36.7737 57.4165 36.6722 57.4148C36.5707 57.413 36.4706 57.3911 36.3776 57.3504C36.2846 57.3097 36.2006 57.2509 36.1304 57.1776L36.1305 57.1775L36.1288 57.1759C36.0519 57.1027 35.9903 57.0148 35.9478 56.9174C35.9052 56.8201 35.8825 56.7153 35.881 56.6091C35.8795 56.5028 35.8992 56.3974 35.9389 56.2989C35.9786 56.2003 36.0376 56.1107 36.1124 56.0353L36.1124 56.0353L36.1138 56.0338C36.1661 55.9765 36.2181 55.9188 36.2701 55.8611C36.5695 55.5288 36.8682 55.1973 37.223 54.9508C37.3554 54.872 37.5027 54.8212 37.6556 54.8017C37.8084 54.7821 37.9636 54.7941 38.1116 54.837C38.2095 54.8743 38.2951 54.9721 38.3832 55.1006C38.4143 55.1461 38.4446 55.1936 38.4755 55.242C38.4879 55.2614 38.5004 55.2811 38.5131 55.3008C38.551 55.3595 38.5902 55.4183 38.6316 55.4722C38.5911 55.5615 38.5586 55.6442 38.5295 55.718C38.5171 55.7495 38.5053 55.7794 38.4939 55.8075C38.452 55.9101 38.4139 55.9891 38.3616 56.05C38.0024 56.4514 37.6225 56.8337 37.2233 57.1954Z" fill="#0274BA" stroke="white" stroke-width="0.1"/>
</svg>
