<svg width="101" height="101" viewBox="0 0 101 101" fill="none" xmlns="http://www.w3.org/2000/svg">
<rect x="0.75" y="0.75" width="99.397" height="99.397" rx="49.6985" fill="white" stroke="#0274BA" stroke-width="1.5"/>
<mask id="path-2-inside-1_1021_191989" fill="white">
<path d="M55.716 23.0165C56.7365 23.4083 57.1324 24.1538 57.0849 25.2342C57.0321 26.4749 57.0725 27.7156 57.0725 28.9562C57.6546 29.1475 58.2015 29.3491 58.7639 29.4949C58.8983 29.529 59.1382 29.4205 59.2333 29.3005C59.8867 28.4848 60.7242 28.2273 61.7478 28.2842C62.8458 28.3452 63.95 28.2976 65.0924 28.2976C65.4491 26.9029 66.2297 25.8401 67.5355 25.2094C68.4423 24.7657 69.4765 24.6559 70.4563 24.8992C71.439 25.1379 72.31 25.7066 72.9237 26.5104C73.5375 27.3141 73.8567 28.3041 73.8282 29.315C73.7996 30.3259 73.4249 31.2963 72.7668 32.0641C72.1087 32.8319 71.2069 33.3505 70.2123 33.5333C67.945 33.9531 66.2297 32.8096 65.0511 30.0646C63.7752 30.0646 62.4839 30.0573 61.1936 30.0749C61.0276 30.0973 60.8745 30.1766 60.7604 30.2993C59.8988 31.1443 59.0462 31.9969 58.2025 32.8571C58.0812 32.9721 58.0034 33.1255 57.9823 33.2914C57.9678 35.1328 57.973 36.9752 57.973 38.8972C58.8415 38.8972 59.6779 38.9117 60.5123 38.8786C60.6156 38.8786 60.748 38.6284 60.7997 38.4722C61.42 36.5843 63.1777 35.3116 65.0986 35.3706C67.1189 35.4326 68.7783 36.7425 69.2828 38.679C69.8753 40.9474 68.5539 43.3254 66.329 43.9953C64.0399 44.685 61.633 43.4856 60.8803 41.2338C60.7242 40.7665 60.5112 40.6352 60.048 40.6621C59.3615 40.7024 58.6688 40.6486 57.9802 40.6879C57.8715 40.6993 57.7664 40.7336 57.6719 40.7887C57.5774 40.8438 57.4957 40.9183 57.4323 41.0074C56.5379 42.5975 55.6746 44.2052 54.7969 45.8026C54.6707 46.0321 54.7038 46.1583 54.861 46.3795C55.2942 46.9713 55.6748 47.5999 55.9982 48.2581C56.1461 48.5735 56.3084 48.6034 56.5793 48.6024C58.767 48.6024 60.9551 48.6024 63.1435 48.6024C64.2281 48.6024 65.3147 48.5869 66.3993 48.6096C66.7539 48.6179 66.8956 48.5062 67.0041 48.162C67.6606 46.0797 69.6395 44.8483 71.818 45.1306C72.8157 45.2683 73.7355 45.7459 74.422 46.4829C75.1085 47.2199 75.5198 48.1712 75.5865 49.1762C75.7085 51.3826 74.3458 53.2436 72.2243 53.7719C71.1412 54.0349 69.9986 53.8754 69.0289 53.3259C68.0591 52.7764 67.3351 51.8782 67.0041 50.8139C66.8956 50.4676 66.7539 50.3631 66.4003 50.3652C63.127 50.3783 59.853 50.3783 56.5783 50.3652C56.2681 50.3652 56.1275 50.4469 55.9807 50.7622C55.6817 51.3945 55.3182 51.9942 54.8961 52.5519C54.7069 52.8052 54.6738 52.95 54.8206 53.2136C55.687 54.7803 56.5428 56.3522 57.3878 57.9292C57.5377 58.2104 57.7135 58.3149 58.0319 58.3056C58.7887 58.2828 59.5476 58.288 60.3065 58.3056C60.595 58.3118 60.7128 58.2197 60.8048 57.9302C61.4572 55.8624 63.4516 54.536 65.4677 54.8037C67.7258 55.1036 69.287 56.7619 69.4286 59.0127C69.562 61.1147 67.9956 63.0987 65.871 63.5216C64.8298 63.7295 63.7486 63.551 62.8295 63.0196C61.9104 62.4881 61.2163 61.64 60.8772 60.6339C60.7221 60.1676 60.5154 60.026 60.0501 60.0559C59.3843 60.0973 58.7143 60.0663 58.0113 60.0663C57.9968 60.2627 57.9761 60.4116 57.9761 60.5605C57.9761 62.1972 57.9627 63.8338 57.9885 65.4705C58.003 65.7335 58.1074 65.9835 58.2842 66.1787C59.0658 67.0058 59.8692 67.8102 60.6942 68.5918C60.8898 68.7691 61.14 68.8745 61.4035 68.8906C62.6245 68.9206 63.8466 68.9051 65.0542 68.9051C66.2421 66.1322 68.037 64.9649 70.3147 65.4581C72.461 65.9233 73.893 67.7471 73.8299 69.9359C73.7679 72.0874 72.2191 73.7934 70.0045 74.1501C67.855 74.4954 65.9899 73.1896 65.0831 70.6679C63.9159 70.6679 62.7289 70.6327 61.5451 70.6803C60.6498 70.7165 59.9116 70.4735 59.3595 69.7653C59.1082 69.4396 58.8425 69.3931 58.4672 69.5471C58.0268 69.7291 57.5605 69.8501 57.0766 70.0062C57.0766 71.2593 57.0363 72.4989 57.089 73.7355C57.1366 74.82 56.7385 75.5613 55.7201 75.9542H47.8584C46.8431 75.5603 46.4388 74.8242 46.4884 73.7365C46.5453 72.4958 46.5019 71.2551 46.5019 70.0145C46.3836 69.9633 46.2628 69.9181 46.14 69.879C44.4739 69.4402 42.8743 68.7795 41.3841 67.9146C41.0946 67.7471 40.9374 67.8112 40.7275 68.0242C39.9004 68.8751 39.0537 69.7115 38.21 70.55C37.3095 71.4444 36.3355 71.4568 35.4464 70.5748C33.8611 68.9964 32.2775 67.4111 30.6956 65.8189C29.8282 64.9463 29.8313 63.9579 30.6956 63.0925C31.532 62.2478 32.3664 61.4 33.2225 60.576C33.4758 60.331 33.5047 60.1624 33.3362 59.8357C32.8565 58.9052 32.4057 57.954 32.0045 56.9863C31.7099 56.277 31.5072 55.5295 31.2539 54.7686C29.9243 54.7686 28.5989 54.7686 27.2744 54.7686C26.0152 54.7686 25.3193 54.0707 25.3193 52.8166C25.3193 50.6109 25.3193 48.4053 25.3193 46.1996C25.3193 44.8762 25.9965 44.2011 27.3251 44.198C28.633 44.198 29.9398 44.198 31.2539 44.198C31.2862 44.1285 31.3148 44.0574 31.3397 43.985C31.8189 42.2414 32.5051 40.5614 33.3838 38.9809C33.4479 38.8651 33.3838 38.587 33.2752 38.4785C32.4264 37.5976 31.5507 36.7436 30.6904 35.873C29.8302 35.0025 29.8292 34.0182 30.6966 33.1466C32.2758 31.5613 33.8611 29.976 35.4526 28.3907C36.3273 27.5222 37.3136 27.5212 38.1779 28.3824C39.0237 29.2178 39.8704 30.0532 40.6955 30.9082C40.9364 31.1574 41.1091 31.205 41.4347 31.0292C42.3001 30.5722 43.1862 30.1452 44.0898 29.7709C44.8642 29.4504 45.6758 29.2209 46.506 28.9438C46.506 27.7114 46.5484 26.4707 46.4926 25.2342C46.4429 24.1476 46.8431 23.4083 47.8625 23.0165H55.716ZM56.2474 64.755C51.1203 66.0546 46.4254 65.304 42.2567 62.1703C38.088 59.0365 35.9623 54.75 35.9147 49.536C35.8755 45.1295 37.4542 41.2865 40.6221 38.2169C45.01 33.9665 50.2653 32.7662 56.2557 34.2012C55.9538 32.8303 56.4697 31.8108 57.6349 30.9847C57.0259 30.8193 56.5824 30.6953 56.1378 30.5764C55.5299 30.414 55.3169 30.1504 55.3107 29.5114C55.3045 28.6843 55.3107 27.8572 55.3107 27.0301V24.8103H48.2636C48.2636 26.3394 48.2636 27.8345 48.2636 29.3305C48.2636 30.1948 48.0889 30.4347 47.2597 30.627C45.2623 31.0955 43.3534 31.8827 41.6064 32.9585C40.9085 33.3834 40.6479 33.3513 40.071 32.7734C38.9999 31.7002 37.9329 30.6249 36.8928 29.5776L31.8887 34.6003C32.9485 35.6528 34.0496 36.7405 35.1445 37.8354C35.6284 38.3192 35.6769 38.6377 35.3202 39.2094C34.1943 41.0269 33.3709 43.0151 32.8823 45.0964C32.7272 45.7468 32.4563 45.9566 31.7957 45.9598C30.4175 45.9649 29.0393 45.9598 27.6601 45.9598H27.1183V53.0109C28.6361 53.0109 30.1166 53.0109 31.5972 53.0109C32.5194 53.0109 32.7283 53.1722 32.9412 54.08C33.403 56.0254 34.1707 57.8851 35.2158 59.5897C35.7038 60.3909 35.6738 60.607 34.9904 61.2894L31.8887 64.3776L36.9083 69.3807C37.9422 68.3333 39.0216 67.2426 40.1041 66.157C40.6159 65.64 40.923 65.5945 41.5164 65.9626C43.3197 67.0775 45.2912 67.8937 47.3548 68.3799C48.0651 68.5494 48.2523 68.8069 48.2533 69.544C48.2533 70.9057 48.2533 72.2663 48.2533 73.6279V74.1925H55.0512C55.1348 74.1861 55.2179 74.1754 55.3004 74.1604V73.5856C55.3004 72.2074 55.3004 70.8292 55.3004 69.45C55.3004 68.8141 55.5196 68.5546 56.1275 68.3902C56.5793 68.2692 57.029 68.1379 57.667 67.9591C56.3984 67.1681 55.9993 66.1136 56.2474 64.755ZM56.2071 61.1012L56.295 61.0909C56.2019 60.4188 56.2671 59.6713 55.9848 59.0903C55.1629 57.3874 54.1982 55.7529 53.3018 54.0862C53.154 53.8112 53.0268 53.6613 52.6701 53.776C52.3555 53.8679 52.0277 53.9063 51.7003 53.8898C49.1042 53.8195 47.1077 51.5604 47.4034 49.0428C47.7136 46.3661 50.0988 44.6364 52.7249 45.1998C53.0351 45.267 53.1468 45.1637 53.275 44.9217C53.7836 43.9643 54.2355 42.9656 54.8444 42.0744C55.9972 40.3974 56.4397 38.5818 56.2226 36.5719C56.1843 36.2008 56.0913 36.0374 55.7367 35.9361C53.7112 35.3465 51.58 35.214 49.4971 35.5484C43.7931 36.4561 39.1953 40.8213 37.9567 46.486C36.7181 52.1507 39.1064 58.0771 43.9699 61.248C47.6082 63.6198 51.5504 64.175 55.7387 63.0315C56.0975 62.9343 56.2474 62.7761 56.2154 62.3926C56.1792 61.9656 56.2071 61.5324 56.2071 61.1012ZM69.441 31.8274C69.7859 31.8293 70.1278 31.7629 70.447 31.632C70.7661 31.5011 71.0561 31.3083 71.3004 31.0647C71.5446 30.8212 71.7382 30.5316 71.87 30.2129C72.0018 29.8941 72.0691 29.5524 72.0682 29.2075C72.0713 28.8583 72.0051 28.5119 71.8735 28.1885C71.7419 27.865 71.5474 27.5709 71.3014 27.3231C71.0553 27.0753 70.7626 26.8788 70.44 26.7449C70.1175 26.611 69.7716 26.5424 69.4224 26.5431C68.7261 26.5514 68.0606 26.8313 67.5677 27.3233C67.0748 27.8152 66.7935 28.4802 66.7839 29.1765C66.7818 29.5256 66.8492 29.8717 66.982 30.1946C67.1148 30.5174 67.3104 30.8107 67.5576 31.0574C67.8047 31.304 68.0983 31.4991 68.4215 31.6313C68.7447 31.7635 69.0908 31.8301 69.44 31.8274H69.441ZM69.441 67.1413C68.7445 67.1363 68.0744 67.4072 67.5771 67.8948C67.0798 68.3825 66.7957 69.0471 66.787 69.7436C66.7791 70.0947 66.8413 70.444 66.97 70.7708C67.0987 71.0976 67.2912 71.3955 67.5364 71.647C67.7816 71.8985 68.0745 72.0986 68.398 72.2356C68.7214 72.3725 69.0689 72.4436 69.4202 72.4446C69.7714 72.4457 70.1194 72.3766 70.4436 72.2416C70.7679 72.1065 71.0619 71.9082 71.3086 71.6581C71.5553 71.408 71.7496 71.1113 71.8802 70.7852C72.0108 70.4591 72.075 70.1103 72.0692 69.7591C72.07 69.414 72.0025 69.0722 71.8704 68.7534C71.7384 68.4346 71.5445 68.1452 71.2999 67.9018C71.0553 67.6583 70.7649 67.4658 70.4455 67.3353C70.1261 67.2047 69.784 67.1388 69.4389 67.1413H69.441ZM51.7613 52.1321C52.2864 52.1373 52.8011 51.9862 53.2401 51.6982C53.6792 51.4102 54.0227 50.9982 54.2271 50.5145C54.4315 50.0309 54.4875 49.4974 54.3881 48.9818C54.2887 48.4662 54.0382 47.9918 53.6686 47.6189C53.299 47.2459 52.8269 46.9912 52.3123 46.8871C51.7976 46.783 51.2636 46.8343 50.7781 47.0343C50.2926 47.2343 49.8776 47.5741 49.5856 48.0105C49.2936 48.4469 49.1379 48.9603 49.1383 49.4854C49.1431 50.1819 49.4204 50.8489 49.9108 51.3436C50.4013 51.8383 51.0659 52.1213 51.7624 52.1321H51.7613ZM73.831 49.4957C73.8316 48.9719 73.6765 48.4598 73.3855 48.0243C73.0945 47.5889 72.6806 47.2497 72.1964 47.0499C71.7123 46.8501 71.1797 46.7986 70.6662 46.9021C70.1528 47.0056 69.6817 47.2593 69.3127 47.631C68.9437 48.0028 68.6936 48.4758 68.5939 48.99C68.4943 49.5042 68.5497 50.0364 68.7531 50.519C68.9565 51.0017 69.2988 51.413 69.7364 51.7008C70.174 51.9885 70.6873 52.1397 71.2111 52.1352C71.9074 52.1292 72.5733 51.8486 73.0639 51.3543C73.5545 50.8601 73.8302 50.1921 73.831 49.4957ZM65.0945 37.1468C64.7457 37.1363 64.3983 37.1951 64.0724 37.3196C63.7464 37.4441 63.4483 37.6319 63.1953 37.8722C62.9424 38.1125 62.7395 38.4005 62.5984 38.7197C62.4573 39.0388 62.3808 39.3827 62.3733 39.7315C62.3371 41.1594 63.493 42.3711 64.9467 42.429C66.4003 42.4869 67.6265 41.302 67.6668 39.8277C67.6791 39.1314 67.4155 38.4585 66.9337 37.9557C66.4518 37.4529 65.7907 37.161 65.0945 37.1437V37.1468ZM65.0263 61.8291C65.723 61.8294 66.3917 61.5543 66.8865 61.0637C67.3813 60.5732 67.6621 59.907 67.6679 59.2102C67.674 58.8582 67.6098 58.5085 67.4791 58.1815C67.3484 57.8546 67.1538 57.557 66.9067 57.3062C66.6596 57.0554 66.3649 56.8564 66.04 56.7208C65.7151 56.5852 65.3663 56.5158 65.0142 56.5167C64.6622 56.5175 64.3138 56.5885 63.9895 56.7256C63.6652 56.8627 63.3715 57.0631 63.1255 57.3151C62.8796 57.567 62.6864 57.8655 62.5573 58.1931C62.4281 58.5206 62.3655 58.8706 62.3733 59.2226C62.3836 59.9185 62.668 60.5821 63.1647 61.0695C63.6614 61.557 64.3304 61.8288 65.0263 61.826V61.8291Z"/>
</mask>
<path d="M55.716 23.0165C56.7365 23.4083 57.1324 24.1538 57.0849 25.2342C57.0321 26.4749 57.0725 27.7156 57.0725 28.9562C57.6546 29.1475 58.2015 29.3491 58.7639 29.4949C58.8983 29.529 59.1382 29.4205 59.2333 29.3005C59.8867 28.4848 60.7242 28.2273 61.7478 28.2842C62.8458 28.3452 63.95 28.2976 65.0924 28.2976C65.4491 26.9029 66.2297 25.8401 67.5355 25.2094C68.4423 24.7657 69.4765 24.6559 70.4563 24.8992C71.439 25.1379 72.31 25.7066 72.9237 26.5104C73.5375 27.3141 73.8567 28.3041 73.8282 29.315C73.7996 30.3259 73.4249 31.2963 72.7668 32.0641C72.1087 32.8319 71.2069 33.3505 70.2123 33.5333C67.945 33.9531 66.2297 32.8096 65.0511 30.0646C63.7752 30.0646 62.4839 30.0573 61.1936 30.0749C61.0276 30.0973 60.8745 30.1766 60.7604 30.2993C59.8988 31.1443 59.0462 31.9969 58.2025 32.8571C58.0812 32.9721 58.0034 33.1255 57.9823 33.2914C57.9678 35.1328 57.973 36.9752 57.973 38.8972C58.8415 38.8972 59.6779 38.9117 60.5123 38.8786C60.6156 38.8786 60.748 38.6284 60.7997 38.4722C61.42 36.5843 63.1777 35.3116 65.0986 35.3706C67.1189 35.4326 68.7783 36.7425 69.2828 38.679C69.8753 40.9474 68.5539 43.3254 66.329 43.9953C64.0399 44.685 61.633 43.4856 60.8803 41.2338C60.7242 40.7665 60.5112 40.6352 60.048 40.6621C59.3615 40.7024 58.6688 40.6486 57.9802 40.6879C57.8715 40.6993 57.7664 40.7336 57.6719 40.7887C57.5774 40.8438 57.4957 40.9183 57.4323 41.0074C56.5379 42.5975 55.6746 44.2052 54.7969 45.8026C54.6707 46.0321 54.7038 46.1583 54.861 46.3795C55.2942 46.9713 55.6748 47.5999 55.9982 48.2581C56.1461 48.5735 56.3084 48.6034 56.5793 48.6024C58.767 48.6024 60.9551 48.6024 63.1435 48.6024C64.2281 48.6024 65.3147 48.5869 66.3993 48.6096C66.7539 48.6179 66.8956 48.5062 67.0041 48.162C67.6606 46.0797 69.6395 44.8483 71.818 45.1306C72.8157 45.2683 73.7355 45.7459 74.422 46.4829C75.1085 47.2199 75.5198 48.1712 75.5865 49.1762C75.7085 51.3826 74.3458 53.2436 72.2243 53.7719C71.1412 54.0349 69.9986 53.8754 69.0289 53.3259C68.0591 52.7764 67.3351 51.8782 67.0041 50.8139C66.8956 50.4676 66.7539 50.3631 66.4003 50.3652C63.127 50.3783 59.853 50.3783 56.5783 50.3652C56.2681 50.3652 56.1275 50.4469 55.9807 50.7622C55.6817 51.3945 55.3182 51.9942 54.8961 52.5519C54.7069 52.8052 54.6738 52.95 54.8206 53.2136C55.687 54.7803 56.5428 56.3522 57.3878 57.9292C57.5377 58.2104 57.7135 58.3149 58.0319 58.3056C58.7887 58.2828 59.5476 58.288 60.3065 58.3056C60.595 58.3118 60.7128 58.2197 60.8048 57.9302C61.4572 55.8624 63.4516 54.536 65.4677 54.8037C67.7258 55.1036 69.287 56.7619 69.4286 59.0127C69.562 61.1147 67.9956 63.0987 65.871 63.5216C64.8298 63.7295 63.7486 63.551 62.8295 63.0196C61.9104 62.4881 61.2163 61.64 60.8772 60.6339C60.7221 60.1676 60.5154 60.026 60.0501 60.0559C59.3843 60.0973 58.7143 60.0663 58.0113 60.0663C57.9968 60.2627 57.9761 60.4116 57.9761 60.5605C57.9761 62.1972 57.9627 63.8338 57.9885 65.4705C58.003 65.7335 58.1074 65.9835 58.2842 66.1787C59.0658 67.0058 59.8692 67.8102 60.6942 68.5918C60.8898 68.7691 61.14 68.8745 61.4035 68.8906C62.6245 68.9206 63.8466 68.9051 65.0542 68.9051C66.2421 66.1322 68.037 64.9649 70.3147 65.4581C72.461 65.9233 73.893 67.7471 73.8299 69.9359C73.7679 72.0874 72.2191 73.7934 70.0045 74.1501C67.855 74.4954 65.9899 73.1896 65.0831 70.6679C63.9159 70.6679 62.7289 70.6327 61.5451 70.6803C60.6498 70.7165 59.9116 70.4735 59.3595 69.7653C59.1082 69.4396 58.8425 69.3931 58.4672 69.5471C58.0268 69.7291 57.5605 69.8501 57.0766 70.0062C57.0766 71.2593 57.0363 72.4989 57.089 73.7355C57.1366 74.82 56.7385 75.5613 55.7201 75.9542H47.8584C46.8431 75.5603 46.4388 74.8242 46.4884 73.7365C46.5453 72.4958 46.5019 71.2551 46.5019 70.0145C46.3836 69.9633 46.2628 69.9181 46.14 69.879C44.4739 69.4402 42.8743 68.7795 41.3841 67.9146C41.0946 67.7471 40.9374 67.8112 40.7275 68.0242C39.9004 68.8751 39.0537 69.7115 38.21 70.55C37.3095 71.4444 36.3355 71.4568 35.4464 70.5748C33.8611 68.9964 32.2775 67.4111 30.6956 65.8189C29.8282 64.9463 29.8313 63.9579 30.6956 63.0925C31.532 62.2478 32.3664 61.4 33.2225 60.576C33.4758 60.331 33.5047 60.1624 33.3362 59.8357C32.8565 58.9052 32.4057 57.954 32.0045 56.9863C31.7099 56.277 31.5072 55.5295 31.2539 54.7686C29.9243 54.7686 28.5989 54.7686 27.2744 54.7686C26.0152 54.7686 25.3193 54.0707 25.3193 52.8166C25.3193 50.6109 25.3193 48.4053 25.3193 46.1996C25.3193 44.8762 25.9965 44.2011 27.3251 44.198C28.633 44.198 29.9398 44.198 31.2539 44.198C31.2862 44.1285 31.3148 44.0574 31.3397 43.985C31.8189 42.2414 32.5051 40.5614 33.3838 38.9809C33.4479 38.8651 33.3838 38.587 33.2752 38.4785C32.4264 37.5976 31.5507 36.7436 30.6904 35.873C29.8302 35.0025 29.8292 34.0182 30.6966 33.1466C32.2758 31.5613 33.8611 29.976 35.4526 28.3907C36.3273 27.5222 37.3136 27.5212 38.1779 28.3824C39.0237 29.2178 39.8704 30.0532 40.6955 30.9082C40.9364 31.1574 41.1091 31.205 41.4347 31.0292C42.3001 30.5722 43.1862 30.1452 44.0898 29.7709C44.8642 29.4504 45.6758 29.2209 46.506 28.9438C46.506 27.7114 46.5484 26.4707 46.4926 25.2342C46.4429 24.1476 46.8431 23.4083 47.8625 23.0165H55.716ZM56.2474 64.755C51.1203 66.0546 46.4254 65.304 42.2567 62.1703C38.088 59.0365 35.9623 54.75 35.9147 49.536C35.8755 45.1295 37.4542 41.2865 40.6221 38.2169C45.01 33.9665 50.2653 32.7662 56.2557 34.2012C55.9538 32.8303 56.4697 31.8108 57.6349 30.9847C57.0259 30.8193 56.5824 30.6953 56.1378 30.5764C55.5299 30.414 55.3169 30.1504 55.3107 29.5114C55.3045 28.6843 55.3107 27.8572 55.3107 27.0301V24.8103H48.2636C48.2636 26.3394 48.2636 27.8345 48.2636 29.3305C48.2636 30.1948 48.0889 30.4347 47.2597 30.627C45.2623 31.0955 43.3534 31.8827 41.6064 32.9585C40.9085 33.3834 40.6479 33.3513 40.071 32.7734C38.9999 31.7002 37.9329 30.6249 36.8928 29.5776L31.8887 34.6003C32.9485 35.6528 34.0496 36.7405 35.1445 37.8354C35.6284 38.3192 35.6769 38.6377 35.3202 39.2094C34.1943 41.0269 33.3709 43.0151 32.8823 45.0964C32.7272 45.7468 32.4563 45.9566 31.7957 45.9598C30.4175 45.9649 29.0393 45.9598 27.6601 45.9598H27.1183V53.0109C28.6361 53.0109 30.1166 53.0109 31.5972 53.0109C32.5194 53.0109 32.7283 53.1722 32.9412 54.08C33.403 56.0254 34.1707 57.8851 35.2158 59.5897C35.7038 60.3909 35.6738 60.607 34.9904 61.2894L31.8887 64.3776L36.9083 69.3807C37.9422 68.3333 39.0216 67.2426 40.1041 66.157C40.6159 65.64 40.923 65.5945 41.5164 65.9626C43.3197 67.0775 45.2912 67.8937 47.3548 68.3799C48.0651 68.5494 48.2523 68.8069 48.2533 69.544C48.2533 70.9057 48.2533 72.2663 48.2533 73.6279V74.1925H55.0512C55.1348 74.1861 55.2179 74.1754 55.3004 74.1604V73.5856C55.3004 72.2074 55.3004 70.8292 55.3004 69.45C55.3004 68.8141 55.5196 68.5546 56.1275 68.3902C56.5793 68.2692 57.029 68.1379 57.667 67.9591C56.3984 67.1681 55.9993 66.1136 56.2474 64.755ZM56.2071 61.1012L56.295 61.0909C56.2019 60.4188 56.2671 59.6713 55.9848 59.0903C55.1629 57.3874 54.1982 55.7529 53.3018 54.0862C53.154 53.8112 53.0268 53.6613 52.6701 53.776C52.3555 53.8679 52.0277 53.9063 51.7003 53.8898C49.1042 53.8195 47.1077 51.5604 47.4034 49.0428C47.7136 46.3661 50.0988 44.6364 52.7249 45.1998C53.0351 45.267 53.1468 45.1637 53.275 44.9217C53.7836 43.9643 54.2355 42.9656 54.8444 42.0744C55.9972 40.3974 56.4397 38.5818 56.2226 36.5719C56.1843 36.2008 56.0913 36.0374 55.7367 35.9361C53.7112 35.3465 51.58 35.214 49.4971 35.5484C43.7931 36.4561 39.1953 40.8213 37.9567 46.486C36.7181 52.1507 39.1064 58.0771 43.9699 61.248C47.6082 63.6198 51.5504 64.175 55.7387 63.0315C56.0975 62.9343 56.2474 62.7761 56.2154 62.3926C56.1792 61.9656 56.2071 61.5324 56.2071 61.1012ZM69.441 31.8274C69.7859 31.8293 70.1278 31.7629 70.447 31.632C70.7661 31.5011 71.0561 31.3083 71.3004 31.0647C71.5446 30.8212 71.7382 30.5316 71.87 30.2129C72.0018 29.8941 72.0691 29.5524 72.0682 29.2075C72.0713 28.8583 72.0051 28.5119 71.8735 28.1885C71.7419 27.865 71.5474 27.5709 71.3014 27.3231C71.0553 27.0753 70.7626 26.8788 70.44 26.7449C70.1175 26.611 69.7716 26.5424 69.4224 26.5431C68.7261 26.5514 68.0606 26.8313 67.5677 27.3233C67.0748 27.8152 66.7935 28.4802 66.7839 29.1765C66.7818 29.5256 66.8492 29.8717 66.982 30.1946C67.1148 30.5174 67.3104 30.8107 67.5576 31.0574C67.8047 31.304 68.0983 31.4991 68.4215 31.6313C68.7447 31.7635 69.0908 31.8301 69.44 31.8274H69.441ZM69.441 67.1413C68.7445 67.1363 68.0744 67.4072 67.5771 67.8948C67.0798 68.3825 66.7957 69.0471 66.787 69.7436C66.7791 70.0947 66.8413 70.444 66.97 70.7708C67.0987 71.0976 67.2912 71.3955 67.5364 71.647C67.7816 71.8985 68.0745 72.0986 68.398 72.2356C68.7214 72.3725 69.0689 72.4436 69.4202 72.4446C69.7714 72.4457 70.1194 72.3766 70.4436 72.2416C70.7679 72.1065 71.0619 71.9082 71.3086 71.6581C71.5553 71.408 71.7496 71.1113 71.8802 70.7852C72.0108 70.4591 72.075 70.1103 72.0692 69.7591C72.07 69.414 72.0025 69.0722 71.8704 68.7534C71.7384 68.4346 71.5445 68.1452 71.2999 67.9018C71.0553 67.6583 70.7649 67.4658 70.4455 67.3353C70.1261 67.2047 69.784 67.1388 69.4389 67.1413H69.441ZM51.7613 52.1321C52.2864 52.1373 52.8011 51.9862 53.2401 51.6982C53.6792 51.4102 54.0227 50.9982 54.2271 50.5145C54.4315 50.0309 54.4875 49.4974 54.3881 48.9818C54.2887 48.4662 54.0382 47.9918 53.6686 47.6189C53.299 47.2459 52.8269 46.9912 52.3123 46.8871C51.7976 46.783 51.2636 46.8343 50.7781 47.0343C50.2926 47.2343 49.8776 47.5741 49.5856 48.0105C49.2936 48.4469 49.1379 48.9603 49.1383 49.4854C49.1431 50.1819 49.4204 50.8489 49.9108 51.3436C50.4013 51.8383 51.0659 52.1213 51.7624 52.1321H51.7613ZM73.831 49.4957C73.8316 48.9719 73.6765 48.4598 73.3855 48.0243C73.0945 47.5889 72.6806 47.2497 72.1964 47.0499C71.7123 46.8501 71.1797 46.7986 70.6662 46.9021C70.1528 47.0056 69.6817 47.2593 69.3127 47.631C68.9437 48.0028 68.6936 48.4758 68.5939 48.99C68.4943 49.5042 68.5497 50.0364 68.7531 50.519C68.9565 51.0017 69.2988 51.413 69.7364 51.7008C70.174 51.9885 70.6873 52.1397 71.2111 52.1352C71.9074 52.1292 72.5733 51.8486 73.0639 51.3543C73.5545 50.8601 73.8302 50.1921 73.831 49.4957ZM65.0945 37.1468C64.7457 37.1363 64.3983 37.1951 64.0724 37.3196C63.7464 37.4441 63.4483 37.6319 63.1953 37.8722C62.9424 38.1125 62.7395 38.4005 62.5984 38.7197C62.4573 39.0388 62.3808 39.3827 62.3733 39.7315C62.3371 41.1594 63.493 42.3711 64.9467 42.429C66.4003 42.4869 67.6265 41.302 67.6668 39.8277C67.6791 39.1314 67.4155 38.4585 66.9337 37.9557C66.4518 37.4529 65.7907 37.161 65.0945 37.1437V37.1468ZM65.0263 61.8291C65.723 61.8294 66.3917 61.5543 66.8865 61.0637C67.3813 60.5732 67.6621 59.907 67.6679 59.2102C67.674 58.8582 67.6098 58.5085 67.4791 58.1815C67.3484 57.8546 67.1538 57.557 66.9067 57.3062C66.6596 57.0554 66.3649 56.8564 66.04 56.7208C65.7151 56.5852 65.3663 56.5158 65.0142 56.5167C64.6622 56.5175 64.3138 56.5885 63.9895 56.7256C63.6652 56.8627 63.3715 57.0631 63.1255 57.3151C62.8796 57.567 62.6864 57.8655 62.5573 58.1931C62.4281 58.5206 62.3655 58.8706 62.3733 59.2226C62.3836 59.9185 62.668 60.5821 63.1647 61.0695C63.6614 61.557 64.3304 61.8288 65.0263 61.826V61.8291Z" fill="#0274BA" stroke="white" stroke-width="0.2" mask="url(#path-2-inside-1_1021_191989)"/>
<path d="M41.4763 48.5178C41.4886 48.3094 41.501 48.0992 41.5337 47.8946L41.4763 48.5178ZM41.4763 48.5178C41.47 48.6236 41.4638 48.729 41.455 48.8329M41.4763 48.5178L41.455 48.8329M41.455 48.8329C41.3983 49.5267 41.0267 49.9245 40.4767 49.8825M41.455 48.8329L40.4767 49.8825M40.4767 49.8825C39.9267 49.8406 39.6433 49.4333 39.6685 48.7511L40.4767 49.8825ZM45.3383 41.7396L45.3383 41.7396C43.1785 43.241 41.8989 45.2945 41.4843 47.8867L41.4843 47.8867C41.4512 48.0937 41.4385 48.3084 41.4261 48.5184C41.4199 48.6236 41.4138 48.7275 41.4051 48.8287L41.4051 48.8289C41.3774 49.1683 41.2731 49.4293 41.1143 49.5996C40.9566 49.7686 40.7415 49.8526 40.4805 49.8327C40.2182 49.8127 40.0244 49.7065 39.8977 49.528C39.7698 49.3477 39.7061 49.0876 39.7185 48.7529L39.7185 48.7528C39.7206 48.6928 39.7237 48.634 39.7268 48.575C39.7282 48.5471 39.7297 48.5192 39.731 48.491C40.0354 45.0524 41.5573 42.3133 44.4056 40.3344C44.6676 40.1525 44.9228 40.0813 45.1459 40.1066C45.3679 40.1318 45.5646 40.2533 45.7106 40.4703C45.8564 40.687 45.8924 40.9119 45.8302 41.1267C45.7677 41.343 45.6038 41.5551 45.3383 41.7396Z" fill="#0274BA" stroke="white" stroke-width="0.1"/>
</svg>
