<svg width="73" height="63" viewBox="0 0 73 63" fill="none" xmlns="http://www.w3.org/2000/svg">
<path d="M0.40918 6.08392C0.461928 5.93321 0.52598 5.78815 0.563658 5.63555C1.272 2.64018 3.71539 0.505752 6.78046 0.426629C10.4691 0.332435 14.1615 0.383301 17.8501 0.387069C18.6451 0.387069 19.069 0.797755 19.0596 1.45334C19.0502 2.10893 18.6169 2.48759 17.8162 2.48948C14.3612 2.4989 10.9061 2.50643 7.45488 2.48948C5.73679 2.48948 4.27113 3.03203 3.35933 4.51276C2.92227 5.22298 2.56622 6.12348 2.56245 6.93731C2.5097 17.7056 2.52666 28.4719 2.52666 39.2402C2.53449 39.3446 2.54896 39.4484 2.56999 39.551H70.5045V38.8822C70.5045 28.3501 70.5045 17.818 70.5045 7.28583C70.5045 4.9517 69.1293 3.12622 66.9704 2.63265C66.3931 2.52343 65.8055 2.4792 65.2184 2.50078C51.3731 2.49325 37.5285 2.49325 23.6845 2.50078C23.4029 2.51182 23.1209 2.503 22.8405 2.4744C22.2414 2.38586 21.9137 2.00344 21.9306 1.41001C21.9204 1.15821 22.0101 0.912559 22.1801 0.726596C22.3502 0.540633 22.5869 0.42943 22.8386 0.417212C23.072 0.392082 23.3067 0.382013 23.5413 0.387069C37.5046 0.387069 51.4673 0.387069 65.4294 0.387069C68.9899 0.387069 71.6217 2.29921 72.3997 5.47354C72.5472 6.11407 72.6181 6.76987 72.6107 7.42712C72.622 20.3329 72.622 33.2394 72.6107 46.1465C72.6107 50.1893 69.8527 53.032 65.808 53.1545C64.4893 53.1922 63.1706 53.1715 61.8519 53.1545C61.023 53.1451 60.5332 52.7419 60.5332 52.0958C60.5332 51.4496 61.0041 51.0502 61.8349 51.0446C63.082 51.0446 64.3273 51.0446 65.5725 51.0446C68.5867 51.0182 70.4819 49.1023 70.4857 46.0787C70.4857 44.6507 70.4857 43.2227 70.4857 41.7589H2.45319C2.53043 43.7332 2.45319 45.7151 2.73012 47.6479C2.98256 49.4282 4.68935 50.7563 6.49788 50.9711C6.9651 51.0232 7.43503 51.0471 7.90513 51.0427C23.9357 51.0427 39.9662 51.0427 55.9968 51.0427C56.2784 51.0313 56.5605 51.0407 56.8408 51.0709C57.0709 51.11 57.281 51.2258 57.4368 51.3996C57.5926 51.5734 57.6849 51.7949 57.6986 52.0279C57.7124 52.2608 57.6468 52.4916 57.5126 52.6825C57.3783 52.8735 57.1833 53.0133 56.9594 53.0792C56.6844 53.1403 56.4026 53.1656 56.1211 53.1545C53.3242 53.1545 50.5272 53.1545 47.7303 53.1545H46.8769C46.9655 53.4898 47.022 53.7536 47.103 54.0098C47.6587 55.7543 48.2333 57.4912 48.7646 59.2432C48.9096 59.7217 49.1018 59.9515 49.633 59.9044C50.1724 59.8658 50.7138 59.8658 51.2532 59.9044C51.9464 59.9402 52.3402 60.3377 52.3421 60.9481C52.3439 61.5585 51.9653 61.9428 51.2607 61.9993C51.0497 62.0163 50.8368 62.0106 50.6258 62.0106H22.4148C22.1564 62.0176 21.8979 62.0094 21.6405 61.9861C21.0414 61.9127 20.6985 61.566 20.6985 60.9556C20.6985 60.3453 21.0395 59.9723 21.6405 59.9252C22.2942 59.8724 22.9592 59.9252 23.6129 59.8818C23.8013 59.8705 24.0858 59.7255 24.1347 59.5785C24.8337 57.4893 25.4968 55.3888 26.207 53.1583H25.3122C19.3648 53.1583 13.4192 53.1583 7.47184 53.1583C4.23157 53.1583 1.69964 51.4006 0.750161 48.5541C0.625825 48.1773 0.522212 47.8005 0.40918 47.4237V6.08392ZM46.7413 59.8592C46.0348 57.6513 45.3755 55.5508 44.669 53.4653C44.62 53.3203 44.2659 53.1997 44.0549 53.1997C39.0249 53.1846 33.995 53.1997 28.9669 53.179C28.5392 53.179 28.3527 53.3127 28.2284 53.7197C27.6632 55.5809 27.0566 57.4328 26.4708 59.2903C26.418 59.458 26.3897 59.635 26.3389 59.8555L46.7413 59.8592Z" fill="#0274BA"/>
<path d="M27.3486 36.5651H11.7671C9.10137 36.5651 7.50384 34.9845 7.50195 32.3226C7.50195 25.0873 7.50195 17.85 7.50195 10.6109C7.50195 7.95088 9.10325 6.37408 11.7708 6.37219H42.9245C45.5902 6.37219 47.1896 7.95276 47.1915 10.6147C47.1915 17.8525 47.1915 25.0898 47.1915 32.3264C47.1915 34.9845 45.5883 36.5632 42.9208 36.5651H27.3486ZM27.3486 34.4495H42.9245C44.4165 34.4495 45.074 33.8015 45.0759 32.3057C45.0759 25.0929 45.0759 17.8796 45.0759 10.6656C45.0759 9.13019 44.4222 8.49156 42.8831 8.49156H11.7991C10.2637 8.49156 9.61378 9.13208 9.6119 10.6712C9.6119 17.8626 9.6119 25.0527 9.6119 32.2416C9.6119 33.8222 10.2505 34.4495 11.8405 34.4514L27.3486 34.4495Z" fill="#0274BA"/>
<path d="M58.2961 18.2311C56.9774 18.2311 55.6587 18.2443 54.3513 18.2311C52.5108 18.2085 51.1939 16.9595 51.128 15.1114C51.0771 13.7268 51.0771 12.3383 51.128 10.9537C51.1939 9.11503 52.5051 7.84718 54.357 7.82834C56.9869 7.80071 59.6167 7.80071 62.2466 7.82834C64.155 7.84718 65.4737 9.14705 65.5227 11.0648C65.5566 12.3798 65.5566 13.6954 65.5227 15.0116C65.47 16.9294 64.1475 18.2142 62.2429 18.233C60.9279 18.2424 59.613 18.2311 58.2961 18.2311ZM58.3414 16.1155C59.6092 16.1155 60.8752 16.1155 62.143 16.1155C63.0115 16.1155 63.3958 15.7387 63.409 14.8759C63.4297 13.6326 63.4316 12.3873 63.409 11.144C63.3958 10.3565 63.0077 9.95147 62.2372 9.94582C59.6324 9.92698 57.027 9.92698 54.421 9.94582C53.6317 9.94582 53.253 10.3226 53.2379 11.1251C53.2134 12.3911 53.2134 13.6608 53.2379 14.9268C53.253 15.7519 53.6373 16.1099 54.4738 16.1174C55.7605 16.1249 57.0509 16.1155 58.3414 16.1155Z" fill="#0274BA"/>
<path d="M58.6344 25.4198C56.824 25.4198 55.0155 25.4198 53.2051 25.4198C52.3592 25.4198 51.8976 25.0544 51.8863 24.395C51.8675 23.7036 52.3441 23.308 53.222 23.3061C56.8642 23.3061 60.5063 23.3061 64.1485 23.3061C65.0245 23.3061 65.5294 23.7036 65.5256 24.3705C65.5219 25.0374 65.0245 25.418 64.1391 25.4198C62.3029 25.4236 60.468 25.4236 58.6344 25.4198Z" fill="#0274BA"/>
<path d="M58.7281 30.2578C56.8442 30.2578 54.9698 30.2672 53.0915 30.2578C52.2137 30.2578 51.6899 29.6437 51.9141 28.9203C52.1195 28.2628 52.6545 28.146 53.2611 28.146C55.7742 28.146 58.2873 28.146 60.7966 28.146H63.9691C64.9826 28.146 65.4969 28.4983 65.5101 29.1897C65.5233 29.881 65.0165 30.2578 64.003 30.2597C62.2472 30.2622 60.4889 30.2616 58.7281 30.2578Z" fill="#0274BA"/>
<path d="M58.7685 33.0084C60.5789 33.0084 62.3875 33.0084 64.196 33.0084C65.0362 33.0084 65.5147 33.3851 65.5147 34.0407C65.5147 34.6963 65.0249 35.1164 64.2167 35.1183C60.5281 35.1258 56.8394 35.1258 53.1508 35.1183C52.3257 35.1183 51.866 34.6982 51.8792 34.0275C51.8924 33.3569 52.3313 33.0121 53.1301 33.0084C55.0102 33.0027 56.8903 33.0084 58.7685 33.0084Z" fill="#0274BA"/>
<path d="M36.4845 47.4216C36.1812 47.4216 35.8741 47.4404 35.5727 47.4216C34.9736 47.3764 34.5347 46.9355 34.5554 46.3798C34.578 45.7864 34.9114 45.3908 35.4973 45.3399C36.1731 45.2843 36.8524 45.2843 37.5282 45.3399C38.114 45.3889 38.4494 45.7807 38.4701 46.3741C38.4751 46.6471 38.3716 46.911 38.1823 47.1077C37.993 47.3045 37.7333 47.418 37.4603 47.4235C37.1457 47.4423 36.8123 47.4216 36.4845 47.4216Z" fill="#0274BA"/>
<path d="M13.5502 29.3893C13.5502 27.3886 13.5502 25.4614 13.5502 23.5361C13.5502 21.185 14.818 19.9228 17.1653 19.919C17.4234 19.919 17.6834 19.919 17.9415 19.919C19.7971 19.9567 21.1441 21.283 21.1535 23.1367C21.1723 25.209 21.1535 27.2699 21.1535 29.3893H23.5385V28.097C23.5385 25.1581 23.5385 22.2192 23.5385 19.2804C23.5385 17.2684 24.8289 16.0345 26.8183 15.9007C30.0831 15.6822 31.2982 17.4078 31.1757 20.1394C31.0495 22.954 31.1475 25.7798 31.1475 28.5999V29.4025H33.5306V28.5547C33.5306 24.0158 33.5306 19.4788 33.5306 14.9437C33.5306 12.6247 34.7702 11.3775 37.1099 11.3775C37.7192 11.3539 38.3288 11.4128 38.9222 11.5527C40.3276 11.9502 41.1414 13.171 41.1433 14.7836C41.1521 19.3664 41.1521 23.9505 41.1433 28.5359V29.378C41.349 29.4092 41.5528 29.452 41.7537 29.5061C41.9848 29.5662 42.1857 29.7092 42.3181 29.908C42.4505 30.1067 42.5051 30.3472 42.4715 30.5837C42.4716 30.8098 42.3904 31.0284 42.2428 31.1996C42.0951 31.3708 41.8907 31.4832 41.667 31.5162C41.4123 31.5565 41.1543 31.5723 40.8965 31.5633H13.8101C13.599 31.5702 13.3875 31.5639 13.1771 31.5444C12.612 31.4729 12.2597 31.1677 12.222 30.5912C12.1843 30.0147 12.4726 29.6097 13.0717 29.4816C13.2054 29.4439 13.3429 29.427 13.5502 29.3893ZM39.0296 29.3893V24.2934C39.0296 21.1925 39.0296 18.0929 39.0296 14.9946C39.0296 13.8228 38.698 13.4988 37.5225 13.4875H37.1702C35.9683 13.4969 35.6631 13.7983 35.6631 14.9795C35.6631 19.5586 35.6631 24.137 35.6631 28.7149C35.6631 28.9409 35.6876 29.1651 35.7008 29.3968L39.0296 29.3893ZM29.0281 29.3987C29.0281 25.8947 29.0413 22.4284 29.013 18.9639C29.013 18.4195 28.608 18.0804 28.0353 18.0408C27.732 18.0201 27.4249 18.0257 27.1216 18.0276C25.98 18.0276 25.6597 18.3516 25.6578 19.4876C25.6578 22.5596 25.6578 25.6328 25.6578 28.7073C25.6578 28.9334 25.6823 29.1576 25.6955 29.3987H29.0281ZM18.9964 29.3987C19.0134 29.2103 19.0417 29.0464 19.0417 28.8882C19.0417 27.0363 19.0417 25.1845 19.0417 23.3326C19.0417 22.3907 18.6649 22.0403 17.7079 22.029C17.4724 22.029 17.2388 22.029 17.0052 22.029C16.0632 22.0422 15.6752 22.4058 15.6695 23.3477C15.6582 25.0583 15.6695 26.7688 15.6695 28.4813V29.3968L18.9964 29.3987Z" fill="#0274BA"/>
</svg>
