<svg width="290" height="138" viewBox="0 0 290 138" fill="none" xmlns="http://www.w3.org/2000/svg">
<g filter="url(#filter0_d_867_813719)">
<path d="M27 53C27 37.9151 27 30.3726 31.6863 25.6863C36.3726 21 43.9151 21 59 21H230.2C245.285 21 252.827 21 257.514 25.6863C262.2 30.3726 262.2 37.9151 262.2 53V71.3399C262.2 86.4249 262.2 93.9673 257.514 98.6536C252.827 103.34 245.285 103.34 230.2 103.34H59C43.915 103.34 36.3726 103.34 31.6863 98.6536C27 93.9673 27 86.4249 27 71.3399V53Z" fill="white"/>
<path d="M27 21H262.2H27ZM262.2 87.3399C262.2 96.7288 254.589 104.34 245.2 104.34H44C34.6112 104.34 27 96.7288 27 87.3399C27 95.6242 34.1634 102.34 43 102.34H246.2C255.037 102.34 262.2 95.6242 262.2 87.3399ZM27 103.34V21V103.34ZM262.2 21V103.34V21Z" fill="#0274BA"/>
</g>
<path d="M122.978 84.1842H119.973C119.866 79.1118 119.574 74.3432 119.095 69.8747H119.069L114.493 84.1842H112.205L107.657 69.8747H107.631C107.294 74.1649 107.081 78.9347 106.993 84.1842H104.254C104.43 77.8006 104.874 71.816 105.583 66.2297H109.308L113.643 79.4225H113.669L118.031 66.2297H121.595C122.375 72.773 122.836 78.7582 122.978 84.1842ZM136.01 70.9374C134.787 77.5771 133.172 82.4014 131.169 85.4129C129.608 87.731 127.898 88.8913 126.036 88.8913C125.539 88.8913 124.927 88.7415 124.201 88.4441V86.8432C124.556 86.8943 124.972 86.9233 125.45 86.9233C126.32 86.9233 127.019 86.6841 127.552 86.2044C128.19 85.6202 128.509 84.9635 128.509 84.237C128.509 83.7388 128.26 82.7202 127.764 81.1779L124.467 70.9368H127.419L129.786 78.5962C130.318 80.3353 130.54 81.5496 130.451 82.2412C131.745 78.7843 132.649 75.015 133.164 70.9362H136.01V70.9374Z" fill="#5D87A1"/>
<path d="M176.01 84.1842H167.474V66.2298H170.346V81.9741H176.01V84.1842ZM165.24 84.618L161.939 82.9891C162.232 82.7487 162.512 82.4886 162.764 82.1872C164.167 80.5392 164.866 78.102 164.866 74.874C164.866 68.9341 162.535 65.9626 157.872 65.9626C155.585 65.9626 153.801 66.7164 152.526 68.2244C151.124 69.8736 150.424 72.3021 150.424 75.5127C150.424 78.6688 151.044 80.984 152.285 82.4526C153.42 83.7829 155.132 84.449 157.42 84.449C158.274 84.449 159.057 84.3445 159.771 84.1337L164.068 86.6353L165.24 84.618ZM154.547 80.5915C153.82 79.4219 153.457 77.544 153.457 74.9547C153.457 70.434 154.83 68.171 157.58 68.171C159.017 68.171 160.07 68.7122 160.744 69.7923C161.47 70.9636 161.835 72.8247 161.835 75.378C161.835 79.9359 160.461 82.2151 157.713 82.2151C156.275 82.2157 155.222 81.6762 154.547 80.5915ZM149.173 79.2077C149.173 80.7302 148.614 81.9793 147.498 82.9578C146.381 83.9322 144.882 84.4205 143.005 84.4205C141.249 84.4205 139.546 83.8596 137.898 82.7435L138.67 81.2018C140.088 81.912 141.372 82.265 142.525 82.265C143.607 82.265 144.452 82.0252 145.065 81.5496C145.678 81.0723 146.043 80.4027 146.043 79.5561C146.043 78.4894 145.299 77.5777 143.935 76.8141C142.676 76.123 140.16 74.6783 140.16 74.6783C138.796 73.6841 138.113 72.6168 138.113 70.8585C138.113 69.4033 138.622 68.2285 139.641 67.3348C140.661 66.4377 141.978 65.9905 143.592 65.9905C145.258 65.9905 146.773 66.4371 148.138 67.3209L147.446 68.8632C146.278 68.3673 145.126 68.1193 143.99 68.1193C143.07 68.1193 142.359 68.3406 141.865 68.7848C141.366 69.2273 141.059 69.7935 141.059 70.488C141.059 71.5495 141.819 72.4728 143.22 73.2515C144.496 73.9437 147.075 75.4134 147.075 75.4134C148.474 76.4058 149.173 77.4633 149.173 79.2077Z" fill="#F8981D"/>
<path d="M179.616 60.2161C177.88 60.1719 176.536 60.3467 175.407 60.8241C175.082 60.9541 174.564 60.9541 174.518 61.3658C174.694 61.54 174.715 61.8211 174.867 62.0615C175.127 62.4953 175.581 63.0789 175.995 63.3832C176.45 63.7316 176.906 64.0765 177.385 64.3802C178.228 64.9023 179.185 65.206 180.007 65.7263C180.486 66.0288 180.962 66.4202 181.442 66.746C181.678 66.9196 181.829 67.2012 182.135 67.3098V67.2436C181.981 67.0485 181.938 66.7663 181.787 66.5491L181.136 65.9208C180.506 65.0753 179.724 64.3372 178.88 63.731C178.186 63.2525 176.667 62.6021 176.385 61.8019L176.341 61.7578C176.818 61.7131 177.385 61.54 177.838 61.4071C178.576 61.2125 179.249 61.2567 180.006 61.0621C180.355 60.975 180.7 60.8659 181.05 60.7584V60.5627C180.657 60.1719 180.377 59.6528 179.965 59.2835C178.86 58.3294 177.643 57.3962 176.385 56.6152C175.712 56.1803 174.845 55.9004 174.128 55.5305C173.87 55.3998 173.434 55.3353 173.282 55.1182C172.893 54.6408 172.674 54.0125 172.392 53.4475C171.765 52.2553 171.155 50.9325 170.614 49.6718C170.223 48.8264 169.985 47.982 169.507 47.1998C167.272 43.5124 164.844 41.2791 161.112 39.087C160.31 38.6306 159.356 38.436 158.337 38.1968L156.71 38.1108C156.362 37.9587 156.015 37.5458 155.711 37.3507C154.473 36.5703 151.286 34.8787 150.375 37.112C149.789 38.5237 151.243 39.9116 151.742 40.6276C152.111 41.1246 152.589 41.6902 152.847 42.2547C153 42.6234 153.043 43.0148 153.195 43.4044C153.543 44.3591 153.867 45.4212 154.324 46.312C154.562 46.7661 154.821 47.2434 155.125 47.6545C155.3 47.8949 155.603 48.0012 155.669 48.3932C155.366 48.8252 155.343 49.4773 155.169 50.0197C154.389 52.4708 154.693 55.5072 155.8 57.3085C156.146 57.8509 156.971 59.0448 158.076 58.5872C159.054 58.197 158.837 56.9607 159.118 55.8765C159.183 55.6147 159.14 55.4428 159.27 55.2709V55.3133C159.573 55.9201 159.878 56.5049 160.159 57.1134C160.832 58.1755 162.004 59.2823 162.98 60.0181C163.5 60.4106 163.911 61.0819 164.562 61.3217V61.2567H164.519C164.388 61.0621 164.195 60.975 164.022 60.8241C163.63 60.4332 163.197 59.9559 162.893 59.5227C161.984 58.3073 161.179 56.9619 160.465 55.5734C160.115 54.8998 159.814 54.1635 159.532 53.4911C159.401 53.2315 159.401 52.8401 159.183 52.7094C158.857 53.1862 158.381 53.5991 158.143 54.1832C157.73 55.1176 157.687 56.2668 157.534 57.4618L157.449 57.5037C156.758 57.33 156.517 56.6152 156.255 56.0084C155.605 54.4672 155.496 51.9935 156.06 50.2154C156.211 49.7607 156.864 48.3287 156.603 47.8955C156.473 47.4803 156.038 47.244 155.8 46.917C155.52 46.5059 155.214 45.9856 155.019 45.5292C154.498 44.315 154.236 42.9695 153.676 41.7558C153.414 41.1902 152.959 40.6049 152.591 40.084C152.178 39.4987 151.723 39.0864 151.396 38.3925C151.288 38.1538 151.137 37.7636 151.31 37.504C151.353 37.3298 151.441 37.2648 151.614 37.2212C151.895 36.9837 152.698 37.2857 152.98 37.4163C153.784 37.7415 154.457 38.0452 155.128 38.5005C155.431 38.7182 155.757 39.1305 156.147 39.2391H156.603C157.296 39.3901 158.077 39.2809 158.729 39.4772C159.878 39.8465 160.92 40.3883 161.853 40.9731C164.695 42.775 167.038 45.3352 168.62 48.3932C168.879 48.8914 168.99 49.3478 169.226 49.8675C169.683 50.9314 170.248 52.0161 170.702 53.0573C171.158 54.0764 171.592 55.117 172.243 55.9637C172.568 56.4189 173.872 56.6576 174.457 56.8962C174.889 57.0908 175.563 57.2638 175.953 57.5025C176.691 57.9572 177.426 58.4792 178.12 58.9792C178.466 59.2393 179.552 59.7817 179.616 60.2161ZM157.488 41.3645C157.189 41.3613 156.89 41.3981 156.6 41.4736V41.5172H156.642C156.817 41.8639 157.121 42.1043 157.337 42.4068C157.512 42.7546 157.664 43.0996 157.835 43.4468L157.877 43.4038C158.183 43.1872 158.335 42.84 158.335 42.3191C158.203 42.1658 158.183 42.016 158.073 41.8639C157.945 41.6467 157.664 41.5387 157.488 41.3645Z" fill="#5D87A1"/>
<defs>
<filter id="filter0_d_867_813719" x="0.1" y="0.1" width="288.999" height="137.14" filterUnits="userSpaceOnUse" color-interpolation-filters="sRGB">
<feFlood flood-opacity="0" result="BackgroundImageFix"/>
<feColorMatrix in="SourceAlpha" type="matrix" values="0 0 0 0 0 0 0 0 0 0 0 0 0 0 0 0 0 0 127 0" result="hardAlpha"/>
<feOffset dy="6"/>
<feGaussianBlur stdDeviation="13.45"/>
<feComposite in2="hardAlpha" operator="out"/>
<feColorMatrix type="matrix" values="0 0 0 0 0.546429 0 0 0 0 0.546429 0 0 0 0 0.546429 0 0 0 0.19 0"/>
<feBlend mode="normal" in2="BackgroundImageFix" result="effect1_dropShadow_867_813719"/>
<feBlend mode="normal" in="SourceGraphic" in2="effect1_dropShadow_867_813719" result="shape"/>
</filter>
</defs>
</svg>
