<svg width="239" height="138" viewBox="0 0 239 138" fill="none" xmlns="http://www.w3.org/2000/svg">
<g filter="url(#filter0_d_736_436)">
<path d="M27 53C27 37.9151 27 30.3726 31.6863 25.6863C36.3726 21 43.9151 21 59 21H179.502C194.587 21 202.13 21 206.816 25.6863C211.502 30.3726 211.502 37.9151 211.502 53V71.3399C211.502 86.4248 211.502 93.9673 206.816 98.6536C202.13 103.34 194.587 103.34 179.502 103.34H59C43.915 103.34 36.3726 103.34 31.6863 98.6536C27 93.9673 27 86.4248 27 71.3399V53Z" fill="white"/>
<path d="M27 21H211.502H27ZM211.502 87.3399C211.502 96.7287 203.891 104.34 194.502 104.34H44C34.6112 104.34 27 96.7287 27 87.3399C27 95.6241 34.1634 102.34 43 102.34H195.502C204.339 102.34 211.502 95.6241 211.502 87.3399ZM27 103.34V21V103.34ZM211.502 21V103.34V21Z" fill="#0274BA"/>
</g>
<path d="M97.6724 83.5769H94.6943C94.589 78.5502 94.299 73.8245 93.8248 69.3964H93.7984L89.2643 83.5769H86.997L82.49 69.3964H82.4641C82.1297 73.6479 81.9191 78.3747 81.8316 83.5769H79.1172C79.2921 77.2508 79.7318 71.3201 80.4344 65.7842H84.1254L88.4212 78.8581H88.4477L92.77 65.7842H96.3016C97.075 72.2685 97.5319 78.1998 97.6724 83.5769ZM110.587 70.4494C109.375 77.0293 107.775 81.8102 105.79 84.7945C104.243 87.0918 102.548 88.2416 100.703 88.2416C100.211 88.2416 99.6036 88.0931 98.8843 87.7985V86.2119C99.2359 86.2625 99.6485 86.2913 100.123 86.2913C100.985 86.2913 101.678 86.0542 102.206 85.5789C102.838 85 103.154 84.3491 103.154 83.6292C103.154 83.1355 102.907 82.1261 102.416 80.5977L99.1478 70.4489H102.073L104.419 78.0392C104.946 79.7627 105.166 80.966 105.078 81.6514C106.361 78.2257 107.257 74.4903 107.767 70.4483H110.587V70.4494Z" fill="#5D87A1"/>
<path d="M150.228 83.576H141.768V65.7833H144.614V81.3857H150.228V83.576ZM139.554 84.0058L136.283 82.3917C136.573 82.1534 136.85 81.8956 137.1 81.5969C138.491 79.9638 139.184 77.5486 139.184 74.3496C139.184 68.4632 136.874 65.5186 132.253 65.5186C129.986 65.5186 128.219 66.2655 126.954 67.76C125.565 69.3943 124.872 71.8009 124.872 74.9826C124.872 78.1102 125.486 80.4046 126.716 81.8599C127.841 83.1783 129.537 83.8384 131.805 83.8384C132.651 83.8384 133.427 83.7348 134.134 83.5259L138.393 86.005L139.554 84.0058ZM128.958 80.0156C128.238 78.8566 127.877 76.9956 127.877 74.4296C127.877 69.9496 129.238 67.707 131.963 67.707C133.387 67.707 134.431 68.2434 135.099 69.3137C135.818 70.4744 136.18 72.3188 136.18 74.8491C136.18 79.3659 134.818 81.6246 132.095 81.6246C130.67 81.6251 129.626 81.0905 128.958 80.0156ZM123.632 78.6443C123.632 80.1531 123.078 81.3909 121.972 82.3606C120.865 83.3262 119.38 83.8102 117.52 83.8102C115.779 83.8102 114.092 83.2543 112.459 82.1482L113.224 80.6204C114.629 81.3242 115.901 81.6741 117.044 81.6741C118.116 81.6741 118.954 81.4364 119.561 80.9651C120.168 80.4921 120.53 79.8285 120.53 78.9895C120.53 77.9324 119.793 77.0289 118.441 76.2722C117.194 75.5874 114.7 74.1557 114.7 74.1557C113.348 73.1705 112.671 72.1128 112.671 70.3703C112.671 68.9282 113.176 67.764 114.186 66.8784C115.197 65.9893 116.502 65.5462 118.101 65.5462C119.752 65.5462 121.254 65.9887 122.606 66.8646L121.92 68.393C120.763 67.9015 119.622 67.6558 118.496 67.6558C117.583 67.6558 116.879 67.8751 116.389 68.3153C115.896 68.7538 115.591 69.3149 115.591 70.0031C115.591 71.0551 116.344 71.97 117.733 72.7417C118.997 73.4277 121.553 74.8842 121.553 74.8842C122.939 75.8676 123.632 76.9156 123.632 78.6443Z" fill="#F8981D"/>
<path d="M153.799 59.8241C152.078 59.7803 150.746 59.9536 149.628 60.4266C149.305 60.5555 148.792 60.5555 148.747 60.9635C148.921 61.1361 148.941 61.4146 149.093 61.6529C149.35 62.0828 149.8 62.6611 150.21 62.9626C150.661 63.3079 151.113 63.6497 151.587 63.9507C152.423 64.468 153.371 64.769 154.186 65.2846C154.661 65.5844 155.133 65.9723 155.608 66.2951C155.842 66.4672 155.991 66.7463 156.295 66.8539V66.7883C156.143 66.595 156.099 66.3153 155.95 66.1001L155.305 65.4774C154.681 64.6395 153.906 63.9081 153.07 63.3073C152.381 62.8332 150.876 62.1886 150.597 61.3957L150.553 61.3519C151.026 61.3076 151.587 61.1361 152.037 61.0043C152.768 60.8116 153.435 60.8553 154.185 60.6625C154.531 60.5762 154.873 60.468 155.22 60.3616V60.1676C154.831 59.7803 154.553 59.2659 154.144 58.8999C153.05 57.9544 151.843 57.0296 150.597 56.2556C149.929 55.8246 149.071 55.5472 148.36 55.1807C148.104 55.0512 147.672 54.9873 147.522 54.7721C147.136 54.2991 146.919 53.6764 146.639 53.1165C146.018 51.9351 145.414 50.6242 144.878 49.3748C144.49 48.537 144.254 47.7003 143.781 46.9251C141.566 43.2709 139.16 41.0577 135.462 38.8853C134.667 38.433 133.722 38.2402 132.712 38.0032L131.099 37.918C130.754 37.7672 130.41 37.3581 130.109 37.1647C128.882 36.3913 125.724 34.715 124.821 36.9282C124.24 38.3271 125.681 39.7025 126.176 40.412C126.541 40.9046 127.015 41.4651 127.271 42.0245C127.422 42.3899 127.465 42.7778 127.616 43.1639C127.96 44.11 128.282 45.1625 128.734 46.0452C128.97 46.4952 129.227 46.9683 129.529 47.3757C129.701 47.6139 130.002 47.7192 130.067 48.1077C129.768 48.5358 129.744 49.1821 129.572 49.7195C128.798 52.1486 129.101 55.1577 130.197 56.9427C130.54 57.4802 131.358 58.6634 132.453 58.2099C133.422 57.8232 133.207 56.598 133.486 55.5237C133.549 55.2641 133.507 55.0938 133.636 54.9234V54.9655C133.936 55.5668 134.239 56.1463 134.517 56.7494C135.184 57.8019 136.345 58.8987 137.312 59.6278C137.827 60.0169 138.235 60.6821 138.881 60.9198V60.8553H138.838C138.707 60.6625 138.516 60.5762 138.345 60.4266C137.957 60.0393 137.528 59.5663 137.227 59.137C136.325 57.9325 135.528 56.5992 134.82 55.2233C134.474 54.5557 134.175 53.826 133.896 53.1597C133.766 52.9024 133.766 52.5146 133.55 52.3851C133.227 52.8575 132.755 53.2667 132.519 53.8456C132.11 54.7715 132.068 55.9104 131.916 57.0947L131.831 57.1361C131.146 56.964 130.908 56.2556 130.648 55.6543C130.004 54.127 129.896 51.6755 130.455 49.9135C130.604 49.4629 131.252 48.0438 130.993 47.6145C130.864 47.2031 130.433 46.9688 130.197 46.6449C129.92 46.2374 129.616 45.7218 129.423 45.2695C128.907 44.0662 128.648 42.7329 128.092 41.5302C127.833 40.9697 127.382 40.3896 127.017 39.8734C126.608 39.2933 126.157 38.8848 125.833 38.1971C125.726 37.9606 125.576 37.5739 125.748 37.3166C125.79 37.144 125.877 37.0795 126.049 37.0364C126.327 36.801 127.123 37.1003 127.402 37.2297C128.199 37.552 128.866 37.853 129.531 38.3041C129.832 38.5199 130.155 38.9285 130.541 39.0361H130.993C131.68 39.1857 132.454 39.0775 133.1 39.2721C134.239 39.638 135.271 40.1749 136.196 40.7544C139.012 42.5401 141.334 45.0773 142.901 48.1077C143.159 48.6014 143.268 49.0537 143.503 49.5688C143.956 50.623 144.515 51.698 144.965 52.7298C145.417 53.7397 145.847 54.7709 146.492 55.61C146.814 56.0611 148.106 56.2976 148.686 56.5342C149.115 56.7269 149.782 56.8984 150.169 57.1349C150.9 57.5855 151.629 58.1029 152.316 58.5983C152.659 58.8561 153.735 59.3936 153.799 59.8241ZM131.87 41.1423C131.573 41.1392 131.278 41.1756 130.99 41.2505V41.2936H131.032C131.205 41.6372 131.506 41.8754 131.721 42.1753C131.894 42.52 132.044 42.8618 132.214 43.2059L132.255 43.1633C132.559 42.9487 132.709 42.6045 132.709 42.0884C132.579 41.9364 132.559 41.788 132.45 41.6372C132.323 41.422 132.044 41.3149 131.87 41.1423Z" fill="#5D87A1"/>
<path d="M155.848 83.574H156.293V81.3941H155.625L155.08 82.8817L154.488 81.3941H153.845V83.574H154.265V81.9155H154.289L154.909 83.574H155.23L155.848 81.9155V83.574ZM152.26 83.574H152.731V81.7636H153.348V81.3936H151.617V81.7636H152.259L152.26 83.574Z" fill="#F8981D"/>
<defs>
<filter id="filter0_d_736_436" x="0.1" y="0.1" width="238.302" height="137.14" filterUnits="userSpaceOnUse" color-interpolation-filters="sRGB">
<feFlood flood-opacity="0" result="BackgroundImageFix"/>
<feColorMatrix in="SourceAlpha" type="matrix" values="0 0 0 0 0 0 0 0 0 0 0 0 0 0 0 0 0 0 127 0" result="hardAlpha"/>
<feOffset dy="6"/>
<feGaussianBlur stdDeviation="13.45"/>
<feComposite in2="hardAlpha" operator="out"/>
<feColorMatrix type="matrix" values="0 0 0 0 0.546429 0 0 0 0 0.546429 0 0 0 0 0.546429 0 0 0 0.19 0"/>
<feBlend mode="normal" in2="BackgroundImageFix" result="effect1_dropShadow_736_436"/>
<feBlend mode="normal" in="SourceGraphic" in2="effect1_dropShadow_736_436" result="shape"/>
</filter>
</defs>
</svg>
