<svg width="60" height="60" viewBox="0 0 60 60" fill="none" xmlns="http://www.w3.org/2000/svg">
<path d="M29.2885 8.76349C29.2885 7.53926 29.2793 6.32383 29.2976 5.09959C29.2976 4.77372 29.1971 4.57995 28.8772 4.42142C27.8444 3.91939 27.3783 2.84488 27.6708 1.71753C27.9176 0.766324 28.9503 0.00888179 30.0105 7.43298e-05C31.0433 -0.00873313 32.1126 0.766323 32.3593 1.70872C32.6518 2.82727 32.1766 3.91939 31.1621 4.41261C30.8513 4.56234 30.7325 4.74729 30.7325 5.08198C30.7417 7.54806 30.7417 10.023 30.7417 12.489C30.7417 12.9999 30.7782 12.9999 31.2809 13.0615C32.0303 13.1496 32.7706 13.3346 33.5201 13.405C34.7722 13.5283 35.9238 13.9599 37.057 14.4443C38.9398 15.237 40.6123 16.3379 42.0655 17.7207C42.358 17.9937 42.5133 17.9937 42.8241 17.7295C44.2772 16.4964 45.2735 14.9904 45.7944 13.2025C46.1508 11.9782 46.1691 10.7099 46.1143 9.45047C46.1051 9.30075 45.9315 9.09818 45.7853 9.02772C44.7708 8.5345 44.1676 7.56568 44.2772 6.53521C44.3869 5.48712 45.1638 4.6416 46.2605 4.38619C47.4212 4.10435 48.6916 4.73849 49.1669 5.83942C49.633 6.90512 49.2126 8.31431 48.1615 8.83395C47.6132 9.10698 47.4852 9.44167 47.5126 9.97892C47.5857 11.485 47.4304 12.9646 46.8911 14.4003C46.2879 16.012 45.3466 17.4036 44.0213 18.5486C43.409 19.077 43.409 19.0682 43.9025 19.7024C45.8035 22.1596 46.9003 24.9252 47.2567 27.9637C47.2841 28.1751 47.2841 28.3865 47.275 28.5979C47.275 28.8973 47.4121 29.0206 47.7228 29.0206C48.4997 29.0118 49.2765 29.0206 50.0534 29.0206C51.7168 29.0206 53.3802 29.0118 55.0436 29.0206C55.3452 29.0206 55.5371 28.9414 55.6925 28.6683C56.2043 27.7788 57.2553 27.3472 58.2241 27.5674C59.202 27.7964 59.9423 28.6419 59.9972 29.6372C60.052 30.5972 59.3026 31.4955 58.4069 31.795C57.4107 32.1297 56.2683 31.7245 55.729 30.8086C55.5371 30.4739 55.3086 30.3946 54.9522 30.3946C52.5759 30.4034 50.2088 30.4034 47.8325 30.3946C47.4395 30.3946 47.275 30.5003 47.2567 30.9054C47.1745 32.94 46.6444 34.8864 45.7213 36.7007C45.1821 37.7664 44.4875 38.7617 43.8203 39.7657C43.6192 40.0652 43.6375 40.2237 43.9025 40.4527C45.9589 42.223 47.1562 44.4425 47.4669 47.0759C47.5583 47.8686 47.5218 48.6789 47.5218 49.4804C47.5218 49.7798 47.6132 49.9472 47.9056 50.0881C48.847 50.5461 49.3862 51.3035 49.3771 52.3252C49.3771 53.3556 48.8379 54.1307 47.8691 54.5799C46.6627 55.1348 45.1364 54.6327 44.524 53.4966C43.8751 52.2899 44.3138 50.7839 45.5659 50.1673C45.9681 49.9736 46.0594 49.7358 46.0594 49.3394C46.0686 47.9479 46.0503 46.5563 45.5385 45.2176C44.9718 43.7115 44.0488 42.452 42.8241 41.3863C42.5682 41.1573 42.4493 41.3247 42.294 41.4744C40.9231 42.8219 39.3602 43.8964 37.6054 44.7243C35.6861 45.6315 33.6663 46.1776 31.5368 46.3537C30.632 46.433 30.7508 46.3185 30.7508 47.164C30.7508 49.4363 30.7599 51.7087 30.7508 53.981C30.7508 54.298 30.8422 54.4654 31.1529 54.6063C32.1583 55.0731 32.6792 56.2004 32.4142 57.2661C32.1491 58.3407 31.1895 59.0893 30.0562 59.1069C28.8955 59.1245 27.9084 58.4111 27.6068 57.3278C27.3143 56.2973 27.8079 55.1348 28.8132 54.6415C29.1879 54.4566 29.2702 54.2452 29.2702 53.8841C29.2611 51.5589 29.2611 49.2338 29.2793 46.9086C29.2793 46.5475 29.1879 46.4066 28.7858 46.3801C25.8886 46.1776 23.1833 45.3673 20.7613 43.8172C19.6737 43.1214 18.7049 42.2671 17.7087 41.4568C17.4711 41.263 17.3523 41.2454 17.1147 41.4568C15.0126 43.3416 13.9341 45.6491 13.9707 48.4235C13.9798 48.767 13.9981 49.1105 13.9616 49.4451C13.9341 49.7798 14.0712 49.956 14.382 50.1057C15.3782 50.5813 15.9174 51.603 15.7712 52.651C15.6341 53.6375 14.8481 54.483 13.8336 54.7208C12.5541 55.0203 11.2471 54.3685 10.781 53.1883C10.3149 51.9905 10.845 50.6429 12.0514 50.0881C12.3713 49.9383 12.481 49.7534 12.4718 49.4275C12.417 47.8598 12.481 46.3097 13.0476 44.8036C13.6965 43.0862 14.6927 41.6153 16.1185 40.4087C16.3744 40.1973 16.3835 40.0564 16.1824 39.801C14.4277 37.5727 13.3126 35.0714 12.8648 32.3058C12.7826 31.8038 12.7369 31.293 12.6912 30.7821C12.6637 30.5003 12.5358 30.4034 12.2433 30.4034C9.79394 30.4122 7.33542 30.4122 4.88604 30.4034C4.56615 30.4034 4.4382 30.5619 4.31025 30.7997C3.84413 31.61 2.86621 32.0504 1.9157 31.8919C0.974333 31.7421 0.224895 31.0287 0.0421051 30.1304C-0.168103 29.0735 0.425963 28.0166 1.44045 27.6379C2.50977 27.2415 3.6979 27.6026 4.28283 28.5715C4.47476 28.8973 4.69411 28.9942 5.05968 28.9942C7.39026 28.9854 9.72083 28.9942 12.0514 28.9942C12.6637 28.9942 12.6912 28.9678 12.7369 28.3865C12.9836 25.2687 14.0712 22.4503 15.9631 19.9225C16.1185 19.72 16.2738 19.5174 16.4384 19.3324C16.6211 19.1299 16.5023 19.0066 16.3561 18.8656C15.9448 18.4781 15.5153 18.1082 15.1497 17.6943C13.6782 16.0473 12.7734 14.1537 12.5815 11.9694C12.5084 11.1767 12.5175 10.3665 12.5084 9.57378C12.5084 9.29194 12.4261 9.1246 12.1428 9.00129C10.4885 8.24385 10.3606 6.37667 11.1374 5.36382C11.7407 4.57995 12.5906 4.21004 13.5686 4.36857C14.5739 4.52711 15.2868 5.08198 15.6432 6.09483C15.9814 7.08127 15.4421 8.56092 14.2723 9.01891C13.989 9.1246 13.8976 9.30075 13.8793 9.59139C13.797 11.3705 14.0164 13.1144 14.775 14.7438C15.0948 15.4219 15.6249 16.0208 16.0728 16.6374C16.4018 17.0953 16.8039 17.4917 17.2792 17.8264C17.5168 17.9937 17.6448 18.0289 17.855 17.8176C19.4361 16.2939 21.264 15.1049 23.3295 14.3034C24.3257 13.9159 25.3951 13.6781 26.4552 13.4403C27.2778 13.2553 28.1369 13.176 28.9777 13.0615C29.2793 13.0175 29.2885 12.8149 29.2885 12.5947C29.2885 11.3088 29.2885 10.0406 29.2885 8.76349ZM30.0196 14.4707C21.2366 14.5324 14.3363 21.2084 14.2449 29.4698C14.1443 37.9778 21.1817 44.8653 30.0196 44.8653C38.7936 44.8653 45.7396 38.1011 45.7944 29.7957C45.8492 21.3405 38.7387 14.4707 30.0196 14.4707Z" fill="#2776EA"/>
<path d="M20.2026 32.5178C20.2483 31.9805 20.294 31.2936 20.3854 30.6154C20.4037 30.4833 20.5317 30.3335 20.6505 30.2543C22.7251 28.9508 22.9719 25.9298 21.2171 24.2212C21.0617 24.0714 20.9521 23.816 20.9521 23.6046C20.9521 22.9529 21.0161 22.2923 21.0343 21.6406C21.0526 21.2619 21.2263 21.0681 21.6284 20.9888C24.3063 20.4428 26.9659 19.8439 29.6529 19.3242C30.1555 19.2273 30.7222 19.3771 31.2523 19.4828C33.6468 19.976 36.0414 20.5044 38.4359 20.9976C38.7924 21.0681 38.9477 21.2354 38.966 21.5701C39.0026 22.2923 39.0757 23.0057 39.094 23.728C39.094 23.8689 38.9843 24.045 38.8655 24.1683C37.2843 25.7889 37.2021 27.9467 38.6553 29.673C38.7741 29.8139 38.9112 29.9548 39.0757 30.0429C39.4961 30.2631 39.6606 30.589 39.7063 31.0469C39.9531 33.1784 39.6698 35.1865 38.3537 36.9744C37.6042 37.9872 36.6263 38.7447 35.493 39.3348C33.7839 40.2331 32.084 41.1491 30.3749 42.0651C30.1281 42.1972 29.9179 42.2236 29.6529 42.0827C27.7519 41.061 25.8234 40.0746 23.9315 39.0265C21.665 37.7406 20.2026 35.2041 20.2026 32.5178ZM30.1098 20.6806C29.9179 20.6982 29.7991 20.6982 29.6986 20.7246C27.3954 21.209 25.0923 21.6934 22.7983 22.1866C22.6886 22.2131 22.5332 22.2835 22.5149 22.3628C22.4053 22.8208 22.2864 23.2788 22.6612 23.7103C24.3794 25.6656 24.1966 29.2502 22.0305 31.0381C21.9117 31.135 21.7929 31.2759 21.7746 31.4081C21.7198 31.822 21.665 32.2448 21.6832 32.6587C21.8203 34.9751 22.8805 36.7806 24.9917 37.9344C26.518 38.7711 28.0717 39.5638 29.6072 40.3917C29.8905 40.5414 30.1007 40.559 30.3932 40.4005C31.9286 39.5726 33.4732 38.7711 35.0178 37.952C37.5494 36.5956 38.6735 34.0327 38.2623 31.3904C38.244 31.2759 38.1526 31.1438 38.0521 31.0734C36.0414 29.4792 35.621 26.2821 37.0467 24.1067C37.1838 23.8953 37.3666 23.7103 37.4946 23.499C37.851 22.9089 37.5585 22.2483 36.8913 22.0986C35.0269 21.7022 33.1624 21.3147 31.3071 20.9184C30.8776 20.8391 30.4571 20.751 30.1098 20.6806Z" fill="#2776EA"/>
</svg>
