<svg width="60" height="62" viewBox="0 0 60 62" fill="none" xmlns="http://www.w3.org/2000/svg">
<path d="M38.33 44.9088C39.5884 43.3554 40.7628 41.9156 41.8953 40.4758C42.4825 39.7559 43.0278 39.036 43.657 38.2025C41.6017 36.1186 40.2175 33.8074 40.3853 30.9657C40.595 28.124 42.0211 25.8886 44.5378 24.1078C42.2309 21.3419 40.0078 18.6897 37.7847 15.9996C33.0031 18.7655 28.5989 18.3866 24.3205 15.0145C22.6008 16.7953 20.923 18.5003 19.0775 20.3568C20.6294 22.1755 21.3005 24.6004 20.965 27.3663C23.0622 27.8588 25.0755 28.4271 27.1308 28.806C27.5922 28.8818 28.2633 28.4271 28.7667 28.0861C30.0669 27.2147 31.4092 27.0253 32.8353 27.6694C34.1775 28.2756 34.8906 29.2986 34.8906 30.7005C34.8906 32.3297 33.5903 33.6937 31.8706 33.9589C30.0669 34.2241 28.1375 33.3906 27.8019 31.8371C27.5083 30.3974 26.6275 30.0564 25.3272 29.7911C23.985 29.5259 22.6428 29.1849 21.3005 28.8818C21.1327 28.8439 20.923 28.8818 20.6294 28.8818C18.3644 33.1254 14.6733 35.3229 9.34633 34.5272C5.40354 33.9589 2.2577 30.8899 1.58659 27.4799C0.789639 23.2364 2.71909 20.0916 8.04605 17.2499C7.54271 16.4164 7.03938 15.6207 6.53605 14.8251C5.99077 13.9915 5.44549 13.1958 4.94215 12.4002C1.62853 12.0213 0.370194 11.2635 0.0346376 9.40695C-0.175085 8.00506 0.579917 6.64107 1.96409 5.95907C3.3902 5.27707 5.23576 5.54229 6.36827 6.56529C7.79438 7.8914 7.79438 9.2554 6.24243 11.7182C7.33299 13.3853 8.42355 15.1282 9.598 16.9468C12.5761 16.6816 15.2605 17.2878 17.7352 19.0686C19.5389 17.2121 21.2586 15.4313 23.1461 13.4611C22.2653 11.8318 21.4683 9.74795 22.0136 7.39884C22.8525 3.60996 25.9564 0.806186 30.2347 0.162076C34.2614 -0.444146 38.4139 1.33663 40.3014 4.70874C40.9725 5.92118 41.8114 6.48951 43.1956 6.75473C44.9153 7.13362 46.5931 7.62618 48.3128 8.08084C51.0392 6.1864 52.4234 5.95907 54.1012 7.09573C55.4434 7.96718 55.9467 9.52062 55.4015 10.9225C54.8562 12.3244 53.3462 13.2337 51.7103 13.1579C49.7809 13.0822 48.6064 11.9834 47.9773 9.44484C46.0059 8.9144 43.9086 8.38395 41.5597 7.73984C41.6017 10.4678 40.9725 12.8927 38.8334 15.0145C41.1403 17.8183 43.4053 20.5463 45.7542 23.3879C48.6484 22.3649 51.5006 22.1376 54.3528 23.3879C56.2403 24.2215 57.7504 25.4339 58.757 27.101C60.7704 30.3595 60.309 34.4515 57.5826 37.2552C54.5206 40.4379 50.3681 41.0441 44.7895 39.0739C43.9506 40.1348 43.0278 41.2336 42.147 42.2945C41.2661 43.3932 40.3853 44.5299 39.3786 45.7423C42.105 48.1672 43.1117 51.1226 42.3986 54.6083C44.5378 55.1009 46.4673 55.6692 48.4806 55.9723C49.1517 56.086 49.9487 55.5177 50.5359 55.1388C52.2976 54.0779 54.5626 54.381 55.779 55.9344C56.9953 57.4879 56.534 59.5718 54.7723 60.6327C53.0526 61.6557 50.6198 61.2389 49.6131 59.6097C49.2356 59.0034 49.0678 58.2836 48.7323 57.4879C46.8867 57.0332 44.9153 56.5785 42.9859 56.086C42.0211 55.8587 41.7275 56.3891 41.3081 56.9574C39.9239 59.0413 37.8686 60.4053 35.2681 61.0115C28.3892 62.6029 22.0136 57.2606 23.188 50.8952C23.2719 50.3648 23.4397 49.8722 23.6075 49.1144C21.8039 48.1672 20.0002 47.1063 18.0708 46.2349C17.6514 46.0455 16.8964 46.4243 16.3091 46.6138C14.7152 47.1442 12.9955 46.8032 11.9888 45.7045C10.9402 44.5678 10.8144 43.128 11.6113 41.8777C12.4083 40.5895 14.0441 39.9832 15.68 40.2864C17.3158 40.5895 18.6161 41.8777 18.4902 43.5069C18.4064 44.6815 18.9936 45.2119 20.0002 45.6666C21.3844 46.3107 22.7266 47.0685 24.2786 47.902C25.8725 45.9697 27.8019 44.4162 30.4864 43.81C33.2547 43.1659 35.7295 43.6585 38.33 44.9088ZM36.3586 15.0145C39.5884 12.9685 40.7209 9.71006 39.6303 6.60318C38.4559 3.42052 35.2681 1.33663 31.5769 1.37452C27.8439 1.41241 24.6141 3.68574 23.6075 6.98207C22.6847 10.0132 23.943 13.1579 26.7953 14.7872C26.8372 14.2188 26.8792 13.7263 26.8792 13.1958C26.963 11.2635 27.8019 10.5436 29.8992 10.4678C31.0317 10.43 32.1222 10.43 33.2547 10.4678C35.3939 10.5057 36.2328 11.2256 36.3167 13.1579C36.3586 13.7263 36.3586 14.2188 36.3586 15.0145ZM15.8897 31.9508C19.3291 29.5259 20.3777 26.3433 19.0775 23.1606C17.8191 20.0916 14.3797 18.0077 10.7724 18.2351C7.08132 18.4624 4.01937 20.7736 3.13854 23.9942C2.29964 27.0253 3.55798 30.0943 6.41021 31.6856C6.45216 30.9657 6.45216 30.3216 6.53605 29.7154C6.70382 28.1998 7.50077 27.5178 9.2205 27.442C10.5208 27.4042 11.863 27.4042 13.1633 27.442C15.0508 27.5178 15.8477 28.2377 15.8897 30.0185C15.8897 30.511 15.8897 31.0794 15.8897 31.9508ZM28.1375 58.5109C28.1375 57.6394 28.0955 57.0711 28.1375 56.4649C28.2633 54.7978 29.1442 54.0021 31.0317 53.9263C32.332 53.8884 33.6742 53.8506 34.9745 53.9263C36.6103 54.04 37.4492 54.8357 37.5331 56.3512C37.575 56.9953 37.5331 57.6773 37.5331 58.5109C41.4339 56.3512 42.6084 50.8195 39.085 47.3337C35.8134 44.0752 30.1508 44.0373 26.7953 47.2579C23.4397 50.4784 23.8591 55.4419 28.1375 58.5109ZM45.3767 37.2931C45.4187 36.7248 45.4606 36.2323 45.4606 35.7018C45.5445 33.8074 46.3834 33.0496 48.5226 32.9738C49.6551 32.9359 50.7456 32.9359 51.8781 32.9738C54.0173 33.0496 54.8562 33.8074 54.9401 35.7018C54.982 36.2323 55.024 36.8006 55.0659 37.4447C58.2117 35.3608 59.3442 32.0645 58.1279 28.9576C56.8695 25.7749 53.6398 23.8047 49.9067 23.9184C46.2575 24.032 43.1117 26.2675 42.147 29.5259C41.2661 32.5191 42.5245 35.6639 45.3767 37.2931ZM14.5055 30.9657C14.3797 30.0943 14.925 28.7681 13.0794 28.6545C11.8211 28.5787 10.5627 28.5408 9.34633 28.6924C8.843 28.7681 8.12994 29.2607 8.04605 29.6775C7.29105 32.2918 8.12994 33.2769 11.1499 33.2769C11.5274 33.2769 11.9469 33.239 12.3244 33.2011C14.3377 33.0117 14.4636 32.898 14.5055 30.9657ZM28.5569 15.8859C30.2347 16.6437 31.9125 16.5301 33.6322 16.3027C34.0097 16.2648 34.597 16.0375 34.6389 15.8481C34.7647 14.7493 34.9325 13.6126 34.7228 12.5138C34.5131 11.5287 33.3386 11.7939 32.5417 11.8318C28.5989 11.9076 28.1375 10.8467 28.5569 15.8859ZM53.1365 38.6192C53.3042 38.1646 53.3462 38.1267 53.3462 38.0509C53.6817 34.262 53.6817 34.262 49.5712 34.262C47.0125 34.262 46.9706 34.2999 46.9706 36.4975C46.9706 38.5435 47.2223 38.8087 49.5292 38.8845C50.7456 38.9224 52.004 38.695 53.1365 38.6192ZM32.9192 55.2903C32.2481 55.2903 31.5769 55.1767 30.9478 55.3282C30.4864 55.4419 29.8572 55.8208 29.7314 56.1997C28.8505 58.8898 29.8153 59.9507 32.9192 59.9128C33.6322 59.9128 34.3872 59.8749 35.0164 59.6097C35.4358 59.4581 35.9392 58.9655 36.0231 58.5488C36.5264 55.6692 36.107 55.2903 32.9192 55.2903ZM31.1994 32.6328C32.3739 32.6328 33.4225 31.6477 33.4225 30.5868C33.4225 29.5259 32.332 28.5787 31.1575 28.5787C29.9831 28.5787 28.9344 29.5638 28.9344 30.6247C28.9344 31.7235 30.025 32.6707 31.1994 32.6328ZM54.9401 57.9425C54.982 56.8059 53.9753 55.8587 52.759 55.8587C51.5845 55.8587 50.6198 56.6543 50.5359 57.7531C50.452 58.8898 51.3748 59.8749 52.6331 59.9507C53.8495 59.9507 54.9401 59.0413 54.9401 57.9425ZM1.54464 8.9144C1.54464 10.0511 2.55131 10.9983 3.7677 10.9604C4.90021 10.9604 5.90688 10.0511 5.94882 9.02806C5.99076 7.8914 5.02604 6.90629 3.80965 6.8684C2.55131 6.83051 1.54464 7.77773 1.54464 8.9144ZM17.0641 43.5827C17.1061 42.446 16.0994 41.4988 14.883 41.4988C13.6666 41.4988 12.618 42.446 12.66 43.5827C12.66 44.6057 13.6247 45.515 14.7572 45.5908C15.9736 45.6287 17.0222 44.7193 17.0641 43.5827ZM51.8362 11.7939C53.0945 11.7939 54.1431 10.9225 54.1431 9.82373C54.1431 8.72495 53.0945 7.81562 51.8362 7.81562C50.6617 7.85351 49.697 8.64917 49.6551 9.71006C49.5712 10.8467 50.5359 11.7561 51.8362 11.7939Z" fill="#2776EA"/>
<path d="M35.3518 6.37563C35.3937 8.27007 33.7159 9.82351 31.6607 9.8614C29.6893 9.8614 28.0115 8.42162 27.9695 6.56507C27.9276 4.67063 29.5634 3.11719 31.6607 3.11719C33.674 3.11719 35.3098 4.55696 35.3518 6.37563ZM31.7026 4.48119C30.4443 4.48119 29.3957 5.39052 29.4376 6.48929C29.4795 7.51229 30.4443 8.42162 31.5768 8.4974C32.7932 8.57318 33.9257 7.62596 33.9676 6.56507C33.9676 5.46629 32.919 4.48119 31.7026 4.48119Z" fill="#2776EA"/>
<path d="M11.2302 19.9404C13.2854 19.9404 15.0052 21.4939 14.9632 23.3504C14.9213 25.1691 13.1177 26.7604 11.1463 26.6846C9.17487 26.6468 7.53903 25.1312 7.49709 23.3504C7.45514 21.5318 9.17487 19.9404 11.2302 19.9404ZM9.04904 23.0473C8.88126 24.184 9.7621 25.207 10.9785 25.3206C12.2368 25.4343 13.3274 24.6008 13.4113 23.502C13.4952 22.4032 12.7402 21.4939 11.5657 21.3802C10.2654 21.1908 9.17487 21.9107 9.04904 23.0473Z" fill="#2776EA"/>
<path d="M32.9228 53.2466C30.8676 53.2466 29.2737 51.8826 29.1898 50.026C29.1478 48.1316 30.7417 46.5781 32.8809 46.5781C34.9781 46.5781 36.6979 48.1316 36.6559 49.9502C36.614 51.8068 34.9362 53.2466 32.9228 53.2466ZM30.6998 49.8745C30.6578 51.0111 31.6645 51.9962 32.8809 51.9962C34.0134 51.9962 35.062 51.1627 35.1459 50.1397C35.2298 49.0409 34.2651 48.0179 33.0487 47.9421C31.8742 47.8285 30.7417 48.7378 30.6998 49.8745Z" fill="#2776EA"/>
<path d="M53.9318 28.9209C53.9318 30.8153 52.2121 32.3309 50.1568 32.293C48.1854 32.2551 46.5915 30.7774 46.5496 28.9209C46.5496 26.9886 48.1854 25.5488 50.3246 25.5867C52.3799 25.6624 53.9318 27.1022 53.9318 28.9209ZM50.1568 26.9128C48.9823 26.9507 47.9337 27.9737 48.0176 29.0346C48.0596 30.0954 49.1921 31.0048 50.3665 30.9669C51.541 30.929 52.5896 29.906 52.5057 28.8451C52.4218 27.7842 51.3312 26.8749 50.1568 26.9128Z" fill="#2776EA"/>
</svg>
