<svg width="290" height="138" viewBox="0 0 290 138" fill="none" xmlns="http://www.w3.org/2000/svg">
<g filter="url(#filter0_d_557_39067)">
<path d="M27 53C27 37.9151 27 30.3726 31.6863 25.6863C36.3726 21 43.9151 21 59 21H230.2C245.285 21 252.827 21 257.514 25.6863C262.2 30.3726 262.2 37.9151 262.2 53V71.3399C262.2 86.4248 262.2 93.9673 257.514 98.6536C252.827 103.34 245.285 103.34 230.2 103.34H59C43.915 103.34 36.3726 103.34 31.6863 98.6536C27 93.9673 27 86.4248 27 71.3399V53Z" fill="white"/>
<path d="M27 21H262.2H27ZM262.2 87.3399C262.2 96.7287 254.589 104.34 245.2 104.34H44C34.6112 104.34 27 96.7287 27 87.3399C27 95.6241 34.1634 102.34 43 102.34H246.2C255.037 102.34 262.2 95.6241 262.2 87.3399ZM27 103.34V21V103.34ZM262.2 21V103.34V21Z" fill="#0274BA"/>
</g>
<path d="M124.405 50.7359H139.116V51.9052H125.753V60.7057H138.319V61.8749H125.753V71.537H139.269V72.7063H124.405V50.7359ZM140.434 50.7359H141.997L148.924 60.3979L156.004 50.7359L165.634 38.4629L149.813 61.4134L157.965 72.7063H156.341L148.924 62.4288L141.476 72.7063H139.882L148.096 61.4134L140.434 50.7359ZM158.548 51.9052V50.7359H175.313V51.9052H167.589V72.7063H166.241V51.9052H158.548ZM106 50.7359H107.686L130.93 85.5194L121.324 72.7063L107.41 52.3975L107.349 72.7063H106V50.7359ZM175.177 71.1841C174.901 71.1841 174.695 70.9706 174.695 70.6948C174.695 70.4189 174.901 70.2054 175.177 70.2054C175.456 70.2054 175.659 70.4189 175.659 70.6948C175.659 70.9706 175.456 71.1841 175.177 71.1841ZM176.502 69.8967H177.224C177.233 70.2875 177.519 70.5503 177.939 70.5503C178.408 70.5503 178.673 70.2678 178.673 69.739V66.3891H179.408V69.7423C179.408 70.6948 178.857 71.2432 177.945 71.2432C177.089 71.2432 176.502 70.7112 176.502 69.8967ZM180.369 69.854H181.097C181.16 70.3039 181.599 70.5897 182.232 70.5897C182.822 70.5897 183.255 70.2842 183.255 69.8638C183.255 69.5026 182.98 69.2858 182.353 69.138L181.743 68.9902C180.887 68.7899 180.497 68.3761 180.497 67.6798C180.497 66.8357 181.186 66.2741 182.219 66.2741C183.18 66.2741 183.882 66.8357 183.925 67.6338H183.21C183.141 67.197 182.76 66.9244 182.209 66.9244C181.629 66.9244 181.242 67.2036 181.242 67.6305C181.242 67.9688 181.491 68.1626 182.107 68.3071L182.629 68.4352C183.6 68.6618 184 69.0559 184 69.7686C184 70.6751 183.298 71.2432 182.176 71.2432C181.127 71.2432 180.422 70.7013 180.369 69.854Z" fill="black"/>
<defs>
<filter id="filter0_d_557_39067" x="0.1" y="0.1" width="289" height="137.14" filterUnits="userSpaceOnUse" color-interpolation-filters="sRGB">
<feFlood flood-opacity="0" result="BackgroundImageFix"/>
<feColorMatrix in="SourceAlpha" type="matrix" values="0 0 0 0 0 0 0 0 0 0 0 0 0 0 0 0 0 0 127 0" result="hardAlpha"/>
<feOffset dy="6"/>
<feGaussianBlur stdDeviation="13.45"/>
<feComposite in2="hardAlpha" operator="out"/>
<feColorMatrix type="matrix" values="0 0 0 0 0.546429 0 0 0 0 0.546429 0 0 0 0 0.546429 0 0 0 0.19 0"/>
<feBlend mode="normal" in2="BackgroundImageFix" result="effect1_dropShadow_557_39067"/>
<feBlend mode="normal" in="SourceGraphic" in2="effect1_dropShadow_557_39067" result="shape"/>
</filter>
</defs>
</svg>
