<svg width="109" height="38" viewBox="0 0 109 38" fill="none" xmlns="http://www.w3.org/2000/svg">
<path d="M0.89534 15.7061C0.733326 15.7061 0.608134 15.6641 0.519763 15.5801C0.431392 15.4821 0.387207 15.3631 0.387207 15.2232V1.51362C0.387207 1.35966 0.431392 1.24069 0.519763 1.15672C0.608134 1.05874 0.733326 1.00975 0.89534 1.00975H1.91161C2.08835 1.00975 2.2209 1.05174 2.30927 1.13572C2.39765 1.2057 2.44919 1.26169 2.46392 1.30368L9.79871 12.011V1.51362C9.79871 1.35966 9.84289 1.24069 9.93127 1.15672C10.0196 1.05874 10.1448 1.00975 10.3068 1.00975H11.3673C11.5293 1.00975 11.6545 1.05874 11.7429 1.15672C11.846 1.24069 11.8975 1.35966 11.8975 1.51362V15.2022C11.8975 15.3421 11.846 15.4611 11.7429 15.5591C11.6545 15.6571 11.5367 15.7061 11.3894 15.7061H10.3289C10.1669 15.7061 10.0417 15.6641 9.95336 15.5801C9.87972 15.4961 9.82817 15.4401 9.79871 15.4121L2.48602 4.8098V15.2232C2.48602 15.3631 2.43447 15.4821 2.33137 15.5801C2.243 15.6641 2.1178 15.7061 1.95579 15.7061H0.89534Z" fill="white"/>
<path d="M21.2723 15.916C20.0203 15.916 18.9452 15.7131 18.0467 15.3072C17.1483 14.8873 16.456 14.2504 15.97 13.3966C15.484 12.5289 15.2115 11.4441 15.1526 10.1425C15.1378 9.52661 15.1305 8.93876 15.1305 8.3789C15.1305 7.80504 15.1378 7.21019 15.1526 6.59435C15.2115 5.30667 15.4913 4.23594 15.9921 3.38216C16.5076 2.51437 17.2146 1.87054 18.113 1.45064C19.0262 1.01675 20.0792 0.799805 21.2723 0.799805C22.48 0.799805 23.5331 1.01675 24.4315 1.45064C25.3447 1.87054 26.059 2.51437 26.5745 3.38216C27.09 4.23594 27.3698 5.30667 27.414 6.59435C27.4435 7.21019 27.4582 7.80504 27.4582 8.3789C27.4582 8.93876 27.4435 9.52661 27.414 10.1425C27.3698 11.4441 27.0974 12.5289 26.5966 13.3966C26.1106 14.2504 25.4183 14.8873 24.5199 15.3072C23.6214 15.7131 22.5389 15.916 21.2723 15.916ZM21.2723 14.1315C22.4063 14.1315 23.3269 13.8095 24.0338 13.1657C24.7555 12.5219 25.1458 11.4791 25.2048 10.0375C25.2342 9.40764 25.2489 8.84778 25.2489 8.3579C25.2489 7.85403 25.2342 7.29417 25.2048 6.67833C25.1753 5.71257 24.9838 4.92877 24.6304 4.32692C24.2916 3.72507 23.835 3.28418 23.2606 3.00425C22.6862 2.72432 22.0234 2.58436 21.2723 2.58436C20.5506 2.58436 19.9025 2.72432 19.3281 3.00425C18.7537 3.28418 18.2897 3.72507 17.9363 4.32692C17.5975 4.92877 17.406 5.71257 17.3618 6.67833C17.3471 7.29417 17.3398 7.85403 17.3398 8.3579C17.3398 8.84778 17.3471 9.40764 17.3618 10.0375C17.4208 11.4791 17.8111 12.5219 18.5328 13.1657C19.2545 13.8095 20.1676 14.1315 21.2723 14.1315Z" fill="white"/>
<path d="M34.8422 15.7061C34.6213 15.7061 34.4445 15.6571 34.312 15.5591C34.1941 15.4611 34.0984 15.3282 34.0248 15.1602L29.0981 1.66059C29.0686 1.57661 29.0539 1.49963 29.0539 1.42965C29.0539 1.31767 29.0981 1.2197 29.1865 1.13572C29.2748 1.05174 29.3779 1.00975 29.4958 1.00975H30.6446C30.8213 1.00975 30.9539 1.05874 31.0422 1.15672C31.1453 1.24069 31.2043 1.31767 31.219 1.38766L35.5492 13.2917L39.8793 1.38766C39.9088 1.31767 39.9677 1.24069 40.0561 1.15672C40.1445 1.05874 40.277 1.00975 40.4537 1.00975H41.6026C41.7204 1.00975 41.8235 1.05174 41.9119 1.13572C42.015 1.2197 42.0665 1.31767 42.0665 1.42965C42.0665 1.49963 42.0518 1.57661 42.0223 1.66059L37.0736 15.1602C37.0146 15.3282 36.9189 15.4611 36.7864 15.5591C36.6685 15.6571 36.4991 15.7061 36.2782 15.7061H34.8422Z" fill="white"/>
<path d="M42.585 15.7061C42.4672 15.7061 42.3641 15.6641 42.2757 15.5801C42.1873 15.4961 42.1432 15.3981 42.1432 15.2862C42.1432 15.2162 42.1505 15.1392 42.1652 15.0552L47.6442 1.47164C47.7032 1.33167 47.7842 1.2197 47.8873 1.13572C47.9904 1.05174 48.145 1.00975 48.3512 1.00975H49.8535C50.045 1.00975 50.1923 1.05174 50.2954 1.13572C50.4132 1.2197 50.5016 1.33167 50.5605 1.47164L56.0174 15.0552C56.0468 15.1392 56.0616 15.2162 56.0616 15.2862C56.0616 15.3981 56.0174 15.4961 55.929 15.5801C55.8406 15.6641 55.7375 15.7061 55.6197 15.7061H54.493C54.3162 15.7061 54.1837 15.6641 54.0953 15.5801C54.0217 15.4961 53.9701 15.4191 53.9407 15.3491L52.7256 12.3679H45.4792L44.2641 15.3491C44.2493 15.4191 44.1978 15.4961 44.1094 15.5801C44.021 15.6641 43.8885 15.7061 43.7117 15.7061H42.585ZM46.1198 10.5623H52.0849L49.1024 3.10922L46.1198 10.5623Z" fill="white"/>
<path d="M60.6724 15.7061C60.5251 15.7061 60.3999 15.6641 60.2968 15.5801C60.2084 15.4821 60.1643 15.3631 60.1643 15.2232V2.87828H55.9225C55.7752 2.87828 55.65 2.83629 55.5469 2.75231C55.4585 2.65434 55.4143 2.53537 55.4143 2.3954V1.51362C55.4143 1.35966 55.4585 1.24069 55.5469 1.15672C55.65 1.05874 55.7752 1.00975 55.9225 1.00975H66.5711C66.7332 1.00975 66.8584 1.05874 66.9467 1.15672C67.0498 1.24069 67.1014 1.35966 67.1014 1.51362V2.3954C67.1014 2.53537 67.0498 2.65434 66.9467 2.75231C66.8584 2.83629 66.7332 2.87828 66.5711 2.87828H62.3514V15.2232C62.3514 15.3631 62.2999 15.4821 62.1968 15.5801C62.1084 15.6641 61.9832 15.7061 61.8212 15.7061H60.6724Z" fill="white"/>
<path d="M74.7997 15.916C73.5477 15.916 72.4726 15.7131 71.5741 15.3072C70.6757 14.8873 69.9834 14.2504 69.4974 13.3966C69.0114 12.5289 68.7389 11.4441 68.68 10.1425C68.6652 9.52661 68.6579 8.93876 68.6579 8.3789C68.6579 7.80504 68.6652 7.21019 68.68 6.59435C68.7389 5.30667 69.0187 4.23594 69.5195 3.38216C70.035 2.51437 70.7419 1.87054 71.6404 1.45064C72.5536 1.01675 73.6066 0.799805 74.7997 0.799805C76.0074 0.799805 77.0605 1.01675 77.9589 1.45064C78.8721 1.87054 79.5864 2.51437 80.1019 3.38216C80.6174 4.23594 80.8972 5.30667 80.9414 6.59435C80.9709 7.21019 80.9856 7.80504 80.9856 8.3789C80.9856 8.93876 80.9709 9.52661 80.9414 10.1425C80.8972 11.4441 80.6248 12.5289 80.124 13.3966C79.638 14.2504 78.9457 14.8873 78.0473 15.3072C77.1488 15.7131 76.0663 15.916 74.7997 15.916ZM74.7997 14.1315C75.9337 14.1315 76.8543 13.8095 77.5612 13.1657C78.2829 12.5219 78.6732 11.4791 78.7322 10.0375C78.7616 9.40764 78.7763 8.84778 78.7763 8.3579C78.7763 7.85403 78.7616 7.29417 78.7322 6.67833C78.7027 5.71257 78.5112 4.92877 78.1577 4.32692C77.819 3.72507 77.3624 3.28418 76.788 3.00425C76.2136 2.72432 75.5508 2.58436 74.7997 2.58436C74.078 2.58436 73.4299 2.72432 72.8555 3.00425C72.2811 3.28418 71.8171 3.72507 71.4637 4.32692C71.1249 4.92877 70.9334 5.71257 70.8892 6.67833C70.8745 7.29417 70.8671 7.85403 70.8671 8.3579C70.8671 8.84778 70.8745 9.40764 70.8892 10.0375C70.9482 11.4791 71.3385 12.5219 72.0602 13.1657C72.7818 13.8095 73.695 14.1315 74.7997 14.1315Z" fill="white"/>
<path d="M84.7139 15.7061C84.5519 15.7061 84.4267 15.6641 84.3384 15.5801C84.25 15.4821 84.2058 15.3631 84.2058 15.2232V1.51362C84.2058 1.35966 84.25 1.24069 84.3384 1.15672C84.4267 1.05874 84.5519 1.00975 84.7139 1.00975H90.1046C91.7689 1.00975 93.0871 1.38066 94.0592 2.12247C95.0312 2.86429 95.5173 3.96301 95.5173 5.41864C95.5173 6.49637 95.2301 7.37815 94.6557 8.06398C94.096 8.73581 93.3301 9.20469 92.358 9.47062L95.7603 15.0552C95.8045 15.1392 95.8266 15.2162 95.8266 15.2862C95.8266 15.3981 95.775 15.4961 95.6719 15.5801C95.5836 15.6641 95.4805 15.7061 95.3626 15.7061H94.3022C94.0518 15.7061 93.8677 15.6431 93.7499 15.5171C93.632 15.3911 93.5289 15.2652 93.4406 15.1392L90.2371 9.80654H86.3709V15.2232C86.3709 15.3631 86.3193 15.4821 86.2162 15.5801C86.1279 15.6641 86.0027 15.7061 85.8407 15.7061H84.7139ZM86.3709 8.02199H90.0162C91.1208 8.02199 91.9456 7.80504 92.4906 7.37115C93.0355 6.92326 93.308 6.26543 93.308 5.39765C93.308 4.54386 93.0355 3.89303 92.4906 3.44514C91.9604 2.99725 91.1356 2.77331 90.0162 2.77331H86.3709V8.02199Z" fill="white"/>
<path d="M99.1907 15.7061C99.0287 15.7061 98.9035 15.6641 98.8151 15.5801C98.7268 15.4821 98.6826 15.3631 98.6826 15.2232V1.51362C98.6826 1.35966 98.7268 1.24069 98.8151 1.15672C98.9035 1.05874 99.0287 1.00975 99.1907 1.00975H108.315C108.477 1.00975 108.602 1.05874 108.691 1.15672C108.779 1.24069 108.823 1.35966 108.823 1.51362V2.31143C108.823 2.46539 108.779 2.58436 108.691 2.66833C108.602 2.75231 108.477 2.7943 108.315 2.7943H100.803V7.39215H107.829C107.991 7.39215 108.116 7.44113 108.205 7.53911C108.293 7.62309 108.337 7.74206 108.337 7.89602V8.67282C108.337 8.81279 108.293 8.93176 108.205 9.02973C108.116 9.11371 107.991 9.1557 107.829 9.1557H100.803V13.9215H108.492C108.654 13.9215 108.779 13.9635 108.867 14.0475C108.956 14.1315 109 14.2504 109 14.4044V15.2232C109 15.3631 108.956 15.4821 108.867 15.5801C108.779 15.6641 108.654 15.7061 108.492 15.7061H99.1907Z" fill="white"/>
<path d="M5.91352 37.75C4.72639 37.75 3.73029 37.568 2.92522 37.2041C2.12015 36.8262 1.49929 36.3433 1.06265 35.7555C0.639644 35.1536 0.414497 34.5168 0.387207 33.845C0.387207 33.733 0.428143 33.635 0.510014 33.551C0.60553 33.4531 0.714692 33.4041 0.837499 33.4041H1.88136C2.0451 33.4041 2.16791 33.4461 2.24978 33.53C2.33165 33.614 2.38623 33.712 2.41352 33.824C2.48175 34.1599 2.64549 34.4958 2.90475 34.8317C3.17765 35.1536 3.5529 35.4266 4.03048 35.6505C4.52171 35.8605 5.14939 35.9654 5.91352 35.9654C7.08701 35.9654 7.94666 35.7555 8.49247 35.3356C9.05192 34.9017 9.33165 34.3278 9.33165 33.614C9.33165 33.1242 9.18155 32.7322 8.88135 32.4383C8.59481 32.1304 8.15134 31.8575 7.55095 31.6195C6.95056 31.3816 6.17278 31.1227 5.21761 30.8427C4.22151 30.5488 3.39598 30.2269 2.74101 29.877C2.08604 29.5271 1.59481 29.0932 1.26732 28.5753C0.953483 28.0574 0.796563 27.3996 0.796563 26.6018C0.796563 25.846 0.994419 25.1742 1.39013 24.5863C1.78584 23.9844 2.35212 23.5086 3.08896 23.1587C3.83945 22.8087 4.74685 22.6338 5.81118 22.6338C6.65718 22.6338 7.39403 22.7528 8.02171 22.9907C8.66303 23.2146 9.19519 23.5226 9.6182 23.9145C10.0412 24.2924 10.3619 24.7053 10.5802 25.1532C10.7985 25.587 10.9145 26.0139 10.9281 26.4338C10.9281 26.5318 10.894 26.6298 10.8258 26.7278C10.7576 26.8117 10.6484 26.8537 10.4983 26.8537H9.41352C9.318 26.8537 9.21566 26.8257 9.1065 26.7697C9.01098 26.7138 8.93594 26.6088 8.88135 26.4548C8.79948 25.881 8.48564 25.3981 7.93983 25.0062C7.39403 24.6143 6.68447 24.4183 5.81118 24.4183C4.92424 24.4183 4.20105 24.5933 3.64159 24.9432C3.09578 25.2931 2.82288 25.839 2.82288 26.5808C2.82288 27.0567 2.95251 27.4556 3.21177 27.7775C3.47103 28.0854 3.88038 28.3583 4.43984 28.5963C4.99929 28.8342 5.72931 29.0862 6.62989 29.3521C7.72151 29.66 8.61527 29.9889 9.31118 30.3389C10.0071 30.6748 10.5188 31.1017 10.8463 31.6195C11.1874 32.1234 11.358 32.7742 11.358 33.572C11.358 34.4538 11.1328 35.2096 10.6825 35.8395C10.2322 36.4553 9.59773 36.9312 8.77902 37.2671C7.97395 37.589 7.01878 37.75 5.91352 37.75Z" fill="white"/>
<path d="M19.1781 37.75C18.0183 37.75 17.0222 37.547 16.1898 37.1411C15.3574 36.7212 14.7161 36.0844 14.2658 35.2306C13.8155 34.3628 13.5631 33.2781 13.5085 31.9764C13.4949 31.3606 13.4881 30.7727 13.4881 30.2129C13.4881 29.639 13.4949 29.0442 13.5085 28.4283C13.5631 27.1407 13.8224 26.0699 14.2863 25.2161C14.7639 24.3484 15.4189 23.7045 16.2512 23.2846C17.0972 22.8507 18.0728 22.6338 19.1781 22.6338C20.297 22.6338 21.2726 22.8507 22.105 23.2846C22.951 23.7045 23.6128 24.3484 24.0904 25.2161C24.568 26.0699 24.8272 27.1407 24.8682 28.4283C24.8955 29.0442 24.9091 29.639 24.9091 30.2129C24.9091 30.7727 24.8955 31.3606 24.8682 31.9764C24.8272 33.2781 24.5748 34.3628 24.1109 35.2306C23.6606 36.0844 23.0192 36.7212 22.1869 37.1411C21.3545 37.547 20.3516 37.75 19.1781 37.75ZM19.1781 35.9654C20.2288 35.9654 21.0816 35.6435 21.7366 34.9997C22.4052 34.3558 22.7668 33.3131 22.8214 31.8715C22.8487 31.2416 22.8623 30.6818 22.8623 30.1919C22.8623 29.688 22.8487 29.1282 22.8214 28.5123C22.7941 27.5466 22.6167 26.7628 22.2892 26.1609C21.9754 25.5591 21.5524 25.1182 21.0202 24.8382C20.4881 24.5583 19.874 24.4183 19.1781 24.4183C18.5095 24.4183 17.9091 24.5583 17.3769 24.8382C16.8448 25.1182 16.415 25.5591 16.0875 26.1609C15.7736 26.7628 15.5962 27.5466 15.5553 28.5123C15.5417 29.1282 15.5348 29.688 15.5348 30.1919C15.5348 30.6818 15.5417 31.2416 15.5553 31.8715C15.6099 33.3131 15.9715 34.3558 16.6401 34.9997C17.3087 35.6435 18.1547 35.9654 19.1781 35.9654Z" fill="white"/>
<path d="M28.3632 37.54C28.2131 37.54 28.0971 37.4981 28.0153 37.4141C27.9334 37.3161 27.8924 37.1971 27.8924 37.0572V23.3266C27.8924 23.1866 27.9334 23.0747 28.0153 22.9907C28.0971 22.8927 28.2131 22.8437 28.3632 22.8437H29.448C29.5845 22.8437 29.6936 22.8927 29.7755 22.9907C29.8574 23.0747 29.8983 23.1866 29.8983 23.3266V35.7135H36.7141C36.8642 35.7135 36.9802 35.7625 37.062 35.8605C37.1439 35.9444 37.1848 36.0634 37.1848 36.2174V37.0572C37.1848 37.1971 37.1439 37.3161 37.062 37.4141C36.9802 37.4981 36.8642 37.54 36.7141 37.54H28.3632Z" fill="white"/>
<path d="M44.4893 37.75C43.3431 37.75 42.3538 37.54 41.5215 37.1201C40.7027 36.7003 40.0682 36.0634 39.618 35.2096C39.1813 34.3418 38.963 33.2291 38.963 31.8715V23.3476C38.963 23.1936 39.0039 23.0747 39.0858 22.9907C39.1677 22.8927 39.2836 22.8437 39.4337 22.8437H40.4776C40.6277 22.8437 40.7437 22.8927 40.8256 22.9907C40.9211 23.0747 40.9688 23.1936 40.9688 23.3476V31.9135C40.9688 33.2851 41.2827 34.2999 41.9103 34.9577C42.538 35.6155 43.3977 35.9444 44.4893 35.9444C45.5673 35.9444 46.4201 35.6155 47.0478 34.9577C47.6891 34.2999 48.0098 33.2851 48.0098 31.9135V23.3476C48.0098 23.1936 48.0507 23.0747 48.1326 22.9907C48.2281 22.8927 48.3441 22.8437 48.4805 22.8437H49.5448C49.6813 22.8437 49.7905 22.8927 49.8723 22.9907C49.9678 23.0747 50.0156 23.1936 50.0156 23.3476V31.8715C50.0156 33.2291 49.7905 34.3418 49.3402 35.2096C48.9035 36.0634 48.2758 36.7003 47.4571 37.1201C46.6384 37.54 45.6491 37.75 44.4893 37.75Z" fill="white"/>
<path d="M57.0396 37.54C56.9031 37.54 56.7872 37.4981 56.6916 37.4141C56.6098 37.3161 56.5688 37.1971 56.5688 37.0572V24.7123H52.639C52.5026 24.7123 52.3866 24.6703 52.291 24.5863C52.2092 24.4883 52.1682 24.3694 52.1682 24.2294V23.3476C52.1682 23.1936 52.2092 23.0747 52.291 22.9907C52.3866 22.8927 52.5026 22.8437 52.639 22.8437H62.5045C62.6546 22.8437 62.7706 22.8927 62.8524 22.9907C62.948 23.0747 62.9957 23.1936 62.9957 23.3476V24.2294C62.9957 24.3694 62.948 24.4883 62.8524 24.5863C62.7706 24.6703 62.6546 24.7123 62.5045 24.7123H58.5951V37.0572C58.5951 37.1971 58.5474 37.3161 58.4519 37.4141C58.37 37.4981 58.254 37.54 58.1039 37.54H57.0396Z" fill="white"/>
<path d="M65.761 37.54C65.6109 37.54 65.4949 37.4981 65.413 37.4141C65.3311 37.3161 65.2902 37.1971 65.2902 37.0572V23.3266C65.2902 23.1866 65.3311 23.0747 65.413 22.9907C65.4949 22.8927 65.6109 22.8437 65.761 22.8437H66.8458C66.9822 22.8437 67.0914 22.8927 67.1732 22.9907C67.2688 23.0747 67.3165 23.1866 67.3165 23.3266V37.0572C67.3165 37.1971 67.2688 37.3161 67.1732 37.4141C67.0914 37.4981 66.9822 37.54 66.8458 37.54H65.761Z" fill="white"/>
<path d="M76.0243 37.75C74.8644 37.75 73.8683 37.547 73.036 37.1411C72.2036 36.7212 71.5623 36.0844 71.112 35.2306C70.6617 34.3628 70.4093 33.2781 70.3547 31.9764C70.3411 31.3606 70.3342 30.7727 70.3342 30.2129C70.3342 29.639 70.3411 29.0442 70.3547 28.4283C70.4093 27.1407 70.6685 26.0699 71.1325 25.2161C71.6101 24.3484 72.265 23.7045 73.0974 23.2846C73.9434 22.8507 74.919 22.6338 76.0243 22.6338C77.1432 22.6338 78.1188 22.8507 78.9512 23.2846C79.7972 23.7045 80.459 24.3484 80.9366 25.2161C81.4142 26.0699 81.6734 27.1407 81.7143 28.4283C81.7416 29.0442 81.7553 29.639 81.7553 30.2129C81.7553 30.7727 81.7416 31.3606 81.7143 31.9764C81.6734 33.2781 81.421 34.3628 80.957 35.2306C80.5067 36.0844 79.8654 36.7212 79.0331 37.1411C78.2007 37.547 77.1978 37.75 76.0243 37.75ZM76.0243 35.9654C77.075 35.9654 77.9278 35.6435 78.5828 34.9997C79.2514 34.3558 79.613 33.3131 79.6676 31.8715C79.6949 31.2416 79.7085 30.6818 79.7085 30.1919C79.7085 29.688 79.6949 29.1282 79.6676 28.5123C79.6403 27.5466 79.4629 26.7628 79.1354 26.1609C78.8216 25.5591 78.3986 25.1182 77.8664 24.8382C77.3342 24.5583 76.7202 24.4183 76.0243 24.4183C75.3557 24.4183 74.7553 24.5583 74.2231 24.8382C73.691 25.1182 73.2611 25.5591 72.9337 26.1609C72.6198 26.7628 72.4424 27.5466 72.4015 28.5123C72.3878 29.1282 72.381 29.688 72.381 30.1919C72.381 30.6818 72.3878 31.2416 72.4015 31.8715C72.4561 33.3131 72.8177 34.3558 73.4863 34.9997C74.1549 35.6435 75.0009 35.9654 76.0243 35.9654Z" fill="white"/>
<path d="M85.2094 37.54C85.0593 37.54 84.9433 37.4981 84.8614 37.4141C84.7796 37.3161 84.7386 37.1971 84.7386 37.0572V23.3476C84.7386 23.1936 84.7796 23.0747 84.8614 22.9907C84.9433 22.8927 85.0593 22.8437 85.2094 22.8437H86.1509C86.3147 22.8437 86.4375 22.8857 86.5193 22.9697C86.6012 23.0397 86.649 23.0957 86.6626 23.1377L93.4579 33.845V23.3476C93.4579 23.1936 93.4989 23.0747 93.5807 22.9907C93.6626 22.8927 93.7786 22.8437 93.9287 22.8437H94.9111C95.0612 22.8437 95.1772 22.8927 95.2591 22.9907C95.3546 23.0747 95.4024 23.1936 95.4024 23.3476V37.0362C95.4024 37.1761 95.3546 37.2951 95.2591 37.3931C95.1772 37.4911 95.0681 37.54 94.9316 37.54H93.9492C93.7991 37.54 93.6831 37.4981 93.6012 37.4141C93.533 37.3301 93.4852 37.2741 93.4579 37.2461L86.6831 26.6438V37.0572C86.6831 37.1971 86.6353 37.3161 86.5398 37.4141C86.4579 37.4981 86.3419 37.54 86.1918 37.54H85.2094Z" fill="white"/>
<path d="M103.555 37.75C102.368 37.75 101.372 37.568 100.567 37.2041C99.7621 36.8262 99.1412 36.3433 98.7046 35.7555C98.2816 35.1536 98.0564 34.5168 98.0291 33.845C98.0291 33.733 98.0701 33.635 98.1519 33.551C98.2474 33.4531 98.3566 33.4041 98.4794 33.4041H99.5233C99.687 33.4041 99.8098 33.4461 99.8917 33.53C99.9736 33.614 100.028 33.712 100.055 33.824C100.124 34.1599 100.287 34.4958 100.547 34.8317C100.82 35.1536 101.195 35.4266 101.672 35.6505C102.164 35.8605 102.791 35.9654 103.555 35.9654C104.729 35.9654 105.589 35.7555 106.134 35.3356C106.694 34.9017 106.974 34.3278 106.974 33.614C106.974 33.1242 106.823 32.7322 106.523 32.4383C106.237 32.1304 105.793 31.8575 105.193 31.6195C104.592 31.3816 103.815 31.1227 102.86 30.8427C101.863 30.5488 101.038 30.2269 100.383 29.877C99.728 29.5271 99.2367 29.0932 98.9092 28.5753C98.5954 28.0574 98.4385 27.3996 98.4385 26.6018C98.4385 25.846 98.6363 25.1742 99.032 24.5863C99.4278 23.9844 99.994 23.5086 100.731 23.1587C101.481 22.8087 102.389 22.6338 103.453 22.6338C104.299 22.6338 105.036 22.7528 105.664 22.9907C106.305 23.2146 106.837 23.5226 107.26 23.9145C107.683 24.2924 108.004 24.7053 108.222 25.1532C108.44 25.587 108.556 26.0139 108.57 26.4338C108.57 26.5318 108.536 26.6298 108.468 26.7278C108.399 26.8117 108.29 26.8537 108.14 26.8537H107.055C106.96 26.8537 106.858 26.8257 106.748 26.7697C106.653 26.7138 106.578 26.6088 106.523 26.4548C106.441 25.881 106.128 25.3981 105.582 25.0062C105.036 24.6143 104.326 24.4183 103.453 24.4183C102.566 24.4183 101.843 24.5933 101.284 24.9432C100.738 25.2931 100.465 25.839 100.465 26.5808C100.465 27.0567 100.594 27.4556 100.854 27.7775C101.113 28.0854 101.522 28.3583 102.082 28.5963C102.641 28.8342 103.371 29.0862 104.272 29.3521C105.363 29.66 106.257 29.9889 106.953 30.3389C107.649 30.6748 108.161 31.1017 108.488 31.6195C108.829 32.1234 109 32.7742 109 33.572C109 34.4538 108.775 35.2096 108.324 35.8395C107.874 36.4553 107.24 36.9312 106.421 37.2671C105.616 37.589 104.661 37.75 103.555 37.75Z" fill="white"/>
</svg>
