<svg width="94" height="32" viewBox="0 0 94 32" fill="none" xmlns="http://www.w3.org/2000/svg">
<path d="M0.437957 12.8476C0.298318 12.8476 0.190416 12.8114 0.11425 12.739C0.0380832 12.6546 0 12.5521 0 12.4314V0.615238C0 0.482539 0.0380832 0.38 0.11425 0.307619C0.190416 0.223175 0.298318 0.180952 0.437957 0.180952H1.31387C1.4662 0.180952 1.58045 0.217143 1.65662 0.289524C1.73279 0.349842 1.77722 0.398095 1.78991 0.434285L8.11172 9.66285V0.615238C8.11172 0.482539 8.14981 0.38 8.22597 0.307619C8.30214 0.223175 8.41004 0.180952 8.54968 0.180952H9.46368C9.60331 0.180952 9.71122 0.223175 9.78738 0.307619C9.87624 0.38 9.92067 0.482539 9.92067 0.615238V12.4133C9.92067 12.534 9.87624 12.6365 9.78738 12.7209C9.71122 12.8054 9.60966 12.8476 9.48272 12.8476H8.56872C8.42908 12.8476 8.32118 12.8114 8.24501 12.739C8.18154 12.6667 8.13711 12.6184 8.11172 12.5943L1.80895 3.45619V12.4314C1.80895 12.5521 1.76452 12.6546 1.67566 12.739C1.59949 12.8114 1.49159 12.8476 1.35195 12.8476H0.437957Z" fill="white"/>
<path d="M18.0007 13.0286C16.9217 13.0286 15.995 12.8536 15.2206 12.5038C14.4463 12.1419 13.8496 11.593 13.4307 10.8571C13.0118 10.1092 12.777 9.17428 12.7262 8.05238C12.7135 7.52159 12.7071 7.01492 12.7071 6.53238C12.7071 6.03778 12.7135 5.52508 12.7262 4.99428C12.777 3.88444 13.0182 2.96159 13.4498 2.22571C13.8941 1.47778 14.5034 0.922857 15.2778 0.560953C16.0648 0.186984 16.9725 0 18.0007 0C19.0416 0 19.9493 0.186984 20.7237 0.560953C21.5107 0.922857 22.1264 1.47778 22.5707 2.22571C23.015 2.96159 23.2562 3.88444 23.2943 4.99428C23.3197 5.52508 23.3324 6.03778 23.3324 6.53238C23.3324 7.01492 23.3197 7.52159 23.2943 8.05238C23.2562 9.17428 23.0213 10.1092 22.5897 10.8571C22.1708 11.593 21.5742 12.1419 20.7998 12.5038C20.0255 12.8536 19.0924 13.0286 18.0007 13.0286ZM18.0007 11.4905C18.9782 11.4905 19.7716 11.213 20.3809 10.6581C21.0029 10.1032 21.3393 9.20444 21.3901 7.9619C21.4155 7.41905 21.4282 6.93651 21.4282 6.51428C21.4282 6.08 21.4155 5.59746 21.3901 5.06667C21.3647 4.23428 21.1997 3.55873 20.895 3.04C20.6031 2.52127 20.2095 2.14127 19.7145 1.9C19.2194 1.65873 18.6481 1.5381 18.0007 1.5381C17.3787 1.5381 16.8201 1.65873 16.325 1.9C15.83 2.14127 15.4301 2.52127 15.1254 3.04C14.8335 3.55873 14.6684 4.23428 14.6303 5.06667C14.6177 5.59746 14.6113 6.08 14.6113 6.51428C14.6113 6.93651 14.6177 7.41905 14.6303 7.9619C14.6811 9.20444 15.0175 10.1032 15.6396 10.6581C16.2616 11.213 17.0486 11.4905 18.0007 11.4905Z" fill="white"/>
<path d="M29.6966 12.8476C29.5062 12.8476 29.3538 12.8054 29.2396 12.7209C29.138 12.6365 29.0555 12.5219 28.992 12.3771L24.7457 0.741905C24.7204 0.669524 24.7077 0.603175 24.7077 0.542858C24.7077 0.446349 24.7458 0.361905 24.8219 0.289524C24.8981 0.217143 24.9869 0.180952 25.0885 0.180952H26.0787C26.231 0.180952 26.3452 0.223175 26.4214 0.307619C26.5103 0.38 26.561 0.446349 26.5737 0.506666L30.3059 10.7667L34.0381 0.506666C34.0634 0.446349 34.1142 0.38 34.1904 0.307619C34.2666 0.223175 34.3808 0.180952 34.5331 0.180952H35.5233C35.6249 0.180952 35.7137 0.217143 35.7899 0.289524C35.8787 0.361905 35.9232 0.446349 35.9232 0.542858C35.9232 0.603175 35.9105 0.669524 35.8851 0.741905L31.6198 12.3771C31.569 12.5219 31.4865 12.6365 31.3722 12.7209C31.2707 12.8054 31.1247 12.8476 30.9343 12.8476H29.6966Z" fill="white"/>
<path d="M36.3701 12.8476C36.2685 12.8476 36.1796 12.8114 36.1035 12.739C36.0273 12.6667 35.9892 12.5822 35.9892 12.4857C35.9892 12.4254 35.9956 12.359 36.0083 12.2867L40.7306 0.579048C40.7814 0.458413 40.8512 0.361905 40.94 0.289524C41.0289 0.217143 41.1622 0.180952 41.3399 0.180952H42.6347C42.7998 0.180952 42.9267 0.217143 43.0156 0.289524C43.1171 0.361905 43.1933 0.458413 43.2441 0.579048L47.9473 12.2867C47.9727 12.359 47.9854 12.4254 47.9854 12.4857C47.9854 12.5822 47.9473 12.6667 47.8712 12.739C47.795 12.8114 47.7062 12.8476 47.6046 12.8476H46.6335C46.4811 12.8476 46.3669 12.8114 46.2907 12.739C46.2273 12.6667 46.1828 12.6003 46.1574 12.54L45.1101 9.97047H38.8645L37.8172 12.54C37.8045 12.6003 37.7601 12.6667 37.6839 12.739C37.6078 12.8114 37.4935 12.8476 37.3412 12.8476H36.3701ZM39.4167 8.41428H44.5579L41.9873 1.99048L39.4167 8.41428Z" fill="white"/>
<path d="M51.9595 12.8476C51.8325 12.8476 51.7246 12.8114 51.6358 12.739C51.5596 12.6546 51.5215 12.5521 51.5215 12.4314V1.79143H47.8655C47.7386 1.79143 47.6307 1.75524 47.5418 1.68286C47.4657 1.59841 47.4276 1.49587 47.4276 1.37524V0.615238C47.4276 0.482539 47.4657 0.38 47.5418 0.307619C47.6307 0.223175 47.7386 0.180952 47.8655 0.180952H57.0436C57.1832 0.180952 57.2911 0.223175 57.3673 0.307619C57.4561 0.38 57.5006 0.482539 57.5006 0.615238V1.37524C57.5006 1.49587 57.4561 1.59841 57.3673 1.68286C57.2911 1.75524 57.1832 1.79143 57.0436 1.79143H53.4066V12.4314C53.4066 12.5521 53.3622 12.6546 53.2733 12.739C53.1972 12.8114 53.0893 12.8476 52.9496 12.8476H51.9595Z" fill="white"/>
<path d="M64.1357 13.0286C63.0567 13.0286 62.13 12.8536 61.3556 12.5038C60.5813 12.1419 59.9846 11.593 59.5657 10.8571C59.1468 10.1092 58.9119 9.17428 58.8612 8.05238C58.8485 7.52159 58.8421 7.01492 58.8421 6.53238C58.8421 6.03778 58.8485 5.52508 58.8612 4.99428C58.9119 3.88444 59.1531 2.96159 59.5847 2.22571C60.029 1.47778 60.6384 0.922857 61.4127 0.560953C62.1998 0.186984 63.1074 0 64.1357 0C65.1766 0 66.0843 0.186984 66.8586 0.560953C67.6457 0.922857 68.2614 1.47778 68.7057 2.22571C69.15 2.96159 69.3912 3.88444 69.4292 4.99428C69.4546 5.52508 69.4673 6.03778 69.4673 6.53238C69.4673 7.01492 69.4546 7.52159 69.4292 8.05238C69.3912 9.17428 69.1563 10.1092 68.7247 10.8571C68.3058 11.593 67.7092 12.1419 66.9348 12.5038C66.1604 12.8536 65.2274 13.0286 64.1357 13.0286ZM64.1357 11.4905C65.1132 11.4905 65.9065 11.213 66.5159 10.6581C67.1379 10.1032 67.4743 9.20444 67.5251 7.9619C67.5505 7.41905 67.5632 6.93651 67.5632 6.51428C67.5632 6.08 67.5505 5.59746 67.5251 5.06667C67.4997 4.23428 67.3347 3.55873 67.03 3.04C66.738 2.52127 66.3445 2.14127 65.8494 1.9C65.3543 1.65873 64.7831 1.5381 64.1357 1.5381C63.5137 1.5381 62.9551 1.65873 62.46 1.9C61.9649 2.14127 61.5651 2.52127 61.2604 3.04C60.9684 3.55873 60.8034 4.23428 60.7653 5.06667C60.7526 5.59746 60.7463 6.08 60.7463 6.51428C60.7463 6.93651 60.7526 7.41905 60.7653 7.9619C60.8161 9.20444 61.1525 10.1032 61.7745 10.6581C62.3965 11.213 63.1836 11.4905 64.1357 11.4905Z" fill="white"/>
<path d="M72.6807 12.8476C72.5411 12.8476 72.4332 12.8114 72.357 12.739C72.2809 12.6546 72.2428 12.5521 72.2428 12.4314V0.615238C72.2428 0.482539 72.2809 0.38 72.357 0.307619C72.4332 0.223175 72.5411 0.180952 72.6807 0.180952H77.3269C78.7614 0.180952 79.8975 0.500635 80.7353 1.14C81.5732 1.77936 81.9921 2.72635 81.9921 3.98095C81.9921 4.90984 81.7446 5.66984 81.2495 6.26095C80.7671 6.84 80.107 7.24413 79.2691 7.47333L82.2015 12.2867C82.2396 12.359 82.2587 12.4254 82.2587 12.4857C82.2587 12.5822 82.2142 12.6667 82.1254 12.739C82.0492 12.8114 81.9604 12.8476 81.8588 12.8476H80.9448C80.729 12.8476 80.5703 12.7933 80.4688 12.6848C80.3672 12.5762 80.2783 12.4676 80.2022 12.359L77.4411 7.76286H74.1089V12.4314C74.1089 12.5521 74.0644 12.6546 73.9756 12.739C73.8994 12.8114 73.7915 12.8476 73.6519 12.8476H72.6807ZM74.1089 6.22476H77.2507C78.2028 6.22476 78.9137 6.03778 79.3834 5.66381C79.8531 5.27778 80.0879 4.71079 80.0879 3.96286C80.0879 3.22698 79.8531 2.66603 79.3834 2.28C78.9264 1.89397 78.2155 1.70095 77.2507 1.70095H74.1089V6.22476Z" fill="white"/>
<path d="M85.1582 12.8476C85.0186 12.8476 84.9107 12.8114 84.8345 12.739C84.7583 12.6546 84.7202 12.5521 84.7202 12.4314V0.615238C84.7202 0.482539 84.7583 0.38 84.8345 0.307619C84.9107 0.223175 85.0186 0.180952 85.1582 0.180952H93.0224C93.162 0.180952 93.2699 0.223175 93.3461 0.307619C93.4223 0.38 93.4603 0.482539 93.4603 0.615238V1.30286C93.4603 1.43556 93.4223 1.53809 93.3461 1.61048C93.2699 1.68286 93.162 1.71905 93.0224 1.71905H86.5482V5.6819H92.6035C92.7431 5.6819 92.851 5.72413 92.9272 5.80857C93.0033 5.88095 93.0414 5.98349 93.0414 6.11619V6.78571C93.0414 6.90635 93.0033 7.00889 92.9272 7.09333C92.851 7.16571 92.7431 7.2019 92.6035 7.2019H86.5482V11.3095H93.1747C93.3144 11.3095 93.4223 11.3457 93.4984 11.4181C93.5746 11.4905 93.6127 11.593 93.6127 11.7257V12.4314C93.6127 12.5521 93.5746 12.6546 93.4984 12.739C93.4223 12.8114 93.3144 12.8476 93.1747 12.8476H85.1582Z" fill="white"/>
<path d="M4.7631 31.8469C3.73991 31.8469 2.88138 31.6901 2.1875 31.3765C1.49361 31.0507 0.9585 30.6345 0.582157 30.1279C0.217574 29.6092 0.0235215 29.0603 0 28.4812C0 28.3847 0.0352822 28.3003 0.105847 28.2279C0.188172 28.1434 0.282258 28.1012 0.388104 28.1012H1.2878C1.42893 28.1012 1.53478 28.1374 1.60534 28.2098C1.67591 28.2822 1.72295 28.3666 1.74647 28.4631C1.80527 28.7526 1.9464 29.0422 2.16986 29.3317C2.40507 29.6092 2.72849 29.8444 3.14012 30.0374C3.5635 30.2184 4.1045 30.3088 4.7631 30.3088C5.77452 30.3088 6.51545 30.1279 6.98588 29.766C7.46807 29.392 7.70916 28.8974 7.70916 28.2822C7.70916 27.8599 7.5798 27.5222 7.32106 27.2688C7.07408 27.0034 6.69186 26.7682 6.17439 26.5631C5.65692 26.358 4.98655 26.1349 4.1633 25.8936C3.30477 25.6403 2.59324 25.3628 2.02873 25.0612C1.46421 24.7596 1.04083 24.3857 0.758568 23.9393C0.488071 23.493 0.352822 22.926 0.352822 22.2384C0.352822 21.5869 0.523353 21.0079 0.864414 20.5012C1.20548 19.9825 1.69355 19.5723 2.32863 19.2707C2.97547 18.9692 3.75756 18.8184 4.67489 18.8184C5.40406 18.8184 6.03914 18.9209 6.58013 19.126C7.13289 19.319 7.59156 19.5844 7.95614 19.9222C8.32072 20.2479 8.5971 20.6038 8.78527 20.9898C8.97344 21.3638 9.07341 21.7317 9.08517 22.0936C9.08517 22.178 9.05577 22.2625 8.99697 22.3469C8.93816 22.4193 8.84408 22.4555 8.71471 22.4555H7.77973C7.6974 22.4555 7.6092 22.4314 7.51511 22.3831C7.43279 22.3349 7.3681 22.2444 7.32106 22.1117C7.2505 21.6171 6.98 21.2009 6.50957 20.8631C6.03914 20.5253 5.42758 20.3565 4.67489 20.3565C3.91045 20.3565 3.28713 20.5072 2.80494 20.8088C2.33451 21.1104 2.09929 21.5809 2.09929 22.2203C2.09929 22.6304 2.21102 22.9742 2.43447 23.2517C2.65793 23.5171 3.01075 23.7523 3.49294 23.9574C3.97513 24.1625 4.60433 24.3796 5.38054 24.6088C6.3214 24.8742 7.09172 25.1577 7.69152 25.4593C8.29132 25.7488 8.73235 26.1168 9.01461 26.5631C9.30862 26.9974 9.45563 27.5584 9.45563 28.246C9.45563 29.006 9.26158 29.6574 8.87348 30.2003C8.48537 30.7311 7.9385 31.1412 7.23285 31.4307C6.53897 31.7082 5.71572 31.8469 4.7631 31.8469Z" fill="white"/>
<path d="M16.1958 31.8469C15.1961 31.8469 14.3376 31.672 13.6202 31.3222C12.9028 30.9603 12.35 30.4114 11.9619 29.6755C11.5738 28.9276 11.3562 27.9926 11.3092 26.8707C11.2974 26.3399 11.2915 25.8333 11.2915 25.3507C11.2915 24.8561 11.2974 24.3434 11.3092 23.8126C11.3562 22.7028 11.5797 21.7799 11.9796 21.0441C12.3912 20.2961 12.9557 19.7412 13.6731 19.3793C14.4023 19.0053 15.2432 18.8184 16.1958 18.8184C17.1602 18.8184 18.001 19.0053 18.7185 19.3793C19.4476 19.7412 20.018 20.2961 20.4296 21.0441C20.8413 21.7799 21.0647 22.7028 21.1 23.8126C21.1235 24.3434 21.1353 24.8561 21.1353 25.3507C21.1353 25.8333 21.1235 26.3399 21.1 26.8707C21.0647 27.9926 20.8471 28.9276 20.4473 29.6755C20.0592 30.4114 19.5064 30.9603 18.789 31.3222C18.0716 31.672 17.2072 31.8469 16.1958 31.8469ZM16.1958 30.3088C17.1014 30.3088 17.8364 30.0314 18.4009 29.4765C18.9772 28.9215 19.2889 28.0228 19.3359 26.7803C19.3594 26.2374 19.3712 25.7549 19.3712 25.3326C19.3712 24.8984 19.3594 24.4158 19.3359 23.885C19.3124 23.0526 19.1595 22.3771 18.8772 21.8584C18.6067 21.3396 18.2421 20.9596 17.7835 20.7184C17.3248 20.4771 16.7956 20.3565 16.1958 20.3565C15.6195 20.3565 15.102 20.4771 14.6434 20.7184C14.1847 20.9596 13.8142 21.3396 13.532 21.8584C13.2615 22.3771 13.1086 23.0526 13.0733 23.885C13.0615 24.4158 13.0557 24.8984 13.0557 25.3326C13.0557 25.7549 13.0615 26.2374 13.0733 26.7803C13.1203 28.0228 13.432 28.9215 14.0083 29.4765C14.5846 30.0314 15.3137 30.3088 16.1958 30.3088Z" fill="white"/>
<path d="M24.1124 31.666C23.983 31.666 23.883 31.6298 23.8125 31.5574C23.7419 31.473 23.7066 31.3704 23.7066 31.2498V19.4155C23.7066 19.2949 23.7419 19.1984 23.8125 19.126C23.883 19.0415 23.983 18.9993 24.1124 18.9993H25.0473C25.1649 18.9993 25.259 19.0415 25.3296 19.126C25.4002 19.1984 25.4354 19.2949 25.4354 19.4155V30.0917H31.3099C31.4393 30.0917 31.5393 30.1339 31.6098 30.2184C31.6804 30.2907 31.7157 30.3933 31.7157 30.526V31.2498C31.7157 31.3704 31.6804 31.473 31.6098 31.5574C31.5393 31.6298 31.4393 31.666 31.3099 31.666H24.1124Z" fill="white"/>
<path d="M38.0113 31.8469C37.0234 31.8469 36.1708 31.666 35.4534 31.3041C34.7477 30.9422 34.2009 30.3933 33.8128 29.6574C33.4364 28.9095 33.2482 27.9504 33.2482 26.7803V19.4336C33.2482 19.3009 33.2835 19.1984 33.3541 19.126C33.4247 19.0415 33.5246 18.9993 33.654 18.9993H34.5537C34.6831 18.9993 34.783 19.0415 34.8536 19.126C34.9359 19.1984 34.9771 19.3009 34.9771 19.4336V26.8165C34.9771 27.9987 35.2476 28.8733 35.7886 29.4403C36.3296 30.0072 37.0705 30.2907 38.0113 30.2907C38.9404 30.2907 39.6755 30.0072 40.2165 29.4403C40.7692 28.8733 41.0456 27.9987 41.0456 26.8165V19.4336C41.0456 19.3009 41.0809 19.1984 41.1515 19.126C41.2338 19.0415 41.3338 18.9993 41.4514 18.9993H42.3687C42.4863 18.9993 42.5804 19.0415 42.651 19.126C42.7333 19.1984 42.7744 19.3009 42.7744 19.4336V26.7803C42.7744 27.9504 42.5804 28.9095 42.1923 29.6574C41.8159 30.3933 41.275 30.9422 40.5693 31.3041C39.8637 31.666 39.011 31.8469 38.0113 31.8469Z" fill="white"/>
<path d="M48.8284 31.666C48.7108 31.666 48.6108 31.6298 48.5285 31.5574C48.4579 31.473 48.4226 31.3704 48.4226 31.2498V20.6098H45.0355C44.9179 20.6098 44.818 20.5736 44.7356 20.5012C44.6651 20.4168 44.6298 20.3142 44.6298 20.1936V19.4336C44.6298 19.3009 44.6651 19.1984 44.7356 19.126C44.818 19.0415 44.9179 18.9993 45.0355 18.9993H53.5386C53.6679 18.9993 53.7679 19.0415 53.8385 19.126C53.9208 19.1984 53.9619 19.3009 53.9619 19.4336V20.1936C53.9619 20.3142 53.9208 20.4168 53.8385 20.5012C53.7679 20.5736 53.6679 20.6098 53.5386 20.6098H50.1691V31.2498C50.1691 31.3704 50.1279 31.473 50.0456 31.5574C49.975 31.6298 49.8751 31.666 49.7457 31.666H48.8284Z" fill="white"/>
<path d="M56.3453 31.666C56.2159 31.666 56.1159 31.6298 56.0454 31.5574C55.9748 31.473 55.9395 31.3704 55.9395 31.2498V19.4155C55.9395 19.2949 55.9748 19.1984 56.0454 19.126C56.1159 19.0415 56.2159 18.9993 56.3453 18.9993H57.2803C57.3979 18.9993 57.492 19.0415 57.5625 19.126C57.6448 19.1984 57.686 19.2949 57.686 19.4155V31.2498C57.686 31.3704 57.6448 31.473 57.5625 31.5574C57.492 31.6298 57.3979 31.666 57.2803 31.666H56.3453Z" fill="white"/>
<path d="M65.1912 31.8469C64.1915 31.8469 63.333 31.672 62.6156 31.3222C61.8982 30.9603 61.3454 30.4114 60.9573 29.6755C60.5692 28.9276 60.3517 27.9926 60.3046 26.8707C60.2928 26.3399 60.287 25.8333 60.287 25.3507C60.287 24.8561 60.2928 24.3434 60.3046 23.8126C60.3517 22.7028 60.5751 21.7799 60.975 21.0441C61.3866 20.2961 61.9511 19.7412 62.6685 19.3793C63.3977 19.0053 64.2386 18.8184 65.1912 18.8184C66.1556 18.8184 66.9965 19.0053 67.7139 19.3793C68.443 19.7412 69.0134 20.2961 69.4251 21.0441C69.8367 21.7799 70.0601 22.7028 70.0954 23.8126C70.1189 24.3434 70.1307 24.8561 70.1307 25.3507C70.1307 25.8333 70.1189 26.3399 70.0954 26.8707C70.0601 27.9926 69.8426 28.9276 69.4427 29.6755C69.0546 30.4114 68.5018 30.9603 67.7844 31.3222C67.067 31.672 66.2026 31.8469 65.1912 31.8469ZM65.1912 30.3088C66.0968 30.3088 66.8318 30.0314 67.3963 29.4765C67.9726 28.9215 68.2843 28.0228 68.3313 26.7803C68.3548 26.2374 68.3666 25.7549 68.3666 25.3326C68.3666 24.8984 68.3548 24.4158 68.3313 23.885C68.3078 23.0526 68.1549 22.3771 67.8726 21.8584C67.6021 21.3396 67.2376 20.9596 66.7789 20.7184C66.3202 20.4771 65.791 20.3565 65.1912 20.3565C64.6149 20.3565 64.0974 20.4771 63.6388 20.7184C63.1801 20.9596 62.8096 21.3396 62.5274 21.8584C62.2569 22.3771 62.104 23.0526 62.0687 23.885C62.057 24.4158 62.0511 24.8984 62.0511 25.3326C62.0511 25.7549 62.057 26.2374 62.0687 26.7803C62.1158 28.0228 62.4274 28.9215 63.0037 29.4765C63.58 30.0314 64.3091 30.3088 65.1912 30.3088Z" fill="white"/>
<path d="M73.1078 31.666C72.9784 31.666 72.8784 31.6298 72.8079 31.5574C72.7373 31.473 72.702 31.3704 72.702 31.2498V19.4336C72.702 19.3009 72.7373 19.1984 72.8079 19.126C72.8784 19.0415 72.9784 18.9993 73.1078 18.9993H73.9193C74.0604 18.9993 74.1662 19.0355 74.2368 19.1079C74.3074 19.1682 74.3485 19.2165 74.3603 19.2526L80.2171 28.4812V19.4336C80.2171 19.3009 80.2524 19.1984 80.323 19.126C80.3936 19.0415 80.4935 18.9993 80.6229 18.9993H81.4697C81.599 18.9993 81.699 19.0415 81.7696 19.126C81.8519 19.1984 81.893 19.3009 81.893 19.4336V31.2317C81.893 31.3523 81.8519 31.4549 81.7696 31.5393C81.699 31.6238 81.6049 31.666 81.4873 31.666H80.6405C80.5112 31.666 80.4112 31.6298 80.3406 31.5574C80.2818 31.485 80.2407 31.4368 80.2171 31.4126L74.3779 22.2745V31.2498C74.3779 31.3704 74.3368 31.473 74.2544 31.5574C74.1839 31.6298 74.0839 31.666 73.9546 31.666H73.1078Z" fill="white"/>
<path d="M88.9201 31.8469C87.897 31.8469 87.0384 31.6901 86.3445 31.3765C85.6507 31.0507 85.1155 30.6345 84.7392 30.1279C84.3746 29.6092 84.1806 29.0603 84.157 28.4812C84.157 28.3847 84.1923 28.3003 84.2629 28.2279C84.3452 28.1434 84.4393 28.1012 84.5451 28.1012H85.4448C85.586 28.1012 85.6918 28.1374 85.7624 28.2098C85.8329 28.2822 85.88 28.3666 85.9035 28.4631C85.9623 28.7526 86.1034 29.0422 86.3269 29.3317C86.5621 29.6092 86.8855 29.8444 87.2972 30.0374C87.7205 30.2184 88.2615 30.3088 88.9201 30.3088C89.9316 30.3088 90.6725 30.1279 91.1429 29.766C91.6251 29.392 91.8662 28.8974 91.8662 28.2822C91.8662 27.8599 91.7368 27.5222 91.4781 27.2688C91.2311 27.0034 90.8489 26.7682 90.3314 26.5631C89.814 26.358 89.1436 26.1349 88.3203 25.8936C87.4618 25.6403 86.7503 25.3628 86.1858 25.0612C85.6212 24.7596 85.1979 24.3857 84.9156 23.9393C84.6451 23.493 84.5099 22.926 84.5099 22.2384C84.5099 21.5869 84.6804 21.0079 85.0215 20.5012C85.3625 19.9825 85.8506 19.5723 86.4857 19.2707C87.1325 18.9692 87.9146 18.8184 88.8319 18.8184C89.5611 18.8184 90.1962 18.9209 90.7372 19.126C91.2899 19.319 91.7486 19.5844 92.1132 19.9222C92.4778 20.2479 92.7541 20.6038 92.9423 20.9898C93.1305 21.3638 93.2304 21.7317 93.2422 22.0936C93.2422 22.178 93.2128 22.2625 93.154 22.3469C93.0952 22.4193 93.0011 22.4555 92.8717 22.4555H91.9368C91.8544 22.4555 91.7662 22.4314 91.6721 22.3831C91.5898 22.3349 91.5251 22.2444 91.4781 22.1117C91.4075 21.6171 91.137 21.2009 90.6666 20.8631C90.1962 20.5253 89.5846 20.3565 88.8319 20.3565C88.0675 20.3565 87.4442 20.5072 86.962 20.8088C86.4915 21.1104 86.2563 21.5809 86.2563 22.2203C86.2563 22.6304 86.3681 22.9742 86.5915 23.2517C86.815 23.5171 87.1678 23.7523 87.65 23.9574C88.1322 24.1625 88.7614 24.3796 89.5376 24.6088C90.4784 24.8742 91.2488 25.1577 91.8486 25.4593C92.4484 25.7488 92.8894 26.1168 93.1716 26.5631C93.4657 26.9974 93.6127 27.5584 93.6127 28.246C93.6127 29.006 93.4186 29.6574 93.0305 30.2003C92.6424 30.7311 92.0955 31.1412 91.3899 31.4307C90.696 31.7082 89.8728 31.8469 88.9201 31.8469Z" fill="white"/>
</svg>
