<svg width="45" height="45" viewBox="0 0 45 45" fill="none" xmlns="http://www.w3.org/2000/svg">
<path d="M7.72057 16.2402C7.56933 17.0952 7.4911 17.8523 7.4911 18.6146C7.4911 21.3185 7.45981 24.0276 7.50153 26.7316C7.54326 29.348 8.2786 31.7584 9.9996 33.8031C12.1013 36.3011 14.8758 37.5063 18.1092 37.6299C21.3948 37.7586 24.6855 37.7896 27.9659 37.6041C33.4522 37.3003 37.7548 33.113 38.0729 27.705C38.2763 24.244 38.2815 20.7726 38.0729 17.3115C37.7548 12.0838 33.5566 7.89138 28.2475 7.53601C24.6021 7.29394 20.9358 7.31969 17.2904 7.55661C16.5447 7.60811 16.2265 7.4124 15.8875 6.8201C14.9384 5.18226 13.9266 3.57534 12.9253 1.96841C12.7271 1.65423 12.7115 1.52547 13.1391 1.44306C14.1613 1.2525 15.1835 1.06708 16.2213 1.06193C20.7429 1.05163 25.2696 0.902269 29.7756 1.10829C37.5722 1.46881 43.2829 6.62953 44.4302 14.0925C44.5814 15.0711 44.6492 16.0548 44.644 17.0437C44.6336 21.0507 44.7431 25.0577 44.6023 29.0596C44.3155 36.9912 38.9803 42.7546 31.3192 43.8516C30.3753 43.9855 29.4366 44.0525 28.4822 44.0473C24.5082 44.0422 20.529 44.1194 16.5603 44.0267C11.6215 43.9134 7.41288 42.1417 4.30463 38.2325C2.0934 35.4461 1.08165 32.2116 1.03993 28.7094C0.987778 24.4448 0.977348 20.1751 1.06601 15.9106C1.12337 12.9439 1.93694 10.1267 3.72053 7.71627C4.62797 6.49562 5.9109 5.57885 7.6632 5.83637C8.57586 5.97028 9.3112 6.39261 9.89008 7.09822C13.7545 11.7748 17.6242 16.4462 21.4939 21.1177C21.8589 21.5606 22.224 22.0087 22.589 22.4516C24.1223 24.3058 23.9658 26.7059 22.2188 28.0965C20.4925 29.4716 17.9006 29.142 16.4403 27.3188C14.688 25.1298 12.9723 22.91 11.2408 20.7005C10.0935 19.2378 8.94092 17.775 7.72579 16.2248L7.72057 16.2402Z" fill="#2776EA" stroke="#2776EA" stroke-width="0.2"/>
<path d="M22.8216 16.1848C20.986 16.1848 19.5884 14.7994 19.5884 12.9866C19.5884 11.2149 21.0068 9.81407 22.7956 9.80377C24.6364 9.79347 26.0705 11.2149 26.0601 13.0381C26.0497 14.8046 24.626 16.1848 22.8216 16.1848Z" fill="#F9D00D"/>
</svg>
