<svg width="157" height="30" viewBox="0 0 157 30" fill="none" xmlns="http://www.w3.org/2000/svg">
<g clip-path="url(#clip0_1075_839871)">
<path d="M0 0.0505371V30.0029H75.4964V0.0505371H0ZM26.484 20.4835C26.4922 20.943 26.3762 21.396 26.1486 21.7931C25.9289 22.1709 25.6371 22.5002 25.2905 22.7617C24.9392 23.0264 24.5441 23.225 24.1239 23.348C23.7058 23.4737 23.2722 23.538 22.8361 23.5391H10.6061C10.1533 23.5408 9.70235 23.4811 9.26508 23.3617C8.84836 23.2493 8.45375 23.0649 8.09852 22.8165C7.75243 22.5737 7.46765 22.2513 7.26739 21.8753C7.05066 21.4456 6.94453 20.967 6.95891 20.4842V9.57072C6.94465 9.08796 7.05078 8.60939 7.26739 8.17958C7.46808 7.80495 7.75283 7.48374 8.09852 7.24205C8.4537 6.99337 8.84831 6.8087 9.26508 6.69613C9.70239 6.5769 10.1533 6.51724 10.6061 6.51872H22.8361C23.2721 6.51993 23.7057 6.58403 24.1239 6.70911C24.5442 6.83222 24.9393 7.03105 25.2905 7.29614C25.6371 7.55738 25.9288 7.88643 26.1486 8.26395C26.3761 8.66106 26.4922 9.11406 26.484 9.5736V20.4835ZM48.584 23.5384H43.542L33.8053 13.1997V23.5355H29.0582V6.51584H34.2074L43.8632 16.9346V6.51584H48.5833L48.584 23.5384ZM68.5382 10.4462H55.8791V13.1189H62.5309V17.0435H55.8791V19.6073H68.5382V23.5348H51.1583V6.51511H68.5382V10.4426V10.4462Z" fill="#5FB3E4"/>
<path d="M21.7376 10.4434H11.6797V19.608H21.7376V10.4434Z" fill="#5FB3E4"/>
<path d="M79.2363 29.9495V0H87.5902V11.6152H105.335V0H113.689V29.9495H105.335V18.5262H87.5902V29.9495H79.2363Z" fill="#5FB3E4"/>
<path d="M118.171 0H148.282C148.772 0.014431 149.251 0.154851 149.674 0.408183C150.681 0.98481 151.514 1.83142 152.081 2.85584C152.33 3.28584 152.468 3.77277 152.482 4.2715V12.8181C152.503 13.6838 152.367 14.546 152.081 15.3617C151.851 16.0064 151.48 16.5892 150.995 17.0658C150.539 17.4983 150.001 17.8328 149.414 18.0495C148.823 18.2728 148.201 18.4022 147.571 18.4331H127.28C127.091 18.4337 126.907 18.5015 126.761 18.625C126.696 18.6666 126.641 18.7228 126.6 18.7893C126.559 18.8557 126.534 18.9307 126.525 19.0086V22.4645C126.525 22.8491 126.777 23.0414 127.28 23.0414H152.483V29.9531H122.325C121.819 29.9439 121.323 29.8034 120.885 29.5449C120.395 29.2719 119.949 28.9238 119.563 28.5129C119.173 28.1036 118.84 27.6427 118.571 27.1427C118.321 26.713 118.183 26.2259 118.169 25.7271V17.1336C118.141 16.232 118.294 15.334 118.617 14.4941C118.886 13.8323 119.298 13.2407 119.823 12.7633C120.321 12.3201 120.91 11.994 121.546 11.8085C122.182 11.6176 122.842 11.5205 123.505 11.52H143.421C143.924 11.52 144.176 11.3277 144.177 10.9431V7.4872C144.168 7.40931 144.143 7.33437 144.102 7.26795C144.061 7.20153 144.006 7.14533 143.941 7.10354C143.795 6.98009 143.611 6.91224 143.421 6.9117H118.172L118.171 0Z" fill="#5FB3E4"/>
<path d="M154.444 0V0.42405H153.739V2.39501H153.242V0.42405H152.533V0H154.444Z" fill="#5FB3E4"/>
<path d="M155.181 2.39501H154.723V0H155.438L155.864 1.88298L156.289 0H156.998V2.39501H156.54V0.774539C156.54 0.728384 156.54 0.662756 156.54 0.578379C156.54 0.494002 156.54 0.429819 156.54 0.384385L156.093 2.39429H155.616L155.174 0.384385C155.174 0.429819 155.174 0.494723 155.174 0.578379C155.174 0.662035 155.174 0.727663 155.174 0.774539V2.39429L155.181 2.39501Z" fill="#5FB3E4"/>
</g>
<defs>
<clipPath id="clip0_1075_839871">
<rect width="157" height="30" fill="white"/>
</clipPath>
</defs>
</svg>
