<svg width="65" height="51" viewBox="0 0 65 51" fill="none" xmlns="http://www.w3.org/2000/svg">
<path d="M24.8042 43.9962C30.8559 43.9962 36.7847 43.9962 42.8856 43.9962C42.9307 43.3447 43.0085 42.7588 43.0085 42.1729C43.0167 33.4333 43.0208 24.6938 43.0085 15.9543C43.0044 12.9059 42.0334 11.9717 38.9276 11.9553C37.9033 11.9471 36.8708 12.0127 35.8587 11.9062C35.5105 11.8693 35.2073 11.4227 34.8836 11.1645C35.1499 10.9023 35.4162 10.4147 35.6785 10.4188C37.6452 10.4475 39.6774 10.2959 41.5581 10.7425C43.746 11.2588 44.5614 13.1517 44.6106 15.3151C44.6474 16.8639 44.6188 18.4168 44.6188 20.1745C47.491 20.1745 50.1378 20.2441 52.7765 20.154C54.9317 20.0803 56.5788 20.826 57.9473 22.4936C59.7214 24.6569 61.5816 26.7506 63.4704 28.8157C64.5521 29.9998 65.0192 31.3314 64.9987 32.9089C64.9659 35.1624 64.9946 37.4159 64.9905 39.6694C64.9823 44.1396 64.0072 45.2458 59.5903 45.7211C58.611 48.6999 56.8246 50.896 53.346 50.8059C50.0968 50.7198 48.3104 48.7203 47.4377 45.6802C39.9028 45.6802 32.4088 45.6802 24.8165 45.6802C23.8414 48.6876 22.0591 50.8837 18.5886 50.8059C15.3395 50.7321 13.5326 48.7531 12.6558 45.5695C11.4307 45.5695 10.2138 45.6269 9.00917 45.5572C6.73927 45.4261 5.0266 43.7585 4.94465 41.4804C4.85451 38.8909 4.88729 36.2932 4.94465 33.6997C4.95285 33.2653 5.36667 32.8433 5.59612 32.4131C5.89932 32.8515 6.45246 33.2817 6.46885 33.7324C6.55899 36.1171 6.5385 38.5099 6.50572 40.8986C6.48933 42.1893 6.92365 43.3939 8.13235 43.6889C9.54182 44.0289 11.0701 43.8855 12.5492 43.8651C12.7172 43.8651 12.9221 43.3365 13.0368 43.0292C14.0611 40.284 16.0319 38.8377 18.9615 38.9237C21.8378 39.0057 23.5791 40.6774 24.5256 43.2873C24.5912 43.4799 24.6731 43.6643 24.8042 43.9962ZM44.7212 21.7888C44.7212 29.3238 44.7212 36.5924 44.7212 43.9593C45.6718 43.9593 46.524 43.9593 47.4541 43.9593C48.3227 41.0666 50.0026 39.0671 53.1657 38.9237C56.7222 38.7598 58.5823 40.9355 59.6026 43.9552C62.4297 44.0126 63.409 43.1603 63.4499 40.5913C63.4909 38.0715 63.5728 35.5393 63.4049 33.0277C63.3311 31.9583 62.8886 30.7578 62.2248 29.9179C60.3688 27.566 58.3652 25.3248 56.3042 23.1491C55.6978 22.51 54.735 21.8913 53.9032 21.8462C50.9245 21.6946 47.9294 21.7888 44.7212 21.7888ZM23.0588 44.8115C23.0506 42.3163 21.1413 40.4684 18.6214 40.5176C16.2286 40.5667 14.3684 42.4269 14.352 44.8033C14.3316 47.2617 16.2655 49.2202 18.7075 49.2161C21.1904 49.2079 23.0711 47.3068 23.0588 44.8115ZM57.853 44.8402C57.8325 42.3654 55.8986 40.4766 53.4116 40.5094C50.9204 40.5421 49.0848 42.4679 49.1463 44.9836C49.2077 47.3846 51.0638 49.212 53.4525 49.2202C55.9191 49.2243 57.8735 47.2781 57.853 44.8402Z" fill="#2776EA"/>
<path d="M7.56757 2.42092C8.16578 2.57661 8.55912 2.67905 8.95246 2.78558C10.2759 3.13795 11.3822 3.06009 11.8943 1.49902C12.2672 0.359977 13.1686 -0.00877708 14.3035 0.019904C15.2582 0.0444877 16.217 0.0731671 17.1675 0.0117076C18.618 -0.0784328 19.6833 0.335395 20.1954 1.83091C20.6789 3.24038 21.8794 3.15433 22.9201 2.77328C24.3993 2.22834 25.4072 2.73231 26.3496 3.79351C26.8904 4.40401 27.4722 4.98992 28.0909 5.52257C29.2259 6.50592 29.7257 7.5876 29.1726 9.12409C28.726 10.3615 29.0948 11.3858 30.451 11.9143C31.6269 12.3732 32.0243 13.3197 31.9752 14.5325C31.9383 15.4872 31.9301 16.4419 31.9752 17.3965C32.0366 18.6995 31.59 19.6705 30.3117 20.1253C29.0005 20.5924 28.6932 21.5635 29.1439 22.723C29.7995 24.4234 29.1439 25.5911 27.8902 26.6523C27.2182 27.2259 26.6241 27.8938 26.0054 28.5289C25.231 29.3238 24.3952 29.672 23.2479 29.2746C21.8057 28.7788 20.6871 29.0165 19.8963 30.6226C19.5726 31.2823 18.4541 31.7412 17.6141 31.9173C16.5693 32.1345 15.4426 31.9501 14.3527 31.9747C13.2177 32.0034 12.3245 31.6305 11.9148 30.5202C11.3658 29.0328 10.2308 28.7665 8.94427 29.2213C7.56757 29.7048 6.58422 29.3115 5.67053 28.3076C5.03135 27.6029 4.343 26.935 3.63827 26.2877C2.63443 25.3699 2.24519 24.3373 2.73277 22.9934C3.21215 21.67 3.01138 20.5965 1.4667 20.0762C0.339947 19.6992 -0.0288088 18.7937 0.0121641 17.6506C0.0449425 16.6303 0.0613316 15.6019 0.00806674 14.5817C-0.0615873 13.2869 0.307169 12.3323 1.61011 11.8365C2.85978 11.3612 3.21625 10.3246 2.77374 9.17736C2.14685 7.54663 2.76555 6.43627 3.93737 5.40375C4.6544 4.77277 5.2608 4.02296 5.99012 3.40837C6.48999 2.98225 7.10458 2.69953 7.56757 2.42092ZM4.40037 23.5671C4.0398 25.038 7.18243 27.8979 8.66975 27.6193C11.1199 27.1563 11.7714 27.48 13.2751 29.6474C13.525 30.008 14.1232 30.2538 14.5944 30.3194C15.3975 30.43 16.2334 30.2989 17.0446 30.3645C17.9993 30.4464 18.6139 30.1104 18.8802 29.1762C19.335 27.5824 20.9452 27.1317 21.9368 27.4841C24.3337 28.3322 25.4072 26.8695 26.7634 25.5542C27.5788 24.7635 27.882 24.0628 27.5542 22.8828C26.9847 20.8383 27.5624 19.9246 29.4021 18.7568C29.8651 18.4618 30.1887 17.7612 30.3158 17.1876C30.4715 16.4705 30.3035 15.688 30.3649 14.9463C30.4469 14.004 30.1519 13.3812 29.1972 13.0985C27.5501 12.6109 27.0871 10.9884 27.4599 9.8698C28.2384 7.55073 26.8412 6.52641 25.5588 5.23576C24.7885 4.46547 24.1411 4.02296 22.9037 4.39581C20.8961 5.00221 19.8554 4.35074 18.7491 2.58071C18.4623 2.12182 17.7575 1.78584 17.188 1.67521C16.3972 1.52361 15.5245 1.49903 14.7501 1.6834C14.1396 1.83091 13.3366 2.25703 13.1235 2.76919C12.4679 4.35074 11.0585 4.93666 9.83748 4.49825C7.60855 3.69518 6.61291 5.04319 5.33455 6.24779C4.40856 7.12051 3.99473 7.91949 4.42495 9.27159C4.93711 10.89 4.24877 12.5207 2.88847 12.9878C1.42163 13.4877 1.52816 14.5325 1.6306 15.6019C1.74532 16.827 0.95864 18.3676 2.93354 19.0232C3.54813 19.228 4.14633 20.1048 4.33891 20.7891C4.58474 21.6536 4.40037 22.637 4.40037 23.5671Z" fill="#2776EA"/>
<path d="M56.4603 33.1957C55.7146 33.1957 54.9607 33.2654 54.2232 33.1793C52.7728 33.0154 51.7976 32.1919 51.6911 30.7168C51.5723 29.0287 51.6174 27.3243 51.6829 25.628C51.6952 25.2715 52.1131 24.9274 52.3426 24.5791C52.6376 24.9519 53.1579 25.3084 53.1907 25.7058C53.3013 27.0539 53.2768 28.4183 53.2358 29.7745C53.1948 31.0528 53.6988 31.6633 55.0304 31.6141C56.3866 31.5609 57.751 31.5445 59.099 31.651C59.4883 31.6838 59.8365 32.2083 60.2053 32.5074C59.8406 32.7409 59.4924 33.126 59.1072 33.1711C58.2345 33.2735 57.3454 33.2039 56.4645 33.2039C56.4604 33.1998 56.4603 33.1957 56.4603 33.1957Z" fill="#2776EA"/>
<path d="M23.4893 16.0526C23.477 20.2523 20.1377 23.563 15.9421 23.5302C11.7423 23.5015 8.39485 20.1827 8.35388 16.0157C8.3129 11.9471 11.7628 8.45213 15.8765 8.39067C20.0885 8.32922 23.5016 11.7627 23.4893 16.0526ZM9.94363 15.983C9.92724 19.1911 12.738 22.006 15.9544 21.9978C19.2322 21.9896 21.9446 19.269 21.9364 15.9912C21.9282 12.7051 19.2076 9.96403 15.9626 9.96813C12.7339 9.97633 9.96002 12.7461 9.94363 15.983Z" fill="#2776EA"/>
</svg>
