<svg width="239" height="138" viewBox="0 0 239 138" fill="none" xmlns="http://www.w3.org/2000/svg">
<g filter="url(#filter0_d_739_455)">
<path d="M27 53C27 37.9151 27 30.3726 31.6863 25.6863C36.3726 21 43.9151 21 59 21H179.502C194.587 21 202.13 21 206.816 25.6863C211.502 30.3726 211.502 37.9151 211.502 53V71.3399C211.502 86.4248 211.502 93.9673 206.816 98.6536C202.13 103.34 194.587 103.34 179.502 103.34H59C43.915 103.34 36.3726 103.34 31.6863 98.6536C27 93.9673 27 86.4248 27 71.3399V53Z" fill="white"/>
<path d="M27 21H211.502H27ZM211.502 87.3399C211.502 96.7287 203.891 104.34 194.502 104.34H44C34.6112 104.34 27 96.7287 27 87.3399C27 95.6241 34.1634 102.34 43 102.34H195.502C204.339 102.34 211.502 95.6241 211.502 87.3399ZM27 103.34V21V103.34ZM211.502 21V103.34V21Z" fill="#0274BA"/>
</g>
<mask id="mask0_739_455" style="mask-type:luminance" maskUnits="userSpaceOnUse" x="72" y="40" width="92" height="48">
<path d="M72.6367 63.9835C72.6367 77.0466 93.0471 87.6367 118.224 87.6367C143.4 87.6367 163.81 77.0466 163.81 63.9835C163.81 50.9204 143.4 40.3303 118.224 40.3303C93.0471 40.3303 72.6367 50.9206 72.6367 63.9835Z" fill="white"/>
</mask>
<g mask="url(#mask0_739_455)">
<path d="M72.6367 63.9835C72.6367 77.0466 93.0471 87.6367 118.224 87.6367C143.4 87.6367 163.81 77.0466 163.81 63.9835C163.81 50.9204 143.4 40.3303 118.224 40.3303C93.0471 40.3303 72.6367 50.9206 72.6367 63.9835Z" fill="url(#paint0_radial_739_455)"/>
</g>
<mask id="mask1_739_455" style="mask-type:luminance" maskUnits="userSpaceOnUse" x="70" y="37" width="96" height="54">
<path d="M70.7373 37.6373H165.71V90.3301H70.7373V37.6373Z" fill="white"/>
</mask>
<g mask="url(#mask1_739_455)">
<path d="M118.224 85.8804C142.417 85.8804 162.03 76.0769 162.03 63.9836C162.03 51.8903 142.417 42.0868 118.224 42.0868C94.0303 42.0868 74.4175 51.8903 74.4175 63.9836C74.4175 76.0769 94.0303 85.8804 118.224 85.8804Z" fill="#777BB3"/>
</g>
<mask id="mask2_739_455" style="mask-type:luminance" maskUnits="userSpaceOnUse" x="70" y="37" width="96" height="54">
<path d="M70.7373 37.6373H165.71V90.3301H70.7373V37.6373Z" fill="white"/>
</mask>
<g mask="url(#mask2_739_455)">
<path d="M97.4044 66.6986C99.3937 66.6986 100.879 66.3368 101.818 65.6236C102.748 64.9178 103.39 63.6945 103.726 61.9883C104.04 60.3936 103.921 59.28 103.371 58.6791C102.81 58.0653 101.595 57.754 99.7616 57.754H96.5826L94.82 66.6988H97.4042L97.4044 66.6986ZM87.0062 77.717C86.8586 77.717 86.7185 77.6519 86.6247 77.5394C86.5783 77.4838 86.5449 77.4189 86.5269 77.3492C86.509 77.2794 86.5069 77.2067 86.5208 77.136L91.1916 53.4324C91.2135 53.3213 91.274 53.2211 91.3626 53.1491C91.4511 53.0771 91.5624 53.0377 91.6772 53.0377H101.744C104.908 53.0377 107.263 53.8834 108.743 55.5564C110.231 57.2364 110.69 59.5851 110.108 62.5366C109.872 63.7391 109.464 64.8557 108.898 65.8559C108.331 66.8569 107.582 67.7831 106.671 68.6092C105.58 69.6163 104.345 70.3465 103.004 70.7762C101.685 71.2001 99.9902 71.4153 97.9675 71.4153H93.8912L92.7272 77.3224C92.7053 77.4336 92.6449 77.5337 92.5563 77.6058C92.4677 77.6778 92.3565 77.7172 92.2417 77.7173H87.0062V77.717Z" fill="black"/>
<path d="M96.9907 58.2418H99.7621C101.975 58.2418 102.744 58.7208 103.005 59.0062C103.438 59.4801 103.52 60.4793 103.241 61.8957C102.928 63.4814 102.348 64.6056 101.517 65.237C100.666 65.8833 99.2823 66.2108 97.4049 66.2108H95.4204L96.9907 58.2418ZM101.744 52.5497H91.6775C91.4479 52.5497 91.2255 52.6285 91.0483 52.7726C90.8712 52.9167 90.7503 53.117 90.7065 53.3393L86.0357 77.0432C86.0079 77.1845 86.0121 77.3301 86.048 77.4695C86.084 77.609 86.1507 77.7389 86.2435 77.85C86.3363 77.961 86.4529 78.0504 86.5848 78.1118C86.7167 78.1732 86.8608 78.2051 87.0067 78.2051H92.2418C92.4714 78.2051 92.6939 78.1263 92.871 77.9823C93.0482 77.8382 93.1691 77.6378 93.2129 77.4155L94.2992 71.9031H97.9678C100.042 71.9031 101.789 71.68 103.158 71.24C104.566 70.7887 105.862 70.0235 107.009 68.9658C107.957 68.1051 108.74 67.1391 109.331 66.0942C109.921 65.0493 110.348 63.8834 110.595 62.6298C111.207 59.5229 110.71 57.0349 109.116 55.2356C107.538 53.4535 105.057 52.5499 101.745 52.5499M94.2205 67.1868H97.4049C99.5154 67.1868 101.088 66.7948 102.121 66.0103C103.153 65.2257 103.851 63.9164 104.213 62.0816C104.559 60.3199 104.401 59.0768 103.739 58.3524C103.078 57.6281 101.751 57.266 99.7624 57.266H96.1755L94.2207 67.1866M101.745 53.5255C104.773 53.5255 106.982 54.3094 108.371 55.8772C109.76 57.4449 110.178 59.6336 109.624 62.4434C109.396 63.6009 109.01 64.6591 108.467 65.618C107.924 66.5769 107.214 67.4546 106.336 68.25C105.291 69.2149 104.13 69.9024 102.852 70.3122C101.574 70.7229 99.9467 70.9273 97.9681 70.9273H93.484L92.2424 77.2293H87.0074L91.6775 53.5255H101.744" fill="white"/>
<path d="M122.112 71.4149C121.964 71.4149 121.824 71.3498 121.731 71.2373C121.637 71.1247 121.598 70.9771 121.627 70.834L123.693 60.3458C123.889 59.3484 123.841 58.6325 123.556 58.33C123.382 58.1451 122.859 57.8349 121.313 57.8349H117.57L114.972 71.0198C114.95 71.131 114.89 71.2312 114.801 71.3033C114.712 71.3753 114.601 71.4147 114.486 71.4147H109.293C109.22 71.4147 109.148 71.3988 109.082 71.3681C109.016 71.3374 108.957 71.2927 108.911 71.2372C108.864 71.1817 108.831 71.1167 108.813 71.047C108.795 70.9772 108.793 70.9044 108.807 70.8338L113.478 47.1302C113.5 47.019 113.56 46.9189 113.649 46.8469C113.737 46.7748 113.849 46.7355 113.963 46.7355H119.157C119.23 46.7355 119.302 46.7514 119.368 46.7821C119.434 46.8128 119.492 46.8575 119.539 46.913C119.585 46.9685 119.619 47.0335 119.637 47.1032C119.655 47.173 119.657 47.2458 119.643 47.3164L118.516 53.0375H122.542C125.61 53.0375 127.69 53.5709 128.902 54.6683C130.138 55.7879 130.522 57.5778 130.047 59.9897L127.874 71.0202C127.852 71.1313 127.792 71.2315 127.703 71.3036C127.615 71.3756 127.503 71.415 127.389 71.415H122.112L122.112 71.4149Z" fill="black"/>
<path d="M119.157 46.2478H113.963C113.734 46.2478 113.511 46.3266 113.334 46.4706C113.157 46.6147 113.036 46.815 112.992 47.0374L108.321 70.741C108.294 70.8823 108.298 71.0279 108.334 71.1673C108.37 71.3068 108.436 71.4367 108.529 71.5478C108.622 71.6588 108.739 71.7482 108.871 71.8096C109.003 71.871 109.147 71.9028 109.293 71.9028H114.486C114.716 71.9028 114.938 71.8241 115.116 71.68C115.293 71.5359 115.414 71.3356 115.458 71.1133L117.977 58.3231H121.313C122.857 58.3231 123.181 58.6483 123.194 58.6623C123.287 58.7615 123.411 59.2218 123.207 60.2529L121.141 70.741C121.114 70.8823 121.118 71.0279 121.154 71.1673C121.19 71.3068 121.256 71.4367 121.349 71.5478C121.442 71.6588 121.559 71.7482 121.691 71.8096C121.823 71.871 121.967 71.9028 122.113 71.9028H127.389C127.618 71.9028 127.841 71.8241 128.018 71.68C128.195 71.5359 128.316 71.3356 128.36 71.1133L130.533 60.0827C131.043 57.4936 130.607 55.5512 129.237 54.3093C127.93 53.1253 125.74 52.5496 122.543 52.5496H119.116L120.129 47.4096C120.157 47.2684 120.152 47.1227 120.117 46.9832C120.081 46.8437 120.014 46.7138 119.921 46.6027C119.828 46.4917 119.712 46.4022 119.58 46.3409C119.448 46.2795 119.304 46.2476 119.158 46.2476M119.158 47.2234L117.916 53.5254H122.543C125.454 53.5254 127.462 54.0266 128.568 55.0278C129.673 56.029 130.004 57.6527 129.562 59.8967L127.389 70.927H122.113L124.179 60.4392C124.414 59.2462 124.328 58.4323 123.919 57.9984C123.511 57.5645 122.642 57.3473 121.313 57.3473H117.162L114.487 70.927H109.293L113.964 47.2234H119.157" fill="white"/>
<path d="M138.265 66.6986C140.254 66.6986 141.739 66.3368 142.679 65.6236C143.609 64.9178 144.251 63.6948 144.587 61.9883C144.901 60.3936 144.782 59.28 144.232 58.6791C143.67 58.0653 142.456 57.754 140.622 57.754H137.443L135.681 66.6988H138.265L138.265 66.6986ZM127.867 77.717C127.72 77.717 127.579 77.6519 127.486 77.5394C127.439 77.4839 127.406 77.4189 127.388 77.3492C127.37 77.2795 127.368 77.2067 127.382 77.136L132.052 53.4324C132.074 53.3212 132.135 53.2211 132.223 53.149C132.312 53.077 132.423 53.0377 132.538 53.0377H142.605C145.769 53.0377 148.123 53.8834 149.604 55.5564C151.092 57.2364 151.551 59.5848 150.969 62.5366C150.732 63.7391 150.325 64.8557 149.759 65.8559C149.192 66.8569 148.442 67.7831 147.531 68.6092C146.44 69.6163 145.206 70.3465 143.865 70.7762C142.545 71.2001 140.851 71.4153 138.828 71.4153H134.751L133.588 77.3224C133.566 77.4336 133.505 77.5338 133.417 77.6059C133.328 77.6779 133.217 77.7173 133.102 77.7173H127.867L127.867 77.717Z" fill="black"/>
<path d="M137.851 58.2418H140.623C142.835 58.2418 143.604 58.7208 143.866 59.0062C144.299 59.4801 144.381 60.4793 144.102 61.8955C143.789 63.4812 143.209 64.6056 142.378 65.237C141.527 65.8833 140.143 66.2108 138.266 66.2108H136.282L137.851 58.2418ZM142.605 52.5497H132.538C132.309 52.5497 132.086 52.6285 131.909 52.7726C131.732 52.9167 131.611 53.117 131.567 53.3393L126.897 77.0432C126.869 77.1845 126.873 77.3301 126.909 77.4695C126.945 77.609 127.012 77.7389 127.104 77.85C127.197 77.961 127.314 78.0504 127.446 78.1118C127.578 78.1732 127.722 78.2051 127.868 78.2051H133.103C133.332 78.2051 133.555 78.1263 133.732 77.9823C133.909 77.8382 134.03 77.6378 134.074 77.4155L135.16 71.9031H138.828C140.903 71.9031 142.649 71.68 144.019 71.24C145.427 70.7887 146.723 70.0235 147.87 68.9655C148.818 68.1051 149.599 67.1391 150.191 66.0942C150.783 65.0493 151.209 63.8834 151.456 62.6298C152.068 59.5227 151.57 57.0348 149.977 55.2354C148.398 53.4535 145.918 52.5499 142.605 52.5499M135.081 67.1868H138.266C140.376 67.1868 141.948 66.7948 142.981 66.0103C144.014 65.2257 144.711 63.9164 145.073 62.0816C145.42 60.3199 145.262 59.0768 144.6 58.3524C143.938 57.6281 142.612 57.266 140.623 57.266H137.036L135.082 67.1866M142.605 53.5255C145.634 53.5255 147.843 54.3094 149.232 55.8772C150.62 57.4449 151.038 59.6336 150.484 62.4434C150.256 63.6009 149.871 64.6591 149.328 65.618C148.785 66.5769 148.074 67.4546 147.197 68.25C146.152 69.2149 144.99 69.9024 143.713 70.3122C142.435 70.7229 140.807 70.9273 138.829 70.9273H134.345L133.103 77.2293H127.868L132.539 53.5257H142.606" fill="white"/>
</g>
<defs>
<filter id="filter0_d_739_455" x="0.1" y="0.1" width="238.302" height="137.14" filterUnits="userSpaceOnUse" color-interpolation-filters="sRGB">
<feFlood flood-opacity="0" result="BackgroundImageFix"/>
<feColorMatrix in="SourceAlpha" type="matrix" values="0 0 0 0 0 0 0 0 0 0 0 0 0 0 0 0 0 0 127 0" result="hardAlpha"/>
<feOffset dy="6"/>
<feGaussianBlur stdDeviation="13.45"/>
<feComposite in2="hardAlpha" operator="out"/>
<feColorMatrix type="matrix" values="0 0 0 0 0.546429 0 0 0 0 0.546429 0 0 0 0 0.546429 0 0 0 0.19 0"/>
<feBlend mode="normal" in2="BackgroundImageFix" result="effect1_dropShadow_739_455"/>
<feBlend mode="normal" in="SourceGraphic" in2="effect1_dropShadow_739_455" result="shape"/>
</filter>
<radialGradient id="paint0_radial_739_455" cx="0" cy="0" r="1" gradientUnits="userSpaceOnUse" gradientTransform="translate(100.007 48.6462) scale(59.8621 59.0448)">
<stop stop-color="#AEB2D5"/>
<stop offset="0.3" stop-color="#AEB2D5"/>
<stop offset="0.75" stop-color="#484C89"/>
<stop offset="1" stop-color="#484C89"/>
</radialGradient>
</defs>
</svg>
