<svg width="290" height="138" viewBox="0 0 290 138" fill="none" xmlns="http://www.w3.org/2000/svg">
<g filter="url(#filter0_d_867_813717)">
<path d="M27 53C27 37.9151 27 30.3726 31.6863 25.6863C36.3726 21 43.9151 21 59 21H230.2C245.285 21 252.827 21 257.514 25.6863C262.2 30.3726 262.2 37.9151 262.2 53V71.3399C262.2 86.4249 262.2 93.9673 257.514 98.6536C252.827 103.34 245.285 103.34 230.2 103.34H59C43.915 103.34 36.3726 103.34 31.6863 98.6536C27 93.9673 27 86.4249 27 71.3399V53Z" fill="white"/>
<path d="M27 21H262.2H27ZM262.2 87.3399C262.2 96.7288 254.589 104.34 245.2 104.34H44C34.6112 104.34 27 96.7288 27 87.3399C27 95.6242 34.1634 102.34 43 102.34H246.2C255.037 102.34 262.2 95.6242 262.2 87.3399ZM27 103.34V21V103.34ZM262.2 21V103.34V21Z" fill="#0274BA"/>
</g>
<mask id="mask0_867_813717" style="mask-type:luminance" maskUnits="userSpaceOnUse" x="98" y="40" width="92" height="48">
<path d="M98.6367 63.9835C98.6367 77.0466 119.047 87.6367 144.224 87.6367C169.4 87.6367 189.81 77.0466 189.81 63.9835C189.81 50.9204 169.4 40.3303 144.224 40.3303C119.047 40.3303 98.6367 50.9206 98.6367 63.9835Z" fill="white"/>
</mask>
<g mask="url(#mask0_867_813717)">
<path d="M98.6367 63.9835C98.6367 77.0466 119.047 87.6367 144.224 87.6367C169.4 87.6367 189.81 77.0466 189.81 63.9835C189.81 50.9204 169.4 40.3303 144.224 40.3303C119.047 40.3303 98.6367 50.9206 98.6367 63.9835Z" fill="url(#paint0_radial_867_813717)"/>
</g>
<mask id="mask1_867_813717" style="mask-type:luminance" maskUnits="userSpaceOnUse" x="96" y="37" width="96" height="54">
<path d="M96.7363 37.6371H191.709V90.3299H96.7363V37.6371Z" fill="white"/>
</mask>
<g mask="url(#mask1_867_813717)">
<path d="M144.222 85.8803C168.415 85.8803 188.028 76.0768 188.028 63.9835C188.028 51.8902 168.415 42.0867 144.222 42.0867C120.029 42.0867 100.416 51.8902 100.416 63.9835C100.416 76.0768 120.029 85.8803 144.222 85.8803Z" fill="#777BB3"/>
</g>
<mask id="mask2_867_813717" style="mask-type:luminance" maskUnits="userSpaceOnUse" x="96" y="37" width="96" height="54">
<path d="M96.7363 37.6371H191.709V90.3299H96.7363V37.6371Z" fill="white"/>
</mask>
<g mask="url(#mask2_867_813717)">
<path d="M123.402 66.6983C125.392 66.6983 126.877 66.3365 127.816 65.6233C128.746 64.9175 129.388 63.6942 129.725 61.988C130.038 60.3933 129.919 59.2797 129.369 58.6788C128.808 58.065 127.593 57.7537 125.76 57.7537H122.581L120.818 66.6985H123.402L123.402 66.6983ZM113.004 77.7167C112.857 77.7167 112.717 77.6516 112.623 77.5391C112.576 77.4835 112.543 77.4186 112.525 77.3489C112.507 77.2791 112.505 77.2064 112.519 77.1357L117.19 53.4321C117.212 53.321 117.272 53.2208 117.361 53.1488C117.449 53.0768 117.56 53.0374 117.675 53.0374H127.742C130.906 53.0374 133.261 53.8831 134.741 55.5561C136.229 57.2361 136.688 59.5848 136.107 62.5363C135.87 63.7388 135.462 64.8554 134.896 65.8556C134.329 66.8566 133.58 67.7828 132.669 68.6089C131.578 69.616 130.343 70.3462 129.002 70.7758C127.683 71.1998 125.988 71.415 123.966 71.415H119.889L118.725 77.3221C118.703 77.4333 118.643 77.5334 118.554 77.6055C118.466 77.6775 118.355 77.7169 118.24 77.717H113.004V77.7167Z" fill="black"/>
<path d="M122.989 58.2415H125.76C127.973 58.2415 128.742 58.7204 129.003 59.0058C129.436 59.4798 129.518 60.479 129.239 61.8953C128.927 63.481 128.346 64.6053 127.515 65.2366C126.664 65.8829 125.28 66.2104 123.403 66.2104H121.418L122.989 58.2415ZM127.742 52.5493H117.676C117.446 52.5494 117.224 52.6282 117.046 52.7722C116.869 52.9163 116.748 53.1166 116.705 53.3389L112.034 77.0429C112.006 77.1841 112.01 77.3297 112.046 77.4692C112.082 77.6087 112.149 77.7386 112.242 77.8496C112.334 77.9606 112.451 78.0501 112.583 78.1114C112.715 78.1728 112.859 78.2047 113.005 78.2047H118.24C118.469 78.2047 118.692 78.1259 118.869 77.9819C119.046 77.8378 119.167 77.6375 119.211 77.4151L120.297 71.9027H123.966C126.04 71.9027 127.787 71.6796 129.156 71.2397C130.564 70.7884 131.86 70.0232 133.007 68.9654C133.955 68.1048 134.738 67.1387 135.329 66.0938C135.919 65.0489 136.346 63.883 136.593 62.6294C137.205 59.5225 136.708 57.0346 135.114 55.2352C133.536 53.4531 131.056 52.5495 127.743 52.5495M120.219 67.1864H123.403C125.513 67.1864 127.086 66.7945 128.119 66.0099C129.151 65.2254 129.849 63.916 130.211 62.0812C130.557 60.3196 130.399 59.0764 129.737 58.3521C129.076 57.6277 127.749 57.2657 125.76 57.2657H122.174L120.219 67.1862M127.743 53.5251C130.771 53.5251 132.981 54.309 134.369 55.8768C135.758 57.4446 136.176 59.6333 135.622 62.4431C135.394 63.6005 135.008 64.6588 134.465 65.6176C133.922 66.5765 133.212 67.4542 132.334 68.2497C131.289 69.2146 130.128 69.902 128.85 70.3119C127.572 70.7225 125.945 70.9269 123.966 70.9269H119.482L118.24 77.2289H113.005L117.676 53.5251H127.743" fill="white"/>
<path d="M148.109 71.4147C147.961 71.4147 147.822 71.3496 147.728 71.2371C147.634 71.1245 147.595 70.9769 147.624 70.8337L149.69 60.3456C149.886 59.3482 149.838 58.6323 149.553 58.3298C149.379 58.1449 148.856 57.8347 147.31 57.8347H143.567L140.969 71.0196C140.947 71.1308 140.887 71.231 140.798 71.3031C140.709 71.3751 140.598 71.4145 140.483 71.4145H135.29C135.217 71.4145 135.145 71.3986 135.079 71.3679C135.013 71.3372 134.954 71.2925 134.908 71.237C134.862 71.1815 134.828 71.1165 134.81 71.0468C134.792 70.977 134.79 70.9042 134.804 70.8336L139.475 47.13C139.497 47.0188 139.557 46.9187 139.646 46.8466C139.734 46.7746 139.846 46.7352 139.96 46.7353H145.154C145.227 46.7353 145.299 46.7512 145.365 46.7819C145.431 46.8126 145.489 46.8573 145.536 46.9128C145.582 46.9683 145.616 47.0333 145.634 47.103C145.652 47.1727 145.654 47.2455 145.64 47.3162L144.513 53.0372H148.539C151.607 53.0372 153.687 53.5707 154.899 54.6681C156.136 55.7877 156.519 57.5776 156.044 59.9894L153.871 71.02C153.849 71.1311 153.789 71.2313 153.7 71.3034C153.612 71.3754 153.5 71.4148 153.386 71.4148H148.109L148.109 71.4147Z" fill="black"/>
<path d="M145.155 46.2474H139.961C139.731 46.2474 139.509 46.3261 139.332 46.4702C139.154 46.6143 139.034 46.8146 138.99 47.0369L134.319 70.7406C134.291 70.8818 134.295 71.0274 134.331 71.1669C134.367 71.3064 134.434 71.4363 134.527 71.5474C134.62 71.6584 134.736 71.7478 134.868 71.8092C135 71.8706 135.144 71.9024 135.29 71.9024H140.484C140.714 71.9024 140.936 71.8236 141.113 71.6796C141.29 71.5355 141.411 71.3352 141.455 71.1128L143.975 58.3226H147.311C148.854 58.3226 149.178 58.6479 149.191 58.6619C149.285 58.7611 149.408 59.2213 149.205 60.2524L147.139 70.7406C147.111 70.8818 147.115 71.0274 147.151 71.1669C147.187 71.3064 147.254 71.4363 147.347 71.5474C147.44 71.6584 147.556 71.7478 147.688 71.8092C147.82 71.8706 147.964 71.9024 148.11 71.9024H153.386C153.616 71.9024 153.838 71.8236 154.016 71.6796C154.193 71.5355 154.314 71.3352 154.357 71.1128L156.531 60.0823C157.041 57.4932 156.604 55.5507 155.235 54.3089C153.927 53.1249 151.738 52.5492 148.54 52.5492H145.113L146.126 47.4092C146.154 47.2679 146.15 47.1223 146.114 46.9828C146.078 46.8433 146.011 46.7134 145.919 46.6023C145.826 46.4913 145.709 46.4018 145.577 46.3404C145.445 46.279 145.301 46.2472 145.155 46.2472M145.155 47.223L143.914 53.525H148.541C151.452 53.525 153.46 54.0262 154.565 55.0274C155.671 56.0285 156.002 57.6523 155.56 59.8963L153.387 70.9266H148.111L150.177 60.4388C150.412 59.2457 150.325 58.4319 149.917 57.998C149.509 57.5641 148.64 57.3468 147.311 57.3468H143.16L140.484 70.9266H135.29L139.961 47.223H145.155" fill="white"/>
<path d="M164.264 66.6983C166.253 66.6983 167.738 66.3365 168.677 65.6233C169.607 64.9175 170.249 63.6945 170.586 61.988C170.9 60.3933 170.78 59.2797 170.231 58.6788C169.669 58.065 168.454 57.7537 166.621 57.7537H163.442L161.679 66.6985H164.263L164.264 66.6983ZM153.866 77.7167C153.718 77.7167 153.578 77.6516 153.484 77.5391C153.438 77.4836 153.404 77.4186 153.386 77.3489C153.368 77.2792 153.366 77.2064 153.38 77.1357L158.051 53.4321C158.073 53.3209 158.133 53.2208 158.222 53.1487C158.311 53.0767 158.422 53.0374 158.537 53.0374H168.603C171.767 53.0374 174.122 53.8831 175.602 55.5561C177.09 57.2361 177.55 59.5845 176.968 62.5363C176.731 63.7388 176.324 64.8554 175.757 65.8556C175.19 66.8566 174.441 67.7828 173.53 68.6089C172.439 69.616 171.204 70.3462 169.863 70.7758C168.544 71.1998 166.849 71.415 164.827 71.415H160.75L159.586 77.3221C159.564 77.4333 159.504 77.5335 159.415 77.6056C159.327 77.6776 159.215 77.717 159.101 77.717H153.866L153.866 77.7167Z" fill="black"/>
<path d="M163.85 58.2415H166.621C168.834 58.2415 169.603 58.7204 169.864 59.0058C170.298 59.4798 170.379 60.479 170.101 61.8952C169.788 63.4808 169.207 64.6053 168.376 65.2366C167.525 65.8829 166.141 66.2104 164.264 66.2104H162.28L163.85 58.2415ZM168.604 52.5493H158.537C158.307 52.5494 158.085 52.6282 157.908 52.7722C157.73 52.9163 157.61 53.1166 157.566 53.3389L152.895 77.0429C152.867 77.1841 152.871 77.3297 152.907 77.4692C152.943 77.6087 153.01 77.7386 153.103 77.8496C153.196 77.9606 153.312 78.0501 153.444 78.1114C153.576 78.1728 153.72 78.2047 153.866 78.2047H159.101C159.331 78.2047 159.553 78.1259 159.73 77.9819C159.908 77.8378 160.028 77.6375 160.072 77.4151L161.158 71.9027H164.827C166.902 71.9027 168.648 71.6796 170.018 71.2397C171.426 70.7884 172.722 70.0232 173.869 68.9651C174.817 68.1048 175.598 67.1387 176.19 66.0938C176.782 65.0489 177.207 63.883 177.454 62.6294C178.067 59.5224 177.569 57.0344 175.975 55.2351C174.397 53.4531 171.917 52.5495 168.604 52.5495M161.08 67.1864H164.264C166.375 67.1864 167.947 66.7945 168.98 66.0099C170.013 65.2254 170.71 63.916 171.072 62.0812C171.418 60.3196 171.261 59.0764 170.599 58.3521C169.937 57.6277 168.61 57.2657 166.622 57.2657H163.035L161.08 67.1862M168.604 53.5251C171.632 53.5251 173.842 54.309 175.23 55.8768C176.619 57.4446 177.037 59.6333 176.483 62.4431C176.255 63.6005 175.869 64.6588 175.326 65.6176C174.783 66.5765 174.073 67.4542 173.196 68.2497C172.15 69.2146 170.989 69.902 169.711 70.3119C168.433 70.7225 166.806 70.9269 164.827 70.9269H160.343L159.102 77.2289H153.867L158.537 53.5253H168.604" fill="white"/>
</g>
<defs>
<filter id="filter0_d_867_813717" x="0.1" y="0.1" width="288.999" height="137.14" filterUnits="userSpaceOnUse" color-interpolation-filters="sRGB">
<feFlood flood-opacity="0" result="BackgroundImageFix"/>
<feColorMatrix in="SourceAlpha" type="matrix" values="0 0 0 0 0 0 0 0 0 0 0 0 0 0 0 0 0 0 127 0" result="hardAlpha"/>
<feOffset dy="6"/>
<feGaussianBlur stdDeviation="13.45"/>
<feComposite in2="hardAlpha" operator="out"/>
<feColorMatrix type="matrix" values="0 0 0 0 0.546429 0 0 0 0 0.546429 0 0 0 0 0.546429 0 0 0 0.19 0"/>
<feBlend mode="normal" in2="BackgroundImageFix" result="effect1_dropShadow_867_813717"/>
<feBlend mode="normal" in="SourceGraphic" in2="effect1_dropShadow_867_813717" result="shape"/>
</filter>
<radialGradient id="paint0_radial_867_813717" cx="0" cy="0" r="1" gradientUnits="userSpaceOnUse" gradientTransform="translate(126.007 48.6462) scale(59.8621 59.0448)">
<stop stop-color="#AEB2D5"/>
<stop offset="0.3" stop-color="#AEB2D5"/>
<stop offset="0.75" stop-color="#484C89"/>
<stop offset="1" stop-color="#484C89"/>
</radialGradient>
</defs>
</svg>
