<svg width="56" height="58" viewBox="0 0 56 58" fill="none" xmlns="http://www.w3.org/2000/svg">
<path fill-rule="evenodd" clip-rule="evenodd" d="M26.1831 25.6792C25.5612 25.6792 25.0555 25.1758 25.0553 24.5612C25.0553 23.9392 25.5611 23.4357 26.183 23.4356C26.8041 23.4356 27.3107 23.939 27.3107 24.5611C27.3108 25.1756 26.8043 25.6792 26.1831 25.6792ZM26.183 21.6808C24.5867 21.6808 23.2894 22.9693 23.2895 24.5613C23.2895 26.1459 24.5869 27.4417 26.1833 27.4417C27.7796 27.4417 29.0769 26.1459 29.0767 24.5612C29.0766 22.9691 27.7793 21.6807 26.183 21.6808ZM52.5181 30.7137C51.5711 30.7137 50.8005 29.9436 50.8005 29.0033C50.8005 28.0555 51.571 27.2928 52.518 27.2927C53.4642 27.2927 54.2341 28.0554 54.2341 29.0031C54.2342 29.9436 53.4643 30.7137 52.5181 30.7137ZM39.2865 38.7035L39.286 19.3035C39.286 19.0739 39.0925 18.8815 38.8634 18.8815L25.0976 18.8819L20.9031 23.0582L20.9035 38.7041C20.9035 38.9262 21.0969 39.1187 21.326 39.1187L38.8639 39.1183C39.0932 39.1183 39.2865 38.9257 39.2865 38.7035ZM27.8717 55.6604L27.8713 40.8807L21.326 40.8809C20.1196 40.8809 19.1376 39.9035 19.1376 38.7041L19.1373 29.8778L15.6144 29.878C15.2403 31.7439 13.6924 33.2027 11.7249 33.4101C11.2929 33.4827 10.8067 33.1374 10.7527 32.6327C10.7013 32.1514 11.0518 31.7145 11.5368 31.6626C12.9048 31.5219 13.9357 30.3742 13.9357 29.0043C13.9357 27.6271 12.9046 26.4867 11.5366 26.3387C11.0516 26.2869 10.7013 25.8574 10.7526 25.3687C10.8046 24.8875 11.2406 24.5394 11.7248 24.5912C13.6923 24.7985 15.2403 26.2571 15.6146 28.1231L19.1374 28.1229L19.1373 22.6954C19.1373 22.4585 19.2311 22.2363 19.3969 22.0734L24.1077 17.3787C24.2722 17.2158 24.4976 17.1269 24.7318 17.1269L27.8709 17.1268L27.8705 2.33988C22.7023 0.407543 17.0972 4.22235 17.0973 9.78168C17.0973 11.6549 17.7655 13.4791 18.9869 14.9131C19.3023 15.2833 19.2562 15.8387 18.8842 16.1497C18.5144 16.4612 17.9559 16.4188 17.6398 16.0461C16.5887 14.8095 15.8671 13.336 15.5376 11.7663C11.6858 9.85809 7.0412 12.6424 7.04132 17.0164C7.04132 18.1493 7.36278 19.2377 7.9713 20.1855C8.29275 20.6789 8.03698 21.3456 7.46697 21.5035C4.11128 22.444 1.76593 25.5243 1.76606 29.0044C1.76619 32.4772 4.11167 35.5649 7.46722 36.4978C8.0344 36.6621 8.29352 37.323 7.97156 37.8232C7.36316 38.7635 7.04171 39.8595 7.04184 40.985C7.04197 45.303 11.5895 48.1623 15.5383 46.242C15.8678 44.6648 16.5894 43.1913 17.6404 41.9547C17.9566 41.5844 18.5129 41.5399 18.8849 41.8509C19.2568 42.1694 19.3029 42.7248 18.9875 43.095C17.7603 44.5359 17.0982 46.3465 17.0982 48.2264C17.0983 53.7882 22.709 57.5908 27.8717 55.6604ZM48.3178 44.7307C48.3178 45.6784 47.5472 46.4411 46.6003 46.4412C45.6541 46.4412 44.8842 45.6786 44.8842 44.7308C44.8842 43.7905 45.6541 43.0204 46.6003 43.0204C47.5472 43.0202 48.3178 43.7903 48.3178 44.7307ZM42.1188 52.8314C43.0657 52.8314 43.8356 53.5941 43.8356 54.5344C43.8356 55.4822 43.0657 56.2448 42.1188 56.245C41.1726 56.245 40.4027 55.4823 40.4027 54.5345C40.4027 53.5942 41.1726 52.8314 42.1188 52.8314ZM42.1175 1.75465C43.0645 1.75465 43.8344 2.52474 43.8344 3.46508C43.8344 4.40542 43.0645 5.17551 42.1175 5.17563C41.1713 5.17563 40.4014 4.40555 40.4014 3.46521C40.4014 2.52474 41.1713 1.75465 42.1175 1.75465ZM44.8835 13.2687C44.8835 12.3283 45.6533 11.5581 46.5995 11.5581C47.5465 11.5581 48.3172 12.3282 48.3172 13.2686C48.3172 14.2163 47.5465 14.979 46.5997 14.9791C45.6533 14.9791 44.8835 14.2165 44.8835 13.2687ZM52.518 25.5379C50.9023 25.5379 49.5403 26.6339 49.1484 28.1223L41.0522 28.1225L41.052 24.398L46.5997 24.3979C47.0884 24.3979 47.4826 24.0054 47.4826 23.5241L47.4825 16.623C48.9776 16.2306 50.083 14.8755 50.083 13.2687C50.083 11.3583 48.5208 9.80335 46.5994 9.80348C44.6795 9.80348 43.1175 11.3585 43.1175 13.2689C43.1175 14.8758 44.223 16.2307 45.7167 16.6231L45.7168 22.6431L41.052 22.6432L41.0519 19.3038C41.0519 18.1042 40.0699 17.1268 38.8634 17.1268L35.2021 17.1269L35.202 9.72976L39.9544 6.18289C42.2313 7.96998 45.6003 6.35878 45.6002 3.46521C45.6002 1.55479 44.038 -0.000128191 42.1174 7.92663e-09C39.6472 7.92663e-09 37.9655 2.49744 38.8935 4.77604L33.7894 8.58931C33.567 8.75225 33.4361 9.01134 33.4362 9.29273L33.4363 17.1268L29.6367 17.1269L29.6363 1.75504C29.6363 1.41442 29.4348 1.0961 29.1208 0.955336C27.8458 0.377801 26.4845 0.0816624 25.0749 0.0816624C19.702 0.0817906 15.3312 4.4358 15.3314 9.78194C10.3694 8.16112 5.27513 11.8398 5.27526 17.0164C5.27526 18.1123 5.50811 19.1859 5.95668 20.1633C2.40176 21.6147 0 25.1098 0 29.0046C0.000128787 32.8919 2.40214 36.3869 5.95706 37.8381C3.67907 42.8396 7.349 48.6043 12.9287 48.6042C13.7492 48.6042 14.5615 48.4709 15.3321 48.2191C15.3323 53.5752 19.7027 57.919 25.0762 57.9188C26.4858 57.9188 27.8471 57.63 29.1221 57.045C29.4359 56.9044 29.6375 56.5934 29.6375 56.2453L29.6371 40.8809L33.4367 40.8807L33.4368 48.7148C33.4368 48.9888 33.5678 49.248 33.7902 49.4183L38.8947 53.2315C37.9676 55.4664 39.6279 58 42.1186 58C44.0394 58 45.6013 56.445 45.6013 54.5345C45.6012 51.628 42.2071 50.029 39.9554 51.8245L35.2028 48.2779L35.2026 40.8807L38.8639 40.8806C40.0704 40.8806 41.0524 39.9032 41.0523 38.7037L41.0522 35.3568L45.717 35.3567L45.7171 41.3766C44.2234 41.7692 43.118 43.1242 43.1182 44.7309C43.1182 46.6413 44.6804 48.1963 46.6002 48.1961C48.5216 48.1961 50.0836 46.6411 50.0836 44.7307C50.0836 43.124 48.9781 41.7689 47.483 41.3765L47.4829 34.4829C47.4829 33.9942 47.0887 33.6018 46.5999 33.6018L41.0523 33.6019L41.0522 29.8773L49.1484 29.8771C49.5404 31.3653 50.9025 32.4686 52.5181 32.4686C54.4381 32.4686 56.0001 30.9136 56 29.0031C56 27.0929 54.4378 25.5378 52.518 25.5379Z" fill="#2776EA"/>
</svg>
