<svg width="60" height="60" viewBox="0 0 60 60" fill="none" xmlns="http://www.w3.org/2000/svg">
<path d="M24.7195 23.4145C24.502 23.4145 24.2933 23.5009 24.1395 23.6548L19.6271 28.1671C19.1619 27.8978 18.6226 27.7427 18.0476 27.7427C16.3029 27.7427 14.8835 29.1621 14.8835 30.9068C14.8835 32.6515 16.3029 34.0709 18.0476 34.0709C19.7923 34.0709 21.2116 32.6515 21.2116 30.9068C21.2116 30.3316 21.0566 29.7923 20.7873 29.3271L25.0594 25.055H33.6125C33.6683 25.3718 33.8172 25.6751 34.0614 25.9193L35.7894 27.6473C36.096 27.9539 36.5036 28.1228 36.937 28.1228C37.3705 28.1228 37.7782 27.9539 38.0846 27.6473C38.741 26.9909 39.5756 27.0061 40.1379 27.2389C40.7002 27.4718 41.301 28.0514 41.301 28.9795C41.301 29.8745 42.0291 30.6026 42.9239 30.6026H45.3677C46.2626 30.6026 46.9907 29.8745 46.9907 28.9795C46.9907 28.053 47.5918 27.4739 48.1546 27.2409C48.7173 27.0079 49.5519 26.9921 50.207 27.6473C50.5136 27.9539 50.9211 28.1228 51.3547 28.1228C51.7883 28.1228 52.1959 27.9539 52.5023 27.6473L54.2304 25.9193C54.537 25.6127 54.7057 25.2052 54.7057 24.7717C54.7057 24.3381 54.537 23.9305 54.2304 23.6241C53.5753 22.969 53.5909 22.1343 53.824 21.5716C54.0571 21.009 54.6362 20.4077 55.5627 20.4077C56.4575 20.4077 57.1856 19.6796 57.1856 18.7847V16.3409C57.1856 15.446 56.4575 14.7179 55.5627 14.7179C54.6362 14.7179 54.0571 14.1168 53.824 13.554C53.5909 12.9914 53.5753 12.1567 54.2304 11.5016C54.537 11.195 54.7057 10.7875 54.7057 10.354C54.7057 9.92039 54.537 9.5127 54.2304 9.20637L52.5023 7.4782C52.1958 7.17164 51.7882 7.00289 51.3547 7.00289C50.9212 7.00289 50.5136 7.17164 50.2071 7.4782C49.552 8.13328 48.7174 8.11781 48.1547 7.88461C47.592 7.65152 46.9908 7.07238 46.9908 6.1459C46.9908 5.25094 46.2627 4.52285 45.3679 4.52285H42.924C42.0292 4.52285 41.3011 5.25094 41.3011 6.1459C41.3011 7.07238 40.6999 7.65152 40.1372 7.88461C39.5746 8.11758 38.7398 8.13328 38.0846 7.47809C37.4518 6.84539 36.4221 6.84539 35.7894 7.47809L34.0614 9.20613C33.8228 9.44461 33.6689 9.74473 33.6118 10.0704H25.0593L20.7873 5.79844C21.0566 5.3332 21.2116 4.79391 21.2116 4.21875C21.2116 2.47406 19.7923 1.05469 18.0476 1.05469C16.3029 1.05469 14.8835 2.47406 14.8835 4.21875C14.8835 5.96344 16.3029 7.38281 18.0476 7.38281C18.6226 7.38281 19.1619 7.22777 19.6271 6.95859L24.1395 11.4709C24.2932 11.6248 24.5019 11.7111 24.7195 11.7111H34.2423C34.7092 12.3273 34.6766 13.0498 34.4677 13.5541C34.2346 14.1169 33.6554 14.718 32.7289 14.718C31.8341 14.718 31.106 15.4461 31.106 16.341V16.7426H24.6347C24.2723 15.3945 23.0401 14.3988 21.5791 14.3988C19.8345 14.3988 18.4151 15.8182 18.4151 17.5629C18.4151 19.3076 19.8345 20.727 21.5791 20.727C23.0401 20.727 24.2723 19.7313 24.6347 18.3832H31.106V18.7848C31.106 19.6798 31.8341 20.4079 32.7289 20.4079C33.6554 20.4079 34.2346 21.009 34.4677 21.5718C34.6765 22.076 34.7091 22.7985 34.2423 23.4146L24.7195 23.4145ZM18.0476 32.4304C17.2076 32.4304 16.5241 31.7469 16.5241 30.9069C16.5241 30.0669 17.2076 29.3835 18.0476 29.3835C18.8876 29.3835 19.571 30.0669 19.571 30.9069C19.5709 31.7469 18.8876 32.4304 18.0476 32.4304ZM18.0476 5.74219C17.2076 5.74219 16.5241 5.05875 16.5241 4.21875C16.5241 3.37875 17.2076 2.69531 18.0476 2.69531C18.8876 2.69531 19.571 3.37875 19.571 4.21875C19.571 5.05875 18.8876 5.74219 18.0476 5.74219ZM21.5791 19.0863C20.7391 19.0863 20.0557 18.4029 20.0557 17.5629C20.0557 16.7229 20.7391 16.0395 21.5791 16.0395C22.4191 16.0395 23.1026 16.7229 23.1026 17.5629C23.1026 18.4029 22.4191 19.0863 21.5791 19.0863ZM32.7466 18.7672V16.3586C34.1903 16.3518 35.4295 15.519 35.9835 14.1819C36.5374 12.8447 36.2498 11.3796 35.2338 10.354L36.9371 8.65066C37.9628 9.6668 39.4279 9.95414 40.7651 9.40031C42.1023 8.84637 42.935 7.60723 42.9417 6.16348H45.3503C45.357 7.60723 46.1897 8.84648 47.5269 9.40031C48.864 9.95414 50.3292 9.6668 51.3548 8.65066L53.0582 10.354C52.042 11.3796 51.7546 12.8446 52.3085 14.1819C52.8623 15.5191 54.1016 16.3519 55.5452 16.3586V18.7672C54.1016 18.774 52.8623 19.6068 52.3085 20.9439C51.7546 22.2811 52.042 23.7461 53.0582 24.7718L51.355 26.4751C50.3293 25.459 48.8643 25.1715 47.5269 25.7255C46.1897 26.2794 45.357 27.5184 45.3503 28.9623H42.9417C42.935 27.5171 42.1027 26.2773 40.7659 25.7236C39.4291 25.1699 37.9637 25.458 36.9371 26.4752L35.2338 24.7719C36.25 23.7463 36.5374 22.2812 35.9835 20.944C35.4296 19.6068 34.1904 18.774 32.7466 18.7672ZM44.1458 24.3547C47.8909 24.3547 50.9377 21.308 50.9377 17.5629C50.9377 13.8178 47.8908 10.7711 44.1458 10.7711C40.4009 10.7711 37.354 13.8178 37.354 17.5629C37.354 21.308 40.4009 24.3547 44.1458 24.3547ZM44.1458 12.4118C46.9862 12.4118 49.297 14.7226 49.297 17.563C49.297 20.4034 46.9862 22.7142 44.1458 22.7142C41.3054 22.7142 38.9946 20.4034 38.9946 17.563C38.9946 14.7226 41.3055 12.4118 44.1458 12.4118ZM58.5604 44.1062C57.7547 42.7109 55.9639 42.2312 54.5685 43.0366L42.5572 49.9711L32.5758 46.4927C32.6979 46.3516 32.8126 46.2041 32.9177 46.0494L39.1327 45.1436C40.8799 44.889 42.1003 43.6235 42.1003 42.0661C42.1003 40.3645 40.716 38.9802 39.0144 38.9802H30.8404C30.264 38.733 29.6298 38.5957 28.9639 38.5957C28.2469 38.5957 27.5668 38.7556 26.9558 39.0398L26.9555 39.0391L15.2136 43.745H9.5366V41.7059C9.5366 41.2528 9.16934 40.8855 8.71629 40.8855H1.875C1.42195 40.8855 1.05469 41.2528 1.05469 41.7059V58.125C1.05469 58.578 1.42195 58.9453 1.875 58.9453H8.71629C9.16934 58.9453 9.5366 58.578 9.5366 58.125V56.0974C12.0991 56.1648 15.3524 56.5233 18.7794 56.9017C23.3978 57.4117 28.6129 57.9875 33.358 57.9874C33.5133 57.9874 33.668 57.9868 33.8222 57.9855C39.5171 57.9391 43.5829 57.0193 46.2505 55.1736L57.5176 48.0818C58.8904 47.2178 59.3484 45.4714 58.5604 44.1062ZM42.9129 53.0347L43.8247 54.6656C43.3523 54.8831 42.8509 55.076 42.3226 55.2457L42.9129 53.0347ZM40.4597 42.0661C40.4597 42.9131 39.6744 43.4066 38.8961 43.52L33.6523 44.2843C33.7097 43.9889 33.7406 43.6841 33.7406 43.3722C33.7406 42.3482 33.4157 41.3992 32.8649 40.6207H39.0144C39.8113 40.6208 40.4597 41.2692 40.4597 42.0661ZM32.1 43.3723C32.1 45.1015 30.6933 46.5083 28.9641 46.5083C27.2348 46.5083 25.828 45.1015 25.828 43.3723C25.828 41.643 27.2348 40.2363 28.9641 40.2363C30.6933 40.2363 32.1 41.643 32.1 43.3723ZM15.2473 49.9154C15.2473 52.4132 13.2152 54.4452 10.7175 54.4452C8.21977 54.4452 6.18773 52.4132 6.18773 49.9154C6.18773 47.4177 8.21977 45.3857 10.7175 45.3857C13.2152 45.3857 15.2473 47.4177 15.2473 49.9154ZM2.69531 57.3047V42.5262H7.89598V44.4308C5.9093 45.457 4.54723 47.5295 4.54723 49.9154C4.54723 52.3014 5.90941 54.3738 7.89598 55.4002V57.3047H2.69531ZM18.9594 55.271C17.4192 55.101 15.9146 54.9352 14.4853 54.7969C15.9452 53.6674 16.8879 51.8999 16.8879 49.9154C16.8879 48.1266 16.122 46.5137 14.9017 45.3857H15.3721C15.4766 45.3857 15.5802 45.3656 15.6772 45.3268L24.4509 41.8105C24.2809 42.3004 24.1873 42.8255 24.1873 43.3724C24.1873 46.0063 26.33 48.1491 28.9639 48.1491C29.6973 48.1491 30.3923 47.9825 31.0139 47.6859L41.653 51.3935L40.497 55.7234C34.4856 56.9849 26.0619 56.0552 18.9594 55.271ZM56.6436 46.6935L45.3613 53.7949C45.3509 53.8015 45.3404 53.8084 45.3302 53.8154C45.3061 53.8322 45.2809 53.8481 45.2566 53.8646L43.753 51.1753L55.3888 44.4574C56.0007 44.104 56.7863 44.3145 57.1396 44.9265C57.4849 45.5248 57.2671 46.301 56.6436 46.6935ZM27.8871 43.3724C27.8871 42.7792 28.3709 42.2954 28.9641 42.2954C29.5573 42.2954 30.0409 42.7792 30.0409 43.3724C30.0409 43.9656 29.5571 44.4493 28.9641 44.4493C28.3709 44.4492 27.8871 43.9655 27.8871 43.3724ZM9.64066 49.9154C9.64066 49.3222 10.1244 48.8385 10.7176 48.8385C11.3107 48.8385 11.7946 49.3222 11.7946 49.9154C11.7946 50.5086 11.3108 50.9924 10.7176 50.9924C10.1244 50.9924 9.64066 50.5086 9.64066 49.9154Z" fill="#2776EA"/>
</svg>
