<svg width="60" height="52" viewBox="0 0 60 52" fill="none" xmlns="http://www.w3.org/2000/svg">
<path d="M60 15.2456C60 26.1417 60 37.0378 60 47.9339C58.8627 50.658 56.6075 51.4286 53.6005 51.4286C37.7367 51.3569 21.8922 51.3927 6.02843 51.3927C5.56582 51.3927 5.08393 51.4107 4.62132 51.3748C1.98056 51.1598 0.0144567 49.3318 0.0144567 46.9841C-0.00481889 36.7152 -0.00481889 26.4284 0.0144567 16.1596C0.0144567 13.7402 2.13477 11.8406 4.71769 11.7868C5.8164 11.7689 6.89583 11.7868 7.99454 11.7868C10.1341 11.7868 12.2544 11.7868 14.529 11.7868C14.529 10.3173 14.4711 8.99109 14.5482 7.64699C14.7217 3.90146 17.9407 0.478499 21.9308 0.263444C26.9424 -0.00537406 32.0119 -0.0949801 37.0235 0.120075C42.2858 0.353051 45.4277 3.77601 45.447 8.6685C45.447 9.67209 45.447 10.6757 45.447 11.7868C48.6081 11.7868 51.6537 11.7868 54.6799 11.7868C55.2582 11.7868 55.8558 11.8406 56.4147 11.966C58.3423 12.3782 59.3061 13.6865 60 15.2456ZM1.98056 22.6471C1.96129 23.0413 1.94201 23.2922 1.94201 23.5252C1.94201 31.1059 1.94201 38.7045 1.94201 46.2852C1.94201 46.6794 1.98056 47.0916 2.07694 47.468C2.36608 48.5074 3.11782 49.2959 4.21653 49.3856C5.9706 49.5468 7.76323 49.4214 9.65224 49.4214C9.65224 48.2386 9.65224 47.1633 9.65224 46.0522C11.2521 45.8013 12.7363 45.5504 14.2205 45.3174C15.3193 45.1382 15.6084 44.511 14.9723 43.6687C14.1049 42.5217 13.2182 41.3748 12.3701 40.2636C14.6253 38.1848 16.842 36.1597 19.0973 34.0629C20.1381 34.7618 21.2754 35.5145 22.4127 36.2672C23.7427 37.1453 24.3209 36.9303 24.5715 35.4249C24.7836 34.1525 25.0149 32.8622 25.2462 31.5898C28.4459 31.5898 31.5107 31.5898 34.6719 31.5898C34.9032 32.9518 35.1345 34.26 35.3658 35.5862C35.5971 36.8586 36.2332 37.1095 37.3512 36.3747C38.5463 35.5862 39.7607 34.7797 40.7823 34.0987C43.0568 36.2134 45.2349 38.2565 47.4709 40.3532C46.6999 41.3568 45.8325 42.468 44.9843 43.597C44.2904 44.511 44.5603 45.1203 45.7361 45.3174C46.8926 45.4966 48.0299 45.7655 49.1864 45.8551C50.208 45.9268 50.3815 46.3748 50.3237 47.1812C50.2466 47.916 50.3044 48.6687 50.3044 49.4572C51.7886 49.4572 53.0801 49.3676 54.3523 49.4752C56.5497 49.6544 57.9953 48.382 57.9568 46.106C57.8797 38.6687 57.9182 31.2313 57.9182 23.7761C57.9182 23.3998 57.8797 23.0055 57.8604 22.6291C55.2775 22.6291 52.8488 22.6291 50.2466 22.6291C50.2466 24.4033 50.2466 26.1238 50.2466 27.8442C47.5865 27.8442 45.0614 27.8442 42.44 27.8442C42.44 26.07 42.44 24.3675 42.44 22.665C34.0358 22.665 25.7473 22.665 17.3432 22.665C17.3432 24.4392 17.3432 26.1417 17.3432 27.8621C14.7024 27.8621 12.1966 27.8621 9.55586 27.8621C9.55586 26.07 9.55586 24.3496 9.55586 22.6291C7.01149 22.6471 4.54421 22.6471 1.98056 22.6471ZM1.99984 20.6578C20.7357 20.6578 39.3366 20.6578 57.9761 20.6578C57.9761 19.027 58.1303 17.4678 57.9182 15.9445C57.8219 15.2277 57.1472 14.4391 56.4918 14.009C55.9329 13.6327 55.0269 13.5968 54.2559 13.5968C38.0837 13.561 21.9115 13.561 5.75857 13.561C5.37306 13.561 4.96828 13.561 4.58276 13.6148C3.1371 13.794 2.09622 14.6721 1.99984 16.0162C1.90346 17.5395 1.99984 19.0628 1.99984 20.6578ZM45.0229 40.4966C43.5579 39.1346 42.1701 37.8264 40.7244 36.4823C40.1269 36.8765 39.3944 37.235 38.8162 37.7547C37.5247 38.9375 36.2525 39.0808 34.6912 38.1848C34.1515 37.8801 33.7852 37.7009 33.7081 37.0378C33.5539 35.8192 33.2648 34.6185 33.0335 33.3819C31.0096 33.3819 29.0435 33.3819 27.0195 33.3819C26.846 34.1883 26.5569 34.9769 26.5762 35.7475C26.5762 37.4142 25.7473 38.2744 24.0704 38.7045C23.3957 38.8658 22.9524 38.9375 22.3934 38.5253C21.3718 37.7726 20.2731 37.0916 19.4828 36.5719C17.9407 37.9876 16.5336 39.2601 15.0879 40.5862C15.7819 41.5002 16.5722 42.4859 17.3239 43.5074C17.5167 43.7762 17.6516 44.1884 17.5745 44.4751C17.1312 46.1239 16.283 47.3784 14.1434 47.2708C13.835 47.2529 13.5266 47.3425 13.2182 47.3963C11.522 47.701 11.4256 47.8264 11.9075 49.4931C14.9337 49.4931 17.96 49.511 21.0055 49.4572C21.2947 49.4572 21.7187 48.9913 21.8151 48.6687C22.7596 45.1561 25.7666 42.8443 29.8145 42.5755C33.1877 42.3604 36.638 44.5289 37.968 47.7368C38.7005 49.4931 38.7005 49.4931 40.7244 49.4931C43.2495 49.4931 45.7746 49.4931 48.2805 49.4931C48.531 47.701 48.5503 47.683 46.8926 47.3963C46.1216 47.2529 45.3699 47.1454 44.5796 47.0379C43.9049 46.9662 43.4037 46.7691 43.2303 46.0701C43.1146 45.6579 42.9411 45.2278 42.7098 44.8694C42.3243 44.278 42.4785 43.83 42.9026 43.3103C43.635 42.3783 44.329 41.3927 45.0229 40.4966ZM20.3887 11.6972C26.8846 11.6972 33.2262 11.6972 39.5486 11.6972C39.5872 11.5359 39.6257 11.4284 39.6257 11.3208C39.6257 10.2993 39.645 9.29575 39.6257 8.27424C39.6065 6.67925 38.4499 5.49645 36.7151 5.4606C32.2239 5.40684 27.752 5.42476 23.2608 5.4606C21.738 5.47852 20.4658 6.53588 20.3887 7.84413C20.3309 9.09861 20.3887 10.371 20.3887 11.6972ZM43.4808 11.7151C43.4808 10.3352 43.6158 9.06277 43.4616 7.80828C42.999 4.0269 40.416 1.93012 36.3296 1.9122C31.8384 1.89428 27.3472 1.9122 22.856 1.94804C20.9477 1.96596 19.4057 2.7545 18.172 4.06275C16.0132 6.3029 16.4565 9.02693 16.4758 11.6793C17.1504 11.6793 17.7094 11.6793 18.3455 11.6793C18.3455 10.6219 18.3455 9.63625 18.3455 8.6685C18.3841 5.47852 20.3116 3.6864 23.7427 3.66848C27.9255 3.65056 32.1083 3.65056 36.2718 3.66848C39.7414 3.6864 41.6497 5.49645 41.6882 8.75811C41.6882 9.72586 41.6882 10.6936 41.6882 11.7151C42.3436 11.7151 42.864 11.7151 43.4808 11.7151ZM23.7234 49.4214C27.9062 49.4214 32.089 49.4214 36.2911 49.4214C35.867 46.5361 33.1877 44.4214 30.0072 44.4214C26.8268 44.4214 24.1089 46.5719 23.7234 49.4214ZM11.7533 22.6471C11.7533 23.8657 11.7533 24.9768 11.7533 26.07C13.0255 26.07 14.2013 26.07 15.4156 26.07C15.4156 24.9051 15.4156 23.794 15.4156 22.6471C14.182 22.6471 13.0062 22.6471 11.7533 22.6471ZM44.6181 22.6471C44.6181 23.8299 44.6181 24.9589 44.6181 26.07C45.8903 26.07 47.0661 26.07 48.2805 26.07C48.2805 24.9051 48.2805 23.794 48.2805 22.6471C47.0083 22.6471 45.8325 22.6471 44.6181 22.6471Z" fill="#2776EA"/>
<path d="M25.1904 17.972C25.1904 17.4164 25.1904 16.8967 25.1904 16.3232C25.8458 16.3232 26.4433 16.3232 27.0987 16.3232C27.0987 16.8967 27.0987 17.3985 27.0987 17.972C26.5012 17.972 25.9036 17.972 25.1904 17.972Z" fill="#2776EA"/>
<path d="M34.8046 18.0225C34.1685 18.0225 33.6095 18.0225 32.9541 18.0225C32.9541 17.4849 32.9541 16.9651 32.9541 16.3379C33.5324 16.3379 34.1299 16.3379 34.8046 16.3379C34.8046 16.8576 34.8046 17.3773 34.8046 18.0225Z" fill="#2776EA"/>
<path d="M29.1211 16.3037C29.7572 16.3037 30.2776 16.3037 30.8752 16.3037C30.8752 16.8772 30.8752 17.3969 30.8752 18.0062C30.3162 18.0062 29.7572 18.0062 29.1211 18.0062C29.1211 17.4686 29.1211 16.931 29.1211 16.3037Z" fill="#2776EA"/>
<path d="M29.1016 36.9305C29.1016 36.3211 29.1016 35.7656 29.1016 35.1562C29.7184 35.1562 30.2774 35.1562 30.8942 35.1562C30.8942 35.7656 30.8942 36.3211 30.8942 36.9305C30.2774 36.9305 29.7184 36.9305 29.1016 36.9305Z" fill="#2776EA"/>
<path d="M18.7894 39.0967C19.0978 39.4372 19.5026 39.8673 19.9652 40.387C19.5412 40.7275 19.0978 41.1039 18.5774 41.534C18.1533 41.1397 17.7485 40.7634 17.3438 40.387C17.8449 39.939 18.269 39.5447 18.7894 39.0967Z" fill="#2776EA"/>
<path d="M42.7089 40.3154C42.227 40.7455 41.8222 41.1219 41.3017 41.5878C40.8777 41.1219 40.4729 40.7097 40.0488 40.2617C40.4536 39.8674 40.8777 39.4552 41.3403 38.9893C41.8029 39.4194 42.2077 39.8136 42.7089 40.3154Z" fill="#2776EA"/>
</svg>
