<svg width="61" height="59" viewBox="0 0 61 59" fill="none" xmlns="http://www.w3.org/2000/svg">
<path d="M24.2367 8.06981C24.2367 6.76519 24.2367 5.5089 24.2367 4.20428C24.0377 4.18817 23.8386 4.17207 23.6396 4.17207C20.9854 4.17207 18.3479 4.17207 15.6937 4.17207C15.3122 4.17207 15.0634 4.23649 14.8643 4.60694C14.2008 5.79881 12.824 6.36253 11.5301 6.04041C10.1532 5.68607 9.25747 4.57473 9.25747 3.20569C9.25747 1.83665 10.1532 0.725306 11.5301 0.370966C12.824 0.0327322 14.2174 0.596455 14.8643 1.78833C15.0634 2.15877 15.2956 2.2393 15.6937 2.2393C18.7294 2.2232 21.7817 2.2393 24.8173 2.2393C26.0117 2.2393 26.2605 2.4809 26.2605 3.67277C26.2605 5.10624 26.2605 6.5397 26.2605 8.02149C28.9146 8.02149 31.5522 8.02149 34.2727 8.02149C34.2727 7.039 34.2727 6.05651 34.2727 5.07403C34.2727 4.5103 34.2727 3.94658 34.2727 3.36675C34.2727 2.56143 34.621 2.2393 35.4504 2.2232C38.5525 2.2232 41.6545 2.2232 44.7565 2.2232C45.1878 2.2232 45.4532 2.15877 45.6854 1.74001C46.3158 0.580349 47.7258 0.0327322 48.9865 0.35486C50.3634 0.725306 51.2591 1.83665 51.2591 3.20569C51.2591 4.57473 50.3799 5.68607 49.0031 6.04041C47.7424 6.37864 46.3324 5.83102 45.6854 4.68747C45.4532 4.28481 45.221 4.17207 44.7731 4.17207C42.0028 4.18817 39.2326 4.18817 36.4623 4.18817C36.4292 4.18817 36.3794 4.20428 36.2964 4.22039C36.2964 5.47668 36.2964 6.73298 36.2964 8.06981C36.5453 8.06981 36.7941 8.06981 37.0263 8.06981C44.292 8.06981 51.5743 8.06981 58.84 8.06981C59.968 8.06981 60.25 8.32751 60.25 9.40664C60.25 21.4703 60.25 33.5179 60.25 45.5815C60.25 46.6285 59.968 46.9023 58.8898 46.9023C51.9558 46.9023 45.0053 46.9023 38.0714 46.9023C37.8226 46.9023 37.5737 46.9023 37.2917 46.9023C37.2917 48.8511 37.2917 50.7517 37.2917 52.7328C37.524 52.7328 37.7396 52.7328 37.9719 52.7328C40.9744 52.7328 43.9768 52.7328 46.9793 52.7328C47.9415 52.7328 48.2566 53.0388 48.2566 53.9568C48.2566 55.1165 48.2566 56.2601 48.2566 57.4197C48.2566 58.225 47.9083 58.5633 47.0789 58.5633C35.8652 58.5633 24.6514 58.5633 13.4543 58.5633C12.6249 58.5633 12.2765 58.225 12.26 57.4358C12.26 56.2439 12.26 55.0521 12.26 53.8602C12.26 53.0871 12.6083 52.7489 13.4045 52.7489C16.6559 52.7489 19.9072 52.7489 23.2083 52.7489C23.2083 50.8161 23.2083 48.9156 23.2083 46.9184C22.9926 46.9184 22.7438 46.9184 22.5115 46.9184C15.5444 46.9184 8.59393 46.9184 1.62683 46.9184C0.54859 46.9184 0.25 46.6446 0.25 45.5976C0.25 33.5179 0.25 21.4381 0.25 9.35832C0.25 8.35972 0.54859 8.06981 1.59365 8.06981C8.85935 8.06981 16.1416 8.06981 23.4073 8.06981C23.6561 8.06981 23.905 8.06981 24.2367 8.06981ZM58.2262 41.0556C58.2262 30.6831 58.2262 20.359 58.2262 10.0509C50.8776 10.0509 43.5787 10.0509 36.2633 10.0509C36.2633 13.1594 36.2633 16.2035 36.2799 19.2637C36.2799 19.457 36.4126 19.6825 36.5619 19.8275C37.2088 20.4878 37.8889 21.116 38.5525 21.7602C39.2492 22.4528 39.2492 22.9199 38.5359 23.6125C38.2539 23.8863 37.9719 24.1762 37.6401 24.4983C38.4198 24.5627 39.1331 24.4983 39.7468 24.7238C40.5762 25.0137 40.1449 25.8835 40.3274 26.4794C40.4269 26.4955 40.4767 26.5116 40.5431 26.5116C43.7114 26.5116 46.8798 26.5116 50.0482 26.5277C50.4297 26.5277 50.5292 26.3183 50.6785 26.0767C51.3587 24.901 52.7355 24.3211 54.0294 24.6594C55.4062 25.0137 56.302 26.125 56.302 27.4941C56.302 28.8631 55.4062 29.9745 54.0294 30.3288C52.7355 30.667 51.3421 30.1033 50.6951 28.9114C50.4961 28.541 50.2638 28.4605 49.8657 28.4605C46.8798 28.4766 43.9105 28.4605 40.9246 28.4766C40.7255 28.4766 40.5265 28.4927 40.2942 28.5088C40.2942 28.7826 40.2942 29.0081 40.2942 29.2175C40.2942 30.1033 39.9625 30.4093 39.0501 30.4093C38.6188 30.4093 38.1875 30.4093 37.7728 30.4093C37.7396 30.4738 37.6899 30.5221 37.6567 30.5865C37.9885 30.8764 38.3368 31.1502 38.652 31.4563C39.2492 32.0361 39.2492 32.5676 38.652 33.1474C37.8226 33.9688 36.9766 34.7903 36.1306 35.5956C35.5002 36.1915 34.986 36.1754 34.3556 35.5795C34.0404 35.2896 33.7253 34.9835 33.294 34.5648C33.294 35.2412 33.294 35.6922 33.294 36.1593C33.2774 36.8519 32.9124 37.2062 32.2157 37.2062C30.9384 37.2223 29.6777 37.2223 28.4004 37.2062C27.6539 37.2062 27.3056 36.8519 27.3056 36.111C27.3056 35.66 27.3056 35.209 27.3056 34.742C27.2392 34.7097 27.1729 34.6775 27.1231 34.6292C26.8245 34.9513 26.5425 35.2896 26.2273 35.5956C25.6301 36.1754 25.0993 36.1593 24.5021 35.5956C23.822 34.9513 23.1419 34.2749 22.4618 33.6306C21.1845 32.3904 21.1845 32.2294 22.4452 30.9892C22.6111 30.8281 22.7604 30.667 22.9594 30.4416C20.5541 30.2644 20.5541 30.2644 20.2389 28.4605C20.0399 28.4605 19.8408 28.4605 19.6418 28.4605C16.689 28.4605 13.7197 28.4605 10.767 28.4605C10.3523 28.4605 10.1201 28.5571 9.90441 28.9437C9.25747 30.1194 7.84746 30.667 6.55357 30.3127C5.11038 29.9261 4.24779 28.8309 4.24779 27.4458C4.26438 26.1089 5.14356 25.0137 6.5038 24.6594C7.79769 24.3211 9.19111 24.8849 9.85464 26.0606C10.0537 26.415 10.2694 26.5277 10.6675 26.5277C13.67 26.5116 16.6725 26.5116 19.6749 26.5116C19.8574 26.5116 20.0399 26.4955 20.2721 26.4794C20.2721 26.2217 20.2721 26.0123 20.2721 25.7868C20.2721 24.8688 20.5873 24.5627 21.5494 24.5627C21.9641 24.5627 22.3954 24.5627 22.8433 24.5627C22.8101 24.4339 22.8101 24.4178 22.7935 24.4017C22.495 24.0956 22.1798 23.7896 21.8812 23.4836C21.3338 22.9199 21.3338 22.4045 21.8812 21.8408C22.5447 21.1965 23.2248 20.5683 23.8552 19.8919C24.0708 19.6664 24.2367 19.3121 24.2367 19.006C24.2699 16.1874 24.2533 13.3849 24.2533 10.5663C24.2533 10.373 24.2533 10.1797 24.2533 10.0026C16.8715 10.0026 9.58923 10.0026 2.29036 10.0026C2.29036 20.359 2.29036 30.6831 2.29036 41.0234C20.9522 41.0556 39.5644 41.0556 58.2262 41.0556ZM58.2428 43.0689C39.5644 43.0689 20.9191 43.0689 2.30695 43.0689C2.30695 43.7293 2.30695 44.3413 2.30695 44.9373C20.9688 44.9373 39.5975 44.9373 58.2428 44.9373C58.2428 44.3091 58.2428 43.7132 58.2428 43.0689ZM29.2796 19.7469C29.1801 21.6153 29.1469 21.6475 28.6326 21.9213C27.3885 22.5494 26.2107 22.8877 25.3979 21.4059C24.8671 21.8891 24.4192 22.2917 23.9381 22.7427C24.7344 23.4514 25.3813 24.0151 24.8505 25.3036C24.2865 26.6404 23.3741 26.5277 22.3125 26.5116C22.3125 27.2042 22.3125 27.8162 22.3125 28.5088C23.4239 28.396 24.2533 28.4444 24.8007 29.7007C25.3647 30.9731 24.8007 31.6173 23.9216 32.326C24.4192 32.777 24.8505 33.1796 25.3316 33.6145C26.0614 32.7448 26.7084 32.2455 28.0355 32.7609C29.4123 33.2924 29.2796 34.2104 29.263 35.209C29.9431 35.209 30.5569 35.209 31.237 35.209C31.1043 34.0816 31.2702 33.3085 32.5475 32.7609C33.9243 32.1649 34.4717 33.0508 35.2846 33.6306C35.749 33.1474 36.1637 32.7126 36.6448 32.2294C35.7159 31.5368 35.185 30.9247 35.6993 29.6523C36.2467 28.2994 37.2088 28.4766 38.2207 28.4605C38.2207 27.7679 38.2207 27.1559 38.2207 26.5438C35.8817 26.4794 36.4457 26.6243 35.55 24.756C35.0191 23.6769 36.0974 23.3386 36.4457 22.791C35.9979 22.3239 35.55 21.873 35.0855 21.4059C34.4054 22.179 33.7916 22.7266 32.4811 22.2112C31.0877 21.6797 31.2868 20.7294 31.2536 19.7469C30.5569 19.7469 29.9431 19.7469 29.2796 19.7469ZM33.2608 20.3268C34.0238 19.8597 34.3059 19.3443 34.2893 18.5551C34.2395 15.9297 34.2727 13.3044 34.2727 10.679C34.2727 10.4697 34.2727 10.2442 34.2727 10.0509C31.5522 10.0509 28.9312 10.0509 26.2605 10.0509C26.2605 12.9984 26.2937 15.9136 26.2439 18.8128C26.2273 19.5698 26.6918 19.8919 27.2724 20.3268C27.2724 19.763 27.2724 19.2959 27.2724 18.8289C27.289 18.1363 27.6373 17.7819 28.334 17.7658C29.6279 17.7497 30.9218 17.7497 32.1991 17.7658C32.8793 17.7658 33.2276 18.1363 33.2442 18.7805C33.2608 19.2798 33.2608 19.7469 33.2608 20.3268ZM14.2837 56.5822C24.9666 56.5822 35.5997 56.5822 46.2163 56.5822C46.2163 55.9218 46.2163 55.3098 46.2163 54.7138C35.55 54.7138 24.9334 54.7138 14.2837 54.7138C14.2837 55.342 14.2837 55.9379 14.2837 56.5822ZM25.2984 46.9345C25.2984 48.8833 25.2984 50.8 25.2984 52.6844C28.6492 52.6844 31.9337 52.6844 35.2182 52.6844C35.2182 50.7356 35.2182 48.8511 35.2182 46.9345C31.9171 46.9345 28.6326 46.9345 25.2984 46.9345ZM12.2765 2.2393C11.7789 2.2232 11.2812 2.67418 11.2647 3.17347C11.2481 3.67277 11.7125 4.15596 12.2268 4.17207C12.741 4.18817 13.2387 3.7372 13.2553 3.2379C13.2718 2.7386 12.8074 2.25541 12.2765 2.2393ZM49.2519 3.22179C49.2519 2.7225 48.7875 2.25541 48.2732 2.2393C47.759 2.2393 47.2779 2.69028 47.2613 3.18958C47.2613 3.68888 47.7258 4.15596 48.2401 4.17207C48.7709 4.18817 49.2519 3.72109 49.2519 3.22179ZM7.28345 28.4605C7.79769 28.4444 8.27875 27.9612 8.24558 27.4619C8.22899 26.9626 7.73134 26.5116 7.2171 26.5277C6.70286 26.5438 6.23839 27.027 6.25498 27.5263C6.27156 28.0095 6.76921 28.4766 7.28345 28.4605ZM54.2616 27.4941C54.2782 26.9948 53.7971 26.5277 53.2829 26.5116C52.7687 26.4955 52.2876 26.9626 52.271 27.4619C52.271 27.9612 52.7355 28.4283 53.2497 28.4444C53.764 28.4605 54.245 28.0095 54.2616 27.4941Z" fill="#2776EA"/>
<path d="M12.2589 20.6999C13.9011 20.6999 15.477 20.6999 17.0363 20.6999C17.8326 20.6999 18.2639 21.0381 18.2639 21.6662C18.2639 22.2944 17.8326 22.6326 17.0363 22.6326C15.1784 22.6326 13.3206 22.6326 11.4793 22.6326C10.6167 22.6326 10.2849 22.2944 10.2849 21.4569C10.2849 18.9765 10.2849 16.48 10.2849 13.903C10.0692 13.903 9.87018 13.903 9.67112 13.903C8.26111 13.903 6.83452 13.903 5.42451 13.903C4.7278 13.903 4.31309 13.5486 4.2965 12.9688C4.24674 12.3407 4.66145 11.9541 5.39133 11.9541C7.2824 11.9541 9.19006 11.9541 11.0811 11.9541C11.9105 11.9541 12.2423 12.2923 12.2423 13.0977C12.2423 15.3848 12.2423 17.6719 12.2423 19.959C12.2589 20.1845 12.2589 20.3938 12.2589 20.6999Z" fill="#2776EA"/>
<path d="M48.274 20.6969C48.274 20.0044 48.274 19.3923 48.274 18.7642C48.274 16.8797 48.274 14.9953 48.274 13.1269C48.274 12.3055 48.6058 11.9673 49.4352 11.9673C51.3263 11.9673 53.2339 11.9673 55.125 11.9673C55.8549 11.9673 56.2862 12.3377 56.2696 12.9498C56.253 13.5618 55.8383 13.9 55.0918 13.9C53.5159 13.9 51.9401 13.9 50.2812 13.9C50.2812 14.1578 50.2812 14.3671 50.2812 14.5926C50.2812 16.8797 50.2812 19.1668 50.2812 21.4539C50.2812 22.3076 49.9495 22.6458 49.0869 22.6458C47.2124 22.6458 45.3379 22.6458 43.4634 22.6458C42.7169 22.6458 42.2856 22.2915 42.2856 21.6955C42.2856 21.0674 42.7004 20.713 43.4966 20.713C45.0393 20.6969 46.5986 20.6969 48.274 20.6969Z" fill="#2776EA"/>
<path d="M34.2545 27.5087C34.2545 29.6669 32.4629 31.3742 30.2235 31.3581C28.0007 31.3581 26.2423 29.6186 26.2589 27.4443C26.2589 25.286 28.0504 23.5787 30.2899 23.5948C32.5127 23.6109 34.2545 25.3343 34.2545 27.5087ZM32.2473 27.4765C32.2307 26.4296 31.3018 25.5437 30.2401 25.5437C29.1785 25.5437 28.2495 26.4618 28.2495 27.4926C28.2495 28.5234 29.195 29.4253 30.2567 29.4253C31.3349 29.4253 32.2639 28.5073 32.2473 27.4765Z" fill="#2776EA"/>
</svg>
