<svg width="39" height="51" viewBox="0 0 39 51" fill="none" xmlns="http://www.w3.org/2000/svg">
<path d="M24.635 30.8869C24.4905 31.8141 24.2977 32.5949 24.2736 33.4002C24.1773 35.8402 22.3705 37.4506 19.5037 37.0358C19.5037 36.377 19.5037 35.7182 19.5037 35.0594C19.6001 35.035 19.6724 34.9862 19.7446 34.9862C21.8405 34.8398 21.9128 34.7666 22.2019 32.6194C22.3223 31.7409 22.4187 30.8869 22.5391 30.0085C22.7319 28.5933 24.2495 27.9345 25.4059 28.7885C26.3936 29.4961 27.3331 30.2525 28.3208 30.9601C29.2122 31.6189 29.7422 31.5945 30.5371 30.8137C31.043 30.3257 31.5489 29.8377 32.0307 29.3253C32.633 28.6909 32.6571 28.1297 32.1271 27.4221C31.4044 26.4705 30.6576 25.5433 29.959 24.6161C28.9472 23.2985 29.5012 21.8588 31.1153 21.6148C32.2716 21.444 33.4521 21.2976 34.6084 21.1512C35.6925 21.0048 36.0779 20.59 36.102 19.492C36.1261 18.8088 36.1261 18.1256 36.102 17.4424C36.0779 16.6128 35.6925 16.1004 34.8493 16.0028C33.693 15.832 32.5125 15.6612 31.3562 15.5392C30.5853 15.466 29.959 15.2464 29.6217 14.4412C29.2603 13.6116 29.5494 12.9772 30.0553 12.3427C30.7539 11.4887 31.4285 10.6103 32.103 9.73192C32.7053 8.92671 32.6812 8.41431 31.9826 7.7067C31.4767 7.16989 30.9467 6.65749 30.4167 6.16949C29.7422 5.53508 29.2122 5.48628 28.4654 6.04748C27.4777 6.75509 26.5381 7.5115 25.5504 8.2191C24.1773 9.21951 22.78 8.60951 22.515 6.95029C22.3464 5.92548 22.2019 4.87627 22.0573 3.82706C21.8646 2.43625 21.5514 2.14344 20.1542 2.11904C19.9374 2.11904 19.7206 2.09464 19.4556 2.07024C19.4556 1.38704 19.4556 0.752631 19.4556 0.118224C22.0573 -0.418581 23.8882 0.899031 24.2255 3.53426C24.3218 4.38827 24.4664 5.21788 24.6109 6.21829C25.3095 5.68148 25.9359 5.24227 26.5381 4.75427C28.8508 2.97305 30.3444 3.07065 32.4403 5.12028C32.8257 5.48628 33.2112 5.87668 33.5725 6.24269C34.8975 7.6335 35.0179 9.39032 33.8375 10.9519C33.2353 11.7327 32.633 12.5135 31.9344 13.4164C32.9944 13.5628 33.9098 13.7092 34.8493 13.8068C37.0174 14.0508 38.222 15.3684 38.2461 17.5888C38.2461 18.3208 38.2701 19.0772 38.2461 19.8092C38.1979 21.5904 37.0174 22.9325 35.2829 23.1765C34.2471 23.3473 33.1871 23.4693 31.9344 23.6401C32.5366 24.4209 33.0425 25.0553 33.5484 25.7141C35.1625 27.7881 35.0661 29.3741 33.1871 31.2285C32.7534 31.6677 32.3198 32.1069 31.8621 32.5218C30.489 33.7662 28.7544 33.8882 27.2368 32.8146C26.4177 32.2289 25.5986 31.5945 24.635 30.8869Z" fill="#2776EA"/>
<path d="M15.7485 37.0347C13.1708 37.0347 10.6173 37.0347 8.0155 37.0347C7.89505 36.0099 7.89505 34.9363 7.60596 33.9603C7.22052 32.6427 6.73871 31.3251 6.06418 30.1295C5.07648 28.3239 3.87196 26.6402 2.78789 24.8834C-0.440221 19.735 -0.897937 14.3181 1.82427 8.87686C4.57058 3.36241 9.19593 0.507578 15.2667 0.0927734C15.4112 0.0927734 15.5317 0.117174 15.7244 0.117174C15.7244 0.629579 15.7244 1.11758 15.7244 1.55679C14.3754 1.82519 13.0022 1.97159 11.7013 2.362C2.69153 5.07042 -1.13884 15.9529 4.06468 23.8586C5.22102 25.6154 6.30508 27.3966 7.41324 29.1535C8.49731 30.8859 9.17184 32.7647 9.38865 34.7899C9.43683 35.3023 9.62955 35.4487 10.1114 35.4487C11.9663 35.4243 13.7972 35.4487 15.7003 35.4487C15.7485 36.0099 15.7485 36.4979 15.7485 37.0347Z" fill="#2776EA"/>
<path d="M17.5329 42.4771C20.0624 42.4771 22.5678 42.5015 25.0973 42.4771C25.7477 42.4771 25.9886 42.6966 25.9645 43.3555C25.8923 45.6247 26.2777 45.2831 24.0614 45.3075C19.4361 45.3319 14.8107 45.2831 10.1853 45.3319C9.34218 45.3319 9.0531 45.0879 9.10128 44.2339C9.17355 42.3062 8.86038 42.5015 10.8117 42.5015C13.0521 42.4771 15.2925 42.4771 17.5329 42.4771Z" fill="#2776EA"/>
<path d="M17.5295 41.2577C15 41.2577 12.4946 41.2333 9.96508 41.2821C9.31464 41.2821 9.07373 41.0869 9.09782 40.4037C9.17009 38.2077 8.80874 38.5005 10.9528 38.5005C15.6022 38.4761 20.2517 38.5249 24.9011 38.4761C25.7443 38.4761 26.0093 38.6957 25.9852 39.5741C25.9129 41.5261 26.202 41.2577 24.347 41.2577C22.0584 41.2577 19.7939 41.2577 17.5295 41.2577Z" fill="#2776EA"/>
<path d="M10.4741 46.3818C15.2681 46.3818 19.8453 46.3818 24.6393 46.3818C23.0011 48.0167 21.8689 49.8955 19.6285 50.6275C16.7858 51.5547 14.4972 50.7007 12.5218 48.6267C11.8714 47.9434 11.245 47.2358 10.4741 46.3818Z" fill="#2776EA"/>
<path d="M17.5791 23.8109C20.9999 23.1521 22.7826 21.3464 22.7826 18.5892C22.7826 15.832 20.9999 14.0264 17.5791 13.3676C17.5791 12.7576 17.5791 12.1475 17.5791 11.4399C20.1327 11.5131 22.1563 12.5136 23.6017 14.5876C25.1917 16.9056 25.3603 19.3944 24.0353 21.8832C22.6863 24.4209 20.4699 25.5921 17.6032 25.7629C17.5791 25.0797 17.5791 24.4453 17.5791 23.8109Z" fill="#2776EA"/>
</svg>
