<svg width="60" height="60" viewBox="0 0 60 60" fill="none" xmlns="http://www.w3.org/2000/svg">
<g clip-path="url(#clip0_24_643062)">
<path d="M34.1529 36.0096C34.8602 36.0096 35.5217 35.7308 36.0156 35.2246L40.4029 30.7263C41.4043 29.6996 41.3835 28.0496 40.3566 27.0481C39.3297 26.0469 37.6794 26.0676 36.6781 27.0943L34.1043 29.7329L33.6534 29.2945C32.625 28.295 30.9748 28.3179 29.9747 29.3461C28.9749 30.3743 28.998 32.0243 30.0264 33.0242L32.3396 35.2733C32.8278 35.7481 33.4719 36.0096 34.1529 36.0096ZM31.1776 30.5155C31.533 30.1501 32.1192 30.1425 32.4841 30.4973L33.5353 31.5195C33.867 31.8422 34.3974 31.8349 34.7206 31.5038L37.8791 28.2656C38.2349 27.9008 38.8209 27.8938 39.1854 28.2491C39.5501 28.6048 39.5574 29.1907 39.2019 29.5554L34.8145 34.0535C34.4755 34.4161 33.8579 34.4238 33.5091 34.0709L31.1959 31.8218C30.8309 31.4666 30.8225 30.8806 31.1776 30.5155Z" fill="#2776EA"/>
<path d="M27.6692 36.5809C27.3902 36.2111 26.8644 36.1374 26.4944 36.4165C26.1245 36.6955 26.051 37.2214 26.33 37.5911C26.6354 37.9959 26.9734 38.3841 27.3341 38.7448C29.3965 40.807 32.1385 41.9426 35.0552 41.9426C37.9718 41.9426 40.7138 40.807 42.7761 38.7448C44.8386 36.6827 45.9743 33.941 45.9743 31.0248C45.9743 28.1085 44.8385 25.3669 42.7761 23.3049C38.5187 19.0481 31.5916 19.0482 27.3341 23.3049C24.4315 26.207 23.4044 30.4406 24.6536 34.3535C24.7945 34.7948 25.2668 35.0381 25.7077 34.8975C26.149 34.7566 26.3927 34.2846 26.2517 33.8435C25.1942 30.5312 26.0636 26.9475 28.5205 24.491C32.1236 20.8882 37.9867 20.8882 41.5899 24.491C43.3354 26.2363 44.2968 28.5568 44.2968 31.0249C44.2968 33.4931 43.3354 35.8136 41.5899 37.5589C39.8444 39.3041 37.5237 40.2653 35.0552 40.2653C32.5868 40.2653 30.2659 39.3042 28.5204 37.5589C28.2143 37.2526 27.9279 36.9237 27.6692 36.5809Z" fill="#2776EA"/>
<path d="M55.9889 46.3471L50.697 41.056C50.3693 40.7285 49.8383 40.7284 49.5106 41.056L49.4783 41.0883L47.4418 39.0522C48.8108 36.9417 49.6264 34.5032 49.7869 31.9582C49.816 31.4959 49.4648 31.0976 49.0025 31.0684C48.5406 31.0402 48.1419 31.3905 48.1125 31.8526C47.9122 35.03 46.5605 38.021 44.3065 40.2747C41.7592 42.8218 38.414 44.0968 35.0678 44.1C35.0636 44.0999 35.0594 44.0994 35.0551 44.0994H34.9885C31.6603 44.0826 28.3373 42.8081 25.8036 40.2747C23.3324 37.804 21.9715 34.5188 21.9715 31.0245C21.9715 27.5302 23.3324 24.2451 25.8036 21.7743C30.9049 16.6736 39.2053 16.6736 44.3065 21.7743C46.2065 23.6741 47.4603 26.0704 47.9325 28.7044C48.0143 29.1603 48.4505 29.4632 48.9062 29.382C49.3622 29.3003 49.6656 28.8645 49.5839 28.4084C49.0508 25.4356 47.6362 22.7313 45.4928 20.5881C44.4307 19.5262 43.2455 18.6609 41.9829 17.9909V11.2313C41.9822 11.0106 41.893 10.7945 41.7372 10.6383L31.3433 0.245647C31.1869 0.0900668 30.9709 0.000558035 30.75 0H2.51651C1.12902 0 0.000111607 1.12868 0.000111607 2.51607V9.5655C0.000111607 10.0287 0.375557 10.4042 0.83895 10.4042C1.30223 10.4042 1.67779 10.0288 1.67779 9.5655V2.51607C1.67779 2.05357 2.05401 1.67734 2.51663 1.67734H29.9115V9.554C29.9115 10.9414 31.0404 12.0701 32.4279 12.0701H40.3055V17.2313C38.6689 16.6112 36.9435 16.2927 35.2152 16.2741C35.207 16.273 35.1989 16.2713 35.1904 16.2713H16.4627C15.9994 16.2713 15.6239 16.6469 15.6239 17.11C15.6239 17.5732 15.9994 17.9487 16.4627 17.9487H28.2067C27.0101 18.5744 25.8822 19.3753 24.8608 20.3511H16.4627C15.9994 20.3511 15.6239 20.7266 15.6239 21.1898C15.6239 21.653 15.9994 22.0285 16.4627 22.0285H23.3511C21.9819 23.8021 21.0462 25.8447 20.5983 28.0252H16.4628C15.9995 28.0252 15.624 28.4007 15.624 28.8639C15.624 29.3271 15.9995 29.7026 16.4628 29.7026H20.3533C20.3147 30.1398 20.2943 30.5806 20.2943 31.0247C20.2943 31.389 20.3076 31.7513 20.3336 32.111H16.4629C15.9996 32.111 15.6241 32.4866 15.6241 32.9497C15.6241 33.4129 15.9996 33.7885 16.4629 33.7885H20.5522C20.98 36.0587 21.9338 38.1859 23.3537 40.0239H16.4629C15.9996 40.0239 15.6241 40.3994 15.6241 40.8627C15.6241 41.3259 15.9996 41.7014 16.4629 41.7014H24.8641C25.8841 42.6754 27.0102 43.4749 28.2046 44.0998H16.4625C15.9992 44.0998 15.6236 44.4754 15.6236 44.9385C15.6236 45.4017 15.9992 45.7773 16.4625 45.7773H35.0551C36.8366 45.7771 38.6181 45.4571 40.3053 44.8179V54.6272C40.3053 55.0895 39.9291 55.4659 39.4665 55.4659H2.51651C2.05401 55.4659 1.67768 55.0896 1.67768 54.6272V12.9207C1.67768 12.4576 1.30212 12.082 0.838838 12.082C0.375557 12.082 0 12.4575 0 12.9207V54.6272C0.000111607 56.0141 1.12902 57.1428 2.51651 57.1428H39.4666C40.8541 57.1428 41.983 56.0141 41.983 54.6267V44.0579C42.3573 43.8592 42.7247 43.6431 43.0842 43.4101L45.1203 45.4458C44.7679 45.7534 44.749 46.3396 45.0878 46.6643L50.3797 51.9556C51.856 53.4941 54.5126 53.494 55.9888 51.9556C57.5276 50.4795 57.5275 47.8231 55.9889 46.3471ZM32.4277 10.3927C31.9652 10.3927 31.5889 10.0165 31.5889 9.554V2.8635L39.1191 10.3927H32.4277ZM44.4525 42.406C44.8104 42.1101 45.158 41.7956 45.4928 41.4609C45.8256 41.1281 46.1406 40.7806 46.4379 40.4207L48.2919 42.2744L46.3064 44.2595L44.4525 42.406ZM54.8026 50.7695C53.9508 51.6573 52.4179 51.6571 51.566 50.7695L46.8671 46.0713L50.1038 42.835L54.8027 47.5332C55.6904 48.3851 55.6905 49.9177 54.8026 50.7695Z" fill="#2776EA"/>
<path d="M7.61206 22.8576H11.2817C12.3163 22.8576 13.158 22.0161 13.158 20.9817V17.3125C13.158 16.278 12.3164 15.4365 11.2817 15.4365H7.61206C6.57758 15.4365 5.73584 16.278 5.73584 17.3125V20.9817C5.73584 22.0161 6.57758 22.8576 7.61206 22.8576ZM7.41352 17.3125C7.41352 17.203 7.50269 17.114 7.61206 17.114H11.2817C11.3913 17.114 11.4804 17.203 11.4804 17.3125V20.9817C11.4804 21.0912 11.3912 21.1803 11.2817 21.1803H7.61206C7.50258 21.1803 7.41352 21.0912 7.41352 20.9817V17.3125Z" fill="#2776EA"/>
<path d="M5.73584 32.7404C5.73584 33.7748 6.57747 34.6163 7.61206 34.6163H11.2817C12.3163 34.6163 13.158 33.7748 13.158 32.7404V29.0712C13.158 28.0368 12.3164 27.1953 11.2817 27.1953H7.61206C6.57758 27.1953 5.73584 28.0368 5.73584 29.0712V32.7404ZM7.41352 29.0712C7.41352 28.9617 7.50269 28.8727 7.61206 28.8727H11.2817C11.3913 28.8727 11.4804 28.9617 11.4804 29.0712V32.7404C11.4804 32.8499 11.3912 32.9389 11.2817 32.9389H7.61206C7.50258 32.9389 7.41352 32.8499 7.41352 32.7404V29.0712Z" fill="#2776EA"/>
<path d="M5.73584 44.7395C5.73584 45.7739 6.57747 46.6154 7.61206 46.6154H11.2817C12.3163 46.6154 13.158 45.7739 13.158 44.7395V41.0703C13.158 40.0359 12.3164 39.1943 11.2817 39.1943H7.61206C6.57758 39.1943 5.73584 40.0359 5.73584 41.0703V44.7395ZM7.41352 41.0703C7.41352 40.9609 7.50269 40.8718 7.61206 40.8718H11.2817C11.3913 40.8718 11.4804 40.9609 11.4804 41.0703V44.7395C11.4804 44.849 11.3912 44.9381 11.2817 44.9381H7.61206C7.50258 44.9381 7.41352 44.849 7.41352 44.7395V41.0703Z" fill="#2776EA"/>
</g>
<defs>
<clipPath id="clip0_24_643062">
<rect width="60" height="60" fill="white"/>
</clipPath>
</defs>
</svg>
