<svg width="62" height="71" viewBox="0 0 62 71" fill="none" xmlns="http://www.w3.org/2000/svg">
<mask id="path-1-outside-1_1_40532" maskUnits="userSpaceOnUse" x="0" y="-0.152344" width="62" height="71" fill="black">
<rect fill="white" y="-0.152344" width="62" height="71"/>
<path d="M31.012 56.1375C30.2407 57.4682 29.5233 58.7048 28.8118 59.9468C26.9943 63.1019 25.1768 66.2569 23.3593 69.412C22.9946 70.0441 22.5343 70.2382 22.0381 69.9443C21.8348 69.8223 21.6734 69.606 21.5538 69.4009C20.1548 66.9944 18.7558 64.5879 17.3807 62.1703C17.2073 61.8653 17.028 61.76 16.6513 61.7933C13.7756 62.0705 10.8939 62.3311 8.01223 62.5806C7.68939 62.6084 7.33067 62.6195 7.03772 62.5141C6.54149 62.3311 6.46975 61.8044 6.80455 61.2221C8.19757 58.7935 9.60254 56.3703 11.0015 53.9417C12.1733 51.9122 13.3452 49.8773 14.517 47.8478C14.5827 47.7314 14.6425 47.6039 14.7501 47.3876C14.0028 47.1325 13.2913 46.8664 12.562 46.639C11.5277 46.3119 10.4694 46.0457 9.4471 45.6964C7.0437 44.8702 5.80612 43.2345 5.73438 40.8668C5.69851 39.7135 5.70449 38.5601 5.73438 37.4068C5.77025 35.9207 5.31588 34.6066 4.34137 33.42C3.47447 32.3665 2.61355 31.3074 1.86622 30.1818C0.694414 28.4296 0.724307 26.6108 1.87818 24.8586C2.51191 23.8938 3.22934 22.9623 4.00656 22.0862C5.27403 20.6556 5.85993 19.0642 5.74036 17.2178C5.68058 16.2419 5.69851 15.2549 5.7284 14.2734C5.79417 11.8115 7.07359 10.148 9.57863 9.32182C10.8162 8.91705 12.0777 8.55663 13.3332 8.19621C14.6903 7.80252 15.7844 7.08723 16.6035 6.00597C17.303 5.07442 17.9846 4.12625 18.7379 3.23352C20.6869 0.926835 22.5761 0.383435 25.5953 1.23181C26.7851 1.5645 27.9509 1.95264 29.1347 2.31306C30.4739 2.72339 31.7951 2.65685 33.1224 2.25761C34.4975 1.84175 35.8606 1.39815 37.2536 1.04882C39.4597 0.499878 41.343 1.08209 42.7898 2.70121C43.6627 3.67711 44.4519 4.7251 45.2291 5.77308C46.1737 7.04841 47.4232 7.8746 49.0255 8.30711C50.2691 8.6398 51.5066 9.01131 52.7203 9.43827C55.034 10.2534 56.1939 11.8725 56.2895 14.1403C56.3373 15.2382 56.3374 16.3472 56.2835 17.4451C56.2058 19.1419 56.7499 20.6168 57.9037 21.9365C58.5674 22.6961 59.1951 23.4891 59.793 24.2986C61.3833 26.4334 61.4132 28.5904 59.8169 30.7362C59.1652 31.6123 58.4837 32.4718 57.7662 33.3091C56.714 34.5345 56.2596 35.9152 56.2835 37.4789C56.3075 38.8706 56.3134 40.2679 56.1819 41.6542C56.0085 43.4729 54.9085 44.7649 53.1149 45.4635C51.8355 45.9626 50.4903 46.3008 49.1809 46.7278C48.5592 46.9274 47.9434 47.1603 47.2618 47.3987C47.9494 48.5964 48.595 49.7109 49.2407 50.831C51.2436 54.3021 53.2524 57.7732 55.2253 61.2554C55.3808 61.5271 55.3927 61.9707 55.2732 62.259C55.0878 62.6805 54.5976 62.6472 54.1551 62.6084C51.2376 62.3367 48.32 62.0816 45.4084 61.7933C45.0019 61.7545 44.8166 61.8875 44.6432 62.198C43.2741 64.599 41.8811 66.9888 40.506 69.3842C40.3087 69.728 40.0994 70.0552 39.6152 70.0607C39.113 70.0663 38.8738 69.7557 38.6646 69.3842C36.2432 65.1646 33.8099 60.9504 31.3826 56.7363C31.269 56.57 31.1734 56.4092 31.012 56.1375ZM54.5677 16.3971C54.5557 16.3971 54.5438 16.3971 54.5318 16.3971C54.5318 15.5876 54.5677 14.778 54.5258 13.974C54.4541 12.5933 53.7367 11.5841 52.3496 11.0574C51.4409 10.7136 50.5202 10.3809 49.5696 10.1646C46.8373 9.55471 44.703 8.23502 43.2382 5.9727C42.7061 5.15205 42.0425 4.39795 41.3789 3.66047C40.4402 2.60694 39.2026 2.24098 37.7797 2.59585C36.6378 2.87864 35.4959 3.20025 34.3899 3.58285C32.112 4.37577 29.87 4.38131 27.6041 3.56067C26.6416 3.21134 25.6432 2.93409 24.6507 2.66239C23.0425 2.22434 21.6375 2.51822 20.5494 3.76028C20.1189 4.25378 19.7004 4.76391 19.2998 5.27404C18.8395 5.85626 18.3971 6.44956 17.9547 7.04287C16.7111 8.71188 14.8757 9.49926 12.8549 10.0482C11.6831 10.3643 10.5292 10.7469 9.41123 11.1905C8.4128 11.5841 7.7432 12.3383 7.63558 13.3474C7.51003 14.5562 7.44426 15.7816 7.49807 16.996C7.59373 19.2195 7.03772 21.2046 5.48926 22.9512C4.70606 23.8384 4.00059 24.7977 3.33696 25.768C2.5717 26.8936 2.5717 28.0858 3.30707 29.2391C3.71959 29.8879 4.20984 30.4978 4.67019 31.1188C5.32186 31.9949 6.04527 32.8322 6.63117 33.7471C7.56982 35.2221 7.50405 36.8745 7.48014 38.5158C7.46818 39.4085 7.4622 40.3068 7.53394 41.1939C7.62362 42.3639 8.16768 43.3343 9.3634 43.8333C10.302 44.227 11.2706 44.6096 12.275 44.8314C15.1447 45.4635 17.3867 46.8276 18.9112 49.2119C19.4732 50.088 20.2146 50.8864 20.9559 51.6461C21.7272 52.4335 22.7495 52.7772 23.8854 52.5111C25.123 52.2283 26.3606 51.9122 27.5503 51.4908C29.8999 50.6646 32.2077 50.6646 34.5453 51.5075C35.5258 51.8623 36.5422 52.134 37.5585 52.4113C39.0771 52.8272 40.3984 52.5 41.4147 51.3578C42.0604 50.6314 42.7121 49.8884 43.2442 49.0899C44.6432 46.9717 46.5803 45.5966 49.1989 44.9977C50.3049 44.7427 51.393 44.3601 52.4453 43.9553C53.7665 43.4452 54.4421 42.4526 54.5318 41.144C54.5916 40.2679 54.6394 39.3863 54.5737 38.5158C54.3704 35.9817 54.9981 33.7194 56.8276 31.7621C57.5271 31.0135 58.119 30.1651 58.6869 29.3223C59.4941 28.1412 59.512 26.8992 58.6929 25.7181C58.0233 24.7478 57.2939 23.8162 56.5346 22.9013C55.3688 21.504 54.5856 19.9847 54.5796 18.177C54.5617 17.6004 54.5677 16.996 54.5677 16.3971ZM22.4446 67.5322C22.5642 67.3437 22.6299 67.2439 22.6897 67.1386C25.1469 62.8801 27.6041 58.616 30.0554 54.3575C30.2706 53.986 30.4739 53.6256 31.0239 53.6312C31.5799 53.6312 31.7653 54.0138 31.9745 54.3797C33.6425 57.2742 35.3106 60.1741 36.9786 63.0686C37.8216 64.5324 38.6646 65.9963 39.5554 67.5378C39.7407 67.2328 39.8842 66.9944 40.0217 66.756C41.1875 64.7376 42.3534 62.7248 43.5072 60.7065C43.7404 60.3017 44.0513 60.0577 44.5595 60.1076C46.5145 60.285 48.4695 60.468 50.4305 60.651C51.2615 60.7286 52.0985 60.7952 53.0312 60.8728C50.6278 56.703 48.2842 52.6331 45.9047 48.5021C45.7014 48.7406 45.54 48.9125 45.4025 49.0899C44.5954 50.1212 43.8301 51.1748 42.9811 52.1784C41.4446 53.986 39.4418 54.6126 37.0444 53.9971C35.9204 53.7088 34.8024 53.3816 33.7143 52.999C31.9327 52.378 30.1809 52.3614 28.3873 52.9658C27.2394 53.3539 26.0736 53.7143 24.8958 54.0082C22.6598 54.5683 20.7527 54.0304 19.2281 52.4057C18.8634 52.0176 18.5226 51.6073 18.1998 51.1859C17.5182 50.3153 16.8606 49.4337 16.1252 48.4689C13.7158 52.6553 11.3662 56.7308 8.97479 60.8784C11.8625 60.6177 14.6126 60.3793 17.3628 60.1187C17.871 60.0688 18.2237 60.2185 18.4569 60.6399C18.6482 60.9948 18.8634 61.3386 19.0607 61.6824C20.1787 63.6009 21.2907 65.5194 22.4446 67.5322Z"/>
</mask>
<path d="M31.012 56.1375C30.2407 57.4682 29.5233 58.7048 28.8118 59.9468C26.9943 63.1019 25.1768 66.2569 23.3593 69.412C22.9946 70.0441 22.5343 70.2382 22.0381 69.9443C21.8348 69.8223 21.6734 69.606 21.5538 69.4009C20.1548 66.9944 18.7558 64.5879 17.3807 62.1703C17.2073 61.8653 17.028 61.76 16.6513 61.7933C13.7756 62.0705 10.8939 62.3311 8.01223 62.5806C7.68939 62.6084 7.33067 62.6195 7.03772 62.5141C6.54149 62.3311 6.46975 61.8044 6.80455 61.2221C8.19757 58.7935 9.60254 56.3703 11.0015 53.9417C12.1733 51.9122 13.3452 49.8773 14.517 47.8478C14.5827 47.7314 14.6425 47.6039 14.7501 47.3876C14.0028 47.1325 13.2913 46.8664 12.562 46.639C11.5277 46.3119 10.4694 46.0457 9.4471 45.6964C7.0437 44.8702 5.80612 43.2345 5.73438 40.8668C5.69851 39.7135 5.70449 38.5601 5.73438 37.4068C5.77025 35.9207 5.31588 34.6066 4.34137 33.42C3.47447 32.3665 2.61355 31.3074 1.86622 30.1818C0.694414 28.4296 0.724307 26.6108 1.87818 24.8586C2.51191 23.8938 3.22934 22.9623 4.00656 22.0862C5.27403 20.6556 5.85993 19.0642 5.74036 17.2178C5.68058 16.2419 5.69851 15.2549 5.7284 14.2734C5.79417 11.8115 7.07359 10.148 9.57863 9.32182C10.8162 8.91705 12.0777 8.55663 13.3332 8.19621C14.6903 7.80252 15.7844 7.08723 16.6035 6.00597C17.303 5.07442 17.9846 4.12625 18.7379 3.23352C20.6869 0.926835 22.5761 0.383435 25.5953 1.23181C26.7851 1.5645 27.9509 1.95264 29.1347 2.31306C30.4739 2.72339 31.7951 2.65685 33.1224 2.25761C34.4975 1.84175 35.8606 1.39815 37.2536 1.04882C39.4597 0.499878 41.343 1.08209 42.7898 2.70121C43.6627 3.67711 44.4519 4.7251 45.2291 5.77308C46.1737 7.04841 47.4232 7.8746 49.0255 8.30711C50.2691 8.6398 51.5066 9.01131 52.7203 9.43827C55.034 10.2534 56.1939 11.8725 56.2895 14.1403C56.3373 15.2382 56.3374 16.3472 56.2835 17.4451C56.2058 19.1419 56.7499 20.6168 57.9037 21.9365C58.5674 22.6961 59.1951 23.4891 59.793 24.2986C61.3833 26.4334 61.4132 28.5904 59.8169 30.7362C59.1652 31.6123 58.4837 32.4718 57.7662 33.3091C56.714 34.5345 56.2596 35.9152 56.2835 37.4789C56.3075 38.8706 56.3134 40.2679 56.1819 41.6542C56.0085 43.4729 54.9085 44.7649 53.1149 45.4635C51.8355 45.9626 50.4903 46.3008 49.1809 46.7278C48.5592 46.9274 47.9434 47.1603 47.2618 47.3987C47.9494 48.5964 48.595 49.7109 49.2407 50.831C51.2436 54.3021 53.2524 57.7732 55.2253 61.2554C55.3808 61.5271 55.3927 61.9707 55.2732 62.259C55.0878 62.6805 54.5976 62.6472 54.1551 62.6084C51.2376 62.3367 48.32 62.0816 45.4084 61.7933C45.0019 61.7545 44.8166 61.8875 44.6432 62.198C43.2741 64.599 41.8811 66.9888 40.506 69.3842C40.3087 69.728 40.0994 70.0552 39.6152 70.0607C39.113 70.0663 38.8738 69.7557 38.6646 69.3842C36.2432 65.1646 33.8099 60.9504 31.3826 56.7363C31.269 56.57 31.1734 56.4092 31.012 56.1375ZM54.5677 16.3971C54.5557 16.3971 54.5438 16.3971 54.5318 16.3971C54.5318 15.5876 54.5677 14.778 54.5258 13.974C54.4541 12.5933 53.7367 11.5841 52.3496 11.0574C51.4409 10.7136 50.5202 10.3809 49.5696 10.1646C46.8373 9.55471 44.703 8.23502 43.2382 5.9727C42.7061 5.15205 42.0425 4.39795 41.3789 3.66047C40.4402 2.60694 39.2026 2.24098 37.7797 2.59585C36.6378 2.87864 35.4959 3.20025 34.3899 3.58285C32.112 4.37577 29.87 4.38131 27.6041 3.56067C26.6416 3.21134 25.6432 2.93409 24.6507 2.66239C23.0425 2.22434 21.6375 2.51822 20.5494 3.76028C20.1189 4.25378 19.7004 4.76391 19.2998 5.27404C18.8395 5.85626 18.3971 6.44956 17.9547 7.04287C16.7111 8.71188 14.8757 9.49926 12.8549 10.0482C11.6831 10.3643 10.5292 10.7469 9.41123 11.1905C8.4128 11.5841 7.7432 12.3383 7.63558 13.3474C7.51003 14.5562 7.44426 15.7816 7.49807 16.996C7.59373 19.2195 7.03772 21.2046 5.48926 22.9512C4.70606 23.8384 4.00059 24.7977 3.33696 25.768C2.5717 26.8936 2.5717 28.0858 3.30707 29.2391C3.71959 29.8879 4.20984 30.4978 4.67019 31.1188C5.32186 31.9949 6.04527 32.8322 6.63117 33.7471C7.56982 35.2221 7.50405 36.8745 7.48014 38.5158C7.46818 39.4085 7.4622 40.3068 7.53394 41.1939C7.62362 42.3639 8.16768 43.3343 9.3634 43.8333C10.302 44.227 11.2706 44.6096 12.275 44.8314C15.1447 45.4635 17.3867 46.8276 18.9112 49.2119C19.4732 50.088 20.2146 50.8864 20.9559 51.6461C21.7272 52.4335 22.7495 52.7772 23.8854 52.5111C25.123 52.2283 26.3606 51.9122 27.5503 51.4908C29.8999 50.6646 32.2077 50.6646 34.5453 51.5075C35.5258 51.8623 36.5422 52.134 37.5585 52.4113C39.0771 52.8272 40.3984 52.5 41.4147 51.3578C42.0604 50.6314 42.7121 49.8884 43.2442 49.0899C44.6432 46.9717 46.5803 45.5966 49.1989 44.9977C50.3049 44.7427 51.393 44.3601 52.4453 43.9553C53.7665 43.4452 54.4421 42.4526 54.5318 41.144C54.5916 40.2679 54.6394 39.3863 54.5737 38.5158C54.3704 35.9817 54.9981 33.7194 56.8276 31.7621C57.5271 31.0135 58.119 30.1651 58.6869 29.3223C59.4941 28.1412 59.512 26.8992 58.6929 25.7181C58.0233 24.7478 57.2939 23.8162 56.5346 22.9013C55.3688 21.504 54.5856 19.9847 54.5796 18.177C54.5617 17.6004 54.5677 16.996 54.5677 16.3971ZM22.4446 67.5322C22.5642 67.3437 22.6299 67.2439 22.6897 67.1386C25.1469 62.8801 27.6041 58.616 30.0554 54.3575C30.2706 53.986 30.4739 53.6256 31.0239 53.6312C31.5799 53.6312 31.7653 54.0138 31.9745 54.3797C33.6425 57.2742 35.3106 60.1741 36.9786 63.0686C37.8216 64.5324 38.6646 65.9963 39.5554 67.5378C39.7407 67.2328 39.8842 66.9944 40.0217 66.756C41.1875 64.7376 42.3534 62.7248 43.5072 60.7065C43.7404 60.3017 44.0513 60.0577 44.5595 60.1076C46.5145 60.285 48.4695 60.468 50.4305 60.651C51.2615 60.7286 52.0985 60.7952 53.0312 60.8728C50.6278 56.703 48.2842 52.6331 45.9047 48.5021C45.7014 48.7406 45.54 48.9125 45.4025 49.0899C44.5954 50.1212 43.8301 51.1748 42.9811 52.1784C41.4446 53.986 39.4418 54.6126 37.0444 53.9971C35.9204 53.7088 34.8024 53.3816 33.7143 52.999C31.9327 52.378 30.1809 52.3614 28.3873 52.9658C27.2394 53.3539 26.0736 53.7143 24.8958 54.0082C22.6598 54.5683 20.7527 54.0304 19.2281 52.4057C18.8634 52.0176 18.5226 51.6073 18.1998 51.1859C17.5182 50.3153 16.8606 49.4337 16.1252 48.4689C13.7158 52.6553 11.3662 56.7308 8.97479 60.8784C11.8625 60.6177 14.6126 60.3793 17.3628 60.1187C17.871 60.0688 18.2237 60.2185 18.4569 60.6399C18.6482 60.9948 18.8634 61.3386 19.0607 61.6824C20.1787 63.6009 21.2907 65.5194 22.4446 67.5322Z" fill="#2776EA"/>
<path d="M31.012 56.1375C30.2407 57.4682 29.5233 58.7048 28.8118 59.9468C26.9943 63.1019 25.1768 66.2569 23.3593 69.412C22.9946 70.0441 22.5343 70.2382 22.0381 69.9443C21.8348 69.8223 21.6734 69.606 21.5538 69.4009C20.1548 66.9944 18.7558 64.5879 17.3807 62.1703C17.2073 61.8653 17.028 61.76 16.6513 61.7933C13.7756 62.0705 10.8939 62.3311 8.01223 62.5806C7.68939 62.6084 7.33067 62.6195 7.03772 62.5141C6.54149 62.3311 6.46975 61.8044 6.80455 61.2221C8.19757 58.7935 9.60254 56.3703 11.0015 53.9417C12.1733 51.9122 13.3452 49.8773 14.517 47.8478C14.5827 47.7314 14.6425 47.6039 14.7501 47.3876C14.0028 47.1325 13.2913 46.8664 12.562 46.639C11.5277 46.3119 10.4694 46.0457 9.4471 45.6964C7.0437 44.8702 5.80612 43.2345 5.73438 40.8668C5.69851 39.7135 5.70449 38.5601 5.73438 37.4068C5.77025 35.9207 5.31588 34.6066 4.34137 33.42C3.47447 32.3665 2.61355 31.3074 1.86622 30.1818C0.694414 28.4296 0.724307 26.6108 1.87818 24.8586C2.51191 23.8938 3.22934 22.9623 4.00656 22.0862C5.27403 20.6556 5.85993 19.0642 5.74036 17.2178C5.68058 16.2419 5.69851 15.2549 5.7284 14.2734C5.79417 11.8115 7.07359 10.148 9.57863 9.32182C10.8162 8.91705 12.0777 8.55663 13.3332 8.19621C14.6903 7.80252 15.7844 7.08723 16.6035 6.00597C17.303 5.07442 17.9846 4.12625 18.7379 3.23352C20.6869 0.926835 22.5761 0.383435 25.5953 1.23181C26.7851 1.5645 27.9509 1.95264 29.1347 2.31306C30.4739 2.72339 31.7951 2.65685 33.1224 2.25761C34.4975 1.84175 35.8606 1.39815 37.2536 1.04882C39.4597 0.499878 41.343 1.08209 42.7898 2.70121C43.6627 3.67711 44.4519 4.7251 45.2291 5.77308C46.1737 7.04841 47.4232 7.8746 49.0255 8.30711C50.2691 8.6398 51.5066 9.01131 52.7203 9.43827C55.034 10.2534 56.1939 11.8725 56.2895 14.1403C56.3373 15.2382 56.3374 16.3472 56.2835 17.4451C56.2058 19.1419 56.7499 20.6168 57.9037 21.9365C58.5674 22.6961 59.1951 23.4891 59.793 24.2986C61.3833 26.4334 61.4132 28.5904 59.8169 30.7362C59.1652 31.6123 58.4837 32.4718 57.7662 33.3091C56.714 34.5345 56.2596 35.9152 56.2835 37.4789C56.3075 38.8706 56.3134 40.2679 56.1819 41.6542C56.0085 43.4729 54.9085 44.7649 53.1149 45.4635C51.8355 45.9626 50.4903 46.3008 49.1809 46.7278C48.5592 46.9274 47.9434 47.1603 47.2618 47.3987C47.9494 48.5964 48.595 49.7109 49.2407 50.831C51.2436 54.3021 53.2524 57.7732 55.2253 61.2554C55.3808 61.5271 55.3927 61.9707 55.2732 62.259C55.0878 62.6805 54.5976 62.6472 54.1551 62.6084C51.2376 62.3367 48.32 62.0816 45.4084 61.7933C45.0019 61.7545 44.8166 61.8875 44.6432 62.198C43.2741 64.599 41.8811 66.9888 40.506 69.3842C40.3087 69.728 40.0994 70.0552 39.6152 70.0607C39.113 70.0663 38.8738 69.7557 38.6646 69.3842C36.2432 65.1646 33.8099 60.9504 31.3826 56.7363C31.269 56.57 31.1734 56.4092 31.012 56.1375ZM54.5677 16.3971C54.5557 16.3971 54.5438 16.3971 54.5318 16.3971C54.5318 15.5876 54.5677 14.778 54.5258 13.974C54.4541 12.5933 53.7367 11.5841 52.3496 11.0574C51.4409 10.7136 50.5202 10.3809 49.5696 10.1646C46.8373 9.55471 44.703 8.23502 43.2382 5.9727C42.7061 5.15205 42.0425 4.39795 41.3789 3.66047C40.4402 2.60694 39.2026 2.24098 37.7797 2.59585C36.6378 2.87864 35.4959 3.20025 34.3899 3.58285C32.112 4.37577 29.87 4.38131 27.6041 3.56067C26.6416 3.21134 25.6432 2.93409 24.6507 2.66239C23.0425 2.22434 21.6375 2.51822 20.5494 3.76028C20.1189 4.25378 19.7004 4.76391 19.2998 5.27404C18.8395 5.85626 18.3971 6.44956 17.9547 7.04287C16.7111 8.71188 14.8757 9.49926 12.8549 10.0482C11.6831 10.3643 10.5292 10.7469 9.41123 11.1905C8.4128 11.5841 7.7432 12.3383 7.63558 13.3474C7.51003 14.5562 7.44426 15.7816 7.49807 16.996C7.59373 19.2195 7.03772 21.2046 5.48926 22.9512C4.70606 23.8384 4.00059 24.7977 3.33696 25.768C2.5717 26.8936 2.5717 28.0858 3.30707 29.2391C3.71959 29.8879 4.20984 30.4978 4.67019 31.1188C5.32186 31.9949 6.04527 32.8322 6.63117 33.7471C7.56982 35.2221 7.50405 36.8745 7.48014 38.5158C7.46818 39.4085 7.4622 40.3068 7.53394 41.1939C7.62362 42.3639 8.16768 43.3343 9.3634 43.8333C10.302 44.227 11.2706 44.6096 12.275 44.8314C15.1447 45.4635 17.3867 46.8276 18.9112 49.2119C19.4732 50.088 20.2146 50.8864 20.9559 51.6461C21.7272 52.4335 22.7495 52.7772 23.8854 52.5111C25.123 52.2283 26.3606 51.9122 27.5503 51.4908C29.8999 50.6646 32.2077 50.6646 34.5453 51.5075C35.5258 51.8623 36.5422 52.134 37.5585 52.4113C39.0771 52.8272 40.3984 52.5 41.4147 51.3578C42.0604 50.6314 42.7121 49.8884 43.2442 49.0899C44.6432 46.9717 46.5803 45.5966 49.1989 44.9977C50.3049 44.7427 51.393 44.3601 52.4453 43.9553C53.7665 43.4452 54.4421 42.4526 54.5318 41.144C54.5916 40.2679 54.6394 39.3863 54.5737 38.5158C54.3704 35.9817 54.9981 33.7194 56.8276 31.7621C57.5271 31.0135 58.119 30.1651 58.6869 29.3223C59.4941 28.1412 59.512 26.8992 58.6929 25.7181C58.0233 24.7478 57.2939 23.8162 56.5346 22.9013C55.3688 21.504 54.5856 19.9847 54.5796 18.177C54.5617 17.6004 54.5677 16.996 54.5677 16.3971ZM22.4446 67.5322C22.5642 67.3437 22.6299 67.2439 22.6897 67.1386C25.1469 62.8801 27.6041 58.616 30.0554 54.3575C30.2706 53.986 30.4739 53.6256 31.0239 53.6312C31.5799 53.6312 31.7653 54.0138 31.9745 54.3797C33.6425 57.2742 35.3106 60.1741 36.9786 63.0686C37.8216 64.5324 38.6646 65.9963 39.5554 67.5378C39.7407 67.2328 39.8842 66.9944 40.0217 66.756C41.1875 64.7376 42.3534 62.7248 43.5072 60.7065C43.7404 60.3017 44.0513 60.0577 44.5595 60.1076C46.5145 60.285 48.4695 60.468 50.4305 60.651C51.2615 60.7286 52.0985 60.7952 53.0312 60.8728C50.6278 56.703 48.2842 52.6331 45.9047 48.5021C45.7014 48.7406 45.54 48.9125 45.4025 49.0899C44.5954 50.1212 43.8301 51.1748 42.9811 52.1784C41.4446 53.986 39.4418 54.6126 37.0444 53.9971C35.9204 53.7088 34.8024 53.3816 33.7143 52.999C31.9327 52.378 30.1809 52.3614 28.3873 52.9658C27.2394 53.3539 26.0736 53.7143 24.8958 54.0082C22.6598 54.5683 20.7527 54.0304 19.2281 52.4057C18.8634 52.0176 18.5226 51.6073 18.1998 51.1859C17.5182 50.3153 16.8606 49.4337 16.1252 48.4689C13.7158 52.6553 11.3662 56.7308 8.97479 60.8784C11.8625 60.6177 14.6126 60.3793 17.3628 60.1187C17.871 60.0688 18.2237 60.2185 18.4569 60.6399C18.6482 60.9948 18.8634 61.3386 19.0607 61.6824C20.1787 63.6009 21.2907 65.5194 22.4446 67.5322Z" stroke="#2776EA" mask="url(#path-1-outside-1_1_40532)"/>
<path d="M11.678 27.4743L11.678 27.4745C11.6233 37.4016 20.292 45.4469 31.0168 45.4862C41.6249 45.5254 50.3332 37.4728 50.3514 27.5207C50.3696 17.6394 41.7443 9.62688 31.1265 9.57641L31.1253 9.82641L31.1265 9.57641C20.418 9.52594 11.7387 17.4828 11.678 27.4743ZM31.0336 11.6844L31.0336 11.6844C40.5831 11.7611 48.2 18.909 48.1236 27.6456V27.6457C48.0531 36.3942 40.2994 43.4547 30.7749 43.3671C21.419 43.2795 13.8 36.0341 13.8998 27.4067C14.0057 18.7152 21.7157 11.6078 31.0336 11.6844Z" fill="#2776EA" stroke="#2776EA" stroke-width="0.5"/>
<path d="M33.5873 28.4046L33.5872 28.4047C32.8736 29.2762 32.1587 30.1471 31.4373 31.026C30.8751 31.7108 30.309 32.4004 29.7364 33.099C29.6969 33.0663 29.6588 33.0352 29.6227 33.0056C29.5655 32.9589 29.5131 32.9161 29.4671 32.8771L25.8349 29.6082L22.2004 26.3371C22.2003 26.337 22.2002 26.337 22.2001 26.3369C21.662 25.8502 20.9397 25.7172 20.4436 26.1916C20.2016 26.42 20.0971 26.7171 20.1452 27.0304C20.1917 27.3332 20.3756 27.6228 20.6513 27.8723L20.6517 27.8727C23.4077 30.3567 26.158 32.8354 28.9203 35.3142C29.2376 35.5993 29.5787 35.7645 29.9381 35.7372C30.2973 35.71 30.6082 35.4957 30.8765 35.171L30.8771 35.1702C32.1854 33.5732 33.4945 31.976 34.8038 30.3786C37.1083 27.5671 39.4135 24.7547 41.7162 21.9402C41.9507 21.6545 42.0846 21.3415 42.0816 21.0355C42.0785 20.7206 41.93 20.4437 41.662 20.2528L41.6615 20.2524C41.3911 20.0608 41.0838 19.9968 40.7743 20.0738C40.4729 20.1488 40.1956 20.3507 39.9554 20.6407L39.9547 20.6415C37.8322 23.2255 35.7097 25.8151 33.5873 28.4046Z" fill="#2776EA" stroke="#2776EA" stroke-width="0.5"/>
</svg>
