<svg width="60" height="55" viewBox="0 0 60 55" fill="none" xmlns="http://www.w3.org/2000/svg">
<path d="M60 9.22581C60 23.3031 60 37.3848 60 51.462C59.9913 51.4976 59.9782 51.5333 59.9738 51.5689C59.7992 53.1276 58.7427 54.4146 57.2628 54.8511C57.0445 54.9134 56.8175 54.9535 56.5949 55.0025C38.8664 55.0025 21.138 55.0025 3.40949 55.0025C3.37456 54.9936 3.33964 54.9802 3.30471 54.9713C1.70693 54.7041 0.654831 53.7867 0.152794 52.2191C0.0829453 51.9964 0.048021 51.7559 0 51.5244C0 35.6613 0 19.7938 0 3.9307C0.00873108 3.89507 0.0218277 3.85944 0.0305588 3.82381C0.292491 2.19386 1.19179 1.12059 2.72846 0.608447C2.93801 0.541646 3.16065 0.506019 3.37456 0.457031C8.07189 0.457031 12.7692 0.457031 17.4665 0.457031C17.4796 0.465938 17.4927 0.479298 17.5058 0.479298C18.0602 0.57282 18.4881 0.871199 18.8286 1.31654C19.8807 2.69265 20.9415 4.06875 21.9892 5.44931C22.1158 5.61409 22.2424 5.67644 22.4476 5.67644C33.5841 5.67198 44.725 5.67198 55.8615 5.67198C56.023 5.67198 56.1845 5.67644 56.346 5.68089C57.9875 5.74324 59.3932 6.85659 59.8428 8.46428C59.9127 8.71367 59.9476 8.97197 60 9.22581ZM1.82043 16.0217C1.82043 16.093 1.82043 16.1464 1.82043 16.2043C1.82043 27.8277 1.82043 39.4512 1.82043 51.079C1.82043 52.2592 2.68917 53.1454 3.84604 53.1454C21.2777 53.1454 38.7093 53.1454 56.1365 53.1454C57.3021 53.1454 58.1665 52.2681 58.1708 51.0879C58.1708 39.4601 58.1708 27.8277 58.1708 16.1999C58.1708 16.142 58.1708 16.0885 58.1708 16.0217C39.3816 16.0217 20.6141 16.0217 1.82043 16.0217ZM1.82043 14.1513C20.6185 14.1513 39.3859 14.1513 58.1708 14.1513C58.1708 14.0845 58.1708 14.031 58.1708 13.9732C58.1708 12.5035 58.1708 11.0294 58.1708 9.55982C58.1708 9.43957 58.1621 9.31488 58.1403 9.19464C57.9613 8.20598 57.158 7.53351 56.1583 7.53351C44.8952 7.53351 33.6278 7.53351 22.3647 7.53351C21.6356 7.53351 21.0594 7.24849 20.6141 6.66064C19.5489 5.26227 18.4793 3.8728 17.4141 2.47888C17.3225 2.35864 17.2264 2.30075 17.0736 2.30075C12.6644 2.3052 8.25087 2.30075 3.84168 2.3052C2.69354 2.3052 1.82916 3.19588 1.82916 4.36713C1.82916 7.56469 1.82916 10.7622 1.82916 13.9642C1.82043 14.0266 1.82043 14.08 1.82043 14.1513Z" fill="#2776EA"/>
<path d="M28.6118 42.5313C28.088 42.6783 27.5816 42.8119 27.0795 42.9722C26.5993 43.1281 26.2239 43.0123 25.8659 42.6427C24.6567 41.3868 23.43 40.1532 22.212 38.9107C21.9195 38.6168 21.8103 38.2783 21.9282 37.8686C22.0766 37.3565 22.212 36.8354 22.3517 36.3188C22.3648 36.2787 22.3735 36.2387 22.391 36.1763C22.1072 36.1273 21.8322 36.0828 21.5571 36.0338C20.0728 35.7844 18.5886 35.5395 17.1043 35.2901C16.7419 35.2277 16.48 35.0184 16.3665 34.6577C16.2486 34.2791 16.349 33.9451 16.6241 33.669C17.5059 32.7694 18.3921 31.8654 19.274 30.9658C20.0772 30.1464 20.8848 29.3314 21.6794 28.5075C21.9806 28.1958 22.3124 28.0889 22.7358 28.1646C23.7443 28.3472 24.7571 28.5031 25.7699 28.6812C25.8965 28.7035 25.9532 28.6678 26.0231 28.5699C27.0839 27.0958 28.3281 25.8043 29.7731 24.7177C31.3403 23.5375 33.0603 22.6602 34.907 22.0456C36.5397 21.4978 38.216 21.1505 39.9273 20.9946C40.8441 20.9144 41.7652 20.8922 42.6864 20.8254C43.1797 20.7897 43.6861 21.2039 43.6599 21.8051C43.6337 22.4776 43.6206 23.1545 43.5769 23.827C43.4983 24.9715 43.3499 26.1071 43.1229 27.2338C42.599 29.8525 41.6736 32.3018 40.1849 34.5152C39.0586 36.1852 37.6834 37.6103 36.0857 38.8083C35.9809 38.8884 35.946 38.9641 35.9678 39.0977C36.1424 40.1577 36.3127 41.222 36.4829 42.2864C36.5353 42.6159 36.4611 42.9099 36.2297 43.1504C34.501 44.9184 32.7678 46.6819 31.0347 48.4455C30.7772 48.7082 30.4585 48.7884 30.1136 48.677C29.7687 48.5657 29.5504 48.3163 29.4893 47.9467C29.3191 46.9269 29.1575 45.907 28.9917 44.8827C28.8738 44.1435 28.7559 43.4042 28.638 42.6694C28.638 42.6249 28.6249 42.5848 28.6118 42.5313ZM36.2603 23.542C35.8237 23.6889 35.3915 23.8225 34.9637 23.9784C32.5932 24.8468 30.5196 26.1917 28.7908 28.0666C28.1753 28.7346 27.599 29.4427 27.1188 30.2265C26.8613 30.6496 26.5731 31.0549 26.3287 31.4869C25.2111 33.4597 24.4384 35.5795 23.8403 37.7706C23.8141 37.8686 23.8359 37.9265 23.9014 37.9933C24.8793 38.9864 25.8528 39.984 26.8263 40.9815C26.9049 41.0617 26.9704 41.0751 27.0752 41.0439C27.73 40.8301 28.3892 40.6386 29.0397 40.416C31.0478 39.7257 32.9425 38.8038 34.6843 37.5613C35.8979 36.6929 36.985 35.6864 37.9236 34.5152C39.1634 32.9698 40.0714 31.2375 40.6957 29.3448C40.8004 29.0241 40.8965 28.699 40.9969 28.3784C38.6177 27.5723 37.0504 25.978 36.2603 23.542ZM24.8313 30.4091C24.792 30.4002 24.7745 30.3913 24.7571 30.3869C24.1372 30.28 23.5173 30.1775 22.8974 30.0707C22.7926 30.0529 22.7227 30.0796 22.6529 30.1553C21.5309 31.3043 20.4046 32.4532 19.2783 33.6022C19.2434 33.6379 19.2085 33.6779 19.1605 33.7314C19.2172 33.7447 19.2565 33.7581 19.2958 33.7626C20.4788 33.963 21.6663 34.1589 22.8493 34.3593C22.9716 34.3816 23.0196 34.3459 23.0632 34.2302C23.526 32.9743 24.0804 31.7585 24.7396 30.5917C24.7658 30.5383 24.7964 30.4804 24.8313 30.4091ZM30.9998 45.8224C31.0391 45.7957 31.0522 45.7868 31.0653 45.7779C32.2265 44.5933 33.3921 43.4087 34.549 42.2196C34.5839 42.184 34.6057 42.1083 34.597 42.0548C34.5403 41.6763 34.4791 41.3022 34.418 40.9236C34.37 40.6342 34.3263 40.3447 34.2783 40.0374C34.2347 40.0597 34.2085 40.0686 34.1866 40.0775C33.0036 40.7811 31.7638 41.3645 30.4803 41.8589C30.3843 41.8945 30.3712 41.9435 30.3886 42.037C30.5327 42.9143 30.6724 43.7961 30.8164 44.6734C30.8732 45.052 30.9343 45.4305 30.9998 45.8224ZM41.4029 26.548C41.6343 25.261 41.7696 23.9962 41.8176 22.7047C40.5429 22.7626 39.3031 22.8873 38.0545 23.1322C38.6395 24.8245 39.744 25.9513 41.4029 26.548Z" fill="#2776EA"/>
<path d="M21.3652 40.3252C23.0591 40.3296 24.4648 41.7058 24.5477 43.4426C24.6263 45.0325 23.6135 46.4041 22.0637 46.8005C20.8676 47.1033 19.6714 47.4017 18.4753 47.6956C17.7287 47.8782 17.1481 47.2903 17.3315 46.5333C17.624 45.2952 17.9208 44.0616 18.2221 42.8236C18.58 41.3317 19.8504 40.3252 21.3652 40.3252ZM19.4444 45.5268C19.4924 45.5179 19.5143 45.5179 19.5361 45.5134C20.252 45.3353 20.9723 45.1661 21.6839 44.979C22.4479 44.7742 22.8888 43.9592 22.6618 43.2021C22.4785 42.5964 21.9328 42.1823 21.3129 42.1912C20.6973 42.2001 20.156 42.6187 19.9901 43.2333C19.8635 43.7098 19.7587 44.1908 19.6409 44.6673C19.5841 44.9478 19.5186 45.2284 19.4444 45.5268Z" fill="#2776EA"/>
<path d="M34.1077 27.1582C35.9718 27.1582 37.4692 28.6768 37.4561 30.5829C37.4474 32.4667 35.9936 33.9675 34.1077 33.9808C32.2611 33.9942 30.7637 32.4489 30.7681 30.5784C30.7724 28.6768 32.2567 27.1582 34.1077 27.1582ZM35.6357 30.5695C35.6357 29.7189 34.9546 29.0153 34.1164 29.0153C33.2826 29.0153 32.5929 29.7145 32.5929 30.5651C32.5929 31.4201 33.2739 32.1149 34.1121 32.1149C34.9546 32.1149 35.6313 31.4246 35.6357 30.5695Z" fill="#2776EA"/>
</svg>
