<svg width="60" height="27" viewBox="0 0 60 27" fill="none" xmlns="http://www.w3.org/2000/svg">
<path d="M49.106 0.258799C43.4109 0.258799 38.7226 4.79297 38.2075 10.5627H32.5623C32.0673 7.12102 29.2016 4.46982 25.7407 4.46982C22.2799 4.46982 19.4134 7.12102 18.9182 10.5627H13.6814C13.1864 7.12102 10.3207 4.46982 6.85985 4.46982C-2.27756 4.82013 -2.2957 18.4066 6.85994 18.7644C10.3207 18.7644 13.1864 16.1132 13.6814 12.6715H18.9182C20.2003 20.7311 31.282 20.7306 32.5623 12.6714C32.5623 12.6715 38.2075 12.6715 38.2075 12.6715C38.7226 18.4412 43.4109 22.9754 49.106 22.9754C63.6224 22.3552 63.6402 0.887303 49.106 0.258799ZM6.85985 16.6555C0.521298 16.448 0.522879 6.78513 6.85996 6.57869C13.197 6.78648 13.1954 16.4487 6.85985 16.6555ZM25.7407 16.6555C19.3937 16.4227 19.397 6.80974 25.7408 6.57868C32.077 6.78609 32.077 16.4485 25.7407 16.6555ZM49.106 20.8665C44.2205 20.8707 40.247 16.687 40.2663 11.5883C40.79 -0.663973 57.4604 -0.634365 57.9472 11.6172C57.9472 16.7173 53.9807 20.8665 49.106 20.8665Z" fill="#2776EA"/>
<path d="M53.6052 19.225L46.597 23.6518L44.9464 20.9225C44.2125 19.7496 42.4431 20.8145 43.1423 22.0141C43.1423 22.014 45.349 25.6633 45.349 25.6633C45.636 26.1597 46.3341 26.3261 46.8143 26.0088C46.8143 26.0088 54.7318 21.0075 54.7318 21.0075C55.8875 20.2506 54.7941 18.5028 53.6052 19.225Z" fill="#2776EA"/>
</svg>
