<svg width="60" height="49" viewBox="0 0 60 49" fill="none" xmlns="http://www.w3.org/2000/svg">
<path d="M48.5597 0.347656C50.1703 1.33269 50.7815 2.97442 50.6315 5.25825C50.5302 6.78566 50.6127 8.3301 50.6127 9.97183C50.0015 9.97183 49.4334 9.97183 48.7585 9.97183C48.7585 8.20849 48.7622 6.43543 48.7566 4.66479C48.7528 3.12765 48.496 2.77012 47.356 2.77012C32.6719 2.76768 17.9858 2.76768 3.30169 2.77012C2.18613 2.77012 1.87114 3.10333 1.87114 4.37536C1.86364 13.7782 1.86927 23.181 1.87302 32.5863C1.87302 32.7396 1.90489 32.8952 1.93676 33.1968C2.31924 33.1968 2.68297 33.1968 3.0467 33.1968C14.9823 33.1968 26.9178 33.2065 38.8534 33.1773C39.774 33.1749 40.5764 33.1749 40.8858 34.5807C40.9495 34.875 41.1595 35.1134 41.3845 35.5341C28.2003 35.5341 15.1116 35.5341 1.89364 35.5341C1.89364 36.9472 1.83177 38.229 1.93301 39.4913C1.96114 39.8513 2.43174 40.2161 2.75234 40.452C2.94358 40.5931 3.24169 40.4934 3.49105 40.4934C17.9577 40.4934 32.4225 40.4934 46.8892 40.4934C48.0273 40.4934 49.1634 40.4934 50.3296 40.4934C49.9022 42.14 49.0153 42.8988 47.5735 42.8988C41.7932 42.9037 36.0129 42.9012 30.2326 42.9037C29.8914 42.9037 29.5502 42.9037 29.1302 42.9037C29.1302 44.1125 29.1302 45.2605 29.1302 46.5811C29.897 46.5811 30.6732 46.4984 31.4307 46.6128C31.8732 46.6809 32.5031 46.9338 32.6513 47.3448C32.79 47.7316 32.4038 48.432 32.2482 48.9963C27.6228 48.9963 22.9993 48.9963 18.374 48.9963C18.2183 48.4369 17.834 47.7389 17.9708 47.3521C18.1171 46.9411 18.7433 46.6784 19.182 46.6103C19.9414 46.4936 20.7176 46.5787 21.4994 46.5787C21.4994 45.2872 21.4994 44.1417 21.4994 42.9061C21.0907 42.9061 20.7532 42.9061 20.4157 42.9061C14.866 42.9061 9.31634 42.8404 3.76854 42.9402C2.02676 42.9669 0.751832 42.3248 0 40.2356C0 27.8314 0 15.4272 0 3.02306C0.455599 1.83129 1.12119 0.909492 2.06238 0.347656C17.5621 0.347656 33.06 0.347656 48.5597 0.347656ZM23.4755 46.4984C24.7205 46.4984 25.9129 46.4984 27.1297 46.4984C27.1297 45.2799 27.1297 44.1368 27.1297 42.9985C25.866 42.9985 24.6736 42.9985 23.4268 42.9985C23.4268 44.0225 23.4249 44.9467 23.4287 45.8734C23.4287 46.0655 23.4549 46.2577 23.4755 46.4984Z" fill="#2776EA"/>
<path d="M59.9962 27.1007C59.4599 27.733 58.8862 28.3192 58.4044 29.0148C58.185 29.331 57.9656 29.9536 58.0631 30.2795C58.6031 32.0915 57.9244 33.2809 57.0095 34.458C56.1658 35.5452 55.2564 36.1581 54.0752 35.5258C53.5222 35.229 53.1828 35.4334 52.9634 36.1168C52.386 37.8996 51.2273 38.0698 49.9374 38.0577C48.7693 38.0455 47.8543 37.6248 47.3594 36.163C47.1156 35.4431 46.7632 35.2339 46.1744 35.5477C45.0289 36.1557 44.1496 35.5428 43.3246 34.497C42.4303 33.3611 41.6859 32.1864 42.2315 30.462C42.5072 29.5912 42.2372 29.1705 41.6897 28.847C40.4148 28.0906 40.306 26.6604 40.3023 25.0844C40.2985 23.574 40.6079 22.3652 41.7159 21.6939C42.2953 21.3437 42.4903 20.9108 42.2297 20.0716C41.6672 18.267 42.5222 17.0995 43.4165 15.9564C44.1871 14.9689 45.0495 14.4338 46.1163 14.9908C46.7857 15.341 47.1325 15.0905 47.4194 14.266C47.9706 12.6827 49.0562 12.5027 50.2486 12.51C51.3904 12.5148 52.371 12.8116 52.8941 14.2684C53.1772 15.0589 53.5072 15.3532 54.1952 14.9908C55.4439 14.3365 56.3251 15.2243 57.1651 16.3018C57.9675 17.3306 58.5544 18.4445 58.11 19.9549C57.8419 20.8621 58.035 21.2804 58.6556 21.7888C59.1993 22.2314 59.5593 23.0511 59.9999 23.7053C59.9962 24.8314 59.9962 25.9648 59.9962 27.1007ZM55.6464 20.2419C55.8395 19.9792 56.012 19.7482 56.1807 19.5122C56.6457 18.8628 56.2182 18.4567 55.8976 18.121C55.5395 17.7465 55.2508 16.6593 54.6565 17.4595C54.0996 18.2086 53.6984 18.0408 53.1434 17.6054C52.7759 17.316 52.3522 17.1044 51.9322 16.9779C51.4729 16.8393 51.1898 16.6325 51.2498 15.9467C51.3417 14.8862 50.7829 14.8935 50.2186 14.93C49.6861 14.964 49.0187 14.6989 49.0355 15.9029C49.0393 16.1947 48.9812 16.6666 48.8368 16.7566C48.0587 17.2527 47.2656 17.7805 46.4313 18.0262C46.1182 18.1186 45.6757 17.4814 45.2257 17.1214C44.8751 17.5519 44.4702 17.9459 44.1777 18.4494C44.0408 18.6853 44.0052 19.3323 44.1252 19.4514C44.7758 20.0935 44.5883 20.687 44.2321 21.4094C44.0014 21.8763 43.8402 22.4333 43.7502 22.9781C43.649 23.5983 43.4577 23.9023 42.944 23.8488C42.0309 23.7515 42.1884 24.6174 42.1753 25.3325C42.1622 26.0475 42.1097 26.7431 42.9309 26.7504C43.1784 26.7529 43.5571 26.9572 43.649 27.2077C44.0146 28.2195 44.2902 29.2872 44.6014 30.3501C43.7727 31.6245 43.8215 32.1839 44.937 33.1203C45.1114 33.2663 45.5595 33.2638 45.6514 33.1057C46.1388 32.2593 46.6057 32.5001 47.1606 32.955C47.4981 33.2298 47.8918 33.4365 48.2818 33.5387C48.8162 33.6822 49.1087 33.9351 49.0562 34.7304C48.9887 35.7471 49.5905 35.6474 50.0873 35.6158C50.5729 35.5866 51.2217 35.9076 51.2592 34.7694C51.2704 34.4313 51.3079 33.8986 51.4654 33.7965C52.2378 33.2906 53.0347 32.775 53.869 32.5318C54.184 32.4393 54.6246 33.0766 55.0708 33.4292C55.2864 33.1811 55.5114 32.9112 55.7458 32.6558C56.3176 32.0356 56.657 31.4227 55.8845 30.6201C55.7683 30.4984 55.7608 30.0436 55.832 29.8101C56.1358 28.8056 56.4864 27.8279 56.8426 26.7772C57.0732 26.7529 57.4407 26.855 57.6075 26.6629C57.855 26.3783 58.1063 25.8797 58.095 25.4857C58.0781 24.936 57.78 23.9169 57.6713 23.934C56.6738 24.075 56.612 23.1605 56.3907 22.3263C56.2126 21.6428 55.9258 21.008 55.6464 20.2419Z" fill="#2776EA"/>
<path d="M13.3951 17.98C15.6206 19.9087 17.7204 21.728 19.8203 23.5473C20.0547 23.7491 20.2853 23.9559 20.5215 24.1529C21.0503 24.598 21.234 25.2425 20.904 25.9186C20.559 26.6215 20.0116 26.5851 19.5035 26.157C18.6129 25.4103 17.7336 24.6369 16.8505 23.8732C15.0843 22.3458 13.3163 20.8256 11.5558 19.2861C10.5396 18.3983 10.5377 17.5641 11.552 16.6836C14.1169 14.4509 16.6911 12.2352 19.2616 10.0097C19.8185 9.52812 20.4334 9.12925 20.8928 10.0413C21.3352 10.9145 20.8909 11.5225 20.3078 12.0211C18.0411 13.9571 15.7874 15.9151 13.3951 17.98Z" fill="#2776EA"/>
<path d="M37.2201 17.9758C35.1127 16.1492 33.0953 14.4029 31.0798 12.6566C30.7423 12.3647 30.3973 12.085 30.0692 11.7761C29.5724 11.3091 29.3193 10.6087 29.7749 10.0395C30.0336 9.71604 30.7198 9.61146 31.0573 9.82306C31.8916 10.3508 32.6359 11.117 33.414 11.7883C35.3114 13.4227 37.2144 15.0474 39.1025 16.7013C40.0661 17.5453 40.0774 18.399 39.1175 19.2381C36.5057 21.5243 33.879 23.7814 31.2541 26.0433C30.7104 26.5127 30.1105 26.7341 29.7074 25.8755C29.3118 25.034 29.7261 24.4527 30.2755 23.9833C32.1766 22.3561 34.0702 20.7144 35.9639 19.0775C36.3501 18.7443 36.7326 18.4038 37.2201 17.9758Z" fill="#2776EA"/>
<path d="M22.4434 27.2554C22.6158 26.4285 22.7396 25.8447 22.8596 25.261C23.9676 19.8737 25.0757 14.4888 26.1856 9.10155C26.1931 9.06264 26.2063 9.02372 26.2119 8.98481C26.33 8.11165 26.6787 7.47442 27.4081 7.72493C28.1205 7.97058 28.1862 8.7051 28.0024 9.58069C27.1175 13.7884 26.2625 18.0082 25.3963 22.2232C25.0513 23.9014 24.7607 25.604 24.3183 27.2384C24.1964 27.6883 23.6358 28.1407 23.2439 28.1967C22.9908 28.2307 22.6758 27.5473 22.4434 27.2554Z" fill="#2776EA"/>
<path d="M25.287 39.2512C24.1977 39.2512 23.1065 39.2366 22.0172 39.2585C21.3366 39.2707 20.6822 39.1369 20.6654 38.0716C20.6485 37.0039 21.2822 36.8361 21.9759 36.8409C24.1864 36.8604 26.3988 36.8555 28.6093 36.8434C29.2824 36.8409 29.9405 36.9431 29.9555 38.0278C29.9705 39.1077 29.3405 39.2682 28.6487 39.2561C27.5294 39.2342 26.4082 39.2512 25.287 39.2512Z" fill="#2776EA"/>
<path d="M7.65308 36.2422C8.02993 36.9183 8.42928 37.3221 8.39928 37.6626C8.36554 38.0298 7.96243 38.5114 7.6587 38.6014C7.48059 38.6549 7.00436 38.059 6.98936 37.7307C6.97249 37.3513 7.31747 36.9451 7.65308 36.2422Z" fill="#2776EA"/>
<path d="M5.6534 37.6514C5.12093 38.1354 4.79658 38.6535 4.54347 38.6C4.25661 38.5416 3.88538 38.0041 3.83476 37.6125C3.80101 37.3571 4.26411 36.7539 4.52097 36.7369C4.80783 36.7175 5.11343 37.1869 5.6534 37.6514Z" fill="#2776EA"/>
<path d="M50.1885 30.1017C48.083 30.1162 46.4368 28.0075 46.4312 25.2884C46.4237 22.5692 48.0511 20.4605 50.166 20.4532C52.249 20.4434 53.8914 22.6008 53.8764 25.3224C53.8614 27.9881 52.2396 30.0895 50.1885 30.1017ZM52.039 25.2348C52.0259 23.9531 51.169 22.8391 50.1922 22.8343C49.1385 22.8294 48.2592 23.9312 48.2611 25.2519C48.263 26.5774 49.1404 27.7157 50.1603 27.723C51.1822 27.7303 52.054 26.575 52.039 25.2348Z" fill="#2776EA"/>
</svg>
