<svg width="119" height="35" viewBox="0 0 119 35" fill="none" xmlns="http://www.w3.org/2000/svg">
<path d="M0 34.8838V27.2056H2.78891C3.39763 27.2056 3.90192 27.3143 4.30179 27.5318C4.70167 27.7492 5.00093 28.0467 5.19959 28.4241C5.39826 28.799 5.49759 29.2214 5.49759 29.6913C5.49759 30.1637 5.39698 30.5886 5.19577 30.966C4.99711 31.3409 4.69657 31.6383 4.29415 31.8583C3.89428 32.0757 3.39126 32.1845 2.78509 32.1845H0.867236V31.2022H2.67812C3.0627 31.2022 3.37471 31.1372 3.61412 31.0072C3.85353 30.8748 4.02927 30.6948 4.14134 30.4674C4.2534 30.2399 4.30944 29.9812 4.30944 29.6913C4.30944 29.4014 4.2534 29.1439 4.14134 28.919C4.02927 28.694 3.85226 28.5178 3.6103 28.3903C3.37089 28.2629 3.05506 28.1991 2.66283 28.1991H1.18051V34.8838H0Z" fill="#7A7A7A"/>
<path d="M20.2377 34.8838V29.1252H21.3418V30.04H21.403C21.5099 29.73 21.6984 29.4863 21.9684 29.3089C22.2409 29.1289 22.5491 29.0389 22.8929 29.0389C22.9642 29.0389 23.0483 29.0414 23.1451 29.0464C23.2444 29.0514 23.3221 29.0577 23.3781 29.0652V30.1374C23.3323 30.1249 23.2508 30.1112 23.1336 30.0962C23.0164 30.0787 22.8993 30.07 22.7821 30.07C22.5122 30.07 22.2715 30.1262 22.0601 30.2387C21.8512 30.3486 21.6857 30.5024 21.5634 30.6998C21.4412 30.8948 21.38 31.1172 21.38 31.3672V34.8838H20.2377Z" fill="#7A7A7A"/>
<path d="M40.0762 35.0001C39.5261 35.0001 39.046 34.8763 38.6359 34.6289C38.2259 34.3815 37.9075 34.0353 37.6808 33.5904C37.4541 33.1455 37.3408 32.6256 37.3408 32.0308C37.3408 31.4334 37.4541 30.911 37.6808 30.4636C37.9075 30.0162 38.2259 29.6688 38.6359 29.4214C39.046 29.1739 39.5261 29.0502 40.0762 29.0502C40.6264 29.0502 41.1065 29.1739 41.5165 29.4214C41.9266 29.6688 42.2449 30.0162 42.4716 30.4636C42.6983 30.911 42.8116 31.4334 42.8116 32.0308C42.8116 32.6256 42.6983 33.1455 42.4716 33.5904C42.2449 34.0353 41.9266 34.3815 41.5165 34.6289C41.1065 34.8763 40.6264 35.0001 40.0762 35.0001ZM40.08 34.059C40.4366 34.059 40.7321 33.9666 40.9664 33.7816C41.2007 33.5966 41.3739 33.3504 41.486 33.043C41.6006 32.7356 41.6579 32.3969 41.6579 32.027C41.6579 31.6596 41.6006 31.3222 41.486 31.0147C41.3739 30.7048 41.2007 30.4561 40.9664 30.2687C40.7321 30.0812 40.4366 29.9875 40.08 29.9875C39.7209 29.9875 39.4229 30.0812 39.1861 30.2687C38.9517 30.4561 38.7773 30.7048 38.6627 31.0147C38.5506 31.3222 38.4946 31.6596 38.4946 32.027C38.4946 32.3969 38.5506 32.7356 38.6627 33.043C38.7773 33.3504 38.9517 33.5966 39.1861 33.7816C39.4229 33.9666 39.7209 34.059 40.08 34.059Z" fill="#7A7A7A"/>
<path d="M60.2738 29.1252V30.025H57.0685V29.1252H60.2738ZM57.9281 27.7455H59.0704V33.193C59.0704 33.4104 59.1035 33.5741 59.1697 33.6841C59.236 33.7916 59.3213 33.8653 59.4257 33.9053C59.5327 33.9428 59.6486 33.9616 59.7734 33.9616C59.865 33.9616 59.9453 33.9553 60.014 33.9428C60.0828 33.9303 60.1363 33.9203 60.1745 33.9128L60.3808 34.8389C60.3146 34.8638 60.2203 34.8888 60.0981 34.9138C59.9758 34.9413 59.823 34.9563 59.6396 34.9588C59.3391 34.9638 59.0589 34.9113 58.7991 34.8014C58.5394 34.6914 58.3292 34.5214 58.1688 34.2915C58.0083 34.0615 57.9281 33.7728 57.9281 33.4254V27.7455Z" fill="#7A7A7A"/>
<path d="M74.9853 34.8838V29.1252H76.1276V34.8838H74.9853ZM75.5622 28.2366C75.3635 28.2366 75.1929 28.1716 75.0503 28.0417C74.9102 27.9092 74.8401 27.7517 74.8401 27.5693C74.8401 27.3843 74.9102 27.2269 75.0503 27.0969C75.1929 26.9644 75.3635 26.8982 75.5622 26.8982C75.7609 26.8982 75.9302 26.9644 76.0703 27.0969C76.213 27.2269 76.2843 27.3843 76.2843 27.5693C76.2843 27.7517 76.213 27.9092 76.0703 28.0417C75.9302 28.1716 75.7609 28.2366 75.5622 28.2366Z" fill="#7A7A7A"/>
<path d="M94.8295 32.4956V29.1252H95.9757V34.8838H94.8525V33.8866H94.7913C94.6563 34.194 94.4399 34.4502 94.1419 34.6551C93.8464 34.8576 93.4784 34.9588 93.0378 34.9588C92.6608 34.9588 92.3272 34.8776 92.0368 34.7151C91.749 34.5502 91.5223 34.3065 91.3568 33.984C91.1938 33.6616 91.1123 33.263 91.1123 32.7881V29.1252H92.2546V32.6531C92.2546 33.0455 92.3654 33.3579 92.587 33.5904C92.8085 33.8228 93.0963 33.9391 93.4504 33.9391C93.6643 33.9391 93.877 33.8866 94.0884 33.7816C94.3023 33.6766 94.4793 33.5179 94.6194 33.3055C94.762 33.093 94.8321 32.8231 94.8295 32.4956Z" fill="#7A7A7A"/>
<path d="M110.958 34.8838V29.1252H112.055V30.0625H112.127C112.25 29.745 112.45 29.4976 112.727 29.3201C113.005 29.1402 113.337 29.0502 113.724 29.0502C114.117 29.0502 114.445 29.1402 114.71 29.3201C114.977 29.5001 115.175 29.7475 115.302 30.0625H115.363C115.503 29.755 115.726 29.5101 116.032 29.3276C116.338 29.1427 116.702 29.0502 117.125 29.0502C117.657 29.0502 118.091 29.2139 118.427 29.5413C118.766 29.8688 118.935 30.3624 118.935 31.0222V34.8838H117.793V31.1272C117.793 30.7373 117.685 30.4549 117.468 30.2799C117.252 30.1049 116.993 30.0175 116.693 30.0175C116.321 30.0175 116.032 30.1299 115.826 30.3549C115.619 30.5773 115.516 30.8635 115.516 31.2134V34.8838H114.378V31.056C114.378 30.7436 114.278 30.4924 114.08 30.3024C113.881 30.1124 113.623 30.0175 113.304 30.0175C113.088 30.0175 112.888 30.0737 112.704 30.1862C112.523 30.2962 112.377 30.4499 112.265 30.6473C112.155 30.8448 112.101 31.0735 112.101 31.3334V34.8838H110.958Z" fill="#7A7A7A"/>
<path d="M58.808 0.139893V23.0062H0V0.139893H58.808ZM26.3358 18.0225V10.3577C26.5738 10.4628 26.7807 10.6275 26.9364 10.8359C29.1165 13.1128 31.2986 15.3898 33.4826 17.6667C33.6391 17.829 33.8441 18.0567 34.0319 18.0595C35.2785 18.0965 36.5252 18.0794 37.7661 18.0794V5.08373H34.1088V12.8197C33.8723 12.7108 33.6654 12.5468 33.5054 12.3415C31.365 10.0646 29.2237 7.78287 27.0815 5.49643C26.9107 5.31427 26.6859 5.06095 26.481 5.05241C25.2116 5.01257 23.9422 5.0325 22.65 5.0325V18.0225H26.3358ZM12.9075 18.0595C14.5924 18.0595 16.2774 18.0937 17.9595 18.0595C19.6416 18.0254 20.5837 17.0036 20.5865 15.3585C20.5865 12.9392 20.5125 10.5199 20.6121 8.10353C20.6975 6.00589 19.4224 5.10365 17.8285 5.08088C14.4843 5.03249 11.14 5.02396 7.79856 5.10365C6.17054 5.14065 5.36792 6.11405 5.36507 7.73353C5.36507 10.2249 5.36507 12.7153 5.36507 15.2048C5.36507 17.1829 6.17339 18.0367 8.14011 18.0709C9.73113 18.0823 11.3193 18.0595 12.9075 18.0595ZM39.878 5.0695V18.0111H53.3376V15.0682H43.578V13.0616H48.7012V10.0731H43.578V8.03238H53.3177V5.0695H39.878Z" fill="#7A7A7A"/>
<path d="M118.866 17.732V22.9861C118.641 22.9861 118.416 23.0231 118.191 23.0231H95.7062C93.896 23.0231 92.1399 21.3894 92.1114 19.5763C92.0773 17.2539 92.083 14.9285 92.1769 12.6089C92.2623 10.4486 93.6256 9.10236 95.7631 8.92589C96.5885 8.85758 97.4224 8.86327 98.2507 8.86327C102.636 8.86327 107.023 8.86327 111.411 8.86327C112.379 8.86327 112.399 8.83766 112.399 7.85572C112.399 7.33487 112.399 6.81401 112.399 6.29032C112.399 5.45923 112.302 5.36246 111.443 5.35961C109.023 5.35961 106.604 5.35961 104.185 5.35961H92.1399V0.037232H92.934C100.286 0.037232 107.637 0.0941545 114.989 0.000230142C116.981 -0.0253856 119.045 2.09218 118.931 3.93367C118.803 6.037 118.971 8.15742 118.849 10.2608C118.698 12.8906 117.229 14.1743 114.579 14.1771C109.646 14.1771 104.712 14.1771 99.7791 14.1771C98.6691 14.1771 98.6406 14.2084 98.6406 15.3497C98.6406 15.919 98.6406 16.4882 98.6406 17.0575C98.6246 17.1457 98.6296 17.2365 98.6553 17.3224C98.6811 17.4083 98.7267 17.4869 98.7886 17.5519C98.8505 17.6168 98.9268 17.6662 99.0114 17.696C99.096 17.7258 99.1864 17.7352 99.2753 17.7235C99.4888 17.7235 99.7022 17.7235 99.9157 17.7235H118.857L118.866 17.732Z" fill="#7A7A7A"/>
<path d="M61.7935 0.0827637H68.2629V8.90596H82.0669V0.0827637H88.5761V22.9861H82.1124V14.2767H68.2856V22.9775H61.7935V0.0827637Z" fill="#7A7A7A"/>
<path d="M9.07666 15.0195V8.11182H16.8468V15.0195H9.07666Z" fill="#7A7A7A"/>
</svg>
