<svg width="239" height="138" viewBox="0 0 239 138" fill="none" xmlns="http://www.w3.org/2000/svg">
<g filter="url(#filter0_d_261_595551)">
<path d="M27 53C27 37.9151 27 30.3726 31.6863 25.6863C36.3726 21 43.9151 21 59 21H179.502C194.587 21 202.13 21 206.816 25.6863C211.502 30.3726 211.502 37.9151 211.502 53V71.3399C211.502 86.4248 211.502 93.9673 206.816 98.6536C202.13 103.34 194.587 103.34 179.502 103.34H59C43.915 103.34 36.3726 103.34 31.6863 98.6536C27 93.9673 27 86.4248 27 71.3399V53Z" fill="white"/>
<path d="M27 21H211.502H27ZM211.502 87.3399C211.502 96.7287 203.891 104.34 194.502 104.34H44C34.6112 104.34 27 96.7287 27 87.3399C27 95.6241 34.1634 102.34 43 102.34H195.502C204.339 102.34 211.502 95.6241 211.502 87.3399ZM27 103.34V21V103.34ZM211.502 21V103.34V21Z" fill="#0274BA"/>
</g>
<g clip-path="url(#clip0_261_595551)">
<path d="M100.442 58.1596C100.442 53.407 99.0864 50.9671 96.3752 50.8337C95.2963 50.7827 94.2435 50.9544 93.2188 51.3522C92.401 51.6447 91.8506 51.9345 91.561 52.2272V63.571C93.2952 64.6591 94.835 65.165 96.1781 65.0854C99.0192 64.8971 100.442 62.591 100.442 58.1596ZM103.786 58.3567C103.786 60.7712 103.22 62.7754 102.08 64.369C100.811 66.1728 99.0512 67.1017 96.8016 67.1526C95.1057 67.2064 93.3585 66.6754 91.5607 65.5619V75.8721L88.6523 74.8349V51.9501C89.1296 51.365 89.744 50.8624 90.4883 50.4358C92.2195 49.4273 94.3225 48.9091 96.7983 48.8836L96.8394 48.9247C99.1021 48.8963 100.845 49.8252 102.071 51.7083C103.213 53.4358 103.786 55.6498 103.786 58.3567ZM121.56 65.1232C121.56 68.3618 121.236 70.6042 120.587 71.8513C119.935 73.098 118.693 74.0937 116.861 74.8352C115.375 75.4204 113.768 75.7386 112.043 75.7928L111.562 73.9606C113.316 73.7223 114.55 73.4834 115.266 73.2448C116.676 72.7677 117.643 72.0363 118.175 71.0562C118.601 70.2579 118.811 68.7341 118.811 66.479V65.7218C116.822 66.6255 114.738 67.0739 112.559 67.0739C111.127 67.0739 109.864 66.6255 108.775 65.7218C107.553 64.7388 106.942 63.4921 106.942 61.981V49.8794L109.851 48.8836V61.0639C109.851 62.3648 110.271 63.3671 111.111 64.0701C111.951 64.7731 113.039 65.1105 114.372 65.0847C115.705 65.056 117.134 64.5407 118.652 63.5322V49.3223H121.56L121.56 65.1232ZM132.913 66.9936C132.595 67.0205 132.275 67.0343 131.956 67.0348C130.311 67.0348 129.028 66.6438 128.112 65.8579C127.199 65.0723 126.741 63.9878 126.741 62.6037V51.1515H124.749V49.3226H126.741V44.465L129.646 43.431V49.3226H132.913V51.1515H129.646V62.5241C129.646 63.6154 129.938 64.3883 130.523 64.8403C131.026 65.2123 131.825 65.4255 132.913 65.4796V66.9936H132.913ZM150.523 66.7551H147.614V55.532C147.614 54.3901 147.347 53.407 146.816 52.5866C146.202 51.6574 145.349 51.193 144.254 51.193C142.921 51.193 141.254 51.896 139.252 53.302V66.7551H136.344V39.9288L139.252 39.0127V51.2312C141.11 49.879 143.141 49.2015 145.346 49.2015C146.886 49.2015 148.133 49.7201 149.088 50.754C150.046 51.7876 150.523 53.0761 150.523 54.6159L150.523 66.7551ZM165.98 57.7017C165.98 55.8757 165.634 54.3679 164.943 53.175C164.122 51.7214 162.846 50.9544 161.122 50.8751C157.933 51.0595 156.342 53.3434 156.342 57.7209C156.342 59.7281 156.673 61.4046 157.341 62.7502C158.194 64.465 159.473 65.3112 161.179 65.2825C164.38 65.2567 165.98 62.731 165.98 57.7017ZM169.166 57.7206C169.166 60.3198 168.501 62.4829 167.174 64.2101C165.713 66.1444 163.696 67.1144 161.122 67.1144C158.57 67.1144 156.581 66.1441 155.146 64.2101C153.844 62.4829 153.195 60.3198 153.195 57.7206C153.195 55.2778 153.898 53.2226 155.305 51.5494C156.791 49.7743 158.744 48.8836 161.16 48.8836C163.575 48.8836 165.541 49.7743 167.056 51.5494C168.462 53.2226 169.166 55.2778 169.166 57.7206ZM185.839 66.7551H182.931V54.8959C182.931 53.595 182.539 52.58 181.757 51.8483C180.974 51.1199 179.93 50.7667 178.629 50.7951C177.248 50.8206 175.933 51.2723 174.686 52.1473V66.7551H171.778V51.7879C173.452 50.5699 174.992 49.7743 176.398 49.4022C177.725 49.0556 178.896 48.8836 179.905 48.8836C180.595 48.8836 181.244 48.9502 181.855 49.084C182.997 49.348 183.927 49.8379 184.642 50.5569C185.441 51.3522 185.839 52.3062 185.839 53.423V66.7551Z" fill="#646464"/>
<path d="M59.9283 40.0365C58.4319 40.0433 57.003 40.1709 55.7458 40.3935C52.0419 41.0479 51.3694 42.417 51.3694 44.9424V48.2775H60.1222V49.3891H48.0843C45.5406 49.3891 43.3129 50.9178 42.6162 53.8257C41.8125 57.1589 41.7769 59.2388 42.6162 62.7192C43.2384 65.3099 44.7244 67.1558 47.2682 67.1558H50.2777V63.1578C50.2777 60.2695 52.7774 57.7219 55.7458 57.7219H64.4885C66.9222 57.7219 68.865 55.7186 68.865 53.2751V44.9421C68.865 42.5707 66.8638 40.7891 64.4885 40.3932C62.9846 40.1432 61.4248 40.0293 59.9283 40.0365ZM55.1948 42.7185C56.099 42.7185 56.8371 43.4688 56.8371 44.3911C56.8371 45.3102 56.0987 46.0537 55.1948 46.0537C54.2875 46.0537 53.5524 45.3105 53.5524 44.3911C53.5524 43.4688 54.2875 42.7185 55.1948 42.7185Z" fill="url(#paint0_linear_261_595551)"/>
<path d="M69.9564 49.3887V53.2744C69.9564 56.2871 67.4015 58.8226 64.4883 58.8226H55.7456C53.3507 58.8226 51.3691 60.8715 51.3691 63.2693V71.6018C51.3691 73.9735 53.4317 75.3683 55.7456 76.0485C58.5162 76.8631 61.1732 77.0103 64.4883 76.0485C66.6918 75.4108 68.8647 74.1269 68.8647 71.6018V68.267H60.122V67.1554H73.2411C75.7852 67.1554 76.7329 65.3812 77.6176 62.7187C78.5316 59.9779 78.4928 57.3415 77.6176 53.8253C76.9888 51.2937 75.7881 49.3887 73.2411 49.3887H69.9564ZM65.039 70.4902C65.9462 70.4902 66.6814 71.2333 66.6814 72.1527C66.6814 73.075 65.9462 73.8253 65.039 73.8253C64.1347 73.8253 63.3966 73.075 63.3966 72.1527C63.3966 71.2336 64.1351 70.4902 65.039 70.4902Z" fill="url(#paint1_linear_261_595551)"/>
<path d="M191.503 46.7306H192.013V43.5335H193.221V43.1523H190.295V43.5335H191.503L191.503 46.7306ZM193.673 46.7306H194.109V43.8106L195.054 46.7303H195.539L196.524 43.8204V46.7306H197V43.1527H196.371L195.294 46.2182L194.376 43.1527H193.673V46.7306Z" fill="#646464"/>
<path opacity="0.444" d="M71.952 81.7136C71.952 82.9694 66.7004 83.9874 60.222 83.9874C53.7438 83.9874 48.4922 82.9694 48.4922 81.7136C48.4922 80.4577 53.7438 79.4395 60.222 79.4395C66.7004 79.4395 71.952 80.4577 71.952 81.7136Z" fill="url(#paint2_radial_261_595551)"/>
</g>
<defs>
<filter id="filter0_d_261_595551" x="0.1" y="0.1" width="238.302" height="137.14" filterUnits="userSpaceOnUse" color-interpolation-filters="sRGB">
<feFlood flood-opacity="0" result="BackgroundImageFix"/>
<feColorMatrix in="SourceAlpha" type="matrix" values="0 0 0 0 0 0 0 0 0 0 0 0 0 0 0 0 0 0 127 0" result="hardAlpha"/>
<feOffset dy="6"/>
<feGaussianBlur stdDeviation="13.45"/>
<feComposite in2="hardAlpha" operator="out"/>
<feColorMatrix type="matrix" values="0 0 0 0 0.546429 0 0 0 0 0.546429 0 0 0 0 0.546429 0 0 0 0.19 0"/>
<feBlend mode="normal" in2="BackgroundImageFix" result="effect1_dropShadow_261_595551"/>
<feBlend mode="normal" in="SourceGraphic" in2="effect1_dropShadow_261_595551" result="shape"/>
</filter>
<linearGradient id="paint0_linear_261_595551" x1="41.1367" y1="41.0779" x2="61.3162" y2="58.276" gradientUnits="userSpaceOnUse">
<stop stop-color="#5A9FD4"/>
<stop offset="1" stop-color="#306998"/>
</linearGradient>
<linearGradient id="paint1_linear_261_595551" x1="68.8941" y1="68.9885" x2="61.6551" y2="58.8428" gradientUnits="userSpaceOnUse">
<stop stop-color="#FFD43B"/>
<stop offset="1" stop-color="#FFE873"/>
</linearGradient>
<radialGradient id="paint2_radial_261_595551" cx="0" cy="0" r="1" gradientUnits="userSpaceOnUse" gradientTransform="translate(60.2182 81.6613) rotate(-90) scale(2.27346 9.99772)">
<stop stop-color="#B8B8B8" stop-opacity="0.498"/>
<stop offset="1" stop-color="#7F7F7F" stop-opacity="0"/>
</radialGradient>
<clipPath id="clip0_261_595551">
<rect width="155" height="45" fill="white" transform="translate(42 39)"/>
</clipPath>
</defs>
</svg>
