<svg width="290" height="138" viewBox="0 0 290 138" fill="none" xmlns="http://www.w3.org/2000/svg">
<g filter="url(#filter0_d_800_737264)">
<path d="M27 53C27 37.9151 27 30.3726 31.6863 25.6863C36.3726 21 43.9151 21 59 21H230.2C245.285 21 252.827 21 257.514 25.6863C262.2 30.3726 262.2 37.9151 262.2 53V71.3399C262.2 86.4249 262.2 93.9673 257.514 98.6536C252.827 103.34 245.285 103.34 230.2 103.34H59C43.915 103.34 36.3726 103.34 31.6863 98.6536C27 93.9673 27 86.4249 27 71.3399V53Z" fill="white"/>
<path d="M27 21H262.2H27ZM262.2 87.3399C262.2 96.7288 254.589 104.34 245.2 104.34H44C34.6112 104.34 27 96.7288 27 87.3399C27 95.6242 34.1634 102.34 43 102.34H246.2C255.037 102.34 262.2 95.6242 262.2 87.3399ZM27 103.34V21V103.34ZM262.2 21V103.34V21Z" fill="#0274BA"/>
</g>
<path d="M126.672 62.3749C126.672 57.9278 125.404 55.6447 122.868 55.5198C121.858 55.4721 120.874 55.6328 119.915 56.005C119.15 56.2787 118.635 56.5498 118.364 56.8238V67.4386C119.986 68.4567 121.427 68.9301 122.683 68.8556C125.341 68.6794 126.672 66.5215 126.672 62.3749ZM129.8 62.5593C129.8 64.8186 129.271 66.694 128.205 68.1852C127.017 69.8731 125.371 70.7423 123.267 70.7899C121.68 70.8403 120.046 70.3434 118.364 69.3014V78.9491L115.643 77.9785V56.5645C116.09 56.0169 116.664 55.5466 117.361 55.1475C118.98 54.2038 120.947 53.7189 123.263 53.695L123.302 53.7335C125.419 53.707 127.049 54.5761 128.196 56.3382C129.264 57.9546 129.8 60.0264 129.8 62.5593ZM146.428 68.891C146.428 71.9214 146.124 74.0197 145.517 75.1866C144.907 76.3532 143.746 77.285 142.032 77.9788C140.641 78.5264 139.138 78.8242 137.525 78.8748L137.075 77.1604C138.715 76.9374 139.87 76.7139 140.54 76.4907C141.859 76.0442 142.764 75.3598 143.261 74.4427C143.66 73.6957 143.856 72.2698 143.856 70.1596V69.4511C141.996 70.2967 140.046 70.7163 138.007 70.7163C136.667 70.7163 135.486 70.2967 134.468 69.4511C133.325 68.5313 132.753 67.3647 132.753 65.9507V54.6268L135.474 53.695V65.0926C135.474 66.3098 135.867 67.2477 136.652 67.9055C137.438 68.5633 138.456 68.8791 139.704 68.855C140.951 68.8281 142.287 68.3459 143.707 67.4022V54.1055H146.428L146.428 68.891ZM157.049 70.6412C156.751 70.6664 156.452 70.6792 156.153 70.6797C154.614 70.6797 153.414 70.3138 152.557 69.5784C151.702 68.8434 151.274 67.8285 151.274 66.5334V55.8172H149.41V54.1058H151.274V49.5604L153.992 48.5929V54.1058H157.049V55.8172H153.992V66.4589C153.992 67.4801 154.265 68.2033 154.813 68.6262C155.283 68.9744 156.03 69.1738 157.048 69.2245V70.6412H157.049ZM173.522 70.418H170.801V59.9162C170.801 58.8476 170.551 57.9278 170.054 57.16C169.48 56.2906 168.682 55.856 167.658 55.856C166.41 55.856 164.851 56.5138 162.978 57.8294V70.418H160.258V45.3157L162.978 44.4585V55.8917C164.717 54.6265 166.616 53.9925 168.679 53.9925C170.12 53.9925 171.286 54.4778 172.18 55.4452C173.076 56.4124 173.522 57.6181 173.522 59.0589L173.522 70.418ZM187.982 61.9464C187.982 60.2377 187.658 58.8268 187.012 57.7106C186.244 56.3504 185.05 55.6328 183.437 55.5585C180.454 55.7311 178.966 57.8682 178.966 61.9644C178.966 63.8426 179.275 65.4114 179.9 66.6705C180.698 68.275 181.895 69.0669 183.491 69.04C186.485 69.0159 187.982 66.6525 187.982 61.9464ZM190.962 61.9641C190.962 64.3963 190.34 66.4204 189.098 68.0365C187.732 69.8466 185.845 70.7542 183.437 70.7542C181.05 70.7542 179.189 69.8463 177.847 68.0365C176.629 66.4204 176.022 64.3963 176.022 61.9641C176.022 59.6783 176.679 57.7552 177.995 56.1895C179.386 54.5285 181.213 53.695 183.473 53.695C185.732 53.695 187.571 54.5285 188.988 56.1895C190.304 57.7552 190.962 59.6783 190.962 61.9641ZM206.56 70.418H203.839V59.321C203.839 58.1037 203.473 57.1539 202.741 56.4692C202.008 55.7876 201.032 55.4572 199.814 55.4837C198.523 55.5075 197.293 55.9302 196.126 56.749V70.418H193.406V56.4127C194.971 55.273 196.412 54.5285 197.728 54.1803C198.969 53.856 200.064 53.695 201.008 53.695C201.654 53.695 202.261 53.7573 202.833 53.8826C203.901 54.1296 204.771 54.588 205.44 55.2608C206.188 56.005 206.56 56.8977 206.56 57.9427V70.418Z" fill="#646464"/>
<path d="M88.7717 45.4161C87.3717 45.4225 86.035 45.5419 84.859 45.7502C81.394 46.3625 80.7649 47.6436 80.7649 50.0067V53.1275H88.9531V54.1677H77.6918C75.3121 54.1677 73.2282 55.5981 72.5765 58.3191C71.8246 61.4381 71.7913 63.3844 72.5765 66.6411C73.1585 69.0653 74.5487 70.7925 76.9283 70.7925H79.7437V67.0515C79.7437 64.3488 82.0821 61.9649 84.859 61.9649H93.0377C95.3144 61.9649 97.1317 60.0904 97.1317 57.804V50.0064C97.1317 47.7874 95.2597 46.1203 93.0377 45.7499C91.6307 45.5159 90.1716 45.4094 88.7717 45.4161ZM84.3435 47.9258C85.1894 47.9258 85.8799 48.6279 85.8799 49.4909C85.8799 50.3509 85.1891 51.0466 84.3435 51.0466C83.4948 51.0466 82.8071 50.3512 82.8071 49.4909C82.8071 48.6279 83.4948 47.9258 84.3435 47.9258Z" fill="url(#paint0_linear_800_737264)"/>
<path d="M98.1532 54.1675V57.8035C98.1532 60.6225 95.7632 62.9951 93.0379 62.9951H84.8592C82.6189 62.9951 80.7651 64.9124 80.7651 67.1561V74.953C80.7651 77.1723 82.6946 78.4775 84.8592 79.114C87.4511 79.8762 89.9366 80.014 93.0379 79.114C95.0993 78.5172 97.132 77.3158 97.132 74.953V71.8325H88.9533V70.7924H101.226C103.606 70.7924 104.492 69.1323 105.32 66.6409C106.175 64.0762 106.139 61.6093 105.32 58.319C104.732 55.95 103.609 54.1675 101.226 54.1675H98.1532ZM93.5531 73.9128C94.4018 73.9128 95.0895 74.6082 95.0895 75.4685C95.0895 76.3315 94.4018 77.0336 93.5531 77.0336C92.7072 77.0336 92.0167 76.3315 92.0167 75.4685C92.0167 74.6085 92.7075 73.9128 93.5531 73.9128Z" fill="url(#paint1_linear_800_737264)"/>
<path d="M211.858 51.6801H212.335V48.6885H213.464V48.3318H210.728V48.6885H211.857L211.858 51.6801ZM213.888 51.6801H214.295V48.9478L215.18 51.6798H215.633L216.555 48.9569V51.6801H217V48.3321H216.411L215.404 51.2006L214.545 48.3321H213.888V51.6801Z" fill="#646464"/>
<defs>
<filter id="filter0_d_800_737264" x="0.1" y="0.1" width="289" height="137.14" filterUnits="userSpaceOnUse" color-interpolation-filters="sRGB">
<feFlood flood-opacity="0" result="BackgroundImageFix"/>
<feColorMatrix in="SourceAlpha" type="matrix" values="0 0 0 0 0 0 0 0 0 0 0 0 0 0 0 0 0 0 127 0" result="hardAlpha"/>
<feOffset dy="6"/>
<feGaussianBlur stdDeviation="13.45"/>
<feComposite in2="hardAlpha" operator="out"/>
<feColorMatrix type="matrix" values="0 0 0 0 0.546429 0 0 0 0 0.546429 0 0 0 0 0.546429 0 0 0 0.19 0"/>
<feBlend mode="normal" in2="BackgroundImageFix" result="effect1_dropShadow_800_737264"/>
<feBlend mode="normal" in="SourceGraphic" in2="effect1_dropShadow_800_737264" result="shape"/>
</filter>
<linearGradient id="paint0_linear_800_737264" x1="71.1924" y1="46.3906" x2="90.0742" y2="62.4784" gradientUnits="userSpaceOnUse">
<stop stop-color="#5A9FD4"/>
<stop offset="1" stop-color="#306998"/>
</linearGradient>
<linearGradient id="paint1_linear_800_737264" x1="97.1595" y1="72.5077" x2="90.3851" y2="63.0157" gradientUnits="userSpaceOnUse">
<stop stop-color="#FFD43B"/>
<stop offset="1" stop-color="#FFE873"/>
</linearGradient>
</defs>
</svg>
