<svg width="64" height="64" viewBox="0 0 64 64" fill="none" xmlns="http://www.w3.org/2000/svg">
<path d="M9.60007 27.4476C10.5042 23.0535 12.6767 19.021 15.8489 15.8488C19.021 12.6766 23.0536 10.5041 27.4477 9.59993C27.3102 9.14266 27.2396 8.66791 27.2382 8.19043C27.2379 8.02493 27.2475 7.85955 27.2667 7.69518C22.4295 8.64451 17.9846 11.0131 14.4989 14.4988C11.0132 17.9845 8.64465 22.4293 7.69531 27.2666C7.85969 27.2474 8.02506 27.2378 8.19057 27.2381C8.66805 27.2396 9.1428 27.3101 9.60007 27.4476Z" fill="#0274BA"/>
<path d="M54.4003 27.4476C54.8576 27.3101 55.3323 27.2396 55.8098 27.2381C55.9753 27.2378 56.1407 27.2474 56.3051 27.2666C55.3557 22.4293 52.9872 17.9845 49.5015 14.4988C46.0158 11.0131 41.5709 8.64451 36.7337 7.69518C36.7529 7.85955 36.7625 8.02493 36.7622 8.19043C36.7607 8.66791 36.6902 9.14266 36.5527 9.59993C40.9468 10.5041 44.9794 12.6766 48.1515 15.8488C51.3237 19.021 53.4962 23.0535 54.4003 27.4476Z" fill="#0274BA"/>
<path d="M54.4003 36.5523C53.4962 40.9464 51.3237 44.979 48.1515 48.1511C44.9794 51.3233 40.9468 53.4958 36.5527 54.3999C36.6902 54.8572 36.7607 55.332 36.7622 55.8095C36.7625 55.975 36.7529 56.1403 36.7337 56.3047C41.5709 55.3554 46.0158 52.9868 49.5015 49.5011C52.9872 46.0154 55.3558 41.5705 56.3051 36.7333C56.1407 36.7526 55.9753 36.7621 55.8098 36.7619C55.3323 36.7604 54.8576 36.6898 54.4003 36.5523Z" fill="#0274BA"/>
<path d="M9.60007 36.5523C9.14281 36.6898 8.66805 36.7604 8.19057 36.7619C8.02506 36.7621 7.85969 36.7526 7.69531 36.7333C8.64462 41.5705 11.0132 46.0154 14.4989 49.5011C17.9846 52.9868 22.4295 55.3554 27.2667 56.3047C27.2475 56.1403 27.2379 55.975 27.2382 55.8095C27.2397 55.332 27.3102 54.8572 27.4477 54.3999C23.0536 53.4958 19.021 51.3233 15.8489 48.1511C12.6767 44.979 10.5042 40.9464 9.60007 36.5523Z" fill="#0274BA"/>
<path d="M33.3112 10.1503C32.9238 10.4092 32.4684 10.5474 32.0025 10.5476C31.3777 10.5456 30.7791 10.2965 30.3374 9.85475C29.8956 9.41299 29.6466 8.81442 29.6445 8.1897C29.6447 7.72376 29.7829 7.26831 30.0418 6.88089C30.3008 6.49327 30.6689 6.19115 31.0996 6.01275C31.5303 5.83435 32.0043 5.78767 32.4615 5.87862C32.9188 5.96957 33.3388 6.19407 33.6684 6.52372C33.9981 6.85337 34.2225 7.27336 34.3135 7.7306C34.4044 8.18784 34.3578 8.66177 34.1794 9.09248C34.001 9.52319 33.6989 9.89132 33.3112 10.1503Z" stroke="#0274BA"/>
<path d="M10.151 30.6904C10.4099 31.0778 10.5481 31.5333 10.5482 31.9992C10.5462 32.6239 10.2972 33.2225 9.85542 33.6643C9.41366 34.106 8.81507 34.3551 8.19035 34.3571C7.72443 34.3569 7.26899 34.2187 6.88158 33.9599C6.49395 33.7009 6.19183 33.3327 6.01342 32.902C5.83501 32.4713 5.78833 31.9974 5.87928 31.5401C5.97023 31.0829 6.19472 30.6629 6.52437 30.3332C6.85402 30.0036 7.27403 29.7791 7.73127 29.6881C8.18851 29.5972 8.66245 29.6439 9.09316 29.8223C9.52387 30.0007 9.89201 30.3028 10.151 30.6904Z" stroke="#0274BA"/>
<path d="M34.3589 55.8095C34.3589 57.1113 33.3035 58.1667 32.0017 58.1667C30.6999 58.1667 29.6445 57.1113 29.6445 55.8095C29.6445 54.5077 30.6999 53.4523 32.0017 53.4523C33.3035 53.4523 34.3589 54.5077 34.3589 55.8095Z" stroke="#0274BA"/>
<path d="M54.4987 30.0401C54.8862 29.7812 55.3416 29.643 55.8076 29.6428C56.4323 29.6448 57.0308 29.8939 57.4726 30.3357C57.9144 30.7774 58.1634 31.376 58.1654 32.0008C58.1653 32.4667 58.027 32.9221 57.7682 33.3095C57.5092 33.6972 57.141 33.9993 56.7103 34.1777C56.2796 34.3561 55.8057 34.4028 55.3484 34.3118C54.8912 34.2209 54.4712 33.9964 54.1416 33.6667C53.8119 33.3371 53.5874 32.9171 53.4965 32.4598C53.4055 32.0026 53.4522 31.5287 53.6306 31.0979C53.809 30.6672 54.1111 30.2991 54.4987 30.0401Z" stroke="#0274BA"/>
<path d="M32.0011 13.4286C28.328 13.4286 24.7374 14.5178 21.6834 16.5584C18.6293 18.5991 16.249 21.4995 14.8434 24.893C13.4377 28.2865 13.07 32.0206 13.7865 35.6231C14.5031 39.2256 16.2719 42.5347 18.8691 45.132C21.4664 47.7292 24.7755 49.498 28.378 50.2146C31.9805 50.9311 35.7146 50.5634 39.1081 49.1577C42.5016 47.7521 45.402 45.3718 47.4427 42.3177C49.4833 39.2637 50.5725 35.6731 50.5725 32C50.5669 27.0763 48.6085 22.3558 45.1269 18.8742C41.6453 15.3926 36.9248 13.4342 32.0011 13.4286ZM32.0011 48.6667C28.7048 48.6667 25.4824 47.6892 22.7416 45.8578C20.0008 44.0265 17.8646 41.4235 16.6031 38.378C15.3417 35.3326 15.0116 31.9815 15.6547 28.7485C16.2978 25.5155 17.8851 22.5458 20.216 20.2149C22.5469 17.884 25.5166 16.2967 28.7496 15.6536C31.9826 15.0105 35.3337 15.3405 38.3792 16.602C41.4246 17.8635 44.0276 19.9997 45.8589 22.7405C47.6903 25.4813 48.6678 28.7036 48.6678 32C48.6627 36.4187 46.9052 40.655 43.7807 43.7795C40.6561 46.9041 36.4198 48.6616 32.0011 48.6667Z" fill="#0274BA"/>
<path d="M29.3816 24.8777C30.1563 24.3591 31.0673 24.0818 31.9996 24.0809C33.2496 24.0812 34.4484 24.5774 35.333 25.4605C36.2177 26.3436 36.7159 27.5416 36.7184 28.7916C36.7191 29.7238 36.4435 30.6353 35.9262 31.4109C35.4089 32.1866 34.6731 32.7915 33.812 33.1491L34.0805 33.7955L33.812 33.1491C32.9509 33.5066 32.0031 33.6008 31.0885 33.4197C30.1738 33.2386 29.3334 32.7904 28.6736 32.1316C28.0137 31.4729 27.5639 30.6333 27.3812 29.719C27.1985 28.8047 27.2911 27.8567 27.6471 26.995C28.0032 26.1332 28.6068 25.3964 29.3816 24.8777Z" stroke="#0274BA" stroke-width="1.4"/>
<path d="M40.5522 37.1605L41.1287 38.7492L41.92 37.2558C42.8264 35.5451 43.2749 33.629 43.2221 31.6937C43.1693 29.7585 42.6169 27.8697 41.6186 26.211C40.6203 24.5522 39.2099 23.1799 37.5246 22.2271C35.8392 21.2744 33.9361 20.7738 32.0001 20.7738C30.0641 20.7738 28.161 21.2744 26.4757 22.2271C24.7903 23.1799 23.38 24.5522 22.3817 26.211C21.3833 27.8697 20.8309 29.7585 20.7781 31.6937C20.7253 33.629 21.1739 35.5451 22.0803 37.2558L22.8701 38.7464L23.4477 37.1614C23.6539 36.5956 23.9846 36.0833 24.4152 35.6624C24.8452 35.2421 25.3639 34.9236 25.9332 34.7303L26.379 34.5833C27.0633 35.2489 27.8616 35.7886 28.7371 36.1758C29.7634 36.6297 30.8732 36.8642 31.9954 36.8642C33.1176 36.8642 34.2274 36.6297 35.2537 36.1758C36.1281 35.7891 36.9255 35.2502 37.6093 34.5856L38.0654 34.7393L38.0676 34.74C38.6374 34.9301 39.1569 35.2465 39.5871 35.6657C40.0174 36.0848 40.3473 36.5959 40.5522 37.1605ZM25.5383 22.3292C27.4509 21.0512 29.6995 20.3691 31.9998 20.369C35.0837 20.372 38.0404 21.5985 40.221 23.7791C42.4017 25.9598 43.6281 28.9167 43.6311 32.0007C43.6309 34.3008 42.9488 36.5493 41.6709 38.4618C40.3928 40.3745 38.5763 41.8653 36.451 42.7456C34.3258 43.6259 31.9872 43.8562 29.731 43.4074C27.4748 42.9586 25.4024 41.8509 23.7758 40.2243C22.1491 38.5976 21.0414 36.5252 20.5926 34.269C20.1438 32.0128 20.3742 29.6742 21.2545 27.549C22.1348 25.4237 23.6256 23.6072 25.5383 22.3292Z" stroke="#0274BA" stroke-width="1.5"/>
<path d="M32 0C25.671 0 19.4841 1.87677 14.2218 5.39297C8.95939 8.90917 4.85787 13.9069 2.43587 19.7541C0.0138654 25.6014 -0.619842 32.0355 0.614885 38.2429C1.84961 44.4503 4.89732 50.1521 9.37259 54.6274C13.8479 59.1027 19.5497 62.1504 25.7571 63.3851C31.9645 64.6198 38.3986 63.9861 44.2459 61.5641C50.0931 59.1421 55.0908 55.0406 58.607 49.7782C62.1232 44.5159 64 38.329 64 32C63.9904 23.516 60.6158 15.3823 54.6168 9.38323C48.6177 3.38415 40.484 0.00963831 32 0ZM32 62.1783C26.0313 62.1783 20.1966 60.4084 15.2338 57.0923C10.271 53.7763 6.40299 49.0631 4.11887 43.5487C1.83474 38.0343 1.23712 31.9664 2.40156 26.1124C3.56601 20.2584 6.44022 14.8811 10.6607 10.6606C14.8813 6.44011 20.2585 3.5659 26.1126 2.40147C31.9666 1.23704 38.0345 1.83468 43.5488 4.11881C49.0632 6.40295 53.7764 10.271 57.0924 15.2338C60.4085 20.1966 62.1784 26.0313 62.1784 32C62.1691 40.0009 58.9866 47.6715 53.3291 53.329C47.6715 58.9865 40.0009 62.169 32 62.1783Z" fill="#0274BA"/>
</svg>
