<svg width="64" height="72" viewBox="0 0 64 72" fill="none" xmlns="http://www.w3.org/2000/svg">
<path fill-rule="evenodd" clip-rule="evenodd" d="M44.2475 19.7668C43.8641 19.41 43.8425 18.81 44.1992 18.4267C44.556 18.0434 45.1559 18.0217 45.5393 18.3785L47.5907 20.29L51.715 16.055C52.0799 15.6799 52.6798 15.6716 53.0551 16.0364C53.4302 16.4012 53.4385 17.0013 53.0737 17.3765L48.3166 22.2615C47.9599 22.6448 47.3598 22.6666 46.9765 22.3098L44.2475 19.7668ZM47.5967 39.8082C48.1194 39.8082 48.5432 40.232 48.5432 40.7548C48.5432 41.2777 48.1194 41.7014 47.5967 41.7014L29.3156 41.6845C28.7929 41.6845 28.3691 41.2607 28.3691 40.7379C28.3691 40.215 28.7929 39.7913 29.3156 39.7913L47.5967 39.8082ZM29.3156 35.8707C28.7929 35.8707 28.3691 35.4469 28.3691 34.9242C28.3691 34.4015 28.7929 33.9777 29.3156 33.9777L47.5967 33.9945C48.1194 33.9945 48.5432 34.4183 48.5432 34.941C48.5432 35.4637 48.1194 35.8876 47.5967 35.8876L29.3156 35.8707ZM25.7913 33.8829C26.1886 33.602 26.7415 33.6678 27.0605 34.0469C27.3967 34.4468 27.3451 35.0434 26.9455 35.3796L25.7913 36.3516V42.05C25.7913 42.5748 25.3658 43.0002 24.841 43.0002H16.4033C15.8785 43.0002 15.4531 42.5748 15.4531 42.05V33.6123C15.4531 33.0874 15.8785 32.6619 16.4033 32.6619H24.841C25.3658 32.6619 25.7913 33.0873 25.7913 33.6123V33.8829ZM18.0655 37.8545C17.6575 37.5286 17.591 36.9336 17.917 36.5256C18.2429 36.1175 18.838 36.0511 19.2459 36.3771L21.0813 37.8454L23.8906 35.4792V34.5625H17.3536V41.0996H23.8906V37.9524L21.7057 39.7927C21.3677 40.0774 20.8651 40.0939 20.5067 39.8076L18.0655 37.8545ZM25.7913 20.8295C26.1886 20.5486 26.7415 20.6144 27.0605 20.9935C27.3967 21.3932 27.3451 21.99 26.9455 22.3262L25.7913 23.2982V28.9964C25.7913 29.5212 25.3658 29.9467 24.841 29.9467H16.4033C15.8785 29.9467 15.4531 29.5212 15.4531 28.9964V20.5587C15.4531 20.0339 15.8785 19.6085 16.4033 19.6085H24.841C25.3658 19.6085 25.7913 20.0339 25.7913 20.5587V20.8295ZM18.0655 24.8011C17.6575 24.4752 17.591 23.88 17.917 23.4722C18.2429 23.0642 18.838 22.9977 19.2459 23.3237L21.0813 24.792L23.8906 22.4258V21.5091H17.3536V28.0462H23.8906V24.899L21.7057 26.7393C21.3677 27.024 20.8651 27.0405 20.5067 26.7542L18.0655 24.8011ZM49.5508 67.3114H14.7079V69.5071H49.5508V67.3114ZM40.0111 65.4107C37.9626 63.8604 36.5832 61.5102 36.3161 58.8644H27.9426C27.6755 61.5102 26.296 63.8604 24.2477 65.4107H40.0111ZM62.0993 51.6394H1.90065V55.1461C1.90065 56.1439 2.7207 56.9638 3.71833 56.9638H60.2817C61.2794 56.9638 62.0995 56.1439 62.0995 55.1461V51.6394H62.0993ZM9.01896 12.3297H3.71833C1.67139 12.3297 0 14.001 0 16.048V55.1459C0 57.1929 1.67154 58.8643 3.71833 58.8643H26.0298C25.5589 62.5605 22.3776 65.4104 18.5989 65.4104C14.8203 65.4104 14.0117 65.4106 14.0117 65.4106C13.6796 65.4106 13.3781 65.5458 13.1605 65.7636C13.1605 65.7789 12.8074 66.0724 12.8074 66.6149V70.2034C12.8074 70.746 13.1605 71.0392 13.1605 71.0547C13.3783 71.2725 13.6796 71.4077 14.0117 71.4077H50.2472C50.5793 71.4077 50.8808 71.2725 51.0986 71.0547C51.0986 71.0394 51.4516 70.746 51.4516 70.2034V66.6149C51.4516 66.0724 51.0986 65.7791 51.0986 65.7636C50.8808 65.5458 50.5793 65.4106 50.2472 65.4106H45.66C41.8813 65.4104 38.7 62.5604 38.2291 58.8643H60.2817C62.3286 58.8643 64 57.1929 64 55.1459V16.048C64 13.998 62.3377 12.3297 60.2532 12.3297C60.2631 11.8554 60.2674 11.3824 60.2674 10.9122H60.2645C60.2645 10.5159 60.0141 10.1465 59.6176 10.0139L54.9807 8.45647V0.950399C54.9807 0.425594 54.5553 0 54.0303 0H18.5456C18.2804 0 18.0406 0.108745 17.8682 0.283928L9.29723 8.85495C9.11162 9.04041 9.01896 9.28367 9.01881 9.52678V12.3294L9.01896 12.3297ZM9.01896 49.7388H1.9005V16.048C1.9005 15.0503 2.72041 14.2304 3.71818 14.2304H9.01881L9.01896 49.7388ZM53.8023 10.0592C53.7516 10.0467 53.7026 10.0301 53.6555 10.0099L48.6439 8.32642L38.9241 11.5911C38.9598 15.3519 39.3129 19.2197 40.6661 22.4957C42.0304 25.7986 44.4428 28.5382 48.6438 30.0028C52.8449 28.5382 55.2571 25.7986 56.6214 22.4957C57.9746 19.2198 58.3277 15.3519 58.3634 11.5913L53.8021 10.0593L53.8023 10.0592ZM54.981 28.3457C58.7424 24.6706 59.8909 19.3616 60.1813 14.2304H60.2817C61.2794 14.2304 62.0995 15.0503 62.0995 16.048V49.7388H54.981V28.3457ZM12.2634 8.57683L17.5958 3.24447V8.57683H12.2634ZM19.4963 1.9008V9.52708C19.4963 10.0519 19.0708 10.4773 18.546 10.4773H10.9198V49.7386H53.0804V29.8999C51.8975 30.7065 50.5264 31.3848 48.9372 31.9062C48.7303 31.9738 48.5274 31.9648 48.3352 31.9009C45.9852 31.1278 44.1119 30.0113 42.6209 28.6431L29.3156 28.6308C28.7929 28.6308 28.3691 28.207 28.3691 27.6843C28.3691 27.1616 28.7929 26.7376 29.3156 26.7376L40.9044 26.7484C40.0033 25.551 39.2998 24.2261 38.7583 22.8257L29.3156 22.817C28.7929 22.817 28.3691 22.3932 28.3691 21.8705C28.3691 21.3478 28.7929 20.924 29.3156 20.924L38.1316 20.932C37.2381 17.7387 37.0203 14.2597 37.0203 10.9119C37.0203 10.4657 37.3277 10.0914 37.7423 9.98917L48.3431 6.4286C48.5463 6.36067 48.7564 6.36544 48.945 6.42875L53.0802 7.8177V1.9008H19.4961H19.4963Z" fill="#0274BA"/>
</svg>
