<svg width="64" height="64" viewBox="0 0 64 64" fill="none" xmlns="http://www.w3.org/2000/svg">
<path d="M19.6125 43.3548C15.628 43.3548 12.3867 46.5961 12.3867 50.5806C12.3867 54.5652 15.628 57.8065 19.6125 57.8065C23.597 57.8065 26.8383 54.5652 26.8383 50.5806C26.8383 46.5961 23.597 43.3548 19.6125 43.3548ZM19.6125 55.7419C16.7666 55.7419 14.4512 53.4266 14.4512 50.5806C14.4512 47.7347 16.7666 45.4194 19.6125 45.4194C22.4585 45.4194 24.7738 47.7347 24.7738 50.5806C24.7738 53.4266 22.4585 55.7419 19.6125 55.7419Z" fill="#0274BA"/>
<path d="M19.6124 47.4839C17.905 47.4839 16.5156 48.8733 16.5156 50.5806C16.5156 52.288 17.905 53.6774 19.6124 53.6774C21.3198 53.6774 22.7092 52.288 22.7092 50.5806C22.7092 48.8733 21.3198 47.4839 19.6124 47.4839ZM19.6124 51.6129C19.0436 51.6129 18.5801 51.1494 18.5801 50.5806C18.5801 50.0119 19.0436 49.5484 19.6124 49.5484C20.1812 49.5484 20.6447 50.0119 20.6447 50.5806C20.6447 51.1494 20.1812 51.6129 19.6124 51.6129Z" fill="#0274BA"/>
<path d="M64 4.91768L61.5412 0H31.3621L28.9032 4.91768V26.2173C26.6818 22.8542 22.8759 20.6452 18.5806 20.6452C12.4305 20.6452 7.32697 25.0457 6.36181 31.0194C2.78297 31.4477 0 34.5022 0 38.1935C0 42.1781 3.24129 45.4194 7.22581 45.4194H9.248C9.29032 45.6289 9.29342 45.8405 9.21084 46.0335C9.15303 46.1667 9.09729 46.3019 9.04465 46.4361C8.93316 46.7252 8.68852 46.9492 8.37574 47.0514C7.07097 47.4808 6.19355 48.6926 6.19355 50.0666V51.0947C6.19355 52.4686 7.07097 53.6805 8.37781 54.1099C8.68955 54.2121 8.93316 54.4361 9.04465 54.7231C9.09729 54.8594 9.152 54.9946 9.21084 55.1288C9.33265 55.4106 9.31819 55.7388 9.17161 56.0299C8.55123 57.2563 8.78761 58.7345 9.76 59.7058L10.4867 60.4335C11.4591 61.4049 12.9363 61.6423 14.1626 61.0219C14.4537 60.8733 14.7809 60.8599 15.0648 60.9827C15.1979 61.0405 15.3332 61.0963 15.4674 61.1489C15.7564 61.2604 15.9804 61.505 16.0826 61.8178C16.513 63.1226 17.7249 64 19.0988 64H20.127C21.5009 64 22.7128 63.1226 23.1422 61.8157C23.2444 61.504 23.4684 61.2604 23.7554 61.1489C23.8916 61.0963 24.0268 61.0415 24.161 60.9827C24.4428 60.8599 24.7721 60.8754 25.0622 61.0219C26.2885 61.6423 27.7657 61.4049 28.7381 60.4335L29.4658 59.7068C30.4382 58.7355 30.6746 57.2573 30.0542 56.031C29.9066 55.7399 29.8932 55.4116 30.015 55.1288C30.0728 54.9956 30.1285 54.8604 30.1812 54.7262C30.2926 54.4372 30.5373 54.2132 30.8501 54.111C31.1597 54.0088 31.4436 53.8601 31.6986 53.6784H64V4.91768ZM39.1432 37.1613C38.6395 33.665 35.6325 30.9677 32 30.9677C31.6542 30.9677 31.3105 31.0059 30.9677 31.0565V30.9677H32H61.9355V37.1613H39.1432ZM30.9677 28.9032V22.7097H61.9355V28.9032H30.9677ZM30.9677 20.6452V14.4516H61.9355V20.6452H30.9677ZM30.9677 12.3871V6.19355H61.9355V12.3871H30.9677ZM60.2653 2.06452L61.2975 4.12903H31.6057L32.6379 2.06452H60.2653ZM2.06452 38.1935C2.06452 35.3476 4.37987 33.0323 7.17419 33.0312L8.22194 33.0354L8.30658 32.096C8.78761 26.7448 13.2046 22.7097 18.5806 22.7097C24.0372 22.7097 28.5574 26.9801 28.8712 32.4315L28.9507 33.8116L30.2524 33.343C30.8243 33.1365 31.4126 33.0323 32 33.0323C34.8459 33.0323 37.1613 35.3476 37.1613 38.1935C37.1613 41.0395 34.8459 43.3548 32 43.3548H30.369C30.2926 42.6539 29.9902 41.9799 29.4648 41.4555L28.7381 40.7288C27.7657 39.7564 26.2885 39.52 25.0622 40.1404C24.7721 40.288 24.4439 40.3025 24.16 40.1796C24.0279 40.1218 23.8926 40.0671 23.7574 40.0134C23.4694 39.9019 23.2444 39.6573 23.1422 39.3445C22.7128 38.0387 21.5009 37.1613 20.127 37.1613H19.0988C17.7249 37.1613 16.513 38.0387 16.0836 39.3455C15.9814 39.6573 15.7574 39.9009 15.4684 40.0124C15.3332 40.065 15.199 40.1197 15.0648 40.1786C14.783 40.3004 14.4547 40.287 14.1636 40.1394C12.9373 39.519 11.4601 39.7554 10.4877 40.7277L9.76103 41.4545C9.23561 41.9799 8.93316 42.6539 8.85677 43.3548H7.22581C4.37987 43.3548 2.06452 41.0395 2.06452 38.1935ZM30.9677 51.0947C30.9677 51.5747 30.6612 51.9979 30.2039 52.1486C29.3037 52.4439 28.5935 53.1107 28.257 53.9778C28.2137 54.0883 28.1683 54.1987 28.1218 54.3061C27.7543 55.1525 27.7863 56.1197 28.2116 56.961C28.4284 57.3894 28.3458 57.9055 28.0062 58.2452L27.2785 58.9729C26.9388 59.3125 26.4217 59.3951 25.9943 59.1783C25.1541 58.753 24.1858 58.721 23.3404 59.0885C23.232 59.135 23.1215 59.1804 23.009 59.2248C22.143 59.5613 21.4772 60.2715 21.1809 61.1726C21.0312 61.6289 20.607 61.9355 20.127 61.9355H19.0988C18.6188 61.9355 18.1956 61.6289 18.0449 61.1716C17.7497 60.2715 17.0828 59.5613 16.2157 59.2248C16.1053 59.1814 15.9948 59.136 15.8875 59.0895C15.4973 58.9192 15.0813 58.8346 14.6632 58.8346C14.175 58.8346 13.6857 58.9502 13.2325 59.1783C12.8031 59.3941 12.287 59.3125 11.9484 58.9729L11.2206 58.2452C10.881 57.9055 10.7985 57.3894 11.0152 56.961C11.4405 56.1197 11.4725 55.1525 11.105 54.3071C11.0586 54.1987 11.0132 54.0883 10.9688 53.9757C10.6323 53.1097 9.92206 52.4439 9.0209 52.1476C8.56464 51.999 8.25806 51.5747 8.25806 51.0947V50.0666C8.25806 49.5866 8.56464 49.1634 9.0209 49.0126C9.92206 48.7174 10.6323 48.0506 10.9688 47.1835C11.0121 47.073 11.0575 46.9626 11.104 46.8552C11.4715 46.0088 11.4395 45.0415 11.0142 44.2003C10.7974 43.7719 10.88 43.2547 11.2196 42.9151L11.9463 42.1884C12.2859 41.8477 12.8021 41.7641 13.2315 41.983C14.0728 42.4083 15.0421 42.4403 15.8854 42.0728C15.9948 42.0253 16.1053 41.9799 16.2157 41.9375C17.0818 41.6 17.7486 40.8898 18.0449 39.9897C18.1946 39.5324 18.6188 39.2258 19.0988 39.2258H20.127C20.607 39.2258 21.0302 39.5324 21.1809 39.9897C21.4772 40.8898 22.143 41.6 23.009 41.9365C23.1195 41.9799 23.2299 42.0253 23.3383 42.0717C24.1837 42.4392 25.152 42.4062 25.9933 41.9819C26.4206 41.7641 26.9378 41.8477 27.2785 42.1874L28.0052 42.9141C28.3448 43.2537 28.4274 43.7708 28.2106 44.1992C27.7853 45.0405 27.7533 46.0077 28.1208 46.8532C28.1672 46.9615 28.2126 47.072 28.257 47.1845C28.5935 48.0506 29.3037 48.7164 30.2049 49.0126C30.6612 49.1623 30.9677 49.5866 30.9677 50.0666V51.0947ZM32.9889 51.6129C33.0168 51.4436 33.0323 51.2702 33.0323 51.0947V50.0666C33.0323 48.6926 32.1548 47.4808 30.848 47.0514C30.5363 46.9492 30.2926 46.7252 30.1812 46.4382C30.1285 46.3019 30.0738 46.1667 30.015 46.0325C29.9314 45.8405 29.9355 45.6289 29.9778 45.4194H32C35.6325 45.4194 38.6395 42.7221 39.1432 39.2258H61.9355V51.6129H32.9889Z" fill="#0274BA"/>
<path d="M34.0655 10.3226C34.6356 10.3226 35.0977 9.86042 35.0977 9.29031C35.0977 8.72021 34.6356 8.25806 34.0655 8.25806C33.4954 8.25806 33.0332 8.72021 33.0332 9.29031C33.0332 9.86042 33.4954 10.3226 34.0655 10.3226Z" fill="#0274BA"/>
<path d="M38.1944 10.3226C38.7645 10.3226 39.2266 9.86042 39.2266 9.29031C39.2266 8.72021 38.7645 8.25806 38.1944 8.25806C37.6243 8.25806 37.1621 8.72021 37.1621 9.29031C37.1621 9.86042 37.6243 10.3226 38.1944 10.3226Z" fill="#0274BA"/>
<path d="M42.3233 10.3226C42.8934 10.3226 43.3555 9.86042 43.3555 9.29031C43.3555 8.72021 42.8934 8.25806 42.3233 8.25806C41.7532 8.25806 41.291 8.72021 41.291 9.29031C41.291 9.86042 41.7532 10.3226 42.3233 10.3226Z" fill="#0274BA"/>
<path d="M58.8389 18.5806C59.409 18.5806 59.8712 18.1185 59.8712 17.5484C59.8712 16.9783 59.409 16.5161 58.8389 16.5161C58.2688 16.5161 57.8066 16.9783 57.8066 17.5484C57.8066 18.1185 58.2688 18.5806 58.8389 18.5806Z" fill="#0274BA"/>
<path d="M54.71 18.5806C55.2801 18.5806 55.7423 18.1185 55.7423 17.5484C55.7423 16.9783 55.2801 16.5161 54.71 16.5161C54.1399 16.5161 53.6777 16.9783 53.6777 17.5484C53.6777 18.1185 54.1399 18.5806 54.71 18.5806Z" fill="#0274BA"/>
<path d="M50.5811 18.5806C51.1512 18.5806 51.6133 18.1185 51.6133 17.5484C51.6133 16.9783 51.1512 16.5161 50.5811 16.5161C50.011 16.5161 49.5488 16.9783 49.5488 17.5484C49.5488 18.1185 50.011 18.5806 50.5811 18.5806Z" fill="#0274BA"/>
<path d="M34.0655 26.8387C34.6356 26.8387 35.0977 26.3766 35.0977 25.8065C35.0977 25.2364 34.6356 24.7742 34.0655 24.7742C33.4954 24.7742 33.0332 25.2364 33.0332 25.8065C33.0332 26.3766 33.4954 26.8387 34.0655 26.8387Z" fill="#0274BA"/>
<path d="M38.1944 26.8387C38.7645 26.8387 39.2266 26.3766 39.2266 25.8065C39.2266 25.2364 38.7645 24.7742 38.1944 24.7742C37.6243 24.7742 37.1621 25.2364 37.1621 25.8065C37.1621 26.3766 37.6243 26.8387 38.1944 26.8387Z" fill="#0274BA"/>
<path d="M42.3233 26.8387C42.8934 26.8387 43.3555 26.3766 43.3555 25.8065C43.3555 25.2364 42.8934 24.7742 42.3233 24.7742C41.7532 24.7742 41.291 25.2364 41.291 25.8065C41.291 26.3766 41.7532 26.8387 42.3233 26.8387Z" fill="#0274BA"/>
<path d="M58.8389 35.0968C59.409 35.0968 59.8712 34.6346 59.8712 34.0645C59.8712 33.4944 59.409 33.0323 58.8389 33.0323C58.2688 33.0323 57.8066 33.4944 57.8066 34.0645C57.8066 34.6346 58.2688 35.0968 58.8389 35.0968Z" fill="#0274BA"/>
<path d="M54.71 35.0968C55.2801 35.0968 55.7423 34.6346 55.7423 34.0645C55.7423 33.4944 55.2801 33.0323 54.71 33.0323C54.1399 33.0323 53.6777 33.4944 53.6777 34.0645C53.6777 34.6346 54.1399 35.0968 54.71 35.0968Z" fill="#0274BA"/>
<path d="M50.5811 35.0968C51.1512 35.0968 51.6133 34.6346 51.6133 34.0645C51.6133 33.4944 51.1512 33.0323 50.5811 33.0323C50.011 33.0323 49.5488 33.4944 49.5488 34.0645C49.5488 34.6346 50.011 35.0968 50.5811 35.0968Z" fill="#0274BA"/>
<path d="M51.6133 49.5484H59.8713V41.2903H51.6133V49.5484ZM53.6778 43.3548H57.8068V47.4839H53.6778V43.3548Z" fill="#0274BA"/>
<path d="M41.291 49.5484H49.5491V41.2903H41.291V49.5484ZM43.3555 43.3548H47.4846V47.4839H43.3555V43.3548Z" fill="#0274BA"/>
<path d="M5.16069 5.47406V18.5806H7.22521V5.47406L9.46314 8.83097L11.1808 7.68516L6.19295 0.203354L1.20508 7.68516L2.92276 8.83097L5.16069 5.47406Z" fill="#0274BA"/>
<path d="M11.1806 11.8142L9.46289 12.96L14.4508 20.4418L19.4386 12.96L17.721 11.8142L15.483 15.1711V2.06451H13.4185V15.1711L11.1806 11.8142Z" fill="#0274BA"/>
<path d="M21.6783 5.47406V18.5806H23.7428V5.47406L25.9807 8.83097L27.6984 7.68516L22.7105 0.203354L17.7227 7.68516L19.4403 8.83097L21.6783 5.47406Z" fill="#0274BA"/>
<path d="M18.5803 26.8387V24.7742C14.027 24.7742 10.3223 28.479 10.3223 33.0323H12.3868C12.3868 29.6165 15.1646 26.8387 18.5803 26.8387Z" fill="#0274BA"/>
</svg>
