<svg width="290" height="138" viewBox="0 0 290 138" fill="none" xmlns="http://www.w3.org/2000/svg">
<g filter="url(#filter0_d_803_803142)">
<path d="M27 53C27 37.9151 27 30.3726 31.6863 25.6863C36.3726 21 43.9151 21 59 21H230.2C245.285 21 252.827 21 257.514 25.6863C262.2 30.3726 262.2 37.9151 262.2 53V71.3399C262.2 86.4248 262.2 93.9673 257.514 98.6536C252.827 103.34 245.285 103.34 230.2 103.34H59C43.915 103.34 36.3726 103.34 31.6863 98.6536C27 93.9673 27 86.4248 27 71.3399V53Z" fill="white"/>
<path d="M27 21H262.2H27ZM262.2 87.3399C262.2 96.7287 254.589 104.34 245.2 104.34H44C34.6112 104.34 27 96.7287 27 87.3399C27 95.6241 34.1634 102.34 43 102.34H246.2C255.037 102.34 262.2 95.6241 262.2 87.3399ZM27 103.34V21V103.34ZM262.2 21V103.34V21Z" fill="#0274BA"/>
</g>
<g clip-path="url(#clip0_803_803142)">
<path d="M189.321 78.4088V84H199.315C201.363 84 204.877 82.4863 205 78.2543V76.092C205 72.4777 202.066 70.3463 199.315 70.3463H194.333V67.7514H204.205V62.1293H194.731C192.285 62.1293 189.015 64.1681 189.015 67.9677V69.9138C189.015 73.7134 192.255 75.6595 194.731 75.6595C201.607 75.6904 193.08 75.6595 199.437 75.6595V78.3779M135.775 77.0496C135.775 77.0496 141.123 76.5862 141.123 69.6049C141.123 62.6236 134.644 61.9749 134.644 61.9749H122.969V84H128.837V78.6868L133.91 84H142.59L135.775 77.0496ZM133.513 72.5395H128.837V67.5043H133.544C133.544 67.5043 134.858 67.9986 134.858 70.0065C134.858 72.0144 133.513 72.5395 133.513 72.5395ZM155.61 62.1293H149.65C145.402 62.1293 143.965 66.0215 143.965 67.875V84H149.925V80.1386H155.518V84H161.295V67.875C161.295 63.1796 157.077 62.1293 155.61 62.1293ZM155.518 73.8987H149.895V68.5546C149.895 68.5546 149.895 67.3499 151.759 67.3499H153.807C155.457 67.3499 155.488 68.5546 155.488 68.5546V73.8987H155.518ZM164.015 62.1293H170.219V84H164.015V62.1293ZM178.929 78.347V62.1293H172.756V84H187.273V78.347H178.929Z" fill="#CC0000"/>
<path d="M86.1396 84H110.284C110.284 84 105.669 62.7162 120.951 54.0977C124.282 52.4605 134.888 46.3441 152.247 59.3182C152.797 58.8549 153.317 58.4842 153.317 58.4842C153.317 58.4842 137.424 42.4519 119.728 44.2435C110.834 45.0467 99.893 53.2328 93.4748 64.0445C87.0565 74.8563 86.1396 84 86.1396 84Z" fill="#CC0000"/>
<path d="M86.1396 84H110.284C110.284 84 105.669 62.7162 120.951 54.0977C124.282 52.4605 134.888 46.3441 152.247 59.3182C152.797 58.8549 153.317 58.4842 153.317 58.4842C153.317 58.4842 137.424 42.4519 119.728 44.2435C110.834 45.0467 99.893 53.2328 93.4748 64.0445C87.0565 74.8563 86.1396 84 86.1396 84Z" fill="#CC0000"/>
<path d="M86.1396 84H110.284C110.284 84 105.669 62.7162 120.951 54.0977C124.282 52.4605 134.888 46.3441 152.247 59.3183C152.797 58.8549 153.317 58.4842 153.317 58.4842C153.317 58.4842 137.424 42.4519 119.728 44.2435C110.804 45.0467 99.8624 53.2328 93.4442 64.0446C87.026 74.8563 86.1396 84 86.1396 84ZM136.446 45.9734L136.568 43.9037C136.293 43.7493 135.529 43.3786 133.604 42.8226L133.482 44.8614C134.49 45.2012 135.468 45.5719 136.446 45.9734Z" fill="#CC0000"/>
<path d="M133.543 52.5223L133.421 54.4684C134.43 54.4993 135.438 54.6228 136.447 54.8391L136.569 52.9239C135.53 52.7076 134.522 52.5841 133.543 52.5223ZM122.235 42.8843H122.541L121.93 41C120.982 41 120.004 41.0618 118.996 41.1853L119.576 43.0079C120.463 42.9152 121.349 42.8843 122.235 42.8843ZM123.702 54.2522L124.405 56.3836C125.291 55.9511 126.178 55.5805 127.064 55.3024L126.392 53.2636C125.353 53.5726 124.466 53.9124 123.702 54.2522ZM109.827 46.1279L108.451 43.9964C107.687 44.398 106.893 44.8305 106.067 45.3247L107.473 47.4871C108.268 46.9928 109.032 46.5295 109.827 46.1279ZM116.092 60.0287L117.559 62.2529C118.079 61.4806 118.69 60.7701 119.362 60.0596L117.987 57.9591C117.284 58.6078 116.642 59.3182 116.092 60.0287ZM111.66 69.9756L114.136 71.9526C114.258 70.7478 114.472 69.5431 114.778 68.3384L112.577 66.5776C112.18 67.7205 111.905 68.8635 111.66 69.9756ZM98.2739 55.3024L96.1039 53.3872C95.3093 54.1595 94.5452 54.9318 93.8422 55.704L96.1956 57.7428C96.8374 56.9088 97.5404 56.0747 98.2739 55.3024ZM89.0439 69.1106L85.5291 67.8132C84.9484 69.1415 84.3066 70.6861 84.001 71.5201L87.5157 72.8175C87.913 71.7672 88.5549 70.2536 89.0439 69.1106ZM111.202 77.8218C111.263 79.459 111.416 80.7874 111.569 81.7141L115.236 83.0424C114.961 81.8376 114.686 80.4784 114.503 79.0266L111.202 77.8218Z" fill="#CC0000"/>
</g>
<defs>
<filter id="filter0_d_803_803142" x="0.1" y="0.1" width="289" height="137.14" filterUnits="userSpaceOnUse" color-interpolation-filters="sRGB">
<feFlood flood-opacity="0" result="BackgroundImageFix"/>
<feColorMatrix in="SourceAlpha" type="matrix" values="0 0 0 0 0 0 0 0 0 0 0 0 0 0 0 0 0 0 127 0" result="hardAlpha"/>
<feOffset dy="6"/>
<feGaussianBlur stdDeviation="13.45"/>
<feComposite in2="hardAlpha" operator="out"/>
<feColorMatrix type="matrix" values="0 0 0 0 0.546429 0 0 0 0 0.546429 0 0 0 0 0.546429 0 0 0 0.19 0"/>
<feBlend mode="normal" in2="BackgroundImageFix" result="effect1_dropShadow_803_803142"/>
<feBlend mode="normal" in="SourceGraphic" in2="effect1_dropShadow_803_803142" result="shape"/>
</filter>
<clipPath id="clip0_803_803142">
<rect width="121" height="43" fill="white" transform="translate(84 41)"/>
</clipPath>
</defs>
</svg>
