<svg width="60" height="60" viewBox="0 0 60 60" fill="none" xmlns="http://www.w3.org/2000/svg">
<path d="M59.4999 30.0376V30.0393C59.5079 46.3764 46.0903 59.7837 29.4594 59.4954C13.4936 59.2151 0.364871 46.152 0.501051 29.7419L0.501052 29.7417C0.629224 13.5074 13.8706 0.349133 30.2769 0.501307C46.6108 0.653479 59.5479 13.9642 59.4999 30.0376ZM57.1354 30.0315V30.0309C57.1354 15.1043 45.1345 3.01417 30.2534 2.88141L30.2533 2.88141C15.1822 2.74865 2.99822 14.8385 2.87373 29.758L2.87373 29.758C2.74923 44.8764 14.9416 57.0903 29.9627 57.1234C44.9273 57.1566 57.1188 45.0007 57.1354 30.0315Z" stroke="#2776EA"/>
<path d="M25.9896 27.1225C26.12 27.2528 26.2259 27.4809 26.2259 27.6601C26.2333 28.2228 26.2323 28.7855 26.2313 29.3483C26.2301 30.0235 26.2288 30.6988 26.2422 31.3741M25.9896 27.1225L18.6821 40.5939C18.7049 39.9896 18.6997 39.3852 18.6946 38.7809C18.6924 38.5219 18.6902 38.2629 18.6902 38.0039C18.6902 37.2138 18.9835 36.5786 19.6026 36.0817C21.5334 34.5342 23.6027 33.2148 25.8023 32.099C26.1281 31.9361 26.2503 31.7406 26.2422 31.3741M25.9896 27.1225C25.5334 26.6746 25.289 26.1533 25.289 25.5262L25.9896 27.1225ZM26.2422 31.3741L26.7421 31.363C26.7474 31.6014 26.7119 31.8479 26.5742 32.0735C26.4373 32.2975 26.236 32.4409 26.0273 32.5454C23.8574 33.6463 21.8177 34.9471 19.9153 36.4719C19.4185 36.8707 19.1902 37.3606 19.1902 38.0039C19.1902 38.2537 19.1924 38.5075 19.1945 38.7637C19.1996 39.3605 19.2048 39.9705 19.1831 40.5743M26.2422 31.3741L26.7421 31.3642C26.7286 30.6817 26.7299 30.025 26.7313 29.3622C26.7324 28.8043 26.7336 28.2422 26.7259 27.6568C26.7253 27.4784 26.6749 27.3072 26.6131 27.169C26.5501 27.028 26.4589 26.8847 26.3431 26.7689L26.3399 26.7658C25.9676 26.4001 25.789 26.0033 25.789 25.5262L25.789 25.5235L19.1831 40.5743M19.1831 40.5743C21.8776 40.5622 24.5726 40.5638 27.266 40.5653C28.1659 40.5658 29.0657 40.5663 29.9652 40.5663C31.1667 40.5663 32.3696 40.5654 33.5733 40.5645C35.9568 40.5627 38.3435 40.5609 40.7297 40.5661C40.7149 39.9558 40.7181 39.3423 40.7212 38.7376C40.7226 38.4858 40.7239 38.2355 40.7239 37.9876C40.7239 37.3571 40.4911 36.8653 39.9904 36.4635L39.99 36.4632C38.1044 34.9471 36.0739 33.647 33.9138 32.5549L19.1831 40.5743ZM25.789 20.8808C25.8105 18.869 27.4261 17.2782 29.4447 17.2706C29.5716 17.2706 29.695 17.2695 29.8154 17.2685C30.5592 17.262 31.188 17.2565 31.8034 17.5099L31.804 17.5101C33.2102 18.0869 34.1103 19.391 34.1251 20.9035C34.1305 21.9275 34.1287 22.9463 34.1269 23.9684C34.126 24.4811 34.1251 24.9945 34.1251 25.5099C34.1251 26.0113 33.9386 26.4147 33.561 26.779L33.561 26.7789L33.5547 26.7852C33.3697 26.9702 33.1977 27.2849 33.1964 27.6074C33.1887 28.2036 33.1898 28.7771 33.191 29.3464C33.1923 30.0226 33.1936 30.6929 33.1802 31.3884C33.1802 31.3886 33.1802 31.3887 33.1802 31.3888L25.789 20.8808Z" stroke="#2776EA"/>
<path d="M38.6162 25.4366C38.7384 25.5669 38.8443 25.7705 38.8443 25.9415C38.8576 26.5058 38.8564 27.0724 38.8552 27.6388C38.8542 28.1108 38.8532 28.5827 38.8606 29.0528L38.6162 25.4366ZM38.6162 25.4366C38.2985 25.1026 38.0704 24.728 38.0622 24.28M38.6162 25.4366L38.1192 19.7434M39.3443 25.9345C39.3565 26.4572 39.3565 26.9806 39.3555 27.4981C39.3554 27.5453 39.3553 27.5924 39.3552 27.6394C39.3542 28.1122 39.3532 28.5795 39.3605 29.0449L39.3606 29.0528H39.3606C39.3606 29.2655 39.3185 29.4814 39.1901 29.6772C39.0653 29.8676 38.8916 29.9883 38.7248 30.0746C38.1533 30.3739 37.597 30.6856 37.0076 31.0158C36.9748 31.0342 36.942 31.0526 36.909 31.071C38.5851 32.0414 40.1973 33.1198 41.716 34.3484C42.4339 34.9246 43.0164 35.6609 43.2626 36.6139C43.2652 36.6234 43.2676 36.6318 43.2699 36.6394C43.285 36.6401 43.3026 36.6405 43.3234 36.6405C45.2371 36.6283 47.1515 36.6298 49.0637 36.6314C49.6813 36.6319 50.2987 36.6323 50.9158 36.6324C50.9162 36.5255 50.9168 36.4194 50.9173 36.314C50.9206 35.6627 50.9238 35.038 50.9066 34.4094M39.3443 25.9345L51.4064 34.3958M39.3443 25.9345C39.3417 25.597 39.155 25.2802 38.9809 25.0945L38.9809 25.0945L38.9784 25.0919C38.7028 24.8022 38.568 24.5427 38.5622 24.2737M39.3443 25.9345L41.3843 17.2868M50.9066 34.4094L51.4064 34.3958M50.9066 34.4094C50.9066 34.4094 50.9066 34.4094 50.9066 34.4094L51.4064 34.3958M50.9066 34.4094C50.8953 33.9979 50.701 33.6603 50.3194 33.3521M51.4064 34.3958C51.3901 33.8012 51.0969 33.3369 50.6325 32.9623M50.3194 33.3521C50.3197 33.3523 50.3199 33.3525 50.3202 33.3527L50.6325 32.9623M50.3194 33.3521C48.7177 32.0711 47.0038 30.9742 45.1772 30.0531L45.1662 30.0475L45.1663 30.0474C45.0182 29.9681 44.8532 29.8559 44.7347 29.6735C44.6123 29.4853 44.5765 29.2806 44.5765 29.0854V29.0777L44.5765 29.0777C44.5846 28.5528 44.5846 28.0252 44.5846 27.4931V27.4913C44.5846 26.9621 44.5846 26.4285 44.5928 25.8962M50.3194 33.3521C50.3191 33.3519 50.3188 33.3516 50.3185 33.3514L50.6325 32.9623M50.6325 32.9623L44.5928 25.8962M44.5928 25.8962C44.5928 25.8978 44.5928 25.8993 44.5928 25.9008H45.0928M44.5928 25.8962L45.4024 29.6067C45.1742 29.4845 45.0765 29.3542 45.0765 29.0854C45.0846 28.556 45.0846 28.0246 45.0846 27.4931C45.0846 26.9617 45.0846 26.4302 45.0928 25.9008M44.5928 25.8962C44.5942 25.6048 44.7319 25.294 44.9266 25.0992L44.9304 25.0955L44.9304 25.0955C45.2338 24.7985 45.3749 24.4762 45.3749 24.0845C45.3749 23.68 45.378 23.2794 45.3811 22.8811C45.388 21.9952 45.3948 21.1206 45.367 20.2397L43.4732 17.4722M44.5928 25.8962C44.5928 25.8952 44.5928 25.8941 44.5928 25.8931L45.0928 25.9008M45.0928 25.9008C45.0928 25.7461 45.1742 25.5587 45.2802 25.4528C45.6712 25.07 45.8749 24.6221 45.8749 24.0845C45.8749 23.6886 45.8779 23.2926 45.881 22.8966C45.888 22.0057 45.8949 21.1148 45.8667 20.2239C45.8178 18.709 45.0683 17.6339 43.6753 17.0149M38.1192 19.7434C38.028 20.9487 38.041 22.1592 38.0541 23.3707C38.0573 23.6738 38.0606 23.9769 38.0622 24.28M38.1192 19.7434C38.2414 18.1144 39.7486 16.8113 41.3779 16.7869M38.1192 19.7434L41.3779 16.7869M38.0622 24.28L38.5622 24.2773C38.5622 24.2761 38.5622 24.2749 38.5622 24.2737M38.0622 24.28L38.5621 24.2709C38.5621 24.2719 38.5622 24.2728 38.5622 24.2737M38.5622 24.2737C38.5605 23.9656 38.5572 23.6595 38.554 23.3551C38.541 22.1459 38.5284 20.9627 38.6178 19.7811L38.6178 19.7808C38.7189 18.4334 39.9903 17.3083 41.3843 17.2868M41.3843 17.2868C41.3847 17.2868 41.385 17.2868 41.3854 17.2868L41.3779 16.7869M41.3843 17.2868C41.5301 17.2853 41.6694 17.2818 41.8033 17.2784C42.4472 17.2622 42.965 17.2492 43.4732 17.4722M41.3779 16.7869C41.5048 16.7855 41.6319 16.782 41.7589 16.7785C42.4071 16.7605 43.0554 16.7425 43.6753 17.0149M43.6753 17.0149L43.4722 17.4718C43.4725 17.472 43.4728 17.4721 43.4732 17.4722M43.6753 17.0149L43.4741 17.4727C43.4738 17.4725 43.4735 17.4724 43.4732 17.4722M51.4146 37.1324H50.9747C50.9546 37.1324 50.9346 37.1324 50.9146 37.1324H51.4146Z" stroke="#2776EA"/>
<path d="M8.55405 34.2661C8.57849 33.7123 8.89621 33.2887 9.32799 32.9467C10.9329 31.6598 12.66 30.5602 14.4848 29.6236C14.7374 29.4933 14.8514 29.3548 14.8514 29.0535L8.55405 34.2661ZM8.55405 34.2661L9.05357 34.2881C9.0536 34.2874 9.05363 34.2867 9.05366 34.286C9.05369 34.2852 9.05372 34.2843 9.05375 34.2835L8.55405 34.2661ZM8.62341 36.6435L8.6147 36.6957L8.54591 37.1086L8.68301 36.6249M8.62341 36.6435C8.65619 36.6348 8.68312 36.6324 8.70023 36.6318C8.72019 36.6311 8.73173 36.6328 8.72856 36.6324C8.72539 36.632 8.71763 36.6309 8.69851 36.6276L8.68301 36.6249M8.62341 36.6435L8.62356 36.6426M8.62341 36.6435C8.61579 36.6455 8.60785 36.6478 8.59965 36.6505L8.62356 36.6426M8.68301 36.6249H8.6766L8.62356 36.6426M8.68301 36.6249L8.66755 36.6222L8.62809 36.6154L8.62356 36.6426M19.0984 17.35C20.4392 17.6333 21.3831 18.8238 21.3901 20.219L21.3901 20.2196C21.3956 21.0755 21.3938 21.9296 21.392 22.7862C21.391 23.2157 21.3901 23.6458 21.3901 24.077C21.3901 24.4574 21.2512 24.7697 20.9588 25.0751L20.9587 25.0751L20.9544 25.0797C20.7847 25.2615 20.6162 25.5556 20.6005 25.8683L20.6001 25.877L20.6 25.8856C20.5918 26.4189 20.5918 26.9536 20.5918 27.4838V27.4856C20.5918 28.0177 20.5918 28.5453 20.5837 29.0702L20.5836 29.0702V29.0779C20.5836 29.2789 20.6256 29.4807 20.7457 29.6643C20.8615 29.8412 21.0201 29.9549 21.1667 30.0363L21.1667 30.0363L21.1742 30.0404C21.709 30.3255 22.2365 30.618 22.7888 30.9243C22.871 30.9699 22.9538 31.0157 23.0372 31.062C21.3678 32.0264 19.771 33.104 18.2616 34.3159C17.5143 34.9153 16.9407 35.6691 16.663 36.6327C14.1256 36.6252 11.5811 36.6249 9.04428 36.6249L19.0984 17.35ZM19.2017 16.8608L19.0984 17.35L19.2017 16.8608ZM14.5774 20.079C14.5774 20.0789 14.5774 20.0788 14.5774 20.0788L14.0775 20.0698L14.5774 20.079ZM15.3351 25.9015C15.3351 25.8999 15.3351 25.8984 15.3351 25.8968C15.3351 25.8958 15.3351 25.8948 15.3351 25.8937L14.8351 25.9015H15.3351Z" stroke="#2776EA"/>
</svg>
