<svg width="62" height="62" viewBox="0 0 62 62" fill="none" xmlns="http://www.w3.org/2000/svg">
<path d="M60.9999 31.0391C61.008 47.6543 47.3627 61.2886 30.4506 60.9954C14.2147 60.7103 0.862578 47.4263 1.00107 30.7377C1.13141 14.2284 14.5975 0.846579 31.2815 1.00133C47.8922 1.15608 61.0488 14.6926 60.9999 31.0391ZM57.6354 31.0309C57.6354 16.3786 45.8556 4.5117 31.2489 4.38139C16.4549 4.25107 4.49591 16.1179 4.37371 30.7621C4.25151 45.6018 16.2187 57.5909 30.9638 57.6234C45.6519 57.656 57.6191 45.724 57.6354 31.0309Z" stroke="#2776EA"/>
<path d="M30.9652 42.0663C27.3644 42.0663 23.7635 42.0581 20.1627 42.0744C19.7798 42.0744 19.6739 41.9767 19.6821 41.5939C19.7147 40.7306 19.6902 39.8672 19.6902 39.0039C19.6902 38.2138 19.9835 37.5785 20.6026 37.0817C22.5334 35.5342 24.6027 34.2148 26.8023 33.099C27.1281 32.9361 27.2503 32.7406 27.2422 32.3741C27.2177 31.1361 27.2422 29.8981 27.2259 28.6601C27.2259 28.4809 27.12 28.2528 26.9896 28.1225C26.5334 27.6746 26.289 27.1533 26.289 26.5262C26.2809 24.9787 26.2727 23.423 26.289 21.8755C26.3135 19.5869 28.1546 17.7787 30.4438 17.7706C31.2992 17.7706 32.1628 17.7054 32.9937 18.0475C34.5823 18.6991 35.6088 20.1814 35.6251 21.9C35.6332 23.4393 35.6251 24.9705 35.6251 26.5099C35.6251 27.1615 35.3725 27.6909 34.9082 28.1388C34.7941 28.2528 34.6964 28.4483 34.6964 28.6112C34.6801 29.8736 34.7045 31.1361 34.6801 32.3985C34.6719 32.7732 34.8186 32.9523 35.1363 33.1071C37.3277 34.2148 39.3888 35.5342 41.3033 37.0736C41.9225 37.5704 42.2239 38.2057 42.2239 38.9876C42.2239 39.8754 42.2076 40.7631 42.232 41.6509C42.2402 41.993 42.1261 42.0663 41.8084 42.0663C38.1913 42.0581 34.5742 42.0663 30.9652 42.0663Z" stroke="#2776EA"/>
<path d="M36.8789 32.0727C37.8076 31.5596 38.6386 31.079 39.494 30.6311C39.7465 30.5008 39.8606 30.346 39.8606 30.0528C39.8443 29.0184 39.8687 27.9759 39.8443 26.9415C39.8443 26.7705 39.7384 26.5669 39.6162 26.4366C39.2985 26.1026 39.0704 25.728 39.0622 25.28C39.0541 23.7651 39.0052 22.2502 39.1192 20.7434C39.2414 19.1144 40.7486 17.8113 42.3779 17.7869C43.1518 17.7787 43.9339 17.6891 44.6753 18.0149C46.0683 18.6339 46.8178 19.709 46.8667 21.2239C46.9074 22.5108 46.8749 23.7977 46.8749 25.0845C46.8749 25.6221 46.6712 26.07 46.2802 26.4528C46.1742 26.5587 46.0928 26.7461 46.0928 26.9008C46.0765 27.9596 46.0928 29.0266 46.0765 30.0854C46.0765 30.3542 46.1742 30.4845 46.4024 30.6067C48.2598 31.5433 50.0032 32.6591 51.6325 33.9623C52.0969 34.3369 52.3901 34.8012 52.4064 35.3957C52.4309 36.2917 52.4146 37.1876 52.4146 38.1324C52.2435 38.1324 52.1132 38.1324 51.9747 38.1324C49.4248 38.1324 46.8749 38.1242 44.325 38.1405C44.0154 38.1405 43.8687 38.0754 43.7791 37.7414C43.5673 36.9188 43.0622 36.2672 42.4023 35.7378C40.8219 34.4591 39.1355 33.3433 37.3759 32.3415C37.2374 32.2763 37.1152 32.203 36.8789 32.0727Z" stroke="#2776EA"/>
<path d="M9.54591 38.1086C9.54591 37.1394 9.52147 36.2027 9.55405 35.2661C9.57849 34.7123 9.89621 34.2887 10.328 33.9467C11.9329 32.6598 13.66 31.5602 15.4848 30.6236C15.7374 30.4933 15.8514 30.3548 15.8514 30.0535C15.8351 29.0028 15.8514 27.9521 15.8351 26.9015C15.8351 26.7386 15.7374 26.5512 15.6233 26.4291C15.2812 26.0707 15.0693 25.6635 15.0693 25.1585C15.0693 23.7983 15.0531 22.4382 15.0775 21.0698C15.1101 19.2861 16.6254 17.7957 18.4095 17.7712C19.0042 17.7631 19.6233 17.7387 20.2017 17.8608C21.7822 18.1948 22.882 19.5956 22.8901 21.2164C22.8983 22.5033 22.8901 23.7902 22.8901 25.077C22.8901 25.6065 22.6865 26.0381 22.3199 26.4209C22.2058 26.5431 22.1081 26.7304 22.0999 26.8933C22.0836 27.9521 22.0999 29.0191 22.0836 30.0779C22.0836 30.3385 22.1895 30.477 22.4095 30.5992C23.2649 31.0553 24.1121 31.5358 25.049 32.0489C24.8372 32.1792 24.7068 32.2607 24.5684 32.334C22.8168 33.3277 21.1468 34.4435 19.5744 35.7059C18.8738 36.2679 18.3606 36.9602 18.1243 37.8398C18.0755 38.0272 18.0103 38.1412 17.7822 38.133C15.1101 38.1249 12.4298 38.1249 9.75772 38.1249C9.70884 38.1412 9.64367 38.1249 9.54591 38.1086Z" stroke="#2776EA"/>
</svg>
