<svg width="60" height="60" viewBox="0 0 60 60" fill="none" xmlns="http://www.w3.org/2000/svg">
<path d="M14.0066 44.4767C9.77365 44.4767 5.54069 44.4767 1.30774 44.4767C0.309727 44.4767 0 44.1745 0 43.2006C0.0172071 42.0084 -0.0344156 40.8162 0.0860343 39.6408C0.430177 36.4672 1.9444 34.9224 5.17934 34.4355C7.0205 34.1668 8.87887 34.0493 10.7372 33.7974C11.8213 33.6463 12.9225 33.4616 13.9206 33.0586C16.2263 32.1519 16.7769 30.0697 16.7253 28.3067C16.7253 28.1555 16.5705 27.9708 16.4328 27.8701C14.1615 26.2245 12.8709 24.0417 12.6472 21.2879C12.6128 20.9688 12.458 20.9017 12.1826 20.9017C11.4427 20.9017 10.6684 20.9353 9.94571 20.8177C7.89807 20.5155 6.45267 18.8196 6.40105 16.8046C6.36663 15.5285 6.5215 14.3027 7.4851 13.3456C7.94969 12.8922 8.55194 12.5396 9.13698 12.2206C9.4295 12.0694 9.53275 11.9351 9.54995 11.6161C9.61878 10.256 9.54995 8.8623 9.87689 7.56937C10.9781 3.03571 15.0046 0.0132669 19.7882 0.0132669C21.7498 0.0132669 23.7286 -0.0538977 25.6902 0.114016C30.0608 0.483425 33.8808 4.16073 34.4142 8.42572C34.5519 9.56754 34.5003 10.7261 34.5519 11.8847C34.5691 12.0694 34.6723 12.3381 34.81 12.4221C36.634 13.4799 37.1674 15.1087 36.9781 17.0397C36.7372 19.3737 34.9821 20.8681 32.5731 20.8849C32.1257 20.8849 31.6611 20.9017 31.2137 20.8849C30.904 20.8681 30.7835 20.9856 30.7663 21.2879C30.5426 24.0585 29.2349 26.2245 26.9808 27.8701C26.8431 27.9708 26.7055 28.1891 26.7055 28.357C26.5506 30.8254 28.0304 32.7732 30.4566 33.3944C30.7663 33.4784 30.9384 33.428 31.1277 33.1929C31.2653 33.0082 31.4546 32.8403 31.6095 32.6556C31.9536 32.2862 32.0397 31.8664 31.902 31.3795C31.4546 29.7171 32.0052 28.4074 33.4506 27.6014C34.8444 26.829 36.2898 27.0305 37.4943 28.1891C37.8729 28.5585 38.3031 28.6593 38.8365 28.5921C39.9377 28.4242 41.039 28.2899 42.1402 28.1555C42.6565 28.0884 43.0522 27.8701 43.3103 27.4167C44.1535 25.9727 45.5128 25.4018 47.0959 25.8215C48.6617 26.2245 49.5565 27.3831 49.5565 29.0119C49.5565 29.5828 49.7974 29.9522 50.262 30.288C51.1224 30.8925 51.9827 31.5138 52.7914 32.1687C53.256 32.5381 53.7206 32.6556 54.2885 32.5045C55.8887 32.0847 57.2481 32.6388 58.0396 33.9821C58.8656 35.3758 58.6763 36.7863 57.4718 37.9785C57.076 38.3647 56.9728 38.7845 57.0588 39.3218C57.2481 40.3628 57.3857 41.4039 57.489 42.445C57.5406 43.0159 57.7643 43.4021 58.2633 43.6707C59.6743 44.4599 60.2765 45.82 59.8808 47.2977C59.4678 48.8593 58.2977 49.766 56.6114 49.766C56.0092 49.766 55.6134 50.0346 55.2693 50.5048C54.667 51.3444 54.0304 52.1504 53.3593 52.9228C52.9807 53.3761 52.8431 53.8127 52.9979 54.3836C53.4453 55.9116 52.8603 57.2885 51.4493 58.0777C50.0555 58.8501 48.5585 58.6654 47.44 57.5572C47.0099 57.1206 46.5453 57.0198 45.9258 57.1374C44.945 57.3221 43.9298 57.4732 42.9318 57.5404C42.2779 57.5907 41.8305 57.809 41.5036 58.3799C40.8669 59.505 39.8517 60.0759 38.5267 59.9919C37.2018 59.9079 36.135 59.337 35.6015 58.0945C35.4295 57.6915 35.3434 57.2045 35.3434 56.768C35.3262 56.1635 35.1025 55.7605 34.5863 55.4079C33.726 54.8202 32.8828 54.1821 32.0569 53.5272C31.6095 53.1746 31.1793 53.0403 30.6115 53.1914C29.0112 53.628 27.6174 53.0739 26.8087 51.7138C26 50.3369 26.1892 48.8928 27.3593 47.751C27.7723 47.348 27.91 46.9115 27.7895 46.3573C27.6863 45.8872 27.5486 45.4338 27.5142 44.9637C27.4798 44.5439 27.2905 44.4767 26.9119 44.4767C23.6426 44.4935 20.356 44.4767 17.0867 44.4767C16.0714 44.4767 15.039 44.4767 14.0066 44.4767ZM49.7286 56.768C50.7782 56.6672 51.4321 55.8109 51.1568 54.8538C50.8298 53.6784 51.0707 52.6541 51.8967 51.7306C52.5161 51.0421 53.1184 50.3201 53.6002 49.5477C54.3229 48.4059 55.3381 47.8853 56.6975 47.9021C57.3857 47.9021 57.8503 47.5327 58.0052 46.8779C58.1773 46.1894 57.9708 45.6521 57.3341 45.3331C56.164 44.7286 55.6134 43.7715 55.5274 42.4953C55.4585 41.5886 55.3381 40.6651 55.1488 39.7751C54.9079 38.5662 55.1488 37.5251 56.078 36.652C56.6458 36.1146 56.7147 35.5941 56.3361 34.956C55.9576 34.318 55.4413 34.0997 54.7014 34.318C53.4281 34.6874 52.3613 34.3683 51.3805 33.512C50.7266 32.9411 50.0383 32.4205 49.3156 31.9672C48.1455 31.2619 47.5433 30.288 47.5777 28.9279C47.5949 28.2731 47.2336 27.8365 46.5969 27.6518C45.8226 27.4335 45.3236 27.635 44.9106 28.357C44.2911 29.4149 43.3619 29.9522 42.1058 30.0362C41.1594 30.1033 40.1958 30.2377 39.2666 30.4224C38.0449 30.6574 36.9953 30.4224 36.1005 29.566C35.4811 28.9615 34.9649 28.8776 34.2766 29.2806C33.6227 29.65 33.4506 30.1537 33.6743 30.9429C34.0013 32.0679 33.726 33.0418 32.986 33.9318C32.3322 34.7209 31.6955 35.5269 31.0933 36.3497C30.4222 37.2732 29.5446 37.7938 28.3745 37.7938C27.4626 37.7938 27.0324 38.0792 26.8259 38.8516C26.6194 39.5736 26.8431 40.0102 27.6346 40.4636C28.6843 41.0681 29.1833 41.958 29.2693 43.1334C29.3381 44.0569 29.4586 44.9972 29.6479 45.904C29.906 47.1465 29.6307 48.1876 28.7015 49.0775C28.1336 49.6149 28.0648 50.1354 28.4606 50.7735C28.8391 51.4115 29.3381 51.5962 30.0953 51.3947C31.3514 51.0589 32.4182 51.3444 33.3818 52.1839C34.0357 52.7548 34.7068 53.2922 35.4467 53.7287C36.6167 54.434 37.2534 55.3911 37.2018 56.7512C37.1846 57.4396 37.5804 57.9098 38.2686 58.0777C38.9741 58.2456 39.5075 58.0441 39.8517 57.4228C40.4884 56.2642 41.5036 55.7437 42.8285 55.6597C43.6889 55.6094 44.5664 55.5086 45.4096 55.3239C46.7173 55.0553 47.853 55.2735 48.7994 56.2474C49.0575 56.4657 49.4189 56.5833 49.7286 56.768ZM28.5638 22.8159C28.5294 22.7823 28.4778 22.7487 28.4434 22.7151C28.2369 22.7487 28.0476 22.7823 27.8411 22.8159C25.7763 23.2693 23.677 23.4708 21.5777 23.4708C20.9411 23.4708 20.5281 23.1349 20.5109 22.5976C20.4765 22.0099 20.8894 21.6405 21.5777 21.6237C23.763 21.5901 25.9139 21.3718 28.0476 20.8513C28.8563 20.6498 28.8563 20.6498 28.8391 19.827C28.8391 19.6088 28.8391 19.3905 28.8391 19.1722C28.8391 16.9725 28.8391 14.7896 28.8391 12.6907C27.9099 12.2542 27.0324 11.8512 26.172 11.3978C25.8795 11.2299 25.673 11.2131 25.3633 11.3474C22.9027 12.4221 20.4421 12.4053 17.9814 11.3306C17.7233 11.2131 17.5341 11.2299 17.2759 11.3642C16.5016 11.7504 15.7273 12.1198 14.9186 12.4389C14.6261 12.5564 14.54 12.6907 14.54 12.9762C14.54 15.562 14.5228 18.1479 14.54 20.7338C14.5572 23.7562 16.6737 26.4596 19.6677 27.3496C22.6446 28.2227 25.9139 27.0977 27.6174 24.579C27.9788 24.0249 28.2369 23.4036 28.5638 22.8159ZM1.82395 42.5625C10.3759 42.5625 18.7558 42.5625 27.1184 42.5625C27.1356 42.5121 27.1528 42.4785 27.17 42.4282C26.9291 42.2603 26.6882 42.0756 26.4301 41.9244C25.4837 41.3703 24.9331 40.5475 24.8815 39.4729C24.761 37.4076 26.1548 35.9467 28.2713 35.9299C28.8735 35.9299 29.3037 35.7116 29.579 35.1239C29.3381 35.0232 29.1317 34.956 28.9252 34.8721C28.7015 34.7713 28.4606 34.7042 28.2713 34.5698C28.0132 34.4019 27.8067 34.4523 27.5658 34.5866C23.9523 36.5344 20.2356 36.6687 16.45 35.1407C15.538 34.7713 14.7637 34.553 13.8861 35.0736C13.7485 35.1575 13.5936 35.1743 13.4388 35.1911C11.7353 35.4262 10.0317 35.6613 8.32825 35.8963C7.05492 36.081 5.76439 36.1818 4.50827 36.4505C3.25215 36.7191 2.39179 37.5419 2.1853 38.8012C1.96161 40.0438 1.9272 41.2696 1.82395 42.5625ZM12.6128 11.8847C12.6128 11.2299 12.63 10.6086 12.6128 9.98732C12.5784 8.37535 13.2667 7.116 14.5744 6.19248C15.1079 5.80628 15.6757 5.47045 16.2951 5.23537C19.9086 3.85848 23.5393 3.8249 27.1356 5.25216C29.5446 6.20927 30.9556 7.8884 30.7663 10.6086C30.6803 12.0023 30.7491 11.9855 32.1601 11.9519C32.5042 11.9351 32.6247 11.8344 32.6075 11.4985C32.5731 10.6758 32.6075 9.86978 32.5387 9.04701C32.1945 5.28575 28.8735 2.11218 25.0192 1.92748C23.1092 1.84352 21.182 1.82673 19.272 1.91069C16.2091 2.04502 13.9378 3.52266 12.4235 6.09173C11.5288 7.60295 11.3567 9.26529 11.4083 10.978C11.4255 12.0359 11.4083 12.0359 12.6128 11.8847ZM28.8047 10.5918C28.994 9.45 28.7187 8.49289 27.8067 7.82124C27.2045 7.38466 26.5162 6.98167 25.8107 6.74659C23.5049 5.94061 21.1476 5.90703 18.7558 6.39397C17.5513 6.64584 16.4156 7.04884 15.4692 7.85482C14.6433 8.57685 14.3507 9.48358 14.54 10.5918C15.366 10.3567 16.037 9.97053 16.6565 9.45C17.2587 8.94626 17.5685 8.92946 18.2395 9.36604C20.1323 10.575 23.2124 10.575 25.088 9.36604C25.7246 8.94625 26.0344 8.96305 26.6194 9.45C27.2905 9.95374 27.9788 10.3735 28.8047 10.5918ZM24.7438 28.9951C22.6618 29.65 20.6658 29.6332 18.6353 28.9951C18.4977 30.6407 17.9642 32.0679 16.8974 33.2769C19.1515 34.7209 24.5029 34.5866 26.2925 33.0418C25.3289 31.9 24.8815 30.5399 24.7438 28.9951ZM12.63 16.4352C12.63 15.6964 12.6128 14.9408 12.63 14.2019C12.63 13.8997 12.544 13.7654 12.2171 13.7822C11.6836 13.799 11.133 13.7654 10.5996 13.799C9.25743 13.8661 8.32825 14.7896 8.29383 16.0994C8.29383 16.3344 8.29383 16.5695 8.29383 16.8046C8.34545 18.0472 9.27464 18.9875 10.548 19.0378C11.0986 19.0546 11.6664 19.0378 12.2171 19.0546C12.5268 19.0714 12.6472 18.9539 12.63 18.6349C12.63 17.896 12.63 17.1572 12.63 16.4352ZM30.7147 19.0043C31.5406 19.0043 32.2978 19.0546 33.0377 18.9875C34.0873 18.9035 34.9477 17.9968 35.0337 16.9557C35.0509 16.6367 35.0509 16.3176 35.0337 15.9818C34.9821 14.924 34.2594 14.034 33.2097 13.8661C32.487 13.7486 31.7127 13.799 30.9728 13.799C30.8868 13.799 30.7319 13.9837 30.7319 14.0844C30.7147 15.7132 30.7147 17.3251 30.7147 19.0043Z" fill="#2776EA"/>
<path d="M42.3448 31.8516C48.5738 31.8348 53.5982 36.7211 53.6154 42.7828C53.6327 48.8276 48.591 53.7643 42.3964 53.7643C36.1846 53.7643 31.1602 48.8612 31.1602 42.7996C31.1602 36.7547 36.1674 31.8516 42.3448 31.8516ZM51.7227 42.766C51.7055 37.7789 47.5069 33.6987 42.3792 33.6819C37.2859 33.6651 33.0529 37.7957 33.0529 42.766C33.0529 47.7866 37.2343 51.8837 42.3964 51.8837C47.5413 51.9005 51.7227 47.8034 51.7227 42.766Z" fill="#2776EA"/>
</svg>
