<svg width="36" height="36" viewBox="0 0 36 36" fill="none" xmlns="http://www.w3.org/2000/svg">
<g clip-path="url(#clip0_456_13639)">
<path d="M16.7063 35.5999C15.6063 35.5999 14.5177 35.4968 13.4406 35.2905C12.3635 35.0614 11.3208 34.7405 10.3125 34.328C9.30417 33.9155 8.35313 33.4114 7.45938 32.8155C6.54271 32.1968 5.68333 31.4978 4.88125 30.7187C4.10208 29.9166 3.40313 29.0572 2.78437 28.1405C2.18854 27.2468 1.68438 26.2957 1.27188 25.2874C0.859375 24.2791 0.538542 23.2364 0.309375 22.1593C0.103125 21.0822 0 19.9937 0 18.8937C0 17.7707 0.103125 16.6707 0.309375 15.5937C0.538542 14.5166 0.859375 13.4796 1.27188 12.4827C1.68438 11.4859 2.18854 10.5291 2.78437 9.61241C3.40313 8.69575 4.10208 7.84783 4.88125 7.06866C5.68333 6.26658 6.54271 5.56762 7.45938 4.97179C8.35313 4.35304 9.30417 3.83741 10.3125 3.42492C11.3208 3.01241 12.3635 2.70304 13.4406 2.49679C14.5177 2.26762 15.6063 2.15304 16.7063 2.15304C17.8292 2.15304 18.9292 2.26762 20.0063 2.49679C21.0833 2.70304 22.1203 3.01241 23.1172 3.42492C24.1141 3.83741 25.0708 4.35304 25.9875 4.97179C26.9042 5.56762 27.7521 6.26658 28.5312 7.06866C29.3333 7.84783 30.0323 8.69575 30.6281 9.61241C31.2469 10.5291 31.7625 11.4859 32.175 12.4827C32.5875 13.4796 32.8969 14.5166 33.1031 15.5937C33.3323 16.6707 33.4469 17.7707 33.4469 18.8937C33.4469 19.9937 33.3323 21.0822 33.1031 22.1593C32.8969 23.2364 32.5875 24.2791 32.175 25.2874C31.7625 26.2957 31.2469 27.2468 30.6281 28.1405C30.0323 29.0572 29.3333 29.9166 28.5312 30.7187C27.7521 31.4978 26.9042 32.1968 25.9875 32.8155C25.0708 33.4114 24.1141 33.9155 23.1172 34.328C22.1203 34.7405 21.0833 35.0614 20.0063 35.2905C18.9292 35.4968 17.8292 35.5999 16.7063 35.5999ZM16.7063 3.90616C14.6438 3.90616 12.7073 4.30721 10.8969 5.10929C9.08646 5.88846 7.50521 6.95408 6.15313 8.30616C4.80104 9.65825 3.72396 11.2395 2.92188 13.0499C2.14271 14.8832 1.75313 16.8312 1.75313 18.8937C1.75313 20.9562 2.14271 22.8926 2.92188 24.703C3.72396 26.5135 4.80104 28.0947 6.15313 29.4468C7.50521 30.7989 9.08646 31.876 10.8969 32.678C12.7073 33.4572 14.6438 33.8468 16.7063 33.8468C18.7688 33.8468 20.7167 33.4572 22.55 32.678C24.3604 31.876 25.9417 30.7989 27.2938 29.4468C28.6458 28.0947 29.7115 26.5135 30.4906 24.703C31.2927 22.8926 31.6938 20.9562 31.6938 18.8937C31.6938 16.8312 31.2927 14.8832 30.4906 13.0499C29.7115 11.2395 28.6458 9.65825 27.2938 8.30616C25.9417 6.95408 24.3604 5.88846 22.55 5.10929C20.7167 4.30721 18.7688 3.90616 16.7063 3.90616ZM13.2 25.9062C13.0854 25.9062 12.9766 25.889 12.8734 25.8546C12.7703 25.8202 12.6729 25.7572 12.5813 25.6655L7.2875 20.3718C7.12708 20.2114 7.04688 20.0109 7.04688 19.7702C7.04688 19.5296 7.12708 19.3176 7.2875 19.1343C7.47083 18.9739 7.68281 18.8937 7.92344 18.8937C8.16406 18.8937 8.37604 18.9739 8.55937 19.1343L13.2 23.8093L24.8875 12.0874C25.0708 11.927 25.2828 11.8468 25.5234 11.8468C25.7641 11.8468 25.976 11.927 26.1594 12.0874C26.3198 12.2707 26.4 12.4827 26.4 12.7234C26.4 12.964 26.3198 13.176 26.1594 13.3593L13.8188 25.6655C13.7271 25.7572 13.6297 25.8202 13.5266 25.8546C13.4234 25.889 13.3146 25.9062 13.2 25.9062Z" fill="#2776EA"/>
</g>
<defs>
<clipPath id="clip0_456_13639">
<rect width="35.2" height="35.2" fill="white" transform="matrix(1 0 0 -1 0 35.5999)"/>
</clipPath>
</defs>
</svg>
