<svg width="60" height="60" viewBox="0 0 60 60" fill="none" xmlns="http://www.w3.org/2000/svg">
<path d="M12.6083 51.9455C13.4489 50.9941 14.4696 49.9159 15.4302 48.8377C15.9105 48.2668 16.4509 48.14 17.1113 48.4571C19.3328 49.5988 21.6143 50.677 24.0159 51.8821C23.9558 52.3261 23.7757 53.0238 23.5356 54.0386C21.134 53.0238 18.8525 52.1358 16.2708 51.0576C15.4302 51.9455 14.4696 53.0872 13.5089 54.1654C12.6083 55.1802 12.128 55.1168 11.2274 54.1654C9.30615 52.1358 7.44492 50.1696 5.52365 48.14C4.56301 47.1252 4.56301 46.6812 5.52365 45.603C6.30416 44.7784 7.02464 43.9539 7.8652 43.1294C8.34552 42.622 8.46559 42.2414 8.16539 41.5437C7.44492 39.9581 6.78448 38.3725 6.24413 36.7234C6.00397 36.0257 5.76381 35.8354 5.10337 35.8989C3.90258 35.9623 2.70179 35.8989 1.50099 35.8989C0.420278 35.8989 0 35.4549 0 34.3767C0 31.3957 0 28.4146 0 25.4336C0 24.3554 0.420278 23.9114 1.50099 23.9114C2.76183 23.9114 3.96262 23.9114 5.22345 23.9114C5.76381 23.9114 6.00397 23.7212 6.18409 23.1503C6.78448 21.4378 7.44492 19.7888 8.16539 18.0763C8.40555 17.5055 8.46559 17.1883 7.98528 16.7443C7.08468 15.9832 6.24413 14.9684 5.34353 14.017C4.68309 13.3828 4.68309 12.6851 5.28349 11.9874C7.32484 9.83096 9.30615 7.73792 11.3475 5.58145C12.068 4.82034 12.7284 4.88377 13.4489 5.64487C14.2894 6.59626 15.19 7.48421 16.0306 8.4356C16.4509 8.87958 16.7511 8.87958 17.2314 8.62588C18.7924 7.86477 20.4135 7.16709 21.9745 6.53283C22.5749 6.34256 22.8151 6.02543 22.755 5.4546C22.695 4.18609 22.755 2.91758 22.755 1.64907C22.755 0.380555 23.1153 0 24.256 0C27.0179 0 29.8397 0 32.6015 0C33.7423 0 34.0425 0.317129 34.1025 1.52221C34.1025 2.85415 34.1025 4.12266 34.1025 5.4546C34.1025 6.02543 34.2226 6.27913 34.763 6.53283C36.4441 7.23051 38.0652 7.99162 39.7463 8.6893C40.0465 8.81615 40.5868 8.6893 40.7669 8.49902C41.6675 7.61107 42.5081 6.65968 43.4087 5.77173C44.2492 4.88377 44.7296 4.88377 45.5701 5.77173C47.5514 7.86477 49.5327 9.95781 51.454 12.0509C52.2345 12.8754 52.2345 13.3828 51.454 14.2708C50.5534 15.2221 49.6528 16.1735 48.8123 17.1249C48.6321 17.3786 48.5121 17.9494 48.6321 18.2666C49.2926 20.0425 49.953 21.8184 50.7335 23.5309C50.8536 23.848 51.3339 24.1651 51.6341 24.1651C52.895 24.2286 54.0957 24.1651 55.3566 24.1651C56.4973 24.1651 56.9176 24.6091 56.9176 25.8142C56.9176 28.6684 56.9176 31.5859 56.9176 34.4401C56.9176 35.8354 56.5574 36.216 55.2365 36.216C54.7562 36.216 54.2759 36.216 53.6755 36.216C53.6755 35.5183 53.6755 34.9475 53.6755 34.3132C53.6755 34.1229 53.7956 33.8692 53.8556 33.8692C54.9363 33.8058 54.6361 32.9179 54.6361 32.2836C54.6361 30.4443 54.6361 28.6049 54.6361 26.5753C53.1952 26.5753 51.8743 26.5119 50.6135 26.5753C49.5327 26.6387 49.1125 26.1948 48.7522 25.1165C48.0317 22.8966 47.1912 20.7402 46.2306 18.6471C45.7502 17.6323 45.7502 16.9346 46.5308 16.1735C47.4914 15.2221 48.392 14.2708 49.2926 13.3828C47.6115 11.6069 46.1105 9.95781 44.3693 8.11847C43.5288 9.06985 42.5681 10.0847 41.6675 11.1629C41.0071 11.924 40.4067 11.924 39.5061 11.48C37.4047 10.4652 35.2433 9.51383 33.0819 8.6893C32.1813 8.37217 31.821 7.86477 31.821 6.91339C31.821 5.51802 31.821 4.12266 31.821 2.60045C29.5395 2.60045 27.3781 2.60045 25.0365 2.60045C25.0365 3.99581 24.9765 5.39117 25.0365 6.72311C25.0966 7.80134 24.6163 8.24532 23.5956 8.62588C21.4942 9.38698 19.4529 10.3384 17.4715 11.3532C16.5709 11.7337 15.9706 11.7972 15.3101 11.036C14.4095 9.95781 13.5089 8.943 12.6684 8.05505C10.9272 9.83096 9.36619 11.48 7.62504 13.3194C8.52563 14.2073 9.54631 15.2221 10.567 16.1735C11.2274 16.8078 11.2274 17.442 10.8672 18.33C9.90655 20.4865 9.00595 22.6429 8.28547 24.8628C7.92524 25.9411 7.50496 26.5119 6.36421 26.385C5.28349 26.3216 4.20278 26.3216 3.06202 26.385C2.82186 26.385 2.40159 26.829 2.40159 27.0827C2.34155 29.1758 2.34155 31.2688 2.34155 33.5521C3.66242 33.5521 4.98329 33.6155 6.24413 33.5521C7.38488 33.4887 7.8652 33.9961 8.22544 35.1378C8.94591 37.3577 9.84651 39.5141 10.8071 41.6072C11.2274 42.5585 11.2274 43.1928 10.5069 43.8905C9.54631 44.8419 8.58567 45.8567 7.68508 46.8081C9.36619 48.5205 10.9272 50.1696 12.6083 51.9455Z" fill="#2776EA"/>
<path d="M42.4481 60.0001C37.1646 60.0001 31.9411 60.0001 26.6577 60.0001C24.9165 60.0001 24.4962 59.239 25.3368 57.6533C30.5002 47.8224 35.7236 37.9914 40.8871 28.2239C41.2473 27.5262 41.5475 26.3845 42.5081 26.5748C43.1085 26.7016 43.6489 27.5896 44.0091 28.2239C49.2326 38.0548 54.456 47.8858 59.6194 57.7802C60.4 59.239 59.9797 60.0001 58.3586 60.0001C53.1352 60.0001 47.7916 60.0001 42.4481 60.0001ZM42.5081 30.1901C37.5849 39.4502 32.8417 48.4566 28.0386 57.5265C37.765 57.5265 47.2513 57.5265 56.9177 57.5265C52.1145 48.3932 47.3713 39.3868 42.5081 30.1901Z" fill="#2776EA"/>
<path d="M42.2681 23.4674C41.6077 23.7846 41.0073 24.1017 40.2868 24.4188C38.3656 20.3596 35.4236 17.6957 31.2209 16.6809C28.399 15.9832 25.6972 16.3638 23.0555 17.5688C17.832 20.1059 14.83 26.0044 15.6706 32.0299C16.3911 36.9771 20.1135 43.0659 28.2789 43.6367C28.2789 44.3344 28.2789 45.0955 28.2789 45.7932C23.7759 46.4275 16.0909 42.6219 13.8093 34.44C11.5278 26.0679 15.8507 17.3151 23.7159 14.6513C31.8813 11.9874 39.6264 16.7443 42.2681 23.4674Z" fill="#2776EA"/>
<path d="M43.3487 48.0764C43.1685 48.1398 42.9884 48.1398 42.8083 48.2033C41.1272 48.3301 41.1272 48.3301 41.1272 46.6176C41.1272 44.6514 41.1272 42.6852 41.1272 40.719C41.1272 39.2603 41.1272 39.2603 42.5081 39.2603C42.7483 39.2603 42.9884 39.3237 43.3487 39.3237C43.3487 42.2413 43.3487 45.0954 43.3487 48.0764Z" fill="#2776EA"/>
<path d="M41.3073 50.8672C42.0278 50.8672 42.6882 50.8672 43.4087 50.8672C43.4087 51.6283 43.4087 52.326 43.4087 53.0871C41.2473 53.5945 40.887 53.2139 41.3073 50.8672Z" fill="#2776EA"/>
</svg>
