<svg width="61" height="69" viewBox="0 0 61 69" fill="none" xmlns="http://www.w3.org/2000/svg">
<path d="M26.7694 8.16659C26.847 7.92517 26.8859 7.87343 26.8859 7.8217C27.1188 5.1488 27.1188 5.1488 30.2836 5.1488C31.0408 5.1488 31.798 5.1488 32.4969 5.1488C34.089 1.14808 35.7005 -0.128009 38.8458 0.00994714C41.6028 0.130659 43.3696 1.71715 44.3598 5.1488C45.5635 5.1488 46.8449 5.13156 48.1264 5.1488C49.8155 5.18329 49.8738 5.25227 49.9514 6.68356C49.9708 7.13192 50.0097 7.58028 50.0485 8.14934C50.6698 8.18383 51.2328 8.25281 51.7959 8.27006C53.9898 8.2873 56.1838 8.25281 58.3777 8.30455C59.698 8.33903 59.9504 8.5977 60.0475 9.73584C60.0863 10.1842 60.0475 10.6498 60.0669 11.1154C60.0863 21.9967 60.0863 32.8779 60.1445 43.7765C60.1445 44.6042 59.8921 45.1905 59.1932 45.7078C56.1255 47.9841 53.0773 50.2776 50.0679 52.6056C49.233 53.2609 48.3399 53.4851 47.2527 53.4679C44.418 53.4334 41.5834 53.4851 38.7487 53.4334C37.7003 53.4161 36.9236 53.6575 36.2635 54.4335C31.7009 59.8311 22.6339 61.0382 16.3627 56.9857C16.1103 56.8305 15.8191 56.7098 15.4696 56.5546C14.46 57.1582 13.9358 57.9514 13.4115 58.9171C12.499 60.5898 11.2953 62.2281 9.87792 63.5731C8.26644 65.1079 6.28606 66.3322 4.42218 67.6428C3.9368 67.9877 3.29609 68.1774 2.69421 68.3843C1.95642 68.6603 1.16039 68.781 0.539092 68.1774C-0.0822029 67.5911 0.150783 66.8841 0.422599 66.2288C1.16039 64.4698 2.50005 63.0558 3.91738 61.728C6.24723 59.5724 8.69358 57.5548 12.033 56.6408C12.6932 56.4512 13.198 55.7959 13.8969 55.2613C13.5086 54.7267 13.198 54.2439 12.8485 53.7955C8.48001 48.3807 9.70318 40.2586 15.8191 36.2579C16.7898 35.6198 16.9451 34.8611 16.9451 33.8954C16.9257 26.325 16.9451 18.7719 16.9451 11.2016C16.9451 10.805 16.9257 10.3911 16.9451 9.9945C17.0034 8.58046 17.2946 8.2873 18.8867 8.27006C21.2165 8.23557 23.527 8.25281 25.8568 8.25281C26.0704 8.27006 26.3811 8.20108 26.7694 8.16659ZM58.1253 43.8972C58.1253 32.602 58.1253 21.4448 58.1253 10.3221C56.0479 9.92553 51.3882 9.97726 50.0291 10.3911C49.9902 10.5463 49.932 10.7188 49.932 10.874C49.7767 13.1675 49.7767 13.1675 47.2527 13.1675C41.894 13.1675 36.5353 13.1675 31.1961 13.1675C30.4195 13.1675 29.6429 13.202 28.8662 13.1675C27.4877 13.0985 27.1771 12.8398 27.0024 11.65C26.9247 11.1671 26.8664 10.667 26.8082 10.2014C24.1289 10.2014 21.6437 10.2014 19.0032 10.2014C19.0032 18.3063 19.0032 26.2905 19.0032 34.4127C25.0802 32.5503 30.5166 33.2918 35.0209 37.2753C39.5836 41.2932 40.3408 46.1734 38.341 51.5365C41.5834 51.5365 44.5928 51.5365 47.6798 51.5365C47.8545 49.8638 47.971 48.2773 48.1652 46.6908C48.3399 45.294 48.3593 45.2595 50.0097 45.0181C52.6696 44.6214 55.3295 44.2765 58.1253 43.8972ZM24.6919 57.4513C31.3514 57.4686 37.1955 53.0885 37.2537 46.5528C37.312 40.1379 32.1669 35.3784 24.8472 35.3611C17.0034 35.3439 12.3631 40.8104 12.3631 46.5011C12.3825 52.4677 17.9742 57.4341 24.6919 57.4513ZM48.1652 6.37316C46.8449 6.37316 45.6412 6.37316 44.4374 6.37316C42.5153 6.35592 42.5153 6.35592 42.4376 4.71769C42.3406 2.80355 40.5349 1.23431 38.4381 1.25155C36.3412 1.25155 34.5161 2.85529 34.4579 4.75218C34.4385 5.23503 34.4579 5.71787 34.4579 6.4249C32.3998 6.4249 30.5748 6.4249 28.7497 6.4249C28.7497 8.27006 28.7497 9.90828 28.7497 11.581C35.2733 11.581 41.6804 11.581 48.1846 11.581C48.1652 9.8393 48.1652 8.21832 48.1652 6.37316Z" fill="#2776EA"/>
<path d="M23.5463 48.6387C25.449 46.8626 27.2546 45.1726 29.0797 43.4826C29.4874 43.1205 29.8951 42.7411 30.3999 42.4997C30.6524 42.379 31.2154 42.448 31.4096 42.6204C31.6037 42.8101 31.662 43.2585 31.5649 43.5344C31.4678 43.8448 31.1377 44.1034 30.8659 44.3276C28.8661 46.1038 26.8858 47.8972 24.8665 49.6389C23.7599 50.6046 23.4104 50.6391 22.2455 49.8286C20.7311 48.7767 19.2749 47.6386 17.8187 46.5349C17.3139 46.1555 16.7897 45.7072 17.3916 45.1036C18.0129 44.4828 18.5759 44.9657 19.0613 45.3278C20.4398 46.328 21.7989 47.3454 23.5463 48.6387Z" fill="#2776EA"/>
<path d="M40.5341 4.56271C40.5341 5.39044 39.5245 6.26991 38.5343 6.32164C37.4471 6.37338 36.3792 5.44217 36.4375 4.51097C36.4763 3.66599 37.5053 2.83826 38.5149 2.83826C39.4857 2.83826 40.5341 3.73497 40.5341 4.56271Z" fill="#2776EA"/>
<rect x="22.8872" y="22.8643" width="30.7505" height="1.31953" rx="0.659767" fill="#2776EA"/>
<rect x="22.8872" y="19.787" width="30.7505" height="1.31953" rx="0.659767" fill="#2776EA"/>
<rect x="22.8872" y="25.9436" width="30.7505" height="1.31953" rx="0.659767" fill="#2776EA"/>
<rect x="22.8872" y="29.021" width="30.7505" height="1.31953" rx="0.659767" fill="#2776EA"/>
<rect x="33.801" y="32.1003" width="19.8391" height="1.31953" rx="0.659767" fill="#2776EA"/>
<rect x="36.2786" y="35.1818" width="17.3592" height="1.31953" rx="0.659767" fill="#2776EA"/>
<rect x="38.7601" y="38.2589" width="14.8793" height="1.31953" rx="0.659767" fill="#2776EA"/>
</svg>
