<svg width="68" height="60" viewBox="0 0 68 60" fill="none" xmlns="http://www.w3.org/2000/svg">
<path d="M16.8464 33.6426C18.4478 33.6426 20.0217 33.6426 21.6048 33.6426C21.6048 29.9383 21.6048 26.234 21.6048 22.4663C21.376 22.4663 21.2113 22.4663 21.0466 22.4663C19.9211 22.4663 18.7955 22.4108 17.6791 22.4742C15.2724 22.617 13.2867 21.1971 13.2409 18.8889C12.2984 18.8889 11.3559 18.8889 10.4133 18.8889C9.40672 18.8889 9.27861 18.8016 9.03154 17.937C8.73871 16.9297 8.44589 15.9302 8.15306 14.9228C7.96089 14.2407 8.27202 13.8441 9.06814 13.9075C10.2212 14.0027 11.1271 13.6616 12.0696 13.1064C19.0975 8.94996 26.1528 4.84113 33.1989 0.716425C33.9127 0.296023 34.0591 0.296023 34.7637 0.716425C42.0021 5.0315 49.2404 9.3545 56.4879 13.6616C56.7166 13.7965 57.0278 13.8599 57.3114 13.8837C57.7507 13.9234 58.1991 13.8837 58.6383 13.8996C59.2148 13.9155 59.5626 14.2962 59.4253 14.7801C59.0959 15.9461 58.7664 17.1121 58.4279 18.2781C58.2997 18.7144 58.0252 18.881 57.4487 18.8889C56.5611 18.8968 55.6826 18.8889 54.795 18.8889C54.6394 18.8889 54.4838 18.8889 54.3283 18.8889C54.2642 19.2696 54.2459 19.6266 54.1453 19.9597C53.889 20.7847 53.3491 21.443 52.5164 21.911C52.2968 22.03 52.187 22.1569 52.1961 22.3949C52.251 26.1468 52.2876 29.8987 52.3242 33.6506C52.3242 33.9837 52.4615 34.182 52.7635 34.3883C53.8341 35.0863 54.2917 36.054 54.2917 37.2518C55.28 37.2518 56.2591 37.2518 57.2291 37.2518C58.1076 37.2518 58.2814 37.3707 58.5011 38.1164C58.803 39.1475 59.0959 40.1787 59.3887 41.2099C59.5809 41.9 59.2514 42.249 58.437 42.249C51.0248 42.249 43.6218 42.249 36.2096 42.249C27.2234 42.249 18.2281 42.249 9.24201 42.249C8.21711 42.249 7.95174 41.9476 8.19881 41.075C8.49164 40.0518 8.78447 39.0365 9.06814 38.0132C9.24201 37.4104 9.47993 37.2438 10.1937 37.2438C11.2003 37.2438 12.216 37.2438 13.2501 37.2438C13.2592 36.1333 13.6436 35.1577 14.6593 34.4834C15.126 34.1741 15.2267 33.8568 15.2267 33.3888C15.2358 30.7712 15.2816 28.1615 15.3182 25.5439C15.3273 24.957 15.7483 24.5842 16.279 24.6793C16.7183 24.7587 16.9379 25.0284 16.9287 25.5122C16.9013 27.5349 16.8738 29.5655 16.8464 31.5882C16.8372 32.2545 16.8464 32.9287 16.8464 33.6426ZM53.889 13.8758C53.7975 13.7886 53.7701 13.7568 53.7335 13.733C47.2364 9.85422 40.7393 5.98335 34.2513 2.10455C34.0225 1.9697 33.8761 2.00936 33.6656 2.12834C27.0953 5.98335 20.525 9.83043 13.9455 13.6696C13.8632 13.7172 13.7442 13.733 13.6436 13.7568C13.6893 13.7965 13.7351 13.8361 13.7808 13.8758C27.1228 13.8758 40.4647 13.8758 53.889 13.8758ZM25.2652 18.9048C25.2286 20.2294 24.6429 21.2447 23.3984 21.9666C23.2886 22.03 23.1879 22.1966 23.1879 22.3235C23.2154 26.1706 23.252 30.0177 23.2977 33.8647C23.2977 33.9758 23.3526 34.1265 23.4441 34.182C24.6887 34.9038 25.2469 35.935 25.2835 37.22C26.1985 37.22 27.0862 37.22 28.0196 37.22C28.0196 37.109 28.0196 37.0138 28.0196 36.9186C28.0653 35.8398 28.5961 34.9673 29.5935 34.3327C29.8589 34.1662 29.9412 33.9917 29.9412 33.722C29.9321 31.025 29.9321 28.3281 29.9412 25.6312C29.9412 25.4567 29.9595 25.2743 30.0236 25.1077C30.1883 24.7031 30.7282 24.5445 31.1492 24.7587C31.4969 24.9332 31.5518 25.2187 31.5518 25.536C31.5426 28.0822 31.5518 30.6284 31.5518 33.1746C31.5518 33.3174 31.5518 33.4681 31.5518 33.6188C33.2081 33.6188 34.8003 33.6188 36.3194 33.6188C36.3194 29.8828 36.3194 26.1865 36.3194 22.4584C36.0357 22.4584 35.8618 22.4584 35.6971 22.4584C34.3886 22.4584 33.0708 22.4742 31.7623 22.4504C30.0877 22.4108 28.7059 21.4906 28.2117 20.1025C28.0745 19.7218 28.0379 19.3093 27.9464 18.9048C27.0587 18.9048 26.1802 18.9048 25.2652 18.9048ZM50.613 33.6426C50.613 29.8987 50.613 26.1944 50.613 22.4663C50.3476 22.4663 50.1738 22.4663 50.0091 22.4663C48.6639 22.4663 47.3279 22.4822 45.9827 22.4504C44.7748 22.4187 43.8139 21.9348 43.0819 21.1099C42.5145 20.4674 42.2857 19.7297 42.2949 18.9286C41.4988 18.9286 40.7392 18.9286 39.9797 18.9286C39.9706 20.2612 39.3575 21.2765 38.0947 21.9983C37.9757 22.0617 37.9116 22.2759 37.9116 22.4187C37.9482 26.0199 38.0031 29.6211 38.0214 33.2222C38.0214 33.8013 38.1404 34.2138 38.7169 34.6024C39.6503 35.2449 40.0072 36.1889 39.9797 37.228C40.7759 37.228 41.5354 37.228 42.2949 37.228C42.4047 35.7447 42.725 35.2211 44.0519 34.2217C44.1708 34.1265 44.2257 33.9203 44.2257 33.7616C44.2349 31.0647 44.2349 28.3678 44.2349 25.6709C44.2349 25.4964 44.244 25.3139 44.3081 25.1473C44.4362 24.8063 44.7565 24.6397 45.15 24.6952C45.5434 24.7428 45.7997 24.957 45.8363 25.3298C45.8454 25.4646 45.8454 25.5995 45.8454 25.7423C45.8454 28.2329 45.8454 30.7236 45.8454 33.2143C45.8454 33.3571 45.8454 33.4999 45.8454 33.6585C47.4834 33.6426 49.0665 33.6426 50.613 33.6426ZM56.982 38.6399C56.7349 38.6399 56.5153 38.6399 56.2957 38.6399C41.2425 38.6399 26.1894 38.6399 11.1362 38.6399C11.0264 38.6399 10.9075 38.6161 10.8068 38.6478C10.6878 38.6875 10.5323 38.7509 10.5048 38.8302C10.3035 39.4886 10.1205 40.147 9.92832 40.8291C25.8325 40.8291 41.7001 40.8291 57.6134 40.8291C57.403 40.0915 57.1925 39.3776 56.982 38.6399ZM9.92832 15.3036C10.1022 15.8985 10.2852 16.4537 10.4042 17.0169C10.4865 17.4135 10.697 17.4929 11.1362 17.4929C26.1253 17.4849 41.1144 17.4849 56.1035 17.4849C56.3232 17.4849 56.5519 17.5008 56.7624 17.4691C56.8539 17.4611 56.9912 17.3739 57.0186 17.2945C57.2291 16.6441 57.4121 15.9778 57.6134 15.2957C41.7092 15.3036 25.8508 15.3036 9.92832 15.3036ZM52.6171 37.228C52.7543 36.1968 51.9124 35.1656 50.7503 35.118C49.094 35.0466 47.4377 35.0466 45.7814 35.118C44.6284 35.1735 43.7865 36.2364 43.9604 37.228C46.852 37.228 49.7345 37.228 52.6171 37.228ZM23.618 37.22C23.6729 35.9985 22.7212 35.0942 21.3303 35.0625C19.9394 35.0308 18.5484 35.0308 17.1666 35.0625C15.7574 35.0942 14.8698 35.9588 14.8972 37.22C17.7889 37.22 20.6897 37.22 23.618 37.22ZM29.6393 37.22C32.5309 37.22 35.4226 37.22 38.3143 37.22C38.4058 36.0857 37.5548 35.1418 36.2919 35.0942C34.7363 35.0387 33.1715 35.0387 31.6067 35.1021C30.3805 35.1497 29.5478 36.1175 29.6393 37.22ZM14.8698 18.9127C14.9704 20.3643 15.8306 21.0702 17.4503 21.0702C18.7955 21.0702 20.1407 21.0861 21.4767 21.0544C22.7487 21.0226 23.7278 20.0232 23.5997 18.9127C20.6989 18.9127 17.8072 18.9127 14.8698 18.9127ZM29.6393 18.9048C29.5661 20.0549 30.4628 21.0068 31.6799 21.0385C33.2264 21.0782 34.7729 21.0782 36.3102 21.0385C37.5273 21.0068 38.4607 19.9756 38.296 18.9048C35.4226 18.9048 32.5492 18.9048 29.6393 18.9048ZM52.6354 18.9206C49.7162 18.9206 46.8246 18.9206 43.9329 18.9206C43.9146 20.2136 44.8388 21.0464 46.2847 21.0623C47.6847 21.0702 49.094 21.0782 50.4941 21.0544C51.7843 21.0226 52.7269 20.0629 52.6354 18.9206Z" fill="#2776EA"/>
<path d="M33.9863 46.7547C23.8563 46.7547 13.7263 46.7547 3.59629 46.7547C1.83017 46.7547 0.503297 45.898 0.100659 44.494C0.0183014 44.2085 0 43.8991 0 43.5977C0 33.5319 0 23.466 0 13.4001C0 11.9248 0.905935 10.8143 2.43413 10.4177C2.69035 10.3542 2.95573 10.2987 3.2211 10.2908C4.46562 10.2749 5.71928 10.2828 6.9638 10.2828C7.32983 10.2828 7.65926 10.4097 7.74162 10.7191C7.79653 10.9412 7.75992 11.2505 7.61351 11.433C7.49455 11.5837 7.15597 11.6709 6.91805 11.6709C5.81079 11.6947 4.70354 11.6789 3.59629 11.6789C2.37007 11.6789 1.62885 12.2976 1.62885 13.3446C1.6197 23.466 1.62885 33.5874 1.62885 43.7088C1.62885 44.6686 2.34262 45.2952 3.44987 45.3428C3.59629 45.3507 3.73355 45.3428 3.87996 45.3428C23.9661 45.3428 44.0431 45.3428 64.1292 45.3428C64.4129 45.3428 64.6965 45.3269 64.9802 45.2873C65.7031 45.1683 66.2522 44.6606 66.3437 44.034C66.3895 43.6929 66.3895 43.3518 66.3895 43.0107C66.3895 33.2146 66.3895 23.4263 66.3895 13.6302C66.3895 13.3446 66.3894 13.0511 66.2979 12.7735C66.0966 12.1151 65.392 11.6868 64.5501 11.6789C63.4154 11.6709 62.2716 11.6789 61.1369 11.6789C60.5146 11.6789 60.176 11.433 60.176 10.9888C60.176 10.5604 60.5329 10.2828 61.1277 10.2828C62.2167 10.2749 63.3056 10.2828 64.3946 10.2828C66.5176 10.2828 67.9634 11.5123 68 13.3526C68 13.4239 68 13.4874 68 13.5588C68 23.5612 68 33.5557 68 43.5581C68 45.5173 66.5633 46.7547 64.2939 46.7547C54.1731 46.7547 44.0797 46.7547 33.9863 46.7547Z" fill="#2776EA"/>
<path d="M26.7025 57.9234C31.5708 57.9234 36.3933 57.9234 41.2798 57.9234C41.1151 57.1857 40.9596 56.4639 40.7949 55.75C40.3465 53.7987 39.8889 51.8395 39.4405 49.8882C39.3307 49.4123 39.5503 49.0712 40.0262 48.9681C40.4929 48.8729 40.8864 49.1108 41.0053 49.5788C41.4537 51.4667 41.8838 53.3466 42.323 55.2344C42.5061 56.0197 42.7165 56.8129 42.8629 57.6061C42.9179 57.9075 43.0734 57.9472 43.3662 57.9393C45.0134 57.9313 46.6514 57.9313 48.2986 57.9393C48.9391 57.9393 49.3143 58.201 49.3143 58.6294C49.3143 59.0656 48.9391 59.3353 48.2986 59.3353C38.7542 59.3353 29.219 59.3353 19.6747 59.3353C19.2354 59.3353 18.8603 59.2401 18.7047 58.8277C18.5857 58.5104 18.7047 58.2407 19.0067 58.0741C19.1805 57.9789 19.4185 57.9472 19.6289 57.9393C21.2852 57.9313 22.9415 57.9313 24.607 57.9393C24.8998 57.9393 25.0371 57.8996 25.1103 57.6061C25.7142 54.9409 26.3365 52.2837 26.9588 49.6185C27.0777 49.1029 27.4621 48.857 27.9379 48.9601C28.432 49.0632 28.6334 49.4043 28.5144 49.9199C27.9104 52.5296 27.3065 55.1392 26.7025 57.7489C26.6934 57.7965 26.7025 57.8362 26.7025 57.9234Z" fill="#2776EA"/>
<path d="M37.885 8.29109C37.885 10.1789 36.1555 11.6781 33.9776 11.6781C31.7997 11.6781 30.0793 10.1789 30.0793 8.28316C30.0793 6.40325 31.8272 4.88028 33.9868 4.88821C36.1555 4.89615 37.8942 6.41118 37.885 8.29109ZM31.6899 8.27523C31.6807 9.37779 32.6873 10.2662 33.941 10.2821C35.2313 10.29 36.2653 9.41745 36.2745 8.30696C36.2745 7.18853 35.2496 6.2922 33.9776 6.30013C32.7056 6.30013 31.699 7.1806 31.6899 8.27523Z" fill="#2776EA"/>
</svg>
