<svg width="62" height="61" viewBox="0 0 62 61" fill="none" xmlns="http://www.w3.org/2000/svg">
<path d="M40.8117 41.9063C40.2031 41.9686 39.6799 42.1114 39.2701 42.4029C38.854 42.6989 38.5801 43.13 38.4374 43.7167C38.3207 44.116 38.1319 44.3269 37.9026 44.4243C37.6626 44.5263 37.324 44.5278 36.8643 44.3881C36.5292 44.2567 36.2158 44.1835 35.9097 44.1119C35.7854 44.0828 35.6623 44.054 35.5394 44.0217C35.1104 43.9002 34.8061 43.8137 34.5843 43.727C34.3611 43.6398 34.2626 43.5672 34.2114 43.4976C34.1637 43.4326 34.1312 43.3346 34.1321 43.1291C34.1331 42.92 34.1672 42.6441 34.2171 42.2463C34.3314 41.3342 33.7429 40.4722 32.9684 39.9255C32.1896 39.3758 31.1424 39.0846 30.227 39.388C29.8131 39.5252 29.5205 39.6219 29.2914 39.6731C29.0639 39.7239 28.9347 39.7209 28.8387 39.6891C28.7441 39.6578 28.6438 39.5862 28.502 39.415C28.3595 39.2431 28.1979 38.9996 27.969 38.6534C27.9357 38.5919 27.9014 38.5265 27.8658 38.4587C27.7072 38.1566 27.5235 37.8064 27.2951 37.5411C27.0291 37.1851 26.9967 36.9541 27.0531 36.77C27.118 36.5581 27.3206 36.3283 27.7104 36.0293L27.7118 36.0282C28.6269 35.3153 29.0134 34.3256 28.8768 33.3786C28.7405 32.4332 28.0888 31.5679 27.0057 31.0854L27.0058 31.0854L27.0018 31.0837C26.5756 30.9026 26.3343 30.7468 26.2247 30.5714C26.1318 30.423 26.1021 30.2033 26.2829 29.7873L26.2829 29.7873L26.2851 29.7819C26.4886 29.2823 26.6229 28.7858 26.7545 28.2406L26.7547 28.2406L26.7565 28.2318C26.8497 27.7743 27.0112 27.4709 27.224 27.3142C27.4227 27.1678 27.7217 27.1101 28.1962 27.2739L28.2251 27.2839L28.2556 27.2866C30.4431 27.4815 32.1885 25.3336 31.3873 23.3889L31.3873 23.3889L31.3854 23.3845C31.1978 22.9526 31.1805 22.6849 31.2574 22.4929C31.3353 22.2981 31.539 22.1075 31.9802 21.9043L31.9857 21.9018C32.3749 21.7227 32.7788 21.5367 33.184 21.288L33.1938 21.282L33.2029 21.2751C33.703 20.9011 34.0922 20.7802 34.4203 20.8325C34.7497 20.885 35.091 21.1235 35.4674 21.6432C35.6396 21.8811 35.954 22.0691 36.2672 22.1892C36.5851 22.3112 36.9541 22.3834 37.2685 22.3472L37.2685 22.3472L37.2725 22.3467C37.477 22.3198 37.6788 22.3019 37.8869 22.2834C38.0279 22.2708 38.1718 22.258 38.3213 22.242C38.6778 22.2039 39.0434 22.1489 39.3808 22.0345C39.721 21.9191 40.0402 21.7408 40.2969 21.4518C40.5453 21.1724 40.7217 20.8046 40.813 20.3263C40.8245 20.3156 40.8417 20.3013 40.8659 20.2842C40.9254 20.2419 41.0091 20.1947 41.1059 20.1502C41.2965 20.0624 41.4901 20.0067 41.603 20.0005C42.563 20.1785 43.4574 20.4146 44.2869 20.7083L44.2967 20.7118L44.3067 20.7145C44.6924 20.8159 44.825 20.9985 44.8723 21.1824C44.927 21.3949 44.8823 21.6661 44.7888 21.9548C44.6149 22.4062 44.5789 22.8109 44.7395 23.1656C44.8985 23.5169 45.2247 23.7611 45.6395 23.9521C45.9903 24.1136 46.2255 24.3274 46.4862 24.5675C46.8271 24.9117 47.1946 25.1747 47.6133 25.2644C48.043 25.3564 48.4845 25.2575 48.9497 24.9619C49.4626 24.6571 49.8167 24.6448 50.0856 24.7603C50.3725 24.8836 50.6316 25.1798 50.885 25.6445C51.0891 26.0815 51.3582 26.5142 51.6253 26.8831L51.6253 26.8831L51.628 26.8867C51.9063 27.2568 51.9865 27.5435 51.9428 27.7548C51.9012 27.9562 51.727 28.178 51.2712 28.3738L51.27 28.3744C50.9313 28.5221 50.6793 28.7055 50.4997 28.9253C50.3193 29.146 50.2228 29.39 50.1756 29.6416C50.1292 29.8897 50.1305 30.1469 50.1452 30.3969C50.1526 30.5224 50.1637 30.6496 50.1746 30.7745L50.1757 30.7862C50.1863 30.9081 50.1969 31.028 50.2046 31.1485C50.2383 31.7068 50.3408 32.1865 50.6204 32.5682C50.9039 32.9553 51.3411 33.204 51.9621 33.3629L51.9645 33.3635C52.4231 33.4761 52.6657 33.6585 52.7655 33.8576C52.8627 34.0515 52.8623 34.3384 52.6515 34.7543L52.6514 34.7542L52.6479 34.7618C52.4399 35.2085 52.3033 35.7136 52.235 36.154L52.2348 36.1539L52.2336 36.1639C52.1721 36.7016 51.9945 37.0192 51.7578 37.1717C51.5237 37.3226 51.1574 37.3595 50.6048 37.1619C50.2516 37.0319 49.94 36.9856 49.6567 37.0125C49.3715 37.0395 49.1308 37.1393 48.9189 37.2781C48.7102 37.4147 48.5287 37.5897 48.3604 37.7667C48.2894 37.8414 48.2234 37.9136 48.1581 37.9848C48.0603 38.0915 47.9644 38.1962 47.8565 38.3046C47.4817 38.681 47.2117 39.0718 47.1333 39.5139C47.0536 39.9634 47.1797 40.418 47.4951 40.903C47.7703 41.3547 47.8085 41.6742 47.7187 41.9068C47.6262 42.1463 47.365 42.382 46.833 42.5837L46.8329 42.5837L46.8298 42.5849C46.3562 42.7718 45.8858 43.0194 45.4842 43.2658C45.0487 43.5233 44.7009 43.6118 44.4319 43.5715C44.1782 43.5335 43.9422 43.3723 43.7396 42.9993C43.4122 42.3964 42.9631 42.0812 42.4387 41.9433C41.932 41.81 41.3676 41.8461 40.8117 41.9063ZM40.8117 41.9063C40.8114 41.9063 40.8112 41.9064 40.8109 41.9064L40.8378 42.1549L40.8124 41.9062C40.8121 41.9063 40.8119 41.9063 40.8117 41.9063ZM32.7386 42.5565L32.7384 42.5565L32.738 42.5652C32.705 43.2957 32.7646 43.8532 33.0707 44.2805C33.3765 44.7074 33.8909 44.9523 34.6183 45.1654L34.6221 45.1664C35.279 45.3479 36.0061 45.5306 36.6702 45.6529C37.4496 45.8024 38.0145 45.8521 38.4792 45.6427C38.9481 45.4314 39.26 44.9819 39.6183 44.322C40.0205 43.5815 40.517 43.2196 41.0284 43.1638C41.5444 43.1076 42.16 43.3532 42.818 44.0163C43.3417 44.5586 43.768 44.9022 44.2819 44.9841C44.7904 45.0651 45.3287 44.8799 46.0449 44.5503C46.5746 44.3064 47.1701 44.0018 47.7004 43.6967L47.7021 43.6957C48.4106 43.2806 48.8862 42.94 49.069 42.4537C49.252 41.9672 49.117 41.4007 48.8595 40.6302C48.6145 39.8971 48.7093 39.352 49.0003 39.0126C49.2946 38.6694 49.8516 38.4632 50.6903 38.549L50.6903 38.5491L50.6949 38.5494C51.4307 38.611 52.0191 38.5557 52.4882 38.2736C52.9618 37.9889 53.2661 37.5023 53.5033 36.816L53.5061 36.808L53.5083 36.7999C53.5742 36.5571 53.64 36.2995 53.7053 36.0441L53.7055 36.0434C53.7708 35.7877 53.8356 35.5343 53.9003 35.2961C54.0306 34.846 54.1259 34.4786 54.1623 34.1711C54.1992 33.8588 54.1785 33.585 54.0557 33.3344C53.9344 33.0868 53.7288 32.8932 53.46 32.7099C53.1925 32.5275 52.8393 32.34 52.3996 32.1151L52.3996 32.1151L52.3953 32.113C51.4515 31.653 51.268 30.2418 52.0626 29.5102C52.4377 29.1648 52.7358 28.8795 52.9503 28.6211C53.1662 28.3612 53.3139 28.1095 53.3657 27.8282C53.4179 27.5446 53.3667 27.2641 53.2489 26.9581C53.1325 26.6559 52.9431 26.3091 52.6981 25.888L52.6982 25.8879L52.6944 25.8819C52.5614 25.6675 52.4286 25.4688 52.2984 25.274L52.2974 25.2725C52.1662 25.0763 52.0377 24.884 51.9094 24.6773L51.9055 24.671L51.9012 24.6649C51.4734 24.059 51.1048 23.6632 50.601 23.5086C50.1076 23.3572 49.5355 23.4545 48.7559 23.6637C47.4493 23.9905 46.1432 22.9992 46.2546 21.7609C46.321 21.0882 46.2817 20.5696 45.9866 20.1668C45.6968 19.7712 45.1982 19.5417 44.5091 19.3302C43.9178 19.1488 43.2568 18.966 42.6582 18.8433C41.7897 18.6361 41.1746 18.5363 40.6586 18.7334C40.1359 18.9332 39.7704 19.4149 39.3169 20.1604C39.0055 20.6545 38.4441 20.9538 37.8413 21.0223C37.2374 21.0909 36.6321 20.9235 36.2393 20.5369C35.9285 20.2207 35.6636 19.9679 35.417 19.7852C35.1673 19.6004 34.9235 19.4774 34.6536 19.4352C34.3836 19.393 34.1138 19.4357 33.8192 19.5371C33.5295 19.6367 33.2016 19.7982 32.8108 20.0079C32.2829 20.2512 31.6903 20.5544 31.1623 20.8583L31.1622 20.8582L31.1586 20.8604C30.5071 21.2503 30.0721 21.59 29.8994 22.0574C29.7268 22.5249 29.8409 23.0554 30.0683 23.7433C30.2707 24.3553 30.1388 24.9107 29.7971 25.3088C29.4524 25.7103 28.8756 25.9722 28.1565 25.9446C27.3766 25.9146 26.808 25.9514 26.3814 26.2345C25.9519 26.5196 25.7191 27.0181 25.4912 27.7356C25.3226 28.1519 25.2005 28.6112 25.0906 29.0243C25.0691 29.1051 25.0481 29.1841 25.0273 29.2608C24.9132 29.6809 24.8265 30.0292 24.7923 30.3232C24.7578 30.6209 24.774 30.8864 24.8858 31.1315C24.9972 31.3757 25.1894 31.5688 25.4467 31.7498C25.7018 31.9292 26.0397 32.1095 26.4644 32.32C27.4988 32.8502 27.7112 34.1544 26.9247 34.9302L26.924 34.9309L26.9141 34.9408C26.5136 35.339 26.1999 35.6509 25.9796 35.9172C25.7571 36.186 25.6041 36.4376 25.5611 36.7193C25.5176 37.0046 25.5932 37.2784 25.7331 37.5772C25.87 37.8697 26.0847 38.2185 26.3556 38.6586L26.364 38.6723L26.3645 38.6731C26.4976 38.8875 26.6304 39.0862 26.7606 39.281L26.7616 39.2824C26.8927 39.4786 27.0212 39.671 27.1495 39.8776L27.1493 39.8778L27.1558 39.8872C27.5517 40.4644 27.9039 40.8462 28.3843 40.9936C28.856 41.1384 29.3971 41.039 30.1143 40.8289L30.1143 40.829L30.1199 40.8272C30.9157 40.5736 31.6014 40.6679 32.0637 40.9774C32.5193 41.2825 32.7976 41.8226 32.7386 42.5565ZM40.8 20.3398C40.7995 20.3405 40.7993 20.3408 40.7992 20.3408L40.8 20.3398Z" fill="#2776EA" stroke="#2776EA" stroke-width="0.5"/>
<path d="M4.89173 44.2887C4.71821 44.0298 4.54463 43.7708 4.36927 43.5132C4.869 43.5641 5.28835 43.6858 5.71084 43.8085C5.817 43.8393 5.92336 43.8702 6.03124 43.9C6.26512 43.9717 6.48814 44.0316 6.71002 44.0911C7.07731 44.1897 7.44146 44.2875 7.84648 44.4366L8.08237 44.5235L8.16795 44.2872C8.20264 44.1913 8.23677 44.0813 8.26871 43.9784L8.26977 43.975C8.30295 43.8681 8.33386 43.7687 8.3642 43.6849L8.44884 43.4511L8.21553 43.3652C7.54629 43.1187 6.88036 42.859 6.21837 42.6008C5.28915 42.2385 4.36772 41.8791 3.45587 41.5637C3.3531 41.5106 3.23894 41.5012 3.14837 41.5045C3.04321 41.5083 2.93436 41.5306 2.83546 41.5625C2.73665 41.5943 2.63751 41.639 2.55367 41.6943C2.48328 41.7408 2.39009 41.8165 2.34233 41.9268C1.75248 43.0143 1.22859 44.1601 0.770333 45.3044C0.71254 45.4266 0.745764 45.5452 0.769567 45.6068C0.796646 45.6769 0.838927 45.7436 0.872617 45.794C0.894674 45.827 0.910041 45.849 0.924238 45.8693C0.939706 45.8914 0.953787 45.9115 0.973621 45.9418C1.00422 45.9884 1.01932 46.0173 1.02529 46.0338L1.12971 46.3222L1.39114 46.1617C1.44481 46.1288 1.49517 46.1058 1.55756 46.0772C1.59604 46.0596 1.63908 46.04 1.69031 46.0146C1.80405 45.9582 1.94884 45.8758 2.0516 45.7339L2.06396 45.7169L2.07328 45.698C2.31739 45.2035 2.56189 44.6749 2.83163 44.0917C2.8644 44.0208 2.89754 43.9492 2.9311 43.8767C3.15952 44.2375 3.3771 44.5943 3.59082 44.9447C4.17072 45.8956 4.72213 46.7997 5.38405 47.6123L5.38404 47.6123L5.38489 47.6133C13.0268 56.8932 23.184 61.2036 35.8285 59.7485C46.0405 58.596 53.6947 53.6779 58.9032 45.5473C59.1229 45.2415 59.246 44.8936 59.3379 44.5626C59.3747 44.4301 59.4077 44.2957 59.4394 44.1668C59.4475 44.1339 59.4555 44.1013 59.4634 44.0692C59.5031 43.909 59.5422 43.7584 59.5882 43.617L59.6837 43.3242L59.3775 43.291C59.0614 43.2567 58.8021 43.3014 58.591 43.419C58.3809 43.5361 58.2454 43.7107 58.1496 43.887C58.0642 44.0442 58.0032 44.2176 57.9515 44.3645C57.9467 44.3782 57.942 44.3916 57.9374 44.4048C57.8785 44.5713 57.8307 44.6949 57.7699 44.7844L57.768 44.7872C51.8617 53.7509 43.1737 58.5884 31.742 58.708L31.7417 58.708C21.6825 58.8275 13.6378 54.7088 7.33506 47.5898L7.33506 47.5898L7.33396 47.5886C6.42294 46.5732 5.65797 45.4319 4.89173 44.2887Z" fill="#2776EA" stroke="#2776EA" stroke-width="0.5"/>
<path d="M57.7724 17.6845C57.5071 17.6036 57.2409 17.5188 56.973 17.4334L56.9711 17.4328C56.5472 17.2977 56.1187 17.1612 55.6896 17.0396L55.4656 16.9762L55.3864 17.195C55.3567 17.2771 55.3269 17.3458 55.294 17.4214L55.2931 17.4235C55.2608 17.4979 55.2255 17.5792 55.1901 17.6769L55.1274 17.85L55.2741 17.9612C56.4296 18.8372 57.8473 19.2685 59.2212 19.6299L59.2525 19.6381H59.2848C59.3973 19.6381 59.5479 19.5938 59.6544 19.556C59.7137 19.535 59.7728 19.5112 59.8238 19.4872C59.8657 19.4674 59.9301 19.4349 59.9775 19.3914L60.0125 19.3591L60.0333 19.3161C60.1519 19.0704 60.2846 18.8305 60.4205 18.5847L60.4501 18.5313C60.5949 18.2693 60.7423 18 60.8694 17.7232C61.1246 17.1671 61.3061 16.563 61.2343 15.8692L61.2173 15.7045L61.059 15.6559C60.8796 15.6008 60.7615 15.5466 60.6322 15.4871L60.4197 15.3892L60.308 15.5949C60.1909 15.8105 60.0594 16.0357 59.92 16.2744C59.7594 16.5494 59.5884 16.8422 59.4171 17.1586C51.9546 2.96339 34.1189 -2.15971 20.8762 1.9843C16.7489 3.26117 12.1735 5.97563 8.65402 8.95857C6.89342 10.4508 5.3889 12.017 4.33467 13.513C3.28582 15.0014 2.65853 16.4545 2.71107 17.7122L2.74545 18.5352L3.1743 17.8319C9.41168 7.60274 18.4265 2.05097 30.9605 1.99118C38.0634 1.96135 44.3104 4.46984 49.0351 7.75842C53.5338 10.8898 56.6264 14.7097 57.7724 17.6845Z" fill="#2776EA" stroke="#2776EA" stroke-width="0.5"/>
<path d="M23.3725 27.9719L23.962 27.6029L23.2725 27.5122C23.0758 27.4863 22.8875 27.481 22.7164 27.4763C22.6747 27.4751 22.6341 27.4739 22.5945 27.4725C22.389 27.4653 22.1999 27.4511 21.9999 27.399C21.6056 27.278 21.2601 27.1691 20.9758 26.9624C20.3357 26.4029 19.8885 26.0614 19.3521 25.9985C19.0822 25.9669 18.8075 26.0071 18.497 26.0958C18.1886 26.1839 17.8291 26.3245 17.3885 26.5048L17.3884 26.5046L17.3786 26.5091C16.791 26.7796 16.2392 27.0688 15.8655 27.4884C15.4759 27.9258 15.2967 28.4836 15.404 29.2406L15.4054 29.251L15.4078 29.2612C15.5217 29.7592 15.3909 30.1661 15.1302 30.4302C14.8674 30.6963 14.4447 30.8453 13.9232 30.7653L13.9232 30.7652L13.9164 30.7643C13.1431 30.6672 12.5784 30.8273 12.1464 31.1897C11.7291 31.5398 11.4649 32.0561 11.2345 32.6015L11.2345 32.6015L11.2333 32.6045C11.0373 33.0858 10.8855 33.4766 10.7896 33.8026C10.6939 34.1277 10.6466 34.4102 10.6768 34.67C10.7399 35.2125 11.1287 35.5559 11.7083 35.9712C12.2738 36.4058 12.4763 36.7638 12.4823 37.0851C12.4885 37.4176 12.2883 37.8062 11.8077 38.3077L11.8076 38.3077L11.8052 38.3104C11.5997 38.5311 11.3735 38.8182 11.2139 39.1041C11.1341 39.2469 11.0663 39.3975 11.0285 39.545C10.9928 39.684 10.9783 39.8416 11.0268 39.9918C11.2355 40.9984 11.7794 41.931 12.2991 42.7683L12.3096 42.7853L12.3228 42.8005C12.5016 43.0063 12.8041 43.1435 13.0943 43.2299C13.3944 43.3193 13.7292 43.3683 14.0161 43.3683V43.3684L14.0233 43.3682C14.5451 43.3532 14.9412 43.3577 15.2462 43.3973C15.5512 43.4369 15.739 43.5087 15.8642 43.6079C15.9848 43.7034 16.0749 43.8463 16.1385 44.0882C16.2036 44.3355 16.2358 44.666 16.2521 45.1149L16.2522 45.1182C16.2859 45.8008 16.4062 46.2942 16.8439 46.6789C17.2518 47.0374 17.9128 47.2757 18.9136 47.5731C19.4824 47.7576 20.037 47.8626 20.5645 47.7604C21.1044 47.6558 21.581 47.3412 22.0032 46.7582L22.0034 46.7584L22.0101 46.7481C22.3832 46.1756 22.7275 45.9711 23.056 45.9656C23.4048 45.9598 23.8333 46.1727 24.3789 46.675C24.5935 46.8726 24.8754 47.0669 25.1746 47.2127C25.471 47.3572 25.8043 47.4638 26.1182 47.4638C27.4281 47.4638 28.5178 46.9391 29.1758 46.1122C29.83 45.2902 30.0422 44.187 29.6349 43.0626C29.6112 42.9046 29.4909 42.7982 29.4166 42.747C29.3222 42.6818 29.1917 42.6274 29.062 42.6274H29.0245L28.9886 42.6384C28.949 42.6505 28.8978 42.6633 28.8337 42.6792L28.8269 42.6809C28.7633 42.6967 28.6894 42.7152 28.6206 42.7363C28.5549 42.7564 28.4766 42.784 28.4105 42.823C28.3648 42.85 28.2388 42.9323 28.2245 43.0889C28.1541 43.498 28.2293 43.8961 28.2943 44.1953L28.3006 44.2242L28.3135 44.2509C28.4335 44.4994 28.4762 44.6903 28.4747 44.8379C28.4732 44.9804 28.4305 45.0952 28.3543 45.1976C28.1892 45.4199 27.8619 45.5945 27.4002 45.7767L27.4002 45.7766L27.3942 45.7792C27.3455 45.7999 27.2978 45.8203 27.2511 45.8404C26.8691 46.0044 26.5504 46.1413 26.2352 46.1587C25.9181 46.1762 25.5817 46.0701 25.1984 45.6086L25.1976 45.6076C24.5937 44.888 23.7824 44.5499 22.9789 44.6004C22.1761 44.6508 21.4048 45.0873 20.8743 45.8689L20.8742 45.8688L20.8717 45.8728C20.6061 46.2803 20.3531 46.4207 20.1 46.454C19.8232 46.4904 19.4998 46.4071 19.0742 46.2565C18.9724 46.2175 18.8663 46.1808 18.7626 46.1452L18.7308 46.1343C18.6359 46.1018 18.543 46.0699 18.4517 46.0363C18.2471 45.9609 18.0675 45.8826 17.9254 45.7869C17.7855 45.6927 17.6945 45.59 17.6479 45.4694C17.6022 45.351 17.5876 45.1851 17.6559 44.9414C17.8322 44.4498 17.8411 44.0234 17.672 43.6295C17.5072 43.2458 17.1874 42.9276 16.7849 42.6188L16.7851 42.6186L16.7748 42.6114C16.7283 42.5793 16.6818 42.5469 16.6353 42.5144C16.3041 42.2834 15.9709 42.051 15.6152 41.92C15.1869 41.7623 14.7281 41.7493 14.1791 41.9852L14.1789 41.9849L14.1676 41.9905C13.9481 42.0982 13.7873 42.1276 13.6691 42.1206C13.5554 42.1138 13.4617 42.0722 13.3742 41.9998C13.2826 41.9239 13.1975 41.8135 13.1123 41.6713C13.0344 41.5415 12.964 41.3986 12.8888 41.246C12.882 41.2323 12.8752 41.2184 12.8683 41.2045C12.8009 41.0562 12.717 40.9079 12.64 40.7718C12.6175 40.7319 12.5955 40.6931 12.5748 40.6557C12.4777 40.4806 12.4008 40.3262 12.3603 40.1769C12.3212 40.0331 12.3178 39.9008 12.3638 39.7659C12.4108 39.6281 12.5173 39.464 12.7391 39.2733C13.5579 38.5819 13.9916 37.7922 13.9634 37.0037C13.935 36.2101 13.4418 35.4966 12.5787 34.9562L12.5788 34.9561L12.5708 34.9515C12.3324 34.8143 12.2066 34.6867 12.1414 34.5777C12.079 34.4735 12.0615 34.369 12.0733 34.2522C12.0858 34.1285 12.1311 33.9927 12.198 33.834C12.2213 33.7789 12.2507 33.7137 12.2816 33.645C12.3283 33.5413 12.3786 33.4296 12.4169 33.3327C12.4478 33.2545 12.4777 33.1719 12.5068 33.0913C12.5101 33.0822 12.5134 33.0731 12.5167 33.064C12.5495 32.9733 12.5821 32.8844 12.6174 32.7976C12.6886 32.6225 12.7655 32.4701 12.8613 32.3514C12.9542 32.2364 13.0619 32.1566 13.1997 32.1179C13.3398 32.0784 13.5353 32.0747 13.8138 32.1554C14.3459 32.3183 14.7808 32.3085 15.1702 32.1561C15.5496 32.0077 15.8587 31.7335 16.1574 31.428L16.1662 31.419C16.451 31.1277 16.7578 30.8138 16.9327 30.441C17.1192 30.0432 17.1509 29.5939 16.9297 29.051L16.9298 29.0509L16.9264 29.0432C16.8261 28.8189 16.8129 28.6611 16.8344 28.5484C16.8554 28.4381 16.9154 28.3411 17.02 28.2477C17.1278 28.1515 17.2756 28.0659 17.4554 27.9836C17.6073 27.914 17.7695 27.8522 17.9374 27.7882C17.9683 27.7764 17.9994 27.7645 18.0306 27.7525L18.0422 27.7481L18.0533 27.7425C18.0643 27.737 18.0752 27.7315 18.0861 27.7261C18.4462 27.5451 18.7328 27.4011 19.0173 27.3767C19.278 27.3544 19.5658 27.4332 19.9162 27.8092C20.4383 28.3799 20.8774 28.7439 21.4407 28.7628C21.7168 28.772 21.9988 28.6974 22.3064 28.5633C22.6134 28.4294 22.9615 28.2293 23.3725 27.9719Z" fill="#2776EA" stroke="#2776EA" stroke-width="0.5"/>
<path d="M30.685 19.1638L30.9525 19.5743L31.1279 19.1168C31.1502 19.0585 31.1723 19.0008 31.1943 18.9436C31.5568 17.9984 31.8649 17.1952 32.1145 16.3911L32.1154 16.388C32.3521 15.589 31.8758 14.6978 31.2285 14.094C30.5773 13.4866 29.639 13.0608 28.7982 13.306C28.1613 13.4817 27.7633 13.4762 27.4803 13.3372C27.1993 13.1992 26.9674 12.8979 26.7453 12.3138C26.4034 11.4049 25.4222 10.923 24.4654 10.8357C23.5093 10.7485 22.4511 11.0428 21.9221 11.8396C21.5656 12.3464 21.294 12.6165 20.9906 12.7235C20.6946 12.8279 20.3092 12.7961 19.674 12.533C18.7237 12.1297 17.6807 12.3873 16.9463 12.9576C16.2126 13.5273 15.7371 14.4514 15.9998 15.4189C16.1604 16.0106 16.1517 16.3621 16.0225 16.5946C15.8958 16.8226 15.6103 17.0113 15.006 17.1579C14.6484 17.2404 14.3695 17.3759 14.1532 17.5582C13.9362 17.741 13.7945 17.9605 13.6966 18.1922C13.6 18.4211 13.545 18.6647 13.5022 18.8974C13.4853 18.9893 13.4706 19.0768 13.4563 19.1621C13.4328 19.303 13.4102 19.4379 13.3801 19.5765L13.3785 19.5839L13.3773 19.5913C13.3068 20.0457 13.3375 20.4804 13.5331 20.8587C13.7306 21.2405 14.079 21.5318 14.5793 21.7292L14.5792 21.7293L14.5846 21.7313C15.2088 21.9612 15.4574 22.2344 15.5248 22.4933C15.595 22.7625 15.499 23.1204 15.1838 23.5847L15.1837 23.5847L15.1812 23.5887C14.9801 23.8971 14.8066 24.245 14.839 24.6129C14.8731 24.9998 15.1243 25.3298 15.5833 25.6224L15.8554 25.7958L15.9554 25.489C15.9991 25.355 16.0389 25.2293 16.0763 25.1112C16.2125 24.6813 16.3169 24.3516 16.4586 24.0893C16.8671 23.3983 17.031 22.7389 16.8575 22.1353C16.6837 21.5309 16.1913 21.0505 15.4419 20.6733C15.125 20.4978 14.928 20.3427 14.8247 20.1804C14.732 20.0349 14.698 19.8566 14.7799 19.5802L14.7832 19.569L14.7855 19.5576C14.7906 19.5314 14.7957 19.5058 14.8006 19.4807C14.8614 19.1703 14.9059 18.9431 15.017 18.7557C15.1237 18.5756 15.3069 18.413 15.7159 18.3054L15.7159 18.3055L15.7226 18.3036C16.4744 18.0833 17.0468 17.7253 17.3614 17.2164C17.6812 16.6988 17.7052 16.0732 17.4574 15.3887L17.4576 15.3886L17.453 15.3775C17.3084 15.0313 17.3223 14.8042 17.4014 14.6273C17.4874 14.435 17.6695 14.2565 17.9566 14.0509L17.9624 14.0468L17.9679 14.0424C18.2128 13.845 18.4162 13.7401 18.6224 13.7113C18.8257 13.683 19.0672 13.7239 19.3971 13.8891C20.067 14.2454 20.7711 14.3341 21.4058 14.1478C22.0419 13.9611 22.5833 13.5053 22.9381 12.8206C23.1326 12.4635 23.3489 12.3462 23.5757 12.3011C23.6998 12.2763 23.8355 12.2721 23.9901 12.2757C24.0435 12.2769 24.1037 12.2794 24.1668 12.282C24.2705 12.2862 24.382 12.2908 24.4836 12.2908H24.494L24.5044 12.2899C24.8171 12.2638 25.0073 12.3306 25.14 12.4427C25.2811 12.5617 25.3935 12.7617 25.486 13.0728C25.6724 13.7556 26.1868 14.2882 26.7945 14.5843C27.4024 14.8807 28.1338 14.9548 28.7696 14.6794L28.7697 14.6794L28.7748 14.6771C29.1314 14.5129 29.3789 14.5009 29.566 14.5547C29.7561 14.6094 29.9277 14.7444 30.1076 14.964C30.1887 15.0753 30.2837 15.1859 30.3702 15.2867C30.3953 15.316 30.4197 15.3444 30.4429 15.3718C30.5537 15.5028 30.6412 15.6157 30.6965 15.7234C30.7497 15.8271 30.7641 15.9091 30.7499 15.9848C30.7353 16.0623 30.6834 16.1715 30.5288 16.3138L30.5287 16.3137L30.5226 16.3197C30.2737 16.5653 30.1089 16.8119 30.0228 17.0671C29.9358 17.3248 29.9345 17.575 29.988 17.8165C30.0824 18.2434 30.3561 18.6614 30.6204 19.0651C30.642 19.0981 30.6636 19.131 30.685 19.1638Z" fill="#2776EA" stroke="#2776EA" stroke-width="0.5"/>
<path d="M23.5732 15.5241L23.573 15.5241C20.7699 15.4612 18.4766 17.4825 18.4766 20.1708C18.4766 22.7887 20.6926 24.9379 23.502 24.9379C26.2437 24.9379 28.5274 22.7909 28.5274 20.1708H28.5275L28.5273 20.164C28.4579 17.6083 26.3092 15.5871 23.5732 15.5241ZM23.502 23.5947C21.5319 23.5947 19.953 22.1245 19.8923 20.2832C19.8319 18.3323 21.4026 16.807 23.502 16.807C25.4777 16.807 27.1167 18.2826 27.1771 20.1188C27.2373 21.9458 25.5395 23.5947 23.502 23.5947Z" fill="#2776EA" stroke="#2776EA" stroke-width="0.5"/>
<path d="M25.6449 41.2421L26.2923 40.5648L25.3935 40.8296C23.8107 41.2959 22.5518 41.2394 21.0889 40.8303C19.5139 40.3067 18.4937 39.3407 18.2529 37.9549L18.253 37.9549L18.2516 37.9479C18.0664 37.0387 18.1894 36.0084 18.5613 35.15C19.4113 33.3662 21.2967 32.8268 23.7694 32.7669L23.8755 32.2935C21.5919 31.1467 19.1092 31.9847 17.6744 33.9347L17.6742 33.935C15.9538 36.2792 16.5081 39.5702 18.9762 41.2748C21.1982 42.8243 24.0923 42.8665 25.6449 41.2421Z" fill="#2776EA" stroke="#2776EA" stroke-width="0.5"/>
<path d="M32.9993 32.8799H32.9992L39.2 27.0287C35.6756 27.0297 32.9993 29.5366 32.9993 32.8799ZM39.2623 28.3116L39.2624 28.3116C42.0291 28.3695 44.1814 30.3873 44.1202 32.8735C44.0588 35.1886 41.7682 37.2675 39.2022 37.2675C36.5213 37.2675 34.4168 35.2059 34.4151 32.6422C34.4785 30.2039 36.5753 28.254 39.2623 28.3116Z" fill="#2776EA" stroke="#2776EA" stroke-width="0.5"/>
</svg>
