<svg width="60" height="60" viewBox="0 0 60 60" fill="none" xmlns="http://www.w3.org/2000/svg">
<path d="M6.00573 55.8084C5.92379 55.8084 5.86075 55.8084 5.79141 55.8084C4.87109 55.8084 3.94446 55.8084 3.02414 55.8084C1.69409 55.8022 0.59096 55.0223 0.14971 53.803C0.0551563 53.5307 0.00472768 53.2336 0.00472768 52.9426C-0.00157589 39.9384 -0.00157589 26.9403 0.00472768 13.936C0.00472768 13.6884 0.0299419 13.4408 0.0866741 13.1994C0.111888 13.0818 0.206442 12.9642 0.294692 12.8776C4.25964 8.97816 8.2246 5.08492 12.1895 1.1855C12.4354 0.937914 12.719 0.820312 13.0784 0.820312C23.7818 0.826502 34.4853 0.820312 45.1888 0.826502C45.8002 0.826502 46.3486 1.05552 46.834 1.42689C47.4644 1.90968 47.8489 2.54101 47.975 3.3209C48.0002 3.47564 48.0065 3.63038 48.0065 3.7913C48.0128 4.09459 48.0065 4.39788 48.0065 4.72593C48.0758 4.72593 48.1389 4.72593 48.1956 4.72593C49.0592 4.72593 49.9291 4.72593 50.7927 4.72593C51.5554 4.72593 52.2677 4.89924 52.8665 5.38821C53.4402 5.85862 53.8436 6.43425 53.9381 7.177C53.9823 7.49266 53.9949 7.81452 54.0012 8.13019C54.0075 13.5646 54.0012 18.9929 54.0012 24.4273C54.0012 24.8792 53.831 25.2443 53.3897 25.4176C52.7657 25.659 52.0849 25.3496 51.984 24.6687C51.9651 24.5264 51.9525 24.3778 51.9525 24.2292C51.9525 18.7143 51.9462 13.1994 51.9525 7.68454C51.9525 7.22651 51.505 6.73135 50.9944 6.74373C50.0677 6.7623 49.1411 6.74992 48.2145 6.74992C48.1515 6.74992 48.0821 6.74992 48.0002 6.74992C48.0002 6.84276 48.0002 6.91703 48.0002 6.99131C48.0002 12.0668 48.0002 17.1484 48.0002 22.2238C48.0002 22.7561 47.6913 23.1461 47.1807 23.2575C46.6008 23.3813 46.0272 22.9728 45.9767 22.391C45.9641 22.2238 45.9515 22.0567 45.9515 21.8896C45.9515 15.8548 45.9452 9.81375 45.9578 3.77892C45.9578 3.33947 45.5229 2.81335 44.9808 2.80716C44.8862 2.80716 44.7917 2.80716 44.6971 2.80716C34.5673 2.80716 24.4311 2.80716 14.3012 2.80716C13.9545 2.80716 13.9924 2.75146 13.9924 3.11045C13.9924 6.57661 13.9924 10.049 13.9924 13.5151C13.9924 13.8617 13.8852 14.165 13.5826 14.3817C13.3809 14.524 13.154 14.5735 12.9082 14.5735C9.39076 14.5735 5.87336 14.5735 2.36227 14.5735C2.00927 14.5735 2.00927 14.5735 2.00927 14.9201C2.00927 27.5345 2.00927 40.1488 2.00927 52.7693C2.00927 53.3573 2.43161 53.8278 3.09348 53.8278C4.63155 53.8278 6.16963 53.8278 7.7077 53.8278C15.3539 53.8278 22.9939 53.8278 30.6401 53.8278C31.1507 53.8278 31.5478 54.1929 31.6298 54.6572C31.718 55.1461 31.4155 55.6289 30.9427 55.7651C30.7977 55.8084 30.6401 55.8208 30.4888 55.8208C23.0821 55.8208 15.6817 55.8208 8.27502 55.8208C8.19938 55.8208 8.11743 55.8208 8.01027 55.8208C8.01027 55.8951 8.01027 55.9632 8.01027 56.0312C8.01658 56.3469 8.01027 56.6626 8.04179 56.9782C8.07961 57.362 8.55868 57.7457 8.99993 57.7457C17.9384 57.7396 26.8769 57.7396 35.8091 57.7457C36.2251 57.7457 36.5781 57.9005 36.7609 58.2781C36.9437 58.6556 36.9185 59.0394 36.6537 59.3798C36.4394 59.6583 36.1242 59.7326 35.7901 59.7512C35.7334 59.7574 35.6767 59.7512 35.6263 59.7512C26.7823 59.7512 17.9384 59.7512 9.10079 59.7512C8.18677 59.7512 7.39252 59.4479 6.76847 58.7794C6.37134 58.3523 6.08768 57.851 6.03095 57.2692C5.99313 56.8606 6.00573 56.4459 5.99313 56.0312C6.00573 55.957 6.00573 55.8951 6.00573 55.8084ZM12.013 4.29266C9.18904 7.06558 6.35243 9.8447 3.52843 12.6176C3.54734 12.6176 3.59777 12.6176 3.6482 12.6176C6.37765 12.6176 9.1134 12.6176 11.8428 12.6238C12.0004 12.6238 12.0257 12.5681 12.0257 12.4319C12.0193 9.75804 12.0257 7.07796 12.0257 4.40407C12.0193 4.35455 12.0193 4.29885 12.013 4.29266Z" fill="#2776EA"/>
<path d="M59.9956 36.1758C59.9956 37.8655 60.0082 39.5553 59.9893 41.245C59.983 41.9197 59.9011 42.6005 59.838 43.2752C59.7309 44.4512 59.422 45.5901 59.0249 46.698C58.7475 47.4779 58.4008 48.233 58.0037 48.9634C57.6003 49.7 57.159 50.4056 56.6547 51.0741C56.3269 51.5073 55.9803 51.922 55.6146 52.3243C55.2679 52.7081 54.9086 53.0795 54.5241 53.4199C54.0451 53.847 53.5345 54.2493 53.0239 54.6516C52.3053 55.2211 51.5047 55.6791 50.6979 56.1309C49.8973 56.5766 49.0967 57.016 48.2962 57.4617C47.4326 57.9445 46.569 58.4334 45.7054 58.9162C45.3146 59.1329 44.9238 59.3495 44.533 59.5661C44.1043 59.8013 43.7009 59.7333 43.2975 59.4981C42.7238 59.1638 42.1376 58.842 41.5577 58.5201C40.9147 58.1611 40.2717 57.7959 39.6288 57.4369C38.9732 57.0717 38.3176 56.7127 37.6621 56.3538C36.5274 55.7286 35.4054 55.0787 34.4094 54.2493C33.8169 53.7541 33.2306 53.2342 32.6948 52.6833C31.8628 51.8292 31.1378 50.8946 30.5075 49.8857C29.9402 48.9758 29.4548 48.0226 29.0703 47.0199C28.6984 46.0481 28.421 45.0516 28.2445 44.0241C28.1373 43.399 28.0554 42.7677 28.0428 42.1363C28.0365 41.8578 28.0176 41.5793 28.0176 41.3069C28.0176 37.8779 28.0176 34.4427 28.0176 31.0137C28.0176 30.4814 28.2004 30.1905 28.7047 29.9924C29.8456 29.5591 30.9929 29.1444 32.1338 28.7235C33.01 28.4017 33.8799 28.0736 34.7561 27.7518C35.8277 27.3556 36.893 26.9533 37.9646 26.5572C38.9102 26.2044 39.862 25.864 40.8075 25.5173C41.5135 25.2574 42.2069 24.985 42.9129 24.7251C43.2407 24.6075 43.5748 24.4899 43.9215 24.4156C44.0728 24.3846 44.2619 24.428 44.4132 24.4837C45.7622 24.9788 47.1048 25.4802 48.4475 25.9816C49.4813 26.3653 50.5151 26.7552 51.5488 27.139C52.5007 27.4918 53.4525 27.8322 54.4044 28.185C55.4066 28.5564 56.4089 28.934 57.4112 29.3053C58.0604 29.5467 58.7097 29.7696 59.3527 30.0233C59.6994 30.1595 59.9263 30.4257 59.9641 30.8094C59.983 30.9951 59.9956 31.187 59.9956 31.3789C59.9956 32.9696 59.9956 34.5727 59.9956 36.1758ZM57.9785 36.8257C57.9785 35.1483 57.9785 33.4647 57.9848 31.7874C57.9848 31.6512 57.9407 31.5831 57.8083 31.5398C57.5246 31.4469 57.2473 31.3355 56.9699 31.2303C55.9361 30.8466 54.9023 30.4628 53.8686 30.079C52.9356 29.7324 51.9964 29.3858 51.0635 29.0392C50.244 28.7359 49.4308 28.4326 48.6114 28.1293C47.7919 27.826 46.9661 27.5166 46.1467 27.2133C45.4722 26.9595 44.7977 26.7057 44.1169 26.4581C44.0413 26.4334 43.9404 26.4334 43.8648 26.4643C43.5622 26.5696 43.2659 26.6872 42.9634 26.7986C41.7216 27.2566 40.4798 27.7084 39.2379 28.1665C38.3933 28.4759 37.5549 28.7978 36.7102 29.1073C35.7079 29.4787 34.7057 29.8562 33.7034 30.2276C32.5246 30.6671 31.3459 31.1065 30.1671 31.5336C30.0284 31.5831 29.9843 31.6512 29.9843 31.7874C29.9906 35.0121 29.9843 38.2307 29.9906 41.4555C29.9906 41.6845 30.0032 41.9135 30.0095 42.1363C30.0536 42.9595 30.186 43.7642 30.3877 44.5626C30.5453 45.1692 30.747 45.7572 30.955 46.3452C31.308 47.3232 31.806 48.233 32.3734 49.1058C32.8398 49.8176 33.363 50.4922 33.9492 51.1112C34.6426 51.8477 35.3928 52.5224 36.2122 53.1228C37.0065 53.7046 37.8575 54.1874 38.7148 54.6578C39.572 55.1282 40.423 55.5986 41.274 56.0752C42.1376 56.558 43.0012 57.047 43.8711 57.5236C43.9278 57.5545 44.035 57.5483 44.0917 57.5174C44.451 57.3255 44.804 57.1274 45.1633 56.9294C46.0269 56.4466 46.8842 55.9638 47.7415 55.4872C48.624 54.9982 49.5128 54.5216 50.3827 54.0141C51.5173 53.358 52.5511 52.5657 53.4777 51.6497C53.8496 51.2783 54.2026 50.8884 54.543 50.486C55.3751 49.5019 56.0622 48.4311 56.6043 47.2675C57.0203 46.37 57.3481 45.4477 57.5814 44.4945C57.8272 43.4856 57.9533 42.4706 57.9596 41.4369C57.9911 39.9143 57.9785 38.3731 57.9785 36.8257Z" fill="#2776EA"/>
<path d="M23.9958 20.4596C18.6945 20.4596 13.3869 20.4596 8.08558 20.4596C7.53086 20.4596 7.16525 20.1872 7.03918 19.6859C6.90681 19.1412 7.28502 18.5903 7.85234 18.5161C8.00993 18.4975 8.17383 18.4851 8.33142 18.4851C18.8143 18.4851 29.3034 18.4851 39.7863 18.4851C40.133 18.4851 40.4608 18.5346 40.7129 18.8008C40.9777 19.0793 41.0596 19.4074 40.9461 19.7663C40.839 20.1253 40.5805 20.3544 40.2023 20.4286C40.0825 20.4534 39.9628 20.4596 39.843 20.4596C34.5543 20.4596 29.2782 20.4596 23.9958 20.4596Z" fill="#2776EA"/>
<path d="M30.9993 12.6243C33.9998 12.6243 36.994 12.6243 39.9945 12.6243C40.5681 12.6243 40.9967 13.0328 40.9904 13.6022C40.9841 14.1469 40.6248 14.5307 40.0134 14.574C39.9693 14.574 39.9251 14.574 39.881 14.574C33.9493 14.574 28.0177 14.574 22.0923 14.574C21.7015 14.574 21.3674 14.4564 21.1594 14.116C20.964 13.7879 20.9577 13.4351 21.1468 13.1071C21.3233 12.7976 21.6006 12.6305 21.9725 12.6305C24.9793 12.6243 27.9861 12.6243 30.9993 12.6243Z" fill="#2776EA"/>
<path d="M15.9971 24.3726C18.6383 24.3726 21.2858 24.3726 23.927 24.3726C24.3746 24.3726 24.7465 24.5521 24.9104 24.9668C25.1436 25.5486 24.8789 26.2109 24.1729 26.3161C23.9837 26.3408 23.7883 26.347 23.5929 26.347C18.4429 26.347 13.2992 26.347 8.14916 26.347C7.75203 26.347 7.39903 26.2542 7.1658 25.889C6.80649 25.3258 7.12798 24.5397 7.78985 24.4035C7.8781 24.3849 7.97266 24.3726 8.06721 24.3726C10.7084 24.3726 13.3559 24.3726 15.9971 24.3726Z" fill="#2776EA"/>
<path d="M15.9969 32.208C13.3368 32.208 10.6767 32.1956 8.01654 32.2142C7.43031 32.2204 7.01427 31.7562 7.02058 31.261C7.02688 30.6854 7.44922 30.2583 8.03545 30.2583C13.3494 30.2583 18.6633 30.2583 23.9772 30.2583C24.5067 30.2583 25.011 30.7225 24.9858 31.2301C24.9543 31.8428 24.6139 32.2018 23.9898 32.2018C21.3297 32.208 18.6633 32.208 15.9969 32.208Z" fill="#2776EA"/>
<path d="M15.9907 43.9982C13.2991 43.9982 10.6075 43.9982 7.90952 43.9982C7.46827 43.9982 7.04593 43.5649 7.01441 43.1255C6.97029 42.488 7.47457 42.0547 8.07341 42.0547C13.4062 42.0671 18.7328 42.0609 24.0656 42.0609C24.5573 42.0609 24.9733 42.5313 24.9859 42.9707C25.0048 43.5092 24.6455 43.893 24.2106 43.9858C24.1097 44.0044 24.0026 43.9982 23.8954 43.9982C21.2668 43.9982 18.6319 43.9982 15.9907 43.9982Z" fill="#2776EA"/>
<path d="M16.0158 38.1063C13.3494 38.1063 10.683 38.1001 8.02284 38.1125C7.55638 38.1125 7.17816 37.8277 7.0647 37.4378C6.93232 36.9922 7.10252 36.5341 7.50595 36.3051C7.64463 36.2247 7.82113 36.1813 7.97872 36.1751C13.3494 36.1689 18.72 36.1689 24.0844 36.1689C24.5508 36.1689 24.9984 36.6641 24.9984 37.0602C24.9921 37.4626 24.8849 37.7906 24.513 37.9887C24.3806 38.0568 24.223 38.1001 24.0718 38.1001C21.3738 38.1063 18.6948 38.1063 16.0158 38.1063Z" fill="#2776EA"/>
<path d="M33.9747 41.0535C34.0188 38.392 34.9455 36.0833 36.8492 34.1831C38.8159 32.221 41.2364 31.2307 44.0289 31.2368C46.6638 31.243 48.9709 32.1529 50.8872 33.9479C52.9737 35.91 54.0201 38.3363 54.0012 41.1649C53.9823 43.7583 53.0367 46.0175 51.2024 47.8868C49.3618 49.7622 47.0925 50.7773 44.4513 50.8887C41.7029 51.0063 39.276 50.1398 37.2337 48.32C35.0022 46.327 33.9621 43.616 33.9747 41.0535ZM43.9848 33.2485C39.5597 33.2423 36.1053 36.7579 36.0234 40.8678C35.9351 45.4357 39.6038 48.8028 43.7705 48.8957C48.4351 49.0009 51.8202 45.3738 51.9651 41.3754C52.129 36.7765 48.3091 33.2051 43.9848 33.2485Z" fill="#2776EA"/>
<path d="M41.987 42.606C42.6174 41.9809 43.2288 41.3867 43.834 40.7863C44.9938 39.6474 46.1474 38.5085 47.3136 37.382C47.5783 37.1221 47.925 37.0602 48.2969 37.1716C48.6625 37.283 48.8831 37.5244 48.9714 37.8772C49.0659 38.2547 48.9588 38.5766 48.6751 38.8489C46.6958 40.7925 44.7165 42.7298 42.7435 44.6795C42.3274 45.0942 41.6718 45.1252 41.2243 44.6795C40.2409 43.7201 39.2576 42.7546 38.2805 41.789C37.7258 41.2381 37.959 40.2725 38.7281 40.0931C39.0937 40.0126 39.4341 40.0745 39.7051 40.3406C40.4111 41.0339 41.1171 41.7271 41.8231 42.4203C41.8862 42.4822 41.9303 42.5379 41.987 42.606Z" fill="#2776EA"/>
</svg>
