<svg width="61" height="60" viewBox="0 0 61 60" fill="none" xmlns="http://www.w3.org/2000/svg">
<path d="M57.3238 0.61792C58.285 0.939293 59.201 1.32415 59.8295 2.1613C60.3224 2.81595 60.6264 3.52218 60.6552 4.33553C60.6634 4.56565 60.6675 4.79577 60.6675 5.02589C60.6675 17.8173 60.6593 30.6088 60.6757 43.4042C60.6757 44.8127 60.2814 46.0029 59.1312 46.9075C58.3589 47.5185 57.447 47.7764 56.4817 47.7764C49.5108 47.7883 42.544 47.7844 35.5731 47.7804C35.495 47.7804 35.4211 47.7645 35.302 47.7487C35.302 47.1138 35.302 46.4909 35.302 45.7728C35.5484 45.7728 35.7949 45.7728 36.0414 45.7728C42.7124 45.7728 49.3834 45.7728 56.0586 45.7728C57.9523 45.7728 58.6383 45.1102 58.6383 43.2812C58.6383 30.5453 58.6383 17.8134 58.6383 5.07747C58.6383 3.28016 57.9071 2.5779 56.038 2.5779C40.8269 2.5779 25.6158 2.5779 10.4089 2.58187C10.0556 2.58187 9.69 2.59774 9.34905 2.67312C8.49874 2.85563 7.94009 3.49044 7.85382 4.32363C7.82507 4.58946 7.82096 4.85925 7.82096 5.12904C7.82096 12.5325 7.82096 19.936 7.82096 27.3395C7.82096 27.5855 7.82096 27.8315 7.82096 28.0933C7.1021 28.0933 6.45718 28.0933 5.75064 28.0933C5.75064 27.8592 5.75064 27.6529 5.75064 27.4466C5.75064 19.9677 5.77118 12.4889 5.73832 5.00605C5.7301 2.7247 7.06924 1.11783 8.93417 0.717109C8.98757 0.705206 9.02865 0.653628 9.07383 0.61792C25.1517 0.61792 41.2377 0.61792 57.3238 0.61792Z" fill="#2776EA"/>
<path d="M16.9978 28.1221C17.9303 28.1221 18.8627 28.1182 19.7993 28.1221C20.6332 28.1301 20.9947 28.4594 21.0193 29.2688C21.0398 29.9393 20.9988 30.6138 21.044 31.2803C21.0563 31.4668 21.2576 31.6652 21.4178 31.812C21.5205 31.9072 21.73 31.8953 21.8532 31.9826C22.7158 32.5896 23.3443 32.2762 23.9153 31.5501C24.1659 31.2327 24.4863 30.9629 24.7944 30.6931C25.3202 30.2289 25.8254 30.1972 26.3266 30.6693C27.7602 32.0222 29.1774 33.395 30.5781 34.7797C31.0423 35.2399 31.0135 35.7756 30.5411 36.2636C30.04 36.7833 29.4895 37.2555 29.0007 37.7832C28.8816 37.9101 28.8693 38.168 28.8898 38.3584C28.9103 38.541 29.087 38.6997 29.1157 38.8822C29.2718 39.7907 29.8469 40.0209 30.7178 39.8899C31.1244 39.8304 31.5516 39.8701 31.9665 39.882C32.8168 39.9018 33.2276 40.2748 33.2317 41.0762C33.2441 42.9172 33.2441 44.7581 33.2317 46.5991C33.2276 47.3728 32.8168 47.7537 32.0076 47.7775C31.3134 47.7973 30.6151 47.7537 29.925 47.8013C29.7319 47.8132 29.4731 47.9957 29.3869 48.1663C29.1404 48.6384 28.7419 49.1939 28.8364 49.6303C28.9309 50.0747 29.5265 50.4318 29.9332 50.7968C31.2025 51.9355 31.2312 52.3481 29.9496 53.5265C28.8241 54.5541 27.7561 55.6372 26.6593 56.6965C25.7884 57.5377 25.3653 57.5337 24.4781 56.6767C24.3795 56.5815 24.2603 56.4982 24.1864 56.391C23.4593 55.3357 22.5762 55.1135 21.4383 55.8197C21.1754 55.9824 21.007 56.0816 21.0193 56.403C21.0398 57.0338 21.0357 57.6686 21.0234 58.3034C21.007 59.2199 20.6619 59.5492 19.7254 59.5492C17.8604 59.5532 15.9914 59.5532 14.1265 59.5492C13.2638 59.5492 12.8941 59.1922 12.8859 58.3669C12.8777 57.6964 12.9065 57.0219 12.8695 56.3553C12.8613 56.1847 12.6846 55.9506 12.5244 55.8753C12.011 55.6412 11.4235 55.2563 10.9429 55.3436C10.487 55.423 10.1255 56.0141 9.73114 56.395C8.42487 57.6527 8.23591 57.6567 6.91732 56.3791C5.77946 55.2801 4.64161 54.1851 3.50786 53.0821C2.80954 52.4036 2.81365 51.9513 3.50786 51.2689C3.96793 50.8166 4.45676 50.3921 4.88397 49.916C5.01131 49.7771 5.0606 49.4716 4.99899 49.2931C4.82235 48.7932 4.69501 48.1266 4.30888 47.8846C3.91453 47.6346 3.23675 47.8013 2.6822 47.8013C0.825487 47.7973 0.677607 47.6624 0.677607 45.877C0.677607 44.3415 0.673499 42.8101 0.677607 41.2746C0.681715 40.2351 1.03498 39.9018 2.10711 39.8979C2.74382 39.8939 3.38052 39.9217 4.01312 39.882C4.18976 39.8701 4.44444 39.7074 4.51427 39.5527C5.20848 38.0648 5.20027 38.0609 3.99669 36.8984C2.62469 35.5732 2.62469 35.4582 3.98026 34.1449C5.11811 33.0459 6.25186 31.9469 7.39382 30.8518C8.08393 30.1892 8.57275 30.1932 9.27518 30.8597C9.68596 31.2486 10.0885 31.6453 10.4993 32.0381C10.5691 32.1056 10.6307 32.2206 10.7129 32.2325C10.9347 32.2722 11.251 32.3674 11.3784 32.2643C11.8425 31.8873 12.7997 32.1889 12.8736 31.32C12.9311 30.6336 12.8777 29.9393 12.89 29.2489C12.9023 28.5228 13.2803 28.1499 14.0279 28.142C15.0096 28.1142 16.0037 28.1261 16.9978 28.1221ZM14.911 30.1099C14.911 30.8677 14.8946 31.558 14.9152 32.2444C14.9357 32.8713 14.6358 33.2244 14.032 33.4387C13.1611 33.7442 12.3067 34.1012 11.4564 34.4663C10.7047 34.7876 10.413 34.7599 9.81741 34.1766C9.33269 33.7005 8.86851 33.2046 8.44952 32.7721C7.4349 33.7481 6.49832 34.6488 5.50014 35.6089C5.97664 36.0493 6.50243 36.5135 7.00358 37.0015C7.54992 37.5292 7.57867 37.8109 7.26648 38.4933C6.9091 39.2789 6.55173 40.0645 6.23543 40.8699C5.9027 41.711 5.69731 41.8816 4.75252 41.8896C4.10349 41.8936 3.45446 41.8896 2.76846 41.8896C2.76846 43.2028 2.76846 44.4566 2.76846 45.7738C3.47089 45.7738 4.14046 45.7699 4.81003 45.7738C5.67266 45.7818 5.91502 45.9762 6.21489 46.738C6.53119 47.5394 6.87624 48.3329 7.23772 49.1145C7.58278 49.8644 7.57045 50.1342 6.9625 50.7016C6.45725 51.1737 5.91502 51.6181 5.45084 52.0228C6.50654 53.0464 7.42668 53.9391 8.42898 54.9111C8.90137 54.4271 9.39841 53.9113 9.90367 53.3995C10.3227 52.975 10.7909 52.8996 11.3578 53.1535C12.2369 53.5423 13.1324 53.9074 14.0402 54.2327C14.6482 54.4509 14.9316 54.808 14.911 55.4349C14.8905 56.1371 14.9069 56.8394 14.9069 57.5416C16.3036 57.5416 17.6181 57.5416 18.9613 57.5416C18.9613 56.8275 18.9572 56.157 18.9613 55.4864C18.9654 54.7643 19.1749 54.5025 19.8609 54.2406C20.7441 53.9034 21.619 53.5503 22.4899 53.1853C23.18 52.8956 23.4881 52.9274 24.0303 53.4511C24.5356 53.9391 25.0162 54.443 25.4516 54.8834C26.4498 53.9272 27.3864 53.0226 28.3353 52.11C28.3435 52.1259 28.3312 52.0862 28.3065 52.0585C27.8752 51.6339 27.4398 51.2134 27.0043 50.7928C26.3224 50.1302 26.3019 49.8763 26.7086 49.0114C27.0536 48.2813 27.3658 47.5394 27.6575 46.7895C27.9656 45.996 28.2202 45.7897 29.0952 45.7818C29.7648 45.7738 30.4343 45.7818 31.1244 45.7818C31.1244 44.4606 31.1244 43.2068 31.1244 41.8975C30.3891 41.8975 29.6949 41.9094 29.0048 41.8936C28.2285 41.8777 27.9573 41.6634 27.6821 40.9731C27.3535 40.1558 27.0126 39.3384 26.647 38.537C26.3183 37.8189 26.3512 37.5173 26.9427 36.95C27.4315 36.4818 27.9327 36.0255 28.3804 35.601C27.3781 34.6329 26.4416 33.7283 25.4721 32.788C24.9956 33.2641 24.4822 33.7719 23.9728 34.2798C23.5456 34.7083 23.0855 34.7678 22.5186 34.5139C21.6601 34.129 20.777 33.7878 19.8938 33.4506C19.1708 33.1768 18.9613 32.9229 18.9572 32.169C18.9531 31.4866 18.9572 30.8042 18.9572 30.1099C17.5811 30.1099 16.2789 30.1099 14.911 30.1099Z" fill="#2776EA"/>
<path d="M9.80485 8.48145C25.4349 8.48145 40.9747 8.48145 56.5596 8.48145C56.5596 9.11229 56.5596 9.73123 56.5596 10.4176C56.3624 10.4295 56.1529 10.4494 55.9475 10.4494C40.798 10.4494 25.6485 10.4494 10.4991 10.4613C9.97738 10.4613 9.7268 10.3621 9.79664 9.80265C9.84593 9.39002 9.80485 8.96549 9.80485 8.48145Z" fill="#2776EA"/>
<path d="M49.5194 40.8969C47.5723 40.8969 45.6293 40.9008 43.6822 40.8969C42.7333 40.8969 42.3472 40.5318 42.3431 39.6034C42.3349 36.5365 42.3349 33.4696 42.3431 30.4026C42.3472 29.4623 42.7415 29.0854 43.7233 29.0814C45.1939 29.0735 46.6603 29.0854 48.1309 29.0775C48.6608 29.0735 49.1332 29.2124 49.4372 29.6329C50.3245 30.8549 51.5198 31.2517 53.0274 31.0652C53.7873 30.97 54.5719 31.0335 55.3483 31.0533C56.2397 31.0732 56.6053 31.4421 56.6053 32.2991C56.6094 34.7511 56.6094 37.207 56.6053 39.659C56.6053 40.5517 56.2397 40.9008 55.2949 40.9008C53.3725 40.9008 51.4459 40.8969 49.5194 40.8969ZM44.4668 31.093C44.4668 33.7473 44.4668 36.3064 44.4668 38.8853C47.8434 38.8853 51.1789 38.8853 54.5308 38.8853C54.5308 36.9253 54.5308 35.005 54.5308 33.053C53.7914 33.053 53.1013 33.0569 52.4071 33.053C49.6303 33.0252 50.4272 33.3228 48.4924 31.5017C48.4062 31.4223 48.3363 31.3231 48.2377 31.2596C48.1268 31.1882 47.9995 31.1009 47.8763 31.097C46.7507 31.089 45.6252 31.093 44.4668 31.093Z" fill="#2776EA"/>
<path d="M16.9893 25.1849C15.0833 25.1849 13.1773 25.1889 11.2713 25.1849C10.1581 25.181 9.80484 24.8437 9.80484 23.7804C9.80073 20.7889 9.80073 17.7973 9.80484 14.8058C9.80484 13.7226 10.1417 13.3933 11.2467 13.3933C12.7173 13.3933 14.1837 13.4052 15.6543 13.3854C16.1472 13.3775 16.5827 13.4925 16.862 13.8774C17.8027 15.1668 19.0638 15.5834 20.6535 15.3731C21.4134 15.274 22.198 15.3454 22.9744 15.3612C23.648 15.3731 24.0588 15.7501 24.0629 16.3968C24.0753 18.9678 24.0753 21.5348 24.0629 24.1058C24.0588 24.8398 23.6439 25.177 22.7608 25.1849C20.9739 25.1968 19.187 25.1889 17.4001 25.1889C17.2687 25.1849 17.129 25.1849 16.9893 25.1849ZM22.0049 17.3133C21.3025 17.3133 20.6576 17.2419 20.0332 17.3252C18.271 17.5672 16.8497 17.0832 15.7981 15.6628C15.6954 15.5239 15.4859 15.3692 15.3257 15.3652C14.2002 15.3374 13.0746 15.3533 11.9203 15.3533C11.9203 17.9878 11.9203 20.5627 11.9203 23.1535C15.2969 23.1535 18.6366 23.1535 22.0008 23.1535C22.0049 21.2015 22.0049 19.2931 22.0049 17.3133Z" fill="#2776EA"/>
<path d="M49.4574 25.1849C47.5719 25.1849 45.6865 25.1889 43.801 25.1849C42.6919 25.181 42.3468 24.8437 42.3468 23.7725C42.3427 20.7809 42.3427 17.7894 42.3468 14.7978C42.3468 13.7187 42.6837 13.3973 43.801 13.3933C45.2716 13.3933 46.738 13.4052 48.2086 13.3854C48.7057 13.3774 49.1329 13.4965 49.4122 13.8813C50.3323 15.1589 51.5811 15.5675 53.1503 15.3692C53.9102 15.2739 54.6948 15.3454 55.4712 15.3533C56.2147 15.3612 56.6049 15.7342 56.609 16.4563C56.6172 18.9876 56.6172 21.5189 56.609 24.0502C56.6049 24.8318 56.2147 25.173 55.3028 25.177C53.3475 25.1929 51.4045 25.1849 49.4574 25.1849ZM44.4706 15.3493C44.4706 17.9957 44.4706 20.5746 44.4706 23.1416C47.8554 23.1416 51.1991 23.1416 54.5387 23.1416C54.5387 21.1856 54.5387 19.2772 54.5387 17.3093C53.8732 17.3093 53.2324 17.2379 52.6163 17.3212C50.8376 17.5593 49.3876 17.103 48.3278 15.6429C48.2209 15.4961 47.9745 15.3612 47.7896 15.3573C46.7011 15.3374 45.6125 15.3493 44.4706 15.3493Z" fill="#2776EA"/>
<path d="M33.2728 25.185C31.3668 25.185 29.4607 25.189 27.5547 25.185C26.4046 25.1811 26.1006 24.8875 26.1006 23.7924C26.1006 20.7612 26.1006 17.7339 26.1006 14.7027C26.1006 13.7069 26.421 13.3934 27.4397 13.3895C28.9267 13.3855 30.4179 13.4014 31.9049 13.3815C32.3978 13.3736 32.8373 13.4767 33.1167 13.8616C34.0656 15.1828 35.3718 15.5637 36.9698 15.3653C37.6722 15.278 38.3952 15.3455 39.1099 15.3534C39.9315 15.3613 40.3135 15.6986 40.3464 16.4961C40.3751 17.1071 40.3546 17.722 40.3546 18.337C40.3546 20.1581 40.3587 21.9792 40.3546 23.8004C40.3505 24.8399 40.0013 25.1771 38.9292 25.1811C37.0478 25.189 35.1582 25.185 33.2728 25.185ZM28.1709 15.3494C28.1709 17.9998 28.1709 20.5747 28.1709 23.1536C31.5516 23.1536 34.8912 23.1536 38.235 23.1536C38.235 21.1937 38.235 19.2734 38.235 17.3134C37.5983 17.3134 36.9985 17.2499 36.4152 17.3253C34.6037 17.5633 33.1126 17.115 32.0281 15.6153C31.9336 15.4804 31.7077 15.3653 31.5393 15.3613C30.4302 15.3375 29.3211 15.3494 28.1709 15.3494Z" fill="#2776EA"/>
<path d="M29.1279 29.0776C30.1877 29.0776 31.1448 29.0299 32.0896 29.1014C32.4634 29.1291 32.9358 29.3434 33.1494 29.6251C34.0819 30.8392 35.2773 31.2558 36.8054 31.0534C37.5448 30.9582 38.3129 31.0256 39.0646 31.0415C39.9478 31.0613 40.3504 31.4264 40.3545 32.2715C40.3709 34.7432 40.3709 37.215 40.3545 39.6908C40.3504 40.524 39.9478 40.885 39.1098 40.893C37.8611 40.9009 36.6123 40.8969 35.3101 40.8969C35.3101 40.2542 35.3101 39.6353 35.3101 38.9528C36.2549 38.9528 37.2161 38.9528 38.2308 38.9528C38.2308 36.969 38.2308 35.0487 38.2308 33.057C37.1258 33.057 36.0208 33.0253 34.9199 33.0689C34.1682 33.0967 33.5315 32.934 33.0919 32.3349C32.3156 31.2835 31.2886 30.9185 29.9659 31.0772C29.1444 31.1764 29.132 31.097 29.132 30.2956C29.1279 29.9147 29.1279 29.5338 29.1279 29.0776Z" fill="#2776EA"/>
<path d="M9.8457 4.57007C10.5153 4.57007 11.1602 4.57007 11.8462 4.57007C11.8462 5.19694 11.8462 5.81985 11.8462 6.4745C11.1766 6.4745 10.5317 6.4745 9.8457 6.4745C9.8457 5.84366 9.8457 5.22472 9.8457 4.57007Z" fill="#2776EA"/>
<path d="M13.9258 4.55444C14.6364 4.55444 15.2485 4.55444 15.9098 4.55444C15.9098 5.18529 15.9098 5.80423 15.9098 6.46681C15.2649 6.46681 14.6241 6.46681 13.9258 6.46681C13.9258 5.83994 13.9258 5.20512 13.9258 4.55444Z" fill="#2776EA"/>
<path d="M19.9884 4.58521C19.9884 5.20415 19.9884 5.80722 19.9884 6.4579C19.3352 6.4579 18.6821 6.4579 17.9961 6.4579C17.9961 5.83896 17.9961 5.23589 17.9961 4.58521C18.6369 4.58521 19.2736 4.58521 19.9884 4.58521Z" fill="#2776EA"/>
<path d="M16.9531 36.9602C20.8924 36.9642 24.0678 40.0271 24.0719 43.8201C24.076 47.625 20.9171 50.688 16.9818 50.6999C13.0302 50.7118 9.78913 47.6012 9.80967 43.8162C9.83021 40.0271 13.0302 36.9562 16.9531 36.9602ZM11.8964 43.8122C11.8841 46.5101 14.1557 48.7518 16.9449 48.7201C19.771 48.6883 21.9728 46.6331 22.0139 43.8241C22.0508 41.1619 19.7423 38.9638 16.986 38.94C14.205 38.9162 11.9128 41.1103 11.8964 43.8122Z" fill="#2776EA"/>
</svg>
