<svg width="75" height="70" viewBox="0 0 75 70" fill="none" xmlns="http://www.w3.org/2000/svg">
<path d="M1 68.4182C1.92459 68.4182 2.85766 68.4182 4.06217 68.4182C2.95945 67.2629 3.17151 66.0318 3.11213 64.8345C3.06972 64.0671 3.38357 63.8563 4.0961 63.9069C4.868 63.9575 5.64839 63.9153 6.54753 63.9153C6.54753 63.401 6.54753 62.9709 6.54753 62.5493C6.54753 50.8622 6.54753 39.1751 6.53904 27.488C6.53904 26.3665 6.70869 25.3294 7.77748 24.7729C8.30339 24.503 8.96503 24.385 9.56728 24.385C20.5096 24.3597 31.452 24.3681 42.3944 24.3681C42.8439 24.3681 43.2935 24.4693 43.5565 23.8706C43.8194 23.2719 44.0739 22.707 43.565 22.1757C43.3359 21.9312 42.9627 21.7541 42.6319 21.6867C41.3765 21.4421 41.5037 20.464 41.4359 19.5786C41.3765 18.786 41.7243 18.3053 42.4877 18.0355C43.6498 17.6307 43.8873 16.9899 43.2426 15.9274C42.6658 14.983 43.1578 14.3759 43.7601 13.7182C44.3284 13.0942 44.8967 12.8244 45.728 13.2544C46.7968 13.8025 47.4414 13.4905 47.7553 12.31C47.9928 11.4415 48.5357 11.1379 49.4009 11.1295C50.2831 11.121 51.0804 11.0789 51.4367 12.1413C51.8523 13.3725 52.4461 13.5833 53.5064 12.934C54.3292 12.428 54.9484 12.6389 55.5931 13.2544C56.2377 13.87 56.7891 14.4181 56.2462 15.4046C55.6949 16.4249 56.0257 17.1332 57.1369 17.3946C58.07 17.6054 58.3923 18.162 58.4177 19.0558C58.4517 19.9918 58.4008 20.7675 57.2811 21.0964C56.2293 21.4 56.0172 22.1336 56.5346 23.0864C56.7382 23.4574 56.8654 23.879 57.0775 24.3765C59.758 24.3765 62.5402 24.4693 65.314 24.3512C68.6476 24.2163 69.428 25.2872 69.411 28.424C69.3347 39.8328 69.3855 51.2417 69.3855 62.6421C69.3855 63.0384 69.3855 63.4347 69.3855 63.9322C70.5561 63.9322 71.608 63.9322 72.7446 63.9322C72.77 65.4922 73.1433 66.9847 71.9218 68.4266C72.77 68.4266 73.3808 68.4266 74 68.4266C74 68.6121 74 68.7976 74 68.9831C73.6607 68.9916 73.3129 69 72.9736 69C51.6657 69 30.3663 69 9.05833 69C6.36939 69 3.68894 68.9916 1 68.9831C1 68.7892 1 68.6037 1 68.4182ZM68.7154 63.8648C68.7324 63.519 68.7663 63.2155 68.7663 62.9119C68.7663 51.0646 68.7663 39.2173 68.7663 27.37C68.7663 25.6667 68.0453 24.9668 66.2895 24.9668C47.4245 24.9668 28.568 24.9668 9.703 24.9668C7.88775 24.9668 7.18371 25.6498 7.18371 27.4206C7.18371 39.2342 7.18371 51.0477 7.18371 62.8697C7.18371 63.1986 7.18371 63.5275 7.18371 63.8648C27.7706 63.8648 48.2133 63.8648 68.7154 63.8648ZM3.90948 64.5646C3.50232 67.2461 3.95189 68.435 7.02254 68.4266C27.7791 68.3676 48.5442 68.3929 69.3007 68.3929C69.6485 68.3929 69.9963 68.4182 70.3271 68.376C71.2517 68.2495 71.9303 67.752 72.083 66.8245C72.2017 66.1077 72.1084 65.3573 72.1084 64.5984C71.9133 64.5646 71.7946 64.5309 71.6843 64.5309C63.2443 64.5309 54.8042 64.5225 46.3642 64.5478C46.1097 64.5478 45.7449 64.8766 45.6262 65.1296C45.1003 66.3523 44.2011 67.0268 42.8864 67.0353C39.6037 67.069 36.3209 67.0606 33.0382 67.0353C31.7998 67.0268 30.8498 66.4282 30.4256 65.2645C30.2051 64.649 29.9082 64.5056 29.289 64.5056C21.1289 64.5309 12.9687 64.5225 4.80862 64.5225C4.50325 64.5225 4.19789 64.5478 3.90948 64.5646ZM44.4132 24.3344C44.4556 24.3344 44.6931 24.3681 44.9391 24.3681C48.4084 24.3681 51.8778 24.3681 55.3556 24.3681C56.3819 24.3681 56.4837 24.191 55.9663 23.3141C55.2707 22.1336 55.6609 20.9615 56.9248 20.5483C57.5356 20.3459 57.9003 20.093 57.8155 19.3678C57.7391 18.6932 57.7476 18.1282 56.84 17.9512C55.5337 17.6982 54.9993 16.5093 55.61 15.3203C55.9493 14.6626 55.7967 14.2578 55.2707 13.7941C54.7788 13.364 54.397 13.1195 53.7354 13.5411C52.48 14.3253 51.3943 13.9206 50.9362 12.5292C50.7241 11.8715 50.3509 11.6691 49.6893 11.7113C49.0531 11.7535 48.5611 11.8125 48.366 12.5798C47.9928 14.0386 46.907 14.5614 45.6177 13.8784C44.8967 13.4989 44.5489 13.8362 44.1078 14.2916C43.6667 14.7469 43.5056 15.1348 43.8873 15.7503C44.6592 16.9899 44.269 18.1451 42.9118 18.5499C42.089 18.7944 42.089 19.3088 42.089 19.9665C42.0805 20.6495 42.3265 21.0374 43.0136 21.1048C43.7176 21.1723 44.2096 21.518 44.3199 22.2095C44.4047 22.8587 44.3793 23.5249 44.4132 24.3344ZM30.9007 64.5562C31.206 65.7367 31.8252 66.3607 32.8262 66.3776C36.2531 66.4113 39.6885 66.4113 43.1239 66.3776C44.1927 66.3691 44.8797 65.6271 44.99 64.5646C40.3077 64.5562 35.6423 64.5562 30.9007 64.5562Z" fill="#2776EA" stroke="#2776EA" stroke-width="0.5"/>
<path d="M35.1336 3.74389C35.0658 5.36288 35.931 6.09649 37.5426 5.80136C38.9423 5.54839 39.1713 5.65801 39.8075 6.94814C39.8753 7.09149 39.9432 7.22641 40.011 7.36976C40.8423 9.08994 40.8338 9.08994 39.3918 10.4307C38.5605 11.198 38.6369 12.5134 39.553 13.1796C39.7566 13.3229 39.9601 13.4663 40.1637 13.6096C40.3164 13.7192 40.4945 13.8204 40.5963 13.9638C41.4531 15.1696 40.3928 16.1393 40.1043 17.168C40.0026 17.539 39.2985 17.7836 38.832 17.9944C38.603 18.0956 38.2806 17.9944 38.0007 17.9691C36.7538 17.8679 35.8462 18.8376 36.0582 20.0603C36.3806 21.9407 36.3806 21.9407 34.5823 22.8092C32.7925 23.6777 32.7925 23.6777 31.4353 22.2105C30.6888 21.401 29.374 21.5191 28.653 22.3792C28.2204 22.902 27.6012 23.7115 27.1347 23.6693C26.1253 23.5765 25.1159 23.0959 24.1997 22.5984C23.9198 22.4466 23.8689 21.7046 23.8774 21.2408C23.9113 19.4194 23.1564 18.7027 21.3921 18.9641C19.9585 19.1833 19.7974 19.099 19.1527 17.7751C19.0339 17.5222 18.9067 17.2692 18.7879 17.0247C18.1857 15.7683 18.2196 15.5659 19.263 14.6215C20.5608 13.441 20.5014 12.3532 19.0933 11.3498C17.9058 10.5066 17.8549 10.3379 18.3469 8.94659C18.4486 8.65146 18.5504 8.35633 18.6437 8.0612C19.0594 6.84696 19.3308 6.67831 20.6456 6.7795C22.3675 6.91442 23.1903 6.0206 22.8765 4.35101C22.6135 2.97656 22.7238 2.75732 23.9538 2.16706C24.1743 2.05744 24.3948 1.93939 24.6239 1.82977C26.1253 1.11303 26.2525 1.12989 27.3467 2.32727C28.3986 3.47406 29.5607 3.39817 30.4598 2.13333C31.3844 0.834766 31.5116 0.792605 33.013 1.30697C33.2166 1.37443 33.4287 1.45032 33.6322 1.52621C35.1251 2.04901 35.193 2.1502 35.1336 3.74389ZM34.6162 3.82821C34.4466 3.33914 34.4296 2.63927 34.0903 2.4116C32.4617 1.32384 31.7237 1.50935 30.5361 3.08618C29.9424 3.87037 28.0084 3.96313 27.3128 3.23796C25.9895 1.84664 25.9895 1.84664 24.2506 2.70672C24.1913 2.73202 24.1404 2.76575 24.081 2.78261C23.4957 3.00185 23.2836 3.35601 23.4448 4.01372C23.589 4.60398 23.8435 5.43034 23.572 5.80136C22.9613 6.62772 22.393 7.79137 20.9425 7.42035C19.9076 7.15052 19.2714 7.58056 19.1018 8.65146C19.0848 8.76951 19.0509 8.90443 18.9915 9.00561C18.4571 9.89943 18.754 10.4813 19.6192 10.9619C20.0349 11.1896 20.6117 11.5606 20.6541 11.9316C20.7983 13.0447 21.0952 14.2842 19.7549 15.0347C18.9915 15.4647 18.9576 16.0381 19.3732 16.8223C20.4335 18.8292 19.9755 18.4919 22.0028 18.2221C23.1988 18.0618 24.539 19.2845 24.5136 20.4988C24.5051 21.0469 24.3609 21.8817 24.6493 22.0925C25.3194 22.59 26.1931 22.8851 27.0244 23.0453C27.3043 23.0959 27.72 22.4803 28.0677 22.1599C28.441 21.8142 28.7548 21.2324 29.1789 21.148C30.341 20.9204 31.5371 20.8782 32.275 22.1515C32.4362 22.4297 32.9282 22.7755 33.1318 22.708C33.9206 22.4382 34.7519 22.1262 35.3627 21.595C35.6256 21.3673 35.4475 20.5578 35.3711 20.0266C35.1676 18.6521 36.3381 17.2861 37.7293 17.3198C39.6802 17.3704 39.2731 17.6655 39.9771 15.7683C40.0026 15.7092 40.0026 15.6418 40.0365 15.5912C40.4436 14.8407 40.2146 14.3348 39.4936 13.9047C39.0356 13.6265 38.3909 13.2386 38.3146 12.817C38.111 11.7039 37.848 10.4644 39.1967 9.70549C39.5106 9.52841 39.9347 9.01405 39.8584 8.79481C39.5869 7.97688 39.2307 7.15895 38.7047 6.48437C38.5266 6.2567 37.7802 6.41691 37.3051 6.48437C35.6086 6.69518 34.3532 5.58212 34.6162 3.82821Z" fill="#2776EA" stroke="#2776EA" stroke-width="0.5"/>
<path d="M37.9748 61.5143C28.8731 61.5143 19.7714 61.4975 10.6782 61.5312C9.80453 61.5312 9.58398 61.2867 9.58398 60.435C9.60943 49.7682 9.60943 39.1099 9.58398 28.4431C9.58398 27.6083 9.78756 27.3384 10.6782 27.3469C28.8816 27.3722 47.0764 27.3722 65.2798 27.3469C66.145 27.3469 66.3825 27.583 66.3825 28.4346C66.357 39.1014 66.357 49.7598 66.3825 60.4266C66.3825 61.2698 66.1704 61.5312 65.2883 61.5312C56.1696 61.5059 47.0764 61.5143 37.9748 61.5143ZM65.6869 28.0467C47.1867 28.0467 28.7458 28.0467 10.2711 28.0467C10.2711 39.0002 10.2711 49.8947 10.2711 60.8398C28.7628 60.8398 47.2037 60.8398 65.6869 60.8398C65.6869 49.9031 65.6869 39.034 65.6869 28.0467Z" fill="#2776EA" stroke="#2776EA" stroke-width="0.5"/>
<path d="M53.0148 19.6564C53.0148 21.3766 51.6576 22.7173 49.9357 22.7258C48.2307 22.7258 46.8311 21.3513 46.8311 19.6564C46.8226 17.9953 48.2561 16.5702 49.9442 16.5787C51.6491 16.5702 53.0148 17.9447 53.0148 19.6564ZM52.4125 19.6143C52.3956 18.2988 51.2589 17.1858 49.9357 17.1942C48.587 17.2026 47.5012 18.2904 47.5012 19.6311C47.5012 21.0309 48.6379 22.1439 50.0035 22.1018C51.3268 22.0596 52.421 20.9297 52.4125 19.6143Z" fill="#2776EA" stroke="#2776EA" stroke-width="0.5"/>
<path d="M29.5851 16.9502C27.0743 16.967 25.03 14.9601 25.047 12.4726C25.0555 10.0526 27.1252 8.0204 29.5512 8.02883C32.0111 8.03727 34.0384 10.0526 34.0299 12.4811C34.0299 14.9686 32.0705 16.9417 29.5851 16.9502ZM29.5257 8.69498C27.3712 8.70341 25.6747 10.4152 25.6916 12.5485C25.7171 14.665 27.4899 16.3852 29.6021 16.3515C31.6718 16.3093 33.4107 14.5554 33.4022 12.5232C33.4022 10.3899 31.6633 8.67812 29.5257 8.69498Z" fill="#2776EA" stroke="#2776EA" stroke-width="0.5"/>
<path d="M43.2183 38.1376C42.3786 38.028 41.7594 37.9521 41.1401 37.8762C41.1486 37.7244 41.1656 37.5811 41.1741 37.4293C42.1835 37.3366 43.2014 37.4209 44.2193 37.5727C44.2956 37.5811 44.4144 37.7666 44.4144 37.8594C44.372 38.8375 44.3126 39.8072 44.1175 40.7854C43.2523 40.2288 44.0242 39.3856 43.6085 38.6773C42.5906 39.5037 41.5643 40.3047 40.5803 41.1479C40.4446 41.266 40.4446 41.5864 40.4531 41.8141C40.487 42.9103 39.9441 43.6439 38.9941 43.7451C38.1119 43.8378 37.4079 43.2138 37.1873 42.2273C37.1279 41.9574 36.882 41.6539 36.636 41.519C35.9828 41.1648 35.2703 40.9118 34.5917 40.5914C33.9131 40.271 33.2939 39.9084 32.5813 40.583C32.3863 40.7685 31.8519 40.8191 31.6143 40.6842C30.8933 40.2794 30.4607 40.6757 29.9772 41.0889C29.3326 41.637 28.6794 42.1598 28.0093 42.6742C27.3477 43.1885 26.7454 43.627 26.8811 44.6811C26.9914 45.5749 26.0159 46.2073 25.0574 46.0724C24.1498 45.9459 23.5475 45.0942 23.7087 44.1667C23.8614 43.2813 24.7945 42.5814 25.6597 42.9187C26.3807 43.197 26.7624 42.9103 27.2204 42.5224C27.916 41.9406 28.62 41.3756 29.3326 40.8191C29.9348 40.3469 30.5201 39.9674 30.3505 38.9809C30.2147 38.2135 31.046 37.5052 31.8434 37.4883C32.6831 37.4715 33.3872 37.8509 33.4975 38.6942C33.5908 39.4784 34.0573 39.7145 34.6511 39.9421C35.2024 40.1614 35.7453 40.3975 36.2797 40.6589C36.9328 40.9793 37.5266 41.2997 38.2137 40.6589C38.4088 40.4734 38.9432 40.4228 39.1807 40.5577C39.8508 40.9287 40.2665 40.6167 40.733 40.212C41.4879 39.529 42.2853 38.905 43.2183 38.1376ZM25.5664 43.3235C25.4306 43.315 25.3034 43.315 25.1677 43.3066C24.8793 43.6776 24.4212 44.0149 24.3364 44.4281C24.2261 44.993 24.6418 45.4231 25.2695 45.4484C25.8972 45.4737 26.3552 45.0942 26.2789 44.504C26.2365 44.0908 25.8208 43.7198 25.5664 43.3235ZM33.0818 39.3266C33.0818 39.1832 33.0818 39.0314 33.0818 38.8881C32.7001 38.6267 32.3438 38.2135 31.9282 38.1461C31.3344 38.0533 30.9442 38.5002 30.9442 39.1073C30.9442 39.7229 31.3344 40.1529 31.9282 40.0518C32.3438 39.9843 32.7001 39.5795 33.0818 39.3266ZM38.6124 43.2307C38.7566 43.2307 38.9093 43.2307 39.0535 43.2307C39.3164 42.8513 39.7405 42.5055 39.8084 42.1008C39.9017 41.5105 39.4606 41.1226 38.8414 41.1226C38.2307 41.1226 37.7811 41.5105 37.8659 42.0924C37.9253 42.5055 38.3494 42.8513 38.6124 43.2307Z" fill="#2776EA" stroke="#2776EA" stroke-width="0.5"/>
<path d="M16.8441 29.943C19.4652 29.9598 21.5264 32.0173 21.5264 34.6313C21.5349 37.2622 19.4143 39.3365 16.7423 39.3281C14.1043 39.3196 12.0261 37.1863 12.06 34.5301C12.0939 31.9498 14.206 29.9261 16.8441 29.943ZM16.4115 30.626C14.2145 30.8199 12.5604 32.6919 12.6707 34.7831C12.781 36.849 14.469 38.5692 16.4115 38.5607C16.4115 35.9214 16.4115 33.2821 16.4115 30.626ZM19.8638 37.3465C20.9581 35.9046 21.2125 34.5048 20.5509 33.0207C19.9232 31.5873 18.795 30.7778 17.1155 30.5838C17.1155 31.8402 17.0986 33.0123 17.1325 34.1844C17.141 34.4036 17.2767 34.6566 17.4379 34.8252C18.2013 35.6347 18.9817 36.4274 19.8638 37.3465ZM19.287 37.9452C18.5321 37.0935 17.8874 36.3768 17.1834 35.5757C17.1834 36.6635 17.1834 37.6332 17.1834 38.7968C18.0062 38.468 18.7017 38.1813 19.287 37.9452Z" fill="#2776EA" stroke="#2776EA" stroke-width="0.5"/>
<path d="M48.8672 32.0088C47.8153 32.7424 47.2725 33.7711 46.2461 34.1169C47.3064 33.105 48.3667 32.0931 49.5034 31.0054C50.2668 31.7643 51.3695 32.7846 52.3619 33.8976C52.2432 34.0241 52.1244 34.1422 52.0057 34.2686C51.2253 33.5435 50.4449 32.8183 49.4609 31.9076C49.4609 40.2302 49.4609 48.3336 49.4609 56.437C49.3592 56.4623 49.2489 56.4876 49.1471 56.5045C49.0538 56.3021 48.8926 56.1082 48.8757 55.9058C48.8417 55.2565 48.8587 54.5988 48.8587 53.9495C48.8587 47.0857 48.8587 40.2134 48.8587 33.3495C48.8672 32.9532 48.8672 32.5653 48.8672 32.0088Z" fill="#2776EA" stroke="#2776EA" stroke-width="0.5"/>
<path d="M42.4794 41.5605C42.4794 46.5271 42.4794 51.4937 42.4794 56.4518C42.3776 56.4687 42.2843 56.4855 42.1825 56.5024C42.1062 56.2494 41.9535 56.0049 41.9535 55.7519C41.9365 51.2407 41.9365 46.7379 41.945 42.2266C41.945 41.9905 42.0553 41.7544 42.1147 41.5183C42.2419 41.5352 42.3607 41.552 42.4794 41.5605Z" fill="#2776EA" stroke="#2776EA" stroke-width="0.5"/>
<path d="M45.5498 40.1631C46.2284 40.7365 46.2369 55.9314 45.5498 56.5554C45.5498 51.066 45.5498 45.6693 45.5498 40.1631Z" fill="#2776EA" stroke="#2776EA" stroke-width="0.5"/>
<path d="M32.1395 46.8666C32.1395 50.0624 32.1395 53.2583 32.1395 56.4541C32.0547 56.4794 31.9614 56.4962 31.8766 56.5215C31.7833 56.3107 31.6221 56.1084 31.6221 55.8976C31.6051 53.0475 31.6051 50.1974 31.6221 47.3473C31.6221 47.1702 31.7578 46.9931 31.8257 46.8245C31.9275 46.8329 32.0377 46.8498 32.1395 46.8666Z" fill="#2776EA" stroke="#2776EA" stroke-width="0.5"/>
<path d="M35.1758 56.4287C35.1758 52.3644 35.1758 48.3 35.1758 44.2441C35.2521 44.2188 35.3285 44.1935 35.4048 44.1682C35.5066 44.3875 35.6932 44.6151 35.7017 44.8344C35.7187 48.494 35.7187 52.1536 35.7017 55.8216C35.7017 56.0493 35.5829 56.2769 35.5151 56.5046C35.3963 56.4793 35.2861 56.454 35.1758 56.4287Z" fill="#2776EA" stroke="#2776EA" stroke-width="0.5"/>
<path d="M28.4753 45.5171C28.9248 46.1242 28.9418 55.8213 28.4922 56.4621C28.0596 55.8803 28.0427 46.1832 28.4753 45.5171Z" fill="#2776EA" stroke="#2776EA" stroke-width="0.5"/>
<path d="M38.6543 45.5442C39.299 46.2862 39.2396 55.958 38.6543 56.6073C38.6543 52.8212 38.6543 49.1785 38.6543 45.5442Z" fill="#2776EA" stroke="#2776EA" stroke-width="0.5"/>
<path d="M25.0896 49.4724C25.5222 50.3494 25.4629 55.9062 25.0557 56.4543C24.5637 55.8725 24.5468 50.1976 25.0896 49.4724Z" fill="#2776EA" stroke="#2776EA" stroke-width="0.5"/>
<path d="M63.8892 54.3194C62.0061 54.3194 60.123 54.3194 58.1211 54.3194C58.6809 53.7545 63.0664 53.6701 63.8892 54.3194Z" fill="#2776EA" stroke="#2776EA" stroke-width="0.5"/>
<path d="M58.0186 56.0488C60.1307 56.0488 62.0138 56.0488 64.109 56.0488C63.2777 56.6475 58.8329 56.6475 58.0186 56.0488Z" fill="#2776EA" stroke="#2776EA" stroke-width="0.5"/>
<path d="M58.2305 58.2485C58.8667 57.81 63.303 57.8184 63.8883 58.2653C63.2606 58.7038 58.8158 58.6954 58.2305 58.2485Z" fill="#2776EA" stroke="#2776EA" stroke-width="0.5"/>
</svg>
