<svg width="60" height="60" viewBox="0 0 60 60" fill="none" xmlns="http://www.w3.org/2000/svg">
<path d="M12.1864 18.28C12.1864 17.4317 12.1864 16.7925 12.1864 16.1409C12.1864 12.0716 12.1737 8.01466 12.1864 3.9454C12.1991 1.60957 12.9498 0.847355 15.2911 0.847355C25.0885 0.835061 34.886 0.835061 44.6835 0.847355C47.0374 0.847355 47.8009 1.60957 47.8009 3.93311C47.8136 9.82186 47.8009 15.6983 47.8009 21.5871C47.8009 22.2386 47.8009 22.9025 47.8009 23.7877C50.7274 23.7877 53.463 23.7877 56.2114 23.7877C59.3288 23.7877 59.9905 24.4024 59.9905 27.3898C60.0032 36.979 60.0032 46.5559 59.9905 56.1451C59.9905 59.0464 59.2143 59.7717 56.186 59.7717C38.7287 59.7717 21.2713 59.7717 3.81402 59.7717C0.772982 59.7717 0.009543 59.0464 0.009543 56.1451C-0.003181 44.6749 -0.003181 33.2047 0.009543 21.7469C0.009543 18.9193 0.671191 18.2923 3.53409 18.2923C6.33337 18.28 9.14537 18.28 12.1864 18.28ZM1.90542 25.5703C1.8418 26.0497 1.7909 26.271 1.7909 26.5046C1.7909 36.4503 1.77818 46.396 1.7909 56.3418C1.7909 57.8662 1.94359 57.9768 3.7504 57.9768C21.2077 57.9768 38.6523 57.9768 56.1096 57.9768C58.1836 57.9768 58.2218 57.94 58.2218 55.9484C58.2218 46.5436 58.2218 37.1511 58.2218 27.7463C58.2218 25.5703 58.2091 25.5703 55.9188 25.5703C38.5887 25.5703 21.2713 25.5703 3.94126 25.5703C3.30506 25.5703 2.68158 25.5703 1.90542 25.5703ZM14.0568 2.71602C14.0568 7.96549 14.0568 13.0674 14.0568 18.28C15.711 18.28 17.2378 18.3292 18.7138 18.2431C23.6253 17.9604 26.9081 18.9316 29.6056 22.5829C30.3181 23.5418 31.2978 23.8368 32.5321 23.8C35.484 23.7139 38.436 23.7754 41.3753 23.7754C42.864 23.7754 44.3527 23.7754 45.905 23.7754C45.905 16.6572 45.905 9.72351 45.905 2.71602C35.2805 2.71602 24.8213 2.71602 14.0568 2.71602ZM1.90542 23.6278C10.6595 23.6278 19.21 23.6278 27.7606 23.6278C27.8496 23.4926 27.9387 23.3574 28.0278 23.2221C27.3534 22.6935 26.6663 22.1526 26.0301 21.6117C24.8977 20.6527 23.7398 20.0012 22.0984 20.0257C16.0672 20.1118 10.0361 20.0626 4.00488 20.0626C3.34323 20.0626 2.68158 20.1364 1.91814 20.1856C1.90542 21.4395 1.90542 22.4968 1.90542 23.6278Z" fill="#2776EA"/>
<path d="M39.0334 46.47C41.0183 48.6951 41.0311 48.7566 39.5551 50.2319C37.3793 52.4079 37.3793 52.4079 34.9108 50.4778C33.4603 50.7236 32.4678 51.3137 32.7477 52.9734C32.7859 53.1947 32.7096 53.502 32.5569 53.6619C31.3608 54.8544 29.8467 54.252 28.4597 54.252C27.4546 54.252 27.2001 53.416 27.2128 52.5431C27.2128 52.1251 27.1492 51.7071 27.111 51.2277C26.4112 50.9449 25.7368 50.6745 25.0879 50.4286C22.8357 52.3464 22.6831 52.3833 21.1943 50.9572C19.0694 48.9041 18.6114 49.064 20.9271 46.4823C20.7108 45.1422 20.1255 44.2202 18.4841 44.4784C18.2678 44.5152 17.937 44.4292 17.7843 44.2817C16.461 43.0154 17.1736 41.4418 17.1863 40.0034C17.199 39.0199 18.1406 39.0568 18.904 39.0691C19.273 39.0691 19.6547 39.0691 20.1001 39.0691C20.4182 38.3683 20.7108 37.729 20.978 37.1266C18.446 34.213 19.2349 34.5941 21.4234 32.2829C22.3268 31.3362 23.2175 31.2625 24.1336 32.246C24.6553 32.8115 25.1261 33.168 26.0549 32.7869C26.9838 32.4058 27.2891 31.9018 27.2128 31.0043C27.111 29.652 27.8363 29.1479 29.1723 29.2463C29.6049 29.2832 30.0502 29.2463 30.4956 29.2463C32.5314 29.2586 32.6968 29.2955 32.735 31.2502C32.7605 32.6763 33.8929 32.6025 34.6818 33.0328C37.6974 31.1641 37.7228 31.1641 39.9368 33.6229C40.9547 34.7539 40.9165 34.8892 39.0207 37.0283C39.1225 37.2988 39.237 37.6307 39.3769 37.9503C39.5169 38.2823 39.6823 38.6019 39.8223 38.897C39.9877 38.9584 40.1022 39.0199 40.2167 39.0445C41.082 39.2289 42.4307 38.6142 42.6979 39.7329C43.0033 41.0484 42.7997 42.4868 42.6725 43.8514C42.647 44.0972 41.8454 44.5152 41.4637 44.4538C39.8477 44.2202 39.3515 45.1422 39.0334 46.47ZM21.3216 35.0121C23.4847 35.9587 22.8994 37.1512 22.3522 38.774C21.7288 40.6427 20.5836 40.9869 18.815 40.9254C18.8531 41.6016 18.8913 42.1056 18.9422 42.8556C21.118 42.1302 21.5888 43.4088 22.4413 44.8595C23.4847 46.6421 22.7212 47.6133 21.5888 48.5968C22.0214 49.1377 22.3522 49.5557 22.7848 50.0966C23.9682 48.4493 25.0752 48.437 26.8692 49.064C28.8033 49.7401 29.1087 50.822 29.0196 52.5308C29.7703 52.4816 30.3556 52.4325 30.9028 52.3956C31.1318 49.9491 31.17 50.0229 34.1601 48.646C35.776 47.896 36.1578 49.4819 37.3284 49.8754C37.6846 49.4942 38.0664 49.0763 38.5626 48.5353C36.6031 47.4781 37.0993 46.2978 37.621 44.6873C38.2445 42.7818 39.4787 42.5851 41.1837 42.5974C41.1201 41.9212 41.0692 41.4172 41.0056 40.7041C37.761 41.7245 38.0664 38.9707 37.1248 37.5692C36.1578 36.1308 38.0791 35.8481 38.4099 34.4712C38.1427 34.2622 37.6974 33.8934 37.2648 33.5368C35.2289 35.1473 35.2544 35.0736 32.0352 33.9671C30.4192 33.4139 31.399 32.0616 30.801 31.1395C30.2666 31.1395 29.6812 31.1395 28.9305 31.1395C29.3504 33.082 28.2816 33.6598 26.7038 34.4712C24.7952 35.4547 23.8537 34.5326 22.7085 33.5245C22.2886 34.004 21.9451 34.3482 21.3216 35.0121Z" fill="#2776EA"/>
<path d="M29.7967 11.7632C25.9667 11.7632 22.1368 11.7632 18.3069 11.7632C17.8616 11.7632 17.3908 11.8492 16.9963 11.714C16.6528 11.5911 16.1947 11.21 16.182 10.9395C16.1438 10.374 16.5892 10.2142 16.9327 10.0666C17.3017 9.90681 17.7979 9.99286 18.2305 9.99286C26.0685 9.99286 33.9192 9.99286 41.7572 9.99286C42.0753 9.99286 42.4189 9.98057 42.6861 10.0297C43.1314 10.1035 43.8439 10.374 43.8439 10.9764C43.8439 11.5542 43.0169 11.7386 42.5843 11.7386C39.0725 11.8001 35.5606 11.7755 32.0488 11.7755C31.3108 11.7632 30.5474 11.7632 29.7967 11.7632Z" fill="#2776EA"/>
<path d="M30.1144 14.6408C33.9952 14.6408 37.8888 14.6408 41.7696 14.6408C42.2022 14.6408 42.673 14.5793 43.0802 14.69C43.3728 14.776 43.7673 15.108 43.7927 15.3661C43.8309 15.6366 43.5382 16.0915 43.2837 16.2021C42.8511 16.3865 42.3167 16.4111 41.8332 16.4111C33.9316 16.4234 26.03 16.3988 18.1411 16.4234C17.6576 16.4234 17.4922 16.3742 17.225 16.3742C16.6906 16.3742 16.1816 15.944 16.1816 15.3293C16.1816 14.9604 16.9578 14.69 17.3522 14.6777C19.9861 14.6162 22.62 14.6408 25.2538 14.6408C26.8571 14.6408 28.4857 14.6408 30.1144 14.6408Z" fill="#2776EA"/>
<path d="M29.9998 7.16701C26.1063 7.16701 22.2128 7.16701 18.3319 7.16701C17.8357 7.16701 17.3013 7.1916 16.8432 7.05636C16.5633 6.97031 16.207 6.5769 16.207 6.31873C16.207 6.06056 16.5633 5.67945 16.8432 5.5811C17.2377 5.44587 17.7085 5.49505 18.1411 5.49505C26.0427 5.49505 33.957 5.49505 41.8586 5.49505C42.1131 5.49505 42.3803 5.49505 42.5966 5.51963C43.0674 5.56881 43.8435 5.80239 43.8435 6.31873C43.8435 6.95801 43.0292 7.10554 42.6093 7.13013C40.6626 7.21618 38.7158 7.1793 36.7817 7.1793C34.5169 7.1793 32.252 7.16701 29.9998 7.16701Z" fill="#2776EA"/>
<path d="M37.7613 20.8985C36.1962 20.8985 34.6312 20.96 33.0788 20.8616C32.6717 20.837 32.29 20.333 31.8955 20.0502C32.29 19.7552 32.6971 19.2143 33.1043 19.2143C36.2853 19.1405 39.479 19.1405 42.66 19.2143C43.0672 19.2266 43.4616 19.7798 43.8688 20.0871C43.4616 20.3576 43.0672 20.837 42.6346 20.8616C41.0059 20.9477 39.3772 20.8985 37.7613 20.8985Z" fill="#2776EA"/>
<path d="M35.7006 41.712C35.7133 44.7978 33.1812 47.2935 30.0257 47.3057C26.8701 47.3303 24.2999 44.8347 24.2872 41.7612C24.2744 38.6632 26.7811 36.1798 29.9621 36.1675C33.1431 36.1552 35.7006 38.6263 35.7006 41.712ZM30.0002 37.9747C27.799 37.9747 26.0685 39.659 26.0812 41.7858C26.094 43.8512 27.9771 45.6338 30.0766 45.5846C32.1251 45.5231 33.881 43.802 33.9065 41.8104C33.9319 39.6713 32.2015 37.9747 30.0002 37.9747Z" fill="#2776EA"/>
</svg>
