<svg width="60" height="56" viewBox="0 0 60 56" fill="none" xmlns="http://www.w3.org/2000/svg">
<path d="M0 18.3137C0 16.7417 0 15.2061 0 13.6341C0.36036 13.3782 0.684685 13.0491 1.08108 12.8663C9.08108 9.46628 17.0811 6.10279 25.1171 2.7393C26.6667 2.08122 28.2162 1.38659 29.7658 0.728516C29.9459 0.728516 30.1261 0.728516 30.3063 0.728516C30.4865 0.874754 30.6667 0.984433 30.8468 1.09411C40.1802 5.006 49.5495 8.95444 58.8829 12.8663C59.2793 13.0491 59.6396 13.3782 60 13.6341C60 15.2061 60 16.7417 60 18.3137C59.6396 18.8621 59.1351 19.0449 58.4865 19.0084C57.9459 18.9718 57.4054 19.0084 56.8649 19.0084C55.9279 19.0084 55.9279 19.0084 55.9279 19.9589C55.9279 31.329 55.9279 42.699 55.9279 54.0691C55.9279 54.7272 55.8198 55.2755 55.2432 55.6411C38.4144 55.6411 21.6216 55.6411 4.79279 55.6411C4.07207 55.3852 3.96396 54.8003 3.96396 54.1056C3.96396 42.9915 3.96396 31.9139 3.96396 20.7998C3.96396 20.4707 3.92793 20.1417 3.96396 19.8492C4.03604 19.1912 3.81982 18.9352 3.17117 18.9718C2.55856 19.0084 1.90991 18.9718 1.2973 18.9718C0.756757 19.0084 0.324324 18.8256 0 18.3137ZM54.0541 53.5938C54.0541 53.3744 54.0901 53.2282 54.0901 53.082C54.0901 41.1635 54.0901 29.2085 54.0901 17.29C54.0901 16.8148 53.9459 16.5954 53.5135 16.4492C51.3874 15.6083 49.2613 14.7309 47.0991 13.8534C41.6577 11.6233 36.1802 9.39316 30.7027 7.16302C30.3784 7.01678 29.9459 6.94366 29.6216 7.05334C21.9099 10.1609 14.1982 13.305 6.48649 16.4492C6.09009 16.5954 5.94595 16.8148 5.94595 17.2535C5.94595 29.1719 5.94595 41.0904 5.94595 52.9723C5.94595 53.4841 6.09009 53.6304 6.59459 53.6304C8.86487 53.5938 11.1351 53.6304 13.4054 53.6304C13.5856 53.6304 13.8018 53.5938 14.0541 53.5938C14.0541 53.2648 14.0541 53.0088 14.0541 52.7164C14.0541 45.5507 14.0541 38.4215 14.018 31.2558C14.018 29.3547 14.1261 29.2451 16 29.2451C25.045 29.2451 34.1261 29.2451 43.1712 29.2451C43.6757 29.2451 44.1802 29.2451 44.6487 29.2816C45.8018 29.3547 45.9459 29.501 45.9459 30.7074C45.9459 38.0925 45.9459 45.4776 45.9459 52.8626C45.9459 53.4841 46.0901 53.7035 46.7387 53.7035C48.9369 53.6669 51.1712 53.7035 53.3694 53.6669C53.5856 53.6304 53.8018 53.6304 54.0541 53.5938ZM44.0721 53.5938C44.0721 53.3013 44.0721 53.0454 44.0721 52.7529C44.0721 45.9528 44.0721 39.1162 44.0721 32.3161C44.0721 30.9634 44.1802 31.1827 42.955 31.1827C34.2703 31.1827 25.5495 31.1827 16.8649 31.1827C15.9279 31.1827 15.9279 31.1827 15.9279 32.0967C15.9279 38.9699 15.9279 45.8432 15.9279 52.7529C15.9279 52.9357 15.8919 53.1185 15.964 53.3013C16 53.4476 16.1441 53.6304 16.2883 53.6304C16.8649 53.6669 17.4414 53.6304 18.0541 53.6304C18.0541 53.3379 18.0541 53.1916 18.0541 53.0454C18.0541 47.6346 18.0541 42.2237 18.0541 36.8129C18.0541 35.7161 18.3423 35.3871 19.4595 35.3871C21.8378 35.3871 24.2523 35.3871 26.6306 35.3871C27.7117 35.3871 28 35.6796 28 36.7764C28 38.0559 28.036 39.3355 28 40.6151C27.964 41.3097 28.1802 41.4926 28.8649 41.4926C30.8108 41.456 32.7568 41.456 34.6667 41.4926C35.7838 41.5291 36 41.785 36 42.8818C36 44.2345 36 45.5872 36 46.9399C36 47.4518 36.1441 47.6346 36.6486 47.598C37.982 47.5615 39.3514 47.598 40.7207 47.598C41.6937 47.598 41.982 47.8174 42.018 48.8045C42.0541 50.0475 42.0541 51.254 42.0541 52.497C42.0541 52.8626 42.0541 53.2648 42.0541 53.6304C42.7387 53.5938 43.3514 53.5938 44.0721 53.5938ZM1.94595 17.0707C2.48649 17.0707 2.95495 17.0341 3.42342 17.0707C3.89189 17.1072 4.07207 16.9244 4.03604 16.4492C3.96396 15.6814 4.25225 15.2427 4.97297 14.9137C13.0811 11.6599 21.1532 8.36949 29.2252 5.07912C29.7658 4.89632 30.2342 4.85976 30.7387 5.07912C38.7748 8.36949 46.8108 11.6233 54.8468 14.8771C55.6036 15.2061 56.0721 15.6083 55.964 16.4857C55.964 16.6685 56.1441 16.9976 56.2883 16.9976C56.8288 17.0707 57.4054 17.0341 58.018 17.0341C58.018 16.4126 57.982 15.9008 58.018 15.3889C58.0901 14.804 57.8739 14.5115 57.2973 14.2922C48.3964 10.5631 39.4955 6.83398 30.5946 3.06833C30.1261 2.88554 29.7658 2.88554 29.2973 3.06833C25.4054 4.71352 21.5135 6.35871 17.6216 7.96733C12.5766 10.0878 7.53153 12.2083 2.48649 14.3653C2.34234 14.475 2.01802 14.7309 1.98198 14.9137C1.90991 15.5717 1.94595 16.2664 1.94595 17.0707ZM31.027 43.3937C30.1622 43.3937 29.3333 43.3937 28.4685 43.3937C28.0721 43.3937 27.964 43.5399 27.964 43.9055C27.964 44.9657 27.964 45.9894 28 47.0496C28 47.2324 28.2883 47.5249 28.4324 47.5249C30.1261 47.5615 31.8559 47.5249 33.5496 47.5615C33.9459 47.5615 34.0541 47.4152 34.0541 47.0496C34.0541 46.026 34.0541 45.0023 34.0541 43.9786C34.0541 43.5765 33.9099 43.3937 33.5135 43.4302C32.6847 43.3937 31.8559 43.3937 31.027 43.3937ZM20 37.2882C20 38.714 20 40.0302 20 41.3829C22.018 41.3829 23.964 41.3829 25.9459 41.3829C25.982 41.2732 26.018 41.2001 26.018 41.1635C26.018 40.3592 26.0541 39.5183 26.0541 38.714C26.0541 37.0688 26.2703 37.3247 24.6486 37.3247C23.1351 37.2516 21.6216 37.2882 20 37.2882ZM27.964 53.6304C29.9459 53.6304 31.8198 53.6304 33.6937 53.5938C33.8018 53.5938 34.018 53.2648 34.018 53.082C34.0541 52.0583 34.018 51.0346 34.0541 50.011C34.0541 49.6454 33.9459 49.4626 33.5496 49.4626C31.8559 49.4626 30.1261 49.4626 28.4324 49.4991C28.2883 49.4991 28 49.755 27.964 49.9013C27.964 51.1077 27.964 52.3142 27.964 53.6304ZM19.964 43.3937C19.964 44.7464 19.964 45.9894 20 47.2324C20 47.3421 20.2523 47.5249 20.3964 47.5249C22.1261 47.5615 23.8559 47.5615 25.5856 47.5249C25.7297 47.5249 26.018 47.269 26.018 47.0862C26.0541 46.026 26.018 44.9292 26.0541 43.8689C26.0541 43.4668 25.8739 43.3571 25.5135 43.3937C24.8288 43.3937 24.1441 43.3937 23.4955 43.3937C22.3423 43.3937 21.1892 43.3937 19.964 43.3937ZM19.964 53.6304C21.9099 53.6304 23.7477 53.6304 25.5856 53.5938C25.7297 53.5938 26.018 53.2648 26.018 53.1185C26.0541 52.0583 26.0541 51.0346 26.018 49.9744C26.018 49.7916 25.7297 49.4991 25.5856 49.4991C23.8559 49.4626 22.1261 49.4626 20.3964 49.4991C20.2523 49.4991 20 49.7185 20 49.8647C19.964 51.0712 19.964 52.3142 19.964 53.6304ZM35.964 53.5938C37.3694 53.5938 38.7027 53.5938 40.036 53.5938C40.036 52.3508 40.036 51.1443 40.036 49.9744C40.036 49.6088 39.8919 49.4991 39.5676 49.4991C38.5225 49.4991 37.4414 49.4991 36.3964 49.5357C36.2523 49.5357 35.964 49.8282 35.964 49.9744C35.964 51.1443 35.964 52.3508 35.964 53.5938Z" fill="#2776EA"/>
<path d="M45.9817 21.1309C45.9817 22.0815 45.9817 22.9955 45.9817 23.946C45.9817 24.7503 45.6934 25.1159 44.9007 25.1159C42.9907 25.1525 41.0808 25.1525 39.1709 25.1159C38.4502 25.1159 38.0898 24.7138 38.0898 24.0192C38.0898 22.0815 38.0898 20.1438 38.0898 18.2062C38.0898 17.475 38.4502 17.1094 39.1709 17.1094C41.0448 17.1094 42.9547 17.1094 44.8286 17.1094C45.6574 17.1094 45.9817 17.4384 45.9817 18.2793C45.9817 19.1933 45.9457 20.1438 45.9817 21.1309ZM40.0358 19.0105C40.0358 20.4363 40.0358 21.7525 40.0358 23.1417C41.2971 23.1417 42.4862 23.1417 43.7115 23.1052C43.8556 23.1052 44.0718 22.8492 44.0718 22.703C44.1079 21.6428 44.1079 20.546 44.0718 19.4858C44.0718 19.303 43.7835 19.0105 43.6394 19.0105C42.4502 18.9739 41.261 19.0105 40.0358 19.0105Z" fill="#2776EA"/>
<path d="M14.0547 21.0173C14.0547 20.0668 14.0547 19.1162 14.0547 18.1291C14.0547 17.3979 14.379 17.0689 15.0637 17.0323C17.0096 16.9957 18.9916 16.9957 20.9376 17.0323C21.6223 17.0323 21.9466 17.3979 21.9466 18.056C21.9826 20.0302 21.9826 22.041 21.9466 24.0152C21.9466 24.6367 21.5502 25.0389 20.9376 25.0389C18.9916 25.0754 17.0096 25.0754 15.0637 25.0389C14.379 25.0389 14.0907 24.6367 14.0547 23.9421C14.0547 22.9915 14.0547 22.0044 14.0547 21.0173ZM20.0006 19.0065C18.7394 19.0065 17.5502 19.0065 16.361 19.0431C16.2168 19.0431 15.9646 19.299 15.9646 19.4452C15.9286 20.542 15.9286 21.6388 15.9646 22.7356C15.9646 22.8819 16.1808 23.1378 16.325 23.1743C17.5502 23.2109 18.7394 23.2109 20.0006 23.2109C20.0006 21.7485 20.0006 20.4324 20.0006 19.0065Z" fill="#2776EA"/>
<path d="M30.0178 17.0726C30.9547 17.0726 31.8916 17.0726 32.8646 17.0726C33.6574 17.0726 33.9817 17.4017 33.9817 18.206C33.9817 20.1071 33.9817 22.0447 33.9817 23.9458C33.9817 24.7136 33.6574 25.0792 32.8646 25.1157C30.9907 25.1157 29.0808 25.1157 27.207 25.1157C26.4502 25.1157 26.0898 24.7501 26.0898 23.9824C26.0898 22.0447 26.0898 20.1071 26.1259 18.1694C26.1259 17.4017 26.4502 17.1092 27.243 17.1092C28.1079 17.0361 29.0808 17.0726 30.0178 17.0726ZM30.0538 19.0103C29.5493 19.0103 29.0088 19.0103 28.5043 19.0103C28.0718 18.9737 27.9637 19.1565 27.9637 19.5587C27.9637 20.5823 27.9637 21.606 27.9637 22.6297C27.9637 22.9953 28.0718 23.1781 28.4682 23.1415C29.5133 23.1415 30.5223 23.105 31.5673 23.1415C31.9637 23.1415 32.0718 22.9953 32.0718 22.6297C32.0718 21.606 32.0718 20.5823 32.0718 19.5587C32.0718 19.1565 31.9637 18.9737 31.5313 19.0103C31.0268 19.0103 30.5583 19.0103 30.0538 19.0103Z" fill="#2776EA"/>
</svg>
