<svg width="60" height="58" viewBox="0 0 60 58" fill="none" xmlns="http://www.w3.org/2000/svg">
<path d="M19.3978 57.1404C16.199 56.0526 12.9967 54.9618 9.62825 53.8145C9.25359 56.1749 7.44742 56.4695 5.30901 56.3222C4.60563 56.2721 3.89518 56.3253 3.18826 56.3253C1.01096 56.3253 0.0142144 55.4727 0.00714526 53.5386C-0.00699303 49.661 0.00361069 45.7834 0.00714526 41.9058C0.00714526 40.1034 -0.0140621 38.301 0.0248182 36.5017C0.0601639 34.8967 0.989757 34.0159 2.78179 33.9312C4.10372 33.8685 5.43272 33.8717 6.75465 33.9344C8.46538 34.0159 9.15462 34.6992 9.67774 36.7211C13.7496 36.7336 17.2241 38.3543 20.8187 39.9153C22.9925 40.8589 25.6505 40.9717 28.1105 41.3479C29.9344 41.6268 31.7971 41.7021 33.6351 41.909C36.6783 42.2507 38.5411 43.9434 38.9228 46.6705C38.9581 46.9339 39.0147 47.194 39.0819 47.5796C42.0756 46.4229 44.9775 45.3007 47.8794 44.1785C50.1415 43.3008 52.3789 42.3698 54.6693 41.5548C56.4013 40.9404 57.9423 41.2914 59.0133 42.4074C60.1302 43.5703 60.2752 44.8963 59.5682 46.2505C59.3244 46.7176 58.8755 47.2003 58.3771 47.4542C52.6334 50.3757 46.8685 53.2596 41.1001 56.1373C40.3437 56.5166 39.5307 56.8112 38.7461 57.1435C32.299 57.1404 25.8484 57.1404 19.3978 57.1404ZM9.53989 38.5047C9.53989 39.3542 9.64593 40.1097 9.49748 40.8244C9.41618 41.2225 8.91427 41.5516 8.60323 41.9121C8.25684 41.5453 7.76553 41.2193 7.60648 40.7962C7.43328 40.3385 7.58881 39.7899 7.57467 39.2821C7.46156 34.9845 8.45124 35.6772 3.20947 35.6239C3.16705 35.6239 3.1211 35.6302 3.07869 35.6302C2.24807 35.6114 1.90168 35.9562 1.90168 36.7054C1.91582 42.3447 1.91228 47.9871 1.89461 53.6264C1.89107 54.3223 2.241 54.6452 2.99386 54.6514C3.96587 54.6608 4.94141 54.6169 5.90635 54.6765C7.15405 54.7517 7.63476 54.3348 7.59941 53.1938C7.52165 50.6892 7.56406 48.1815 7.56053 45.6737C7.56053 45.0374 7.53932 44.2788 8.50779 44.26C9.58231 44.2412 9.53282 45.0436 9.53282 45.7176C9.53989 47.52 9.56463 49.3225 9.51868 51.1218C9.50454 51.7707 9.73783 52.0935 10.4447 52.3192C13.3926 53.2534 16.3015 54.2847 19.2635 55.1875C20.2885 55.5009 21.4196 55.6639 22.5047 55.6765C26.7427 55.7298 30.9877 55.7893 35.2221 55.6451C36.8869 55.5887 38.6542 55.2282 40.1599 54.6013C42.7896 53.5073 45.2497 52.0998 47.784 50.8271C50.8555 49.2849 53.9306 47.7457 57.0127 46.216C58.0272 45.7113 58.3311 44.9621 57.9317 44.0374C57.5394 43.1284 56.684 42.865 55.659 43.0594C55.2349 43.1409 54.8319 43.3196 54.429 43.4763C49.5831 45.3634 44.7548 47.2912 39.8807 49.1187C38.7814 49.5325 37.5196 49.7613 36.3249 49.7927C32.9282 49.8773 29.5244 49.8428 26.1241 49.7739C25.7212 49.7645 25.3288 49.2598 24.933 48.9871C25.3182 48.7081 25.6682 48.3633 26.1029 48.1721C26.3857 48.0467 26.7957 48.1438 27.1491 48.1438C30.0192 48.147 32.8928 48.1094 35.7594 48.1783C36.8621 48.2065 37.1343 47.8335 37.0778 46.9495C36.9753 45.3508 35.77 44.0061 33.9885 43.7302C32.6878 43.5265 31.3694 43.3948 30.0546 43.2788C25.4384 42.8776 20.8788 42.4701 16.8282 40.0532C14.7817 38.8276 12.2615 38.4452 9.53989 38.5047Z" fill="#2776EA"/>
<path d="M12.3613 29.6079C12.4108 29.191 12.3683 29.0029 12.4567 28.8869C13.7716 27.1001 11.9477 25.7616 11.5872 24.2225C11.5307 23.9874 11.0499 23.7742 10.7177 23.6551C9.20844 23.1128 8.55808 22.3323 8.53687 20.8966C8.5192 19.6835 8.52273 18.4704 8.53687 17.2573C8.55454 15.9156 9.27559 15.0818 10.6541 14.5708C11.0676 14.4172 11.4423 14.0411 11.672 13.6837C11.976 13.2167 12.0502 12.6305 12.3577 12.1634C12.8985 11.339 13.0576 10.6086 12.4991 9.68701C11.9371 8.76228 12.3825 7.83129 13.1424 7.10091C14.1887 6.09468 15.2914 5.1292 16.4048 4.18252C17.3662 3.36751 18.4832 3.32362 19.7273 3.6653C20.2752 3.81577 20.9397 3.74994 21.5229 3.65276C22.0283 3.56813 22.4843 3.2578 22.9862 3.12614C23.9794 2.86283 24.7323 2.53682 25.0822 1.48984C25.4145 0.493012 26.5102 0.038484 27.7084 0.019676C29.1646 -0.00540143 30.6209 -0.00540143 32.0771 0.0134066C33.5899 0.0353493 34.4842 0.671688 35.0603 1.93183C35.2123 2.26724 35.6046 2.57444 35.9687 2.76879C36.4176 3.00389 36.9796 3.06031 37.4461 3.27033C38.5136 3.74994 39.4573 4.03833 40.7439 3.52424C41.4119 3.2578 42.6844 3.61828 43.3701 4.06968C44.6319 4.90037 45.6923 5.98496 46.7845 7.01C47.6929 7.86263 47.7353 8.85946 47.3465 9.96286C47.1768 10.4456 47.2617 11.0349 47.3783 11.5521C47.4773 12.0004 47.8307 12.4016 47.9862 12.8468C48.2902 13.7245 48.6614 14.3984 49.8454 14.7056C50.9129 14.9815 51.436 15.9125 51.4607 16.9344C51.4961 18.3042 51.4925 19.6741 51.4643 21.0439C51.4395 22.2288 50.7397 23.1003 49.5026 23.4357C48.732 23.6426 48.4422 24.0062 48.2513 24.6049C48.1064 25.0532 47.9332 25.5109 47.6752 25.9152C47.1344 26.7647 46.9011 27.517 47.5268 28.4951C48.1064 29.3979 47.6045 30.332 46.8269 31.0592C45.7913 32.0216 44.7344 32.9682 43.6529 33.8898C42.6172 34.7707 41.4402 34.8867 40.1148 34.3663C39.7118 34.2096 39.1392 34.2597 38.6903 34.3632C38.1 34.5011 37.5699 34.8302 36.9867 34.9964C36.0005 35.2816 35.3501 35.6829 34.8588 36.6327C34.5054 37.3129 33.2895 37.8865 32.3634 38.0276C30.8612 38.2564 29.2848 38.1154 27.7402 38.084C26.3441 38.0558 25.5028 37.3474 24.955 36.2408C24.7747 35.8741 24.3647 35.5387 23.9688 35.3318C23.4457 35.0559 22.7953 34.9744 22.2616 34.7111C21.3391 34.2629 20.5155 34.0372 19.4693 34.5701C18.4938 35.0653 17.444 34.7331 16.6522 34.0967C15.4116 33.0968 14.2169 32.0467 13.0965 30.9432C12.6829 30.542 12.5309 29.9276 12.3613 29.6079ZM45.6746 8.77796C45.6145 8.64003 45.5898 8.37358 45.4237 8.22312C44.3492 7.23883 43.2782 6.25141 42.1295 5.33608C41.8856 5.14173 41.1751 5.08531 40.9524 5.25145C39.8108 6.09468 38.7928 5.76867 37.6653 5.23891C36.7781 4.81886 35.7283 4.66213 34.873 4.20447C34.2262 3.85965 33.5723 3.30168 33.2966 2.69982C32.9997 2.05408 32.6957 1.69046 31.9251 1.69046C30.5573 1.69046 29.1859 1.65284 27.8215 1.74061C27.4362 1.76569 26.7894 2.13872 26.7611 2.39889C26.595 3.76561 25.5488 4.15745 24.2975 4.50226C23.3785 4.75304 22.5126 5.16368 21.6501 5.55238C20.8337 5.91913 20.0631 6.01631 19.3032 5.47401C18.6175 4.985 18.0237 5.11352 17.4475 5.64642C16.5922 6.43636 15.7191 7.21375 14.8319 7.97862C14.2417 8.48643 14.0579 9.01306 14.6057 9.62745C15.242 10.339 15.1182 11.0412 14.687 11.8123C14.178 12.7182 13.7044 13.6524 13.3616 14.6147C13.0505 15.4893 12.538 15.9877 11.5094 16.2385C11.0747 16.3451 10.5374 16.9187 10.488 17.3199C10.3501 18.4829 10.3642 19.671 10.4773 20.8371C10.5162 21.2446 10.9722 21.9154 11.3115 21.953C12.7289 22.116 13.1636 22.9467 13.5524 23.9686C13.8882 24.8526 14.5068 25.6582 14.7789 26.5516C14.9627 27.1566 14.9733 27.9496 14.6764 28.4888C14.2699 29.2223 14.2912 29.705 14.9344 30.2473C15.8287 31.0028 16.6416 31.8429 17.5924 32.5357C17.96 32.8052 18.826 33.0215 19.084 32.8397C20.3105 31.9683 21.3532 32.3821 22.502 32.9212C23.3149 33.3005 24.1915 33.5983 25.0716 33.8303C26.0118 34.0811 26.648 34.5168 26.7717 35.4102C26.8742 36.1249 27.3373 36.4195 28.1219 36.4133C29.4015 36.4038 30.688 36.4697 31.9605 36.3725C32.4341 36.3349 33.2259 35.9713 33.2683 35.686C33.4662 34.3193 34.5089 33.94 35.7566 33.5952C36.6332 33.3538 37.4674 32.9682 38.2803 32.5827C39.1392 32.1752 39.8744 32.172 40.7651 32.6078C41.1928 32.8178 42.08 32.7614 42.4617 32.4918C43.4903 31.7645 44.3527 30.8555 45.2964 30.0311C45.8655 29.5358 45.9185 29.0217 45.4237 28.4731C44.7839 27.7616 44.9041 27.0657 45.3247 26.2883C45.8584 25.3071 46.2366 24.257 46.7633 23.2727C46.9966 22.837 47.3995 22.1912 47.7848 22.1536C49.8172 21.9561 49.651 20.7336 49.5874 19.4891C49.5521 18.787 49.5521 18.0785 49.5803 17.3764C49.6122 16.577 49.1915 16.2479 48.3432 15.9783C47.707 15.7746 47.1415 15.1946 46.735 14.668C46.3497 14.1665 46.2508 13.5019 45.9574 12.9345C45.3106 11.6838 44.1654 10.4832 45.6287 9.09143C45.6676 9.05067 45.6464 8.94723 45.6746 8.77796Z" fill="#2776EA"/>
<path d="M25.5484 28.2702C31.8188 30.8908 39.4534 27.4677 41.1006 21.4146C41.1536 21.2234 41.1041 20.9695 41.2313 20.8473C41.5494 20.5369 41.9383 20.283 42.3023 20.0072C42.5639 20.3927 43.1223 20.8504 43.0304 21.1482C42.6275 22.4585 42.2175 23.8127 41.4752 24.9819C38.3542 29.9128 31.7163 32.0318 25.5661 30.1729C19.7729 28.4206 16.0157 23.0321 16.7968 17.5997C17.5886 12.089 22.7314 7.71612 28.9063 7.30234C35.2897 6.87603 41.0581 10.4088 42.7795 15.8036C42.8749 16.1045 43.0658 16.4431 42.981 16.7095C42.8714 17.0637 42.5709 17.5935 42.2917 17.6248C41.9524 17.6624 41.4682 17.3176 41.2066 17.0261C40.9804 16.7753 40.9874 16.3616 40.8673 16.0293C38.8773 10.5185 32.1545 7.57506 26.1281 9.57812C19.9638 11.6219 16.9983 17.5903 19.5715 23.0321C20.7237 22.2453 21.3812 21.2328 21.7346 20.0605C21.929 19.4241 21.9926 18.7502 22.081 18.0919C22.6395 14.0325 26.7184 11.1799 31.2674 11.7849C32.0308 11.8852 33.0417 12.3554 33.3174 12.904C33.533 13.3335 32.9251 14.2362 32.4479 14.7597C31.6491 15.6374 30.7054 16.4274 29.7369 17.1672C28.7295 17.9383 29.2103 18.4461 29.9172 19.073C30.6453 19.7188 31.232 20.2266 32.1616 19.2705C33.0523 18.3552 34.0173 17.4712 35.0706 16.7064C35.5831 16.3333 36.4809 15.9697 36.9969 16.1296C37.5342 16.2957 38.0538 17.0575 38.1775 17.628C39.1035 21.8316 35.7704 25.6277 30.7761 26.0979C28.7826 26.2828 26.9976 26.7875 25.5484 28.2702ZM35.9401 18.0167C34.9963 18.9383 34.1587 19.979 33.07 20.7344C32.3949 21.2046 31.2532 21.5745 30.465 21.4146C27.2733 20.7752 26.3685 17.8004 28.6306 15.7816C29.4435 15.0575 30.2636 14.3397 31.2179 13.4996C27.2662 13.0607 24.2018 15.3553 23.9155 18.7094C23.7705 20.4398 23.106 21.9883 21.9255 23.3581C20.494 25.0195 20.4834 25.0133 22.2436 26.4489C22.438 26.6088 22.6678 26.7373 22.848 26.9066C23.4029 27.4332 23.82 27.3141 24.375 26.8314C26.0786 25.3581 28.1428 24.5995 30.5357 24.4365C34.2399 24.1888 36.8273 21.3645 35.9401 18.0167Z" fill="#2776EA"/>
</svg>
