<svg width="65" height="58" viewBox="0 0 65 58" fill="none" xmlns="http://www.w3.org/2000/svg">
<path d="M63.9824 48.9809H62.9471V14.1037C62.946 13.1587 62.5701 12.2527 61.9019 11.5845C61.2337 10.9162 60.3277 10.5404 59.3827 10.5393H22.6444V4.50344C22.6444 3.51127 22.0008 2.11206 18.9346 1.07473C16.886 0.381605 14.183 0 11.3222 0C8.46145 0 5.75829 0.381605 3.70971 1.07473C0.64364 2.1118 0 3.51178 0 4.50344V21.3704C0 22.3625 0.64364 23.7618 3.70971 24.7992C4.17679 24.9573 4.67949 25.0983 5.2089 25.2231V48.9809H4.17374C3.90385 48.9809 3.64502 49.0881 3.45418 49.2789C3.26334 49.4698 3.15613 49.7286 3.15613 49.9985V53.0785C3.15751 54.3192 3.65097 55.5086 4.52825 56.3859C5.40553 57.2631 6.59497 57.7566 7.83562 57.7579H60.3206C61.5613 57.7565 62.7507 57.2631 63.6279 56.3858C64.5052 55.5086 64.9986 54.3192 65 53.0785V49.9985C65 49.7286 64.8928 49.4698 64.702 49.2789C64.5111 49.0881 64.2523 48.9809 63.9824 48.9809ZM10.8689 25.8697C11.0196 25.8719 11.1706 25.8736 11.3222 25.8736C14.1826 25.8736 16.886 25.492 18.9346 24.7988C22.0008 23.7618 22.6444 22.3618 22.6444 21.37V16.1992H57.287V45.3561H10.8689V25.8697ZM4.36187 3.00247C6.20629 2.37918 8.67769 2.03573 11.3222 2.03573C13.9667 2.03573 16.4385 2.37918 18.2826 3.00247C19.9775 3.57589 20.6092 4.22742 20.6092 4.50344C20.6092 4.77947 19.9775 5.431 18.2826 6.00442C16.4381 6.62771 13.9666 6.97116 11.3222 6.97116C8.67782 6.97116 6.20578 6.62771 4.36187 6.00442C2.66691 5.431 2.03523 4.77947 2.03523 4.50344C2.03523 4.22742 2.66691 3.57589 4.36187 3.00247ZM2.03523 7.2122C2.57094 7.5014 3.1313 7.74237 3.70971 7.93229C5.75765 8.62529 8.4617 9.00689 11.3222 9.00689C14.1827 9.00689 16.886 8.62529 18.9346 7.93229C19.513 7.7424 20.0735 7.50142 20.6092 7.2122V10.1251C20.6092 10.4011 19.9775 11.0527 18.2826 11.6261C16.4381 12.2494 13.9666 12.5928 11.3222 12.5928C8.67782 12.5928 6.20591 12.2494 4.36187 11.6261C2.66691 11.0527 2.03523 10.4011 2.03523 10.1251V7.2122ZM2.03523 12.8345C2.57094 13.1237 3.1313 13.3647 3.70971 13.5546C5.75765 14.2476 8.4617 14.6293 11.3222 14.6293C14.1827 14.6293 16.886 14.2477 18.9346 13.5546C19.513 13.3647 20.0735 13.1237 20.6092 12.8345V15.7479C20.6092 16.0238 19.9775 16.6755 18.2826 17.2489C16.4381 17.8722 13.9666 18.2163 11.3222 18.2163C8.67782 18.2163 6.20591 17.8728 4.36187 17.2489C2.66691 16.6756 2.03523 16.024 2.03523 15.7479V12.8345ZM2.03523 21.3697V18.4568C2.57094 18.746 3.1313 18.987 3.70971 19.1769C5.75765 19.8699 8.4617 20.2516 11.3222 20.2516C14.1827 20.2516 16.886 19.87 18.9346 19.1769C19.513 18.987 20.0735 18.746 20.6092 18.4568V21.3697C20.6092 21.6458 19.9775 22.2973 18.2826 22.8707C16.4381 23.494 13.9666 23.8374 11.3222 23.8374C8.67782 23.8374 6.20591 23.494 4.36187 22.8707C2.66691 22.2977 2.03523 21.646 2.03523 21.37V21.3697ZM7.24413 25.6002C7.75917 25.6722 8.29049 25.7298 8.83415 25.7737V46.3737C8.83415 46.6436 8.94136 46.9025 9.1322 47.0933C9.32304 47.2841 9.58187 47.3914 9.85176 47.3914H58.3046C58.5745 47.3914 58.8333 47.2841 59.0242 47.0933C59.215 46.9025 59.3222 46.6436 59.3222 46.3737V15.1816C59.3222 14.9117 59.215 14.6529 59.0242 14.4621C58.8333 14.2712 58.5745 14.164 58.3046 14.164H22.6444V12.574H59.3827C59.7881 12.5745 60.1768 12.7357 60.4635 13.0224C60.7501 13.3091 60.9114 13.6978 60.9119 14.1032V48.9809H7.24413V25.6002ZM25.9645 51.0163H42.1915V52.034H25.9645V51.0163ZM62.9648 53.0785C62.964 53.7796 62.6851 54.4516 62.1894 54.9473C61.6937 55.443 61.0217 55.7219 60.3206 55.7227H7.83562C7.13461 55.7219 6.46254 55.443 5.96687 54.9473C5.47119 54.4516 5.19238 53.7796 5.19161 53.0785V51.0161H23.9293V53.0513C23.9293 53.3212 24.0365 53.58 24.2273 53.7709C24.4182 53.9617 24.677 54.0689 24.9469 54.0689H43.2091C43.479 54.0689 43.7378 53.9617 43.9287 53.7709C44.1195 53.58 44.2267 53.3212 44.2267 53.0513V51.0161H62.9648V53.0785ZM22.2311 26.0824C22.9051 24.3159 23.9363 22.7076 25.2605 21.358C26.5846 20.0084 28.173 18.9467 29.9263 18.2393C31.6797 17.5318 33.5601 17.1939 35.4501 17.2467C37.34 17.2995 39.1987 17.7418 40.9098 18.546L40.792 18.2331C40.6969 17.9805 40.7061 17.7005 40.8175 17.4546C40.9289 17.2088 41.1334 17.0173 41.386 16.9222C41.6386 16.8271 41.9186 16.8363 42.1644 16.9477C42.4103 17.0591 42.6018 17.2636 42.6969 17.5162L43.7282 20.2569C43.7793 20.3926 43.8008 20.5376 43.7913 20.6823C43.7817 20.827 43.7414 20.968 43.6729 21.0958C43.6045 21.2237 43.5095 21.3354 43.3943 21.4235C43.2791 21.5117 43.1465 21.5742 43.0052 21.6068L40.1521 22.2666C40.0211 22.2989 39.885 22.3048 39.7518 22.284C39.6185 22.2632 39.4907 22.2161 39.3758 22.1455C39.2609 22.0749 39.1611 21.9821 39.0824 21.8726C39.0037 21.763 38.9475 21.639 38.9172 21.5075C38.8868 21.3761 38.8829 21.24 38.9056 21.107C38.9284 20.9741 38.9773 20.847 39.0496 20.7331C39.1219 20.6192 39.2161 20.5209 39.3268 20.4437C39.4374 20.3666 39.5623 20.3123 39.6941 20.2838L39.775 20.2651C38.3234 19.6273 36.7574 19.291 35.1719 19.2769C33.5864 19.2627 32.0145 19.5709 30.5517 20.1827C29.089 20.7945 27.7658 21.6971 26.6625 22.8359C25.5592 23.9746 24.6988 25.3257 24.1336 26.8071C24.086 26.932 24.0142 27.0462 23.9225 27.1434C23.8307 27.2405 23.7207 27.3187 23.5987 27.3733C23.4768 27.4279 23.3452 27.458 23.2116 27.4618C23.0781 27.4656 22.945 27.4431 22.8202 27.3955C22.6953 27.3479 22.581 27.2761 22.4839 27.1844C22.3867 27.0926 22.3086 26.9826 22.254 26.8606C22.1993 26.7386 22.1692 26.6071 22.1654 26.4735C22.1616 26.3399 22.1842 26.2069 22.2318 26.082L22.2311 26.0824ZM45.8816 22.5174C47.0314 23.9891 47.8688 25.6799 48.3426 27.4865C48.8165 29.293 48.9167 31.1772 48.6373 33.0238C48.3579 34.8704 47.7046 36.6406 46.7175 38.226C45.7304 39.8115 44.4302 41.1789 42.8964 42.2445L43.2291 42.2995C43.3614 42.3207 43.4883 42.3678 43.6024 42.4382C43.7164 42.5086 43.8155 42.6008 43.8938 42.7096C43.9721 42.8184 44.0282 42.9416 44.0588 43.0721C44.0894 43.2026 44.0939 43.3378 44.072 43.4701C44.0502 43.6023 44.0024 43.729 43.9315 43.8427C43.8606 43.9564 43.7679 44.055 43.6588 44.1329C43.5496 44.2107 43.4262 44.2662 43.2955 44.2961C43.1649 44.3261 43.0296 44.33 42.8975 44.3075L40.0083 43.8304C39.8653 43.8067 39.7289 43.7528 39.6084 43.6722C39.4878 43.5916 39.3859 43.4861 39.3095 43.3629C39.233 43.2397 39.1838 43.1016 39.165 42.9578C39.1463 42.814 39.1585 42.6679 39.2009 42.5292L40.0559 39.7285C40.1384 39.4748 40.3171 39.2637 40.5537 39.1405C40.7903 39.0173 41.0658 38.9919 41.3209 39.0698C41.576 39.1477 41.7903 39.3227 41.9177 39.557C42.0451 39.7913 42.0754 40.0663 42.0021 40.3228L41.9782 40.401C43.2406 39.475 44.3043 38.3051 45.1062 36.9604C45.908 35.6157 46.4318 34.1237 46.6463 32.5729C46.8609 31.0221 46.7619 29.4439 46.3552 27.9321C45.9486 26.4202 45.2425 25.0054 44.2789 23.7714C44.1166 23.5586 44.0447 23.2903 44.0788 23.0248C44.1129 22.7593 44.2502 22.5179 44.461 22.353C44.6718 22.188 44.9391 22.1128 45.205 22.1436C45.471 22.1743 45.714 22.3086 45.8816 22.5174ZM38.399 43.2801C38.4234 43.4115 38.4217 43.5464 38.3939 43.6772C38.3662 43.8079 38.313 43.9319 38.2373 44.0421C38.1616 44.1522 38.065 44.2464 37.9529 44.3193C37.8409 44.3921 37.7155 44.4421 37.5841 44.4665C35.697 44.8177 33.7573 44.7695 31.89 44.325C30.0227 43.8805 28.2692 43.0496 26.7427 41.8859C25.2163 40.7222 23.9506 39.2514 23.0274 37.5685C22.1042 35.8856 21.544 34.0279 21.3828 32.1152L21.1685 32.3765C20.9973 32.5851 20.7502 32.7172 20.4816 32.7436C20.213 32.7701 19.9449 32.6887 19.7363 32.5175C19.5277 32.3463 19.3956 32.0992 19.3692 31.8306C19.3427 31.562 19.424 31.2939 19.5953 31.0853L21.4532 28.8211C21.5452 28.709 21.6601 28.6179 21.7901 28.5538C21.9202 28.4898 22.0625 28.4542 22.2074 28.4496C22.3523 28.445 22.4965 28.4714 22.6304 28.5271C22.7643 28.5827 22.8847 28.6664 22.9837 28.7724L24.9816 30.9142C25.0728 31.0119 25.1438 31.1266 25.1907 31.2518C25.2375 31.377 25.2593 31.5101 25.2546 31.6437C25.25 31.7773 25.2191 31.9087 25.1637 32.0303C25.1084 32.1519 25.0295 32.2615 24.9318 32.3526C24.8341 32.4438 24.7194 32.5149 24.5942 32.5617C24.469 32.6086 24.3359 32.6303 24.2023 32.6257C24.0687 32.621 23.9374 32.5901 23.8157 32.5348C23.6941 32.4794 23.5845 32.4006 23.4934 32.3028L23.4392 32.2448C23.6157 33.845 24.1204 35.3914 24.9219 36.7876C25.7234 38.1837 26.8043 39.3994 28.0971 40.3587C29.3899 41.318 30.8667 42.0003 32.4352 42.3627C34.0037 42.7252 35.6301 42.7602 37.2127 42.4654C37.478 42.4163 37.752 42.4745 37.9744 42.6272C38.1968 42.78 38.3495 43.0148 38.399 43.2801ZM40.4823 38.2715L42.3649 36.3889C42.4594 36.2944 42.5343 36.1823 42.5855 36.0588C42.6366 35.9353 42.6629 35.803 42.6629 35.6694C42.6629 35.5357 42.6366 35.4034 42.5855 35.2799C42.5343 35.1565 42.4594 35.0443 42.3649 34.9498L41.9773 34.5622C42.1851 34.1635 42.3577 33.7474 42.4928 33.3185H43.0406C43.3104 33.3185 43.5693 33.2113 43.7601 33.0205C43.951 32.8297 44.0582 32.5708 44.0582 32.3009V29.6385C44.0582 29.3686 43.951 29.1098 43.7601 28.9189C43.5693 28.7281 43.3104 28.6209 43.0406 28.6209H42.493C42.3578 28.1921 42.1853 27.776 41.9774 27.3773L42.365 26.9898C42.4595 26.8953 42.5345 26.7831 42.5856 26.6596C42.6367 26.5361 42.6631 26.4038 42.6631 26.2702C42.6631 26.1365 42.6367 26.0042 42.5856 25.8807C42.5345 25.7573 42.4595 25.6451 42.365 25.5506L40.4824 23.668C40.3879 23.5735 40.2757 23.4986 40.1523 23.4474C40.0288 23.3963 39.8965 23.3699 39.7628 23.3699C39.6292 23.3699 39.4969 23.3963 39.3734 23.4474C39.2499 23.4986 39.1377 23.5735 39.0433 23.668L38.6557 24.0557C38.257 23.8478 37.8409 23.6753 37.4121 23.5402V22.9924C37.4121 22.7226 37.3049 22.4637 37.1141 22.2729C36.9233 22.082 36.6644 21.9748 36.3945 21.9748H33.7321C33.4622 21.9748 33.2034 22.082 33.0125 22.2729C32.8217 22.4637 32.7145 22.7226 32.7145 22.9924V23.5402C32.2856 23.6753 31.8695 23.8478 31.4708 24.0557L31.0832 23.668C30.9887 23.5735 30.8766 23.4986 30.7531 23.4474C30.6296 23.3963 30.4973 23.3699 30.3637 23.3699C30.23 23.3699 30.0977 23.3963 29.9742 23.4474C29.8507 23.4986 29.7386 23.5735 29.6441 23.668L27.7615 25.5506C27.5707 25.7414 27.4635 26.0002 27.4635 26.2701C27.4635 26.54 27.5707 26.7988 27.7615 26.9896L28.1497 27.378C27.9418 27.7766 27.7693 28.1927 27.6342 28.6215H27.0864C26.8165 28.6215 26.5577 28.7287 26.3669 28.9196C26.176 29.1104 26.0688 29.3692 26.0688 29.6391V32.3007C26.0688 32.5706 26.176 32.8294 26.3669 33.0202C26.5577 33.2111 26.8165 33.3183 27.0864 33.3183H27.6342C27.7692 33.7471 27.9417 34.1633 28.1496 34.5619L27.7621 34.9495C27.6676 35.044 27.5927 35.1562 27.5415 35.2797C27.4904 35.4031 27.4641 35.5355 27.4641 35.6691C27.4641 35.8027 27.4904 35.9351 27.5415 36.0585C27.5927 36.182 27.6676 36.2942 27.7621 36.3887L29.6447 38.2713C29.7392 38.3658 29.8514 38.4407 29.9749 38.4919C30.0983 38.543 30.2306 38.5693 30.3643 38.5693C30.4979 38.5693 30.6303 38.543 30.7537 38.4919C30.8772 38.4407 30.9894 38.3658 31.0839 38.2713L31.4715 37.8837C31.8701 38.0916 32.2863 38.2641 32.7151 38.3992V38.947C32.7151 39.2168 32.8223 39.4757 33.0132 39.6665C33.204 39.8574 33.4628 39.9646 33.7327 39.9646H36.3952C36.6651 39.9646 36.9239 39.8574 37.1147 39.6665C37.3056 39.4757 37.4128 39.2168 37.4128 38.947V38.3992C37.8416 38.2641 38.2577 38.0916 38.6563 37.8837L39.0439 38.2713C39.2347 38.4619 39.4933 38.569 39.763 38.5691C40.0327 38.5691 40.2914 38.4621 40.4823 38.2715ZM38.2529 35.7606C37.6299 36.1772 36.9307 36.4668 36.1955 36.6128C35.9647 36.6588 35.757 36.7834 35.6077 36.9654C35.4585 37.1473 35.3769 37.3754 35.3769 37.6107V37.9287H34.7497V37.6107C34.7497 37.3753 34.6681 37.1472 34.5188 36.9653C34.3696 36.7833 34.1618 36.6587 33.931 36.6127C33.1958 36.4668 32.4966 36.1772 31.8735 35.7604C31.6777 35.6298 31.4427 35.571 31.2084 35.5942C30.9742 35.6174 30.7552 35.7211 30.5888 35.8876L30.3633 36.113L29.9197 35.6695L30.1452 35.4441C30.3118 35.2777 30.4155 35.0587 30.4387 34.8245C30.4619 34.5902 30.4031 34.3552 30.2724 34.1593C29.8555 33.5364 29.5656 32.8372 29.4196 32.1019C29.3735 31.8711 29.2489 31.6634 29.067 31.5141C28.885 31.3649 28.657 31.2833 28.4217 31.2833H28.1037V30.6561H28.4217C28.657 30.6561 28.8851 30.5745 29.0671 30.4252C29.2491 30.276 29.3737 30.0682 29.4197 29.8374C29.5656 29.1022 29.8552 28.4031 30.2719 27.7801C30.4026 27.5843 30.4613 27.3492 30.4382 27.1149C30.415 26.8807 30.3113 26.6617 30.1447 26.4953L29.9192 26.2698L30.3637 25.8261L30.5892 26.0516C30.7556 26.2182 30.9745 26.3219 31.2088 26.3451C31.4431 26.3683 31.6781 26.3095 31.8739 26.1788C32.4969 25.7619 33.196 25.4721 33.9313 25.326C34.1621 25.28 34.3698 25.1554 34.5191 24.9734C34.6683 24.7915 34.7499 24.5634 34.7499 24.3281V24.0101H35.3772V24.3281C35.3772 24.5634 35.4588 24.7915 35.6081 24.9734C35.7573 25.1554 35.965 25.28 36.1958 25.326C36.931 25.4719 37.6302 25.7615 38.2532 26.1782C38.449 26.3089 38.6841 26.3676 38.9183 26.3444C39.1526 26.3212 39.3716 26.2175 39.5379 26.051L39.7632 25.8261L40.2068 26.2697L39.9812 26.4952C39.8147 26.6616 39.711 26.8806 39.6878 27.1148C39.6646 27.3491 39.7234 27.5841 39.854 27.7799C40.2708 28.4029 40.5604 29.1021 40.7063 29.8373C40.7523 30.0681 40.8769 30.2758 41.0589 30.425C41.2408 30.5742 41.4689 30.6558 41.7042 30.6558H42.0222V31.2831H41.7042C41.4688 31.2831 41.2408 31.3647 41.0588 31.5139C40.8769 31.6632 40.7523 31.8709 40.7063 32.1017C40.5604 32.8369 40.2708 33.5361 39.854 34.1591C39.7234 34.3549 39.6646 34.59 39.6878 34.8242C39.711 35.0585 39.8147 35.2774 39.9812 35.4438L40.2066 35.6694L39.7632 36.1129L39.5377 35.8874C39.3713 35.7209 39.1523 35.6173 38.918 35.5942C38.6837 35.571 38.4487 35.6298 38.2529 35.7606ZM35.0631 26.3274C34.1448 26.3274 33.2472 26.5997 32.4837 27.1099C31.7202 27.62 31.1251 28.3452 30.7737 29.1935C30.4223 30.0419 30.3303 30.9754 30.5095 31.8761C30.6886 32.7767 31.1308 33.604 31.7801 34.2533C32.4294 34.9026 33.2567 35.3448 34.1573 35.5239C35.058 35.7031 35.9915 35.6111 36.8399 35.2597C37.6882 34.9083 38.4133 34.3132 38.9235 33.5497C39.4337 32.7862 39.706 31.8885 39.706 30.9703C39.7047 29.7393 39.2152 28.5591 38.3447 27.6887C37.4743 26.8182 36.2941 26.3287 35.0631 26.3274ZM35.0631 33.577C34.5474 33.577 34.0432 33.4241 33.6144 33.1376C33.1856 32.851 32.8513 32.4438 32.654 31.9673C32.4566 31.4908 32.405 30.9665 32.5056 30.4607C32.6062 29.9548 32.8546 29.4902 33.2192 29.1255C33.5839 28.7608 34.0486 28.5125 34.5544 28.4119C35.0602 28.3112 35.5845 28.3629 36.061 28.5602C36.5375 28.7576 36.9448 29.0918 37.2313 29.5207C37.5178 29.9495 37.6707 30.4536 37.6707 30.9694C37.6701 31.6608 37.3951 32.3236 36.9062 32.8125C36.4174 33.3014 35.7545 33.5763 35.0631 33.577ZM9.50717 10.8004C9.50717 10.5305 9.61438 10.2717 9.80522 10.0809C9.99606 9.89003 10.2549 9.78282 10.5248 9.78282H12.1195C12.3894 9.78282 12.6482 9.89003 12.8391 10.0809C13.0299 10.2717 13.1371 10.5305 13.1371 10.8004C13.1371 11.0703 13.0299 11.3292 12.8391 11.52C12.6482 11.7108 12.3894 11.818 12.1195 11.818H10.5248C10.2549 11.818 9.99606 11.7108 9.80522 11.52C9.61438 11.3292 9.50717 11.0703 9.50717 10.8004ZM9.50717 16.4227C9.50717 16.1529 9.61438 15.894 9.80522 15.7032C9.99606 15.5123 10.2549 15.4051 10.5248 15.4051H12.1195C12.3894 15.4051 12.6482 15.5123 12.8391 15.7032C13.0299 15.894 13.1371 16.1529 13.1371 16.4227C13.1371 16.6926 13.0299 16.9515 12.8391 17.1423C12.6482 17.3331 12.3894 17.4404 12.1195 17.4404H10.5248C10.3911 17.4404 10.2588 17.414 10.1353 17.3629C10.0119 17.3117 9.89968 17.2368 9.80518 17.1423C9.71068 17.0478 9.63573 16.9356 9.5846 16.8121C9.53347 16.6886 9.50716 16.5564 9.50717 16.4227ZM12.1195 23.0627H10.5249C10.255 23.0627 9.99619 22.9555 9.80535 22.7646C9.61451 22.5738 9.5073 22.3149 9.5073 22.045C9.5073 21.7752 9.61451 21.5163 9.80535 21.3255C9.99619 21.1347 10.255 21.0274 10.5249 21.0274H12.1195C12.3894 21.0274 12.6482 21.1347 12.8391 21.3255C13.0299 21.5163 13.1371 21.7752 13.1371 22.045C13.1371 22.3149 13.0299 22.5738 12.8391 22.7646C12.6482 22.9555 12.3894 23.0627 12.1195 23.0627Z" fill="#2776EA"/>
</svg>
