<svg width="65" height="61" viewBox="0 0 65 61" fill="none" xmlns="http://www.w3.org/2000/svg">
<path d="M50.0671 44.5599C49.7699 44.5599 49.4849 44.6779 49.2748 44.8881C49.0647 45.0982 48.9466 45.3832 48.9466 45.6803V54.6439C48.9452 55.1412 48.8457 55.6334 48.6541 56.0923C48.4624 56.5512 48.1822 56.9678 47.8295 57.3185C47.4768 57.6691 47.0585 57.9468 46.5984 58.1358C46.1384 58.3247 45.6457 58.4212 45.1483 58.4197H19.8488C18.8474 58.4197 17.887 58.0219 17.1788 57.3138C16.4707 56.6057 16.0729 55.6453 16.0729 54.6439V45.6803C16.0729 45.3832 15.9549 45.0982 15.7447 44.8881C15.5346 44.6779 15.2496 44.5599 14.9525 44.5599C14.6553 44.5599 14.3703 44.6779 14.1602 44.8881C13.9501 45.0982 13.832 45.3832 13.832 45.6803V54.6439C13.835 56.2387 14.4699 57.7674 15.5976 58.8951C16.7253 60.0228 18.254 60.6577 19.8488 60.6606H45.1483C46.7461 60.6606 48.2788 60.0274 49.4108 58.8997C50.5427 57.772 51.1816 56.2417 51.1875 54.6439V45.6803C51.1875 45.3832 51.0695 45.0982 50.8593 44.8881C50.6492 44.6779 50.3642 44.5599 50.0671 44.5599Z" fill="#2776EA"/>
<path d="M14.9527 16.1231C15.2499 16.1231 15.5348 16.0051 15.745 15.795C15.9551 15.5848 16.0731 15.2999 16.0731 15.0027V6.03917C16.0702 5.54143 16.1657 5.04802 16.3541 4.58732C16.5425 4.12662 16.8202 3.70772 17.1711 3.35472C17.522 3.00172 17.9393 2.72159 18.3989 2.53043C18.8584 2.33928 19.3513 2.24087 19.849 2.24088H45.1486C45.6459 2.23941 46.1386 2.3359 46.5987 2.52486C47.0587 2.71382 47.477 2.99154 47.8297 3.34216C48.1824 3.69279 48.4626 4.10945 48.6543 4.56836C48.846 5.02727 48.9454 5.51944 48.9468 6.01676V14.9803C48.9468 15.2774 49.0649 15.5624 49.275 15.7726C49.4851 15.9827 49.7701 16.1007 50.0673 16.1007C50.3644 16.1007 50.6494 15.9827 50.8596 15.7726C51.0697 15.5624 51.1877 15.2774 51.1877 14.9803V6.01676C51.1818 4.41896 50.5429 2.88862 49.411 1.7609C48.2791 0.63318 46.7464 -1.09995e-05 45.1486 1.43311e-10H19.849C18.2542 0.00296163 16.7255 0.63782 15.5978 1.76554C14.4701 2.89326 13.8352 4.42193 13.8323 6.01676V14.9803C13.8293 15.1293 13.8561 15.2774 13.911 15.4159C13.966 15.5545 14.0481 15.6807 14.1524 15.7871C14.2567 15.8935 14.3813 15.978 14.5187 16.0358C14.6561 16.0935 14.8037 16.1232 14.9527 16.1231Z" fill="#2776EA"/>
<path d="M29.293 52.6047C29.293 53.4575 29.6318 54.2754 30.2348 54.8785C30.8379 55.4815 31.6558 55.8203 32.5086 55.8203C33.3615 55.8203 34.1794 55.4815 34.7824 54.8785C35.3855 54.2754 35.7243 53.4575 35.7243 52.6047C35.7243 51.7518 35.3855 50.9339 34.7824 50.3308C34.1794 49.7278 33.3615 49.389 32.5086 49.389C31.6558 49.389 30.8379 49.7278 30.2348 50.3308C29.6318 50.9339 29.293 51.7518 29.293 52.6047ZM33.4834 52.6047C33.4834 52.8632 33.3807 53.1111 33.1979 53.2939C33.0151 53.4767 32.7672 53.5794 32.5086 53.5794C32.2501 53.5794 32.0022 53.4767 31.8194 53.2939C31.6365 53.1111 31.5338 52.8632 31.5338 52.6047C31.5338 52.3461 31.6365 52.0982 31.8194 51.9154C32.0022 51.7326 32.2501 51.6299 32.5086 51.6299C32.7672 51.6299 33.0151 51.7326 33.1979 51.9154C33.3807 52.0982 33.4834 52.3461 33.4834 52.6047Z" fill="#2776EA"/>
<path d="M64.677 30.0054L61.2485 26.588L52.341 17.6805C52.1311 17.4719 51.8471 17.3547 51.5511 17.3547C51.2551 17.3547 50.9711 17.4719 50.7612 17.6805L45.159 23.2827V20.5601C45.159 20.2629 45.0409 19.9779 44.8308 19.7678C44.6207 19.5577 44.3357 19.4396 44.0385 19.4396C43.7414 19.4396 43.4564 19.5577 43.2463 19.7678C43.0361 19.9779 42.9181 20.2629 42.9181 20.5601V25.546L41.8761 26.588L38.5148 30.0054C38.3038 30.2149 38.1847 30.4996 38.1836 30.7969C38.1826 31.0943 38.2997 31.3798 38.5091 31.5908C38.7186 31.8018 39.0034 31.9209 39.3007 31.922C39.598 31.923 39.8836 31.8059 40.0946 31.5964L41.4727 30.0838V39.9773C41.4727 40.2745 41.5908 40.5595 41.8009 40.7696C42.011 40.9797 42.296 41.0977 42.5932 41.0977H60.4082C60.7053 41.0977 60.9903 40.9797 61.2004 40.7696C61.4105 40.5595 61.5286 40.2745 61.5286 39.9773V30.0838L63.0412 31.5964C63.2522 31.8133 63.5407 31.9376 63.8433 31.9418C64.1458 31.946 64.4377 31.8298 64.6546 31.6188C64.8715 31.4078 64.9958 31.1193 65 30.8167C65.0042 30.5142 64.888 30.2223 64.677 30.0054ZM59.3325 38.8569H43.7136V27.8429L44.7556 26.8009L51.4782 20.0783L59.2653 27.9214L59.3325 38.8569Z" fill="#2776EA"/>
<path d="M41.5617 16.1119C41.6461 15.9068 41.6677 15.6813 41.6238 15.4639C41.58 15.2465 41.4725 15.047 41.3152 14.8907L37.6177 11.1932C37.4034 11.0096 37.1277 10.9137 36.8457 10.9246C36.5637 10.9355 36.2962 11.0524 36.0967 11.252C35.8971 11.4515 35.7802 11.719 35.7693 12.001C35.7585 12.283 35.8544 12.5587 36.0379 12.773L37.8194 14.5657H24.4974C24.2002 14.5657 23.9152 14.6838 23.7051 14.8939C23.495 15.104 23.377 15.389 23.377 15.6862C23.377 15.9833 23.495 16.2683 23.7051 16.4784C23.9152 16.6886 24.2002 16.8066 24.4974 16.8066H37.8194L36.0379 18.5881C35.8806 18.7442 35.7731 18.9433 35.7289 19.1605C35.6848 19.3777 35.7061 19.603 35.79 19.8081C35.874 20.0132 36.0168 20.1888 36.2006 20.3126C36.3843 20.4365 36.6006 20.5031 36.8222 20.5041C36.9705 20.5034 37.1171 20.4734 37.2537 20.4157C37.3902 20.358 37.514 20.2738 37.6177 20.1679C37.6626 20.0895 41.797 16.1119 41.5617 16.1119Z" fill="#2776EA"/>
<path d="M41.641 43.6748C41.641 43.3776 41.523 43.0926 41.3128 42.8825C41.1027 42.6724 40.8177 42.5543 40.5206 42.5543H27.1985L28.98 40.7616C29.1636 40.5473 29.2595 40.2716 29.2486 39.9896C29.2377 39.7076 29.1208 39.4401 28.9213 39.2405C28.7217 39.041 28.4543 38.9241 28.1723 38.9132C27.8903 38.9023 27.6146 38.9982 27.4002 39.1818L23.7028 42.8792C23.4941 43.0892 23.377 43.3731 23.377 43.6692C23.377 43.9652 23.4941 44.2491 23.7028 44.4591L27.4002 48.1565C27.504 48.2624 27.6277 48.3466 27.7643 48.4043C27.9008 48.462 28.0475 48.492 28.1957 48.4926C28.4173 48.4917 28.6337 48.4251 28.8174 48.3012C29.0011 48.1773 29.144 48.0018 29.228 47.7967C29.3119 47.5916 29.3332 47.3662 29.289 47.1491C29.2449 46.9319 29.1374 46.7327 28.98 46.5767L27.1985 44.7952H40.5206C40.8177 44.7952 41.1027 44.6771 41.3128 44.467C41.523 44.2569 41.641 43.9719 41.641 43.6748Z" fill="#2776EA"/>
<path d="M22.9966 39.8316C31.3887 31.5516 25.3383 16.8066 13.4616 16.8962C1.58496 16.9859 -4.46541 31.462 3.84825 39.7196C8.67735 45.0417 18.1227 45.0865 22.9966 39.8316ZM13.4616 19.1371C22.3131 19.0139 27.7921 29.4003 22.7613 36.6048C22.2698 35.2676 21.496 34.0521 20.4926 33.0409C19.4891 32.0297 18.2795 31.2466 16.9462 30.7449C17.531 30.0756 17.9107 29.2522 18.0399 28.3729C18.1691 27.4936 18.0424 26.5957 17.6749 25.7865C17.3073 24.9773 16.7146 24.2911 15.9674 23.8098C15.2203 23.3286 14.3504 23.0727 13.4616 23.0727C12.5729 23.0727 11.703 23.3286 10.9558 23.8098C10.2087 24.2911 9.61592 24.9773 9.2484 25.7865C8.88089 26.5957 8.75417 27.4936 8.88338 28.3729C9.0126 29.2522 9.39228 30.0756 9.97706 30.7449C8.64128 31.2446 7.42918 32.0268 6.42362 33.0382C5.41806 34.0496 4.64278 35.2661 4.15077 36.6048C-0.857596 29.3891 4.62136 19.0027 13.4616 19.1371ZM11.0527 27.7085C11.0943 27.0994 11.3656 26.5289 11.8117 26.1122C12.2579 25.6955 12.8456 25.4637 13.456 25.4637C14.0665 25.4637 14.6542 25.6955 15.1003 26.1122C15.5465 26.5289 15.8178 27.0994 15.8594 27.7085C15.8003 28.3043 15.5215 28.8568 15.0773 29.2582C14.6331 29.6596 14.0553 29.8812 13.4565 29.8798C12.8578 29.8784 12.2811 29.6541 11.8387 29.2506C11.3964 28.8471 11.1202 28.2934 11.0639 27.6973L11.0527 27.7085ZM5.92107 38.6104C7.54571 30.3079 19.3663 30.3191 21.0134 38.6104C18.9429 40.4764 16.2545 41.5091 13.4672 41.5091C10.68 41.5091 7.99153 40.4764 5.92107 38.6104Z" fill="#2776EA"/>
</svg>
