<svg width="65" height="65" viewBox="0 0 65 65" fill="none" xmlns="http://www.w3.org/2000/svg">
<path d="M32.5 0C23.8189 0 15.6575 3.38064 9.51895 9.51895C3.38064 15.6575 0 23.8189 0 32.5C0 41.1811 3.38064 49.3425 9.51895 55.4811C15.6575 61.6194 23.8189 65 32.5 65C41.1811 65 49.3425 61.6194 55.4811 55.4811C61.6194 49.3425 65 41.1811 65 32.5C65 23.8189 61.6194 15.6575 55.4811 9.51895C49.3425 3.38064 41.1811 0 32.5 0ZM52.7879 52.7879C47.8202 57.7555 41.3513 60.6755 34.4043 61.1277V57.8685H30.5957V61.1277C23.6487 60.6755 17.1799 57.7555 12.2121 52.7879C7.24433 47.8202 4.32453 41.3512 3.87232 34.4043H7.22744V30.5957H3.87232C4.32453 23.6488 7.24433 17.1798 12.2121 12.2121C17.1798 7.24445 23.6487 4.32453 30.5957 3.87232V7.30184H34.4043V3.87232C41.3513 4.32453 47.8201 7.24445 52.7879 12.2121C57.7557 17.1799 60.6755 23.6488 61.1277 30.5957H58.0729V34.4043H61.1277C60.6755 41.3512 57.7557 47.8202 52.7879 52.7879Z" fill="#2776EA"/>
<path d="M61.1914 61.1914H55.4785V65H65V55.4785H61.1914V61.1914Z" fill="#2776EA"/>
<path d="M3.80859 3.80859H9.52148V0H0V9.52148H3.80859V3.80859Z" fill="#2776EA"/>
<path d="M3.80859 55.4785H0V65H9.52148V61.1914H3.80859V55.4785Z" fill="#2776EA"/>
<path d="M55.4785 0V3.80859H61.1914V9.52148H65V0H55.4785Z" fill="#2776EA"/>
<path d="M32.5004 12.3434C21.3859 12.3434 12.3438 21.3856 12.3438 32.5C12.3438 43.6144 21.3859 52.6566 32.5004 52.6566C43.6148 52.6566 52.657 43.6144 52.657 32.5C52.657 21.3856 43.6148 12.3434 32.5004 12.3434ZM23.4567 18.8882V34.6713L18.3156 40.6207C16.9397 38.2267 16.1522 35.4536 16.1522 32.5C16.1523 26.8274 19.057 21.8211 23.4567 18.8882ZM20.6474 43.7474L27.2653 36.0888V17.0115C28.9095 16.4543 30.6703 16.152 32.5004 16.152C33.3261 16.152 34.1375 16.2141 34.9307 16.3329V31.5223L40.1554 37.3593V46.9413C37.8702 48.1575 35.2646 48.8481 32.5004 48.8481C27.8395 48.848 23.6282 46.8872 20.6474 43.7474ZM43.964 44.1431V35.9037L38.7393 30.0667V17.3902C44.6674 19.847 48.8485 25.6939 48.8485 32.4999C48.8484 37.0527 46.9769 41.176 43.964 44.1431Z" fill="#2776EA"/>
</svg>
