<svg width="73" height="60" viewBox="0 0 73 60" fill="none" xmlns="http://www.w3.org/2000/svg">
<path d="M19.2586 31.1004C14.4692 30.3695 9.91353 32.176 8.32415 35.4029C12.4608 39.0312 12.4685 42.3888 8.2585 45.4698C9.10243 46.9677 10.3809 48.0149 11.8872 48.8198C13.3588 49.6056 14.9559 49.9257 16.6206 49.9257C27.2402 49.9276 37.8617 49.9257 48.4814 49.9238C49.8177 49.9238 50.3411 50.1889 50.3469 50.9009C50.3546 51.594 49.81 51.8819 48.4833 51.8819C37.8308 51.8819 27.1784 51.897 16.5259 51.8762C12.2889 51.8667 8.98076 50.0696 6.60346 46.642C6.30606 46.2121 6.03762 46.0038 5.46792 45.9925C2.48616 45.9319 0.0489953 43.4814 0.00457786 40.5689C-0.0417708 37.539 2.31622 35.0147 5.3984 34.884C6.03955 34.8575 6.34082 34.6227 6.68071 34.1379C9.0078 30.8069 12.2676 29.1215 16.3714 28.9946C17.3003 28.9662 18.2312 28.9908 19.1195 28.9908C19.2026 28.8924 19.2721 28.8469 19.2759 28.7977C19.4324 27.0934 19.4111 26.8699 21.1569 26.7127C23.2407 26.5252 23.4666 24.9592 24.0943 23.6355C24.185 23.4423 24.0344 23.0901 23.9089 22.859C23.5748 22.2493 23.1963 21.6622 22.8255 21.0714C22.4431 20.4597 22.4296 19.9106 22.9993 19.3765C23.9282 18.5035 24.832 17.604 25.7358 16.7064C26.2147 16.2292 26.7226 16.161 27.2923 16.5322C27.3985 16.6023 27.5125 16.661 27.6245 16.7254C29.884 18.0358 29.8898 18.049 32.1879 16.945C32.4505 16.8181 32.6649 16.464 32.7634 16.1705C32.9932 15.485 33.1458 14.7748 33.3157 14.0704C33.4721 13.4171 33.8951 13.1216 34.5613 13.1197C35.8166 13.1179 37.0719 13.116 38.3272 13.1103C39.0649 13.1065 39.5573 13.4095 39.7118 14.1499C39.7311 14.2427 39.7562 14.3336 39.7813 14.4245C40.4399 16.892 40.436 16.9034 42.8481 17.7801C43.0933 17.8691 43.4641 17.7934 43.7132 17.6703C44.3718 17.3446 45.0091 16.9715 45.629 16.5795C46.2682 16.1762 46.7993 16.2065 47.34 16.767C48.2033 17.6608 49.0916 18.53 49.9974 19.3803C50.5323 19.8821 50.5632 20.401 50.2117 20.9919C50.1461 21.1017 50.0765 21.2058 50.0109 21.3138C48.6455 23.5521 48.6378 23.5559 49.8293 25.8189C49.9413 26.031 50.2272 26.2128 50.4724 26.2904C51.0827 26.4817 51.7084 26.6408 52.3399 26.7487C53.3287 26.9172 53.8308 27.4153 53.6995 28.436C53.6801 28.5837 53.7207 28.7371 53.7323 28.8791C58.4618 29.4548 62.3705 28.3337 64.7362 24.5463C62.8379 23.4234 61.6444 21.8099 61.6367 19.5792C61.6289 17.3446 62.7606 15.6914 64.7999 14.5381C63.2279 12.1691 61.1017 10.7469 58.3517 10.2375C57.5985 10.0974 56.8183 10.0614 56.0497 10.0614C44.9782 10.0501 33.9086 10.0539 22.8371 10.0539C22.4837 10.0539 22.1283 10.0539 21.7749 10.0482C21.1473 10.0387 20.8074 9.68647 20.7919 9.1089C20.7765 8.52942 21.1009 8.16205 21.7305 8.13553C21.9545 8.12607 22.1805 8.12985 22.4064 8.12985C33.7985 8.12985 45.1925 8.12607 56.5847 8.13364C60.6884 8.13743 63.8788 9.87963 66.2406 13.1216C66.6539 13.6898 67.0382 14.0174 67.8358 14.0325C70.5124 14.0874 72.8801 16.5398 72.9959 19.2402C73.1157 22.0694 71.0705 24.6694 68.3379 24.9762C67.2429 25.0993 66.5593 25.4894 65.893 26.3794C63.6142 29.4169 60.4528 30.8997 56.6136 30.9811C55.6847 31.0019 54.7558 30.9849 53.8443 30.9849C53.7748 31.1478 53.713 31.2292 53.7072 31.3144C53.601 32.9146 53.601 33.1646 52.0019 33.2573C49.8313 33.3842 49.5088 34.9636 48.8946 36.3838C48.8097 36.5808 48.9738 36.9254 49.1032 37.1584C49.4566 37.7946 49.8564 38.4063 50.231 39.0312C50.569 39.5918 50.5149 40.1031 50.0321 40.5727C49.0936 41.4817 48.1627 42.3982 47.23 43.3129C46.7819 43.7541 46.2933 43.8204 45.7526 43.4871C45.6444 43.4189 45.5344 43.3545 45.4224 43.2902C43.1899 41.9778 43.1841 41.9646 40.8512 43.0213C40.5847 43.1425 40.3472 43.4795 40.2487 43.7674C40.0034 44.4813 39.932 45.2615 39.6211 45.9413C39.4492 46.3144 38.9509 46.7594 38.5705 46.7859C37.1936 46.8863 35.8031 46.8787 34.4242 46.7897C34.0573 46.7651 33.7077 46.3201 33.3717 46.0436C33.2887 45.9754 33.2539 45.8126 33.2481 45.6914C33.1651 43.7939 32.1628 42.6539 30.2818 42.2732C29.9496 42.2051 29.5344 42.1975 29.2428 42.3338C28.5495 42.6596 27.9007 43.0781 27.244 43.4757C26.7014 43.8052 26.2263 43.7712 25.7705 43.3186C24.8223 42.3755 23.8162 41.4836 22.9394 40.4818C22.6787 40.1845 22.7521 39.5899 22.7193 39.1297C22.7096 39.0009 22.8699 38.8589 22.951 38.7245C24.2488 36.56 24.2565 36.5562 23.1827 34.2212C23.0843 34.0072 22.8235 33.8084 22.5918 33.7194C22.1476 33.549 21.6706 33.4543 21.2033 33.3426C19.4111 32.9108 19.4092 32.9127 19.2586 31.1004ZM26.7941 41.4268C27.4797 41.0386 28.1749 40.7015 28.8044 40.2697C29.4456 39.8304 30.0018 39.8682 30.6796 40.2072C31.5313 40.6352 32.4274 41.0045 33.3408 41.2772C34.0187 41.4798 34.3643 41.8491 34.5169 42.4891C34.7042 43.2788 34.9205 44.0628 35.1137 44.7994C35.245 44.8335 35.2759 44.8468 35.3068 44.8487C37.8193 45.0134 37.8424 45.0191 38.443 42.6482C38.6439 41.8509 39.0475 41.44 39.874 41.2185C40.7605 40.9817 41.5638 40.4496 42.4464 40.1864C42.9369 40.0406 43.5703 40.0444 44.0416 40.2262C44.8063 40.5216 45.4919 41.0177 46.1929 41.4173C48.3443 39.8076 48.3442 39.8076 47.0581 37.6356C47.0252 37.5807 46.9963 37.5238 46.9577 37.4746C46.5154 36.9084 46.5173 36.3687 46.9074 35.74C47.2879 35.1264 47.6819 34.4561 47.7997 33.7668C48.0256 32.4506 48.8 31.9734 50.0456 31.7348C51.7277 31.4129 51.6678 31.3333 51.7296 29.6915C51.7605 28.8829 51.5346 28.4568 50.6752 28.3792C49.0163 28.2296 48.2516 27.3433 47.5583 25.7753C46.7356 23.9195 46.5231 22.4803 47.8827 20.918C48.0179 20.7627 47.9966 20.3063 47.8615 20.1226C47.4115 19.5205 46.8765 18.9789 46.4015 18.4448C45.9901 18.6702 45.7951 18.7762 45.602 18.8861C43.0064 20.3631 43.6476 20.2552 41.0907 19.2572C39.2348 18.5338 38.2036 17.6419 38.0568 15.7463C38.0143 15.2085 37.6899 15.1214 37.2013 15.11C35.1272 15.0646 35.1272 15.0513 34.6251 16.9829C34.5845 17.1363 34.5478 17.2897 34.5266 17.445C34.4319 18.1665 33.98 18.496 33.2964 18.7156C32.3559 19.0186 31.4772 19.5129 30.5309 19.7913C30.0443 19.9352 29.4108 19.9257 28.9435 19.742C28.1826 19.4447 27.5009 18.9467 26.767 18.5225C26.3576 18.8993 26.0023 19.2629 25.6083 19.5829C24.944 20.1208 24.7219 20.6605 25.3669 21.3895C26.4523 22.6148 26.6608 23.9063 25.562 25.264C25.392 25.4742 25.2935 25.7791 25.2588 26.0518C25.0695 27.5062 24.1792 28.1652 22.7521 28.2618C22.6285 28.2693 22.5088 28.3621 22.3852 28.3678C21.4872 28.4152 21.2438 28.881 21.2786 29.7313C21.3443 31.3296 21.294 31.3315 22.8892 31.7443C23.2001 31.8238 23.5072 31.9223 23.8239 31.9734C24.4786 32.0776 24.7837 32.4525 24.9788 33.0699C25.253 33.9353 25.589 34.7988 26.0332 35.5904C26.4349 36.3081 26.4581 36.8686 26.0042 37.5863C24.7142 39.624 24.747 39.6448 26.5527 41.2658C26.5952 41.3094 26.655 41.3378 26.7941 41.4268ZM67.2352 23.1204C69.3325 23.1469 70.9991 21.5486 70.9933 19.5186C70.9875 17.5927 69.3691 15.9754 67.3935 15.9224C65.4044 15.8675 63.6818 17.4904 63.6432 19.458C63.6045 21.4501 65.219 23.0958 67.2352 23.1204ZM9.33224 40.461C9.32644 38.376 7.74093 36.8516 5.59924 36.8705C3.63136 36.8876 1.9995 38.501 1.99371 40.4307C1.98791 42.3774 3.67384 44.0438 5.66877 44.0609C7.67914 44.0779 9.3361 42.4494 9.33224 40.461Z" fill="#2776EA"/>
<path d="M70.52 50.9633C70.5142 55.9513 66.339 60.0133 61.2329 60C56.177 59.9886 51.9806 55.8471 51.9883 50.8762C51.996 45.8806 56.1616 41.8205 61.2715 41.8262C66.4684 41.8338 70.5258 45.8427 70.52 50.9633ZM61.2329 57.987C65.2285 58.0249 68.5077 54.8889 68.5521 50.986C68.5965 47.0755 65.3077 43.7843 61.3237 43.7577C57.3531 43.7293 54.0721 46.9051 54.0431 50.8042C54.016 54.8283 57.1368 57.9472 61.2329 57.987Z" fill="#2776EA"/>
<path d="M9.3142 5.98537e-06C14.4048 0.00568708 18.5453 4.0904 18.5414 9.10302C18.5376 14.1005 14.3758 18.1776 9.2775 18.1738C4.13088 18.1719 -0.0173263 14.0778 5.44191e-05 9.01969C0.0193663 4.03358 4.19074 -0.00567511 9.3142 5.98537e-06ZM9.25047 1.95052C5.34366 1.924 2.01043 5.18685 1.99111 9.05757C1.9718 12.9548 5.29732 16.2214 9.28716 16.2252C13.2152 16.229 16.5233 12.9908 16.5504 9.11438C16.5793 5.22093 13.2731 1.97703 9.25047 1.95052Z" fill="#2776EA"/>
<path d="M36.504 37.7023C32.1627 37.7061 28.617 34.2804 28.5977 30.0651C28.5784 25.7342 32.1415 22.2365 36.5427 22.2668C40.8782 22.2971 44.391 25.7361 44.4045 29.9647C44.42 34.235 40.882 37.7004 36.504 37.7023ZM42.3671 29.9893C42.3478 26.734 39.7291 24.2078 36.4017 24.2344C33.1727 24.2609 30.6255 26.8458 30.6313 30.0897C30.6351 33.1783 33.3369 35.7954 36.5021 35.7746C39.7446 35.7556 42.3864 33.1499 42.3671 29.9893Z" fill="#2776EA"/>
<path d="M60.0839 51.6674C61.0901 50.658 62.0286 49.7149 62.9691 48.7757C63.2163 48.5295 63.4616 48.2776 63.7281 48.0523C64.1742 47.6716 64.6608 47.6092 65.107 48.0333C65.582 48.484 65.5666 49.001 65.1166 49.4517C63.6798 50.8909 62.2333 52.3226 60.7637 53.7296C60.3118 54.1632 59.7556 54.1329 59.2921 53.7069C58.6606 53.1255 58.0484 52.5214 57.4556 51.9022C57.023 51.4477 56.9824 50.925 57.4517 50.4762C57.892 50.0539 58.3845 50.1164 58.8287 50.5103C59.2072 50.8436 59.5722 51.1939 60.0839 51.6674Z" fill="#2776EA"/>
<path d="M7.96697 10.0294C9.21259 8.76443 10.3056 7.6623 11.391 6.5507C11.8989 6.02993 12.4744 5.6171 13.1136 6.25528C13.7393 6.8802 13.3492 7.43505 12.8104 7.95203C11.5455 9.164 10.3153 10.4119 9.05809 11.6334C8.25665 12.4117 7.81634 12.4136 7.02648 11.6618C6.4954 11.1562 5.96625 10.6487 5.46028 10.1203C5.02576 9.66583 4.96783 9.13938 5.42552 8.68679C5.88321 8.23419 6.41622 8.26828 6.86426 8.73224C7.22153 9.09772 7.52666 9.50676 7.96697 10.0294Z" fill="#2776EA"/>
</svg>
