<svg width="58" height="61" viewBox="0 0 58 61" fill="none" xmlns="http://www.w3.org/2000/svg">
<path d="M0.0390625 0.6589C0.620059 0.629371 1.13369 0.582968 1.64312 0.582968C13.7935 0.582968 25.9439 0.595623 38.0985 0.570312C39.1089 0.570312 39.871 0.79811 40.6035 1.549C43.7653 4.78878 46.9734 7.98637 50.1942 11.1671C50.8341 11.7999 51.1499 12.4369 51.1457 13.3691C51.1162 24.2275 51.1499 35.0816 51.0994 45.9399C51.0951 47.3447 51.4067 48.4372 52.375 49.4919C54.0843 51.3522 55.6505 53.3391 57.263 55.2838C58.2987 56.5325 58.2481 57.1779 57.0777 58.2241C56.4883 58.7514 55.8821 59.2534 55.2758 59.7638C53.8949 60.9281 53.2002 60.848 51.9961 59.4179C50.4005 57.5238 48.767 55.6677 47.2261 53.7314C46.6451 53.0016 46.0472 52.719 45.1126 52.719C33.5937 52.7527 22.0706 52.7443 10.5517 52.7443C7.0868 52.7443 3.62187 52.7443 0.0390625 52.7443C0.0390625 35.3558 0.0390625 18.0559 0.0390625 0.6589ZM0.944237 51.6981C15.7681 51.6981 30.5035 51.6981 45.4662 51.6981C43.9464 50.1499 44.6747 49.0109 45.9041 47.969C45.6178 47.6189 45.3989 47.3489 45.1926 47.0915C38.7006 50.3398 33.0085 49.2472 29.6783 44.1639C26.6428 39.5278 27.5732 33.3815 31.8591 29.7579C35.8251 26.4042 42.1697 26.5687 46.0346 30.1502C47.9502 31.9262 49.1627 34.0987 49.4785 36.7183C49.9416 40.5318 48.6912 43.7505 45.9209 46.4208C46.2451 46.7794 46.4851 47.0409 46.7124 47.2898C47.2808 46.9144 47.7607 46.4335 48.3291 46.2732C48.8638 46.1213 49.4953 46.3069 50.0973 46.3491C50.0973 35.2419 50.0973 24.1431 50.0973 12.8714C46.4051 12.8714 42.8012 12.8714 38.9995 12.8714C38.9995 9.04521 38.9995 5.3878 38.9995 1.65446C26.2007 1.65446 13.6125 1.65446 0.944237 1.65446C0.944237 18.3469 0.944237 34.9424 0.944237 51.6981ZM48.6112 38.2117C48.6406 32.6939 44.2537 28.2941 38.7174 28.2898C33.2527 28.2856 28.9163 32.6011 28.8741 38.0893C28.832 43.6662 33.1348 48.0534 38.6795 48.0829C44.2284 48.1166 48.5817 43.7885 48.6112 38.2117ZM53.6549 59.8777C54.939 58.764 56.0547 57.798 57.2672 56.7476C54.3748 53.3686 51.7646 50.0529 48.8217 46.8511C47.5544 47.9521 46.4682 48.8928 45.2726 49.9264C48.1354 53.3264 50.8257 56.5198 53.6549 59.8777ZM40.0562 2.83985C40.0562 5.80121 40.0562 8.81741 40.0562 11.8463C43.1928 11.8463 46.1946 11.8463 49.0574 11.8463C46.0725 8.8596 43.058 5.84339 40.0562 2.83985Z" fill="#2776EA"/>
<path d="M32.4027 4.48926C32.4027 7.71217 32.4027 10.8507 32.4027 14.0947C22.8457 14.0947 13.3645 14.0947 3.79492 14.0947C3.79492 10.9013 3.79492 7.75857 3.79492 4.48926C13.2761 4.48926 22.7531 4.48926 32.4027 4.48926ZM4.76325 5.40466C4.76325 8.0623 4.76325 10.6102 4.76325 13.1329C13.7266 13.1329 22.5763 13.1329 31.4385 13.1329C31.4385 10.509 31.4385 8.00324 31.4385 5.40466C22.5384 5.40466 13.7266 5.40466 4.76325 5.40466Z" fill="#2776EA"/>
<path d="M3.98438 39.1313C3.98438 35.8999 3.98438 32.8837 3.98438 29.7705C10.9605 29.7705 17.8062 29.7705 24.7571 29.7705C24.7571 32.8542 24.7571 35.8324 24.7571 39.1018C17.9072 39.1608 11.0658 39.1144 3.98438 39.1313ZM4.91902 38.0767C11.3016 38.0767 17.5662 38.0767 23.8393 38.0767C23.8393 35.5667 23.8393 33.1664 23.8393 30.7197C17.4946 30.7197 11.23 30.7197 4.91902 30.7197C4.91902 33.2296 4.91902 35.6257 4.91902 38.0767Z" fill="#2776EA"/>
<path d="M44.3834 23.7256C44.2445 24.7675 43.5498 24.5229 43.0446 24.5271C39.3144 24.5482 35.58 24.544 31.8499 24.544C23.2823 24.544 14.7147 24.544 6.15132 24.544C5.67979 24.544 5.19142 24.5819 4.74093 24.4807C4.5599 24.4385 4.45465 24.0631 4.24414 23.7256C17.7207 23.7256 31.0205 23.7256 44.3834 23.7256Z" fill="#2776EA"/>
<path d="M44.5271 19.5158C43.3314 20.0263 8.50951 20.3258 5.03616 19.9335C4.78356 19.9039 4.55621 19.7057 4.15625 19.5074C4.47622 19.2796 4.63199 19.0771 4.78356 19.0771C17.8139 19.0602 30.8442 19.0602 43.8745 19.0771C44.0387 19.0771 44.1987 19.288 44.5271 19.5158Z" fill="#2776EA"/>
<path d="M37.8878 30.336C37.8878 31.648 37.9173 32.846 37.8668 34.0441C37.8583 34.2887 37.6015 34.584 37.3784 34.7443C34.5576 36.7903 34.3218 38.5241 36.5827 41.3589C36.3259 41.9832 36.0606 42.6624 35.7659 43.3247C35.4965 43.9364 35.1933 44.5312 34.9028 45.1344C31.6653 43.4892 30.0359 39.8529 30.9201 36.2545C31.8042 32.6604 35.0165 30.277 37.8878 30.336ZM35.4544 41.6204C33.6103 38.8531 33.6693 36.2714 35.8501 34.6684C37.1595 33.7066 37.0247 32.6899 36.8269 31.4455C34.1029 32.1036 32.1326 34.3394 31.7705 37.094C31.3874 40.0343 32.4231 42.5147 34.566 43.7128C34.8565 43.0294 35.1386 42.3587 35.4544 41.6204Z" fill="#2776EA"/>
<path d="M42.5999 37.0223C43.6482 36.5752 44.8734 36.0479 46.0817 35.5332C47.3784 37.8027 46.7679 41.2956 44.7218 43.35C43.884 42.5105 43.0167 41.6922 42.221 40.8063C42.0274 40.5911 41.9937 40.144 42.04 39.8234C42.1663 38.9586 42.3768 38.1065 42.5999 37.0223ZM45.6607 36.8958C43.3788 37.5834 43.3914 37.5876 43.1346 39.6673C42.9746 40.9455 44.0903 41.1775 44.7302 41.9453C45.7954 40.3043 45.9807 38.6971 45.6607 36.8958Z" fill="#2776EA"/>
<path d="M43.8373 44.1466C42.0143 46.1883 38.7178 46.8295 36.1328 45.6188C36.6001 44.4967 37.0548 43.3577 37.5685 42.2398C37.6527 42.0585 37.9684 41.9488 38.2 41.8855C38.3894 41.8307 38.621 41.9192 38.8231 41.8897C39.623 41.7716 40.6418 41.2612 41.1765 41.5818C42.208 42.1934 42.97 43.2692 43.8373 44.1466ZM42.5406 44.1677C41.5723 43.2692 41.0965 42.2989 39.5514 42.6364C38.0695 42.957 37.8505 43.9019 37.4127 45.1042C39.2357 45.4923 40.8355 45.2392 42.5406 44.1677Z" fill="#2776EA"/>
<path d="M39.1973 30.4156C41.6181 30.0739 44.2452 31.6474 45.5882 34.1742C45.4998 34.2881 45.4324 34.4695 45.3104 34.5201C44.1694 35.0264 43.0158 35.5157 41.9844 35.9586C40.9781 35.3512 40.094 34.8112 39.2015 34.2712C39.1973 32.9846 39.1973 31.6895 39.1973 30.4156ZM40.1235 31.2129C40.0898 31.7444 40.0477 32.1114 40.0477 32.4742C40.0519 32.8834 40.094 33.2926 40.1151 33.6511C42.2917 34.9209 42.2917 34.9209 44.3126 33.8241C43.2516 32.4953 41.9717 31.5925 40.1235 31.2129Z" fill="#2776EA"/>
<rect x="4" y="44" width="13" height="1" rx="0.5" fill="#2776EA"/>
<rect x="4" y="46" width="15" height="1" rx="0.5" fill="#2776EA"/>
<rect x="4" y="48" width="17" height="1" rx="0.5" fill="#2776EA"/>
</svg>
