<svg width="60" height="60" viewBox="0 0 60 60" fill="none" xmlns="http://www.w3.org/2000/svg">
<path d="M29.9954 59.9879C21.2813 59.9879 12.5612 59.9757 3.8471 60.0002C1.93382 60.0063 0.205302 58.5603 0.014569 56.4894C0.0086086 56.4037 0.00264907 56.3118 0.00264907 56.2198C0.00264907 55.264 -0.00331133 54.3021 0.00264907 53.3463C0.00860946 52.6356 0.491401 52.1393 1.18281 52.1332C1.9219 52.127 2.65502 52.127 3.39411 52.1332C3.57889 52.1332 3.66829 52.078 3.64445 51.882C3.63849 51.8084 3.64445 51.7349 3.64445 51.6614C3.64445 41.4539 3.65637 31.2464 3.63253 21.045C3.62657 19.3417 4.94978 17.8284 6.7677 17.8406C9.08033 17.8529 11.387 17.8467 13.6996 17.8406C14.0036 17.8406 14.2718 17.9203 14.4745 18.1653C14.6891 18.4165 14.7367 18.7168 14.6175 19.017C14.4864 19.354 14.2182 19.5317 13.8665 19.5745C13.7831 19.5868 13.6937 19.5807 13.6043 19.5807C11.3274 19.5807 9.05649 19.5807 6.77962 19.5807C5.86172 19.5807 5.3074 20.1505 5.3074 21.0879C5.3074 31.3322 5.3074 41.5764 5.3074 51.8207C5.3074 52.1332 5.3074 52.1332 5.6233 52.1332C11.0055 52.1332 16.3818 52.1332 21.7641 52.1332C22.4435 52.1332 22.9919 52.5437 23.129 53.1748C23.1767 53.3892 23.1588 53.6159 23.1648 53.8365C23.1707 54.1918 23.2303 54.2592 23.5641 54.2592C27.8556 54.2592 32.1411 54.2592 36.4326 54.2592C36.7723 54.2592 36.8379 54.1918 36.8379 53.8426C36.8379 53.7936 36.8439 53.7384 36.8379 53.6894C36.7425 52.7091 37.5114 52.1209 38.3638 52.1209C43.6506 52.1454 48.9375 52.1332 54.2184 52.1332C54.7549 52.1332 54.6893 52.1944 54.6893 51.643C54.6893 41.5029 54.6893 31.3628 54.6893 21.2227C54.6893 20.9899 54.6774 20.7387 54.6058 20.5242C54.4151 19.9115 53.9323 19.5807 53.2886 19.5807C50.976 19.5807 48.6693 19.5807 46.3567 19.5807C46.2434 19.5807 46.1242 19.5807 46.011 19.55C45.552 19.4397 45.2897 19.066 45.3315 18.6065C45.3732 18.2021 45.7308 17.8712 46.1659 17.8406C46.2255 17.8345 46.2792 17.8406 46.3388 17.8406C48.6514 17.8406 50.9581 17.8406 53.2707 17.8406C54.8085 17.8406 56.0721 18.9312 56.3284 20.4813C56.3582 20.6713 56.3582 20.8673 56.3582 21.0573C56.3582 31.277 56.3582 41.4968 56.3582 51.7227C56.3582 52.1638 56.3224 52.1332 56.7575 52.1332C57.4192 52.1332 58.0867 52.1332 58.7483 52.1332C59.5232 52.1332 59.994 52.6172 60 53.4076C60 54.296 60 55.1905 60 56.0789C59.994 58.0947 58.653 59.6816 56.7158 59.9634C56.537 59.9879 56.3582 59.9818 56.1734 59.9818C47.4414 59.9879 38.7214 59.9879 29.9954 59.9879ZM29.9834 58.2785C38.6975 58.2785 47.4116 58.2785 56.1317 58.2785C57.4251 58.2785 58.3251 57.3533 58.3251 56.0238C58.3251 55.405 58.3251 54.7923 58.3251 54.1734C58.3251 53.8793 58.3192 53.8732 58.039 53.8732C51.6197 53.8732 45.2003 53.8732 38.781 53.8671C38.5664 53.8671 38.5009 53.9284 38.4949 54.1551C38.4532 55.1476 37.6366 55.9686 36.671 55.9686C32.2246 55.9748 27.7781 55.9748 23.3257 55.9686C22.378 55.9686 21.5614 55.1721 21.5018 54.198C21.4839 53.8671 21.4958 53.8671 21.1501 53.8671C16.8944 53.8671 12.6446 53.8671 8.38893 53.8671C6.24318 53.8671 4.09744 53.8671 1.95766 53.8671C1.67156 53.8671 1.67156 53.8732 1.6656 54.1673C1.6656 54.7616 1.6656 55.3559 1.6656 55.9503C1.6656 57.3778 2.53582 58.2724 3.92459 58.2724C12.6089 58.2785 21.2991 58.2785 29.9834 58.2785Z" fill="#2776EA"/>
<path d="M36.3608 31.0444C36.3668 31.5284 36.4681 31.9144 36.6827 32.2759C37.1237 33.0295 36.9509 33.6299 36.182 34.0404C35.3952 34.4632 34.5727 34.8124 33.7204 35.0759C32.9634 35.3149 32.4269 35.0146 32.2303 34.2243C31.974 33.1704 31.0203 32.4046 29.9772 32.4107C28.9342 32.4168 27.9924 33.1949 27.748 34.2549C27.5811 34.984 27.0268 35.3087 26.3235 35.0943C25.4294 34.8247 24.5711 34.4571 23.7426 34.0098C23.0572 33.6361 22.8844 33.0173 23.2837 32.331C24.1897 30.7809 23.2062 28.8325 21.4539 28.7223C20.9591 28.6916 20.5002 28.8509 20.077 29.1144C19.481 29.482 18.8968 29.3166 18.5452 28.6977C18.0445 27.8032 17.6869 26.8535 17.4067 25.8671C17.2279 25.2299 17.5677 24.6723 18.2174 24.4947C18.7836 24.3415 19.2485 24.0596 19.6002 23.5695C20.5777 22.2032 19.8386 20.3957 18.42 19.9423C18.3306 19.9117 18.2412 19.8872 18.1518 19.8627C17.5736 19.6911 17.2458 19.1703 17.4008 18.5821C17.669 17.5467 18.0505 16.548 18.5869 15.629C18.9207 15.053 19.5585 14.9244 20.1068 15.2797C21.0009 15.8557 22.1631 15.7515 22.8903 15.0285C23.7009 14.2198 23.8619 13.0434 23.3016 12.0753C22.8784 11.3401 23.0572 10.7396 23.7963 10.3414C24.595 9.91863 25.4175 9.56327 26.2758 9.28756C26.848 9.10375 27.307 9.24467 27.5931 9.69806C27.6646 9.81448 27.7182 9.94927 27.748 10.0841C27.9984 11.1685 28.9401 11.9589 29.9951 11.965C31.0561 11.9712 32.0038 11.1747 32.2541 10.0779C32.3971 9.43461 32.9515 9.07311 33.5654 9.24467C34.5429 9.51426 35.4787 9.92476 36.3608 10.4333C36.9568 10.7764 37.088 11.4075 36.7304 12.0202C35.9793 13.2946 36.4383 14.857 37.7675 15.4574C38.4648 15.7699 39.1682 15.7209 39.8238 15.3165C40.4914 14.8998 41.0993 15.0346 41.4748 15.7209C41.9457 16.5848 42.3033 17.5038 42.5715 18.4535C42.7444 19.0723 42.5179 19.5747 42.0053 19.8014C41.8742 19.8566 41.7311 19.8933 41.594 19.9301C40.6523 20.218 39.9251 21.1616 39.943 22.1725C39.9609 23.1345 40.4794 24.0106 41.4748 24.3905C41.594 24.4395 41.7192 24.4763 41.8444 24.513C42.4285 24.6846 42.7563 25.2238 42.5954 25.8181C42.3152 26.8474 41.9397 27.8461 41.4033 28.7713C41.0874 29.3104 40.4854 29.4514 39.9549 29.1266C38.9357 28.5078 37.9642 28.5752 37.0999 29.3595C36.5813 29.819 36.3727 30.4255 36.3608 31.0444ZM21.2929 26.9883C21.2989 27.0067 21.2989 27.0251 21.3048 27.0435C21.3943 27.0496 21.4777 27.0557 21.5671 27.0557C22.6877 27.1109 23.6294 27.5765 24.3387 28.4588C25.3102 29.6719 25.5367 31.0444 25.0063 32.5332C24.9467 32.6925 24.9884 32.7599 25.1255 32.8212C25.4235 32.9437 25.7215 33.0846 26.0255 33.2133C26.3056 33.3297 26.2997 33.3175 26.4606 33.0479C26.6752 32.6864 26.8659 32.3004 27.146 32.0002C28.0401 31.0321 29.1547 30.6094 30.4541 30.7564C31.3362 30.8544 32.0991 31.2282 32.7428 31.8654C33.1064 32.2207 33.3866 32.6435 33.5892 33.1214C33.6607 33.2868 33.7621 33.3175 33.917 33.2439C34.1733 33.1275 34.4416 33.0295 34.6979 32.9131C35.0614 32.7477 35.0614 32.7415 34.9363 32.3555C34.3164 30.4378 35.1568 28.3424 36.9151 27.4601C37.9284 26.9577 38.9715 26.9148 40.0265 27.3008C40.2172 27.3682 40.3126 27.3376 40.3841 27.1354C40.4914 26.8229 40.6225 26.5165 40.7596 26.2102C40.843 26.0264 40.7953 25.9345 40.6225 25.8548C40.1039 25.6159 39.6629 25.2667 39.2814 24.8255C38.1668 23.5389 38.0118 21.4863 38.9238 20.0404C39.3529 19.3603 39.9192 18.8517 40.6285 18.5147C40.7894 18.4412 40.849 18.3554 40.7715 18.1716C40.6285 17.8408 40.4973 17.5038 40.3602 17.1668C40.3006 17.0198 40.2172 16.9953 40.0682 17.0504C39.5079 17.2649 38.9357 17.3751 38.3277 17.3139C37.4337 17.2281 36.629 16.9034 35.9972 16.26C34.7634 15.0101 34.4118 13.5274 34.9959 11.8364C35.0555 11.6709 35.0316 11.5974 34.8767 11.5362C34.5369 11.4075 34.2031 11.2666 33.8694 11.1195C33.7382 11.0644 33.6607 11.0889 33.5952 11.2298C33.3687 11.7506 33.0588 12.204 32.6356 12.5839C31.7713 13.3742 30.7759 13.7357 29.6315 13.6132C28.1295 13.4539 27.0626 12.639 26.4129 11.2421C26.3354 11.0828 26.2579 11.0582 26.1089 11.1256C25.793 11.2666 25.4712 11.4014 25.1433 11.5239C24.9586 11.5913 24.9526 11.6832 25.0122 11.8548C25.5725 13.4845 25.2745 14.955 24.0943 16.162C22.932 17.3445 21.5135 17.6263 19.9578 17.0565C19.7909 16.9953 19.7015 17.0198 19.6359 17.1852C19.5167 17.4977 19.3856 17.7979 19.2604 18.1104C19.1531 18.3922 19.1531 18.3983 19.4154 18.527C20.1247 18.8762 20.7088 19.3725 21.1022 20.071C21.9009 21.4924 21.8949 22.92 21.0724 24.3354C20.673 25.0216 20.1008 25.524 19.3856 25.8487C19.1949 25.9345 19.1591 26.0325 19.2485 26.2225C19.3796 26.5043 19.481 26.7984 19.6061 27.0802C19.7253 27.3743 19.7253 27.3559 20.0353 27.2702C20.4466 27.166 20.8697 27.0864 21.2929 26.9883Z" fill="#2776EA"/>
<path d="M12.3641 6.84254C12.0303 6.78127 11.6966 6.72613 11.3687 6.65261C11.2257 6.62197 11.1363 6.6281 11.0826 6.78127C11.029 6.92832 10.9694 7.06924 10.9038 7.21016C10.8442 7.34495 10.8859 7.43073 11.0111 7.492C11.6787 7.84123 12.1794 8.36203 12.4893 9.0605C12.984 10.1695 12.9006 11.2539 12.2866 12.2955C11.9767 12.8224 11.5356 13.2146 11.0052 13.4964C10.8681 13.5699 10.8502 13.6496 10.9098 13.7783C10.9932 13.9621 11.023 14.2194 11.1542 14.3052C11.2734 14.3787 11.5058 14.2684 11.6906 14.2378C12.8946 14.0356 13.9317 14.3419 14.784 15.2671C15.1297 15.6408 15.1178 16.1555 14.7602 16.517C14.4681 16.805 13.9496 16.7805 13.6218 16.4373C13.0317 15.8185 12.2151 15.6531 11.4343 16.1371C10.88 16.4864 10.272 16.3148 9.99188 15.7082C9.6581 14.9853 9.36008 14.2439 9.09187 13.4964C8.87729 12.8837 9.19915 12.3384 9.81307 12.1607C10.4687 11.9708 10.9217 11.5725 11.1005 10.8802C11.327 9.9918 10.7906 9.09113 9.90248 8.83993C9.62234 8.76028 9.372 8.65612 9.20511 8.38653C9.04418 8.12308 8.97862 7.84123 9.06206 7.53489C9.28856 6.71387 9.60446 5.93575 10.0098 5.19439C10.3018 4.65522 10.9157 4.5143 11.4343 4.82677C12.3641 5.39045 13.4251 5.06572 13.8542 4.08541C14.0807 3.56462 14.0032 3.06221 13.7708 2.5598C13.6694 2.34536 13.592 2.10641 13.5681 1.86746C13.5443 1.55498 13.6754 1.26701 13.9436 1.10771C14.343 0.868762 14.7542 0.654318 15.1774 0.464383C15.5291 0.305082 15.8927 0.18867 16.2563 0.0722582C16.8881 -0.136058 17.4245 0.158035 17.5914 0.825873C17.7642 1.48758 18.1517 1.94098 18.7954 2.13091C19.5881 2.36374 20.4703 1.88584 20.7564 1.07708C20.7981 0.966793 20.8219 0.850381 20.8577 0.733969C21.0127 0.213178 21.5372 -0.11155 22.0498 0.0354968C22.8306 0.256067 23.5875 0.556287 24.2909 0.97292C24.9108 1.34666 25.0419 1.89809 24.6723 2.54142C24.267 3.24602 24.3922 4.1283 24.9763 4.6736C25.0478 4.741 25.1373 4.79614 25.2207 4.85741C25.5724 5.12087 25.6796 5.6294 25.4651 5.99089C25.2445 6.36464 24.7439 6.51169 24.3624 6.28499C23.5697 5.81321 23.1048 5.07798 22.8842 4.18344C22.7293 3.57075 22.765 2.96418 22.9677 2.36374C23.0094 2.23507 22.9796 2.16768 22.8663 2.12479C22.7233 2.06964 22.5862 2.00837 22.4491 1.93485C22.2822 1.84295 22.1988 1.91034 22.1094 2.06964C21.4776 3.23989 20.5001 3.87097 19.2007 3.86484C17.9073 3.85872 16.9298 3.21538 16.3039 2.04514C16.2324 1.91034 16.1549 1.8552 16.0119 1.9226C15.839 2.00838 15.5947 2.04514 15.4993 2.18606C15.4278 2.30247 15.5231 2.54142 15.5589 2.72523C15.7914 3.88935 15.4814 4.9248 14.7066 5.7642C14.0986 6.46267 13.3059 6.83029 12.3641 6.84254Z" fill="#2776EA"/>
<path d="M47.6395 14.1399C47.9674 14.2073 48.3011 14.2625 48.629 14.3482C48.778 14.385 48.8555 14.3727 48.9091 14.2196C48.9687 14.0296 49.1296 13.8274 49.0939 13.6681C49.0641 13.5272 48.8257 13.4292 48.6707 13.3189C47.6932 12.6143 47.1746 11.6585 47.1985 10.4331C47.2283 9.14032 47.8183 8.17226 48.9151 7.54119C49.1058 7.4309 49.1535 7.33287 49.0581 7.14293C49.0462 7.12455 49.0402 7.10005 49.0343 7.08166C48.8555 6.62214 48.8555 6.6344 48.3965 6.73855C46.4117 7.17357 44.6415 5.85015 44.3732 3.89565C44.3077 3.39937 44.3494 2.92146 44.4984 2.44969C44.5461 2.29039 44.5282 2.19848 44.3673 2.13721C44.1885 2.07594 43.9977 1.91664 43.8487 1.9534C43.7116 1.98404 43.6163 2.21686 43.5149 2.36391C42.8474 3.36873 41.9176 3.91403 40.7374 3.90178C39.4559 3.88952 38.4903 3.26457 37.8704 2.11271C37.7751 1.94115 37.6916 1.87988 37.5188 1.97179C37.3579 2.05756 37.1314 2.0882 37.0479 2.21686C36.9823 2.32102 37.0717 2.54159 37.1075 2.71315C37.3459 3.87727 37.0419 4.88821 36.2969 5.7705C36.1181 5.98494 35.8797 6.16262 35.6413 6.30967C35.2479 6.55475 34.7591 6.41995 34.5207 6.03395C34.3002 5.67246 34.4134 5.1578 34.777 4.88822C35.5936 4.28165 35.7783 3.38711 35.2657 2.48645C34.9677 1.95953 35.1108 1.36522 35.6174 1.05887C36.3446 0.617729 37.1254 0.311381 37.93 0.07243C38.4605 -0.0807438 39.0029 0.262365 39.14 0.832172C39.2413 1.24268 39.4261 1.59804 39.7539 1.84925C40.7493 2.62124 42.0248 2.15559 42.3765 0.911822C42.454 0.623855 42.5732 0.37265 42.8295 0.207223C43.0917 0.0417948 43.3719 -0.0194739 43.658 0.0908113C44.3494 0.360397 45.0527 0.623856 45.7262 0.942457C46.4534 1.28557 46.6084 1.86763 46.2269 2.59061C45.6964 3.60156 46.1375 4.7718 47.1925 5.07202C47.6515 5.20682 48.1044 5.13942 48.5276 4.88209C49.1237 4.51447 49.7436 4.68603 50.0356 5.32936C50.3396 6.00945 50.6257 6.69567 50.876 7.40027C51.1323 8.11099 50.8224 8.66242 50.1131 8.85848C48.8435 9.21384 48.4144 10.7456 49.3382 11.7075C49.5349 11.9158 49.827 12.0567 50.1012 12.1425C50.8224 12.3753 51.1383 12.8961 50.876 13.6252C50.6138 14.3482 50.3217 15.059 49.9998 15.7513C49.7257 16.3334 49.1118 16.4865 48.5634 16.1557C48.0746 15.8616 47.562 15.7513 47.0375 15.9964C46.8051 16.1067 46.5905 16.266 46.3998 16.4436C46.0362 16.7868 45.5296 16.8296 45.2315 16.5172C44.8739 16.1434 44.8858 15.641 45.2494 15.2489C45.8872 14.5382 46.6859 14.2012 47.6395 14.1399Z" fill="#2776EA"/>
<path d="M8.18624 36.3014C8.18624 32.1473 8.18624 27.9871 8.18624 23.8331C8.18624 23.012 8.63923 22.5525 9.43197 22.5525C10.7909 22.5525 12.1439 22.5464 13.5029 22.5525C14.093 22.5525 14.4923 23.104 14.3195 23.6554C14.2062 24.0107 13.8784 24.2558 13.497 24.2558C12.3943 24.2558 11.2856 24.2558 10.183 24.2558C9.84919 24.2558 9.84919 24.2558 9.84919 24.5989C9.84919 32.6681 9.84919 40.7312 9.84919 48.8004C9.84919 49.1558 9.77171 49.4621 9.47369 49.6704C8.94917 50.038 8.23989 49.6888 8.18624 49.0332C8.18028 48.9352 8.18624 48.8433 8.18624 48.7452C8.18624 44.6034 8.18624 40.4494 8.18624 36.3014Z" fill="#2776EA"/>
<path d="M51.7978 36.3134C51.7978 40.5042 51.7978 44.7012 51.7978 48.892C51.7978 49.4189 51.4878 49.7927 51.0289 49.8233C50.564 49.854 50.1646 49.4863 50.1348 48.9901C50.1289 48.8798 50.1348 48.7695 50.1348 48.6592C50.1348 40.6574 50.1348 32.6556 50.1348 24.6599C50.1348 24.2617 50.1348 24.2617 49.7474 24.2617C48.6566 24.2617 47.5659 24.2617 46.4751 24.2617C46.1116 24.2617 45.8553 24.0717 45.7003 23.7531C45.5513 23.4468 45.6049 23.1466 45.8076 22.877C45.9685 22.6625 46.189 22.5584 46.4453 22.5584C47.858 22.5584 49.2765 22.5523 50.6891 22.5584C51.3388 22.5645 51.7918 23.0731 51.7978 23.7593C51.7978 27.944 51.7978 32.1287 51.7978 36.3134Z" fill="#2776EA"/>
<path d="M45.3383 10.1813C45.3144 11.1738 45.0522 12.001 44.5217 12.7301C44.1998 13.1774 43.6753 13.2815 43.2879 12.9813C42.9303 12.7056 42.8945 12.148 43.1985 11.7253C43.6932 11.0391 43.8184 10.2854 43.5561 9.47056C43.0495 7.8898 41.1779 7.28936 39.8726 8.28805C39.4911 8.58215 39.1395 8.61891 38.8116 8.41672C38.3765 8.14101 38.305 7.44866 38.6924 7.11168C39.3779 6.51124 40.1646 6.17426 41.0766 6.13137C42.2269 6.07622 43.2283 6.44384 44.0627 7.24647C44.7482 7.90818 45.1654 8.72307 45.2787 9.69113C45.3144 9.87494 45.3263 10.071 45.3383 10.1813Z" fill="#2776EA"/>
<path d="M14.6523 10.3158C14.6583 7.7057 16.8338 5.76958 19.218 6.11269C19.9154 6.21072 20.5353 6.48644 21.1015 6.9092C21.5247 7.2278 21.626 7.76084 21.3518 8.15909C21.0896 8.53284 20.5531 8.58186 20.1359 8.26325C19.2478 7.58929 18.0915 7.58929 17.2332 8.26325C16.208 9.06588 15.9934 10.5731 16.7564 11.6392C16.9411 11.9027 17.0782 12.1722 17.0007 12.5031C16.9292 12.8156 16.7504 13.0362 16.4345 13.1097C16.0828 13.1955 15.7908 13.0913 15.5643 12.8095C14.9444 12.0558 14.6821 11.1674 14.6523 10.3158Z" fill="#2776EA"/>
<path d="M36.5406 22.234C36.5287 25.855 33.7214 28.9124 30.0021 28.9185C26.2709 28.9185 23.4814 25.855 23.4456 22.2462C23.4099 18.5211 26.3305 15.4392 30.008 15.4453C33.6677 15.4576 36.5823 18.5211 36.5406 22.234ZM34.8956 22.1788C34.9313 19.4278 32.7021 17.1057 29.9305 17.1364C27.2603 17.167 25.0609 19.434 25.0847 22.2217C25.1086 25.0095 27.2961 27.252 30.0319 27.2458C32.7081 27.2275 34.9492 24.9298 34.8956 22.1788Z" fill="#2776EA"/>
</svg>
