<svg width="65" height="60" viewBox="0 0 65 60" fill="none" xmlns="http://www.w3.org/2000/svg">
<path d="M52.7146 47.6319C51.4904 48.898 50.3302 50.0964 49.0751 51.394C49.0608 51.2538 49.049 51.3432 49.0798 51.4109C50.3515 54.3104 50.3254 54.4022 47.6325 55.9945C46.916 56.4174 46.1971 56.8402 45.4734 57.251C43.9597 58.1087 43.1127 57.8744 42.2396 56.3642C42.0616 56.0573 41.8813 55.7529 41.7105 55.4581C40.071 55.9051 38.4814 56.34 36.8775 56.7774C36.8514 56.8233 36.7873 56.8909 36.7826 56.961C36.588 59.7325 36.3128 59.991 33.5582 59.9958C32.5688 59.9983 31.5818 60.0055 30.5925 59.9934C29.0811 59.9741 28.3361 59.3362 28.3504 57.8381C28.3598 56.8958 28.0443 56.6324 27.1759 56.4826C25.9042 56.2603 24.6704 55.8133 23.413 55.4605C21.3393 58.2875 21.3393 58.2851 18.1766 56.4246C17.6286 56.1032 17.0734 55.7964 16.5277 55.4702C14.995 54.5593 14.7719 53.6967 15.6403 52.0874C15.7898 51.8096 15.9321 51.5244 15.982 51.4302C14.7482 50.1617 13.5856 48.968 12.2973 47.6464C12.0482 47.7792 11.6164 48.0354 11.1632 48.2504C10.0671 48.7699 9.15836 48.5283 8.50589 47.4845C7.84868 46.4334 7.25553 45.3412 6.63154 44.2684C5.6042 42.4997 5.82485 41.642 7.5616 40.6344C7.79649 40.4967 8.02663 40.3468 8.25202 40.2067C7.81309 38.5419 7.38602 36.923 6.95658 35.2969C3.65155 34.5962 3.65155 34.5962 3.46411 32.0808C2.75707 32.0808 2.02868 32.0929 1.30029 32.0784C0.609867 32.0639 -0.00938274 31.8682 0.00010768 31.0201C0.00722549 30.1768 0.600376 29.9908 1.31216 29.9932C3.56613 30.0004 5.82011 29.9956 8.07408 29.9956C26.2625 29.9956 44.4508 29.9956 62.6392 29.9956C62.9951 29.9956 63.351 30.0029 63.7069 29.9956C64.4258 29.9811 65.0047 30.2034 65 31.0394C64.9929 31.8851 64.3689 32.0663 63.6808 32.0784C62.9809 32.0905 62.281 32.0808 61.6048 32.0808C61.2346 34.9103 61.2204 35.0407 58.0554 35.2485C57.6354 36.8409 57.2083 38.4549 56.7433 40.2164C57.0755 40.4121 57.4764 40.6392 57.8656 40.8808C58.9688 41.5646 59.2891 42.4973 58.6936 43.6475C57.9937 44.9981 57.2273 46.315 56.4325 47.6101C55.8749 48.521 55.0255 48.7337 54.0623 48.3253C53.5593 48.1151 53.0871 47.8252 52.7146 47.6319ZM13.8015 32.1388C13.3887 38.467 17.3652 45.5152 23.3489 48.7723C30.1868 52.4934 36.9771 52.1672 43.3476 47.6633C48.5673 43.9712 51.1321 38.7062 51.31 32.1388C38.7163 32.1388 26.2933 32.1388 13.8015 32.1388ZM30.3291 55.5451C30.3576 56.2072 30.3955 57.0673 30.4335 57.9154C31.971 57.9154 33.3755 57.9154 34.913 57.9154C34.913 56.862 34.913 55.881 34.913 55.1537C37.2144 54.4795 39.3379 53.8924 41.4376 53.2255C42.2657 52.9621 42.7948 53.1313 43.1862 53.9165C43.4686 54.4819 43.8221 55.0087 44.1709 55.6031C44.8186 55.2262 45.3975 54.8951 45.9717 54.5569C46.5743 54.2017 47.1746 53.8392 47.8437 53.4405C47.5352 52.8848 47.3264 52.4064 47.0299 51.9956C46.3181 51.0074 46.5032 50.2994 47.4735 49.5769C48.3585 48.9173 49.1533 48.1079 49.9055 47.2863C51.991 45.0054 51.9744 44.9885 54.8001 46.344C55.4882 45.1528 56.181 43.9543 56.9023 42.7075C56.2996 42.3403 55.8132 41.9971 55.2865 41.7338C54.3992 41.2916 54.2687 40.6948 54.6103 39.7645C55.0801 38.4912 55.4645 37.1767 55.7634 35.8526C56.321 33.3784 56.283 33.3687 58.7861 33.115C58.8265 33.1102 58.8787 33.1295 58.9024 33.1102C59.0898 32.9579 59.2725 32.7985 59.4552 32.6438C59.263 32.4578 59.0732 32.1147 58.8763 32.1098C57.0731 32.0688 55.2676 32.0857 53.4739 32.0857C52.9614 45.3654 42.4982 53.1603 32.7895 53.3076C22.8649 53.4599 11.958 45.4838 11.5215 32.0784C10.1169 32.0784 8.70282 32.0325 7.29349 32.1002C6.70746 32.1267 5.61843 32.4843 5.62792 32.5351C5.82485 33.6876 6.74779 33.0618 7.31959 33.0739C8.39675 33.0932 8.88551 33.4702 9.02787 34.5792C9.17971 35.768 9.4929 36.9375 9.78473 38.1021C10.0172 39.0252 10.7385 40.0762 10.4846 40.7963C10.2118 41.5719 9.05871 42.0261 8.29236 42.623C8.26389 42.6447 8.24728 42.6858 8.16898 42.8018C8.83331 43.9712 9.52137 45.1794 10.2355 46.4358C10.7836 46.1265 11.2818 45.8897 11.7303 45.5805C12.6081 44.974 13.2274 45.0851 13.9392 45.9671C15.1373 47.4506 16.4541 48.8472 17.8041 50.1907C18.4613 50.8431 18.6203 51.3867 18.1078 52.172C17.7685 52.6915 17.517 53.269 17.1944 53.8827C18.4732 54.6293 19.6476 55.318 20.8506 56.0211C21.1946 55.4364 21.5078 55.0135 21.7071 54.5423C22.1721 53.455 22.8151 53.3801 23.8899 53.7474C25.9303 54.4505 28.0419 54.9241 30.3291 55.5451Z" fill="#2776EA"/>
<path d="M32.5419 4.92653e-05C36.452 0.0145468 39.6099 3.22575 39.6194 7.19566C39.6265 11.1801 36.3476 14.5217 32.466 14.4903C28.5583 14.4565 25.3577 11.1197 25.3909 7.11834C25.4217 3.17259 28.6247 -0.0144483 32.5419 4.92653e-05ZM32.5751 12.3737C35.3629 12.3495 37.5623 10.0686 37.56 7.20291C37.5552 4.32757 35.2063 1.94755 32.4328 2.01037C29.6616 2.0732 27.4384 4.40005 27.4479 7.22949C27.455 10.1387 29.7066 12.3979 32.5751 12.3737Z" fill="#2776EA"/>
<path d="M10.1746 6.04522C10.2245 3.22062 12.5093 0.968666 15.2947 1.00733C18.0422 1.04357 20.3341 3.41392 20.3128 6.19503C20.2914 9.03654 17.9307 11.3996 15.1453 11.3731C12.3503 11.3417 10.1248 8.95681 10.1746 6.04522ZM15.1832 9.25642C16.9128 9.26126 18.2771 7.88882 18.2676 6.15395C18.2581 4.47949 16.9105 3.11913 15.2496 3.10222C13.5509 3.08531 12.132 4.50606 12.1439 6.21194C12.1558 7.86949 13.5343 9.25159 15.1832 9.25642Z" fill="#2776EA"/>
<path d="M54.8416 6.15407C54.8582 8.998 52.6375 11.3321 49.8805 11.3708C47.0974 11.4094 44.7367 9.05358 44.7035 6.20481C44.6703 3.42612 46.9598 1.04852 49.7073 1.00745C52.5354 0.963953 54.8226 3.25456 54.8416 6.15407ZM49.7903 3.09992C48.075 3.10717 46.7083 4.51827 46.7439 6.24347C46.7795 7.93002 48.1153 9.24688 49.7998 9.25413C51.4512 9.26138 52.8344 7.90102 52.8676 6.23622C52.9008 4.5376 51.4844 3.09509 49.7903 3.09992Z" fill="#2776EA"/>
<path d="M24.4013 27.8404C23.6231 27.8404 23.0441 27.8404 22.209 27.8404C22.3347 24.9047 22.2588 22.01 22.6432 19.1782C22.935 17.018 24.3301 15.3387 26.2661 14.1523C26.8356 14.5631 27.4002 14.969 27.9198 15.3436C27.1535 16.0298 26.1997 16.5541 25.7418 17.3684C25.1012 18.5089 24.5816 19.8402 24.4582 21.1329C24.2542 23.3124 24.4013 25.5281 24.4013 27.8404Z" fill="#2776EA"/>
<path d="M42.6511 27.845C41.9323 27.845 41.351 27.845 40.6131 27.845C40.6131 26.2358 40.5324 24.6749 40.6297 23.1261C40.8337 19.8496 40.1789 17.0323 36.9355 15.4714C38.8835 13.9105 38.9831 13.9177 40.5348 15.6453C41.7448 16.9936 42.5301 18.5908 42.6203 20.3933C42.7437 22.8289 42.6511 25.2765 42.6511 27.845Z" fill="#2776EA"/>
<path d="M11.5845 12.4923C9.98778 13.6038 9.53461 15.1719 9.62951 17.0131C9.69595 18.2937 9.64612 19.5792 9.63663 20.8622C9.63189 21.5726 9.38988 22.2056 8.60692 22.2056C7.83345 22.2056 7.57959 21.6185 7.58908 20.8743C7.60568 19.1491 7.53213 17.4215 7.6128 15.7011C7.69822 13.8599 8.49541 12.3401 9.95931 11.1416C10.505 11.5959 11.0151 12.0187 11.5845 12.4923Z" fill="#2776EA"/>
<path d="M53.3672 12.5402C53.9936 12.0256 54.4799 11.6293 55.0043 11.1992C56.5085 12.4194 57.3057 13.9827 57.3935 15.8723C57.4718 17.5177 57.403 19.168 57.4196 20.8183C57.4291 21.6036 57.1895 22.2367 56.3329 22.2101C55.5713 22.1859 55.3032 21.594 55.3104 20.8546C55.3222 19.6078 55.2629 18.3586 55.3246 17.1142C55.4124 15.2754 55.0067 13.6783 53.3672 12.5402Z" fill="#2776EA"/>
<path d="M46.1208 12.4897C44.5573 13.7002 44.059 15.3312 44.1587 17.2569C42.0044 14.6884 42.0803 13.3716 44.5075 11.2139C45.0081 11.6077 45.5229 12.0161 46.1208 12.4897Z" fill="#2776EA"/>
<path d="M18.8711 12.4847C19.4453 12.0184 19.9008 11.6438 20.6173 11.0615C21.2556 12.0884 22.2734 13.0356 22.3636 14.0649C22.4514 15.0822 21.5996 16.184 21.023 17.2326C20.8783 15.3866 20.5533 13.6928 18.8711 12.4847Z" fill="#2776EA"/>
</svg>
