<svg width="71" height="61" viewBox="0 0 71 61" fill="none" xmlns="http://www.w3.org/2000/svg">
<path d="M58.4997 30.7157H58.0561H58.0451H58.034H58.0229H58.0119H58.0008H57.9898H57.9787H57.9676H57.9566H57.9455H57.9344H57.9234H57.9123H57.9012H57.8901H57.8791H57.868H57.8569H57.8458H57.8348H57.8237H57.8126H57.8015H57.7905H57.7794H57.7683H57.7572H57.7461H57.735H57.7239H57.7129H57.7018H57.6907H57.6796H57.6685H57.6574H57.6463H57.6352H57.6241H57.613H57.6019H57.5908H57.5797H57.5686H57.5575H57.5464H57.5353H57.5242H57.5131H57.502H57.4909H57.4798H57.4687H57.4576H57.4465H57.4354H57.4243H57.4132H57.4021H57.3909H57.3798H57.3687H57.3576H57.3465H57.3354H57.3242H57.3131H57.302H57.2909H57.2798H57.2686H57.2575H57.2464H57.2353H57.2241H57.213H57.2019H57.1907H57.1796H57.1685H57.1574H57.1462H57.1351H57.124H57.1128H57.1017H57.0905H57.0794H57.0683H57.0571H57.046H57.0349H57.0237H57.0126H57.0014H56.9903H56.9791H56.968H56.9569H56.9457H56.9346H56.9234H56.9123H56.9011H56.89H56.8788H56.8677H56.8565H56.8453H56.8342H56.823H56.8119H56.8007H56.7896H56.7784H56.7672H56.7561H56.7449H56.7338H56.7226H56.7114H56.7003H56.6891H56.6779H56.6668H56.6556H56.6444H56.6333H56.6221H56.6109H56.5998H56.5886H56.5774H56.5662H56.5551H56.5439H56.5327H56.5215H56.5104H56.4992H56.488H56.4768H56.4657H56.4545H56.4433H56.4321H56.4209H56.4098H56.3986H56.3874H56.3762H56.365H56.3538H56.3426H56.3315H56.3203H56.3091H56.2979H56.2867H56.2755H56.2643H56.2531H56.2419H56.2307H56.2195H56.2083H56.1971H56.1859H56.1747H56.1636H56.1524H56.1412H56.13H56.1188H56.1076H56.0963H56.0851H56.0739H56.0627H56.0515H56.0403H56.0291H56.0179H56.0067H55.9955H55.9843H55.9731H55.9619H55.9507H55.9395H55.9282H55.917H55.9058H55.8946H55.8834H55.8722H55.861H55.8497H55.8385H55.8273H55.8161H55.8049H55.7937H55.7824H55.7712H55.76H55.7488H55.7376H55.7263H55.7151H55.7039H55.6927H55.6814H55.6702H55.659H55.6478H55.6365H55.6253H55.6141H55.6028H55.5916H55.5804H55.5692H55.5579H55.5467H55.5355H55.5242H55.513H55.5018H55.4905H55.4793H55.4681H55.4568H55.4456H55.4343H55.4231H55.4119H55.4006H55.3894H55.3782H55.3669H55.3557H55.3444H55.3332H55.3219H55.3107H55.2995H55.2882H55.277H55.2657H55.2545H55.2432H55.232H55.2207H55.2095H55.1982H55.187H55.1757H55.1645H55.1532H55.142H55.1307H55.1195H55.1082H55.097H55.0857H55.0745H55.0632H55.052H55.0407H55.0295H55.0182H55.007H54.9957H54.9844H54.9732H54.9619H54.9507H54.9394H54.9281H54.9169H54.9056H54.8944H54.8831H54.8718H54.8606H54.8493H54.8381H54.8268H54.8155H54.8043H54.793H54.7817H54.7705H54.7592H54.7479H54.7367H54.7254H54.7141H54.7029H54.6916H54.6803H54.6691H54.6578H54.6465H54.6353H54.624H54.6127H54.6014H54.5902H54.5789H54.5676H54.5564H54.5451H54.5338H54.5225H54.5113H54.5H54.4887H54.4774H54.4662H54.4549H54.4436H54.4323H54.421H54.4098H54.3985H54.3872H54.3759H54.3646H54.3534H54.3421H54.3308H54.3195H54.3082H54.297H54.2857H54.2744H54.2631H54.2518H54.2406H54.2293H54.218H54.2067H54.1954H54.1841H54.1728H54.1616H54.1503H54.139H54.1277H54.1164H54.1051H54.0938H54.0826H54.0713H54.06H54.0487H54.0374H54.0261H54.0148H54.0035H53.9922H53.9809H53.9697H53.9584H53.9471H53.9358H53.9245H53.9132H53.9019H53.8906H53.8793H53.868H53.8567H53.8454H53.8342H53.8229H53.8116H53.8003H53.789H53.7777H53.7664H53.7551H53.7438H53.7325H53.7212H53.7099H53.6986H53.6873H53.676H53.6647H53.6534H53.6421H53.6308H53.6195H53.6082H53.5969H53.5856H53.5743H53.563H53.5517H53.5404H53.5291H53.5178H53.5065H53.4952H53.4839H53.4726H53.4613H53.45H53.4387H53.4274H53.4161H53.4048H53.3935H53.3822H53.3709H53.3596H53.3483H53.337H53.3257H53.3144H53.3031H53.2918H53.2805H53.2692H53.2579H53.2466H53.2352H53.2239H53.2126H53.2013H53.19H53.1787H53.1674H53.1561H53.1448H53.1335H53.1222H53.1109H53.0996H53.0883H53.077H53.0657H53.0543H53.043H53.0317H53.0204H53.0091H52.9978H52.9865H52.9752H52.9639H52.9526H52.9413H52.93H52.9186H52.9073H52.896H52.8847H52.8734H52.8621H52.8508H52.8395H52.8282H52.8169H52.8056H52.7942H52.7829H52.7716H52.7603H52.749H52.7377H52.7264H52.7151H52.7038H52.6925H52.6811H52.6698H52.6585H52.6472H52.6359H52.6246H52.6133H52.602H52.6017C52.566 30.7804 52.5303 30.8452 52.4948 30.9102C53.0771 31.6903 53.6594 32.4705 54.2431 33.2526C56.5965 36.4055 58.972 39.5882 61.4587 42.9174C64.613 38.664 67.5163 34.7441 70.4145 30.831C70.4069 30.8158 70.3994 30.8005 70.3919 30.7853H70.3907H70.3792H70.3676H70.356H70.3445H70.3329H70.3213H70.3097H70.2982H70.2866H70.275H70.2634H70.2519H70.2403H70.2287H70.2172H70.2056H70.194H70.1824H70.1708H70.1593H70.1477H70.1361H70.1245H70.113H70.1014H70.0898H70.0782H70.0666H70.0551H70.0435H70.0319H70.0203H70.0087H69.9972H69.9856H69.974H69.9624H69.9508H69.9392H69.9277H69.9161H69.9045H69.8929H69.8813H69.8697H69.8581H69.8465H69.835H69.8234H69.8118H69.8002H69.7886H69.777H69.7654H69.7538H69.7422H69.7306H69.719H69.7074H69.6958H69.6842H69.6726H69.661H69.6494H69.6378H69.6262H69.6146H69.603H69.5914H69.5798H69.5682H69.5566H69.545H69.5334H69.5218H69.5102H69.4986H69.487H69.4754H69.4638H69.4522H69.4405H69.4289H69.4173H69.4057H69.3941H69.3825H69.3709H69.3592H69.3476H69.336H69.3244H69.3128H69.3011H69.2895H69.2779H69.2663H69.2546H69.243H69.2314H69.2198H69.2081H69.1965H69.1849H69.1733H69.1616H69.15H69.1384H69.1267H69.1151H69.1034H69.0918H69.0802H69.0685H69.0569H69.0452H69.0336H69.022H69.0103H68.9987H68.987H68.9754H68.9637H68.9521H68.9404H68.9288H68.9171H68.9055H68.8938H68.8822H68.8705H68.8589H68.8472H68.8355H68.8239H68.8122H68.8006H68.7889H68.7772H68.7656H68.7539H68.7422H68.7306H68.7189H68.7072H68.6955H68.6839H68.6722H68.6605H68.6488H68.6372H68.6255H68.6138H68.6021H68.5904H68.5787H68.5671H68.5554H68.5437H68.532H68.5203H68.5086H68.4969H68.4852H68.4735H68.4618H68.4501H68.4384H68.4267H68.415H68.4033H68.3916H68.3799H68.3682H68.3565H68.3448H68.3331H68.3214H68.3096H68.2979H68.2862H68.2745H68.2628H68.2511H68.2393H68.2276H68.2159H68.2042H68.1924H68.1807H68.169H68.1572H68.1455H68.1338H68.122H68.1103H68.0985H68.0868H68.0751H68.0633H68.0516H68.0398H68.0281H68.0163H68.0046H67.9928H67.9811H67.9693H67.9576H67.9458H67.934H67.9223H67.9105H67.8987H67.887H67.8752H67.8634H67.8517H67.8399H67.8281H67.8163H67.8046H67.7928H67.781H67.7692H67.7574H67.7456H67.7339H67.7221H67.7103H67.6985H67.6867H67.6749H67.6631H67.6513H67.6395H67.6277H67.6159H67.6041H67.5923H67.5805H67.5686H67.5568H67.545H67.5332H67.5214H67.5096H67.4977H67.4859H67.4741H67.4623H67.4504H67.4386H67.4268H67.4149H67.4031H67.3913H67.3794H67.3676H67.3557H67.3439H67.332H67.3202H67.3083H67.2965H67.2846H67.2728H67.2609H67.249H67.2372H67.2253H67.2134H67.2016H67.1897H67.1778H67.166H67.1541H67.1422H67.1303H67.1184H67.1066H67.0947H67.0828H67.0709H67.059H67.0471H67.0352H67.0233H67.0114H66.9995H66.9876H66.9757H66.9638H66.9519H66.94H66.928H66.9161H66.9042H66.8923H66.8804H66.8684H66.8565H66.8446H66.8326H66.8207H66.8088H66.7968H66.7849H66.7729H66.761H66.7491H66.7371H66.7252H66.7132H66.7012H66.6893H66.6773H66.6654H66.6534H66.6414H66.6295H66.6175H66.6055H66.5935H66.5816H66.5696H66.5576H66.5456H66.5336H66.5216H66.5096H66.4977H66.4857H66.4737H66.4617H66.4497H66.4376H66.4256H66.4136H66.4016H66.3896H66.3776H66.3656H66.3535H66.3415H66.3295H66.3175H66.3054H66.2934H66.2814H66.2693H66.2573H66.2452H66.2332H66.2211H66.2091H66.197H66.185H66.1729H66.1609H66.1488H66.1367H66.1247H66.1126H66.1005H66.0884H66.0764H66.0643H66.0522H66.0401H66.028H66.0159H66.0038H65.9917H65.9796H65.9675H65.9554H65.9433H65.9312H65.9191H65.907H65.8949H65.8828H65.8706H65.8585H65.8464H65.8343H65.8221H65.81H65.7979H65.7857H65.7736H65.7614H65.7493H65.7371H65.725H65.7128H65.7007H65.6885H65.6763H65.6642H65.652H65.6398H65.6276H65.6155H65.6033H65.5911H65.5789H65.5667H65.5545H65.5423H65.5301H65.5179H65.5057H65.4935H65.4813H65.4691H65.4569H65.4447H65.4324H65.4202H65.408H65.3958H65.3835H65.3713H65.3591H65.3468H65.3346H65.3223H65.3101H65.2978H65.2856H65.2733H65.2611H65.2488H65.2365H65.2243H65.212H65.1997H65.1874H65.1752H65.1629H65.1506H65.1383H65.126H65.1137H65.1014H65.0891H65.0768H65.0645H65.0522H65.0399H65.0275H65.0152H65.0029H64.9906H64.9782H64.9659H64.9536H64.9412H64.9289H64.9165H64.9042H64.8918H64.8795H64.8671H64.8548H64.8424H64.83H64.8177H64.8053H64.7929H64.7805H64.7682H64.7558H64.7434H64.731H64.7186H64.7062H64.6938H64.6814H64.669H64.6566H64.6442H64.6317H64.1433L64.1319 30.2969C63.9452 22.2923 61.4613 15.5636 56.4046 9.96398L56.4045 9.96388C51.3328 4.34471 45.0135 1.39069 37.651 0.677802L58.4997 30.7157ZM58.4997 30.7157L58.5526 30.2753M58.4997 30.7157L58.5526 30.2753M58.5526 30.2753C59.0759 25.9159 57.688 21.2298 55.0992 17.1901M58.5526 30.2753L55.0992 17.1901M55.0992 17.1901C52.5089 13.1482 48.69 9.71087 44.2868 7.86301M55.0992 17.1901L44.2868 7.86301M44.2868 7.86301C38.8415 5.57752 33.6584 5.3986 28.7293 7.37526M44.2868 7.86301L28.7293 7.37526M28.7293 7.37526C23.9442 9.2942 19.4503 13.2238 15.1969 19.1075M28.7293 7.37526L15.1969 19.1075M15.1969 19.1075C15.0161 18.9318 14.835 18.7558 14.6536 18.5795C13.5667 17.5232 12.4656 16.4531 11.3161 15.337C13.1714 11.0651 17.0811 7.18677 21.8474 4.47392C26.7259 1.69727 32.4416 0.176392 37.6507 0.677775L15.1969 19.1075Z" stroke="#2776EA"/>
<path d="M55.6034 42.4457C48.2742 53.7762 36.9913 55.6686 28.6245 52.8431C20.0248 49.9395 13.1509 41.144 13.0254 32.4401L13.0181 31.9329H13.5253H13.5365H13.5476H13.5588H13.5699H13.5811H13.5922H13.6034H13.6145H13.6257H13.6368H13.648H13.6591H13.6703H13.6814H13.6926H13.7038H13.7149H13.7261H13.7372H13.7484H13.7595H13.7707H13.7818H13.793H13.8041H13.8153H13.8264H13.8376H13.8487H13.8599H13.871H13.8822H13.8933H13.9045H13.9156H13.9268H13.938H13.9491H13.9603H13.9714H13.9826H13.9937H14.0049H14.016H14.0272H14.0383H14.0495H14.0606H14.0718H14.083H14.0941H14.1053H14.1164H14.1276H14.1387H14.1499H14.161H14.1722H14.1833H14.1945H14.2057H14.2168H14.228H14.2391H14.2503H14.2614H14.2726H14.2837H14.2949H14.3061H14.3172H14.3284H14.3395H14.3507H14.3618H14.373H14.3842H14.3953H14.4065H14.4176H14.4288H14.4399H14.4511H14.4622H14.4734H14.4846H14.4957H14.5069H14.518H14.5292H14.5404H14.5515H14.5627H14.5738H14.585H14.5961H14.6073H14.6185H14.6296H14.6408H14.6519H14.6631H14.6742H14.6854H14.6966H14.7077H14.7189H14.73H14.7412H14.7524H14.7635H14.7747H14.7858H14.797H14.8082H14.8193H14.8305H14.8416H14.8528H14.864H14.8751H14.8863H14.8974H14.9086H14.9198H14.9309H14.9421H14.9532H14.9644H14.9756H14.9867H14.9979H15.009H15.0202H15.0314H15.0425H15.0537H15.0648H15.076H15.0872H15.0983H15.1095H15.1206H15.1318H15.143H15.1541H15.1653H15.1764H15.1876H15.1988H15.2099H15.2211H15.2323H15.2434H15.2546H15.2657H15.2769H15.2881H15.2992H15.3104H15.3216H15.3327H15.3439H15.355H15.3662H15.3774H15.3885H15.3997H15.4109H15.422H15.4332H15.4443H15.4555H15.4667H15.4778H15.489H15.5002H15.5113H15.5225H15.5336H15.5448H15.556H15.5671H15.5783H15.5895H15.6006H15.6118H15.623H15.6341H15.6453H15.6565H15.6676H15.6788H15.6899H15.7011H15.7123H15.7234H15.7346H15.7458H15.7569H15.7681H15.7793H15.7904H15.8016H15.8128H15.8239H15.8351H15.8462H15.8574H15.8686H15.8797H15.8909H15.9021H15.9132H15.9244H15.9356H15.9467H15.9579H15.9691H15.9802H15.9914H16.0026H16.0137H16.0249H16.0361H16.0472H16.0584H16.0696H16.0807H16.0919H16.1031H16.1142H16.1254H16.1366H16.1477H16.1589H16.1701H16.1812H16.1924H16.2036H16.2147H16.2259H16.2371H16.2482H16.2594H16.2706H16.2817H16.2929H16.3041H16.3152H16.3264H16.3376H16.3487H16.3599H16.3711H16.3822H16.3934H16.4046H16.4157H16.4269H16.4381H16.4492H16.4604H16.4716H16.4827H16.4939H16.5051H16.5162H16.5274H16.5386H16.5497H16.5609H16.5721H16.5833H16.5944H16.6056H16.6168H16.6279H16.6391H16.6503H16.6614H16.6726H16.6838H16.6949H16.7061H16.7173H16.7284H16.7396H16.7508H16.7619H16.7731H16.7843H16.7955H16.8066H16.8178H16.829H16.8401H16.8513H16.8625H16.8736H16.8848H16.896H16.9071H16.9183H16.9295H16.9407H16.9518H16.963H16.9742H16.9853H16.9965H17.0077H17.0188H17.03H17.0412H17.0524H17.0635H17.0747H17.0859H17.097H17.1082H17.1194H17.1305H17.1417H17.1529H17.1641H17.1752H17.1864H17.1976H17.2087H17.2199H17.2311H17.2422H17.2534H17.2646H17.2758H17.2869H17.2981H17.3093H17.3204H17.3316H17.3428H17.3539H17.3651H17.3763H17.3875H17.3986H17.4098H17.421H17.4321H17.4433H17.4545H17.4657H17.4768H17.488H17.4992H17.5103H17.5215H17.5327H17.5439H17.555H17.5662H17.5774H17.5885H17.5997H17.6109H17.6221H17.6332H17.6444H17.6556H17.6667H17.6779H17.6891H17.7003H17.7114H17.7226H17.7338H17.7449H17.7561H17.7673H17.7785H17.7896H17.8008H17.812H17.8231H17.8343H17.8455H17.8567H17.8678H17.879H17.8902H17.9013H17.9125H17.9237H17.9349H17.946H17.9572H17.9684H17.9795H17.9907H18.0019H18.0131H18.0242H18.0354H18.0466H18.0578H18.0689H18.0801H18.0913H18.1024H18.1136H18.1248H18.136H18.1471H18.1583H18.1695H18.1807H18.1918H18.203H18.2142H18.2253H18.2365H18.2477H18.2589H18.27H18.2812H18.2924H18.3035H18.3147H18.3259H18.3371H18.3482H18.3594H18.3706H18.3818H18.3929H18.4041H18.4153H18.4264H18.4376H18.4488H18.46H18.4711H18.4823H18.4935H18.5047H18.5158H18.527H18.5382H18.5493H18.5605H18.5717H18.5829H18.594H18.6052H18.6164H18.6276H18.6387H18.6499H18.6611H18.6722H18.6834H18.6946H18.7058H18.7169H18.7281H18.7393H18.7505H18.7616H18.7728H18.784H18.7952H18.8063H18.8175H18.8287H18.8398H18.851H18.8622H18.8734H18.8845H18.8957H18.9069H18.9181H18.9292H18.9404H18.9516H18.952C18.9743 31.8933 18.9966 31.8535 19.0189 31.8136C17.4224 29.6625 15.8248 27.511 14.1933 25.3138C12.8408 23.4924 11.465 21.6396 10.0473 19.7297C6.91031 23.9741 3.99635 27.9143 1.08756 31.8475C1.08983 31.8511 1.09211 31.8546 1.09438 31.8582L1.09488 31.859C1.1098 31.8823 1.12467 31.9056 1.1395 31.9288H1.14639H1.15805H1.16971H1.18136H1.19302H1.20468H1.21634H1.228H1.23966H1.25132H1.26298H1.27464H1.2863H1.29796H1.30962H1.32128H1.33294H1.3446H1.35626H1.36792H1.37958H1.39124H1.4029H1.41456H1.42622H1.43788H1.44954H1.4612H1.47286H1.48452H1.49618H1.50784H1.5195H1.53116H1.54282H1.55448H1.56614H1.5778H1.58946H1.60112H1.61278H1.62444H1.6361H1.64775H1.65941H1.67107H1.68273H1.69439H1.70605H1.71771H1.72937H1.74103H1.75269H1.76434H1.776H1.78766H1.79932H1.81098H1.82264H1.83429H1.84595H1.85761H1.86927H1.88093H1.89258H1.90424H1.9159H1.92756H1.93921H1.95087H1.96253H1.97419H1.98584H1.9975H2.00916H2.02081H2.03247H2.04413H2.05578H2.06744H2.07909H2.09075H2.10241H2.11406H2.12572H2.13737H2.14903H2.16068H2.17234H2.18399H2.19565H2.2073H2.21896H2.23061H2.24226H2.25392H2.26557H2.27722H2.28888H2.30053H2.31218H2.32384H2.33549H2.34714H2.35879H2.37045H2.3821H2.39375H2.4054H2.41705H2.4287H2.44036H2.45201H2.46366H2.47531H2.48696H2.49861H2.51026H2.52191H2.53356H2.54521H2.55685H2.5685H2.58015H2.5918H2.60345H2.6151H2.62674H2.63839H2.65004H2.66168H2.67333H2.68498H2.69662H2.70827H2.71992H2.73156H2.74321H2.75485H2.7665H2.77814H2.78979H2.80143H2.81307H2.82472H2.83636H2.848H2.85964H2.87129H2.88293H2.89457H2.90621H2.91785H2.92949H2.94114H2.95278H2.96442H2.97606H2.9877H2.99933H3.01097H3.02261H3.03425H3.04589H3.05753H3.06916H3.0808H3.09244H3.10407H3.11571H3.12735H3.13898H3.15062H3.16225H3.17389H3.18552H3.19715H3.20879H3.22042H3.23205H3.24369H3.25532H3.26695H3.27858H3.29021H3.30184H3.31348H3.32511H3.33674H3.34836H3.35999H3.37162H3.38325H3.39488H3.40651H3.41813H3.42976H3.44139H3.45301H3.46464H3.47626H3.48789H3.49951H3.51114H3.52276H3.53438H3.54601H3.55763H3.56925H3.58087H3.5925H3.60412H3.61574H3.62736H3.63898H3.6506H3.66222H3.67383H3.68545H3.69707H3.70869H3.7203H3.73192H3.74354H3.75515H3.76677H3.77838H3.79H3.80161H3.81322H3.82484H3.83645H3.84806H3.85967H3.87128H3.88289H3.8945H3.90611H3.91772H3.92933H3.94094H3.95255H3.96416H3.97576H3.98737H3.99898H4.01058H4.02219H4.03379H4.04539H4.057H4.0686H4.0802H4.09181H4.10341H4.11501H4.12661H4.13821H4.14981H4.16141H4.17301H4.18461H4.1962H4.2078H4.2194H4.23099H4.24259H4.25418H4.26578H4.27737H4.28896H4.30056H4.31215H4.32374H4.33533H4.34692H4.35851H4.3701H4.38169H4.39328H4.40487H4.41646H4.42804H4.43963H4.45122H4.4628H4.47439H4.48597H4.49755H4.50914H4.52072H4.5323H4.54388H4.55546H4.56704H4.57862H4.5902H4.60178H4.61336H4.62493H4.63651H4.64809H4.65966H4.67124H4.68281H4.69438H4.70596H4.71753H4.7291H4.74067H4.75224H4.76381H4.77538H4.78695H4.79852H4.81009H4.82165H4.83322H4.84479H4.85635H4.86791H4.87948H4.89104H4.9026H4.91417H4.92573H4.93729H4.94885H4.96041H4.97196H4.98352H4.99508H5.00664H5.01819H5.02975H5.0413H5.05285H5.06441H5.07596H5.08751H5.09906H5.11061H5.12216H5.13371H5.14526H5.15681H5.16836H5.1799H5.19145H5.20299H5.21454H5.22608H5.23762H5.24917H5.26071H5.27225H5.28379H5.29533H5.30687H5.3184H5.32994H5.34148H5.35301H5.36455H5.37608H5.38761H5.39915H5.41068H5.42221H5.43374H5.44527H5.4568H5.46833H5.47986H5.49138H5.50291H5.51443H5.52596H5.53748H5.54901H5.56053H5.57205H5.58357H5.59509H5.60661H5.61813H5.62965H5.64116H5.65268H5.66419H5.67571H5.68722H5.69874H5.71025H5.72176H5.73327H5.74478H5.75629H5.7678H5.7793H5.79081H5.80232H5.81382H5.82533H5.83683H5.84833H5.85983H5.87134H5.88284H5.89433H5.90583H5.91733H5.92883H5.94032H5.95182H5.96331H5.97481H5.9863H5.99779H6.00928H6.02077H6.03226H6.04375H6.05524H6.06672H6.07821H6.08969H6.10118H6.11266H6.12415H6.13563H6.14711H6.15859H6.17007H6.18154H6.19302H6.2045H6.21597H6.22745H6.23892H6.25039H6.26187H6.27334H6.28481H6.29628H6.30774H6.31921H6.33068H6.34214H6.35361H6.36507H6.37653H6.388H6.39946H6.41092H6.42238H6.43384H6.44529H6.45675H6.4682H6.47966H6.49111H6.50257H6.51402H6.52547H6.53692H6.54837H6.55981H6.57126H6.58271H6.59415H6.6056H6.61704H6.62848H6.63992H6.65136H6.6628H6.67424H6.68568H6.69712H6.70855H6.71999H6.73142H6.74285H6.75428H6.76571H6.77714H6.78857H6.8H7.24357L7.29644 32.3692C9.35788 49.5432 22.2377 58.6286 33.905 59.5239L55.6034 42.4457ZM55.6034 42.4457C55.9279 42.8437 56.2514 43.2406 56.5749 43.6377C57.3825 44.6288 58.1904 45.6203 59.0153 46.6293C57.2073 50.3531 53.3951 53.7276 48.8077 56.1053C44.1114 58.5394 38.6764 59.8896 33.9051 59.5239L55.6034 42.4457Z" stroke="#2776EA"/>
<path d="M30.3478 25.7319L30.3478 25.7321C30.3754 28.6553 30.3794 31.5744 30.3596 34.4975L30.3478 25.7319ZM30.3478 25.7319C30.3426 25.2042 30.4643 24.9058 30.6196 24.7385M30.3478 25.7319L30.6196 24.7385M41.1479 25.858L41.148 25.8564C41.1658 25.2802 41.0484 24.9488 40.8852 24.7622C40.7313 24.5862 40.455 24.4471 39.9285 24.4453L41.1479 25.858ZM41.1479 25.858C41.1219 26.8014 41.1283 27.753 41.1346 28.6933C41.1379 29.1825 41.1412 29.6687 41.1398 30.149C41.1388 30.5169 41.1362 30.8864 41.1336 31.2569M41.1479 25.858L41.1336 31.2569M41.1336 31.2569C41.1261 32.3127 41.1185 33.3771 41.1479 34.4382M41.1336 31.2569L41.1479 34.4382M41.1479 34.4382C41.1618 34.9751 41.0421 35.2584 40.896 35.4115C40.7517 35.5627 40.4905 35.6818 40.0033 35.6837C40.0032 35.6837 40.0031 35.6837 40.003 35.6837L40.0048 36.1837C37.8948 36.1898 35.787 36.189 33.6781 36.1883C32.9754 36.188 32.2726 36.1878 31.5696 36.1878L41.1479 34.4382ZM30.6196 24.7385C30.7698 24.5766 31.0306 24.4528 31.4983 24.4493L30.6196 24.7385ZM31.4984 24.4493C34.3045 24.4289 37.1149 24.4371 39.9283 24.4453L31.4984 24.4493Z" stroke="#2776EA"/>
<path d="M36.3016 21.2865C36.2339 21.7365 35.555 21.7704 35.3506 21.3639C35.244 21.1521 35.1824 21.0081 35.1551 20.8571C34.9345 19.6913 34.6311 18.5133 34.6429 17.3434C34.6433 17.2862 34.651 17.229 34.6648 17.1719C34.8813 16.276 36.904 16.0458 36.8768 16.9671C36.8335 18.411 36.5262 19.8508 36.3016 21.2865Z" fill="#2776EA"/>
<path d="M35.7043 38.4534C35.8925 38.4324 36.065 38.562 36.0974 38.7486C36.372 40.3305 36.6821 41.907 36.8441 43.5013C36.8717 43.7672 36.0719 44.4176 35.7646 44.3521C35.3154 44.258 34.5984 43.6322 34.6299 43.3009C34.7751 41.7705 35.1067 40.262 35.3887 38.7479C35.418 38.5907 35.5453 38.4711 35.7043 38.4534Z" fill="#2776EA"/>
<path d="M44.0246 30.5633C43.6331 30.4778 44.036 29.793 44.4238 29.6918C45.743 29.3475 46.9272 28.9972 48.1338 28.8699C48.1756 28.8655 48.2183 28.8696 48.2616 28.881C49.2125 29.1312 49.3081 31.4082 48.3269 31.3446C46.881 31.2423 45.4508 30.8783 44.0246 30.5633Z" fill="#2776EA"/>
<path d="M27.5752 24.8577C27.9121 24.9489 27.4893 25.531 27.1522 25.6215C25.8731 25.965 24.6714 26.3366 23.4462 26.4775C23.405 26.4824 23.3631 26.4802 23.3205 26.4719C22.3691 26.2862 22.1365 23.9916 23.1034 24.0601C24.6045 24.1787 26.0938 24.5468 27.5752 24.8577Z" fill="#2776EA"/>
<path d="M44.758 25.7281C44.2459 25.5932 44.1366 24.7794 44.6546 24.6694C45.7696 24.4322 46.8885 24.1826 48.0192 24.0886C48.4487 24.0518 49.0436 24.3013 49.3194 24.6326C49.5361 24.8985 49.5479 25.6388 49.343 25.9047C49.0712 26.2524 48.4566 26.5796 48.0547 26.506C47.0209 26.3276 46.0037 26.0563 44.758 25.7281Z" fill="#2776EA"/>
<path d="M26.633 29.5997C27.1739 29.7323 27.2665 30.5648 26.7238 30.69C25.6758 30.9313 24.6199 31.1808 23.5522 31.2831C23.1109 31.3281 22.5121 31.1358 22.2205 30.8209C21.9881 30.5673 21.9526 29.876 22.1181 29.5324C22.2836 29.1888 22.8509 28.7757 23.1701 28.8289C24.2581 29.0181 25.3362 29.2819 26.633 29.5997Z" fill="#2776EA"/>
<path d="M27.7483 34.8703C27.7824 35.0518 27.6678 35.2243 27.4892 35.2711C27.1193 35.3679 26.7503 35.4682 26.3765 35.5414C25.5019 35.7132 24.6233 35.9422 23.7408 35.9913C23.2247 36.02 22.5509 35.8932 22.216 35.5496C21.9797 35.3082 22.0151 34.3593 22.2633 34.1384C22.6179 33.8275 23.3034 33.758 23.8117 33.8316C25.0428 34.0164 26.2565 34.3208 27.4758 34.5879C27.6142 34.6182 27.7221 34.7311 27.7483 34.8703Z" fill="#2776EA"/>
<path d="M43.7802 34.9169C43.8047 34.7838 43.906 34.6748 44.0374 34.6425C45.4457 34.2971 46.845 33.8911 48.2693 33.6888C48.6357 33.6356 49.2858 34.2451 49.4512 34.6868C49.5694 35.0018 49.0533 35.959 48.876 35.9426C47.2667 35.8091 45.6677 35.5475 44.0662 35.3105C43.8758 35.2823 43.7452 35.1062 43.7802 34.9169Z" fill="#2776EA"/>
<path d="M31.5608 21.4623C31.4897 21.8212 30.8615 21.4335 30.7754 21.0778C30.4487 19.7266 30.1005 18.4385 29.9455 17.1265C29.9442 17.115 29.9435 17.1034 29.9434 17.0918C29.9363 16.144 32.2831 16.0245 32.2346 16.9711C32.1597 18.4763 31.8406 19.9734 31.5608 21.4623Z" fill="#2776EA"/>
<path d="M40.7952 20.8015C40.6844 21.2705 39.8966 21.4903 39.8079 21.0166C39.5715 19.7854 39.3469 18.546 39.2602 17.2985C39.2287 16.8608 39.5085 16.2554 39.8394 15.9814C40.0916 15.7728 40.7534 15.8218 41.0489 16.0345C41.3523 16.2513 41.636 16.8403 41.5769 17.2003C41.3808 18.3519 41.106 19.4863 40.7952 20.8015Z" fill="#2776EA"/>
<path d="M30.9785 38.47C31.1729 38.2579 31.5338 38.345 31.6028 38.6243C31.6413 38.7806 31.6764 38.9375 31.7026 39.0957C31.9154 40.3924 32.2424 41.6931 32.2503 42.9939C32.2503 43.0358 32.2442 43.0777 32.2328 43.1195C31.9861 44.0276 29.8341 44.006 29.9455 43.0716C30.1269 41.573 30.5502 40.1098 30.8933 38.6319C30.9074 38.5713 30.9364 38.5159 30.9785 38.47Z" fill="#2776EA"/>
<path d="M39.9497 38.7363C40.0103 38.3799 40.6389 38.7782 40.7242 39.1296C41.0519 40.4783 41.4022 41.7637 41.5611 43.0762C41.5619 43.0827 41.5624 43.0893 41.5628 43.0958C41.613 44.0491 39.199 44.1522 39.2484 43.1989C39.3311 41.7019 39.6621 40.213 39.9497 38.7363Z" fill="#2776EA"/>
</svg>
