<svg width="82" height="61" viewBox="0 0 82 61" fill="none" xmlns="http://www.w3.org/2000/svg">
<mask id="path-1-outside-1_69_546474" maskUnits="userSpaceOnUse" x="-0.402344" y="-0.498047" width="82" height="62" fill="black">
<rect fill="white" x="-0.402344" y="-0.498047" width="82" height="62"/>
<path d="M69.4831 30.1953C70.6554 29.7226 70.9413 29.7884 71.759 30.7158C74.6354 33.9468 77.5175 37.1837 80.3938 40.4146C81.2059 41.3301 81.2001 42.0062 80.3881 42.9216C77.4775 46.1884 74.5725 49.4613 71.6618 52.7281C71.2673 53.1709 70.8498 53.5119 70.2208 53.3863C69.5117 53.2427 69.0828 52.7461 69.0714 51.9862C69.06 50.975 69.0542 49.9639 69.0714 48.9467C69.0771 48.5518 68.9513 48.4022 68.5682 48.4082C67.2186 48.4202 65.8634 48.3963 64.5138 48.4322C64.2736 48.4381 63.982 48.5937 63.8104 48.7732C62.3408 50.3049 60.9112 51.8725 59.4359 53.3982C57.8747 55.0137 55.4044 55.1274 53.7346 53.6376C52.9741 52.9615 52.2993 52.1896 51.6016 51.4417C50.8697 50.6519 50.8868 50.6639 49.9033 51.1007C49.1141 51.4537 48.3078 51.7648 47.4958 52.058C47.2042 52.1657 47.0784 52.2973 47.0841 52.6324C47.1012 53.7273 47.0898 54.8163 47.0841 55.9112C47.0784 58.5199 45.2027 60.4943 42.7209 60.5003C41.3828 60.5063 40.0504 60.4943 38.7123 60.4884C36.1619 60.4704 34.292 58.5318 34.2806 55.8573C34.2748 54.7504 34.2977 53.6376 34.3263 52.5307C34.332 52.2435 34.2348 52.1059 33.9775 52.0041C32.9482 51.5853 31.9246 51.1485 30.9124 50.6878C30.6608 50.5742 30.5064 50.5921 30.312 50.7955C29.6143 51.5434 28.8938 52.2674 28.1905 53.0033C26.2805 55.0077 23.6729 55.0137 21.7687 53.0153C20.8709 52.07 19.9731 51.1246 19.0696 50.1793C17.274 48.2945 17.2626 45.5123 19.0524 43.6216C19.7329 42.9037 20.4134 42.1857 21.1168 41.4856C21.3627 41.2403 21.4084 41.0548 21.254 40.7078C20.7851 39.6607 20.3619 38.5957 19.9559 37.5247C19.8416 37.2256 19.7043 37.0999 19.3898 37.0999C18.4063 37.0999 17.4227 37.076 16.4391 37.064C14.0488 37.0401 12.1732 35.1195 12.1217 32.6185C12.1103 32.0441 12.1217 31.4637 12.1217 30.8415C12.0131 30.8774 11.9445 30.8893 11.8815 30.9193C11.1324 31.2782 10.6292 31.1945 10.0574 30.5603C8.90225 29.2739 7.75285 27.9755 6.60345 26.6831C4.79643 24.6488 2.9837 22.6145 1.17096 20.5802C0.398973 19.7127 0.41041 19.0067 1.1824 18.1451C4.02445 14.962 6.85506 11.7729 9.69139 8.58388C9.85723 8.3984 10.0231 8.20694 10.2003 8.02744C10.6292 7.59066 11.1382 7.48297 11.6871 7.72828C12.2132 7.96162 12.522 8.38643 12.5334 8.99672C12.5449 10.0258 12.5563 11.055 12.5334 12.0841C12.522 12.5149 12.6764 12.6345 13.071 12.6285C14.3919 12.6106 15.7129 12.6345 17.0338 12.6106C17.2626 12.6046 17.5428 12.4849 17.7086 12.3174C19.1382 10.8396 20.5449 9.33178 21.9631 7.83597C23.8502 5.85553 26.4578 5.86151 28.3506 7.83597C28.9053 8.41635 29.4657 8.99074 30.0032 9.58308C30.1976 9.79249 30.3463 9.79249 30.5979 9.67881C31.7645 9.1463 32.9367 8.63174 34.1205 8.1471C34.4407 8.01547 34.5265 7.84794 34.5265 7.51288C34.5207 6.48377 34.4464 5.44269 34.5779 4.43152C34.881 2.09208 36.6194 0.542424 38.8953 0.512508C40.3707 0.488575 41.846 0.506524 43.3157 0.55439C45.5744 0.632172 47.3243 2.70835 47.3243 5.26917C47.3243 6.05896 47.3185 6.84276 47.29 7.63254C47.2785 7.93769 47.3815 8.0753 47.6559 8.19497C48.8454 8.70354 50.0291 9.23605 51.2071 9.78651C51.4587 9.90617 51.6131 9.90019 51.8075 9.69676C52.3622 9.09843 52.9398 8.51806 53.5059 7.93171C55.3358 6.04699 57.9319 6.04101 59.7618 7.93171C60.7111 8.91295 61.6546 9.90019 62.5867 10.9054C64.3365 12.7961 64.3194 15.5125 62.5581 17.3912C61.9462 18.0434 61.3229 18.6895 60.6939 19.3238C60.5052 19.5152 60.4652 19.6708 60.5795 19.946C61.0485 21.1128 61.4945 22.2914 61.9062 23.4821C62.0206 23.8172 62.1693 23.9189 62.4952 23.9189C63.5245 23.9189 64.5596 23.889 65.5774 23.9847C67.8133 24.1881 69.4488 26.0968 69.4831 28.4542C69.4888 29.0226 69.4831 29.585 69.4831 30.1953ZM29.8602 23.0573C29.8602 23.3325 29.8602 23.6018 29.8602 23.877C29.8602 24.1642 29.866 24.4574 29.8602 24.7446C29.8374 25.4685 29.4085 25.9891 28.7223 26.1028C28.4821 26.1446 28.2305 26.1387 27.9903 26.1387C27.2927 26.1446 27.224 26.1805 27.0296 26.8985C26.5436 28.7174 26.4521 30.5782 26.7265 32.433C27.59 38.3684 30.7466 42.437 36.099 44.5431C39.9647 46.0628 43.8017 45.5243 47.5301 43.867C49.0284 43.2028 50.4008 42.3293 51.4472 40.983C51.6131 40.7677 51.7332 40.4446 51.7389 40.1693C51.7732 38.9966 51.7503 37.8239 51.7503 36.6512C51.7503 35.4127 52.2364 34.9101 53.4315 34.9101C54.2893 34.9101 54.3064 34.9161 54.5352 34.0126C55.2328 31.2783 55.1928 28.5619 54.3293 25.8634C52.3622 19.7306 46.8382 15.5603 40.668 15.6381C38.9354 15.656 37.277 16.1527 35.6644 16.8168C33.7202 17.6185 31.9303 18.6895 30.4607 20.2811C30.0318 20.7478 29.7745 21.2384 29.8545 21.9085C29.9003 22.2795 29.8602 22.6744 29.8602 23.0573ZM29.8602 19.0964C30.9925 17.9835 32.1533 17.1519 33.4228 16.4877C36.2992 14.968 39.3128 14.0645 42.5608 14.4893C47.4901 15.1415 51.31 17.7023 53.9462 22.106C55.7475 25.1095 56.5023 28.4123 56.1192 31.9544C56.0163 32.9177 55.799 33.875 55.6274 34.8742C55.7418 34.8861 55.8733 34.9041 56.0048 34.9041C59.9334 34.9041 63.8676 34.9041 67.7962 34.916C68.1622 34.916 68.2651 34.7904 68.2651 34.4194C68.2537 32.4569 68.2651 30.5004 68.2594 28.5379C68.2537 26.6173 66.9384 25.2352 65.0914 25.2113C63.9992 25.1933 62.9127 25.1933 61.8204 25.2053C61.3344 25.2113 61.0942 25.0018 60.9226 24.5112C60.3966 22.9915 59.8304 21.4837 59.2357 19.9879C59.0584 19.5392 59.0642 19.2161 59.413 18.869C60.2136 18.0733 61.0084 17.2655 61.7747 16.4279C62.9527 15.1415 62.987 13.191 61.8433 11.9405C60.8712 10.8695 59.8819 9.81642 58.864 8.78731C57.5374 7.44108 55.6903 7.45903 54.3694 8.81124C53.6546 9.54119 52.9512 10.2831 52.2421 11.0131C51.7961 11.4738 51.6817 11.4439 51.1099 11.1806C49.6688 10.5045 48.2221 9.84634 46.7581 9.23605C46.3007 9.04459 46.0891 8.81722 46.1005 8.29668C46.1234 7.2197 46.1234 6.14272 46.112 5.06574C46.0948 3.38446 44.974 1.99635 43.3728 1.85873C41.9547 1.73907 40.5194 1.78095 39.0955 1.77497C37.0254 1.763 35.7273 3.12718 35.7273 5.28712C35.7273 6.28034 35.7159 7.27954 35.7216 8.27275C35.7216 8.73944 35.5386 9.01467 35.0983 9.1463C33.5429 9.60103 32.0561 10.2472 30.6494 11.0849C30.2205 11.3421 29.8888 11.2943 29.5457 10.9173C28.8824 10.1814 28.1962 9.4694 27.51 8.75141C26.0575 7.24364 24.2219 7.24364 22.7866 8.75141C21.6715 9.92412 20.5621 11.1028 19.4527 12.2815C19.3727 12.3653 19.3155 12.467 19.1954 12.6285C19.4299 12.6285 19.5785 12.6285 19.7272 12.6285C22.4149 12.6285 25.1025 12.6644 27.7902 12.6166C29.277 12.5867 29.9517 12.9935 29.8717 14.7885C29.8145 16.1826 29.8602 17.5767 29.8602 19.0964ZM25.9202 26.1746C25.8802 26.1686 25.8059 26.1387 25.7373 26.1387C21.7458 26.1387 17.7486 26.1387 13.7572 26.1327C13.4141 26.1327 13.3512 26.2942 13.3512 26.6054C13.3626 28.6456 13.3397 30.6859 13.3626 32.7262C13.3798 34.2459 14.512 35.6281 15.9588 35.7597C17.3026 35.8793 18.6579 35.8315 20.0074 35.8554C20.6193 35.8674 20.6936 35.9691 20.9281 36.5734C21.4656 37.9555 22.0203 39.3257 22.6093 40.6839C22.8723 41.2942 22.8781 41.4677 22.4091 41.9463C21.5457 42.8378 20.6707 43.7174 19.8244 44.6268C18.6579 45.8773 18.635 47.8697 19.7787 49.1202C20.7908 50.2211 21.8201 51.3041 22.8609 52.3691C24.056 53.5897 26.0975 53.5179 27.2698 52.2614C28.1276 51.34 29.0025 50.4425 29.8488 49.5091C30.2033 49.1202 30.5293 49.1023 30.9925 49.3177C32.2505 49.904 33.5257 50.4545 34.8124 50.981C35.4243 51.2323 35.4986 51.2802 35.4986 51.9802C35.4929 53.3324 35.4757 54.6786 35.4929 56.0309C35.51 57.76 36.8138 59.172 38.4607 59.2139C39.9018 59.2498 41.3485 59.2618 42.7896 59.2379C44.5623 59.2079 45.8489 57.8258 45.8604 55.977C45.8718 54.6427 45.8775 53.3085 45.8775 51.9742C45.8775 51.4716 46.0834 51.2144 46.5523 51.0408C47.7817 50.5861 48.994 50.0835 50.1892 49.545C51.0927 49.1382 51.0984 49.1023 51.7732 49.8263C52.6195 50.7357 53.4258 51.687 54.3122 52.5486C55.4844 53.6914 57.3887 53.7333 58.5724 52.5127C59.7732 51.2742 60.9455 49.9938 62.1235 48.7313C62.1921 48.6595 62.2322 48.5638 62.3237 48.4082C62.0663 48.4082 61.8833 48.4082 61.7004 48.4082C58.967 48.4082 56.2336 48.4082 53.5002 48.4082C53.3 48.4082 53.0999 48.4082 52.9054 48.3723C52.1964 48.2527 51.7618 47.7381 51.7446 46.9842C51.7274 46.1466 51.7389 45.3149 51.7389 44.4772C51.7389 43.8729 51.7389 43.2686 51.7389 42.5925C51.5902 42.6942 51.4987 42.7421 51.4244 42.8079C47.8332 45.8055 43.6988 47.0141 39.1927 46.5415C34.0461 46.003 30.1233 43.2447 27.4699 38.6077C25.7544 35.6041 25.114 32.3193 25.4742 28.8431C25.5714 27.9576 25.7659 27.084 25.9202 26.1746ZM11.1324 29.8842C11.1782 29.8662 11.2239 29.8542 11.2697 29.8363C11.2925 29.6568 11.3326 29.4713 11.3326 29.2918C11.3383 28.3943 11.3326 27.4909 11.3383 26.5934C11.3497 25.4027 11.8758 24.8702 13.0138 24.8702C18.0346 24.8702 23.061 24.8642 28.0818 24.8822C28.5164 24.8822 28.6651 24.7625 28.6651 24.2898C28.6479 21.041 28.6537 17.798 28.6537 14.5492C28.6537 13.9149 28.6479 13.9149 28.0361 13.9149C23.0153 13.903 17.9945 13.891 12.968 13.879C11.8301 13.879 11.3497 13.3824 11.3326 12.1798C11.3211 11.2644 11.3326 10.3489 11.3269 9.4335C11.3269 9.25998 11.2697 9.09245 11.2182 8.80526C11.0009 9.02065 10.8637 9.1463 10.7436 9.28392C7.88438 12.4909 5.03089 15.7039 2.17168 18.9109C1.74852 19.3836 1.74852 19.3896 2.1774 19.8742C5.04233 23.0992 7.90725 26.3182 10.7779 29.5431C10.8923 29.6628 11.0181 29.7705 11.1324 29.8842ZM70.3523 31.0629C70.3123 31.368 70.2665 31.5415 70.2665 31.721C70.2608 32.6185 70.278 33.522 70.2665 34.4194C70.2494 35.6819 69.7462 36.1845 68.5339 36.1845C63.5474 36.1845 58.5552 36.1845 53.5688 36.1845C52.9626 36.1845 52.9569 36.1845 52.9569 36.8247C52.9569 40.0556 52.9569 43.2806 52.9569 46.5115C52.9569 47.1398 52.9626 47.1458 53.5745 47.1458C58.5781 47.1458 63.5817 47.1458 68.591 47.1458C69.7519 47.1458 70.2494 47.6484 70.2665 48.857C70.278 49.7724 70.2608 50.6878 70.2665 51.6033C70.2665 51.7828 70.3066 51.9563 70.3409 52.2315C70.5296 52.0759 70.6497 52.0041 70.7354 51.9084C73.6633 48.6176 76.5911 45.3209 79.5246 42.0421C79.8106 41.725 79.7477 41.5335 79.4961 41.2463C76.5911 37.9974 73.6976 34.7366 70.7983 31.4817C70.6954 31.362 70.5696 31.2603 70.3523 31.0629Z"/>
</mask>
<path d="M69.4831 30.1953C70.6554 29.7226 70.9413 29.7884 71.759 30.7158C74.6354 33.9468 77.5175 37.1837 80.3938 40.4146C81.2059 41.3301 81.2001 42.0062 80.3881 42.9216C77.4775 46.1884 74.5725 49.4613 71.6618 52.7281C71.2673 53.1709 70.8498 53.5119 70.2208 53.3863C69.5117 53.2427 69.0828 52.7461 69.0714 51.9862C69.06 50.975 69.0542 49.9639 69.0714 48.9467C69.0771 48.5518 68.9513 48.4022 68.5682 48.4082C67.2186 48.4202 65.8634 48.3963 64.5138 48.4322C64.2736 48.4381 63.982 48.5937 63.8104 48.7732C62.3408 50.3049 60.9112 51.8725 59.4359 53.3982C57.8747 55.0137 55.4044 55.1274 53.7346 53.6376C52.9741 52.9615 52.2993 52.1896 51.6016 51.4417C50.8697 50.6519 50.8868 50.6639 49.9033 51.1007C49.1141 51.4537 48.3078 51.7648 47.4958 52.058C47.2042 52.1657 47.0784 52.2973 47.0841 52.6324C47.1012 53.7273 47.0898 54.8163 47.0841 55.9112C47.0784 58.5199 45.2027 60.4943 42.7209 60.5003C41.3828 60.5063 40.0504 60.4943 38.7123 60.4884C36.1619 60.4704 34.292 58.5318 34.2806 55.8573C34.2748 54.7504 34.2977 53.6376 34.3263 52.5307C34.332 52.2435 34.2348 52.1059 33.9775 52.0041C32.9482 51.5853 31.9246 51.1485 30.9124 50.6878C30.6608 50.5742 30.5064 50.5921 30.312 50.7955C29.6143 51.5434 28.8938 52.2674 28.1905 53.0033C26.2805 55.0077 23.6729 55.0137 21.7687 53.0153C20.8709 52.07 19.9731 51.1246 19.0696 50.1793C17.274 48.2945 17.2626 45.5123 19.0524 43.6216C19.7329 42.9037 20.4134 42.1857 21.1168 41.4856C21.3627 41.2403 21.4084 41.0548 21.254 40.7078C20.7851 39.6607 20.3619 38.5957 19.9559 37.5247C19.8416 37.2256 19.7043 37.0999 19.3898 37.0999C18.4063 37.0999 17.4227 37.076 16.4391 37.064C14.0488 37.0401 12.1732 35.1195 12.1217 32.6185C12.1103 32.0441 12.1217 31.4637 12.1217 30.8415C12.0131 30.8774 11.9445 30.8893 11.8815 30.9193C11.1324 31.2782 10.6292 31.1945 10.0574 30.5603C8.90225 29.2739 7.75285 27.9755 6.60345 26.6831C4.79643 24.6488 2.9837 22.6145 1.17096 20.5802C0.398973 19.7127 0.41041 19.0067 1.1824 18.1451C4.02445 14.962 6.85506 11.7729 9.69139 8.58388C9.85723 8.3984 10.0231 8.20694 10.2003 8.02744C10.6292 7.59066 11.1382 7.48297 11.6871 7.72828C12.2132 7.96162 12.522 8.38643 12.5334 8.99672C12.5449 10.0258 12.5563 11.055 12.5334 12.0841C12.522 12.5149 12.6764 12.6345 13.071 12.6285C14.3919 12.6106 15.7129 12.6345 17.0338 12.6106C17.2626 12.6046 17.5428 12.4849 17.7086 12.3174C19.1382 10.8396 20.5449 9.33178 21.9631 7.83597C23.8502 5.85553 26.4578 5.86151 28.3506 7.83597C28.9053 8.41635 29.4657 8.99074 30.0032 9.58308C30.1976 9.79249 30.3463 9.79249 30.5979 9.67881C31.7645 9.1463 32.9367 8.63174 34.1205 8.1471C34.4407 8.01547 34.5265 7.84794 34.5265 7.51288C34.5207 6.48377 34.4464 5.44269 34.5779 4.43152C34.881 2.09208 36.6194 0.542424 38.8953 0.512508C40.3707 0.488575 41.846 0.506524 43.3157 0.55439C45.5744 0.632172 47.3243 2.70835 47.3243 5.26917C47.3243 6.05896 47.3185 6.84276 47.29 7.63254C47.2785 7.93769 47.3815 8.0753 47.6559 8.19497C48.8454 8.70354 50.0291 9.23605 51.2071 9.78651C51.4587 9.90617 51.6131 9.90019 51.8075 9.69676C52.3622 9.09843 52.9398 8.51806 53.5059 7.93171C55.3358 6.04699 57.9319 6.04101 59.7618 7.93171C60.7111 8.91295 61.6546 9.90019 62.5867 10.9054C64.3365 12.7961 64.3194 15.5125 62.5581 17.3912C61.9462 18.0434 61.3229 18.6895 60.6939 19.3238C60.5052 19.5152 60.4652 19.6708 60.5795 19.946C61.0485 21.1128 61.4945 22.2914 61.9062 23.4821C62.0206 23.8172 62.1693 23.9189 62.4952 23.9189C63.5245 23.9189 64.5596 23.889 65.5774 23.9847C67.8133 24.1881 69.4488 26.0968 69.4831 28.4542C69.4888 29.0226 69.4831 29.585 69.4831 30.1953ZM29.8602 23.0573C29.8602 23.3325 29.8602 23.6018 29.8602 23.877C29.8602 24.1642 29.866 24.4574 29.8602 24.7446C29.8374 25.4685 29.4085 25.9891 28.7223 26.1028C28.4821 26.1446 28.2305 26.1387 27.9903 26.1387C27.2927 26.1446 27.224 26.1805 27.0296 26.8985C26.5436 28.7174 26.4521 30.5782 26.7265 32.433C27.59 38.3684 30.7466 42.437 36.099 44.5431C39.9647 46.0628 43.8017 45.5243 47.5301 43.867C49.0284 43.2028 50.4008 42.3293 51.4472 40.983C51.6131 40.7677 51.7332 40.4446 51.7389 40.1693C51.7732 38.9966 51.7503 37.8239 51.7503 36.6512C51.7503 35.4127 52.2364 34.9101 53.4315 34.9101C54.2893 34.9101 54.3064 34.9161 54.5352 34.0126C55.2328 31.2783 55.1928 28.5619 54.3293 25.8634C52.3622 19.7306 46.8382 15.5603 40.668 15.6381C38.9354 15.656 37.277 16.1527 35.6644 16.8168C33.7202 17.6185 31.9303 18.6895 30.4607 20.2811C30.0318 20.7478 29.7745 21.2384 29.8545 21.9085C29.9003 22.2795 29.8602 22.6744 29.8602 23.0573ZM29.8602 19.0964C30.9925 17.9835 32.1533 17.1519 33.4228 16.4877C36.2992 14.968 39.3128 14.0645 42.5608 14.4893C47.4901 15.1415 51.31 17.7023 53.9462 22.106C55.7475 25.1095 56.5023 28.4123 56.1192 31.9544C56.0163 32.9177 55.799 33.875 55.6274 34.8742C55.7418 34.8861 55.8733 34.9041 56.0048 34.9041C59.9334 34.9041 63.8676 34.9041 67.7962 34.916C68.1622 34.916 68.2651 34.7904 68.2651 34.4194C68.2537 32.4569 68.2651 30.5004 68.2594 28.5379C68.2537 26.6173 66.9384 25.2352 65.0914 25.2113C63.9992 25.1933 62.9127 25.1933 61.8204 25.2053C61.3344 25.2113 61.0942 25.0018 60.9226 24.5112C60.3966 22.9915 59.8304 21.4837 59.2357 19.9879C59.0584 19.5392 59.0642 19.2161 59.413 18.869C60.2136 18.0733 61.0084 17.2655 61.7747 16.4279C62.9527 15.1415 62.987 13.191 61.8433 11.9405C60.8712 10.8695 59.8819 9.81642 58.864 8.78731C57.5374 7.44108 55.6903 7.45903 54.3694 8.81124C53.6546 9.54119 52.9512 10.2831 52.2421 11.0131C51.7961 11.4738 51.6817 11.4439 51.1099 11.1806C49.6688 10.5045 48.2221 9.84634 46.7581 9.23605C46.3007 9.04459 46.0891 8.81722 46.1005 8.29668C46.1234 7.2197 46.1234 6.14272 46.112 5.06574C46.0948 3.38446 44.974 1.99635 43.3728 1.85873C41.9547 1.73907 40.5194 1.78095 39.0955 1.77497C37.0254 1.763 35.7273 3.12718 35.7273 5.28712C35.7273 6.28034 35.7159 7.27954 35.7216 8.27275C35.7216 8.73944 35.5386 9.01467 35.0983 9.1463C33.5429 9.60103 32.0561 10.2472 30.6494 11.0849C30.2205 11.3421 29.8888 11.2943 29.5457 10.9173C28.8824 10.1814 28.1962 9.4694 27.51 8.75141C26.0575 7.24364 24.2219 7.24364 22.7866 8.75141C21.6715 9.92412 20.5621 11.1028 19.4527 12.2815C19.3727 12.3653 19.3155 12.467 19.1954 12.6285C19.4299 12.6285 19.5785 12.6285 19.7272 12.6285C22.4149 12.6285 25.1025 12.6644 27.7902 12.6166C29.277 12.5867 29.9517 12.9935 29.8717 14.7885C29.8145 16.1826 29.8602 17.5767 29.8602 19.0964ZM25.9202 26.1746C25.8802 26.1686 25.8059 26.1387 25.7373 26.1387C21.7458 26.1387 17.7486 26.1387 13.7572 26.1327C13.4141 26.1327 13.3512 26.2942 13.3512 26.6054C13.3626 28.6456 13.3397 30.6859 13.3626 32.7262C13.3798 34.2459 14.512 35.6281 15.9588 35.7597C17.3026 35.8793 18.6579 35.8315 20.0074 35.8554C20.6193 35.8674 20.6936 35.9691 20.9281 36.5734C21.4656 37.9555 22.0203 39.3257 22.6093 40.6839C22.8723 41.2942 22.8781 41.4677 22.4091 41.9463C21.5457 42.8378 20.6707 43.7174 19.8244 44.6268C18.6579 45.8773 18.635 47.8697 19.7787 49.1202C20.7908 50.2211 21.8201 51.3041 22.8609 52.3691C24.056 53.5897 26.0975 53.5179 27.2698 52.2614C28.1276 51.34 29.0025 50.4425 29.8488 49.5091C30.2033 49.1202 30.5293 49.1023 30.9925 49.3177C32.2505 49.904 33.5257 50.4545 34.8124 50.981C35.4243 51.2323 35.4986 51.2802 35.4986 51.9802C35.4929 53.3324 35.4757 54.6786 35.4929 56.0309C35.51 57.76 36.8138 59.172 38.4607 59.2139C39.9018 59.2498 41.3485 59.2618 42.7896 59.2379C44.5623 59.2079 45.8489 57.8258 45.8604 55.977C45.8718 54.6427 45.8775 53.3085 45.8775 51.9742C45.8775 51.4716 46.0834 51.2144 46.5523 51.0408C47.7817 50.5861 48.994 50.0835 50.1892 49.545C51.0927 49.1382 51.0984 49.1023 51.7732 49.8263C52.6195 50.7357 53.4258 51.687 54.3122 52.5486C55.4844 53.6914 57.3887 53.7333 58.5724 52.5127C59.7732 51.2742 60.9455 49.9938 62.1235 48.7313C62.1921 48.6595 62.2322 48.5638 62.3237 48.4082C62.0663 48.4082 61.8833 48.4082 61.7004 48.4082C58.967 48.4082 56.2336 48.4082 53.5002 48.4082C53.3 48.4082 53.0999 48.4082 52.9054 48.3723C52.1964 48.2527 51.7618 47.7381 51.7446 46.9842C51.7274 46.1466 51.7389 45.3149 51.7389 44.4772C51.7389 43.8729 51.7389 43.2686 51.7389 42.5925C51.5902 42.6942 51.4987 42.7421 51.4244 42.8079C47.8332 45.8055 43.6988 47.0141 39.1927 46.5415C34.0461 46.003 30.1233 43.2447 27.4699 38.6077C25.7544 35.6041 25.114 32.3193 25.4742 28.8431C25.5714 27.9576 25.7659 27.084 25.9202 26.1746ZM11.1324 29.8842C11.1782 29.8662 11.2239 29.8542 11.2697 29.8363C11.2925 29.6568 11.3326 29.4713 11.3326 29.2918C11.3383 28.3943 11.3326 27.4909 11.3383 26.5934C11.3497 25.4027 11.8758 24.8702 13.0138 24.8702C18.0346 24.8702 23.061 24.8642 28.0818 24.8822C28.5164 24.8822 28.6651 24.7625 28.6651 24.2898C28.6479 21.041 28.6537 17.798 28.6537 14.5492C28.6537 13.9149 28.6479 13.9149 28.0361 13.9149C23.0153 13.903 17.9945 13.891 12.968 13.879C11.8301 13.879 11.3497 13.3824 11.3326 12.1798C11.3211 11.2644 11.3326 10.3489 11.3269 9.4335C11.3269 9.25998 11.2697 9.09245 11.2182 8.80526C11.0009 9.02065 10.8637 9.1463 10.7436 9.28392C7.88438 12.4909 5.03089 15.7039 2.17168 18.9109C1.74852 19.3836 1.74852 19.3896 2.1774 19.8742C5.04233 23.0992 7.90725 26.3182 10.7779 29.5431C10.8923 29.6628 11.0181 29.7705 11.1324 29.8842ZM70.3523 31.0629C70.3123 31.368 70.2665 31.5415 70.2665 31.721C70.2608 32.6185 70.278 33.522 70.2665 34.4194C70.2494 35.6819 69.7462 36.1845 68.5339 36.1845C63.5474 36.1845 58.5552 36.1845 53.5688 36.1845C52.9626 36.1845 52.9569 36.1845 52.9569 36.8247C52.9569 40.0556 52.9569 43.2806 52.9569 46.5115C52.9569 47.1398 52.9626 47.1458 53.5745 47.1458C58.5781 47.1458 63.5817 47.1458 68.591 47.1458C69.7519 47.1458 70.2494 47.6484 70.2665 48.857C70.278 49.7724 70.2608 50.6878 70.2665 51.6033C70.2665 51.7828 70.3066 51.9563 70.3409 52.2315C70.5296 52.0759 70.6497 52.0041 70.7354 51.9084C73.6633 48.6176 76.5911 45.3209 79.5246 42.0421C79.8106 41.725 79.7477 41.5335 79.4961 41.2463C76.5911 37.9974 73.6976 34.7366 70.7983 31.4817C70.6954 31.362 70.5696 31.2603 70.3523 31.0629Z" fill="#2776EA"/>
<path d="M69.4831 30.1953C70.6554 29.7226 70.9413 29.7884 71.759 30.7158C74.6354 33.9468 77.5175 37.1837 80.3938 40.4146C81.2059 41.3301 81.2001 42.0062 80.3881 42.9216C77.4775 46.1884 74.5725 49.4613 71.6618 52.7281C71.2673 53.1709 70.8498 53.5119 70.2208 53.3863C69.5117 53.2427 69.0828 52.7461 69.0714 51.9862C69.06 50.975 69.0542 49.9639 69.0714 48.9467C69.0771 48.5518 68.9513 48.4022 68.5682 48.4082C67.2186 48.4202 65.8634 48.3963 64.5138 48.4322C64.2736 48.4381 63.982 48.5937 63.8104 48.7732C62.3408 50.3049 60.9112 51.8725 59.4359 53.3982C57.8747 55.0137 55.4044 55.1274 53.7346 53.6376C52.9741 52.9615 52.2993 52.1896 51.6016 51.4417C50.8697 50.6519 50.8868 50.6639 49.9033 51.1007C49.1141 51.4537 48.3078 51.7648 47.4958 52.058C47.2042 52.1657 47.0784 52.2973 47.0841 52.6324C47.1012 53.7273 47.0898 54.8163 47.0841 55.9112C47.0784 58.5199 45.2027 60.4943 42.7209 60.5003C41.3828 60.5063 40.0504 60.4943 38.7123 60.4884C36.1619 60.4704 34.292 58.5318 34.2806 55.8573C34.2748 54.7504 34.2977 53.6376 34.3263 52.5307C34.332 52.2435 34.2348 52.1059 33.9775 52.0041C32.9482 51.5853 31.9246 51.1485 30.9124 50.6878C30.6608 50.5742 30.5064 50.5921 30.312 50.7955C29.6143 51.5434 28.8938 52.2674 28.1905 53.0033C26.2805 55.0077 23.6729 55.0137 21.7687 53.0153C20.8709 52.07 19.9731 51.1246 19.0696 50.1793C17.274 48.2945 17.2626 45.5123 19.0524 43.6216C19.7329 42.9037 20.4134 42.1857 21.1168 41.4856C21.3627 41.2403 21.4084 41.0548 21.254 40.7078C20.7851 39.6607 20.3619 38.5957 19.9559 37.5247C19.8416 37.2256 19.7043 37.0999 19.3898 37.0999C18.4063 37.0999 17.4227 37.076 16.4391 37.064C14.0488 37.0401 12.1732 35.1195 12.1217 32.6185C12.1103 32.0441 12.1217 31.4637 12.1217 30.8415C12.0131 30.8774 11.9445 30.8893 11.8815 30.9193C11.1324 31.2782 10.6292 31.1945 10.0574 30.5603C8.90225 29.2739 7.75285 27.9755 6.60345 26.6831C4.79643 24.6488 2.9837 22.6145 1.17096 20.5802C0.398973 19.7127 0.41041 19.0067 1.1824 18.1451C4.02445 14.962 6.85506 11.7729 9.69139 8.58388C9.85723 8.3984 10.0231 8.20694 10.2003 8.02744C10.6292 7.59066 11.1382 7.48297 11.6871 7.72828C12.2132 7.96162 12.522 8.38643 12.5334 8.99672C12.5449 10.0258 12.5563 11.055 12.5334 12.0841C12.522 12.5149 12.6764 12.6345 13.071 12.6285C14.3919 12.6106 15.7129 12.6345 17.0338 12.6106C17.2626 12.6046 17.5428 12.4849 17.7086 12.3174C19.1382 10.8396 20.5449 9.33178 21.9631 7.83597C23.8502 5.85553 26.4578 5.86151 28.3506 7.83597C28.9053 8.41635 29.4657 8.99074 30.0032 9.58308C30.1976 9.79249 30.3463 9.79249 30.5979 9.67881C31.7645 9.1463 32.9367 8.63174 34.1205 8.1471C34.4407 8.01547 34.5265 7.84794 34.5265 7.51288C34.5207 6.48377 34.4464 5.44269 34.5779 4.43152C34.881 2.09208 36.6194 0.542424 38.8953 0.512508C40.3707 0.488575 41.846 0.506524 43.3157 0.55439C45.5744 0.632172 47.3243 2.70835 47.3243 5.26917C47.3243 6.05896 47.3185 6.84276 47.29 7.63254C47.2785 7.93769 47.3815 8.0753 47.6559 8.19497C48.8454 8.70354 50.0291 9.23605 51.2071 9.78651C51.4587 9.90617 51.6131 9.90019 51.8075 9.69676C52.3622 9.09843 52.9398 8.51806 53.5059 7.93171C55.3358 6.04699 57.9319 6.04101 59.7618 7.93171C60.7111 8.91295 61.6546 9.90019 62.5867 10.9054C64.3365 12.7961 64.3194 15.5125 62.5581 17.3912C61.9462 18.0434 61.3229 18.6895 60.6939 19.3238C60.5052 19.5152 60.4652 19.6708 60.5795 19.946C61.0485 21.1128 61.4945 22.2914 61.9062 23.4821C62.0206 23.8172 62.1693 23.9189 62.4952 23.9189C63.5245 23.9189 64.5596 23.889 65.5774 23.9847C67.8133 24.1881 69.4488 26.0968 69.4831 28.4542C69.4888 29.0226 69.4831 29.585 69.4831 30.1953ZM29.8602 23.0573C29.8602 23.3325 29.8602 23.6018 29.8602 23.877C29.8602 24.1642 29.866 24.4574 29.8602 24.7446C29.8374 25.4685 29.4085 25.9891 28.7223 26.1028C28.4821 26.1446 28.2305 26.1387 27.9903 26.1387C27.2927 26.1446 27.224 26.1805 27.0296 26.8985C26.5436 28.7174 26.4521 30.5782 26.7265 32.433C27.59 38.3684 30.7466 42.437 36.099 44.5431C39.9647 46.0628 43.8017 45.5243 47.5301 43.867C49.0284 43.2028 50.4008 42.3293 51.4472 40.983C51.6131 40.7677 51.7332 40.4446 51.7389 40.1693C51.7732 38.9966 51.7503 37.8239 51.7503 36.6512C51.7503 35.4127 52.2364 34.9101 53.4315 34.9101C54.2893 34.9101 54.3064 34.9161 54.5352 34.0126C55.2328 31.2783 55.1928 28.5619 54.3293 25.8634C52.3622 19.7306 46.8382 15.5603 40.668 15.6381C38.9354 15.656 37.277 16.1527 35.6644 16.8168C33.7202 17.6185 31.9303 18.6895 30.4607 20.2811C30.0318 20.7478 29.7745 21.2384 29.8545 21.9085C29.9003 22.2795 29.8602 22.6744 29.8602 23.0573ZM29.8602 19.0964C30.9925 17.9835 32.1533 17.1519 33.4228 16.4877C36.2992 14.968 39.3128 14.0645 42.5608 14.4893C47.4901 15.1415 51.31 17.7023 53.9462 22.106C55.7475 25.1095 56.5023 28.4123 56.1192 31.9544C56.0163 32.9177 55.799 33.875 55.6274 34.8742C55.7418 34.8861 55.8733 34.9041 56.0048 34.9041C59.9334 34.9041 63.8676 34.9041 67.7962 34.916C68.1622 34.916 68.2651 34.7904 68.2651 34.4194C68.2537 32.4569 68.2651 30.5004 68.2594 28.5379C68.2537 26.6173 66.9384 25.2352 65.0914 25.2113C63.9992 25.1933 62.9127 25.1933 61.8204 25.2053C61.3344 25.2113 61.0942 25.0018 60.9226 24.5112C60.3966 22.9915 59.8304 21.4837 59.2357 19.9879C59.0584 19.5392 59.0642 19.2161 59.413 18.869C60.2136 18.0733 61.0084 17.2655 61.7747 16.4279C62.9527 15.1415 62.987 13.191 61.8433 11.9405C60.8712 10.8695 59.8819 9.81642 58.864 8.78731C57.5374 7.44108 55.6903 7.45903 54.3694 8.81124C53.6546 9.54119 52.9512 10.2831 52.2421 11.0131C51.7961 11.4738 51.6817 11.4439 51.1099 11.1806C49.6688 10.5045 48.2221 9.84634 46.7581 9.23605C46.3007 9.04459 46.0891 8.81722 46.1005 8.29668C46.1234 7.2197 46.1234 6.14272 46.112 5.06574C46.0948 3.38446 44.974 1.99635 43.3728 1.85873C41.9547 1.73907 40.5194 1.78095 39.0955 1.77497C37.0254 1.763 35.7273 3.12718 35.7273 5.28712C35.7273 6.28034 35.7159 7.27954 35.7216 8.27275C35.7216 8.73944 35.5386 9.01467 35.0983 9.1463C33.5429 9.60103 32.0561 10.2472 30.6494 11.0849C30.2205 11.3421 29.8888 11.2943 29.5457 10.9173C28.8824 10.1814 28.1962 9.4694 27.51 8.75141C26.0575 7.24364 24.2219 7.24364 22.7866 8.75141C21.6715 9.92412 20.5621 11.1028 19.4527 12.2815C19.3727 12.3653 19.3155 12.467 19.1954 12.6285C19.4299 12.6285 19.5785 12.6285 19.7272 12.6285C22.4149 12.6285 25.1025 12.6644 27.7902 12.6166C29.277 12.5867 29.9517 12.9935 29.8717 14.7885C29.8145 16.1826 29.8602 17.5767 29.8602 19.0964ZM25.9202 26.1746C25.8802 26.1686 25.8059 26.1387 25.7373 26.1387C21.7458 26.1387 17.7486 26.1387 13.7572 26.1327C13.4141 26.1327 13.3512 26.2942 13.3512 26.6054C13.3626 28.6456 13.3397 30.6859 13.3626 32.7262C13.3798 34.2459 14.512 35.6281 15.9588 35.7597C17.3026 35.8793 18.6579 35.8315 20.0074 35.8554C20.6193 35.8674 20.6936 35.9691 20.9281 36.5734C21.4656 37.9555 22.0203 39.3257 22.6093 40.6839C22.8723 41.2942 22.8781 41.4677 22.4091 41.9463C21.5457 42.8378 20.6707 43.7174 19.8244 44.6268C18.6579 45.8773 18.635 47.8697 19.7787 49.1202C20.7908 50.2211 21.8201 51.3041 22.8609 52.3691C24.056 53.5897 26.0975 53.5179 27.2698 52.2614C28.1276 51.34 29.0025 50.4425 29.8488 49.5091C30.2033 49.1202 30.5293 49.1023 30.9925 49.3177C32.2505 49.904 33.5257 50.4545 34.8124 50.981C35.4243 51.2323 35.4986 51.2802 35.4986 51.9802C35.4929 53.3324 35.4757 54.6786 35.4929 56.0309C35.51 57.76 36.8138 59.172 38.4607 59.2139C39.9018 59.2498 41.3485 59.2618 42.7896 59.2379C44.5623 59.2079 45.8489 57.8258 45.8604 55.977C45.8718 54.6427 45.8775 53.3085 45.8775 51.9742C45.8775 51.4716 46.0834 51.2144 46.5523 51.0408C47.7817 50.5861 48.994 50.0835 50.1892 49.545C51.0927 49.1382 51.0984 49.1023 51.7732 49.8263C52.6195 50.7357 53.4258 51.687 54.3122 52.5486C55.4844 53.6914 57.3887 53.7333 58.5724 52.5127C59.7732 51.2742 60.9455 49.9938 62.1235 48.7313C62.1921 48.6595 62.2322 48.5638 62.3237 48.4082C62.0663 48.4082 61.8833 48.4082 61.7004 48.4082C58.967 48.4082 56.2336 48.4082 53.5002 48.4082C53.3 48.4082 53.0999 48.4082 52.9054 48.3723C52.1964 48.2527 51.7618 47.7381 51.7446 46.9842C51.7274 46.1466 51.7389 45.3149 51.7389 44.4772C51.7389 43.8729 51.7389 43.2686 51.7389 42.5925C51.5902 42.6942 51.4987 42.7421 51.4244 42.8079C47.8332 45.8055 43.6988 47.0141 39.1927 46.5415C34.0461 46.003 30.1233 43.2447 27.4699 38.6077C25.7544 35.6041 25.114 32.3193 25.4742 28.8431C25.5714 27.9576 25.7659 27.084 25.9202 26.1746ZM11.1324 29.8842C11.1782 29.8662 11.2239 29.8542 11.2697 29.8363C11.2925 29.6568 11.3326 29.4713 11.3326 29.2918C11.3383 28.3943 11.3326 27.4909 11.3383 26.5934C11.3497 25.4027 11.8758 24.8702 13.0138 24.8702C18.0346 24.8702 23.061 24.8642 28.0818 24.8822C28.5164 24.8822 28.6651 24.7625 28.6651 24.2898C28.6479 21.041 28.6537 17.798 28.6537 14.5492C28.6537 13.9149 28.6479 13.9149 28.0361 13.9149C23.0153 13.903 17.9945 13.891 12.968 13.879C11.8301 13.879 11.3497 13.3824 11.3326 12.1798C11.3211 11.2644 11.3326 10.3489 11.3269 9.4335C11.3269 9.25998 11.2697 9.09245 11.2182 8.80526C11.0009 9.02065 10.8637 9.1463 10.7436 9.28392C7.88438 12.4909 5.03089 15.7039 2.17168 18.9109C1.74852 19.3836 1.74852 19.3896 2.1774 19.8742C5.04233 23.0992 7.90725 26.3182 10.7779 29.5431C10.8923 29.6628 11.0181 29.7705 11.1324 29.8842ZM70.3523 31.0629C70.3123 31.368 70.2665 31.5415 70.2665 31.721C70.2608 32.6185 70.278 33.522 70.2665 34.4194C70.2494 35.6819 69.7462 36.1845 68.5339 36.1845C63.5474 36.1845 58.5552 36.1845 53.5688 36.1845C52.9626 36.1845 52.9569 36.1845 52.9569 36.8247C52.9569 40.0556 52.9569 43.2806 52.9569 46.5115C52.9569 47.1398 52.9626 47.1458 53.5745 47.1458C58.5781 47.1458 63.5817 47.1458 68.591 47.1458C69.7519 47.1458 70.2494 47.6484 70.2665 48.857C70.278 49.7724 70.2608 50.6878 70.2665 51.6033C70.2665 51.7828 70.3066 51.9563 70.3409 52.2315C70.5296 52.0759 70.6497 52.0041 70.7354 51.9084C73.6633 48.6176 76.5911 45.3209 79.5246 42.0421C79.8106 41.725 79.7477 41.5335 79.4961 41.2463C76.5911 37.9974 73.6976 34.7366 70.7983 31.4817C70.6954 31.362 70.5696 31.2603 70.3523 31.0629Z" stroke="#2776EA" stroke-width="0.6" mask="url(#path-1-outside-1_69_546474)"/>
<path d="M46.7954 34.1572L46.7954 34.1572L46.7986 34.1554C46.8583 34.1213 46.9052 34.0671 46.9396 34.0166C46.9758 33.9636 47.0068 33.9024 47.0307 33.8406C47.0545 33.7789 47.0729 33.7124 47.0812 33.6482C47.0891 33.5874 47.09 33.5144 47.0654 33.4476C46.9746 33.1908 46.7644 32.921 46.523 32.7874C44.9838 31.9133 43.4333 31.0633 41.8834 30.2255C41.7425 30.149 41.6609 30.0758 41.6112 29.9912C41.5612 29.9062 41.5333 29.7925 41.5332 29.6159C41.5455 27.4487 41.5431 25.2813 41.5408 23.1144C41.5399 22.2478 41.5389 21.3814 41.5389 20.515C41.5389 20.2335 41.4866 19.9941 41.3669 19.8192C41.2421 19.6371 41.0551 19.5412 40.8288 19.5335C40.5907 19.5226 40.389 19.6147 40.2526 19.7991C40.1213 19.9766 40.0609 20.2251 40.0609 20.515V20.5245V20.534V20.5435V20.553V20.5625V20.572V20.5815V20.591V20.6005V20.61V20.6195V20.629V20.6385V20.648V20.6575V20.667V20.6765V20.686V20.6955V20.705V20.7145V20.7241V20.7336V20.7431V20.7526V20.7621V20.7716V20.7811V20.7906V20.8001V20.8096V20.8191V20.8286V20.8381V20.8476V20.8571V20.8666V20.8761V20.8856V20.8951V20.9046V20.9141V20.9236V20.9331V20.9426V20.9521V20.9616V20.9711V20.9806V20.9901V20.9996V21.0091V21.0186V21.0281V21.0376V21.0471V21.0566V21.0661V21.0756V21.0851V21.0946V21.1041V21.1136V21.1231V21.1326V21.1421V21.1516V21.1611V21.1706V21.1801V21.1896V21.1991V21.2086V21.2181V21.2276V21.2371V21.2466V21.2561V21.2656V21.2751V21.2846V21.2941V21.3036V21.3131V21.3226V21.3321V21.3416V21.3511V21.3606V21.3701V21.3796V21.3891V21.3986V21.4081V21.4176V21.4271V21.4366V21.4461V21.4556V21.4651V21.4746V21.4841V21.4936V21.5031V21.5126V21.5221V21.5316V21.5411V21.5506V21.5601V21.5696V21.5791V21.5886V21.5981V21.6076V21.6171V21.6266V21.6361V21.6456V21.6551V21.6646V21.6741V21.6836V21.6931V21.7026V21.7121V21.7216V21.7311V21.7406V21.7501V21.7596V21.7691V21.7786V21.7881V21.7976V21.8071V21.8166V21.8261V21.8356V21.8451V21.8546V21.8641V21.8736V21.8831V21.8926V21.9021V21.9116V21.9211V21.9306V21.9401V21.9496V21.9591V21.9686V21.9781V21.9876V21.9971V22.0066V22.0161V22.0256V22.0351V22.0446V22.0541V22.0637V22.0732V22.0827V22.0922V22.1017V22.1112V22.1207V22.1302V22.1397V22.1492V22.1587V22.1682V22.1777V22.1872V22.1967V22.2062V22.2157V22.2252V22.2347V22.2442V22.2537V22.2632V22.2727V22.2822V22.2917V22.3012V22.3107V22.3202V22.3297V22.3392V22.3487V22.3582V22.3677V22.3772V22.3867V22.3962V22.4057V22.4152V22.4247V22.4342V22.4437V22.4532V22.4627V22.4722V22.4817V22.4912V22.5007V22.5102V22.5197V22.5292V22.5387V22.5482V22.5577V22.5672V22.5767V22.5862V22.5957V22.6052V22.6147V22.6242V22.6337V22.6432V22.6527V22.6622V22.6717V22.6812V22.6907V22.7002V22.7097V22.7192V22.7287V22.7382V22.7477V22.7572V22.7667V22.7762V22.7857V22.7952V22.8047V22.8142V22.8237V22.8332V22.8427V22.8522V22.8617V22.8712V22.8807V22.8902V22.8997V22.9092V22.9187V22.9282V22.9377V22.9472V22.9567V22.9662V22.9757V22.9852V22.9947V23.0042V23.0137V23.0232V23.0327V23.0422V23.0517V23.0612V23.0707V23.0802V23.0897V23.0992V23.1087V23.1182V23.1277V23.1372V23.1467V23.1562V23.1657V23.1752V23.1847V23.1942V23.2037V23.2132V23.2227V23.2322V23.2417V23.2512V23.2607V23.2702V23.2797V23.2892V23.2987V23.3082V23.3177V23.3272V23.3367V23.3462V23.3557V23.3652V23.3747V23.3842V23.3937V23.4033V23.4128V23.4223V23.4318V23.4413V23.4508V23.4603V23.4698V23.4793V23.4888V23.4983V23.5078V23.5173V23.5268V23.5363V23.5458V23.5553V23.5648V23.5743V23.5838V23.5933V23.6028V23.6123V23.6218V23.6313V23.6408V23.6503V23.6598V23.6693V23.6788V23.6883V23.6978V23.7073V23.7168V23.7263V23.7358V23.7453V23.7548V23.7643V23.7738V23.7833V23.7928V23.8023V23.8118V23.8213V23.8308V23.8403V23.8498V23.8593V23.8688V23.8783V23.8878V23.8973V23.9068V23.9163V23.9258V23.9353V23.9448V23.9543V23.9638V23.9733V23.9828V23.9923V24.0018V24.0113V24.0208V24.0303V24.0398V24.0493V24.0588V24.0683V24.0778V24.0873V24.0968V24.1063V24.1158V24.1253V24.1348V24.1443V24.1538V24.1633V24.1728V24.1823V24.1918V24.2013V24.2108V24.2203V24.2298V24.2393V24.2488V24.2583V24.2678V24.2773V24.2868V24.2963V24.3058V24.3153V24.3248V24.3343V24.3438V24.3533V24.3628V24.3723V24.3818V24.3913V24.4008V24.4103V24.4198V24.4293V24.4388V24.4483V24.4578V24.4673V24.4768V24.4863V24.4958V24.5053V24.5148V24.5243V24.5338V24.5433V24.5528V24.5623V24.5718V24.5813V24.5908V24.6003V24.6098V24.6193V24.6288V24.6383V24.6478V24.6573V24.6668V24.6763V24.6858V24.6953V24.7048V24.7143V24.7238V24.7333V24.7429V24.7524V24.7619V24.7714V24.7809V24.7904V24.7999V24.8094V24.8189V24.8284V24.8379V24.8474V24.8569V24.8664V24.8759V24.8854V24.8949V24.9044V24.9139V24.9234V24.9329V24.9424V24.9519V24.9614V24.9709V24.9804V24.9899V24.9994V25.0089V25.0184V25.0279V25.0374V25.0469V25.0564V25.0659V25.0754V25.0849V25.0944V25.1039V25.1134V25.1229V25.1324V25.1419V25.1514V25.1609V25.1704V25.1799V25.1894V25.1989V25.2084V25.2179V25.2274V25.2369V25.2464V25.2559V25.2654V25.2749V25.2844V25.2939V25.3034V25.3129V25.3224V25.3319V25.3414V25.3509V25.3604V25.3699V25.3794C40.0609 25.8615 40.0625 26.3431 40.064 26.8245C40.0676 27.9463 40.0712 29.0667 40.0552 30.1878L40.0552 30.1882C40.0522 30.4522 40.093 30.68 40.2031 30.876C40.3139 31.073 40.4862 31.2226 40.7182 31.3456L40.7187 31.3458C41.5519 31.7838 42.3732 32.2412 43.1968 32.6999C43.5642 32.9045 43.932 33.1094 44.3016 33.3129L44.3016 33.3129C44.4488 33.3939 44.5966 33.4779 44.7456 33.5625C45.1487 33.7915 45.5599 34.025 45.9868 34.2153C46.1139 34.2752 46.2647 34.2866 46.4015 34.2732C46.5406 34.2595 46.6816 34.2185 46.7954 34.1572Z" fill="#2776EA" stroke="#2776EA" stroke-width="0.3"/>
</svg>
