<svg width="146" height="34" viewBox="0 0 146 34" fill="none" xmlns="http://www.w3.org/2000/svg">
<g filter="url(#filter0_i_811_920912)">
<path d="M24 28V20H0V28H24Z" fill="#117FFF"/>
<path d="M12 18C5.37258 18 0 12.6274 0 6H24C24 12.6274 18.6274 18 12 18Z" fill="#23F8C5"/>
</g>
<path d="M45.8606 6.63632H50.7725V19.7713C50.7725 21.2893 50.4113 22.6117 49.6887 23.7386C48.9662 24.8589 47.9586 25.7273 46.666 26.3438C45.3734 26.9536 43.872 27.2585 42.1617 27.2585C40.4316 27.2585 38.9203 26.9536 37.6276 26.3438C36.335 25.7273 35.3308 24.8589 34.6149 23.7386C33.8989 22.6117 33.541 21.2893 33.541 19.7713V6.63632H38.4629V19.3438C38.4629 20.0464 38.6153 20.6728 38.9203 21.223C39.2318 21.7732 39.666 22.2041 40.2228 22.5156C40.7796 22.8272 41.4259 22.983 42.1617 22.983C42.8975 22.983 43.5405 22.8272 44.0907 22.5156C44.6475 22.2041 45.0817 21.7732 45.3933 21.223C45.7048 20.6728 45.8606 20.0464 45.8606 19.3438V6.63632ZM53.8574 27V6.63632H62.2693C63.794 6.63632 65.1098 6.93462 66.2168 7.53121C67.3304 8.12117 68.1888 8.94645 68.7921 10.0071C69.3953 11.0611 69.6969 12.2874 69.6969 13.6861C69.6969 15.0914 69.3886 16.321 68.7722 17.375C68.1623 18.4223 67.2906 19.2344 66.1571 19.8111C65.0236 20.3878 63.6779 20.6761 62.1202 20.6761H56.9298V16.7983H61.2054C61.9478 16.7983 62.5676 16.669 63.0648 16.4105C63.5686 16.152 63.9497 15.7907 64.2083 15.3267C64.4668 14.8561 64.596 14.3092 64.596 13.6861C64.596 13.0563 64.4668 12.5128 64.2083 12.0554C63.9497 11.5914 63.5686 11.2334 63.0648 10.9815C62.561 10.7296 61.9412 10.6037 61.2054 10.6037H58.7793V27H53.8574ZM83.1301 12.7415C83.0638 12.0123 82.7689 11.4455 82.2452 11.0412C81.7281 10.6302 80.989 10.4247 80.0279 10.4247C79.3915 10.4247 78.8612 10.5076 78.4369 10.6733C78.0127 10.839 77.6945 11.0677 77.4824 11.3594C77.2703 11.6444 77.1609 11.9725 77.1543 12.3438C77.141 12.6487 77.2007 12.9171 77.3333 13.1491C77.4725 13.3812 77.6713 13.5866 77.9298 13.7656C78.195 13.938 78.5132 14.0904 78.8844 14.223C79.2556 14.3556 79.6732 14.4716 80.1372 14.571L81.8872 14.9688C82.8948 15.1875 83.7831 15.4792 84.552 15.8438C85.3276 16.2083 85.9772 16.6425 86.5009 17.1463C87.0312 17.6501 87.4322 18.2301 87.704 18.8864C87.9758 19.5426 88.115 20.2784 88.1216 21.0938C88.115 22.3797 87.7902 23.4834 87.1472 24.4048C86.5042 25.3262 85.5795 26.0322 84.373 26.5227C83.1732 27.0133 81.7248 27.2585 80.0279 27.2585C78.3243 27.2585 76.8394 27.0033 75.5733 26.4929C74.3072 25.9825 73.3228 25.2069 72.6202 24.1662C71.9175 23.1255 71.5563 21.8097 71.5364 20.2188H76.2494C76.2892 20.875 76.4649 21.4219 76.7764 21.8594C77.088 22.2969 77.5155 22.6283 78.0591 22.8537C78.6093 23.0791 79.2457 23.1918 79.9682 23.1918C80.6311 23.1918 81.1945 23.1023 81.6585 22.9233C82.1292 22.7443 82.4904 22.4957 82.7423 22.1776C82.9942 21.8594 83.1235 21.4948 83.1301 21.0838C83.1235 20.6993 83.0042 20.3712 82.7722 20.0994C82.5402 19.821 82.1822 19.5824 81.6983 19.3835C81.221 19.178 80.6112 18.9891 79.8688 18.8168L77.7409 18.3196C75.9777 17.9152 74.5889 17.2623 73.5747 16.3608C72.5605 15.4527 72.0567 14.2263 72.0634 12.6818C72.0567 11.4223 72.3948 10.3187 73.0776 9.3707C73.7603 8.42278 74.7049 7.68367 75.9114 7.15337C77.1178 6.62307 78.4933 6.35791 80.0378 6.35791C81.6154 6.35791 82.9843 6.62638 84.1443 7.16331C85.311 7.69361 86.2158 8.43935 86.8588 9.40053C87.5018 10.3617 87.8299 11.4754 87.8432 12.7415H83.1301ZM102.927 6.63632H107.839V19.7713C107.839 21.2893 107.478 22.6117 106.755 23.7386C106.033 24.8589 105.025 25.7273 103.733 26.3438C102.44 26.9536 100.939 27.2585 99.2281 27.2585C97.498 27.2585 95.9867 26.9536 94.694 26.3438C93.4014 25.7273 92.3972 24.8589 91.6813 23.7386C90.9654 22.6117 90.6074 21.2893 90.6074 19.7713V6.63632H95.5293V19.3438C95.5293 20.0464 95.6817 20.6728 95.9867 21.223C96.2982 21.7732 96.7324 22.2041 97.2892 22.5156C97.846 22.8272 98.4923 22.983 99.2281 22.983C99.9639 22.983 100.607 22.8272 101.157 22.5156C101.714 22.2041 102.148 21.7732 102.46 21.223C102.771 20.6728 102.927 20.0464 102.927 19.3438V6.63632ZM110.924 27V6.63632H119.336C120.861 6.63632 122.176 6.91142 123.283 7.46161C124.397 8.00517 125.255 8.78736 125.859 9.8082C126.462 10.8224 126.763 12.0256 126.763 13.4176C126.763 14.8295 126.455 16.0294 125.839 17.017C125.222 17.9981 124.347 18.7472 123.214 19.2642C122.08 19.7746 120.738 20.0298 119.187 20.0298H113.867V16.152H118.272C119.014 16.152 119.634 16.0559 120.131 15.8636C120.635 15.6648 121.016 15.3665 121.275 14.9688C121.533 14.5644 121.663 14.0473 121.663 13.4176C121.663 12.7879 121.533 12.2675 121.275 11.8565C121.016 11.4389 120.635 11.1274 120.131 10.9219C119.628 10.7098 119.008 10.6037 118.272 10.6037H115.846V27H110.924ZM122.388 17.6932L127.46 27H122.09L117.119 17.6932H122.388ZM129.463 27V6.63632H143.662V10.6335H134.385V14.8097H142.936V18.8168H134.385V23.0028H143.662V27H129.463Z" fill="#041189"/>
<defs>
<filter id="filter0_i_811_920912" x="0" y="6" width="24" height="26" filterUnits="userSpaceOnUse" color-interpolation-filters="sRGB">
<feFlood flood-opacity="0" result="BackgroundImageFix"/>
<feBlend mode="normal" in="SourceGraphic" in2="BackgroundImageFix" result="shape"/>
<feColorMatrix in="SourceAlpha" type="matrix" values="0 0 0 0 0 0 0 0 0 0 0 0 0 0 0 0 0 0 127 0" result="hardAlpha"/>
<feOffset dy="4"/>
<feGaussianBlur stdDeviation="2"/>
<feComposite in2="hardAlpha" operator="arithmetic" k2="-1" k3="1"/>
<feColorMatrix type="matrix" values="0 0 0 0 0 0 0 0 0 0 0 0 0 0 0 0 0 0 0.25 0"/>
<feBlend mode="normal" in2="shape" result="effect1_innerShadow_811_920912"/>
</filter>
</defs>
</svg>
