<svg width="131" height="30" viewBox="0 0 131 30" fill="none" xmlns="http://www.w3.org/2000/svg">
<g filter="url(#filter0_i_1308_341408)">
<path d="M21.5352 24.706V17.6472H0.000909805V24.706H21.5352Z" fill="#117FFF"/>
<path d="M10.7671 15.8824C4.8206 15.8824 0 11.1419 0 5.29419H21.5342C21.5342 11.1419 16.7136 15.8824 10.7671 15.8824Z" fill="#23F8C5"/>
</g>
<path d="M41.1496 5.85552H45.5568V17.4452C45.5568 18.7846 45.2328 19.9514 44.5844 20.9457C43.9361 21.9342 43.032 22.7005 41.8722 23.2444C40.7124 23.7825 39.3653 24.0515 37.8307 24.0515C36.2784 24.0515 34.9223 23.7825 33.7624 23.2444C32.6026 22.7005 31.7016 21.9342 31.0593 20.9457C30.4168 19.9514 30.0957 18.7846 30.0957 17.4452V5.85552H34.5119V17.068C34.5119 17.6879 34.6487 18.2406 34.9223 18.7261C35.2018 19.2116 35.5914 19.5918 36.091 19.8666C36.5906 20.1416 37.1705 20.279 37.8307 20.279C38.4909 20.279 39.0679 20.1416 39.5615 19.8666C40.0611 19.5918 40.4507 19.2116 40.7303 18.7261C41.0098 18.2406 41.1496 17.6879 41.1496 17.068V5.85552ZM48.3248 23.8234V5.85552H55.8725C57.2405 5.85552 58.4211 6.11872 59.4144 6.64513C60.4136 7.16568 61.1838 7.89387 61.7251 8.8297C62.2663 9.7597 62.537 10.8417 62.537 12.0759C62.537 13.3158 62.2603 14.4008 61.7073 15.3308C61.16 16.2549 60.3779 16.9714 59.3608 17.4803C58.3438 17.9891 57.1363 18.2435 55.7387 18.2435H51.0815V14.8219H54.9179C55.584 14.8219 56.1401 14.7078 56.5862 14.4798C57.0383 14.2517 57.3802 13.9329 57.6123 13.5235C57.8442 13.1082 57.9601 12.6257 57.9601 12.0759C57.9601 11.5202 57.8442 11.0406 57.6123 10.637C57.3802 10.2276 57.0383 9.91173 56.5862 9.68947C56.1342 9.4672 55.5781 9.35611 54.9179 9.35611H52.741V23.8234H48.3248ZM74.59 11.2424C74.5305 10.599 74.2659 10.0989 73.796 9.74214C73.3321 9.37949 72.6689 9.19817 71.8065 9.19817C71.2355 9.19817 70.7597 9.27132 70.379 9.41752C69.9984 9.56373 69.7129 9.76552 69.5226 10.0229C69.3323 10.2744 69.2341 10.5639 69.2282 10.8915C69.2163 11.1605 69.2698 11.3973 69.3888 11.6021C69.5137 11.8068 69.6921 11.9881 69.924 12.146C70.162 12.2981 70.4475 12.4326 70.7805 12.5496C71.1136 12.6666 71.4883 12.769 71.9046 12.8567L73.4748 13.2077C74.3789 13.4006 75.1759 13.658 75.8658 13.9797C76.5618 14.3013 77.1446 14.6845 77.6145 15.129C78.0903 15.5735 78.4501 16.0853 78.694 16.6644C78.9379 17.2434 79.0628 17.8926 79.0687 18.6121C79.0628 19.7467 78.7714 20.7206 78.1944 21.5336C77.6175 22.3466 76.7878 22.9695 75.7052 23.4023C74.6287 23.8352 73.3291 24.0515 71.8065 24.0515C70.278 24.0515 68.9456 23.8263 67.8096 23.376C66.6736 22.9256 65.7903 22.2413 65.1599 21.323C64.5294 20.4048 64.2053 19.2438 64.1875 17.84H68.4163C68.452 18.419 68.6096 18.9016 68.8891 19.2876C69.1687 19.6736 69.5523 19.9661 70.04 20.1649C70.5337 20.3638 71.1047 20.4633 71.753 20.4633C72.3478 20.4633 72.8533 20.3843 73.2696 20.2263C73.692 20.0684 74.0161 19.8491 74.2421 19.5684C74.4681 19.2876 74.5841 18.9659 74.59 18.6033C74.5841 18.264 74.4771 17.9745 74.2689 17.7347C74.0607 17.489 73.7395 17.2785 73.3053 17.103C72.8771 16.9217 72.3299 16.755 71.6638 16.603L69.7545 16.1643C68.1725 15.8074 66.9263 15.2313 66.0163 14.4359C65.1063 13.6346 64.6543 12.5525 64.6603 11.1897C64.6543 10.0784 64.9577 9.10464 65.5703 8.26821C66.1829 7.43181 67.0304 6.77965 68.113 6.31174C69.1954 5.84383 70.4296 5.60986 71.8154 5.60986C73.231 5.60986 74.4592 5.84675 75.5 6.32051C76.5469 6.78842 77.3587 7.44643 77.9356 8.29453C78.5126 9.14258 78.807 10.1253 78.8189 11.2424H74.59ZM92.3528 5.85552H96.7602V17.4452C96.7602 18.7846 96.4363 19.9514 95.7875 20.9457C95.1397 21.9342 94.2353 22.7005 93.076 23.2444C91.9159 23.7825 90.5691 24.0515 89.0341 24.0515C87.4818 24.0515 86.1257 23.7825 84.9659 23.2444C83.8061 22.7005 82.905 21.9342 82.2627 20.9457C81.6203 19.9514 81.2991 18.7846 81.2991 17.4452V5.85552H85.7153V17.068C85.7153 17.6879 85.8521 18.2406 86.1257 18.7261C86.4052 19.2116 86.7948 19.5918 87.2944 19.8666C87.794 20.1416 88.3739 20.279 89.0341 20.279C89.6943 20.279 90.2712 20.1416 90.7647 19.8666C91.2644 19.5918 91.6539 19.2116 91.9338 18.7261C92.2129 18.2406 92.3528 17.6879 92.3528 17.068V5.85552ZM99.5282 23.8234V5.85552H107.076C108.444 5.85552 109.624 6.09825 110.617 6.58372C111.617 7.06333 112.387 7.7535 112.929 8.65424C113.47 9.54908 113.74 10.6107 113.74 11.839C113.74 13.0848 113.464 14.1435 112.911 15.0149C112.357 15.8806 111.572 16.5416 110.556 16.9977C109.538 17.4481 108.334 17.6733 106.942 17.6733H102.169V14.2517H106.121C106.787 14.2517 107.343 14.1669 107.789 13.9972C108.242 13.8218 108.583 13.5586 108.816 13.2077C109.047 12.8508 109.164 12.3946 109.164 11.839C109.164 11.2833 109.047 10.8242 108.816 10.4615C108.583 10.0931 108.242 9.8182 107.789 9.63688C107.338 9.44973 106.782 9.35611 106.121 9.35611H103.945V23.8234H99.5282ZM109.814 15.6116L114.365 23.8234H109.547L105.087 15.6116H109.814ZM116.163 23.8234V5.85552H128.903V9.38241H120.579V13.0673H128.251V16.603H120.579V20.2965H128.903V23.8234H116.163Z" fill="#041189"/>
<defs>
<filter id="filter0_i_1308_341408" x="0" y="5.29419" width="21.5352" height="23.4119" filterUnits="userSpaceOnUse" color-interpolation-filters="sRGB">
<feFlood flood-opacity="0" result="BackgroundImageFix"/>
<feBlend mode="normal" in="SourceGraphic" in2="BackgroundImageFix" result="shape"/>
<feColorMatrix in="SourceAlpha" type="matrix" values="0 0 0 0 0 0 0 0 0 0 0 0 0 0 0 0 0 0 127 0" result="hardAlpha"/>
<feOffset dy="4"/>
<feGaussianBlur stdDeviation="2"/>
<feComposite in2="hardAlpha" operator="arithmetic" k2="-1" k3="1"/>
<feColorMatrix type="matrix" values="0 0 0 0 0 0 0 0 0 0 0 0 0 0 0 0 0 0 0.25 0"/>
<feBlend mode="normal" in2="shape" result="effect1_innerShadow_1308_341408"/>
</filter>
</defs>
</svg>
