<svg width="129" height="20" viewBox="0 0 129 20" fill="none" xmlns="http://www.w3.org/2000/svg">
<g filter="url(#filter0_i_733_94670)">
<path d="M21.5342 19.4119V12.353L-6.67572e-05 12.353V19.4119H21.5342Z" fill="#7A7A7A"/>
<path d="M10.7671 10.5882C4.8206 10.5882 0 5.84771 0 0H21.5342C21.5342 5.84771 16.7136 10.5882 10.7671 10.5882Z" fill="#7A7A7A"/>
</g>
<path d="M41.1491 0.561574H45.5564V12.1512C45.5564 13.4906 45.2323 14.6575 44.5839 15.6518C43.9356 16.6403 43.0316 17.4065 41.8718 17.9505C40.712 18.4885 39.3648 18.7576 37.8302 18.7576C36.2779 18.7576 34.9218 18.4885 33.762 17.9505C32.6022 17.4065 31.7011 16.6403 31.0588 15.6518C30.4163 14.6575 30.0952 13.4906 30.0952 12.1512V0.561574H34.5114V11.774C34.5114 12.394 34.6482 12.9467 34.9218 13.4321C35.2013 13.9176 35.5909 14.2978 36.0905 14.5727C36.5901 14.8476 37.17 14.9851 37.8302 14.9851C38.4904 14.9851 39.0674 14.8476 39.561 14.5727C40.0606 14.2978 40.4502 13.9176 40.7298 13.4321C41.0093 12.9467 41.1491 12.394 41.1491 11.774V0.561574ZM48.3243 18.5295V0.561574H55.872C57.24 0.561574 58.4206 0.82478 59.4139 1.35118C60.4131 1.87174 61.1833 2.59992 61.7246 3.53576C62.2659 4.46576 62.5365 5.54779 62.5365 6.78193C62.5365 8.0219 62.2598 9.10684 61.7068 10.0368C61.1595 10.9609 60.3774 11.6775 59.3603 12.1863C58.3433 12.6952 57.1359 12.9496 55.7382 12.9496H51.0811V9.52799H54.9174C55.5835 9.52799 56.1396 9.4139 56.5857 9.18581C57.0378 8.95773 57.3797 8.63893 57.6118 8.22952C57.8437 7.81429 57.9596 7.33173 57.9596 6.78193C57.9596 6.22623 57.8437 5.74667 57.6118 5.34308C57.3797 4.93367 57.0378 4.61778 56.5857 4.39552C56.1337 4.17326 55.5776 4.06217 54.9174 4.06217H52.7405V18.5295H48.3243ZM74.5895 5.94846C74.5301 5.30505 74.2655 4.80493 73.7956 4.4482C73.3316 4.08555 72.6684 3.90423 71.8061 3.90423C71.235 3.90423 70.7592 3.97737 70.3785 4.12358C69.9979 4.26978 69.7124 4.47158 69.5221 4.72896C69.3318 4.98043 69.2336 5.26993 69.2277 5.59755C69.2158 5.86658 69.2693 6.1034 69.3883 6.30811C69.5132 6.5129 69.6916 6.69414 69.9235 6.85208C70.1615 7.0042 70.447 7.13867 70.78 7.25567C71.1131 7.37267 71.4878 7.47502 71.9041 7.56273L73.4743 7.91373C74.3784 8.1067 75.1755 8.36408 75.8654 8.68578C76.5613 9.0074 77.1441 9.39052 77.614 9.83505C78.0898 10.2796 78.4496 10.7913 78.6935 11.3704C78.9374 11.9494 79.0623 12.5987 79.0682 13.3181C79.0623 14.4528 78.7709 15.4266 78.1939 16.2396C77.617 17.0526 76.7873 17.6755 75.7048 18.1083C74.6282 18.5412 73.3286 18.7576 71.8061 18.7576C70.2775 18.7576 68.9452 18.5324 67.8091 18.0821C66.6731 17.6317 65.7898 16.9473 65.1594 16.0291C64.5289 15.1108 64.2048 13.9498 64.187 12.5461H68.4158C68.4515 13.1251 68.6091 13.6076 68.8886 13.9937C69.1682 14.3797 69.5518 14.6721 70.0395 14.871C70.5332 15.0699 71.1042 15.1693 71.7525 15.1693C72.3473 15.1693 72.8528 15.0903 73.2691 14.9324C73.6915 14.7745 74.0156 14.5551 74.2416 14.2744C74.4676 13.9937 74.5836 13.672 74.5895 13.3093C74.5836 12.97 74.4766 12.6805 74.2684 12.4407C74.0602 12.1951 73.739 11.9845 73.3048 11.809C72.8766 11.6277 72.3294 11.461 71.6633 11.309L69.754 10.8703C68.172 10.5135 66.9259 9.9374 66.0159 9.14196C65.1059 8.3407 64.6538 7.25858 64.6598 5.89578C64.6538 4.78446 64.9572 3.8107 65.5698 2.97426C66.1824 2.13786 67.0299 1.48571 68.1125 1.01779C69.1949 0.549882 70.4291 0.315918 71.8149 0.315918C73.2305 0.315918 74.4587 0.552803 75.4995 1.02656C76.5464 1.49448 77.3582 2.15248 77.9352 3.00058C78.5121 3.84864 78.8065 4.83131 78.8184 5.94846H74.5895ZM92.3523 0.561574H96.7597V12.1512C96.7597 13.4906 96.4358 14.6575 95.787 15.6518C95.1392 16.6403 94.2348 17.4065 93.0755 17.9505C91.9154 18.4885 90.5686 18.7576 89.0336 18.7576C87.4813 18.7576 86.1253 18.4885 84.9654 17.9505C83.8056 17.4065 82.9045 16.6403 82.2622 15.6518C81.6199 14.6575 81.2986 13.4906 81.2986 12.1512V0.561574H85.7149V11.774C85.7149 12.394 85.8516 12.9467 86.1253 13.4321C86.4048 13.9176 86.7943 14.2978 87.2939 14.5727C87.7935 14.8476 88.3734 14.9851 89.0336 14.9851C89.6938 14.9851 90.2707 14.8476 90.7642 14.5727C91.264 14.2978 91.6534 13.9176 91.9333 13.4321C92.2124 12.9467 92.3523 12.394 92.3523 11.774V0.561574ZM99.5277 18.5295V0.561574H107.075C108.444 0.561574 109.624 0.804309 110.617 1.28977C111.617 1.76938 112.386 2.45955 112.928 3.36029C113.469 4.25514 113.739 5.31678 113.739 6.54502C113.739 7.79081 113.463 8.84955 112.91 9.72096C112.357 10.5866 111.572 11.2476 110.555 11.7038C109.538 12.1541 108.333 12.3793 106.942 12.3793H102.168V8.95773H106.121C106.787 8.95773 107.343 8.87293 107.789 8.70326C108.241 8.52784 108.583 8.26464 108.815 7.91373C109.047 7.5569 109.163 7.10064 109.163 6.54502C109.163 5.9894 109.047 5.53023 108.815 5.16758C108.583 4.79911 108.241 4.52426 107.789 4.34293C107.337 4.15579 106.781 4.06217 106.121 4.06217H103.944V18.5295H99.5277ZM109.814 10.3176L114.365 18.5295H109.547L105.086 10.3176H109.814ZM116.162 18.5295V0.561574H128.902V4.08846H120.578V7.77334H128.251V11.309H120.578V15.0025H128.902V18.5295H116.162Z" fill="#7A7A7A"/>
<defs>
<filter id="filter0_i_733_94670" x="0" y="0" width="21.5342" height="23.4119" filterUnits="userSpaceOnUse" color-interpolation-filters="sRGB">
<feFlood flood-opacity="0" result="BackgroundImageFix"/>
<feBlend mode="normal" in="SourceGraphic" in2="BackgroundImageFix" result="shape"/>
<feColorMatrix in="SourceAlpha" type="matrix" values="0 0 0 0 0 0 0 0 0 0 0 0 0 0 0 0 0 0 127 0" result="hardAlpha"/>
<feOffset dy="4"/>
<feGaussianBlur stdDeviation="2"/>
<feComposite in2="hardAlpha" operator="arithmetic" k2="-1" k3="1"/>
<feColorMatrix type="matrix" values="0 0 0 0 0 0 0 0 0 0 0 0 0 0 0 0 0 0 0.25 0"/>
<feBlend mode="normal" in2="shape" result="effect1_innerShadow_733_94670"/>
</filter>
</defs>
</svg>
