<svg width="85" height="20" viewBox="0 0 85 20" fill="none" xmlns="http://www.w3.org/2000/svg">
<g filter="url(#filter0_i_1132_319980)">
<path d="M13.9727 16.3013V11.6438H5.34058e-05V16.3013H13.9727Z" fill="#117FFF"/>
<path d="M6.9863 10.4795C3.12787 10.4795 0 7.35158 0 3.49316H13.9726C13.9726 7.35158 10.8447 10.4795 6.9863 10.4795Z" fill="#23F8C5"/>
</g>
<path d="M26.6997 3.86375H29.5594V11.5108C29.5594 12.3946 29.3491 13.1645 28.9284 13.8205C28.5078 14.4728 27.9212 14.9783 27.1686 15.3373C26.4161 15.6923 25.542 15.8698 24.5462 15.8698C23.539 15.8698 22.6591 15.6923 21.9065 15.3373C21.154 14.9783 20.5694 14.4728 20.1526 13.8205C19.7357 13.1645 19.5273 12.3946 19.5273 11.5108V3.86375H22.3928V11.2619C22.3928 11.671 22.4816 12.0356 22.6591 12.356C22.8405 12.6763 23.0933 12.9272 23.4174 13.1085C23.7416 13.2899 24.1179 13.3806 24.5462 13.3806C24.9746 13.3806 25.349 13.2899 25.6693 13.1085C25.9935 12.9272 26.2462 12.6763 26.4277 12.356C26.609 12.0356 26.6997 11.671 26.6997 11.2619V3.86375ZM31.3554 15.7193V3.86375H36.2527C37.1404 3.86375 37.9064 4.03742 38.5509 4.38475C39.1993 4.72822 39.699 5.20869 40.0502 5.82617C40.4014 6.4398 40.577 7.15374 40.577 7.96805C40.577 8.7862 40.3975 9.50207 40.0387 10.1157C39.6836 10.7254 39.1761 11.1982 38.5162 11.534C37.8563 11.8697 37.0728 12.0376 36.1659 12.0376H33.1441V9.77995H35.6333C36.0655 9.77995 36.4264 9.70467 36.7159 9.55417C37.0092 9.40368 37.231 9.19333 37.3816 8.92319C37.5321 8.64921 37.6073 8.33081 37.6073 7.96805C37.6073 7.60138 37.5321 7.28496 37.3816 7.01867C37.231 6.74853 37.0092 6.54011 36.7159 6.39345C36.4225 6.2468 36.0617 6.1735 35.6333 6.1735H34.2209V15.7193H31.3554ZM48.3977 7.41811C48.3591 6.99358 48.1874 6.66359 47.8825 6.42821C47.5815 6.18893 47.1512 6.06929 46.5916 6.06929C46.2211 6.06929 45.9124 6.11755 45.6654 6.21402C45.4184 6.31049 45.2331 6.44364 45.1097 6.61346C44.9862 6.77939 44.9225 6.9704 44.9186 7.18657C44.9109 7.36408 44.9457 7.52034 45.0229 7.65541C45.1039 7.79054 45.2196 7.91012 45.3701 8.01433C45.5245 8.1147 45.7098 8.20343 45.9259 8.28063C46.142 8.35783 46.3851 8.42536 46.6553 8.48323L47.6741 8.71483C48.2607 8.84215 48.7779 9.01198 49.2255 9.22424C49.6771 9.43645 50.0553 9.68924 50.3602 9.98255C50.6689 10.2759 50.9024 10.6135 51.0606 10.9956C51.2188 11.3777 51.2999 11.806 51.3037 12.2808C51.2999 13.0294 51.1108 13.672 50.7364 14.2084C50.3621 14.7448 49.8237 15.1558 49.1213 15.4414C48.4228 15.727 47.5796 15.8698 46.5916 15.8698C45.5998 15.8698 44.7353 15.7212 43.9982 15.4241C43.2611 15.1269 42.688 14.6754 42.2789 14.0695C41.8698 13.4636 41.6595 12.6975 41.648 11.7713H44.3918C44.415 12.1534 44.5173 12.4718 44.6986 12.7265C44.8801 12.9812 45.1289 13.1741 45.4454 13.3054C45.7657 13.4366 46.1362 13.5022 46.5569 13.5022C46.9428 13.5022 47.2708 13.4501 47.541 13.3459C47.815 13.2417 48.0253 13.0969 48.1719 12.9117C48.3186 12.7265 48.3939 12.5142 48.3977 12.2749C48.3939 12.0511 48.3244 11.8601 48.1893 11.7018C48.0543 11.5397 47.8459 11.4008 47.5641 11.285C47.2862 11.1654 46.9312 11.0554 46.499 10.9551L45.2602 10.6656C44.2336 10.4302 43.4251 10.0501 42.8346 9.52524C42.2442 8.99655 41.9509 8.28255 41.9548 7.38335C41.9509 6.65008 42.1477 6.00758 42.5452 5.45568C42.9427 4.90381 43.4926 4.47351 44.195 4.16477C44.8974 3.85603 45.6982 3.70166 46.5974 3.70166C47.5159 3.70166 48.3128 3.85796 48.9882 4.17056C49.6674 4.47929 50.1942 4.91346 50.5685 5.47305C50.9429 6.03261 51.1339 6.681 51.1416 7.41811H48.3977ZM59.9232 3.86375H62.7829V11.5108C62.7829 12.3946 62.5727 13.1645 62.1518 13.8205C61.7315 14.4728 61.1446 14.9783 60.3924 15.3373C59.6397 15.6923 58.7658 15.8698 57.7698 15.8698C56.7626 15.8698 55.8827 15.6923 55.1301 15.3373C54.3776 14.9783 53.7929 14.4728 53.3762 13.8205C52.9594 13.1645 52.7509 12.3946 52.7509 11.5108V3.86375H55.6164V11.2619C55.6164 11.671 55.7051 12.0356 55.8827 12.356C56.0641 12.6763 56.3169 12.9272 56.641 13.1085C56.9652 13.2899 57.3415 13.3806 57.7698 13.3806C58.1982 13.3806 58.5725 13.2899 58.8927 13.1085C59.217 12.9272 59.4697 12.6763 59.6513 12.356C59.8324 12.0356 59.9232 11.671 59.9232 11.2619V3.86375ZM64.579 15.7193V3.86375H69.4764C70.3642 3.86375 71.1298 4.02391 71.7743 4.34423C72.4228 4.66068 72.9224 5.11607 73.274 5.71039C73.6251 6.30083 73.8003 7.00132 73.8003 7.81173C73.8003 8.63373 73.621 9.3323 73.2624 9.90727C72.9031 10.4785 72.3937 10.9146 71.7341 11.2156C71.0739 11.5127 70.2926 11.6613 69.3896 11.6613H66.2924V9.40368H68.8569C69.2889 9.40368 69.6499 9.34773 69.9392 9.23577C70.2326 9.12003 70.4545 8.94636 70.6052 8.71483C70.7554 8.47939 70.8311 8.17834 70.8311 7.81173C70.8311 7.44512 70.7554 7.14215 70.6052 6.90287C70.4545 6.65975 70.2326 6.47839 69.9392 6.35875C69.6464 6.23527 69.2854 6.1735 68.8569 6.1735H67.4445V15.7193H64.579ZM71.2532 10.3009L74.2061 15.7193H71.0797L68.1857 10.3009H71.2532ZM75.3722 15.7193V3.86375H83.6388V6.19085H78.2378V8.6222H83.2161V10.9551H78.2378V13.3922H83.6388V15.7193H75.3722Z" fill="#041189"/>
<defs>
<filter id="filter0_i_1132_319980" x="0" y="3.49316" width="13.9727" height="16.8081" filterUnits="userSpaceOnUse" color-interpolation-filters="sRGB">
<feFlood flood-opacity="0" result="BackgroundImageFix"/>
<feBlend mode="normal" in="SourceGraphic" in2="BackgroundImageFix" result="shape"/>
<feColorMatrix in="SourceAlpha" type="matrix" values="0 0 0 0 0 0 0 0 0 0 0 0 0 0 0 0 0 0 127 0" result="hardAlpha"/>
<feOffset dy="4"/>
<feGaussianBlur stdDeviation="2"/>
<feComposite in2="hardAlpha" operator="arithmetic" k2="-1" k3="1"/>
<feColorMatrix type="matrix" values="0 0 0 0 0 0 0 0 0 0 0 0 0 0 0 0 0 0 0.25 0"/>
<feBlend mode="normal" in2="shape" result="effect1_innerShadow_1132_319980"/>
</filter>
</defs>
</svg>
