<svg width="60" height="60" viewBox="0 0 60 60" fill="none" xmlns="http://www.w3.org/2000/svg">
<path d="M16.2188 15.8612C15.7332 15.8612 15.3398 16.2546 15.3398 16.7401C15.3398 17.2256 15.7332 17.619 16.2188 17.619H21.7164C22.2019 17.619 22.5953 17.2256 22.5953 16.7401C22.5953 16.2546 22.2019 15.8612 21.7164 15.8612H16.2188Z" fill="#2776EA"/>
<path d="M37.9369 15.4976C37.9369 12.7163 36.7194 10.0816 34.5969 8.26945C32.6532 6.61008 30.1436 5.81109 27.6168 6.02824C27.2988 5.36367 26.91 4.73086 26.4559 4.14012C26.1604 3.75539 25.6085 3.68309 25.2234 3.97887C24.8386 4.27465 24.7664 4.82637 25.0622 5.21133C25.5582 5.8568 25.9609 6.56145 26.2589 7.30606C26.4114 7.68703 26.8076 7.91168 27.2127 7.84746C29.4534 7.49156 31.7293 8.13258 33.4555 9.60645C35.1865 11.0841 36.1791 13.2314 36.1791 15.4976C36.1791 19.7686 32.7043 23.2434 28.4331 23.2434H8.43726C4.75406 23.2434 1.7577 20.2471 1.7577 16.564C1.7577 14.7745 2.46 13.0913 3.73535 11.8241C4.99512 10.5723 6.67066 9.88465 8.45812 9.88465C8.47488 9.88465 8.49187 9.88465 8.50816 9.88477C8.93871 9.88477 9.30621 9.5727 9.37547 9.14719C9.70746 7.10906 10.7603 5.23957 12.34 3.88324C13.9361 2.51262 15.9721 1.75781 18.073 1.75781C19.6954 1.75781 21.2834 2.20582 22.665 3.05344C23.0786 3.30703 23.6198 3.17754 23.8738 2.76375C24.1275 2.34996 23.9979 1.80879 23.5841 1.55496C21.9257 0.537656 20.02 0 18.073 0C15.5522 0 13.1095 0.905508 11.1949 2.54953C9.48645 4.01637 8.29195 5.98523 7.78207 8.15297C5.78297 8.30871 3.92777 9.15481 2.49645 10.5772C0.88664 12.1768 0 14.303 0 16.564C0 21.2163 3.78504 25.0012 8.43738 25.0012H28.4332C33.6735 25.0012 37.9369 20.738 37.9369 15.4976Z" fill="#2776EA"/>
<path d="M41.8438 17.7522H43.7773C44.2629 17.7522 44.6562 17.3588 44.6562 16.8732C44.6562 16.3877 44.2629 15.9943 43.7773 15.9943H41.8438C41.3582 15.9943 40.9648 16.3877 40.9648 16.8732C40.9648 17.3588 41.3582 17.7522 41.8438 17.7522Z" fill="#2776EA"/>
<path d="M46.9883 17.7522H48.043V18.8068C48.043 19.2923 48.4364 19.6857 48.9219 19.6857C49.4074 19.6857 49.8008 19.2923 49.8008 18.8068V16.8732C49.8008 16.3877 49.4074 15.9943 48.9219 15.9943H46.9883C46.5028 15.9943 46.1094 16.3877 46.1094 16.8732C46.1094 17.3588 46.5028 17.7522 46.9883 17.7522Z" fill="#2776EA"/>
<path d="M49.8008 22.558C49.8008 22.0725 49.4074 21.6791 48.9219 21.6791C48.4364 21.6791 48.043 22.0725 48.043 22.558V26.3092C48.043 26.7947 48.4364 27.1881 48.9219 27.1881C49.4074 27.1881 49.8008 26.7947 49.8008 26.3092V22.558Z" fill="#2776EA"/>
<path d="M48.9219 29.1816C48.4364 29.1816 48.043 29.575 48.043 30.0605V31.9941C48.043 32.4796 48.4364 32.873 48.9219 32.873C49.4074 32.873 49.8008 32.4796 49.8008 31.9941V30.0605C49.8008 29.575 49.4073 29.1816 48.9219 29.1816Z" fill="#2776EA"/>
<path d="M23.3008 42.7975H21.3672C20.8817 42.7975 20.4883 43.1909 20.4883 43.6764C20.4883 44.1619 20.8817 44.5553 21.3672 44.5553H23.3008C23.7863 44.5553 24.1797 44.1619 24.1797 43.6764C24.1797 43.1909 23.7863 42.7975 23.3008 42.7975Z" fill="#2776EA"/>
<path d="M18.1523 42.7975H17.0977V41.7428C17.0977 41.2573 16.7043 40.8639 16.2188 40.8639C15.7332 40.8639 15.3398 41.2573 15.3398 41.7428V43.6764C15.3398 44.1619 15.7332 44.5553 16.2188 44.5553H18.1523C18.6379 44.5553 19.0312 44.1619 19.0312 43.6764C19.0312 43.1909 18.6377 42.7975 18.1523 42.7975Z" fill="#2776EA"/>
<path d="M16.2188 33.3616C15.7332 33.3616 15.3398 33.755 15.3398 34.2405V37.9917C15.3398 38.4772 15.7332 38.8706 16.2188 38.8706C16.7043 38.8706 17.0977 38.4772 17.0977 37.9917V34.2405C17.0977 33.755 16.7041 33.3616 16.2188 33.3616Z" fill="#2776EA"/>
<path d="M17.0977 28.5558C17.0977 28.0703 16.7043 27.6769 16.2188 27.6769C15.7332 27.6769 15.3398 28.0703 15.3398 28.5558V30.4894C15.3398 30.9749 15.7332 31.3683 16.2188 31.3683C16.7043 31.3683 17.0977 30.9749 17.0977 30.4894V28.5558Z" fill="#2776EA"/>
<path d="M56.9944 47.4983C56.6446 47.0706 56.127 46.8253 55.5744 46.8253H55.2757V45.4134H55.5744C56.1269 45.4134 56.6444 45.1682 56.9943 44.7407L59.5863 41.573C60.1374 40.8997 60.1374 39.9223 59.5864 39.2491L56.9944 36.0816C56.6446 35.6538 56.127 35.4086 55.5744 35.4086H36.9537C36.4682 35.4086 36.0748 35.802 36.0748 36.2875C36.0748 36.773 36.4682 37.1664 36.9537 37.1664H55.5743C55.5974 37.1664 55.6191 37.1766 55.6337 37.1945L58.2259 40.3625C58.2489 40.3905 58.2489 40.4314 58.2258 40.4596L55.6339 43.6274C55.6191 43.6453 55.5974 43.6556 55.5743 43.6556H53.8267V42.6689C53.8267 42.1834 53.4333 41.79 52.9478 41.79C52.4623 41.79 52.0689 42.1834 52.0689 42.6689V43.6556H50.6576V42.6689C50.6576 42.1834 50.2642 41.79 49.7787 41.79C49.2932 41.79 48.8998 42.1834 48.8998 42.6689V43.6556H47.4885V42.6689C47.4885 42.1834 47.0951 41.79 46.6096 41.79C46.1241 41.79 45.7307 42.1834 45.7307 42.6689V43.6556H31.7689C31.7458 43.6556 31.7241 43.6453 31.7095 43.6274L29.1173 40.4596C29.0942 40.4314 29.0942 40.3905 29.1173 40.3624L31.7096 37.1944C31.7241 37.1766 31.7458 37.1664 31.7689 37.1664H33.4396C33.9251 37.1664 34.3185 36.773 34.3185 36.2875C34.3185 35.802 33.9251 35.4086 33.4396 35.4086H31.7689C31.2163 35.4086 30.6987 35.6538 30.349 36.0813L27.7568 39.2491C27.2061 39.9224 27.2061 40.8996 27.7568 41.5728L30.3491 44.7407C30.6989 45.1682 31.2164 45.4134 31.7689 45.4134H32.0675V46.8253H31.7689C31.2163 46.8253 30.6987 47.0706 30.349 47.4981L27.7568 50.6659C27.2061 51.3391 27.2061 52.3164 27.7568 52.9896L30.3491 56.1574C30.6989 56.5849 31.2164 56.8302 31.7689 56.8302H32.0675V59.1211C32.0675 59.6066 32.4609 60 32.9464 60H46.6356C47.1211 60 47.5145 59.6066 47.5145 59.1211C47.5145 58.6356 47.1211 58.2422 46.6356 58.2422H33.8253V56.8303H53.5179V58.2422H50.1498C49.6643 58.2422 49.2709 58.6356 49.2709 59.1211C49.2709 59.6066 49.6643 60 50.1498 60H54.3968C54.8823 60 55.2757 59.6066 55.2757 59.1211V56.8303H55.5744C56.1269 56.8303 56.6444 56.585 56.9943 56.1575L59.5863 52.9898C60.1374 52.3166 60.1374 51.3391 59.5864 50.666L56.9944 47.4983ZM33.8253 45.4134H53.5179V46.8253H33.8253V45.4134ZM58.2259 51.8764L55.634 55.0443C55.6192 55.0622 55.5975 55.0725 55.5744 55.0725H53.8268V54.0858C53.8268 53.6003 53.4334 53.2069 52.9479 53.2069C52.4624 53.2069 52.069 53.6003 52.069 54.0858V55.0725H50.6577V54.0858C50.6577 53.6003 50.2643 53.2069 49.7788 53.2069C49.2933 53.2069 48.8999 53.6003 48.8999 54.0858V55.0725H47.4886V54.0858C47.4886 53.6003 47.0952 53.2069 46.6097 53.2069C46.1242 53.2069 45.7308 53.6003 45.7308 54.0858V55.0725H31.7689C31.7458 55.0725 31.7241 55.0622 31.7095 55.0443L29.1173 51.8764C29.0942 51.8483 29.0942 51.8074 29.1173 51.7793L31.7096 48.6112C31.7241 48.5934 31.7458 48.5832 31.7689 48.5832H55.5744C55.5975 48.5832 55.6192 48.5934 55.6339 48.6114L58.2261 51.7794C58.249 51.8074 58.249 51.8482 58.2259 51.8764Z" fill="#2776EA"/>
<path d="M33.5156 40.4109C33.5156 40.8964 33.909 41.2898 34.3945 41.2898H35.1959C35.6814 41.2898 36.0748 40.8964 36.0748 40.4109C36.0748 39.9254 35.6814 39.532 35.1959 39.532H34.3945C33.9091 39.532 33.5156 39.9254 33.5156 40.4109Z" fill="#2776EA"/>
<path d="M38.9107 41.2898C39.3962 41.2898 39.7896 40.8964 39.7896 40.4109C39.7896 39.9254 39.3962 39.532 38.9107 39.532H38.1094C37.6239 39.532 37.2305 39.9254 37.2305 40.4109C37.2305 40.8964 37.6239 41.2898 38.1094 41.2898H38.9107Z" fill="#2776EA"/>
<path d="M42.6216 41.2898C43.1071 41.2898 43.5005 40.8964 43.5005 40.4109C43.5005 39.9254 43.1071 39.532 42.6216 39.532H41.8203C41.3348 39.532 40.9414 39.9254 40.9414 40.4109C40.9414 40.8964 41.3348 41.2898 41.8203 41.2898H42.6216Z" fill="#2776EA"/>
<path d="M35.1959 50.9489H34.3945C33.909 50.9489 33.5156 51.3423 33.5156 51.8278C33.5156 52.3133 33.909 52.7067 34.3945 52.7067H35.1959C35.6814 52.7067 36.0748 52.3133 36.0748 51.8278C36.0748 51.3423 35.6814 50.9489 35.1959 50.9489Z" fill="#2776EA"/>
<path d="M38.9107 50.9489H38.1094C37.6239 50.9489 37.2305 51.3423 37.2305 51.8278C37.2305 52.3133 37.6239 52.7067 38.1094 52.7067H38.9107C39.3962 52.7067 39.7896 52.3133 39.7896 51.8278C39.7896 51.3423 39.3961 50.9489 38.9107 50.9489Z" fill="#2776EA"/>
<path d="M42.6216 50.9489H41.8203C41.3348 50.9489 40.9414 51.3423 40.9414 51.8278C40.9414 52.3133 41.3348 52.7067 41.8203 52.7067H42.6216C43.1071 52.7067 43.5005 52.3133 43.5005 51.8278C43.5005 51.3423 43.1071 50.9489 42.6216 50.9489Z" fill="#2776EA"/>
</svg>
