<svg width="67" height="60" viewBox="0 0 67 60" fill="none" xmlns="http://www.w3.org/2000/svg">
<path d="M24.9536 30.9536C24.7392 30.9536 24.5427 30.9536 24.3472 30.9536C20.0487 30.9536 15.7502 30.963 11.4509 30.9408C10.9667 30.9382 10.7814 31.0654 10.649 31.5403C9.98623 33.9154 7.71359 35.5492 5.26929 35.4621C2.79765 35.3742 0.653118 33.602 0.130436 31.2149C-0.502419 28.3231 1.22619 25.4671 4.04542 24.7463C6.94921 24.0041 9.83592 25.6354 10.6635 28.5187C10.7839 28.9397 10.9462 29.061 11.38 29.0593C15.7494 29.0405 20.1196 29.0482 24.4898 29.0482C24.6307 29.0482 24.7708 29.0482 24.9322 29.0482C25.0398 28.5801 25.1201 28.136 25.2439 27.7039C26.2082 24.3338 29.2255 21.8852 32.582 21.582C36.8514 21.1968 40.9568 24.1015 41.7221 28.6468C41.7784 28.9833 41.9031 29.0541 42.2106 29.0533C46.6372 29.0456 51.0637 29.0448 55.4911 29.055C55.8191 29.0559 55.9489 28.9619 56.0377 28.6348C56.6937 26.2144 58.7596 24.6079 61.221 24.5729C63.6636 24.5379 65.8056 26.1017 66.517 28.4401C67.3915 31.3148 65.756 34.3365 62.8446 35.2247C59.9971 36.0933 56.961 34.4552 56.083 31.5762C55.8934 30.9536 55.8934 30.9536 55.2341 30.9536C50.9211 30.9536 46.6081 30.9595 42.2951 30.9433C41.8997 30.9416 41.781 31.0543 41.705 31.4387C40.9901 35.0821 38.4681 37.6186 34.8922 38.3317C30.4298 39.2208 25.8366 36.0659 25.0654 31.5804C25.0321 31.3866 24.9963 31.1936 24.9536 30.9536ZM33.3574 36.5587C36.9547 36.5656 39.9226 33.6464 39.932 30.0927C39.9414 26.4194 37.0256 23.4524 33.3984 23.443C29.7909 23.4336 26.8214 26.3963 26.8154 30.0107C26.8094 33.6045 29.7533 36.551 33.3574 36.5587ZM5.44949 33.5576C7.38136 33.549 9.00236 31.9315 8.99297 30.0218C8.98272 28.0506 7.39161 26.4664 5.42985 26.4749C3.46467 26.4834 1.86929 28.0882 1.88467 30.0423C1.89919 31.9631 3.52445 33.5653 5.44949 33.5576ZM61.2466 26.4723C59.2943 26.5125 57.7279 28.1096 57.7458 30.0414C57.7638 31.9989 59.4318 33.6054 61.3952 33.5567C63.2818 33.5098 64.8781 31.8777 64.8533 30.0201C64.8268 28.0199 63.2118 26.4322 61.2466 26.4723Z" fill="#2776EA"/>
<path d="M24.9532 1.56381C26.1377 2.73131 27.2856 3.8561 28.4172 4.99626C28.483 5.06202 28.4744 5.29005 28.4112 5.38058C28.0269 5.92803 27.605 6.44815 27.2258 6.99816C27.1421 7.11859 27.1412 7.32954 27.1677 7.48754C27.3138 8.33903 27.8604 8.65845 28.6905 8.64564C29.0552 8.64051 29.4199 8.75496 29.7871 8.79339C30.028 8.81816 30.1381 8.90783 30.1364 9.16576C30.1287 10.6604 30.127 12.1541 30.1381 13.6487C30.1398 13.9263 29.9912 13.9792 29.7752 14.0091C29.1278 14.0996 28.4787 14.1825 27.8356 14.2986C27.7007 14.3225 27.5563 14.4541 27.4735 14.5753C27.0157 15.2441 27.055 15.8479 27.6648 16.4397C28.0158 16.7805 28.2669 17.2246 28.6273 17.708C27.921 18.3878 27.2241 19.054 26.5332 19.7261C26.1147 20.1327 25.6876 20.5324 25.2999 20.9679C25.0599 21.237 24.8865 21.2122 24.6303 21.0055C24.1657 20.6297 23.6704 20.2932 23.2023 19.9217C22.9957 19.7578 22.824 19.7945 22.5823 19.8517C21.7718 20.0447 21.472 20.5452 21.4891 21.3437C21.4976 21.7221 21.3764 22.1013 21.3371 22.483C21.3106 22.741 21.1799 22.8118 20.9417 22.811C19.4761 22.8059 18.0097 22.8025 16.5441 22.8144C16.2503 22.817 16.1436 22.694 16.1103 22.4224C16.0317 21.7878 15.948 21.1533 15.8353 20.5238C15.8114 20.3889 15.6585 20.2753 15.562 20.1557C15.5457 20.1361 15.509 20.1344 15.486 20.119C14.8224 19.6809 14.2425 19.7714 13.6916 20.3462C13.4388 20.6101 13.098 20.7869 12.817 21.0269C12.5924 21.2199 12.4344 21.2336 12.2107 21.0055C11.1841 19.9593 10.1447 18.9259 9.09592 17.9019C8.89094 17.702 8.91742 17.5645 9.07456 17.3638C9.46145 16.8719 9.82272 16.3603 10.2105 15.8684C10.3591 15.6796 10.3556 15.5293 10.2967 15.2928C10.1011 14.5113 9.65532 14.1398 8.83628 14.1586C8.44427 14.168 8.04884 14.0527 7.65427 14.0014C7.42026 13.9715 7.31863 13.8716 7.32033 13.6128C7.33229 12.1473 7.33058 10.6809 7.32204 9.21529C7.32033 8.92833 7.42282 8.8173 7.71064 8.78656C8.33239 8.71994 8.95329 8.63368 9.5665 8.51497C9.72364 8.48422 9.88762 8.32964 9.98584 8.18872C10.459 7.50974 10.3522 6.9102 9.76037 6.32859C9.42131 5.9955 9.17363 5.56933 8.89948 5.20465C10.1242 3.98762 11.3216 2.79621 12.5472 1.57833C13.098 1.99426 13.6916 2.43324 14.2723 2.8876C14.4619 3.03535 14.6123 3.02339 14.8446 2.96275C15.6004 2.76632 15.9796 2.34442 15.9608 1.53734C15.9514 1.13081 16.071 0.721713 16.1222 0.312621C16.1496 0.0897123 16.2503 3.69931e-05 16.4835 0.000891048C17.9781 0.0094316 19.4718 0.0102847 20.9664 0.00259822C21.2278 0.00089011 21.3089 0.117897 21.3379 0.353616C21.4148 0.974514 21.5241 1.59114 21.5907 2.21289C21.6189 2.48021 21.765 2.56818 21.9734 2.70141C22.6822 3.15662 23.2408 2.97727 23.8045 2.43409C24.1512 2.10272 24.5714 1.84907 24.9532 1.56381ZM11.3925 5.34301C11.7785 5.86057 12.1637 6.35079 12.5138 6.86579C12.5924 6.98194 12.6163 7.2279 12.5463 7.33722C12.0509 8.11441 11.6914 8.94199 11.5146 9.84729C11.4676 10.0881 11.3429 10.2034 11.0884 10.2316C10.5939 10.2854 10.1054 10.3888 9.61091 10.4374C9.32566 10.4656 9.2078 10.569 9.22402 10.8619C9.24367 11.2163 9.24794 11.5742 9.22402 11.9286C9.20438 12.2233 9.33249 12.3352 9.60322 12.3668C10.0832 12.4231 10.5598 12.506 11.0406 12.5555C11.3207 12.5845 11.4676 12.699 11.524 12.9868C11.694 13.8614 12.0185 14.6795 12.5275 15.4132C12.6881 15.6455 12.6539 15.8095 12.4891 16.0144C12.168 16.4133 11.8579 16.8215 11.5701 17.2451C11.5061 17.3391 11.495 17.5551 11.559 17.6354C11.8776 18.0343 12.2294 18.4058 12.583 18.8021C13.1399 18.3878 13.6156 18.0744 14.0409 17.7037C14.3364 17.4458 14.5456 17.4885 14.8574 17.6721C15.3561 17.9659 15.878 18.3289 16.4263 18.4066C17.4153 18.5467 17.6553 19.0856 17.6988 19.9687C17.7458 20.9167 17.8064 20.9141 18.7741 20.9141C18.9594 20.9141 19.1447 20.9039 19.3292 20.9158C19.5641 20.9304 19.6589 20.8202 19.6845 20.5964C19.7357 20.1592 19.8049 19.7236 19.8638 19.2872C19.9065 18.9703 20.0398 18.7483 20.3626 18.6176C21.1723 18.2896 21.9776 17.9463 22.7668 17.5722C22.9871 17.468 23.1186 17.48 23.2954 17.6192C23.7097 17.9437 24.129 18.2632 24.5629 18.5595C24.6602 18.6261 24.8797 18.6552 24.9532 18.5945C25.3537 18.2606 25.7269 17.8925 26.1155 17.5304C25.7056 16.9795 25.3691 16.5047 25.0053 16.0503C24.8216 15.8206 24.8182 15.6497 24.948 15.3713C25.311 14.5899 25.6296 13.7862 25.9242 12.9757C26.0216 12.7067 26.1403 12.5828 26.4187 12.5546C26.8995 12.5068 27.3761 12.4231 27.8561 12.3685C28.126 12.3377 28.2566 12.231 28.2361 11.9338C28.2114 11.5657 28.2191 11.1941 28.2327 10.8243C28.2421 10.5767 28.1559 10.4708 27.8996 10.4434C27.377 10.3879 26.8534 10.3204 26.3401 10.2103C26.1907 10.1778 25.9891 10.0036 25.9601 9.86267C25.7739 8.97189 25.4237 8.1537 24.9327 7.39615C24.7798 7.16043 24.8114 7.00073 24.9771 6.79234C25.3486 6.32602 25.6936 5.84007 26.0515 5.35838C25.6099 4.93733 25.182 4.5308 24.7362 4.10633C24.2802 4.44454 23.7831 4.79983 23.3023 5.17732C23.1016 5.33447 22.9436 5.34386 22.7335 5.20123C21.9819 4.69393 21.1586 4.3523 20.2661 4.18576C20.0415 4.14391 19.927 4.03801 19.9006 3.79887C19.8433 3.29071 19.7434 2.78767 19.6905 2.27866C19.6606 1.98913 19.5376 1.88921 19.2532 1.90458C18.8988 1.92422 18.5409 1.92764 18.1865 1.90544C17.8859 1.88665 17.7893 2.02671 17.7595 2.29574C17.7056 2.77572 17.6219 3.25313 17.569 3.73311C17.5408 3.9936 17.4366 4.14391 17.1659 4.19003C16.2828 4.34035 15.48 4.70246 14.7352 5.18586C14.4841 5.34898 14.3116 5.31397 14.0947 5.14145C13.6301 4.77079 13.1484 4.42234 12.7376 4.11231C12.2713 4.53934 11.8443 4.9305 11.3925 5.34301Z" fill="#2776EA"/>
<path d="M38.1688 17.6149C38.601 17.0359 39.0417 16.4269 39.5046 15.8359C39.6489 15.6515 39.6241 15.5105 39.5678 15.2996C39.3645 14.5369 38.9443 14.1381 38.1073 14.1577C37.6214 14.1688 37.1312 14.0228 36.6068 13.9425C36.6068 13.5078 36.6068 13.1115 36.6068 12.7152C36.6068 11.5486 36.6145 10.3819 36.6016 9.21529C36.5982 8.92577 36.6956 8.81816 36.9834 8.78741C37.5906 8.72336 38.1928 8.61319 38.7991 8.53718C39.0511 8.50558 39.1621 8.37576 39.297 8.15797C39.7352 7.45167 39.5874 6.89397 39.0306 6.332C38.6949 5.9938 38.4456 5.57019 38.1748 5.20807C39.3936 3.98933 40.5875 2.79622 41.8088 1.57492C42.3383 1.9712 42.9046 2.37346 43.4443 2.80903C43.7065 3.02083 43.9107 3.00033 44.2352 2.92005C45.0337 2.72191 45.2114 2.1924 45.2387 1.48695C45.2541 1.09152 45.354 0.700365 45.3976 0.304938C45.424 0.0666561 45.5436 0.00260212 45.7657 0.00345617C47.2457 0.00943456 48.725 0.01285 50.205 3.92208e-05C50.4869 -0.00252294 50.5748 0.120463 50.6073 0.364722C50.6901 0.984766 50.796 1.60139 50.8661 2.22229C50.896 2.4862 51.0412 2.57331 51.2513 2.70569C51.9413 3.1404 52.4896 2.98069 53.0448 2.45801C53.4043 2.1198 53.8322 1.85334 54.3011 1.50147C54.7469 1.97291 55.1791 2.44178 55.6249 2.89785C56.2808 3.56999 56.9401 4.23872 57.6114 4.89463C57.8181 5.09619 57.8224 5.23881 57.6396 5.46343C57.2536 5.93743 56.9068 6.44303 56.5293 6.92386C56.373 7.12286 56.3764 7.28684 56.4371 7.53878C56.6318 8.35014 57.1331 8.64906 57.9283 8.63966C58.3075 8.63539 58.6858 8.75325 59.0676 8.79083C59.3144 8.8156 59.4143 8.91723 59.4135 9.16832C59.4075 10.6484 59.4041 12.1276 59.416 13.6077C59.4186 13.8912 59.2871 13.9784 59.0445 14.0108C58.3963 14.0979 57.7472 14.1808 57.1041 14.2952C56.9683 14.3191 56.8556 14.4729 56.7334 14.5677C56.724 14.5753 56.7223 14.5933 56.7164 14.6061C56.3081 15.5985 56.3081 15.5985 56.9692 16.4671C57.2015 16.7728 57.4227 17.088 57.6669 17.3835C57.8241 17.5739 57.8224 17.7114 57.6422 17.8899C56.5908 18.9302 55.5437 19.9755 54.5061 21.0303C54.3105 21.2284 54.1687 21.2114 53.9654 21.0516C53.4735 20.6648 52.9585 20.3078 52.47 19.9175C52.2607 19.7501 52.0934 19.7928 51.8534 19.8517C51.0736 20.043 50.7465 20.511 50.7602 21.2993C50.767 21.6785 50.6603 22.0586 50.6124 22.4395C50.5817 22.6846 50.4835 22.8118 50.2059 22.8101C48.7258 22.7999 47.2466 22.8025 45.7665 22.8084C45.5137 22.8093 45.4206 22.7042 45.3916 22.4591C45.3198 21.8527 45.2105 21.2506 45.1413 20.6434C45.108 20.353 44.9535 20.236 44.7118 20.0874C44.0447 19.6749 43.5169 19.8039 42.9866 20.324C42.6945 20.6101 42.3443 20.8424 42.001 21.0696C41.9036 21.1345 41.6747 21.1575 41.6115 21.0943C40.4628 19.9559 39.3304 18.7969 38.1688 17.6149ZM41.9549 18.7286C42.4562 18.352 42.9413 18.0044 43.4068 17.632C43.6177 17.4629 43.768 17.48 44.008 17.5996C44.7126 17.9514 45.424 18.3067 46.1671 18.5569C46.6488 18.7184 46.8922 18.9199 46.8922 19.4435C46.8913 19.809 47.0143 20.1728 47.0382 20.5409C47.0578 20.8415 47.1885 20.9304 47.4695 20.9176C47.8248 20.9013 48.1826 20.8945 48.5362 20.9201C48.8377 20.9415 48.9351 20.8014 48.9658 20.5341C49.0213 20.0541 49.1093 19.5775 49.152 19.0967C49.1776 18.8097 49.31 18.7038 49.5782 18.615C50.2623 18.3887 50.9532 18.1581 51.5963 17.8387C52.3316 17.474 52.306 17.4373 52.9688 17.9249C53.3317 18.1923 53.7417 18.6722 54.0748 18.6287C54.4514 18.5792 54.7606 18.0454 55.109 17.7336C55.3063 17.5568 55.32 17.4082 55.1466 17.1956C54.8323 16.8096 54.5582 16.3919 54.2439 16.0059C54.0748 15.7984 54.0876 15.6446 54.1969 15.4021C54.5624 14.5907 54.9006 13.7648 55.2115 12.9313C55.3012 12.6904 55.4156 12.5897 55.6548 12.5623C56.1493 12.5051 56.6403 12.4248 57.1348 12.3685C57.4073 12.3377 57.5354 12.2284 57.5166 11.9329C57.4935 11.5639 57.5029 11.1933 57.514 10.8235C57.5217 10.5775 57.4312 10.4708 57.1758 10.4451C56.6668 10.3939 56.1629 10.2991 55.6548 10.2393C55.396 10.2086 55.2576 10.1078 55.2055 9.83192C55.0381 8.94114 54.6914 8.11698 54.1824 7.36712C54.0474 7.16812 54.062 7.02464 54.2114 6.84017C54.5419 6.43108 54.8596 6.01003 55.1586 5.57702C55.2252 5.48051 55.2534 5.25931 55.1919 5.19013C54.8451 4.79898 54.4659 4.43686 54.0799 4.04826C53.57 4.42917 53.0858 4.77677 52.6195 5.14743C52.3991 5.32337 52.2403 5.31055 51.9789 5.18842C51.2111 4.82887 50.4228 4.5086 49.626 4.22164C49.3348 4.11659 49.1793 4.01068 49.1469 3.68443C49.0896 3.0977 48.982 2.51523 48.8932 1.91312C48.3329 1.91312 47.8359 1.89775 47.3405 1.92594C47.2398 1.93191 47.0843 2.08564 47.0638 2.19325C46.963 2.7091 46.8811 3.23008 46.8298 3.75276C46.8025 4.03118 46.6607 4.11402 46.4233 4.2037C45.6171 4.50774 44.8108 4.81947 44.0319 5.18586C43.7509 5.31824 43.5836 5.31141 43.3547 5.12864C42.8918 4.76054 42.4092 4.41721 41.9813 4.09865C41.5176 4.54105 41.0974 4.94075 40.6669 5.35155C41.0521 5.8674 41.4373 6.36104 41.7909 6.87518C41.866 6.9845 41.8934 7.21595 41.8285 7.31758C41.3118 8.11698 40.9633 8.97787 40.7566 9.90537C40.7293 10.0266 40.5602 10.1778 40.4338 10.2043C39.9197 10.3093 39.3978 10.3939 38.8751 10.4409C38.5711 10.4682 38.4917 10.5954 38.5062 10.8739C38.5241 11.2283 38.5301 11.587 38.5045 11.9406C38.4823 12.2412 38.6181 12.342 38.8871 12.3727C39.3534 12.4265 39.8155 12.5222 40.2818 12.5529C40.6166 12.5751 40.7114 12.7468 40.8156 13.0338C41.1051 13.8298 41.4253 14.6172 41.7815 15.385C41.9002 15.6404 41.9327 15.8043 41.7525 16.0281C41.3801 16.4918 41.0308 16.9752 40.6704 17.4527C41.1025 17.8788 41.5116 18.2871 41.9549 18.7286Z" fill="#2776EA"/>
<path d="M24.9967 58.4695C24.3715 58.0066 23.7711 57.5796 23.1921 57.1244C22.9803 56.9578 22.8205 56.9971 22.5806 57.0595C21.8059 57.2602 21.4814 57.7299 21.4925 58.5165C21.4985 58.9093 21.4071 59.3082 21.3234 59.6959C21.2986 59.8087 21.1483 59.9786 21.0535 59.9803C19.447 59.9983 17.8406 59.9931 16.1828 59.9931C16.0709 59.2484 15.9471 58.5242 15.86 57.7957C15.8275 57.5241 15.6781 57.4421 15.4705 57.3131C14.8087 56.9015 14.2672 56.9724 13.7197 57.5309C13.3952 57.8623 12.9767 58.1014 12.6001 58.3815C12.5779 58.3978 12.5488 58.4046 12.4959 58.4277C12.4318 58.3781 12.3498 58.3269 12.2832 58.2603C11.2609 57.2508 10.2497 56.2285 9.21203 55.2343C8.90628 54.9414 8.91055 54.7364 9.17616 54.4264C9.55451 53.984 9.89955 53.5109 10.2275 53.0292C10.3112 52.9062 10.3189 52.6978 10.2933 52.539C10.1541 51.6661 9.59209 51.3467 8.74999 51.3501C8.3725 51.3518 7.99244 51.2579 7.62007 51.1742C7.53381 51.1545 7.43218 51.0093 7.41425 50.9094C7.36386 50.6165 7.3314 50.3176 7.32969 50.0203C7.32115 48.8537 7.34507 47.6862 7.31688 46.5196C7.30749 46.1455 7.4356 46.0191 7.77978 45.9807C8.3725 45.914 8.96179 45.8073 9.55451 45.7381C9.81329 45.7074 9.90894 45.5613 10.037 45.3495C10.4564 44.6577 10.3249 44.1009 9.77144 43.5543C9.49131 43.2776 9.26755 42.936 9.05574 42.6003C8.99083 42.497 8.98314 42.2561 9.05574 42.1827C10.1182 41.0929 11.202 40.0228 12.2738 38.9424C12.4378 38.7767 12.5574 38.7767 12.741 38.9227C13.2534 39.3293 13.7881 39.7085 14.3031 40.1116C14.4816 40.2517 14.6199 40.2337 14.8377 40.1756C15.6063 39.9698 16.0009 39.5436 15.9676 38.7127C15.9522 38.3215 16.0727 37.9261 16.1248 37.5315C16.1529 37.318 16.2383 37.2181 16.4809 37.2198C17.9746 37.2317 19.4692 37.2309 20.9638 37.2232C21.2175 37.2215 21.3131 37.3205 21.3422 37.5639C21.4156 38.1703 21.5249 38.7733 21.5899 39.3805C21.6197 39.6572 21.7547 39.7674 21.9844 39.9109C22.6779 40.3448 23.2237 40.1961 23.7779 39.6572C24.1213 39.3233 24.5449 39.0722 24.9668 38.7588C25.0761 38.8536 25.1863 38.9364 25.2819 39.0329C26.2974 40.0501 27.3035 41.0758 28.3301 42.0819C28.5564 42.3031 28.553 42.4483 28.3634 42.684C27.962 43.1819 27.5793 43.6969 27.2147 44.2222C27.1378 44.3332 27.1352 44.5279 27.1609 44.6731C27.312 45.5374 27.8689 45.8662 28.7118 45.8628C29.091 45.8611 29.4762 45.9439 29.8477 46.0336C29.9613 46.0609 30.121 46.2369 30.1219 46.3462C30.1398 47.8545 30.1407 49.3627 30.1219 50.871C30.1202 50.9803 29.9545 51.1631 29.8417 51.1844C29.2277 51.298 28.6059 51.38 27.9859 51.4569C27.6929 51.4936 27.5529 51.6345 27.3983 51.9018C27.0199 52.5569 27.1139 53.0668 27.6306 53.5886C27.938 53.8986 28.1755 54.2812 28.4206 54.6468C28.4795 54.7347 28.4992 54.9423 28.4411 55.002C27.3086 56.1584 26.1616 57.3012 24.9967 58.4695ZM12.6026 56.0021C13.1851 55.5632 13.6685 55.2139 14.1348 54.8415C14.3432 54.6749 14.4901 54.6878 14.7352 54.8048C15.5124 55.1754 16.3041 55.5247 17.1163 55.81C17.4315 55.9202 17.5476 56.0636 17.5818 56.3591C17.6356 56.8246 17.709 57.2884 17.7671 57.7538C17.7961 57.987 17.8944 58.11 18.1514 58.0997C18.5349 58.0852 18.9201 58.0877 19.3035 58.0988C19.5504 58.1065 19.6622 58.0092 19.6904 57.7606C19.7494 57.2525 19.8373 56.7477 19.8988 56.2404C19.9287 55.9945 20.0355 55.8817 20.2917 55.8313C21.1654 55.6597 21.9819 55.3309 22.7112 54.815C22.9589 54.6391 23.1314 54.6878 23.3484 54.8594C23.8241 55.2343 24.3177 55.5854 24.7413 55.8997C25.1982 55.4564 25.6116 55.0541 26.0429 54.6357C25.6868 54.1574 25.3298 53.6629 24.9557 53.1812C24.8148 53.0001 24.7832 52.8532 24.9155 52.6491C25.4143 51.8788 25.7756 51.0478 25.9464 50.1416C25.9934 49.8939 26.1249 49.7991 26.3802 49.7735C26.9029 49.7197 27.4222 49.6335 27.938 49.5361C28.0448 49.5165 28.2096 49.3935 28.2131 49.3115C28.2378 48.7896 28.2259 48.2661 28.2259 47.7084C27.5734 47.6119 26.9601 47.506 26.3427 47.4368C26.0984 47.4095 25.984 47.3027 25.9455 47.0807C25.7892 46.1686 25.422 45.341 24.9164 44.574C24.7704 44.3528 24.8139 44.2042 24.9676 44.0112C25.346 43.5355 25.6996 43.0402 26.0745 42.538C25.6338 42.1067 25.2196 41.7027 24.7806 41.2731C24.2827 41.6455 23.7899 42.0272 23.28 42.3859C23.175 42.4602 22.9828 42.5115 22.8744 42.4662C22.0126 42.1084 21.1551 41.7377 20.3113 41.3389C20.1542 41.2646 20.0013 41.0656 19.9569 40.8948C19.8348 40.4293 19.7519 39.951 19.6904 39.4736C19.6554 39.1969 19.535 39.1149 19.2754 39.1252C18.9064 39.1397 18.5349 39.1422 18.1659 39.1252C17.8944 39.1132 17.7867 39.2251 17.7594 39.4873C17.7073 39.9818 17.6245 40.4729 17.5655 40.9665C17.5365 41.2073 17.4229 41.3047 17.1838 41.3927C16.3494 41.7001 15.5252 42.0409 14.7156 42.4107C14.4679 42.5243 14.3184 42.5226 14.1135 42.3578C13.6497 41.9845 13.1672 41.6352 12.7213 41.2979C12.2738 41.7326 11.8511 42.1425 11.4095 42.5704C11.7827 43.07 12.1389 43.5654 12.5164 44.0445C12.6624 44.2298 12.6838 44.3708 12.5463 44.5715C12.0253 45.3316 11.676 46.166 11.5077 47.0739C11.4667 47.2951 11.3634 47.4086 11.1157 47.4351C10.5794 47.4915 10.0439 47.5726 9.51608 47.6802C9.40334 47.7033 9.25217 47.8809 9.24278 47.9979C9.20862 48.3934 9.23765 48.7939 9.22655 49.1919C9.21972 49.4199 9.30256 49.5216 9.53657 49.5506C10.0584 49.6138 10.5751 49.7214 11.0969 49.7744C11.3625 49.8008 11.4693 49.9221 11.5146 50.1613C11.6871 51.0666 12.0398 51.901 12.5522 52.6653C12.6915 52.8737 12.6496 53.013 12.507 53.1923C12.179 53.6031 11.8605 54.0233 11.5641 54.4572C11.5009 54.5494 11.4941 54.7655 11.5581 54.8449C11.8835 55.2395 12.2397 55.6067 12.6026 56.0021Z" fill="#2776EA"/>
<path d="M38.1602 54.8261C38.6086 54.2266 39.0442 53.6304 39.4968 53.048C39.6352 52.8695 39.6155 52.7303 39.5711 52.515C39.3884 51.6319 38.8179 51.3527 37.9911 51.3493C37.6256 51.3475 37.2549 51.2707 36.8979 51.1819C36.7826 51.1528 36.6204 50.9803 36.6187 50.8718C36.5999 49.3636 36.6101 47.8553 36.6016 46.3471C36.5999 46.1028 36.7083 46.0328 36.9253 46.0046C37.5453 45.9243 38.1619 45.8175 38.782 45.7424C39.0527 45.7099 39.1689 45.575 39.3055 45.341C39.6967 44.6714 39.6232 44.1308 39.0681 43.5867C38.7367 43.2622 38.495 42.8454 38.2149 42.4688C38.1987 42.4466 38.1927 42.4175 38.1859 42.4022C39.3884 41.2142 40.5883 40.0305 41.8352 38.7981C42.2998 39.1482 42.843 39.53 43.352 39.9519C43.6714 40.2166 43.9268 40.2277 44.3351 40.0885C44.944 39.8801 45.184 39.536 45.2113 38.927C45.2327 38.4607 45.3147 37.9944 45.4095 37.5358C45.4342 37.4171 45.6042 37.2403 45.7092 37.2386C47.3012 37.2198 48.8923 37.2257 50.5398 37.2257C50.6551 37.9739 50.784 38.6964 50.8686 39.4241C50.9002 39.6982 51.0488 39.7742 51.2529 39.9066C51.9387 40.349 52.4836 40.203 53.0387 39.6607C53.3897 39.3173 53.8279 39.0628 54.2745 38.7331C55.0859 39.5556 55.8836 40.3644 56.6821 41.1732C57.0015 41.4969 57.3158 41.8274 57.6455 42.1408C57.8112 42.2988 57.83 42.4184 57.6814 42.6063C57.2851 43.1085 56.917 43.6329 56.5216 44.1368C56.361 44.3409 56.3875 44.5091 56.4447 44.7551C56.6292 45.5468 57.1237 45.838 57.8906 45.85C58.2852 45.856 58.6781 45.9653 59.0735 46.0054C59.3169 46.0302 59.4219 46.1216 59.4168 46.3787C59.3903 47.6999 59.3767 49.022 59.3587 50.3432C59.3587 50.3577 59.3545 50.3714 59.3545 50.3859C59.3536 50.6199 59.4399 50.9974 59.3365 51.0589C59.0846 51.21 58.7464 51.222 58.4398 51.2758C58.2587 51.3074 58.0717 51.3364 57.8906 51.3219C56.9699 51.251 56.5925 51.8386 56.3525 52.5834C56.3183 52.6884 56.3525 52.855 56.4191 52.9472C56.8282 53.5109 57.2637 54.0549 57.6694 54.622C57.7352 54.7142 57.7557 54.9448 57.6933 55.0089C56.5651 56.1525 55.4215 57.2798 54.2805 58.4106C54.272 58.4191 54.254 58.4183 54.2054 58.4302C53.6323 58.0032 53.0345 57.5702 52.4528 57.1175C52.2615 56.9689 52.1181 56.986 51.8849 57.0424C51.0667 57.2405 50.7533 57.7512 50.749 58.5532C50.7473 58.9333 50.6499 59.3133 50.603 59.6934C50.5756 59.9137 50.474 60.0017 50.24 60C48.7462 59.9906 47.2516 59.9906 45.7579 59.9991C45.5008 60.0008 45.4171 59.8975 45.3898 59.6524C45.3206 59.0451 45.213 58.443 45.1387 57.8367C45.1063 57.5702 44.9722 57.4549 44.7416 57.3088C44.0447 56.8673 43.5006 57.0236 42.9532 57.5634C42.662 57.8503 42.3092 58.0792 41.9668 58.3072C41.8814 58.3645 41.6738 58.3722 41.6132 58.3115C40.4645 57.1679 39.3294 56.0115 38.1602 54.8261ZM38.5309 49.5036C39.1672 49.601 39.7539 49.7103 40.3466 49.7718C40.6285 49.8008 40.7446 49.9247 40.7916 50.1801C40.9547 51.0742 41.3066 51.8924 41.8113 52.6449C41.9428 52.8404 41.9343 52.9916 41.7865 53.1778C41.4586 53.5886 41.1383 54.0079 40.8445 54.4435C40.7779 54.5426 40.7719 54.7715 40.8411 54.8603C41.1554 55.2617 41.5064 55.634 41.848 56.0209C42.4484 55.5674 42.9378 55.2028 43.4204 54.8304C43.5912 54.6989 43.7364 54.6254 43.9482 54.7757C44.7134 55.3172 45.5683 55.6503 46.4796 55.8604C46.6103 55.8903 46.7708 56.0756 46.8007 56.2131C46.91 56.7264 46.9835 57.2491 47.0416 57.7709C47.0697 58.0271 47.1791 58.1117 47.4242 58.1031C47.794 58.0895 48.1646 58.0818 48.5336 58.1031C48.8291 58.1202 48.9376 57.9861 48.9683 57.7171C49.0264 57.2234 49.0759 56.7264 49.1792 56.2413C49.2108 56.0918 49.3842 55.892 49.526 55.8604C50.4108 55.6597 51.2392 55.3351 51.9831 54.8176C52.2316 54.6442 52.4016 54.6826 52.6202 54.8577C53.084 55.2301 53.5674 55.5794 53.9978 55.9039C54.4488 55.476 54.8767 55.0704 55.3165 54.6536C54.8895 54.0737 54.4693 53.5032 54.0465 52.9275C54.6307 52.0718 55.0867 51.175 55.2439 50.1604C55.29 49.8632 55.4207 49.8 55.6803 49.771C56.1851 49.7146 56.6847 49.6044 57.1903 49.5523C57.4585 49.5241 57.52 49.4012 57.5131 49.1646C57.5029 48.7811 57.5012 48.3959 57.514 48.0125C57.5217 47.7784 57.4311 47.6888 57.2005 47.6614C56.6932 47.6017 56.1902 47.4898 55.682 47.4454C55.3865 47.4197 55.296 47.2891 55.1986 47.0252C54.8946 46.2044 54.5589 45.3931 54.1908 44.5988C54.0756 44.3494 54.0849 44.2025 54.2455 43.9984C54.6204 43.5235 54.9715 43.0299 55.2968 42.5918C54.8544 42.1263 54.4573 41.7078 54.0499 41.2791C53.5554 41.6463 53.0661 41.988 52.604 42.3637C52.3734 42.5508 52.2094 42.5175 51.9652 42.3877C51.3904 42.0828 50.8131 41.6831 50.1939 41.5814C49.3185 41.4371 49.0956 40.9964 49.0452 40.2038C48.9768 39.1243 48.9273 39.1269 47.8281 39.1303C47.7 39.1303 47.5711 39.1431 47.4438 39.1311C47.1816 39.1055 47.0655 39.1986 47.0373 39.4787C46.9852 40.0014 46.9032 40.5224 46.8016 41.0374C46.7794 41.1493 46.6401 41.2765 46.524 41.3269C45.6939 41.6873 44.8466 42.0084 44.0267 42.3902C43.7748 42.5072 43.6176 42.5499 43.3896 42.3646C42.919 41.982 42.4245 41.6293 41.977 41.2919C41.5226 41.7394 41.111 42.1451 40.6763 42.5738C41.0367 43.053 41.3954 43.5449 41.7729 44.024C41.9266 44.2187 41.9514 44.3742 41.8028 44.5903C41.2878 45.3367 40.9487 46.1626 40.783 47.0551C40.7378 47.3002 40.6242 47.4086 40.3654 47.4385C39.7505 47.5103 39.1398 47.6179 38.53 47.711C38.5309 48.3327 38.5309 48.8981 38.5309 49.5036Z" fill="#2776EA"/>
<path d="M37.652 30.0363C37.6572 32.7078 35.5331 34.3826 33.281 34.3518C31.1356 34.322 28.9578 32.4994 29.0833 29.8595C29.1977 27.4511 31.1578 25.6157 33.4612 25.6772C35.8534 25.7413 37.6811 27.6202 37.652 30.0363ZM35.856 30.0414C35.8636 28.7535 34.8636 27.5476 33.3331 27.5749C31.9803 27.5988 30.8922 28.6707 30.8896 30.0039C30.8871 31.2858 32.058 32.4371 33.3587 32.4499C34.8405 32.4652 35.8602 31.109 35.856 30.0414Z" fill="#2776EA"/>
<path d="M18.7145 15.4994C16.4512 15.502 14.6381 13.6735 14.6406 11.3914C14.6423 9.11707 16.5153 7.25523 18.7777 7.28C21.0204 7.30477 22.8464 9.16746 22.8472 11.4307C22.8472 13.6726 20.9948 15.4969 18.7145 15.4994ZM18.7435 13.5932C19.9341 13.5898 20.9325 12.6178 20.947 11.4469C20.9623 10.2359 19.9477 9.19052 18.7503 9.18454C17.5342 9.17856 16.5435 10.1812 16.5452 11.417C16.546 12.6332 17.5188 13.5966 18.7435 13.5932Z" fill="#2776EA"/>
<path d="M47.9676 15.4977C45.7282 15.4892 43.904 13.6632 43.8946 11.4196C43.8852 9.16917 45.7427 7.28683 47.9718 7.28598C50.2615 7.28513 52.1012 9.12305 52.0944 11.4034C52.0884 13.7068 50.2735 15.5063 47.9676 15.4977ZM50.1898 11.388C50.1804 10.1735 49.1871 9.17429 48 9.18454C46.8069 9.19479 45.7974 10.2017 45.7889 11.388C45.7803 12.6042 46.7855 13.5974 48.0214 13.5923C49.2401 13.5881 50.1992 12.6127 50.1898 11.388Z" fill="#2776EA"/>
<path d="M14.6406 48.6154C14.6423 46.3001 16.4734 44.4886 18.8016 44.4972C21.0025 44.5057 22.866 46.406 22.8447 48.6197C22.8233 50.8864 20.9777 52.726 18.7324 52.7192C16.4666 52.7123 14.6389 50.8795 14.6406 48.6154ZM16.5443 48.6112C16.552 49.8342 17.5256 50.8138 18.7307 50.8121C19.946 50.8103 20.9709 49.7778 20.9461 48.5787C20.9213 47.3719 19.9272 46.3991 18.7204 46.4034C17.5128 46.4077 16.5366 47.3975 16.5443 48.6112Z" fill="#2776EA"/>
<path d="M52.0951 48.6334C52.0865 50.8932 50.2358 52.7328 47.9845 52.7192C45.7298 52.7046 43.8816 50.8479 43.8867 48.6018C43.8919 46.3163 45.7657 44.4835 48.081 44.4989C50.3032 44.5134 52.1036 46.3684 52.0951 48.6334ZM50.1905 48.6445C50.211 47.4197 49.257 46.4205 48.0502 46.4043C46.8187 46.388 45.8348 47.3395 45.7904 48.5889C45.7494 49.747 46.7734 50.789 47.9734 50.8112C49.1785 50.8334 50.17 49.8641 50.1905 48.6445Z" fill="#2776EA"/>
</svg>
