<svg width="60" height="60" viewBox="0 0 60 60" fill="none" xmlns="http://www.w3.org/2000/svg">
<path d="M55.5969 0H4.40309C1.9752 0 0 1.9752 0 4.40309V42.681C0 45.1089 1.9752 47.0841 4.40309 47.0841H20.9002V53.542H18.2583C16.4779 53.542 15.0293 54.9905 15.0293 56.771V60H44.9707V56.771C44.9707 54.9905 43.5222 53.542 41.7417 53.542H39.0998V47.0841H55.5969C58.0248 47.0841 60 45.1089 60 42.681V4.40309C60 1.9752 58.0248 0 55.5969 0ZM41.7417 55.3034C42.551 55.3034 43.2094 55.9617 43.2094 56.771V58.2387H16.7906V56.771C16.7906 55.9617 17.449 55.3034 18.2583 55.3034H41.7417ZM22.6615 53.542V47.0841H37.3386V53.542H22.6615ZM58.2388 42.681C58.2388 44.1377 57.0536 45.3229 55.5969 45.3229H4.40309C2.94645 45.3229 1.76121 44.1377 1.76121 42.681V37.6908H58.2387V42.681H58.2388ZM58.2388 35.9296H1.76121V4.40309C1.76121 2.94633 2.94645 1.76121 4.40309 1.76121H55.5968C57.0534 1.76121 58.2387 2.94633 58.2387 4.40309V35.9296H58.2388Z" fill="#2776EA"/>
<path d="M35.2836 5.0489H24.7161C23.2595 5.0489 22.0742 6.23402 22.0742 7.69078V30C22.0742 31.4568 23.2595 32.6419 24.7161 32.6419H35.2836C36.7402 32.6419 37.9255 31.4568 37.9255 30V7.69078C37.9255 6.23402 36.7402 5.0489 35.2836 5.0489ZM36.1643 30C36.1643 30.4856 35.7692 30.8807 35.2836 30.8807H24.7161C24.2305 30.8807 23.8354 30.4856 23.8354 30V25.5969H36.1641V30H36.1643ZM36.1643 23.8356H23.8354V10.3327H36.1641V23.8356H36.1643ZM36.1643 8.57144H23.8354V7.69078C23.8354 7.20515 24.2305 6.81012 24.7161 6.81012H35.2836C35.7692 6.81012 36.1643 7.20515 36.1643 7.69078V8.57144Z" fill="#2776EA"/>
<path d="M17.8441 6.51668V10.2614L11.1284 3.54562L9.88281 4.79098L16.5987 11.5069H12.8539V13.2681H19.6054V6.51668H17.8441Z" fill="#2776EA"/>
<path d="M50.1171 4.79098L48.8715 3.54562L42.1559 10.2614V6.51668H40.3945V13.2681H47.1461V11.5069H43.4012L50.1171 4.79098Z" fill="#2776EA"/>
<path d="M12.8539 24.4227V26.1839H16.5987L9.88281 32.8998L11.1284 34.1452L17.8441 27.4294V31.1742H19.6054V24.4227H12.8539Z" fill="#2776EA"/>
<path d="M43.4012 26.1839H47.1461V24.4227H40.3945V31.1742H42.1559V27.4294L48.8715 34.1452L50.1171 32.8998L43.4012 26.1839Z" fill="#2776EA"/>
<path d="M34.3979 40.6262H32.6367V42.3874H34.3979V40.6262Z" fill="#2776EA"/>
<path d="M27.3589 40.6262H25.5977V42.3874H27.3589V40.6262Z" fill="#2776EA"/>
<path d="M30.8784 40.6262H29.1172V42.3874H30.8784V40.6262Z" fill="#2776EA"/>
<path d="M30.8784 27.3581H29.1172V29.1193H30.8784V27.3581Z" fill="#2776EA"/>
<path d="M12.5034 17.9647H10.7422V19.7259H12.5034V17.9647Z" fill="#2776EA"/>
<path d="M16.0268 17.9647H14.2656V19.7259H16.0268V17.9647Z" fill="#2776EA"/>
<path d="M19.5542 17.9647H17.793V19.7259H19.5542V17.9647Z" fill="#2776EA"/>
<path d="M49.2534 17.9647H47.4922V19.7259H49.2534V17.9647Z" fill="#2776EA"/>
<path d="M45.7339 17.9647H43.9727V19.7259H45.7339V17.9647Z" fill="#2776EA"/>
<path d="M42.2143 17.9647H40.4531V19.7259H42.2143V17.9647Z" fill="#2776EA"/>
<path d="M29.293 12.094V13.8552H32.6394V16.1448H34.4006V12.094H29.293Z" fill="#2776EA"/>
<path d="M27.5346 12.094H25.7734V13.8552H27.5346V12.094Z" fill="#2776EA"/>
</svg>
