<svg width="90" height="60" viewBox="0 0 90 60" fill="none" xmlns="http://www.w3.org/2000/svg">
<path d="M72.638 0C75.0526 1.21534 75.9567 3.24484 75.7362 6.0649C75.5818 7.9528 75.7031 9.85251 75.7031 11.882C74.788 11.882 73.939 11.882 72.9246 11.882C72.9246 9.71091 72.9246 7.51622 72.9246 5.33333C72.9136 3.38643 72.5498 2.99705 70.6864 2.99705C48.8112 2.99705 26.9471 2.99705 5.07187 2.99705C3.1203 2.99705 2.78953 3.35103 2.78953 5.42773C2.78953 16.531 2.78953 27.6342 2.78953 38.7375C2.78953 39.2802 2.78953 39.8112 2.78953 40.531C3.47313 40.531 4.01339 40.531 4.55365 40.531C22.4044 40.531 40.2552 40.5428 58.106 40.5074C59.4842 40.5074 60.675 40.5192 61.1381 42.2419C61.2373 42.6077 61.546 42.9027 61.8768 43.41C42.1627 43.41 22.5808 43.41 2.81158 43.41C2.81158 45.1445 2.72337 46.7375 2.86671 48.295C2.91081 48.7434 3.61646 49.1917 4.09057 49.4749C4.37724 49.6519 4.81827 49.5221 5.19315 49.5221C26.8809 49.5221 48.5576 49.5221 70.2454 49.5221C71.8992 49.5221 73.5531 49.5221 75.2511 49.5221C74.6226 51.5044 73.2775 52.4838 71.2597 52.4838C65.5153 52.4956 59.7598 52.4956 54.0154 52.4956C50.5643 52.4956 47.1022 52.4956 43.5299 52.4956C43.5299 53.9941 43.5299 55.3982 43.5299 57.0266C44.6765 57.0266 45.8232 57.0501 46.9809 57.0148C47.7638 56.9912 48.5025 57.0502 48.8884 57.9233C49.3074 58.8437 48.6899 59.41 48.1938 60C41.2806 60 34.3564 60 27.4432 60C26.936 59.41 26.3406 58.8555 26.7486 57.9233C27.1345 57.0502 27.8732 56.9912 28.645 57.003C29.7917 57.0266 30.9494 57.003 32.1181 57.003C32.1181 55.41 32.1181 53.9941 32.1181 52.472C31.5117 52.472 31.0045 52.472 30.4974 52.472C22.1949 52.472 13.8925 52.3894 5.60111 52.5192C3.03209 52.59 1.13566 51.7994 0 49.2271C0 33.9233 0 18.6195 0 3.31563C0.683599 1.84071 1.67592 0.707965 3.08722 0.0117994C26.2745 -1.09891e-08 49.4507 0 72.638 0ZM35.1172 56.9558C36.9805 56.9558 38.7667 56.9558 40.5749 56.9558C40.5749 55.4454 40.5749 54.0413 40.5749 52.6372C38.6895 52.6372 36.9033 52.6372 35.1172 52.6372C35.1172 54.1357 35.1172 55.5044 35.1172 56.9558Z" fill="#2776EA"/>
<path d="M89.739 33.0141C88.89 33.8165 87.9969 34.548 87.2361 35.433C86.9384 35.787 86.7069 36.5421 86.8502 36.9433C87.6771 39.1734 86.6517 40.6483 85.2845 42.0997C84.0276 43.4448 82.6604 44.2 80.8963 43.4212C80.0693 43.0554 79.6173 43.3386 79.2204 44.141C77.9965 46.5952 73.9721 47.4802 71.9433 45.7221C71.4582 45.2973 71.1054 44.6601 70.7966 44.0584C70.4218 43.315 69.9366 43.0554 69.2089 43.3858C67.4338 44.1882 66.0886 43.4684 64.8096 42.1351C63.4204 40.6955 62.3509 39.197 63.2219 37.0141C63.5858 36.0938 63.2109 35.5864 62.4832 35.2442C60.5206 34.3121 60.2891 32.5421 60.2891 30.5244C60.2891 28.5893 60.8183 27.1026 62.5273 26.2649C63.2881 25.8873 63.5748 25.3681 63.2219 24.4831C62.3178 22.1941 63.5747 20.7191 64.953 19.256C66.1548 17.9935 67.4779 17.3799 69.1207 18.1115C69.9918 18.5008 70.4989 18.1941 70.8628 17.3091C71.5243 15.7162 72.7151 15.0082 74.3249 15.0318C74.788 15.0436 75.2621 15.0318 75.7252 15.0318C77.3239 15.02 78.5257 15.7162 79.1873 17.3091C79.5511 18.1823 80.0363 18.5008 80.9294 18.1115C82.925 17.2265 84.2922 18.3829 85.6043 19.7988C86.8171 21.0967 87.5669 22.5126 86.8833 24.3534C86.5084 25.3681 86.8502 25.8165 87.611 26.4065C88.4379 27.0554 89.0443 28.0112 89.75 28.8371C89.739 30.2177 89.739 31.61 89.739 33.0141ZM83.2999 24.4949C83.785 23.7634 84.9868 23.2442 83.752 21.9935C82.3737 20.6247 82.4509 20.5421 80.775 21.8873C79.7827 21.4389 78.8234 20.9079 77.8091 20.5775C77.0483 20.3298 76.5521 20.082 76.6403 19.0908C76.6734 18.7722 76.4088 18.1351 76.2324 18.1233C75.4165 18.0289 74.5454 17.9817 73.7626 18.2059C73.509 18.2767 73.4869 19.2442 73.3436 19.7988C73.3105 19.9404 73.2554 20.0702 73.2333 20.1056C71.8331 20.7309 70.521 21.3209 69.1979 21.9109C68.7348 21.5097 68.2717 21.1085 67.8307 20.7191C65.4712 22.3947 65.394 22.7014 66.7281 24.6247C66.2871 25.7339 65.7689 26.7958 65.4491 27.9286C65.2396 28.6719 64.9971 29.0613 64.2363 29.0023C62.8691 28.8843 63.1006 29.9463 63.0786 30.8312C63.0565 31.7162 62.9794 32.5775 64.2032 32.5775C64.5781 32.5775 65.1404 32.8371 65.2727 33.1439C65.813 34.3947 66.232 35.7162 66.6951 37.0259C65.4712 38.5716 65.4712 38.5716 66.2981 39.5038C67.5881 40.9669 67.5881 40.9669 69.253 39.6336C70.2454 40.082 71.1936 40.6247 72.2079 40.9551C72.9798 41.2029 73.4539 41.4507 73.3767 42.43C73.3546 42.7486 73.6082 43.3622 73.8067 43.3976C74.5785 43.5156 75.4275 43.6336 76.1442 43.3858C76.4529 43.2796 76.508 42.3121 76.6844 41.7339C76.7285 41.5923 76.7837 41.4507 76.7947 41.4153C78.1839 40.8017 79.507 40.2118 80.8301 39.6336C81.2932 40.0348 81.7563 40.4359 82.1973 40.8253C84.5127 39.256 84.623 38.843 83.322 36.9551C83.8732 35.5156 84.4245 34.0997 84.9869 32.6365C85.8358 32.436 87.1148 32.8961 86.9825 31.0318C86.8612 29.2737 86.9825 29.2619 84.9427 28.8371C84.4135 27.4212 83.8843 26.0407 83.2999 24.4949Z" fill="#2776EA"/>
<path d="M20.0445 21.7576C23.3742 24.1411 26.5166 26.3829 29.6589 28.6248C30.0118 28.8726 30.3536 29.1322 30.7064 29.3682C31.5003 29.9228 31.7759 30.7133 31.2797 31.5511C30.7615 32.4242 29.9456 32.377 29.1848 31.8461C27.3105 30.5363 25.4471 29.1912 23.5837 27.8579C21.4447 26.3357 19.3057 24.8254 17.1777 23.2797C15.8105 22.2885 15.8105 21.2266 17.1777 20.2472C21.0809 17.4272 25.0061 14.6307 28.9312 11.8343C29.9456 11.1145 30.8277 11.1735 31.2797 11.9405C31.7428 12.7192 31.4672 13.6042 30.4859 14.3121C27.0789 16.7546 23.6609 19.1853 20.0445 21.7576Z" fill="#2776EA"/>
<path d="M55.6689 21.7697C53.574 20.2593 51.6114 18.8434 49.6378 17.4393C48.1603 16.3891 46.6719 15.3508 45.2165 14.277C44.2241 13.5455 43.9485 12.6605 44.4998 11.9171C45.1834 11.0086 45.9552 11.2446 46.727 11.7992C50.6853 14.6192 54.6545 17.4393 58.6018 20.2829C59.8918 21.2151 59.9028 22.2888 58.6238 23.221C54.6435 26.1 50.6411 28.9437 46.6388 31.7874C45.8449 32.3537 44.9959 32.4835 44.4447 31.5042C43.9044 30.5484 44.3895 29.8169 45.1834 29.2505C48.0611 27.2092 50.9388 25.1561 53.8056 23.1148C54.3789 22.7018 54.9522 22.2888 55.6689 21.7697Z" fill="#2776EA"/>
<path d="M33.6064 33.1325C33.849 32.0942 34.0475 31.28 34.2459 30.4541C35.8667 23.9526 37.4986 17.4511 39.1193 10.9496C39.1634 10.7609 39.2186 10.5603 39.2627 10.3715C39.4942 9.40392 40.0676 8.83755 40.9937 9.10893C41.8978 9.36852 42.1955 10.1355 41.953 11.1148C41.523 12.8493 41.0819 14.5839 40.6409 16.3066C39.2517 21.8405 37.8734 27.3744 36.4732 32.9083C36.1203 34.3007 35.2162 34.8788 34.4003 34.2653C34.0365 33.9821 33.827 33.4511 33.6064 33.1325Z" fill="#2776EA"/>
<path d="M37.8189 47.9997C36.0989 47.9997 34.3679 47.9879 32.6478 48.0115C31.6776 48.0233 30.9278 47.6576 30.9058 46.5484C30.8837 45.4275 31.6224 45.0381 32.6037 45.0381C36.0989 45.0499 39.5941 45.0499 43.0893 45.0499C44.0485 45.0499 44.8093 45.3803 44.8203 46.513C44.8313 47.634 44.1147 48.0233 43.1334 48.0115C41.3582 47.9879 39.5941 47.9997 37.8189 47.9997Z" fill="#2776EA"/>
<path d="M75.0633 36.7201C71.91 36.7319 69.4512 34.1242 69.4512 30.7732C69.4402 27.4222 71.8769 24.8263 75.0413 24.8145C78.1506 24.8027 80.6093 27.4694 80.5873 30.8322C80.5652 34.1242 78.1395 36.7083 75.0633 36.7201ZM77.8418 30.7142C77.8198 29.1331 76.5408 27.7643 75.0744 27.7525C73.4977 27.7525 72.1856 29.1095 72.1856 30.7378C72.1856 32.3779 73.4977 33.782 75.0303 33.782C76.5629 33.7938 77.8639 32.3661 77.8418 30.7142Z" fill="#2776EA"/>
</svg>
