<svg width="60" height="61" viewBox="0 0 60 61" fill="none" xmlns="http://www.w3.org/2000/svg">
<path d="M46.4147 46.368C46.2661 46.368 46.1658 46.368 46.0617 46.368C41.3326 46.368 36.5998 46.368 31.8707 46.368C29.3148 46.368 27.5057 44.5212 27.5057 41.9046C27.5057 33.8008 27.5057 25.6932 27.5057 17.5893C27.5057 15.0638 29.3371 13.1904 31.8224 13.1904C36.5515 13.1866 41.2843 13.1904 46.0135 13.1904C46.136 13.1904 46.2586 13.1904 46.3998 13.1904C46.3998 12.3372 46.3998 11.5029 46.3998 10.6459C34.6903 10.6459 22.9809 10.6459 11.238 10.6459C11.2305 10.7445 11.2231 10.8431 11.2231 10.9455C11.2231 11.6015 11.2268 12.2576 11.2231 12.9098C11.2194 13.4673 10.8999 13.8313 10.4244 13.8389C9.94146 13.8427 9.60712 13.4673 9.60712 12.9022C9.60712 10.5321 9.60341 8.16203 9.60712 5.78815C9.61084 2.57998 11.981 0.149214 15.1275 0.145422C24.2662 0.14163 33.405 0.14163 42.5474 0.145422C45.6642 0.145422 48.0269 2.57619 48.0307 5.75781C48.0307 8.10894 48.0307 10.4601 48.0307 12.8112C48.0307 12.925 48.0307 13.0387 48.0307 13.1866C48.1755 13.1866 48.2833 13.1866 48.3947 13.1866C50.8391 13.1866 53.2873 13.1828 55.7317 13.1866C57.5446 13.1904 59.1049 14.2484 59.7067 15.9435C59.8887 16.4593 59.9853 17.0319 59.9853 17.5817C60.0039 25.7083 60.0002 33.8311 59.9964 41.9577C59.9964 44.1458 58.6368 45.8674 56.5899 46.2846C56.2964 46.3452 55.9918 46.3642 55.6908 46.3642C53.265 46.3718 50.8391 46.368 48.4096 46.368C48.2981 46.368 48.1867 46.368 48.0307 46.368C48.0307 46.5159 48.0307 46.6372 48.0307 46.7586C48.0307 49.379 48.0344 52.0031 48.0307 54.6235C48.0269 57.2287 46.3515 59.3827 43.8699 59.9894C43.8179 60.0008 43.7622 60.0084 43.6916 60.0197C43.6247 59.8718 43.5579 59.7277 43.4947 59.5836C43.4836 59.5874 43.4687 59.5912 43.4576 59.595C43.4762 59.7429 43.4984 59.8908 43.5244 60.0804C43.2235 60.1032 42.9338 60.1373 42.6477 60.1373C33.431 60.1411 24.2179 60.1487 15.0012 60.1335C12.0181 60.1297 9.62941 57.7027 9.61455 54.6576C9.59226 50.3384 9.60712 46.0229 9.61083 41.7036C9.61083 41.1689 9.9266 40.8163 10.4021 40.8049C10.8925 40.7973 11.2231 41.1424 11.2231 41.6998C11.2268 43.9182 11.2268 46.1329 11.2268 48.3513C11.2268 48.465 11.2268 48.5788 11.2268 48.7305C11.3643 48.7305 11.4646 48.7305 11.5649 48.7305C23.0737 48.7305 34.5826 48.7305 46.0915 48.7343C46.3478 48.7343 46.4332 48.6736 46.4258 48.4006C46.3998 47.7445 46.4147 47.0809 46.4147 46.368ZM29.1291 29.7659C29.1291 33.8425 29.1291 37.9191 29.1291 41.9956C29.1291 43.577 30.2398 44.707 31.7927 44.707C39.7426 44.707 47.6926 44.707 55.6388 44.707C57.2808 44.707 58.3767 43.5921 58.3767 41.9198C58.3767 33.8235 58.3767 25.7311 58.3767 17.6348C58.3767 15.9663 57.2734 14.8476 55.6351 14.8476C47.7037 14.8476 39.7761 14.8476 31.8447 14.8476C30.2213 14.8476 29.1291 15.9625 29.1291 17.6235C29.1254 21.6735 29.1291 25.7197 29.1291 29.7659ZM28.8207 50.3725C23.07 50.3725 17.323 50.3763 11.5723 50.3649C11.2788 50.3649 11.2083 50.4483 11.212 50.7365C11.2268 51.9993 11.2157 53.2621 11.2194 54.5249C11.2231 56.7888 12.88 58.4915 15.1089 58.4953C24.2477 58.4991 33.3864 58.4991 42.5251 58.4953C44.7764 58.4953 46.4109 56.8078 46.4147 54.5022C46.4147 53.2507 46.4147 51.9955 46.4147 50.7441C46.4147 50.3725 46.4147 50.3725 46.0432 50.3725C40.2999 50.3725 34.5603 50.3725 28.8207 50.3725ZM46.4221 8.94322C46.4221 7.87762 46.4221 6.84616 46.4221 5.81469C46.4184 3.50148 44.7429 1.79501 42.4843 1.79122C39.5197 1.79122 36.5552 1.79122 33.5907 1.79122C27.4239 1.79122 21.2609 1.79122 15.0941 1.79122C13.2738 1.79122 11.7172 2.97437 11.342 4.78323C11.0597 6.14461 11.2231 7.54012 11.2528 8.94322C22.966 8.94322 34.6792 8.94322 46.4221 8.94322Z" fill="#2776EA"/>
<path d="M20.2356 21.1655C20.0981 21.5371 19.9941 21.9277 19.8195 22.2804C19.3811 23.1678 19.3663 23.1602 19.7712 24.0627C19.8121 24.1499 19.9198 24.2334 20.0127 24.2637C20.3433 24.3737 20.6851 24.4571 21.0194 24.5633C21.8107 24.8098 22.3419 25.4886 22.3791 26.3266C22.4051 26.903 22.4088 27.4832 22.4014 28.0597C22.3865 28.8636 21.8813 29.5651 21.1309 29.8344C20.8114 29.9519 20.4845 30.0505 20.1576 30.1415C19.9681 30.1946 19.8306 30.2781 19.7972 30.4904C19.7935 30.5094 19.7861 30.5283 19.7749 30.5435C19.422 31.0782 19.5372 31.5636 19.8864 32.0604C20.2356 32.5609 20.4399 33.1373 20.2467 33.7517C20.1353 34.1043 19.9347 34.4494 19.708 34.7452C19.4183 35.1206 19.0579 35.443 18.7273 35.7843C18.0958 36.4403 17.219 36.592 16.4166 36.1787C16.1231 36.027 15.8334 35.8601 15.5399 35.7046C15.4656 35.6667 15.369 35.6098 15.3059 35.6326C14.9864 35.7539 14.6743 35.8905 14.3697 36.0383C14.3103 36.0687 14.2768 36.1749 14.2545 36.2545C14.1579 36.5768 14.0762 36.903 13.9833 37.2253C13.7344 38.0937 13.0212 38.6511 12.1444 38.6663C11.6244 38.6739 11.108 38.6777 10.5879 38.6739C9.75575 38.6701 9.05363 38.1468 8.78615 37.3428C8.68213 37.0243 8.58926 36.6982 8.48896 36.3796C8.4741 36.3341 8.46667 36.2848 8.44809 36.2431C8.36265 36.0345 7.39677 35.6781 7.19988 35.7881C6.91011 35.9473 6.62406 36.118 6.3343 36.281C5.53559 36.7247 4.67001 36.6072 4.01246 35.9663C3.64469 35.606 3.27691 35.2458 2.92028 34.8742C2.32217 34.2484 2.19586 33.3535 2.58593 32.5761C2.61937 32.5078 2.64909 32.432 2.69367 32.3751C3.12831 31.8101 3.18775 31.2299 2.77539 30.6269C2.70481 30.5283 2.61194 30.4146 2.5042 30.3767C2.18472 30.2629 1.85409 30.1833 1.52718 30.0847C0.691318 29.8306 0.156367 29.1101 0.141507 28.2189C0.134077 27.707 0.122933 27.1988 0.119218 26.6869C0.111788 25.7844 0.639307 25.0449 1.47888 24.7681C1.56061 24.7415 1.63862 24.7036 1.72407 24.696C2.42248 24.6164 2.83855 24.222 2.97229 23.5242C2.99458 23.4067 3.002 23.2588 2.94999 23.1564C2.80511 22.853 2.6268 22.5686 2.46705 22.2728C2.04727 21.4803 2.16614 20.5777 2.77539 19.9255C3.10602 19.569 3.44037 19.2164 3.77842 18.8637C4.4434 18.1773 5.33127 18.037 6.16341 18.4883C6.2117 18.5148 6.27114 18.5338 6.31201 18.5717C6.86553 19.0343 7.43763 19.0571 8.02459 18.6513C8.11746 18.5869 8.21405 18.4958 8.24749 18.3935C8.35522 18.0749 8.43323 17.7488 8.52982 17.4265C8.80101 16.5088 9.50685 15.9703 10.443 15.9665C10.9148 15.9627 11.3866 15.9589 11.8584 15.9551C12.7648 15.9513 13.4781 16.4746 13.7567 17.3544C13.8607 17.6843 13.9425 18.0218 14.0614 18.3442C14.1059 18.4617 14.2211 18.5641 14.3251 18.6362C14.8712 19.0154 15.3764 18.9092 15.8891 18.5262C16.4018 18.1432 16.9962 17.9574 17.6277 18.1621C17.9175 18.2569 18.2072 18.4086 18.4375 18.6096C18.8536 18.9699 19.2325 19.3794 19.6152 19.7776C19.9755 20.153 20.1538 20.6081 20.1501 21.1352C20.1836 21.1466 20.2096 21.1541 20.2356 21.1655ZM3.95303 33.5128C4.01618 33.6038 4.07191 33.7138 4.15363 33.7972C4.45083 34.1043 4.7666 34.3963 5.06008 34.7111C5.24211 34.9045 5.40928 34.9272 5.63589 34.7907C6.04082 34.5442 6.46061 34.3243 6.86925 34.0816C7.1813 33.8958 7.48221 33.9072 7.80912 34.0626C8.26235 34.2788 8.72671 34.4684 9.19851 34.6315C9.544 34.7528 9.76318 34.9538 9.86348 35.3102C9.99722 35.7805 10.1495 36.2469 10.2833 36.7209C10.3464 36.9371 10.4616 37.0471 10.6882 37.0395C11.1303 37.0281 11.5761 37.0129 12.0181 37.0167C12.2708 37.0205 12.3971 36.9143 12.4565 36.6716C12.5754 36.1976 12.7166 35.7274 12.8429 35.2534C12.9357 34.9083 13.1512 34.7073 13.4818 34.5822C13.9499 34.4077 14.4106 34.2105 14.8601 33.9868C15.1944 33.8199 15.499 33.801 15.8259 33.9868C16.2383 34.2219 16.6618 34.4343 17.0704 34.6694C17.2896 34.7945 17.4531 34.7642 17.6203 34.5784C17.9063 34.2598 18.2035 33.9489 18.5081 33.6455C18.6902 33.4635 18.7236 33.289 18.5861 33.0577C18.3372 32.6368 18.1106 32.2045 17.8766 31.776C17.7168 31.4878 17.7206 31.1958 17.8506 30.8924C18.0586 30.3994 18.2592 29.8988 18.4375 29.3945C18.5527 29.0684 18.7459 28.856 19.0728 28.7574C19.5446 28.6171 20.009 28.4616 20.4808 28.3213C20.6888 28.2568 20.7891 28.1317 20.7817 27.9004C20.7705 27.4567 20.7631 27.013 20.7742 26.5731C20.7817 26.3039 20.6665 26.1674 20.4176 26.1029C19.9532 25.9778 19.4926 25.8337 19.0282 25.7085C18.6976 25.6175 18.5044 25.4051 18.3855 25.0828C18.1998 24.5898 17.9992 24.1006 17.7763 23.6228C17.624 23.3005 17.6128 23.0009 17.78 22.6862C18.0066 22.2614 18.2146 21.8329 18.4524 21.4158C18.5824 21.1845 18.5639 21.01 18.3707 20.8318C18.0512 20.5322 17.7429 20.2213 17.4382 19.9027C17.2711 19.7283 17.1113 19.7169 16.907 19.8383C16.4909 20.0885 16.0674 20.3199 15.6513 20.5626C15.369 20.7294 15.0867 20.7408 14.7858 20.6157C14.2731 20.3995 13.753 20.1909 13.2366 19.9824C12.9432 19.8648 12.7574 19.6562 12.6683 19.3491C12.5308 18.8788 12.3822 18.4124 12.2522 17.9384C12.1853 17.6995 12.0479 17.5857 11.8027 17.5971C11.368 17.6123 10.9334 17.6274 10.5024 17.6236C10.261 17.6199 10.1384 17.726 10.0789 17.9536C9.95636 18.4162 9.81147 18.8751 9.69259 19.3415C9.59972 19.7131 9.38054 19.9293 9.03134 20.062C8.56326 20.2402 8.10632 20.4412 7.65681 20.6687C7.3299 20.8318 7.0327 20.847 6.71693 20.6687C6.29715 20.4298 5.86622 20.2099 5.44643 19.971C5.25325 19.861 5.10094 19.8724 4.94491 20.043C4.63657 20.3805 4.31709 20.7105 3.99389 21.0366C3.83415 21.1996 3.81929 21.3513 3.93445 21.5485C4.17964 21.9695 4.40625 22.4056 4.64772 22.8303C4.82975 23.1488 4.82603 23.456 4.67372 23.7897C4.46197 24.2599 4.26508 24.7415 4.09791 25.2307C3.97903 25.5834 3.77471 25.7995 3.4255 25.9019C2.97228 26.0346 2.52649 26.1863 2.07327 26.3191C1.83551 26.3873 1.7315 26.5314 1.74264 26.7817C1.7575 27.2254 1.76865 27.6691 1.76865 28.109C1.76865 28.3516 1.86895 28.4806 2.09556 28.5413C2.57107 28.6702 3.03915 28.8143 3.51095 28.947C3.83043 29.038 4.01618 29.2428 4.13877 29.5538C4.32824 30.0543 4.5437 30.5473 4.7666 31.0365C4.90776 31.3475 4.93005 31.6432 4.7666 31.9466C4.53998 32.3789 4.31337 32.8112 4.09048 33.2473C4.03475 33.3156 4.00504 33.3952 3.95303 33.5128Z" fill="#2776EA"/>
<path d="M43.7552 17.2715C47.4924 17.2715 51.2296 17.2715 54.9668 17.2715C55.7284 17.2715 55.9996 17.5521 55.9996 18.3371C55.9996 20.1952 55.9996 22.0572 55.9996 23.9153C55.9996 24.5941 55.695 24.9089 55.0337 24.9089C47.511 24.9089 39.9919 24.9089 32.4692 24.9089C31.8005 24.9089 31.4922 24.5979 31.4922 23.9267C31.4922 22.0306 31.4922 20.1308 31.4922 18.2347C31.4922 17.5938 31.8005 17.2753 32.4321 17.2753C36.2064 17.2715 39.9808 17.2715 43.7552 17.2715ZM54.3576 18.9438C47.2584 18.9438 40.1963 18.9438 33.1416 18.9438C33.1416 20.3924 33.1416 21.8107 33.1416 23.2328C40.226 23.2328 47.2844 23.2328 54.3576 23.2328C54.3576 21.7993 54.3576 20.3773 54.3576 18.9438Z" fill="#2776EA"/>
<path d="M51.2068 34.2931C49.914 34.2931 48.6212 34.2931 47.3284 34.2931C46.734 34.2931 46.4256 33.9784 46.4256 33.364C46.4219 31.4452 46.4219 29.5302 46.4256 27.6114C46.4256 26.9856 46.7377 26.6709 47.3507 26.6709C49.9362 26.6709 52.5256 26.6709 55.1111 26.6709C55.6647 26.6709 55.999 27.0008 56.0027 27.5621C56.0064 29.5074 56.0064 31.4566 56.0027 33.402C56.0027 33.9746 55.6795 34.2969 55.1186 34.2969C53.8146 34.2931 52.5107 34.2931 51.2068 34.2931ZM54.357 32.6435C54.357 31.1874 54.357 29.7691 54.357 28.3357C52.2469 28.3357 50.1591 28.3357 48.0639 28.3357C48.0639 29.7805 48.0639 31.2101 48.0639 32.6435C50.1666 32.6435 52.2506 32.6435 54.357 32.6435Z" fill="#2776EA"/>
<path d="M36.262 34.2931C34.9766 34.2931 33.695 34.2931 32.4096 34.2931C31.8078 34.2931 31.4958 33.986 31.492 33.3754C31.4883 31.4376 31.4883 29.5036 31.492 27.5658C31.492 26.997 31.8227 26.6709 32.3762 26.6709C34.9729 26.6709 37.5697 26.6709 40.1627 26.6709C40.7459 26.6709 41.0543 26.9856 41.058 27.5772C41.0617 29.515 41.0617 31.449 41.058 33.3868C41.058 33.986 40.7534 34.2931 40.1664 34.2931C38.8662 34.2931 37.5622 34.2931 36.262 34.2931ZM39.442 32.6435C39.442 31.1911 39.442 29.7691 39.442 28.347C37.3282 28.347 35.2293 28.347 33.1415 28.347C33.1415 29.7956 33.1415 31.2139 33.1415 32.6435C35.2478 32.6435 37.3319 32.6435 39.442 32.6435Z" fill="#2776EA"/>
<path d="M51.2409 36.205C52.5448 36.205 53.845 36.2013 55.149 36.2088C55.8028 36.2126 56.1929 36.8497 55.8994 37.411C55.7248 37.7485 55.4276 37.8546 55.071 37.8546C53.6927 37.8508 52.3145 37.8546 50.9362 37.8546C49.7289 37.8546 48.5178 37.8584 47.3105 37.8546C46.7941 37.8546 46.4523 37.5475 46.4226 37.0772C46.3929 36.5881 46.7569 36.2088 47.2733 36.2088C48.5995 36.2013 49.9221 36.205 51.2409 36.205Z" fill="#2776EA"/>
<path d="M36.2919 36.2048C37.6033 36.2048 38.9146 36.201 40.2297 36.2048C40.6235 36.2048 40.9244 36.4285 41.0284 36.7736C41.1287 37.1111 41.0284 37.4904 40.7461 37.6724C40.5938 37.771 40.3969 37.8392 40.2186 37.843C37.5958 37.8544 34.9694 37.8506 32.3466 37.8506C31.8563 37.8506 31.4959 37.4979 31.4922 37.0353C31.4885 36.5613 31.8488 36.2048 32.3578 36.2048C33.6692 36.201 34.9805 36.2048 36.2919 36.2048Z" fill="#2776EA"/>
<path d="M34.9949 41.4198C34.0996 41.4198 33.2005 41.4274 32.3052 41.416C31.8632 41.4122 31.5474 41.105 31.4991 40.6803C31.4545 40.2935 31.7146 39.9143 32.0935 39.8081C32.1752 39.7854 32.2607 39.7778 32.3461 39.7778C34.1107 39.7778 35.8753 39.7702 37.6399 39.7778C38.3086 39.7816 38.7024 40.4376 38.3829 41.0026C38.2157 41.2984 37.9557 41.4198 37.625 41.4198C36.7483 41.4198 35.8716 41.4198 34.9949 41.4198Z" fill="#2776EA"/>
<path d="M49.9439 39.7769C50.8207 39.7769 51.7011 39.7693 52.5778 39.7807C53.1611 39.7845 53.5326 40.2775 53.3877 40.8273C53.2911 41.1989 52.9865 41.4189 52.5518 41.4189C51.3816 41.4227 50.2114 41.4189 49.0412 41.4189C48.4654 41.4189 47.8896 41.4227 47.3138 41.4189C46.7937 41.4151 46.4333 41.0852 46.4259 40.615C46.4185 40.1258 46.7788 39.7807 47.31 39.7769C48.1868 39.7731 49.0635 39.7769 49.9439 39.7769Z" fill="#2776EA"/>
<path d="M28.8063 57.1418C27.3314 57.1343 26.1352 55.9018 26.1575 54.4077C26.1761 52.925 27.3983 51.6963 28.8323 51.7191C30.3183 51.7418 31.481 52.9515 31.4736 54.4646C31.4625 55.9549 30.2737 57.1494 28.8063 57.1418ZM29.8502 54.4229C29.8427 53.8389 29.3635 53.3611 28.7951 53.3724C28.2267 53.3876 27.7661 53.8806 27.7772 54.4646C27.7921 55.0334 28.2639 55.5036 28.8211 55.4998C29.397 55.496 29.8576 55.0107 29.8502 54.4229Z" fill="#2776EA"/>
<path d="M28.8056 6.2013C27.5053 6.2013 26.2014 6.2051 24.9012 6.2013C24.3142 6.2013 23.939 5.75762 24.0467 5.21535C24.1248 4.82096 24.4331 4.56689 24.8677 4.56309C25.5104 4.55551 26.1494 4.5593 26.7921 4.5593C28.7647 4.5593 30.7336 4.55551 32.7062 4.5593C33.3526 4.5593 33.739 5.05228 33.5681 5.63248C33.4604 5.99653 33.1632 6.19751 32.7137 6.19751C31.4097 6.20131 30.1095 6.2013 28.8056 6.2013Z" fill="#2776EA"/>
<path d="M11.2716 32.9172C8.30336 32.9172 5.91095 30.4902 5.90723 27.4792C5.90352 24.4227 8.2885 21.9806 11.2753 21.9844C14.199 21.9844 16.6322 24.4607 16.6248 27.4261C16.6174 30.4636 14.2287 32.9134 11.2716 32.9172ZM15.0014 27.4299C14.9977 25.3594 13.3185 23.6415 11.2865 23.634C9.22467 23.6264 7.52323 25.348 7.51951 27.4451C7.5158 29.5308 9.21352 31.2789 11.2382 31.2752C13.3148 31.2714 15.0014 29.5497 15.0014 27.4299Z" fill="#2776EA"/>
</svg>
