<svg width="46" height="60" viewBox="0 0 46 60" fill="none" xmlns="http://www.w3.org/2000/svg">
<path d="M42.8729 37.2253C41.4719 38.9953 43.2652 39.8233 43.7695 41.1651C42.957 42.6496 41.556 43.6488 40.2951 45.0478C39.5946 44.5624 39.0342 44.1342 38.4458 43.7345C37.4091 43.1064 36.4845 43.5061 36.2323 44.6766C36.0922 45.3332 35.9801 45.9899 35.84 46.7321C35.2797 46.932 34.7193 47.1318 34.1028 47.3602C34.0468 47.503 33.9627 47.7028 33.9627 47.8741C33.9347 50.5006 33.9627 53.1557 33.9347 55.7822C33.9067 58.6657 32.6458 59.979 29.7879 59.979C21.354 60.0075 12.9202 60.0075 4.48639 59.979C1.26416 59.979 0.059328 58.6657 0.059328 55.3825C0.059328 53.9551 0.0313087 52.5276 0.059328 51.1287C0.0873474 49.3301 0.143386 49.2445 2.0487 49.2445C5.10281 49.2159 8.15692 49.2445 11.211 49.2445C17.5154 49.2445 23.8197 49.2445 30.1241 49.273C30.7125 49.273 31.3009 49.273 32.0574 49.273C32.1415 48.5878 32.1975 48.0169 32.2536 47.3602C30.8526 47.1318 30.3763 46.3325 30.2081 44.9907C30.04 43.5917 28.9193 43.2206 27.7144 44.02C25.9492 45.1619 25.9492 45.1619 24.4362 43.6488C24.212 43.4204 23.9598 43.1921 23.7077 42.9351C22.3627 41.5362 22.2787 41.4791 23.3994 39.9089C24.1279 38.9097 23.7637 38.196 23.2593 37.3966C23.1193 37.3395 23.0072 37.2538 22.8951 37.2253C20.3453 36.9683 20.3453 36.9683 20.3453 34.3989C20.3453 34.2562 20.3453 34.142 20.3453 33.9992C20.3453 31.7153 20.3453 31.7153 22.6149 31.1443C22.8671 31.0872 23.1193 31.0016 23.3714 30.9445C23.5676 30.402 23.7357 29.9167 23.9038 29.4314C23.3434 28.632 22.811 27.8612 22.1666 26.9476C23.4275 25.7771 24.6323 24.6351 25.9772 23.3789C26.6777 23.8357 27.5183 24.3496 28.2468 24.835C30.6004 24.7493 29.5637 22.4939 30.7125 21.2092C31.8333 21.2092 33.2342 21.1807 34.6072 21.1807C35.5879 21.1807 35.728 21.9515 35.8961 22.6938C36.2043 24.2069 36.2043 24.2069 37.5772 24.7779C37.6893 24.7493 37.8294 24.7208 37.9415 24.6351C40.127 22.9222 40.127 22.9222 42.1164 24.9492C42.3405 25.1775 42.5647 25.463 42.8169 25.6629C43.6855 26.3481 43.6574 27.1189 43.069 27.9468C42.957 28.1181 42.8169 28.2609 42.7048 28.4321C41.9483 29.7454 42.4246 30.8303 43.8536 31.0301C45.8429 31.3442 45.8429 31.3442 45.871 33.3997C45.871 33.5424 45.871 33.6566 45.871 33.7994C45.7869 36.6829 45.7869 36.6829 42.8729 37.2253ZM1.96464 51.1002C1.96464 52.9273 1.96464 54.6688 1.96464 56.4103C1.96464 57.4952 2.72117 57.9234 3.56175 58.1804C3.98204 58.2946 4.48638 58.2375 4.93469 58.2375C12.6961 58.2375 20.4574 58.2375 28.2188 58.2375C28.8072 58.2375 29.4236 58.266 30.012 58.2089C31.2729 58.0947 32.0294 57.4381 32.1135 56.1819C32.2255 54.5261 32.1415 52.8417 32.1415 51.0716C21.9705 51.1002 12.0516 51.1002 1.96464 51.1002ZM34.1589 45.1905C34.5792 42.3356 33.6545 42.9351 37.9975 41.2507C38.67 41.6504 39.3144 42.0786 39.9589 42.4783C40.5473 42.0501 41.0797 41.6789 41.7521 41.2222C40.2951 39.9089 40.099 38.7955 40.6313 37.1967C41.2197 35.4838 42.4526 35.3125 43.8256 34.9985C43.7695 34.2276 43.7415 33.571 43.7135 32.8858C42.8729 32.7716 42.1724 32.6574 41.3598 32.5432C40.8835 31.4584 40.4352 30.3449 39.9589 29.2315C40.3792 28.4321 40.7714 27.6899 41.2198 26.8334C40.7434 26.3766 40.3231 26.0055 39.8748 25.5772C39.0623 26.0911 38.3618 26.5479 37.7454 26.9761C36.6806 26.5194 35.5879 26.3481 34.9154 25.6914C34.271 25.0919 34.1028 23.9785 33.7106 23.0364C33.1502 23.0364 32.5898 23.0364 31.9173 23.0364C31.6932 24.4353 31.6932 25.6629 29.928 26.3766C28.2188 27.0903 27.2101 26.5765 25.9212 25.6058C25.4449 26.1482 24.9965 26.605 24.5202 27.1189C25.585 28.318 26.0613 29.3172 25.4168 30.973C24.7724 32.6003 23.6236 32.9144 22.1946 33.257C22.2507 33.9707 22.3067 34.5988 22.3347 35.2268C25.3888 35.1983 26.9019 38.824 24.7444 41.3078C25.1647 41.7646 25.613 42.2499 26.0613 42.7353C26.8458 42.1928 27.5743 41.7075 28.2188 41.2793C30.0961 42.0215 32.3656 42.2214 31.9454 45.1334C32.4217 45.1905 32.7579 45.2476 33.0661 45.2476C33.4304 45.2761 33.7386 45.219 34.1589 45.1905Z" fill="#2776EA"/>
<path d="M1.96364 8.90416C1.96364 9.81773 1.96364 10.4744 1.96364 11.1595C1.96364 22.1795 1.96364 33.228 1.96364 44.248C1.96364 44.7904 1.99166 45.3614 1.82355 45.8468C1.71147 46.1323 1.23514 46.4748 0.926926 46.4463C0.646732 46.4463 0.198423 46.0751 0.114365 45.7611C-0.0257321 45.2758 0.00228732 44.7048 0.00228732 44.1624C0.00228732 31.0297 0.00228732 17.8971 0.00228732 4.76453C0.00228732 1.25299 1.20712 0.0539262 4.70954 0.025377C11.5463 -0.00317213 18.383 0.025377 25.2197 0.025377C26.8728 0.025377 28.554 -0.0317213 30.2071 0.025377C32.5888 0.111024 33.8497 1.45283 33.8777 3.87951C33.9057 6.93427 33.8777 9.96048 33.8777 13.0152C33.8777 13.2722 33.9337 13.6148 33.8216 13.8146C33.6255 14.1287 33.3173 14.5283 33.0371 14.5283C32.7569 14.5283 32.3086 14.1001 32.2806 13.8432C32.1685 12.7583 32.1965 11.6734 32.1685 10.6171C32.1405 10.1603 32.1125 9.70354 32.0564 8.96126C22.0535 8.78996 12.1347 8.98981 1.96364 8.90416ZM1.96364 6.93427C12.1347 6.93427 22.0535 6.93427 32.1965 6.93427C32.1965 6.0778 32.2245 5.33552 32.1965 4.62179C32.1125 2.5377 31.468 1.88107 29.3946 1.82397C29.0584 1.82397 28.7221 1.82397 28.3859 1.82397C20.5405 1.82397 12.6951 1.82397 4.87765 1.82397C4.54142 1.82397 4.20519 1.79542 3.86896 1.82397C2.58007 1.96672 2.01968 2.5948 1.96364 3.93661C1.93562 4.87873 1.96364 5.82085 1.96364 6.93427Z" fill="#2776EA"/>
<path d="M19.6157 11.3016C20.2539 11.4789 20.1722 12.4515 19.944 13.0733C19.9372 13.0918 19.9305 13.1103 19.9239 13.1287C18.3549 17.1827 16.7577 21.2652 15.1887 25.3192C15.0486 25.6903 14.9365 26.1186 14.6563 26.4041C14.4321 26.6325 13.9278 26.8894 13.6756 26.7752C13.3954 26.661 13.1152 26.1757 13.1152 25.8616C13.1433 25.3477 13.3394 24.8053 13.5355 24.32C14.9925 20.58 16.4495 16.8115 17.9065 13.0716C18.1027 12.5863 18.2708 12.0438 18.607 11.6441C18.8032 11.3872 19.3355 11.2445 19.6157 11.3016Z" fill="#2776EA"/>
<path d="M23.0217 14.2336L23.0217 14.2336C23.1611 14.0034 23.3277 13.8911 23.5201 13.9005C23.6984 13.9092 23.8666 14.0232 24.0146 14.1553C24.2634 14.3755 24.5123 14.5956 24.7613 14.8158C26.0079 15.9184 27.2562 17.0224 28.4987 18.1342L28.4988 18.1343C28.7558 18.3648 28.8982 18.6248 28.9 18.8969C28.9018 19.1693 28.7626 19.4297 28.5075 19.6607L28.5072 19.6609C27.0039 21.0114 25.4924 22.3452 23.9812 23.6787L23.0217 14.2336ZM23.0217 14.2336L23.0214 14.2341M23.0217 14.2336L23.0214 14.2341M23.0214 14.2341C22.7809 14.6368 22.9135 15.1025 23.3103 15.4658L23.0214 14.2341ZM23.299 22.3393L23.2992 22.3391C24.1135 21.6218 24.9277 20.9013 25.7403 20.1823C26.012 19.942 26.2834 19.7018 26.5546 19.462L26.5547 19.4619C26.7485 19.2885 26.9423 19.1152 27.1749 18.9061L27.1442 18.8786C26.3956 18.2083 25.6903 17.5767 24.9811 16.9501C24.842 16.8273 24.7025 16.7047 24.563 16.5821C24.1436 16.2136 23.7233 15.8443 23.3103 15.4659L23.299 22.3393ZM23.299 22.3393C23.1417 22.4788 23.0073 22.645 22.942 22.8428C22.8757 23.0436 22.8838 23.2673 22.9953 23.5124M23.299 22.3393L22.9953 23.5124M22.9953 23.5124C23.1075 23.7598 23.2648 23.8969 23.4601 23.9091M22.9953 23.5124L23.4601 23.9091M23.4601 23.9091C23.6442 23.9207 23.8251 23.817 23.9811 23.6789L23.4601 23.9091Z" fill="#2776EA" stroke="#2776EA" stroke-width="0.2"/>
<path d="M8.12733 19.0101C9.22009 20.1521 10.1447 21.1227 11.0694 22.0649C11.4616 22.4645 11.7979 22.9784 11.3215 23.4638C10.8172 24.0062 10.2288 23.8349 9.75246 23.3496C8.63168 22.2076 7.51091 21.0371 6.39014 19.8951C5.80173 19.3241 5.77371 18.7817 6.36212 18.1822C7.51091 16.9831 8.68772 15.7555 9.86453 14.585C10.2568 14.1853 10.7331 13.8712 11.2375 14.4137C11.8259 15.0132 11.5177 15.4985 11.0413 15.9839C10.1167 16.926 9.19207 17.8681 8.12733 19.0101Z" fill="#2776EA"/>
<path d="M37.8844 34.1972C37.8564 36.8808 35.6148 39.1077 33.0371 39.1077C30.3472 39.1077 28.1617 36.7952 28.1897 33.9974C28.2177 31.3137 30.4032 29.1155 33.009 29.0869C35.6989 29.0869 37.9405 31.4279 37.8844 34.1972ZM32.2525 32.7412C33.7656 32.8554 33.8216 32.8554 33.8496 33.6548C33.9057 34.7111 33.8496 35.7674 33.8496 36.9094C35.7269 36.0529 36.3434 34.9109 35.9231 33.3978C35.5028 31.8276 34.2139 30.9141 32.6728 31.0568C31.2158 31.1995 29.983 32.5128 29.8989 34.0259C29.8429 35.3106 30.7675 36.4526 32.2245 36.7381C32.2525 35.4248 32.2525 34.1687 32.2525 32.7412Z" fill="#2776EA"/>
</svg>
