<svg width="62" height="50" viewBox="0 0 62 50" fill="none" xmlns="http://www.w3.org/2000/svg">
<path d="M51.5557 1C51.849 1.09413 52.1623 1.15296 52.4355 1.28239C53.442 1.7648 53.9552 2.51783 53.9552 3.52972C53.9552 13.5545 53.9552 23.5793 53.9552 33.604C53.9552 36.2338 53.9552 38.8635 53.9552 41.4873C53.9552 42.1168 53.382 42.511 52.7421 42.3345C52.3889 42.2345 52.1356 41.9639 52.1023 41.6344C52.089 41.5109 52.0956 41.3873 52.0956 41.2697C52.0956 30.7037 52.0956 20.1435 52.0956 9.57753C52.0956 9.4834 52.0956 9.38927 52.0956 9.28337C38.0187 9.28337 23.9819 9.28337 9.91166 9.28337C9.91166 9.38927 9.91166 9.4834 9.91166 9.58341C9.91166 20.2024 9.905 30.8272 9.91833 41.4462C9.91833 42.1521 9.23181 42.5169 8.66527 42.3345C8.31868 42.2227 8.07207 41.9403 8.05208 41.6168C8.04541 41.4697 8.04541 41.3226 8.04541 41.1755C8.04541 28.6681 8.04541 16.1607 8.04541 3.65915C8.04541 2.25898 8.82524 1.3824 10.3716 1.04118C10.3982 1.0353 10.4182 1.01765 10.4449 1.00588C24.1418 1 37.8521 1 51.5557 1ZM9.89833 7.60081C23.9819 7.60081 38.0188 7.60081 52.089 7.60081C52.089 7.5008 52.089 7.42432 52.089 7.34196C52.089 6.11828 52.089 4.8946 52.089 3.67092C52.089 2.97671 51.7424 2.66491 50.9625 2.66491C37.6588 2.66491 24.3551 2.66491 11.0447 2.66491C10.2383 2.66491 9.89833 2.96495 9.89833 3.6768C9.89833 4.8946 9.89833 6.10651 9.89833 7.32431C9.89833 7.40667 9.89833 7.49492 9.89833 7.60081Z" stroke="#2776EA" stroke-width="0.7"/>
<path d="M1 17.8483C1.09331 17.5071 1.1533 17.16 1.2866 16.8364C2.07976 14.895 3.64608 13.7772 5.95223 13.4537C6.00555 13.4478 6.05888 13.4537 6.13886 13.4537C6.13886 14.0008 6.13886 14.542 6.13886 15.1009C5.29904 15.2186 4.56587 15.5186 3.97267 16.054C3.28616 16.6717 2.90624 17.4189 2.88625 18.2895C2.87292 19.0543 2.87958 19.825 2.87958 20.5898C2.87958 27.2671 2.87958 33.9444 2.87958 40.6217C2.87958 41.6042 3.24617 42.4396 4.05265 43.122C4.7525 43.7162 5.59898 43.9986 6.55876 44.0339C6.7054 44.0398 6.85203 44.0398 7.00533 44.0398C23.0351 44.0398 39.0582 44.0398 55.088 44.0457C56.2611 44.0457 57.2942 43.7574 58.1073 42.9867C58.7338 42.3984 59.0671 41.6983 59.1138 40.8923C59.1204 40.7864 59.1204 40.6805 59.1204 40.5746C59.1204 33.2208 59.1204 25.867 59.1204 18.5131C59.1204 16.7835 57.9673 15.5127 56.0478 15.1303C55.9878 15.1186 55.9278 15.1068 55.8545 15.0892C55.8545 14.5479 55.8545 14.0067 55.8545 13.4125C56.2611 13.489 56.6543 13.5301 57.0209 13.6419C59.2271 14.3067 60.5401 15.6598 60.9467 17.6895C60.96 17.7424 60.98 17.7954 61 17.8483C61 25.6552 61 33.4561 61 41.263C60.98 41.3218 60.9533 41.3865 60.9467 41.4453C60.7134 42.722 60.0402 43.7809 58.8938 44.5928C57.8407 45.3399 56.6276 45.687 55.2746 45.687C39.0915 45.6812 22.9018 45.687 6.71873 45.687C6.62542 45.687 6.5321 45.687 6.43879 45.6812C3.93935 45.6106 1.77316 44.0692 1.17996 41.9219C1.11997 41.7042 1.06665 41.4806 1.01333 41.2571C1 33.4561 1 25.6552 1 17.8483Z" stroke="#2776EA" stroke-width="0.7"/>
<path d="M11.5446 48.9995C11.358 48.8701 11.1247 48.776 10.9981 48.6112C10.5982 48.0935 11.0048 47.3934 11.7113 47.3464C11.8113 47.3405 11.9179 47.3464 12.0179 47.3464C24.6884 47.3464 37.3522 47.3464 50.0228 47.3464C50.6826 47.3464 51.1025 47.6229 51.1425 48.1053C51.1825 48.5583 50.8826 48.8289 50.4427 48.9995C37.4789 48.9995 24.5151 48.9995 11.5446 48.9995Z" stroke="#2776EA" stroke-width="0.7"/>
<path d="M41.6645 19.714C41.4112 19.6022 41.2113 19.508 41.0047 19.4257C40.5848 19.2492 40.1382 19.1786 39.685 19.2315C39.4583 19.2551 39.3584 19.1904 39.265 19.0197C38.7385 18.1138 38.0853 17.2901 37.2988 16.5194C37.2322 16.5606 37.1655 16.6018 37.0989 16.6371C36.2324 17.1489 35.3726 17.6666 34.4928 18.1667C34.3395 18.2549 34.3195 18.3255 34.3528 18.4726C34.5328 19.2492 34.6927 20.0258 34.866 20.8023C34.8993 20.9612 34.8527 21.0376 34.6794 21.0906C34.1662 21.2436 33.653 21.4083 33.1197 21.573C32.9464 20.6905 32.7732 19.8375 32.5932 18.9374C31.1402 19.3904 29.7005 19.6669 28.1942 19.7492C28.1942 19.8669 28.1942 19.9552 28.1942 20.0434C28.1942 20.7847 28.1942 21.5259 28.1942 22.2731C28.1942 22.7379 28.2008 23.1791 27.9342 23.6203C27.7743 23.8851 27.7409 24.2322 27.7343 24.544C27.6876 26.8325 27.8076 29.1092 28.1808 31.3801C28.1942 31.4683 28.1942 31.5566 28.1942 31.6507C28.1942 33.145 28.1942 34.6393 28.1942 36.1336C28.1942 36.216 28.1942 36.2983 28.1942 36.4631C28.6207 36.2278 28.994 36.016 29.3672 35.8159C29.7672 36.5043 30.1737 37.2043 30.5803 37.9044C23.9351 39.3752 15.5703 36.316 12.6843 29.1504C9.65829 21.6495 14.4772 13.7367 22.7954 11.5306C31.2602 9.27737 39.1517 13.6779 41.6645 19.714ZM13.6907 25.4088C13.944 28.2032 15.1171 30.6035 17.2099 32.6626C17.2699 32.6332 17.3033 32.6155 17.3299 32.5979C18.1697 31.9802 19.0695 31.4389 20.0426 30.9977C20.2159 30.9212 20.1893 30.8271 20.156 30.7035C19.6894 29.0504 19.4361 27.3737 19.3761 25.6735C19.3695 25.45 19.2828 25.4029 19.0495 25.4088C17.3699 25.4147 15.6836 25.4147 14.004 25.4147C13.9107 25.4088 13.8174 25.4088 13.6907 25.4088ZM17.17 16.5489C15.1171 18.5726 13.944 20.9729 13.6907 23.7674C13.8174 23.7674 13.9107 23.7674 13.9973 23.7674C15.677 23.7674 17.3632 23.7615 19.0429 23.7733C19.3095 23.7733 19.3495 23.6909 19.3695 23.485C19.5028 22.2966 19.6361 21.1024 19.8094 19.914C19.8894 19.361 20.056 18.8138 20.1693 18.3197C19.1628 17.7255 18.1831 17.143 17.17 16.5489ZM21.9356 30.2388C23.3619 29.7799 24.8016 29.521 26.2879 29.4328C26.2879 28.0856 26.2879 26.7619 26.2879 25.4264C24.6016 25.4264 22.9353 25.4264 21.2357 25.4264C21.2757 27.0443 21.5023 28.6327 21.9356 30.2388ZM26.2879 23.7497C26.2879 22.4084 26.2879 21.0847 26.2879 19.7434C24.7949 19.6669 23.3552 19.3904 21.9356 18.9433C21.5023 20.5435 21.2757 22.1319 21.2357 23.7497C22.9487 23.7497 24.615 23.7497 26.2879 23.7497ZM26.2879 18.0785C26.2879 16.3076 26.2879 14.5486 26.2879 12.7307C24.1484 13.7544 23.2686 15.5134 22.4554 17.3431C23.7218 17.7608 24.9749 17.9961 26.2879 18.0785ZM22.4688 31.8331C22.882 32.8685 23.3819 33.8392 24.0884 34.7158C24.555 35.2982 25.0949 35.8218 25.7947 36.1925C25.948 36.2748 26.1146 36.3336 26.2879 36.4101C26.2879 34.6158 26.2879 32.8685 26.2879 31.0977C24.9749 31.1742 23.7218 31.4213 22.4688 31.8331ZM28.2008 18.0785C29.5339 17.9902 30.7869 17.7549 32.0466 17.3313C31.7934 16.8077 31.5601 16.29 31.2935 15.7958C30.7736 14.8486 30.1404 13.9721 29.2006 13.2955C28.9073 13.0837 28.5674 12.9249 28.2008 12.7131C28.2008 14.5486 28.2008 16.3018 28.2008 18.0785ZM35.9191 15.3899C35.0393 14.631 32.4132 13.3367 31.7867 13.3426C32.6399 14.3545 33.2264 15.4781 33.7463 16.6959C34.4994 16.2429 35.1926 15.8252 35.9191 15.3899ZM22.6754 13.3249C21.1691 13.772 19.8227 14.4486 18.5496 15.3781C19.3028 15.8252 20.0093 16.2488 20.7492 16.69C21.2624 15.4664 21.8622 14.3486 22.6754 13.3249ZM18.5496 33.798C19.8294 34.7276 21.1824 35.41 22.6821 35.8571C21.8622 34.8276 21.2557 33.7039 20.7425 32.4802C19.996 32.9332 19.2961 33.3509 18.5496 33.798Z" stroke="#2776EA" stroke-width="0.7"/>
<path d="M50.2078 26.461C50.1412 28.3201 49.9879 30.1791 49.6146 32.0088C49.3147 33.4913 48.9081 34.9444 48.0883 36.2858C47.5817 37.1153 46.8619 37.7977 46.1221 38.4566C44.4224 39.9804 42.4895 41.2276 40.3633 42.2512C40.0701 42.3924 39.7901 42.4277 39.4969 42.2806C36.7708 40.9746 34.358 39.3215 32.3918 37.1918C31.4853 36.2093 31.0121 35.0445 30.6388 33.8384C30.1523 32.2618 29.879 30.6439 29.759 29.0143C29.6524 27.5494 29.6324 26.0786 29.5857 24.6138C29.5657 24.0254 29.779 23.8137 30.4455 23.7431C33.2649 23.4313 35.851 22.5135 38.3838 21.4369C38.7237 21.2898 39.0636 21.1486 39.3969 20.9839C39.7368 20.8192 40.0501 20.8251 40.3967 20.9839C42.003 21.7193 43.6493 22.3841 45.3689 22.9018C46.6953 23.3018 48.0416 23.6019 49.4347 23.7489C49.9545 23.8078 50.1945 24.0254 50.2012 24.4902C50.2145 25.155 50.2078 25.808 50.2078 26.461ZM31.4653 25.3727C31.4653 25.4139 31.4587 25.4962 31.4653 25.5786C31.5186 26.7023 31.5453 27.8318 31.6386 28.9496C31.7719 30.5204 32.0185 32.0794 32.5118 33.5972C32.825 34.5679 33.2183 35.5033 33.9714 36.2917C35.5977 37.9978 37.5373 39.3626 39.7035 40.4922C39.8568 40.5687 39.9568 40.5628 40.1034 40.4863C41.5831 39.7156 42.9694 38.8332 44.2092 37.7919C45.3222 36.8564 46.4287 35.9034 46.9152 34.562C47.2018 33.7737 47.4618 32.9677 47.6551 32.1617C48.1083 30.2615 48.2483 28.3319 48.3149 26.3963C48.3282 26.0375 48.3149 25.6786 48.3149 25.3138C47.8817 25.2315 47.4551 25.1609 47.0352 25.0726C44.6824 24.5785 42.4695 23.7784 40.3167 22.8194C40.0101 22.6841 39.7901 22.69 39.4769 22.8135C38.0039 23.3901 36.5242 23.9843 35.0112 24.4726C33.8848 24.8432 32.6851 25.0668 31.4653 25.3727Z" stroke="#2776EA" stroke-width="0.7"/>
<path d="M48.337 5.95841C48.0171 5.95841 47.6905 5.96429 47.3706 5.95841C46.8574 5.94664 46.4641 5.58189 46.4641 5.14066C46.4641 4.69355 46.8507 4.32879 47.3706 4.32291C48.0171 4.31115 48.6636 4.31115 49.3101 4.32291C49.83 4.33468 50.2233 4.69943 50.2233 5.14066C50.2233 5.59366 49.8167 5.95252 49.2835 5.96429C48.9636 5.96429 48.6503 5.95841 48.337 5.95841Z" stroke="#2776EA" stroke-width="0.7"/>
<path d="M42.7171 5.96417C42.4038 5.96417 42.0905 5.97006 41.7773 5.96417C41.2241 5.95241 40.8308 5.59942 40.8375 5.12289C40.8442 4.66401 41.2374 4.3228 41.7839 4.31691C42.4038 4.31103 43.0237 4.31103 43.6369 4.31691C44.1767 4.3228 44.5767 4.67578 44.5767 5.12878C44.5767 5.59942 44.2034 5.94064 43.6569 5.95829C43.3503 5.97006 43.037 5.95829 42.7171 5.96417Z" stroke="#2776EA" stroke-width="0.7"/>
</svg>
