<svg width="64" height="64" viewBox="0 0 64 64" fill="none" xmlns="http://www.w3.org/2000/svg">
<path d="M18.3349 63.7035C11.0107 63.3695 5.04736 59.497 1.70074 52.1666C-1.67064 44.7805 0.148048 36.5469 5.58555 31.1218C9.01259 27.7009 12.4211 24.2677 15.8543 20.8592C18.2297 18.5085 19.0154 18.5209 21.465 20.884C22.5785 21.9541 23.6858 23.0305 24.7374 24.1626C26.7912 26.3771 26.7788 27.503 24.6756 29.631C21.4898 32.8539 18.2421 36.0149 15.0749 39.2564C12.5572 41.836 12.3778 45.9497 14.5614 48.4921C17.0297 51.3624 21.564 51.5356 24.4591 48.7519C27.5026 45.8259 30.4409 42.7948 33.4288 39.8131C36.5156 36.7325 37.295 36.7387 40.4375 39.8564C41.4582 40.871 42.5284 41.8483 43.481 42.9247C45.1141 44.7805 45.1265 45.6837 43.413 47.4157C39.5096 51.3748 35.6681 55.4081 31.573 59.163C28.1397 62.324 23.8714 63.7344 18.3349 63.7035ZM31.7957 43.6794C29.4821 45.9682 27.3417 48.1766 25.1024 50.2861C22.2754 52.9584 18.1679 53.2553 14.8769 51.1335C11.8891 49.2097 10.4539 44.8114 11.8705 41.3225C12.353 40.1348 13.2253 39.0461 14.1037 38.0872C16.0275 35.9902 18.0751 34.0107 19.968 32.093C17.6606 29.7485 15.5759 27.6329 13.3799 25.4059C11.1777 27.6453 8.85795 29.8475 6.71759 32.2044C2.86989 36.4418 1.24916 41.3782 2.03478 47.1621C3.68644 59.2991 17.5864 66.048 28.3624 59.5341C32.3153 57.1463 35.1794 53.4595 38.2662 50.3479C36.0887 48.1024 34.0845 46.0363 31.7957 43.6794ZM25.0034 26.8473C22.5909 24.6822 20.8402 22.4243 18.3658 20.5932C17.1534 21.8985 16.1451 22.9934 15.2543 23.9522C17.4812 26.0864 19.6525 28.1711 21.898 30.3238C22.7517 29.3712 23.76 28.2329 25.0034 26.8473ZM43.2336 45.3434C41.1551 42.9495 39.1384 40.8957 36.7135 38.8914C35.4454 40.0915 34.3134 41.1741 33.4783 41.9597C35.7423 44.2794 37.8023 46.3889 40.0169 48.6591C40.9448 47.7003 41.984 46.6363 43.2336 45.3434Z" fill="#0274BA"/>
<path d="M19.8506 11.1843C19.4176 5.7097 24.1746 0.0185781 30.8617 2.00481e-05C37.6477 -0.012352 42.547 5.70352 42.3429 11.5617C42.1573 17.0487 38.1055 22.6841 30.8184 22.7274C25.4675 22.7645 19.399 18.2797 19.8506 11.1843ZM22.4116 15.2733C24.02 14.2649 25.6283 13.2628 27.2305 12.2607C25.4427 9.0254 25.6654 6.817 27.5583 4.73232C28.9131 3.24149 32.2412 2.98786 33.8 4.24981C34.6351 4.93027 35.3156 5.90147 35.8167 6.87267C36.8497 8.86457 35.5197 10.5719 34.7712 12.1865C36.4724 13.3804 38.0127 14.4629 39.5592 15.5455C41.4521 11.1905 40.4129 6.4644 37.0539 3.84772C32.9711 0.668109 28.0223 1.54034 25.3376 3.60646C21.4095 6.61286 20.3702 10.708 22.4116 15.2733ZM38.5261 17.1847C33.7258 12.1431 26.7294 12.3535 23.7911 17.4569C28.2759 22.381 34.0537 22.3315 38.5261 17.1847ZM34.2516 8.47485C34.2578 6.64998 32.8412 5.01069 31.1957 4.93027C29.2595 4.83748 27.4346 6.64998 27.515 8.5862C27.5831 10.2379 29.2162 11.6668 31.0411 11.6668C33.1319 11.6668 34.2454 10.5595 34.2516 8.47485Z" fill="#0274BA"/>
<path d="M64 34.685C63.9938 39.9987 59.5461 44.4527 54.2014 44.4898C48.7763 44.5269 44.1553 39.9183 44.1739 34.4994C44.1924 29.433 49.0299 24.4595 54.0777 24.6636C59.311 24.874 63.9938 28.5175 64 34.685ZM61.5504 37.7099C62.9422 33.2374 61.9092 29.897 58.4636 27.67C55.8283 25.9627 51.6961 25.8575 48.733 28.468C45.974 30.8991 45.2812 34.4251 46.8957 37.9635C47.5391 37.4563 48.1515 36.9181 48.8258 36.4665C49.4691 36.0335 50.1743 35.6995 50.8486 35.3221C49.067 32.0868 49.234 30.4599 51.4053 28.5979C52.9828 27.2494 55.3953 27.1999 57.0408 28.635C57.6284 29.1423 58.2223 29.9032 58.346 30.6331C58.643 32.3095 58.6801 34.0416 57.4491 35.3283C58.9213 36.1758 60.2142 36.9305 61.5504 37.7099ZM60.2142 39.7946C57.3068 35.483 52.4693 35.3654 48.0092 39.5039C51.1579 43.7413 56.8552 43.8712 60.2142 39.7946ZM51.5043 32.0559C51.5043 33.7076 52.8157 35.0685 54.3437 34.9943C55.5438 34.9324 57.0098 33.3302 57.0222 32.0683C57.0346 30.6579 55.4262 29.0928 54.022 29.1361C52.6054 29.1856 51.5043 30.4661 51.5043 32.0559Z" fill="#0274BA"/>
<path d="M53.4964 20.9953C48.8383 21.0263 45.3803 17.5435 45.2442 12.9288C45.1143 8.49341 49.1847 4.60859 53.4283 4.71376C57.8761 4.8251 61.365 8.27071 61.5444 12.6875C61.7361 17.2652 57.542 21.2428 53.4964 20.9953ZM50.2487 14.234C49.228 11.0173 49.4383 9.8234 51.1519 8.48722C52.2901 7.59643 54.282 7.53457 55.4573 8.35113C57.2636 9.6007 57.5173 10.8874 56.5523 14.2093C57.3936 14.7351 58.2596 15.2733 59.1999 15.8609C60.3195 11.5988 59.6081 9.21717 56.7069 7.33662C54.4861 5.90147 51.5107 6.13654 49.5868 7.68304C46.9021 9.84814 46.3701 12.0937 47.7434 15.7001C48.5476 15.23 49.3332 14.7722 50.2487 14.234ZM49.1414 17.2652C51.8447 20.3334 55.2656 20.2777 57.6348 17.1414C54.6284 14.6361 51.8261 14.6794 49.1414 17.2652ZM55.5872 11.2895C55.5316 10.3306 54.1397 9.19242 53.1747 9.32233C52.3581 9.43368 51.189 10.6709 51.2075 11.4132C51.2261 12.5081 52.321 13.5103 53.4593 13.4855C54.5356 13.4546 55.6491 12.3102 55.5872 11.2895Z" fill="#0274BA"/>
<path d="M35.5758 30.2743C35.3716 32.8725 34.3324 34.7097 33.0519 36.8624C31.6291 34.852 33.355 33.6457 33.2746 32.192C32.3281 32.025 31.3569 31.8518 30.2744 31.66C30.2187 29.5011 31.4002 27.8989 32.0683 26.1544C32.1549 25.9256 32.891 25.9441 33.6705 25.7647C33.2065 27.3669 32.8477 28.5856 32.4518 29.9588C33.454 30.064 34.3324 30.1506 35.5758 30.2743Z" fill="#0274BA"/>
<path d="M15.3591 16.7765C14.1096 15.3846 13.1631 14.3206 12.2166 13.2628C11.6475 14.1165 11.0351 15.0258 10.3608 16.0403C8.42462 15.0196 7.61425 13.1638 6.38942 11.7163C6.22858 11.5245 6.47602 10.9926 6.61212 10.0585C7.88643 11.339 8.83908 12.2978 9.87833 13.3432C10.4784 12.5205 11.0599 11.7163 11.6413 10.9183C14.6106 12.6009 16.0025 14.5371 15.3591 16.7765Z" fill="#0274BA"/>
<path d="M49.1779 51.3934C50.1862 51.3067 51.0522 51.2325 52.1657 51.1397C52.0605 53.4595 52.9266 55.6741 50.8172 57.734C49.8954 56.138 50.3223 54.7957 50.6625 53.1749C49.5552 53.2801 48.5283 53.3791 47.3221 53.4904C47.087 51.2573 46.821 49.1045 47.9159 46.9332C50.0006 48.1333 48.6211 49.9025 49.1779 51.3934Z" fill="#0274BA"/>
</svg>
