<svg width="64" height="67" viewBox="0 0 64 67" fill="none" xmlns="http://www.w3.org/2000/svg">
<path d="M29.9825 58.072C29.9825 56.2599 29.9002 54.6281 30.0031 53.0066C30.1781 50.1804 32.088 49.017 35.3722 50.0003C34.7545 50.4275 34.3581 50.932 33.9411 50.9577C31.9953 51.0658 31.5114 52.2395 31.5474 53.9074C31.568 54.9318 31.5526 55.9562 31.5526 56.888C32.8035 57.5932 33.8536 55.1738 35.3053 57.2535C32.4998 58.6588 29.792 60.0127 27.0174 61.4026C20.0216 58.1028 13.4582 54.3347 8.43911 48.3375C5.99392 45.4187 4.62977 42.1808 4.69669 38.2582C4.83053 30.6344 4.73272 23.0002 4.73272 15.6647C12.2742 12.1951 19.6201 8.82327 26.9196 5.46693C34.1213 8.77694 41.4054 12.123 48.8851 15.5565C48.8851 20.9771 48.8851 26.8405 48.8851 32.7038C48.6689 32.7707 48.4476 32.8427 48.2313 32.9097C47.8607 32.05 47.4901 31.1955 47.0422 30.1556C46.1774 30.1556 45.1581 30.1814 44.144 30.1505C40.9833 30.0475 39.8148 28.8893 39.789 25.7594C39.7581 22.156 39.7839 18.5525 39.7787 14.9543C39.7787 14.4498 39.7324 13.9402 39.7066 13.3533C37.0041 12.0509 34.3427 10.764 31.1768 9.23509C31.1768 10.486 31.1768 11.3766 31.1768 12.2671C31.1819 15.3558 31.1716 18.4444 31.1922 21.528C31.2025 23.0311 31.6452 24.0658 33.4006 24.4467C36.1444 25.0439 36.6695 25.9087 36.6952 28.7709C36.7106 30.6549 36.7003 32.5442 36.7003 34.3613C39.022 36.7293 39.3978 38.4641 37.9358 39.8283C36.7055 40.9711 34.9295 40.9144 33.797 39.6944C32.4946 38.2891 32.927 36.5183 35.1354 34.629C35.1354 32.6832 35.084 30.6292 35.1509 28.5753C35.2024 27.0206 34.5331 26.2279 33.0351 25.8778C30.3789 25.2498 29.6634 24.385 29.6222 21.6309C29.5604 17.2656 29.6067 12.9003 29.6067 8.74091C27.9491 6.95463 26.5232 7.17599 24.6391 8.08714C18.8788 10.8772 12.9897 13.3945 7.15217 16.0198C6.87419 16.1434 6.6271 16.3339 5.86008 16.8126C6.99774 16.9722 7.60003 17.1266 8.20746 17.1266C12.5831 17.1472 16.9535 17.1163 21.3291 17.1421C25.3392 17.1627 26.3842 18.2128 26.3945 22.1302C26.3997 23.9268 26.3945 25.7234 26.3945 27.4273C28.6441 29.5739 29.0714 31.3447 27.7432 32.7192C26.6313 33.8723 24.7061 33.8723 23.5993 32.7141C22.1939 31.2418 22.544 29.682 24.8347 27.4582C24.8347 25.3785 24.8296 23.237 24.8399 21.0955C24.845 19.7726 24.1913 18.8357 22.9095 18.8151C17.4477 18.7379 11.9808 18.7842 6.39545 18.7842C6.39545 20.9926 6.39545 22.9333 6.39545 25.0645C9.06199 25.0645 11.6771 25.0645 14.3796 25.0645C16.238 22.959 17.9831 22.5627 19.4605 23.9783C20.593 25.0645 20.5621 27.0052 19.3936 28.1017C17.9522 29.4607 16.4284 29.1106 14.4105 26.9177C11.8109 26.9177 9.18554 26.9177 6.41604 26.9177C6.41604 29.0488 6.41604 31.0668 6.41604 33.4244C8.40823 33.4244 10.3489 33.4039 12.2896 33.4296C15.1724 33.4708 16.3615 34.5775 16.5726 37.3676C16.7836 40.1114 17.0616 40.4048 19.7745 40.5181C20.8864 40.5644 21.9983 40.5284 23.0382 40.5284C25.4628 38.0163 26.7394 37.7331 28.5 39.3392C29.6839 40.4203 29.6067 42.0881 28.5051 43.2412C27.038 44.7804 25.5915 44.4973 23.2132 42.0984C21.8799 42.0984 20.4231 42.1499 18.9714 42.0881C16.2843 41.9749 15.1775 40.8321 15.0128 38.1038C14.8532 35.4475 14.4105 35.0151 11.7594 34.9945C10.0555 34.9791 8.34645 34.9894 6.50355 34.9894C5.91671 39.1282 6.12262 42.9118 9.05685 46.3247C12.9022 46.3247 16.8403 46.3093 20.7732 46.3299C23.8979 46.3453 24.9583 47.3646 25.0098 50.4481C25.0561 53.1044 25.0201 55.7606 25.0201 58.3602C26.8166 60.3936 28.2889 58.9883 29.9825 58.072ZM41.3539 14.1769C41.3539 17.5024 41.3539 20.4057 41.3539 23.3142C41.3539 28.6319 41.5135 28.7863 46.8415 28.4723C46.9856 28.462 47.1246 28.3282 47.382 28.184C47.382 24.2563 47.382 20.2719 47.382 16.2618C45.4413 15.5977 43.6138 14.9646 41.3539 14.1769ZM23.414 57.8249C23.414 54.9576 23.4243 52.569 23.4088 50.1804C23.4037 49.0531 23.0279 48.0029 21.7615 47.972C18.0706 47.8845 14.3796 47.9411 10.2717 47.9411C14.1068 52.3013 18.4309 55.0914 23.414 57.8249Z" fill="#0274BA"/>
<path d="M1.64896 13.5129C1.64896 22.7428 1.54086 32.2559 1.70559 41.769C1.76736 45.2437 3.8831 48.0132 6.11723 50.5408C10.5597 55.5547 16.0885 59.1324 21.9054 62.3034C23.5476 63.1991 25.2412 63.997 26.6774 64.7229C29.5241 63.6058 32.098 62.5865 34.6925 61.6033C34.744 61.5827 34.955 61.9791 35.3102 62.5145C32.4995 63.8838 29.7815 65.2068 26.9451 66.5915C17.988 62.2983 9.38606 57.5932 3.24992 49.47C1.08271 46.6027 -0.0497975 43.3957 0.00168016 39.6893C0.120079 31.283 0.0325664 22.8767 0.0274186 14.4704C0.0274186 13.621 0.0274186 12.7716 0.0274186 11.7935C9.52505 8.9983 18.0909 4.36531 26.8782 0C35.5985 4.24691 44.1232 8.988 53.6105 11.6803C53.6105 18.743 53.6105 25.7234 53.6105 32.8633C52.1434 32.5287 52.2412 31.5918 52.2464 30.6549C52.2618 25.7646 52.2515 20.8793 52.2515 15.989C52.2515 15.0572 52.2515 14.1255 52.2515 13.5335C43.5775 9.60058 35.197 5.80668 26.9142 2.05396C18.6572 5.80668 10.3384 9.57485 1.64896 13.5129Z" fill="#0274BA"/>
<path d="M57.4096 46.3968C58.5421 46.3968 59.2268 46.335 59.896 46.4071C62.2485 46.6542 63.8855 48.2552 63.937 50.5974C64.0194 54.3656 64.0245 58.1389 63.9319 61.9019C63.8701 64.4294 62.4544 65.9944 59.9526 66.0458C53.7032 66.1694 47.4487 66.1539 41.1993 66.0613C38.9034 66.0252 37.3282 64.2647 37.2613 61.8041C37.1583 58.2109 37.148 54.6075 37.251 51.0092C37.3333 48.0853 39.027 46.5307 41.9663 46.3814C42.476 46.3556 42.9804 46.3247 43.8504 46.2733C43.8504 44.3892 43.835 42.536 43.8556 40.6828C43.8916 36.8271 45.6985 35.1644 49.4924 34.9585C56.0094 34.5981 57.8317 36.8323 57.4302 42.8037C57.3479 43.9002 57.4096 45.0018 57.4096 46.3968ZM50.733 64.7486C50.733 64.7435 50.733 64.7383 50.733 64.7332C53.3892 64.7332 56.0455 64.7692 58.7017 64.7229C61.497 64.6714 62.403 63.7757 62.4338 61.0371C62.4699 57.9536 62.4544 54.8649 62.4338 51.7814C62.4133 48.8472 61.5484 47.9514 58.6245 47.936C53.2245 47.9051 47.8245 47.9103 42.4245 47.9309C39.7425 47.9411 38.7902 48.9398 38.7644 51.7145C38.7387 54.798 38.7335 57.8866 38.7696 60.9701C38.8005 63.6521 39.7682 64.6611 42.5068 64.7332C45.2455 64.8052 47.9892 64.7486 50.733 64.7486ZM55.8859 46.2475C55.8859 44.0443 55.9991 41.9286 55.855 39.8283C55.7109 37.7898 54.4136 36.7087 52.303 36.5183C48.1951 36.1476 46.1463 36.894 45.4874 39.0252C45.4153 39.2672 45.3844 39.5297 45.3793 39.7819C45.369 41.8925 45.3742 44.0031 45.3742 46.2475C48.9621 46.2475 52.3236 46.2475 55.8859 46.2475Z" fill="#0274BA"/>
<path d="M52.5805 62.3137C51.1545 62.3137 50.0787 62.3137 48.8277 62.3137C48.6476 61.557 48.349 60.9084 48.3747 60.2752C48.4262 58.7772 48.1122 57.5108 47.2268 56.2136C46.0634 54.5045 46.5782 52.3991 48.0865 51.1328C49.4918 49.9539 51.5818 49.9127 53.0695 51.0401C54.6756 52.2498 55.2367 54.2883 54.1248 56.0592C53.3012 57.3667 52.9871 58.6382 53.0386 60.1259C53.0541 60.7694 52.7761 61.4231 52.5805 62.3137ZM51.5252 56.368C51.7002 56.2702 52.1635 56.1312 52.4363 55.8224C53.4813 54.6641 53.3784 53.4801 52.2819 52.4197C51.2575 51.4313 50.0889 51.4468 49.0542 52.3528C47.932 53.336 47.8342 54.4273 48.7196 55.7606C49.2859 56.6151 49.4712 57.7373 49.7235 58.7669C49.883 59.4052 49.847 60.095 49.9088 60.9135C50.5059 60.862 50.9641 60.8209 51.52 60.7694C51.5252 59.3537 51.5252 58.0771 51.5252 56.368Z" fill="#0274BA"/>
</svg>
