<svg width="72" height="56" viewBox="0 0 72 56" fill="none" xmlns="http://www.w3.org/2000/svg">
<path d="M35.2261 31.3903C34.9189 31.3903 34.6982 31.3903 34.4776 31.3903C33.3324 31.3813 32.73 30.77 32.724 29.6099C32.721 29.2162 32.6942 28.8196 32.73 28.4319C32.7687 28.0263 32.5481 27.907 32.226 27.8444C31.8741 27.7758 31.5103 27.4328 31.2031 27.9577C30.9764 28.3424 30.6931 28.6973 30.4188 29.0522C29.8402 29.7888 28.9485 29.9379 28.1791 29.4011C27.2576 28.757 26.348 28.0979 25.4474 27.4269C24.669 26.8453 24.5289 25.9447 25.0776 25.1455C25.4056 24.6683 25.7516 24.2031 26.0766 23.7498C26.0647 23.6812 26.0677 23.6395 26.0498 23.6126C25.3609 22.6464 25.3609 22.6464 24.2306 23.0191C24.0338 23.0848 23.84 23.1474 23.6402 23.2011C22.7306 23.4516 21.9284 23.0639 21.6212 22.1752C21.2484 21.0986 20.9025 20.0101 20.5744 18.9156C20.3001 18.003 20.7146 17.2306 21.6152 16.9056C21.9373 16.7893 22.2653 16.6909 22.5695 16.5C18.0127 16.5 13.4529 16.5 8.83936 16.5C8.82743 16.7237 8.80953 16.9235 8.80953 17.1203C8.80655 23.9585 8.81252 30.7968 8.80059 37.635C8.80059 38.0436 8.91988 38.2643 9.28371 38.4641C11.3325 39.5914 13.3604 40.7604 15.4092 41.8907C15.8446 42.1322 16.0116 42.4484 16.0086 42.9315C15.9967 45.3471 15.9937 47.7657 16.0086 50.1813C16.0116 50.7091 15.8208 51.0461 15.3466 51.3026C13.1248 52.5074 10.915 53.7301 8.71112 54.9707C8.21906 55.2481 7.80452 55.266 7.29755 54.9797C5.08175 53.7271 2.85104 52.5014 0.614373 51.2847C0.184932 51.0521 -0.0029473 50.7539 3.4924e-05 50.2588C0.0149461 47.8044 0.0179283 45.3501 3.4924e-05 42.8957C-0.0029473 42.3977 0.19388 42.1054 0.617356 41.8698C2.66018 40.7366 4.68511 39.5795 6.72794 38.4492C7.09774 38.2434 7.24386 38.0138 7.24386 37.5754C7.22895 30.4747 7.23193 23.374 7.23492 16.2734C7.23492 15.0715 7.37508 14.9343 8.5978 14.9343C13.1696 14.9343 17.7413 14.9373 22.3101 14.9373C22.4145 14.9373 22.5188 14.9373 22.6232 14.9373C22.6292 14.9075 22.6351 14.8777 22.6411 14.8478C22.3131 14.7375 21.982 14.6331 21.657 14.5168C20.6967 14.1709 20.2941 13.4015 20.5923 12.4263C20.9144 11.3706 21.2514 10.3178 21.6122 9.27705C21.9343 8.34659 22.7127 7.95592 23.658 8.21537C23.8549 8.26905 24.0487 8.34063 24.2455 8.40623C25.3788 8.77305 25.3788 8.77305 26.1005 7.69945C25.7903 7.26702 25.4623 6.81969 25.1432 6.36639C24.505 5.45681 24.6422 4.57407 25.5279 3.92096C26.3421 3.32154 27.1622 2.72807 27.9853 2.14057C28.9932 1.42484 29.8163 1.55606 30.544 2.54317C30.8542 2.96367 31.1643 3.38416 31.4566 3.77782C31.5192 3.78378 31.5401 3.79273 31.558 3.78676C32.721 3.44082 32.7181 3.44083 32.721 2.22408C32.721 1.94375 32.7061 1.66044 32.7359 1.38309C32.8165 0.616656 33.4576 0.0321389 34.2718 0.0172278C35.4319 -0.00364782 36.5949 -0.00663068 37.755 0.0142449C38.6467 0.0321383 39.2611 0.64946 39.3088 1.53816C39.3326 1.94971 39.3505 2.36722 39.3058 2.77281C39.2521 3.28277 39.446 3.53924 39.944 3.6138C40.1438 3.64362 40.3347 3.73308 40.5643 3.80764C40.8953 3.35136 41.2234 2.90104 41.5544 2.44774C42.1628 1.61868 43.0724 1.44572 43.9133 2.0362C44.8319 2.68036 45.7414 3.34241 46.6391 4.01938C47.3548 4.56214 47.492 5.4747 46.994 6.22026C46.7345 6.60795 46.4542 6.98371 46.1649 7.35351C45.983 7.58612 45.9353 7.76207 46.147 8.03346C46.6987 8.73428 46.6808 8.74919 47.5308 8.48079C47.7455 8.4122 47.9602 8.34659 48.1749 8.28098C49.338 7.91417 50.1164 8.29589 50.4951 9.43809C50.8142 10.3954 51.1214 11.3586 51.4196 12.3219C51.7626 13.4194 51.36 14.1888 50.2714 14.5556C49.9971 14.648 49.7227 14.7405 49.4662 14.9373C49.6601 14.9373 49.8539 14.9373 50.0508 14.9373C54.6046 14.9373 59.1555 14.9403 63.7094 14.9403C64.5742 14.9403 64.7979 15.161 64.7979 16.0407C64.7979 23.1981 64.8038 30.3524 64.7859 37.5098C64.7859 38.0078 64.9291 38.2732 65.3675 38.5148C66.6439 39.2186 67.8815 39.991 69.1489 40.7097C69.9064 41.1392 70.6878 41.5298 71.4661 41.9265C71.8419 42.1173 72.0029 42.4066 72 42.8301C71.991 45.3202 71.988 47.8134 72 50.3065C72.0029 50.7837 71.7852 51.064 71.3856 51.2817C69.0893 52.5432 66.8019 53.8256 64.4907 55.0602C64.2313 55.2004 63.766 55.1944 63.5036 55.0572C61.1596 53.8047 58.8424 52.5044 56.5103 51.2251C56.1106 51.0074 55.9914 50.6883 55.9943 50.2558C56.0063 47.8194 56.0093 45.3859 55.9914 42.9494C55.9884 42.4334 56.1822 42.1173 56.6266 41.8698C58.6575 40.7455 60.6705 39.5914 62.7043 38.4701C63.098 38.2524 63.2382 38.0048 63.2382 37.5515C63.2262 30.7521 63.2262 23.9496 63.2441 17.1501C63.2471 16.6014 63.0861 16.4612 62.5493 16.4642C58.2966 16.4851 54.044 16.4761 49.7913 16.4732C49.681 16.4732 49.5736 16.4732 49.4633 16.4732C49.4543 16.5089 49.4454 16.5447 49.4364 16.5805C49.7376 16.6789 50.0418 16.7744 50.343 16.8787C51.3421 17.2217 51.7566 17.9941 51.4494 18.9931C51.1333 20.031 50.7993 21.0628 50.4504 22.0917C50.1104 23.0937 49.344 23.4754 48.327 23.1802C48.1481 23.1295 47.9692 23.0698 47.7902 23.0102C46.6391 22.6374 46.6391 22.6374 45.9413 23.711C46.2693 24.1733 46.6123 24.6385 46.9373 25.1186C47.5218 25.9835 47.3697 26.8483 46.5288 27.4686C45.6699 28.1009 44.811 28.7361 43.9402 29.3534C43.0992 29.9528 42.1986 29.8067 41.5753 28.9866C41.3725 28.7182 41.1518 28.4558 40.9848 28.1665C40.7224 27.7072 40.4211 27.5999 39.8993 27.7877C39.4519 27.9488 39.2551 28.1367 39.3028 28.6168C39.3416 29.0075 39.3207 29.4041 39.3088 29.7948C39.2819 30.7491 38.6646 31.3664 37.7163 31.3903C37.4389 31.3992 37.1616 31.3903 36.8335 31.3903C36.8186 31.6139 36.7977 31.7958 36.7977 31.9748C36.7948 33.8655 36.8067 35.7592 36.7888 37.65C36.7858 38.0168 36.8962 38.2196 37.2182 38.4045C38.2501 39.0009 39.2462 39.663 40.284 40.2475C41.3009 40.8201 42.3447 41.342 43.3885 41.8609C43.8477 42.0905 44.0296 42.4126 44.0237 42.9285C44.0058 45.365 44.0058 47.7985 44.0207 50.235C44.0237 50.724 43.8507 51.0342 43.4183 51.2698C41.119 52.5253 38.8376 53.8136 36.5234 55.0423C36.252 55.1855 35.7689 55.1676 35.4915 55.0184C33.1773 53.7868 30.8929 52.5074 28.5936 51.2489C28.188 51.0282 28.0091 50.7181 28.0121 50.2528C28.024 47.7985 28.021 45.3441 28.0121 42.8897C28.0091 42.4275 28.1791 42.1114 28.5966 41.8996C29.5897 41.3927 30.5887 40.8916 31.5609 40.3429C32.724 39.6838 33.8632 38.98 35.0024 38.2822C35.1068 38.2166 35.2112 38.0496 35.2112 37.9303C35.2291 35.7831 35.2261 33.6299 35.2261 31.3903ZM45.7325 26.1177C45.2762 25.4765 44.8706 24.8741 44.4263 24.2985C44.0714 23.8363 44.0893 23.4307 44.4531 22.9863C44.8289 22.5241 45.1838 22.038 45.5148 21.54C45.9323 20.9137 46.1321 20.8302 46.8687 21.0658C47.5397 21.2805 48.2107 21.4952 48.9235 21.7219C49.2635 20.6841 49.5736 19.7059 49.9016 18.7337C50.009 18.4176 49.8181 18.34 49.5885 18.2655C48.9652 18.0627 48.3419 17.8629 47.7216 17.6571C47.2892 17.514 47.1043 17.2187 47.1192 16.7624C47.1401 16.1093 47.1431 15.4532 47.1312 14.8001C47.1192 14.0754 47.2326 13.9025 47.9423 13.6669C48.6103 13.4462 49.2784 13.2225 50.0001 12.984C49.6303 11.8477 49.2813 10.7741 48.9205 9.66772C48.1928 9.90629 47.5367 10.124 46.8807 10.3357C46.1411 10.5773 45.9502 10.4968 45.5237 9.86156C45.2106 9.39633 44.8796 8.94303 44.5307 8.50465C44.0416 7.89031 44.0237 7.67857 44.4919 7.02248C44.8975 6.44989 45.3031 5.8773 45.7295 5.27788C44.7573 4.57407 43.8537 3.91798 42.9203 3.24102C42.455 3.87325 42.0107 4.44882 41.5991 5.04825C41.2711 5.5254 40.8894 5.63575 40.3436 5.42102C39.7531 5.18841 39.1418 5.00351 38.5304 4.83949C37.9936 4.69634 37.7521 4.38619 37.7729 3.82851C37.7938 3.21119 37.7938 2.59089 37.764 1.97357C37.758 1.83639 37.6 1.59483 37.5075 1.59483C36.4488 1.56799 35.3871 1.57693 34.2569 1.57693C34.2569 2.39705 34.245 3.1426 34.2599 3.88816C34.2688 4.4011 34.0332 4.68143 33.5501 4.8216C32.9208 5.00351 32.2916 5.18543 31.6832 5.42102C31.1405 5.62978 30.7557 5.52242 30.4307 5.0393C30.0221 4.43987 29.5778 3.86132 29.1215 3.23803C28.1672 3.92991 27.2516 4.59197 26.3003 5.28086C26.7864 5.95484 27.2308 6.57216 27.6811 7.18949C27.9763 7.59507 27.9495 7.96188 27.6244 8.35852C27.2099 8.8655 26.8192 9.39335 26.4673 9.94208C26.1661 10.4103 25.8082 10.5534 25.2804 10.3685C24.5825 10.124 23.8698 9.91226 23.1153 9.6707C22.7514 10.798 22.4025 11.8716 22.0447 12.978C22.8111 13.2315 23.497 13.476 24.1948 13.6848C24.7316 13.8458 24.9404 14.1649 24.9076 14.7226C24.8688 15.3757 24.8748 16.0348 24.9106 16.6879C24.9404 17.2277 24.7227 17.5289 24.2187 17.6869C23.5089 17.9076 22.8051 18.1522 22.0417 18.4056C22.4085 19.527 22.7574 20.6006 23.1242 21.7189C23.8936 21.4714 24.6064 21.2537 25.3102 21.0091C25.8172 20.8332 26.1661 20.9823 26.4554 21.4207C26.8073 21.9485 27.1681 22.4764 27.5737 22.9625C27.9435 23.4039 27.9942 23.8005 27.6363 24.2687C27.186 24.8592 26.7655 25.4735 26.3092 26.1087C27.2665 26.8036 28.1821 27.4657 29.1274 28.1516C29.6136 27.4865 30.0579 26.8871 30.4903 26.2787C30.7796 25.8702 31.1285 25.7598 31.6087 25.9388C32.2379 26.1743 32.8791 26.3891 33.5262 26.565C34.0481 26.7052 34.2748 27.0034 34.2628 27.5342C34.2509 28.1337 34.2688 28.7331 34.2569 29.3325C34.2509 29.6785 34.3672 29.8485 34.743 29.8395C35.6048 29.8216 36.4667 29.8216 37.3286 29.8306C37.6626 29.8335 37.7998 29.7172 37.7878 29.3713C37.767 28.754 37.7968 28.1337 37.7789 27.5163C37.764 26.9766 38.0234 26.6933 38.5274 26.5561C39.1209 26.392 39.7114 26.2072 40.2899 25.9954C40.9729 25.7449 41.1995 25.7956 41.629 26.3801C42.0554 26.9617 42.4789 27.5462 42.9262 28.1575C43.8895 27.4627 44.7931 26.8036 45.7325 26.1177ZM41.6767 42.7854C41.6797 42.7168 41.6826 42.6511 41.6826 42.5826C41.4023 42.4633 41.1071 42.3768 40.8476 42.2247C39.4907 41.4344 38.1487 40.6173 36.7918 39.83C36.4399 39.6242 36.079 39.4781 35.6377 39.7256C34.2748 40.492 32.8851 41.2107 31.5132 41.9623C31.1375 42.168 30.7915 42.4245 30.3263 42.7287C31.045 43.0866 31.6773 43.3848 32.2916 43.7158C33.3622 44.2914 34.4269 44.8729 35.4796 45.4813C35.8554 45.699 36.1476 45.7407 36.5472 45.5051C37.6268 44.8699 38.7302 44.2765 39.8336 43.689C40.4361 43.3669 41.0623 43.0866 41.6767 42.7854ZM58.4129 42.669C58.6545 42.8152 58.8245 42.9255 59.0034 43.0239C60.5273 43.8649 62.0632 44.688 63.5752 45.5499C63.9002 45.7348 64.1299 45.7169 64.443 45.5439C66.0981 44.6373 67.7682 43.7576 69.4323 42.8599C69.5158 42.8152 69.5694 42.7138 69.638 42.6362C69.2533 42.2784 68.7851 42.1829 68.3766 41.9712C67.464 41.497 66.5186 41.0527 65.6955 40.4473C64.5444 39.6003 63.5543 39.5466 62.3495 40.4085C61.1446 41.2674 59.7728 41.9026 58.4129 42.669ZM13.5364 42.6869C13.435 42.6064 13.3843 42.5498 13.3216 42.514C11.6456 41.5686 9.9726 40.6173 8.28168 39.6958C8.11766 39.6063 7.81049 39.6361 7.63454 39.7316C6.45059 40.3697 5.28454 41.0437 4.10954 41.6998C3.53099 42.0219 2.94648 42.3291 2.26056 42.6989C2.62738 42.8659 2.89876 42.9702 3.14927 43.1074C4.60758 43.9067 6.07185 44.697 7.51227 45.526C7.87013 45.7318 8.13555 45.7139 8.48149 45.5201C9.91296 44.7089 11.3593 43.9275 12.7968 43.1313C13.0383 42.9971 13.2709 42.848 13.5364 42.6869ZM42.4878 43.9514C41.796 44.3659 41.2532 44.7029 40.6955 45.019C39.5593 45.6662 38.4201 46.3133 37.2719 46.9396C36.9379 47.1215 36.7918 47.3243 36.8007 47.7239C36.8276 49.3313 36.8097 50.9417 36.8127 52.5521C36.8127 52.7102 36.8335 52.8683 36.8455 53.0472C36.9468 53.0233 37.0035 53.0204 37.0482 52.9965C38.769 52.0511 40.4897 51.1087 42.2015 50.1485C42.3357 50.0739 42.4729 49.8681 42.4759 49.725C42.4968 47.8671 42.4878 46.0151 42.4878 43.9514ZM1.62535 44.0647C1.58061 44.193 1.54483 44.2437 1.54483 44.2944C1.54185 46.0897 1.52693 47.885 1.55974 49.6773C1.56272 49.8711 1.79235 50.1276 1.98321 50.2379C3.57572 51.1386 5.18314 52.0153 6.78758 52.8951C6.90389 52.9607 7.03809 52.9965 7.21404 53.0651C7.21404 51.1565 7.22001 49.3254 7.2051 47.4943C7.2051 47.3571 7.09774 47.1633 6.98143 47.0977C5.21893 46.0837 3.44451 45.0876 1.62535 44.0647ZM29.6016 44.026C29.6016 45.9435 29.6136 47.7358 29.5927 49.5282C29.5867 49.9069 29.7269 50.0948 30.043 50.2648C31.3104 50.9447 32.566 51.6515 33.8274 52.3464C34.2628 52.5879 34.7012 52.8205 35.2291 53.1068C35.2291 51.1296 35.2321 49.2657 35.2201 47.3989C35.2201 47.2945 35.1277 47.1484 35.0352 47.0947C33.2668 46.0867 31.4924 45.0906 29.6016 44.026ZM8.78568 53.0561C8.93777 53.0054 9.00935 52.9935 9.06899 52.9577C10.7569 52.0303 12.4479 51.1087 14.1239 50.1544C14.2819 50.065 14.4102 49.7757 14.4131 49.5789C14.437 47.876 14.4281 46.1702 14.4251 44.4673C14.4251 44.351 14.3893 44.2347 14.3624 44.0677C12.5463 45.0876 10.7838 46.0688 9.03619 47.0768C8.89304 47.1603 8.80059 47.4406 8.80059 47.6315C8.77971 49.0361 8.78866 50.4407 8.78866 51.8424C8.78568 52.2301 8.78568 52.6178 8.78568 53.0561ZM57.6256 44.0916C57.6018 44.2168 57.5779 44.2854 57.5779 44.354C57.5749 46.1344 57.563 47.9118 57.5839 49.6922C57.5869 49.8622 57.7568 50.1008 57.9149 50.1902C59.5432 51.1117 61.1864 52.0094 62.8266 52.91C62.928 52.9667 63.0503 52.9846 63.2113 53.0382C63.2113 51.1445 63.2203 49.3105 63.1934 47.4764C63.1905 47.3154 62.9906 47.1006 62.8266 47.0052C61.2878 46.1165 59.737 45.2457 58.1893 44.3719C58.0163 44.2765 57.8344 44.1959 57.6256 44.0916ZM64.7919 53.0353C64.9112 53.0174 64.9708 53.0204 65.0126 52.9965C66.7333 52.0511 68.4571 51.1087 70.1629 50.1365C70.318 50.0471 70.4253 49.7459 70.4283 49.5401C70.4522 48.3055 70.4402 47.0708 70.4402 45.8332C70.4402 45.2636 70.4402 44.691 70.4402 44.023C68.5555 45.0846 66.7632 46.0867 64.9887 47.1155C64.8635 47.1871 64.8068 47.4615 64.8009 47.6404C64.783 48.556 64.7919 49.4745 64.7919 50.39C64.7919 51.2638 64.7919 52.1376 64.7919 53.0353Z" fill="#0274BA"/>
<path d="M35.9992 21.9903C32.5309 21.9754 29.7276 19.1542 29.7246 15.6799C29.7216 12.2026 32.5756 9.40528 36.1066 9.42616C39.5391 9.44703 42.3365 12.2861 42.3156 15.7276C42.2917 19.2049 39.4676 22.0052 35.9992 21.9903ZM40.741 15.6918C40.738 13.0645 38.6236 10.968 35.9694 10.965C33.4405 10.962 31.2933 13.1301 31.2962 15.6859C31.2992 18.2893 33.4106 20.4306 35.9933 20.4425C38.6117 20.4544 40.7439 18.3221 40.741 15.6918Z" fill="#0274BA"/>
</svg>
